<?xml version="1.0" encoding="UTF-8" standalone="no"?>
<!DOCTYPE svg PUBLIC "-//W3C//DTD SVG 1.1//EN"
 "http://www.w3.org/Graphics/SVG/1.1/DTD/svg11.dtd">
<!-- Generated by graphviz version 2.47.0 (20210316.0004)
 -->
<!-- Title: dependencies Pages: 1 -->
<svg width="537pt" height="284pt"
 viewBox="0.00 0.00 537.00 284.00" xmlns="http://www.w3.org/2000/svg" xmlns:xlink="http://www.w3.org/1999/xlink">
<g id="graph0" class="graph" transform="scale(1 1) rotate(0) translate(4 280)">
<title>dependencies</title>
<polygon fill="white" stroke="transparent" points="-4,4 -4,-280 533,-280 533,4 -4,4"/>
<text text-anchor="start" x="243.51" y="-42.4" font-family="sans-serif" font-weight="bold" font-size="14.00">Legend</text>
<polygon fill="#ffffb3" stroke="transparent" points="30.5,-10 30.5,-30 50.5,-30 50.5,-10 30.5,-10"/>
<text text-anchor="start" x="54.13" y="-15.4" font-family="sans-serif" font-size="14.00"> &#160;Declarations</text>
<polygon fill="#8dd3c7" stroke="transparent" points="143.5,-10 143.5,-30 163.5,-30 163.5,-10 143.5,-10"/>
<text text-anchor="start" x="167.23" y="-15.4" font-family="sans-serif" font-size="14.00"> &#160;Module</text>
<polygon fill="#80b1d3" stroke="transparent" points="229.5,-10 229.5,-30 249.5,-30 249.5,-10 229.5,-10"/>
<text text-anchor="start" x="253.28" y="-15.4" font-family="sans-serif" font-size="14.00"> &#160;Bootstrap</text>
<polygon fill="#fdb462" stroke="transparent" points="326.5,-10 326.5,-30 346.5,-30 346.5,-10 326.5,-10"/>
<text text-anchor="start" x="350.17" y="-15.4" font-family="sans-serif" font-size="14.00"> &#160;Providers</text>
<polygon fill="#fb8072" stroke="transparent" points="422.5,-10 422.5,-30 442.5,-30 442.5,-10 422.5,-10"/>
<text text-anchor="start" x="446.23" y="-15.4" font-family="sans-serif" font-size="14.00"> &#160;Exports</text>
<g id="clust1" class="cluster">
<title>cluster_PopModule</title>
<polygon fill="none" stroke="black" stroke-dasharray="1,5" points="8,-70 8,-268 521,-268 521,-70 8,-70"/>
</g>
<g id="clust5" class="cluster">
<title>cluster_PopModule_imports</title>
<polygon fill="none" stroke="black" points="413,-78 413,-130 513,-130 513,-78 413,-78"/>
</g>
<g id="clust6" class="cluster">
<title>cluster_PopModule_exports</title>
<polygon fill="none" stroke="black" points="131,-208 131,-260 393,-260 393,-208 131,-208"/>
</g>
<g id="clust8" class="cluster">
<title>cluster_PopModule_providers</title>
<polygon fill="none" stroke="black" points="279,-78 279,-130 405,-130 405,-78 279,-78"/>
</g>
<g id="clust2" class="cluster">
<title>cluster_PopModule_declarations</title>
<polygon fill="none" stroke="black" points="16,-78 16,-130 271,-130 271,-78 16,-78"/>
</g>
<!-- ModalComponent -->
<g id="node1" class="node">
<title>ModalComponent</title>
<polygon fill="#ffffb3" stroke="black" points="262.88,-122 145.12,-122 145.12,-86 262.88,-86 262.88,-122"/>
<text text-anchor="middle" x="204" y="-99.8" font-family="Times,serif" font-size="14.00">ModalComponent</text>
</g>
<!-- PopModule -->
<g id="node3" class="node">
<title>PopModule</title>
<polygon fill="#8dd3c7" stroke="black" points="298.83,-187 295.83,-191 274.83,-191 271.83,-187 217.17,-187 217.17,-151 298.83,-151 298.83,-187"/>
<text text-anchor="middle" x="258" y="-164.8" font-family="Times,serif" font-size="14.00">PopModule</text>
</g>
<!-- ModalComponent&#45;&gt;PopModule -->
<g id="edge1" class="edge">
<title>ModalComponent&#45;&gt;PopModule</title>
<path fill="none" stroke="black" d="M240.14,-122.11C240.14,-122.11 240.14,-140.99 240.14,-140.99"/>
<polygon fill="black" stroke="black" points="236.64,-140.99 240.14,-150.99 243.64,-140.99 236.64,-140.99"/>
</g>
<!-- PopComponent -->
<g id="node2" class="node">
<title>PopComponent</title>
<polygon fill="#ffffb3" stroke="black" points="127.62,-122 24.38,-122 24.38,-86 127.62,-86 127.62,-122"/>
<text text-anchor="middle" x="76" y="-99.8" font-family="Times,serif" font-size="14.00">PopComponent</text>
</g>
<!-- PopComponent&#45;&gt;PopModule -->
<g id="edge2" class="edge">
<title>PopComponent&#45;&gt;PopModule</title>
<path fill="none" stroke="black" d="M76,-122.11C76,-141.34 76,-169 76,-169 76,-169 207.16,-169 207.16,-169"/>
<polygon fill="black" stroke="black" points="207.16,-172.5 217.16,-169 207.16,-165.5 207.16,-172.5"/>
</g>
<!-- ModalComponent  -->
<g id="node5" class="node">
<title>ModalComponent </title>
<polygon fill="#fb8072" stroke="black" points="384.88,-252 263.12,-252 263.12,-216 384.88,-216 384.88,-252"/>
<text text-anchor="middle" x="324" y="-229.8" font-family="Times,serif" font-size="14.00">ModalComponent </text>
</g>
<!-- PopModule&#45;&gt;ModalComponent  -->
<g id="edge4" class="edge">
<title>PopModule&#45;&gt;ModalComponent </title>
<path fill="none" stroke="black" stroke-dasharray="5,2" d="M280.99,-187.11C280.99,-187.11 280.99,-205.99 280.99,-205.99"/>
<polygon fill="black" stroke="black" points="277.49,-205.99 280.99,-215.99 284.49,-205.99 277.49,-205.99"/>
</g>
<!-- PopComponent  -->
<g id="node6" class="node">
<title>PopComponent </title>
<polygon fill="#fb8072" stroke="black" points="245.12,-252 138.88,-252 138.88,-216 245.12,-216 245.12,-252"/>
<text text-anchor="middle" x="192" y="-229.8" font-family="Times,serif" font-size="14.00">PopComponent </text>
</g>
<!-- PopModule&#45;&gt;PopComponent  -->
<g id="edge5" class="edge">
<title>PopModule&#45;&gt;PopComponent </title>
<path fill="none" stroke="black" stroke-dasharray="5,2" d="M231.32,-187.11C231.32,-187.11 231.32,-205.99 231.32,-205.99"/>
<polygon fill="black" stroke="black" points="227.82,-205.99 231.32,-215.99 234.82,-205.99 227.82,-205.99"/>
</g>
<!-- IconModule -->
<g id="node4" class="node">
<title>IconModule</title>
<polygon fill="#8dd3c7" stroke="black" points="505.43,-122 502.43,-126 481.43,-126 478.43,-122 420.57,-122 420.57,-86 505.43,-86 505.43,-122"/>
<text text-anchor="middle" x="463" y="-99.8" font-family="Times,serif" font-size="14.00">IconModule</text>
</g>
<!-- IconModule&#45;&gt;PopModule -->
<g id="edge3" class="edge">
<title>IconModule&#45;&gt;PopModule</title>
<path fill="none" stroke="black" d="M463,-122.11C463,-141.34 463,-169 463,-169 463,-169 308.99,-169 308.99,-169"/>
<polygon fill="black" stroke="black" points="308.99,-165.5 298.99,-169 308.99,-172.5 308.99,-165.5"/>
</g>
<!-- PopService -->
<g id="node7" class="node">
<title>PopService</title>
<ellipse fill="#fdb462" stroke="black" cx="342" cy="-104" rx="55.03" ry="18"/>
<text text-anchor="middle" x="342" y="-99.8" font-family="Times,serif" font-size="14.00">PopService</text>
</g>
<!-- PopService&#45;&gt;PopModule -->
<g id="edge6" class="edge">
<title>PopService&#45;&gt;PopModule</title>
<path fill="none" stroke="black" d="M292.82,-112.23C292.82,-112.23 292.82,-140.76 292.82,-140.76"/>
<polygon fill="black" stroke="black" points="289.32,-140.76 292.82,-150.76 296.32,-140.76 289.32,-140.76"/>
</g>
</g>
</svg>
