<?xml version="1.0" encoding="UTF-8" standalone="no"?>
<!DOCTYPE svg PUBLIC "-//W3C//DTD SVG 1.1//EN"
 "http://www.w3.org/Graphics/SVG/1.1/DTD/svg11.dtd">
<!-- Generated by graphviz version 2.47.0 (20210316.0004)
 -->
<!-- Title: dependencies Pages: 1 -->
<svg width="537pt" height="284pt"
 viewBox="0.00 0.00 537.00 284.00" xmlns="http://www.w3.org/2000/svg" xmlns:xlink="http://www.w3.org/1999/xlink">
<g id="graph0" class="graph" transform="scale(1 1) rotate(0) translate(4 280)">
<title>dependencies</title>
<polygon fill="white" stroke="transparent" points="-4,4 -4,-280 533,-280 533,4 -4,4"/>
<text text-anchor="start" x="243.51" y="-42.4" font-family="sans-serif" font-weight="bold" font-size="14.00">Legend</text>
<polygon fill="#ffffb3" stroke="transparent" points="30.5,-10 30.5,-30 50.5,-30 50.5,-10 30.5,-10"/>
<text text-anchor="start" x="54.13" y="-15.4" font-family="sans-serif" font-size="14.00"> &#160;Declarations</text>
<polygon fill="#8dd3c7" stroke="transparent" points="143.5,-10 143.5,-30 163.5,-30 163.5,-10 143.5,-10"/>
<text text-anchor="start" x="167.23" y="-15.4" font-family="sans-serif" font-size="14.00"> &#160;Module</text>
<polygon fill="#80b1d3" stroke="transparent" points="229.5,-10 229.5,-30 249.5,-30 249.5,-10 229.5,-10"/>
<text text-anchor="start" x="253.28" y="-15.4" font-family="sans-serif" font-size="14.00"> &#160;Bootstrap</text>
<polygon fill="#fdb462" stroke="transparent" points="326.5,-10 326.5,-30 346.5,-30 346.5,-10 326.5,-10"/>
<text text-anchor="start" x="350.17" y="-15.4" font-family="sans-serif" font-size="14.00"> &#160;Providers</text>
<polygon fill="#fb8072" stroke="transparent" points="422.5,-10 422.5,-30 442.5,-30 442.5,-10 422.5,-10"/>
<text text-anchor="start" x="446.23" y="-15.4" font-family="sans-serif" font-size="14.00"> &#160;Exports</text>
<g id="clust1" class="cluster">
<title>cluster_PopModule</title>
<polygon fill="none" stroke="black" stroke-dasharray="1,5" points="8,-70 8,-268 521,-268 521,-70 8,-70"/>
</g>
<g id="clust6" class="cluster">
<title>cluster_PopModule_exports</title>
<polygon fill="none" stroke="black" points="129,-208 129,-260 391,-260 391,-208 129,-208"/>
</g>
<g id="clust2" class="cluster">
<title>cluster_PopModule_declarations</title>
<polygon fill="none" stroke="black" points="258,-78 258,-130 513,-130 513,-78 258,-78"/>
</g>
<g id="clust5" class="cluster">
<title>cluster_PopModule_imports</title>
<polygon fill="none" stroke="black" points="150,-78 150,-130 250,-130 250,-78 150,-78"/>
</g>
<g id="clust8" class="cluster">
<title>cluster_PopModule_providers</title>
<polygon fill="none" stroke="black" points="16,-78 16,-130 142,-130 142,-78 16,-78"/>
</g>
<!-- ModalComponent -->
<g id="node1" class="node">
<title>ModalComponent</title>
<polygon fill="#ffffb3" stroke="black" points="504.88,-122 387.12,-122 387.12,-86 504.88,-86 504.88,-122"/>
<text text-anchor="middle" x="446" y="-99.8" font-family="Times,serif" font-size="14.00">ModalComponent</text>
</g>
<!-- PopModule -->
<g id="node3" class="node">
<title>PopModule</title>
<polygon fill="#8dd3c7" stroke="black" points="296.83,-187 293.83,-191 272.83,-191 269.83,-187 215.17,-187 215.17,-151 296.83,-151 296.83,-187"/>
<text text-anchor="middle" x="256" y="-164.8" font-family="Times,serif" font-size="14.00">PopModule</text>
</g>
<!-- ModalComponent&#45;&gt;PopModule -->
<g id="edge1" class="edge">
<title>ModalComponent&#45;&gt;PopModule</title>
<path fill="none" stroke="black" d="M446,-122.11C446,-141.34 446,-169 446,-169 446,-169 306.76,-169 306.76,-169"/>
<polygon fill="black" stroke="black" points="306.76,-165.5 296.76,-169 306.76,-172.5 306.76,-165.5"/>
</g>
<!-- PopComponent -->
<g id="node2" class="node">
<title>PopComponent</title>
<polygon fill="#ffffb3" stroke="black" points="369.62,-122 266.38,-122 266.38,-86 369.62,-86 369.62,-122"/>
<text text-anchor="middle" x="318" y="-99.8" font-family="Times,serif" font-size="14.00">PopComponent</text>
</g>
<!-- PopComponent&#45;&gt;PopModule -->
<g id="edge2" class="edge">
<title>PopComponent&#45;&gt;PopModule</title>
<path fill="none" stroke="black" d="M281.55,-122.11C281.55,-122.11 281.55,-140.99 281.55,-140.99"/>
<polygon fill="black" stroke="black" points="278.05,-140.99 281.55,-150.99 285.05,-140.99 278.05,-140.99"/>
</g>
<!-- ModalComponent  -->
<g id="node5" class="node">
<title>ModalComponent </title>
<polygon fill="#fb8072" stroke="black" points="382.88,-252 261.12,-252 261.12,-216 382.88,-216 382.88,-252"/>
<text text-anchor="middle" x="322" y="-229.8" font-family="Times,serif" font-size="14.00">ModalComponent </text>
</g>
<!-- PopModule&#45;&gt;ModalComponent  -->
<g id="edge4" class="edge">
<title>PopModule&#45;&gt;ModalComponent </title>
<path fill="none" stroke="black" stroke-dasharray="5,2" d="M278.99,-187.11C278.99,-187.11 278.99,-205.99 278.99,-205.99"/>
<polygon fill="black" stroke="black" points="275.49,-205.99 278.99,-215.99 282.49,-205.99 275.49,-205.99"/>
</g>
<!-- PopComponent  -->
<g id="node6" class="node">
<title>PopComponent </title>
<polygon fill="#fb8072" stroke="black" points="243.12,-252 136.88,-252 136.88,-216 243.12,-216 243.12,-252"/>
<text text-anchor="middle" x="190" y="-229.8" font-family="Times,serif" font-size="14.00">PopComponent </text>
</g>
<!-- PopModule&#45;&gt;PopComponent  -->
<g id="edge5" class="edge">
<title>PopModule&#45;&gt;PopComponent </title>
<path fill="none" stroke="black" stroke-dasharray="5,2" d="M229.32,-187.11C229.32,-187.11 229.32,-205.99 229.32,-205.99"/>
<polygon fill="black" stroke="black" points="225.82,-205.99 229.32,-215.99 232.82,-205.99 225.82,-205.99"/>
</g>
<!-- IconModule -->
<g id="node4" class="node">
<title>IconModule</title>
<polygon fill="#8dd3c7" stroke="black" points="242.43,-122 239.43,-126 218.43,-126 215.43,-122 157.57,-122 157.57,-86 242.43,-86 242.43,-122"/>
<text text-anchor="middle" x="200" y="-99.8" font-family="Times,serif" font-size="14.00">IconModule</text>
</g>
<!-- IconModule&#45;&gt;PopModule -->
<g id="edge3" class="edge">
<title>IconModule&#45;&gt;PopModule</title>
<path fill="none" stroke="black" d="M228.77,-122.11C228.77,-122.11 228.77,-140.99 228.77,-140.99"/>
<polygon fill="black" stroke="black" points="225.27,-140.99 228.77,-150.99 232.27,-140.99 225.27,-140.99"/>
</g>
<!-- PopService -->
<g id="node7" class="node">
<title>PopService</title>
<ellipse fill="#fdb462" stroke="black" cx="79" cy="-104" rx="55.03" ry="18"/>
<text text-anchor="middle" x="79" y="-99.8" font-family="Times,serif" font-size="14.00">PopService</text>
</g>
<!-- PopService&#45;&gt;PopModule -->
<g id="edge6" class="edge">
<title>PopService&#45;&gt;PopModule</title>
<path fill="none" stroke="black" d="M79,-122.11C79,-141.34 79,-169 79,-169 79,-169 204.95,-169 204.95,-169"/>
<polygon fill="black" stroke="black" points="204.95,-172.5 214.95,-169 204.95,-165.5 204.95,-172.5"/>
</g>
</g>
</svg>
