<?xml version="1.0" encoding="UTF-8" standalone="no"?>
<!DOCTYPE svg PUBLIC "-//W3C//DTD SVG 1.1//EN"
 "http://www.w3.org/Graphics/SVG/1.1/DTD/svg11.dtd">
<!-- Generated by graphviz version 2.47.0 (20210316.0004)
 -->
<!-- Title: dependencies Pages: 1 -->
<svg width="537pt" height="284pt"
 viewBox="0.00 0.00 537.00 284.00" xmlns="http://www.w3.org/2000/svg" xmlns:xlink="http://www.w3.org/1999/xlink">
<g id="graph0" class="graph" transform="scale(1 1) rotate(0) translate(4 280)">
<title>dependencies</title>
<polygon fill="white" stroke="transparent" points="-4,4 -4,-280 533,-280 533,4 -4,4"/>
<text text-anchor="start" x="243.51" y="-42.4" font-family="sans-serif" font-weight="bold" font-size="14.00">Legend</text>
<polygon fill="#ffffb3" stroke="transparent" points="30.5,-10 30.5,-30 50.5,-30 50.5,-10 30.5,-10"/>
<text text-anchor="start" x="54.13" y="-15.4" font-family="sans-serif" font-size="14.00"> &#160;Declarations</text>
<polygon fill="#8dd3c7" stroke="transparent" points="143.5,-10 143.5,-30 163.5,-30 163.5,-10 143.5,-10"/>
<text text-anchor="start" x="167.23" y="-15.4" font-family="sans-serif" font-size="14.00"> &#160;Module</text>
<polygon fill="#80b1d3" stroke="transparent" points="229.5,-10 229.5,-30 249.5,-30 249.5,-10 229.5,-10"/>
<text text-anchor="start" x="253.28" y="-15.4" font-family="sans-serif" font-size="14.00"> &#160;Bootstrap</text>
<polygon fill="#fdb462" stroke="transparent" points="326.5,-10 326.5,-30 346.5,-30 346.5,-10 326.5,-10"/>
<text text-anchor="start" x="350.17" y="-15.4" font-family="sans-serif" font-size="14.00"> &#160;Providers</text>
<polygon fill="#fb8072" stroke="transparent" points="422.5,-10 422.5,-30 442.5,-30 442.5,-10 422.5,-10"/>
<text text-anchor="start" x="446.23" y="-15.4" font-family="sans-serif" font-size="14.00"> &#160;Exports</text>
<g id="clust1" class="cluster">
<title>cluster_PopModule</title>
<polygon fill="none" stroke="black" stroke-dasharray="1,5" points="8,-70 8,-268 521,-268 521,-70 8,-70"/>
</g>
<g id="clust8" class="cluster">
<title>cluster_PopModule_providers</title>
<polygon fill="none" stroke="black" points="387,-78 387,-130 513,-130 513,-78 387,-78"/>
</g>
<g id="clust6" class="cluster">
<title>cluster_PopModule_exports</title>
<polygon fill="none" stroke="black" points="121,-208 121,-260 383,-260 383,-208 121,-208"/>
</g>
<g id="clust2" class="cluster">
<title>cluster_PopModule_declarations</title>
<polygon fill="none" stroke="black" points="124,-78 124,-130 379,-130 379,-78 124,-78"/>
</g>
<g id="clust5" class="cluster">
<title>cluster_PopModule_imports</title>
<polygon fill="none" stroke="black" points="16,-78 16,-130 116,-130 116,-78 16,-78"/>
</g>
<!-- ModalComponent -->
<g id="node1" class="node">
<title>ModalComponent</title>
<polygon fill="#ffffb3" stroke="black" points="370.88,-122 253.12,-122 253.12,-86 370.88,-86 370.88,-122"/>
<text text-anchor="middle" x="312" y="-99.8" font-family="Times,serif" font-size="14.00">ModalComponent</text>
</g>
<!-- PopModule -->
<g id="node3" class="node">
<title>PopModule</title>
<polygon fill="#8dd3c7" stroke="black" points="288.83,-187 285.83,-191 264.83,-191 261.83,-187 207.17,-187 207.17,-151 288.83,-151 288.83,-187"/>
<text text-anchor="middle" x="248" y="-164.8" font-family="Times,serif" font-size="14.00">PopModule</text>
</g>
<!-- ModalComponent&#45;&gt;PopModule -->
<g id="edge1" class="edge">
<title>ModalComponent&#45;&gt;PopModule</title>
<path fill="none" stroke="black" d="M270.86,-122.11C270.86,-122.11 270.86,-140.99 270.86,-140.99"/>
<polygon fill="black" stroke="black" points="267.36,-140.99 270.86,-150.99 274.36,-140.99 267.36,-140.99"/>
</g>
<!-- PopComponent -->
<g id="node2" class="node">
<title>PopComponent</title>
<polygon fill="#ffffb3" stroke="black" points="235.62,-122 132.38,-122 132.38,-86 235.62,-86 235.62,-122"/>
<text text-anchor="middle" x="184" y="-99.8" font-family="Times,serif" font-size="14.00">PopComponent</text>
</g>
<!-- PopComponent&#45;&gt;PopModule -->
<g id="edge2" class="edge">
<title>PopComponent&#45;&gt;PopModule</title>
<path fill="none" stroke="black" d="M221.45,-122.11C221.45,-122.11 221.45,-140.99 221.45,-140.99"/>
<polygon fill="black" stroke="black" points="217.95,-140.99 221.45,-150.99 224.95,-140.99 217.95,-140.99"/>
</g>
<!-- ModalComponent  -->
<g id="node5" class="node">
<title>ModalComponent </title>
<polygon fill="#fb8072" stroke="black" points="374.88,-252 253.12,-252 253.12,-216 374.88,-216 374.88,-252"/>
<text text-anchor="middle" x="314" y="-229.8" font-family="Times,serif" font-size="14.00">ModalComponent </text>
</g>
<!-- PopModule&#45;&gt;ModalComponent  -->
<g id="edge4" class="edge">
<title>PopModule&#45;&gt;ModalComponent </title>
<path fill="none" stroke="black" stroke-dasharray="5,2" d="M270.99,-187.11C270.99,-187.11 270.99,-205.99 270.99,-205.99"/>
<polygon fill="black" stroke="black" points="267.49,-205.99 270.99,-215.99 274.49,-205.99 267.49,-205.99"/>
</g>
<!-- PopComponent  -->
<g id="node6" class="node">
<title>PopComponent </title>
<polygon fill="#fb8072" stroke="black" points="235.12,-252 128.88,-252 128.88,-216 235.12,-216 235.12,-252"/>
<text text-anchor="middle" x="182" y="-229.8" font-family="Times,serif" font-size="14.00">PopComponent </text>
</g>
<!-- PopModule&#45;&gt;PopComponent  -->
<g id="edge5" class="edge">
<title>PopModule&#45;&gt;PopComponent </title>
<path fill="none" stroke="black" stroke-dasharray="5,2" d="M221.32,-187.11C221.32,-187.11 221.32,-205.99 221.32,-205.99"/>
<polygon fill="black" stroke="black" points="217.82,-205.99 221.32,-215.99 224.82,-205.99 217.82,-205.99"/>
</g>
<!-- IconModule -->
<g id="node4" class="node">
<title>IconModule</title>
<polygon fill="#8dd3c7" stroke="black" points="108.43,-122 105.43,-126 84.43,-126 81.43,-122 23.57,-122 23.57,-86 108.43,-86 108.43,-122"/>
<text text-anchor="middle" x="66" y="-99.8" font-family="Times,serif" font-size="14.00">IconModule</text>
</g>
<!-- IconModule&#45;&gt;PopModule -->
<g id="edge3" class="edge">
<title>IconModule&#45;&gt;PopModule</title>
<path fill="none" stroke="black" d="M66,-122.11C66,-141.34 66,-169 66,-169 66,-169 197.16,-169 197.16,-169"/>
<polygon fill="black" stroke="black" points="197.16,-172.5 207.16,-169 197.16,-165.5 197.16,-172.5"/>
</g>
<!-- PopService -->
<g id="node7" class="node">
<title>PopService</title>
<ellipse fill="#fdb462" stroke="black" cx="450" cy="-104" rx="55.03" ry="18"/>
<text text-anchor="middle" x="450" y="-99.8" font-family="Times,serif" font-size="14.00">PopService</text>
</g>
<!-- PopService&#45;&gt;PopModule -->
<g id="edge6" class="edge">
<title>PopService&#45;&gt;PopModule</title>
<path fill="none" stroke="black" d="M450,-122.11C450,-141.34 450,-169 450,-169 450,-169 298.88,-169 298.88,-169"/>
<polygon fill="black" stroke="black" points="298.88,-165.5 288.88,-169 298.88,-172.5 298.88,-165.5"/>
</g>
</g>
</svg>
