<?xml version="1.0" encoding="UTF-8" standalone="no"?>
<!DOCTYPE svg PUBLIC "-//W3C//DTD SVG 1.1//EN"
 "http://www.w3.org/Graphics/SVG/1.1/DTD/svg11.dtd">
<!-- Generated by graphviz version 2.47.0 (20210316.0004)
 -->
<!-- Title: dependencies Pages: 1 -->
<svg width="537pt" height="284pt"
 viewBox="0.00 0.00 537.00 284.00" xmlns="http://www.w3.org/2000/svg" xmlns:xlink="http://www.w3.org/1999/xlink">
<g id="graph0" class="graph" transform="scale(1 1) rotate(0) translate(4 280)">
<title>dependencies</title>
<polygon fill="white" stroke="transparent" points="-4,4 -4,-280 533,-280 533,4 -4,4"/>
<text text-anchor="start" x="243.51" y="-42.4" font-family="sans-serif" font-weight="bold" font-size="14.00">Legend</text>
<polygon fill="#ffffb3" stroke="transparent" points="30.5,-10 30.5,-30 50.5,-30 50.5,-10 30.5,-10"/>
<text text-anchor="start" x="54.13" y="-15.4" font-family="sans-serif" font-size="14.00"> &#160;Declarations</text>
<polygon fill="#8dd3c7" stroke="transparent" points="143.5,-10 143.5,-30 163.5,-30 163.5,-10 143.5,-10"/>
<text text-anchor="start" x="167.23" y="-15.4" font-family="sans-serif" font-size="14.00"> &#160;Module</text>
<polygon fill="#80b1d3" stroke="transparent" points="229.5,-10 229.5,-30 249.5,-30 249.5,-10 229.5,-10"/>
<text text-anchor="start" x="253.28" y="-15.4" font-family="sans-serif" font-size="14.00"> &#160;Bootstrap</text>
<polygon fill="#fdb462" stroke="transparent" points="326.5,-10 326.5,-30 346.5,-30 346.5,-10 326.5,-10"/>
<text text-anchor="start" x="350.17" y="-15.4" font-family="sans-serif" font-size="14.00"> &#160;Providers</text>
<polygon fill="#fb8072" stroke="transparent" points="422.5,-10 422.5,-30 442.5,-30 442.5,-10 422.5,-10"/>
<text text-anchor="start" x="446.23" y="-15.4" font-family="sans-serif" font-size="14.00"> &#160;Exports</text>
<g id="clust1" class="cluster">
<title>cluster_PopModule</title>
<polygon fill="none" stroke="black" stroke-dasharray="1,5" points="8,-70 8,-268 521,-268 521,-70 8,-70"/>
</g>
<g id="clust5" class="cluster">
<title>cluster_PopModule_imports</title>
<polygon fill="none" stroke="black" points="413,-78 413,-130 513,-130 513,-78 413,-78"/>
</g>
<g id="clust2" class="cluster">
<title>cluster_PopModule_declarations</title>
<polygon fill="none" stroke="black" points="150,-78 150,-130 405,-130 405,-78 150,-78"/>
</g>
<g id="clust8" class="cluster">
<title>cluster_PopModule_providers</title>
<polygon fill="none" stroke="black" points="16,-78 16,-130 142,-130 142,-78 16,-78"/>
</g>
<g id="clust6" class="cluster">
<title>cluster_PopModule_exports</title>
<polygon fill="none" stroke="black" points="134,-208 134,-260 396,-260 396,-208 134,-208"/>
</g>
<!-- ModalComponent -->
<g id="node1" class="node">
<title>ModalComponent</title>
<polygon fill="#ffffb3" stroke="black" points="396.88,-122 279.12,-122 279.12,-86 396.88,-86 396.88,-122"/>
<text text-anchor="middle" x="338" y="-99.8" font-family="Times,serif" font-size="14.00">ModalComponent</text>
</g>
<!-- PopModule -->
<g id="node3" class="node">
<title>PopModule</title>
<polygon fill="#8dd3c7" stroke="black" points="301.83,-187 298.83,-191 277.83,-191 274.83,-187 220.17,-187 220.17,-151 301.83,-151 301.83,-187"/>
<text text-anchor="middle" x="261" y="-164.8" font-family="Times,serif" font-size="14.00">PopModule</text>
</g>
<!-- ModalComponent&#45;&gt;PopModule -->
<g id="edge1" class="edge">
<title>ModalComponent&#45;&gt;PopModule</title>
<path fill="none" stroke="black" d="M290.36,-122.11C290.36,-122.11 290.36,-140.99 290.36,-140.99"/>
<polygon fill="black" stroke="black" points="286.86,-140.99 290.36,-150.99 293.86,-140.99 286.86,-140.99"/>
</g>
<!-- PopComponent -->
<g id="node2" class="node">
<title>PopComponent</title>
<polygon fill="#ffffb3" stroke="black" points="261.62,-122 158.38,-122 158.38,-86 261.62,-86 261.62,-122"/>
<text text-anchor="middle" x="210" y="-99.8" font-family="Times,serif" font-size="14.00">PopComponent</text>
</g>
<!-- PopComponent&#45;&gt;PopModule -->
<g id="edge2" class="edge">
<title>PopComponent&#45;&gt;PopModule</title>
<path fill="none" stroke="black" d="M240.95,-122.11C240.95,-122.11 240.95,-140.99 240.95,-140.99"/>
<polygon fill="black" stroke="black" points="237.45,-140.99 240.95,-150.99 244.45,-140.99 237.45,-140.99"/>
</g>
<!-- ModalComponent  -->
<g id="node5" class="node">
<title>ModalComponent </title>
<polygon fill="#fb8072" stroke="black" points="387.88,-252 266.12,-252 266.12,-216 387.88,-216 387.88,-252"/>
<text text-anchor="middle" x="327" y="-229.8" font-family="Times,serif" font-size="14.00">ModalComponent </text>
</g>
<!-- PopModule&#45;&gt;ModalComponent  -->
<g id="edge4" class="edge">
<title>PopModule&#45;&gt;ModalComponent </title>
<path fill="none" stroke="black" stroke-dasharray="5,2" d="M283.99,-187.11C283.99,-187.11 283.99,-205.99 283.99,-205.99"/>
<polygon fill="black" stroke="black" points="280.49,-205.99 283.99,-215.99 287.49,-205.99 280.49,-205.99"/>
</g>
<!-- PopComponent  -->
<g id="node6" class="node">
<title>PopComponent </title>
<polygon fill="#fb8072" stroke="black" points="248.12,-252 141.88,-252 141.88,-216 248.12,-216 248.12,-252"/>
<text text-anchor="middle" x="195" y="-229.8" font-family="Times,serif" font-size="14.00">PopComponent </text>
</g>
<!-- PopModule&#45;&gt;PopComponent  -->
<g id="edge5" class="edge">
<title>PopModule&#45;&gt;PopComponent </title>
<path fill="none" stroke="black" stroke-dasharray="5,2" d="M234.32,-187.11C234.32,-187.11 234.32,-205.99 234.32,-205.99"/>
<polygon fill="black" stroke="black" points="230.82,-205.99 234.32,-215.99 237.82,-205.99 230.82,-205.99"/>
</g>
<!-- IconModule -->
<g id="node4" class="node">
<title>IconModule</title>
<polygon fill="#8dd3c7" stroke="black" points="505.43,-122 502.43,-126 481.43,-126 478.43,-122 420.57,-122 420.57,-86 505.43,-86 505.43,-122"/>
<text text-anchor="middle" x="463" y="-99.8" font-family="Times,serif" font-size="14.00">IconModule</text>
</g>
<!-- IconModule&#45;&gt;PopModule -->
<g id="edge3" class="edge">
<title>IconModule&#45;&gt;PopModule</title>
<path fill="none" stroke="black" d="M463,-122.11C463,-141.34 463,-169 463,-169 463,-169 311.88,-169 311.88,-169"/>
<polygon fill="black" stroke="black" points="311.88,-165.5 301.88,-169 311.88,-172.5 311.88,-165.5"/>
</g>
<!-- PopService -->
<g id="node7" class="node">
<title>PopService</title>
<ellipse fill="#fdb462" stroke="black" cx="79" cy="-104" rx="55.03" ry="18"/>
<text text-anchor="middle" x="79" y="-99.8" font-family="Times,serif" font-size="14.00">PopService</text>
</g>
<!-- PopService&#45;&gt;PopModule -->
<g id="edge6" class="edge">
<title>PopService&#45;&gt;PopModule</title>
<path fill="none" stroke="black" d="M79,-122.11C79,-141.34 79,-169 79,-169 79,-169 210.16,-169 210.16,-169"/>
<polygon fill="black" stroke="black" points="210.16,-172.5 220.16,-169 210.16,-165.5 210.16,-172.5"/>
</g>
</g>
</svg>
