<?xml version="1.0" encoding="UTF-8" standalone="no"?>
<!DOCTYPE svg PUBLIC "-//W3C//DTD SVG 1.1//EN"
 "http://www.w3.org/Graphics/SVG/1.1/DTD/svg11.dtd">
<!-- Generated by graphviz version 2.40.1 (20161225.0304)
 -->
<!-- Title: dependencies Pages: 1 -->
<svg width="537pt" height="284pt"
 viewBox="0.00 0.00 537.00 284.00" xmlns="http://www.w3.org/2000/svg" xmlns:xlink="http://www.w3.org/1999/xlink">
<g id="graph0" class="graph" transform="scale(1 1) rotate(0) translate(4 280)">
<title>dependencies</title>
<polygon fill="#ffffff" stroke="transparent" points="-4,4 -4,-280 533,-280 533,4 -4,4"/>
<text text-anchor="start" x="243.5091" y="-42.4" font-family="sans-serif" font-weight="bold" font-size="14.00" fill="#000000">Legend</text>
<polygon fill="#ffffb3" stroke="transparent" points="30.5,-10 30.5,-30 50.5,-30 50.5,-10 30.5,-10"/>
<text text-anchor="start" x="54.129" y="-15.4" font-family="sans-serif" font-size="14.00" fill="#000000"> &#160;Declarations</text>
<polygon fill="#8dd3c7" stroke="transparent" points="143.5,-10 143.5,-30 163.5,-30 163.5,-10 143.5,-10"/>
<text text-anchor="start" x="167.2251" y="-15.4" font-family="sans-serif" font-size="14.00" fill="#000000"> &#160;Module</text>
<polygon fill="#80b1d3" stroke="transparent" points="229.5,-10 229.5,-30 249.5,-30 249.5,-10 229.5,-10"/>
<text text-anchor="start" x="253.2812" y="-15.4" font-family="sans-serif" font-size="14.00" fill="#000000"> &#160;Bootstrap</text>
<polygon fill="#fdb462" stroke="transparent" points="326.5,-10 326.5,-30 346.5,-30 346.5,-10 326.5,-10"/>
<text text-anchor="start" x="350.1732" y="-15.4" font-family="sans-serif" font-size="14.00" fill="#000000"> &#160;Providers</text>
<polygon fill="#fb8072" stroke="transparent" points="422.5,-10 422.5,-30 442.5,-30 442.5,-10 422.5,-10"/>
<text text-anchor="start" x="446.2258" y="-15.4" font-family="sans-serif" font-size="14.00" fill="#000000"> &#160;Exports</text>
<g id="clust1" class="cluster">
<title>cluster_PopModule</title>
<polygon fill="none" stroke="#000000" stroke-dasharray="1,5" points="8,-70 8,-268 521,-268 521,-70 8,-70"/>
</g>
<g id="clust2" class="cluster">
<title>cluster_PopModule_declarations</title>
<polygon fill="none" stroke="#000000" points="258,-78 258,-130 513,-130 513,-78 258,-78"/>
</g>
<g id="clust5" class="cluster">
<title>cluster_PopModule_imports</title>
<polygon fill="none" stroke="#000000" points="150,-78 150,-130 250,-130 250,-78 150,-78"/>
</g>
<g id="clust6" class="cluster">
<title>cluster_PopModule_exports</title>
<polygon fill="none" stroke="#000000" points="129,-208 129,-260 391,-260 391,-208 129,-208"/>
</g>
<g id="clust8" class="cluster">
<title>cluster_PopModule_providers</title>
<polygon fill="none" stroke="#000000" points="16,-78 16,-130 142,-130 142,-78 16,-78"/>
</g>
<!-- ModalComponent -->
<g id="node1" class="node">
<title>ModalComponent</title>
<polygon fill="#ffffb3" stroke="#000000" points="504.8823,-122 387.1177,-122 387.1177,-86 504.8823,-86 504.8823,-122"/>
<text text-anchor="middle" x="446" y="-99.8" font-family="Times,serif" font-size="14.00" fill="#000000">ModalComponent</text>
</g>
<!-- PopModule -->
<g id="node3" class="node">
<title>PopModule</title>
<polygon fill="#8dd3c7" stroke="#000000" points="296.8331,-187 293.8331,-191 272.8331,-191 269.8331,-187 215.1669,-187 215.1669,-151 296.8331,-151 296.8331,-187"/>
<text text-anchor="middle" x="256" y="-164.8" font-family="Times,serif" font-size="14.00" fill="#000000">PopModule</text>
</g>
<!-- ModalComponent&#45;&gt;PopModule -->
<g id="edge1" class="edge">
<title>ModalComponent&#45;&gt;PopModule</title>
<path fill="none" stroke="#000000" d="M446,-122.1061C446,-141.3391 446,-169 446,-169 446,-169 306.7598,-169 306.7598,-169"/>
<polygon fill="#000000" stroke="#000000" points="306.7598,-165.5001 296.7598,-169 306.7597,-172.5001 306.7598,-165.5001"/>
</g>
<!-- PopComponent -->
<g id="node2" class="node">
<title>PopComponent</title>
<polygon fill="#ffffb3" stroke="#000000" points="369.6151,-122 266.3849,-122 266.3849,-86 369.6151,-86 369.6151,-122"/>
<text text-anchor="middle" x="318" y="-99.8" font-family="Times,serif" font-size="14.00" fill="#000000">PopComponent</text>
</g>
<!-- PopComponent&#45;&gt;PopModule -->
<g id="edge2" class="edge">
<title>PopComponent&#45;&gt;PopModule</title>
<path fill="none" stroke="#000000" d="M281.5544,-122.1061C281.5544,-122.1061 281.5544,-140.991 281.5544,-140.991"/>
<polygon fill="#000000" stroke="#000000" points="278.0544,-140.9909 281.5544,-150.991 285.0544,-140.991 278.0544,-140.9909"/>
</g>
<!-- ModalComponent  -->
<g id="node5" class="node">
<title>ModalComponent </title>
<polygon fill="#fb8072" stroke="#000000" points="382.8828,-252 261.1172,-252 261.1172,-216 382.8828,-216 382.8828,-252"/>
<text text-anchor="middle" x="322" y="-229.8" font-family="Times,serif" font-size="14.00" fill="#000000">ModalComponent </text>
</g>
<!-- PopModule&#45;&gt;ModalComponent  -->
<g id="edge4" class="edge">
<title>PopModule&#45;&gt;ModalComponent </title>
<path fill="none" stroke="#000000" stroke-dasharray="5,2" d="M278.9876,-187.1061C278.9876,-187.1061 278.9876,-205.991 278.9876,-205.991"/>
<polygon fill="#000000" stroke="#000000" points="275.4876,-205.9909 278.9876,-215.991 282.4876,-205.991 275.4876,-205.9909"/>
</g>
<!-- PopComponent  -->
<g id="node6" class="node">
<title>PopComponent </title>
<polygon fill="#fb8072" stroke="#000000" points="243.1157,-252 136.8843,-252 136.8843,-216 243.1157,-216 243.1157,-252"/>
<text text-anchor="middle" x="190" y="-229.8" font-family="Times,serif" font-size="14.00" fill="#000000">PopComponent </text>
</g>
<!-- PopModule&#45;&gt;PopComponent  -->
<g id="edge5" class="edge">
<title>PopModule&#45;&gt;PopComponent </title>
<path fill="none" stroke="#000000" stroke-dasharray="5,2" d="M229.3207,-187.1061C229.3207,-187.1061 229.3207,-205.991 229.3207,-205.991"/>
<polygon fill="#000000" stroke="#000000" points="225.8207,-205.9909 229.3207,-215.991 232.8207,-205.991 225.8207,-205.9909"/>
</g>
<!-- IconModule -->
<g id="node4" class="node">
<title>IconModule</title>
<polygon fill="#8dd3c7" stroke="#000000" points="242.4261,-122 239.4261,-126 218.4261,-126 215.4261,-122 157.5739,-122 157.5739,-86 242.4261,-86 242.4261,-122"/>
<text text-anchor="middle" x="200" y="-99.8" font-family="Times,serif" font-size="14.00" fill="#000000">IconModule</text>
</g>
<!-- IconModule&#45;&gt;PopModule -->
<g id="edge3" class="edge">
<title>IconModule&#45;&gt;PopModule</title>
<path fill="none" stroke="#000000" d="M228.7732,-122.1061C228.7732,-122.1061 228.7732,-140.991 228.7732,-140.991"/>
<polygon fill="#000000" stroke="#000000" points="225.2732,-140.9909 228.7732,-150.991 232.2732,-140.991 225.2732,-140.9909"/>
</g>
<!-- PopService -->
<g id="node7" class="node">
<title>PopService</title>
<ellipse fill="#fdb462" stroke="#000000" cx="79" cy="-104" rx="55.0343" ry="18"/>
<text text-anchor="middle" x="79" y="-99.8" font-family="Times,serif" font-size="14.00" fill="#000000">PopService</text>
</g>
<!-- PopService&#45;&gt;PopModule -->
<g id="edge6" class="edge">
<title>PopService&#45;&gt;PopModule</title>
<path fill="none" stroke="#000000" d="M79,-122.1061C79,-141.3391 79,-169 79,-169 79,-169 204.9478,-169 204.9478,-169"/>
<polygon fill="#000000" stroke="#000000" points="204.9478,-172.5001 214.9478,-169 204.9477,-165.5001 204.9478,-172.5001"/>
</g>
</g>
</svg>
