<?xml version="1.0" encoding="UTF-8" standalone="no"?>
<!DOCTYPE svg PUBLIC "-//W3C//DTD SVG 1.1//EN"
 "http://www.w3.org/Graphics/SVG/1.1/DTD/svg11.dtd">
<!-- Generated by graphviz version 2.40.1 (20161225.0304)
 -->
<!-- Title: dependencies Pages: 1 -->
<svg width="979pt" height="284pt"
 viewBox="0.00 0.00 979.00 284.00" xmlns="http://www.w3.org/2000/svg" xmlns:xlink="http://www.w3.org/1999/xlink">
<g id="graph0" class="graph" transform="scale(1 1) rotate(0) translate(4 280)">
<title>dependencies</title>
<polygon fill="#ffffff" stroke="transparent" points="-4,4 -4,-280 975,-280 975,4 -4,4"/>
<text text-anchor="start" x="464.5091" y="-42.4" font-family="sans-serif" font-weight="bold" font-size="14.00" fill="#000000">Legend</text>
<polygon fill="#ffffb3" stroke="transparent" points="251.5,-10 251.5,-30 271.5,-30 271.5,-10 251.5,-10"/>
<text text-anchor="start" x="275.129" y="-15.4" font-family="sans-serif" font-size="14.00" fill="#000000"> &#160;Declarations</text>
<polygon fill="#8dd3c7" stroke="transparent" points="364.5,-10 364.5,-30 384.5,-30 384.5,-10 364.5,-10"/>
<text text-anchor="start" x="388.2251" y="-15.4" font-family="sans-serif" font-size="14.00" fill="#000000"> &#160;Module</text>
<polygon fill="#80b1d3" stroke="transparent" points="450.5,-10 450.5,-30 470.5,-30 470.5,-10 450.5,-10"/>
<text text-anchor="start" x="474.2812" y="-15.4" font-family="sans-serif" font-size="14.00" fill="#000000"> &#160;Bootstrap</text>
<polygon fill="#fdb462" stroke="transparent" points="547.5,-10 547.5,-30 567.5,-30 567.5,-10 547.5,-10"/>
<text text-anchor="start" x="571.1732" y="-15.4" font-family="sans-serif" font-size="14.00" fill="#000000"> &#160;Providers</text>
<polygon fill="#fb8072" stroke="transparent" points="643.5,-10 643.5,-30 663.5,-30 663.5,-10 643.5,-10"/>
<text text-anchor="start" x="667.2258" y="-15.4" font-family="sans-serif" font-size="14.00" fill="#000000"> &#160;Exports</text>
<g id="clust1" class="cluster">
<title>cluster_IoModule</title>
<polygon fill="none" stroke="#000000" stroke-dasharray="1,5" points="8,-70 8,-268 963,-268 963,-70 8,-70"/>
</g>
<g id="clust2" class="cluster">
<title>cluster_IoModule_declarations</title>
<polygon fill="none" stroke="#000000" points="32,-78 32,-130 948,-130 948,-78 32,-78"/>
</g>
<g id="clust10" class="cluster">
<title>cluster_IoModule_exports</title>
<polygon fill="none" stroke="#000000" points="16,-208 16,-260 955,-260 955,-208 16,-208"/>
</g>
<!-- InputErrorsComponent -->
<g id="node1" class="node">
<title>InputErrorsComponent</title>
<polygon fill="#ffffb3" stroke="#000000" points="939.8627,-122 794.1373,-122 794.1373,-86 939.8627,-86 939.8627,-122"/>
<text text-anchor="middle" x="867" y="-99.8" font-family="Times,serif" font-size="14.00" fill="#000000">InputErrorsComponent</text>
</g>
<!-- IoModule -->
<g id="node7" class="node">
<title>IoModule</title>
<polygon fill="#8dd3c7" stroke="#000000" points="432.7107,-187 429.7107,-191 408.7107,-191 405.7107,-187 361.2893,-187 361.2893,-151 432.7107,-151 432.7107,-187"/>
<text text-anchor="middle" x="397" y="-164.8" font-family="Times,serif" font-size="14.00" fill="#000000">IoModule</text>
</g>
<!-- InputErrorsComponent&#45;&gt;IoModule -->
<g id="edge1" class="edge">
<title>InputErrorsComponent&#45;&gt;IoModule</title>
<path fill="none" stroke="#000000" d="M801.2126,-122.2222C801.2126,-140.8285 801.2126,-167 801.2126,-167 801.2126,-167 442.8712,-167 442.8712,-167"/>
<polygon fill="#000000" stroke="#000000" points="442.8712,-163.5001 432.8712,-167 442.8711,-170.5001 442.8712,-163.5001"/>
</g>
<!-- SlotHostDirective -->
<g id="node2" class="node">
<title>SlotHostDirective</title>
<polygon fill="#ffffb3" stroke="#000000" points="776.5884,-122 659.4116,-122 659.4116,-86 776.5884,-86 776.5884,-122"/>
<text text-anchor="middle" x="718" y="-99.8" font-family="Times,serif" font-size="14.00" fill="#000000">SlotHostDirective</text>
</g>
<!-- SlotHostDirective&#45;&gt;IoModule -->
<g id="edge2" class="edge">
<title>SlotHostDirective&#45;&gt;IoModule</title>
<path fill="none" stroke="#000000" d="M718,-122.0336C718,-139.0597 718,-162 718,-162 718,-162 442.8884,-162 442.8884,-162"/>
<polygon fill="#000000" stroke="#000000" points="442.8884,-158.5001 432.8884,-162 442.8884,-165.5001 442.8884,-158.5001"/>
</g>
<!-- DynamicSlotComponent -->
<g id="node3" class="node">
<title>DynamicSlotComponent</title>
<polygon fill="#ffffb3" stroke="#000000" points="641.7133,-122 486.2867,-122 486.2867,-86 641.7133,-86 641.7133,-122"/>
<text text-anchor="middle" x="564" y="-99.8" font-family="Times,serif" font-size="14.00" fill="#000000">DynamicSlotComponent</text>
</g>
<!-- DynamicSlotComponent&#45;&gt;IoModule -->
<g id="edge3" class="edge">
<title>DynamicSlotComponent&#45;&gt;IoModule</title>
<path fill="none" stroke="#000000" d="M558.9255,-122.2396C558.9255,-137.5706 558.9255,-157 558.9255,-157 558.9255,-157 442.9365,-157 442.9365,-157"/>
<polygon fill="#000000" stroke="#000000" points="442.9366,-153.5001 432.9365,-157 442.9365,-160.5001 442.9366,-153.5001"/>
</g>
<!-- DynamicRackComponent -->
<g id="node4" class="node">
<title>DynamicRackComponent</title>
<polygon fill="#ffffb3" stroke="#000000" points="468.9157,-122 307.0843,-122 307.0843,-86 468.9157,-86 468.9157,-122"/>
<text text-anchor="middle" x="388" y="-99.8" font-family="Times,serif" font-size="14.00" fill="#000000">DynamicRackComponent</text>
</g>
<!-- DynamicRackComponent&#45;&gt;IoModule -->
<g id="edge4" class="edge">
<title>DynamicRackComponent&#45;&gt;IoModule</title>
<path fill="none" stroke="#000000" d="M397,-122.1061C397,-122.1061 397,-140.991 397,-140.991"/>
<polygon fill="#000000" stroke="#000000" points="393.5001,-140.9909 397,-150.991 400.5001,-140.991 393.5001,-140.9909"/>
</g>
<!-- InputComponent -->
<g id="node5" class="node">
<title>InputComponent</title>
<polygon fill="#ffffb3" stroke="#000000" points="289.3837,-122 178.6163,-122 178.6163,-86 289.3837,-86 289.3837,-122"/>
<text text-anchor="middle" x="234" y="-99.8" font-family="Times,serif" font-size="14.00" fill="#000000">InputComponent</text>
</g>
<!-- InputComponent&#45;&gt;IoModule -->
<g id="edge5" class="edge">
<title>InputComponent&#45;&gt;IoModule</title>
<path fill="none" stroke="#000000" d="M240.7909,-122.0091C240.7909,-138.0494 240.7909,-159 240.7909,-159 240.7909,-159 351.1625,-159 351.1625,-159"/>
<polygon fill="#000000" stroke="#000000" points="351.1625,-162.5001 361.1625,-159 351.1624,-155.5001 351.1625,-162.5001"/>
</g>
<!-- OutputComponent -->
<g id="node6" class="node">
<title>OutputComponent</title>
<polygon fill="#ffffb3" stroke="#000000" points="160.2204,-122 39.7796,-122 39.7796,-86 160.2204,-86 160.2204,-122"/>
<text text-anchor="middle" x="100" y="-99.8" font-family="Times,serif" font-size="14.00" fill="#000000">OutputComponent</text>
</g>
<!-- OutputComponent&#45;&gt;IoModule -->
<g id="edge6" class="edge">
<title>OutputComponent&#45;&gt;IoModule</title>
<path fill="none" stroke="#000000" d="M100,-122.2667C100,-140.5552 100,-166 100,-166 100,-166 351.1749,-166 351.1749,-166"/>
<polygon fill="#000000" stroke="#000000" points="351.1749,-169.5001 361.1749,-166 351.1748,-162.5001 351.1749,-169.5001"/>
</g>
<!-- SlotHostDirective  -->
<g id="node8" class="node">
<title>SlotHostDirective </title>
<polygon fill="#fb8072" stroke="#000000" points="947.0891,-252 826.9109,-252 826.9109,-216 947.0891,-216 947.0891,-252"/>
<text text-anchor="middle" x="887" y="-229.8" font-family="Times,serif" font-size="14.00" fill="#000000">SlotHostDirective </text>
</g>
<!-- IoModule&#45;&gt;SlotHostDirective  -->
<g id="edge7" class="edge">
<title>IoModule&#45;&gt;SlotHostDirective </title>
<path fill="none" stroke="#000000" stroke-dasharray="5,2" d="M432.7602,-172C545.0694,-172 883.3186,-172 883.3186,-172 883.3186,-172 883.3186,-205.7333 883.3186,-205.7333"/>
<polygon fill="#000000" stroke="#000000" points="879.8186,-205.7333 883.3186,-215.7333 886.8186,-205.7333 879.8186,-205.7333"/>
</g>
<!-- DynamicSlotComponent  -->
<g id="node9" class="node">
<title>DynamicSlotComponent </title>
<polygon fill="#fb8072" stroke="#000000" points="808.2135,-252 649.7865,-252 649.7865,-216 808.2135,-216 808.2135,-252"/>
<text text-anchor="middle" x="729" y="-229.8" font-family="Times,serif" font-size="14.00" fill="#000000">DynamicSlotComponent </text>
</g>
<!-- IoModule&#45;&gt;DynamicSlotComponent  -->
<g id="edge8" class="edge">
<title>IoModule&#45;&gt;DynamicSlotComponent </title>
<path fill="none" stroke="#000000" stroke-dasharray="5,2" d="M432.8112,-177C503.5788,-177 654.5496,-177 654.5496,-177 654.5496,-177 654.5496,-205.9648 654.5496,-205.9648"/>
<polygon fill="#000000" stroke="#000000" points="651.0497,-205.9648 654.5496,-215.9648 658.0497,-205.9649 651.0497,-205.9648"/>
</g>
<!-- DynamicRackComponent  -->
<g id="node10" class="node">
<title>DynamicRackComponent </title>
<polygon fill="#fb8072" stroke="#000000" points="631.4152,-252 466.5848,-252 466.5848,-216 631.4152,-216 631.4152,-252"/>
<text text-anchor="middle" x="549" y="-229.8" font-family="Times,serif" font-size="14.00" fill="#000000">DynamicRackComponent </text>
</g>
<!-- IoModule&#45;&gt;DynamicRackComponent  -->
<g id="edge9" class="edge">
<title>IoModule&#45;&gt;DynamicRackComponent </title>
<path fill="none" stroke="#000000" stroke-dasharray="5,2" d="M433.0345,-182C454.4815,-182 477.5505,-182 477.5505,-182 477.5505,-182 477.5505,-205.8129 477.5505,-205.8129"/>
<polygon fill="#000000" stroke="#000000" points="474.0506,-205.8129 477.5505,-215.8129 481.0506,-205.813 474.0506,-205.8129"/>
</g>
<!-- InputComponent  -->
<g id="node11" class="node">
<title>InputComponent </title>
<polygon fill="#fb8072" stroke="#000000" points="448.3842,-252 333.6158,-252 333.6158,-216 448.3842,-216 448.3842,-252"/>
<text text-anchor="middle" x="391" y="-229.8" font-family="Times,serif" font-size="14.00" fill="#000000">InputComponent </text>
</g>
<!-- IoModule&#45;&gt;InputComponent  -->
<g id="edge10" class="edge">
<title>IoModule&#45;&gt;InputComponent </title>
<path fill="none" stroke="#000000" stroke-dasharray="5,2" d="M397,-187.1061C397,-187.1061 397,-205.991 397,-205.991"/>
<polygon fill="#000000" stroke="#000000" points="393.5001,-205.9909 397,-215.991 400.5001,-205.991 393.5001,-205.9909"/>
</g>
<!-- OutputComponent  -->
<g id="node12" class="node">
<title>OutputComponent </title>
<polygon fill="#fb8072" stroke="#000000" points="315.7205,-252 192.2795,-252 192.2795,-216 315.7205,-216 315.7205,-252"/>
<text text-anchor="middle" x="254" y="-229.8" font-family="Times,serif" font-size="14.00" fill="#000000">OutputComponent </text>
</g>
<!-- IoModule&#45;&gt;OutputComponent  -->
<g id="edge11" class="edge">
<title>IoModule&#45;&gt;OutputComponent </title>
<path fill="none" stroke="#000000" stroke-dasharray="5,2" d="M361.2676,-180C337.8593,-180 311.5763,-180 311.5763,-180 311.5763,-180 311.5763,-205.7181 311.5763,-205.7181"/>
<polygon fill="#000000" stroke="#000000" points="308.0763,-205.718 311.5763,-215.7181 315.0763,-205.7181 308.0763,-205.718"/>
</g>
<!-- InputErrorsComponent  -->
<g id="node13" class="node">
<title>InputErrorsComponent </title>
<polygon fill="#fb8072" stroke="#000000" points="173.863,-252 24.137,-252 24.137,-216 173.863,-216 173.863,-252"/>
<text text-anchor="middle" x="99" y="-229.8" font-family="Times,serif" font-size="14.00" fill="#000000">InputErrorsComponent </text>
</g>
<!-- IoModule&#45;&gt;InputErrorsComponent  -->
<g id="edge12" class="edge">
<title>IoModule&#45;&gt;InputErrorsComponent </title>
<path fill="none" stroke="#000000" stroke-dasharray="5,2" d="M361.2987,-173C296.6667,-173 166.8957,-173 166.8957,-173 166.8957,-173 166.8957,-205.698 166.8957,-205.698"/>
<polygon fill="#000000" stroke="#000000" points="163.3958,-205.698 166.8957,-215.698 170.3958,-205.698 163.3958,-205.698"/>
</g>
</g>
</svg>
