<?xml version="1.0" encoding="UTF-8" standalone="no"?>
<!DOCTYPE svg PUBLIC "-//W3C//DTD SVG 1.1//EN"
 "http://www.w3.org/Graphics/SVG/1.1/DTD/svg11.dtd">
<!-- Generated by graphviz version 2.47.0 (20210316.0004)
 -->
<!-- Title: dependencies Pages: 1 -->
<svg width="978pt" height="284pt"
 viewBox="0.00 0.00 978.00 284.00" xmlns="http://www.w3.org/2000/svg" xmlns:xlink="http://www.w3.org/1999/xlink">
<g id="graph0" class="graph" transform="scale(1 1) rotate(0) translate(4 280)">
<title>dependencies</title>
<polygon fill="white" stroke="transparent" points="-4,4 -4,-280 974,-280 974,4 -4,4"/>
<text text-anchor="start" x="464.01" y="-42.4" font-family="sans-serif" font-weight="bold" font-size="14.00">Legend</text>
<polygon fill="#ffffb3" stroke="transparent" points="251,-10 251,-30 271,-30 271,-10 251,-10"/>
<text text-anchor="start" x="274.63" y="-15.4" font-family="sans-serif" font-size="14.00"> &#160;Declarations</text>
<polygon fill="#8dd3c7" stroke="transparent" points="364,-10 364,-30 384,-30 384,-10 364,-10"/>
<text text-anchor="start" x="387.73" y="-15.4" font-family="sans-serif" font-size="14.00"> &#160;Module</text>
<polygon fill="#80b1d3" stroke="transparent" points="450,-10 450,-30 470,-30 470,-10 450,-10"/>
<text text-anchor="start" x="473.78" y="-15.4" font-family="sans-serif" font-size="14.00"> &#160;Bootstrap</text>
<polygon fill="#fdb462" stroke="transparent" points="547,-10 547,-30 567,-30 567,-10 547,-10"/>
<text text-anchor="start" x="570.67" y="-15.4" font-family="sans-serif" font-size="14.00"> &#160;Providers</text>
<polygon fill="#fb8072" stroke="transparent" points="643,-10 643,-30 663,-30 663,-10 643,-10"/>
<text text-anchor="start" x="666.73" y="-15.4" font-family="sans-serif" font-size="14.00"> &#160;Exports</text>
<g id="clust1" class="cluster">
<title>cluster_IoModule</title>
<polygon fill="none" stroke="black" stroke-dasharray="1,5" points="8,-70 8,-268 962,-268 962,-70 8,-70"/>
</g>
<g id="clust2" class="cluster">
<title>cluster_IoModule_declarations</title>
<polygon fill="none" stroke="black" points="28,-78 28,-130 945,-130 945,-78 28,-78"/>
</g>
<g id="clust10" class="cluster">
<title>cluster_IoModule_exports</title>
<polygon fill="none" stroke="black" points="16,-208 16,-260 954,-260 954,-208 16,-208"/>
</g>
<!-- DynamicRackComponent -->
<g id="node1" class="node">
<title>DynamicRackComponent</title>
<polygon fill="#ffffb3" stroke="black" points="936.92,-122 775.08,-122 775.08,-86 936.92,-86 936.92,-122"/>
<text text-anchor="middle" x="856" y="-99.8" font-family="Times,serif" font-size="14.00">DynamicRackComponent</text>
</g>
<!-- IoModule -->
<g id="node7" class="node">
<title>IoModule</title>
<polygon fill="#8dd3c7" stroke="black" points="422.71,-187 419.71,-191 398.71,-191 395.71,-187 351.29,-187 351.29,-151 422.71,-151 422.71,-187"/>
<text text-anchor="middle" x="387" y="-164.8" font-family="Times,serif" font-size="14.00">IoModule</text>
</g>
<!-- DynamicRackComponent&#45;&gt;IoModule -->
<g id="edge1" class="edge">
<title>DynamicRackComponent&#45;&gt;IoModule</title>
<path fill="none" stroke="black" d="M884.99,-122.22C884.99,-140.83 884.99,-167 884.99,-167 884.99,-167 432.81,-167 432.81,-167"/>
<polygon fill="black" stroke="black" points="432.81,-163.5 422.81,-167 432.81,-170.5 432.81,-163.5"/>
</g>
<!-- DynamicSlotComponent -->
<g id="node2" class="node">
<title>DynamicSlotComponent</title>
<polygon fill="#ffffb3" stroke="black" points="757.71,-122 602.29,-122 602.29,-86 757.71,-86 757.71,-122"/>
<text text-anchor="middle" x="680" y="-99.8" font-family="Times,serif" font-size="14.00">DynamicSlotComponent</text>
</g>
<!-- DynamicSlotComponent&#45;&gt;IoModule -->
<g id="edge2" class="edge">
<title>DynamicSlotComponent&#45;&gt;IoModule</title>
<path fill="none" stroke="black" d="M706.62,-122.03C706.62,-139.06 706.62,-162 706.62,-162 706.62,-162 432.73,-162 432.73,-162"/>
<polygon fill="black" stroke="black" points="432.73,-158.5 422.73,-162 432.73,-165.5 432.73,-158.5"/>
</g>
<!-- InputComponent -->
<g id="node3" class="node">
<title>InputComponent</title>
<polygon fill="#ffffb3" stroke="black" points="584.38,-122 473.62,-122 473.62,-86 584.38,-86 584.38,-122"/>
<text text-anchor="middle" x="529" y="-99.8" font-family="Times,serif" font-size="14.00">InputComponent</text>
</g>
<!-- InputComponent&#45;&gt;IoModule -->
<g id="edge3" class="edge">
<title>InputComponent&#45;&gt;IoModule</title>
<path fill="none" stroke="black" d="M547.48,-122.24C547.48,-137.57 547.48,-157 547.48,-157 547.48,-157 432.62,-157 432.62,-157"/>
<polygon fill="black" stroke="black" points="432.62,-153.5 422.62,-157 432.62,-160.5 432.62,-153.5"/>
</g>
<!-- InputErrorsComponent -->
<g id="node4" class="node">
<title>InputErrorsComponent</title>
<polygon fill="#ffffb3" stroke="black" points="455.86,-122 310.14,-122 310.14,-86 455.86,-86 455.86,-122"/>
<text text-anchor="middle" x="383" y="-99.8" font-family="Times,serif" font-size="14.00">InputErrorsComponent</text>
</g>
<!-- InputErrorsComponent&#45;&gt;IoModule -->
<g id="edge4" class="edge">
<title>InputErrorsComponent&#45;&gt;IoModule</title>
<path fill="none" stroke="black" d="M387,-122.11C387,-122.11 387,-140.99 387,-140.99"/>
<polygon fill="black" stroke="black" points="383.5,-140.99 387,-150.99 390.5,-140.99 383.5,-140.99"/>
</g>
<!-- OutputComponent -->
<g id="node5" class="node">
<title>OutputComponent</title>
<polygon fill="#ffffb3" stroke="black" points="292.22,-122 171.78,-122 171.78,-86 292.22,-86 292.22,-122"/>
<text text-anchor="middle" x="232" y="-99.8" font-family="Times,serif" font-size="14.00">OutputComponent</text>
</g>
<!-- OutputComponent&#45;&gt;IoModule -->
<g id="edge5" class="edge">
<title>OutputComponent&#45;&gt;IoModule</title>
<path fill="none" stroke="black" d="M247.87,-122.01C247.87,-138.05 247.87,-159 247.87,-159 247.87,-159 341.17,-159 341.17,-159"/>
<polygon fill="black" stroke="black" points="341.17,-162.5 351.17,-159 341.17,-155.5 341.17,-162.5"/>
</g>
<!-- SlotHostDirective -->
<g id="node6" class="node">
<title>SlotHostDirective</title>
<polygon fill="#ffffb3" stroke="black" points="153.59,-122 36.41,-122 36.41,-86 153.59,-86 153.59,-122"/>
<text text-anchor="middle" x="95" y="-99.8" font-family="Times,serif" font-size="14.00">SlotHostDirective</text>
</g>
<!-- SlotHostDirective&#45;&gt;IoModule -->
<g id="edge6" class="edge">
<title>SlotHostDirective&#45;&gt;IoModule</title>
<path fill="none" stroke="black" d="M148.92,-122.27C148.92,-140.56 148.92,-166 148.92,-166 148.92,-166 341.36,-166 341.36,-166"/>
<polygon fill="black" stroke="black" points="341.36,-169.5 351.36,-166 341.36,-162.5 341.36,-169.5"/>
</g>
<!-- DynamicRackComponent  -->
<g id="node8" class="node">
<title>DynamicRackComponent </title>
<polygon fill="#fb8072" stroke="black" points="946.42,-252 781.58,-252 781.58,-216 946.42,-216 946.42,-252"/>
<text text-anchor="middle" x="864" y="-229.8" font-family="Times,serif" font-size="14.00">DynamicRackComponent </text>
</g>
<!-- IoModule&#45;&gt;DynamicRackComponent  -->
<g id="edge7" class="edge">
<title>IoModule&#45;&gt;DynamicRackComponent </title>
<path fill="none" stroke="black" stroke-dasharray="5,2" d="M422.77,-172C528.66,-172 833.26,-172 833.26,-172 833.26,-172 833.26,-205.73 833.26,-205.73"/>
<polygon fill="black" stroke="black" points="829.76,-205.73 833.26,-215.73 836.76,-205.73 829.76,-205.73"/>
</g>
<!-- DynamicSlotComponent  -->
<g id="node9" class="node">
<title>DynamicSlotComponent </title>
<polygon fill="#fb8072" stroke="black" points="763.21,-252 604.79,-252 604.79,-216 763.21,-216 763.21,-252"/>
<text text-anchor="middle" x="684" y="-229.8" font-family="Times,serif" font-size="14.00">DynamicSlotComponent </text>
</g>
<!-- IoModule&#45;&gt;DynamicSlotComponent  -->
<g id="edge8" class="edge">
<title>IoModule&#45;&gt;DynamicSlotComponent </title>
<path fill="none" stroke="black" stroke-dasharray="5,2" d="M422.67,-177C495.75,-177 655.63,-177 655.63,-177 655.63,-177 655.63,-205.96 655.63,-205.96"/>
<polygon fill="black" stroke="black" points="652.13,-205.96 655.63,-215.96 659.13,-205.96 652.13,-205.96"/>
</g>
<!-- InputComponent  -->
<g id="node10" class="node">
<title>InputComponent </title>
<polygon fill="#fb8072" stroke="black" points="586.38,-252 471.62,-252 471.62,-216 586.38,-216 586.38,-252"/>
<text text-anchor="middle" x="529" y="-229.8" font-family="Times,serif" font-size="14.00">InputComponent </text>
</g>
<!-- IoModule&#45;&gt;InputComponent  -->
<g id="edge9" class="edge">
<title>IoModule&#45;&gt;InputComponent </title>
<path fill="none" stroke="black" stroke-dasharray="5,2" d="M422.73,-182C459.21,-182 510.52,-182 510.52,-182 510.52,-182 510.52,-205.81 510.52,-205.81"/>
<polygon fill="black" stroke="black" points="507.02,-205.81 510.52,-215.81 514.02,-205.81 507.02,-205.81"/>
</g>
<!-- InputErrorsComponent  -->
<g id="node11" class="node">
<title>InputErrorsComponent </title>
<polygon fill="#fb8072" stroke="black" points="453.86,-252 304.14,-252 304.14,-216 453.86,-216 453.86,-252"/>
<text text-anchor="middle" x="379" y="-229.8" font-family="Times,serif" font-size="14.00">InputErrorsComponent </text>
</g>
<!-- IoModule&#45;&gt;InputErrorsComponent  -->
<g id="edge10" class="edge">
<title>IoModule&#45;&gt;InputErrorsComponent </title>
<path fill="none" stroke="black" stroke-dasharray="5,2" d="M387,-187.11C387,-187.11 387,-205.99 387,-205.99"/>
<polygon fill="black" stroke="black" points="383.5,-205.99 387,-215.99 390.5,-205.99 383.5,-205.99"/>
</g>
<!-- OutputComponent  -->
<g id="node12" class="node">
<title>OutputComponent </title>
<polygon fill="#fb8072" stroke="black" points="285.72,-252 162.28,-252 162.28,-216 285.72,-216 285.72,-252"/>
<text text-anchor="middle" x="224" y="-229.8" font-family="Times,serif" font-size="14.00">OutputComponent </text>
</g>
<!-- IoModule&#45;&gt;OutputComponent  -->
<g id="edge11" class="edge">
<title>IoModule&#45;&gt;OutputComponent </title>
<path fill="none" stroke="black" stroke-dasharray="5,2" d="M351.16,-180C299.4,-180 209.88,-180 209.88,-180 209.88,-180 209.88,-205.72 209.88,-205.72"/>
<polygon fill="black" stroke="black" points="206.38,-205.72 209.88,-215.72 213.38,-205.72 206.38,-205.72"/>
</g>
<!-- SlotHostDirective  -->
<g id="node13" class="node">
<title>SlotHostDirective </title>
<polygon fill="#fb8072" stroke="black" points="144.09,-252 23.91,-252 23.91,-216 144.09,-216 144.09,-252"/>
<text text-anchor="middle" x="84" y="-229.8" font-family="Times,serif" font-size="14.00">SlotHostDirective </text>
</g>
<!-- IoModule&#45;&gt;SlotHostDirective  -->
<g id="edge12" class="edge">
<title>IoModule&#45;&gt;SlotHostDirective </title>
<path fill="none" stroke="black" stroke-dasharray="5,2" d="M351.22,-173C272.33,-173 90.38,-173 90.38,-173 90.38,-173 90.38,-205.7 90.38,-205.7"/>
<polygon fill="black" stroke="black" points="86.88,-205.7 90.38,-215.7 93.88,-205.7 86.88,-205.7"/>
</g>
</g>
</svg>
