<?xml version="1.0" encoding="UTF-8" standalone="no"?>
<!DOCTYPE svg PUBLIC "-//W3C//DTD SVG 1.1//EN"
 "http://www.w3.org/Graphics/SVG/1.1/DTD/svg11.dtd">
<!-- Generated by graphviz version 2.40.1 (20161225.0304)
 -->
<!-- Title: dependencies Pages: 1 -->
<svg width="978pt" height="284pt"
 viewBox="0.00 0.00 978.00 284.00" xmlns="http://www.w3.org/2000/svg" xmlns:xlink="http://www.w3.org/1999/xlink">
<g id="graph0" class="graph" transform="scale(1 1) rotate(0) translate(4 280)">
<title>dependencies</title>
<polygon fill="#ffffff" stroke="transparent" points="-4,4 -4,-280 974,-280 974,4 -4,4"/>
<text text-anchor="start" x="464.0091" y="-42.4" font-family="sans-serif" font-weight="bold" font-size="14.00" fill="#000000">Legend</text>
<polygon fill="#ffffb3" stroke="transparent" points="251,-10 251,-30 271,-30 271,-10 251,-10"/>
<text text-anchor="start" x="274.629" y="-15.4" font-family="sans-serif" font-size="14.00" fill="#000000"> &#160;Declarations</text>
<polygon fill="#8dd3c7" stroke="transparent" points="364,-10 364,-30 384,-30 384,-10 364,-10"/>
<text text-anchor="start" x="387.7251" y="-15.4" font-family="sans-serif" font-size="14.00" fill="#000000"> &#160;Module</text>
<polygon fill="#80b1d3" stroke="transparent" points="450,-10 450,-30 470,-30 470,-10 450,-10"/>
<text text-anchor="start" x="473.7812" y="-15.4" font-family="sans-serif" font-size="14.00" fill="#000000"> &#160;Bootstrap</text>
<polygon fill="#fdb462" stroke="transparent" points="547,-10 547,-30 567,-30 567,-10 547,-10"/>
<text text-anchor="start" x="570.6732" y="-15.4" font-family="sans-serif" font-size="14.00" fill="#000000"> &#160;Providers</text>
<polygon fill="#fb8072" stroke="transparent" points="643,-10 643,-30 663,-30 663,-10 643,-10"/>
<text text-anchor="start" x="666.7258" y="-15.4" font-family="sans-serif" font-size="14.00" fill="#000000"> &#160;Exports</text>
<g id="clust1" class="cluster">
<title>cluster_IoModule</title>
<polygon fill="none" stroke="#000000" stroke-dasharray="1,5" points="8,-70 8,-268 962,-268 962,-70 8,-70"/>
</g>
<g id="clust2" class="cluster">
<title>cluster_IoModule_declarations</title>
<polygon fill="none" stroke="#000000" points="28,-78 28,-130 945,-130 945,-78 28,-78"/>
</g>
<g id="clust10" class="cluster">
<title>cluster_IoModule_exports</title>
<polygon fill="none" stroke="#000000" points="16,-208 16,-260 954,-260 954,-208 16,-208"/>
</g>
<!-- DynamicRackComponent -->
<g id="node1" class="node">
<title>DynamicRackComponent</title>
<polygon fill="#ffffb3" stroke="#000000" points="936.9157,-122 775.0843,-122 775.0843,-86 936.9157,-86 936.9157,-122"/>
<text text-anchor="middle" x="856" y="-99.8" font-family="Times,serif" font-size="14.00" fill="#000000">DynamicRackComponent</text>
</g>
<!-- IoModule -->
<g id="node7" class="node">
<title>IoModule</title>
<polygon fill="#8dd3c7" stroke="#000000" points="422.7107,-187 419.7107,-191 398.7107,-191 395.7107,-187 351.2893,-187 351.2893,-151 422.7107,-151 422.7107,-187"/>
<text text-anchor="middle" x="387" y="-164.8" font-family="Times,serif" font-size="14.00" fill="#000000">IoModule</text>
</g>
<!-- DynamicRackComponent&#45;&gt;IoModule -->
<g id="edge1" class="edge">
<title>DynamicRackComponent&#45;&gt;IoModule</title>
<path fill="none" stroke="#000000" d="M884.9859,-122.2222C884.9859,-140.8285 884.9859,-167 884.9859,-167 884.9859,-167 432.8139,-167 432.8139,-167"/>
<polygon fill="#000000" stroke="#000000" points="432.814,-163.5001 422.8139,-167 432.8139,-170.5001 432.814,-163.5001"/>
</g>
<!-- DynamicSlotComponent -->
<g id="node2" class="node">
<title>DynamicSlotComponent</title>
<polygon fill="#ffffb3" stroke="#000000" points="757.7133,-122 602.2867,-122 602.2867,-86 757.7133,-86 757.7133,-122"/>
<text text-anchor="middle" x="680" y="-99.8" font-family="Times,serif" font-size="14.00" fill="#000000">DynamicSlotComponent</text>
</g>
<!-- DynamicSlotComponent&#45;&gt;IoModule -->
<g id="edge2" class="edge">
<title>DynamicSlotComponent&#45;&gt;IoModule</title>
<path fill="none" stroke="#000000" d="M706.6189,-122.0336C706.6189,-139.0597 706.6189,-162 706.6189,-162 706.6189,-162 432.734,-162 432.734,-162"/>
<polygon fill="#000000" stroke="#000000" points="432.734,-158.5001 422.734,-162 432.734,-165.5001 432.734,-158.5001"/>
</g>
<!-- InputComponent -->
<g id="node3" class="node">
<title>InputComponent</title>
<polygon fill="#ffffb3" stroke="#000000" points="584.3837,-122 473.6163,-122 473.6163,-86 584.3837,-86 584.3837,-122"/>
<text text-anchor="middle" x="529" y="-99.8" font-family="Times,serif" font-size="14.00" fill="#000000">InputComponent</text>
</g>
<!-- InputComponent&#45;&gt;IoModule -->
<g id="edge3" class="edge">
<title>InputComponent&#45;&gt;IoModule</title>
<path fill="none" stroke="#000000" d="M547.4806,-122.2396C547.4806,-137.5706 547.4806,-157 547.4806,-157 547.4806,-157 432.6158,-157 432.6158,-157"/>
<polygon fill="#000000" stroke="#000000" points="432.6159,-153.5001 422.6158,-157 432.6158,-160.5001 432.6159,-153.5001"/>
</g>
<!-- InputErrorsComponent -->
<g id="node4" class="node">
<title>InputErrorsComponent</title>
<polygon fill="#ffffb3" stroke="#000000" points="455.8627,-122 310.1373,-122 310.1373,-86 455.8627,-86 455.8627,-122"/>
<text text-anchor="middle" x="383" y="-99.8" font-family="Times,serif" font-size="14.00" fill="#000000">InputErrorsComponent</text>
</g>
<!-- InputErrorsComponent&#45;&gt;IoModule -->
<g id="edge4" class="edge">
<title>InputErrorsComponent&#45;&gt;IoModule</title>
<path fill="none" stroke="#000000" d="M387,-122.1061C387,-122.1061 387,-140.991 387,-140.991"/>
<polygon fill="#000000" stroke="#000000" points="383.5001,-140.9909 387,-150.991 390.5001,-140.991 383.5001,-140.9909"/>
</g>
<!-- OutputComponent -->
<g id="node5" class="node">
<title>OutputComponent</title>
<polygon fill="#ffffb3" stroke="#000000" points="292.2204,-122 171.7796,-122 171.7796,-86 292.2204,-86 292.2204,-122"/>
<text text-anchor="middle" x="232" y="-99.8" font-family="Times,serif" font-size="14.00" fill="#000000">OutputComponent</text>
</g>
<!-- OutputComponent&#45;&gt;IoModule -->
<g id="edge5" class="edge">
<title>OutputComponent&#45;&gt;IoModule</title>
<path fill="none" stroke="#000000" d="M247.87,-122.0091C247.87,-138.0494 247.87,-159 247.87,-159 247.87,-159 341.1706,-159 341.1706,-159"/>
<polygon fill="#000000" stroke="#000000" points="341.1706,-162.5001 351.1706,-159 341.1705,-155.5001 341.1706,-162.5001"/>
</g>
<!-- SlotHostDirective -->
<g id="node6" class="node">
<title>SlotHostDirective</title>
<polygon fill="#ffffb3" stroke="#000000" points="153.5884,-122 36.4116,-122 36.4116,-86 153.5884,-86 153.5884,-122"/>
<text text-anchor="middle" x="95" y="-99.8" font-family="Times,serif" font-size="14.00" fill="#000000">SlotHostDirective</text>
</g>
<!-- SlotHostDirective&#45;&gt;IoModule -->
<g id="edge6" class="edge">
<title>SlotHostDirective&#45;&gt;IoModule</title>
<path fill="none" stroke="#000000" d="M148.9192,-122.2667C148.9192,-140.5552 148.9192,-166 148.9192,-166 148.9192,-166 341.3569,-166 341.3569,-166"/>
<polygon fill="#000000" stroke="#000000" points="341.3569,-169.5001 351.3569,-166 341.3569,-162.5001 341.3569,-169.5001"/>
</g>
<!-- DynamicRackComponent  -->
<g id="node8" class="node">
<title>DynamicRackComponent </title>
<polygon fill="#fb8072" stroke="#000000" points="946.4152,-252 781.5848,-252 781.5848,-216 946.4152,-216 946.4152,-252"/>
<text text-anchor="middle" x="864" y="-229.8" font-family="Times,serif" font-size="14.00" fill="#000000">DynamicRackComponent </text>
</g>
<!-- IoModule&#45;&gt;DynamicRackComponent  -->
<g id="edge7" class="edge">
<title>IoModule&#45;&gt;DynamicRackComponent </title>
<path fill="none" stroke="#000000" stroke-dasharray="5,2" d="M422.7653,-172C528.6621,-172 833.2641,-172 833.2641,-172 833.2641,-172 833.2641,-205.7333 833.2641,-205.7333"/>
<polygon fill="#000000" stroke="#000000" points="829.7642,-205.7333 833.2641,-215.7333 836.7642,-205.7333 829.7642,-205.7333"/>
</g>
<!-- DynamicSlotComponent  -->
<g id="node9" class="node">
<title>DynamicSlotComponent </title>
<polygon fill="#fb8072" stroke="#000000" points="763.2135,-252 604.7865,-252 604.7865,-216 763.2135,-216 763.2135,-252"/>
<text text-anchor="middle" x="684" y="-229.8" font-family="Times,serif" font-size="14.00" fill="#000000">DynamicSlotComponent </text>
</g>
<!-- IoModule&#45;&gt;DynamicSlotComponent  -->
<g id="edge8" class="edge">
<title>IoModule&#45;&gt;DynamicSlotComponent </title>
<path fill="none" stroke="#000000" stroke-dasharray="5,2" d="M422.6721,-177C495.7451,-177 655.6311,-177 655.6311,-177 655.6311,-177 655.6311,-205.9648 655.6311,-205.9648"/>
<polygon fill="#000000" stroke="#000000" points="652.1312,-205.9648 655.6311,-215.9648 659.1312,-205.9649 652.1312,-205.9648"/>
</g>
<!-- InputComponent  -->
<g id="node10" class="node">
<title>InputComponent </title>
<polygon fill="#fb8072" stroke="#000000" points="586.3842,-252 471.6158,-252 471.6158,-216 586.3842,-216 586.3842,-252"/>
<text text-anchor="middle" x="529" y="-229.8" font-family="Times,serif" font-size="14.00" fill="#000000">InputComponent </text>
</g>
<!-- IoModule&#45;&gt;InputComponent  -->
<g id="edge9" class="edge">
<title>IoModule&#45;&gt;InputComponent </title>
<path fill="none" stroke="#000000" stroke-dasharray="5,2" d="M422.7269,-182C459.2069,-182 510.5194,-182 510.5194,-182 510.5194,-182 510.5194,-205.8129 510.5194,-205.8129"/>
<polygon fill="#000000" stroke="#000000" points="507.0195,-205.8129 510.5194,-215.8129 514.0195,-205.813 507.0195,-205.8129"/>
</g>
<!-- InputErrorsComponent  -->
<g id="node11" class="node">
<title>InputErrorsComponent </title>
<polygon fill="#fb8072" stroke="#000000" points="453.863,-252 304.137,-252 304.137,-216 453.863,-216 453.863,-252"/>
<text text-anchor="middle" x="379" y="-229.8" font-family="Times,serif" font-size="14.00" fill="#000000">InputErrorsComponent </text>
</g>
<!-- IoModule&#45;&gt;InputErrorsComponent  -->
<g id="edge10" class="edge">
<title>IoModule&#45;&gt;InputErrorsComponent </title>
<path fill="none" stroke="#000000" stroke-dasharray="5,2" d="M387,-187.1061C387,-187.1061 387,-205.991 387,-205.991"/>
<polygon fill="#000000" stroke="#000000" points="383.5001,-205.9909 387,-215.991 390.5001,-205.991 383.5001,-205.9909"/>
</g>
<!-- OutputComponent  -->
<g id="node12" class="node">
<title>OutputComponent </title>
<polygon fill="#fb8072" stroke="#000000" points="285.7205,-252 162.2795,-252 162.2795,-216 285.7205,-216 285.7205,-252"/>
<text text-anchor="middle" x="224" y="-229.8" font-family="Times,serif" font-size="14.00" fill="#000000">OutputComponent </text>
</g>
<!-- IoModule&#45;&gt;OutputComponent  -->
<g id="edge11" class="edge">
<title>IoModule&#45;&gt;OutputComponent </title>
<path fill="none" stroke="#000000" stroke-dasharray="5,2" d="M351.1571,-180C299.4021,-180 209.88,-180 209.88,-180 209.88,-180 209.88,-205.7181 209.88,-205.7181"/>
<polygon fill="#000000" stroke="#000000" points="206.3801,-205.718 209.88,-215.7181 213.3801,-205.7181 206.3801,-205.718"/>
</g>
<!-- SlotHostDirective  -->
<g id="node13" class="node">
<title>SlotHostDirective </title>
<polygon fill="#fb8072" stroke="#000000" points="144.0891,-252 23.9109,-252 23.9109,-216 144.0891,-216 144.0891,-252"/>
<text text-anchor="middle" x="84" y="-229.8" font-family="Times,serif" font-size="14.00" fill="#000000">SlotHostDirective </text>
</g>
<!-- IoModule&#45;&gt;SlotHostDirective  -->
<g id="edge12" class="edge">
<title>IoModule&#45;&gt;SlotHostDirective </title>
<path fill="none" stroke="#000000" stroke-dasharray="5,2" d="M351.2201,-173C272.3269,-173 90.375,-173 90.375,-173 90.375,-173 90.375,-205.698 90.375,-205.698"/>
<polygon fill="#000000" stroke="#000000" points="86.8751,-205.698 90.375,-215.698 93.8751,-205.698 86.8751,-205.698"/>
</g>
</g>
</svg>
