<?xml version="1.0" encoding="UTF-8" standalone="no"?>
<!DOCTYPE svg PUBLIC "-//W3C//DTD SVG 1.1//EN"
 "http://www.w3.org/Graphics/SVG/1.1/DTD/svg11.dtd">
<!-- Generated by graphviz version 2.40.1 (20161225.0304)
 -->
<!-- Title: dependencies Pages: 1 -->
<svg width="796pt" height="284pt"
 viewBox="0.00 0.00 796.00 284.00" xmlns="http://www.w3.org/2000/svg" xmlns:xlink="http://www.w3.org/1999/xlink">
<g id="graph0" class="graph" transform="scale(1 1) rotate(0) translate(4 280)">
<title>dependencies</title>
<polygon fill="#ffffff" stroke="transparent" points="-4,4 -4,-280 792,-280 792,4 -4,4"/>
<text text-anchor="start" x="373.0091" y="-42.4" font-family="sans-serif" font-weight="bold" font-size="14.00" fill="#000000">Legend</text>
<polygon fill="#ffffb3" stroke="transparent" points="160,-10 160,-30 180,-30 180,-10 160,-10"/>
<text text-anchor="start" x="183.629" y="-15.4" font-family="sans-serif" font-size="14.00" fill="#000000"> &#160;Declarations</text>
<polygon fill="#8dd3c7" stroke="transparent" points="273,-10 273,-30 293,-30 293,-10 273,-10"/>
<text text-anchor="start" x="296.7251" y="-15.4" font-family="sans-serif" font-size="14.00" fill="#000000"> &#160;Module</text>
<polygon fill="#80b1d3" stroke="transparent" points="359,-10 359,-30 379,-30 379,-10 359,-10"/>
<text text-anchor="start" x="382.7812" y="-15.4" font-family="sans-serif" font-size="14.00" fill="#000000"> &#160;Bootstrap</text>
<polygon fill="#fdb462" stroke="transparent" points="456,-10 456,-30 476,-30 476,-10 456,-10"/>
<text text-anchor="start" x="479.6732" y="-15.4" font-family="sans-serif" font-size="14.00" fill="#000000"> &#160;Providers</text>
<polygon fill="#fb8072" stroke="transparent" points="552,-10 552,-30 572,-30 572,-10 552,-10"/>
<text text-anchor="start" x="575.7258" y="-15.4" font-family="sans-serif" font-size="14.00" fill="#000000"> &#160;Exports</text>
<g id="clust1" class="cluster">
<title>cluster_IoModule</title>
<polygon fill="none" stroke="#000000" stroke-dasharray="1,5" points="8,-70 8,-268 780,-268 780,-70 8,-70"/>
</g>
<g id="clust2" class="cluster">
<title>cluster_IoModule_declarations</title>
<polygon fill="none" stroke="#000000" points="35,-78 35,-130 772,-130 772,-78 35,-78"/>
</g>
<g id="clust9" class="cluster">
<title>cluster_IoModule_exports</title>
<polygon fill="none" stroke="#000000" points="16,-208 16,-260 772,-260 772,-208 16,-208"/>
</g>
<!-- InputErrorsComponent -->
<g id="node1" class="node">
<title>InputErrorsComponent</title>
<polygon fill="#ffffb3" stroke="#000000" points="763.8627,-122 618.1373,-122 618.1373,-86 763.8627,-86 763.8627,-122"/>
<text text-anchor="middle" x="691" y="-99.8" font-family="Times,serif" font-size="14.00" fill="#000000">InputErrorsComponent</text>
</g>
<!-- IoModule -->
<g id="node6" class="node">
<title>IoModule</title>
<polygon fill="#8dd3c7" stroke="#000000" points="424.7107,-187 421.7107,-191 400.7107,-191 397.7107,-187 353.2893,-187 353.2893,-151 424.7107,-151 424.7107,-187"/>
<text text-anchor="middle" x="389" y="-164.8" font-family="Times,serif" font-size="14.00" fill="#000000">IoModule</text>
</g>
<!-- InputErrorsComponent&#45;&gt;IoModule -->
<g id="edge1" class="edge">
<title>InputErrorsComponent&#45;&gt;IoModule</title>
<path fill="none" stroke="#000000" d="M621.7126,-122.2667C621.7126,-140.5552 621.7126,-166 621.7126,-166 621.7126,-166 434.8514,-166 434.8514,-166"/>
<polygon fill="#000000" stroke="#000000" points="434.8514,-162.5001 424.8514,-166 434.8513,-169.5001 434.8514,-162.5001"/>
</g>
<!-- SlotHostDirective -->
<g id="node2" class="node">
<title>SlotHostDirective</title>
<polygon fill="#ffffb3" stroke="#000000" points="600.5884,-122 483.4116,-122 483.4116,-86 600.5884,-86 600.5884,-122"/>
<text text-anchor="middle" x="542" y="-99.8" font-family="Times,serif" font-size="14.00" fill="#000000">SlotHostDirective</text>
</g>
<!-- SlotHostDirective&#45;&gt;IoModule -->
<g id="edge2" class="edge">
<title>SlotHostDirective&#45;&gt;IoModule</title>
<path fill="none" stroke="#000000" d="M542,-122.0091C542,-138.0494 542,-159 542,-159 542,-159 434.8717,-159 434.8717,-159"/>
<polygon fill="#000000" stroke="#000000" points="434.8717,-155.5001 424.8717,-159 434.8717,-162.5001 434.8717,-155.5001"/>
</g>
<!-- DynamicSlotComponent -->
<g id="node3" class="node">
<title>DynamicSlotComponent</title>
<polygon fill="#ffffb3" stroke="#000000" points="465.7133,-122 310.2867,-122 310.2867,-86 465.7133,-86 465.7133,-122"/>
<text text-anchor="middle" x="388" y="-99.8" font-family="Times,serif" font-size="14.00" fill="#000000">DynamicSlotComponent</text>
</g>
<!-- DynamicSlotComponent&#45;&gt;IoModule -->
<g id="edge3" class="edge">
<title>DynamicSlotComponent&#45;&gt;IoModule</title>
<path fill="none" stroke="#000000" d="M389,-122.1061C389,-122.1061 389,-140.991 389,-140.991"/>
<polygon fill="#000000" stroke="#000000" points="385.5001,-140.9909 389,-150.991 392.5001,-140.991 385.5001,-140.9909"/>
</g>
<!-- InputComponent -->
<g id="node4" class="node">
<title>InputComponent</title>
<polygon fill="#ffffb3" stroke="#000000" points="292.3837,-122 181.6163,-122 181.6163,-86 292.3837,-86 292.3837,-122"/>
<text text-anchor="middle" x="237" y="-99.8" font-family="Times,serif" font-size="14.00" fill="#000000">InputComponent</text>
</g>
<!-- InputComponent&#45;&gt;IoModule -->
<g id="edge4" class="edge">
<title>InputComponent&#45;&gt;IoModule</title>
<path fill="none" stroke="#000000" d="M242.2909,-122.0091C242.2909,-138.0494 242.2909,-159 242.2909,-159 242.2909,-159 343.1109,-159 343.1109,-159"/>
<polygon fill="#000000" stroke="#000000" points="343.1109,-162.5001 353.1109,-159 343.1109,-155.5001 343.1109,-162.5001"/>
</g>
<!-- OutputComponent -->
<g id="node5" class="node">
<title>OutputComponent</title>
<polygon fill="#ffffb3" stroke="#000000" points="163.2204,-122 42.7796,-122 42.7796,-86 163.2204,-86 163.2204,-122"/>
<text text-anchor="middle" x="103" y="-99.8" font-family="Times,serif" font-size="14.00" fill="#000000">OutputComponent</text>
</g>
<!-- OutputComponent&#45;&gt;IoModule -->
<g id="edge5" class="edge">
<title>OutputComponent&#45;&gt;IoModule</title>
<path fill="none" stroke="#000000" d="M103,-122.2667C103,-140.5552 103,-166 103,-166 103,-166 343.3562,-166 343.3562,-166"/>
<polygon fill="#000000" stroke="#000000" points="343.3562,-169.5001 353.3562,-166 343.3561,-162.5001 343.3562,-169.5001"/>
</g>
<!-- SlotHostDirective  -->
<g id="node7" class="node">
<title>SlotHostDirective </title>
<polygon fill="#fb8072" stroke="#000000" points="764.0891,-252 643.9109,-252 643.9109,-216 764.0891,-216 764.0891,-252"/>
<text text-anchor="middle" x="704" y="-229.8" font-family="Times,serif" font-size="14.00" fill="#000000">SlotHostDirective </text>
</g>
<!-- IoModule&#45;&gt;SlotHostDirective  -->
<g id="edge6" class="edge">
<title>IoModule&#45;&gt;SlotHostDirective </title>
<path fill="none" stroke="#000000" stroke-dasharray="5,2" d="M424.8072,-173C507.3209,-173 703.8186,-173 703.8186,-173 703.8186,-173 703.8186,-205.698 703.8186,-205.698"/>
<polygon fill="#000000" stroke="#000000" points="700.3186,-205.698 703.8186,-215.698 707.3186,-205.698 700.3186,-205.698"/>
</g>
<!-- DynamicSlotComponent  -->
<g id="node8" class="node">
<title>DynamicSlotComponent </title>
<polygon fill="#fb8072" stroke="#000000" points="625.2135,-252 466.7865,-252 466.7865,-216 625.2135,-216 625.2135,-252"/>
<text text-anchor="middle" x="546" y="-229.8" font-family="Times,serif" font-size="14.00" fill="#000000">DynamicSlotComponent </text>
</g>
<!-- IoModule&#45;&gt;DynamicSlotComponent  -->
<g id="edge7" class="edge">
<title>IoModule&#45;&gt;DynamicSlotComponent </title>
<path fill="none" stroke="#000000" stroke-dasharray="5,2" d="M424.9942,-180C448.574,-180 475.0496,-180 475.0496,-180 475.0496,-180 475.0496,-205.7181 475.0496,-205.7181"/>
<polygon fill="#000000" stroke="#000000" points="471.5497,-205.718 475.0496,-215.7181 478.5497,-205.7181 471.5497,-205.718"/>
</g>
<!-- InputComponent  -->
<g id="node9" class="node">
<title>InputComponent </title>
<polygon fill="#fb8072" stroke="#000000" points="448.3842,-252 333.6158,-252 333.6158,-216 448.3842,-216 448.3842,-252"/>
<text text-anchor="middle" x="391" y="-229.8" font-family="Times,serif" font-size="14.00" fill="#000000">InputComponent </text>
</g>
<!-- IoModule&#45;&gt;InputComponent  -->
<g id="edge8" class="edge">
<title>IoModule&#45;&gt;InputComponent </title>
<path fill="none" stroke="#000000" stroke-dasharray="5,2" d="M389,-187.1061C389,-187.1061 389,-205.991 389,-205.991"/>
<polygon fill="#000000" stroke="#000000" points="385.5001,-205.9909 389,-215.991 392.5001,-205.991 385.5001,-205.9909"/>
</g>
<!-- OutputComponent  -->
<g id="node10" class="node">
<title>OutputComponent </title>
<polygon fill="#fb8072" stroke="#000000" points="315.7205,-252 192.2795,-252 192.2795,-216 315.7205,-216 315.7205,-252"/>
<text text-anchor="middle" x="254" y="-229.8" font-family="Times,serif" font-size="14.00" fill="#000000">OutputComponent </text>
</g>
<!-- IoModule&#45;&gt;OutputComponent  -->
<g id="edge9" class="edge">
<title>IoModule&#45;&gt;OutputComponent </title>
<path fill="none" stroke="#000000" stroke-dasharray="5,2" d="M353.3769,-180C329.1292,-180 301.4176,-180 301.4176,-180 301.4176,-180 301.4176,-205.7181 301.4176,-205.7181"/>
<polygon fill="#000000" stroke="#000000" points="297.9177,-205.718 301.4176,-215.7181 304.9177,-205.7181 297.9177,-205.718"/>
</g>
<!-- InputErrorsComponent  -->
<g id="node11" class="node">
<title>InputErrorsComponent </title>
<polygon fill="#fb8072" stroke="#000000" points="173.863,-252 24.137,-252 24.137,-216 173.863,-216 173.863,-252"/>
<text text-anchor="middle" x="99" y="-229.8" font-family="Times,serif" font-size="14.00" fill="#000000">InputErrorsComponent </text>
</g>
<!-- IoModule&#45;&gt;InputErrorsComponent  -->
<g id="edge10" class="edge">
<title>IoModule&#45;&gt;InputErrorsComponent </title>
<path fill="none" stroke="#000000" stroke-dasharray="5,2" d="M353.0651,-173C290.5543,-173 168.3957,-173 168.3957,-173 168.3957,-173 168.3957,-205.698 168.3957,-205.698"/>
<polygon fill="#000000" stroke="#000000" points="164.8958,-205.698 168.3957,-215.698 171.8958,-205.698 164.8958,-205.698"/>
</g>
</g>
</svg>
