<?xml version="1.0" encoding="UTF-8" standalone="no"?>
<!DOCTYPE svg PUBLIC "-//W3C//DTD SVG 1.1//EN"
 "http://www.w3.org/Graphics/SVG/1.1/DTD/svg11.dtd">
<!-- Generated by graphviz version 2.40.1 (20161225.0304)
 -->
<!-- Title: dependencies Pages: 1 -->
<svg width="796pt" height="284pt"
 viewBox="0.00 0.00 796.00 284.00" xmlns="http://www.w3.org/2000/svg" xmlns:xlink="http://www.w3.org/1999/xlink">
<g id="graph0" class="graph" transform="scale(1 1) rotate(0) translate(4 280)">
<title>dependencies</title>
<polygon fill="#ffffff" stroke="transparent" points="-4,4 -4,-280 792,-280 792,4 -4,4"/>
<text text-anchor="start" x="373.0091" y="-42.4" font-family="sans-serif" font-weight="bold" font-size="14.00" fill="#000000">Legend</text>
<polygon fill="#ffffb3" stroke="transparent" points="160,-10 160,-30 180,-30 180,-10 160,-10"/>
<text text-anchor="start" x="183.629" y="-15.4" font-family="sans-serif" font-size="14.00" fill="#000000"> &#160;Declarations</text>
<polygon fill="#8dd3c7" stroke="transparent" points="273,-10 273,-30 293,-30 293,-10 273,-10"/>
<text text-anchor="start" x="296.7251" y="-15.4" font-family="sans-serif" font-size="14.00" fill="#000000"> &#160;Module</text>
<polygon fill="#80b1d3" stroke="transparent" points="359,-10 359,-30 379,-30 379,-10 359,-10"/>
<text text-anchor="start" x="382.7812" y="-15.4" font-family="sans-serif" font-size="14.00" fill="#000000"> &#160;Bootstrap</text>
<polygon fill="#fdb462" stroke="transparent" points="456,-10 456,-30 476,-30 476,-10 456,-10"/>
<text text-anchor="start" x="479.6732" y="-15.4" font-family="sans-serif" font-size="14.00" fill="#000000"> &#160;Providers</text>
<polygon fill="#fb8072" stroke="transparent" points="552,-10 552,-30 572,-30 572,-10 552,-10"/>
<text text-anchor="start" x="575.7258" y="-15.4" font-family="sans-serif" font-size="14.00" fill="#000000"> &#160;Exports</text>
<g id="clust1" class="cluster">
<title>cluster_IoModule</title>
<polygon fill="none" stroke="#000000" stroke-dasharray="1,5" points="8,-70 8,-268 780,-268 780,-70 8,-70"/>
</g>
<g id="clust2" class="cluster">
<title>cluster_IoModule_declarations</title>
<polygon fill="none" stroke="#000000" points="25,-78 25,-130 763,-130 763,-78 25,-78"/>
</g>
<g id="clust9" class="cluster">
<title>cluster_IoModule_exports</title>
<polygon fill="none" stroke="#000000" points="16,-208 16,-260 772,-260 772,-208 16,-208"/>
</g>
<!-- SlotHostDirective -->
<g id="node1" class="node">
<title>SlotHostDirective</title>
<polygon fill="#ffffb3" stroke="#000000" points="754.5884,-122 637.4116,-122 637.4116,-86 754.5884,-86 754.5884,-122"/>
<text text-anchor="middle" x="696" y="-99.8" font-family="Times,serif" font-size="14.00" fill="#000000">SlotHostDirective</text>
</g>
<!-- IoModule -->
<g id="node6" class="node">
<title>IoModule</title>
<polygon fill="#8dd3c7" stroke="#000000" points="426.7107,-187 423.7107,-191 402.7107,-191 399.7107,-187 355.2893,-187 355.2893,-151 426.7107,-151 426.7107,-187"/>
<text text-anchor="middle" x="391" y="-164.8" font-family="Times,serif" font-size="14.00" fill="#000000">IoModule</text>
</g>
<!-- SlotHostDirective&#45;&gt;IoModule -->
<g id="edge1" class="edge">
<title>SlotHostDirective&#45;&gt;IoModule</title>
<path fill="none" stroke="#000000" d="M717.5981,-122.2667C717.5981,-140.5552 717.5981,-166 717.5981,-166 717.5981,-166 436.886,-166 436.886,-166"/>
<polygon fill="#000000" stroke="#000000" points="436.886,-162.5001 426.886,-166 436.8859,-169.5001 436.886,-162.5001"/>
</g>
<!-- DynamicSlotComponent -->
<g id="node2" class="node">
<title>DynamicSlotComponent</title>
<polygon fill="#ffffb3" stroke="#000000" points="619.7133,-122 464.2867,-122 464.2867,-86 619.7133,-86 619.7133,-122"/>
<text text-anchor="middle" x="542" y="-99.8" font-family="Times,serif" font-size="14.00" fill="#000000">DynamicSlotComponent</text>
</g>
<!-- DynamicSlotComponent&#45;&gt;IoModule -->
<g id="edge2" class="edge">
<title>DynamicSlotComponent&#45;&gt;IoModule</title>
<path fill="none" stroke="#000000" d="M568.6189,-122.0091C568.6189,-138.0494 568.6189,-159 568.6189,-159 568.6189,-159 436.9438,-159 436.9438,-159"/>
<polygon fill="#000000" stroke="#000000" points="436.9439,-155.5001 426.9438,-159 436.9438,-162.5001 436.9439,-155.5001"/>
</g>
<!-- InputComponent -->
<g id="node3" class="node">
<title>InputComponent</title>
<polygon fill="#ffffb3" stroke="#000000" points="446.3837,-122 335.6163,-122 335.6163,-86 446.3837,-86 446.3837,-122"/>
<text text-anchor="middle" x="391" y="-99.8" font-family="Times,serif" font-size="14.00" fill="#000000">InputComponent</text>
</g>
<!-- InputComponent&#45;&gt;IoModule -->
<g id="edge3" class="edge">
<title>InputComponent&#45;&gt;IoModule</title>
<path fill="none" stroke="#000000" d="M391,-122.1061C391,-122.1061 391,-140.991 391,-140.991"/>
<polygon fill="#000000" stroke="#000000" points="387.5001,-140.9909 391,-150.991 394.5001,-140.991 387.5001,-140.9909"/>
</g>
<!-- OutputComponent -->
<g id="node4" class="node">
<title>OutputComponent</title>
<polygon fill="#ffffb3" stroke="#000000" points="317.2204,-122 196.7796,-122 196.7796,-86 317.2204,-86 317.2204,-122"/>
<text text-anchor="middle" x="257" y="-99.8" font-family="Times,serif" font-size="14.00" fill="#000000">OutputComponent</text>
</g>
<!-- OutputComponent&#45;&gt;IoModule -->
<g id="edge4" class="edge">
<title>OutputComponent&#45;&gt;IoModule</title>
<path fill="none" stroke="#000000" d="M276.2034,-122.0091C276.2034,-138.0494 276.2034,-159 276.2034,-159 276.2034,-159 345.3069,-159 345.3069,-159"/>
<polygon fill="#000000" stroke="#000000" points="345.3069,-162.5001 355.3069,-159 345.3069,-155.5001 345.3069,-162.5001"/>
</g>
<!-- InputErrorsComponent -->
<g id="node5" class="node">
<title>InputErrorsComponent</title>
<polygon fill="#ffffb3" stroke="#000000" points="178.8627,-122 33.1373,-122 33.1373,-86 178.8627,-86 178.8627,-122"/>
<text text-anchor="middle" x="106" y="-99.8" font-family="Times,serif" font-size="14.00" fill="#000000">InputErrorsComponent</text>
</g>
<!-- InputErrorsComponent&#45;&gt;IoModule -->
<g id="edge5" class="edge">
<title>InputErrorsComponent&#45;&gt;IoModule</title>
<path fill="none" stroke="#000000" d="M126.8104,-122.2667C126.8104,-140.5552 126.8104,-166 126.8104,-166 126.8104,-166 345.3702,-166 345.3702,-166"/>
<polygon fill="#000000" stroke="#000000" points="345.3703,-169.5001 355.3702,-166 345.3702,-162.5001 345.3703,-169.5001"/>
</g>
<!-- SlotHostDirective  -->
<g id="node7" class="node">
<title>SlotHostDirective </title>
<polygon fill="#fb8072" stroke="#000000" points="764.0891,-252 643.9109,-252 643.9109,-216 764.0891,-216 764.0891,-252"/>
<text text-anchor="middle" x="704" y="-229.8" font-family="Times,serif" font-size="14.00" fill="#000000">SlotHostDirective </text>
</g>
<!-- IoModule&#45;&gt;SlotHostDirective  -->
<g id="edge6" class="edge">
<title>IoModule&#45;&gt;SlotHostDirective </title>
<path fill="none" stroke="#000000" stroke-dasharray="5,2" d="M426.8075,-173C504.3041,-173 680.6519,-173 680.6519,-173 680.6519,-173 680.6519,-205.698 680.6519,-205.698"/>
<polygon fill="#000000" stroke="#000000" points="677.152,-205.698 680.6519,-215.698 684.152,-205.698 677.152,-205.698"/>
</g>
<!-- DynamicSlotComponent  -->
<g id="node8" class="node">
<title>DynamicSlotComponent </title>
<polygon fill="#fb8072" stroke="#000000" points="625.2135,-252 466.7865,-252 466.7865,-216 625.2135,-216 625.2135,-252"/>
<text text-anchor="middle" x="546" y="-229.8" font-family="Times,serif" font-size="14.00" fill="#000000">DynamicSlotComponent </text>
</g>
<!-- IoModule&#45;&gt;DynamicSlotComponent  -->
<g id="edge7" class="edge">
<title>IoModule&#45;&gt;DynamicSlotComponent </title>
<path fill="none" stroke="#000000" stroke-dasharray="5,2" d="M426.6108,-180C464.0652,-180 517.6311,-180 517.6311,-180 517.6311,-180 517.6311,-205.7181 517.6311,-205.7181"/>
<polygon fill="#000000" stroke="#000000" points="514.1312,-205.718 517.6311,-215.7181 521.1312,-205.7181 514.1312,-205.718"/>
</g>
<!-- InputComponent  -->
<g id="node9" class="node">
<title>InputComponent </title>
<polygon fill="#fb8072" stroke="#000000" points="448.3842,-252 333.6158,-252 333.6158,-216 448.3842,-216 448.3842,-252"/>
<text text-anchor="middle" x="391" y="-229.8" font-family="Times,serif" font-size="14.00" fill="#000000">InputComponent </text>
</g>
<!-- IoModule&#45;&gt;InputComponent  -->
<g id="edge8" class="edge">
<title>IoModule&#45;&gt;InputComponent </title>
<path fill="none" stroke="#000000" stroke-dasharray="5,2" d="M391,-187.1061C391,-187.1061 391,-205.991 391,-205.991"/>
<polygon fill="#000000" stroke="#000000" points="387.5001,-205.9909 391,-215.991 394.5001,-205.991 387.5001,-205.9909"/>
</g>
<!-- OutputComponent  -->
<g id="node10" class="node">
<title>OutputComponent </title>
<polygon fill="#fb8072" stroke="#000000" points="315.7205,-252 192.2795,-252 192.2795,-216 315.7205,-216 315.7205,-252"/>
<text text-anchor="middle" x="254" y="-229.8" font-family="Times,serif" font-size="14.00" fill="#000000">OutputComponent </text>
</g>
<!-- IoModule&#45;&gt;OutputComponent  -->
<g id="edge9" class="edge">
<title>IoModule&#45;&gt;OutputComponent </title>
<path fill="none" stroke="#000000" stroke-dasharray="5,2" d="M355.1771,-180C309.55,-180 236.5466,-180 236.5466,-180 236.5466,-180 236.5466,-205.7181 236.5466,-205.7181"/>
<polygon fill="#000000" stroke="#000000" points="233.0467,-205.718 236.5466,-215.7181 240.0467,-205.7181 233.0467,-205.718"/>
</g>
<!-- InputErrorsComponent  -->
<g id="node11" class="node">
<title>InputErrorsComponent </title>
<polygon fill="#fb8072" stroke="#000000" points="173.863,-252 24.137,-252 24.137,-216 173.863,-216 173.863,-252"/>
<text text-anchor="middle" x="99" y="-229.8" font-family="Times,serif" font-size="14.00" fill="#000000">InputErrorsComponent </text>
</g>
<!-- IoModule&#45;&gt;InputErrorsComponent  -->
<g id="edge10" class="edge">
<title>IoModule&#45;&gt;InputErrorsComponent </title>
<path fill="none" stroke="#000000" stroke-dasharray="5,2" d="M355.3174,-173C273.6119,-173 79.9396,-173 79.9396,-173 79.9396,-173 79.9396,-205.698 79.9396,-205.698"/>
<polygon fill="#000000" stroke="#000000" points="76.4397,-205.698 79.9396,-215.698 83.4397,-205.698 76.4397,-205.698"/>
</g>
</g>
</svg>
