<?xml version="1.0" encoding="UTF-8" standalone="no"?>
<!DOCTYPE svg PUBLIC "-//W3C//DTD SVG 1.1//EN"
 "http://www.w3.org/Graphics/SVG/1.1/DTD/svg11.dtd">
<!-- Generated by graphviz version 2.40.1 (20161225.0304)
 -->
<!-- Title: dependencies Pages: 1 -->
<svg width="836pt" height="284pt"
 viewBox="0.00 0.00 836.00 284.00" xmlns="http://www.w3.org/2000/svg" xmlns:xlink="http://www.w3.org/1999/xlink">
<g id="graph0" class="graph" transform="scale(1 1) rotate(0) translate(4 280)">
<title>dependencies</title>
<polygon fill="#ffffff" stroke="transparent" points="-4,4 -4,-280 832,-280 832,4 -4,4"/>
<text text-anchor="start" x="393.0091" y="-42.4" font-family="sans-serif" font-weight="bold" font-size="14.00" fill="#000000">Legend</text>
<polygon fill="#ffffb3" stroke="transparent" points="180,-10 180,-30 200,-30 200,-10 180,-10"/>
<text text-anchor="start" x="203.629" y="-15.4" font-family="sans-serif" font-size="14.00" fill="#000000"> &#160;Declarations</text>
<polygon fill="#8dd3c7" stroke="transparent" points="293,-10 293,-30 313,-30 313,-10 293,-10"/>
<text text-anchor="start" x="316.7251" y="-15.4" font-family="sans-serif" font-size="14.00" fill="#000000"> &#160;Module</text>
<polygon fill="#80b1d3" stroke="transparent" points="379,-10 379,-30 399,-30 399,-10 379,-10"/>
<text text-anchor="start" x="402.7812" y="-15.4" font-family="sans-serif" font-size="14.00" fill="#000000"> &#160;Bootstrap</text>
<polygon fill="#fdb462" stroke="transparent" points="476,-10 476,-30 496,-30 496,-10 476,-10"/>
<text text-anchor="start" x="499.6732" y="-15.4" font-family="sans-serif" font-size="14.00" fill="#000000"> &#160;Providers</text>
<polygon fill="#fb8072" stroke="transparent" points="572,-10 572,-30 592,-30 592,-10 572,-10"/>
<text text-anchor="start" x="595.7258" y="-15.4" font-family="sans-serif" font-size="14.00" fill="#000000"> &#160;Exports</text>
<g id="clust1" class="cluster">
<title>cluster_UtilityModule</title>
<polygon fill="none" stroke="#000000" stroke-dasharray="1,5" points="8,-70 8,-268 820,-268 820,-70 8,-70"/>
</g>
<g id="clust2" class="cluster">
<title>cluster_UtilityModule_declarations</title>
<polygon fill="none" stroke="#000000" points="118,-78 118,-130 806,-130 806,-78 118,-78"/>
</g>
<g id="clust8" class="cluster">
<title>cluster_UtilityModule_imports</title>
<polygon fill="none" stroke="#000000" points="22,-78 22,-130 110,-130 110,-78 22,-78"/>
</g>
<g id="clust9" class="cluster">
<title>cluster_UtilityModule_exports</title>
<polygon fill="none" stroke="#000000" points="16,-208 16,-260 812,-260 812,-208 16,-208"/>
</g>
<!-- LoginFormComponent -->
<g id="node1" class="node">
<title>LoginFormComponent</title>
<polygon fill="#ffffb3" stroke="#000000" points="797.6094,-122 652.3906,-122 652.3906,-86 797.6094,-86 797.6094,-122"/>
<text text-anchor="middle" x="725" y="-99.8" font-family="Times,serif" font-size="14.00" fill="#000000">LoginFormComponent</text>
</g>
<!-- UtilityModule -->
<g id="node6" class="node">
<title>UtilityModule</title>
<polygon fill="#8dd3c7" stroke="#000000" points="439.1095,-187 436.1095,-191 415.1095,-191 412.1095,-187 342.8905,-187 342.8905,-151 439.1095,-151 439.1095,-187"/>
<text text-anchor="middle" x="391" y="-164.8" font-family="Times,serif" font-size="14.00" fill="#000000">UtilityModule</text>
</g>
<!-- LoginFormComponent&#45;&gt;UtilityModule -->
<g id="edge1" class="edge">
<title>LoginFormComponent&#45;&gt;UtilityModule</title>
<path fill="none" stroke="#000000" d="M681.875,-122.2667C681.875,-140.5552 681.875,-166 681.875,-166 681.875,-166 449.3586,-166 449.3586,-166"/>
<polygon fill="#000000" stroke="#000000" points="449.3586,-162.5001 439.3586,-166 449.3586,-169.5001 449.3586,-162.5001"/>
</g>
<!-- MenuComponent -->
<g id="node2" class="node">
<title>MenuComponent</title>
<polygon fill="#ffffb3" stroke="#000000" points="633.9916,-122 520.0084,-122 520.0084,-86 633.9916,-86 633.9916,-122"/>
<text text-anchor="middle" x="577" y="-99.8" font-family="Times,serif" font-size="14.00" fill="#000000">MenuComponent</text>
</g>
<!-- MenuComponent&#45;&gt;UtilityModule -->
<g id="edge2" class="edge">
<title>MenuComponent&#45;&gt;UtilityModule</title>
<path fill="none" stroke="#000000" d="M532.375,-122.0091C532.375,-138.0494 532.375,-159 532.375,-159 532.375,-159 449.2578,-159 449.2578,-159"/>
<polygon fill="#000000" stroke="#000000" points="449.2579,-155.5001 439.2578,-159 449.2578,-162.5001 449.2579,-155.5001"/>
</g>
<!-- MockupComponent -->
<g id="node3" class="node">
<title>MockupComponent</title>
<polygon fill="#ffffb3" stroke="#000000" points="501.9916,-122 374.0084,-122 374.0084,-86 501.9916,-86 501.9916,-122"/>
<text text-anchor="middle" x="438" y="-99.8" font-family="Times,serif" font-size="14.00" fill="#000000">MockupComponent</text>
</g>
<!-- MockupComponent&#45;&gt;UtilityModule -->
<g id="edge3" class="edge">
<title>MockupComponent&#45;&gt;UtilityModule</title>
<path fill="none" stroke="#000000" d="M406.5295,-122.1061C406.5295,-122.1061 406.5295,-140.991 406.5295,-140.991"/>
<polygon fill="#000000" stroke="#000000" points="403.0295,-140.9909 406.5295,-150.991 410.0295,-140.991 403.0295,-140.9909"/>
</g>
<!-- TabComponent -->
<g id="node4" class="node">
<title>TabComponent</title>
<polygon fill="#ffffb3" stroke="#000000" points="355.5996,-122 252.4004,-122 252.4004,-86 355.5996,-86 355.5996,-122"/>
<text text-anchor="middle" x="304" y="-99.8" font-family="Times,serif" font-size="14.00" fill="#000000">TabComponent</text>
</g>
<!-- TabComponent&#45;&gt;UtilityModule -->
<g id="edge4" class="edge">
<title>TabComponent&#45;&gt;UtilityModule</title>
<path fill="none" stroke="#000000" d="M349.2476,-122.1061C349.2476,-122.1061 349.2476,-140.991 349.2476,-140.991"/>
<polygon fill="#000000" stroke="#000000" points="345.7476,-140.9909 349.2476,-150.991 352.7476,-140.991 345.7476,-140.9909"/>
</g>
<!-- TabsComponent -->
<g id="node5" class="node">
<title>TabsComponent</title>
<polygon fill="#ffffb3" stroke="#000000" points="234.0452,-122 125.9548,-122 125.9548,-86 234.0452,-86 234.0452,-122"/>
<text text-anchor="middle" x="180" y="-99.8" font-family="Times,serif" font-size="14.00" fill="#000000">TabsComponent</text>
</g>
<!-- TabsComponent&#45;&gt;UtilityModule -->
<g id="edge5" class="edge">
<title>TabsComponent&#45;&gt;UtilityModule</title>
<path fill="none" stroke="#000000" d="M193.9862,-122.0091C193.9862,-138.0494 193.9862,-159 193.9862,-159 193.9862,-159 332.805,-159 332.805,-159"/>
<polygon fill="#000000" stroke="#000000" points="332.805,-162.5001 342.805,-159 332.805,-155.5001 332.805,-162.5001"/>
</g>
<!-- IoModule  -->
<g id="node8" class="node">
<title>IoModule </title>
<polygon fill="#fb8072" stroke="#000000" points="804.211,-252 729.789,-252 729.789,-216 804.211,-216 804.211,-252"/>
<text text-anchor="middle" x="767" y="-229.8" font-family="Times,serif" font-size="14.00" fill="#000000">IoModule </text>
</g>
<!-- UtilityModule&#45;&gt;IoModule  -->
<g id="edge7" class="edge">
<title>UtilityModule&#45;&gt;IoModule </title>
<path fill="none" stroke="#000000" stroke-dasharray="5,2" d="M439.3289,-173C540.1453,-173 763.5998,-173 763.5998,-173 763.5998,-173 763.5998,-205.698 763.5998,-205.698"/>
<polygon fill="#000000" stroke="#000000" points="760.0998,-205.698 763.5998,-215.698 767.0998,-205.698 760.0998,-205.698"/>
</g>
<!-- LoginFormComponent  -->
<g id="node9" class="node">
<title>LoginFormComponent </title>
<polygon fill="#fb8072" stroke="#000000" points="711.1099,-252 562.8901,-252 562.8901,-216 711.1099,-216 711.1099,-252"/>
<text text-anchor="middle" x="637" y="-229.8" font-family="Times,serif" font-size="14.00" fill="#000000">LoginFormComponent </text>
</g>
<!-- UtilityModule&#45;&gt;LoginFormComponent  -->
<g id="edge8" class="edge">
<title>UtilityModule&#45;&gt;LoginFormComponent </title>
<path fill="none" stroke="#000000" stroke-dasharray="5,2" d="M439.0904,-180C500.3424,-180 598.3456,-180 598.3456,-180 598.3456,-180 598.3456,-205.7181 598.3456,-205.7181"/>
<polygon fill="#000000" stroke="#000000" points="594.8456,-205.718 598.3456,-215.7181 601.8456,-205.7181 594.8456,-205.718"/>
</g>
<!-- MenuComponent  -->
<g id="node10" class="node">
<title>MenuComponent </title>
<polygon fill="#fb8072" stroke="#000000" points="544.9926,-252 427.0074,-252 427.0074,-216 544.9926,-216 544.9926,-252"/>
<text text-anchor="middle" x="486" y="-229.8" font-family="Times,serif" font-size="14.00" fill="#000000">MenuComponent </text>
</g>
<!-- UtilityModule&#45;&gt;MenuComponent  -->
<g id="edge9" class="edge">
<title>UtilityModule&#45;&gt;MenuComponent </title>
<path fill="none" stroke="#000000" stroke-dasharray="5,2" d="M433.1545,-187.1061C433.1545,-187.1061 433.1545,-205.991 433.1545,-205.991"/>
<polygon fill="#000000" stroke="#000000" points="429.6545,-205.9909 433.1545,-215.991 436.6545,-205.991 429.6545,-205.9909"/>
</g>
<!-- MockupComponent  -->
<g id="node11" class="node">
<title>MockupComponent </title>
<polygon fill="#fb8072" stroke="#000000" points="409.9925,-252 278.0075,-252 278.0075,-216 409.9925,-216 409.9925,-252"/>
<text text-anchor="middle" x="344" y="-229.8" font-family="Times,serif" font-size="14.00" fill="#000000">MockupComponent </text>
</g>
<!-- UtilityModule&#45;&gt;MockupComponent  -->
<g id="edge10" class="edge">
<title>UtilityModule&#45;&gt;MockupComponent </title>
<path fill="none" stroke="#000000" stroke-dasharray="5,2" d="M376.3456,-187.1061C376.3456,-187.1061 376.3456,-205.991 376.3456,-205.991"/>
<polygon fill="#000000" stroke="#000000" points="372.8456,-205.9909 376.3456,-215.991 379.8456,-205.991 372.8456,-205.9909"/>
</g>
<!-- TabComponent  -->
<g id="node12" class="node">
<title>TabComponent </title>
<polygon fill="#fb8072" stroke="#000000" points="260.1003,-252 153.8997,-252 153.8997,-216 260.1003,-216 260.1003,-252"/>
<text text-anchor="middle" x="207" y="-229.8" font-family="Times,serif" font-size="14.00" fill="#000000">TabComponent </text>
</g>
<!-- UtilityModule&#45;&gt;TabComponent  -->
<g id="edge11" class="edge">
<title>UtilityModule&#45;&gt;TabComponent </title>
<path fill="none" stroke="#000000" stroke-dasharray="5,2" d="M342.7775,-180C304.1483,-180 256.375,-180 256.375,-180 256.375,-180 256.375,-205.7181 256.375,-205.7181"/>
<polygon fill="#000000" stroke="#000000" points="252.8751,-205.718 256.375,-215.7181 259.8751,-205.7181 252.8751,-205.718"/>
</g>
<!-- TabsComponent  -->
<g id="node13" class="node">
<title>TabsComponent </title>
<polygon fill="#fb8072" stroke="#000000" points="136.0442,-252 23.9558,-252 23.9558,-216 136.0442,-216 136.0442,-252"/>
<text text-anchor="middle" x="80" y="-229.8" font-family="Times,serif" font-size="14.00" fill="#000000">TabsComponent </text>
</g>
<!-- UtilityModule&#45;&gt;TabsComponent  -->
<g id="edge12" class="edge">
<title>UtilityModule&#45;&gt;TabsComponent </title>
<path fill="none" stroke="#000000" stroke-dasharray="5,2" d="M342.6821,-173C267.4559,-173 130.875,-173 130.875,-173 130.875,-173 130.875,-205.698 130.875,-205.698"/>
<polygon fill="#000000" stroke="#000000" points="127.3751,-205.698 130.875,-215.698 134.3751,-205.698 127.3751,-205.698"/>
</g>
<!-- IoModule -->
<g id="node7" class="node">
<title>IoModule</title>
<polygon fill="#8dd3c7" stroke="#000000" points="101.7107,-122 98.7107,-126 77.7107,-126 74.7107,-122 30.2893,-122 30.2893,-86 101.7107,-86 101.7107,-122"/>
<text text-anchor="middle" x="66" y="-99.8" font-family="Times,serif" font-size="14.00" fill="#000000">IoModule</text>
</g>
<!-- IoModule&#45;&gt;UtilityModule -->
<g id="edge6" class="edge">
<title>IoModule&#45;&gt;UtilityModule</title>
<path fill="none" stroke="#000000" d="M66,-122.2667C66,-140.5552 66,-166 66,-166 66,-166 332.6952,-166 332.6952,-166"/>
<polygon fill="#000000" stroke="#000000" points="332.6952,-169.5001 342.6952,-166 332.6951,-162.5001 332.6952,-169.5001"/>
</g>
</g>
</svg>
