<?xml version="1.0" encoding="UTF-8" standalone="no"?>
<!DOCTYPE svg PUBLIC "-//W3C//DTD SVG 1.1//EN"
 "http://www.w3.org/Graphics/SVG/1.1/DTD/svg11.dtd">
<!-- Generated by graphviz version 2.40.1 (20161225.0304)
 -->
<!-- Title: dependencies Pages: 1 -->
<svg width="1186pt" height="284pt"
 viewBox="0.00 0.00 1186.00 284.00" xmlns="http://www.w3.org/2000/svg" xmlns:xlink="http://www.w3.org/1999/xlink">
<g id="graph0" class="graph" transform="scale(1 1) rotate(0) translate(4 280)">
<title>dependencies</title>
<polygon fill="#ffffff" stroke="transparent" points="-4,4 -4,-280 1182,-280 1182,4 -4,4"/>
<text text-anchor="start" x="568.0091" y="-42.4" font-family="sans-serif" font-weight="bold" font-size="14.00" fill="#000000">Legend</text>
<polygon fill="#ffffb3" stroke="transparent" points="355,-10 355,-30 375,-30 375,-10 355,-10"/>
<text text-anchor="start" x="378.629" y="-15.4" font-family="sans-serif" font-size="14.00" fill="#000000"> &#160;Declarations</text>
<polygon fill="#8dd3c7" stroke="transparent" points="468,-10 468,-30 488,-30 488,-10 468,-10"/>
<text text-anchor="start" x="491.7251" y="-15.4" font-family="sans-serif" font-size="14.00" fill="#000000"> &#160;Module</text>
<polygon fill="#80b1d3" stroke="transparent" points="554,-10 554,-30 574,-30 574,-10 554,-10"/>
<text text-anchor="start" x="577.7812" y="-15.4" font-family="sans-serif" font-size="14.00" fill="#000000"> &#160;Bootstrap</text>
<polygon fill="#fdb462" stroke="transparent" points="651,-10 651,-30 671,-30 671,-10 651,-10"/>
<text text-anchor="start" x="674.6732" y="-15.4" font-family="sans-serif" font-size="14.00" fill="#000000"> &#160;Providers</text>
<polygon fill="#fb8072" stroke="transparent" points="747,-10 747,-30 767,-30 767,-10 747,-10"/>
<text text-anchor="start" x="770.7258" y="-15.4" font-family="sans-serif" font-size="14.00" fill="#000000"> &#160;Exports</text>
<g id="clust1" class="cluster">
<title>cluster_UtilityModule</title>
<polygon fill="none" stroke="#000000" stroke-dasharray="1,5" points="8,-70 8,-268 1170,-268 1170,-70 8,-70"/>
</g>
<g id="clust2" class="cluster">
<title>cluster_UtilityModule_declarations</title>
<polygon fill="none" stroke="#000000" points="332,-78 332,-130 1162,-130 1162,-78 332,-78"/>
</g>
<g id="clust9" class="cluster">
<title>cluster_UtilityModule_imports</title>
<polygon fill="none" stroke="#000000" points="236,-78 236,-130 324,-130 324,-78 236,-78"/>
</g>
<g id="clust10" class="cluster">
<title>cluster_UtilityModule_exports</title>
<polygon fill="none" stroke="#000000" points="167,-208 167,-260 1018,-260 1018,-208 167,-208"/>
</g>
<g id="clust12" class="cluster">
<title>cluster_UtilityModule_providers</title>
<polygon fill="none" stroke="#000000" points="16,-78 16,-130 228,-130 228,-78 16,-78"/>
</g>
<!-- FocusDirective -->
<g id="node1" class="node">
<title>FocusDirective</title>
<polygon fill="#ffffb3" stroke="#000000" points="1153.5257,-122 1052.4743,-122 1052.4743,-86 1153.5257,-86 1153.5257,-122"/>
<text text-anchor="middle" x="1103" y="-99.8" font-family="Times,serif" font-size="14.00" fill="#000000">FocusDirective</text>
</g>
<!-- UtilityModule -->
<g id="node7" class="node">
<title>UtilityModule</title>
<polygon fill="#8dd3c7" stroke="#000000" points="632.1095,-187 629.1095,-191 608.1095,-191 605.1095,-187 535.8905,-187 535.8905,-151 632.1095,-151 632.1095,-187"/>
<text text-anchor="middle" x="584" y="-164.8" font-family="Times,serif" font-size="14.00" fill="#000000">UtilityModule</text>
</g>
<!-- FocusDirective&#45;&gt;UtilityModule -->
<g id="edge1" class="edge">
<title>FocusDirective&#45;&gt;UtilityModule</title>
<path fill="none" stroke="#000000" d="M1103,-122.1061C1103,-141.3391 1103,-169 1103,-169 1103,-169 642.3602,-169 642.3602,-169"/>
<polygon fill="#000000" stroke="#000000" points="642.3602,-165.5001 632.3602,-169 642.3602,-172.5001 642.3602,-165.5001"/>
</g>
<!-- LoginFormComponent -->
<g id="node2" class="node">
<title>LoginFormComponent</title>
<polygon fill="#ffffb3" stroke="#000000" points="1034.6094,-122 889.3906,-122 889.3906,-86 1034.6094,-86 1034.6094,-122"/>
<text text-anchor="middle" x="962" y="-99.8" font-family="Times,serif" font-size="14.00" fill="#000000">LoginFormComponent</text>
</g>
<!-- LoginFormComponent&#45;&gt;UtilityModule -->
<g id="edge2" class="edge">
<title>LoginFormComponent&#45;&gt;UtilityModule</title>
<path fill="none" stroke="#000000" d="M896.9665,-122.0225C896.9665,-139.3734 896.9665,-163 896.9665,-163 896.9665,-163 642.2151,-163 642.2151,-163"/>
<polygon fill="#000000" stroke="#000000" points="642.2152,-159.5001 632.2151,-163 642.2151,-166.5001 642.2152,-159.5001"/>
</g>
<!-- MenuComponent -->
<g id="node3" class="node">
<title>MenuComponent</title>
<polygon fill="#ffffb3" stroke="#000000" points="870.9916,-122 757.0084,-122 757.0084,-86 870.9916,-86 870.9916,-122"/>
<text text-anchor="middle" x="814" y="-99.8" font-family="Times,serif" font-size="14.00" fill="#000000">MenuComponent</text>
</g>
<!-- MenuComponent&#45;&gt;UtilityModule -->
<g id="edge3" class="edge">
<title>MenuComponent&#45;&gt;UtilityModule</title>
<path fill="none" stroke="#000000" d="M814,-122.2396C814,-137.5706 814,-157 814,-157 814,-157 642.2155,-157 642.2155,-157"/>
<polygon fill="#000000" stroke="#000000" points="642.2156,-153.5001 632.2155,-157 642.2155,-160.5001 642.2156,-153.5001"/>
</g>
<!-- SignupFormComponent -->
<g id="node4" class="node">
<title>SignupFormComponent</title>
<polygon fill="#ffffb3" stroke="#000000" points="738.8398,-122 587.1602,-122 587.1602,-86 738.8398,-86 738.8398,-122"/>
<text text-anchor="middle" x="663" y="-99.8" font-family="Times,serif" font-size="14.00" fill="#000000">SignupFormComponent</text>
</g>
<!-- SignupFormComponent&#45;&gt;UtilityModule -->
<g id="edge4" class="edge">
<title>SignupFormComponent&#45;&gt;UtilityModule</title>
<path fill="none" stroke="#000000" d="M609.6925,-122.1061C609.6925,-122.1061 609.6925,-140.991 609.6925,-140.991"/>
<polygon fill="#000000" stroke="#000000" points="606.1926,-140.9909 609.6925,-150.991 613.1926,-140.991 606.1926,-140.9909"/>
</g>
<!-- TabComponent -->
<g id="node5" class="node">
<title>TabComponent</title>
<polygon fill="#ffffb3" stroke="#000000" points="569.5996,-122 466.4004,-122 466.4004,-86 569.5996,-86 569.5996,-122"/>
<text text-anchor="middle" x="518" y="-99.8" font-family="Times,serif" font-size="14.00" fill="#000000">TabComponent</text>
</g>
<!-- TabComponent&#45;&gt;UtilityModule -->
<g id="edge5" class="edge">
<title>TabComponent&#45;&gt;UtilityModule</title>
<path fill="none" stroke="#000000" d="M552.7476,-122.1061C552.7476,-122.1061 552.7476,-140.991 552.7476,-140.991"/>
<polygon fill="#000000" stroke="#000000" points="549.2476,-140.9909 552.7476,-150.991 556.2476,-140.991 549.2476,-140.9909"/>
</g>
<!-- TabsComponent -->
<g id="node6" class="node">
<title>TabsComponent</title>
<polygon fill="#ffffb3" stroke="#000000" points="448.0452,-122 339.9548,-122 339.9548,-86 448.0452,-86 448.0452,-122"/>
<text text-anchor="middle" x="394" y="-99.8" font-family="Times,serif" font-size="14.00" fill="#000000">TabsComponent</text>
</g>
<!-- TabsComponent&#45;&gt;UtilityModule -->
<g id="edge6" class="edge">
<title>TabsComponent&#45;&gt;UtilityModule</title>
<path fill="none" stroke="#000000" d="M438.9262,-122.2396C438.9262,-137.5706 438.9262,-157 438.9262,-157 438.9262,-157 525.6925,-157 525.6925,-157"/>
<polygon fill="#000000" stroke="#000000" points="525.6926,-160.5001 535.6925,-157 525.6925,-153.5001 525.6926,-160.5001"/>
</g>
<!-- FocusDirective  -->
<g id="node9" class="node">
<title>FocusDirective </title>
<polygon fill="#fb8072" stroke="#000000" points="1009.5246,-252 904.4754,-252 904.4754,-216 1009.5246,-216 1009.5246,-252"/>
<text text-anchor="middle" x="957" y="-229.8" font-family="Times,serif" font-size="14.00" fill="#000000">FocusDirective </text>
</g>
<!-- UtilityModule&#45;&gt;FocusDirective  -->
<g id="edge8" class="edge">
<title>UtilityModule&#45;&gt;FocusDirective </title>
<path fill="none" stroke="#000000" stroke-dasharray="5,2" d="M632.3808,-175C733.3055,-175 957,-175 957,-175 957,-175 957,-205.9775 957,-205.9775"/>
<polygon fill="#000000" stroke="#000000" points="953.5001,-205.9774 957,-215.9775 960.5001,-205.9775 953.5001,-205.9774"/>
</g>
<!-- LoginFormComponent  -->
<g id="node10" class="node">
<title>LoginFormComponent </title>
<polygon fill="#fb8072" stroke="#000000" points="886.1099,-252 737.8901,-252 737.8901,-216 886.1099,-216 886.1099,-252"/>
<text text-anchor="middle" x="812" y="-229.8" font-family="Times,serif" font-size="14.00" fill="#000000">LoginFormComponent </text>
</g>
<!-- UtilityModule&#45;&gt;LoginFormComponent  -->
<g id="edge9" class="edge">
<title>UtilityModule&#45;&gt;LoginFormComponent </title>
<path fill="none" stroke="#000000" stroke-dasharray="5,2" d="M632.2704,-181C680.5982,-181 747.837,-181 747.837,-181 747.837,-181 747.837,-205.7604 747.837,-205.7604"/>
<polygon fill="#000000" stroke="#000000" points="744.337,-205.7604 747.837,-215.7604 751.337,-205.7604 744.337,-205.7604"/>
</g>
<!-- MenuComponent  -->
<g id="node11" class="node">
<title>MenuComponent </title>
<polygon fill="#fb8072" stroke="#000000" points="719.9926,-252 602.0074,-252 602.0074,-216 719.9926,-216 719.9926,-252"/>
<text text-anchor="middle" x="661" y="-229.8" font-family="Times,serif" font-size="14.00" fill="#000000">MenuComponent </text>
</g>
<!-- UtilityModule&#45;&gt;MenuComponent  -->
<g id="edge10" class="edge">
<title>UtilityModule&#45;&gt;MenuComponent </title>
<path fill="none" stroke="#000000" stroke-dasharray="5,2" d="M617.1545,-187.1061C617.1545,-187.1061 617.1545,-205.991 617.1545,-205.991"/>
<polygon fill="#000000" stroke="#000000" points="613.6545,-205.9909 617.1545,-215.991 620.6545,-205.991 613.6545,-205.9909"/>
</g>
<!-- SignupFormComponent  -->
<g id="node12" class="node">
<title>SignupFormComponent </title>
<polygon fill="#fb8072" stroke="#000000" points="584.3395,-252 429.6605,-252 429.6605,-216 584.3395,-216 584.3395,-252"/>
<text text-anchor="middle" x="507" y="-229.8" font-family="Times,serif" font-size="14.00" fill="#000000">SignupFormComponent </text>
</g>
<!-- UtilityModule&#45;&gt;SignupFormComponent  -->
<g id="edge11" class="edge">
<title>UtilityModule&#45;&gt;SignupFormComponent </title>
<path fill="none" stroke="#000000" stroke-dasharray="5,2" d="M560.1825,-187.1061C560.1825,-187.1061 560.1825,-205.991 560.1825,-205.991"/>
<polygon fill="#000000" stroke="#000000" points="556.6826,-205.9909 560.1825,-215.991 563.6826,-205.991 556.6826,-205.9909"/>
</g>
<!-- TabComponent  -->
<g id="node13" class="node">
<title>TabComponent </title>
<polygon fill="#fb8072" stroke="#000000" points="411.1003,-252 304.8997,-252 304.8997,-216 411.1003,-216 411.1003,-252"/>
<text text-anchor="middle" x="358" y="-229.8" font-family="Times,serif" font-size="14.00" fill="#000000">TabComponent </text>
</g>
<!-- UtilityModule&#45;&gt;TabComponent  -->
<g id="edge12" class="edge">
<title>UtilityModule&#45;&gt;TabComponent </title>
<path fill="none" stroke="#000000" stroke-dasharray="5,2" d="M535.9073,-181C474.3363,-181 375.5139,-181 375.5139,-181 375.5139,-181 375.5139,-205.7604 375.5139,-205.7604"/>
<polygon fill="#000000" stroke="#000000" points="372.0139,-205.7604 375.5139,-215.7604 379.0139,-205.7604 372.0139,-205.7604"/>
</g>
<!-- TabsComponent  -->
<g id="node14" class="node">
<title>TabsComponent </title>
<polygon fill="#fb8072" stroke="#000000" points="287.0442,-252 174.9558,-252 174.9558,-216 287.0442,-216 287.0442,-252"/>
<text text-anchor="middle" x="231" y="-229.8" font-family="Times,serif" font-size="14.00" fill="#000000">TabsComponent </text>
</g>
<!-- UtilityModule&#45;&gt;TabsComponent  -->
<g id="edge13" class="edge">
<title>UtilityModule&#45;&gt;TabsComponent </title>
<path fill="none" stroke="#000000" stroke-dasharray="5,2" d="M535.6584,-175C446.6173,-175 265.7084,-175 265.7084,-175 265.7084,-175 265.7084,-205.9775 265.7084,-205.9775"/>
<polygon fill="#000000" stroke="#000000" points="262.2085,-205.9774 265.7084,-215.9775 269.2085,-205.9775 262.2085,-205.9774"/>
</g>
<!-- IoModule -->
<g id="node8" class="node">
<title>IoModule</title>
<polygon fill="#8dd3c7" stroke="#000000" points="315.7107,-122 312.7107,-126 291.7107,-126 288.7107,-122 244.2893,-122 244.2893,-86 315.7107,-86 315.7107,-122"/>
<text text-anchor="middle" x="280" y="-99.8" font-family="Times,serif" font-size="14.00" fill="#000000">IoModule</text>
</g>
<!-- IoModule&#45;&gt;UtilityModule -->
<g id="edge7" class="edge">
<title>IoModule&#45;&gt;UtilityModule</title>
<path fill="none" stroke="#000000" d="M310.1527,-122.0225C310.1527,-139.3734 310.1527,-163 310.1527,-163 310.1527,-163 525.672,-163 525.672,-163"/>
<polygon fill="#000000" stroke="#000000" points="525.672,-166.5001 535.672,-163 525.6719,-159.5001 525.672,-166.5001"/>
</g>
<!-- KeycommandsService -->
<g id="node15" class="node">
<title>KeycommandsService</title>
<ellipse fill="#fdb462" stroke="#000000" cx="122" cy="-104" rx="97.8344" ry="18"/>
<text text-anchor="middle" x="122" y="-99.8" font-family="Times,serif" font-size="14.00" fill="#000000">KeycommandsService</text>
</g>
<!-- KeycommandsService&#45;&gt;UtilityModule -->
<g id="edge14" class="edge">
<title>KeycommandsService&#45;&gt;UtilityModule</title>
<path fill="none" stroke="#000000" d="M197.4475,-115.6207C197.4475,-134.317 197.4475,-169 197.4475,-169 197.4475,-169 525.8244,-169 525.8244,-169"/>
<polygon fill="#000000" stroke="#000000" points="525.8245,-172.5001 535.8244,-169 525.8244,-165.5001 525.8245,-172.5001"/>
</g>
</g>
</svg>
