<?xml version="1.0" encoding="UTF-8" standalone="no"?>
<!DOCTYPE svg PUBLIC "-//W3C//DTD SVG 1.1//EN"
 "http://www.w3.org/Graphics/SVG/1.1/DTD/svg11.dtd">
<!-- Generated by graphviz version 2.40.1 (20161225.0304)
 -->
<!-- Title: dependencies Pages: 1 -->
<svg width="1133pt" height="284pt"
 viewBox="0.00 0.00 1133.00 284.00" xmlns="http://www.w3.org/2000/svg" xmlns:xlink="http://www.w3.org/1999/xlink">
<g id="graph0" class="graph" transform="scale(1 1) rotate(0) translate(4 280)">
<title>dependencies</title>
<polygon fill="#ffffff" stroke="transparent" points="-4,4 -4,-280 1129,-280 1129,4 -4,4"/>
<text text-anchor="start" x="541.5091" y="-42.4" font-family="sans-serif" font-weight="bold" font-size="14.00" fill="#000000">Legend</text>
<polygon fill="#ffffb3" stroke="transparent" points="328.5,-10 328.5,-30 348.5,-30 348.5,-10 328.5,-10"/>
<text text-anchor="start" x="352.129" y="-15.4" font-family="sans-serif" font-size="14.00" fill="#000000"> &#160;Declarations</text>
<polygon fill="#8dd3c7" stroke="transparent" points="441.5,-10 441.5,-30 461.5,-30 461.5,-10 441.5,-10"/>
<text text-anchor="start" x="465.2251" y="-15.4" font-family="sans-serif" font-size="14.00" fill="#000000"> &#160;Module</text>
<polygon fill="#80b1d3" stroke="transparent" points="527.5,-10 527.5,-30 547.5,-30 547.5,-10 527.5,-10"/>
<text text-anchor="start" x="551.2812" y="-15.4" font-family="sans-serif" font-size="14.00" fill="#000000"> &#160;Bootstrap</text>
<polygon fill="#fdb462" stroke="transparent" points="624.5,-10 624.5,-30 644.5,-30 644.5,-10 624.5,-10"/>
<text text-anchor="start" x="648.1732" y="-15.4" font-family="sans-serif" font-size="14.00" fill="#000000"> &#160;Providers</text>
<polygon fill="#fb8072" stroke="transparent" points="720.5,-10 720.5,-30 740.5,-30 740.5,-10 720.5,-10"/>
<text text-anchor="start" x="744.2258" y="-15.4" font-family="sans-serif" font-size="14.00" fill="#000000"> &#160;Exports</text>
<g id="clust1" class="cluster">
<title>cluster_UtilityModule</title>
<polygon fill="none" stroke="#000000" stroke-dasharray="1,5" points="8,-70 8,-268 1117,-268 1117,-70 8,-70"/>
</g>
<g id="clust2" class="cluster">
<title>cluster_UtilityModule_declarations</title>
<polygon fill="none" stroke="#000000" points="123,-78 123,-130 1099,-130 1099,-78 123,-78"/>
</g>
<g id="clust10" class="cluster">
<title>cluster_UtilityModule_imports</title>
<polygon fill="none" stroke="#000000" points="27,-78 27,-130 115,-130 115,-78 27,-78"/>
</g>
<g id="clust11" class="cluster">
<title>cluster_UtilityModule_exports</title>
<polygon fill="none" stroke="#000000" points="16,-208 16,-260 1109,-260 1109,-208 16,-208"/>
</g>
<!-- FocusDirective -->
<g id="node1" class="node">
<title>FocusDirective</title>
<polygon fill="#ffffb3" stroke="#000000" points="1090.5257,-122 989.4743,-122 989.4743,-86 1090.5257,-86 1090.5257,-122"/>
<text text-anchor="middle" x="1040" y="-99.8" font-family="Times,serif" font-size="14.00" fill="#000000">FocusDirective</text>
</g>
<!-- UtilityModule -->
<g id="node8" class="node">
<title>UtilityModule</title>
<polygon fill="#8dd3c7" stroke="#000000" points="612.1095,-187 609.1095,-191 588.1095,-191 585.1095,-187 515.8905,-187 515.8905,-151 612.1095,-151 612.1095,-187"/>
<text text-anchor="middle" x="564" y="-164.8" font-family="Times,serif" font-size="14.00" fill="#000000">UtilityModule</text>
</g>
<!-- FocusDirective&#45;&gt;UtilityModule -->
<g id="edge1" class="edge">
<title>FocusDirective&#45;&gt;UtilityModule</title>
<path fill="none" stroke="#000000" d="M1059.0041,-122.2222C1059.0041,-140.8285 1059.0041,-167 1059.0041,-167 1059.0041,-167 622.3644,-167 622.3644,-167"/>
<polygon fill="#000000" stroke="#000000" points="622.3644,-163.5001 612.3644,-167 622.3643,-170.5001 622.3644,-163.5001"/>
</g>
<!-- LoginFormComponent -->
<g id="node2" class="node">
<title>LoginFormComponent</title>
<polygon fill="#ffffb3" stroke="#000000" points="971.6094,-122 826.3906,-122 826.3906,-86 971.6094,-86 971.6094,-122"/>
<text text-anchor="middle" x="899" y="-99.8" font-family="Times,serif" font-size="14.00" fill="#000000">LoginFormComponent</text>
</g>
<!-- LoginFormComponent&#45;&gt;UtilityModule -->
<g id="edge2" class="edge">
<title>LoginFormComponent&#45;&gt;UtilityModule</title>
<path fill="none" stroke="#000000" d="M855.375,-122.0336C855.375,-139.0597 855.375,-162 855.375,-162 855.375,-162 622.1147,-162 622.1147,-162"/>
<polygon fill="#000000" stroke="#000000" points="622.1147,-158.5001 612.1147,-162 622.1146,-165.5001 622.1147,-158.5001"/>
</g>
<!-- MenuComponent -->
<g id="node3" class="node">
<title>MenuComponent</title>
<polygon fill="#ffffb3" stroke="#000000" points="807.9916,-122 694.0084,-122 694.0084,-86 807.9916,-86 807.9916,-122"/>
<text text-anchor="middle" x="751" y="-99.8" font-family="Times,serif" font-size="14.00" fill="#000000">MenuComponent</text>
</g>
<!-- MenuComponent&#45;&gt;UtilityModule -->
<g id="edge3" class="edge">
<title>MenuComponent&#45;&gt;UtilityModule</title>
<path fill="none" stroke="#000000" d="M705.875,-122.2396C705.875,-137.5706 705.875,-157 705.875,-157 705.875,-157 622.4285,-157 622.4285,-157"/>
<polygon fill="#000000" stroke="#000000" points="622.4286,-153.5001 612.4285,-157 622.4285,-160.5001 622.4286,-153.5001"/>
</g>
<!-- MockupComponent -->
<g id="node4" class="node">
<title>MockupComponent</title>
<polygon fill="#ffffb3" stroke="#000000" points="675.9916,-122 548.0084,-122 548.0084,-86 675.9916,-86 675.9916,-122"/>
<text text-anchor="middle" x="612" y="-99.8" font-family="Times,serif" font-size="14.00" fill="#000000">MockupComponent</text>
</g>
<!-- MockupComponent&#45;&gt;UtilityModule -->
<g id="edge4" class="edge">
<title>MockupComponent&#45;&gt;UtilityModule</title>
<path fill="none" stroke="#000000" d="M580.0295,-122.1061C580.0295,-122.1061 580.0295,-140.991 580.0295,-140.991"/>
<polygon fill="#000000" stroke="#000000" points="576.5295,-140.9909 580.0295,-150.991 583.5295,-140.991 576.5295,-140.9909"/>
</g>
<!-- SignupFormComponent -->
<g id="node5" class="node">
<title>SignupFormComponent</title>
<polygon fill="#ffffb3" stroke="#000000" points="529.8398,-122 378.1602,-122 378.1602,-86 529.8398,-86 529.8398,-122"/>
<text text-anchor="middle" x="454" y="-99.8" font-family="Times,serif" font-size="14.00" fill="#000000">SignupFormComponent</text>
</g>
<!-- SignupFormComponent&#45;&gt;UtilityModule -->
<g id="edge5" class="edge">
<title>SignupFormComponent&#45;&gt;UtilityModule</title>
<path fill="none" stroke="#000000" d="M522.8075,-122.1061C522.8075,-122.1061 522.8075,-140.991 522.8075,-140.991"/>
<polygon fill="#000000" stroke="#000000" points="519.3076,-140.9909 522.8075,-150.991 526.3076,-140.991 519.3076,-140.9909"/>
</g>
<!-- TabComponent -->
<g id="node6" class="node">
<title>TabComponent</title>
<polygon fill="#ffffb3" stroke="#000000" points="360.5996,-122 257.4004,-122 257.4004,-86 360.5996,-86 360.5996,-122"/>
<text text-anchor="middle" x="309" y="-99.8" font-family="Times,serif" font-size="14.00" fill="#000000">TabComponent</text>
</g>
<!-- TabComponent&#45;&gt;UtilityModule -->
<g id="edge6" class="edge">
<title>TabComponent&#45;&gt;UtilityModule</title>
<path fill="none" stroke="#000000" d="M319.5651,-122.2396C319.5651,-137.5706 319.5651,-157 319.5651,-157 319.5651,-157 505.7075,-157 505.7075,-157"/>
<polygon fill="#000000" stroke="#000000" points="505.7076,-160.5001 515.7075,-157 505.7075,-153.5001 505.7076,-160.5001"/>
</g>
<!-- TabsComponent -->
<g id="node7" class="node">
<title>TabsComponent</title>
<polygon fill="#ffffb3" stroke="#000000" points="239.0452,-122 130.9548,-122 130.9548,-86 239.0452,-86 239.0452,-122"/>
<text text-anchor="middle" x="185" y="-99.8" font-family="Times,serif" font-size="14.00" fill="#000000">TabsComponent</text>
</g>
<!-- TabsComponent&#45;&gt;UtilityModule -->
<g id="edge7" class="edge">
<title>TabsComponent&#45;&gt;UtilityModule</title>
<path fill="none" stroke="#000000" d="M196.4862,-122.0336C196.4862,-139.0597 196.4862,-162 196.4862,-162 196.4862,-162 505.5761,-162 505.5761,-162"/>
<polygon fill="#000000" stroke="#000000" points="505.5761,-165.5001 515.5761,-162 505.576,-158.5001 505.5761,-165.5001"/>
</g>
<!-- FocusDirective  -->
<g id="node10" class="node">
<title>FocusDirective </title>
<polygon fill="#fb8072" stroke="#000000" points="1100.5246,-252 995.4754,-252 995.4754,-216 1100.5246,-216 1100.5246,-252"/>
<text text-anchor="middle" x="1048" y="-229.8" font-family="Times,serif" font-size="14.00" fill="#000000">FocusDirective </text>
</g>
<!-- UtilityModule&#45;&gt;FocusDirective  -->
<g id="edge9" class="edge">
<title>UtilityModule&#45;&gt;FocusDirective </title>
<path fill="none" stroke="#000000" stroke-dasharray="5,2" d="M612.2645,-172C730.9133,-172 1027.2459,-172 1027.2459,-172 1027.2459,-172 1027.2459,-205.7333 1027.2459,-205.7333"/>
<polygon fill="#000000" stroke="#000000" points="1023.746,-205.7333 1027.2459,-215.7333 1030.746,-205.7333 1023.746,-205.7333"/>
</g>
<!-- IoModule  -->
<g id="node11" class="node">
<title>IoModule </title>
<polygon fill="#fb8072" stroke="#000000" points="977.211,-252 902.789,-252 902.789,-216 977.211,-216 977.211,-252"/>
<text text-anchor="middle" x="940" y="-229.8" font-family="Times,serif" font-size="14.00" fill="#000000">IoModule </text>
</g>
<!-- UtilityModule&#45;&gt;IoModule  -->
<g id="edge10" class="edge">
<title>UtilityModule&#45;&gt;IoModule </title>
<path fill="none" stroke="#000000" stroke-dasharray="5,2" d="M612.3938,-177C713.3454,-177 937.0998,-177 937.0998,-177 937.0998,-177 937.0998,-205.9648 937.0998,-205.9648"/>
<polygon fill="#000000" stroke="#000000" points="933.5998,-205.9648 937.0998,-215.9648 940.5998,-205.9649 933.5998,-205.9648"/>
</g>
<!-- LoginFormComponent  -->
<g id="node12" class="node">
<title>LoginFormComponent </title>
<polygon fill="#fb8072" stroke="#000000" points="884.1099,-252 735.8901,-252 735.8901,-216 884.1099,-216 884.1099,-252"/>
<text text-anchor="middle" x="810" y="-229.8" font-family="Times,serif" font-size="14.00" fill="#000000">LoginFormComponent </text>
</g>
<!-- UtilityModule&#45;&gt;LoginFormComponent  -->
<g id="edge11" class="edge">
<title>UtilityModule&#45;&gt;LoginFormComponent </title>
<path fill="none" stroke="#000000" stroke-dasharray="5,2" d="M612.2064,-182C673.6061,-182 771.8456,-182 771.8456,-182 771.8456,-182 771.8456,-205.8129 771.8456,-205.8129"/>
<polygon fill="#000000" stroke="#000000" points="768.3456,-205.8129 771.8456,-215.8129 775.3456,-205.813 768.3456,-205.8129"/>
</g>
<!-- MenuComponent  -->
<g id="node13" class="node">
<title>MenuComponent </title>
<polygon fill="#fb8072" stroke="#000000" points="717.9926,-252 600.0074,-252 600.0074,-216 717.9926,-216 717.9926,-252"/>
<text text-anchor="middle" x="659" y="-229.8" font-family="Times,serif" font-size="14.00" fill="#000000">MenuComponent </text>
</g>
<!-- UtilityModule&#45;&gt;MenuComponent  -->
<g id="edge12" class="edge">
<title>UtilityModule&#45;&gt;MenuComponent </title>
<path fill="none" stroke="#000000" stroke-dasharray="5,2" d="M606.1545,-187.1061C606.1545,-187.1061 606.1545,-205.991 606.1545,-205.991"/>
<polygon fill="#000000" stroke="#000000" points="602.6545,-205.9909 606.1545,-215.991 609.6545,-205.991 602.6545,-205.9909"/>
</g>
<!-- MockupComponent  -->
<g id="node14" class="node">
<title>MockupComponent </title>
<polygon fill="#fb8072" stroke="#000000" points="582.9925,-252 451.0075,-252 451.0075,-216 582.9925,-216 582.9925,-252"/>
<text text-anchor="middle" x="517" y="-229.8" font-family="Times,serif" font-size="14.00" fill="#000000">MockupComponent </text>
</g>
<!-- UtilityModule&#45;&gt;MockupComponent  -->
<g id="edge13" class="edge">
<title>UtilityModule&#45;&gt;MockupComponent </title>
<path fill="none" stroke="#000000" stroke-dasharray="5,2" d="M549.3456,-187.1061C549.3456,-187.1061 549.3456,-205.991 549.3456,-205.991"/>
<polygon fill="#000000" stroke="#000000" points="545.8456,-205.9909 549.3456,-215.991 552.8456,-205.991 545.8456,-205.9909"/>
</g>
<!-- SignupFormComponent  -->
<g id="node15" class="node">
<title>SignupFormComponent </title>
<polygon fill="#fb8072" stroke="#000000" points="433.3395,-252 278.6605,-252 278.6605,-216 433.3395,-216 433.3395,-252"/>
<text text-anchor="middle" x="356" y="-229.8" font-family="Times,serif" font-size="14.00" fill="#000000">SignupFormComponent </text>
</g>
<!-- UtilityModule&#45;&gt;SignupFormComponent  -->
<g id="edge14" class="edge">
<title>UtilityModule&#45;&gt;SignupFormComponent </title>
<path fill="none" stroke="#000000" stroke-dasharray="5,2" d="M515.6981,-182C469.1964,-182 405.875,-182 405.875,-182 405.875,-182 405.875,-205.8129 405.875,-205.8129"/>
<polygon fill="#000000" stroke="#000000" points="402.3751,-205.8129 405.875,-215.8129 409.3751,-205.813 402.3751,-205.8129"/>
</g>
<!-- TabComponent  -->
<g id="node16" class="node">
<title>TabComponent </title>
<polygon fill="#fb8072" stroke="#000000" points="260.1003,-252 153.8997,-252 153.8997,-216 260.1003,-216 260.1003,-252"/>
<text text-anchor="middle" x="207" y="-229.8" font-family="Times,serif" font-size="14.00" fill="#000000">TabComponent </text>
</g>
<!-- UtilityModule&#45;&gt;TabComponent  -->
<g id="edge15" class="edge">
<title>UtilityModule&#45;&gt;TabComponent </title>
<path fill="none" stroke="#000000" stroke-dasharray="5,2" d="M515.7177,-177C427.2978,-177 248.3612,-177 248.3612,-177 248.3612,-177 248.3612,-205.9648 248.3612,-205.9648"/>
<polygon fill="#000000" stroke="#000000" points="244.8612,-205.9648 248.3612,-215.9648 251.8612,-205.9649 244.8612,-205.9648"/>
</g>
<!-- TabsComponent  -->
<g id="node17" class="node">
<title>TabsComponent </title>
<polygon fill="#fb8072" stroke="#000000" points="136.0442,-252 23.9558,-252 23.9558,-216 136.0442,-216 136.0442,-252"/>
<text text-anchor="middle" x="80" y="-229.8" font-family="Times,serif" font-size="14.00" fill="#000000">TabsComponent </text>
</g>
<!-- UtilityModule&#45;&gt;TabsComponent  -->
<g id="edge16" class="edge">
<title>UtilityModule&#45;&gt;TabsComponent </title>
<path fill="none" stroke="#000000" stroke-dasharray="5,2" d="M515.9184,-172C400.7649,-172 118.6666,-172 118.6666,-172 118.6666,-172 118.6666,-205.7333 118.6666,-205.7333"/>
<polygon fill="#000000" stroke="#000000" points="115.1666,-205.7333 118.6666,-215.7333 122.1666,-205.7333 115.1666,-205.7333"/>
</g>
<!-- IoModule -->
<g id="node9" class="node">
<title>IoModule</title>
<polygon fill="#8dd3c7" stroke="#000000" points="106.7107,-122 103.7107,-126 82.7107,-126 79.7107,-122 35.2893,-122 35.2893,-86 106.7107,-86 106.7107,-122"/>
<text text-anchor="middle" x="71" y="-99.8" font-family="Times,serif" font-size="14.00" fill="#000000">IoModule</text>
</g>
<!-- IoModule&#45;&gt;UtilityModule -->
<g id="edge8" class="edge">
<title>IoModule&#45;&gt;UtilityModule</title>
<path fill="none" stroke="#000000" d="M71,-122.2222C71,-140.8285 71,-167 71,-167 71,-167 505.8315,-167 505.8315,-167"/>
<polygon fill="#000000" stroke="#000000" points="505.8315,-170.5001 515.8315,-167 505.8314,-163.5001 505.8315,-170.5001"/>
</g>
</g>
</svg>
