<?xml version="1.0" encoding="UTF-8" standalone="no"?>
<!DOCTYPE svg PUBLIC "-//W3C//DTD SVG 1.1//EN"
 "http://www.w3.org/Graphics/SVG/1.1/DTD/svg11.dtd">
<!-- Generated by graphviz version 2.47.0 (20210316.0004)
 -->
<!-- Title: dependencies Pages: 1 -->
<svg width="1053pt" height="284pt"
 viewBox="0.00 0.00 1053.00 284.00" xmlns="http://www.w3.org/2000/svg" xmlns:xlink="http://www.w3.org/1999/xlink">
<g id="graph0" class="graph" transform="scale(1 1) rotate(0) translate(4 280)">
<title>dependencies</title>
<polygon fill="white" stroke="transparent" points="-4,4 -4,-280 1049,-280 1049,4 -4,4"/>
<text text-anchor="start" x="501.51" y="-42.4" font-family="sans-serif" font-weight="bold" font-size="14.00">Legend</text>
<polygon fill="#ffffb3" stroke="transparent" points="288.5,-10 288.5,-30 308.5,-30 308.5,-10 288.5,-10"/>
<text text-anchor="start" x="312.13" y="-15.4" font-family="sans-serif" font-size="14.00"> &#160;Declarations</text>
<polygon fill="#8dd3c7" stroke="transparent" points="401.5,-10 401.5,-30 421.5,-30 421.5,-10 401.5,-10"/>
<text text-anchor="start" x="425.23" y="-15.4" font-family="sans-serif" font-size="14.00"> &#160;Module</text>
<polygon fill="#80b1d3" stroke="transparent" points="487.5,-10 487.5,-30 507.5,-30 507.5,-10 487.5,-10"/>
<text text-anchor="start" x="511.28" y="-15.4" font-family="sans-serif" font-size="14.00"> &#160;Bootstrap</text>
<polygon fill="#fdb462" stroke="transparent" points="584.5,-10 584.5,-30 604.5,-30 604.5,-10 584.5,-10"/>
<text text-anchor="start" x="608.17" y="-15.4" font-family="sans-serif" font-size="14.00"> &#160;Providers</text>
<polygon fill="#fb8072" stroke="transparent" points="680.5,-10 680.5,-30 700.5,-30 700.5,-10 680.5,-10"/>
<text text-anchor="start" x="704.23" y="-15.4" font-family="sans-serif" font-size="14.00"> &#160;Exports</text>
<g id="clust1" class="cluster">
<title>cluster_UtilityModule</title>
<polygon fill="none" stroke="black" stroke-dasharray="1,5" points="8,-70 8,-268 1037,-268 1037,-70 8,-70"/>
</g>
<g id="clust11" class="cluster">
<title>cluster_UtilityModule_providers</title>
<polygon fill="none" stroke="black" points="817,-78 817,-130 1029,-130 1029,-78 817,-78"/>
</g>
<g id="clust2" class="cluster">
<title>cluster_UtilityModule_declarations</title>
<polygon fill="none" stroke="black" points="112,-78 112,-130 809,-130 809,-78 112,-78"/>
</g>
<g id="clust8" class="cluster">
<title>cluster_UtilityModule_imports</title>
<polygon fill="none" stroke="black" points="16,-78 16,-130 104,-130 104,-78 16,-78"/>
</g>
<g id="clust9" class="cluster">
<title>cluster_UtilityModule_exports</title>
<polygon fill="none" stroke="black" points="103,-208 103,-260 819,-260 819,-208 103,-208"/>
</g>
<!-- FocusDirective -->
<g id="node1" class="node">
<title>FocusDirective</title>
<polygon fill="#ffffb3" stroke="black" points="800.53,-122 699.47,-122 699.47,-86 800.53,-86 800.53,-122"/>
<text text-anchor="middle" x="750" y="-99.8" font-family="Times,serif" font-size="14.00">FocusDirective</text>
</g>
<!-- UtilityModule -->
<g id="node6" class="node">
<title>UtilityModule</title>
<polygon fill="#8dd3c7" stroke="black" points="491.11,-187 488.11,-191 467.11,-191 464.11,-187 394.89,-187 394.89,-151 491.11,-151 491.11,-187"/>
<text text-anchor="middle" x="443" y="-164.8" font-family="Times,serif" font-size="14.00">UtilityModule</text>
</g>
<!-- FocusDirective&#45;&gt;UtilityModule -->
<g id="edge1" class="edge">
<title>FocusDirective&#45;&gt;UtilityModule</title>
<path fill="none" stroke="black" d="M769,-122.02C769,-139.37 769,-163 769,-163 769,-163 501.1,-163 501.1,-163"/>
<polygon fill="black" stroke="black" points="501.1,-159.5 491.1,-163 501.1,-166.5 501.1,-159.5"/>
</g>
<!-- LoginFormComponent -->
<g id="node2" class="node">
<title>LoginFormComponent</title>
<polygon fill="#ffffb3" stroke="black" points="681.61,-122 536.39,-122 536.39,-86 681.61,-86 681.61,-122"/>
<text text-anchor="middle" x="609" y="-99.8" font-family="Times,serif" font-size="14.00">LoginFormComponent</text>
</g>
<!-- LoginFormComponent&#45;&gt;UtilityModule -->
<g id="edge2" class="edge">
<title>LoginFormComponent&#45;&gt;UtilityModule</title>
<path fill="none" stroke="black" d="M633.93,-122.24C633.93,-137.57 633.93,-157 633.93,-157 633.93,-157 501.18,-157 501.18,-157"/>
<polygon fill="black" stroke="black" points="501.18,-153.5 491.18,-157 501.18,-160.5 501.18,-153.5"/>
</g>
<!-- SignupFormComponent -->
<g id="node3" class="node">
<title>SignupFormComponent</title>
<polygon fill="#ffffb3" stroke="black" points="518.84,-122 367.16,-122 367.16,-86 518.84,-86 518.84,-122"/>
<text text-anchor="middle" x="443" y="-99.8" font-family="Times,serif" font-size="14.00">SignupFormComponent</text>
</g>
<!-- SignupFormComponent&#45;&gt;UtilityModule -->
<g id="edge3" class="edge">
<title>SignupFormComponent&#45;&gt;UtilityModule</title>
<path fill="none" stroke="black" d="M443,-122.11C443,-122.11 443,-140.99 443,-140.99"/>
<polygon fill="black" stroke="black" points="439.5,-140.99 443,-150.99 446.5,-140.99 439.5,-140.99"/>
</g>
<!-- TabComponent -->
<g id="node4" class="node">
<title>TabComponent</title>
<polygon fill="#ffffb3" stroke="black" points="349.6,-122 246.4,-122 246.4,-86 349.6,-86 349.6,-122"/>
<text text-anchor="middle" x="298" y="-99.8" font-family="Times,serif" font-size="14.00">TabComponent</text>
</g>
<!-- TabComponent&#45;&gt;UtilityModule -->
<g id="edge4" class="edge">
<title>TabComponent&#45;&gt;UtilityModule</title>
<path fill="none" stroke="black" d="M313.68,-122.24C313.68,-137.57 313.68,-157 313.68,-157 313.68,-157 384.85,-157 384.85,-157"/>
<polygon fill="black" stroke="black" points="384.85,-160.5 394.85,-157 384.85,-153.5 384.85,-160.5"/>
</g>
<!-- TabsComponent -->
<g id="node5" class="node">
<title>TabsComponent</title>
<polygon fill="#ffffb3" stroke="black" points="228.05,-122 119.95,-122 119.95,-86 228.05,-86 228.05,-122"/>
<text text-anchor="middle" x="174" y="-99.8" font-family="Times,serif" font-size="14.00">TabsComponent</text>
</g>
<!-- TabsComponent&#45;&gt;UtilityModule -->
<g id="edge5" class="edge">
<title>TabsComponent&#45;&gt;UtilityModule</title>
<path fill="none" stroke="black" d="M188.59,-122.02C188.59,-139.37 188.59,-163 188.59,-163 188.59,-163 384.85,-163 384.85,-163"/>
<polygon fill="black" stroke="black" points="384.85,-166.5 394.85,-163 384.85,-159.5 384.85,-166.5"/>
</g>
<!-- FocusDirective  -->
<g id="node8" class="node">
<title>FocusDirective </title>
<polygon fill="#fb8072" stroke="black" points="810.52,-252 705.48,-252 705.48,-216 810.52,-216 810.52,-252"/>
<text text-anchor="middle" x="758" y="-229.8" font-family="Times,serif" font-size="14.00">FocusDirective </text>
</g>
<!-- UtilityModule&#45;&gt;FocusDirective  -->
<g id="edge7" class="edge">
<title>UtilityModule&#45;&gt;FocusDirective </title>
<path fill="none" stroke="black" stroke-dasharray="5,2" d="M491.26,-175C574.74,-175 737.25,-175 737.25,-175 737.25,-175 737.25,-205.98 737.25,-205.98"/>
<polygon fill="black" stroke="black" points="733.75,-205.98 737.25,-215.98 740.75,-205.98 733.75,-205.98"/>
</g>
<!-- LoginFormComponent  -->
<g id="node9" class="node">
<title>LoginFormComponent </title>
<polygon fill="#fb8072" stroke="black" points="687.11,-252 538.89,-252 538.89,-216 687.11,-216 687.11,-252"/>
<text text-anchor="middle" x="613" y="-229.8" font-family="Times,serif" font-size="14.00">LoginFormComponent </text>
</g>
<!-- UtilityModule&#45;&gt;LoginFormComponent  -->
<g id="edge8" class="edge">
<title>UtilityModule&#45;&gt;LoginFormComponent </title>
<path fill="none" stroke="black" stroke-dasharray="5,2" d="M491.12,-181C532.76,-181 586.32,-181 586.32,-181 586.32,-181 586.32,-205.76 586.32,-205.76"/>
<polygon fill="black" stroke="black" points="582.82,-205.76 586.32,-215.76 589.82,-205.76 582.82,-205.76"/>
</g>
<!-- SignupFormComponent  -->
<g id="node10" class="node">
<title>SignupFormComponent </title>
<polygon fill="#fb8072" stroke="black" points="520.34,-252 365.66,-252 365.66,-216 520.34,-216 520.34,-252"/>
<text text-anchor="middle" x="443" y="-229.8" font-family="Times,serif" font-size="14.00">SignupFormComponent </text>
</g>
<!-- UtilityModule&#45;&gt;SignupFormComponent  -->
<g id="edge9" class="edge">
<title>UtilityModule&#45;&gt;SignupFormComponent </title>
<path fill="none" stroke="black" stroke-dasharray="5,2" d="M443,-187.11C443,-187.11 443,-205.99 443,-205.99"/>
<polygon fill="black" stroke="black" points="439.5,-205.99 443,-215.99 446.5,-205.99 439.5,-205.99"/>
</g>
<!-- TabComponent  -->
<g id="node11" class="node">
<title>TabComponent </title>
<polygon fill="#fb8072" stroke="black" points="347.1,-252 240.9,-252 240.9,-216 347.1,-216 347.1,-252"/>
<text text-anchor="middle" x="294" y="-229.8" font-family="Times,serif" font-size="14.00">TabComponent </text>
</g>
<!-- UtilityModule&#45;&gt;TabComponent  -->
<g id="edge10" class="edge">
<title>UtilityModule&#45;&gt;TabComponent </title>
<path fill="none" stroke="black" stroke-dasharray="5,2" d="M394.56,-181C346.53,-181 280.07,-181 280.07,-181 280.07,-181 280.07,-205.76 280.07,-205.76"/>
<polygon fill="black" stroke="black" points="276.57,-205.76 280.07,-215.76 283.57,-205.76 276.57,-205.76"/>
</g>
<!-- TabsComponent  -->
<g id="node12" class="node">
<title>TabsComponent </title>
<polygon fill="#fb8072" stroke="black" points="223.04,-252 110.96,-252 110.96,-216 223.04,-216 223.04,-252"/>
<text text-anchor="middle" x="167" y="-229.8" font-family="Times,serif" font-size="14.00">TabsComponent </text>
</g>
<!-- UtilityModule&#45;&gt;TabsComponent  -->
<g id="edge11" class="edge">
<title>UtilityModule&#45;&gt;TabsComponent </title>
<path fill="none" stroke="black" stroke-dasharray="5,2" d="M394.65,-175C312.43,-175 154.16,-175 154.16,-175 154.16,-175 154.16,-205.98 154.16,-205.98"/>
<polygon fill="black" stroke="black" points="150.66,-205.98 154.16,-215.98 157.66,-205.98 150.66,-205.98"/>
</g>
<!-- IoModule -->
<g id="node7" class="node">
<title>IoModule</title>
<polygon fill="#8dd3c7" stroke="black" points="95.71,-122 92.71,-126 71.71,-126 68.71,-122 24.29,-122 24.29,-86 95.71,-86 95.71,-122"/>
<text text-anchor="middle" x="60" y="-99.8" font-family="Times,serif" font-size="14.00">IoModule</text>
</g>
<!-- IoModule&#45;&gt;UtilityModule -->
<g id="edge6" class="edge">
<title>IoModule&#45;&gt;UtilityModule</title>
<path fill="none" stroke="black" d="M60,-122.11C60,-141.34 60,-169 60,-169 60,-169 384.88,-169 384.88,-169"/>
<polygon fill="black" stroke="black" points="384.88,-172.5 394.88,-169 384.88,-165.5 384.88,-172.5"/>
</g>
<!-- KeycommandsService -->
<g id="node13" class="node">
<title>KeycommandsService</title>
<ellipse fill="#fdb462" stroke="black" cx="923" cy="-104" rx="97.83" ry="18"/>
<text text-anchor="middle" x="923" y="-99.8" font-family="Times,serif" font-size="14.00">KeycommandsService</text>
</g>
<!-- KeycommandsService&#45;&gt;UtilityModule -->
<g id="edge12" class="edge">
<title>KeycommandsService&#45;&gt;UtilityModule</title>
<path fill="none" stroke="black" d="M923,-122.11C923,-141.34 923,-169 923,-169 923,-169 501.22,-169 501.22,-169"/>
<polygon fill="black" stroke="black" points="501.22,-165.5 491.22,-169 501.22,-172.5 501.22,-165.5"/>
</g>
</g>
</svg>
