<?xml version="1.0" encoding="UTF-8" standalone="no"?>
<!DOCTYPE svg PUBLIC "-//W3C//DTD SVG 1.1//EN"
 "http://www.w3.org/Graphics/SVG/1.1/DTD/svg11.dtd">
<!-- Generated by graphviz version 2.40.1 (20161225.0304)
 -->
<!-- Title: dependencies Pages: 1 -->
<svg width="805pt" height="284pt"
 viewBox="0.00 0.00 805.00 284.00" xmlns="http://www.w3.org/2000/svg" xmlns:xlink="http://www.w3.org/1999/xlink">
<g id="graph0" class="graph" transform="scale(1 1) rotate(0) translate(4 280)">
<title>dependencies</title>
<polygon fill="#ffffff" stroke="transparent" points="-4,4 -4,-280 801,-280 801,4 -4,4"/>
<text text-anchor="start" x="377.5091" y="-42.4" font-family="sans-serif" font-weight="bold" font-size="14.00" fill="#000000">Legend</text>
<polygon fill="#ffffb3" stroke="transparent" points="164.5,-10 164.5,-30 184.5,-30 184.5,-10 164.5,-10"/>
<text text-anchor="start" x="188.129" y="-15.4" font-family="sans-serif" font-size="14.00" fill="#000000"> &#160;Declarations</text>
<polygon fill="#8dd3c7" stroke="transparent" points="277.5,-10 277.5,-30 297.5,-30 297.5,-10 277.5,-10"/>
<text text-anchor="start" x="301.2251" y="-15.4" font-family="sans-serif" font-size="14.00" fill="#000000"> &#160;Module</text>
<polygon fill="#80b1d3" stroke="transparent" points="363.5,-10 363.5,-30 383.5,-30 383.5,-10 363.5,-10"/>
<text text-anchor="start" x="387.2812" y="-15.4" font-family="sans-serif" font-size="14.00" fill="#000000"> &#160;Bootstrap</text>
<polygon fill="#fdb462" stroke="transparent" points="460.5,-10 460.5,-30 480.5,-30 480.5,-10 460.5,-10"/>
<text text-anchor="start" x="484.1732" y="-15.4" font-family="sans-serif" font-size="14.00" fill="#000000"> &#160;Providers</text>
<polygon fill="#fb8072" stroke="transparent" points="556.5,-10 556.5,-30 576.5,-30 576.5,-10 556.5,-10"/>
<text text-anchor="start" x="580.2258" y="-15.4" font-family="sans-serif" font-size="14.00" fill="#000000"> &#160;Exports</text>
<g id="clust1" class="cluster">
<title>cluster_UtilityModule</title>
<polygon fill="none" stroke="#000000" stroke-dasharray="1,5" points="8,-70 8,-268 789,-268 789,-70 8,-70"/>
</g>
<g id="clust2" class="cluster">
<title>cluster_UtilityModule_declarations</title>
<polygon fill="none" stroke="#000000" points="119,-78 119,-130 775,-130 775,-78 119,-78"/>
</g>
<g id="clust8" class="cluster">
<title>cluster_UtilityModule_imports</title>
<polygon fill="none" stroke="#000000" points="23,-78 23,-130 111,-130 111,-78 23,-78"/>
</g>
<g id="clust9" class="cluster">
<title>cluster_UtilityModule_exports</title>
<polygon fill="none" stroke="#000000" points="16,-208 16,-260 781,-260 781,-208 16,-208"/>
</g>
<!-- TabsComponent -->
<g id="node1" class="node">
<title>TabsComponent</title>
<polygon fill="#ffffb3" stroke="#000000" points="767.0452,-122 658.9548,-122 658.9548,-86 767.0452,-86 767.0452,-122"/>
<text text-anchor="middle" x="713" y="-99.8" font-family="Times,serif" font-size="14.00" fill="#000000">TabsComponent</text>
</g>
<!-- UtilityModule -->
<g id="node6" class="node">
<title>UtilityModule</title>
<polygon fill="#8dd3c7" stroke="#000000" points="456.1095,-187 453.1095,-191 432.1095,-191 429.1095,-187 359.8905,-187 359.8905,-151 456.1095,-151 456.1095,-187"/>
<text text-anchor="middle" x="408" y="-164.8" font-family="Times,serif" font-size="14.00" fill="#000000">UtilityModule</text>
</g>
<!-- TabsComponent&#45;&gt;UtilityModule -->
<g id="edge1" class="edge">
<title>TabsComponent&#45;&gt;UtilityModule</title>
<path fill="none" stroke="#000000" d="M669.875,-122.2667C669.875,-140.5552 669.875,-166 669.875,-166 669.875,-166 466.3371,-166 466.3371,-166"/>
<polygon fill="#000000" stroke="#000000" points="466.3371,-162.5001 456.3371,-166 466.3371,-169.5001 466.3371,-162.5001"/>
</g>
<!-- TabComponent -->
<g id="node2" class="node">
<title>TabComponent</title>
<polygon fill="#ffffb3" stroke="#000000" points="640.5996,-122 537.4004,-122 537.4004,-86 640.5996,-86 640.5996,-122"/>
<text text-anchor="middle" x="589" y="-99.8" font-family="Times,serif" font-size="14.00" fill="#000000">TabComponent</text>
</g>
<!-- TabComponent&#45;&gt;UtilityModule -->
<g id="edge2" class="edge">
<title>TabComponent&#45;&gt;UtilityModule</title>
<path fill="none" stroke="#000000" d="M544.375,-122.0091C544.375,-138.0494 544.375,-159 544.375,-159 544.375,-159 466.0807,-159 466.0807,-159"/>
<polygon fill="#000000" stroke="#000000" points="466.0808,-155.5001 456.0807,-159 466.0807,-162.5001 466.0808,-155.5001"/>
</g>
<!-- MockupComponent -->
<g id="node3" class="node">
<title>MockupComponent</title>
<polygon fill="#ffffb3" stroke="#000000" points="518.9916,-122 391.0084,-122 391.0084,-86 518.9916,-86 518.9916,-122"/>
<text text-anchor="middle" x="455" y="-99.8" font-family="Times,serif" font-size="14.00" fill="#000000">MockupComponent</text>
</g>
<!-- MockupComponent&#45;&gt;UtilityModule -->
<g id="edge3" class="edge">
<title>MockupComponent&#45;&gt;UtilityModule</title>
<path fill="none" stroke="#000000" d="M423.5295,-122.1061C423.5295,-122.1061 423.5295,-140.991 423.5295,-140.991"/>
<polygon fill="#000000" stroke="#000000" points="420.0295,-140.9909 423.5295,-150.991 427.0295,-140.991 420.0295,-140.9909"/>
</g>
<!-- MenuComponent -->
<g id="node4" class="node">
<title>MenuComponent</title>
<polygon fill="#ffffb3" stroke="#000000" points="372.9916,-122 259.0084,-122 259.0084,-86 372.9916,-86 372.9916,-122"/>
<text text-anchor="middle" x="316" y="-99.8" font-family="Times,serif" font-size="14.00" fill="#000000">MenuComponent</text>
</g>
<!-- MenuComponent&#45;&gt;UtilityModule -->
<g id="edge4" class="edge">
<title>MenuComponent&#45;&gt;UtilityModule</title>
<path fill="none" stroke="#000000" d="M366.4706,-122.1061C366.4706,-122.1061 366.4706,-140.991 366.4706,-140.991"/>
<polygon fill="#000000" stroke="#000000" points="362.9706,-140.9909 366.4706,-150.991 369.9706,-140.991 362.9706,-140.9909"/>
</g>
<!-- LoginComponent -->
<g id="node5" class="node">
<title>LoginComponent</title>
<polygon fill="#ffffb3" stroke="#000000" points="241.2758,-122 126.7242,-122 126.7242,-86 241.2758,-86 241.2758,-122"/>
<text text-anchor="middle" x="184" y="-99.8" font-family="Times,serif" font-size="14.00" fill="#000000">LoginComponent</text>
</g>
<!-- LoginComponent&#45;&gt;UtilityModule -->
<g id="edge5" class="edge">
<title>LoginComponent&#45;&gt;UtilityModule</title>
<path fill="none" stroke="#000000" d="M200.821,-122.0091C200.821,-138.0494 200.821,-159 200.821,-159 200.821,-159 349.6872,-159 349.6872,-159"/>
<polygon fill="#000000" stroke="#000000" points="349.6872,-162.5001 359.6872,-159 349.6872,-155.5001 349.6872,-162.5001"/>
</g>
<!-- IoModule  -->
<g id="node8" class="node">
<title>IoModule </title>
<polygon fill="#fb8072" stroke="#000000" points="773.211,-252 698.789,-252 698.789,-216 773.211,-216 773.211,-252"/>
<text text-anchor="middle" x="736" y="-229.8" font-family="Times,serif" font-size="14.00" fill="#000000">IoModule </text>
</g>
<!-- UtilityModule&#45;&gt;IoModule  -->
<g id="edge7" class="edge">
<title>UtilityModule&#45;&gt;IoModule </title>
<path fill="none" stroke="#000000" stroke-dasharray="5,2" d="M456.2987,-173C546.822,-173 732.9585,-173 732.9585,-173 732.9585,-173 732.9585,-205.698 732.9585,-205.698"/>
<polygon fill="#000000" stroke="#000000" points="729.4585,-205.698 732.9585,-215.698 736.4585,-205.698 729.4585,-205.698"/>
</g>
<!-- TabsComponent  -->
<g id="node9" class="node">
<title>TabsComponent </title>
<polygon fill="#fb8072" stroke="#000000" points="681.0442,-252 568.9558,-252 568.9558,-216 681.0442,-216 681.0442,-252"/>
<text text-anchor="middle" x="625" y="-229.8" font-family="Times,serif" font-size="14.00" fill="#000000">TabsComponent </text>
</g>
<!-- UtilityModule&#45;&gt;TabsComponent  -->
<g id="edge8" class="edge">
<title>UtilityModule&#45;&gt;TabsComponent </title>
<path fill="none" stroke="#000000" stroke-dasharray="5,2" d="M456.1339,-180C514.3855,-180 604.7639,-180 604.7639,-180 604.7639,-180 604.7639,-205.7181 604.7639,-205.7181"/>
<polygon fill="#000000" stroke="#000000" points="601.2639,-205.718 604.7639,-215.7181 608.2639,-205.7181 601.2639,-205.718"/>
</g>
<!-- TabComponent  -->
<g id="node10" class="node">
<title>TabComponent </title>
<polygon fill="#fb8072" stroke="#000000" points="551.1003,-252 444.8997,-252 444.8997,-216 551.1003,-216 551.1003,-252"/>
<text text-anchor="middle" x="498" y="-229.8" font-family="Times,serif" font-size="14.00" fill="#000000">TabComponent </text>
</g>
<!-- UtilityModule&#45;&gt;TabComponent  -->
<g id="edge9" class="edge">
<title>UtilityModule&#45;&gt;TabComponent </title>
<path fill="none" stroke="#000000" stroke-dasharray="5,2" d="M450.3775,-187.1061C450.3775,-187.1061 450.3775,-205.991 450.3775,-205.991"/>
<polygon fill="#000000" stroke="#000000" points="446.8775,-205.9909 450.3775,-215.991 453.8775,-205.991 446.8775,-205.9909"/>
</g>
<!-- MockupComponent  -->
<g id="node11" class="node">
<title>MockupComponent </title>
<polygon fill="#fb8072" stroke="#000000" points="426.9925,-252 295.0075,-252 295.0075,-216 426.9925,-216 426.9925,-252"/>
<text text-anchor="middle" x="361" y="-229.8" font-family="Times,serif" font-size="14.00" fill="#000000">MockupComponent </text>
</g>
<!-- UtilityModule&#45;&gt;MockupComponent  -->
<g id="edge10" class="edge">
<title>UtilityModule&#45;&gt;MockupComponent </title>
<path fill="none" stroke="#000000" stroke-dasharray="5,2" d="M393.3456,-187.1061C393.3456,-187.1061 393.3456,-205.991 393.3456,-205.991"/>
<polygon fill="#000000" stroke="#000000" points="389.8456,-205.9909 393.3456,-215.991 396.8456,-205.991 389.8456,-205.9909"/>
</g>
<!-- MenuComponent  -->
<g id="node12" class="node">
<title>MenuComponent </title>
<polygon fill="#fb8072" stroke="#000000" points="277.9926,-252 160.0074,-252 160.0074,-216 277.9926,-216 277.9926,-252"/>
<text text-anchor="middle" x="219" y="-229.8" font-family="Times,serif" font-size="14.00" fill="#000000">MenuComponent </text>
</g>
<!-- UtilityModule&#45;&gt;MenuComponent  -->
<g id="edge11" class="edge">
<title>UtilityModule&#45;&gt;MenuComponent </title>
<path fill="none" stroke="#000000" stroke-dasharray="5,2" d="M359.5578,-180C319.2308,-180 268.375,-180 268.375,-180 268.375,-180 268.375,-205.7181 268.375,-205.7181"/>
<polygon fill="#000000" stroke="#000000" points="264.8751,-205.718 268.375,-215.7181 271.8751,-205.7181 264.8751,-205.718"/>
</g>
<!-- LoginComponent  -->
<g id="node13" class="node">
<title>LoginComponent </title>
<polygon fill="#fb8072" stroke="#000000" points="142.2759,-252 23.7241,-252 23.7241,-216 142.2759,-216 142.2759,-252"/>
<text text-anchor="middle" x="83" y="-229.8" font-family="Times,serif" font-size="14.00" fill="#000000">LoginComponent </text>
</g>
<!-- UtilityModule&#45;&gt;LoginComponent  -->
<g id="edge12" class="edge">
<title>UtilityModule&#45;&gt;LoginComponent </title>
<path fill="none" stroke="#000000" stroke-dasharray="5,2" d="M359.7112,-173C281.1589,-173 134.375,-173 134.375,-173 134.375,-173 134.375,-205.698 134.375,-205.698"/>
<polygon fill="#000000" stroke="#000000" points="130.8751,-205.698 134.375,-215.698 137.8751,-205.698 130.8751,-205.698"/>
</g>
<!-- IoModule -->
<g id="node7" class="node">
<title>IoModule</title>
<polygon fill="#8dd3c7" stroke="#000000" points="102.7107,-122 99.7107,-126 78.7107,-126 75.7107,-122 31.2893,-122 31.2893,-86 102.7107,-86 102.7107,-122"/>
<text text-anchor="middle" x="67" y="-99.8" font-family="Times,serif" font-size="14.00" fill="#000000">IoModule</text>
</g>
<!-- IoModule&#45;&gt;UtilityModule -->
<g id="edge6" class="edge">
<title>IoModule&#45;&gt;UtilityModule</title>
<path fill="none" stroke="#000000" d="M67,-122.2667C67,-140.5552 67,-166 67,-166 67,-166 349.8663,-166 349.8663,-166"/>
<polygon fill="#000000" stroke="#000000" points="349.8663,-169.5001 359.8663,-166 349.8662,-162.5001 349.8663,-169.5001"/>
</g>
</g>
</svg>
