<?xml version="1.0" encoding="UTF-8" standalone="no"?>
<!DOCTYPE svg PUBLIC "-//W3C//DTD SVG 1.1//EN"
 "http://www.w3.org/Graphics/SVG/1.1/DTD/svg11.dtd">
<!-- Generated by graphviz version 2.40.1 (20161225.0304)
 -->
<!-- Title: dependencies Pages: 1 -->
<svg width="1053pt" height="284pt"
 viewBox="0.00 0.00 1053.00 284.00" xmlns="http://www.w3.org/2000/svg" xmlns:xlink="http://www.w3.org/1999/xlink">
<g id="graph0" class="graph" transform="scale(1 1) rotate(0) translate(4 280)">
<title>dependencies</title>
<polygon fill="#ffffff" stroke="transparent" points="-4,4 -4,-280 1049,-280 1049,4 -4,4"/>
<text text-anchor="start" x="501.5091" y="-42.4" font-family="sans-serif" font-weight="bold" font-size="14.00" fill="#000000">Legend</text>
<polygon fill="#ffffb3" stroke="transparent" points="288.5,-10 288.5,-30 308.5,-30 308.5,-10 288.5,-10"/>
<text text-anchor="start" x="312.129" y="-15.4" font-family="sans-serif" font-size="14.00" fill="#000000"> &#160;Declarations</text>
<polygon fill="#8dd3c7" stroke="transparent" points="401.5,-10 401.5,-30 421.5,-30 421.5,-10 401.5,-10"/>
<text text-anchor="start" x="425.2251" y="-15.4" font-family="sans-serif" font-size="14.00" fill="#000000"> &#160;Module</text>
<polygon fill="#80b1d3" stroke="transparent" points="487.5,-10 487.5,-30 507.5,-30 507.5,-10 487.5,-10"/>
<text text-anchor="start" x="511.2812" y="-15.4" font-family="sans-serif" font-size="14.00" fill="#000000"> &#160;Bootstrap</text>
<polygon fill="#fdb462" stroke="transparent" points="584.5,-10 584.5,-30 604.5,-30 604.5,-10 584.5,-10"/>
<text text-anchor="start" x="608.1732" y="-15.4" font-family="sans-serif" font-size="14.00" fill="#000000"> &#160;Providers</text>
<polygon fill="#fb8072" stroke="transparent" points="680.5,-10 680.5,-30 700.5,-30 700.5,-10 680.5,-10"/>
<text text-anchor="start" x="704.2258" y="-15.4" font-family="sans-serif" font-size="14.00" fill="#000000"> &#160;Exports</text>
<g id="clust1" class="cluster">
<title>cluster_UtilityModule</title>
<polygon fill="none" stroke="#000000" stroke-dasharray="1,5" points="8,-70 8,-268 1037,-268 1037,-70 8,-70"/>
</g>
<g id="clust2" class="cluster">
<title>cluster_UtilityModule_declarations</title>
<polygon fill="none" stroke="#000000" points="332,-78 332,-130 1029,-130 1029,-78 332,-78"/>
</g>
<g id="clust8" class="cluster">
<title>cluster_UtilityModule_imports</title>
<polygon fill="none" stroke="#000000" points="236,-78 236,-130 324,-130 324,-78 236,-78"/>
</g>
<g id="clust9" class="cluster">
<title>cluster_UtilityModule_exports</title>
<polygon fill="none" stroke="#000000" points="178,-208 178,-260 894,-260 894,-208 178,-208"/>
</g>
<g id="clust11" class="cluster">
<title>cluster_UtilityModule_providers</title>
<polygon fill="none" stroke="#000000" points="16,-78 16,-130 228,-130 228,-78 16,-78"/>
</g>
<!-- FocusDirective -->
<g id="node1" class="node">
<title>FocusDirective</title>
<polygon fill="#ffffb3" stroke="#000000" points="1020.5257,-122 919.4743,-122 919.4743,-86 1020.5257,-86 1020.5257,-122"/>
<text text-anchor="middle" x="970" y="-99.8" font-family="Times,serif" font-size="14.00" fill="#000000">FocusDirective</text>
</g>
<!-- UtilityModule -->
<g id="node6" class="node">
<title>UtilityModule</title>
<polygon fill="#8dd3c7" stroke="#000000" points="566.1095,-187 563.1095,-191 542.1095,-191 539.1095,-187 469.8905,-187 469.8905,-151 566.1095,-151 566.1095,-187"/>
<text text-anchor="middle" x="518" y="-164.8" font-family="Times,serif" font-size="14.00" fill="#000000">UtilityModule</text>
</g>
<!-- FocusDirective&#45;&gt;UtilityModule -->
<g id="edge1" class="edge">
<title>FocusDirective&#45;&gt;UtilityModule</title>
<path fill="none" stroke="#000000" d="M970,-122.1061C970,-141.3391 970,-169 970,-169 970,-169 576.3719,-169 576.3719,-169"/>
<polygon fill="#000000" stroke="#000000" points="576.372,-165.5001 566.3719,-169 576.3719,-172.5001 576.372,-165.5001"/>
</g>
<!-- LoginFormComponent -->
<g id="node2" class="node">
<title>LoginFormComponent</title>
<polygon fill="#ffffb3" stroke="#000000" points="901.6094,-122 756.3906,-122 756.3906,-86 901.6094,-86 901.6094,-122"/>
<text text-anchor="middle" x="829" y="-99.8" font-family="Times,serif" font-size="14.00" fill="#000000">LoginFormComponent</text>
</g>
<!-- LoginFormComponent&#45;&gt;UtilityModule -->
<g id="edge2" class="edge">
<title>LoginFormComponent&#45;&gt;UtilityModule</title>
<path fill="none" stroke="#000000" d="M771.3962,-122.0225C771.3962,-139.3734 771.3962,-163 771.3962,-163 771.3962,-163 576.2583,-163 576.2583,-163"/>
<polygon fill="#000000" stroke="#000000" points="576.2584,-159.5001 566.2583,-163 576.2583,-166.5001 576.2584,-159.5001"/>
</g>
<!-- SignupFormComponent -->
<g id="node3" class="node">
<title>SignupFormComponent</title>
<polygon fill="#ffffb3" stroke="#000000" points="738.8398,-122 587.1602,-122 587.1602,-86 738.8398,-86 738.8398,-122"/>
<text text-anchor="middle" x="663" y="-99.8" font-family="Times,serif" font-size="14.00" fill="#000000">SignupFormComponent</text>
</g>
<!-- SignupFormComponent&#45;&gt;UtilityModule -->
<g id="edge3" class="edge">
<title>SignupFormComponent&#45;&gt;UtilityModule</title>
<path fill="none" stroke="#000000" d="M591.375,-122.2396C591.375,-137.5706 591.375,-157 591.375,-157 591.375,-157 576.1235,-157 576.1235,-157"/>
<polygon fill="#000000" stroke="#000000" points="576.1235,-153.5001 566.1235,-157 576.1235,-160.5001 576.1235,-153.5001"/>
</g>
<!-- TabComponent -->
<g id="node4" class="node">
<title>TabComponent</title>
<polygon fill="#ffffb3" stroke="#000000" points="569.5996,-122 466.4004,-122 466.4004,-86 569.5996,-86 569.5996,-122"/>
<text text-anchor="middle" x="518" y="-99.8" font-family="Times,serif" font-size="14.00" fill="#000000">TabComponent</text>
</g>
<!-- TabComponent&#45;&gt;UtilityModule -->
<g id="edge4" class="edge">
<title>TabComponent&#45;&gt;UtilityModule</title>
<path fill="none" stroke="#000000" d="M518,-122.1061C518,-122.1061 518,-140.991 518,-140.991"/>
<polygon fill="#000000" stroke="#000000" points="514.5001,-140.9909 518,-150.991 521.5001,-140.991 514.5001,-140.9909"/>
</g>
<!-- TabsComponent -->
<g id="node5" class="node">
<title>TabsComponent</title>
<polygon fill="#ffffb3" stroke="#000000" points="448.0452,-122 339.9548,-122 339.9548,-86 448.0452,-86 448.0452,-122"/>
<text text-anchor="middle" x="394" y="-99.8" font-family="Times,serif" font-size="14.00" fill="#000000">TabsComponent</text>
</g>
<!-- TabsComponent&#45;&gt;UtilityModule -->
<g id="edge5" class="edge">
<title>TabsComponent&#45;&gt;UtilityModule</title>
<path fill="none" stroke="#000000" d="M444.4262,-122.2396C444.4262,-137.5706 444.4262,-157 444.4262,-157 444.4262,-157 459.7461,-157 459.7461,-157"/>
<polygon fill="#000000" stroke="#000000" points="459.7462,-160.5001 469.7461,-157 459.7461,-153.5001 459.7462,-160.5001"/>
</g>
<!-- FocusDirective  -->
<g id="node8" class="node">
<title>FocusDirective </title>
<polygon fill="#fb8072" stroke="#000000" points="885.5246,-252 780.4754,-252 780.4754,-216 885.5246,-216 885.5246,-252"/>
<text text-anchor="middle" x="833" y="-229.8" font-family="Times,serif" font-size="14.00" fill="#000000">FocusDirective </text>
</g>
<!-- UtilityModule&#45;&gt;FocusDirective  -->
<g id="edge7" class="edge">
<title>UtilityModule&#45;&gt;FocusDirective </title>
<path fill="none" stroke="#000000" stroke-dasharray="5,2" d="M566.1846,-175C654.4255,-175 833,-175 833,-175 833,-175 833,-205.9775 833,-205.9775"/>
<polygon fill="#000000" stroke="#000000" points="829.5001,-205.9774 833,-215.9775 836.5001,-205.9775 829.5001,-205.9774"/>
</g>
<!-- LoginFormComponent  -->
<g id="node9" class="node">
<title>LoginFormComponent </title>
<polygon fill="#fb8072" stroke="#000000" points="762.1099,-252 613.8901,-252 613.8901,-216 762.1099,-216 762.1099,-252"/>
<text text-anchor="middle" x="688" y="-229.8" font-family="Times,serif" font-size="14.00" fill="#000000">LoginFormComponent </text>
</g>
<!-- UtilityModule&#45;&gt;LoginFormComponent  -->
<g id="edge8" class="edge">
<title>UtilityModule&#45;&gt;LoginFormComponent </title>
<path fill="none" stroke="#000000" stroke-dasharray="5,2" d="M566.3195,-181C612.8381,-181 676.1825,-181 676.1825,-181 676.1825,-181 676.1825,-205.7604 676.1825,-205.7604"/>
<polygon fill="#000000" stroke="#000000" points="672.6826,-205.7604 676.1825,-215.7604 679.6826,-205.7604 672.6826,-205.7604"/>
</g>
<!-- SignupFormComponent  -->
<g id="node10" class="node">
<title>SignupFormComponent </title>
<polygon fill="#fb8072" stroke="#000000" points="595.3395,-252 440.6605,-252 440.6605,-216 595.3395,-216 595.3395,-252"/>
<text text-anchor="middle" x="518" y="-229.8" font-family="Times,serif" font-size="14.00" fill="#000000">SignupFormComponent </text>
</g>
<!-- UtilityModule&#45;&gt;SignupFormComponent  -->
<g id="edge9" class="edge">
<title>UtilityModule&#45;&gt;SignupFormComponent </title>
<path fill="none" stroke="#000000" stroke-dasharray="5,2" d="M518,-187.1061C518,-187.1061 518,-205.991 518,-205.991"/>
<polygon fill="#000000" stroke="#000000" points="514.5001,-205.9909 518,-215.991 521.5001,-205.991 514.5001,-205.9909"/>
</g>
<!-- TabComponent  -->
<g id="node11" class="node">
<title>TabComponent </title>
<polygon fill="#fb8072" stroke="#000000" points="422.1003,-252 315.8997,-252 315.8997,-216 422.1003,-216 422.1003,-252"/>
<text text-anchor="middle" x="369" y="-229.8" font-family="Times,serif" font-size="14.00" fill="#000000">TabComponent </text>
</g>
<!-- UtilityModule&#45;&gt;TabComponent  -->
<g id="edge10" class="edge">
<title>UtilityModule&#45;&gt;TabComponent </title>
<path fill="none" stroke="#000000" stroke-dasharray="5,2" d="M469.7038,-181C430.2647,-181 381.0139,-181 381.0139,-181 381.0139,-181 381.0139,-205.7604 381.0139,-205.7604"/>
<polygon fill="#000000" stroke="#000000" points="377.5139,-205.7604 381.0139,-215.7604 384.5139,-205.7604 377.5139,-205.7604"/>
</g>
<!-- TabsComponent  -->
<g id="node12" class="node">
<title>TabsComponent </title>
<polygon fill="#fb8072" stroke="#000000" points="298.0442,-252 185.9558,-252 185.9558,-216 298.0442,-216 298.0442,-252"/>
<text text-anchor="middle" x="242" y="-229.8" font-family="Times,serif" font-size="14.00" fill="#000000">TabsComponent </text>
</g>
<!-- UtilityModule&#45;&gt;TabsComponent  -->
<g id="edge11" class="edge">
<title>UtilityModule&#45;&gt;TabsComponent </title>
<path fill="none" stroke="#000000" stroke-dasharray="5,2" d="M469.8302,-175C398.0094,-175 271.2084,-175 271.2084,-175 271.2084,-175 271.2084,-205.9775 271.2084,-205.9775"/>
<polygon fill="#000000" stroke="#000000" points="267.7085,-205.9774 271.2084,-215.9775 274.7085,-205.9775 267.7085,-205.9774"/>
</g>
<!-- IoModule -->
<g id="node7" class="node">
<title>IoModule</title>
<polygon fill="#8dd3c7" stroke="#000000" points="315.7107,-122 312.7107,-126 291.7107,-126 288.7107,-122 244.2893,-122 244.2893,-86 315.7107,-86 315.7107,-122"/>
<text text-anchor="middle" x="280" y="-99.8" font-family="Times,serif" font-size="14.00" fill="#000000">IoModule</text>
</g>
<!-- IoModule&#45;&gt;UtilityModule -->
<g id="edge6" class="edge">
<title>IoModule&#45;&gt;UtilityModule</title>
<path fill="none" stroke="#000000" d="M306.8137,-122.0225C306.8137,-139.3734 306.8137,-163 306.8137,-163 306.8137,-163 459.8143,-163 459.8143,-163"/>
<polygon fill="#000000" stroke="#000000" points="459.8143,-166.5001 469.8143,-163 459.8143,-159.5001 459.8143,-166.5001"/>
</g>
<!-- KeycommandsService -->
<g id="node13" class="node">
<title>KeycommandsService</title>
<ellipse fill="#fdb462" stroke="#000000" cx="122" cy="-104" rx="97.8344" ry="18"/>
<text text-anchor="middle" x="122" y="-99.8" font-family="Times,serif" font-size="14.00" fill="#000000">KeycommandsService</text>
</g>
<!-- KeycommandsService&#45;&gt;UtilityModule -->
<g id="edge12" class="edge">
<title>KeycommandsService&#45;&gt;UtilityModule</title>
<path fill="none" stroke="#000000" d="M202.9475,-114.1563C202.9475,-132.4375 202.9475,-169 202.9475,-169 202.9475,-169 459.8074,-169 459.8074,-169"/>
<polygon fill="#000000" stroke="#000000" points="459.8074,-172.5001 469.8074,-169 459.8073,-165.5001 459.8074,-172.5001"/>
</g>
</g>
</svg>
