<?xml version="1.0" encoding="UTF-8" standalone="no"?>
<!DOCTYPE svg PUBLIC "-//W3C//DTD SVG 1.1//EN"
 "http://www.w3.org/Graphics/SVG/1.1/DTD/svg11.dtd">
<!-- Generated by graphviz version 2.40.1 (20161225.0304)
 -->
<!-- Title: dependencies Pages: 1 -->
<svg width="835pt" height="284pt"
 viewBox="0.00 0.00 835.00 284.00" xmlns="http://www.w3.org/2000/svg" xmlns:xlink="http://www.w3.org/1999/xlink">
<g id="graph0" class="graph" transform="scale(1 1) rotate(0) translate(4 280)">
<title>dependencies</title>
<polygon fill="#ffffff" stroke="transparent" points="-4,4 -4,-280 831,-280 831,4 -4,4"/>
<text text-anchor="start" x="392.5091" y="-42.4" font-family="sans-serif" font-weight="bold" font-size="14.00" fill="#000000">Legend</text>
<polygon fill="#ffffb3" stroke="transparent" points="179.5,-10 179.5,-30 199.5,-30 199.5,-10 179.5,-10"/>
<text text-anchor="start" x="203.129" y="-15.4" font-family="sans-serif" font-size="14.00" fill="#000000"> &#160;Declarations</text>
<polygon fill="#8dd3c7" stroke="transparent" points="292.5,-10 292.5,-30 312.5,-30 312.5,-10 292.5,-10"/>
<text text-anchor="start" x="316.2251" y="-15.4" font-family="sans-serif" font-size="14.00" fill="#000000"> &#160;Module</text>
<polygon fill="#80b1d3" stroke="transparent" points="378.5,-10 378.5,-30 398.5,-30 398.5,-10 378.5,-10"/>
<text text-anchor="start" x="402.2812" y="-15.4" font-family="sans-serif" font-size="14.00" fill="#000000"> &#160;Bootstrap</text>
<polygon fill="#fdb462" stroke="transparent" points="475.5,-10 475.5,-30 495.5,-30 495.5,-10 475.5,-10"/>
<text text-anchor="start" x="499.1732" y="-15.4" font-family="sans-serif" font-size="14.00" fill="#000000"> &#160;Providers</text>
<polygon fill="#fb8072" stroke="transparent" points="571.5,-10 571.5,-30 591.5,-30 591.5,-10 571.5,-10"/>
<text text-anchor="start" x="595.2258" y="-15.4" font-family="sans-serif" font-size="14.00" fill="#000000"> &#160;Exports</text>
<g id="clust1" class="cluster">
<title>cluster_UtilityModule</title>
<polygon fill="none" stroke="#000000" stroke-dasharray="1,5" points="8,-70 8,-268 819,-268 819,-70 8,-70"/>
</g>
<g id="clust2" class="cluster">
<title>cluster_UtilityModule_declarations</title>
<polygon fill="none" stroke="#000000" points="118,-78 118,-130 806,-130 806,-78 118,-78"/>
</g>
<g id="clust8" class="cluster">
<title>cluster_UtilityModule_imports</title>
<polygon fill="none" stroke="#000000" points="22,-78 22,-130 110,-130 110,-78 22,-78"/>
</g>
<g id="clust9" class="cluster">
<title>cluster_UtilityModule_exports</title>
<polygon fill="none" stroke="#000000" points="16,-208 16,-260 811,-260 811,-208 16,-208"/>
</g>
<!-- TabsComponent -->
<g id="node1" class="node">
<title>TabsComponent</title>
<polygon fill="#ffffb3" stroke="#000000" points="798.0452,-122 689.9548,-122 689.9548,-86 798.0452,-86 798.0452,-122"/>
<text text-anchor="middle" x="744" y="-99.8" font-family="Times,serif" font-size="14.00" fill="#000000">TabsComponent</text>
</g>
<!-- UtilityModule -->
<g id="node6" class="node">
<title>UtilityModule</title>
<polygon fill="#8dd3c7" stroke="#000000" points="486.1095,-187 483.1095,-191 462.1095,-191 459.1095,-187 389.8905,-187 389.8905,-151 486.1095,-151 486.1095,-187"/>
<text text-anchor="middle" x="438" y="-164.8" font-family="Times,serif" font-size="14.00" fill="#000000">UtilityModule</text>
</g>
<!-- TabsComponent&#45;&gt;UtilityModule -->
<g id="edge1" class="edge">
<title>TabsComponent&#45;&gt;UtilityModule</title>
<path fill="none" stroke="#000000" d="M700.375,-122.2667C700.375,-140.5552 700.375,-166 700.375,-166 700.375,-166 496.1236,-166 496.1236,-166"/>
<polygon fill="#000000" stroke="#000000" points="496.1237,-162.5001 486.1236,-166 496.1236,-169.5001 496.1237,-162.5001"/>
</g>
<!-- TabComponent -->
<g id="node2" class="node">
<title>TabComponent</title>
<polygon fill="#ffffb3" stroke="#000000" points="671.5996,-122 568.4004,-122 568.4004,-86 671.5996,-86 671.5996,-122"/>
<text text-anchor="middle" x="620" y="-99.8" font-family="Times,serif" font-size="14.00" fill="#000000">TabComponent</text>
</g>
<!-- TabComponent&#45;&gt;UtilityModule -->
<g id="edge2" class="edge">
<title>TabComponent&#45;&gt;UtilityModule</title>
<path fill="none" stroke="#000000" d="M574.875,-122.0091C574.875,-138.0494 574.875,-159 574.875,-159 574.875,-159 496.257,-159 496.257,-159"/>
<polygon fill="#000000" stroke="#000000" points="496.257,-155.5001 486.257,-159 496.257,-162.5001 496.257,-155.5001"/>
</g>
<!-- MockupComponent -->
<g id="node3" class="node">
<title>MockupComponent</title>
<polygon fill="#ffffb3" stroke="#000000" points="549.9916,-122 422.0084,-122 422.0084,-86 549.9916,-86 549.9916,-122"/>
<text text-anchor="middle" x="486" y="-99.8" font-family="Times,serif" font-size="14.00" fill="#000000">MockupComponent</text>
</g>
<!-- MockupComponent&#45;&gt;UtilityModule -->
<g id="edge3" class="edge">
<title>MockupComponent&#45;&gt;UtilityModule</title>
<path fill="none" stroke="#000000" d="M454.0295,-122.1061C454.0295,-122.1061 454.0295,-140.991 454.0295,-140.991"/>
<polygon fill="#000000" stroke="#000000" points="450.5295,-140.9909 454.0295,-150.991 457.5295,-140.991 450.5295,-140.9909"/>
</g>
<!-- MenuComponent -->
<g id="node4" class="node">
<title>MenuComponent</title>
<polygon fill="#ffffb3" stroke="#000000" points="403.9916,-122 290.0084,-122 290.0084,-86 403.9916,-86 403.9916,-122"/>
<text text-anchor="middle" x="347" y="-99.8" font-family="Times,serif" font-size="14.00" fill="#000000">MenuComponent</text>
</g>
<!-- MenuComponent&#45;&gt;UtilityModule -->
<g id="edge4" class="edge">
<title>MenuComponent&#45;&gt;UtilityModule</title>
<path fill="none" stroke="#000000" d="M396.9706,-122.1061C396.9706,-122.1061 396.9706,-140.991 396.9706,-140.991"/>
<polygon fill="#000000" stroke="#000000" points="393.4706,-140.9909 396.9706,-150.991 400.4706,-140.991 393.4706,-140.9909"/>
</g>
<!-- LoginFormComponent -->
<g id="node5" class="node">
<title>LoginFormComponent</title>
<polygon fill="#ffffb3" stroke="#000000" points="271.6094,-122 126.3906,-122 126.3906,-86 271.6094,-86 271.6094,-122"/>
<text text-anchor="middle" x="199" y="-99.8" font-family="Times,serif" font-size="14.00" fill="#000000">LoginFormComponent</text>
</g>
<!-- LoginFormComponent&#45;&gt;UtilityModule -->
<g id="edge5" class="edge">
<title>LoginFormComponent&#45;&gt;UtilityModule</title>
<path fill="none" stroke="#000000" d="M230.9045,-122.0091C230.9045,-138.0494 230.9045,-159 230.9045,-159 230.9045,-159 379.7067,-159 379.7067,-159"/>
<polygon fill="#000000" stroke="#000000" points="379.7067,-162.5001 389.7067,-159 379.7066,-155.5001 379.7067,-162.5001"/>
</g>
<!-- IoModule  -->
<g id="node8" class="node">
<title>IoModule </title>
<polygon fill="#fb8072" stroke="#000000" points="803.211,-252 728.789,-252 728.789,-216 803.211,-216 803.211,-252"/>
<text text-anchor="middle" x="766" y="-229.8" font-family="Times,serif" font-size="14.00" fill="#000000">IoModule </text>
</g>
<!-- UtilityModule&#45;&gt;IoModule  -->
<g id="edge7" class="edge">
<title>UtilityModule&#45;&gt;IoModule </title>
<path fill="none" stroke="#000000" stroke-dasharray="5,2" d="M486.373,-173C577.0356,-173 763.4585,-173 763.4585,-173 763.4585,-173 763.4585,-205.698 763.4585,-205.698"/>
<polygon fill="#000000" stroke="#000000" points="759.9585,-205.698 763.4585,-215.698 766.9585,-205.698 759.9585,-205.698"/>
</g>
<!-- TabsComponent  -->
<g id="node9" class="node">
<title>TabsComponent </title>
<polygon fill="#fb8072" stroke="#000000" points="711.0442,-252 598.9558,-252 598.9558,-216 711.0442,-216 711.0442,-252"/>
<text text-anchor="middle" x="655" y="-229.8" font-family="Times,serif" font-size="14.00" fill="#000000">TabsComponent </text>
</g>
<!-- UtilityModule&#45;&gt;TabsComponent  -->
<g id="edge8" class="edge">
<title>UtilityModule&#45;&gt;TabsComponent </title>
<path fill="none" stroke="#000000" stroke-dasharray="5,2" d="M486.2562,-180C544.6559,-180 635.2639,-180 635.2639,-180 635.2639,-180 635.2639,-205.7181 635.2639,-205.7181"/>
<polygon fill="#000000" stroke="#000000" points="631.7639,-205.718 635.2639,-215.7181 638.7639,-205.7181 631.7639,-205.718"/>
</g>
<!-- TabComponent  -->
<g id="node10" class="node">
<title>TabComponent </title>
<polygon fill="#fb8072" stroke="#000000" points="581.1003,-252 474.8997,-252 474.8997,-216 581.1003,-216 581.1003,-252"/>
<text text-anchor="middle" x="528" y="-229.8" font-family="Times,serif" font-size="14.00" fill="#000000">TabComponent </text>
</g>
<!-- UtilityModule&#45;&gt;TabComponent  -->
<g id="edge9" class="edge">
<title>UtilityModule&#45;&gt;TabComponent </title>
<path fill="none" stroke="#000000" stroke-dasharray="5,2" d="M480.3775,-187.1061C480.3775,-187.1061 480.3775,-205.991 480.3775,-205.991"/>
<polygon fill="#000000" stroke="#000000" points="476.8775,-205.9909 480.3775,-215.991 483.8775,-205.991 476.8775,-205.9909"/>
</g>
<!-- MockupComponent  -->
<g id="node11" class="node">
<title>MockupComponent </title>
<polygon fill="#fb8072" stroke="#000000" points="456.9925,-252 325.0075,-252 325.0075,-216 456.9925,-216 456.9925,-252"/>
<text text-anchor="middle" x="391" y="-229.8" font-family="Times,serif" font-size="14.00" fill="#000000">MockupComponent </text>
</g>
<!-- UtilityModule&#45;&gt;MockupComponent  -->
<g id="edge10" class="edge">
<title>UtilityModule&#45;&gt;MockupComponent </title>
<path fill="none" stroke="#000000" stroke-dasharray="5,2" d="M423.3456,-187.1061C423.3456,-187.1061 423.3456,-205.991 423.3456,-205.991"/>
<polygon fill="#000000" stroke="#000000" points="419.8456,-205.9909 423.3456,-215.991 426.8456,-205.991 419.8456,-205.9909"/>
</g>
<!-- MenuComponent  -->
<g id="node12" class="node">
<title>MenuComponent </title>
<polygon fill="#fb8072" stroke="#000000" points="307.9926,-252 190.0074,-252 190.0074,-216 307.9926,-216 307.9926,-252"/>
<text text-anchor="middle" x="249" y="-229.8" font-family="Times,serif" font-size="14.00" fill="#000000">MenuComponent </text>
</g>
<!-- UtilityModule&#45;&gt;MenuComponent  -->
<g id="edge11" class="edge">
<title>UtilityModule&#45;&gt;MenuComponent </title>
<path fill="none" stroke="#000000" stroke-dasharray="5,2" d="M389.7313,-180C349.5487,-180 298.875,-180 298.875,-180 298.875,-180 298.875,-205.7181 298.875,-205.7181"/>
<polygon fill="#000000" stroke="#000000" points="295.3751,-205.718 298.875,-215.7181 302.3751,-205.7181 295.3751,-205.718"/>
</g>
<!-- LoginFormComponent  -->
<g id="node13" class="node">
<title>LoginFormComponent </title>
<polygon fill="#fb8072" stroke="#000000" points="172.1099,-252 23.8901,-252 23.8901,-216 172.1099,-216 172.1099,-252"/>
<text text-anchor="middle" x="98" y="-229.8" font-family="Times,serif" font-size="14.00" fill="#000000">LoginFormComponent </text>
</g>
<!-- UtilityModule&#45;&gt;LoginFormComponent  -->
<g id="edge12" class="edge">
<title>UtilityModule&#45;&gt;LoginFormComponent </title>
<path fill="none" stroke="#000000" stroke-dasharray="5,2" d="M389.6907,-173C307.5262,-173 149.375,-173 149.375,-173 149.375,-173 149.375,-205.698 149.375,-205.698"/>
<polygon fill="#000000" stroke="#000000" points="145.8751,-205.698 149.375,-215.698 152.8751,-205.698 145.8751,-205.698"/>
</g>
<!-- IoModule -->
<g id="node7" class="node">
<title>IoModule</title>
<polygon fill="#8dd3c7" stroke="#000000" points="101.7107,-122 98.7107,-126 77.7107,-126 74.7107,-122 30.2893,-122 30.2893,-86 101.7107,-86 101.7107,-122"/>
<text text-anchor="middle" x="66" y="-99.8" font-family="Times,serif" font-size="14.00" fill="#000000">IoModule</text>
</g>
<!-- IoModule&#45;&gt;UtilityModule -->
<g id="edge6" class="edge">
<title>IoModule&#45;&gt;UtilityModule</title>
<path fill="none" stroke="#000000" d="M66,-122.2667C66,-140.5552 66,-166 66,-166 66,-166 379.7489,-166 379.7489,-166"/>
<polygon fill="#000000" stroke="#000000" points="379.7489,-169.5001 389.7489,-166 379.7488,-162.5001 379.7489,-169.5001"/>
</g>
</g>
</svg>
