<?xml version="1.0" encoding="UTF-8" standalone="no"?>
<!DOCTYPE svg PUBLIC "-//W3C//DTD SVG 1.1//EN"
 "http://www.w3.org/Graphics/SVG/1.1/DTD/svg11.dtd">
<!-- Generated by graphviz version 2.40.1 (20161225.0304)
 -->
<!-- Title: dependencies Pages: 1 -->
<svg width="960pt" height="284pt"
 viewBox="0.00 0.00 960.00 284.00" xmlns="http://www.w3.org/2000/svg" xmlns:xlink="http://www.w3.org/1999/xlink">
<g id="graph0" class="graph" transform="scale(1 1) rotate(0) translate(4 280)">
<title>dependencies</title>
<polygon fill="#ffffff" stroke="transparent" points="-4,4 -4,-280 956,-280 956,4 -4,4"/>
<text text-anchor="start" x="455.0091" y="-42.4" font-family="sans-serif" font-weight="bold" font-size="14.00" fill="#000000">Legend</text>
<polygon fill="#ffffb3" stroke="transparent" points="242,-10 242,-30 262,-30 262,-10 242,-10"/>
<text text-anchor="start" x="265.629" y="-15.4" font-family="sans-serif" font-size="14.00" fill="#000000"> &#160;Declarations</text>
<polygon fill="#8dd3c7" stroke="transparent" points="355,-10 355,-30 375,-30 375,-10 355,-10"/>
<text text-anchor="start" x="378.7251" y="-15.4" font-family="sans-serif" font-size="14.00" fill="#000000"> &#160;Module</text>
<polygon fill="#80b1d3" stroke="transparent" points="441,-10 441,-30 461,-30 461,-10 441,-10"/>
<text text-anchor="start" x="464.7812" y="-15.4" font-family="sans-serif" font-size="14.00" fill="#000000"> &#160;Bootstrap</text>
<polygon fill="#fdb462" stroke="transparent" points="538,-10 538,-30 558,-30 558,-10 538,-10"/>
<text text-anchor="start" x="561.6732" y="-15.4" font-family="sans-serif" font-size="14.00" fill="#000000"> &#160;Providers</text>
<polygon fill="#fb8072" stroke="transparent" points="634,-10 634,-30 654,-30 654,-10 634,-10"/>
<text text-anchor="start" x="657.7258" y="-15.4" font-family="sans-serif" font-size="14.00" fill="#000000"> &#160;Exports</text>
<g id="clust1" class="cluster">
<title>cluster_UtilityModule</title>
<polygon fill="none" stroke="#000000" stroke-dasharray="1,5" points="8,-70 8,-268 944,-268 944,-70 8,-70"/>
</g>
<g id="clust2" class="cluster">
<title>cluster_UtilityModule_declarations</title>
<polygon fill="none" stroke="#000000" points="129,-78 129,-130 936,-130 936,-78 129,-78"/>
</g>
<g id="clust9" class="cluster">
<title>cluster_UtilityModule_imports</title>
<polygon fill="none" stroke="#000000" points="33,-78 33,-130 121,-130 121,-78 33,-78"/>
</g>
<g id="clust10" class="cluster">
<title>cluster_UtilityModule_exports</title>
<polygon fill="none" stroke="#000000" points="16,-208 16,-260 936,-260 936,-208 16,-208"/>
</g>
<!-- FocusDirective -->
<g id="node1" class="node">
<title>FocusDirective</title>
<polygon fill="#ffffb3" stroke="#000000" points="927.5257,-122 826.4743,-122 826.4743,-86 927.5257,-86 927.5257,-122"/>
<text text-anchor="middle" x="877" y="-99.8" font-family="Times,serif" font-size="14.00" fill="#000000">FocusDirective</text>
</g>
<!-- UtilityModule -->
<g id="node7" class="node">
<title>UtilityModule</title>
<polygon fill="#8dd3c7" stroke="#000000" points="515.1095,-187 512.1095,-191 491.1095,-191 488.1095,-187 418.8905,-187 418.8905,-151 515.1095,-151 515.1095,-187"/>
<text text-anchor="middle" x="467" y="-164.8" font-family="Times,serif" font-size="14.00" fill="#000000">UtilityModule</text>
</g>
<!-- FocusDirective&#45;&gt;UtilityModule -->
<g id="edge1" class="edge">
<title>FocusDirective&#45;&gt;UtilityModule</title>
<path fill="none" stroke="#000000" d="M859.9959,-122.2222C859.9959,-140.8285 859.9959,-167 859.9959,-167 859.9959,-167 525.189,-167 525.189,-167"/>
<polygon fill="#000000" stroke="#000000" points="525.189,-163.5001 515.189,-167 525.189,-170.5001 525.189,-163.5001"/>
</g>
<!-- LoginFormComponent -->
<g id="node2" class="node">
<title>LoginFormComponent</title>
<polygon fill="#ffffb3" stroke="#000000" points="808.6094,-122 663.3906,-122 663.3906,-86 808.6094,-86 808.6094,-122"/>
<text text-anchor="middle" x="736" y="-99.8" font-family="Times,serif" font-size="14.00" fill="#000000">LoginFormComponent</text>
</g>
<!-- LoginFormComponent&#45;&gt;UtilityModule -->
<g id="edge2" class="edge">
<title>LoginFormComponent&#45;&gt;UtilityModule</title>
<path fill="none" stroke="#000000" d="M687.375,-122.0336C687.375,-139.0597 687.375,-162 687.375,-162 687.375,-162 525.0899,-162 525.0899,-162"/>
<polygon fill="#000000" stroke="#000000" points="525.0899,-158.5001 515.0899,-162 525.0899,-165.5001 525.0899,-158.5001"/>
</g>
<!-- MenuComponent -->
<g id="node3" class="node">
<title>MenuComponent</title>
<polygon fill="#ffffb3" stroke="#000000" points="644.9916,-122 531.0084,-122 531.0084,-86 644.9916,-86 644.9916,-122"/>
<text text-anchor="middle" x="588" y="-99.8" font-family="Times,serif" font-size="14.00" fill="#000000">MenuComponent</text>
</g>
<!-- MenuComponent&#45;&gt;UtilityModule -->
<g id="edge3" class="edge">
<title>MenuComponent&#45;&gt;UtilityModule</title>
<path fill="none" stroke="#000000" d="M537.875,-122.2396C537.875,-137.5706 537.875,-157 537.875,-157 537.875,-157 525.0596,-157 525.0596,-157"/>
<polygon fill="#000000" stroke="#000000" points="525.0596,-153.5001 515.0596,-157 525.0595,-160.5001 525.0596,-153.5001"/>
</g>
<!-- MockupComponent -->
<g id="node4" class="node">
<title>MockupComponent</title>
<polygon fill="#ffffb3" stroke="#000000" points="512.9916,-122 385.0084,-122 385.0084,-86 512.9916,-86 512.9916,-122"/>
<text text-anchor="middle" x="449" y="-99.8" font-family="Times,serif" font-size="14.00" fill="#000000">MockupComponent</text>
</g>
<!-- MockupComponent&#45;&gt;UtilityModule -->
<g id="edge4" class="edge">
<title>MockupComponent&#45;&gt;UtilityModule</title>
<path fill="none" stroke="#000000" d="M465.9706,-122.1061C465.9706,-122.1061 465.9706,-140.991 465.9706,-140.991"/>
<polygon fill="#000000" stroke="#000000" points="462.4706,-140.9909 465.9706,-150.991 469.4706,-140.991 462.4706,-140.9909"/>
</g>
<!-- TabComponent -->
<g id="node5" class="node">
<title>TabComponent</title>
<polygon fill="#ffffb3" stroke="#000000" points="366.5996,-122 263.4004,-122 263.4004,-86 366.5996,-86 366.5996,-122"/>
<text text-anchor="middle" x="315" y="-99.8" font-family="Times,serif" font-size="14.00" fill="#000000">TabComponent</text>
</g>
<!-- TabComponent&#45;&gt;UtilityModule -->
<g id="edge5" class="edge">
<title>TabComponent&#45;&gt;UtilityModule</title>
<path fill="none" stroke="#000000" d="M322.402,-122.2396C322.402,-137.5706 322.402,-157 322.402,-157 322.402,-157 408.851,-157 408.851,-157"/>
<polygon fill="#000000" stroke="#000000" points="408.851,-160.5001 418.851,-157 408.8509,-153.5001 408.851,-160.5001"/>
</g>
<!-- TabsComponent -->
<g id="node6" class="node">
<title>TabsComponent</title>
<polygon fill="#ffffb3" stroke="#000000" points="245.0452,-122 136.9548,-122 136.9548,-86 245.0452,-86 245.0452,-122"/>
<text text-anchor="middle" x="191" y="-99.8" font-family="Times,serif" font-size="14.00" fill="#000000">TabsComponent</text>
</g>
<!-- TabsComponent&#45;&gt;UtilityModule -->
<g id="edge6" class="edge">
<title>TabsComponent&#45;&gt;UtilityModule</title>
<path fill="none" stroke="#000000" d="M199.4862,-122.0225C199.4862,-139.3734 199.4862,-163 199.4862,-163 199.4862,-163 408.8649,-163 408.8649,-163"/>
<polygon fill="#000000" stroke="#000000" points="408.865,-166.5001 418.8649,-163 408.8649,-159.5001 408.865,-166.5001"/>
</g>
<!-- FocusDirective  -->
<g id="node9" class="node">
<title>FocusDirective </title>
<polygon fill="#fb8072" stroke="#000000" points="927.5246,-252 822.4754,-252 822.4754,-216 927.5246,-216 927.5246,-252"/>
<text text-anchor="middle" x="875" y="-229.8" font-family="Times,serif" font-size="14.00" fill="#000000">FocusDirective </text>
</g>
<!-- UtilityModule&#45;&gt;FocusDirective  -->
<g id="edge8" class="edge">
<title>UtilityModule&#45;&gt;FocusDirective </title>
<path fill="none" stroke="#000000" stroke-dasharray="5,2" d="M515.1246,-172C626.7316,-172 893.7541,-172 893.7541,-172 893.7541,-172 893.7541,-205.7333 893.7541,-205.7333"/>
<polygon fill="#000000" stroke="#000000" points="890.2542,-205.7333 893.7541,-215.7333 897.2542,-205.7333 890.2542,-205.7333"/>
</g>
<!-- IoModule  -->
<g id="node10" class="node">
<title>IoModule </title>
<polygon fill="#fb8072" stroke="#000000" points="804.211,-252 729.789,-252 729.789,-216 804.211,-216 804.211,-252"/>
<text text-anchor="middle" x="767" y="-229.8" font-family="Times,serif" font-size="14.00" fill="#000000">IoModule </text>
</g>
<!-- UtilityModule&#45;&gt;IoModule  -->
<g id="edge9" class="edge">
<title>UtilityModule&#45;&gt;IoModule </title>
<path fill="none" stroke="#000000" stroke-dasharray="5,2" d="M515.2002,-177C600.0032,-177 767,-177 767,-177 767,-177 767,-205.9648 767,-205.9648"/>
<polygon fill="#000000" stroke="#000000" points="763.5001,-205.9648 767,-215.9648 770.5001,-205.9649 763.5001,-205.9648"/>
</g>
<!-- LoginFormComponent  -->
<g id="node11" class="node">
<title>LoginFormComponent </title>
<polygon fill="#fb8072" stroke="#000000" points="711.1099,-252 562.8901,-252 562.8901,-216 711.1099,-216 711.1099,-252"/>
<text text-anchor="middle" x="637" y="-229.8" font-family="Times,serif" font-size="14.00" fill="#000000">LoginFormComponent </text>
</g>
<!-- UtilityModule&#45;&gt;LoginFormComponent  -->
<g id="edge10" class="edge">
<title>UtilityModule&#45;&gt;LoginFormComponent </title>
<path fill="none" stroke="#000000" stroke-dasharray="5,2" d="M515.2466,-182C554.6453,-182 603.8456,-182 603.8456,-182 603.8456,-182 603.8456,-205.8129 603.8456,-205.8129"/>
<polygon fill="#000000" stroke="#000000" points="600.3456,-205.8129 603.8456,-215.8129 607.3456,-205.813 600.3456,-205.8129"/>
</g>
<!-- MenuComponent  -->
<g id="node12" class="node">
<title>MenuComponent </title>
<polygon fill="#fb8072" stroke="#000000" points="544.9926,-252 427.0074,-252 427.0074,-216 544.9926,-216 544.9926,-252"/>
<text text-anchor="middle" x="486" y="-229.8" font-family="Times,serif" font-size="14.00" fill="#000000">MenuComponent </text>
</g>
<!-- UtilityModule&#45;&gt;MenuComponent  -->
<g id="edge11" class="edge">
<title>UtilityModule&#45;&gt;MenuComponent </title>
<path fill="none" stroke="#000000" stroke-dasharray="5,2" d="M471.1545,-187.1061C471.1545,-187.1061 471.1545,-205.991 471.1545,-205.991"/>
<polygon fill="#000000" stroke="#000000" points="467.6545,-205.9909 471.1545,-215.991 474.6545,-205.991 467.6545,-205.9909"/>
</g>
<!-- MockupComponent  -->
<g id="node13" class="node">
<title>MockupComponent </title>
<polygon fill="#fb8072" stroke="#000000" points="409.9925,-252 278.0075,-252 278.0075,-216 409.9925,-216 409.9925,-252"/>
<text text-anchor="middle" x="344" y="-229.8" font-family="Times,serif" font-size="14.00" fill="#000000">MockupComponent </text>
</g>
<!-- UtilityModule&#45;&gt;MockupComponent  -->
<g id="edge12" class="edge">
<title>UtilityModule&#45;&gt;MockupComponent </title>
<path fill="none" stroke="#000000" stroke-dasharray="5,2" d="M423.0998,-187.1061C423.0998,-206.3391 423.0998,-234 423.0998,-234 423.0998,-234 420.038,-234 420.038,-234"/>
<polygon fill="#000000" stroke="#000000" points="420.0381,-230.5001 410.038,-234 420.038,-237.5001 420.0381,-230.5001"/>
</g>
<!-- TabComponent  -->
<g id="node14" class="node">
<title>TabComponent </title>
<polygon fill="#fb8072" stroke="#000000" points="260.1003,-252 153.8997,-252 153.8997,-216 260.1003,-216 260.1003,-252"/>
<text text-anchor="middle" x="207" y="-229.8" font-family="Times,serif" font-size="14.00" fill="#000000">TabComponent </text>
</g>
<!-- UtilityModule&#45;&gt;TabComponent  -->
<g id="edge13" class="edge">
<title>UtilityModule&#45;&gt;TabComponent </title>
<path fill="none" stroke="#000000" stroke-dasharray="5,2" d="M418.9262,-181C355.7688,-181 252.786,-181 252.786,-181 252.786,-181 252.786,-205.7604 252.786,-205.7604"/>
<polygon fill="#000000" stroke="#000000" points="249.286,-205.7604 252.786,-215.7604 256.286,-205.7604 249.286,-205.7604"/>
</g>
<!-- TabsComponent  -->
<g id="node15" class="node">
<title>TabsComponent </title>
<polygon fill="#fb8072" stroke="#000000" points="136.0442,-252 23.9558,-252 23.9558,-216 136.0442,-216 136.0442,-252"/>
<text text-anchor="middle" x="80" y="-229.8" font-family="Times,serif" font-size="14.00" fill="#000000">TabsComponent </text>
</g>
<!-- UtilityModule&#45;&gt;TabsComponent  -->
<g id="edge14" class="edge">
<title>UtilityModule&#45;&gt;TabsComponent </title>
<path fill="none" stroke="#000000" stroke-dasharray="5,2" d="M418.6282,-175C324.1665,-175 124.3137,-175 124.3137,-175 124.3137,-175 124.3137,-205.9775 124.3137,-205.9775"/>
<polygon fill="#000000" stroke="#000000" points="120.8137,-205.9774 124.3137,-215.9775 127.8137,-205.9775 120.8137,-205.9774"/>
</g>
<!-- IoModule -->
<g id="node8" class="node">
<title>IoModule</title>
<polygon fill="#8dd3c7" stroke="#000000" points="112.7107,-122 109.7107,-126 88.7107,-126 85.7107,-122 41.2893,-122 41.2893,-86 112.7107,-86 112.7107,-122"/>
<text text-anchor="middle" x="77" y="-99.8" font-family="Times,serif" font-size="14.00" fill="#000000">IoModule</text>
</g>
<!-- IoModule&#45;&gt;UtilityModule -->
<g id="edge7" class="edge">
<title>IoModule&#45;&gt;UtilityModule</title>
<path fill="none" stroke="#000000" d="M77,-122.1061C77,-141.3391 77,-169 77,-169 77,-169 408.7872,-169 408.7872,-169"/>
<polygon fill="#000000" stroke="#000000" points="408.7872,-172.5001 418.7872,-169 408.7872,-165.5001 408.7872,-172.5001"/>
</g>
</g>
</svg>
