<?xml version="1.0" encoding="UTF-8" standalone="no"?>
<!DOCTYPE svg PUBLIC "-//W3C//DTD SVG 1.1//EN"
 "http://www.w3.org/Graphics/SVG/1.1/DTD/svg11.dtd">
<!-- Generated by graphviz version 2.40.1 (20161225.0304)
 -->
<!-- Title: dependencies Pages: 1 -->
<svg width="558pt" height="284pt"
 viewBox="0.00 0.00 558.00 284.00" xmlns="http://www.w3.org/2000/svg" xmlns:xlink="http://www.w3.org/1999/xlink">
<g id="graph0" class="graph" transform="scale(1 1) rotate(0) translate(4 280)">
<title>dependencies</title>
<polygon fill="#ffffff" stroke="transparent" points="-4,4 -4,-280 554,-280 554,4 -4,4"/>
<text text-anchor="start" x="254.0091" y="-42.4" font-family="sans-serif" font-weight="bold" font-size="14.00" fill="#000000">Legend</text>
<polygon fill="#ffffb3" stroke="transparent" points="41,-10 41,-30 61,-30 61,-10 41,-10"/>
<text text-anchor="start" x="64.629" y="-15.4" font-family="sans-serif" font-size="14.00" fill="#000000"> &#160;Declarations</text>
<polygon fill="#8dd3c7" stroke="transparent" points="154,-10 154,-30 174,-30 174,-10 154,-10"/>
<text text-anchor="start" x="177.7251" y="-15.4" font-family="sans-serif" font-size="14.00" fill="#000000"> &#160;Module</text>
<polygon fill="#80b1d3" stroke="transparent" points="240,-10 240,-30 260,-30 260,-10 240,-10"/>
<text text-anchor="start" x="263.7812" y="-15.4" font-family="sans-serif" font-size="14.00" fill="#000000"> &#160;Bootstrap</text>
<polygon fill="#fdb462" stroke="transparent" points="337,-10 337,-30 357,-30 357,-10 337,-10"/>
<text text-anchor="start" x="360.6732" y="-15.4" font-family="sans-serif" font-size="14.00" fill="#000000"> &#160;Providers</text>
<polygon fill="#fb8072" stroke="transparent" points="433,-10 433,-30 453,-30 453,-10 433,-10"/>
<text text-anchor="start" x="456.7258" y="-15.4" font-family="sans-serif" font-size="14.00" fill="#000000"> &#160;Exports</text>
<g id="clust1" class="cluster">
<title>cluster_VcModule</title>
<polygon fill="none" stroke="#000000" stroke-dasharray="1,5" points="8,-70 8,-268 542,-268 542,-70 8,-70"/>
</g>
<g id="clust2" class="cluster">
<title>cluster_VcModule_declarations</title>
<polygon fill="none" stroke="#000000" points="146,-78 146,-130 534,-130 534,-78 146,-78"/>
</g>
<g id="clust6" class="cluster">
<title>cluster_VcModule_imports</title>
<polygon fill="none" stroke="#000000" points="16,-78 16,-130 138,-130 138,-78 16,-78"/>
</g>
<g id="clust7" class="cluster">
<title>cluster_VcModule_exports</title>
<polygon fill="none" stroke="#000000" points="75,-208 75,-260 474,-260 474,-208 75,-208"/>
</g>
<!-- EditorComponent -->
<g id="node1" class="node">
<title>EditorComponent</title>
<polygon fill="#ffffb3" stroke="#000000" points="526.3273,-122 409.6727,-122 409.6727,-86 526.3273,-86 526.3273,-122"/>
<text text-anchor="middle" x="468" y="-99.8" font-family="Times,serif" font-size="14.00" fill="#000000">EditorComponent</text>
</g>
<!-- VcModule -->
<g id="node4" class="node">
<title>VcModule</title>
<polygon fill="#8dd3c7" stroke="#000000" points="301.8711,-187 298.8711,-191 277.8711,-191 274.8711,-187 226.1289,-187 226.1289,-151 301.8711,-151 301.8711,-187"/>
<text text-anchor="middle" x="264" y="-164.8" font-family="Times,serif" font-size="14.00" fill="#000000">VcModule</text>
</g>
<!-- EditorComponent&#45;&gt;VcModule -->
<g id="edge1" class="edge">
<title>EditorComponent&#45;&gt;VcModule</title>
<path fill="none" stroke="#000000" d="M437.875,-122.0225C437.875,-139.3734 437.875,-163 437.875,-163 437.875,-163 312.1576,-163 312.1576,-163"/>
<polygon fill="#000000" stroke="#000000" points="312.1576,-159.5001 302.1576,-163 312.1576,-166.5001 312.1576,-159.5001"/>
</g>
<!-- ToolbarComponent -->
<g id="node2" class="node">
<title>ToolbarComponent</title>
<polygon fill="#ffffb3" stroke="#000000" points="391.6513,-122 266.3487,-122 266.3487,-86 391.6513,-86 391.6513,-122"/>
<text text-anchor="middle" x="329" y="-99.8" font-family="Times,serif" font-size="14.00" fill="#000000">ToolbarComponent</text>
</g>
<!-- ToolbarComponent&#45;&gt;VcModule -->
<g id="edge2" class="edge">
<title>ToolbarComponent&#45;&gt;VcModule</title>
<path fill="none" stroke="#000000" d="M284.0551,-122.1061C284.0551,-122.1061 284.0551,-140.991 284.0551,-140.991"/>
<polygon fill="#000000" stroke="#000000" points="280.5551,-140.9909 284.0551,-150.991 287.5551,-140.991 280.5551,-140.9909"/>
</g>
<!-- SafeHtmlPipe -->
<g id="node3" class="node">
<title>SafeHtmlPipe</title>
<polygon fill="#ffffb3" stroke="#000000" points="248.0397,-122 153.9603,-122 153.9603,-86 248.0397,-86 248.0397,-122"/>
<text text-anchor="middle" x="201" y="-99.8" font-family="Times,serif" font-size="14.00" fill="#000000">SafeHtmlPipe</text>
</g>
<!-- SafeHtmlPipe&#45;&gt;VcModule -->
<g id="edge3" class="edge">
<title>SafeHtmlPipe&#45;&gt;VcModule</title>
<path fill="none" stroke="#000000" d="M237.1669,-122.1061C237.1669,-122.1061 237.1669,-140.991 237.1669,-140.991"/>
<polygon fill="#000000" stroke="#000000" points="233.667,-140.9909 237.1669,-150.991 240.667,-140.991 233.667,-140.9909"/>
</g>
<!-- EditorComponent  -->
<g id="node6" class="node">
<title>EditorComponent </title>
<polygon fill="#fb8072" stroke="#000000" points="465.8269,-252 346.1731,-252 346.1731,-216 465.8269,-216 465.8269,-252"/>
<text text-anchor="middle" x="406" y="-229.8" font-family="Times,serif" font-size="14.00" fill="#000000">EditorComponent </text>
</g>
<!-- VcModule&#45;&gt;EditorComponent  -->
<g id="edge5" class="edge">
<title>VcModule&#45;&gt;EditorComponent </title>
<path fill="none" stroke="#000000" stroke-dasharray="5,2" d="M301.8915,-175C331.9549,-175 368.956,-175 368.956,-175 368.956,-175 368.956,-205.9775 368.956,-205.9775"/>
<polygon fill="#000000" stroke="#000000" points="365.4561,-205.9774 368.956,-215.9775 372.4561,-205.9775 365.4561,-205.9774"/>
</g>
<!-- ToolbarComponent  -->
<g id="node7" class="node">
<title>ToolbarComponent </title>
<polygon fill="#fb8072" stroke="#000000" points="328.6509,-252 199.3491,-252 199.3491,-216 328.6509,-216 328.6509,-252"/>
<text text-anchor="middle" x="264" y="-229.8" font-family="Times,serif" font-size="14.00" fill="#000000">ToolbarComponent </text>
</g>
<!-- VcModule&#45;&gt;ToolbarComponent  -->
<g id="edge6" class="edge">
<title>VcModule&#45;&gt;ToolbarComponent </title>
<path fill="none" stroke="#000000" stroke-dasharray="5,2" d="M264,-187.1061C264,-187.1061 264,-205.991 264,-205.991"/>
<polygon fill="#000000" stroke="#000000" points="260.5001,-205.9909 264,-215.991 267.5001,-205.991 260.5001,-205.9909"/>
</g>
<!-- SafeHtmlPipe  -->
<g id="node8" class="node">
<title>SafeHtmlPipe </title>
<polygon fill="#fb8072" stroke="#000000" points="181.0386,-252 82.9614,-252 82.9614,-216 181.0386,-216 181.0386,-252"/>
<text text-anchor="middle" x="132" y="-229.8" font-family="Times,serif" font-size="14.00" fill="#000000">SafeHtmlPipe </text>
</g>
<!-- VcModule&#45;&gt;SafeHtmlPipe  -->
<g id="edge7" class="edge">
<title>VcModule&#45;&gt;SafeHtmlPipe </title>
<path fill="none" stroke="#000000" stroke-dasharray="5,2" d="M226.0886,-175C199.0185,-175 167.375,-175 167.375,-175 167.375,-175 167.375,-205.9775 167.375,-205.9775"/>
<polygon fill="#000000" stroke="#000000" points="163.8751,-205.9774 167.375,-215.9775 170.8751,-205.9775 163.8751,-205.9774"/>
</g>
<!-- BrowserModule -->
<g id="node5" class="node">
<title>BrowserModule</title>
<polygon fill="#8dd3c7" stroke="#000000" points="130.4734,-122 127.4734,-126 106.4734,-126 103.4734,-122 23.5266,-122 23.5266,-86 130.4734,-86 130.4734,-122"/>
<text text-anchor="middle" x="77" y="-99.8" font-family="Times,serif" font-size="14.00" fill="#000000">BrowserModule</text>
</g>
<!-- BrowserModule&#45;&gt;VcModule -->
<g id="edge4" class="edge">
<title>BrowserModule&#45;&gt;VcModule</title>
<path fill="none" stroke="#000000" d="M106.7337,-122.0225C106.7337,-139.3734 106.7337,-163 106.7337,-163 106.7337,-163 215.9302,-163 215.9302,-163"/>
<polygon fill="#000000" stroke="#000000" points="215.9303,-166.5001 225.9302,-163 215.9302,-159.5001 215.9303,-166.5001"/>
</g>
</g>
</svg>
