<?xml version="1.0" encoding="UTF-8" standalone="no"?>
<!DOCTYPE svg PUBLIC "-//W3C//DTD SVG 1.1//EN"
 "http://www.w3.org/Graphics/SVG/1.1/DTD/svg11.dtd">
<!-- Generated by graphviz version 2.40.1 (20161225.0304)
 -->
<!-- Title: dependencies Pages: 1 -->
<svg width="504pt" height="284pt"
 viewBox="0.00 0.00 504.00 284.00" xmlns="http://www.w3.org/2000/svg" xmlns:xlink="http://www.w3.org/1999/xlink">
<g id="graph0" class="graph" transform="scale(1 1) rotate(0) translate(4 280)">
<title>dependencies</title>
<polygon fill="#ffffff" stroke="transparent" points="-4,4 -4,-280 500,-280 500,4 -4,4"/>
<text text-anchor="start" x="227.0091" y="-42.4" font-family="sans-serif" font-weight="bold" font-size="14.00" fill="#000000">Legend</text>
<polygon fill="#ffffb3" stroke="transparent" points="14,-10 14,-30 34,-30 34,-10 14,-10"/>
<text text-anchor="start" x="37.629" y="-15.4" font-family="sans-serif" font-size="14.00" fill="#000000"> &#160;Declarations</text>
<polygon fill="#8dd3c7" stroke="transparent" points="127,-10 127,-30 147,-30 147,-10 127,-10"/>
<text text-anchor="start" x="150.7251" y="-15.4" font-family="sans-serif" font-size="14.00" fill="#000000"> &#160;Module</text>
<polygon fill="#80b1d3" stroke="transparent" points="213,-10 213,-30 233,-30 233,-10 213,-10"/>
<text text-anchor="start" x="236.7812" y="-15.4" font-family="sans-serif" font-size="14.00" fill="#000000"> &#160;Bootstrap</text>
<polygon fill="#fdb462" stroke="transparent" points="310,-10 310,-30 330,-30 330,-10 310,-10"/>
<text text-anchor="start" x="333.6732" y="-15.4" font-family="sans-serif" font-size="14.00" fill="#000000"> &#160;Providers</text>
<polygon fill="#fb8072" stroke="transparent" points="406,-10 406,-30 426,-30 426,-10 406,-10"/>
<text text-anchor="start" x="429.7258" y="-15.4" font-family="sans-serif" font-size="14.00" fill="#000000"> &#160;Exports</text>
<g id="clust1" class="cluster">
<title>cluster_VcModule</title>
<polygon fill="none" stroke="#000000" stroke-dasharray="1,5" points="40,-70 40,-268 456,-268 456,-70 40,-70"/>
</g>
<g id="clust2" class="cluster">
<title>cluster_VcModule_declarations</title>
<polygon fill="none" stroke="#000000" points="54,-78 54,-130 442,-130 442,-78 54,-78"/>
</g>
<g id="clust7" class="cluster">
<title>cluster_VcModule_exports</title>
<polygon fill="none" stroke="#000000" points="48,-208 48,-260 448,-260 448,-208 48,-208"/>
</g>
<!-- EditorComponent -->
<g id="node1" class="node">
<title>EditorComponent</title>
<polygon fill="#ffffb3" stroke="#000000" points="434.3273,-122 317.6727,-122 317.6727,-86 434.3273,-86 434.3273,-122"/>
<text text-anchor="middle" x="376" y="-99.8" font-family="Times,serif" font-size="14.00" fill="#000000">EditorComponent</text>
</g>
<!-- VcModule -->
<g id="node4" class="node">
<title>VcModule</title>
<polygon fill="#8dd3c7" stroke="#000000" points="290.8711,-187 287.8711,-191 266.8711,-191 263.8711,-187 215.1289,-187 215.1289,-151 290.8711,-151 290.8711,-187"/>
<text text-anchor="middle" x="253" y="-164.8" font-family="Times,serif" font-size="14.00" fill="#000000">VcModule</text>
</g>
<!-- EditorComponent&#45;&gt;VcModule -->
<g id="edge1" class="edge">
<title>EditorComponent&#45;&gt;VcModule</title>
<path fill="none" stroke="#000000" d="M396.1378,-122.0225C396.1378,-139.3734 396.1378,-163 396.1378,-163 396.1378,-163 300.9825,-163 300.9825,-163"/>
<polygon fill="#000000" stroke="#000000" points="300.9825,-159.5001 290.9825,-163 300.9825,-166.5001 300.9825,-159.5001"/>
</g>
<!-- SafeHtmlPipe -->
<g id="node2" class="node">
<title>SafeHtmlPipe</title>
<polygon fill="#ffffb3" stroke="#000000" points="300.0397,-122 205.9603,-122 205.9603,-86 300.0397,-86 300.0397,-122"/>
<text text-anchor="middle" x="253" y="-99.8" font-family="Times,serif" font-size="14.00" fill="#000000">SafeHtmlPipe</text>
</g>
<!-- SafeHtmlPipe&#45;&gt;VcModule -->
<g id="edge2" class="edge">
<title>SafeHtmlPipe&#45;&gt;VcModule</title>
<path fill="none" stroke="#000000" d="M253,-122.1061C253,-122.1061 253,-140.991 253,-140.991"/>
<polygon fill="#000000" stroke="#000000" points="249.5001,-140.9909 253,-150.991 256.5001,-140.991 249.5001,-140.9909"/>
</g>
<!-- ToolbarComponent -->
<g id="node3" class="node">
<title>ToolbarComponent</title>
<polygon fill="#ffffb3" stroke="#000000" points="187.6513,-122 62.3487,-122 62.3487,-86 187.6513,-86 187.6513,-122"/>
<text text-anchor="middle" x="125" y="-99.8" font-family="Times,serif" font-size="14.00" fill="#000000">ToolbarComponent</text>
</g>
<!-- ToolbarComponent&#45;&gt;VcModule -->
<g id="edge3" class="edge">
<title>ToolbarComponent&#45;&gt;VcModule</title>
<path fill="none" stroke="#000000" d="M144.4418,-122.0225C144.4418,-139.3734 144.4418,-163 144.4418,-163 144.4418,-163 205.0316,-163 205.0316,-163"/>
<polygon fill="#000000" stroke="#000000" points="205.0316,-166.5001 215.0316,-163 205.0316,-159.5001 205.0316,-166.5001"/>
</g>
<!-- EditorComponent  -->
<g id="node5" class="node">
<title>EditorComponent </title>
<polygon fill="#fb8072" stroke="#000000" points="439.8269,-252 320.1731,-252 320.1731,-216 439.8269,-216 439.8269,-252"/>
<text text-anchor="middle" x="380" y="-229.8" font-family="Times,serif" font-size="14.00" fill="#000000">EditorComponent </text>
</g>
<!-- VcModule&#45;&gt;EditorComponent  -->
<g id="edge4" class="edge">
<title>VcModule&#45;&gt;EditorComponent </title>
<path fill="none" stroke="#000000" stroke-dasharray="5,2" d="M290.9479,-175C321.056,-175 358.1122,-175 358.1122,-175 358.1122,-175 358.1122,-205.9775 358.1122,-205.9775"/>
<polygon fill="#000000" stroke="#000000" points="354.6123,-205.9774 358.1122,-215.9775 361.6123,-205.9775 354.6123,-205.9774"/>
</g>
<!-- SafeHtmlPipe  -->
<g id="node6" class="node">
<title>SafeHtmlPipe </title>
<polygon fill="#fb8072" stroke="#000000" points="302.0386,-252 203.9614,-252 203.9614,-216 302.0386,-216 302.0386,-252"/>
<text text-anchor="middle" x="253" y="-229.8" font-family="Times,serif" font-size="14.00" fill="#000000">SafeHtmlPipe </text>
</g>
<!-- VcModule&#45;&gt;SafeHtmlPipe  -->
<g id="edge5" class="edge">
<title>VcModule&#45;&gt;SafeHtmlPipe </title>
<path fill="none" stroke="#000000" stroke-dasharray="5,2" d="M253,-187.1061C253,-187.1061 253,-205.991 253,-205.991"/>
<polygon fill="#000000" stroke="#000000" points="249.5001,-205.9909 253,-215.991 256.5001,-205.991 249.5001,-205.9909"/>
</g>
<!-- ToolbarComponent  -->
<g id="node7" class="node">
<title>ToolbarComponent </title>
<polygon fill="#fb8072" stroke="#000000" points="185.6509,-252 56.3491,-252 56.3491,-216 185.6509,-216 185.6509,-252"/>
<text text-anchor="middle" x="121" y="-229.8" font-family="Times,serif" font-size="14.00" fill="#000000">ToolbarComponent </text>
</g>
<!-- VcModule&#45;&gt;ToolbarComponent  -->
<g id="edge6" class="edge">
<title>VcModule&#45;&gt;ToolbarComponent </title>
<path fill="none" stroke="#000000" stroke-dasharray="5,2" d="M214.8391,-175C170.4892,-175 103.3082,-175 103.3082,-175 103.3082,-175 103.3082,-205.9775 103.3082,-205.9775"/>
<polygon fill="#000000" stroke="#000000" points="99.8083,-205.9774 103.3082,-215.9775 106.8083,-205.9775 99.8083,-205.9774"/>
</g>
</g>
</svg>
