<?xml version="1.0" encoding="UTF-8" standalone="no"?>
<!DOCTYPE svg PUBLIC "-//W3C//DTD SVG 1.1//EN"
 "http://www.w3.org/Graphics/SVG/1.1/DTD/svg11.dtd">
<!-- Generated by graphviz version 2.40.1 (20161225.0304)
 -->
<!-- Title: dependencies Pages: 1 -->
<svg width="504pt" height="284pt"
 viewBox="0.00 0.00 504.00 284.00" xmlns="http://www.w3.org/2000/svg" xmlns:xlink="http://www.w3.org/1999/xlink">
<g id="graph0" class="graph" transform="scale(1 1) rotate(0) translate(4 280)">
<title>dependencies</title>
<polygon fill="#ffffff" stroke="transparent" points="-4,4 -4,-280 500,-280 500,4 -4,4"/>
<text text-anchor="start" x="227.0091" y="-42.4" font-family="sans-serif" font-weight="bold" font-size="14.00" fill="#000000">Legend</text>
<polygon fill="#ffffb3" stroke="transparent" points="14,-10 14,-30 34,-30 34,-10 14,-10"/>
<text text-anchor="start" x="37.629" y="-15.4" font-family="sans-serif" font-size="14.00" fill="#000000"> &#160;Declarations</text>
<polygon fill="#8dd3c7" stroke="transparent" points="127,-10 127,-30 147,-30 147,-10 127,-10"/>
<text text-anchor="start" x="150.7251" y="-15.4" font-family="sans-serif" font-size="14.00" fill="#000000"> &#160;Module</text>
<polygon fill="#80b1d3" stroke="transparent" points="213,-10 213,-30 233,-30 233,-10 213,-10"/>
<text text-anchor="start" x="236.7812" y="-15.4" font-family="sans-serif" font-size="14.00" fill="#000000"> &#160;Bootstrap</text>
<polygon fill="#fdb462" stroke="transparent" points="310,-10 310,-30 330,-30 330,-10 310,-10"/>
<text text-anchor="start" x="333.6732" y="-15.4" font-family="sans-serif" font-size="14.00" fill="#000000"> &#160;Providers</text>
<polygon fill="#fb8072" stroke="transparent" points="406,-10 406,-30 426,-30 426,-10 406,-10"/>
<text text-anchor="start" x="429.7258" y="-15.4" font-family="sans-serif" font-size="14.00" fill="#000000"> &#160;Exports</text>
<g id="clust1" class="cluster">
<title>cluster_VcModule</title>
<polygon fill="none" stroke="#000000" stroke-dasharray="1,5" points="40.5,-70 40.5,-268 455.5,-268 455.5,-70 40.5,-70"/>
</g>
<g id="clust2" class="cluster">
<title>cluster_VcModule_declarations</title>
<polygon fill="none" stroke="#000000" points="54.5,-78 54.5,-130 442.5,-130 442.5,-78 54.5,-78"/>
</g>
<g id="clust7" class="cluster">
<title>cluster_VcModule_exports</title>
<polygon fill="none" stroke="#000000" points="48.5,-208 48.5,-260 447.5,-260 447.5,-208 48.5,-208"/>
</g>
<!-- EditorComponent -->
<g id="node1" class="node">
<title>EditorComponent</title>
<polygon fill="#ffffb3" stroke="#000000" points="434.8273,-122 318.1727,-122 318.1727,-86 434.8273,-86 434.8273,-122"/>
<text text-anchor="middle" x="376.5" y="-99.8" font-family="Times,serif" font-size="14.00" fill="#000000">EditorComponent</text>
</g>
<!-- VcModule -->
<g id="node4" class="node">
<title>VcModule</title>
<polygon fill="#8dd3c7" stroke="#000000" points="275.3711,-187 272.3711,-191 251.3711,-191 248.3711,-187 199.6289,-187 199.6289,-151 275.3711,-151 275.3711,-187"/>
<text text-anchor="middle" x="237.5" y="-164.8" font-family="Times,serif" font-size="14.00" fill="#000000">VcModule</text>
</g>
<!-- EditorComponent&#45;&gt;VcModule -->
<g id="edge1" class="edge">
<title>EditorComponent&#45;&gt;VcModule</title>
<path fill="none" stroke="#000000" d="M396.3045,-122.0225C396.3045,-139.3734 396.3045,-163 396.3045,-163 396.3045,-163 285.5376,-163 285.5376,-163"/>
<polygon fill="#000000" stroke="#000000" points="285.5377,-159.5001 275.5376,-163 285.5376,-166.5001 285.5377,-159.5001"/>
</g>
<!-- ToolbarComponent -->
<g id="node2" class="node">
<title>ToolbarComponent</title>
<polygon fill="#ffffb3" stroke="#000000" points="300.1513,-122 174.8487,-122 174.8487,-86 300.1513,-86 300.1513,-122"/>
<text text-anchor="middle" x="237.5" y="-99.8" font-family="Times,serif" font-size="14.00" fill="#000000">ToolbarComponent</text>
</g>
<!-- ToolbarComponent&#45;&gt;VcModule -->
<g id="edge2" class="edge">
<title>ToolbarComponent&#45;&gt;VcModule</title>
<path fill="none" stroke="#000000" d="M237.5,-122.1061C237.5,-122.1061 237.5,-140.991 237.5,-140.991"/>
<polygon fill="#000000" stroke="#000000" points="234.0001,-140.9909 237.5,-150.991 241.0001,-140.991 234.0001,-140.9909"/>
</g>
<!-- SafeHtmlPipe -->
<g id="node3" class="node">
<title>SafeHtmlPipe</title>
<polygon fill="#ffffb3" stroke="#000000" points="156.5397,-122 62.4603,-122 62.4603,-86 156.5397,-86 156.5397,-122"/>
<text text-anchor="middle" x="109.5" y="-99.8" font-family="Times,serif" font-size="14.00" fill="#000000">SafeHtmlPipe</text>
</g>
<!-- SafeHtmlPipe&#45;&gt;VcModule -->
<g id="edge3" class="edge">
<title>SafeHtmlPipe&#45;&gt;VcModule</title>
<path fill="none" stroke="#000000" d="M123.7564,-122.0225C123.7564,-139.3734 123.7564,-163 123.7564,-163 123.7564,-163 189.625,-163 189.625,-163"/>
<polygon fill="#000000" stroke="#000000" points="189.6251,-166.5001 199.625,-163 189.625,-159.5001 189.6251,-166.5001"/>
</g>
<!-- EditorComponent  -->
<g id="node5" class="node">
<title>EditorComponent </title>
<polygon fill="#fb8072" stroke="#000000" points="439.3269,-252 319.6731,-252 319.6731,-216 439.3269,-216 439.3269,-252"/>
<text text-anchor="middle" x="379.5" y="-229.8" font-family="Times,serif" font-size="14.00" fill="#000000">EditorComponent </text>
</g>
<!-- VcModule&#45;&gt;EditorComponent  -->
<g id="edge4" class="edge">
<title>VcModule&#45;&gt;EditorComponent </title>
<path fill="none" stroke="#000000" stroke-dasharray="5,2" d="M275.6097,-175C310.8965,-175 357.9455,-175 357.9455,-175 357.9455,-175 357.9455,-205.9775 357.9455,-205.9775"/>
<polygon fill="#000000" stroke="#000000" points="354.4456,-205.9774 357.9455,-215.9775 361.4456,-205.9775 354.4456,-205.9774"/>
</g>
<!-- ToolbarComponent  -->
<g id="node6" class="node">
<title>ToolbarComponent </title>
<polygon fill="#fb8072" stroke="#000000" points="302.1509,-252 172.8491,-252 172.8491,-216 302.1509,-216 302.1509,-252"/>
<text text-anchor="middle" x="237.5" y="-229.8" font-family="Times,serif" font-size="14.00" fill="#000000">ToolbarComponent </text>
</g>
<!-- VcModule&#45;&gt;ToolbarComponent  -->
<g id="edge5" class="edge">
<title>VcModule&#45;&gt;ToolbarComponent </title>
<path fill="none" stroke="#000000" stroke-dasharray="5,2" d="M237.5,-187.1061C237.5,-187.1061 237.5,-205.991 237.5,-205.991"/>
<polygon fill="#000000" stroke="#000000" points="234.0001,-205.9909 237.5,-215.991 241.0001,-205.991 234.0001,-205.9909"/>
</g>
<!-- SafeHtmlPipe  -->
<g id="node7" class="node">
<title>SafeHtmlPipe </title>
<polygon fill="#fb8072" stroke="#000000" points="154.5386,-252 56.4614,-252 56.4614,-216 154.5386,-216 154.5386,-252"/>
<text text-anchor="middle" x="105.5" y="-229.8" font-family="Times,serif" font-size="14.00" fill="#000000">SafeHtmlPipe </text>
</g>
<!-- VcModule&#45;&gt;SafeHtmlPipe  -->
<g id="edge6" class="edge">
<title>VcModule&#45;&gt;SafeHtmlPipe </title>
<path fill="none" stroke="#000000" stroke-dasharray="5,2" d="M199.5326,-175C156.7179,-175 92.9936,-175 92.9936,-175 92.9936,-175 92.9936,-205.9775 92.9936,-205.9775"/>
<polygon fill="#000000" stroke="#000000" points="89.4935,-205.9775 92.9936,-215.9775 96.4935,-205.9774 89.4935,-205.9775"/>
</g>
</g>
</svg>
