<?xml version="1.0" encoding="UTF-8" standalone="no"?>
<!DOCTYPE svg PUBLIC "-//W3C//DTD SVG 1.1//EN"
 "http://www.w3.org/Graphics/SVG/1.1/DTD/svg11.dtd">
<!-- Generated by graphviz version 2.40.1 (20161225.0304)
 -->
<!-- Title: dependencies Pages: 1 -->
<svg width="3051pt" height="284pt"
 viewBox="0.00 0.00 3051.00 284.00" xmlns="http://www.w3.org/2000/svg" xmlns:xlink="http://www.w3.org/1999/xlink">
<g id="graph0" class="graph" transform="scale(1 1) rotate(0) translate(4 280)">
<title>dependencies</title>
<polygon fill="#ffffff" stroke="transparent" points="-4,4 -4,-280 3047,-280 3047,4 -4,4"/>
<text text-anchor="start" x="1500.5091" y="-42.4" font-family="sans-serif" font-weight="bold" font-size="14.00" fill="#000000">Legend</text>
<polygon fill="#ffffb3" stroke="transparent" points="1287.5,-10 1287.5,-30 1307.5,-30 1307.5,-10 1287.5,-10"/>
<text text-anchor="start" x="1311.129" y="-15.4" font-family="sans-serif" font-size="14.00" fill="#000000"> &#160;Declarations</text>
<polygon fill="#8dd3c7" stroke="transparent" points="1400.5,-10 1400.5,-30 1420.5,-30 1420.5,-10 1400.5,-10"/>
<text text-anchor="start" x="1424.2251" y="-15.4" font-family="sans-serif" font-size="14.00" fill="#000000"> &#160;Module</text>
<polygon fill="#80b1d3" stroke="transparent" points="1486.5,-10 1486.5,-30 1506.5,-30 1506.5,-10 1486.5,-10"/>
<text text-anchor="start" x="1510.2812" y="-15.4" font-family="sans-serif" font-size="14.00" fill="#000000"> &#160;Bootstrap</text>
<polygon fill="#fdb462" stroke="transparent" points="1583.5,-10 1583.5,-30 1603.5,-30 1603.5,-10 1583.5,-10"/>
<text text-anchor="start" x="1607.1732" y="-15.4" font-family="sans-serif" font-size="14.00" fill="#000000"> &#160;Providers</text>
<polygon fill="#fb8072" stroke="transparent" points="1679.5,-10 1679.5,-30 1699.5,-30 1699.5,-10 1679.5,-10"/>
<text text-anchor="start" x="1703.2258" y="-15.4" font-family="sans-serif" font-size="14.00" fill="#000000"> &#160;Exports</text>
<g id="clust1" class="cluster">
<title>cluster_DataModule</title>
<polygon fill="none" stroke="#000000" stroke-dasharray="1,5" points="8,-70 8,-268 3035,-268 3035,-70 8,-70"/>
</g>
<g id="clust2" class="cluster">
<title>cluster_DataModule_declarations</title>
<polygon fill="none" stroke="#000000" points="1244,-78 1244,-130 3027,-130 3027,-78 1244,-78"/>
</g>
<g id="clust14" class="cluster">
<title>cluster_DataModule_imports</title>
<polygon fill="none" stroke="#000000" points="708,-78 708,-130 1236,-130 1236,-78 708,-78"/>
</g>
<g id="clust15" class="cluster">
<title>cluster_DataModule_exports</title>
<polygon fill="none" stroke="#000000" points="552,-208 552,-260 2302,-260 2302,-208 552,-208"/>
</g>
<g id="clust17" class="cluster">
<title>cluster_DataModule_providers</title>
<polygon fill="none" stroke="#000000" points="16,-78 16,-130 700,-130 700,-78 16,-78"/>
</g>
<!-- AdminEntryInputComponent -->
<g id="node1" class="node">
<title>AdminEntryInputComponent</title>
<polygon fill="#ffffb3" stroke="#000000" points="3019.3752,-122 2838.6248,-122 2838.6248,-86 3019.3752,-86 3019.3752,-122"/>
<text text-anchor="middle" x="2929" y="-99.8" font-family="Times,serif" font-size="14.00" fill="#000000">AdminEntryInputComponent</text>
</g>
<!-- DataModule -->
<g id="node12" class="node">
<title>DataModule</title>
<polygon fill="#8dd3c7" stroke="#000000" points="1446.9762,-187 1443.9762,-191 1422.9762,-191 1419.9762,-187 1361.0238,-187 1361.0238,-151 1446.9762,-151 1446.9762,-187"/>
<text text-anchor="middle" x="1404" y="-164.8" font-family="Times,serif" font-size="14.00" fill="#000000">DataModule</text>
</g>
<!-- AdminEntryInputComponent&#45;&gt;DataModule -->
<g id="edge1" class="edge">
<title>AdminEntryInputComponent&#45;&gt;DataModule</title>
<path fill="none" stroke="#000000" d="M2929,-122.2228C2929,-142.3652 2929,-172 2929,-172 2929,-172 1457.1838,-172 1457.1838,-172"/>
<polygon fill="#000000" stroke="#000000" points="1457.1838,-168.5001 1447.1838,-172 1457.1837,-175.5001 1457.1838,-168.5001"/>
</g>
<!-- CrudComponent -->
<g id="node2" class="node">
<title>CrudComponent</title>
<polygon fill="#ffffb3" stroke="#000000" points="2820.8301,-122 2711.1699,-122 2711.1699,-86 2820.8301,-86 2820.8301,-122"/>
<text text-anchor="middle" x="2766" y="-99.8" font-family="Times,serif" font-size="14.00" fill="#000000">CrudComponent</text>
</g>
<!-- CrudComponent&#45;&gt;DataModule -->
<g id="edge2" class="edge">
<title>CrudComponent&#45;&gt;DataModule</title>
<path fill="none" stroke="#000000" d="M2766,-122.1061C2766,-141.3391 2766,-169 2766,-169 2766,-169 1457.0115,-169 1457.0115,-169"/>
<polygon fill="#000000" stroke="#000000" points="1457.0115,-165.5001 1447.0115,-169 1457.0114,-172.5001 1457.0115,-165.5001"/>
</g>
<!-- DefaultEntryInputComponent -->
<g id="node3" class="node">
<title>DefaultEntryInputComponent</title>
<polygon fill="#ffffb3" stroke="#000000" points="2692.965,-122 2509.035,-122 2509.035,-86 2692.965,-86 2692.965,-122"/>
<text text-anchor="middle" x="2601" y="-99.8" font-family="Times,serif" font-size="14.00" fill="#000000">DefaultEntryInputComponent</text>
</g>
<!-- DefaultEntryInputComponent&#45;&gt;DataModule -->
<g id="edge3" class="edge">
<title>DefaultEntryInputComponent&#45;&gt;DataModule</title>
<path fill="none" stroke="#000000" d="M2601,-122.2222C2601,-140.8285 2601,-167 2601,-167 2601,-167 1457.309,-167 1457.309,-167"/>
<polygon fill="#000000" stroke="#000000" points="1457.3091,-163.5001 1447.309,-167 1457.309,-170.5001 1457.3091,-163.5001"/>
</g>
<!-- DefaultEntryOutputComponent -->
<g id="node4" class="node">
<title>DefaultEntryOutputComponent</title>
<polygon fill="#ffffb3" stroke="#000000" points="2490.8018,-122 2297.1982,-122 2297.1982,-86 2490.8018,-86 2490.8018,-122"/>
<text text-anchor="middle" x="2394" y="-99.8" font-family="Times,serif" font-size="14.00" fill="#000000">DefaultEntryOutputComponent</text>
</g>
<!-- DefaultEntryOutputComponent&#45;&gt;DataModule -->
<g id="edge4" class="edge">
<title>DefaultEntryOutputComponent&#45;&gt;DataModule</title>
<path fill="none" stroke="#000000" d="M2394,-122.302C2394,-140.2699 2394,-165 2394,-165 2394,-165 1457.1756,-165 1457.1756,-165"/>
<polygon fill="#000000" stroke="#000000" points="1457.1757,-161.5001 1447.1756,-165 1457.1756,-168.5001 1457.1757,-161.5001"/>
</g>
<!-- EntriesDirective -->
<g id="node5" class="node">
<title>EntriesDirective</title>
<polygon fill="#ffffb3" stroke="#000000" points="2278.7367,-122 2171.2633,-122 2171.2633,-86 2278.7367,-86 2278.7367,-122"/>
<text text-anchor="middle" x="2225" y="-99.8" font-family="Times,serif" font-size="14.00" fill="#000000">EntriesDirective</text>
</g>
<!-- EntriesDirective&#45;&gt;DataModule -->
<g id="edge5" class="edge">
<title>EntriesDirective&#45;&gt;DataModule</title>
<path fill="none" stroke="#000000" d="M2177.7733,-122.0225C2177.7733,-139.3734 2177.7733,-163 2177.7733,-163 2177.7733,-163 1456.9811,-163 1456.9811,-163"/>
<polygon fill="#000000" stroke="#000000" points="1456.9811,-159.5001 1446.9811,-163 1456.9811,-166.5001 1456.9811,-159.5001"/>
</g>
<!-- EntryDirective -->
<g id="node6" class="node">
<title>EntryDirective</title>
<polygon fill="#ffffb3" stroke="#000000" points="2153.6868,-122 2054.3132,-122 2054.3132,-86 2153.6868,-86 2153.6868,-122"/>
<text text-anchor="middle" x="2104" y="-99.8" font-family="Times,serif" font-size="14.00" fill="#000000">EntryDirective</text>
</g>
<!-- EntryDirective&#45;&gt;DataModule -->
<g id="edge6" class="edge">
<title>EntryDirective&#45;&gt;DataModule</title>
<path fill="none" stroke="#000000" d="M2062.996,-122.027C2062.996,-138.3976 2062.996,-160 2062.996,-160 2062.996,-160 1456.9844,-160 1456.9844,-160"/>
<polygon fill="#000000" stroke="#000000" points="1456.9844,-156.5001 1446.9844,-160 1456.9843,-163.5001 1456.9844,-156.5001"/>
</g>
<!-- EntryFormComponent -->
<g id="node7" class="node">
<title>EntryFormComponent</title>
<polygon fill="#ffffb3" stroke="#000000" points="2036.2702,-122 1893.7298,-122 1893.7298,-86 2036.2702,-86 2036.2702,-122"/>
<text text-anchor="middle" x="1965" y="-99.8" font-family="Times,serif" font-size="14.00" fill="#000000">EntryFormComponent</text>
</g>
<!-- EntryFormComponent&#45;&gt;DataModule -->
<g id="edge7" class="edge">
<title>EntryFormComponent&#45;&gt;DataModule</title>
<path fill="none" stroke="#000000" d="M1908.9792,-122.2819C1908.9792,-137.9478 1908.9792,-158 1908.9792,-158 1908.9792,-158 1457.0542,-158 1457.0542,-158"/>
<polygon fill="#000000" stroke="#000000" points="1457.0543,-154.5001 1447.0542,-158 1457.0542,-161.5001 1457.0543,-154.5001"/>
</g>
<!-- EntryListComponent -->
<g id="node8" class="node">
<title>EntryListComponent</title>
<polygon fill="#ffffb3" stroke="#000000" points="1876.2148,-122 1741.7852,-122 1741.7852,-86 1876.2148,-86 1876.2148,-122"/>
<text text-anchor="middle" x="1809" y="-99.8" font-family="Times,serif" font-size="14.00" fill="#000000">EntryListComponent</text>
</g>
<!-- EntryListComponent&#45;&gt;DataModule -->
<g id="edge8" class="edge">
<title>EntryListComponent&#45;&gt;DataModule</title>
<path fill="none" stroke="#000000" d="M1773.0139,-122.1871C1773.0139,-137.1824 1773.0139,-156 1773.0139,-156 1773.0139,-156 1457.0528,-156 1457.0528,-156"/>
<polygon fill="#000000" stroke="#000000" points="1457.0528,-152.5001 1447.0528,-156 1457.0527,-159.5001 1457.0528,-152.5001"/>
</g>
<!-- EntryListPopComponent -->
<g id="node9" class="node">
<title>EntryListPopComponent</title>
<polygon fill="#ffffb3" stroke="#000000" points="1723.9972,-122 1568.0028,-122 1568.0028,-86 1723.9972,-86 1723.9972,-122"/>
<text text-anchor="middle" x="1646" y="-99.8" font-family="Times,serif" font-size="14.00" fill="#000000">EntryListPopComponent</text>
</g>
<!-- EntryListPopComponent&#45;&gt;DataModule -->
<g id="edge9" class="edge">
<title>EntryListPopComponent&#45;&gt;DataModule</title>
<path fill="none" stroke="#000000" d="M1603.9294,-122.0511C1603.9294,-136.373 1603.9294,-154 1603.9294,-154 1603.9294,-154 1457.3817,-154 1457.3817,-154"/>
<polygon fill="#000000" stroke="#000000" points="1457.3817,-150.5001 1447.3817,-154 1457.3817,-157.5001 1457.3817,-150.5001"/>
</g>
<!-- EntryPopComponent -->
<g id="node10" class="node">
<title>EntryPopComponent</title>
<polygon fill="#ffffb3" stroke="#000000" points="1550.219,-122 1415.781,-122 1415.781,-86 1550.219,-86 1550.219,-122"/>
<text text-anchor="middle" x="1483" y="-99.8" font-family="Times,serif" font-size="14.00" fill="#000000">EntryPopComponent</text>
</g>
<!-- EntryPopComponent&#45;&gt;DataModule -->
<g id="edge10" class="edge">
<title>EntryPopComponent&#45;&gt;DataModule</title>
<path fill="none" stroke="#000000" d="M1431.4394,-122.1061C1431.4394,-122.1061 1431.4394,-140.991 1431.4394,-140.991"/>
<polygon fill="#000000" stroke="#000000" points="1427.9394,-140.9909 1431.4394,-150.991 1434.9394,-140.991 1427.9394,-140.9909"/>
</g>
<!-- EntrySelectComponent -->
<g id="node11" class="node">
<title>EntrySelectComponent</title>
<polygon fill="#ffffb3" stroke="#000000" points="1398.1442,-122 1251.8558,-122 1251.8558,-86 1398.1442,-86 1398.1442,-122"/>
<text text-anchor="middle" x="1325" y="-99.8" font-family="Times,serif" font-size="14.00" fill="#000000">EntrySelectComponent</text>
</g>
<!-- EntrySelectComponent&#45;&gt;DataModule -->
<g id="edge11" class="edge">
<title>EntrySelectComponent&#45;&gt;DataModule</title>
<path fill="none" stroke="#000000" d="M1379.6669,-122.1061C1379.6669,-122.1061 1379.6669,-140.991 1379.6669,-140.991"/>
<polygon fill="#000000" stroke="#000000" points="1376.167,-140.9909 1379.6669,-150.991 1383.167,-140.991 1376.167,-140.9909"/>
</g>
<!-- AuthModule  -->
<g id="node18" class="node">
<title>AuthModule </title>
<polygon fill="#fb8072" stroke="#000000" points="2293.547,-252 2202.453,-252 2202.453,-216 2293.547,-216 2293.547,-252"/>
<text text-anchor="middle" x="2248" y="-229.8" font-family="Times,serif" font-size="14.00" fill="#000000">AuthModule </text>
</g>
<!-- DataModule&#45;&gt;AuthModule  -->
<g id="edge17" class="edge">
<title>DataModule&#45;&gt;AuthModule </title>
<path fill="none" stroke="#000000" stroke-dasharray="5,2" d="M1447.2213,-174C1618.5484,-174 2240.6724,-174 2240.6724,-174 2240.6724,-174 2240.6724,-205.998 2240.6724,-205.998"/>
<polygon fill="#000000" stroke="#000000" points="2237.1724,-205.998 2240.6724,-215.998 2244.1724,-205.9981 2237.1724,-205.998"/>
</g>
<!-- CrudComponent  -->
<g id="node19" class="node">
<title>CrudComponent </title>
<polygon fill="#fb8072" stroke="#000000" points="2184.3297,-252 2071.6703,-252 2071.6703,-216 2184.3297,-216 2184.3297,-252"/>
<text text-anchor="middle" x="2128" y="-229.8" font-family="Times,serif" font-size="14.00" fill="#000000">CrudComponent </text>
</g>
<!-- DataModule&#45;&gt;CrudComponent  -->
<g id="edge18" class="edge">
<title>DataModule&#45;&gt;CrudComponent </title>
<path fill="none" stroke="#000000" stroke-dasharray="5,2" d="M1446.9939,-176C1600.5159,-176 2112.5893,-176 2112.5893,-176 2112.5893,-176 2112.5893,-205.9664 2112.5893,-205.9664"/>
<polygon fill="#000000" stroke="#000000" points="2109.0893,-205.9663 2112.5893,-215.9664 2116.0893,-205.9664 2109.0893,-205.9663"/>
</g>
<!-- EntriesDirective  -->
<g id="node20" class="node">
<title>EntriesDirective </title>
<polygon fill="#fb8072" stroke="#000000" points="2053.7367,-252 1942.2633,-252 1942.2633,-216 2053.7367,-216 2053.7367,-252"/>
<text text-anchor="middle" x="1998" y="-229.8" font-family="Times,serif" font-size="14.00" fill="#000000">EntriesDirective </text>
</g>
<!-- DataModule&#45;&gt;EntriesDirective  -->
<g id="edge19" class="edge">
<title>DataModule&#45;&gt;EntriesDirective </title>
<path fill="none" stroke="#000000" stroke-dasharray="5,2" d="M1447.0446,-178C1582.2317,-178 1989.3834,-178 1989.3834,-178 1989.3834,-178 1989.3834,-205.973 1989.3834,-205.973"/>
<polygon fill="#000000" stroke="#000000" points="1985.8835,-205.973 1989.3834,-215.973 1992.8835,-205.973 1985.8835,-205.973"/>
</g>
<!-- EntryDirective  -->
<g id="node21" class="node">
<title>EntryDirective </title>
<polygon fill="#fb8072" stroke="#000000" points="1924.1871,-252 1821.8129,-252 1821.8129,-216 1924.1871,-216 1924.1871,-252"/>
<text text-anchor="middle" x="1873" y="-229.8" font-family="Times,serif" font-size="14.00" fill="#000000">EntryDirective </text>
</g>
<!-- DataModule&#45;&gt;EntryDirective  -->
<g id="edge20" class="edge">
<title>DataModule&#45;&gt;EntryDirective </title>
<path fill="none" stroke="#000000" stroke-dasharray="5,2" d="M1447.0614,-181C1558.7097,-181 1848.882,-181 1848.882,-181 1848.882,-181 1848.882,-205.7604 1848.882,-205.7604"/>
<polygon fill="#000000" stroke="#000000" points="1845.3821,-205.7604 1848.882,-215.7604 1852.3821,-205.7604 1845.3821,-205.7604"/>
</g>
<!-- EntryFormComponent  -->
<g id="node22" class="node">
<title>EntryFormComponent </title>
<polygon fill="#fb8072" stroke="#000000" points="1804.2702,-252 1657.7298,-252 1657.7298,-216 1804.2702,-216 1804.2702,-252"/>
<text text-anchor="middle" x="1731" y="-229.8" font-family="Times,serif" font-size="14.00" fill="#000000">EntryFormComponent </text>
</g>
<!-- DataModule&#45;&gt;EntryFormComponent  -->
<g id="edge21" class="edge">
<title>DataModule&#45;&gt;EntryFormComponent </title>
<path fill="none" stroke="#000000" stroke-dasharray="5,2" d="M1447.2673,-183C1527.4243,-183 1690.9318,-183 1690.9318,-183 1690.9318,-183 1690.9318,-205.8757 1690.9318,-205.8757"/>
<polygon fill="#000000" stroke="#000000" points="1687.4319,-205.8757 1690.9318,-215.8757 1694.4319,-205.8757 1687.4319,-205.8757"/>
</g>
<!-- EntryListComponent  -->
<g id="node23" class="node">
<title>EntryListComponent </title>
<polygon fill="#fb8072" stroke="#000000" points="1639.7149,-252 1502.2851,-252 1502.2851,-216 1639.7149,-216 1639.7149,-252"/>
<text text-anchor="middle" x="1571" y="-229.8" font-family="Times,serif" font-size="14.00" fill="#000000">EntryListComponent </text>
</g>
<!-- DataModule&#45;&gt;EntryListComponent  -->
<g id="edge22" class="edge">
<title>DataModule&#45;&gt;EntryListComponent </title>
<path fill="none" stroke="#000000" stroke-dasharray="5,2" d="M1447.0571,-185C1482.2179,-185 1526.126,-185 1526.126,-185 1526.126,-185 1526.126,-205.7542 1526.126,-205.7542"/>
<polygon fill="#000000" stroke="#000000" points="1522.6261,-205.7542 1526.126,-215.7542 1529.6261,-205.7542 1522.6261,-205.7542"/>
</g>
<!-- EntryListPopComponent  -->
<g id="node24" class="node">
<title>EntryListPopComponent </title>
<polygon fill="#fb8072" stroke="#000000" points="1483.998,-252 1324.002,-252 1324.002,-216 1483.998,-216 1483.998,-252"/>
<text text-anchor="middle" x="1404" y="-229.8" font-family="Times,serif" font-size="14.00" fill="#000000">EntryListPopComponent </text>
</g>
<!-- DataModule&#45;&gt;EntryListPopComponent  -->
<g id="edge23" class="edge">
<title>DataModule&#45;&gt;EntryListPopComponent </title>
<path fill="none" stroke="#000000" stroke-dasharray="5,2" d="M1404,-187.1061C1404,-187.1061 1404,-205.991 1404,-205.991"/>
<polygon fill="#000000" stroke="#000000" points="1400.5001,-205.9909 1404,-215.991 1407.5001,-205.991 1400.5001,-205.9909"/>
</g>
<!-- EntryPopComponent  -->
<g id="node25" class="node">
<title>EntryPopComponent </title>
<polygon fill="#fb8072" stroke="#000000" points="1305.7191,-252 1168.2809,-252 1168.2809,-216 1305.7191,-216 1305.7191,-252"/>
<text text-anchor="middle" x="1237" y="-229.8" font-family="Times,serif" font-size="14.00" fill="#000000">EntryPopComponent </text>
</g>
<!-- DataModule&#45;&gt;EntryPopComponent  -->
<g id="edge24" class="edge">
<title>DataModule&#45;&gt;EntryPopComponent </title>
<path fill="none" stroke="#000000" stroke-dasharray="5,2" d="M1360.9025,-185C1324.6776,-185 1278.7688,-185 1278.7688,-185 1278.7688,-185 1278.7688,-205.7542 1278.7688,-205.7542"/>
<polygon fill="#000000" stroke="#000000" points="1275.2688,-205.7542 1278.7688,-215.7542 1282.2688,-205.7542 1275.2688,-205.7542"/>
</g>
<!-- EntrySelectComponent  -->
<g id="node26" class="node">
<title>EntrySelectComponent </title>
<polygon fill="#fb8072" stroke="#000000" points="1150.1439,-252 999.8561,-252 999.8561,-216 1150.1439,-216 1150.1439,-252"/>
<text text-anchor="middle" x="1075" y="-229.8" font-family="Times,serif" font-size="14.00" fill="#000000">EntrySelectComponent </text>
</g>
<!-- DataModule&#45;&gt;EntrySelectComponent  -->
<g id="edge25" class="edge">
<title>DataModule&#45;&gt;EntrySelectComponent </title>
<path fill="none" stroke="#000000" stroke-dasharray="5,2" d="M1360.9655,-183C1287.3602,-183 1145.1492,-183 1145.1492,-183 1145.1492,-183 1145.1492,-205.8757 1145.1492,-205.8757"/>
<polygon fill="#000000" stroke="#000000" points="1141.6493,-205.8757 1145.1492,-215.8757 1148.6493,-205.8757 1141.6493,-205.8757"/>
</g>
<!-- FilesModule  -->
<g id="node27" class="node">
<title>FilesModule </title>
<polygon fill="#fb8072" stroke="#000000" points="982.2732,-252 891.7268,-252 891.7268,-216 982.2732,-216 982.2732,-252"/>
<text text-anchor="middle" x="937" y="-229.8" font-family="Times,serif" font-size="14.00" fill="#000000">FilesModule </text>
</g>
<!-- DataModule&#45;&gt;FilesModule  -->
<g id="edge26" class="edge">
<title>DataModule&#45;&gt;FilesModule </title>
<path fill="none" stroke="#000000" stroke-dasharray="5,2" d="M1360.7393,-181C1246.2683,-181 944.1594,-181 944.1594,-181 944.1594,-181 944.1594,-205.7604 944.1594,-205.7604"/>
<polygon fill="#000000" stroke="#000000" points="940.6594,-205.7604 944.1594,-215.7604 947.6594,-205.7604 940.6594,-205.7604"/>
</g>
<!-- ResourceModule  -->
<g id="node28" class="node">
<title>ResourceModule </title>
<polygon fill="#fb8072" stroke="#000000" points="873.6355,-252 758.3645,-252 758.3645,-216 873.6355,-216 873.6355,-252"/>
<text text-anchor="middle" x="816" y="-229.8" font-family="Times,serif" font-size="14.00" fill="#000000">ResourceModule </text>
</g>
<!-- DataModule&#45;&gt;ResourceModule  -->
<g id="edge27" class="edge">
<title>DataModule&#45;&gt;ResourceModule </title>
<path fill="none" stroke="#000000" stroke-dasharray="5,2" d="M1360.715,-178C1228.7529,-178 840.4508,-178 840.4508,-178 840.4508,-178 840.4508,-205.973 840.4508,-205.973"/>
<polygon fill="#000000" stroke="#000000" points="836.9508,-205.973 840.4508,-215.973 843.9508,-205.973 836.9508,-205.973"/>
</g>
<!-- SdkModule  -->
<g id="node29" class="node">
<title>SdkModule </title>
<polygon fill="#fb8072" stroke="#000000" points="740.3326,-252 655.6674,-252 655.6674,-216 740.3326,-216 740.3326,-252"/>
<text text-anchor="middle" x="698" y="-229.8" font-family="Times,serif" font-size="14.00" fill="#000000">SdkModule </text>
</g>
<!-- DataModule&#45;&gt;SdkModule  -->
<g id="edge28" class="edge">
<title>DataModule&#45;&gt;SdkModule </title>
<path fill="none" stroke="#000000" stroke-dasharray="5,2" d="M1360.9634,-176C1212.1342,-176 728.3213,-176 728.3213,-176 728.3213,-176 728.3213,-205.9664 728.3213,-205.9664"/>
<polygon fill="#000000" stroke="#000000" points="724.8214,-205.9663 728.3213,-215.9664 731.8214,-205.9664 724.8214,-205.9663"/>
</g>
<!-- UiModule  -->
<g id="node30" class="node">
<title>UiModule </title>
<polygon fill="#fb8072" stroke="#000000" points="637.547,-252 560.453,-252 560.453,-216 637.547,-216 637.547,-252"/>
<text text-anchor="middle" x="599" y="-229.8" font-family="Times,serif" font-size="14.00" fill="#000000">UiModule </text>
</g>
<!-- DataModule&#45;&gt;UiModule  -->
<g id="edge29" class="edge">
<title>DataModule&#45;&gt;UiModule </title>
<path fill="none" stroke="#000000" stroke-dasharray="5,2" d="M1360.792,-174C1194.5714,-174 605.6098,-174 605.6098,-174 605.6098,-174 605.6098,-205.998 605.6098,-205.998"/>
<polygon fill="#000000" stroke="#000000" points="602.1099,-205.998 605.6098,-215.998 609.1099,-205.9981 602.1099,-205.998"/>
</g>
<!-- AuthModule -->
<g id="node13" class="node">
<title>AuthModule</title>
<polygon fill="#8dd3c7" stroke="#000000" points="1227.5482,-122 1224.5482,-126 1203.5482,-126 1200.5482,-122 1140.4518,-122 1140.4518,-86 1227.5482,-86 1227.5482,-122"/>
<text text-anchor="middle" x="1184" y="-99.8" font-family="Times,serif" font-size="14.00" fill="#000000">AuthModule</text>
</g>
<!-- AuthModule&#45;&gt;DataModule -->
<g id="edge12" class="edge">
<title>AuthModule&#45;&gt;DataModule</title>
<path fill="none" stroke="#000000" d="M1197.9571,-122.0511C1197.9571,-136.373 1197.9571,-154 1197.9571,-154 1197.9571,-154 1350.8066,-154 1350.8066,-154"/>
<polygon fill="#000000" stroke="#000000" points="1350.8067,-157.5001 1360.8066,-154 1350.8066,-150.5001 1350.8067,-157.5001"/>
</g>
<!-- FilesModule -->
<g id="node14" class="node">
<title>FilesModule</title>
<polygon fill="#8dd3c7" stroke="#000000" points="1122.2731,-122 1119.2731,-126 1098.2731,-126 1095.2731,-122 1035.7269,-122 1035.7269,-86 1122.2731,-86 1122.2731,-122"/>
<text text-anchor="middle" x="1079" y="-99.8" font-family="Times,serif" font-size="14.00" fill="#000000">FilesModule</text>
</g>
<!-- FilesModule&#45;&gt;DataModule -->
<g id="edge13" class="edge">
<title>FilesModule&#45;&gt;DataModule</title>
<path fill="none" stroke="#000000" d="M1079,-122.1871C1079,-137.1824 1079,-156 1079,-156 1079,-156 1350.8425,-156 1350.8425,-156"/>
<polygon fill="#000000" stroke="#000000" points="1350.8425,-159.5001 1360.8425,-156 1350.8425,-152.5001 1350.8425,-159.5001"/>
</g>
<!-- ResourceModule -->
<g id="node15" class="node">
<title>ResourceModule</title>
<polygon fill="#8dd3c7" stroke="#000000" points="1017.636,-122 1014.636,-126 993.636,-126 990.636,-122 906.364,-122 906.364,-86 1017.636,-86 1017.636,-122"/>
<text text-anchor="middle" x="962" y="-99.8" font-family="Times,serif" font-size="14.00" fill="#000000">ResourceModule</text>
</g>
<!-- ResourceModule&#45;&gt;DataModule -->
<g id="edge14" class="edge">
<title>ResourceModule&#45;&gt;DataModule</title>
<path fill="none" stroke="#000000" d="M1008.8729,-122.2819C1008.8729,-137.9478 1008.8729,-158 1008.8729,-158 1008.8729,-158 1350.9623,-158 1350.9623,-158"/>
<polygon fill="#000000" stroke="#000000" points="1350.9623,-161.5001 1360.9623,-158 1350.9623,-154.5001 1350.9623,-161.5001"/>
</g>
<!-- SdkModule -->
<g id="node16" class="node">
<title>SdkModule</title>
<polygon fill="#8dd3c7" stroke="#000000" points="888.8331,-122 885.8331,-126 864.8331,-126 861.8331,-122 807.1669,-122 807.1669,-86 888.8331,-86 888.8331,-122"/>
<text text-anchor="middle" x="848" y="-99.8" font-family="Times,serif" font-size="14.00" fill="#000000">SdkModule</text>
</g>
<!-- SdkModule&#45;&gt;DataModule -->
<g id="edge15" class="edge">
<title>SdkModule&#45;&gt;DataModule</title>
<path fill="none" stroke="#000000" d="M881.117,-122.027C881.117,-138.3976 881.117,-160 881.117,-160 881.117,-160 1350.7654,-160 1350.7654,-160"/>
<polygon fill="#000000" stroke="#000000" points="1350.7655,-163.5001 1360.7654,-160 1350.7654,-156.5001 1350.7655,-163.5001"/>
</g>
<!-- UiModule -->
<g id="node17" class="node">
<title>UiModule</title>
<polygon fill="#8dd3c7" stroke="#000000" points="789.5484,-122 786.5484,-126 765.5484,-126 762.5484,-122 716.4516,-122 716.4516,-86 789.5484,-86 789.5484,-122"/>
<text text-anchor="middle" x="753" y="-99.8" font-family="Times,serif" font-size="14.00" fill="#000000">UiModule</text>
</g>
<!-- UiModule&#45;&gt;DataModule -->
<g id="edge16" class="edge">
<title>UiModule&#45;&gt;DataModule</title>
<path fill="none" stroke="#000000" d="M774.1029,-122.0225C774.1029,-139.3734 774.1029,-163 774.1029,-163 774.1029,-163 1350.7046,-163 1350.7046,-163"/>
<polygon fill="#000000" stroke="#000000" points="1350.7047,-166.5001 1360.7046,-163 1350.7046,-159.5001 1350.7047,-166.5001"/>
</g>
<!-- CrudService -->
<g id="node31" class="node">
<title>CrudService</title>
<ellipse fill="#fdb462" stroke="#000000" cx="633" cy="-104" rx="59.1083" ry="18"/>
<text text-anchor="middle" x="633" y="-99.8" font-family="Times,serif" font-size="14.00" fill="#000000">CrudService</text>
</g>
<!-- CrudService&#45;&gt;DataModule -->
<g id="edge30" class="edge">
<title>CrudService&#45;&gt;DataModule</title>
<path fill="none" stroke="#000000" d="M673.9438,-117.2361C673.9438,-135.1767 673.9438,-165 673.9438,-165 673.9438,-165 1350.788,-165 1350.788,-165"/>
<polygon fill="#000000" stroke="#000000" points="1350.788,-168.5001 1360.788,-165 1350.7879,-161.5001 1350.788,-168.5001"/>
</g>
<!-- HistoryService -->
<g id="node32" class="node">
<title>HistoryService</title>
<ellipse fill="#fdb462" stroke="#000000" cx="487" cy="-104" rx="68.9158" ry="18"/>
<text text-anchor="middle" x="487" y="-99.8" font-family="Times,serif" font-size="14.00" fill="#000000">HistoryService</text>
</g>
<!-- HistoryService&#45;&gt;DataModule -->
<g id="edge31" class="edge">
<title>HistoryService&#45;&gt;DataModule</title>
<path fill="none" stroke="#000000" d="M487,-122.2222C487,-140.8285 487,-167 487,-167 487,-167 1351.0011,-167 1351.0011,-167"/>
<polygon fill="#000000" stroke="#000000" points="1351.0012,-170.5001 1361.0011,-167 1351.0011,-163.5001 1351.0012,-170.5001"/>
</g>
<!-- ModelConfigService -->
<g id="node33" class="node">
<title>ModelConfigService</title>
<ellipse fill="#fdb462" stroke="#000000" cx="308" cy="-104" rx="92.0548" ry="18"/>
<text text-anchor="middle" x="308" y="-99.8" font-family="Times,serif" font-size="14.00" fill="#000000">ModelConfigService</text>
</g>
<!-- ModelConfigService&#45;&gt;DataModule -->
<g id="edge32" class="edge">
<title>ModelConfigService&#45;&gt;DataModule</title>
<path fill="none" stroke="#000000" d="M308,-122.1061C308,-141.3391 308,-169 308,-169 308,-169 1350.6979,-169 1350.6979,-169"/>
<polygon fill="#000000" stroke="#000000" points="1350.698,-172.5001 1360.6979,-169 1350.6979,-165.5001 1350.698,-172.5001"/>
</g>
<!-- TypeConfigService -->
<g id="node34" class="node">
<title>TypeConfigService</title>
<ellipse fill="#fdb462" stroke="#000000" cx="111" cy="-104" rx="86.8184" ry="18"/>
<text text-anchor="middle" x="111" y="-99.8" font-family="Times,serif" font-size="14.00" fill="#000000">TypeConfigService</text>
</g>
<!-- TypeConfigService&#45;&gt;DataModule -->
<g id="edge33" class="edge">
<title>TypeConfigService&#45;&gt;DataModule</title>
<path fill="none" stroke="#000000" d="M111,-122.2228C111,-142.3652 111,-172 111,-172 111,-172 1350.9796,-172 1350.9796,-172"/>
<polygon fill="#000000" stroke="#000000" points="1350.9796,-175.5001 1360.9796,-172 1350.9795,-168.5001 1350.9796,-175.5001"/>
</g>
</g>
</svg>
