<?xml version="1.0" encoding="UTF-8" standalone="no"?>
<!DOCTYPE svg PUBLIC "-//W3C//DTD SVG 1.1//EN"
 "http://www.w3.org/Graphics/SVG/1.1/DTD/svg11.dtd">
<!-- Generated by graphviz version 2.40.1 (20161225.0304)
 -->
<!-- Title: dependencies Pages: 1 -->
<svg width="2755pt" height="284pt"
 viewBox="0.00 0.00 2755.00 284.00" xmlns="http://www.w3.org/2000/svg" xmlns:xlink="http://www.w3.org/1999/xlink">
<g id="graph0" class="graph" transform="scale(1 1) rotate(0) translate(4 280)">
<title>dependencies</title>
<polygon fill="#ffffff" stroke="transparent" points="-4,4 -4,-280 2751,-280 2751,4 -4,4"/>
<text text-anchor="start" x="1352.5091" y="-42.4" font-family="sans-serif" font-weight="bold" font-size="14.00" fill="#000000">Legend</text>
<polygon fill="#ffffb3" stroke="transparent" points="1139.5,-10 1139.5,-30 1159.5,-30 1159.5,-10 1139.5,-10"/>
<text text-anchor="start" x="1163.129" y="-15.4" font-family="sans-serif" font-size="14.00" fill="#000000"> &#160;Declarations</text>
<polygon fill="#8dd3c7" stroke="transparent" points="1252.5,-10 1252.5,-30 1272.5,-30 1272.5,-10 1252.5,-10"/>
<text text-anchor="start" x="1276.2251" y="-15.4" font-family="sans-serif" font-size="14.00" fill="#000000"> &#160;Module</text>
<polygon fill="#80b1d3" stroke="transparent" points="1338.5,-10 1338.5,-30 1358.5,-30 1358.5,-10 1338.5,-10"/>
<text text-anchor="start" x="1362.2812" y="-15.4" font-family="sans-serif" font-size="14.00" fill="#000000"> &#160;Bootstrap</text>
<polygon fill="#fdb462" stroke="transparent" points="1435.5,-10 1435.5,-30 1455.5,-30 1455.5,-10 1435.5,-10"/>
<text text-anchor="start" x="1459.1732" y="-15.4" font-family="sans-serif" font-size="14.00" fill="#000000"> &#160;Providers</text>
<polygon fill="#fb8072" stroke="transparent" points="1531.5,-10 1531.5,-30 1551.5,-30 1551.5,-10 1531.5,-10"/>
<text text-anchor="start" x="1555.2258" y="-15.4" font-family="sans-serif" font-size="14.00" fill="#000000"> &#160;Exports</text>
<g id="clust1" class="cluster">
<title>cluster_DataModule</title>
<polygon fill="none" stroke="#000000" stroke-dasharray="1,5" points="8,-70 8,-268 2739,-268 2739,-70 8,-70"/>
</g>
<g id="clust2" class="cluster">
<title>cluster_DataModule_declarations</title>
<polygon fill="none" stroke="#000000" points="1077,-78 1077,-130 2731,-130 2731,-78 1077,-78"/>
</g>
<g id="clust13" class="cluster">
<title>cluster_DataModule_imports</title>
<polygon fill="none" stroke="#000000" points="979,-78 979,-130 1069,-130 1069,-78 979,-78"/>
</g>
<g id="clust14" class="cluster">
<title>cluster_DataModule_exports</title>
<polygon fill="none" stroke="#000000" points="622,-208 622,-260 1891,-260 1891,-208 622,-208"/>
</g>
<g id="clust16" class="cluster">
<title>cluster_DataModule_providers</title>
<polygon fill="none" stroke="#000000" points="16,-78 16,-130 971,-130 971,-78 16,-78"/>
</g>
<!-- EntryListComponent -->
<g id="node1" class="node">
<title>EntryListComponent</title>
<polygon fill="#ffffb3" stroke="#000000" points="2723.2148,-122 2588.7852,-122 2588.7852,-86 2723.2148,-86 2723.2148,-122"/>
<text text-anchor="middle" x="2656" y="-99.8" font-family="Times,serif" font-size="14.00" fill="#000000">EntryListComponent</text>
</g>
<!-- DataModule -->
<g id="node11" class="node">
<title>DataModule</title>
<polygon fill="#8dd3c7" stroke="#000000" points="1346.9762,-187 1343.9762,-191 1322.9762,-191 1319.9762,-187 1261.0238,-187 1261.0238,-151 1346.9762,-151 1346.9762,-187"/>
<text text-anchor="middle" x="1304" y="-164.8" font-family="Times,serif" font-size="14.00" fill="#000000">DataModule</text>
</g>
<!-- EntryListComponent&#45;&gt;DataModule -->
<g id="edge1" class="edge">
<title>EntryListComponent&#45;&gt;DataModule</title>
<path fill="none" stroke="#000000" d="M2656,-122.2843C2656,-143.3211 2656,-175 2656,-175 2656,-175 1357.0732,-175 1357.0732,-175"/>
<polygon fill="#000000" stroke="#000000" points="1357.0732,-171.5001 1347.0732,-175 1357.0731,-178.5001 1357.0732,-171.5001"/>
</g>
<!-- EntryComponent -->
<g id="node2" class="node">
<title>EntryComponent</title>
<polygon fill="#ffffb3" stroke="#000000" points="2571.437,-122 2458.563,-122 2458.563,-86 2571.437,-86 2571.437,-122"/>
<text text-anchor="middle" x="2515" y="-99.8" font-family="Times,serif" font-size="14.00" fill="#000000">EntryComponent</text>
</g>
<!-- EntryComponent&#45;&gt;DataModule -->
<g id="edge2" class="edge">
<title>EntryComponent&#45;&gt;DataModule</title>
<path fill="none" stroke="#000000" d="M2515,-122.2228C2515,-142.3652 2515,-172 2515,-172 2515,-172 1357.1001,-172 1357.1001,-172"/>
<polygon fill="#000000" stroke="#000000" points="1357.1002,-168.5001 1347.1001,-172 1357.1001,-175.5001 1357.1002,-168.5001"/>
</g>
<!-- EntriesComponent -->
<g id="node3" class="node">
<title>EntriesComponent</title>
<polygon fill="#ffffb3" stroke="#000000" points="2440.486,-122 2319.514,-122 2319.514,-86 2440.486,-86 2440.486,-122"/>
<text text-anchor="middle" x="2380" y="-99.8" font-family="Times,serif" font-size="14.00" fill="#000000">EntriesComponent</text>
</g>
<!-- EntriesComponent&#45;&gt;DataModule -->
<g id="edge3" class="edge">
<title>EntriesComponent&#45;&gt;DataModule</title>
<path fill="none" stroke="#000000" d="M2380,-122.1061C2380,-141.3391 2380,-169 2380,-169 2380,-169 1357.1782,-169 1357.1782,-169"/>
<polygon fill="#000000" stroke="#000000" points="1357.1783,-165.5001 1347.1782,-169 1357.1782,-172.5001 1357.1783,-165.5001"/>
</g>
<!-- EntryFormComponent -->
<g id="node4" class="node">
<title>EntryFormComponent</title>
<polygon fill="#ffffb3" stroke="#000000" points="2301.2702,-122 2158.7298,-122 2158.7298,-86 2301.2702,-86 2301.2702,-122"/>
<text text-anchor="middle" x="2230" y="-99.8" font-family="Times,serif" font-size="14.00" fill="#000000">EntryFormComponent</text>
</g>
<!-- EntryFormComponent&#45;&gt;DataModule -->
<g id="edge4" class="edge">
<title>EntryFormComponent&#45;&gt;DataModule</title>
<path fill="none" stroke="#000000" d="M2230,-122.2667C2230,-140.5552 2230,-166 2230,-166 2230,-166 1357.1128,-166 1357.1128,-166"/>
<polygon fill="#000000" stroke="#000000" points="1357.1129,-162.5001 1347.1128,-166 1357.1128,-169.5001 1357.1129,-162.5001"/>
</g>
<!-- DatamanagerListComponent -->
<g id="node5" class="node">
<title>DatamanagerListComponent</title>
<polygon fill="#ffffb3" stroke="#000000" points="2140.7324,-122 1963.2676,-122 1963.2676,-86 2140.7324,-86 2140.7324,-122"/>
<text text-anchor="middle" x="2052" y="-99.8" font-family="Times,serif" font-size="14.00" fill="#000000">DatamanagerListComponent</text>
</g>
<!-- DatamanagerListComponent&#45;&gt;DataModule -->
<g id="edge5" class="edge">
<title>DatamanagerListComponent&#45;&gt;DataModule</title>
<path fill="none" stroke="#000000" d="M2052,-122.0225C2052,-139.3734 2052,-163 2052,-163 2052,-163 1357.1752,-163 1357.1752,-163"/>
<polygon fill="#000000" stroke="#000000" points="1357.1752,-159.5001 1347.1752,-163 1357.1751,-166.5001 1357.1752,-159.5001"/>
</g>
<!-- ResourceListComponent -->
<g id="node6" class="node">
<title>ResourceListComponent</title>
<polygon fill="#ffffb3" stroke="#000000" points="1945.6965,-122 1790.3035,-122 1790.3035,-86 1945.6965,-86 1945.6965,-122"/>
<text text-anchor="middle" x="1868" y="-99.8" font-family="Times,serif" font-size="14.00" fill="#000000">ResourceListComponent</text>
</g>
<!-- ResourceListComponent&#45;&gt;DataModule -->
<g id="edge6" class="edge">
<title>ResourceListComponent&#45;&gt;DataModule</title>
<path fill="none" stroke="#000000" d="M1836.6296,-122.027C1836.6296,-138.3976 1836.6296,-160 1836.6296,-160 1836.6296,-160 1357.1361,-160 1357.1361,-160"/>
<polygon fill="#000000" stroke="#000000" points="1357.1362,-156.5001 1347.1361,-160 1357.1361,-163.5001 1357.1362,-156.5001"/>
</g>
<!-- DefaultEntryInputComponent -->
<g id="node7" class="node">
<title>DefaultEntryInputComponent</title>
<polygon fill="#ffffb3" stroke="#000000" points="1771.965,-122 1588.035,-122 1588.035,-86 1771.965,-86 1771.965,-122"/>
<text text-anchor="middle" x="1680" y="-99.8" font-family="Times,serif" font-size="14.00" fill="#000000">DefaultEntryInputComponent</text>
</g>
<!-- DefaultEntryInputComponent&#45;&gt;DataModule -->
<g id="edge7" class="edge">
<title>DefaultEntryInputComponent&#45;&gt;DataModule</title>
<path fill="none" stroke="#000000" d="M1602.1375,-122.2396C1602.1375,-137.5706 1602.1375,-157 1602.1375,-157 1602.1375,-157 1357.0333,-157 1357.0333,-157"/>
<polygon fill="#000000" stroke="#000000" points="1357.0334,-153.5001 1347.0333,-157 1357.0333,-160.5001 1357.0334,-153.5001"/>
</g>
<!-- DefaultEntryOutputComponent -->
<g id="node8" class="node">
<title>DefaultEntryOutputComponent</title>
<polygon fill="#ffffb3" stroke="#000000" points="1569.8018,-122 1376.1982,-122 1376.1982,-86 1569.8018,-86 1569.8018,-122"/>
<text text-anchor="middle" x="1473" y="-99.8" font-family="Times,serif" font-size="14.00" fill="#000000">DefaultEntryOutputComponent</text>
</g>
<!-- DefaultEntryOutputComponent&#45;&gt;DataModule -->
<g id="edge8" class="edge">
<title>DefaultEntryOutputComponent&#45;&gt;DataModule</title>
<path fill="none" stroke="#000000" d="M1413.7421,-122.0511C1413.7421,-136.373 1413.7421,-154 1413.7421,-154 1413.7421,-154 1357.058,-154 1357.058,-154"/>
<polygon fill="#000000" stroke="#000000" points="1357.058,-150.5001 1347.058,-154 1357.058,-157.5001 1357.058,-150.5001"/>
</g>
<!-- CrudComponent -->
<g id="node9" class="node">
<title>CrudComponent</title>
<polygon fill="#ffffb3" stroke="#000000" points="1358.8301,-122 1249.1699,-122 1249.1699,-86 1358.8301,-86 1358.8301,-122"/>
<text text-anchor="middle" x="1304" y="-99.8" font-family="Times,serif" font-size="14.00" fill="#000000">CrudComponent</text>
</g>
<!-- CrudComponent&#45;&gt;DataModule -->
<g id="edge9" class="edge">
<title>CrudComponent&#45;&gt;DataModule</title>
<path fill="none" stroke="#000000" d="M1304,-122.1061C1304,-122.1061 1304,-140.991 1304,-140.991"/>
<polygon fill="#000000" stroke="#000000" points="1300.5001,-140.9909 1304,-150.991 1307.5001,-140.991 1300.5001,-140.9909"/>
</g>
<!-- EntrySelectComponent -->
<g id="node10" class="node">
<title>EntrySelectComponent</title>
<polygon fill="#ffffb3" stroke="#000000" points="1231.1442,-122 1084.8558,-122 1084.8558,-86 1231.1442,-86 1231.1442,-122"/>
<text text-anchor="middle" x="1158" y="-99.8" font-family="Times,serif" font-size="14.00" fill="#000000">EntrySelectComponent</text>
</g>
<!-- EntrySelectComponent&#45;&gt;DataModule -->
<g id="edge10" class="edge">
<title>EntrySelectComponent&#45;&gt;DataModule</title>
<path fill="none" stroke="#000000" d="M1202.4536,-122.0511C1202.4536,-136.373 1202.4536,-154 1202.4536,-154 1202.4536,-154 1250.9352,-154 1250.9352,-154"/>
<polygon fill="#000000" stroke="#000000" points="1250.9352,-157.5001 1260.9352,-154 1250.9351,-150.5001 1250.9352,-157.5001"/>
</g>
<!-- EntryListComponent  -->
<g id="node13" class="node">
<title>EntryListComponent </title>
<polygon fill="#fb8072" stroke="#000000" points="1882.7149,-252 1745.2851,-252 1745.2851,-216 1882.7149,-216 1882.7149,-252"/>
<text text-anchor="middle" x="1814" y="-229.8" font-family="Times,serif" font-size="14.00" fill="#000000">EntryListComponent </text>
</g>
<!-- DataModule&#45;&gt;EntryListComponent  -->
<g id="edge12" class="edge">
<title>DataModule&#45;&gt;EntryListComponent </title>
<path fill="none" stroke="#000000" stroke-dasharray="5,2" d="M1347.174,-178C1460.6404,-178 1758.5626,-178 1758.5626,-178 1758.5626,-178 1758.5626,-205.973 1758.5626,-205.973"/>
<polygon fill="#000000" stroke="#000000" points="1755.0627,-205.973 1758.5626,-215.973 1762.0627,-205.973 1755.0627,-205.973"/>
</g>
<!-- EntryComponent  -->
<g id="node14" class="node">
<title>EntryComponent </title>
<polygon fill="#fb8072" stroke="#000000" points="1726.9362,-252 1611.0638,-252 1611.0638,-216 1726.9362,-216 1726.9362,-252"/>
<text text-anchor="middle" x="1669" y="-229.8" font-family="Times,serif" font-size="14.00" fill="#000000">EntryComponent </text>
</g>
<!-- DataModule&#45;&gt;EntryComponent  -->
<g id="edge13" class="edge">
<title>DataModule&#45;&gt;EntryComponent </title>
<path fill="none" stroke="#000000" stroke-dasharray="5,2" d="M1347.3036,-181C1443.9883,-181 1669,-181 1669,-181 1669,-181 1669,-205.7604 1669,-205.7604"/>
<polygon fill="#000000" stroke="#000000" points="1665.5001,-205.7604 1669,-215.7604 1672.5001,-205.7604 1665.5001,-205.7604"/>
</g>
<!-- EntriesComponent  -->
<g id="node15" class="node">
<title>EntriesComponent </title>
<polygon fill="#fb8072" stroke="#000000" points="1593.487,-252 1468.513,-252 1468.513,-216 1593.487,-216 1593.487,-252"/>
<text text-anchor="middle" x="1531" y="-229.8" font-family="Times,serif" font-size="14.00" fill="#000000">EntriesComponent </text>
</g>
<!-- DataModule&#45;&gt;EntriesComponent  -->
<g id="edge14" class="edge">
<title>DataModule&#45;&gt;EntriesComponent </title>
<path fill="none" stroke="#000000" stroke-dasharray="5,2" d="M1347.0325,-184C1409.8345,-184 1519.2039,-184 1519.2039,-184 1519.2039,-184 1519.2039,-205.9489 1519.2039,-205.9489"/>
<polygon fill="#000000" stroke="#000000" points="1515.704,-205.9488 1519.2039,-215.9489 1522.704,-205.9489 1515.704,-205.9488"/>
</g>
<!-- EntryFormComponent  -->
<g id="node16" class="node">
<title>EntryFormComponent </title>
<polygon fill="#fb8072" stroke="#000000" points="1451.2702,-252 1304.7298,-252 1304.7298,-216 1451.2702,-216 1451.2702,-252"/>
<text text-anchor="middle" x="1378" y="-229.8" font-family="Times,serif" font-size="14.00" fill="#000000">EntryFormComponent </text>
</g>
<!-- DataModule&#45;&gt;EntryFormComponent  -->
<g id="edge15" class="edge">
<title>DataModule&#45;&gt;EntryFormComponent </title>
<path fill="none" stroke="#000000" stroke-dasharray="5,2" d="M1325.9266,-187.1061C1325.9266,-187.1061 1325.9266,-205.991 1325.9266,-205.991"/>
<polygon fill="#000000" stroke="#000000" points="1322.4266,-205.9909 1325.9266,-215.991 1329.4266,-205.991 1322.4266,-205.9909"/>
</g>
<!-- CrudComponent  -->
<g id="node17" class="node">
<title>CrudComponent </title>
<polygon fill="#fb8072" stroke="#000000" points="1286.3297,-252 1173.6703,-252 1173.6703,-216 1286.3297,-216 1286.3297,-252"/>
<text text-anchor="middle" x="1230" y="-229.8" font-family="Times,serif" font-size="14.00" fill="#000000">CrudComponent </text>
</g>
<!-- DataModule&#45;&gt;CrudComponent  -->
<g id="edge16" class="edge">
<title>DataModule&#45;&gt;CrudComponent </title>
<path fill="none" stroke="#000000" stroke-dasharray="5,2" d="M1273.7134,-187.1061C1273.7134,-187.1061 1273.7134,-205.991 1273.7134,-205.991"/>
<polygon fill="#000000" stroke="#000000" points="1270.2134,-205.9909 1273.7134,-215.991 1277.2134,-205.991 1270.2134,-205.9909"/>
</g>
<!-- EntrySelectComponent  -->
<g id="node18" class="node">
<title>EntrySelectComponent </title>
<polygon fill="#fb8072" stroke="#000000" points="1156.1439,-252 1005.8561,-252 1005.8561,-216 1156.1439,-216 1156.1439,-252"/>
<text text-anchor="middle" x="1081" y="-229.8" font-family="Times,serif" font-size="14.00" fill="#000000">EntrySelectComponent </text>
</g>
<!-- DataModule&#45;&gt;EntrySelectComponent  -->
<g id="edge17" class="edge">
<title>DataModule&#45;&gt;EntrySelectComponent </title>
<path fill="none" stroke="#000000" stroke-dasharray="5,2" d="M1260.9481,-184C1206.6741,-184 1120.375,-184 1120.375,-184 1120.375,-184 1120.375,-205.9489 1120.375,-205.9489"/>
<polygon fill="#000000" stroke="#000000" points="1116.8751,-205.9488 1120.375,-215.9489 1123.8751,-205.9489 1116.8751,-205.9488"/>
</g>
<!-- DatamanagerListComponent  -->
<g id="node19" class="node">
<title>DatamanagerListComponent </title>
<polygon fill="#fb8072" stroke="#000000" points="987.7323,-252 806.2677,-252 806.2677,-216 987.7323,-216 987.7323,-252"/>
<text text-anchor="middle" x="897" y="-229.8" font-family="Times,serif" font-size="14.00" fill="#000000">DatamanagerListComponent </text>
</g>
<!-- DataModule&#45;&gt;DatamanagerListComponent  -->
<g id="edge18" class="edge">
<title>DataModule&#45;&gt;DatamanagerListComponent </title>
<path fill="none" stroke="#000000" stroke-dasharray="5,2" d="M1261.0049,-181C1171.8586,-181 975.1218,-181 975.1218,-181 975.1218,-181 975.1218,-205.7604 975.1218,-205.7604"/>
<polygon fill="#000000" stroke="#000000" points="971.6219,-205.7604 975.1218,-215.7604 978.6219,-205.7604 971.6219,-205.7604"/>
</g>
<!-- ResourceListComponent  -->
<g id="node20" class="node">
<title>ResourceListComponent </title>
<polygon fill="#fb8072" stroke="#000000" points="788.1967,-252 629.8033,-252 629.8033,-216 788.1967,-216 788.1967,-252"/>
<text text-anchor="middle" x="709" y="-229.8" font-family="Times,serif" font-size="14.00" fill="#000000">ResourceListComponent </text>
</g>
<!-- DataModule&#45;&gt;ResourceListComponent  -->
<g id="edge19" class="edge">
<title>DataModule&#45;&gt;ResourceListComponent </title>
<path fill="none" stroke="#000000" stroke-dasharray="5,2" d="M1260.7441,-178C1129.8366,-178 746.8385,-178 746.8385,-178 746.8385,-178 746.8385,-205.973 746.8385,-205.973"/>
<polygon fill="#000000" stroke="#000000" points="743.3386,-205.973 746.8385,-215.973 750.3386,-205.973 743.3386,-205.973"/>
</g>
<!-- UiModule -->
<g id="node12" class="node">
<title>UiModule</title>
<polygon fill="#8dd3c7" stroke="#000000" points="1060.5484,-122 1057.5484,-126 1036.5484,-126 1033.5484,-122 987.4516,-122 987.4516,-86 1060.5484,-86 1060.5484,-122"/>
<text text-anchor="middle" x="1024" y="-99.8" font-family="Times,serif" font-size="14.00" fill="#000000">UiModule</text>
</g>
<!-- UiModule&#45;&gt;DataModule -->
<g id="edge11" class="edge">
<title>UiModule&#45;&gt;DataModule</title>
<path fill="none" stroke="#000000" d="M1033.3508,-122.2396C1033.3508,-137.5706 1033.3508,-157 1033.3508,-157 1033.3508,-157 1250.8156,-157 1250.8156,-157"/>
<polygon fill="#000000" stroke="#000000" points="1250.8156,-160.5001 1260.8156,-157 1250.8155,-153.5001 1250.8156,-160.5001"/>
</g>
<!-- SdkService -->
<g id="node21" class="node">
<title>SdkService</title>
<ellipse fill="#fdb462" stroke="#000000" cx="908" cy="-104" rx="55.0343" ry="18"/>
<text text-anchor="middle" x="908" y="-99.8" font-family="Times,serif" font-size="14.00" fill="#000000">SdkService</text>
</g>
<!-- SdkService&#45;&gt;DataModule -->
<g id="edge20" class="edge">
<title>SdkService&#45;&gt;DataModule</title>
<path fill="none" stroke="#000000" d="M908,-122.027C908,-138.3976 908,-160 908,-160 908,-160 1250.8672,-160 1250.8672,-160"/>
<polygon fill="#000000" stroke="#000000" points="1250.8673,-163.5001 1260.8672,-160 1250.8672,-156.5001 1250.8673,-163.5001"/>
</g>
<!-- PublicService -->
<g id="node22" class="node">
<title>PublicService</title>
<ellipse fill="#fdb462" stroke="#000000" cx="770" cy="-104" rx="64.8428" ry="18"/>
<text text-anchor="middle" x="770" y="-99.8" font-family="Times,serif" font-size="14.00" fill="#000000">PublicService</text>
</g>
<!-- PublicService&#45;&gt;DataModule -->
<g id="edge21" class="edge">
<title>PublicService&#45;&gt;DataModule</title>
<path fill="none" stroke="#000000" d="M820.5275,-115.3758C820.5275,-132.5205 820.5275,-163 820.5275,-163 820.5275,-163 1250.6696,-163 1250.6696,-163"/>
<polygon fill="#000000" stroke="#000000" points="1250.6696,-166.5001 1260.6696,-163 1250.6695,-159.5001 1250.6696,-166.5001"/>
</g>
<!-- AdminService -->
<g id="node23" class="node">
<title>AdminService</title>
<ellipse fill="#fdb462" stroke="#000000" cx="621" cy="-104" rx="66.6325" ry="18"/>
<text text-anchor="middle" x="621" y="-99.8" font-family="Times,serif" font-size="14.00" fill="#000000">AdminService</text>
</g>
<!-- AdminService&#45;&gt;DataModule -->
<g id="edge22" class="edge">
<title>AdminService&#45;&gt;DataModule</title>
<path fill="none" stroke="#000000" d="M658.7339,-119.0085C658.7339,-137.3575 658.7339,-166 658.7339,-166 658.7339,-166 1250.9118,-166 1250.9118,-166"/>
<polygon fill="#000000" stroke="#000000" points="1250.9118,-169.5001 1260.9118,-166 1250.9117,-162.5001 1250.9118,-169.5001"/>
</g>
<!-- CrudService -->
<g id="node24" class="node">
<title>CrudService</title>
<ellipse fill="#fdb462" stroke="#000000" cx="477" cy="-104" rx="59.1083" ry="18"/>
<text text-anchor="middle" x="477" y="-99.8" font-family="Times,serif" font-size="14.00" fill="#000000">CrudService</text>
</g>
<!-- CrudService&#45;&gt;DataModule -->
<g id="edge23" class="edge">
<title>CrudService&#45;&gt;DataModule</title>
<path fill="none" stroke="#000000" d="M477,-122.1061C477,-141.3391 477,-169 477,-169 477,-169 1250.9902,-169 1250.9902,-169"/>
<polygon fill="#000000" stroke="#000000" points="1250.9903,-172.5001 1260.9902,-169 1250.9902,-165.5001 1250.9903,-172.5001"/>
</g>
<!-- TypeConfigService -->
<g id="node25" class="node">
<title>TypeConfigService</title>
<ellipse fill="#fdb462" stroke="#000000" cx="313" cy="-104" rx="86.8184" ry="18"/>
<text text-anchor="middle" x="313" y="-99.8" font-family="Times,serif" font-size="14.00" fill="#000000">TypeConfigService</text>
</g>
<!-- TypeConfigService&#45;&gt;DataModule -->
<g id="edge24" class="edge">
<title>TypeConfigService&#45;&gt;DataModule</title>
<path fill="none" stroke="#000000" d="M313,-122.2228C313,-142.3652 313,-172 313,-172 313,-172 1250.7807,-172 1250.7807,-172"/>
<polygon fill="#000000" stroke="#000000" points="1250.7808,-175.5001 1260.7807,-172 1250.7807,-168.5001 1250.7808,-175.5001"/>
</g>
<!-- ModelConfigService -->
<g id="node26" class="node">
<title>ModelConfigService</title>
<ellipse fill="#fdb462" stroke="#000000" cx="116" cy="-104" rx="92.0548" ry="18"/>
<text text-anchor="middle" x="116" y="-99.8" font-family="Times,serif" font-size="14.00" fill="#000000">ModelConfigService</text>
</g>
<!-- ModelConfigService&#45;&gt;DataModule -->
<g id="edge25" class="edge">
<title>ModelConfigService&#45;&gt;DataModule</title>
<path fill="none" stroke="#000000" d="M116,-122.2843C116,-143.3211 116,-175 116,-175 116,-175 1251.0166,-175 1251.0166,-175"/>
<polygon fill="#000000" stroke="#000000" points="1251.0166,-178.5001 1261.0166,-175 1251.0166,-171.5001 1251.0166,-178.5001"/>
</g>
</g>
</svg>
