<?xml version="1.0" encoding="UTF-8" standalone="no"?>
<!DOCTYPE svg PUBLIC "-//W3C//DTD SVG 1.1//EN"
 "http://www.w3.org/Graphics/SVG/1.1/DTD/svg11.dtd">
<!-- Generated by graphviz version 2.40.1 (20161225.0304)
 -->
<!-- Title: dependencies Pages: 1 -->
<svg width="2748pt" height="284pt"
 viewBox="0.00 0.00 2748.00 284.00" xmlns="http://www.w3.org/2000/svg" xmlns:xlink="http://www.w3.org/1999/xlink">
<g id="graph0" class="graph" transform="scale(1 1) rotate(0) translate(4 280)">
<title>dependencies</title>
<polygon fill="#ffffff" stroke="transparent" points="-4,4 -4,-280 2744,-280 2744,4 -4,4"/>
<text text-anchor="start" x="1349.0091" y="-42.4" font-family="sans-serif" font-weight="bold" font-size="14.00" fill="#000000">Legend</text>
<polygon fill="#ffffb3" stroke="transparent" points="1136,-10 1136,-30 1156,-30 1156,-10 1136,-10"/>
<text text-anchor="start" x="1159.629" y="-15.4" font-family="sans-serif" font-size="14.00" fill="#000000"> &#160;Declarations</text>
<polygon fill="#8dd3c7" stroke="transparent" points="1249,-10 1249,-30 1269,-30 1269,-10 1249,-10"/>
<text text-anchor="start" x="1272.7251" y="-15.4" font-family="sans-serif" font-size="14.00" fill="#000000"> &#160;Module</text>
<polygon fill="#80b1d3" stroke="transparent" points="1335,-10 1335,-30 1355,-30 1355,-10 1335,-10"/>
<text text-anchor="start" x="1358.7812" y="-15.4" font-family="sans-serif" font-size="14.00" fill="#000000"> &#160;Bootstrap</text>
<polygon fill="#fdb462" stroke="transparent" points="1432,-10 1432,-30 1452,-30 1452,-10 1432,-10"/>
<text text-anchor="start" x="1455.6732" y="-15.4" font-family="sans-serif" font-size="14.00" fill="#000000"> &#160;Providers</text>
<polygon fill="#fb8072" stroke="transparent" points="1528,-10 1528,-30 1548,-30 1548,-10 1528,-10"/>
<text text-anchor="start" x="1551.7258" y="-15.4" font-family="sans-serif" font-size="14.00" fill="#000000"> &#160;Exports</text>
<g id="clust1" class="cluster">
<title>cluster_DataModule</title>
<polygon fill="none" stroke="#000000" stroke-dasharray="1,5" points="8,-70 8,-268 2732,-268 2732,-70 8,-70"/>
</g>
<g id="clust2" class="cluster">
<title>cluster_DataModule_declarations</title>
<polygon fill="none" stroke="#000000" points="959,-78 959,-130 2724,-130 2724,-78 959,-78"/>
</g>
<g id="clust14" class="cluster">
<title>cluster_DataModule_imports</title>
<polygon fill="none" stroke="#000000" points="552,-78 552,-130 951,-130 951,-78 552,-78"/>
</g>
<g id="clust15" class="cluster">
<title>cluster_DataModule_exports</title>
<polygon fill="none" stroke="#000000" points="409,-208 409,-260 2209,-260 2209,-208 409,-208"/>
</g>
<g id="clust17" class="cluster">
<title>cluster_DataModule_providers</title>
<polygon fill="none" stroke="#000000" points="16,-78 16,-130 544,-130 544,-78 16,-78"/>
</g>
<!-- EntryListComponent -->
<g id="node1" class="node">
<title>EntryListComponent</title>
<polygon fill="#ffffb3" stroke="#000000" points="2716.2148,-122 2581.7852,-122 2581.7852,-86 2716.2148,-86 2716.2148,-122"/>
<text text-anchor="middle" x="2649" y="-99.8" font-family="Times,serif" font-size="14.00" fill="#000000">EntryListComponent</text>
</g>
<!-- DataModule -->
<g id="node12" class="node">
<title>DataModule</title>
<polygon fill="#8dd3c7" stroke="#000000" points="1312.9762,-187 1309.9762,-191 1288.9762,-191 1285.9762,-187 1227.0238,-187 1227.0238,-151 1312.9762,-151 1312.9762,-187"/>
<text text-anchor="middle" x="1270" y="-164.8" font-family="Times,serif" font-size="14.00" fill="#000000">DataModule</text>
</g>
<!-- EntryListComponent&#45;&gt;DataModule -->
<g id="edge1" class="edge">
<title>EntryListComponent&#45;&gt;DataModule</title>
<path fill="none" stroke="#000000" d="M2649,-122.308C2649,-142.1455 2649,-171 2649,-171 2649,-171 1323.1648,-171 1323.1648,-171"/>
<polygon fill="#000000" stroke="#000000" points="1323.1649,-167.5001 1313.1648,-171 1323.1648,-174.5001 1323.1649,-167.5001"/>
</g>
<!-- EntryDirective -->
<g id="node2" class="node">
<title>EntryDirective</title>
<polygon fill="#ffffb3" stroke="#000000" points="2563.6868,-122 2464.3132,-122 2464.3132,-86 2563.6868,-86 2563.6868,-122"/>
<text text-anchor="middle" x="2514" y="-99.8" font-family="Times,serif" font-size="14.00" fill="#000000">EntryDirective</text>
</g>
<!-- EntryDirective&#45;&gt;DataModule -->
<g id="edge2" class="edge">
<title>EntryDirective&#45;&gt;DataModule</title>
<path fill="none" stroke="#000000" d="M2514,-122.1686C2514,-141.0898 2514,-168 2514,-168 2514,-168 1323.1826,-168 1323.1826,-168"/>
<polygon fill="#000000" stroke="#000000" points="1323.1826,-164.5001 1313.1826,-168 1323.1825,-171.5001 1323.1826,-164.5001"/>
</g>
<!-- EntriesDirective -->
<g id="node3" class="node">
<title>EntriesDirective</title>
<polygon fill="#ffffb3" stroke="#000000" points="2446.7367,-122 2339.2633,-122 2339.2633,-86 2446.7367,-86 2446.7367,-122"/>
<text text-anchor="middle" x="2393" y="-99.8" font-family="Times,serif" font-size="14.00" fill="#000000">EntriesDirective</text>
</g>
<!-- EntriesDirective&#45;&gt;DataModule -->
<g id="edge3" class="edge">
<title>EntriesDirective&#45;&gt;DataModule</title>
<path fill="none" stroke="#000000" d="M2393,-122.2667C2393,-140.5552 2393,-166 2393,-166 2393,-166 1322.9926,-166 1322.9926,-166"/>
<polygon fill="#000000" stroke="#000000" points="1322.9926,-162.5001 1312.9926,-166 1322.9926,-169.5001 1322.9926,-162.5001"/>
</g>
<!-- EntryFormComponent -->
<g id="node4" class="node">
<title>EntryFormComponent</title>
<polygon fill="#ffffb3" stroke="#000000" points="2321.2702,-122 2178.7298,-122 2178.7298,-86 2321.2702,-86 2321.2702,-122"/>
<text text-anchor="middle" x="2250" y="-99.8" font-family="Times,serif" font-size="14.00" fill="#000000">EntryFormComponent</text>
</g>
<!-- EntryFormComponent&#45;&gt;DataModule -->
<g id="edge4" class="edge">
<title>EntryFormComponent&#45;&gt;DataModule</title>
<path fill="none" stroke="#000000" d="M2189.7361,-122.0225C2189.7361,-139.3734 2189.7361,-163 2189.7361,-163 2189.7361,-163 1323.1272,-163 1323.1272,-163"/>
<polygon fill="#000000" stroke="#000000" points="1323.1272,-159.5001 1313.1272,-163 1323.1271,-166.5001 1323.1272,-159.5001"/>
</g>
<!-- EntryPopComponent -->
<g id="node5" class="node">
<title>EntryPopComponent</title>
<polygon fill="#ffffb3" stroke="#000000" points="2161.219,-122 2026.781,-122 2026.781,-86 2161.219,-86 2161.219,-122"/>
<text text-anchor="middle" x="2094" y="-99.8" font-family="Times,serif" font-size="14.00" fill="#000000">EntryPopComponent</text>
</g>
<!-- EntryPopComponent&#45;&gt;DataModule -->
<g id="edge5" class="edge">
<title>EntryPopComponent&#45;&gt;DataModule</title>
<path fill="none" stroke="#000000" d="M2036.117,-122.0352C2036.117,-138.7344 2036.117,-161 2036.117,-161 2036.117,-161 1323.1077,-161 1323.1077,-161"/>
<polygon fill="#000000" stroke="#000000" points="1323.1078,-157.5001 1313.1077,-161 1323.1077,-164.5001 1323.1078,-157.5001"/>
</g>
<!-- ResourceListComponent -->
<g id="node6" class="node">
<title>ResourceListComponent</title>
<polygon fill="#ffffb3" stroke="#000000" points="2008.6965,-122 1853.3035,-122 1853.3035,-86 2008.6965,-86 2008.6965,-122"/>
<text text-anchor="middle" x="1931" y="-99.8" font-family="Times,serif" font-size="14.00" fill="#000000">ResourceListComponent</text>
</g>
<!-- ResourceListComponent&#45;&gt;DataModule -->
<g id="edge6" class="edge">
<title>ResourceListComponent&#45;&gt;DataModule</title>
<path fill="none" stroke="#000000" d="M1889.01,-122.0091C1889.01,-138.0494 1889.01,-159 1889.01,-159 1889.01,-159 1323.0361,-159 1323.0361,-159"/>
<polygon fill="#000000" stroke="#000000" points="1323.0362,-155.5001 1313.0361,-159 1323.0361,-162.5001 1323.0362,-155.5001"/>
</g>
<!-- ResourceFormComponent -->
<g id="node7" class="node">
<title>ResourceFormComponent</title>
<polygon fill="#ffffb3" stroke="#000000" points="1835.752,-122 1672.248,-122 1672.248,-86 1835.752,-86 1835.752,-122"/>
<text text-anchor="middle" x="1754" y="-99.8" font-family="Times,serif" font-size="14.00" fill="#000000">ResourceFormComponent</text>
</g>
<!-- ResourceFormComponent&#45;&gt;DataModule -->
<g id="edge7" class="edge">
<title>ResourceFormComponent&#45;&gt;DataModule</title>
<path fill="none" stroke="#000000" d="M1733.6296,-122.1871C1733.6296,-137.1824 1733.6296,-156 1733.6296,-156 1733.6296,-156 1323.2008,-156 1323.2008,-156"/>
<polygon fill="#000000" stroke="#000000" points="1323.2008,-152.5001 1313.2008,-156 1323.2008,-159.5001 1323.2008,-152.5001"/>
</g>
<!-- DefaultEntryInputComponent -->
<g id="node8" class="node">
<title>DefaultEntryInputComponent</title>
<polygon fill="#ffffb3" stroke="#000000" points="1653.965,-122 1470.035,-122 1470.035,-86 1653.965,-86 1653.965,-122"/>
<text text-anchor="middle" x="1562" y="-99.8" font-family="Times,serif" font-size="14.00" fill="#000000">DefaultEntryInputComponent</text>
</g>
<!-- DefaultEntryInputComponent&#45;&gt;DataModule -->
<g id="edge8" class="edge">
<title>DefaultEntryInputComponent&#45;&gt;DataModule</title>
<path fill="none" stroke="#000000" d="M1484.2777,-122.0511C1484.2777,-136.373 1484.2777,-154 1484.2777,-154 1484.2777,-154 1323.1045,-154 1323.1045,-154"/>
<polygon fill="#000000" stroke="#000000" points="1323.1046,-150.5001 1313.1045,-154 1323.1045,-157.5001 1323.1046,-150.5001"/>
</g>
<!-- DefaultEntryOutputComponent -->
<g id="node9" class="node">
<title>DefaultEntryOutputComponent</title>
<polygon fill="#ffffb3" stroke="#000000" points="1451.8018,-122 1258.1982,-122 1258.1982,-86 1451.8018,-86 1451.8018,-122"/>
<text text-anchor="middle" x="1355" y="-99.8" font-family="Times,serif" font-size="14.00" fill="#000000">DefaultEntryOutputComponent</text>
</g>
<!-- DefaultEntryOutputComponent&#45;&gt;DataModule -->
<g id="edge9" class="edge">
<title>DefaultEntryOutputComponent&#45;&gt;DataModule</title>
<path fill="none" stroke="#000000" d="M1285.6687,-122.1061C1285.6687,-122.1061 1285.6687,-140.991 1285.6687,-140.991"/>
<polygon fill="#000000" stroke="#000000" points="1282.1687,-140.9909 1285.6687,-150.991 1289.1687,-140.991 1282.1687,-140.9909"/>
</g>
<!-- CrudComponent -->
<g id="node10" class="node">
<title>CrudComponent</title>
<polygon fill="#ffffb3" stroke="#000000" points="1240.8301,-122 1131.1699,-122 1131.1699,-86 1240.8301,-86 1240.8301,-122"/>
<text text-anchor="middle" x="1186" y="-99.8" font-family="Times,serif" font-size="14.00" fill="#000000">CrudComponent</text>
</g>
<!-- CrudComponent&#45;&gt;DataModule -->
<g id="edge10" class="edge">
<title>CrudComponent&#45;&gt;DataModule</title>
<path fill="none" stroke="#000000" d="M1233.8384,-122.1061C1233.8384,-122.1061 1233.8384,-140.991 1233.8384,-140.991"/>
<polygon fill="#000000" stroke="#000000" points="1230.3384,-140.9909 1233.8384,-150.991 1237.3384,-140.991 1230.3384,-140.9909"/>
</g>
<!-- EntrySelectComponent -->
<g id="node11" class="node">
<title>EntrySelectComponent</title>
<polygon fill="#ffffb3" stroke="#000000" points="1113.1442,-122 966.8558,-122 966.8558,-86 1113.1442,-86 1113.1442,-122"/>
<text text-anchor="middle" x="1040" y="-99.8" font-family="Times,serif" font-size="14.00" fill="#000000">EntrySelectComponent</text>
</g>
<!-- EntrySelectComponent&#45;&gt;DataModule -->
<g id="edge11" class="edge">
<title>EntrySelectComponent&#45;&gt;DataModule</title>
<path fill="none" stroke="#000000" d="M1065.9869,-122.0511C1065.9869,-136.373 1065.9869,-154 1065.9869,-154 1065.9869,-154 1216.7341,-154 1216.7341,-154"/>
<polygon fill="#000000" stroke="#000000" points="1216.7341,-157.5001 1226.7341,-154 1216.734,-150.5001 1216.7341,-157.5001"/>
</g>
<!-- EntryListComponent  -->
<g id="node17" class="node">
<title>EntryListComponent </title>
<polygon fill="#fb8072" stroke="#000000" points="2200.7149,-252 2063.2851,-252 2063.2851,-216 2200.7149,-216 2200.7149,-252"/>
<text text-anchor="middle" x="2132" y="-229.8" font-family="Times,serif" font-size="14.00" fill="#000000">EntryListComponent </text>
</g>
<!-- DataModule&#45;&gt;EntryListComponent  -->
<g id="edge16" class="edge">
<title>DataModule&#45;&gt;EntryListComponent </title>
<path fill="none" stroke="#000000" stroke-dasharray="5,2" d="M1313.2105,-173C1485.2376,-173 2112.1261,-173 2112.1261,-173 2112.1261,-173 2112.1261,-205.698 2112.1261,-205.698"/>
<polygon fill="#000000" stroke="#000000" points="2108.6261,-205.698 2112.1261,-215.698 2115.6261,-205.698 2108.6261,-205.698"/>
</g>
<!-- EntryDirective  -->
<g id="node18" class="node">
<title>EntryDirective </title>
<polygon fill="#fb8072" stroke="#000000" points="2045.1871,-252 1942.8129,-252 1942.8129,-216 2045.1871,-216 2045.1871,-252"/>
<text text-anchor="middle" x="1994" y="-229.8" font-family="Times,serif" font-size="14.00" fill="#000000">EntryDirective </text>
</g>
<!-- DataModule&#45;&gt;EntryDirective  -->
<g id="edge17" class="edge">
<title>DataModule&#45;&gt;EntryDirective </title>
<path fill="none" stroke="#000000" stroke-dasharray="5,2" d="M1313.078,-175C1466.2801,-175 1975.6275,-175 1975.6275,-175 1975.6275,-175 1975.6275,-205.9775 1975.6275,-205.9775"/>
<polygon fill="#000000" stroke="#000000" points="1972.1275,-205.9774 1975.6275,-215.9775 1979.1275,-205.9775 1972.1275,-205.9774"/>
</g>
<!-- EntriesDirective  -->
<g id="node19" class="node">
<title>EntriesDirective </title>
<polygon fill="#fb8072" stroke="#000000" points="1924.7367,-252 1813.2633,-252 1813.2633,-216 1924.7367,-216 1924.7367,-252"/>
<text text-anchor="middle" x="1869" y="-229.8" font-family="Times,serif" font-size="14.00" fill="#000000">EntriesDirective </text>
</g>
<!-- DataModule&#45;&gt;EntriesDirective  -->
<g id="edge18" class="edge">
<title>DataModule&#45;&gt;EntriesDirective </title>
<path fill="none" stroke="#000000" stroke-dasharray="5,2" d="M1313.0593,-178C1443.3718,-178 1824.6289,-178 1824.6289,-178 1824.6289,-178 1824.6289,-205.973 1824.6289,-205.973"/>
<polygon fill="#000000" stroke="#000000" points="1821.1289,-205.973 1824.6289,-215.973 1828.1289,-205.973 1821.1289,-205.973"/>
</g>
<!-- EntryFormComponent  -->
<g id="node20" class="node">
<title>EntryFormComponent </title>
<polygon fill="#fb8072" stroke="#000000" points="1795.2702,-252 1648.7298,-252 1648.7298,-216 1795.2702,-216 1795.2702,-252"/>
<text text-anchor="middle" x="1722" y="-229.8" font-family="Times,serif" font-size="14.00" fill="#000000">EntryFormComponent </text>
</g>
<!-- DataModule&#45;&gt;EntryFormComponent  -->
<g id="edge19" class="edge">
<title>DataModule&#45;&gt;EntryFormComponent </title>
<path fill="none" stroke="#000000" stroke-dasharray="5,2" d="M1313.1879,-180C1415.2925,-180 1663.0533,-180 1663.0533,-180 1663.0533,-180 1663.0533,-205.7181 1663.0533,-205.7181"/>
<polygon fill="#000000" stroke="#000000" points="1659.5534,-205.718 1663.0533,-215.7181 1666.5534,-205.7181 1659.5534,-205.718"/>
</g>
<!-- EntryPopComponent  -->
<g id="node21" class="node">
<title>EntryPopComponent </title>
<polygon fill="#fb8072" stroke="#000000" points="1630.7191,-252 1493.2809,-252 1493.2809,-216 1630.7191,-216 1630.7191,-252"/>
<text text-anchor="middle" x="1562" y="-229.8" font-family="Times,serif" font-size="14.00" fill="#000000">EntryPopComponent </text>
</g>
<!-- DataModule&#45;&gt;EntryPopComponent  -->
<g id="edge20" class="edge">
<title>DataModule&#45;&gt;EntryPopComponent </title>
<path fill="none" stroke="#000000" stroke-dasharray="5,2" d="M1313.0856,-183C1394.3103,-183 1562,-183 1562,-183 1562,-183 1562,-205.8757 1562,-205.8757"/>
<polygon fill="#000000" stroke="#000000" points="1558.5001,-205.8757 1562,-215.8757 1565.5001,-205.8757 1558.5001,-205.8757"/>
</g>
<!-- CrudComponent  -->
<g id="node22" class="node">
<title>CrudComponent </title>
<polygon fill="#fb8072" stroke="#000000" points="1475.3297,-252 1362.6703,-252 1362.6703,-216 1475.3297,-216 1475.3297,-252"/>
<text text-anchor="middle" x="1419" y="-229.8" font-family="Times,serif" font-size="14.00" fill="#000000">CrudComponent </text>
</g>
<!-- DataModule&#45;&gt;CrudComponent  -->
<g id="edge21" class="edge">
<title>DataModule&#45;&gt;CrudComponent </title>
<path fill="none" stroke="#000000" stroke-dasharray="5,2" d="M1313.0088,-185C1353.221,-185 1407.118,-185 1407.118,-185 1407.118,-185 1407.118,-205.7542 1407.118,-205.7542"/>
<polygon fill="#000000" stroke="#000000" points="1403.6181,-205.7542 1407.118,-215.7542 1410.6181,-205.7542 1403.6181,-205.7542"/>
</g>
<!-- EntrySelectComponent  -->
<g id="node23" class="node">
<title>EntrySelectComponent </title>
<polygon fill="#fb8072" stroke="#000000" points="1345.1439,-252 1194.8561,-252 1194.8561,-216 1345.1439,-216 1345.1439,-252"/>
<text text-anchor="middle" x="1270" y="-229.8" font-family="Times,serif" font-size="14.00" fill="#000000">EntrySelectComponent </text>
</g>
<!-- DataModule&#45;&gt;EntrySelectComponent  -->
<g id="edge22" class="edge">
<title>DataModule&#45;&gt;EntrySelectComponent </title>
<path fill="none" stroke="#000000" stroke-dasharray="5,2" d="M1270,-187.1061C1270,-187.1061 1270,-205.991 1270,-205.991"/>
<polygon fill="#000000" stroke="#000000" points="1266.5001,-205.9909 1270,-215.991 1273.5001,-205.991 1266.5001,-205.9909"/>
</g>
<!-- ResourceListComponent  -->
<g id="node24" class="node">
<title>ResourceListComponent </title>
<polygon fill="#fb8072" stroke="#000000" points="1177.1967,-252 1018.8033,-252 1018.8033,-216 1177.1967,-216 1177.1967,-252"/>
<text text-anchor="middle" x="1098" y="-229.8" font-family="Times,serif" font-size="14.00" fill="#000000">ResourceListComponent </text>
</g>
<!-- DataModule&#45;&gt;ResourceListComponent  -->
<g id="edge23" class="edge">
<title>DataModule&#45;&gt;ResourceListComponent </title>
<path fill="none" stroke="#000000" stroke-dasharray="5,2" d="M1226.9331,-185C1194.0498,-185 1154.3417,-185 1154.3417,-185 1154.3417,-185 1154.3417,-205.7542 1154.3417,-205.7542"/>
<polygon fill="#000000" stroke="#000000" points="1150.8418,-205.7542 1154.3417,-215.7542 1157.8418,-205.7542 1150.8418,-205.7542"/>
</g>
<!-- ResourceFormComponent  -->
<g id="node25" class="node">
<title>ResourceFormComponent </title>
<polygon fill="#fb8072" stroke="#000000" points="1000.752,-252 833.248,-252 833.248,-216 1000.752,-216 1000.752,-252"/>
<text text-anchor="middle" x="917" y="-229.8" font-family="Times,serif" font-size="14.00" fill="#000000">ResourceFormComponent </text>
</g>
<!-- DataModule&#45;&gt;ResourceFormComponent  -->
<g id="edge24" class="edge">
<title>DataModule&#45;&gt;ResourceFormComponent </title>
<path fill="none" stroke="#000000" stroke-dasharray="5,2" d="M1226.8208,-183C1146.8269,-183 983.652,-183 983.652,-183 983.652,-183 983.652,-205.8757 983.652,-205.8757"/>
<polygon fill="#000000" stroke="#000000" points="980.1521,-205.8757 983.652,-215.8757 987.1521,-205.8757 980.1521,-205.8757"/>
</g>
<!-- UiModule  -->
<g id="node26" class="node">
<title>UiModule </title>
<polygon fill="#fb8072" stroke="#000000" points="815.547,-252 738.453,-252 738.453,-216 815.547,-216 815.547,-252"/>
<text text-anchor="middle" x="777" y="-229.8" font-family="Times,serif" font-size="14.00" fill="#000000">UiModule </text>
</g>
<!-- DataModule&#45;&gt;UiModule  -->
<g id="edge25" class="edge">
<title>DataModule&#45;&gt;UiModule </title>
<path fill="none" stroke="#000000" stroke-dasharray="5,2" d="M1226.8217,-180C1109.3862,-180 792.9287,-180 792.9287,-180 792.9287,-180 792.9287,-205.7181 792.9287,-205.7181"/>
<polygon fill="#000000" stroke="#000000" points="789.4287,-205.718 792.9287,-215.7181 796.4287,-205.7181 789.4287,-205.718"/>
</g>
<!-- SdkModule  -->
<g id="node27" class="node">
<title>SdkModule </title>
<polygon fill="#fb8072" stroke="#000000" points="720.3326,-252 635.6674,-252 635.6674,-216 720.3326,-216 720.3326,-252"/>
<text text-anchor="middle" x="678" y="-229.8" font-family="Times,serif" font-size="14.00" fill="#000000">SdkModule </text>
</g>
<!-- DataModule&#45;&gt;SdkModule  -->
<g id="edge26" class="edge">
<title>DataModule&#45;&gt;SdkModule </title>
<path fill="none" stroke="#000000" stroke-dasharray="5,2" d="M1226.6323,-178C1092.4478,-178 693.0149,-178 693.0149,-178 693.0149,-178 693.0149,-205.973 693.0149,-205.973"/>
<polygon fill="#000000" stroke="#000000" points="689.515,-205.973 693.0149,-215.973 696.515,-205.973 689.515,-205.973"/>
</g>
<!-- FilesModule  -->
<g id="node28" class="node">
<title>FilesModule </title>
<polygon fill="#fb8072" stroke="#000000" points="617.2732,-252 526.7268,-252 526.7268,-216 617.2732,-216 617.2732,-252"/>
<text text-anchor="middle" x="572" y="-229.8" font-family="Times,serif" font-size="14.00" fill="#000000">FilesModule </text>
</g>
<!-- DataModule&#45;&gt;FilesModule  -->
<g id="edge27" class="edge">
<title>DataModule&#45;&gt;FilesModule </title>
<path fill="none" stroke="#000000" stroke-dasharray="5,2" d="M1226.8636,-175C1077.0959,-175 588.6815,-175 588.6815,-175 588.6815,-175 588.6815,-205.9775 588.6815,-205.9775"/>
<polygon fill="#000000" stroke="#000000" points="585.1815,-205.9774 588.6815,-215.9775 592.1815,-205.9775 585.1815,-205.9774"/>
</g>
<!-- AuthModule  -->
<g id="node29" class="node">
<title>AuthModule </title>
<polygon fill="#fb8072" stroke="#000000" points="508.547,-252 417.453,-252 417.453,-216 508.547,-216 508.547,-252"/>
<text text-anchor="middle" x="463" y="-229.8" font-family="Times,serif" font-size="14.00" fill="#000000">AuthModule </text>
</g>
<!-- DataModule&#45;&gt;AuthModule  -->
<g id="edge28" class="edge">
<title>DataModule&#45;&gt;AuthModule </title>
<path fill="none" stroke="#000000" stroke-dasharray="5,2" d="M1226.9033,-173C1059.6961,-173 463.1098,-173 463.1098,-173 463.1098,-173 463.1098,-205.698 463.1098,-205.698"/>
<polygon fill="#000000" stroke="#000000" points="459.6097,-205.698 463.1098,-215.698 466.6097,-205.698 459.6097,-205.698"/>
</g>
<!-- UiModule -->
<g id="node13" class="node">
<title>UiModule</title>
<polygon fill="#8dd3c7" stroke="#000000" points="942.5484,-122 939.5484,-126 918.5484,-126 915.5484,-122 869.4516,-122 869.4516,-86 942.5484,-86 942.5484,-122"/>
<text text-anchor="middle" x="906" y="-99.8" font-family="Times,serif" font-size="14.00" fill="#000000">UiModule</text>
</g>
<!-- UiModule&#45;&gt;DataModule -->
<g id="edge12" class="edge">
<title>UiModule&#45;&gt;DataModule</title>
<path fill="none" stroke="#000000" d="M906,-122.1871C906,-137.1824 906,-156 906,-156 906,-156 1216.815,-156 1216.815,-156"/>
<polygon fill="#000000" stroke="#000000" points="1216.8151,-159.5001 1226.815,-156 1216.815,-152.5001 1216.8151,-159.5001"/>
</g>
<!-- SdkModule -->
<g id="node14" class="node">
<title>SdkModule</title>
<polygon fill="#8dd3c7" stroke="#000000" points="851.8331,-122 848.8331,-126 827.8331,-126 824.8331,-122 770.1669,-122 770.1669,-86 851.8331,-86 851.8331,-122"/>
<text text-anchor="middle" x="811" y="-99.8" font-family="Times,serif" font-size="14.00" fill="#000000">SdkModule</text>
</g>
<!-- SdkModule&#45;&gt;DataModule -->
<g id="edge13" class="edge">
<title>SdkModule&#45;&gt;DataModule</title>
<path fill="none" stroke="#000000" d="M842.5202,-122.0091C842.5202,-138.0494 842.5202,-159 842.5202,-159 842.5202,-159 1216.6585,-159 1216.6585,-159"/>
<polygon fill="#000000" stroke="#000000" points="1216.6585,-162.5001 1226.6585,-159 1216.6584,-155.5001 1216.6585,-162.5001"/>
</g>
<!-- FilesModule -->
<g id="node15" class="node">
<title>FilesModule</title>
<polygon fill="#8dd3c7" stroke="#000000" points="752.2731,-122 749.2731,-126 728.2731,-126 725.2731,-122 665.7269,-122 665.7269,-86 752.2731,-86 752.2731,-122"/>
<text text-anchor="middle" x="709" y="-99.8" font-family="Times,serif" font-size="14.00" fill="#000000">FilesModule</text>
</g>
<!-- FilesModule&#45;&gt;DataModule -->
<g id="edge14" class="edge">
<title>FilesModule&#45;&gt;DataModule</title>
<path fill="none" stroke="#000000" d="M745.4315,-122.0352C745.4315,-138.7344 745.4315,-161 745.4315,-161 745.4315,-161 1216.6261,-161 1216.6261,-161"/>
<polygon fill="#000000" stroke="#000000" points="1216.6261,-164.5001 1226.6261,-161 1216.626,-157.5001 1216.6261,-164.5001"/>
</g>
<!-- AuthModule -->
<g id="node16" class="node">
<title>AuthModule</title>
<polygon fill="#8dd3c7" stroke="#000000" points="647.5482,-122 644.5482,-126 623.5482,-126 620.5482,-122 560.4518,-122 560.4518,-86 647.5482,-86 647.5482,-122"/>
<text text-anchor="middle" x="604" y="-99.8" font-family="Times,serif" font-size="14.00" fill="#000000">AuthModule</text>
</g>
<!-- AuthModule&#45;&gt;DataModule -->
<g id="edge15" class="edge">
<title>AuthModule&#45;&gt;DataModule</title>
<path fill="none" stroke="#000000" d="M641.6787,-122.0225C641.6787,-139.3734 641.6787,-163 641.6787,-163 641.6787,-163 1216.8129,-163 1216.8129,-163"/>
<polygon fill="#000000" stroke="#000000" points="1216.813,-166.5001 1226.8129,-163 1216.8129,-159.5001 1216.813,-166.5001"/>
</g>
<!-- CrudService -->
<g id="node30" class="node">
<title>CrudService</title>
<ellipse fill="#fdb462" stroke="#000000" cx="477" cy="-104" rx="59.1083" ry="18"/>
<text text-anchor="middle" x="477" y="-99.8" font-family="Times,serif" font-size="14.00" fill="#000000">CrudService</text>
</g>
<!-- CrudService&#45;&gt;DataModule -->
<g id="edge29" class="edge">
<title>CrudService&#45;&gt;DataModule</title>
<path fill="none" stroke="#000000" d="M531.5837,-111.1122C531.5837,-127.3976 531.5837,-166 531.5837,-166 531.5837,-166 1216.8371,-166 1216.8371,-166"/>
<polygon fill="#000000" stroke="#000000" points="1216.8371,-169.5001 1226.8371,-166 1216.837,-162.5001 1216.8371,-169.5001"/>
</g>
<!-- TypeConfigService -->
<g id="node31" class="node">
<title>TypeConfigService</title>
<ellipse fill="#fdb462" stroke="#000000" cx="313" cy="-104" rx="86.8184" ry="18"/>
<text text-anchor="middle" x="313" y="-99.8" font-family="Times,serif" font-size="14.00" fill="#000000">TypeConfigService</text>
</g>
<!-- TypeConfigService&#45;&gt;DataModule -->
<g id="edge30" class="edge">
<title>TypeConfigService&#45;&gt;DataModule</title>
<path fill="none" stroke="#000000" d="M313,-122.1686C313,-141.0898 313,-168 313,-168 313,-168 1217.0205,-168 1217.0205,-168"/>
<polygon fill="#000000" stroke="#000000" points="1217.0206,-171.5001 1227.0205,-168 1217.0205,-164.5001 1217.0206,-171.5001"/>
</g>
<!-- ModelConfigService -->
<g id="node32" class="node">
<title>ModelConfigService</title>
<ellipse fill="#fdb462" stroke="#000000" cx="116" cy="-104" rx="92.0548" ry="18"/>
<text text-anchor="middle" x="116" y="-99.8" font-family="Times,serif" font-size="14.00" fill="#000000">ModelConfigService</text>
</g>
<!-- ModelConfigService&#45;&gt;DataModule -->
<g id="edge31" class="edge">
<title>ModelConfigService&#45;&gt;DataModule</title>
<path fill="none" stroke="#000000" d="M116,-122.308C116,-142.1455 116,-171 116,-171 116,-171 1216.868,-171 1216.868,-171"/>
<polygon fill="#000000" stroke="#000000" points="1216.868,-174.5001 1226.868,-171 1216.868,-167.5001 1216.868,-174.5001"/>
</g>
</g>
</svg>
