<?xml version="1.0" encoding="UTF-8" standalone="no"?>
<!DOCTYPE svg PUBLIC "-//W3C//DTD SVG 1.1//EN"
 "http://www.w3.org/Graphics/SVG/1.1/DTD/svg11.dtd">
<!-- Generated by graphviz version 2.40.1 (20161225.0304)
 -->
<!-- Title: dependencies Pages: 1 -->
<svg width="2878pt" height="284pt"
 viewBox="0.00 0.00 2878.00 284.00" xmlns="http://www.w3.org/2000/svg" xmlns:xlink="http://www.w3.org/1999/xlink">
<g id="graph0" class="graph" transform="scale(1 1) rotate(0) translate(4 280)">
<title>dependencies</title>
<polygon fill="#ffffff" stroke="transparent" points="-4,4 -4,-280 2874,-280 2874,4 -4,4"/>
<text text-anchor="start" x="1414.0091" y="-42.4" font-family="sans-serif" font-weight="bold" font-size="14.00" fill="#000000">Legend</text>
<polygon fill="#ffffb3" stroke="transparent" points="1201,-10 1201,-30 1221,-30 1221,-10 1201,-10"/>
<text text-anchor="start" x="1224.629" y="-15.4" font-family="sans-serif" font-size="14.00" fill="#000000"> &#160;Declarations</text>
<polygon fill="#8dd3c7" stroke="transparent" points="1314,-10 1314,-30 1334,-30 1334,-10 1314,-10"/>
<text text-anchor="start" x="1337.7251" y="-15.4" font-family="sans-serif" font-size="14.00" fill="#000000"> &#160;Module</text>
<polygon fill="#80b1d3" stroke="transparent" points="1400,-10 1400,-30 1420,-30 1420,-10 1400,-10"/>
<text text-anchor="start" x="1423.7812" y="-15.4" font-family="sans-serif" font-size="14.00" fill="#000000"> &#160;Bootstrap</text>
<polygon fill="#fdb462" stroke="transparent" points="1497,-10 1497,-30 1517,-30 1517,-10 1497,-10"/>
<text text-anchor="start" x="1520.6732" y="-15.4" font-family="sans-serif" font-size="14.00" fill="#000000"> &#160;Providers</text>
<polygon fill="#fb8072" stroke="transparent" points="1593,-10 1593,-30 1613,-30 1613,-10 1593,-10"/>
<text text-anchor="start" x="1616.7258" y="-15.4" font-family="sans-serif" font-size="14.00" fill="#000000"> &#160;Exports</text>
<g id="clust1" class="cluster">
<title>cluster_DataModule</title>
<polygon fill="none" stroke="#000000" stroke-dasharray="1,5" points="8,-70 8,-268 2862,-268 2862,-70 8,-70"/>
</g>
<g id="clust2" class="cluster">
<title>cluster_DataModule_declarations</title>
<polygon fill="none" stroke="#000000" points="1245,-78 1245,-130 2854,-130 2854,-78 1245,-78"/>
</g>
<g id="clust13" class="cluster">
<title>cluster_DataModule_imports</title>
<polygon fill="none" stroke="#000000" points="708,-78 708,-130 1237,-130 1237,-78 708,-78"/>
</g>
<g id="clust14" class="cluster">
<title>cluster_DataModule_exports</title>
<polygon fill="none" stroke="#000000" points="619,-208 619,-260 2191,-260 2191,-208 619,-208"/>
</g>
<g id="clust16" class="cluster">
<title>cluster_DataModule_providers</title>
<polygon fill="none" stroke="#000000" points="16,-78 16,-130 700,-130 700,-78 16,-78"/>
</g>
<!-- EntryListComponent -->
<g id="node1" class="node">
<title>EntryListComponent</title>
<polygon fill="#ffffb3" stroke="#000000" points="2846.2148,-122 2711.7852,-122 2711.7852,-86 2846.2148,-86 2846.2148,-122"/>
<text text-anchor="middle" x="2779" y="-99.8" font-family="Times,serif" font-size="14.00" fill="#000000">EntryListComponent</text>
</g>
<!-- DataModule -->
<g id="node11" class="node">
<title>DataModule</title>
<polygon fill="#8dd3c7" stroke="#000000" points="1368.9762,-187 1365.9762,-191 1344.9762,-191 1341.9762,-187 1283.0238,-187 1283.0238,-151 1368.9762,-151 1368.9762,-187"/>
<text text-anchor="middle" x="1326" y="-164.8" font-family="Times,serif" font-size="14.00" fill="#000000">DataModule</text>
</g>
<!-- EntryListComponent&#45;&gt;DataModule -->
<g id="edge1" class="edge">
<title>EntryListComponent&#45;&gt;DataModule</title>
<path fill="none" stroke="#000000" d="M2779,-122.1289C2779,-142.5724 2779,-173 2779,-173 2779,-173 1379.0912,-173 1379.0912,-173"/>
<polygon fill="#000000" stroke="#000000" points="1379.0912,-169.5001 1369.0912,-173 1379.0912,-176.5001 1379.0912,-169.5001"/>
</g>
<!-- EntryDirective -->
<g id="node2" class="node">
<title>EntryDirective</title>
<polygon fill="#ffffb3" stroke="#000000" points="2693.6868,-122 2594.3132,-122 2594.3132,-86 2693.6868,-86 2693.6868,-122"/>
<text text-anchor="middle" x="2644" y="-99.8" font-family="Times,serif" font-size="14.00" fill="#000000">EntryDirective</text>
</g>
<!-- EntryDirective&#45;&gt;DataModule -->
<g id="edge2" class="edge">
<title>EntryDirective&#45;&gt;DataModule</title>
<path fill="none" stroke="#000000" d="M2644,-122.308C2644,-142.1455 2644,-171 2644,-171 2644,-171 1379.1029,-171 1379.1029,-171"/>
<polygon fill="#000000" stroke="#000000" points="1379.1029,-167.5001 1369.1029,-171 1379.1029,-174.5001 1379.1029,-167.5001"/>
</g>
<!-- EntriesDirective -->
<g id="node3" class="node">
<title>EntriesDirective</title>
<polygon fill="#ffffb3" stroke="#000000" points="2576.7367,-122 2469.2633,-122 2469.2633,-86 2576.7367,-86 2576.7367,-122"/>
<text text-anchor="middle" x="2523" y="-99.8" font-family="Times,serif" font-size="14.00" fill="#000000">EntriesDirective</text>
</g>
<!-- EntriesDirective&#45;&gt;DataModule -->
<g id="edge3" class="edge">
<title>EntriesDirective&#45;&gt;DataModule</title>
<path fill="none" stroke="#000000" d="M2523,-122.1686C2523,-141.0898 2523,-168 2523,-168 2523,-168 1379.309,-168 1379.309,-168"/>
<polygon fill="#000000" stroke="#000000" points="1379.3091,-164.5001 1369.309,-168 1379.309,-171.5001 1379.3091,-164.5001"/>
</g>
<!-- EntryFormComponent -->
<g id="node4" class="node">
<title>EntryFormComponent</title>
<polygon fill="#ffffb3" stroke="#000000" points="2451.2702,-122 2308.7298,-122 2308.7298,-86 2451.2702,-86 2451.2702,-122"/>
<text text-anchor="middle" x="2380" y="-99.8" font-family="Times,serif" font-size="14.00" fill="#000000">EntryFormComponent</text>
</g>
<!-- EntryFormComponent&#45;&gt;DataModule -->
<g id="edge4" class="edge">
<title>EntryFormComponent&#45;&gt;DataModule</title>
<path fill="none" stroke="#000000" d="M2380,-122.2667C2380,-140.5552 2380,-166 2380,-166 2380,-166 1379.283,-166 1379.283,-166"/>
<polygon fill="#000000" stroke="#000000" points="1379.2831,-162.5001 1369.283,-166 1379.283,-169.5001 1379.2831,-162.5001"/>
</g>
<!-- EntryPopComponent -->
<g id="node5" class="node">
<title>EntryPopComponent</title>
<polygon fill="#ffffb3" stroke="#000000" points="2291.219,-122 2156.781,-122 2156.781,-86 2291.219,-86 2291.219,-122"/>
<text text-anchor="middle" x="2224" y="-99.8" font-family="Times,serif" font-size="14.00" fill="#000000">EntryPopComponent</text>
</g>
<!-- EntryPopComponent&#45;&gt;DataModule -->
<g id="edge5" class="edge">
<title>EntryPopComponent&#45;&gt;DataModule</title>
<path fill="none" stroke="#000000" d="M2169.874,-122.0225C2169.874,-139.3734 2169.874,-163 2169.874,-163 2169.874,-163 1379.008,-163 1379.008,-163"/>
<polygon fill="#000000" stroke="#000000" points="1379.008,-159.5001 1369.008,-163 1379.008,-166.5001 1379.008,-159.5001"/>
</g>
<!-- DefaultEntryInputComponent -->
<g id="node6" class="node">
<title>DefaultEntryInputComponent</title>
<polygon fill="#ffffb3" stroke="#000000" points="2138.965,-122 1955.035,-122 1955.035,-86 2138.965,-86 2138.965,-122"/>
<text text-anchor="middle" x="2047" y="-99.8" font-family="Times,serif" font-size="14.00" fill="#000000">DefaultEntryInputComponent</text>
</g>
<!-- DefaultEntryInputComponent&#45;&gt;DataModule -->
<g id="edge6" class="edge">
<title>DefaultEntryInputComponent&#45;&gt;DataModule</title>
<path fill="none" stroke="#000000" d="M1991.1804,-122.0352C1991.1804,-138.7344 1991.1804,-161 1991.1804,-161 1991.1804,-161 1379.1318,-161 1379.1318,-161"/>
<polygon fill="#000000" stroke="#000000" points="1379.1319,-157.5001 1369.1318,-161 1379.1318,-164.5001 1379.1319,-157.5001"/>
</g>
<!-- DefaultEntryOutputComponent -->
<g id="node7" class="node">
<title>DefaultEntryOutputComponent</title>
<polygon fill="#ffffb3" stroke="#000000" points="1936.8018,-122 1743.1982,-122 1743.1982,-86 1936.8018,-86 1936.8018,-122"/>
<text text-anchor="middle" x="1840" y="-99.8" font-family="Times,serif" font-size="14.00" fill="#000000">DefaultEntryOutputComponent</text>
</g>
<!-- DefaultEntryOutputComponent&#45;&gt;DataModule -->
<g id="edge7" class="edge">
<title>DefaultEntryOutputComponent&#45;&gt;DataModule</title>
<path fill="none" stroke="#000000" d="M1760.2421,-122.0091C1760.2421,-138.0494 1760.2421,-159 1760.2421,-159 1760.2421,-159 1379.2244,-159 1379.2244,-159"/>
<polygon fill="#000000" stroke="#000000" points="1379.2244,-155.5001 1369.2244,-159 1379.2243,-162.5001 1379.2244,-155.5001"/>
</g>
<!-- AdminEntryInputComponent -->
<g id="node8" class="node">
<title>AdminEntryInputComponent</title>
<polygon fill="#ffffb3" stroke="#000000" points="1725.3752,-122 1544.6248,-122 1544.6248,-86 1725.3752,-86 1725.3752,-122"/>
<text text-anchor="middle" x="1635" y="-99.8" font-family="Times,serif" font-size="14.00" fill="#000000">AdminEntryInputComponent</text>
</g>
<!-- AdminEntryInputComponent&#45;&gt;DataModule -->
<g id="edge8" class="edge">
<title>AdminEntryInputComponent&#45;&gt;DataModule</title>
<path fill="none" stroke="#000000" d="M1578.7109,-122.1871C1578.7109,-137.1824 1578.7109,-156 1578.7109,-156 1578.7109,-156 1379.1554,-156 1379.1554,-156"/>
<polygon fill="#000000" stroke="#000000" points="1379.1554,-152.5001 1369.1554,-156 1379.1554,-159.5001 1379.1554,-152.5001"/>
</g>
<!-- CrudComponent -->
<g id="node9" class="node">
<title>CrudComponent</title>
<polygon fill="#ffffb3" stroke="#000000" points="1526.8301,-122 1417.1699,-122 1417.1699,-86 1526.8301,-86 1526.8301,-122"/>
<text text-anchor="middle" x="1472" y="-99.8" font-family="Times,serif" font-size="14.00" fill="#000000">CrudComponent</text>
</g>
<!-- CrudComponent&#45;&gt;DataModule -->
<g id="edge9" class="edge">
<title>CrudComponent&#45;&gt;DataModule</title>
<path fill="none" stroke="#000000" d="M1437.375,-122.0511C1437.375,-136.373 1437.375,-154 1437.375,-154 1437.375,-154 1379.0605,-154 1379.0605,-154"/>
<polygon fill="#000000" stroke="#000000" points="1379.0605,-150.5001 1369.0605,-154 1379.0604,-157.5001 1379.0605,-150.5001"/>
</g>
<!-- EntrySelectComponent -->
<g id="node10" class="node">
<title>EntrySelectComponent</title>
<polygon fill="#ffffb3" stroke="#000000" points="1399.1442,-122 1252.8558,-122 1252.8558,-86 1399.1442,-86 1399.1442,-122"/>
<text text-anchor="middle" x="1326" y="-99.8" font-family="Times,serif" font-size="14.00" fill="#000000">EntrySelectComponent</text>
</g>
<!-- EntrySelectComponent&#45;&gt;DataModule -->
<g id="edge10" class="edge">
<title>EntrySelectComponent&#45;&gt;DataModule</title>
<path fill="none" stroke="#000000" d="M1326,-122.1061C1326,-122.1061 1326,-140.991 1326,-140.991"/>
<polygon fill="#000000" stroke="#000000" points="1322.5001,-140.9909 1326,-150.991 1329.5001,-140.991 1322.5001,-140.9909"/>
</g>
<!-- EntryListComponent  -->
<g id="node17" class="node">
<title>EntryListComponent </title>
<polygon fill="#fb8072" stroke="#000000" points="2182.7149,-252 2045.2851,-252 2045.2851,-216 2182.7149,-216 2182.7149,-252"/>
<text text-anchor="middle" x="2114" y="-229.8" font-family="Times,serif" font-size="14.00" fill="#000000">EntryListComponent </text>
</g>
<!-- DataModule&#45;&gt;EntryListComponent  -->
<g id="edge16" class="edge">
<title>DataModule&#45;&gt;EntryListComponent </title>
<path fill="none" stroke="#000000" stroke-dasharray="5,2" d="M1369.1047,-175C1530.7973,-175 2092.0626,-175 2092.0626,-175 2092.0626,-175 2092.0626,-205.9775 2092.0626,-205.9775"/>
<polygon fill="#000000" stroke="#000000" points="2088.5627,-205.9774 2092.0626,-215.9775 2095.5627,-205.9775 2088.5627,-205.9774"/>
</g>
<!-- EntryDirective  -->
<g id="node18" class="node">
<title>EntryDirective </title>
<polygon fill="#fb8072" stroke="#000000" points="2027.1871,-252 1924.8129,-252 1924.8129,-216 2027.1871,-216 2027.1871,-252"/>
<text text-anchor="middle" x="1976" y="-229.8" font-family="Times,serif" font-size="14.00" fill="#000000">EntryDirective </text>
</g>
<!-- DataModule&#45;&gt;EntryDirective  -->
<g id="edge17" class="edge">
<title>DataModule&#45;&gt;EntryDirective </title>
<path fill="none" stroke="#000000" stroke-dasharray="5,2" d="M1369.0005,-178C1507.1391,-178 1930.6538,-178 1930.6538,-178 1930.6538,-178 1930.6538,-205.973 1930.6538,-205.973"/>
<polygon fill="#000000" stroke="#000000" points="1927.1538,-205.973 1930.6538,-215.973 1934.1538,-205.973 1927.1538,-205.973"/>
</g>
<!-- EntriesDirective  -->
<g id="node19" class="node">
<title>EntriesDirective </title>
<polygon fill="#fb8072" stroke="#000000" points="1906.7367,-252 1795.2633,-252 1795.2633,-216 1906.7367,-216 1906.7367,-252"/>
<text text-anchor="middle" x="1851" y="-229.8" font-family="Times,serif" font-size="14.00" fill="#000000">EntriesDirective </text>
</g>
<!-- DataModule&#45;&gt;EntriesDirective  -->
<g id="edge18" class="edge">
<title>DataModule&#45;&gt;EntriesDirective </title>
<path fill="none" stroke="#000000" stroke-dasharray="5,2" d="M1369.4096,-180C1495.193,-180 1851,-180 1851,-180 1851,-180 1851,-205.7181 1851,-205.7181"/>
<polygon fill="#000000" stroke="#000000" points="1847.5001,-205.718 1851,-215.7181 1854.5001,-205.7181 1847.5001,-205.718"/>
</g>
<!-- EntryFormComponent  -->
<g id="node20" class="node">
<title>EntryFormComponent </title>
<polygon fill="#fb8072" stroke="#000000" points="1777.2702,-252 1630.7298,-252 1630.7298,-216 1777.2702,-216 1777.2702,-252"/>
<text text-anchor="middle" x="1704" y="-229.8" font-family="Times,serif" font-size="14.00" fill="#000000">EntryFormComponent </text>
</g>
<!-- DataModule&#45;&gt;EntryFormComponent  -->
<g id="edge19" class="edge">
<title>DataModule&#45;&gt;EntryFormComponent </title>
<path fill="none" stroke="#000000" stroke-dasharray="5,2" d="M1369.1807,-183C1463.2152,-183 1678.1513,-183 1678.1513,-183 1678.1513,-183 1678.1513,-205.8757 1678.1513,-205.8757"/>
<polygon fill="#000000" stroke="#000000" points="1674.6514,-205.8757 1678.1513,-215.8757 1681.6514,-205.8757 1674.6514,-205.8757"/>
</g>
<!-- EntryPopComponent  -->
<g id="node21" class="node">
<title>EntryPopComponent </title>
<polygon fill="#fb8072" stroke="#000000" points="1612.7191,-252 1475.2809,-252 1475.2809,-216 1612.7191,-216 1612.7191,-252"/>
<text text-anchor="middle" x="1544" y="-229.8" font-family="Times,serif" font-size="14.00" fill="#000000">EntryPopComponent </text>
</g>
<!-- DataModule&#45;&gt;EntryPopComponent  -->
<g id="edge20" class="edge">
<title>DataModule&#45;&gt;EntryPopComponent </title>
<path fill="none" stroke="#000000" stroke-dasharray="5,2" d="M1369.2344,-185C1421.0281,-185 1500.9027,-185 1500.9027,-185 1500.9027,-185 1500.9027,-205.7542 1500.9027,-205.7542"/>
<polygon fill="#000000" stroke="#000000" points="1497.4028,-205.7542 1500.9027,-215.7542 1504.4028,-205.7542 1497.4028,-205.7542"/>
</g>
<!-- CrudComponent  -->
<g id="node22" class="node">
<title>CrudComponent </title>
<polygon fill="#fb8072" stroke="#000000" points="1457.3297,-252 1344.6703,-252 1344.6703,-216 1457.3297,-216 1457.3297,-252"/>
<text text-anchor="middle" x="1401" y="-229.8" font-family="Times,serif" font-size="14.00" fill="#000000">CrudComponent </text>
</g>
<!-- DataModule&#45;&gt;CrudComponent  -->
<g id="edge21" class="edge">
<title>DataModule&#45;&gt;CrudComponent </title>
<path fill="none" stroke="#000000" stroke-dasharray="5,2" d="M1356.7867,-187.1061C1356.7867,-187.1061 1356.7867,-205.991 1356.7867,-205.991"/>
<polygon fill="#000000" stroke="#000000" points="1353.2867,-205.9909 1356.7867,-215.991 1360.2867,-205.991 1353.2867,-205.9909"/>
</g>
<!-- EntrySelectComponent  -->
<g id="node23" class="node">
<title>EntrySelectComponent </title>
<polygon fill="#fb8072" stroke="#000000" points="1327.1439,-252 1176.8561,-252 1176.8561,-216 1327.1439,-216 1327.1439,-252"/>
<text text-anchor="middle" x="1252" y="-229.8" font-family="Times,serif" font-size="14.00" fill="#000000">EntrySelectComponent </text>
</g>
<!-- DataModule&#45;&gt;EntrySelectComponent  -->
<g id="edge22" class="edge">
<title>DataModule&#45;&gt;EntrySelectComponent </title>
<path fill="none" stroke="#000000" stroke-dasharray="5,2" d="M1305.0419,-187.1061C1305.0419,-187.1061 1305.0419,-205.991 1305.0419,-205.991"/>
<polygon fill="#000000" stroke="#000000" points="1301.542,-205.9909 1305.0419,-215.991 1308.542,-205.991 1301.542,-205.9909"/>
</g>
<!-- UiModule  -->
<g id="node24" class="node">
<title>UiModule </title>
<polygon fill="#fb8072" stroke="#000000" points="1158.547,-252 1081.453,-252 1081.453,-216 1158.547,-216 1158.547,-252"/>
<text text-anchor="middle" x="1120" y="-229.8" font-family="Times,serif" font-size="14.00" fill="#000000">UiModule </text>
</g>
<!-- DataModule&#45;&gt;UiModule  -->
<g id="edge23" class="edge">
<title>DataModule&#45;&gt;UiModule </title>
<path fill="none" stroke="#000000" stroke-dasharray="5,2" d="M1282.9924,-185C1229.8731,-185 1146.4464,-185 1146.4464,-185 1146.4464,-185 1146.4464,-205.7542 1146.4464,-205.7542"/>
<polygon fill="#000000" stroke="#000000" points="1142.9464,-205.7542 1146.4464,-215.7542 1149.9464,-205.7542 1142.9464,-205.7542"/>
</g>
<!-- SdkModule  -->
<g id="node25" class="node">
<title>SdkModule </title>
<polygon fill="#fb8072" stroke="#000000" points="1063.3326,-252 978.6674,-252 978.6674,-216 1063.3326,-216 1063.3326,-252"/>
<text text-anchor="middle" x="1021" y="-229.8" font-family="Times,serif" font-size="14.00" fill="#000000">SdkModule </text>
</g>
<!-- DataModule&#45;&gt;SdkModule  -->
<g id="edge24" class="edge">
<title>DataModule&#45;&gt;SdkModule </title>
<path fill="none" stroke="#000000" stroke-dasharray="5,2" d="M1282.9466,-183C1207.6275,-183 1059.875,-183 1059.875,-183 1059.875,-183 1059.875,-205.8757 1059.875,-205.8757"/>
<polygon fill="#000000" stroke="#000000" points="1056.3751,-205.8757 1059.875,-215.8757 1063.3751,-205.8757 1056.3751,-205.8757"/>
</g>
<!-- FilesModule  -->
<g id="node26" class="node">
<title>FilesModule </title>
<polygon fill="#fb8072" stroke="#000000" points="960.2732,-252 869.7268,-252 869.7268,-216 960.2732,-216 960.2732,-252"/>
<text text-anchor="middle" x="915" y="-229.8" font-family="Times,serif" font-size="14.00" fill="#000000">FilesModule </text>
</g>
<!-- DataModule&#45;&gt;FilesModule  -->
<g id="edge25" class="edge">
<title>DataModule&#45;&gt;FilesModule </title>
<path fill="none" stroke="#000000" stroke-dasharray="5,2" d="M1282.8176,-180C1185.1827,-180 955.875,-180 955.875,-180 955.875,-180 955.875,-205.7181 955.875,-205.7181"/>
<polygon fill="#000000" stroke="#000000" points="952.3751,-205.718 955.875,-215.7181 959.3751,-205.7181 952.3751,-205.718"/>
</g>
<!-- AuthModule  -->
<g id="node27" class="node">
<title>AuthModule </title>
<polygon fill="#fb8072" stroke="#000000" points="851.547,-252 760.453,-252 760.453,-216 851.547,-216 851.547,-252"/>
<text text-anchor="middle" x="806" y="-229.8" font-family="Times,serif" font-size="14.00" fill="#000000">AuthModule </text>
</g>
<!-- DataModule&#45;&gt;AuthModule  -->
<g id="edge26" class="edge">
<title>DataModule&#45;&gt;AuthModule </title>
<path fill="none" stroke="#000000" stroke-dasharray="5,2" d="M1282.6065,-178C1162.9352,-178 837.0221,-178 837.0221,-178 837.0221,-178 837.0221,-205.973 837.0221,-205.973"/>
<polygon fill="#000000" stroke="#000000" points="833.5222,-205.973 837.0221,-215.973 840.5222,-205.973 833.5222,-205.973"/>
</g>
<!-- ResourceModule  -->
<g id="node28" class="node">
<title>ResourceModule </title>
<polygon fill="#fb8072" stroke="#000000" points="742.6355,-252 627.3645,-252 627.3645,-216 742.6355,-216 742.6355,-252"/>
<text text-anchor="middle" x="685" y="-229.8" font-family="Times,serif" font-size="14.00" fill="#000000">ResourceModule </text>
</g>
<!-- DataModule&#45;&gt;ResourceModule  -->
<g id="edge27" class="edge">
<title>DataModule&#45;&gt;ResourceModule </title>
<path fill="none" stroke="#000000" stroke-dasharray="5,2" d="M1282.6116,-175C1145.3179,-175 729.375,-175 729.375,-175 729.375,-175 729.375,-205.9775 729.375,-205.9775"/>
<polygon fill="#000000" stroke="#000000" points="725.8751,-205.9774 729.375,-215.9775 732.8751,-205.9775 725.8751,-205.9774"/>
</g>
<!-- UiModule -->
<g id="node12" class="node">
<title>UiModule</title>
<polygon fill="#8dd3c7" stroke="#000000" points="1228.5484,-122 1225.5484,-126 1204.5484,-126 1201.5484,-122 1155.4516,-122 1155.4516,-86 1228.5484,-86 1228.5484,-122"/>
<text text-anchor="middle" x="1192" y="-99.8" font-family="Times,serif" font-size="14.00" fill="#000000">UiModule</text>
</g>
<!-- UiModule&#45;&gt;DataModule -->
<g id="edge11" class="edge">
<title>UiModule&#45;&gt;DataModule</title>
<path fill="none" stroke="#000000" d="M1202.8508,-122.0511C1202.8508,-136.373 1202.8508,-154 1202.8508,-154 1202.8508,-154 1272.9284,-154 1272.9284,-154"/>
<polygon fill="#000000" stroke="#000000" points="1272.9284,-157.5001 1282.9284,-154 1272.9284,-150.5001 1272.9284,-157.5001"/>
</g>
<!-- SdkModule -->
<g id="node13" class="node">
<title>SdkModule</title>
<polygon fill="#8dd3c7" stroke="#000000" points="1137.8331,-122 1134.8331,-126 1113.8331,-126 1110.8331,-122 1056.1669,-122 1056.1669,-86 1137.8331,-86 1137.8331,-122"/>
<text text-anchor="middle" x="1097" y="-99.8" font-family="Times,serif" font-size="14.00" fill="#000000">SdkModule</text>
</g>
<!-- SdkModule&#45;&gt;DataModule -->
<g id="edge12" class="edge">
<title>SdkModule&#45;&gt;DataModule</title>
<path fill="none" stroke="#000000" d="M1109.5714,-122.1871C1109.5714,-137.1824 1109.5714,-156 1109.5714,-156 1109.5714,-156 1272.9819,-156 1272.9819,-156"/>
<polygon fill="#000000" stroke="#000000" points="1272.9819,-159.5001 1282.9819,-156 1272.9819,-152.5001 1272.9819,-159.5001"/>
</g>
<!-- FilesModule -->
<g id="node14" class="node">
<title>FilesModule</title>
<polygon fill="#8dd3c7" stroke="#000000" points="1038.2731,-122 1035.2731,-126 1014.2731,-126 1011.2731,-122 951.7269,-122 951.7269,-86 1038.2731,-86 1038.2731,-122"/>
<text text-anchor="middle" x="995" y="-99.8" font-family="Times,serif" font-size="14.00" fill="#000000">FilesModule</text>
</g>
<!-- FilesModule&#45;&gt;DataModule -->
<g id="edge13" class="edge">
<title>FilesModule&#45;&gt;DataModule</title>
<path fill="none" stroke="#000000" d="M1008.4851,-122.0091C1008.4851,-138.0494 1008.4851,-159 1008.4851,-159 1008.4851,-159 1272.8481,-159 1272.8481,-159"/>
<polygon fill="#000000" stroke="#000000" points="1272.8481,-162.5001 1282.8481,-159 1272.848,-155.5001 1272.8481,-162.5001"/>
</g>
<!-- AuthModule -->
<g id="node15" class="node">
<title>AuthModule</title>
<polygon fill="#8dd3c7" stroke="#000000" points="933.5482,-122 930.5482,-126 909.5482,-126 906.5482,-122 846.4518,-122 846.4518,-86 933.5482,-86 933.5482,-122"/>
<text text-anchor="middle" x="890" y="-99.8" font-family="Times,serif" font-size="14.00" fill="#000000">AuthModule</text>
</g>
<!-- AuthModule&#45;&gt;DataModule -->
<g id="edge14" class="edge">
<title>AuthModule&#45;&gt;DataModule</title>
<path fill="none" stroke="#000000" d="M901.8186,-122.0352C901.8186,-138.7344 901.8186,-161 901.8186,-161 901.8186,-161 1272.9929,-161 1272.9929,-161"/>
<polygon fill="#000000" stroke="#000000" points="1272.9929,-164.5001 1282.9929,-161 1272.9928,-157.5001 1272.9929,-164.5001"/>
</g>
<!-- ResourceModule -->
<g id="node16" class="node">
<title>ResourceModule</title>
<polygon fill="#8dd3c7" stroke="#000000" points="827.636,-122 824.636,-126 803.636,-126 800.636,-122 716.364,-122 716.364,-86 827.636,-86 827.636,-122"/>
<text text-anchor="middle" x="772" y="-99.8" font-family="Times,serif" font-size="14.00" fill="#000000">ResourceModule</text>
</g>
<!-- ResourceModule&#45;&gt;DataModule -->
<g id="edge15" class="edge">
<title>ResourceModule&#45;&gt;DataModule</title>
<path fill="none" stroke="#000000" d="M794.1471,-122.0225C794.1471,-139.3734 794.1471,-163 794.1471,-163 794.1471,-163 1272.9268,-163 1272.9268,-163"/>
<polygon fill="#000000" stroke="#000000" points="1272.9268,-166.5001 1282.9268,-163 1272.9267,-159.5001 1272.9268,-166.5001"/>
</g>
<!-- CrudService -->
<g id="node29" class="node">
<title>CrudService</title>
<ellipse fill="#fdb462" stroke="#000000" cx="633" cy="-104" rx="59.1083" ry="18"/>
<text text-anchor="middle" x="633" y="-99.8" font-family="Times,serif" font-size="14.00" fill="#000000">CrudService</text>
</g>
<!-- CrudService&#45;&gt;DataModule -->
<g id="edge28" class="edge">
<title>CrudService&#45;&gt;DataModule</title>
<path fill="none" stroke="#000000" d="M659.8681,-120.2898C659.8681,-138.6593 659.8681,-166 659.8681,-166 659.8681,-166 1272.8065,-166 1272.8065,-166"/>
<polygon fill="#000000" stroke="#000000" points="1272.8065,-169.5001 1282.8065,-166 1272.8064,-162.5001 1272.8065,-169.5001"/>
</g>
<!-- TypeConfigService -->
<g id="node30" class="node">
<title>TypeConfigService</title>
<ellipse fill="#fdb462" stroke="#000000" cx="469" cy="-104" rx="86.8184" ry="18"/>
<text text-anchor="middle" x="469" y="-99.8" font-family="Times,serif" font-size="14.00" fill="#000000">TypeConfigService</text>
</g>
<!-- TypeConfigService&#45;&gt;DataModule -->
<g id="edge29" class="edge">
<title>TypeConfigService&#45;&gt;DataModule</title>
<path fill="none" stroke="#000000" d="M469,-122.1686C469,-141.0898 469,-168 469,-168 469,-168 1272.9139,-168 1272.9139,-168"/>
<polygon fill="#000000" stroke="#000000" points="1272.914,-171.5001 1282.9139,-168 1272.9139,-164.5001 1272.914,-171.5001"/>
</g>
<!-- ModelConfigService -->
<g id="node31" class="node">
<title>ModelConfigService</title>
<ellipse fill="#fdb462" stroke="#000000" cx="272" cy="-104" rx="92.0548" ry="18"/>
<text text-anchor="middle" x="272" y="-99.8" font-family="Times,serif" font-size="14.00" fill="#000000">ModelConfigService</text>
</g>
<!-- ModelConfigService&#45;&gt;DataModule -->
<g id="edge30" class="edge">
<title>ModelConfigService&#45;&gt;DataModule</title>
<path fill="none" stroke="#000000" d="M272,-122.308C272,-142.1455 272,-171 272,-171 272,-171 1272.717,-171 1272.717,-171"/>
<polygon fill="#000000" stroke="#000000" points="1272.717,-174.5001 1282.717,-171 1272.7169,-167.5001 1272.717,-174.5001"/>
</g>
<!-- HistoryService -->
<g id="node32" class="node">
<title>HistoryService</title>
<ellipse fill="#fdb462" stroke="#000000" cx="93" cy="-104" rx="68.9158" ry="18"/>
<text text-anchor="middle" x="93" y="-99.8" font-family="Times,serif" font-size="14.00" fill="#000000">HistoryService</text>
</g>
<!-- HistoryService&#45;&gt;DataModule -->
<g id="edge31" class="edge">
<title>HistoryService&#45;&gt;DataModule</title>
<path fill="none" stroke="#000000" d="M93,-122.1289C93,-142.5724 93,-173 93,-173 93,-173 1272.8398,-173 1272.8398,-173"/>
<polygon fill="#000000" stroke="#000000" points="1272.8399,-176.5001 1282.8398,-173 1272.8398,-169.5001 1272.8399,-176.5001"/>
</g>
</g>
</svg>
