<?xml version="1.0" encoding="UTF-8" standalone="no"?>
<!DOCTYPE svg PUBLIC "-//W3C//DTD SVG 1.1//EN"
 "http://www.w3.org/Graphics/SVG/1.1/DTD/svg11.dtd">
<!-- Generated by graphviz version 2.40.1 (20161225.0304)
 -->
<!-- Title: dependencies Pages: 1 -->
<svg width="1972pt" height="284pt"
 viewBox="0.00 0.00 1972.00 284.00" xmlns="http://www.w3.org/2000/svg" xmlns:xlink="http://www.w3.org/1999/xlink">
<g id="graph0" class="graph" transform="scale(1 1) rotate(0) translate(4 280)">
<title>dependencies</title>
<polygon fill="#ffffff" stroke="transparent" points="-4,4 -4,-280 1968,-280 1968,4 -4,4"/>
<text text-anchor="start" x="961.0091" y="-42.4" font-family="sans-serif" font-weight="bold" font-size="14.00" fill="#000000">Legend</text>
<polygon fill="#ffffb3" stroke="transparent" points="748,-10 748,-30 768,-30 768,-10 748,-10"/>
<text text-anchor="start" x="771.629" y="-15.4" font-family="sans-serif" font-size="14.00" fill="#000000"> &#160;Declarations</text>
<polygon fill="#8dd3c7" stroke="transparent" points="861,-10 861,-30 881,-30 881,-10 861,-10"/>
<text text-anchor="start" x="884.7251" y="-15.4" font-family="sans-serif" font-size="14.00" fill="#000000"> &#160;Module</text>
<polygon fill="#80b1d3" stroke="transparent" points="947,-10 947,-30 967,-30 967,-10 947,-10"/>
<text text-anchor="start" x="970.7812" y="-15.4" font-family="sans-serif" font-size="14.00" fill="#000000"> &#160;Bootstrap</text>
<polygon fill="#fdb462" stroke="transparent" points="1044,-10 1044,-30 1064,-30 1064,-10 1044,-10"/>
<text text-anchor="start" x="1067.6732" y="-15.4" font-family="sans-serif" font-size="14.00" fill="#000000"> &#160;Providers</text>
<polygon fill="#fb8072" stroke="transparent" points="1140,-10 1140,-30 1160,-30 1160,-10 1140,-10"/>
<text text-anchor="start" x="1163.7258" y="-15.4" font-family="sans-serif" font-size="14.00" fill="#000000"> &#160;Exports</text>
<g id="clust1" class="cluster">
<title>cluster_DataModule</title>
<polygon fill="none" stroke="#000000" stroke-dasharray="1,5" points="8,-70 8,-268 1956,-268 1956,-70 8,-70"/>
</g>
<g id="clust2" class="cluster">
<title>cluster_DataModule_declarations</title>
<polygon fill="none" stroke="#000000" points="827,-78 827,-130 1948,-130 1948,-78 827,-78"/>
</g>
<g id="clust10" class="cluster">
<title>cluster_DataModule_imports</title>
<polygon fill="none" stroke="#000000" points="729,-78 729,-130 819,-130 819,-78 729,-78"/>
</g>
<g id="clust11" class="cluster">
<title>cluster_DataModule_exports</title>
<polygon fill="none" stroke="#000000" points="525,-208 525,-260 1250,-260 1250,-208 525,-208"/>
</g>
<g id="clust13" class="cluster">
<title>cluster_DataModule_providers</title>
<polygon fill="none" stroke="#000000" points="16,-78 16,-130 721,-130 721,-78 16,-78"/>
</g>
<!-- EntryListComponent -->
<g id="node1" class="node">
<title>EntryListComponent</title>
<polygon fill="#ffffb3" stroke="#000000" points="1940.2148,-122 1805.7852,-122 1805.7852,-86 1940.2148,-86 1940.2148,-122"/>
<text text-anchor="middle" x="1873" y="-99.8" font-family="Times,serif" font-size="14.00" fill="#000000">EntryListComponent</text>
</g>
<!-- DataModule -->
<g id="node8" class="node">
<title>DataModule</title>
<polygon fill="#8dd3c7" stroke="#000000" points="932.9762,-187 929.9762,-191 908.9762,-191 905.9762,-187 847.0238,-187 847.0238,-151 932.9762,-151 932.9762,-187"/>
<text text-anchor="middle" x="890" y="-164.8" font-family="Times,serif" font-size="14.00" fill="#000000">DataModule</text>
</g>
<!-- EntryListComponent&#45;&gt;DataModule -->
<g id="edge1" class="edge">
<title>EntryListComponent&#45;&gt;DataModule</title>
<path fill="none" stroke="#000000" d="M1873,-122.2843C1873,-143.3211 1873,-175 1873,-175 1873,-175 943.188,-175 943.188,-175"/>
<polygon fill="#000000" stroke="#000000" points="943.188,-171.5001 933.188,-175 943.1879,-178.5001 943.188,-171.5001"/>
</g>
<!-- EntryComponent -->
<g id="node2" class="node">
<title>EntryComponent</title>
<polygon fill="#ffffb3" stroke="#000000" points="1788.437,-122 1675.563,-122 1675.563,-86 1788.437,-86 1788.437,-122"/>
<text text-anchor="middle" x="1732" y="-99.8" font-family="Times,serif" font-size="14.00" fill="#000000">EntryComponent</text>
</g>
<!-- EntryComponent&#45;&gt;DataModule -->
<g id="edge2" class="edge">
<title>EntryComponent&#45;&gt;DataModule</title>
<path fill="none" stroke="#000000" d="M1732,-122.308C1732,-142.1455 1732,-171 1732,-171 1732,-171 943.2041,-171 943.2041,-171"/>
<polygon fill="#000000" stroke="#000000" points="943.2041,-167.5001 933.2041,-171 943.204,-174.5001 943.2041,-167.5001"/>
</g>
<!-- EntriesComponent -->
<g id="node3" class="node">
<title>EntriesComponent</title>
<polygon fill="#ffffb3" stroke="#000000" points="1657.486,-122 1536.514,-122 1536.514,-86 1657.486,-86 1657.486,-122"/>
<text text-anchor="middle" x="1597" y="-99.8" font-family="Times,serif" font-size="14.00" fill="#000000">EntriesComponent</text>
</g>
<!-- EntriesComponent&#45;&gt;DataModule -->
<g id="edge3" class="edge">
<title>EntriesComponent&#45;&gt;DataModule</title>
<path fill="none" stroke="#000000" d="M1597,-122.2222C1597,-140.8285 1597,-167 1597,-167 1597,-167 943.1617,-167 943.1617,-167"/>
<polygon fill="#000000" stroke="#000000" points="943.1618,-163.5001 933.1617,-167 943.1617,-170.5001 943.1618,-163.5001"/>
</g>
<!-- EntryFormComponent -->
<g id="node4" class="node">
<title>EntryFormComponent</title>
<polygon fill="#ffffb3" stroke="#000000" points="1518.2702,-122 1375.7298,-122 1375.7298,-86 1518.2702,-86 1518.2702,-122"/>
<text text-anchor="middle" x="1447" y="-99.8" font-family="Times,serif" font-size="14.00" fill="#000000">EntryFormComponent</text>
</g>
<!-- EntryFormComponent&#45;&gt;DataModule -->
<g id="edge4" class="edge">
<title>EntryFormComponent&#45;&gt;DataModule</title>
<path fill="none" stroke="#000000" d="M1447,-122.0225C1447,-139.3734 1447,-163 1447,-163 1447,-163 943.2434,-163 943.2434,-163"/>
<polygon fill="#000000" stroke="#000000" points="943.2434,-159.5001 933.2434,-163 943.2433,-166.5001 943.2434,-159.5001"/>
</g>
<!-- DefaultEntryInputComponent -->
<g id="node5" class="node">
<title>DefaultEntryInputComponent</title>
<polygon fill="#ffffb3" stroke="#000000" points="1357.965,-122 1174.035,-122 1174.035,-86 1357.965,-86 1357.965,-122"/>
<text text-anchor="middle" x="1266" y="-99.8" font-family="Times,serif" font-size="14.00" fill="#000000">DefaultEntryInputComponent</text>
</g>
<!-- DefaultEntryInputComponent&#45;&gt;DataModule -->
<g id="edge5" class="edge">
<title>DefaultEntryInputComponent&#45;&gt;DataModule</title>
<path fill="none" stroke="#000000" d="M1207.9374,-122.0091C1207.9374,-138.0494 1207.9374,-159 1207.9374,-159 1207.9374,-159 943.2093,-159 943.2093,-159"/>
<polygon fill="#000000" stroke="#000000" points="943.2094,-155.5001 933.2093,-159 943.2093,-162.5001 943.2094,-155.5001"/>
</g>
<!-- DefaultEntryOutputComponent -->
<g id="node6" class="node">
<title>DefaultEntryOutputComponent</title>
<polygon fill="#ffffb3" stroke="#000000" points="1155.8018,-122 962.1982,-122 962.1982,-86 1155.8018,-86 1155.8018,-122"/>
<text text-anchor="middle" x="1059" y="-99.8" font-family="Times,serif" font-size="14.00" fill="#000000">DefaultEntryOutputComponent</text>
</g>
<!-- DefaultEntryOutputComponent&#45;&gt;DataModule -->
<g id="edge6" class="edge">
<title>DefaultEntryOutputComponent&#45;&gt;DataModule</title>
<path fill="none" stroke="#000000" d="M966.1906,-122.1243C966.1906,-136.7832 966.1906,-155 966.1906,-155 966.1906,-155 942.9939,-155 942.9939,-155"/>
<polygon fill="#000000" stroke="#000000" points="942.9939,-151.5001 932.9939,-155 942.9939,-158.5001 942.9939,-151.5001"/>
</g>
<!-- CrudComponent -->
<g id="node7" class="node">
<title>CrudComponent</title>
<polygon fill="#ffffb3" stroke="#000000" points="944.8301,-122 835.1699,-122 835.1699,-86 944.8301,-86 944.8301,-122"/>
<text text-anchor="middle" x="890" y="-99.8" font-family="Times,serif" font-size="14.00" fill="#000000">CrudComponent</text>
</g>
<!-- CrudComponent&#45;&gt;DataModule -->
<g id="edge7" class="edge">
<title>CrudComponent&#45;&gt;DataModule</title>
<path fill="none" stroke="#000000" d="M890,-122.1061C890,-122.1061 890,-140.991 890,-140.991"/>
<polygon fill="#000000" stroke="#000000" points="886.5001,-140.9909 890,-150.991 893.5001,-140.991 886.5001,-140.9909"/>
</g>
<!-- EntryListComponent  -->
<g id="node10" class="node">
<title>EntryListComponent </title>
<polygon fill="#fb8072" stroke="#000000" points="1241.7149,-252 1104.2851,-252 1104.2851,-216 1241.7149,-216 1241.7149,-252"/>
<text text-anchor="middle" x="1173" y="-229.8" font-family="Times,serif" font-size="14.00" fill="#000000">EntryListComponent </text>
</g>
<!-- DataModule&#45;&gt;EntryListComponent  -->
<g id="edge9" class="edge">
<title>DataModule&#45;&gt;EntryListComponent </title>
<path fill="none" stroke="#000000" stroke-dasharray="5,2" d="M933.1658,-179C1002.2336,-179 1129.8967,-179 1129.8967,-179 1129.8967,-179 1129.8967,-205.9909 1129.8967,-205.9909"/>
<polygon fill="#000000" stroke="#000000" points="1126.3968,-205.9909 1129.8967,-215.9909 1133.3968,-205.991 1126.3968,-205.9909"/>
</g>
<!-- EntryComponent  -->
<g id="node11" class="node">
<title>EntryComponent </title>
<polygon fill="#fb8072" stroke="#000000" points="1085.9362,-252 970.0638,-252 970.0638,-216 1085.9362,-216 1085.9362,-252"/>
<text text-anchor="middle" x="1028" y="-229.8" font-family="Times,serif" font-size="14.00" fill="#000000">EntryComponent </text>
</g>
<!-- DataModule&#45;&gt;EntryComponent  -->
<g id="edge10" class="edge">
<title>DataModule&#45;&gt;EntryComponent </title>
<path fill="none" stroke="#000000" stroke-dasharray="5,2" d="M933.2854,-183C973.7563,-183 1028,-183 1028,-183 1028,-183 1028,-205.8757 1028,-205.8757"/>
<polygon fill="#000000" stroke="#000000" points="1024.5001,-205.8757 1028,-215.8757 1031.5001,-205.8757 1024.5001,-205.8757"/>
</g>
<!-- EntriesComponent  -->
<g id="node12" class="node">
<title>EntriesComponent </title>
<polygon fill="#fb8072" stroke="#000000" points="952.487,-252 827.513,-252 827.513,-216 952.487,-216 952.487,-252"/>
<text text-anchor="middle" x="890" y="-229.8" font-family="Times,serif" font-size="14.00" fill="#000000">EntriesComponent </text>
</g>
<!-- DataModule&#45;&gt;EntriesComponent  -->
<g id="edge11" class="edge">
<title>DataModule&#45;&gt;EntriesComponent </title>
<path fill="none" stroke="#000000" stroke-dasharray="5,2" d="M890,-187.1061C890,-187.1061 890,-205.991 890,-205.991"/>
<polygon fill="#000000" stroke="#000000" points="886.5001,-205.9909 890,-215.991 893.5001,-205.991 886.5001,-205.9909"/>
</g>
<!-- EntryFormComponent  -->
<g id="node13" class="node">
<title>EntryFormComponent </title>
<polygon fill="#fb8072" stroke="#000000" points="810.2702,-252 663.7298,-252 663.7298,-216 810.2702,-216 810.2702,-252"/>
<text text-anchor="middle" x="737" y="-229.8" font-family="Times,serif" font-size="14.00" fill="#000000">EntryFormComponent </text>
</g>
<!-- DataModule&#45;&gt;EntryFormComponent  -->
<g id="edge12" class="edge">
<title>DataModule&#45;&gt;EntryFormComponent </title>
<path fill="none" stroke="#000000" stroke-dasharray="5,2" d="M846.8637,-183C809.5417,-183 761.5293,-183 761.5293,-183 761.5293,-183 761.5293,-205.8757 761.5293,-205.8757"/>
<polygon fill="#000000" stroke="#000000" points="758.0294,-205.8757 761.5293,-215.8757 765.0294,-205.8757 758.0294,-205.8757"/>
</g>
<!-- CrudComponent  -->
<g id="node14" class="node">
<title>CrudComponent </title>
<polygon fill="#fb8072" stroke="#000000" points="645.3297,-252 532.6703,-252 532.6703,-216 645.3297,-216 645.3297,-252"/>
<text text-anchor="middle" x="589" y="-229.8" font-family="Times,serif" font-size="14.00" fill="#000000">CrudComponent </text>
</g>
<!-- DataModule&#45;&gt;CrudComponent  -->
<g id="edge13" class="edge">
<title>DataModule&#45;&gt;CrudComponent </title>
<path fill="none" stroke="#000000" stroke-dasharray="5,2" d="M846.999,-179C771.7715,-179 624.1988,-179 624.1988,-179 624.1988,-179 624.1988,-205.9909 624.1988,-205.9909"/>
<polygon fill="#000000" stroke="#000000" points="620.6989,-205.9909 624.1988,-215.9909 627.6989,-205.991 620.6989,-205.9909"/>
</g>
<!-- UiModule -->
<g id="node9" class="node">
<title>UiModule</title>
<polygon fill="#8dd3c7" stroke="#000000" points="810.5484,-122 807.5484,-126 786.5484,-126 783.5484,-122 737.4516,-122 737.4516,-86 810.5484,-86 810.5484,-122"/>
<text text-anchor="middle" x="774" y="-99.8" font-family="Times,serif" font-size="14.00" fill="#000000">UiModule</text>
</g>
<!-- UiModule&#45;&gt;DataModule -->
<g id="edge8" class="edge">
<title>UiModule&#45;&gt;DataModule</title>
<path fill="none" stroke="#000000" d="M785.8322,-122.1243C785.8322,-136.7832 785.8322,-155 785.8322,-155 785.8322,-155 836.7284,-155 836.7284,-155"/>
<polygon fill="#000000" stroke="#000000" points="836.7285,-158.5001 846.7284,-155 836.7284,-151.5001 836.7285,-158.5001"/>
</g>
<!-- SdkService -->
<g id="node15" class="node">
<title>SdkService</title>
<ellipse fill="#fdb462" stroke="#000000" cx="658" cy="-104" rx="55.0343" ry="18"/>
<text text-anchor="middle" x="658" y="-99.8" font-family="Times,serif" font-size="14.00" fill="#000000">SdkService</text>
</g>
<!-- SdkService&#45;&gt;DataModule -->
<g id="edge14" class="edge">
<title>SdkService&#45;&gt;DataModule</title>
<path fill="none" stroke="#000000" d="M688.4411,-119.029C688.4411,-135.3135 688.4411,-159 688.4411,-159 688.4411,-159 836.7606,-159 836.7606,-159"/>
<polygon fill="#000000" stroke="#000000" points="836.7606,-162.5001 846.7606,-159 836.7605,-155.5001 836.7606,-162.5001"/>
</g>
<!-- PublicService -->
<g id="node16" class="node">
<title>PublicService</title>
<ellipse fill="#fdb462" stroke="#000000" cx="520" cy="-104" rx="64.8428" ry="18"/>
<text text-anchor="middle" x="520" y="-99.8" font-family="Times,serif" font-size="14.00" fill="#000000">PublicService</text>
</g>
<!-- PublicService&#45;&gt;DataModule -->
<g id="edge15" class="edge">
<title>PublicService&#45;&gt;DataModule</title>
<path fill="none" stroke="#000000" d="M558.6282,-118.5843C558.6282,-136.0559 558.6282,-163 558.6282,-163 558.6282,-163 837.0186,-163 837.0186,-163"/>
<polygon fill="#000000" stroke="#000000" points="837.0187,-166.5001 847.0186,-163 837.0186,-159.5001 837.0187,-166.5001"/>
</g>
<!-- AdminService -->
<g id="node17" class="node">
<title>AdminService</title>
<ellipse fill="#fdb462" stroke="#000000" cx="371" cy="-104" rx="66.6325" ry="18"/>
<text text-anchor="middle" x="371" y="-99.8" font-family="Times,serif" font-size="14.00" fill="#000000">AdminService</text>
</g>
<!-- AdminService&#45;&gt;DataModule -->
<g id="edge16" class="edge">
<title>AdminService&#45;&gt;DataModule</title>
<path fill="none" stroke="#000000" d="M371,-122.2222C371,-140.8285 371,-167 371,-167 371,-167 836.643,-167 836.643,-167"/>
<polygon fill="#000000" stroke="#000000" points="836.6431,-170.5001 846.643,-167 836.643,-163.5001 836.6431,-170.5001"/>
</g>
<!-- CrudService -->
<g id="node18" class="node">
<title>CrudService</title>
<ellipse fill="#fdb462" stroke="#000000" cx="227" cy="-104" rx="59.1083" ry="18"/>
<text text-anchor="middle" x="227" y="-99.8" font-family="Times,serif" font-size="14.00" fill="#000000">CrudService</text>
</g>
<!-- CrudService&#45;&gt;DataModule -->
<g id="edge17" class="edge">
<title>CrudService&#45;&gt;DataModule</title>
<path fill="none" stroke="#000000" d="M227,-122.308C227,-142.1455 227,-171 227,-171 227,-171 837.0096,-171 837.0096,-171"/>
<polygon fill="#000000" stroke="#000000" points="837.0096,-174.5001 847.0096,-171 837.0095,-167.5001 837.0096,-174.5001"/>
</g>
<!-- ModelConfig -->
<g id="node19" class="node">
<title>ModelConfig</title>
<ellipse fill="#fdb462" stroke="#000000" cx="87" cy="-104" rx="63.1441" ry="18"/>
<text text-anchor="middle" x="87" y="-99.8" font-family="Times,serif" font-size="14.00" fill="#000000">ModelConfig</text>
</g>
<!-- ModelConfig&#45;&gt;DataModule -->
<g id="edge18" class="edge">
<title>ModelConfig&#45;&gt;DataModule</title>
<path fill="none" stroke="#000000" d="M87,-122.2843C87,-143.3211 87,-175 87,-175 87,-175 836.8272,-175 836.8272,-175"/>
<polygon fill="#000000" stroke="#000000" points="836.8273,-178.5001 846.8272,-175 836.8272,-171.5001 836.8273,-178.5001"/>
</g>
</g>
</svg>
