<?xml version="1.0" encoding="UTF-8" standalone="no"?>
<!DOCTYPE svg PUBLIC "-//W3C//DTD SVG 1.1//EN"
 "http://www.w3.org/Graphics/SVG/1.1/DTD/svg11.dtd">
<!-- Generated by graphviz version 2.40.1 (20161225.0304)
 -->
<!-- Title: dependencies Pages: 1 -->
<svg width="2136pt" height="284pt"
 viewBox="0.00 0.00 2136.00 284.00" xmlns="http://www.w3.org/2000/svg" xmlns:xlink="http://www.w3.org/1999/xlink">
<g id="graph0" class="graph" transform="scale(1 1) rotate(0) translate(4 280)">
<title>dependencies</title>
<polygon fill="#ffffff" stroke="transparent" points="-4,4 -4,-280 2132,-280 2132,4 -4,4"/>
<text text-anchor="start" x="1043.0091" y="-42.4" font-family="sans-serif" font-weight="bold" font-size="14.00" fill="#000000">Legend</text>
<polygon fill="#ffffb3" stroke="transparent" points="830,-10 830,-30 850,-30 850,-10 830,-10"/>
<text text-anchor="start" x="853.629" y="-15.4" font-family="sans-serif" font-size="14.00" fill="#000000"> &#160;Declarations</text>
<polygon fill="#8dd3c7" stroke="transparent" points="943,-10 943,-30 963,-30 963,-10 943,-10"/>
<text text-anchor="start" x="966.7251" y="-15.4" font-family="sans-serif" font-size="14.00" fill="#000000"> &#160;Module</text>
<polygon fill="#80b1d3" stroke="transparent" points="1029,-10 1029,-30 1049,-30 1049,-10 1029,-10"/>
<text text-anchor="start" x="1052.7812" y="-15.4" font-family="sans-serif" font-size="14.00" fill="#000000"> &#160;Bootstrap</text>
<polygon fill="#fdb462" stroke="transparent" points="1126,-10 1126,-30 1146,-30 1146,-10 1126,-10"/>
<text text-anchor="start" x="1149.6732" y="-15.4" font-family="sans-serif" font-size="14.00" fill="#000000"> &#160;Providers</text>
<polygon fill="#fb8072" stroke="transparent" points="1222,-10 1222,-30 1242,-30 1242,-10 1222,-10"/>
<text text-anchor="start" x="1245.7258" y="-15.4" font-family="sans-serif" font-size="14.00" fill="#000000"> &#160;Exports</text>
<g id="clust1" class="cluster">
<title>cluster_DataModule</title>
<polygon fill="none" stroke="#000000" stroke-dasharray="1,5" points="8,-70 8,-268 2120,-268 2120,-70 8,-70"/>
</g>
<g id="clust2" class="cluster">
<title>cluster_DataModule_declarations</title>
<polygon fill="none" stroke="#000000" points="827,-78 827,-130 2112,-130 2112,-78 827,-78"/>
</g>
<g id="clust11" class="cluster">
<title>cluster_DataModule_imports</title>
<polygon fill="none" stroke="#000000" points="729,-78 729,-130 819,-130 819,-78 729,-78"/>
</g>
<g id="clust12" class="cluster">
<title>cluster_DataModule_exports</title>
<polygon fill="none" stroke="#000000" points="525,-208 525,-260 1418,-260 1418,-208 525,-208"/>
</g>
<g id="clust14" class="cluster">
<title>cluster_DataModule_providers</title>
<polygon fill="none" stroke="#000000" points="16,-78 16,-130 721,-130 721,-78 16,-78"/>
</g>
<!-- EntryListComponent -->
<g id="node1" class="node">
<title>EntryListComponent</title>
<polygon fill="#ffffb3" stroke="#000000" points="2104.2148,-122 1969.7852,-122 1969.7852,-86 2104.2148,-86 2104.2148,-122"/>
<text text-anchor="middle" x="2037" y="-99.8" font-family="Times,serif" font-size="14.00" fill="#000000">EntryListComponent</text>
</g>
<!-- DataModule -->
<g id="node9" class="node">
<title>DataModule</title>
<polygon fill="#8dd3c7" stroke="#000000" points="1023.9762,-187 1020.9762,-191 999.9762,-191 996.9762,-187 938.0238,-187 938.0238,-151 1023.9762,-151 1023.9762,-187"/>
<text text-anchor="middle" x="981" y="-164.8" font-family="Times,serif" font-size="14.00" fill="#000000">DataModule</text>
</g>
<!-- EntryListComponent&#45;&gt;DataModule -->
<g id="edge1" class="edge">
<title>EntryListComponent&#45;&gt;DataModule</title>
<path fill="none" stroke="#000000" d="M2037,-122.2843C2037,-143.3211 2037,-175 2037,-175 2037,-175 1034.0342,-175 1034.0342,-175"/>
<polygon fill="#000000" stroke="#000000" points="1034.0342,-171.5001 1024.0342,-175 1034.0342,-178.5001 1034.0342,-171.5001"/>
</g>
<!-- EntryComponent -->
<g id="node2" class="node">
<title>EntryComponent</title>
<polygon fill="#ffffb3" stroke="#000000" points="1952.437,-122 1839.563,-122 1839.563,-86 1952.437,-86 1952.437,-122"/>
<text text-anchor="middle" x="1896" y="-99.8" font-family="Times,serif" font-size="14.00" fill="#000000">EntryComponent</text>
</g>
<!-- EntryComponent&#45;&gt;DataModule -->
<g id="edge2" class="edge">
<title>EntryComponent&#45;&gt;DataModule</title>
<path fill="none" stroke="#000000" d="M1896,-122.308C1896,-142.1455 1896,-171 1896,-171 1896,-171 1034.2105,-171 1034.2105,-171"/>
<polygon fill="#000000" stroke="#000000" points="1034.2105,-167.5001 1024.2105,-171 1034.2104,-174.5001 1034.2105,-167.5001"/>
</g>
<!-- EntriesComponent -->
<g id="node3" class="node">
<title>EntriesComponent</title>
<polygon fill="#ffffb3" stroke="#000000" points="1821.486,-122 1700.514,-122 1700.514,-86 1821.486,-86 1821.486,-122"/>
<text text-anchor="middle" x="1761" y="-99.8" font-family="Times,serif" font-size="14.00" fill="#000000">EntriesComponent</text>
</g>
<!-- EntriesComponent&#45;&gt;DataModule -->
<g id="edge3" class="edge">
<title>EntriesComponent&#45;&gt;DataModule</title>
<path fill="none" stroke="#000000" d="M1761,-122.2222C1761,-140.8285 1761,-167 1761,-167 1761,-167 1034.0472,-167 1034.0472,-167"/>
<polygon fill="#000000" stroke="#000000" points="1034.0473,-163.5001 1024.0472,-167 1034.0472,-170.5001 1034.0473,-163.5001"/>
</g>
<!-- EntryFormComponent -->
<g id="node4" class="node">
<title>EntryFormComponent</title>
<polygon fill="#ffffb3" stroke="#000000" points="1682.2702,-122 1539.7298,-122 1539.7298,-86 1682.2702,-86 1682.2702,-122"/>
<text text-anchor="middle" x="1611" y="-99.8" font-family="Times,serif" font-size="14.00" fill="#000000">EntryFormComponent</text>
</g>
<!-- EntryFormComponent&#45;&gt;DataModule -->
<g id="edge4" class="edge">
<title>EntryFormComponent&#45;&gt;DataModule</title>
<path fill="none" stroke="#000000" d="M1611,-122.0225C1611,-139.3734 1611,-163 1611,-163 1611,-163 1034.3025,-163 1034.3025,-163"/>
<polygon fill="#000000" stroke="#000000" points="1034.3025,-159.5001 1024.3025,-163 1034.3024,-166.5001 1034.3025,-159.5001"/>
</g>
<!-- DefaultEntryInputComponent -->
<g id="node5" class="node">
<title>DefaultEntryInputComponent</title>
<polygon fill="#ffffb3" stroke="#000000" points="1521.965,-122 1338.035,-122 1338.035,-86 1521.965,-86 1521.965,-122"/>
<text text-anchor="middle" x="1430" y="-99.8" font-family="Times,serif" font-size="14.00" fill="#000000">DefaultEntryInputComponent</text>
</g>
<!-- DefaultEntryInputComponent&#45;&gt;DataModule -->
<g id="edge5" class="edge">
<title>DefaultEntryInputComponent&#45;&gt;DataModule</title>
<path fill="none" stroke="#000000" d="M1373.9374,-122.0091C1373.9374,-138.0494 1373.9374,-159 1373.9374,-159 1373.9374,-159 1034.1752,-159 1034.1752,-159"/>
<polygon fill="#000000" stroke="#000000" points="1034.1752,-155.5001 1024.1752,-159 1034.1752,-162.5001 1034.1752,-155.5001"/>
</g>
<!-- DefaultEntryOutputComponent -->
<g id="node6" class="node">
<title>DefaultEntryOutputComponent</title>
<polygon fill="#ffffb3" stroke="#000000" points="1319.8018,-122 1126.1982,-122 1126.1982,-86 1319.8018,-86 1319.8018,-122"/>
<text text-anchor="middle" x="1223" y="-99.8" font-family="Times,serif" font-size="14.00" fill="#000000">DefaultEntryOutputComponent</text>
</g>
<!-- DefaultEntryOutputComponent&#45;&gt;DataModule -->
<g id="edge6" class="edge">
<title>DefaultEntryOutputComponent&#45;&gt;DataModule</title>
<path fill="none" stroke="#000000" d="M1132.1906,-122.1243C1132.1906,-136.7832 1132.1906,-155 1132.1906,-155 1132.1906,-155 1034.3251,-155 1034.3251,-155"/>
<polygon fill="#000000" stroke="#000000" points="1034.3252,-151.5001 1024.3251,-155 1034.3251,-158.5001 1034.3252,-151.5001"/>
</g>
<!-- CrudComponent -->
<g id="node7" class="node">
<title>CrudComponent</title>
<polygon fill="#ffffb3" stroke="#000000" points="1108.8301,-122 999.1699,-122 999.1699,-86 1108.8301,-86 1108.8301,-122"/>
<text text-anchor="middle" x="1054" y="-99.8" font-family="Times,serif" font-size="14.00" fill="#000000">CrudComponent</text>
</g>
<!-- CrudComponent&#45;&gt;DataModule -->
<g id="edge7" class="edge">
<title>CrudComponent&#45;&gt;DataModule</title>
<path fill="none" stroke="#000000" d="M1011.6617,-122.1061C1011.6617,-122.1061 1011.6617,-140.991 1011.6617,-140.991"/>
<polygon fill="#000000" stroke="#000000" points="1008.1617,-140.9909 1011.6617,-150.991 1015.1617,-140.991 1008.1617,-140.9909"/>
</g>
<!-- EntrySelectComponent -->
<g id="node8" class="node">
<title>EntrySelectComponent</title>
<polygon fill="#ffffb3" stroke="#000000" points="981.1442,-122 834.8558,-122 834.8558,-86 981.1442,-86 981.1442,-122"/>
<text text-anchor="middle" x="908" y="-99.8" font-family="Times,serif" font-size="14.00" fill="#000000">EntrySelectComponent</text>
</g>
<!-- EntrySelectComponent&#45;&gt;DataModule -->
<g id="edge8" class="edge">
<title>EntrySelectComponent&#45;&gt;DataModule</title>
<path fill="none" stroke="#000000" d="M959.6669,-122.1061C959.6669,-122.1061 959.6669,-140.991 959.6669,-140.991"/>
<polygon fill="#000000" stroke="#000000" points="956.167,-140.9909 959.6669,-150.991 963.167,-140.991 956.167,-140.9909"/>
</g>
<!-- EntryListComponent  -->
<g id="node11" class="node">
<title>EntryListComponent </title>
<polygon fill="#fb8072" stroke="#000000" points="1409.7149,-252 1272.2851,-252 1272.2851,-216 1409.7149,-216 1409.7149,-252"/>
<text text-anchor="middle" x="1341" y="-229.8" font-family="Times,serif" font-size="14.00" fill="#000000">EntryListComponent </text>
</g>
<!-- DataModule&#45;&gt;EntryListComponent  -->
<g id="edge10" class="edge">
<title>DataModule&#45;&gt;EntryListComponent </title>
<path fill="none" stroke="#000000" stroke-dasharray="5,2" d="M1024.1248,-179C1110.3671,-179 1295.8967,-179 1295.8967,-179 1295.8967,-179 1295.8967,-205.9909 1295.8967,-205.9909"/>
<polygon fill="#000000" stroke="#000000" points="1292.3968,-205.9909 1295.8967,-215.9909 1299.3968,-205.991 1292.3968,-205.9909"/>
</g>
<!-- EntryComponent  -->
<g id="node12" class="node">
<title>EntryComponent </title>
<polygon fill="#fb8072" stroke="#000000" points="1253.9362,-252 1138.0638,-252 1138.0638,-216 1253.9362,-216 1253.9362,-252"/>
<text text-anchor="middle" x="1196" y="-229.8" font-family="Times,serif" font-size="14.00" fill="#000000">EntryComponent </text>
</g>
<!-- DataModule&#45;&gt;EntryComponent  -->
<g id="edge11" class="edge">
<title>DataModule&#45;&gt;EntryComponent </title>
<path fill="none" stroke="#000000" stroke-dasharray="5,2" d="M1023.9917,-183C1086.7342,-183 1196,-183 1196,-183 1196,-183 1196,-205.8757 1196,-205.8757"/>
<polygon fill="#000000" stroke="#000000" points="1192.5001,-205.8757 1196,-215.8757 1199.5001,-205.8757 1192.5001,-205.8757"/>
</g>
<!-- EntriesComponent  -->
<g id="node13" class="node">
<title>EntriesComponent </title>
<polygon fill="#fb8072" stroke="#000000" points="1120.487,-252 995.513,-252 995.513,-216 1120.487,-216 1120.487,-252"/>
<text text-anchor="middle" x="1058" y="-229.8" font-family="Times,serif" font-size="14.00" fill="#000000">EntriesComponent </text>
</g>
<!-- DataModule&#45;&gt;EntriesComponent  -->
<g id="edge12" class="edge">
<title>DataModule&#45;&gt;EntriesComponent </title>
<path fill="none" stroke="#000000" stroke-dasharray="5,2" d="M1009.8726,-187.1061C1009.8726,-187.1061 1009.8726,-205.991 1009.8726,-205.991"/>
<polygon fill="#000000" stroke="#000000" points="1006.3726,-205.9909 1009.8726,-215.991 1013.3726,-205.991 1006.3726,-205.9909"/>
</g>
<!-- EntryFormComponent  -->
<g id="node14" class="node">
<title>EntryFormComponent </title>
<polygon fill="#fb8072" stroke="#000000" points="978.2702,-252 831.7298,-252 831.7298,-216 978.2702,-216 978.2702,-252"/>
<text text-anchor="middle" x="905" y="-229.8" font-family="Times,serif" font-size="14.00" fill="#000000">EntryFormComponent </text>
</g>
<!-- DataModule&#45;&gt;EntryFormComponent  -->
<g id="edge13" class="edge">
<title>DataModule&#45;&gt;EntryFormComponent </title>
<path fill="none" stroke="#000000" stroke-dasharray="5,2" d="M958.0735,-187.1061C958.0735,-187.1061 958.0735,-205.991 958.0735,-205.991"/>
<polygon fill="#000000" stroke="#000000" points="954.5735,-205.9909 958.0735,-215.991 961.5735,-205.991 954.5735,-205.9909"/>
</g>
<!-- CrudComponent  -->
<g id="node15" class="node">
<title>CrudComponent </title>
<polygon fill="#fb8072" stroke="#000000" points="813.3297,-252 700.6703,-252 700.6703,-216 813.3297,-216 813.3297,-252"/>
<text text-anchor="middle" x="757" y="-229.8" font-family="Times,serif" font-size="14.00" fill="#000000">CrudComponent </text>
</g>
<!-- DataModule&#45;&gt;CrudComponent  -->
<g id="edge14" class="edge">
<title>DataModule&#45;&gt;CrudComponent </title>
<path fill="none" stroke="#000000" stroke-dasharray="5,2" d="M937.9433,-183C874.0896,-183 761.7422,-183 761.7422,-183 761.7422,-183 761.7422,-205.8757 761.7422,-205.8757"/>
<polygon fill="#000000" stroke="#000000" points="758.2423,-205.8757 761.7422,-215.8757 765.2423,-205.8757 758.2423,-205.8757"/>
</g>
<!-- EntrySelectComponent  -->
<g id="node16" class="node">
<title>EntrySelectComponent </title>
<polygon fill="#fb8072" stroke="#000000" points="683.1439,-252 532.8561,-252 532.8561,-216 683.1439,-216 683.1439,-252"/>
<text text-anchor="middle" x="608" y="-229.8" font-family="Times,serif" font-size="14.00" fill="#000000">EntrySelectComponent </text>
</g>
<!-- DataModule&#45;&gt;EntrySelectComponent  -->
<g id="edge15" class="edge">
<title>DataModule&#45;&gt;EntrySelectComponent </title>
<path fill="none" stroke="#000000" stroke-dasharray="5,2" d="M937.8522,-179C846.739,-179 643.0274,-179 643.0274,-179 643.0274,-179 643.0274,-205.9909 643.0274,-205.9909"/>
<polygon fill="#000000" stroke="#000000" points="639.5275,-205.9909 643.0274,-215.9909 646.5275,-205.991 639.5275,-205.9909"/>
</g>
<!-- UiModule -->
<g id="node10" class="node">
<title>UiModule</title>
<polygon fill="#8dd3c7" stroke="#000000" points="810.5484,-122 807.5484,-126 786.5484,-126 783.5484,-122 737.4516,-122 737.4516,-86 810.5484,-86 810.5484,-122"/>
<text text-anchor="middle" x="774" y="-99.8" font-family="Times,serif" font-size="14.00" fill="#000000">UiModule</text>
</g>
<!-- UiModule&#45;&gt;DataModule -->
<g id="edge9" class="edge">
<title>UiModule&#45;&gt;DataModule</title>
<path fill="none" stroke="#000000" d="M786.2578,-122.1243C786.2578,-136.7832 786.2578,-155 786.2578,-155 786.2578,-155 927.7804,-155 927.7804,-155"/>
<polygon fill="#000000" stroke="#000000" points="927.7804,-158.5001 937.7804,-155 927.7804,-151.5001 927.7804,-158.5001"/>
</g>
<!-- SdkService -->
<g id="node17" class="node">
<title>SdkService</title>
<ellipse fill="#fdb462" stroke="#000000" cx="658" cy="-104" rx="55.0343" ry="18"/>
<text text-anchor="middle" x="658" y="-99.8" font-family="Times,serif" font-size="14.00" fill="#000000">SdkService</text>
</g>
<!-- SdkService&#45;&gt;DataModule -->
<g id="edge16" class="edge">
<title>SdkService&#45;&gt;DataModule</title>
<path fill="none" stroke="#000000" d="M706.8012,-112.5938C706.8012,-128.0625 706.8012,-159 706.8012,-159 706.8012,-159 927.8548,-159 927.8548,-159"/>
<polygon fill="#000000" stroke="#000000" points="927.8548,-162.5001 937.8548,-159 927.8548,-155.5001 927.8548,-162.5001"/>
</g>
<!-- PublicService -->
<g id="node18" class="node">
<title>PublicService</title>
<ellipse fill="#fdb462" stroke="#000000" cx="520" cy="-104" rx="64.8428" ry="18"/>
<text text-anchor="middle" x="520" y="-99.8" font-family="Times,serif" font-size="14.00" fill="#000000">PublicService</text>
</g>
<!-- PublicService&#45;&gt;DataModule -->
<g id="edge17" class="edge">
<title>PublicService&#45;&gt;DataModule</title>
<path fill="none" stroke="#000000" d="M558.7996,-118.5843C558.7996,-136.0559 558.7996,-163 558.7996,-163 558.7996,-163 927.8013,-163 927.8013,-163"/>
<polygon fill="#000000" stroke="#000000" points="927.8013,-166.5001 937.8013,-163 927.8012,-159.5001 927.8013,-166.5001"/>
</g>
<!-- AdminService -->
<g id="node19" class="node">
<title>AdminService</title>
<ellipse fill="#fdb462" stroke="#000000" cx="371" cy="-104" rx="66.6325" ry="18"/>
<text text-anchor="middle" x="371" y="-99.8" font-family="Times,serif" font-size="14.00" fill="#000000">AdminService</text>
</g>
<!-- AdminService&#45;&gt;DataModule -->
<g id="edge18" class="edge">
<title>AdminService&#45;&gt;DataModule</title>
<path fill="none" stroke="#000000" d="M371,-122.2222C371,-140.8285 371,-167 371,-167 371,-167 927.6193,-167 927.6193,-167"/>
<polygon fill="#000000" stroke="#000000" points="927.6194,-170.5001 937.6193,-167 927.6193,-163.5001 927.6194,-170.5001"/>
</g>
<!-- CrudService -->
<g id="node20" class="node">
<title>CrudService</title>
<ellipse fill="#fdb462" stroke="#000000" cx="227" cy="-104" rx="59.1083" ry="18"/>
<text text-anchor="middle" x="227" y="-99.8" font-family="Times,serif" font-size="14.00" fill="#000000">CrudService</text>
</g>
<!-- CrudService&#45;&gt;DataModule -->
<g id="edge19" class="edge">
<title>CrudService&#45;&gt;DataModule</title>
<path fill="none" stroke="#000000" d="M227,-122.308C227,-142.1455 227,-171 227,-171 227,-171 927.7535,-171 927.7535,-171"/>
<polygon fill="#000000" stroke="#000000" points="927.7536,-174.5001 937.7535,-171 927.7535,-167.5001 927.7536,-174.5001"/>
</g>
<!-- ModelConfig -->
<g id="node21" class="node">
<title>ModelConfig</title>
<ellipse fill="#fdb462" stroke="#000000" cx="87" cy="-104" rx="63.1441" ry="18"/>
<text text-anchor="middle" x="87" y="-99.8" font-family="Times,serif" font-size="14.00" fill="#000000">ModelConfig</text>
</g>
<!-- ModelConfig&#45;&gt;DataModule -->
<g id="edge20" class="edge">
<title>ModelConfig&#45;&gt;DataModule</title>
<path fill="none" stroke="#000000" d="M87,-122.2843C87,-143.3211 87,-175 87,-175 87,-175 927.8805,-175 927.8805,-175"/>
<polygon fill="#000000" stroke="#000000" points="927.8806,-178.5001 937.8805,-175 927.8805,-171.5001 927.8806,-178.5001"/>
</g>
</g>
</svg>
