<?xml version="1.0" encoding="UTF-8" standalone="no"?>
<!DOCTYPE svg PUBLIC "-//W3C//DTD SVG 1.1//EN"
 "http://www.w3.org/Graphics/SVG/1.1/DTD/svg11.dtd">
<!-- Generated by graphviz version 2.40.1 (20161225.0304)
 -->
<!-- Title: dependencies Pages: 1 -->
<svg width="3054pt" height="284pt"
 viewBox="0.00 0.00 3054.00 284.00" xmlns="http://www.w3.org/2000/svg" xmlns:xlink="http://www.w3.org/1999/xlink">
<g id="graph0" class="graph" transform="scale(1 1) rotate(0) translate(4 280)">
<title>dependencies</title>
<polygon fill="#ffffff" stroke="transparent" points="-4,4 -4,-280 3050,-280 3050,4 -4,4"/>
<text text-anchor="start" x="1502.0091" y="-42.4" font-family="sans-serif" font-weight="bold" font-size="14.00" fill="#000000">Legend</text>
<polygon fill="#ffffb3" stroke="transparent" points="1289,-10 1289,-30 1309,-30 1309,-10 1289,-10"/>
<text text-anchor="start" x="1312.629" y="-15.4" font-family="sans-serif" font-size="14.00" fill="#000000"> &#160;Declarations</text>
<polygon fill="#8dd3c7" stroke="transparent" points="1402,-10 1402,-30 1422,-30 1422,-10 1402,-10"/>
<text text-anchor="start" x="1425.7251" y="-15.4" font-family="sans-serif" font-size="14.00" fill="#000000"> &#160;Module</text>
<polygon fill="#80b1d3" stroke="transparent" points="1488,-10 1488,-30 1508,-30 1508,-10 1488,-10"/>
<text text-anchor="start" x="1511.7812" y="-15.4" font-family="sans-serif" font-size="14.00" fill="#000000"> &#160;Bootstrap</text>
<polygon fill="#fdb462" stroke="transparent" points="1585,-10 1585,-30 1605,-30 1605,-10 1585,-10"/>
<text text-anchor="start" x="1608.6732" y="-15.4" font-family="sans-serif" font-size="14.00" fill="#000000"> &#160;Providers</text>
<polygon fill="#fb8072" stroke="transparent" points="1681,-10 1681,-30 1701,-30 1701,-10 1681,-10"/>
<text text-anchor="start" x="1704.7258" y="-15.4" font-family="sans-serif" font-size="14.00" fill="#000000"> &#160;Exports</text>
<g id="clust1" class="cluster">
<title>cluster_DataModule</title>
<polygon fill="none" stroke="#000000" stroke-dasharray="1,5" points="8,-70 8,-268 3038,-268 3038,-70 8,-70"/>
</g>
<g id="clust2" class="cluster">
<title>cluster_DataModule_declarations</title>
<polygon fill="none" stroke="#000000" points="959,-78 959,-130 3030,-130 3030,-78 959,-78"/>
</g>
<g id="clust16" class="cluster">
<title>cluster_DataModule_imports</title>
<polygon fill="none" stroke="#000000" points="552,-78 552,-130 951,-130 951,-78 552,-78"/>
</g>
<g id="clust17" class="cluster">
<title>cluster_DataModule_exports</title>
<polygon fill="none" stroke="#000000" points="414,-208 414,-260 2528,-260 2528,-208 414,-208"/>
</g>
<g id="clust19" class="cluster">
<title>cluster_DataModule_providers</title>
<polygon fill="none" stroke="#000000" points="16,-78 16,-130 544,-130 544,-78 16,-78"/>
</g>
<!-- EntryListComponent -->
<g id="node1" class="node">
<title>EntryListComponent</title>
<polygon fill="#ffffb3" stroke="#000000" points="3022.2148,-122 2887.7852,-122 2887.7852,-86 3022.2148,-86 3022.2148,-122"/>
<text text-anchor="middle" x="2955" y="-99.8" font-family="Times,serif" font-size="14.00" fill="#000000">EntryListComponent</text>
</g>
<!-- DataModule -->
<g id="node14" class="node">
<title>DataModule</title>
<polygon fill="#8dd3c7" stroke="#000000" points="1446.9762,-187 1443.9762,-191 1422.9762,-191 1419.9762,-187 1361.0238,-187 1361.0238,-151 1446.9762,-151 1446.9762,-187"/>
<text text-anchor="middle" x="1404" y="-164.8" font-family="Times,serif" font-size="14.00" fill="#000000">DataModule</text>
</g>
<!-- EntryListComponent&#45;&gt;DataModule -->
<g id="edge1" class="edge">
<title>EntryListComponent&#45;&gt;DataModule</title>
<path fill="none" stroke="#000000" d="M2955,-122.308C2955,-142.1455 2955,-171 2955,-171 2955,-171 1457.1014,-171 1457.1014,-171"/>
<polygon fill="#000000" stroke="#000000" points="1457.1014,-167.5001 1447.1014,-171 1457.1014,-174.5001 1457.1014,-167.5001"/>
</g>
<!-- EntryComponent -->
<g id="node2" class="node">
<title>EntryComponent</title>
<polygon fill="#ffffb3" stroke="#000000" points="2870.437,-122 2757.563,-122 2757.563,-86 2870.437,-86 2870.437,-122"/>
<text text-anchor="middle" x="2814" y="-99.8" font-family="Times,serif" font-size="14.00" fill="#000000">EntryComponent</text>
</g>
<!-- EntryComponent&#45;&gt;DataModule -->
<g id="edge2" class="edge">
<title>EntryComponent&#45;&gt;DataModule</title>
<path fill="none" stroke="#000000" d="M2814,-122.1686C2814,-141.0898 2814,-168 2814,-168 2814,-168 1457.3557,-168 1457.3557,-168"/>
<polygon fill="#000000" stroke="#000000" points="1457.3558,-164.5001 1447.3557,-168 1457.3557,-171.5001 1457.3558,-164.5001"/>
</g>
<!-- EntriesComponent -->
<g id="node3" class="node">
<title>EntriesComponent</title>
<polygon fill="#ffffb3" stroke="#000000" points="2739.486,-122 2618.514,-122 2618.514,-86 2739.486,-86 2739.486,-122"/>
<text text-anchor="middle" x="2679" y="-99.8" font-family="Times,serif" font-size="14.00" fill="#000000">EntriesComponent</text>
</g>
<!-- EntriesComponent&#45;&gt;DataModule -->
<g id="edge3" class="edge">
<title>EntriesComponent&#45;&gt;DataModule</title>
<path fill="none" stroke="#000000" d="M2679,-122.2667C2679,-140.5552 2679,-166 2679,-166 2679,-166 1457.1521,-166 1457.1521,-166"/>
<polygon fill="#000000" stroke="#000000" points="1457.1522,-162.5001 1447.1521,-166 1457.1521,-169.5001 1457.1522,-162.5001"/>
</g>
<!-- EntriesDirective -->
<g id="node4" class="node">
<title>EntriesDirective</title>
<polygon fill="#ffffb3" stroke="#000000" points="2600.7367,-122 2493.2633,-122 2493.2633,-86 2600.7367,-86 2600.7367,-122"/>
<text text-anchor="middle" x="2547" y="-99.8" font-family="Times,serif" font-size="14.00" fill="#000000">EntriesDirective</text>
</g>
<!-- EntriesDirective&#45;&gt;DataModule -->
<g id="edge4" class="edge">
<title>EntriesDirective&#45;&gt;DataModule</title>
<path fill="none" stroke="#000000" d="M2506.4946,-122.002C2506.4946,-139.6754 2506.4946,-164 2506.4946,-164 2506.4946,-164 1457.2191,-164 1457.2191,-164"/>
<polygon fill="#000000" stroke="#000000" points="1457.2191,-160.5001 1447.2191,-164 1457.2191,-167.5001 1457.2191,-160.5001"/>
</g>
<!-- EntryFormComponent -->
<g id="node5" class="node">
<title>EntryFormComponent</title>
<polygon fill="#ffffb3" stroke="#000000" points="2475.2702,-122 2332.7298,-122 2332.7298,-86 2475.2702,-86 2475.2702,-122"/>
<text text-anchor="middle" x="2404" y="-99.8" font-family="Times,serif" font-size="14.00" fill="#000000">EntryFormComponent</text>
</g>
<!-- EntryFormComponent&#45;&gt;DataModule -->
<g id="edge5" class="edge">
<title>EntryFormComponent&#45;&gt;DataModule</title>
<path fill="none" stroke="#000000" d="M2348.2916,-122.0336C2348.2916,-139.0597 2348.2916,-162 2348.2916,-162 2348.2916,-162 1457.028,-162 1457.028,-162"/>
<polygon fill="#000000" stroke="#000000" points="1457.028,-158.5001 1447.028,-162 1457.028,-165.5001 1457.028,-158.5001"/>
</g>
<!-- DatamanagerListComponent -->
<g id="node6" class="node">
<title>DatamanagerListComponent</title>
<polygon fill="#ffffb3" stroke="#000000" points="2314.7324,-122 2137.2676,-122 2137.2676,-86 2314.7324,-86 2314.7324,-122"/>
<text text-anchor="middle" x="2226" y="-99.8" font-family="Times,serif" font-size="14.00" fill="#000000">DatamanagerListComponent</text>
</g>
<!-- DatamanagerListComponent&#45;&gt;DataModule -->
<g id="edge6" class="edge">
<title>DatamanagerListComponent&#45;&gt;DataModule</title>
<path fill="none" stroke="#000000" d="M2183.6884,-122.027C2183.6884,-138.3976 2183.6884,-160 2183.6884,-160 2183.6884,-160 1457.03,-160 1457.03,-160"/>
<polygon fill="#000000" stroke="#000000" points="1457.0301,-156.5001 1447.03,-160 1457.03,-163.5001 1457.0301,-156.5001"/>
</g>
<!-- ModelListComponent -->
<g id="node7" class="node">
<title>ModelListComponent</title>
<polygon fill="#ffffb3" stroke="#000000" points="2118.661,-122 1979.339,-122 1979.339,-86 2118.661,-86 2118.661,-122"/>
<text text-anchor="middle" x="2049" y="-99.8" font-family="Times,serif" font-size="14.00" fill="#000000">ModelListComponent</text>
</g>
<!-- ModelListComponent&#45;&gt;DataModule -->
<g id="edge7" class="edge">
<title>ModelListComponent&#45;&gt;DataModule</title>
<path fill="none" stroke="#000000" d="M2015.3192,-122.2819C2015.3192,-137.9478 2015.3192,-158 2015.3192,-158 2015.3192,-158 1456.9868,-158 1456.9868,-158"/>
<polygon fill="#000000" stroke="#000000" points="1456.9868,-154.5001 1446.9868,-158 1456.9867,-161.5001 1456.9868,-154.5001"/>
</g>
<!-- ResourceListComponent -->
<g id="node8" class="node">
<title>ResourceListComponent</title>
<polygon fill="#ffffb3" stroke="#000000" points="1961.6965,-122 1806.3035,-122 1806.3035,-86 1961.6965,-86 1961.6965,-122"/>
<text text-anchor="middle" x="1884" y="-99.8" font-family="Times,serif" font-size="14.00" fill="#000000">ResourceListComponent</text>
</g>
<!-- ResourceListComponent&#45;&gt;DataModule -->
<g id="edge8" class="edge">
<title>ResourceListComponent&#45;&gt;DataModule</title>
<path fill="none" stroke="#000000" d="M1909.3783,-122.1871C1909.3783,-137.1824 1909.3783,-156 1909.3783,-156 1909.3783,-156 1457.0883,-156 1457.0883,-156"/>
<polygon fill="#000000" stroke="#000000" points="1457.0883,-152.5001 1447.0883,-156 1457.0882,-159.5001 1457.0883,-152.5001"/>
</g>
<!-- DefaultEntryInputComponent -->
<g id="node9" class="node">
<title>DefaultEntryInputComponent</title>
<polygon fill="#ffffb3" stroke="#000000" points="1787.965,-122 1604.035,-122 1604.035,-86 1787.965,-86 1787.965,-122"/>
<text text-anchor="middle" x="1696" y="-99.8" font-family="Times,serif" font-size="14.00" fill="#000000">DefaultEntryInputComponent</text>
</g>
<!-- DefaultEntryInputComponent&#45;&gt;DataModule -->
<g id="edge9" class="edge">
<title>DefaultEntryInputComponent&#45;&gt;DataModule</title>
<path fill="none" stroke="#000000" d="M1633.5447,-122.0511C1633.5447,-136.373 1633.5447,-154 1633.5447,-154 1633.5447,-154 1457.1756,-154 1457.1756,-154"/>
<polygon fill="#000000" stroke="#000000" points="1457.1756,-150.5001 1447.1756,-154 1457.1756,-157.5001 1457.1756,-150.5001"/>
</g>
<!-- DefaultEntryOutputComponent -->
<g id="node10" class="node">
<title>DefaultEntryOutputComponent</title>
<polygon fill="#ffffb3" stroke="#000000" points="1585.8018,-122 1392.1982,-122 1392.1982,-86 1585.8018,-86 1585.8018,-122"/>
<text text-anchor="middle" x="1489" y="-99.8" font-family="Times,serif" font-size="14.00" fill="#000000">DefaultEntryOutputComponent</text>
</g>
<!-- DefaultEntryOutputComponent&#45;&gt;DataModule -->
<g id="edge10" class="edge">
<title>DefaultEntryOutputComponent&#45;&gt;DataModule</title>
<path fill="none" stroke="#000000" d="M1419.6687,-122.1061C1419.6687,-122.1061 1419.6687,-140.991 1419.6687,-140.991"/>
<polygon fill="#000000" stroke="#000000" points="1416.1687,-140.9909 1419.6687,-150.991 1423.1687,-140.991 1416.1687,-140.9909"/>
</g>
<!-- CrudComponent -->
<g id="node11" class="node">
<title>CrudComponent</title>
<polygon fill="#ffffb3" stroke="#000000" points="1374.8301,-122 1265.1699,-122 1265.1699,-86 1374.8301,-86 1374.8301,-122"/>
<text text-anchor="middle" x="1320" y="-99.8" font-family="Times,serif" font-size="14.00" fill="#000000">CrudComponent</text>
</g>
<!-- CrudComponent&#45;&gt;DataModule -->
<g id="edge11" class="edge">
<title>CrudComponent&#45;&gt;DataModule</title>
<path fill="none" stroke="#000000" d="M1367.8384,-122.1061C1367.8384,-122.1061 1367.8384,-140.991 1367.8384,-140.991"/>
<polygon fill="#000000" stroke="#000000" points="1364.3384,-140.9909 1367.8384,-150.991 1371.3384,-140.991 1364.3384,-140.9909"/>
</g>
<!-- EntrySelectComponent -->
<g id="node12" class="node">
<title>EntrySelectComponent</title>
<polygon fill="#ffffb3" stroke="#000000" points="1247.1442,-122 1100.8558,-122 1100.8558,-86 1247.1442,-86 1247.1442,-122"/>
<text text-anchor="middle" x="1174" y="-99.8" font-family="Times,serif" font-size="14.00" fill="#000000">EntrySelectComponent</text>
</g>
<!-- EntrySelectComponent&#45;&gt;DataModule -->
<g id="edge12" class="edge">
<title>EntrySelectComponent&#45;&gt;DataModule</title>
<path fill="none" stroke="#000000" d="M1199.8708,-122.0511C1199.8708,-136.373 1199.8708,-154 1199.8708,-154 1199.8708,-154 1350.7094,-154 1350.7094,-154"/>
<polygon fill="#000000" stroke="#000000" points="1350.7095,-157.5001 1360.7094,-154 1350.7094,-150.5001 1350.7095,-157.5001"/>
</g>
<!-- EditorComponent -->
<g id="node13" class="node">
<title>EditorComponent</title>
<polygon fill="#ffffb3" stroke="#000000" points="1083.3273,-122 966.6727,-122 966.6727,-86 1083.3273,-86 1083.3273,-122"/>
<text text-anchor="middle" x="1025" y="-99.8" font-family="Times,serif" font-size="14.00" fill="#000000">EditorComponent</text>
</g>
<!-- EditorComponent&#45;&gt;DataModule -->
<g id="edge13" class="edge">
<title>EditorComponent&#45;&gt;DataModule</title>
<path fill="none" stroke="#000000" d="M1029.4076,-122.1871C1029.4076,-137.1824 1029.4076,-156 1029.4076,-156 1029.4076,-156 1350.6635,-156 1350.6635,-156"/>
<polygon fill="#000000" stroke="#000000" points="1350.6636,-159.5001 1360.6635,-156 1350.6635,-152.5001 1350.6636,-159.5001"/>
</g>
<!-- EntryListComponent  -->
<g id="node19" class="node">
<title>EntryListComponent </title>
<polygon fill="#fb8072" stroke="#000000" points="2519.7149,-252 2382.2851,-252 2382.2851,-216 2519.7149,-216 2519.7149,-252"/>
<text text-anchor="middle" x="2451" y="-229.8" font-family="Times,serif" font-size="14.00" fill="#000000">EntryListComponent </text>
</g>
<!-- DataModule&#45;&gt;EntryListComponent  -->
<g id="edge18" class="edge">
<title>DataModule&#45;&gt;EntryListComponent </title>
<path fill="none" stroke="#000000" stroke-dasharray="5,2" d="M1447.0527,-173C1641.5499,-173 2428.7639,-173 2428.7639,-173 2428.7639,-173 2428.7639,-205.698 2428.7639,-205.698"/>
<polygon fill="#000000" stroke="#000000" points="2425.2639,-205.698 2428.7639,-215.698 2432.2639,-205.698 2425.2639,-205.698"/>
</g>
<!-- EntryComponent  -->
<g id="node20" class="node">
<title>EntryComponent </title>
<polygon fill="#fb8072" stroke="#000000" points="2363.9362,-252 2248.0638,-252 2248.0638,-216 2363.9362,-216 2363.9362,-252"/>
<text text-anchor="middle" x="2306" y="-229.8" font-family="Times,serif" font-size="14.00" fill="#000000">EntryComponent </text>
</g>
<!-- DataModule&#45;&gt;EntryComponent  -->
<g id="edge19" class="edge">
<title>DataModule&#45;&gt;EntryComponent </title>
<path fill="none" stroke="#000000" stroke-dasharray="5,2" d="M1447.2135,-175C1623.8223,-175 2281.449,-175 2281.449,-175 2281.449,-175 2281.449,-205.9775 2281.449,-205.9775"/>
<polygon fill="#000000" stroke="#000000" points="2277.9491,-205.9774 2281.449,-215.9775 2284.9491,-205.9775 2277.9491,-205.9774"/>
</g>
<!-- EntriesComponent  -->
<g id="node21" class="node">
<title>EntriesComponent </title>
<polygon fill="#fb8072" stroke="#000000" points="2230.487,-252 2105.513,-252 2105.513,-216 2230.487,-216 2230.487,-252"/>
<text text-anchor="middle" x="2168" y="-229.8" font-family="Times,serif" font-size="14.00" fill="#000000">EntriesComponent </text>
</g>
<!-- DataModule&#45;&gt;EntriesComponent  -->
<g id="edge20" class="edge">
<title>DataModule&#45;&gt;EntriesComponent </title>
<path fill="none" stroke="#000000" stroke-dasharray="5,2" d="M1447.2407,-177C1601.0217,-177 2112.2937,-177 2112.2937,-177 2112.2937,-177 2112.2937,-205.9648 2112.2937,-205.9648"/>
<polygon fill="#000000" stroke="#000000" points="2108.7937,-205.9648 2112.2937,-215.9648 2115.7937,-205.9649 2108.7937,-205.9648"/>
</g>
<!-- EntriesDirective  -->
<g id="node22" class="node">
<title>EntriesDirective </title>
<polygon fill="#fb8072" stroke="#000000" points="2087.7367,-252 1976.2633,-252 1976.2633,-216 2087.7367,-216 2087.7367,-252"/>
<text text-anchor="middle" x="2032" y="-229.8" font-family="Times,serif" font-size="14.00" fill="#000000">EntriesDirective </text>
</g>
<!-- DataModule&#45;&gt;EntriesDirective  -->
<g id="edge21" class="edge">
<title>DataModule&#45;&gt;EntriesDirective </title>
<path fill="none" stroke="#000000" stroke-dasharray="5,2" d="M1446.9837,-179C1591.593,-179 2051.4687,-179 2051.4687,-179 2051.4687,-179 2051.4687,-205.9909 2051.4687,-205.9909"/>
<polygon fill="#000000" stroke="#000000" points="2047.9688,-205.9909 2051.4687,-215.9909 2054.9688,-205.991 2047.9688,-205.9909"/>
</g>
<!-- EntryFormComponent  -->
<g id="node23" class="node">
<title>EntryFormComponent </title>
<polygon fill="#fb8072" stroke="#000000" points="1958.2702,-252 1811.7298,-252 1811.7298,-216 1958.2702,-216 1958.2702,-252"/>
<text text-anchor="middle" x="1885" y="-229.8" font-family="Times,serif" font-size="14.00" fill="#000000">EntryFormComponent </text>
</g>
<!-- DataModule&#45;&gt;EntryFormComponent  -->
<g id="edge22" class="edge">
<title>DataModule&#45;&gt;EntryFormComponent </title>
<path fill="none" stroke="#000000" stroke-dasharray="5,2" d="M1447.3695,-181C1561.35,-181 1860.6217,-181 1860.6217,-181 1860.6217,-181 1860.6217,-205.7604 1860.6217,-205.7604"/>
<polygon fill="#000000" stroke="#000000" points="1857.1218,-205.7604 1860.6217,-215.7604 1864.1218,-205.7604 1857.1218,-205.7604"/>
</g>
<!-- CrudComponent  -->
<g id="node24" class="node">
<title>CrudComponent </title>
<polygon fill="#fb8072" stroke="#000000" points="1793.3297,-252 1680.6703,-252 1680.6703,-216 1793.3297,-216 1793.3297,-252"/>
<text text-anchor="middle" x="1737" y="-229.8" font-family="Times,serif" font-size="14.00" fill="#000000">CrudComponent </text>
</g>
<!-- DataModule&#45;&gt;CrudComponent  -->
<g id="edge23" class="edge">
<title>DataModule&#45;&gt;CrudComponent </title>
<path fill="none" stroke="#000000" stroke-dasharray="5,2" d="M1447.1788,-183C1536.7062,-183 1734.2839,-183 1734.2839,-183 1734.2839,-183 1734.2839,-205.8757 1734.2839,-205.8757"/>
<polygon fill="#000000" stroke="#000000" points="1730.7839,-205.8757 1734.2839,-215.8757 1737.7839,-205.8757 1730.7839,-205.8757"/>
</g>
<!-- EntrySelectComponent  -->
<g id="node25" class="node">
<title>EntrySelectComponent </title>
<polygon fill="#fb8072" stroke="#000000" points="1663.1439,-252 1512.8561,-252 1512.8561,-216 1663.1439,-216 1663.1439,-252"/>
<text text-anchor="middle" x="1588" y="-229.8" font-family="Times,serif" font-size="14.00" fill="#000000">EntrySelectComponent </text>
</g>
<!-- DataModule&#45;&gt;EntrySelectComponent  -->
<g id="edge24" class="edge">
<title>DataModule&#45;&gt;EntrySelectComponent </title>
<path fill="none" stroke="#000000" stroke-dasharray="5,2" d="M1447.1983,-185C1490.0256,-185 1549.2895,-185 1549.2895,-185 1549.2895,-185 1549.2895,-205.7542 1549.2895,-205.7542"/>
<polygon fill="#000000" stroke="#000000" points="1545.7895,-205.7542 1549.2895,-215.7542 1552.7895,-205.7542 1545.7895,-205.7542"/>
</g>
<!-- DatamanagerListComponent  -->
<g id="node26" class="node">
<title>DatamanagerListComponent </title>
<polygon fill="#fb8072" stroke="#000000" points="1494.7323,-252 1313.2677,-252 1313.2677,-216 1494.7323,-216 1494.7323,-252"/>
<text text-anchor="middle" x="1404" y="-229.8" font-family="Times,serif" font-size="14.00" fill="#000000">DatamanagerListComponent </text>
</g>
<!-- DataModule&#45;&gt;DatamanagerListComponent  -->
<g id="edge25" class="edge">
<title>DataModule&#45;&gt;DatamanagerListComponent </title>
<path fill="none" stroke="#000000" stroke-dasharray="5,2" d="M1404,-187.1061C1404,-187.1061 1404,-205.991 1404,-205.991"/>
<polygon fill="#000000" stroke="#000000" points="1400.5001,-205.9909 1404,-215.991 1407.5001,-205.991 1400.5001,-205.9909"/>
</g>
<!-- ModelListComponent  -->
<g id="node27" class="node">
<title>ModelListComponent </title>
<polygon fill="#fb8072" stroke="#000000" points="1295.6607,-252 1152.3393,-252 1152.3393,-216 1295.6607,-216 1295.6607,-252"/>
<text text-anchor="middle" x="1224" y="-229.8" font-family="Times,serif" font-size="14.00" fill="#000000">ModelListComponent </text>
</g>
<!-- DataModule&#45;&gt;ModelListComponent  -->
<g id="edge26" class="edge">
<title>DataModule&#45;&gt;ModelListComponent </title>
<path fill="none" stroke="#000000" stroke-dasharray="5,2" d="M1360.7909,-185C1325.1649,-185 1280.4578,-185 1280.4578,-185 1280.4578,-185 1280.4578,-205.7542 1280.4578,-205.7542"/>
<polygon fill="#000000" stroke="#000000" points="1276.9578,-205.7542 1280.4578,-215.7542 1283.9578,-205.7542 1276.9578,-205.7542"/>
</g>
<!-- ResourceListComponent  -->
<g id="node28" class="node">
<title>ResourceListComponent </title>
<polygon fill="#fb8072" stroke="#000000" points="1134.1967,-252 975.8033,-252 975.8033,-216 1134.1967,-216 1134.1967,-252"/>
<text text-anchor="middle" x="1055" y="-229.8" font-family="Times,serif" font-size="14.00" fill="#000000">ResourceListComponent </text>
</g>
<!-- DataModule&#45;&gt;ResourceListComponent  -->
<g id="edge27" class="edge">
<title>DataModule&#45;&gt;ResourceListComponent </title>
<path fill="none" stroke="#000000" stroke-dasharray="5,2" d="M1360.7998,-183C1280.7671,-183 1117.5132,-183 1117.5132,-183 1117.5132,-183 1117.5132,-205.8757 1117.5132,-205.8757"/>
<polygon fill="#000000" stroke="#000000" points="1114.0132,-205.8757 1117.5132,-215.8757 1121.0132,-205.8757 1114.0132,-205.8757"/>
</g>
<!-- EditorComponent  -->
<g id="node29" class="node">
<title>EditorComponent </title>
<polygon fill="#fb8072" stroke="#000000" points="957.8269,-252 838.1731,-252 838.1731,-216 957.8269,-216 957.8269,-252"/>
<text text-anchor="middle" x="898" y="-229.8" font-family="Times,serif" font-size="14.00" fill="#000000">EditorComponent </text>
</g>
<!-- DataModule&#45;&gt;EditorComponent  -->
<g id="edge28" class="edge">
<title>DataModule&#45;&gt;EditorComponent </title>
<path fill="none" stroke="#000000" stroke-dasharray="5,2" d="M1360.9121,-181C1247.6718,-181 950.3435,-181 950.3435,-181 950.3435,-181 950.3435,-205.7604 950.3435,-205.7604"/>
<polygon fill="#000000" stroke="#000000" points="946.8435,-205.7604 950.3435,-215.7604 953.8435,-205.7604 946.8435,-205.7604"/>
</g>
<!-- UiModule  -->
<g id="node30" class="node">
<title>UiModule </title>
<polygon fill="#fb8072" stroke="#000000" points="820.547,-252 743.453,-252 743.453,-216 820.547,-216 820.547,-252"/>
<text text-anchor="middle" x="782" y="-229.8" font-family="Times,serif" font-size="14.00" fill="#000000">UiModule </text>
</g>
<!-- DataModule&#45;&gt;UiModule  -->
<g id="edge29" class="edge">
<title>DataModule&#45;&gt;UiModule </title>
<path fill="none" stroke="#000000" stroke-dasharray="5,2" d="M1360.7209,-179C1221.6873,-179 795.4287,-179 795.4287,-179 795.4287,-179 795.4287,-205.9909 795.4287,-205.9909"/>
<polygon fill="#000000" stroke="#000000" points="791.9287,-205.9909 795.4287,-215.9909 798.9287,-205.991 791.9287,-205.9909"/>
</g>
<!-- SdkModule  -->
<g id="node31" class="node">
<title>SdkModule </title>
<polygon fill="#fb8072" stroke="#000000" points="725.3326,-252 640.6674,-252 640.6674,-216 725.3326,-216 725.3326,-252"/>
<text text-anchor="middle" x="683" y="-229.8" font-family="Times,serif" font-size="14.00" fill="#000000">SdkModule </text>
</g>
<!-- DataModule&#45;&gt;SdkModule  -->
<g id="edge30" class="edge">
<title>DataModule&#45;&gt;SdkModule </title>
<path fill="none" stroke="#000000" stroke-dasharray="5,2" d="M1361.0124,-177C1207.513,-177 695.5149,-177 695.5149,-177 695.5149,-177 695.5149,-205.9648 695.5149,-205.9648"/>
<polygon fill="#000000" stroke="#000000" points="692.015,-205.9648 695.5149,-215.9648 699.015,-205.9649 692.015,-205.9648"/>
</g>
<!-- FilesModule  -->
<g id="node32" class="node">
<title>FilesModule </title>
<polygon fill="#fb8072" stroke="#000000" points="622.2732,-252 531.7268,-252 531.7268,-216 622.2732,-216 622.2732,-252"/>
<text text-anchor="middle" x="577" y="-229.8" font-family="Times,serif" font-size="14.00" fill="#000000">FilesModule </text>
</g>
<!-- DataModule&#45;&gt;FilesModule  -->
<g id="edge31" class="edge">
<title>DataModule&#45;&gt;FilesModule </title>
<path fill="none" stroke="#000000" stroke-dasharray="5,2" d="M1360.8732,-175C1192.8337,-175 591.1815,-175 591.1815,-175 591.1815,-175 591.1815,-205.9775 591.1815,-205.9775"/>
<polygon fill="#000000" stroke="#000000" points="587.6815,-205.9774 591.1815,-215.9775 594.6815,-205.9775 587.6815,-205.9774"/>
</g>
<!-- AuthModule  -->
<g id="node33" class="node">
<title>AuthModule </title>
<polygon fill="#fb8072" stroke="#000000" points="513.547,-252 422.453,-252 422.453,-216 513.547,-216 513.547,-252"/>
<text text-anchor="middle" x="468" y="-229.8" font-family="Times,serif" font-size="14.00" fill="#000000">AuthModule </text>
</g>
<!-- DataModule&#45;&gt;AuthModule  -->
<g id="edge32" class="edge">
<title>DataModule&#45;&gt;AuthModule </title>
<path fill="none" stroke="#000000" stroke-dasharray="5,2" d="M1360.732,-173C1176.6493,-173 468,-173 468,-173 468,-173 468,-205.698 468,-205.698"/>
<polygon fill="#000000" stroke="#000000" points="464.5001,-205.698 468,-215.698 471.5001,-205.698 464.5001,-205.698"/>
</g>
<!-- UiModule -->
<g id="node15" class="node">
<title>UiModule</title>
<polygon fill="#8dd3c7" stroke="#000000" points="942.5484,-122 939.5484,-126 918.5484,-126 915.5484,-122 869.4516,-122 869.4516,-86 942.5484,-86 942.5484,-122"/>
<text text-anchor="middle" x="906" y="-99.8" font-family="Times,serif" font-size="14.00" fill="#000000">UiModule</text>
</g>
<!-- UiModule&#45;&gt;DataModule -->
<g id="edge14" class="edge">
<title>UiModule&#45;&gt;DataModule</title>
<path fill="none" stroke="#000000" d="M906,-122.2819C906,-137.9478 906,-158 906,-158 906,-158 1350.6769,-158 1350.6769,-158"/>
<polygon fill="#000000" stroke="#000000" points="1350.677,-161.5001 1360.6769,-158 1350.6769,-154.5001 1350.677,-161.5001"/>
</g>
<!-- SdkModule -->
<g id="node16" class="node">
<title>SdkModule</title>
<polygon fill="#8dd3c7" stroke="#000000" points="851.8331,-122 848.8331,-126 827.8331,-126 824.8331,-122 770.1669,-122 770.1669,-86 851.8331,-86 851.8331,-122"/>
<text text-anchor="middle" x="811" y="-99.8" font-family="Times,serif" font-size="14.00" fill="#000000">SdkModule</text>
</g>
<!-- SdkModule&#45;&gt;DataModule -->
<g id="edge15" class="edge">
<title>SdkModule&#45;&gt;DataModule</title>
<path fill="none" stroke="#000000" d="M844.8764,-122.027C844.8764,-138.3976 844.8764,-160 844.8764,-160 844.8764,-160 1350.5918,-160 1350.5918,-160"/>
<polygon fill="#000000" stroke="#000000" points="1350.5918,-163.5001 1360.5918,-160 1350.5917,-156.5001 1350.5918,-163.5001"/>
</g>
<!-- FilesModule -->
<g id="node17" class="node">
<title>FilesModule</title>
<polygon fill="#8dd3c7" stroke="#000000" points="752.2731,-122 749.2731,-126 728.2731,-126 725.2731,-122 665.7269,-122 665.7269,-86 752.2731,-86 752.2731,-122"/>
<text text-anchor="middle" x="709" y="-99.8" font-family="Times,serif" font-size="14.00" fill="#000000">FilesModule</text>
</g>
<!-- FilesModule&#45;&gt;DataModule -->
<g id="edge16" class="edge">
<title>FilesModule&#45;&gt;DataModule</title>
<path fill="none" stroke="#000000" d="M747.9315,-122.0336C747.9315,-139.0597 747.9315,-162 747.9315,-162 747.9315,-162 1350.9535,-162 1350.9535,-162"/>
<polygon fill="#000000" stroke="#000000" points="1350.9535,-165.5001 1360.9535,-162 1350.9535,-158.5001 1350.9535,-165.5001"/>
</g>
<!-- AuthModule -->
<g id="node18" class="node">
<title>AuthModule</title>
<polygon fill="#8dd3c7" stroke="#000000" points="647.5482,-122 644.5482,-126 623.5482,-126 620.5482,-122 560.4518,-122 560.4518,-86 647.5482,-86 647.5482,-122"/>
<text text-anchor="middle" x="604" y="-99.8" font-family="Times,serif" font-size="14.00" fill="#000000">AuthModule</text>
</g>
<!-- AuthModule&#45;&gt;DataModule -->
<g id="edge17" class="edge">
<title>AuthModule&#45;&gt;DataModule</title>
<path fill="none" stroke="#000000" d="M644.1787,-122.002C644.1787,-139.6754 644.1787,-164 644.1787,-164 644.1787,-164 1350.9717,-164 1350.9717,-164"/>
<polygon fill="#000000" stroke="#000000" points="1350.9717,-167.5001 1360.9717,-164 1350.9716,-160.5001 1350.9717,-167.5001"/>
</g>
<!-- CrudService -->
<g id="node34" class="node">
<title>CrudService</title>
<ellipse fill="#fdb462" stroke="#000000" cx="477" cy="-104" rx="59.1083" ry="18"/>
<text text-anchor="middle" x="477" y="-99.8" font-family="Times,serif" font-size="14.00" fill="#000000">CrudService</text>
</g>
<!-- CrudService&#45;&gt;DataModule -->
<g id="edge33" class="edge">
<title>CrudService&#45;&gt;DataModule</title>
<path fill="none" stroke="#000000" d="M522.6936,-115.6617C522.6936,-133.6216 522.6936,-166 522.6936,-166 522.6936,-166 1350.8962,-166 1350.8962,-166"/>
<polygon fill="#000000" stroke="#000000" points="1350.8962,-169.5001 1360.8962,-166 1350.8961,-162.5001 1350.8962,-169.5001"/>
</g>
<!-- TypeConfigService -->
<g id="node35" class="node">
<title>TypeConfigService</title>
<ellipse fill="#fdb462" stroke="#000000" cx="313" cy="-104" rx="86.8184" ry="18"/>
<text text-anchor="middle" x="313" y="-99.8" font-family="Times,serif" font-size="14.00" fill="#000000">TypeConfigService</text>
</g>
<!-- TypeConfigService&#45;&gt;DataModule -->
<g id="edge34" class="edge">
<title>TypeConfigService&#45;&gt;DataModule</title>
<path fill="none" stroke="#000000" d="M313,-122.1686C313,-141.0898 313,-168 313,-168 313,-168 1350.8955,-168 1350.8955,-168"/>
<polygon fill="#000000" stroke="#000000" points="1350.8955,-171.5001 1360.8955,-168 1350.8954,-164.5001 1350.8955,-171.5001"/>
</g>
<!-- ModelConfigService -->
<g id="node36" class="node">
<title>ModelConfigService</title>
<ellipse fill="#fdb462" stroke="#000000" cx="116" cy="-104" rx="92.0548" ry="18"/>
<text text-anchor="middle" x="116" y="-99.8" font-family="Times,serif" font-size="14.00" fill="#000000">ModelConfigService</text>
</g>
<!-- ModelConfigService&#45;&gt;DataModule -->
<g id="edge35" class="edge">
<title>ModelConfigService&#45;&gt;DataModule</title>
<path fill="none" stroke="#000000" d="M116,-122.308C116,-142.1455 116,-171 116,-171 116,-171 1350.7776,-171 1350.7776,-171"/>
<polygon fill="#000000" stroke="#000000" points="1350.7777,-174.5001 1360.7776,-171 1350.7776,-167.5001 1350.7777,-174.5001"/>
</g>
</g>
</svg>
