<?xml version="1.0" encoding="UTF-8" standalone="no"?>
<!DOCTYPE svg PUBLIC "-//W3C//DTD SVG 1.1//EN"
 "http://www.w3.org/Graphics/SVG/1.1/DTD/svg11.dtd">
<!-- Generated by graphviz version 2.40.1 (20161225.0304)
 -->
<!-- Title: dependencies Pages: 1 -->
<svg width="2386pt" height="284pt"
 viewBox="0.00 0.00 2386.00 284.00" xmlns="http://www.w3.org/2000/svg" xmlns:xlink="http://www.w3.org/1999/xlink">
<g id="graph0" class="graph" transform="scale(1 1) rotate(0) translate(4 280)">
<title>dependencies</title>
<polygon fill="#ffffff" stroke="transparent" points="-4,4 -4,-280 2382,-280 2382,4 -4,4"/>
<text text-anchor="start" x="1168.0091" y="-42.4" font-family="sans-serif" font-weight="bold" font-size="14.00" fill="#000000">Legend</text>
<polygon fill="#ffffb3" stroke="transparent" points="955,-10 955,-30 975,-30 975,-10 955,-10"/>
<text text-anchor="start" x="978.629" y="-15.4" font-family="sans-serif" font-size="14.00" fill="#000000"> &#160;Declarations</text>
<polygon fill="#8dd3c7" stroke="transparent" points="1068,-10 1068,-30 1088,-30 1088,-10 1068,-10"/>
<text text-anchor="start" x="1091.7251" y="-15.4" font-family="sans-serif" font-size="14.00" fill="#000000"> &#160;Module</text>
<polygon fill="#80b1d3" stroke="transparent" points="1154,-10 1154,-30 1174,-30 1174,-10 1154,-10"/>
<text text-anchor="start" x="1177.7812" y="-15.4" font-family="sans-serif" font-size="14.00" fill="#000000"> &#160;Bootstrap</text>
<polygon fill="#fdb462" stroke="transparent" points="1251,-10 1251,-30 1271,-30 1271,-10 1251,-10"/>
<text text-anchor="start" x="1274.6732" y="-15.4" font-family="sans-serif" font-size="14.00" fill="#000000"> &#160;Providers</text>
<polygon fill="#fb8072" stroke="transparent" points="1347,-10 1347,-30 1367,-30 1367,-10 1347,-10"/>
<text text-anchor="start" x="1370.7258" y="-15.4" font-family="sans-serif" font-size="14.00" fill="#000000"> &#160;Exports</text>
<g id="clust1" class="cluster">
<title>cluster_DataModule</title>
<polygon fill="none" stroke="#000000" stroke-dasharray="1,5" points="8,-70 8,-268 2370,-268 2370,-70 8,-70"/>
</g>
<g id="clust2" class="cluster">
<title>cluster_DataModule_declarations</title>
<polygon fill="none" stroke="#000000" points="1077,-78 1077,-130 2362,-130 2362,-78 1077,-78"/>
</g>
<g id="clust11" class="cluster">
<title>cluster_DataModule_imports</title>
<polygon fill="none" stroke="#000000" points="979,-78 979,-130 1069,-130 1069,-78 979,-78"/>
</g>
<g id="clust12" class="cluster">
<title>cluster_DataModule_exports</title>
<polygon fill="none" stroke="#000000" points="702,-208 702,-260 1595,-260 1595,-208 702,-208"/>
</g>
<g id="clust14" class="cluster">
<title>cluster_DataModule_providers</title>
<polygon fill="none" stroke="#000000" points="16,-78 16,-130 971,-130 971,-78 16,-78"/>
</g>
<!-- EntryListComponent -->
<g id="node1" class="node">
<title>EntryListComponent</title>
<polygon fill="#ffffb3" stroke="#000000" points="2354.2148,-122 2219.7852,-122 2219.7852,-86 2354.2148,-86 2354.2148,-122"/>
<text text-anchor="middle" x="2287" y="-99.8" font-family="Times,serif" font-size="14.00" fill="#000000">EntryListComponent</text>
</g>
<!-- DataModule -->
<g id="node9" class="node">
<title>DataModule</title>
<polygon fill="#8dd3c7" stroke="#000000" points="1200.9762,-187 1197.9762,-191 1176.9762,-191 1173.9762,-187 1115.0238,-187 1115.0238,-151 1200.9762,-151 1200.9762,-187"/>
<text text-anchor="middle" x="1158" y="-164.8" font-family="Times,serif" font-size="14.00" fill="#000000">DataModule</text>
</g>
<!-- EntryListComponent&#45;&gt;DataModule -->
<g id="edge1" class="edge">
<title>EntryListComponent&#45;&gt;DataModule</title>
<path fill="none" stroke="#000000" d="M2287,-122.0449C2287,-143.6623 2287,-177 2287,-177 2287,-177 1211.2223,-177 1211.2223,-177"/>
<polygon fill="#000000" stroke="#000000" points="1211.2224,-173.5001 1201.2223,-177 1211.2223,-180.5001 1211.2224,-173.5001"/>
</g>
<!-- EntryComponent -->
<g id="node2" class="node">
<title>EntryComponent</title>
<polygon fill="#ffffb3" stroke="#000000" points="2202.437,-122 2089.563,-122 2089.563,-86 2202.437,-86 2202.437,-122"/>
<text text-anchor="middle" x="2146" y="-99.8" font-family="Times,serif" font-size="14.00" fill="#000000">EntryComponent</text>
</g>
<!-- EntryComponent&#45;&gt;DataModule -->
<g id="edge2" class="edge">
<title>EntryComponent&#45;&gt;DataModule</title>
<path fill="none" stroke="#000000" d="M2146,-122.1289C2146,-142.5724 2146,-173 2146,-173 2146,-173 1211.0884,-173 1211.0884,-173"/>
<polygon fill="#000000" stroke="#000000" points="1211.0885,-169.5001 1201.0884,-173 1211.0884,-176.5001 1211.0885,-169.5001"/>
</g>
<!-- EntriesComponent -->
<g id="node3" class="node">
<title>EntriesComponent</title>
<polygon fill="#ffffb3" stroke="#000000" points="2071.486,-122 1950.514,-122 1950.514,-86 2071.486,-86 2071.486,-122"/>
<text text-anchor="middle" x="2011" y="-99.8" font-family="Times,serif" font-size="14.00" fill="#000000">EntriesComponent</text>
</g>
<!-- EntriesComponent&#45;&gt;DataModule -->
<g id="edge3" class="edge">
<title>EntriesComponent&#45;&gt;DataModule</title>
<path fill="none" stroke="#000000" d="M2011,-122.1061C2011,-141.3391 2011,-169 2011,-169 2011,-169 1211.1786,-169 1211.1786,-169"/>
<polygon fill="#000000" stroke="#000000" points="1211.1786,-165.5001 1201.1786,-169 1211.1786,-172.5001 1211.1786,-165.5001"/>
</g>
<!-- EntryFormComponent -->
<g id="node4" class="node">
<title>EntryFormComponent</title>
<polygon fill="#ffffb3" stroke="#000000" points="1932.2702,-122 1789.7298,-122 1789.7298,-86 1932.2702,-86 1932.2702,-122"/>
<text text-anchor="middle" x="1861" y="-99.8" font-family="Times,serif" font-size="14.00" fill="#000000">EntryFormComponent</text>
</g>
<!-- EntryFormComponent&#45;&gt;DataModule -->
<g id="edge4" class="edge">
<title>EntryFormComponent&#45;&gt;DataModule</title>
<path fill="none" stroke="#000000" d="M1861,-122.2667C1861,-140.5552 1861,-166 1861,-166 1861,-166 1211.1811,-166 1211.1811,-166"/>
<polygon fill="#000000" stroke="#000000" points="1211.1811,-162.5001 1201.1811,-166 1211.181,-169.5001 1211.1811,-162.5001"/>
</g>
<!-- DefaultEntryInputComponent -->
<g id="node5" class="node">
<title>DefaultEntryInputComponent</title>
<polygon fill="#ffffb3" stroke="#000000" points="1771.965,-122 1588.035,-122 1588.035,-86 1771.965,-86 1771.965,-122"/>
<text text-anchor="middle" x="1680" y="-99.8" font-family="Times,serif" font-size="14.00" fill="#000000">DefaultEntryInputComponent</text>
</g>
<!-- DefaultEntryInputComponent&#45;&gt;DataModule -->
<g id="edge5" class="edge">
<title>DefaultEntryInputComponent&#45;&gt;DataModule</title>
<path fill="none" stroke="#000000" d="M1680,-122.0336C1680,-139.0597 1680,-162 1680,-162 1680,-162 1211.1616,-162 1211.1616,-162"/>
<polygon fill="#000000" stroke="#000000" points="1211.1616,-158.5001 1201.1616,-162 1211.1615,-165.5001 1211.1616,-158.5001"/>
</g>
<!-- DefaultEntryOutputComponent -->
<g id="node6" class="node">
<title>DefaultEntryOutputComponent</title>
<polygon fill="#ffffb3" stroke="#000000" points="1569.8018,-122 1376.1982,-122 1376.1982,-86 1569.8018,-86 1569.8018,-122"/>
<text text-anchor="middle" x="1473" y="-99.8" font-family="Times,serif" font-size="14.00" fill="#000000">DefaultEntryOutputComponent</text>
</g>
<!-- DefaultEntryOutputComponent&#45;&gt;DataModule -->
<g id="edge6" class="edge">
<title>DefaultEntryOutputComponent&#45;&gt;DataModule</title>
<path fill="none" stroke="#000000" d="M1403.6587,-122.0091C1403.6587,-138.0494 1403.6587,-159 1403.6587,-159 1403.6587,-159 1211.0716,-159 1211.0716,-159"/>
<polygon fill="#000000" stroke="#000000" points="1211.0716,-155.5001 1201.0716,-159 1211.0715,-162.5001 1211.0716,-155.5001"/>
</g>
<!-- CrudComponent -->
<g id="node7" class="node">
<title>CrudComponent</title>
<polygon fill="#ffffb3" stroke="#000000" points="1358.8301,-122 1249.1699,-122 1249.1699,-86 1358.8301,-86 1358.8301,-122"/>
<text text-anchor="middle" x="1304" y="-99.8" font-family="Times,serif" font-size="14.00" fill="#000000">CrudComponent</text>
</g>
<!-- CrudComponent&#45;&gt;DataModule -->
<g id="edge7" class="edge">
<title>CrudComponent&#45;&gt;DataModule</title>
<path fill="none" stroke="#000000" d="M1273.2891,-122.1243C1273.2891,-136.7832 1273.2891,-155 1273.2891,-155 1273.2891,-155 1211.2574,-155 1211.2574,-155"/>
<polygon fill="#000000" stroke="#000000" points="1211.2574,-151.5001 1201.2574,-155 1211.2574,-158.5001 1211.2574,-151.5001"/>
</g>
<!-- EntrySelectComponent -->
<g id="node8" class="node">
<title>EntrySelectComponent</title>
<polygon fill="#ffffb3" stroke="#000000" points="1231.1442,-122 1084.8558,-122 1084.8558,-86 1231.1442,-86 1231.1442,-122"/>
<text text-anchor="middle" x="1158" y="-99.8" font-family="Times,serif" font-size="14.00" fill="#000000">EntrySelectComponent</text>
</g>
<!-- EntrySelectComponent&#45;&gt;DataModule -->
<g id="edge8" class="edge">
<title>EntrySelectComponent&#45;&gt;DataModule</title>
<path fill="none" stroke="#000000" d="M1158,-122.1061C1158,-122.1061 1158,-140.991 1158,-140.991"/>
<polygon fill="#000000" stroke="#000000" points="1154.5001,-140.9909 1158,-150.991 1161.5001,-140.991 1154.5001,-140.9909"/>
</g>
<!-- EntryListComponent  -->
<g id="node11" class="node">
<title>EntryListComponent </title>
<polygon fill="#fb8072" stroke="#000000" points="1586.7149,-252 1449.2851,-252 1449.2851,-216 1586.7149,-216 1586.7149,-252"/>
<text text-anchor="middle" x="1518" y="-229.8" font-family="Times,serif" font-size="14.00" fill="#000000">EntryListComponent </text>
</g>
<!-- DataModule&#45;&gt;EntryListComponent  -->
<g id="edge10" class="edge">
<title>DataModule&#45;&gt;EntryListComponent </title>
<path fill="none" stroke="#000000" stroke-dasharray="5,2" d="M1201.0881,-180C1294.9212,-180 1509.3967,-180 1509.3967,-180 1509.3967,-180 1509.3967,-205.7181 1509.3967,-205.7181"/>
<polygon fill="#000000" stroke="#000000" points="1505.8968,-205.718 1509.3967,-215.7181 1512.8968,-205.7181 1505.8968,-205.718"/>
</g>
<!-- EntryComponent  -->
<g id="node12" class="node">
<title>EntryComponent </title>
<polygon fill="#fb8072" stroke="#000000" points="1430.9362,-252 1315.0638,-252 1315.0638,-216 1430.9362,-216 1430.9362,-252"/>
<text text-anchor="middle" x="1373" y="-229.8" font-family="Times,serif" font-size="14.00" fill="#000000">EntryComponent </text>
</g>
<!-- DataModule&#45;&gt;EntryComponent  -->
<g id="edge11" class="edge">
<title>DataModule&#45;&gt;EntryComponent </title>
<path fill="none" stroke="#000000" stroke-dasharray="5,2" d="M1201.2942,-184C1254.2249,-184 1336.8484,-184 1336.8484,-184 1336.8484,-184 1336.8484,-205.9489 1336.8484,-205.9489"/>
<polygon fill="#000000" stroke="#000000" points="1333.3484,-205.9488 1336.8484,-215.9489 1340.3484,-205.9489 1333.3484,-205.9488"/>
</g>
<!-- EntriesComponent  -->
<g id="node13" class="node">
<title>EntriesComponent </title>
<polygon fill="#fb8072" stroke="#000000" points="1297.487,-252 1172.513,-252 1172.513,-216 1297.487,-216 1297.487,-252"/>
<text text-anchor="middle" x="1235" y="-229.8" font-family="Times,serif" font-size="14.00" fill="#000000">EntriesComponent </text>
</g>
<!-- DataModule&#45;&gt;EntriesComponent  -->
<g id="edge12" class="edge">
<title>DataModule&#45;&gt;EntriesComponent </title>
<path fill="none" stroke="#000000" stroke-dasharray="5,2" d="M1186.8726,-187.1061C1186.8726,-187.1061 1186.8726,-205.991 1186.8726,-205.991"/>
<polygon fill="#000000" stroke="#000000" points="1183.3726,-205.9909 1186.8726,-215.991 1190.3726,-205.991 1183.3726,-205.9909"/>
</g>
<!-- EntryFormComponent  -->
<g id="node14" class="node">
<title>EntryFormComponent </title>
<polygon fill="#fb8072" stroke="#000000" points="1155.2702,-252 1008.7298,-252 1008.7298,-216 1155.2702,-216 1155.2702,-252"/>
<text text-anchor="middle" x="1082" y="-229.8" font-family="Times,serif" font-size="14.00" fill="#000000">EntryFormComponent </text>
</g>
<!-- DataModule&#45;&gt;EntryFormComponent  -->
<g id="edge13" class="edge">
<title>DataModule&#45;&gt;EntryFormComponent </title>
<path fill="none" stroke="#000000" stroke-dasharray="5,2" d="M1135.0734,-187.1061C1135.0734,-187.1061 1135.0734,-205.991 1135.0734,-205.991"/>
<polygon fill="#000000" stroke="#000000" points="1131.5735,-205.9909 1135.0734,-215.991 1138.5735,-205.991 1131.5735,-205.9909"/>
</g>
<!-- CrudComponent  -->
<g id="node15" class="node">
<title>CrudComponent </title>
<polygon fill="#fb8072" stroke="#000000" points="990.3297,-252 877.6703,-252 877.6703,-216 990.3297,-216 990.3297,-252"/>
<text text-anchor="middle" x="934" y="-229.8" font-family="Times,serif" font-size="14.00" fill="#000000">CrudComponent </text>
</g>
<!-- DataModule&#45;&gt;CrudComponent  -->
<g id="edge14" class="edge">
<title>DataModule&#45;&gt;CrudComponent </title>
<path fill="none" stroke="#000000" stroke-dasharray="5,2" d="M1114.6604,-184C1060.5809,-184 975.1218,-184 975.1218,-184 975.1218,-184 975.1218,-205.9489 975.1218,-205.9489"/>
<polygon fill="#000000" stroke="#000000" points="971.6219,-205.9488 975.1218,-215.9489 978.6219,-205.9489 971.6219,-205.9488"/>
</g>
<!-- EntrySelectComponent  -->
<g id="node16" class="node">
<title>EntrySelectComponent </title>
<polygon fill="#fb8072" stroke="#000000" points="860.1439,-252 709.8561,-252 709.8561,-216 860.1439,-216 860.1439,-252"/>
<text text-anchor="middle" x="785" y="-229.8" font-family="Times,serif" font-size="14.00" fill="#000000">EntrySelectComponent </text>
</g>
<!-- DataModule&#45;&gt;EntrySelectComponent  -->
<g id="edge15" class="edge">
<title>DataModule&#45;&gt;EntrySelectComponent </title>
<path fill="none" stroke="#000000" stroke-dasharray="5,2" d="M1114.8063,-180C1031.4465,-180 856.5274,-180 856.5274,-180 856.5274,-180 856.5274,-205.7181 856.5274,-205.7181"/>
<polygon fill="#000000" stroke="#000000" points="853.0275,-205.718 856.5274,-215.7181 860.0275,-205.7181 853.0275,-205.718"/>
</g>
<!-- UiModule -->
<g id="node10" class="node">
<title>UiModule</title>
<polygon fill="#8dd3c7" stroke="#000000" points="1060.5484,-122 1057.5484,-126 1036.5484,-126 1033.5484,-122 987.4516,-122 987.4516,-86 1060.5484,-86 1060.5484,-122"/>
<text text-anchor="middle" x="1024" y="-99.8" font-family="Times,serif" font-size="14.00" fill="#000000">UiModule</text>
</g>
<!-- UiModule&#45;&gt;DataModule -->
<g id="edge9" class="edge">
<title>UiModule&#45;&gt;DataModule</title>
<path fill="none" stroke="#000000" d="M1034.8193,-122.1243C1034.8193,-136.7832 1034.8193,-155 1034.8193,-155 1034.8193,-155 1104.9174,-155 1104.9174,-155"/>
<polygon fill="#000000" stroke="#000000" points="1104.9174,-158.5001 1114.9174,-155 1104.9173,-151.5001 1104.9174,-158.5001"/>
</g>
<!-- SdkService -->
<g id="node17" class="node">
<title>SdkService</title>
<ellipse fill="#fdb462" stroke="#000000" cx="908" cy="-104" rx="55.0343" ry="18"/>
<text text-anchor="middle" x="908" y="-99.8" font-family="Times,serif" font-size="14.00" fill="#000000">SdkService</text>
</g>
<!-- SdkService&#45;&gt;DataModule -->
<g id="edge16" class="edge">
<title>SdkService&#45;&gt;DataModule</title>
<path fill="none" stroke="#000000" d="M920.3012,-121.7051C920.3012,-137.7833 920.3012,-159 920.3012,-159 920.3012,-159 1104.9545,-159 1104.9545,-159"/>
<polygon fill="#000000" stroke="#000000" points="1104.9546,-162.5001 1114.9545,-159 1104.9545,-155.5001 1104.9546,-162.5001"/>
</g>
<!-- PublicService -->
<g id="node18" class="node">
<title>PublicService</title>
<ellipse fill="#fdb462" stroke="#000000" cx="770" cy="-104" rx="64.8428" ry="18"/>
<text text-anchor="middle" x="770" y="-99.8" font-family="Times,serif" font-size="14.00" fill="#000000">PublicService</text>
</g>
<!-- PublicService&#45;&gt;DataModule -->
<g id="edge17" class="edge">
<title>PublicService&#45;&gt;DataModule</title>
<path fill="none" stroke="#000000" d="M772.2996,-122.0336C772.2996,-139.0597 772.2996,-162 772.2996,-162 772.2996,-162 1104.878,-162 1104.878,-162"/>
<polygon fill="#000000" stroke="#000000" points="1104.878,-165.5001 1114.878,-162 1104.8779,-158.5001 1104.878,-165.5001"/>
</g>
<!-- AdminService -->
<g id="node19" class="node">
<title>AdminService</title>
<ellipse fill="#fdb462" stroke="#000000" cx="621" cy="-104" rx="66.6325" ry="18"/>
<text text-anchor="middle" x="621" y="-99.8" font-family="Times,serif" font-size="14.00" fill="#000000">AdminService</text>
</g>
<!-- AdminService&#45;&gt;DataModule -->
<g id="edge18" class="edge">
<title>AdminService&#45;&gt;DataModule</title>
<path fill="none" stroke="#000000" d="M621,-122.2667C621,-140.5552 621,-166 621,-166 621,-166 1104.9628,-166 1104.9628,-166"/>
<polygon fill="#000000" stroke="#000000" points="1104.9628,-169.5001 1114.9628,-166 1104.9627,-162.5001 1104.9628,-169.5001"/>
</g>
<!-- CrudService -->
<g id="node20" class="node">
<title>CrudService</title>
<ellipse fill="#fdb462" stroke="#000000" cx="477" cy="-104" rx="59.1083" ry="18"/>
<text text-anchor="middle" x="477" y="-99.8" font-family="Times,serif" font-size="14.00" fill="#000000">CrudService</text>
</g>
<!-- CrudService&#45;&gt;DataModule -->
<g id="edge19" class="edge">
<title>CrudService&#45;&gt;DataModule</title>
<path fill="none" stroke="#000000" d="M477,-122.1061C477,-141.3391 477,-169 477,-169 477,-169 1104.8838,-169 1104.8838,-169"/>
<polygon fill="#000000" stroke="#000000" points="1104.8838,-172.5001 1114.8838,-169 1104.8837,-165.5001 1104.8838,-172.5001"/>
</g>
<!-- TypeConfigService -->
<g id="node21" class="node">
<title>TypeConfigService</title>
<ellipse fill="#fdb462" stroke="#000000" cx="313" cy="-104" rx="86.8184" ry="18"/>
<text text-anchor="middle" x="313" y="-99.8" font-family="Times,serif" font-size="14.00" fill="#000000">TypeConfigService</text>
</g>
<!-- TypeConfigService&#45;&gt;DataModule -->
<g id="edge20" class="edge">
<title>TypeConfigService&#45;&gt;DataModule</title>
<path fill="none" stroke="#000000" d="M313,-122.1289C313,-142.5724 313,-173 313,-173 313,-173 1104.9346,-173 1104.9346,-173"/>
<polygon fill="#000000" stroke="#000000" points="1104.9347,-176.5001 1114.9346,-173 1104.9346,-169.5001 1104.9347,-176.5001"/>
</g>
<!-- ModelConfigService -->
<g id="node22" class="node">
<title>ModelConfigService</title>
<ellipse fill="#fdb462" stroke="#000000" cx="116" cy="-104" rx="92.0548" ry="18"/>
<text text-anchor="middle" x="116" y="-99.8" font-family="Times,serif" font-size="14.00" fill="#000000">ModelConfigService</text>
</g>
<!-- ModelConfigService&#45;&gt;DataModule -->
<g id="edge21" class="edge">
<title>ModelConfigService&#45;&gt;DataModule</title>
<path fill="none" stroke="#000000" d="M116,-122.0449C116,-143.6623 116,-177 116,-177 116,-177 1104.882,-177 1104.882,-177"/>
<polygon fill="#000000" stroke="#000000" points="1104.8821,-180.5001 1114.882,-177 1104.882,-173.5001 1104.8821,-180.5001"/>
</g>
</g>
</svg>
