<?xml version="1.0" encoding="UTF-8" standalone="no"?>
<!DOCTYPE svg PUBLIC "-//W3C//DTD SVG 1.1//EN"
 "http://www.w3.org/Graphics/SVG/1.1/DTD/svg11.dtd">
<!-- Generated by graphviz version 2.40.1 (20161225.0304)
 -->
<!-- Title: dependencies Pages: 1 -->
<svg width="2920pt" height="284pt"
 viewBox="0.00 0.00 2920.00 284.00" xmlns="http://www.w3.org/2000/svg" xmlns:xlink="http://www.w3.org/1999/xlink">
<g id="graph0" class="graph" transform="scale(1 1) rotate(0) translate(4 280)">
<title>dependencies</title>
<polygon fill="#ffffff" stroke="transparent" points="-4,4 -4,-280 2916,-280 2916,4 -4,4"/>
<text text-anchor="start" x="1435.0091" y="-42.4" font-family="sans-serif" font-weight="bold" font-size="14.00" fill="#000000">Legend</text>
<polygon fill="#ffffb3" stroke="transparent" points="1222,-10 1222,-30 1242,-30 1242,-10 1222,-10"/>
<text text-anchor="start" x="1245.629" y="-15.4" font-family="sans-serif" font-size="14.00" fill="#000000"> &#160;Declarations</text>
<polygon fill="#8dd3c7" stroke="transparent" points="1335,-10 1335,-30 1355,-30 1355,-10 1335,-10"/>
<text text-anchor="start" x="1358.7251" y="-15.4" font-family="sans-serif" font-size="14.00" fill="#000000"> &#160;Module</text>
<polygon fill="#80b1d3" stroke="transparent" points="1421,-10 1421,-30 1441,-30 1441,-10 1421,-10"/>
<text text-anchor="start" x="1444.7812" y="-15.4" font-family="sans-serif" font-size="14.00" fill="#000000"> &#160;Bootstrap</text>
<polygon fill="#fdb462" stroke="transparent" points="1518,-10 1518,-30 1538,-30 1538,-10 1518,-10"/>
<text text-anchor="start" x="1541.6732" y="-15.4" font-family="sans-serif" font-size="14.00" fill="#000000"> &#160;Providers</text>
<polygon fill="#fb8072" stroke="transparent" points="1614,-10 1614,-30 1634,-30 1634,-10 1614,-10"/>
<text text-anchor="start" x="1637.7258" y="-15.4" font-family="sans-serif" font-size="14.00" fill="#000000"> &#160;Exports</text>
<g id="clust1" class="cluster">
<title>cluster_DataModule</title>
<polygon fill="none" stroke="#000000" stroke-dasharray="1,5" points="8,-70 8,-268 2904,-268 2904,-70 8,-70"/>
</g>
<g id="clust2" class="cluster">
<title>cluster_DataModule_declarations</title>
<polygon fill="none" stroke="#000000" points="959,-78 959,-130 2896,-130 2896,-78 959,-78"/>
</g>
<g id="clust15" class="cluster">
<title>cluster_DataModule_imports</title>
<polygon fill="none" stroke="#000000" points="552,-78 552,-130 951,-130 951,-78 552,-78"/>
</g>
<g id="clust16" class="cluster">
<title>cluster_DataModule_exports</title>
<polygon fill="none" stroke="#000000" points="410,-208 410,-260 2386,-260 2386,-208 410,-208"/>
</g>
<g id="clust18" class="cluster">
<title>cluster_DataModule_providers</title>
<polygon fill="none" stroke="#000000" points="16,-78 16,-130 544,-130 544,-78 16,-78"/>
</g>
<!-- EntryListComponent -->
<g id="node1" class="node">
<title>EntryListComponent</title>
<polygon fill="#ffffb3" stroke="#000000" points="2888.2148,-122 2753.7852,-122 2753.7852,-86 2888.2148,-86 2888.2148,-122"/>
<text text-anchor="middle" x="2821" y="-99.8" font-family="Times,serif" font-size="14.00" fill="#000000">EntryListComponent</text>
</g>
<!-- DataModule -->
<g id="node13" class="node">
<title>DataModule</title>
<polygon fill="#8dd3c7" stroke="#000000" points="1397.9762,-187 1394.9762,-191 1373.9762,-191 1370.9762,-187 1312.0238,-187 1312.0238,-151 1397.9762,-151 1397.9762,-187"/>
<text text-anchor="middle" x="1355" y="-164.8" font-family="Times,serif" font-size="14.00" fill="#000000">DataModule</text>
</g>
<!-- EntryListComponent&#45;&gt;DataModule -->
<g id="edge1" class="edge">
<title>EntryListComponent&#45;&gt;DataModule</title>
<path fill="none" stroke="#000000" d="M2821,-122.2228C2821,-142.3652 2821,-172 2821,-172 2821,-172 1408.0807,-172 1408.0807,-172"/>
<polygon fill="#000000" stroke="#000000" points="1408.0807,-168.5001 1398.0807,-172 1408.0806,-175.5001 1408.0807,-168.5001"/>
</g>
<!-- EntryDirective -->
<g id="node2" class="node">
<title>EntryDirective</title>
<polygon fill="#ffffb3" stroke="#000000" points="2735.6868,-122 2636.3132,-122 2636.3132,-86 2735.6868,-86 2735.6868,-122"/>
<text text-anchor="middle" x="2686" y="-99.8" font-family="Times,serif" font-size="14.00" fill="#000000">EntryDirective</text>
</g>
<!-- EntryDirective&#45;&gt;DataModule -->
<g id="edge2" class="edge">
<title>EntryDirective&#45;&gt;DataModule</title>
<path fill="none" stroke="#000000" d="M2686,-122.1061C2686,-141.3391 2686,-169 2686,-169 2686,-169 1408.1519,-169 1408.1519,-169"/>
<polygon fill="#000000" stroke="#000000" points="1408.1519,-165.5001 1398.1519,-169 1408.1519,-172.5001 1408.1519,-165.5001"/>
</g>
<!-- EntriesDirective -->
<g id="node3" class="node">
<title>EntriesDirective</title>
<polygon fill="#ffffb3" stroke="#000000" points="2618.7367,-122 2511.2633,-122 2511.2633,-86 2618.7367,-86 2618.7367,-122"/>
<text text-anchor="middle" x="2565" y="-99.8" font-family="Times,serif" font-size="14.00" fill="#000000">EntriesDirective</text>
</g>
<!-- EntriesDirective&#45;&gt;DataModule -->
<g id="edge3" class="edge">
<title>EntriesDirective&#45;&gt;DataModule</title>
<path fill="none" stroke="#000000" d="M2565,-122.2222C2565,-140.8285 2565,-167 2565,-167 2565,-167 1408.0645,-167 1408.0645,-167"/>
<polygon fill="#000000" stroke="#000000" points="1408.0646,-163.5001 1398.0645,-167 1408.0645,-170.5001 1408.0646,-163.5001"/>
</g>
<!-- EntryFormComponent -->
<g id="node4" class="node">
<title>EntryFormComponent</title>
<polygon fill="#ffffb3" stroke="#000000" points="2493.2702,-122 2350.7298,-122 2350.7298,-86 2493.2702,-86 2493.2702,-122"/>
<text text-anchor="middle" x="2422" y="-99.8" font-family="Times,serif" font-size="14.00" fill="#000000">EntryFormComponent</text>
</g>
<!-- EntryFormComponent&#45;&gt;DataModule -->
<g id="edge4" class="edge">
<title>EntryFormComponent&#45;&gt;DataModule</title>
<path fill="none" stroke="#000000" d="M2364.2361,-122.302C2364.2361,-140.2699 2364.2361,-165 2364.2361,-165 2364.2361,-165 1408.0428,-165 1408.0428,-165"/>
<polygon fill="#000000" stroke="#000000" points="1408.0428,-161.5001 1398.0428,-165 1408.0427,-168.5001 1408.0428,-161.5001"/>
</g>
<!-- EntryPopComponent -->
<g id="node5" class="node">
<title>EntryPopComponent</title>
<polygon fill="#ffffb3" stroke="#000000" points="2333.219,-122 2198.781,-122 2198.781,-86 2333.219,-86 2333.219,-122"/>
<text text-anchor="middle" x="2266" y="-99.8" font-family="Times,serif" font-size="14.00" fill="#000000">EntryPopComponent</text>
</g>
<!-- EntryPopComponent&#45;&gt;DataModule -->
<g id="edge5" class="edge">
<title>EntryPopComponent&#45;&gt;DataModule</title>
<path fill="none" stroke="#000000" d="M2210.617,-122.0225C2210.617,-139.3734 2210.617,-163 2210.617,-163 2210.617,-163 1408.0165,-163 1408.0165,-163"/>
<polygon fill="#000000" stroke="#000000" points="1408.0166,-159.5001 1398.0165,-163 1408.0165,-166.5001 1408.0166,-159.5001"/>
</g>
<!-- DatamanagerListComponent -->
<g id="node6" class="node">
<title>DatamanagerListComponent</title>
<polygon fill="#ffffb3" stroke="#000000" points="2180.7324,-122 2003.2676,-122 2003.2676,-86 2180.7324,-86 2180.7324,-122"/>
<text text-anchor="middle" x="2092" y="-99.8" font-family="Times,serif" font-size="14.00" fill="#000000">DatamanagerListComponent</text>
</g>
<!-- DatamanagerListComponent&#45;&gt;DataModule -->
<g id="edge6" class="edge">
<title>DatamanagerListComponent&#45;&gt;DataModule</title>
<path fill="none" stroke="#000000" d="M2052.3761,-122.027C2052.3761,-138.3976 2052.3761,-160 2052.3761,-160 2052.3761,-160 1408.0977,-160 1408.0977,-160"/>
<polygon fill="#000000" stroke="#000000" points="1408.0977,-156.5001 1398.0977,-160 1408.0977,-163.5001 1408.0977,-156.5001"/>
</g>
<!-- ModelListComponent -->
<g id="node7" class="node">
<title>ModelListComponent</title>
<polygon fill="#ffffb3" stroke="#000000" points="1984.661,-122 1845.339,-122 1845.339,-86 1984.661,-86 1984.661,-122"/>
<text text-anchor="middle" x="1915" y="-99.8" font-family="Times,serif" font-size="14.00" fill="#000000">ModelListComponent</text>
</g>
<!-- ModelListComponent&#45;&gt;DataModule -->
<g id="edge7" class="edge">
<title>ModelListComponent&#45;&gt;DataModule</title>
<path fill="none" stroke="#000000" d="M1908.6524,-122.2819C1908.6524,-137.9478 1908.6524,-158 1908.6524,-158 1908.6524,-158 1407.9835,-158 1407.9835,-158"/>
<polygon fill="#000000" stroke="#000000" points="1407.9835,-154.5001 1397.9835,-158 1407.9834,-161.5001 1407.9835,-154.5001"/>
</g>
<!-- ResourceListComponent -->
<g id="node8" class="node">
<title>ResourceListComponent</title>
<polygon fill="#ffffb3" stroke="#000000" points="1827.6965,-122 1672.3035,-122 1672.3035,-86 1827.6965,-86 1827.6965,-122"/>
<text text-anchor="middle" x="1750" y="-99.8" font-family="Times,serif" font-size="14.00" fill="#000000">ResourceListComponent</text>
</g>
<!-- ResourceListComponent&#45;&gt;DataModule -->
<g id="edge8" class="edge">
<title>ResourceListComponent&#45;&gt;DataModule</title>
<path fill="none" stroke="#000000" d="M1717.5543,-122.1871C1717.5543,-137.1824 1717.5543,-156 1717.5543,-156 1717.5543,-156 1408.0135,-156 1408.0135,-156"/>
<polygon fill="#000000" stroke="#000000" points="1408.0135,-152.5001 1398.0135,-156 1408.0134,-159.5001 1408.0135,-152.5001"/>
</g>
<!-- DefaultEntryInputComponent -->
<g id="node9" class="node">
<title>DefaultEntryInputComponent</title>
<polygon fill="#ffffb3" stroke="#000000" points="1653.965,-122 1470.035,-122 1470.035,-86 1653.965,-86 1653.965,-122"/>
<text text-anchor="middle" x="1562" y="-99.8" font-family="Times,serif" font-size="14.00" fill="#000000">DefaultEntryInputComponent</text>
</g>
<!-- DefaultEntryInputComponent&#45;&gt;DataModule -->
<g id="edge9" class="edge">
<title>DefaultEntryInputComponent&#45;&gt;DataModule</title>
<path fill="none" stroke="#000000" d="M1496.0447,-122.0511C1496.0447,-136.373 1496.0447,-154 1496.0447,-154 1496.0447,-154 1408.0845,-154 1408.0845,-154"/>
<polygon fill="#000000" stroke="#000000" points="1408.0845,-150.5001 1398.0845,-154 1408.0844,-157.5001 1408.0845,-150.5001"/>
</g>
<!-- DefaultEntryOutputComponent -->
<g id="node10" class="node">
<title>DefaultEntryOutputComponent</title>
<polygon fill="#ffffb3" stroke="#000000" points="1451.8018,-122 1258.1982,-122 1258.1982,-86 1451.8018,-86 1451.8018,-122"/>
<text text-anchor="middle" x="1355" y="-99.8" font-family="Times,serif" font-size="14.00" fill="#000000">DefaultEntryOutputComponent</text>
</g>
<!-- DefaultEntryOutputComponent&#45;&gt;DataModule -->
<g id="edge10" class="edge">
<title>DefaultEntryOutputComponent&#45;&gt;DataModule</title>
<path fill="none" stroke="#000000" d="M1355,-122.1061C1355,-122.1061 1355,-140.991 1355,-140.991"/>
<polygon fill="#000000" stroke="#000000" points="1351.5001,-140.9909 1355,-150.991 1358.5001,-140.991 1351.5001,-140.9909"/>
</g>
<!-- CrudComponent -->
<g id="node11" class="node">
<title>CrudComponent</title>
<polygon fill="#ffffb3" stroke="#000000" points="1240.8301,-122 1131.1699,-122 1131.1699,-86 1240.8301,-86 1240.8301,-122"/>
<text text-anchor="middle" x="1186" y="-99.8" font-family="Times,serif" font-size="14.00" fill="#000000">CrudComponent</text>
</g>
<!-- CrudComponent&#45;&gt;DataModule -->
<g id="edge11" class="edge">
<title>CrudComponent&#45;&gt;DataModule</title>
<path fill="none" stroke="#000000" d="M1206.5244,-122.0511C1206.5244,-136.373 1206.5244,-154 1206.5244,-154 1206.5244,-154 1301.6556,-154 1301.6556,-154"/>
<polygon fill="#000000" stroke="#000000" points="1301.6556,-157.5001 1311.6556,-154 1301.6555,-150.5001 1301.6556,-157.5001"/>
</g>
<!-- EntrySelectComponent -->
<g id="node12" class="node">
<title>EntrySelectComponent</title>
<polygon fill="#ffffb3" stroke="#000000" points="1113.1442,-122 966.8558,-122 966.8558,-86 1113.1442,-86 1113.1442,-122"/>
<text text-anchor="middle" x="1040" y="-99.8" font-family="Times,serif" font-size="14.00" fill="#000000">EntrySelectComponent</text>
</g>
<!-- EntrySelectComponent&#45;&gt;DataModule -->
<g id="edge12" class="edge">
<title>EntrySelectComponent&#45;&gt;DataModule</title>
<path fill="none" stroke="#000000" d="M1062.3708,-122.1871C1062.3708,-137.1824 1062.3708,-156 1062.3708,-156 1062.3708,-156 1301.8216,-156 1301.8216,-156"/>
<polygon fill="#000000" stroke="#000000" points="1301.8216,-159.5001 1311.8216,-156 1301.8215,-152.5001 1301.8216,-159.5001"/>
</g>
<!-- EntryListComponent  -->
<g id="node18" class="node">
<title>EntryListComponent </title>
<polygon fill="#fb8072" stroke="#000000" points="2377.7149,-252 2240.2851,-252 2240.2851,-216 2377.7149,-216 2377.7149,-252"/>
<text text-anchor="middle" x="2309" y="-229.8" font-family="Times,serif" font-size="14.00" fill="#000000">EntryListComponent </text>
</g>
<!-- DataModule&#45;&gt;EntryListComponent  -->
<g id="edge17" class="edge">
<title>DataModule&#45;&gt;EntryListComponent </title>
<path fill="none" stroke="#000000" stroke-dasharray="5,2" d="M1398.0658,-174C1581.2883,-174 2286.6261,-174 2286.6261,-174 2286.6261,-174 2286.6261,-205.998 2286.6261,-205.998"/>
<polygon fill="#000000" stroke="#000000" points="2283.1261,-205.998 2286.6261,-215.998 2290.1261,-205.9981 2283.1261,-205.998"/>
</g>
<!-- EntryDirective  -->
<g id="node19" class="node">
<title>EntryDirective </title>
<polygon fill="#fb8072" stroke="#000000" points="2222.1871,-252 2119.8129,-252 2119.8129,-216 2222.1871,-216 2222.1871,-252"/>
<text text-anchor="middle" x="2171" y="-229.8" font-family="Times,serif" font-size="14.00" fill="#000000">EntryDirective </text>
</g>
<!-- DataModule&#45;&gt;EntryDirective  -->
<g id="edge18" class="edge">
<title>DataModule&#45;&gt;EntryDirective </title>
<path fill="none" stroke="#000000" stroke-dasharray="5,2" d="M1398.0387,-176C1563.6079,-176 2150.2614,-176 2150.2614,-176 2150.2614,-176 2150.2614,-205.9664 2150.2614,-205.9664"/>
<polygon fill="#000000" stroke="#000000" points="2146.7615,-205.9663 2150.2614,-215.9664 2153.7615,-205.9664 2146.7615,-205.9663"/>
</g>
<!-- EntriesDirective  -->
<g id="node20" class="node">
<title>EntriesDirective </title>
<polygon fill="#fb8072" stroke="#000000" points="2101.7367,-252 1990.2633,-252 1990.2633,-216 2101.7367,-216 2101.7367,-252"/>
<text text-anchor="middle" x="2046" y="-229.8" font-family="Times,serif" font-size="14.00" fill="#000000">EntriesDirective </text>
</g>
<!-- DataModule&#45;&gt;EntriesDirective  -->
<g id="edge19" class="edge">
<title>DataModule&#45;&gt;EntriesDirective </title>
<path fill="none" stroke="#000000" stroke-dasharray="5,2" d="M1398.104,-178C1541.9941,-178 1996.7579,-178 1996.7579,-178 1996.7579,-178 1996.7579,-205.973 1996.7579,-205.973"/>
<polygon fill="#000000" stroke="#000000" points="1993.2579,-205.973 1996.7579,-215.973 2000.2579,-205.973 1993.2579,-205.973"/>
</g>
<!-- EntryFormComponent  -->
<g id="node21" class="node">
<title>EntryFormComponent </title>
<polygon fill="#fb8072" stroke="#000000" points="1972.2702,-252 1825.7298,-252 1825.7298,-216 1972.2702,-216 1972.2702,-252"/>
<text text-anchor="middle" x="1899" y="-229.8" font-family="Times,serif" font-size="14.00" fill="#000000">EntryFormComponent </text>
</g>
<!-- DataModule&#45;&gt;EntryFormComponent  -->
<g id="edge20" class="edge">
<title>DataModule&#45;&gt;EntryFormComponent </title>
<path fill="none" stroke="#000000" stroke-dasharray="5,2" d="M1398.1433,-181C1516.2995,-181 1836.384,-181 1836.384,-181 1836.384,-181 1836.384,-205.7604 1836.384,-205.7604"/>
<polygon fill="#000000" stroke="#000000" points="1832.884,-205.7604 1836.384,-215.7604 1839.884,-205.7604 1832.884,-205.7604"/>
</g>
<!-- EntryPopComponent  -->
<g id="node22" class="node">
<title>EntryPopComponent </title>
<polygon fill="#fb8072" stroke="#000000" points="1807.7191,-252 1670.2809,-252 1670.2809,-216 1807.7191,-216 1807.7191,-252"/>
<text text-anchor="middle" x="1739" y="-229.8" font-family="Times,serif" font-size="14.00" fill="#000000">EntryPopComponent </text>
</g>
<!-- DataModule&#45;&gt;EntryPopComponent  -->
<g id="edge21" class="edge">
<title>DataModule&#45;&gt;EntryPopComponent </title>
<path fill="none" stroke="#000000" stroke-dasharray="5,2" d="M1398.2458,-183C1503.1741,-183 1762.7069,-183 1762.7069,-183 1762.7069,-183 1762.7069,-205.8757 1762.7069,-205.8757"/>
<polygon fill="#000000" stroke="#000000" points="1759.207,-205.8757 1762.7069,-215.8757 1766.207,-205.8757 1759.207,-205.8757"/>
</g>
<!-- CrudComponent  -->
<g id="node23" class="node">
<title>CrudComponent </title>
<polygon fill="#fb8072" stroke="#000000" points="1652.3297,-252 1539.6703,-252 1539.6703,-216 1652.3297,-216 1652.3297,-252"/>
<text text-anchor="middle" x="1596" y="-229.8" font-family="Times,serif" font-size="14.00" fill="#000000">CrudComponent </text>
</g>
<!-- DataModule&#45;&gt;CrudComponent  -->
<g id="edge22" class="edge">
<title>DataModule&#45;&gt;CrudComponent </title>
<path fill="none" stroke="#000000" stroke-dasharray="5,2" d="M1398.086,-185C1467.4061,-185 1596,-185 1596,-185 1596,-185 1596,-205.7542 1596,-205.7542"/>
<polygon fill="#000000" stroke="#000000" points="1592.5001,-205.7542 1596,-215.7542 1599.5001,-205.7542 1592.5001,-205.7542"/>
</g>
<!-- EntrySelectComponent  -->
<g id="node24" class="node">
<title>EntrySelectComponent </title>
<polygon fill="#fb8072" stroke="#000000" points="1522.1439,-252 1371.8561,-252 1371.8561,-216 1522.1439,-216 1522.1439,-252"/>
<text text-anchor="middle" x="1447" y="-229.8" font-family="Times,serif" font-size="14.00" fill="#000000">EntrySelectComponent </text>
</g>
<!-- DataModule&#45;&gt;EntrySelectComponent  -->
<g id="edge23" class="edge">
<title>DataModule&#45;&gt;EntrySelectComponent </title>
<path fill="none" stroke="#000000" stroke-dasharray="5,2" d="M1384.9581,-187.1061C1384.9581,-187.1061 1384.9581,-205.991 1384.9581,-205.991"/>
<polygon fill="#000000" stroke="#000000" points="1381.4582,-205.9909 1384.9581,-215.991 1388.4582,-205.991 1381.4582,-205.9909"/>
</g>
<!-- DatamanagerListComponent  -->
<g id="node25" class="node">
<title>DatamanagerListComponent </title>
<polygon fill="#fb8072" stroke="#000000" points="1353.7323,-252 1172.2677,-252 1172.2677,-216 1353.7323,-216 1353.7323,-252"/>
<text text-anchor="middle" x="1263" y="-229.8" font-family="Times,serif" font-size="14.00" fill="#000000">DatamanagerListComponent </text>
</g>
<!-- DataModule&#45;&gt;DatamanagerListComponent  -->
<g id="edge24" class="edge">
<title>DataModule&#45;&gt;DatamanagerListComponent </title>
<path fill="none" stroke="#000000" stroke-dasharray="5,2" d="M1332.814,-187.1061C1332.814,-187.1061 1332.814,-205.991 1332.814,-205.991"/>
<polygon fill="#000000" stroke="#000000" points="1329.3141,-205.9909 1332.814,-215.991 1336.3141,-205.991 1329.3141,-205.9909"/>
</g>
<!-- ModelListComponent  -->
<g id="node26" class="node">
<title>ModelListComponent </title>
<polygon fill="#fb8072" stroke="#000000" points="1154.6607,-252 1011.3393,-252 1011.3393,-216 1154.6607,-216 1154.6607,-252"/>
<text text-anchor="middle" x="1083" y="-229.8" font-family="Times,serif" font-size="14.00" fill="#000000">ModelListComponent </text>
</g>
<!-- DataModule&#45;&gt;ModelListComponent  -->
<g id="edge25" class="edge">
<title>DataModule&#45;&gt;ModelListComponent </title>
<path fill="none" stroke="#000000" stroke-dasharray="5,2" d="M1311.8345,-185C1249.8365,-185 1142.9578,-185 1142.9578,-185 1142.9578,-185 1142.9578,-205.7542 1142.9578,-205.7542"/>
<polygon fill="#000000" stroke="#000000" points="1139.4578,-205.7542 1142.9578,-215.7542 1146.4578,-205.7542 1139.4578,-205.7542"/>
</g>
<!-- ResourceListComponent  -->
<g id="node27" class="node">
<title>ResourceListComponent </title>
<polygon fill="#fb8072" stroke="#000000" points="993.1967,-252 834.8033,-252 834.8033,-216 993.1967,-216 993.1967,-252"/>
<text text-anchor="middle" x="914" y="-229.8" font-family="Times,serif" font-size="14.00" fill="#000000">ResourceListComponent </text>
</g>
<!-- DataModule&#45;&gt;ResourceListComponent  -->
<g id="edge26" class="edge">
<title>DataModule&#45;&gt;ResourceListComponent </title>
<path fill="none" stroke="#000000" stroke-dasharray="5,2" d="M1311.9842,-183C1213.4873,-183 980.0132,-183 980.0132,-183 980.0132,-183 980.0132,-205.8757 980.0132,-205.8757"/>
<polygon fill="#000000" stroke="#000000" points="976.5132,-205.8757 980.0132,-215.8757 983.5132,-205.8757 976.5132,-205.8757"/>
</g>
<!-- UiModule  -->
<g id="node28" class="node">
<title>UiModule </title>
<polygon fill="#fb8072" stroke="#000000" points="816.547,-252 739.453,-252 739.453,-216 816.547,-216 816.547,-252"/>
<text text-anchor="middle" x="778" y="-229.8" font-family="Times,serif" font-size="14.00" fill="#000000">UiModule </text>
</g>
<!-- DataModule&#45;&gt;UiModule  -->
<g id="edge27" class="edge">
<title>DataModule&#45;&gt;UiModule </title>
<path fill="none" stroke="#000000" stroke-dasharray="5,2" d="M1311.8669,-181C1180.368,-181 793.4287,-181 793.4287,-181 793.4287,-181 793.4287,-205.7604 793.4287,-205.7604"/>
<polygon fill="#000000" stroke="#000000" points="789.9287,-205.7604 793.4287,-215.7604 796.9287,-205.7604 789.9287,-205.7604"/>
</g>
<!-- SdkModule  -->
<g id="node29" class="node">
<title>SdkModule </title>
<polygon fill="#fb8072" stroke="#000000" points="721.3326,-252 636.6674,-252 636.6674,-216 721.3326,-216 721.3326,-252"/>
<text text-anchor="middle" x="679" y="-229.8" font-family="Times,serif" font-size="14.00" fill="#000000">SdkModule </text>
</g>
<!-- DataModule&#45;&gt;SdkModule  -->
<g id="edge28" class="edge">
<title>DataModule&#45;&gt;SdkModule </title>
<path fill="none" stroke="#000000" stroke-dasharray="5,2" d="M1311.8533,-178C1164.9806,-178 693.5149,-178 693.5149,-178 693.5149,-178 693.5149,-205.973 693.5149,-205.973"/>
<polygon fill="#000000" stroke="#000000" points="690.015,-205.973 693.5149,-215.973 697.015,-205.973 690.015,-205.973"/>
</g>
<!-- FilesModule  -->
<g id="node30" class="node">
<title>FilesModule </title>
<polygon fill="#fb8072" stroke="#000000" points="618.2732,-252 527.7268,-252 527.7268,-216 618.2732,-216 618.2732,-252"/>
<text text-anchor="middle" x="573" y="-229.8" font-family="Times,serif" font-size="14.00" fill="#000000">FilesModule </text>
</g>
<!-- DataModule&#45;&gt;FilesModule  -->
<g id="edge29" class="edge">
<title>DataModule&#45;&gt;FilesModule </title>
<path fill="none" stroke="#000000" stroke-dasharray="5,2" d="M1311.9091,-176C1150.2679,-176 589.1815,-176 589.1815,-176 589.1815,-176 589.1815,-205.9664 589.1815,-205.9664"/>
<polygon fill="#000000" stroke="#000000" points="585.6815,-205.9663 589.1815,-215.9664 592.6815,-205.9664 585.6815,-205.9663"/>
</g>
<!-- AuthModule  -->
<g id="node31" class="node">
<title>AuthModule </title>
<polygon fill="#fb8072" stroke="#000000" points="509.547,-252 418.453,-252 418.453,-216 509.547,-216 509.547,-252"/>
<text text-anchor="middle" x="464" y="-229.8" font-family="Times,serif" font-size="14.00" fill="#000000">AuthModule </text>
</g>
<!-- DataModule&#45;&gt;AuthModule  -->
<g id="edge30" class="edge">
<title>DataModule&#45;&gt;AuthModule </title>
<path fill="none" stroke="#000000" stroke-dasharray="5,2" d="M1311.7241,-174C1133.2903,-174 464,-174 464,-174 464,-174 464,-205.998 464,-205.998"/>
<polygon fill="#000000" stroke="#000000" points="460.5001,-205.998 464,-215.998 467.5001,-205.9981 460.5001,-205.998"/>
</g>
<!-- UiModule -->
<g id="node14" class="node">
<title>UiModule</title>
<polygon fill="#8dd3c7" stroke="#000000" points="942.5484,-122 939.5484,-126 918.5484,-126 915.5484,-122 869.4516,-122 869.4516,-86 942.5484,-86 942.5484,-122"/>
<text text-anchor="middle" x="906" y="-99.8" font-family="Times,serif" font-size="14.00" fill="#000000">UiModule</text>
</g>
<!-- UiModule&#45;&gt;DataModule -->
<g id="edge13" class="edge">
<title>UiModule&#45;&gt;DataModule</title>
<path fill="none" stroke="#000000" d="M906,-122.2819C906,-137.9478 906,-158 906,-158 906,-158 1301.948,-158 1301.948,-158"/>
<polygon fill="#000000" stroke="#000000" points="1301.948,-161.5001 1311.948,-158 1301.948,-154.5001 1301.948,-161.5001"/>
</g>
<!-- SdkModule -->
<g id="node15" class="node">
<title>SdkModule</title>
<polygon fill="#8dd3c7" stroke="#000000" points="851.8331,-122 848.8331,-126 827.8331,-126 824.8331,-122 770.1669,-122 770.1669,-86 851.8331,-86 851.8331,-122"/>
<text text-anchor="middle" x="811" y="-99.8" font-family="Times,serif" font-size="14.00" fill="#000000">SdkModule</text>
</g>
<!-- SdkModule&#45;&gt;DataModule -->
<g id="edge14" class="edge">
<title>SdkModule&#45;&gt;DataModule</title>
<path fill="none" stroke="#000000" d="M843.159,-122.027C843.159,-138.3976 843.159,-160 843.159,-160 843.159,-160 1301.8018,-160 1301.8018,-160"/>
<polygon fill="#000000" stroke="#000000" points="1301.8019,-163.5001 1311.8018,-160 1301.8018,-156.5001 1301.8019,-163.5001"/>
</g>
<!-- FilesModule -->
<g id="node16" class="node">
<title>FilesModule</title>
<polygon fill="#8dd3c7" stroke="#000000" points="752.2731,-122 749.2731,-126 728.2731,-126 725.2731,-122 665.7269,-122 665.7269,-86 752.2731,-86 752.2731,-122"/>
<text text-anchor="middle" x="709" y="-99.8" font-family="Times,serif" font-size="14.00" fill="#000000">FilesModule</text>
</g>
<!-- FilesModule&#45;&gt;DataModule -->
<g id="edge15" class="edge">
<title>FilesModule&#45;&gt;DataModule</title>
<path fill="none" stroke="#000000" d="M745.9315,-122.0225C745.9315,-139.3734 745.9315,-163 745.9315,-163 745.9315,-163 1301.6856,-163 1301.6856,-163"/>
<polygon fill="#000000" stroke="#000000" points="1301.6856,-166.5001 1311.6856,-163 1301.6855,-159.5001 1301.6856,-166.5001"/>
</g>
<!-- AuthModule -->
<g id="node17" class="node">
<title>AuthModule</title>
<polygon fill="#8dd3c7" stroke="#000000" points="647.5482,-122 644.5482,-126 623.5482,-126 620.5482,-122 560.4518,-122 560.4518,-86 647.5482,-86 647.5482,-122"/>
<text text-anchor="middle" x="604" y="-99.8" font-family="Times,serif" font-size="14.00" fill="#000000">AuthModule</text>
</g>
<!-- AuthModule&#45;&gt;DataModule -->
<g id="edge16" class="edge">
<title>AuthModule&#45;&gt;DataModule</title>
<path fill="none" stroke="#000000" d="M642.1787,-122.302C642.1787,-140.2699 642.1787,-165 642.1787,-165 642.1787,-165 1302.0151,-165 1302.0151,-165"/>
<polygon fill="#000000" stroke="#000000" points="1302.0151,-168.5001 1312.0151,-165 1302.0151,-161.5001 1302.0151,-168.5001"/>
</g>
<!-- CrudService -->
<g id="node32" class="node">
<title>CrudService</title>
<ellipse fill="#fdb462" stroke="#000000" cx="477" cy="-104" rx="59.1083" ry="18"/>
<text text-anchor="middle" x="477" y="-99.8" font-family="Times,serif" font-size="14.00" fill="#000000">CrudService</text>
</g>
<!-- CrudService&#45;&gt;DataModule -->
<g id="edge31" class="edge">
<title>CrudService&#45;&gt;DataModule</title>
<path fill="none" stroke="#000000" d="M532.0837,-110.7421C532.0837,-126.9944 532.0837,-167 532.0837,-167 532.0837,-167 1301.9151,-167 1301.9151,-167"/>
<polygon fill="#000000" stroke="#000000" points="1301.9151,-170.5001 1311.9151,-167 1301.9151,-163.5001 1301.9151,-170.5001"/>
</g>
<!-- TypeConfigService -->
<g id="node33" class="node">
<title>TypeConfigService</title>
<ellipse fill="#fdb462" stroke="#000000" cx="313" cy="-104" rx="86.8184" ry="18"/>
<text text-anchor="middle" x="313" y="-99.8" font-family="Times,serif" font-size="14.00" fill="#000000">TypeConfigService</text>
</g>
<!-- TypeConfigService&#45;&gt;DataModule -->
<g id="edge32" class="edge">
<title>TypeConfigService&#45;&gt;DataModule</title>
<path fill="none" stroke="#000000" d="M313,-122.1061C313,-141.3391 313,-169 313,-169 313,-169 1301.882,-169 1301.882,-169"/>
<polygon fill="#000000" stroke="#000000" points="1301.8821,-172.5001 1311.882,-169 1301.882,-165.5001 1301.8821,-172.5001"/>
</g>
<!-- ModelConfigService -->
<g id="node34" class="node">
<title>ModelConfigService</title>
<ellipse fill="#fdb462" stroke="#000000" cx="116" cy="-104" rx="92.0548" ry="18"/>
<text text-anchor="middle" x="116" y="-99.8" font-family="Times,serif" font-size="14.00" fill="#000000">ModelConfigService</text>
</g>
<!-- ModelConfigService&#45;&gt;DataModule -->
<g id="edge33" class="edge">
<title>ModelConfigService&#45;&gt;DataModule</title>
<path fill="none" stroke="#000000" d="M116,-122.2228C116,-142.3652 116,-172 116,-172 116,-172 1301.991,-172 1301.991,-172"/>
<polygon fill="#000000" stroke="#000000" points="1301.991,-175.5001 1311.991,-172 1301.991,-168.5001 1301.991,-175.5001"/>
</g>
</g>
</svg>
