<?xml version="1.0" encoding="UTF-8" standalone="no"?>
<!DOCTYPE svg PUBLIC "-//W3C//DTD SVG 1.1//EN"
 "http://www.w3.org/Graphics/SVG/1.1/DTD/svg11.dtd">
<!-- Generated by graphviz version 2.40.1 (20161225.0304)
 -->
<!-- Title: dependencies Pages: 1 -->
<svg width="3865pt" height="284pt"
 viewBox="0.00 0.00 3865.00 284.00" xmlns="http://www.w3.org/2000/svg" xmlns:xlink="http://www.w3.org/1999/xlink">
<g id="graph0" class="graph" transform="scale(1 1) rotate(0) translate(4 280)">
<title>dependencies</title>
<polygon fill="#ffffff" stroke="transparent" points="-4,4 -4,-280 3861,-280 3861,4 -4,4"/>
<text text-anchor="start" x="1907.5091" y="-42.4" font-family="sans-serif" font-weight="bold" font-size="14.00" fill="#000000">Legend</text>
<polygon fill="#ffffb3" stroke="transparent" points="1694.5,-10 1694.5,-30 1714.5,-30 1714.5,-10 1694.5,-10"/>
<text text-anchor="start" x="1718.129" y="-15.4" font-family="sans-serif" font-size="14.00" fill="#000000"> &#160;Declarations</text>
<polygon fill="#8dd3c7" stroke="transparent" points="1807.5,-10 1807.5,-30 1827.5,-30 1827.5,-10 1807.5,-10"/>
<text text-anchor="start" x="1831.2251" y="-15.4" font-family="sans-serif" font-size="14.00" fill="#000000"> &#160;Module</text>
<polygon fill="#80b1d3" stroke="transparent" points="1893.5,-10 1893.5,-30 1913.5,-30 1913.5,-10 1893.5,-10"/>
<text text-anchor="start" x="1917.2812" y="-15.4" font-family="sans-serif" font-size="14.00" fill="#000000"> &#160;Bootstrap</text>
<polygon fill="#fdb462" stroke="transparent" points="1990.5,-10 1990.5,-30 2010.5,-30 2010.5,-10 1990.5,-10"/>
<text text-anchor="start" x="2014.1732" y="-15.4" font-family="sans-serif" font-size="14.00" fill="#000000"> &#160;Providers</text>
<polygon fill="#fb8072" stroke="transparent" points="2086.5,-10 2086.5,-30 2106.5,-30 2106.5,-10 2086.5,-10"/>
<text text-anchor="start" x="2110.2258" y="-15.4" font-family="sans-serif" font-size="14.00" fill="#000000"> &#160;Exports</text>
<g id="clust1" class="cluster">
<title>cluster_DataModule</title>
<polygon fill="none" stroke="#000000" stroke-dasharray="1,5" points="8,-70 8,-268 3849,-268 3849,-70 8,-70"/>
</g>
<g id="clust2" class="cluster">
<title>cluster_DataModule_declarations</title>
<polygon fill="none" stroke="#000000" points="1129,-78 1129,-130 3841,-130 3841,-78 1129,-78"/>
</g>
<g id="clust19" class="cluster">
<title>cluster_DataModule_imports</title>
<polygon fill="none" stroke="#000000" points="722,-78 722,-130 1121,-130 1121,-78 722,-78"/>
</g>
<g id="clust20" class="cluster">
<title>cluster_DataModule_exports</title>
<polygon fill="none" stroke="#000000" points="557,-208 557,-260 3119,-260 3119,-208 557,-208"/>
</g>
<g id="clust22" class="cluster">
<title>cluster_DataModule_providers</title>
<polygon fill="none" stroke="#000000" points="16,-78 16,-130 714,-130 714,-78 16,-78"/>
</g>
<!-- EntryListComponent -->
<g id="node1" class="node">
<title>EntryListComponent</title>
<polygon fill="#ffffb3" stroke="#000000" points="3833.2148,-122 3698.7852,-122 3698.7852,-86 3833.2148,-86 3833.2148,-122"/>
<text text-anchor="middle" x="3766" y="-99.8" font-family="Times,serif" font-size="14.00" fill="#000000">EntryListComponent</text>
</g>
<!-- DataModule -->
<g id="node17" class="node">
<title>DataModule</title>
<polygon fill="#8dd3c7" stroke="#000000" points="1869.9762,-187 1866.9762,-191 1845.9762,-191 1842.9762,-187 1784.0238,-187 1784.0238,-151 1869.9762,-151 1869.9762,-187"/>
<text text-anchor="middle" x="1827" y="-164.8" font-family="Times,serif" font-size="14.00" fill="#000000">DataModule</text>
</g>
<!-- EntryListComponent&#45;&gt;DataModule -->
<g id="edge1" class="edge">
<title>EntryListComponent&#45;&gt;DataModule</title>
<path fill="none" stroke="#000000" d="M3766,-122.308C3766,-142.1455 3766,-171 3766,-171 3766,-171 1880.2174,-171 1880.2174,-171"/>
<polygon fill="#000000" stroke="#000000" points="1880.2174,-167.5001 1870.2174,-171 1880.2174,-174.5001 1880.2174,-167.5001"/>
</g>
<!-- EntryDirective -->
<g id="node2" class="node">
<title>EntryDirective</title>
<polygon fill="#ffffb3" stroke="#000000" points="3680.6868,-122 3581.3132,-122 3581.3132,-86 3680.6868,-86 3680.6868,-122"/>
<text text-anchor="middle" x="3631" y="-99.8" font-family="Times,serif" font-size="14.00" fill="#000000">EntryDirective</text>
</g>
<!-- EntryDirective&#45;&gt;DataModule -->
<g id="edge2" class="edge">
<title>EntryDirective&#45;&gt;DataModule</title>
<path fill="none" stroke="#000000" d="M3631,-122.1061C3631,-141.3391 3631,-169 3631,-169 3631,-169 1880.2559,-169 1880.2559,-169"/>
<polygon fill="#000000" stroke="#000000" points="1880.2559,-165.5001 1870.2559,-169 1880.2558,-172.5001 1880.2559,-165.5001"/>
</g>
<!-- EntriesDirective -->
<g id="node3" class="node">
<title>EntriesDirective</title>
<polygon fill="#ffffb3" stroke="#000000" points="3563.7367,-122 3456.2633,-122 3456.2633,-86 3563.7367,-86 3563.7367,-122"/>
<text text-anchor="middle" x="3510" y="-99.8" font-family="Times,serif" font-size="14.00" fill="#000000">EntriesDirective</text>
</g>
<!-- EntriesDirective&#45;&gt;DataModule -->
<g id="edge3" class="edge">
<title>EntriesDirective&#45;&gt;DataModule</title>
<path fill="none" stroke="#000000" d="M3510,-122.1686C3510,-141.0898 3510,-168 3510,-168 3510,-168 1880.2938,-168 1880.2938,-168"/>
<polygon fill="#000000" stroke="#000000" points="1880.2938,-164.5001 1870.2938,-168 1880.2937,-171.5001 1880.2938,-164.5001"/>
</g>
<!-- EntryFormComponent -->
<g id="node4" class="node">
<title>EntryFormComponent</title>
<polygon fill="#ffffb3" stroke="#000000" points="3438.2702,-122 3295.7298,-122 3295.7298,-86 3438.2702,-86 3438.2702,-122"/>
<text text-anchor="middle" x="3367" y="-99.8" font-family="Times,serif" font-size="14.00" fill="#000000">EntryFormComponent</text>
</g>
<!-- EntryFormComponent&#45;&gt;DataModule -->
<g id="edge4" class="edge">
<title>EntryFormComponent&#45;&gt;DataModule</title>
<path fill="none" stroke="#000000" d="M3367,-122.2667C3367,-140.5552 3367,-166 3367,-166 3367,-166 1880.2012,-166 1880.2012,-166"/>
<polygon fill="#000000" stroke="#000000" points="1880.2013,-162.5001 1870.2012,-166 1880.2012,-169.5001 1880.2013,-162.5001"/>
</g>
<!-- EntryPopComponent -->
<g id="node5" class="node">
<title>EntryPopComponent</title>
<polygon fill="#ffffb3" stroke="#000000" points="3278.219,-122 3143.781,-122 3143.781,-86 3278.219,-86 3278.219,-122"/>
<text text-anchor="middle" x="3211" y="-99.8" font-family="Times,serif" font-size="14.00" fill="#000000">EntryPopComponent</text>
</g>
<!-- EntryPopComponent&#45;&gt;DataModule -->
<g id="edge5" class="edge">
<title>EntryPopComponent&#45;&gt;DataModule</title>
<path fill="none" stroke="#000000" d="M3211,-122.002C3211,-139.6754 3211,-164 3211,-164 3211,-164 1880.3213,-164 1880.3213,-164"/>
<polygon fill="#000000" stroke="#000000" points="1880.3214,-160.5001 1870.3213,-164 1880.3213,-167.5001 1880.3214,-160.5001"/>
</g>
<!-- ResourceListComponent -->
<g id="node6" class="node">
<title>ResourceListComponent</title>
<polygon fill="#ffffb3" stroke="#000000" points="3125.6965,-122 2970.3035,-122 2970.3035,-86 3125.6965,-86 3125.6965,-122"/>
<text text-anchor="middle" x="3048" y="-99.8" font-family="Times,serif" font-size="14.00" fill="#000000">ResourceListComponent</text>
</g>
<!-- ResourceListComponent&#45;&gt;DataModule -->
<g id="edge6" class="edge">
<title>ResourceListComponent&#45;&gt;DataModule</title>
<path fill="none" stroke="#000000" d="M3019.0476,-122.0336C3019.0476,-139.0597 3019.0476,-162 3019.0476,-162 3019.0476,-162 1880.1298,-162 1880.1298,-162"/>
<polygon fill="#000000" stroke="#000000" points="1880.1299,-158.5001 1870.1298,-162 1880.1298,-165.5001 1880.1299,-158.5001"/>
</g>
<!-- ResourceFormComponent -->
<g id="node7" class="node">
<title>ResourceFormComponent</title>
<polygon fill="#ffffb3" stroke="#000000" points="2952.752,-122 2789.248,-122 2789.248,-86 2952.752,-86 2952.752,-122"/>
<text text-anchor="middle" x="2871" y="-99.8" font-family="Times,serif" font-size="14.00" fill="#000000">ResourceFormComponent</text>
</g>
<!-- ResourceFormComponent&#45;&gt;DataModule -->
<g id="edge7" class="edge">
<title>ResourceFormComponent&#45;&gt;DataModule</title>
<path fill="none" stroke="#000000" d="M2811.8712,-122.027C2811.8712,-138.3976 2811.8712,-160 2811.8712,-160 2811.8712,-160 1880.2702,-160 1880.2702,-160"/>
<polygon fill="#000000" stroke="#000000" points="1880.2702,-156.5001 1870.2702,-160 1880.2702,-163.5001 1880.2702,-156.5001"/>
</g>
<!-- ResourcePopComponent -->
<g id="node8" class="node">
<title>ResourcePopComponent</title>
<polygon fill="#ffffb3" stroke="#000000" points="2771.7007,-122 2616.2993,-122 2616.2993,-86 2771.7007,-86 2771.7007,-122"/>
<text text-anchor="middle" x="2694" y="-99.8" font-family="Times,serif" font-size="14.00" fill="#000000">ResourcePopComponent</text>
</g>
<!-- ResourcePopComponent&#45;&gt;DataModule -->
<g id="edge8" class="edge">
<title>ResourcePopComponent&#45;&gt;DataModule</title>
<path fill="none" stroke="#000000" d="M2660.7674,-122.0091C2660.7674,-138.0494 2660.7674,-159 2660.7674,-159 2660.7674,-159 1880.0712,-159 1880.0712,-159"/>
<polygon fill="#000000" stroke="#000000" points="1880.0713,-155.5001 1870.0712,-159 1880.0712,-162.5001 1880.0713,-155.5001"/>
</g>
<!-- ResourceCrudComponent -->
<g id="node9" class="node">
<title>ResourceCrudComponent</title>
<polygon fill="#ffffb3" stroke="#000000" points="2598.9157,-122 2437.0843,-122 2437.0843,-86 2598.9157,-86 2598.9157,-122"/>
<text text-anchor="middle" x="2518" y="-99.8" font-family="Times,serif" font-size="14.00" fill="#000000">ResourceCrudComponent</text>
</g>
<!-- ResourceCrudComponent&#45;&gt;DataModule -->
<g id="edge9" class="edge">
<title>ResourceCrudComponent&#45;&gt;DataModule</title>
<path fill="none" stroke="#000000" d="M2489.0759,-122.2396C2489.0759,-137.5706 2489.0759,-157 2489.0759,-157 2489.0759,-157 1880.1853,-157 1880.1853,-157"/>
<polygon fill="#000000" stroke="#000000" points="1880.1853,-153.5001 1870.1853,-157 1880.1852,-160.5001 1880.1853,-153.5001"/>
</g>
<!-- ResourceSelectComponent -->
<g id="node10" class="node">
<title>ResourceSelectComponent</title>
<polygon fill="#ffffb3" stroke="#000000" points="2418.626,-122 2251.374,-122 2251.374,-86 2418.626,-86 2418.626,-122"/>
<text text-anchor="middle" x="2335" y="-99.8" font-family="Times,serif" font-size="14.00" fill="#000000">ResourceSelectComponent</text>
</g>
<!-- ResourceSelectComponent&#45;&gt;DataModule -->
<g id="edge10" class="edge">
<title>ResourceSelectComponent&#45;&gt;DataModule</title>
<path fill="none" stroke="#000000" d="M2263.8286,-122.1243C2263.8286,-136.7832 2263.8286,-155 2263.8286,-155 2263.8286,-155 1880.0803,-155 1880.0803,-155"/>
<polygon fill="#000000" stroke="#000000" points="1880.0803,-151.5001 1870.0803,-155 1880.0803,-158.5001 1880.0803,-151.5001"/>
</g>
<!-- ResourceDeletePopComponent -->
<g id="node11" class="node">
<title>ResourceDeletePopComponent</title>
<polygon fill="#ffffb3" stroke="#000000" points="2232.7324,-122 2041.2676,-122 2041.2676,-86 2232.7324,-86 2232.7324,-122"/>
<text text-anchor="middle" x="2137" y="-99.8" font-family="Times,serif" font-size="14.00" fill="#000000">ResourceDeletePopComponent</text>
</g>
<!-- ResourceDeletePopComponent&#45;&gt;DataModule -->
<g id="edge11" class="edge">
<title>ResourceDeletePopComponent&#45;&gt;DataModule</title>
<path fill="none" stroke="#000000" d="M2064.2411,-122.2458C2064.2411,-136.1772 2064.2411,-153 2064.2411,-153 2064.2411,-153 1880.2378,-153 1880.2378,-153"/>
<polygon fill="#000000" stroke="#000000" points="1880.2378,-149.5001 1870.2378,-153 1880.2378,-156.5001 1880.2378,-149.5001"/>
</g>
<!-- DefaultEntryInputComponent -->
<g id="node12" class="node">
<title>DefaultEntryInputComponent</title>
<polygon fill="#ffffb3" stroke="#000000" points="2022.965,-122 1839.035,-122 1839.035,-86 2022.965,-86 2022.965,-122"/>
<text text-anchor="middle" x="1931" y="-99.8" font-family="Times,serif" font-size="14.00" fill="#000000">DefaultEntryInputComponent</text>
</g>
<!-- DefaultEntryInputComponent&#45;&gt;DataModule -->
<g id="edge12" class="edge">
<title>DefaultEntryInputComponent&#45;&gt;DataModule</title>
<path fill="none" stroke="#000000" d="M1854.5028,-122.1061C1854.5028,-122.1061 1854.5028,-140.991 1854.5028,-140.991"/>
<polygon fill="#000000" stroke="#000000" points="1851.0029,-140.9909 1854.5028,-150.991 1858.0029,-140.991 1851.0029,-140.9909"/>
</g>
<!-- DefaultEntryOutputComponent -->
<g id="node13" class="node">
<title>DefaultEntryOutputComponent</title>
<polygon fill="#ffffb3" stroke="#000000" points="1820.8018,-122 1627.1982,-122 1627.1982,-86 1820.8018,-86 1820.8018,-122"/>
<text text-anchor="middle" x="1724" y="-99.8" font-family="Times,serif" font-size="14.00" fill="#000000">DefaultEntryOutputComponent</text>
</g>
<!-- DefaultEntryOutputComponent&#45;&gt;DataModule -->
<g id="edge13" class="edge">
<title>DefaultEntryOutputComponent&#45;&gt;DataModule</title>
<path fill="none" stroke="#000000" d="M1802.3314,-122.1061C1802.3314,-122.1061 1802.3314,-140.991 1802.3314,-140.991"/>
<polygon fill="#000000" stroke="#000000" points="1798.8314,-140.9909 1802.3314,-150.991 1805.8314,-140.991 1798.8314,-140.9909"/>
</g>
<!-- AdminEntryInputComponent -->
<g id="node14" class="node">
<title>AdminEntryInputComponent</title>
<polygon fill="#ffffb3" stroke="#000000" points="1609.3752,-122 1428.6248,-122 1428.6248,-86 1609.3752,-86 1609.3752,-122"/>
<text text-anchor="middle" x="1519" y="-99.8" font-family="Times,serif" font-size="14.00" fill="#000000">AdminEntryInputComponent</text>
</g>
<!-- AdminEntryInputComponent&#45;&gt;DataModule -->
<g id="edge14" class="edge">
<title>AdminEntryInputComponent&#45;&gt;DataModule</title>
<path fill="none" stroke="#000000" d="M1588.0437,-122.2458C1588.0437,-136.1772 1588.0437,-153 1588.0437,-153 1588.0437,-153 1774.0034,-153 1774.0034,-153"/>
<polygon fill="#000000" stroke="#000000" points="1774.0034,-156.5001 1784.0034,-153 1774.0034,-149.5001 1774.0034,-156.5001"/>
</g>
<!-- CrudComponent -->
<g id="node15" class="node">
<title>CrudComponent</title>
<polygon fill="#ffffb3" stroke="#000000" points="1410.8301,-122 1301.1699,-122 1301.1699,-86 1410.8301,-86 1410.8301,-122"/>
<text text-anchor="middle" x="1356" y="-99.8" font-family="Times,serif" font-size="14.00" fill="#000000">CrudComponent</text>
</g>
<!-- CrudComponent&#45;&gt;DataModule -->
<g id="edge15" class="edge">
<title>CrudComponent&#45;&gt;DataModule</title>
<path fill="none" stroke="#000000" d="M1397.1036,-122.1243C1397.1036,-136.7832 1397.1036,-155 1397.1036,-155 1397.1036,-155 1773.8116,-155 1773.8116,-155"/>
<polygon fill="#000000" stroke="#000000" points="1773.8116,-158.5001 1783.8116,-155 1773.8115,-151.5001 1773.8116,-158.5001"/>
</g>
<!-- EntrySelectComponent -->
<g id="node16" class="node">
<title>EntrySelectComponent</title>
<polygon fill="#ffffb3" stroke="#000000" points="1283.1442,-122 1136.8558,-122 1136.8558,-86 1283.1442,-86 1283.1442,-122"/>
<text text-anchor="middle" x="1210" y="-99.8" font-family="Times,serif" font-size="14.00" fill="#000000">EntrySelectComponent</text>
</g>
<!-- EntrySelectComponent&#45;&gt;DataModule -->
<g id="edge16" class="edge">
<title>EntrySelectComponent&#45;&gt;DataModule</title>
<path fill="none" stroke="#000000" d="M1226.8529,-122.2396C1226.8529,-137.5706 1226.8529,-157 1226.8529,-157 1226.8529,-157 1773.8389,-157 1773.8389,-157"/>
<polygon fill="#000000" stroke="#000000" points="1773.8389,-160.5001 1783.8389,-157 1773.8389,-153.5001 1773.8389,-160.5001"/>
</g>
<!-- EntryListComponent  -->
<g id="node22" class="node">
<title>EntryListComponent </title>
<polygon fill="#fb8072" stroke="#000000" points="3110.7149,-252 2973.2851,-252 2973.2851,-216 3110.7149,-216 3110.7149,-252"/>
<text text-anchor="middle" x="3042" y="-229.8" font-family="Times,serif" font-size="14.00" fill="#000000">EntryListComponent </text>
</g>
<!-- DataModule&#45;&gt;EntryListComponent  -->
<g id="edge21" class="edge">
<title>DataModule&#45;&gt;EntryListComponent </title>
<path fill="none" stroke="#000000" stroke-dasharray="5,2" d="M1870.3335,-173C2089.4422,-173 3064.9524,-173 3064.9524,-173 3064.9524,-173 3064.9524,-205.698 3064.9524,-205.698"/>
<polygon fill="#000000" stroke="#000000" points="3061.4525,-205.698 3064.9524,-215.698 3068.4525,-205.698 3061.4525,-205.698"/>
</g>
<!-- EntryDirective  -->
<g id="node23" class="node">
<title>EntryDirective </title>
<polygon fill="#fb8072" stroke="#000000" points="2955.1871,-252 2852.8129,-252 2852.8129,-216 2955.1871,-216 2955.1871,-252"/>
<text text-anchor="middle" x="2904" y="-229.8" font-family="Times,serif" font-size="14.00" fill="#000000">EntryDirective </text>
</g>
<!-- DataModule&#45;&gt;EntryDirective  -->
<g id="edge22" class="edge">
<title>DataModule&#45;&gt;EntryDirective </title>
<path fill="none" stroke="#000000" stroke-dasharray="5,2" d="M1870.1688,-175C2070.8388,-175 2902.7663,-175 2902.7663,-175 2902.7663,-175 2902.7663,-205.9775 2902.7663,-205.9775"/>
<polygon fill="#000000" stroke="#000000" points="2899.2664,-205.9774 2902.7663,-215.9775 2906.2664,-205.9775 2899.2664,-205.9774"/>
</g>
<!-- EntriesDirective  -->
<g id="node24" class="node">
<title>EntriesDirective </title>
<polygon fill="#fb8072" stroke="#000000" points="2834.7367,-252 2723.2633,-252 2723.2633,-216 2834.7367,-216 2834.7367,-252"/>
<text text-anchor="middle" x="2779" y="-229.8" font-family="Times,serif" font-size="14.00" fill="#000000">EntriesDirective </text>
</g>
<!-- DataModule&#45;&gt;EntriesDirective  -->
<g id="edge23" class="edge">
<title>DataModule&#45;&gt;EntriesDirective </title>
<path fill="none" stroke="#000000" stroke-dasharray="5,2" d="M1870.1626,-177C2052.1471,-177 2747.4911,-177 2747.4911,-177 2747.4911,-177 2747.4911,-205.9648 2747.4911,-205.9648"/>
<polygon fill="#000000" stroke="#000000" points="2743.9911,-205.9648 2747.4911,-215.9648 2750.9911,-205.9649 2743.9911,-205.9648"/>
</g>
<!-- EntryFormComponent  -->
<g id="node25" class="node">
<title>EntryFormComponent </title>
<polygon fill="#fb8072" stroke="#000000" points="2705.2702,-252 2558.7298,-252 2558.7298,-216 2705.2702,-216 2705.2702,-252"/>
<text text-anchor="middle" x="2632" y="-229.8" font-family="Times,serif" font-size="14.00" fill="#000000">EntryFormComponent </text>
</g>
<!-- DataModule&#45;&gt;EntryFormComponent  -->
<g id="edge24" class="edge">
<title>DataModule&#45;&gt;EntryFormComponent </title>
<path fill="none" stroke="#000000" stroke-dasharray="5,2" d="M1870.1195,-178C2029.8643,-178 2578.7863,-178 2578.7863,-178 2578.7863,-178 2578.7863,-205.973 2578.7863,-205.973"/>
<polygon fill="#000000" stroke="#000000" points="2575.2864,-205.973 2578.7863,-215.973 2582.2864,-205.973 2575.2864,-205.973"/>
</g>
<!-- EntryPopComponent  -->
<g id="node26" class="node">
<title>EntryPopComponent </title>
<polygon fill="#fb8072" stroke="#000000" points="2540.7191,-252 2403.2809,-252 2403.2809,-216 2540.7191,-216 2540.7191,-252"/>
<text text-anchor="middle" x="2472" y="-229.8" font-family="Times,serif" font-size="14.00" fill="#000000">EntryPopComponent </text>
</g>
<!-- DataModule&#45;&gt;EntryPopComponent  -->
<g id="edge25" class="edge">
<title>DataModule&#45;&gt;EntryPopComponent </title>
<path fill="none" stroke="#000000" stroke-dasharray="5,2" d="M1870.4161,-180C2005.7541,-180 2410.9767,-180 2410.9767,-180 2410.9767,-180 2410.9767,-205.7181 2410.9767,-205.7181"/>
<polygon fill="#000000" stroke="#000000" points="2407.4768,-205.718 2410.9767,-215.7181 2414.4768,-205.7181 2407.4768,-205.718"/>
</g>
<!-- CrudComponent  -->
<g id="node27" class="node">
<title>CrudComponent </title>
<polygon fill="#fb8072" stroke="#000000" points="2385.3297,-252 2272.6703,-252 2272.6703,-216 2385.3297,-216 2385.3297,-252"/>
<text text-anchor="middle" x="2329" y="-229.8" font-family="Times,serif" font-size="14.00" fill="#000000">CrudComponent </text>
</g>
<!-- DataModule&#45;&gt;CrudComponent  -->
<g id="edge26" class="edge">
<title>DataModule&#45;&gt;CrudComponent </title>
<path fill="none" stroke="#000000" stroke-dasharray="5,2" d="M1870.2347,-182C1992.0017,-182 2329,-182 2329,-182 2329,-182 2329,-205.8129 2329,-205.8129"/>
<polygon fill="#000000" stroke="#000000" points="2325.5001,-205.8129 2329,-215.8129 2332.5001,-205.813 2325.5001,-205.8129"/>
</g>
<!-- EntrySelectComponent  -->
<g id="node28" class="node">
<title>EntrySelectComponent </title>
<polygon fill="#fb8072" stroke="#000000" points="2255.1439,-252 2104.8561,-252 2104.8561,-216 2255.1439,-216 2255.1439,-252"/>
<text text-anchor="middle" x="2180" y="-229.8" font-family="Times,serif" font-size="14.00" fill="#000000">EntrySelectComponent </text>
</g>
<!-- DataModule&#45;&gt;EntrySelectComponent  -->
<g id="edge27" class="edge">
<title>DataModule&#45;&gt;EntrySelectComponent </title>
<path fill="none" stroke="#000000" stroke-dasharray="5,2" d="M1870.3015,-184C1962.3012,-184 2168.8971,-184 2168.8971,-184 2168.8971,-184 2168.8971,-205.9489 2168.8971,-205.9489"/>
<polygon fill="#000000" stroke="#000000" points="2165.3972,-205.9488 2168.8971,-215.9489 2172.3972,-205.9489 2165.3972,-205.9488"/>
</g>
<!-- ResourceListComponent  -->
<g id="node29" class="node">
<title>ResourceListComponent </title>
<polygon fill="#fb8072" stroke="#000000" points="2087.1967,-252 1928.8033,-252 1928.8033,-216 2087.1967,-216 2087.1967,-252"/>
<text text-anchor="middle" x="2008" y="-229.8" font-family="Times,serif" font-size="14.00" fill="#000000">ResourceListComponent </text>
</g>
<!-- DataModule&#45;&gt;ResourceListComponent  -->
<g id="edge28" class="edge">
<title>DataModule&#45;&gt;ResourceListComponent </title>
<path fill="none" stroke="#000000" stroke-dasharray="5,2" d="M1870.0441,-186C1913.9955,-186 1975.8172,-186 1975.8172,-186 1975.8172,-186 1975.8172,-205.8533 1975.8172,-205.8533"/>
<polygon fill="#000000" stroke="#000000" points="1972.3172,-205.8532 1975.8172,-215.8533 1979.3172,-205.8533 1972.3172,-205.8532"/>
</g>
<!-- ResourceFormComponent  -->
<g id="node30" class="node">
<title>ResourceFormComponent </title>
<polygon fill="#fb8072" stroke="#000000" points="1910.752,-252 1743.248,-252 1743.248,-216 1910.752,-216 1910.752,-252"/>
<text text-anchor="middle" x="1827" y="-229.8" font-family="Times,serif" font-size="14.00" fill="#000000">ResourceFormComponent </text>
</g>
<!-- DataModule&#45;&gt;ResourceFormComponent  -->
<g id="edge29" class="edge">
<title>DataModule&#45;&gt;ResourceFormComponent </title>
<path fill="none" stroke="#000000" stroke-dasharray="5,2" d="M1827,-187.1061C1827,-187.1061 1827,-205.991 1827,-205.991"/>
<polygon fill="#000000" stroke="#000000" points="1823.5001,-205.9909 1827,-215.991 1830.5001,-205.991 1823.5001,-205.9909"/>
</g>
<!-- ResourcePopComponent  -->
<g id="node31" class="node">
<title>ResourcePopComponent </title>
<polygon fill="#fb8072" stroke="#000000" points="1725.2009,-252 1566.7991,-252 1566.7991,-216 1725.2009,-216 1725.2009,-252"/>
<text text-anchor="middle" x="1646" y="-229.8" font-family="Times,serif" font-size="14.00" fill="#000000">ResourcePopComponent </text>
</g>
<!-- DataModule&#45;&gt;ResourcePopComponent  -->
<g id="edge30" class="edge">
<title>DataModule&#45;&gt;ResourcePopComponent </title>
<path fill="none" stroke="#000000" stroke-dasharray="5,2" d="M1783.8297,-186C1739.3128,-186 1676.3498,-186 1676.3498,-186 1676.3498,-186 1676.3498,-205.8533 1676.3498,-205.8533"/>
<polygon fill="#000000" stroke="#000000" points="1672.8498,-205.8532 1676.3498,-215.8533 1679.8498,-205.8533 1672.8498,-205.8532"/>
</g>
<!-- ResourceCrudComponent  -->
<g id="node32" class="node">
<title>ResourceCrudComponent </title>
<polygon fill="#fb8072" stroke="#000000" points="1548.4152,-252 1383.5848,-252 1383.5848,-216 1548.4152,-216 1548.4152,-252"/>
<text text-anchor="middle" x="1466" y="-229.8" font-family="Times,serif" font-size="14.00" fill="#000000">ResourceCrudComponent </text>
</g>
<!-- DataModule&#45;&gt;ResourceCrudComponent  -->
<g id="edge31" class="edge">
<title>DataModule&#45;&gt;ResourceCrudComponent </title>
<path fill="none" stroke="#000000" stroke-dasharray="5,2" d="M1783.7862,-184C1692.5335,-184 1488.51,-184 1488.51,-184 1488.51,-184 1488.51,-205.9489 1488.51,-205.9489"/>
<polygon fill="#000000" stroke="#000000" points="1485.0101,-205.9488 1488.51,-215.9489 1492.0101,-205.9489 1485.0101,-205.9488"/>
</g>
<!-- ResourceDeletePopComponent  -->
<g id="node33" class="node">
<title>ResourceDeletePopComponent </title>
<polygon fill="#fb8072" stroke="#000000" points="1365.7323,-252 1170.2677,-252 1170.2677,-216 1365.7323,-216 1365.7323,-252"/>
<text text-anchor="middle" x="1268" y="-229.8" font-family="Times,serif" font-size="14.00" fill="#000000">ResourceDeletePopComponent </text>
</g>
<!-- DataModule&#45;&gt;ResourceDeletePopComponent  -->
<g id="edge32" class="edge">
<title>DataModule&#45;&gt;ResourceDeletePopComponent </title>
<path fill="none" stroke="#000000" stroke-dasharray="5,2" d="M1783.6355,-182C1663.2065,-182 1333.4756,-182 1333.4756,-182 1333.4756,-182 1333.4756,-205.8129 1333.4756,-205.8129"/>
<polygon fill="#000000" stroke="#000000" points="1329.9757,-205.8129 1333.4756,-215.8129 1336.9757,-205.813 1329.9757,-205.8129"/>
</g>
<!-- ResourceSelectComponent  -->
<g id="node34" class="node">
<title>ResourceSelectComponent </title>
<polygon fill="#fb8072" stroke="#000000" points="1152.6256,-252 981.3744,-252 981.3744,-216 1152.6256,-216 1152.6256,-252"/>
<text text-anchor="middle" x="1067" y="-229.8" font-family="Times,serif" font-size="14.00" fill="#000000">ResourceSelectComponent </text>
</g>
<!-- DataModule&#45;&gt;ResourceSelectComponent  -->
<g id="edge33" class="edge">
<title>DataModule&#45;&gt;ResourceSelectComponent </title>
<path fill="none" stroke="#000000" stroke-dasharray="5,2" d="M1783.7964,-180C1633.7955,-180 1144.6204,-180 1144.6204,-180 1144.6204,-180 1144.6204,-205.7181 1144.6204,-205.7181"/>
<polygon fill="#000000" stroke="#000000" points="1141.1205,-205.718 1144.6204,-215.7181 1148.1205,-205.7181 1141.1205,-205.718"/>
</g>
<!-- UiModule  -->
<g id="node35" class="node">
<title>UiModule </title>
<polygon fill="#fb8072" stroke="#000000" points="963.547,-252 886.453,-252 886.453,-216 963.547,-216 963.547,-252"/>
<text text-anchor="middle" x="925" y="-229.8" font-family="Times,serif" font-size="14.00" fill="#000000">UiModule </text>
</g>
<!-- DataModule&#45;&gt;UiModule  -->
<g id="edge34" class="edge">
<title>DataModule&#45;&gt;UiModule </title>
<path fill="none" stroke="#000000" stroke-dasharray="5,2" d="M1783.9036,-178C1607.7734,-178 951.9287,-178 951.9287,-178 951.9287,-178 951.9287,-205.973 951.9287,-205.973"/>
<polygon fill="#000000" stroke="#000000" points="948.4287,-205.973 951.9287,-215.973 955.4287,-205.973 948.4287,-205.973"/>
</g>
<!-- SdkModule  -->
<g id="node36" class="node">
<title>SdkModule </title>
<polygon fill="#fb8072" stroke="#000000" points="868.3326,-252 783.6674,-252 783.6674,-216 868.3326,-216 868.3326,-252"/>
<text text-anchor="middle" x="826" y="-229.8" font-family="Times,serif" font-size="14.00" fill="#000000">SdkModule </text>
</g>
<!-- DataModule&#45;&gt;SdkModule  -->
<g id="edge35" class="edge">
<title>DataModule&#45;&gt;SdkModule </title>
<path fill="none" stroke="#000000" stroke-dasharray="5,2" d="M1783.8481,-177C1595.1591,-177 852.0149,-177 852.0149,-177 852.0149,-177 852.0149,-205.9648 852.0149,-205.9648"/>
<polygon fill="#000000" stroke="#000000" points="848.515,-205.9648 852.0149,-215.9648 855.515,-205.9649 848.515,-205.9648"/>
</g>
<!-- FilesModule  -->
<g id="node37" class="node">
<title>FilesModule </title>
<polygon fill="#fb8072" stroke="#000000" points="765.2732,-252 674.7268,-252 674.7268,-216 765.2732,-216 765.2732,-252"/>
<text text-anchor="middle" x="720" y="-229.8" font-family="Times,serif" font-size="14.00" fill="#000000">FilesModule </text>
</g>
<!-- DataModule&#45;&gt;FilesModule  -->
<g id="edge36" class="edge">
<title>DataModule&#45;&gt;FilesModule </title>
<path fill="none" stroke="#000000" stroke-dasharray="5,2" d="M1784.0234,-175C1583.2831,-175 747.6815,-175 747.6815,-175 747.6815,-175 747.6815,-205.9775 747.6815,-205.9775"/>
<polygon fill="#000000" stroke="#000000" points="744.1815,-205.9774 747.6815,-215.9775 751.1815,-205.9775 744.1815,-205.9774"/>
</g>
<!-- AuthModule  -->
<g id="node38" class="node">
<title>AuthModule </title>
<polygon fill="#fb8072" stroke="#000000" points="656.547,-252 565.453,-252 565.453,-216 656.547,-216 656.547,-252"/>
<text text-anchor="middle" x="611" y="-229.8" font-family="Times,serif" font-size="14.00" fill="#000000">AuthModule </text>
</g>
<!-- DataModule&#45;&gt;AuthModule  -->
<g id="edge37" class="edge">
<title>DataModule&#45;&gt;AuthModule </title>
<path fill="none" stroke="#000000" stroke-dasharray="5,2" d="M1783.7621,-173C1568.4359,-173 622.1098,-173 622.1098,-173 622.1098,-173 622.1098,-205.698 622.1098,-205.698"/>
<polygon fill="#000000" stroke="#000000" points="618.6099,-205.698 622.1098,-215.698 625.6099,-205.698 618.6099,-205.698"/>
</g>
<!-- UiModule -->
<g id="node18" class="node">
<title>UiModule</title>
<polygon fill="#8dd3c7" stroke="#000000" points="1112.5484,-122 1109.5484,-126 1088.5484,-126 1085.5484,-122 1039.4516,-122 1039.4516,-86 1112.5484,-86 1112.5484,-122"/>
<text text-anchor="middle" x="1076" y="-99.8" font-family="Times,serif" font-size="14.00" fill="#000000">UiModule</text>
</g>
<!-- UiModule&#45;&gt;DataModule -->
<g id="edge17" class="edge">
<title>UiModule&#45;&gt;DataModule</title>
<path fill="none" stroke="#000000" d="M1076,-122.0091C1076,-138.0494 1076,-159 1076,-159 1076,-159 1773.9256,-159 1773.9256,-159"/>
<polygon fill="#000000" stroke="#000000" points="1773.9257,-162.5001 1783.9256,-159 1773.9256,-155.5001 1773.9257,-162.5001"/>
</g>
<!-- SdkModule -->
<g id="node19" class="node">
<title>SdkModule</title>
<polygon fill="#8dd3c7" stroke="#000000" points="1021.8331,-122 1018.8331,-126 997.8331,-126 994.8331,-122 940.1669,-122 940.1669,-86 1021.8331,-86 1021.8331,-122"/>
<text text-anchor="middle" x="981" y="-99.8" font-family="Times,serif" font-size="14.00" fill="#000000">SdkModule</text>
</g>
<!-- SdkModule&#45;&gt;DataModule -->
<g id="edge18" class="edge">
<title>SdkModule&#45;&gt;DataModule</title>
<path fill="none" stroke="#000000" d="M1001.5517,-122.027C1001.5517,-138.3976 1001.5517,-160 1001.5517,-160 1001.5517,-160 1773.7825,-160 1773.7825,-160"/>
<polygon fill="#000000" stroke="#000000" points="1773.7826,-163.5001 1783.7825,-160 1773.7825,-156.5001 1773.7826,-163.5001"/>
</g>
<!-- FilesModule -->
<g id="node20" class="node">
<title>FilesModule</title>
<polygon fill="#8dd3c7" stroke="#000000" points="922.2731,-122 919.2731,-126 898.2731,-126 895.2731,-122 835.7269,-122 835.7269,-86 922.2731,-86 922.2731,-122"/>
<text text-anchor="middle" x="879" y="-99.8" font-family="Times,serif" font-size="14.00" fill="#000000">FilesModule</text>
</g>
<!-- FilesModule&#45;&gt;DataModule -->
<g id="edge19" class="edge">
<title>FilesModule&#45;&gt;DataModule</title>
<path fill="none" stroke="#000000" d="M904.4315,-122.0336C904.4315,-139.0597 904.4315,-162 904.4315,-162 904.4315,-162 1773.74,-162 1773.74,-162"/>
<polygon fill="#000000" stroke="#000000" points="1773.74,-165.5001 1783.74,-162 1773.74,-158.5001 1773.74,-165.5001"/>
</g>
<!-- AuthModule -->
<g id="node21" class="node">
<title>AuthModule</title>
<polygon fill="#8dd3c7" stroke="#000000" points="817.5482,-122 814.5482,-126 793.5482,-126 790.5482,-122 730.4518,-122 730.4518,-86 817.5482,-86 817.5482,-122"/>
<text text-anchor="middle" x="774" y="-99.8" font-family="Times,serif" font-size="14.00" fill="#000000">AuthModule</text>
</g>
<!-- AuthModule&#45;&gt;DataModule -->
<g id="edge20" class="edge">
<title>AuthModule&#45;&gt;DataModule</title>
<path fill="none" stroke="#000000" d="M800.6787,-122.002C800.6787,-139.6754 800.6787,-164 800.6787,-164 800.6787,-164 1773.8819,-164 1773.8819,-164"/>
<polygon fill="#000000" stroke="#000000" points="1773.8819,-167.5001 1783.8819,-164 1773.8819,-160.5001 1773.8819,-167.5001"/>
</g>
<!-- CrudService -->
<g id="node39" class="node">
<title>CrudService</title>
<ellipse fill="#fdb462" stroke="#000000" cx="647" cy="-104" rx="59.1083" ry="18"/>
<text text-anchor="middle" x="647" y="-99.8" font-family="Times,serif" font-size="14.00" fill="#000000">CrudService</text>
</g>
<!-- CrudService&#45;&gt;DataModule -->
<g id="edge38" class="edge">
<title>CrudService&#45;&gt;DataModule</title>
<path fill="none" stroke="#000000" d="M690.5837,-116.2492C690.5837,-134.3179 690.5837,-166 690.5837,-166 690.5837,-166 1773.8388,-166 1773.8388,-166"/>
<polygon fill="#000000" stroke="#000000" points="1773.8389,-169.5001 1783.8388,-166 1773.8388,-162.5001 1773.8389,-169.5001"/>
</g>
<!-- TypeConfigService -->
<g id="node40" class="node">
<title>TypeConfigService</title>
<ellipse fill="#fdb462" stroke="#000000" cx="483" cy="-104" rx="86.8184" ry="18"/>
<text text-anchor="middle" x="483" y="-99.8" font-family="Times,serif" font-size="14.00" fill="#000000">TypeConfigService</text>
</g>
<!-- TypeConfigService&#45;&gt;DataModule -->
<g id="edge39" class="edge">
<title>TypeConfigService&#45;&gt;DataModule</title>
<path fill="none" stroke="#000000" d="M480.9087,-122.1686C480.9087,-141.0898 480.9087,-168 480.9087,-168 480.9087,-168 1773.7377,-168 1773.7377,-168"/>
<polygon fill="#000000" stroke="#000000" points="1773.7377,-171.5001 1783.7377,-168 1773.7377,-164.5001 1773.7377,-171.5001"/>
</g>
<!-- ModelConfigService -->
<g id="node41" class="node">
<title>ModelConfigService</title>
<ellipse fill="#fdb462" stroke="#000000" cx="286" cy="-104" rx="92.0548" ry="18"/>
<text text-anchor="middle" x="286" y="-99.8" font-family="Times,serif" font-size="14.00" fill="#000000">ModelConfigService</text>
</g>
<!-- ModelConfigService&#45;&gt;DataModule -->
<g id="edge40" class="edge">
<title>ModelConfigService&#45;&gt;DataModule</title>
<path fill="none" stroke="#000000" d="M286,-122.1061C286,-141.3391 286,-169 286,-169 286,-169 1773.7707,-169 1773.7707,-169"/>
<polygon fill="#000000" stroke="#000000" points="1773.7707,-172.5001 1783.7707,-169 1773.7707,-165.5001 1773.7707,-172.5001"/>
</g>
<!-- ResourceService -->
<g id="node42" class="node">
<title>ResourceService</title>
<ellipse fill="#fdb462" stroke="#000000" cx="100" cy="-104" rx="75.8393" ry="18"/>
<text text-anchor="middle" x="100" y="-99.8" font-family="Times,serif" font-size="14.00" fill="#000000">ResourceService</text>
</g>
<!-- ResourceService&#45;&gt;DataModule -->
<g id="edge41" class="edge">
<title>ResourceService&#45;&gt;DataModule</title>
<path fill="none" stroke="#000000" d="M100,-122.308C100,-142.1455 100,-171 100,-171 100,-171 1773.879,-171 1773.879,-171"/>
<polygon fill="#000000" stroke="#000000" points="1773.879,-174.5001 1783.879,-171 1773.879,-167.5001 1773.879,-174.5001"/>
</g>
</g>
</svg>
