<?xml version="1.0" encoding="UTF-8" standalone="no"?>
<!DOCTYPE svg PUBLIC "-//W3C//DTD SVG 1.1//EN"
 "http://www.w3.org/Graphics/SVG/1.1/DTD/svg11.dtd">
<!-- Generated by graphviz version 2.40.1 (20161225.0304)
 -->
<!-- Title: dependencies Pages: 1 -->
<svg width="3237pt" height="284pt"
 viewBox="0.00 0.00 3237.00 284.00" xmlns="http://www.w3.org/2000/svg" xmlns:xlink="http://www.w3.org/1999/xlink">
<g id="graph0" class="graph" transform="scale(1 1) rotate(0) translate(4 280)">
<title>dependencies</title>
<polygon fill="#ffffff" stroke="transparent" points="-4,4 -4,-280 3233,-280 3233,4 -4,4"/>
<text text-anchor="start" x="1593.5091" y="-42.4" font-family="sans-serif" font-weight="bold" font-size="14.00" fill="#000000">Legend</text>
<polygon fill="#ffffb3" stroke="transparent" points="1380.5,-10 1380.5,-30 1400.5,-30 1400.5,-10 1380.5,-10"/>
<text text-anchor="start" x="1404.129" y="-15.4" font-family="sans-serif" font-size="14.00" fill="#000000"> &#160;Declarations</text>
<polygon fill="#8dd3c7" stroke="transparent" points="1493.5,-10 1493.5,-30 1513.5,-30 1513.5,-10 1493.5,-10"/>
<text text-anchor="start" x="1517.2251" y="-15.4" font-family="sans-serif" font-size="14.00" fill="#000000"> &#160;Module</text>
<polygon fill="#80b1d3" stroke="transparent" points="1579.5,-10 1579.5,-30 1599.5,-30 1599.5,-10 1579.5,-10"/>
<text text-anchor="start" x="1603.2812" y="-15.4" font-family="sans-serif" font-size="14.00" fill="#000000"> &#160;Bootstrap</text>
<polygon fill="#fdb462" stroke="transparent" points="1676.5,-10 1676.5,-30 1696.5,-30 1696.5,-10 1676.5,-10"/>
<text text-anchor="start" x="1700.1732" y="-15.4" font-family="sans-serif" font-size="14.00" fill="#000000"> &#160;Providers</text>
<polygon fill="#fb8072" stroke="transparent" points="1772.5,-10 1772.5,-30 1792.5,-30 1792.5,-10 1772.5,-10"/>
<text text-anchor="start" x="1796.2258" y="-15.4" font-family="sans-serif" font-size="14.00" fill="#000000"> &#160;Exports</text>
<g id="clust1" class="cluster">
<title>cluster_DataModule</title>
<polygon fill="none" stroke="#000000" stroke-dasharray="1,5" points="8,-70 8,-268 3221,-268 3221,-70 8,-70"/>
</g>
<g id="clust2" class="cluster">
<title>cluster_DataModule_declarations</title>
<polygon fill="none" stroke="#000000" points="1244,-78 1244,-130 3213,-130 3213,-78 1244,-78"/>
</g>
<g id="clust15" class="cluster">
<title>cluster_DataModule_imports</title>
<polygon fill="none" stroke="#000000" points="708,-78 708,-130 1236,-130 1236,-78 708,-78"/>
</g>
<g id="clust16" class="cluster">
<title>cluster_DataModule_exports</title>
<polygon fill="none" stroke="#000000" points="533,-208 533,-260 2473,-260 2473,-208 533,-208"/>
</g>
<g id="clust18" class="cluster">
<title>cluster_DataModule_providers</title>
<polygon fill="none" stroke="#000000" points="16,-78 16,-130 700,-130 700,-78 16,-78"/>
</g>
<!-- AdminEntryInputComponent -->
<g id="node1" class="node">
<title>AdminEntryInputComponent</title>
<polygon fill="#ffffb3" stroke="#000000" points="3205.3752,-122 3024.6248,-122 3024.6248,-86 3205.3752,-86 3205.3752,-122"/>
<text text-anchor="middle" x="3115" y="-99.8" font-family="Times,serif" font-size="14.00" fill="#000000">AdminEntryInputComponent</text>
</g>
<!-- DataModule -->
<g id="node13" class="node">
<title>DataModule</title>
<polygon fill="#8dd3c7" stroke="#000000" points="1525.9762,-187 1522.9762,-191 1501.9762,-191 1498.9762,-187 1440.0238,-187 1440.0238,-151 1525.9762,-151 1525.9762,-187"/>
<text text-anchor="middle" x="1483" y="-164.8" font-family="Times,serif" font-size="14.00" fill="#000000">DataModule</text>
</g>
<!-- AdminEntryInputComponent&#45;&gt;DataModule -->
<g id="edge1" class="edge">
<title>AdminEntryInputComponent&#45;&gt;DataModule</title>
<path fill="none" stroke="#000000" d="M3115,-122.1289C3115,-142.5724 3115,-173 3115,-173 3115,-173 1536.2317,-173 1536.2317,-173"/>
<polygon fill="#000000" stroke="#000000" points="1536.2317,-169.5001 1526.2317,-173 1536.2316,-176.5001 1536.2317,-169.5001"/>
</g>
<!-- CrudComponent -->
<g id="node2" class="node">
<title>CrudComponent</title>
<polygon fill="#ffffb3" stroke="#000000" points="3006.8301,-122 2897.1699,-122 2897.1699,-86 3006.8301,-86 3006.8301,-122"/>
<text text-anchor="middle" x="2952" y="-99.8" font-family="Times,serif" font-size="14.00" fill="#000000">CrudComponent</text>
</g>
<!-- CrudComponent&#45;&gt;DataModule -->
<g id="edge2" class="edge">
<title>CrudComponent&#45;&gt;DataModule</title>
<path fill="none" stroke="#000000" d="M2952,-122.308C2952,-142.1455 2952,-171 2952,-171 2952,-171 1536.1688,-171 1536.1688,-171"/>
<polygon fill="#000000" stroke="#000000" points="1536.1689,-167.5001 1526.1688,-171 1536.1688,-174.5001 1536.1689,-167.5001"/>
</g>
<!-- DefaultEntryInputComponent -->
<g id="node3" class="node">
<title>DefaultEntryInputComponent</title>
<polygon fill="#ffffb3" stroke="#000000" points="2878.965,-122 2695.035,-122 2695.035,-86 2878.965,-86 2878.965,-122"/>
<text text-anchor="middle" x="2787" y="-99.8" font-family="Times,serif" font-size="14.00" fill="#000000">DefaultEntryInputComponent</text>
</g>
<!-- DefaultEntryInputComponent&#45;&gt;DataModule -->
<g id="edge3" class="edge">
<title>DefaultEntryInputComponent&#45;&gt;DataModule</title>
<path fill="none" stroke="#000000" d="M2787,-122.1686C2787,-141.0898 2787,-168 2787,-168 2787,-168 1536.015,-168 1536.015,-168"/>
<polygon fill="#000000" stroke="#000000" points="1536.015,-164.5001 1526.015,-168 1536.015,-171.5001 1536.015,-164.5001"/>
</g>
<!-- DefaultEntryOutputComponent -->
<g id="node4" class="node">
<title>DefaultEntryOutputComponent</title>
<polygon fill="#ffffb3" stroke="#000000" points="2676.8018,-122 2483.1982,-122 2483.1982,-86 2676.8018,-86 2676.8018,-122"/>
<text text-anchor="middle" x="2580" y="-99.8" font-family="Times,serif" font-size="14.00" fill="#000000">DefaultEntryOutputComponent</text>
</g>
<!-- DefaultEntryOutputComponent&#45;&gt;DataModule -->
<g id="edge4" class="edge">
<title>DefaultEntryOutputComponent&#45;&gt;DataModule</title>
<path fill="none" stroke="#000000" d="M2580,-122.2667C2580,-140.5552 2580,-166 2580,-166 2580,-166 1536.0037,-166 1536.0037,-166"/>
<polygon fill="#000000" stroke="#000000" points="1536.0037,-162.5001 1526.0037,-166 1536.0037,-169.5001 1536.0037,-162.5001"/>
</g>
<!-- EntriesDirective -->
<g id="node5" class="node">
<title>EntriesDirective</title>
<polygon fill="#ffffb3" stroke="#000000" points="2464.7367,-122 2357.2633,-122 2357.2633,-86 2464.7367,-86 2464.7367,-122"/>
<text text-anchor="middle" x="2411" y="-99.8" font-family="Times,serif" font-size="14.00" fill="#000000">EntriesDirective</text>
</g>
<!-- EntriesDirective&#45;&gt;DataModule -->
<g id="edge5" class="edge">
<title>EntriesDirective&#45;&gt;DataModule</title>
<path fill="none" stroke="#000000" d="M2365.3042,-122.002C2365.3042,-139.6754 2365.3042,-164 2365.3042,-164 2365.3042,-164 1536.1526,-164 1536.1526,-164"/>
<polygon fill="#000000" stroke="#000000" points="1536.1527,-160.5001 1526.1526,-164 1536.1526,-167.5001 1536.1527,-160.5001"/>
</g>
<!-- EntryDirective -->
<g id="node6" class="node">
<title>EntryDirective</title>
<polygon fill="#ffffb3" stroke="#000000" points="2339.6868,-122 2240.3132,-122 2240.3132,-86 2339.6868,-86 2339.6868,-122"/>
<text text-anchor="middle" x="2290" y="-99.8" font-family="Times,serif" font-size="14.00" fill="#000000">EntryDirective</text>
</g>
<!-- EntryDirective&#45;&gt;DataModule -->
<g id="edge6" class="edge">
<title>EntryDirective&#45;&gt;DataModule</title>
<path fill="none" stroke="#000000" d="M2307.2573,-122.0336C2307.2573,-139.0597 2307.2573,-162 2307.2573,-162 2307.2573,-162 1536.1551,-162 1536.1551,-162"/>
<polygon fill="#000000" stroke="#000000" points="1536.1552,-158.5001 1526.1551,-162 1536.1551,-165.5001 1536.1552,-158.5001"/>
</g>
<!-- EntryFormComponent -->
<g id="node7" class="node">
<title>EntryFormComponent</title>
<polygon fill="#ffffb3" stroke="#000000" points="2222.2702,-122 2079.7298,-122 2079.7298,-86 2222.2702,-86 2222.2702,-122"/>
<text text-anchor="middle" x="2151" y="-99.8" font-family="Times,serif" font-size="14.00" fill="#000000">EntryFormComponent</text>
</g>
<!-- EntryFormComponent&#45;&gt;DataModule -->
<g id="edge7" class="edge">
<title>EntryFormComponent&#45;&gt;DataModule</title>
<path fill="none" stroke="#000000" d="M2087.4792,-122.027C2087.4792,-138.3976 2087.4792,-160 2087.4792,-160 2087.4792,-160 1535.9881,-160 1535.9881,-160"/>
<polygon fill="#000000" stroke="#000000" points="1535.9881,-156.5001 1525.9881,-160 1535.988,-163.5001 1535.9881,-156.5001"/>
</g>
<!-- EntryListComponent -->
<g id="node8" class="node">
<title>EntryListComponent</title>
<polygon fill="#ffffb3" stroke="#000000" points="2062.2148,-122 1927.7852,-122 1927.7852,-86 2062.2148,-86 2062.2148,-122"/>
<text text-anchor="middle" x="1995" y="-99.8" font-family="Times,serif" font-size="14.00" fill="#000000">EntryListComponent</text>
</g>
<!-- EntryListComponent&#45;&gt;DataModule -->
<g id="edge8" class="edge">
<title>EntryListComponent&#45;&gt;DataModule</title>
<path fill="none" stroke="#000000" d="M1951.5139,-122.2819C1951.5139,-137.9478 1951.5139,-158 1951.5139,-158 1951.5139,-158 1536.2369,-158 1536.2369,-158"/>
<polygon fill="#000000" stroke="#000000" points="1536.2369,-154.5001 1526.2369,-158 1536.2368,-161.5001 1536.2369,-154.5001"/>
</g>
<!-- EntryListPopComponent -->
<g id="node9" class="node">
<title>EntryListPopComponent</title>
<polygon fill="#ffffb3" stroke="#000000" points="1909.9972,-122 1754.0028,-122 1754.0028,-86 1909.9972,-86 1909.9972,-122"/>
<text text-anchor="middle" x="1832" y="-99.8" font-family="Times,serif" font-size="14.00" fill="#000000">EntryListPopComponent</text>
</g>
<!-- EntryListPopComponent&#45;&gt;DataModule -->
<g id="edge9" class="edge">
<title>EntryListPopComponent&#45;&gt;DataModule</title>
<path fill="none" stroke="#000000" d="M1782.4294,-122.1871C1782.4294,-137.1824 1782.4294,-156 1782.4294,-156 1782.4294,-156 1536.2198,-156 1536.2198,-156"/>
<polygon fill="#000000" stroke="#000000" points="1536.2199,-152.5001 1526.2198,-156 1536.2198,-159.5001 1536.2199,-152.5001"/>
</g>
<!-- EntryListSelectComponent -->
<g id="node10" class="node">
<title>EntryListSelectComponent</title>
<polygon fill="#ffffb3" stroke="#000000" points="1736.4227,-122 1567.5773,-122 1567.5773,-86 1736.4227,-86 1736.4227,-122"/>
<text text-anchor="middle" x="1652" y="-99.8" font-family="Times,serif" font-size="14.00" fill="#000000">EntryListSelectComponent</text>
</g>
<!-- EntryListSelectComponent&#45;&gt;DataModule -->
<g id="edge10" class="edge">
<title>EntryListSelectComponent&#45;&gt;DataModule</title>
<path fill="none" stroke="#000000" d="M1611.2688,-122.0511C1611.2688,-136.373 1611.2688,-154 1611.2688,-154 1611.2688,-154 1536.0685,-154 1536.0685,-154"/>
<polygon fill="#000000" stroke="#000000" points="1536.0685,-150.5001 1526.0685,-154 1536.0684,-157.5001 1536.0685,-150.5001"/>
</g>
<!-- EntryPopComponent -->
<g id="node11" class="node">
<title>EntryPopComponent</title>
<polygon fill="#ffffb3" stroke="#000000" points="1550.219,-122 1415.781,-122 1415.781,-86 1550.219,-86 1550.219,-122"/>
<text text-anchor="middle" x="1483" y="-99.8" font-family="Times,serif" font-size="14.00" fill="#000000">EntryPopComponent</text>
</g>
<!-- EntryPopComponent&#45;&gt;DataModule -->
<g id="edge11" class="edge">
<title>EntryPopComponent&#45;&gt;DataModule</title>
<path fill="none" stroke="#000000" d="M1483,-122.1061C1483,-122.1061 1483,-140.991 1483,-140.991"/>
<polygon fill="#000000" stroke="#000000" points="1479.5001,-140.9909 1483,-150.991 1486.5001,-140.991 1479.5001,-140.9909"/>
</g>
<!-- EntrySelectComponent -->
<g id="node12" class="node">
<title>EntrySelectComponent</title>
<polygon fill="#ffffb3" stroke="#000000" points="1398.1442,-122 1251.8558,-122 1251.8558,-86 1398.1442,-86 1398.1442,-122"/>
<text text-anchor="middle" x="1325" y="-99.8" font-family="Times,serif" font-size="14.00" fill="#000000">EntrySelectComponent</text>
</g>
<!-- EntrySelectComponent&#45;&gt;DataModule -->
<g id="edge12" class="edge">
<title>EntrySelectComponent&#45;&gt;DataModule</title>
<path fill="none" stroke="#000000" d="M1351.6804,-122.0511C1351.6804,-136.373 1351.6804,-154 1351.6804,-154 1351.6804,-154 1430.0011,-154 1430.0011,-154"/>
<polygon fill="#000000" stroke="#000000" points="1430.0011,-157.5001 1440.0011,-154 1430.001,-150.5001 1430.0011,-157.5001"/>
</g>
<!-- AuthModule  -->
<g id="node19" class="node">
<title>AuthModule </title>
<polygon fill="#fb8072" stroke="#000000" points="2464.547,-252 2373.453,-252 2373.453,-216 2464.547,-216 2464.547,-252"/>
<text text-anchor="middle" x="2419" y="-229.8" font-family="Times,serif" font-size="14.00" fill="#000000">AuthModule </text>
</g>
<!-- DataModule&#45;&gt;AuthModule  -->
<g id="edge18" class="edge">
<title>DataModule&#45;&gt;AuthModule </title>
<path fill="none" stroke="#000000" stroke-dasharray="5,2" d="M1526.268,-175C1710.3507,-175 2419,-175 2419,-175 2419,-175 2419,-205.9775 2419,-205.9775"/>
<polygon fill="#000000" stroke="#000000" points="2415.5001,-205.9774 2419,-215.9775 2422.5001,-205.9775 2415.5001,-205.9774"/>
</g>
<!-- CrudComponent  -->
<g id="node20" class="node">
<title>CrudComponent </title>
<polygon fill="#fb8072" stroke="#000000" points="2355.3297,-252 2242.6703,-252 2242.6703,-216 2355.3297,-216 2355.3297,-252"/>
<text text-anchor="middle" x="2299" y="-229.8" font-family="Times,serif" font-size="14.00" fill="#000000">CrudComponent </text>
</g>
<!-- DataModule&#45;&gt;CrudComponent  -->
<g id="edge19" class="edge">
<title>DataModule&#45;&gt;CrudComponent </title>
<path fill="none" stroke="#000000" stroke-dasharray="5,2" d="M1526.1395,-177C1691.3958,-177 2274.9212,-177 2274.9212,-177 2274.9212,-177 2274.9212,-205.9648 2274.9212,-205.9648"/>
<polygon fill="#000000" stroke="#000000" points="2271.4213,-205.9648 2274.9212,-215.9648 2278.4213,-205.9649 2271.4213,-205.9648"/>
</g>
<!-- EntriesDirective  -->
<g id="node21" class="node">
<title>EntriesDirective </title>
<polygon fill="#fb8072" stroke="#000000" points="2224.7367,-252 2113.2633,-252 2113.2633,-216 2224.7367,-216 2224.7367,-252"/>
<text text-anchor="middle" x="2169" y="-229.8" font-family="Times,serif" font-size="14.00" fill="#000000">EntriesDirective </text>
</g>
<!-- DataModule&#45;&gt;EntriesDirective  -->
<g id="edge20" class="edge">
<title>DataModule&#45;&gt;EntriesDirective </title>
<path fill="none" stroke="#000000" stroke-dasharray="5,2" d="M1526.102,-179C1676.347,-179 2167.8834,-179 2167.8834,-179 2167.8834,-179 2167.8834,-205.9909 2167.8834,-205.9909"/>
<polygon fill="#000000" stroke="#000000" points="2164.3835,-205.9909 2167.8834,-215.9909 2171.3835,-205.991 2164.3835,-205.9909"/>
</g>
<!-- EntryDirective  -->
<g id="node22" class="node">
<title>EntryDirective </title>
<polygon fill="#fb8072" stroke="#000000" points="2095.1871,-252 1992.8129,-252 1992.8129,-216 2095.1871,-216 2095.1871,-252"/>
<text text-anchor="middle" x="2044" y="-229.8" font-family="Times,serif" font-size="14.00" fill="#000000">EntryDirective </text>
</g>
<!-- DataModule&#45;&gt;EntryDirective  -->
<g id="edge21" class="edge">
<title>DataModule&#45;&gt;EntryDirective </title>
<path fill="none" stroke="#000000" stroke-dasharray="5,2" d="M1526.1718,-181C1654.9297,-181 2027.382,-181 2027.382,-181 2027.382,-181 2027.382,-205.7604 2027.382,-205.7604"/>
<polygon fill="#000000" stroke="#000000" points="2023.8821,-205.7604 2027.382,-215.7604 2030.8821,-205.7604 2023.8821,-205.7604"/>
</g>
<!-- EntryFormComponent  -->
<g id="node23" class="node">
<title>EntryFormComponent </title>
<polygon fill="#fb8072" stroke="#000000" points="1975.2702,-252 1828.7298,-252 1828.7298,-216 1975.2702,-216 1975.2702,-252"/>
<text text-anchor="middle" x="1902" y="-229.8" font-family="Times,serif" font-size="14.00" fill="#000000">EntryFormComponent </text>
</g>
<!-- DataModule&#45;&gt;EntryFormComponent  -->
<g id="edge22" class="edge">
<title>DataModule&#45;&gt;EntryFormComponent </title>
<path fill="none" stroke="#000000" stroke-dasharray="5,2" d="M1526.2038,-183C1627.0418,-183 1869.4318,-183 1869.4318,-183 1869.4318,-183 1869.4318,-205.8757 1869.4318,-205.8757"/>
<polygon fill="#000000" stroke="#000000" points="1865.9319,-205.8757 1869.4318,-215.8757 1872.9319,-205.8757 1865.9319,-205.8757"/>
</g>
<!-- EntryListComponent  -->
<g id="node24" class="node">
<title>EntryListComponent </title>
<polygon fill="#fb8072" stroke="#000000" points="1810.7149,-252 1673.2851,-252 1673.2851,-216 1810.7149,-216 1810.7149,-252"/>
<text text-anchor="middle" x="1742" y="-229.8" font-family="Times,serif" font-size="14.00" fill="#000000">EntryListComponent </text>
</g>
<!-- DataModule&#45;&gt;EntryListComponent  -->
<g id="edge23" class="edge">
<title>DataModule&#45;&gt;EntryListComponent </title>
<path fill="none" stroke="#000000" stroke-dasharray="5,2" d="M1526.0044,-185C1590.4692,-185 1704.6769,-185 1704.6769,-185 1704.6769,-185 1704.6769,-205.7542 1704.6769,-205.7542"/>
<polygon fill="#000000" stroke="#000000" points="1701.177,-205.7542 1704.6769,-215.7542 1708.177,-205.7542 1701.177,-205.7542"/>
</g>
<!-- EntryListPopComponent  -->
<g id="node25" class="node">
<title>EntryListPopComponent </title>
<polygon fill="#fb8072" stroke="#000000" points="1654.998,-252 1495.002,-252 1495.002,-216 1654.998,-216 1654.998,-252"/>
<text text-anchor="middle" x="1575" y="-229.8" font-family="Times,serif" font-size="14.00" fill="#000000">EntryListPopComponent </text>
</g>
<!-- DataModule&#45;&gt;EntryListPopComponent  -->
<g id="edge24" class="edge">
<title>DataModule&#45;&gt;EntryListPopComponent </title>
<path fill="none" stroke="#000000" stroke-dasharray="5,2" d="M1510.6198,-187.1061C1510.6198,-187.1061 1510.6198,-205.991 1510.6198,-205.991"/>
<polygon fill="#000000" stroke="#000000" points="1507.1198,-205.9909 1510.6198,-215.991 1514.1198,-205.991 1507.1198,-205.9909"/>
</g>
<!-- EntryListSelectComponent  -->
<g id="node26" class="node">
<title>EntryListSelectComponent </title>
<polygon fill="#fb8072" stroke="#000000" points="1476.9222,-252 1305.0778,-252 1305.0778,-216 1476.9222,-216 1476.9222,-252"/>
<text text-anchor="middle" x="1391" y="-229.8" font-family="Times,serif" font-size="14.00" fill="#000000">EntryListSelectComponent </text>
</g>
<!-- DataModule&#45;&gt;EntryListSelectComponent  -->
<g id="edge25" class="edge">
<title>DataModule&#45;&gt;EntryListSelectComponent </title>
<path fill="none" stroke="#000000" stroke-dasharray="5,2" d="M1458.4865,-187.1061C1458.4865,-187.1061 1458.4865,-205.991 1458.4865,-205.991"/>
<polygon fill="#000000" stroke="#000000" points="1454.9866,-205.9909 1458.4865,-215.991 1461.9866,-205.991 1454.9866,-205.9909"/>
</g>
<!-- EntryPopComponent  -->
<g id="node27" class="node">
<title>EntryPopComponent </title>
<polygon fill="#fb8072" stroke="#000000" points="1286.7191,-252 1149.2809,-252 1149.2809,-216 1286.7191,-216 1286.7191,-252"/>
<text text-anchor="middle" x="1218" y="-229.8" font-family="Times,serif" font-size="14.00" fill="#000000">EntryPopComponent </text>
</g>
<!-- DataModule&#45;&gt;EntryPopComponent  -->
<g id="edge26" class="edge">
<title>DataModule&#45;&gt;EntryPopComponent </title>
<path fill="none" stroke="#000000" stroke-dasharray="5,2" d="M1440.0054,-185C1377.5924,-185 1269.2688,-185 1269.2688,-185 1269.2688,-185 1269.2688,-205.7542 1269.2688,-205.7542"/>
<polygon fill="#000000" stroke="#000000" points="1265.7688,-205.7542 1269.2688,-215.7542 1272.7688,-205.7542 1265.7688,-205.7542"/>
</g>
<!-- EntrySelectComponent  -->
<g id="node28" class="node">
<title>EntrySelectComponent </title>
<polygon fill="#fb8072" stroke="#000000" points="1131.1439,-252 980.8561,-252 980.8561,-216 1131.1439,-216 1131.1439,-252"/>
<text text-anchor="middle" x="1056" y="-229.8" font-family="Times,serif" font-size="14.00" fill="#000000">EntrySelectComponent </text>
</g>
<!-- DataModule&#45;&gt;EntrySelectComponent  -->
<g id="edge27" class="edge">
<title>DataModule&#45;&gt;EntrySelectComponent </title>
<path fill="none" stroke="#000000" stroke-dasharray="5,2" d="M1439.6704,-183C1344.7236,-183 1126.7292,-183 1126.7292,-183 1126.7292,-183 1126.7292,-205.8757 1126.7292,-205.8757"/>
<polygon fill="#000000" stroke="#000000" points="1123.2292,-205.8757 1126.7292,-215.8757 1130.2292,-205.8757 1123.2292,-205.8757"/>
</g>
<!-- FilesModule  -->
<g id="node29" class="node">
<title>FilesModule </title>
<polygon fill="#fb8072" stroke="#000000" points="963.2732,-252 872.7268,-252 872.7268,-216 963.2732,-216 963.2732,-252"/>
<text text-anchor="middle" x="918" y="-229.8" font-family="Times,serif" font-size="14.00" fill="#000000">FilesModule </text>
</g>
<!-- DataModule&#45;&gt;FilesModule  -->
<g id="edge28" class="edge">
<title>DataModule&#45;&gt;FilesModule </title>
<path fill="none" stroke="#000000" stroke-dasharray="5,2" d="M1439.9726,-181C1310.7064,-181 934.6594,-181 934.6594,-181 934.6594,-181 934.6594,-205.7604 934.6594,-205.7604"/>
<polygon fill="#000000" stroke="#000000" points="931.1594,-205.7604 934.6594,-215.7604 938.1594,-205.7604 931.1594,-205.7604"/>
</g>
<!-- ResourceModule  -->
<g id="node30" class="node">
<title>ResourceModule </title>
<polygon fill="#fb8072" stroke="#000000" points="854.6355,-252 739.3645,-252 739.3645,-216 854.6355,-216 854.6355,-252"/>
<text text-anchor="middle" x="797" y="-229.8" font-family="Times,serif" font-size="14.00" fill="#000000">ResourceModule </text>
</g>
<!-- DataModule&#45;&gt;ResourceModule  -->
<g id="edge29" class="edge">
<title>DataModule&#45;&gt;ResourceModule </title>
<path fill="none" stroke="#000000" stroke-dasharray="5,2" d="M1439.9651,-179C1294.6167,-179 830.9508,-179 830.9508,-179 830.9508,-179 830.9508,-205.9909 830.9508,-205.9909"/>
<polygon fill="#000000" stroke="#000000" points="827.4508,-205.9909 830.9508,-215.9909 834.4508,-205.991 827.4508,-205.9909"/>
</g>
<!-- SdkModule  -->
<g id="node31" class="node">
<title>SdkModule </title>
<polygon fill="#fb8072" stroke="#000000" points="721.3326,-252 636.6674,-252 636.6674,-216 721.3326,-216 721.3326,-252"/>
<text text-anchor="middle" x="679" y="-229.8" font-family="Times,serif" font-size="14.00" fill="#000000">SdkModule </text>
</g>
<!-- DataModule&#45;&gt;SdkModule  -->
<g id="edge30" class="edge">
<title>DataModule&#45;&gt;SdkModule </title>
<path fill="none" stroke="#000000" stroke-dasharray="5,2" d="M1440.0226,-177C1276.7694,-177 704.2652,-177 704.2652,-177 704.2652,-177 704.2652,-205.9648 704.2652,-205.9648"/>
<polygon fill="#000000" stroke="#000000" points="700.7653,-205.9648 704.2652,-215.9648 707.7653,-205.9649 700.7653,-205.9648"/>
</g>
<!-- UiModule  -->
<g id="node32" class="node">
<title>UiModule </title>
<polygon fill="#fb8072" stroke="#000000" points="618.547,-252 541.453,-252 541.453,-216 618.547,-216 618.547,-252"/>
<text text-anchor="middle" x="580" y="-229.8" font-family="Times,serif" font-size="14.00" fill="#000000">UiModule </text>
</g>
<!-- DataModule&#45;&gt;UiModule  -->
<g id="edge31" class="edge">
<title>DataModule&#45;&gt;UiModule </title>
<path fill="none" stroke="#000000" stroke-dasharray="5,2" d="M1439.9237,-175C1262.3129,-175 596.1098,-175 596.1098,-175 596.1098,-175 596.1098,-205.9775 596.1098,-205.9775"/>
<polygon fill="#000000" stroke="#000000" points="592.6099,-205.9774 596.1098,-215.9775 599.6099,-205.9775 592.6099,-205.9774"/>
</g>
<!-- AuthModule -->
<g id="node14" class="node">
<title>AuthModule</title>
<polygon fill="#8dd3c7" stroke="#000000" points="1227.5482,-122 1224.5482,-126 1203.5482,-126 1200.5482,-122 1140.4518,-122 1140.4518,-86 1227.5482,-86 1227.5482,-122"/>
<text text-anchor="middle" x="1184" y="-99.8" font-family="Times,serif" font-size="14.00" fill="#000000">AuthModule</text>
</g>
<!-- AuthModule&#45;&gt;DataModule -->
<g id="edge13" class="edge">
<title>AuthModule&#45;&gt;DataModule</title>
<path fill="none" stroke="#000000" d="M1188.4571,-122.1871C1188.4571,-137.1824 1188.4571,-156 1188.4571,-156 1188.4571,-156 1429.8555,-156 1429.8555,-156"/>
<polygon fill="#000000" stroke="#000000" points="1429.8555,-159.5001 1439.8555,-156 1429.8555,-152.5001 1429.8555,-159.5001"/>
</g>
<!-- FilesModule -->
<g id="node15" class="node">
<title>FilesModule</title>
<polygon fill="#8dd3c7" stroke="#000000" points="1122.2731,-122 1119.2731,-126 1098.2731,-126 1095.2731,-122 1035.7269,-122 1035.7269,-86 1122.2731,-86 1122.2731,-122"/>
<text text-anchor="middle" x="1079" y="-99.8" font-family="Times,serif" font-size="14.00" fill="#000000">FilesModule</text>
</g>
<!-- FilesModule&#45;&gt;DataModule -->
<g id="edge14" class="edge">
<title>FilesModule&#45;&gt;DataModule</title>
<path fill="none" stroke="#000000" d="M1079,-122.2819C1079,-137.9478 1079,-158 1079,-158 1079,-158 1429.7649,-158 1429.7649,-158"/>
<polygon fill="#000000" stroke="#000000" points="1429.765,-161.5001 1439.7649,-158 1429.7649,-154.5001 1429.765,-161.5001"/>
</g>
<!-- ResourceModule -->
<g id="node16" class="node">
<title>ResourceModule</title>
<polygon fill="#8dd3c7" stroke="#000000" points="1017.636,-122 1014.636,-126 993.636,-126 990.636,-122 906.364,-122 906.364,-86 1017.636,-86 1017.636,-122"/>
<text text-anchor="middle" x="962" y="-99.8" font-family="Times,serif" font-size="14.00" fill="#000000">ResourceModule</text>
</g>
<!-- ResourceModule&#45;&gt;DataModule -->
<g id="edge15" class="edge">
<title>ResourceModule&#45;&gt;DataModule</title>
<path fill="none" stroke="#000000" d="M999.3729,-122.027C999.3729,-138.3976 999.3729,-160 999.3729,-160 999.3729,-160 1429.6557,-160 1429.6557,-160"/>
<polygon fill="#000000" stroke="#000000" points="1429.6557,-163.5001 1439.6557,-160 1429.6557,-156.5001 1429.6557,-163.5001"/>
</g>
<!-- SdkModule -->
<g id="node17" class="node">
<title>SdkModule</title>
<polygon fill="#8dd3c7" stroke="#000000" points="888.8331,-122 885.8331,-126 864.8331,-126 861.8331,-122 807.1669,-122 807.1669,-86 888.8331,-86 888.8331,-122"/>
<text text-anchor="middle" x="848" y="-99.8" font-family="Times,serif" font-size="14.00" fill="#000000">SdkModule</text>
</g>
<!-- SdkModule&#45;&gt;DataModule -->
<g id="edge16" class="edge">
<title>SdkModule&#45;&gt;DataModule</title>
<path fill="none" stroke="#000000" d="M880.7649,-122.0336C880.7649,-139.0597 880.7649,-162 880.7649,-162 880.7649,-162 1429.6887,-162 1429.6887,-162"/>
<polygon fill="#000000" stroke="#000000" points="1429.6888,-165.5001 1439.6887,-162 1429.6887,-158.5001 1429.6888,-165.5001"/>
</g>
<!-- UiModule -->
<g id="node18" class="node">
<title>UiModule</title>
<polygon fill="#8dd3c7" stroke="#000000" points="789.5484,-122 786.5484,-126 765.5484,-126 762.5484,-122 716.4516,-122 716.4516,-86 789.5484,-86 789.5484,-122"/>
<text text-anchor="middle" x="753" y="-99.8" font-family="Times,serif" font-size="14.00" fill="#000000">UiModule</text>
</g>
<!-- UiModule&#45;&gt;DataModule -->
<g id="edge17" class="edge">
<title>UiModule&#45;&gt;DataModule</title>
<path fill="none" stroke="#000000" d="M764.6029,-122.002C764.6029,-139.6754 764.6029,-164 764.6029,-164 764.6029,-164 1429.946,-164 1429.946,-164"/>
<polygon fill="#000000" stroke="#000000" points="1429.946,-167.5001 1439.946,-164 1429.946,-160.5001 1429.946,-167.5001"/>
</g>
<!-- CrudService -->
<g id="node33" class="node">
<title>CrudService</title>
<ellipse fill="#fdb462" stroke="#000000" cx="633" cy="-104" rx="59.1083" ry="18"/>
<text text-anchor="middle" x="633" y="-99.8" font-family="Times,serif" font-size="14.00" fill="#000000">CrudService</text>
</g>
<!-- CrudService&#45;&gt;DataModule -->
<g id="edge32" class="edge">
<title>CrudService&#45;&gt;DataModule</title>
<path fill="none" stroke="#000000" d="M664.4438,-119.3258C664.4438,-137.6858 664.4438,-166 664.4438,-166 664.4438,-166 1429.8565,-166 1429.8565,-166"/>
<polygon fill="#000000" stroke="#000000" points="1429.8565,-169.5001 1439.8565,-166 1429.8565,-162.5001 1429.8565,-169.5001"/>
</g>
<!-- HistoryService -->
<g id="node34" class="node">
<title>HistoryService</title>
<ellipse fill="#fdb462" stroke="#000000" cx="487" cy="-104" rx="68.9158" ry="18"/>
<text text-anchor="middle" x="487" y="-99.8" font-family="Times,serif" font-size="14.00" fill="#000000">HistoryService</text>
</g>
<!-- HistoryService&#45;&gt;DataModule -->
<g id="edge33" class="edge">
<title>HistoryService&#45;&gt;DataModule</title>
<path fill="none" stroke="#000000" d="M548.7172,-112.1056C548.7172,-129.3271 548.7172,-168 548.7172,-168 548.7172,-168 1429.8114,-168 1429.8114,-168"/>
<polygon fill="#000000" stroke="#000000" points="1429.8114,-171.5001 1439.8114,-168 1429.8113,-164.5001 1429.8114,-171.5001"/>
</g>
<!-- ModelConfigService -->
<g id="node35" class="node">
<title>ModelConfigService</title>
<ellipse fill="#fdb462" stroke="#000000" cx="308" cy="-104" rx="92.0548" ry="18"/>
<text text-anchor="middle" x="308" y="-99.8" font-family="Times,serif" font-size="14.00" fill="#000000">ModelConfigService</text>
</g>
<!-- ModelConfigService&#45;&gt;DataModule -->
<g id="edge34" class="edge">
<title>ModelConfigService&#45;&gt;DataModule</title>
<path fill="none" stroke="#000000" d="M308,-122.308C308,-142.1455 308,-171 308,-171 308,-171 1429.7876,-171 1429.7876,-171"/>
<polygon fill="#000000" stroke="#000000" points="1429.7876,-174.5001 1439.7876,-171 1429.7876,-167.5001 1429.7876,-174.5001"/>
</g>
<!-- TypeConfigService -->
<g id="node36" class="node">
<title>TypeConfigService</title>
<ellipse fill="#fdb462" stroke="#000000" cx="111" cy="-104" rx="86.8184" ry="18"/>
<text text-anchor="middle" x="111" y="-99.8" font-family="Times,serif" font-size="14.00" fill="#000000">TypeConfigService</text>
</g>
<!-- TypeConfigService&#45;&gt;DataModule -->
<g id="edge35" class="edge">
<title>TypeConfigService&#45;&gt;DataModule</title>
<path fill="none" stroke="#000000" d="M111,-122.1289C111,-142.5724 111,-173 111,-173 111,-173 1429.6727,-173 1429.6727,-173"/>
<polygon fill="#000000" stroke="#000000" points="1429.6728,-176.5001 1439.6727,-173 1429.6727,-169.5001 1429.6728,-176.5001"/>
</g>
</g>
</svg>
