<?xml version="1.0" encoding="UTF-8" standalone="no"?>
<!DOCTYPE svg PUBLIC "-//W3C//DTD SVG 1.1//EN"
 "http://www.w3.org/Graphics/SVG/1.1/DTD/svg11.dtd">
<!-- Generated by graphviz version 2.40.1 (20161225.0304)
 -->
<!-- Title: dependencies Pages: 1 -->
<svg width="2823pt" height="284pt"
 viewBox="0.00 0.00 2823.00 284.00" xmlns="http://www.w3.org/2000/svg" xmlns:xlink="http://www.w3.org/1999/xlink">
<g id="graph0" class="graph" transform="scale(1 1) rotate(0) translate(4 280)">
<title>dependencies</title>
<polygon fill="#ffffff" stroke="transparent" points="-4,4 -4,-280 2819,-280 2819,4 -4,4"/>
<text text-anchor="start" x="1386.5091" y="-42.4" font-family="sans-serif" font-weight="bold" font-size="14.00" fill="#000000">Legend</text>
<polygon fill="#ffffb3" stroke="transparent" points="1173.5,-10 1173.5,-30 1193.5,-30 1193.5,-10 1173.5,-10"/>
<text text-anchor="start" x="1197.129" y="-15.4" font-family="sans-serif" font-size="14.00" fill="#000000"> &#160;Declarations</text>
<polygon fill="#8dd3c7" stroke="transparent" points="1286.5,-10 1286.5,-30 1306.5,-30 1306.5,-10 1286.5,-10"/>
<text text-anchor="start" x="1310.2251" y="-15.4" font-family="sans-serif" font-size="14.00" fill="#000000"> &#160;Module</text>
<polygon fill="#80b1d3" stroke="transparent" points="1372.5,-10 1372.5,-30 1392.5,-30 1392.5,-10 1372.5,-10"/>
<text text-anchor="start" x="1396.2812" y="-15.4" font-family="sans-serif" font-size="14.00" fill="#000000"> &#160;Bootstrap</text>
<polygon fill="#fdb462" stroke="transparent" points="1469.5,-10 1469.5,-30 1489.5,-30 1489.5,-10 1469.5,-10"/>
<text text-anchor="start" x="1493.1732" y="-15.4" font-family="sans-serif" font-size="14.00" fill="#000000"> &#160;Providers</text>
<polygon fill="#fb8072" stroke="transparent" points="1565.5,-10 1565.5,-30 1585.5,-30 1585.5,-10 1565.5,-10"/>
<text text-anchor="start" x="1589.2258" y="-15.4" font-family="sans-serif" font-size="14.00" fill="#000000"> &#160;Exports</text>
<g id="clust1" class="cluster">
<title>cluster_DataModule</title>
<polygon fill="none" stroke="#000000" stroke-dasharray="1,5" points="8,-70 8,-268 2807,-268 2807,-70 8,-70"/>
</g>
<g id="clust2" class="cluster">
<title>cluster_DataModule_declarations</title>
<polygon fill="none" stroke="#000000" points="853,-78 853,-130 2799,-130 2799,-78 853,-78"/>
</g>
<g id="clust15" class="cluster">
<title>cluster_DataModule_imports</title>
<polygon fill="none" stroke="#000000" points="552,-78 552,-130 845,-130 845,-78 552,-78"/>
</g>
<g id="clust16" class="cluster">
<title>cluster_DataModule_exports</title>
<polygon fill="none" stroke="#000000" points="418,-208 418,-260 2292,-260 2292,-208 418,-208"/>
</g>
<g id="clust18" class="cluster">
<title>cluster_DataModule_providers</title>
<polygon fill="none" stroke="#000000" points="16,-78 16,-130 544,-130 544,-78 16,-78"/>
</g>
<!-- EntryListComponent -->
<g id="node1" class="node">
<title>EntryListComponent</title>
<polygon fill="#ffffb3" stroke="#000000" points="2791.2148,-122 2656.7852,-122 2656.7852,-86 2791.2148,-86 2791.2148,-122"/>
<text text-anchor="middle" x="2724" y="-99.8" font-family="Times,serif" font-size="14.00" fill="#000000">EntryListComponent</text>
</g>
<!-- DataModule -->
<g id="node13" class="node">
<title>DataModule</title>
<polygon fill="#8dd3c7" stroke="#000000" points="1340.9762,-187 1337.9762,-191 1316.9762,-191 1313.9762,-187 1255.0238,-187 1255.0238,-151 1340.9762,-151 1340.9762,-187"/>
<text text-anchor="middle" x="1298" y="-164.8" font-family="Times,serif" font-size="14.00" fill="#000000">DataModule</text>
</g>
<!-- EntryListComponent&#45;&gt;DataModule -->
<g id="edge1" class="edge">
<title>EntryListComponent&#45;&gt;DataModule</title>
<path fill="none" stroke="#000000" d="M2724,-122.308C2724,-142.1455 2724,-171 2724,-171 2724,-171 1351.0659,-171 1351.0659,-171"/>
<polygon fill="#000000" stroke="#000000" points="1351.0659,-167.5001 1341.0659,-171 1351.0658,-174.5001 1351.0659,-167.5001"/>
</g>
<!-- EntryComponent -->
<g id="node2" class="node">
<title>EntryComponent</title>
<polygon fill="#ffffb3" stroke="#000000" points="2639.437,-122 2526.563,-122 2526.563,-86 2639.437,-86 2639.437,-122"/>
<text text-anchor="middle" x="2583" y="-99.8" font-family="Times,serif" font-size="14.00" fill="#000000">EntryComponent</text>
</g>
<!-- EntryComponent&#45;&gt;DataModule -->
<g id="edge2" class="edge">
<title>EntryComponent&#45;&gt;DataModule</title>
<path fill="none" stroke="#000000" d="M2583,-122.1686C2583,-141.0898 2583,-168 2583,-168 2583,-168 1351.1217,-168 1351.1217,-168"/>
<polygon fill="#000000" stroke="#000000" points="1351.1217,-164.5001 1341.1217,-168 1351.1217,-171.5001 1351.1217,-164.5001"/>
</g>
<!-- EntriesComponent -->
<g id="node3" class="node">
<title>EntriesComponent</title>
<polygon fill="#ffffb3" stroke="#000000" points="2508.486,-122 2387.514,-122 2387.514,-86 2508.486,-86 2508.486,-122"/>
<text text-anchor="middle" x="2448" y="-99.8" font-family="Times,serif" font-size="14.00" fill="#000000">EntriesComponent</text>
</g>
<!-- EntriesComponent&#45;&gt;DataModule -->
<g id="edge3" class="edge">
<title>EntriesComponent&#45;&gt;DataModule</title>
<path fill="none" stroke="#000000" d="M2448,-122.2667C2448,-140.5552 2448,-166 2448,-166 2448,-166 1350.9825,-166 1350.9825,-166"/>
<polygon fill="#000000" stroke="#000000" points="1350.9825,-162.5001 1340.9825,-166 1350.9825,-169.5001 1350.9825,-162.5001"/>
</g>
<!-- EntryFormComponent -->
<g id="node4" class="node">
<title>EntryFormComponent</title>
<polygon fill="#ffffb3" stroke="#000000" points="2369.2702,-122 2226.7298,-122 2226.7298,-86 2369.2702,-86 2369.2702,-122"/>
<text text-anchor="middle" x="2298" y="-99.8" font-family="Times,serif" font-size="14.00" fill="#000000">EntryFormComponent</text>
</g>
<!-- EntryFormComponent&#45;&gt;DataModule -->
<g id="edge4" class="edge">
<title>EntryFormComponent&#45;&gt;DataModule</title>
<path fill="none" stroke="#000000" d="M2255.2361,-122.0225C2255.2361,-139.3734 2255.2361,-163 2255.2361,-163 2255.2361,-163 1350.9901,-163 1350.9901,-163"/>
<polygon fill="#000000" stroke="#000000" points="1350.9901,-159.5001 1340.9901,-163 1350.99,-166.5001 1350.9901,-159.5001"/>
</g>
<!-- DatamanagerListComponent -->
<g id="node5" class="node">
<title>DatamanagerListComponent</title>
<polygon fill="#ffffb3" stroke="#000000" points="2208.7324,-122 2031.2676,-122 2031.2676,-86 2208.7324,-86 2208.7324,-122"/>
<text text-anchor="middle" x="2120" y="-99.8" font-family="Times,serif" font-size="14.00" fill="#000000">DatamanagerListComponent</text>
</g>
<!-- DatamanagerListComponent&#45;&gt;DataModule -->
<g id="edge5" class="edge">
<title>DatamanagerListComponent&#45;&gt;DataModule</title>
<path fill="none" stroke="#000000" d="M2079.551,-122.0352C2079.551,-138.7344 2079.551,-161 2079.551,-161 2079.551,-161 1351.1328,-161 1351.1328,-161"/>
<polygon fill="#000000" stroke="#000000" points="1351.1329,-157.5001 1341.1328,-161 1351.1328,-164.5001 1351.1329,-157.5001"/>
</g>
<!-- ModelListComponent -->
<g id="node6" class="node">
<title>ModelListComponent</title>
<polygon fill="#ffffb3" stroke="#000000" points="2012.661,-122 1873.339,-122 1873.339,-86 2012.661,-86 2012.661,-122"/>
<text text-anchor="middle" x="1943" y="-99.8" font-family="Times,serif" font-size="14.00" fill="#000000">ModelListComponent</text>
</g>
<!-- ModelListComponent&#45;&gt;DataModule -->
<g id="edge6" class="edge">
<title>ModelListComponent&#45;&gt;DataModule</title>
<path fill="none" stroke="#000000" d="M1913.5275,-122.0091C1913.5275,-138.0494 1913.5275,-159 1913.5275,-159 1913.5275,-159 1351.2827,-159 1351.2827,-159"/>
<polygon fill="#000000" stroke="#000000" points="1351.2827,-155.5001 1341.2827,-159 1351.2827,-162.5001 1351.2827,-155.5001"/>
</g>
<!-- ResourceListComponent -->
<g id="node7" class="node">
<title>ResourceListComponent</title>
<polygon fill="#ffffb3" stroke="#000000" points="1855.6965,-122 1700.3035,-122 1700.3035,-86 1855.6965,-86 1855.6965,-122"/>
<text text-anchor="middle" x="1778" y="-99.8" font-family="Times,serif" font-size="14.00" fill="#000000">ResourceListComponent</text>
</g>
<!-- ResourceListComponent&#45;&gt;DataModule -->
<g id="edge7" class="edge">
<title>ResourceListComponent&#45;&gt;DataModule</title>
<path fill="none" stroke="#000000" d="M1803.3783,-122.1871C1803.3783,-137.1824 1803.3783,-156 1803.3783,-156 1803.3783,-156 1351.0883,-156 1351.0883,-156"/>
<polygon fill="#000000" stroke="#000000" points="1351.0883,-152.5001 1341.0883,-156 1351.0882,-159.5001 1351.0883,-152.5001"/>
</g>
<!-- DefaultEntryInputComponent -->
<g id="node8" class="node">
<title>DefaultEntryInputComponent</title>
<polygon fill="#ffffb3" stroke="#000000" points="1681.965,-122 1498.035,-122 1498.035,-86 1681.965,-86 1681.965,-122"/>
<text text-anchor="middle" x="1590" y="-99.8" font-family="Times,serif" font-size="14.00" fill="#000000">DefaultEntryInputComponent</text>
</g>
<!-- DefaultEntryInputComponent&#45;&gt;DataModule -->
<g id="edge8" class="edge">
<title>DefaultEntryInputComponent&#45;&gt;DataModule</title>
<path fill="none" stroke="#000000" d="M1527.5447,-122.0511C1527.5447,-136.373 1527.5447,-154 1527.5447,-154 1527.5447,-154 1351.1756,-154 1351.1756,-154"/>
<polygon fill="#000000" stroke="#000000" points="1351.1756,-150.5001 1341.1756,-154 1351.1756,-157.5001 1351.1756,-150.5001"/>
</g>
<!-- DefaultEntryOutputComponent -->
<g id="node9" class="node">
<title>DefaultEntryOutputComponent</title>
<polygon fill="#ffffb3" stroke="#000000" points="1479.8018,-122 1286.1982,-122 1286.1982,-86 1479.8018,-86 1479.8018,-122"/>
<text text-anchor="middle" x="1383" y="-99.8" font-family="Times,serif" font-size="14.00" fill="#000000">DefaultEntryOutputComponent</text>
</g>
<!-- DefaultEntryOutputComponent&#45;&gt;DataModule -->
<g id="edge9" class="edge">
<title>DefaultEntryOutputComponent&#45;&gt;DataModule</title>
<path fill="none" stroke="#000000" d="M1313.6687,-122.1061C1313.6687,-122.1061 1313.6687,-140.991 1313.6687,-140.991"/>
<polygon fill="#000000" stroke="#000000" points="1310.1687,-140.9909 1313.6687,-150.991 1317.1687,-140.991 1310.1687,-140.9909"/>
</g>
<!-- CrudComponent -->
<g id="node10" class="node">
<title>CrudComponent</title>
<polygon fill="#ffffb3" stroke="#000000" points="1268.8301,-122 1159.1699,-122 1159.1699,-86 1268.8301,-86 1268.8301,-122"/>
<text text-anchor="middle" x="1214" y="-99.8" font-family="Times,serif" font-size="14.00" fill="#000000">CrudComponent</text>
</g>
<!-- CrudComponent&#45;&gt;DataModule -->
<g id="edge10" class="edge">
<title>CrudComponent&#45;&gt;DataModule</title>
<path fill="none" stroke="#000000" d="M1261.8384,-122.1061C1261.8384,-122.1061 1261.8384,-140.991 1261.8384,-140.991"/>
<polygon fill="#000000" stroke="#000000" points="1258.3384,-140.9909 1261.8384,-150.991 1265.3384,-140.991 1258.3384,-140.9909"/>
</g>
<!-- EntrySelectComponent -->
<g id="node11" class="node">
<title>EntrySelectComponent</title>
<polygon fill="#ffffb3" stroke="#000000" points="1141.1442,-122 994.8558,-122 994.8558,-86 1141.1442,-86 1141.1442,-122"/>
<text text-anchor="middle" x="1068" y="-99.8" font-family="Times,serif" font-size="14.00" fill="#000000">EntrySelectComponent</text>
</g>
<!-- EntrySelectComponent&#45;&gt;DataModule -->
<g id="edge11" class="edge">
<title>EntrySelectComponent&#45;&gt;DataModule</title>
<path fill="none" stroke="#000000" d="M1093.8708,-122.0511C1093.8708,-136.373 1093.8708,-154 1093.8708,-154 1093.8708,-154 1244.7094,-154 1244.7094,-154"/>
<polygon fill="#000000" stroke="#000000" points="1244.7095,-157.5001 1254.7094,-154 1244.7094,-150.5001 1244.7095,-157.5001"/>
</g>
<!-- EditorComponent -->
<g id="node12" class="node">
<title>EditorComponent</title>
<polygon fill="#ffffb3" stroke="#000000" points="977.3273,-122 860.6727,-122 860.6727,-86 977.3273,-86 977.3273,-122"/>
<text text-anchor="middle" x="919" y="-99.8" font-family="Times,serif" font-size="14.00" fill="#000000">EditorComponent</text>
</g>
<!-- EditorComponent&#45;&gt;DataModule -->
<g id="edge12" class="edge">
<title>EditorComponent&#45;&gt;DataModule</title>
<path fill="none" stroke="#000000" d="M923.4076,-122.1871C923.4076,-137.1824 923.4076,-156 923.4076,-156 923.4076,-156 1244.6635,-156 1244.6635,-156"/>
<polygon fill="#000000" stroke="#000000" points="1244.6636,-159.5001 1254.6635,-156 1244.6635,-152.5001 1244.6636,-159.5001"/>
</g>
<!-- EntryListComponent  -->
<g id="node17" class="node">
<title>EntryListComponent </title>
<polygon fill="#fb8072" stroke="#000000" points="2283.7149,-252 2146.2851,-252 2146.2851,-216 2283.7149,-216 2283.7149,-252"/>
<text text-anchor="middle" x="2215" y="-229.8" font-family="Times,serif" font-size="14.00" fill="#000000">EntryListComponent </text>
</g>
<!-- DataModule&#45;&gt;EntryListComponent  -->
<g id="edge16" class="edge">
<title>DataModule&#45;&gt;EntryListComponent </title>
<path fill="none" stroke="#000000" stroke-dasharray="5,2" d="M1341.0157,-173C1517.5934,-173 2177.5044,-173 2177.5044,-173 2177.5044,-173 2177.5044,-205.698 2177.5044,-205.698"/>
<polygon fill="#000000" stroke="#000000" points="2174.0045,-205.698 2177.5044,-215.698 2181.0045,-205.698 2174.0045,-205.698"/>
</g>
<!-- EntryComponent  -->
<g id="node18" class="node">
<title>EntryComponent </title>
<polygon fill="#fb8072" stroke="#000000" points="2127.9362,-252 2012.0638,-252 2012.0638,-216 2127.9362,-216 2127.9362,-252"/>
<text text-anchor="middle" x="2070" y="-229.8" font-family="Times,serif" font-size="14.00" fill="#000000">EntryComponent </text>
</g>
<!-- DataModule&#45;&gt;EntryComponent  -->
<g id="edge17" class="edge">
<title>DataModule&#45;&gt;EntryComponent </title>
<path fill="none" stroke="#000000" stroke-dasharray="5,2" d="M1341.1202,-175C1496.9802,-175 2021.9821,-175 2021.9821,-175 2021.9821,-175 2021.9821,-205.9775 2021.9821,-205.9775"/>
<polygon fill="#000000" stroke="#000000" points="2018.4822,-205.9774 2021.9821,-215.9775 2025.4822,-205.9775 2018.4822,-205.9774"/>
</g>
<!-- EntriesComponent  -->
<g id="node19" class="node">
<title>EntriesComponent </title>
<polygon fill="#fb8072" stroke="#000000" points="1994.487,-252 1869.513,-252 1869.513,-216 1994.487,-216 1994.487,-252"/>
<text text-anchor="middle" x="1932" y="-229.8" font-family="Times,serif" font-size="14.00" fill="#000000">EntriesComponent </text>
</g>
<!-- DataModule&#45;&gt;EntriesComponent  -->
<g id="edge18" class="edge">
<title>DataModule&#45;&gt;EntriesComponent </title>
<path fill="none" stroke="#000000" stroke-dasharray="5,2" d="M1341.0345,-178C1486.9513,-178 1953.8852,-178 1953.8852,-178 1953.8852,-178 1953.8852,-205.973 1953.8852,-205.973"/>
<polygon fill="#000000" stroke="#000000" points="1950.3853,-205.973 1953.8852,-215.973 1957.3853,-205.973 1950.3853,-205.973"/>
</g>
<!-- EntryFormComponent  -->
<g id="node20" class="node">
<title>EntryFormComponent </title>
<polygon fill="#fb8072" stroke="#000000" points="1852.2702,-252 1705.7298,-252 1705.7298,-216 1852.2702,-216 1852.2702,-252"/>
<text text-anchor="middle" x="1779" y="-229.8" font-family="Times,serif" font-size="14.00" fill="#000000">EntryFormComponent </text>
</g>
<!-- DataModule&#45;&gt;EntryFormComponent  -->
<g id="edge19" class="edge">
<title>DataModule&#45;&gt;EntryFormComponent </title>
<path fill="none" stroke="#000000" stroke-dasharray="5,2" d="M1341.3695,-180C1455.35,-180 1754.6217,-180 1754.6217,-180 1754.6217,-180 1754.6217,-205.7181 1754.6217,-205.7181"/>
<polygon fill="#000000" stroke="#000000" points="1751.1218,-205.718 1754.6217,-215.7181 1758.1218,-205.7181 1751.1218,-205.718"/>
</g>
<!-- CrudComponent  -->
<g id="node21" class="node">
<title>CrudComponent </title>
<polygon fill="#fb8072" stroke="#000000" points="1687.3297,-252 1574.6703,-252 1574.6703,-216 1687.3297,-216 1687.3297,-252"/>
<text text-anchor="middle" x="1631" y="-229.8" font-family="Times,serif" font-size="14.00" fill="#000000">CrudComponent </text>
</g>
<!-- DataModule&#45;&gt;CrudComponent  -->
<g id="edge20" class="edge">
<title>DataModule&#45;&gt;CrudComponent </title>
<path fill="none" stroke="#000000" stroke-dasharray="5,2" d="M1341.1788,-183C1430.7062,-183 1628.2839,-183 1628.2839,-183 1628.2839,-183 1628.2839,-205.8757 1628.2839,-205.8757"/>
<polygon fill="#000000" stroke="#000000" points="1624.7839,-205.8757 1628.2839,-215.8757 1631.7839,-205.8757 1624.7839,-205.8757"/>
</g>
<!-- EntrySelectComponent  -->
<g id="node22" class="node">
<title>EntrySelectComponent </title>
<polygon fill="#fb8072" stroke="#000000" points="1557.1439,-252 1406.8561,-252 1406.8561,-216 1557.1439,-216 1557.1439,-252"/>
<text text-anchor="middle" x="1482" y="-229.8" font-family="Times,serif" font-size="14.00" fill="#000000">EntrySelectComponent </text>
</g>
<!-- DataModule&#45;&gt;EntrySelectComponent  -->
<g id="edge21" class="edge">
<title>DataModule&#45;&gt;EntrySelectComponent </title>
<path fill="none" stroke="#000000" stroke-dasharray="5,2" d="M1341.1983,-185C1384.0256,-185 1443.2895,-185 1443.2895,-185 1443.2895,-185 1443.2895,-205.7542 1443.2895,-205.7542"/>
<polygon fill="#000000" stroke="#000000" points="1439.7895,-205.7542 1443.2895,-215.7542 1446.7895,-205.7542 1439.7895,-205.7542"/>
</g>
<!-- DatamanagerListComponent  -->
<g id="node23" class="node">
<title>DatamanagerListComponent </title>
<polygon fill="#fb8072" stroke="#000000" points="1388.7323,-252 1207.2677,-252 1207.2677,-216 1388.7323,-216 1388.7323,-252"/>
<text text-anchor="middle" x="1298" y="-229.8" font-family="Times,serif" font-size="14.00" fill="#000000">DatamanagerListComponent </text>
</g>
<!-- DataModule&#45;&gt;DatamanagerListComponent  -->
<g id="edge22" class="edge">
<title>DataModule&#45;&gt;DatamanagerListComponent </title>
<path fill="none" stroke="#000000" stroke-dasharray="5,2" d="M1298,-187.1061C1298,-187.1061 1298,-205.991 1298,-205.991"/>
<polygon fill="#000000" stroke="#000000" points="1294.5001,-205.9909 1298,-215.991 1301.5001,-205.991 1294.5001,-205.9909"/>
</g>
<!-- ModelListComponent  -->
<g id="node24" class="node">
<title>ModelListComponent </title>
<polygon fill="#fb8072" stroke="#000000" points="1189.6607,-252 1046.3393,-252 1046.3393,-216 1189.6607,-216 1189.6607,-252"/>
<text text-anchor="middle" x="1118" y="-229.8" font-family="Times,serif" font-size="14.00" fill="#000000">ModelListComponent </text>
</g>
<!-- DataModule&#45;&gt;ModelListComponent  -->
<g id="edge23" class="edge">
<title>DataModule&#45;&gt;ModelListComponent </title>
<path fill="none" stroke="#000000" stroke-dasharray="5,2" d="M1254.7909,-185C1219.1649,-185 1174.4578,-185 1174.4578,-185 1174.4578,-185 1174.4578,-205.7542 1174.4578,-205.7542"/>
<polygon fill="#000000" stroke="#000000" points="1170.9578,-205.7542 1174.4578,-215.7542 1177.9578,-205.7542 1170.9578,-205.7542"/>
</g>
<!-- ResourceListComponent  -->
<g id="node25" class="node">
<title>ResourceListComponent </title>
<polygon fill="#fb8072" stroke="#000000" points="1028.1967,-252 869.8033,-252 869.8033,-216 1028.1967,-216 1028.1967,-252"/>
<text text-anchor="middle" x="949" y="-229.8" font-family="Times,serif" font-size="14.00" fill="#000000">ResourceListComponent </text>
</g>
<!-- DataModule&#45;&gt;ResourceListComponent  -->
<g id="edge24" class="edge">
<title>DataModule&#45;&gt;ResourceListComponent </title>
<path fill="none" stroke="#000000" stroke-dasharray="5,2" d="M1254.7998,-183C1174.7671,-183 1011.5132,-183 1011.5132,-183 1011.5132,-183 1011.5132,-205.8757 1011.5132,-205.8757"/>
<polygon fill="#000000" stroke="#000000" points="1008.0132,-205.8757 1011.5132,-215.8757 1015.0132,-205.8757 1008.0132,-205.8757"/>
</g>
<!-- EditorComponent  -->
<g id="node26" class="node">
<title>EditorComponent </title>
<polygon fill="#fb8072" stroke="#000000" points="851.8269,-252 732.1731,-252 732.1731,-216 851.8269,-216 851.8269,-252"/>
<text text-anchor="middle" x="792" y="-229.8" font-family="Times,serif" font-size="14.00" fill="#000000">EditorComponent </text>
</g>
<!-- DataModule&#45;&gt;EditorComponent  -->
<g id="edge25" class="edge">
<title>DataModule&#45;&gt;EditorComponent </title>
<path fill="none" stroke="#000000" stroke-dasharray="5,2" d="M1254.9121,-180C1141.6718,-180 844.3435,-180 844.3435,-180 844.3435,-180 844.3435,-205.7181 844.3435,-205.7181"/>
<polygon fill="#000000" stroke="#000000" points="840.8435,-205.718 844.3435,-215.7181 847.8435,-205.7181 840.8435,-205.718"/>
</g>
<!-- UiModule  -->
<g id="node27" class="node">
<title>UiModule </title>
<polygon fill="#fb8072" stroke="#000000" points="714.547,-252 637.453,-252 637.453,-216 714.547,-216 714.547,-252"/>
<text text-anchor="middle" x="676" y="-229.8" font-family="Times,serif" font-size="14.00" fill="#000000">UiModule </text>
</g>
<!-- DataModule&#45;&gt;UiModule  -->
<g id="edge26" class="edge">
<title>DataModule&#45;&gt;UiModule </title>
<path fill="none" stroke="#000000" stroke-dasharray="5,2" d="M1254.7209,-178C1115.6873,-178 689.4287,-178 689.4287,-178 689.4287,-178 689.4287,-205.973 689.4287,-205.973"/>
<polygon fill="#000000" stroke="#000000" points="685.9287,-205.973 689.4287,-215.973 692.9287,-205.973 685.9287,-205.973"/>
</g>
<!-- SdkModule  -->
<g id="node28" class="node">
<title>SdkModule </title>
<polygon fill="#fb8072" stroke="#000000" points="619.3326,-252 534.6674,-252 534.6674,-216 619.3326,-216 619.3326,-252"/>
<text text-anchor="middle" x="577" y="-229.8" font-family="Times,serif" font-size="14.00" fill="#000000">SdkModule </text>
</g>
<!-- DataModule&#45;&gt;SdkModule  -->
<g id="edge27" class="edge">
<title>DataModule&#45;&gt;SdkModule </title>
<path fill="none" stroke="#000000" stroke-dasharray="5,2" d="M1255.0124,-175C1101.513,-175 589.5149,-175 589.5149,-175 589.5149,-175 589.5149,-205.9775 589.5149,-205.9775"/>
<polygon fill="#000000" stroke="#000000" points="586.015,-205.9774 589.5149,-215.9775 593.015,-205.9775 586.015,-205.9774"/>
</g>
<!-- FilesModule  -->
<g id="node29" class="node">
<title>FilesModule </title>
<polygon fill="#fb8072" stroke="#000000" points="516.2732,-252 425.7268,-252 425.7268,-216 516.2732,-216 516.2732,-252"/>
<text text-anchor="middle" x="471" y="-229.8" font-family="Times,serif" font-size="14.00" fill="#000000">FilesModule </text>
</g>
<!-- DataModule&#45;&gt;FilesModule  -->
<g id="edge28" class="edge">
<title>DataModule&#45;&gt;FilesModule </title>
<path fill="none" stroke="#000000" stroke-dasharray="5,2" d="M1254.9902,-173C1085.2357,-173 471,-173 471,-173 471,-173 471,-205.698 471,-205.698"/>
<polygon fill="#000000" stroke="#000000" points="467.5001,-205.698 471,-215.698 474.5001,-205.698 467.5001,-205.698"/>
</g>
<!-- UiModule -->
<g id="node14" class="node">
<title>UiModule</title>
<polygon fill="#8dd3c7" stroke="#000000" points="836.5484,-122 833.5484,-126 812.5484,-126 809.5484,-122 763.4516,-122 763.4516,-86 836.5484,-86 836.5484,-122"/>
<text text-anchor="middle" x="800" y="-99.8" font-family="Times,serif" font-size="14.00" fill="#000000">UiModule</text>
</g>
<!-- UiModule&#45;&gt;DataModule -->
<g id="edge13" class="edge">
<title>UiModule&#45;&gt;DataModule</title>
<path fill="none" stroke="#000000" d="M800,-122.0091C800,-138.0494 800,-159 800,-159 800,-159 1244.6769,-159 1244.6769,-159"/>
<polygon fill="#000000" stroke="#000000" points="1244.677,-162.5001 1254.6769,-159 1244.6769,-155.5001 1244.677,-162.5001"/>
</g>
<!-- SdkModule -->
<g id="node15" class="node">
<title>SdkModule</title>
<polygon fill="#8dd3c7" stroke="#000000" points="745.8331,-122 742.8331,-126 721.8331,-126 718.8331,-122 664.1669,-122 664.1669,-86 745.8331,-86 745.8331,-122"/>
<text text-anchor="middle" x="705" y="-99.8" font-family="Times,serif" font-size="14.00" fill="#000000">SdkModule</text>
</g>
<!-- SdkModule&#45;&gt;DataModule -->
<g id="edge14" class="edge">
<title>SdkModule&#45;&gt;DataModule</title>
<path fill="none" stroke="#000000" d="M738.8764,-122.0352C738.8764,-138.7344 738.8764,-161 738.8764,-161 738.8764,-161 1244.5918,-161 1244.5918,-161"/>
<polygon fill="#000000" stroke="#000000" points="1244.5918,-164.5001 1254.5918,-161 1244.5917,-157.5001 1244.5918,-164.5001"/>
</g>
<!-- FilesModule -->
<g id="node16" class="node">
<title>FilesModule</title>
<polygon fill="#8dd3c7" stroke="#000000" points="646.2731,-122 643.2731,-126 622.2731,-126 619.2731,-122 559.7269,-122 559.7269,-86 646.2731,-86 646.2731,-122"/>
<text text-anchor="middle" x="603" y="-99.8" font-family="Times,serif" font-size="14.00" fill="#000000">FilesModule</text>
</g>
<!-- FilesModule&#45;&gt;DataModule -->
<g id="edge15" class="edge">
<title>FilesModule&#45;&gt;DataModule</title>
<path fill="none" stroke="#000000" d="M641.9315,-122.0225C641.9315,-139.3734 641.9315,-163 641.9315,-163 641.9315,-163 1244.9535,-163 1244.9535,-163"/>
<polygon fill="#000000" stroke="#000000" points="1244.9535,-166.5001 1254.9535,-163 1244.9535,-159.5001 1244.9535,-166.5001"/>
</g>
<!-- CrudService -->
<g id="node30" class="node">
<title>CrudService</title>
<ellipse fill="#fdb462" stroke="#000000" cx="477" cy="-104" rx="59.1083" ry="18"/>
<text text-anchor="middle" x="477" y="-99.8" font-family="Times,serif" font-size="14.00" fill="#000000">CrudService</text>
</g>
<!-- CrudService&#45;&gt;DataModule -->
<g id="edge29" class="edge">
<title>CrudService&#45;&gt;DataModule</title>
<path fill="none" stroke="#000000" d="M525.3601,-114.5175C525.3601,-132.2063 525.3601,-166 525.3601,-166 525.3601,-166 1244.8039,-166 1244.8039,-166"/>
<polygon fill="#000000" stroke="#000000" points="1244.804,-169.5001 1254.8039,-166 1244.8039,-162.5001 1244.804,-169.5001"/>
</g>
<!-- TypeConfigService -->
<g id="node31" class="node">
<title>TypeConfigService</title>
<ellipse fill="#fdb462" stroke="#000000" cx="313" cy="-104" rx="86.8184" ry="18"/>
<text text-anchor="middle" x="313" y="-99.8" font-family="Times,serif" font-size="14.00" fill="#000000">TypeConfigService</text>
</g>
<!-- TypeConfigService&#45;&gt;DataModule -->
<g id="edge30" class="edge">
<title>TypeConfigService&#45;&gt;DataModule</title>
<path fill="none" stroke="#000000" d="M313,-122.1686C313,-141.0898 313,-168 313,-168 313,-168 1244.7241,-168 1244.7241,-168"/>
<polygon fill="#000000" stroke="#000000" points="1244.7242,-171.5001 1254.7241,-168 1244.7241,-164.5001 1244.7242,-171.5001"/>
</g>
<!-- ModelConfigService -->
<g id="node32" class="node">
<title>ModelConfigService</title>
<ellipse fill="#fdb462" stroke="#000000" cx="116" cy="-104" rx="92.0548" ry="18"/>
<text text-anchor="middle" x="116" y="-99.8" font-family="Times,serif" font-size="14.00" fill="#000000">ModelConfigService</text>
</g>
<!-- ModelConfigService&#45;&gt;DataModule -->
<g id="edge31" class="edge">
<title>ModelConfigService&#45;&gt;DataModule</title>
<path fill="none" stroke="#000000" d="M116,-122.308C116,-142.1455 116,-171 116,-171 116,-171 1244.8826,-171 1244.8826,-171"/>
<polygon fill="#000000" stroke="#000000" points="1244.8826,-174.5001 1254.8826,-171 1244.8826,-167.5001 1244.8826,-174.5001"/>
</g>
</g>
</svg>
