<?xml version="1.0" encoding="UTF-8" standalone="no"?>
<!DOCTYPE svg PUBLIC "-//W3C//DTD SVG 1.1//EN"
 "http://www.w3.org/Graphics/SVG/1.1/DTD/svg11.dtd">
<!-- Generated by graphviz version 2.40.1 (20161225.0304)
 -->
<!-- Title: dependencies Pages: 1 -->
<svg width="1998pt" height="284pt"
 viewBox="0.00 0.00 1998.00 284.00" xmlns="http://www.w3.org/2000/svg" xmlns:xlink="http://www.w3.org/1999/xlink">
<g id="graph0" class="graph" transform="scale(1 1) rotate(0) translate(4 280)">
<title>dependencies</title>
<polygon fill="#ffffff" stroke="transparent" points="-4,4 -4,-280 1994,-280 1994,4 -4,4"/>
<text text-anchor="start" x="974.0091" y="-42.4" font-family="sans-serif" font-weight="bold" font-size="14.00" fill="#000000">Legend</text>
<polygon fill="#ffffb3" stroke="transparent" points="761,-10 761,-30 781,-30 781,-10 761,-10"/>
<text text-anchor="start" x="784.629" y="-15.4" font-family="sans-serif" font-size="14.00" fill="#000000"> &#160;Declarations</text>
<polygon fill="#8dd3c7" stroke="transparent" points="874,-10 874,-30 894,-30 894,-10 874,-10"/>
<text text-anchor="start" x="897.7251" y="-15.4" font-family="sans-serif" font-size="14.00" fill="#000000"> &#160;Module</text>
<polygon fill="#80b1d3" stroke="transparent" points="960,-10 960,-30 980,-30 980,-10 960,-10"/>
<text text-anchor="start" x="983.7812" y="-15.4" font-family="sans-serif" font-size="14.00" fill="#000000"> &#160;Bootstrap</text>
<polygon fill="#fdb462" stroke="transparent" points="1057,-10 1057,-30 1077,-30 1077,-10 1057,-10"/>
<text text-anchor="start" x="1080.6732" y="-15.4" font-family="sans-serif" font-size="14.00" fill="#000000"> &#160;Providers</text>
<polygon fill="#fb8072" stroke="transparent" points="1153,-10 1153,-30 1173,-30 1173,-10 1153,-10"/>
<text text-anchor="start" x="1176.7258" y="-15.4" font-family="sans-serif" font-size="14.00" fill="#000000"> &#160;Exports</text>
<g id="clust1" class="cluster">
<title>cluster_DataModule</title>
<polygon fill="none" stroke="#000000" stroke-dasharray="1,5" points="8,-70 8,-268 1982,-268 1982,-70 8,-70"/>
</g>
<g id="clust2" class="cluster">
<title>cluster_DataModule_declarations</title>
<polygon fill="none" stroke="#000000" points="1064,-78 1064,-130 1974,-130 1974,-78 1064,-78"/>
</g>
<g id="clust9" class="cluster">
<title>cluster_DataModule_imports</title>
<polygon fill="none" stroke="#000000" points="729,-78 729,-130 1056,-130 1056,-78 729,-78"/>
</g>
<g id="clust10" class="cluster">
<title>cluster_DataModule_exports</title>
<polygon fill="none" stroke="#000000" points="570,-208 570,-260 1295,-260 1295,-208 570,-208"/>
</g>
<g id="clust12" class="cluster">
<title>cluster_DataModule_providers</title>
<polygon fill="none" stroke="#000000" points="16,-78 16,-130 721,-130 721,-78 16,-78"/>
</g>
<!-- EntryListComponent -->
<g id="node1" class="node">
<title>EntryListComponent</title>
<polygon fill="#ffffb3" stroke="#000000" points="1966.2148,-122 1831.7852,-122 1831.7852,-86 1966.2148,-86 1966.2148,-122"/>
<text text-anchor="middle" x="1899" y="-99.8" font-family="Times,serif" font-size="14.00" fill="#000000">EntryListComponent</text>
</g>
<!-- DataModule -->
<g id="node7" class="node">
<title>DataModule</title>
<polygon fill="#8dd3c7" stroke="#000000" points="977.9762,-187 974.9762,-191 953.9762,-191 950.9762,-187 892.0238,-187 892.0238,-151 977.9762,-151 977.9762,-187"/>
<text text-anchor="middle" x="935" y="-164.8" font-family="Times,serif" font-size="14.00" fill="#000000">DataModule</text>
</g>
<!-- EntryListComponent&#45;&gt;DataModule -->
<g id="edge1" class="edge">
<title>EntryListComponent&#45;&gt;DataModule</title>
<path fill="none" stroke="#000000" d="M1899,-122.2843C1899,-143.3211 1899,-175 1899,-175 1899,-175 987.9793,-175 987.9793,-175"/>
<polygon fill="#000000" stroke="#000000" points="987.9793,-171.5001 977.9793,-175 987.9792,-178.5001 987.9793,-171.5001"/>
</g>
<!-- EntryComponent -->
<g id="node2" class="node">
<title>EntryComponent</title>
<polygon fill="#ffffb3" stroke="#000000" points="1814.437,-122 1701.563,-122 1701.563,-86 1814.437,-86 1814.437,-122"/>
<text text-anchor="middle" x="1758" y="-99.8" font-family="Times,serif" font-size="14.00" fill="#000000">EntryComponent</text>
</g>
<!-- EntryComponent&#45;&gt;DataModule -->
<g id="edge2" class="edge">
<title>EntryComponent&#45;&gt;DataModule</title>
<path fill="none" stroke="#000000" d="M1758,-122.308C1758,-142.1455 1758,-171 1758,-171 1758,-171 988.0893,-171 988.0893,-171"/>
<polygon fill="#000000" stroke="#000000" points="988.0893,-167.5001 978.0893,-171 988.0893,-174.5001 988.0893,-167.5001"/>
</g>
<!-- EntriesComponent -->
<g id="node3" class="node">
<title>EntriesComponent</title>
<polygon fill="#ffffb3" stroke="#000000" points="1683.486,-122 1562.514,-122 1562.514,-86 1683.486,-86 1683.486,-122"/>
<text text-anchor="middle" x="1623" y="-99.8" font-family="Times,serif" font-size="14.00" fill="#000000">EntriesComponent</text>
</g>
<!-- EntriesComponent&#45;&gt;DataModule -->
<g id="edge3" class="edge">
<title>EntriesComponent&#45;&gt;DataModule</title>
<path fill="none" stroke="#000000" d="M1623,-122.2222C1623,-140.8285 1623,-167 1623,-167 1623,-167 988.0375,-167 988.0375,-167"/>
<polygon fill="#000000" stroke="#000000" points="988.0375,-163.5001 978.0375,-167 988.0374,-170.5001 988.0375,-163.5001"/>
</g>
<!-- EntryFormComponent -->
<g id="node4" class="node">
<title>EntryFormComponent</title>
<polygon fill="#ffffb3" stroke="#000000" points="1544.2702,-122 1401.7298,-122 1401.7298,-86 1544.2702,-86 1544.2702,-122"/>
<text text-anchor="middle" x="1473" y="-99.8" font-family="Times,serif" font-size="14.00" fill="#000000">EntryFormComponent</text>
</g>
<!-- EntryFormComponent&#45;&gt;DataModule -->
<g id="edge4" class="edge">
<title>EntryFormComponent&#45;&gt;DataModule</title>
<path fill="none" stroke="#000000" d="M1473,-122.0225C1473,-139.3734 1473,-163 1473,-163 1473,-163 988.1174,-163 988.1174,-163"/>
<polygon fill="#000000" stroke="#000000" points="988.1174,-159.5001 978.1174,-163 988.1173,-166.5001 988.1174,-159.5001"/>
</g>
<!-- DefaultEntryInputComponent -->
<g id="node5" class="node">
<title>DefaultEntryInputComponent</title>
<polygon fill="#ffffb3" stroke="#000000" points="1383.965,-122 1200.035,-122 1200.035,-86 1383.965,-86 1383.965,-122"/>
<text text-anchor="middle" x="1292" y="-99.8" font-family="Times,serif" font-size="14.00" fill="#000000">DefaultEntryInputComponent</text>
</g>
<!-- DefaultEntryInputComponent&#45;&gt;DataModule -->
<g id="edge5" class="edge">
<title>DefaultEntryInputComponent&#45;&gt;DataModule</title>
<path fill="none" stroke="#000000" d="M1243.4374,-122.0091C1243.4374,-138.0494 1243.4374,-159 1243.4374,-159 1243.4374,-159 988.2117,-159 988.2117,-159"/>
<polygon fill="#000000" stroke="#000000" points="988.2117,-155.5001 978.2117,-159 988.2116,-162.5001 988.2117,-155.5001"/>
</g>
<!-- CrudComponent -->
<g id="node6" class="node">
<title>CrudComponent</title>
<polygon fill="#ffffb3" stroke="#000000" points="1181.8301,-122 1072.1699,-122 1072.1699,-86 1181.8301,-86 1181.8301,-122"/>
<text text-anchor="middle" x="1127" y="-99.8" font-family="Times,serif" font-size="14.00" fill="#000000">CrudComponent</text>
</g>
<!-- CrudComponent&#45;&gt;DataModule -->
<g id="edge6" class="edge">
<title>CrudComponent&#45;&gt;DataModule</title>
<path fill="none" stroke="#000000" d="M1101.6517,-122.1243C1101.6517,-136.7832 1101.6517,-155 1101.6517,-155 1101.6517,-155 988.3507,-155 988.3507,-155"/>
<polygon fill="#000000" stroke="#000000" points="988.3508,-151.5001 978.3507,-155 988.3507,-158.5001 988.3508,-151.5001"/>
</g>
<!-- EntryListComponent  -->
<g id="node11" class="node">
<title>EntryListComponent </title>
<polygon fill="#fb8072" stroke="#000000" points="1286.7149,-252 1149.2851,-252 1149.2851,-216 1286.7149,-216 1286.7149,-252"/>
<text text-anchor="middle" x="1218" y="-229.8" font-family="Times,serif" font-size="14.00" fill="#000000">EntryListComponent </text>
</g>
<!-- DataModule&#45;&gt;EntryListComponent  -->
<g id="edge10" class="edge">
<title>DataModule&#45;&gt;EntryListComponent </title>
<path fill="none" stroke="#000000" stroke-dasharray="5,2" d="M978.0669,-179C1044.7541,-179 1165.4038,-179 1165.4038,-179 1165.4038,-179 1165.4038,-205.9909 1165.4038,-205.9909"/>
<polygon fill="#000000" stroke="#000000" points="1161.9038,-205.9909 1165.4038,-215.9909 1168.9038,-205.991 1161.9038,-205.9909"/>
</g>
<!-- EntryComponent  -->
<g id="node12" class="node">
<title>EntryComponent </title>
<polygon fill="#fb8072" stroke="#000000" points="1130.9362,-252 1015.0638,-252 1015.0638,-216 1130.9362,-216 1130.9362,-252"/>
<text text-anchor="middle" x="1073" y="-229.8" font-family="Times,serif" font-size="14.00" fill="#000000">EntryComponent </text>
</g>
<!-- DataModule&#45;&gt;EntryComponent  -->
<g id="edge11" class="edge">
<title>DataModule&#45;&gt;EntryComponent </title>
<path fill="none" stroke="#000000" stroke-dasharray="5,2" d="M978.0035,-183C1003.8456,-183 1031.7593,-183 1031.7593,-183 1031.7593,-183 1031.7593,-205.8757 1031.7593,-205.8757"/>
<polygon fill="#000000" stroke="#000000" points="1028.2594,-205.8757 1031.7593,-215.8757 1035.2594,-205.8757 1028.2594,-205.8757"/>
</g>
<!-- EntriesComponent  -->
<g id="node13" class="node">
<title>EntriesComponent </title>
<polygon fill="#fb8072" stroke="#000000" points="997.487,-252 872.513,-252 872.513,-216 997.487,-216 997.487,-252"/>
<text text-anchor="middle" x="935" y="-229.8" font-family="Times,serif" font-size="14.00" fill="#000000">EntriesComponent </text>
</g>
<!-- DataModule&#45;&gt;EntriesComponent  -->
<g id="edge12" class="edge">
<title>DataModule&#45;&gt;EntriesComponent </title>
<path fill="none" stroke="#000000" stroke-dasharray="5,2" d="M935,-187.1061C935,-187.1061 935,-205.991 935,-205.991"/>
<polygon fill="#000000" stroke="#000000" points="931.5001,-205.9909 935,-215.991 938.5001,-205.991 931.5001,-205.9909"/>
</g>
<!-- EntryFormComponent  -->
<g id="node14" class="node">
<title>EntryFormComponent </title>
<polygon fill="#fb8072" stroke="#000000" points="855.2702,-252 708.7298,-252 708.7298,-216 855.2702,-216 855.2702,-252"/>
<text text-anchor="middle" x="782" y="-229.8" font-family="Times,serif" font-size="14.00" fill="#000000">EntryFormComponent </text>
</g>
<!-- DataModule&#45;&gt;EntryFormComponent  -->
<g id="edge13" class="edge">
<title>DataModule&#45;&gt;EntryFormComponent </title>
<path fill="none" stroke="#000000" stroke-dasharray="5,2" d="M891.9167,-183C867.4798,-183 841.7355,-183 841.7355,-183 841.7355,-183 841.7355,-205.8757 841.7355,-205.8757"/>
<polygon fill="#000000" stroke="#000000" points="838.2355,-205.8757 841.7355,-215.8757 845.2355,-205.8757 838.2355,-205.8757"/>
</g>
<!-- CrudComponent  -->
<g id="node15" class="node">
<title>CrudComponent </title>
<polygon fill="#fb8072" stroke="#000000" points="690.3297,-252 577.6703,-252 577.6703,-216 690.3297,-216 690.3297,-252"/>
<text text-anchor="middle" x="634" y="-229.8" font-family="Times,serif" font-size="14.00" fill="#000000">CrudComponent </text>
</g>
<!-- DataModule&#45;&gt;CrudComponent  -->
<g id="edge14" class="edge">
<title>DataModule&#45;&gt;CrudComponent </title>
<path fill="none" stroke="#000000" stroke-dasharray="5,2" d="M891.8384,-179C811.412,-179 646.6988,-179 646.6988,-179 646.6988,-179 646.6988,-205.9909 646.6988,-205.9909"/>
<polygon fill="#000000" stroke="#000000" points="643.1989,-205.9909 646.6988,-215.9909 650.1989,-205.991 643.1989,-205.9909"/>
</g>
<!-- BrowserModule -->
<g id="node8" class="node">
<title>BrowserModule</title>
<polygon fill="#8dd3c7" stroke="#000000" points="1048.4734,-122 1045.4734,-126 1024.4734,-126 1021.4734,-122 941.5266,-122 941.5266,-86 1048.4734,-86 1048.4734,-122"/>
<text text-anchor="middle" x="995" y="-99.8" font-family="Times,serif" font-size="14.00" fill="#000000">BrowserModule</text>
</g>
<!-- BrowserModule&#45;&gt;DataModule -->
<g id="edge7" class="edge">
<title>BrowserModule&#45;&gt;DataModule</title>
<path fill="none" stroke="#000000" d="M959.7507,-122.1061C959.7507,-122.1061 959.7507,-140.991 959.7507,-140.991"/>
<polygon fill="#000000" stroke="#000000" points="956.2508,-140.9909 959.7507,-150.991 963.2508,-140.991 956.2508,-140.9909"/>
</g>
<!-- FormsModule -->
<g id="node9" class="node">
<title>FormsModule</title>
<polygon fill="#8dd3c7" stroke="#000000" points="923.8288,-122 920.8288,-126 899.8288,-126 896.8288,-122 828.1712,-122 828.1712,-86 923.8288,-86 923.8288,-122"/>
<text text-anchor="middle" x="876" y="-99.8" font-family="Times,serif" font-size="14.00" fill="#000000">FormsModule</text>
</g>
<!-- FormsModule&#45;&gt;DataModule -->
<g id="edge8" class="edge">
<title>FormsModule&#45;&gt;DataModule</title>
<path fill="none" stroke="#000000" d="M907.838,-122.1061C907.838,-122.1061 907.838,-140.991 907.838,-140.991"/>
<polygon fill="#000000" stroke="#000000" points="904.3381,-140.9909 907.838,-150.991 911.3381,-140.991 904.3381,-140.9909"/>
</g>
<!-- UiModule -->
<g id="node10" class="node">
<title>UiModule</title>
<polygon fill="#8dd3c7" stroke="#000000" points="810.5484,-122 807.5484,-126 786.5484,-126 783.5484,-122 737.4516,-122 737.4516,-86 810.5484,-86 810.5484,-122"/>
<text text-anchor="middle" x="774" y="-99.8" font-family="Times,serif" font-size="14.00" fill="#000000">UiModule</text>
</g>
<!-- UiModule&#45;&gt;DataModule -->
<g id="edge9" class="edge">
<title>UiModule&#45;&gt;DataModule</title>
<path fill="none" stroke="#000000" d="M774,-122.1243C774,-136.7832 774,-155 774,-155 774,-155 881.855,-155 881.855,-155"/>
<polygon fill="#000000" stroke="#000000" points="881.855,-158.5001 891.855,-155 881.8549,-151.5001 881.855,-158.5001"/>
</g>
<!-- SdkService -->
<g id="node16" class="node">
<title>SdkService</title>
<ellipse fill="#fdb462" stroke="#000000" cx="658" cy="-104" rx="55.0343" ry="18"/>
<text text-anchor="middle" x="658" y="-99.8" font-family="Times,serif" font-size="14.00" fill="#000000">SdkService</text>
</g>
<!-- SdkService&#45;&gt;DataModule -->
<g id="edge15" class="edge">
<title>SdkService&#45;&gt;DataModule</title>
<path fill="none" stroke="#000000" d="M699.6399,-115.9342C699.6399,-132.1101 699.6399,-159 699.6399,-159 699.6399,-159 881.8313,-159 881.8313,-159"/>
<polygon fill="#000000" stroke="#000000" points="881.8314,-162.5001 891.8313,-159 881.8313,-155.5001 881.8314,-162.5001"/>
</g>
<!-- PublicService -->
<g id="node17" class="node">
<title>PublicService</title>
<ellipse fill="#fdb462" stroke="#000000" cx="520" cy="-104" rx="64.8428" ry="18"/>
<text text-anchor="middle" x="520" y="-99.8" font-family="Times,serif" font-size="14.00" fill="#000000">PublicService</text>
</g>
<!-- PublicService&#45;&gt;DataModule -->
<g id="edge16" class="edge">
<title>PublicService&#45;&gt;DataModule</title>
<path fill="none" stroke="#000000" d="M581.1282,-110.314C581.1282,-125.5344 581.1282,-163 581.1282,-163 581.1282,-163 881.9622,-163 881.9622,-163"/>
<polygon fill="#000000" stroke="#000000" points="881.9622,-166.5001 891.9622,-163 881.9621,-159.5001 881.9622,-166.5001"/>
</g>
<!-- AdminService -->
<g id="node18" class="node">
<title>AdminService</title>
<ellipse fill="#fdb462" stroke="#000000" cx="371" cy="-104" rx="66.6325" ry="18"/>
<text text-anchor="middle" x="371" y="-99.8" font-family="Times,serif" font-size="14.00" fill="#000000">AdminService</text>
</g>
<!-- AdminService&#45;&gt;DataModule -->
<g id="edge17" class="edge">
<title>AdminService&#45;&gt;DataModule</title>
<path fill="none" stroke="#000000" d="M371,-122.2222C371,-140.8285 371,-167 371,-167 371,-167 881.6804,-167 881.6804,-167"/>
<polygon fill="#000000" stroke="#000000" points="881.6804,-170.5001 891.6804,-167 881.6803,-163.5001 881.6804,-170.5001"/>
</g>
<!-- CrudService -->
<g id="node19" class="node">
<title>CrudService</title>
<ellipse fill="#fdb462" stroke="#000000" cx="227" cy="-104" rx="59.1083" ry="18"/>
<text text-anchor="middle" x="227" y="-99.8" font-family="Times,serif" font-size="14.00" fill="#000000">CrudService</text>
</g>
<!-- CrudService&#45;&gt;DataModule -->
<g id="edge18" class="edge">
<title>CrudService&#45;&gt;DataModule</title>
<path fill="none" stroke="#000000" d="M227,-122.308C227,-142.1455 227,-171 227,-171 227,-171 881.7772,-171 881.7772,-171"/>
<polygon fill="#000000" stroke="#000000" points="881.7772,-174.5001 891.7772,-171 881.7772,-167.5001 881.7772,-174.5001"/>
</g>
<!-- ModelConfig -->
<g id="node20" class="node">
<title>ModelConfig</title>
<ellipse fill="#fdb462" stroke="#000000" cx="87" cy="-104" rx="63.1441" ry="18"/>
<text text-anchor="middle" x="87" y="-99.8" font-family="Times,serif" font-size="14.00" fill="#000000">ModelConfig</text>
</g>
<!-- ModelConfig&#45;&gt;DataModule -->
<g id="edge19" class="edge">
<title>ModelConfig&#45;&gt;DataModule</title>
<path fill="none" stroke="#000000" d="M87,-122.2843C87,-143.3211 87,-175 87,-175 87,-175 881.7817,-175 881.7817,-175"/>
<polygon fill="#000000" stroke="#000000" points="881.7818,-178.5001 891.7817,-175 881.7817,-171.5001 881.7818,-178.5001"/>
</g>
</g>
</svg>
