<?xml version="1.0" encoding="UTF-8" standalone="no"?>
<!DOCTYPE svg PUBLIC "-//W3C//DTD SVG 1.1//EN"
 "http://www.w3.org/Graphics/SVG/1.1/DTD/svg11.dtd">
<!-- Generated by graphviz version 2.40.1 (20161225.0304)
 -->
<!-- Title: dependencies Pages: 1 -->
<svg width="2194pt" height="284pt"
 viewBox="0.00 0.00 2194.00 284.00" xmlns="http://www.w3.org/2000/svg" xmlns:xlink="http://www.w3.org/1999/xlink">
<g id="graph0" class="graph" transform="scale(1 1) rotate(0) translate(4 280)">
<title>dependencies</title>
<polygon fill="#ffffff" stroke="transparent" points="-4,4 -4,-280 2190,-280 2190,4 -4,4"/>
<text text-anchor="start" x="1072.0091" y="-42.4" font-family="sans-serif" font-weight="bold" font-size="14.00" fill="#000000">Legend</text>
<polygon fill="#ffffb3" stroke="transparent" points="859,-10 859,-30 879,-30 879,-10 859,-10"/>
<text text-anchor="start" x="882.629" y="-15.4" font-family="sans-serif" font-size="14.00" fill="#000000"> &#160;Declarations</text>
<polygon fill="#8dd3c7" stroke="transparent" points="972,-10 972,-30 992,-30 992,-10 972,-10"/>
<text text-anchor="start" x="995.7251" y="-15.4" font-family="sans-serif" font-size="14.00" fill="#000000"> &#160;Module</text>
<polygon fill="#80b1d3" stroke="transparent" points="1058,-10 1058,-30 1078,-30 1078,-10 1058,-10"/>
<text text-anchor="start" x="1081.7812" y="-15.4" font-family="sans-serif" font-size="14.00" fill="#000000"> &#160;Bootstrap</text>
<polygon fill="#fdb462" stroke="transparent" points="1155,-10 1155,-30 1175,-30 1175,-10 1155,-10"/>
<text text-anchor="start" x="1178.6732" y="-15.4" font-family="sans-serif" font-size="14.00" fill="#000000"> &#160;Providers</text>
<polygon fill="#fb8072" stroke="transparent" points="1251,-10 1251,-30 1271,-30 1271,-10 1251,-10"/>
<text text-anchor="start" x="1274.7258" y="-15.4" font-family="sans-serif" font-size="14.00" fill="#000000"> &#160;Exports</text>
<g id="clust1" class="cluster">
<title>cluster_DataModule</title>
<polygon fill="none" stroke="#000000" stroke-dasharray="1,5" points="8,-70 8,-268 2178,-268 2178,-70 8,-70"/>
</g>
<g id="clust2" class="cluster">
<title>cluster_DataModule_declarations</title>
<polygon fill="none" stroke="#000000" points="885,-78 885,-130 2170,-130 2170,-78 885,-78"/>
</g>
<g id="clust11" class="cluster">
<title>cluster_DataModule_imports</title>
<polygon fill="none" stroke="#000000" points="787,-78 787,-130 877,-130 877,-78 787,-78"/>
</g>
<g id="clust12" class="cluster">
<title>cluster_DataModule_exports</title>
<polygon fill="none" stroke="#000000" points="583,-208 583,-260 1476,-260 1476,-208 583,-208"/>
</g>
<g id="clust14" class="cluster">
<title>cluster_DataModule_providers</title>
<polygon fill="none" stroke="#000000" points="16,-78 16,-130 779,-130 779,-78 16,-78"/>
</g>
<!-- EntryListComponent -->
<g id="node1" class="node">
<title>EntryListComponent</title>
<polygon fill="#ffffb3" stroke="#000000" points="2162.2148,-122 2027.7852,-122 2027.7852,-86 2162.2148,-86 2162.2148,-122"/>
<text text-anchor="middle" x="2095" y="-99.8" font-family="Times,serif" font-size="14.00" fill="#000000">EntryListComponent</text>
</g>
<!-- DataModule -->
<g id="node9" class="node">
<title>DataModule</title>
<polygon fill="#8dd3c7" stroke="#000000" points="1081.9762,-187 1078.9762,-191 1057.9762,-191 1054.9762,-187 996.0238,-187 996.0238,-151 1081.9762,-151 1081.9762,-187"/>
<text text-anchor="middle" x="1039" y="-164.8" font-family="Times,serif" font-size="14.00" fill="#000000">DataModule</text>
</g>
<!-- EntryListComponent&#45;&gt;DataModule -->
<g id="edge1" class="edge">
<title>EntryListComponent&#45;&gt;DataModule</title>
<path fill="none" stroke="#000000" d="M2095,-122.2843C2095,-143.3211 2095,-175 2095,-175 2095,-175 1092.0342,-175 1092.0342,-175"/>
<polygon fill="#000000" stroke="#000000" points="1092.0342,-171.5001 1082.0342,-175 1092.0342,-178.5001 1092.0342,-171.5001"/>
</g>
<!-- EntryComponent -->
<g id="node2" class="node">
<title>EntryComponent</title>
<polygon fill="#ffffb3" stroke="#000000" points="2010.437,-122 1897.563,-122 1897.563,-86 2010.437,-86 2010.437,-122"/>
<text text-anchor="middle" x="1954" y="-99.8" font-family="Times,serif" font-size="14.00" fill="#000000">EntryComponent</text>
</g>
<!-- EntryComponent&#45;&gt;DataModule -->
<g id="edge2" class="edge">
<title>EntryComponent&#45;&gt;DataModule</title>
<path fill="none" stroke="#000000" d="M1954,-122.308C1954,-142.1455 1954,-171 1954,-171 1954,-171 1092.2105,-171 1092.2105,-171"/>
<polygon fill="#000000" stroke="#000000" points="1092.2105,-167.5001 1082.2105,-171 1092.2104,-174.5001 1092.2105,-167.5001"/>
</g>
<!-- EntriesComponent -->
<g id="node3" class="node">
<title>EntriesComponent</title>
<polygon fill="#ffffb3" stroke="#000000" points="1879.486,-122 1758.514,-122 1758.514,-86 1879.486,-86 1879.486,-122"/>
<text text-anchor="middle" x="1819" y="-99.8" font-family="Times,serif" font-size="14.00" fill="#000000">EntriesComponent</text>
</g>
<!-- EntriesComponent&#45;&gt;DataModule -->
<g id="edge3" class="edge">
<title>EntriesComponent&#45;&gt;DataModule</title>
<path fill="none" stroke="#000000" d="M1819,-122.2222C1819,-140.8285 1819,-167 1819,-167 1819,-167 1092.0472,-167 1092.0472,-167"/>
<polygon fill="#000000" stroke="#000000" points="1092.0473,-163.5001 1082.0472,-167 1092.0472,-170.5001 1092.0473,-163.5001"/>
</g>
<!-- EntryFormComponent -->
<g id="node4" class="node">
<title>EntryFormComponent</title>
<polygon fill="#ffffb3" stroke="#000000" points="1740.2702,-122 1597.7298,-122 1597.7298,-86 1740.2702,-86 1740.2702,-122"/>
<text text-anchor="middle" x="1669" y="-99.8" font-family="Times,serif" font-size="14.00" fill="#000000">EntryFormComponent</text>
</g>
<!-- EntryFormComponent&#45;&gt;DataModule -->
<g id="edge4" class="edge">
<title>EntryFormComponent&#45;&gt;DataModule</title>
<path fill="none" stroke="#000000" d="M1669,-122.0225C1669,-139.3734 1669,-163 1669,-163 1669,-163 1092.3025,-163 1092.3025,-163"/>
<polygon fill="#000000" stroke="#000000" points="1092.3025,-159.5001 1082.3025,-163 1092.3024,-166.5001 1092.3025,-159.5001"/>
</g>
<!-- DefaultEntryInputComponent -->
<g id="node5" class="node">
<title>DefaultEntryInputComponent</title>
<polygon fill="#ffffb3" stroke="#000000" points="1579.965,-122 1396.035,-122 1396.035,-86 1579.965,-86 1579.965,-122"/>
<text text-anchor="middle" x="1488" y="-99.8" font-family="Times,serif" font-size="14.00" fill="#000000">DefaultEntryInputComponent</text>
</g>
<!-- DefaultEntryInputComponent&#45;&gt;DataModule -->
<g id="edge5" class="edge">
<title>DefaultEntryInputComponent&#45;&gt;DataModule</title>
<path fill="none" stroke="#000000" d="M1431.9374,-122.0091C1431.9374,-138.0494 1431.9374,-159 1431.9374,-159 1431.9374,-159 1092.1752,-159 1092.1752,-159"/>
<polygon fill="#000000" stroke="#000000" points="1092.1752,-155.5001 1082.1752,-159 1092.1752,-162.5001 1092.1752,-155.5001"/>
</g>
<!-- DefaultEntryOutputComponent -->
<g id="node6" class="node">
<title>DefaultEntryOutputComponent</title>
<polygon fill="#ffffb3" stroke="#000000" points="1377.8018,-122 1184.1982,-122 1184.1982,-86 1377.8018,-86 1377.8018,-122"/>
<text text-anchor="middle" x="1281" y="-99.8" font-family="Times,serif" font-size="14.00" fill="#000000">DefaultEntryOutputComponent</text>
</g>
<!-- DefaultEntryOutputComponent&#45;&gt;DataModule -->
<g id="edge6" class="edge">
<title>DefaultEntryOutputComponent&#45;&gt;DataModule</title>
<path fill="none" stroke="#000000" d="M1190.1906,-122.1243C1190.1906,-136.7832 1190.1906,-155 1190.1906,-155 1190.1906,-155 1092.3251,-155 1092.3251,-155"/>
<polygon fill="#000000" stroke="#000000" points="1092.3252,-151.5001 1082.3251,-155 1092.3251,-158.5001 1092.3252,-151.5001"/>
</g>
<!-- CrudComponent -->
<g id="node7" class="node">
<title>CrudComponent</title>
<polygon fill="#ffffb3" stroke="#000000" points="1166.8301,-122 1057.1699,-122 1057.1699,-86 1166.8301,-86 1166.8301,-122"/>
<text text-anchor="middle" x="1112" y="-99.8" font-family="Times,serif" font-size="14.00" fill="#000000">CrudComponent</text>
</g>
<!-- CrudComponent&#45;&gt;DataModule -->
<g id="edge7" class="edge">
<title>CrudComponent&#45;&gt;DataModule</title>
<path fill="none" stroke="#000000" d="M1069.6617,-122.1061C1069.6617,-122.1061 1069.6617,-140.991 1069.6617,-140.991"/>
<polygon fill="#000000" stroke="#000000" points="1066.1617,-140.9909 1069.6617,-150.991 1073.1617,-140.991 1066.1617,-140.9909"/>
</g>
<!-- EntrySelectComponent -->
<g id="node8" class="node">
<title>EntrySelectComponent</title>
<polygon fill="#ffffb3" stroke="#000000" points="1039.1442,-122 892.8558,-122 892.8558,-86 1039.1442,-86 1039.1442,-122"/>
<text text-anchor="middle" x="966" y="-99.8" font-family="Times,serif" font-size="14.00" fill="#000000">EntrySelectComponent</text>
</g>
<!-- EntrySelectComponent&#45;&gt;DataModule -->
<g id="edge8" class="edge">
<title>EntrySelectComponent&#45;&gt;DataModule</title>
<path fill="none" stroke="#000000" d="M1017.6669,-122.1061C1017.6669,-122.1061 1017.6669,-140.991 1017.6669,-140.991"/>
<polygon fill="#000000" stroke="#000000" points="1014.167,-140.9909 1017.6669,-150.991 1021.167,-140.991 1014.167,-140.9909"/>
</g>
<!-- EntryListComponent  -->
<g id="node11" class="node">
<title>EntryListComponent </title>
<polygon fill="#fb8072" stroke="#000000" points="1467.7149,-252 1330.2851,-252 1330.2851,-216 1467.7149,-216 1467.7149,-252"/>
<text text-anchor="middle" x="1399" y="-229.8" font-family="Times,serif" font-size="14.00" fill="#000000">EntryListComponent </text>
</g>
<!-- DataModule&#45;&gt;EntryListComponent  -->
<g id="edge10" class="edge">
<title>DataModule&#45;&gt;EntryListComponent </title>
<path fill="none" stroke="#000000" stroke-dasharray="5,2" d="M1082.1248,-179C1168.3671,-179 1353.8967,-179 1353.8967,-179 1353.8967,-179 1353.8967,-205.9909 1353.8967,-205.9909"/>
<polygon fill="#000000" stroke="#000000" points="1350.3968,-205.9909 1353.8967,-215.9909 1357.3968,-205.991 1350.3968,-205.9909"/>
</g>
<!-- EntryComponent  -->
<g id="node12" class="node">
<title>EntryComponent </title>
<polygon fill="#fb8072" stroke="#000000" points="1311.9362,-252 1196.0638,-252 1196.0638,-216 1311.9362,-216 1311.9362,-252"/>
<text text-anchor="middle" x="1254" y="-229.8" font-family="Times,serif" font-size="14.00" fill="#000000">EntryComponent </text>
</g>
<!-- DataModule&#45;&gt;EntryComponent  -->
<g id="edge11" class="edge">
<title>DataModule&#45;&gt;EntryComponent </title>
<path fill="none" stroke="#000000" stroke-dasharray="5,2" d="M1081.9917,-183C1144.7342,-183 1254,-183 1254,-183 1254,-183 1254,-205.8757 1254,-205.8757"/>
<polygon fill="#000000" stroke="#000000" points="1250.5001,-205.8757 1254,-215.8757 1257.5001,-205.8757 1250.5001,-205.8757"/>
</g>
<!-- EntriesComponent  -->
<g id="node13" class="node">
<title>EntriesComponent </title>
<polygon fill="#fb8072" stroke="#000000" points="1178.487,-252 1053.513,-252 1053.513,-216 1178.487,-216 1178.487,-252"/>
<text text-anchor="middle" x="1116" y="-229.8" font-family="Times,serif" font-size="14.00" fill="#000000">EntriesComponent </text>
</g>
<!-- DataModule&#45;&gt;EntriesComponent  -->
<g id="edge12" class="edge">
<title>DataModule&#45;&gt;EntriesComponent </title>
<path fill="none" stroke="#000000" stroke-dasharray="5,2" d="M1067.8726,-187.1061C1067.8726,-187.1061 1067.8726,-205.991 1067.8726,-205.991"/>
<polygon fill="#000000" stroke="#000000" points="1064.3726,-205.9909 1067.8726,-215.991 1071.3726,-205.991 1064.3726,-205.9909"/>
</g>
<!-- EntryFormComponent  -->
<g id="node14" class="node">
<title>EntryFormComponent </title>
<polygon fill="#fb8072" stroke="#000000" points="1036.2702,-252 889.7298,-252 889.7298,-216 1036.2702,-216 1036.2702,-252"/>
<text text-anchor="middle" x="963" y="-229.8" font-family="Times,serif" font-size="14.00" fill="#000000">EntryFormComponent </text>
</g>
<!-- DataModule&#45;&gt;EntryFormComponent  -->
<g id="edge13" class="edge">
<title>DataModule&#45;&gt;EntryFormComponent </title>
<path fill="none" stroke="#000000" stroke-dasharray="5,2" d="M1016.0735,-187.1061C1016.0735,-187.1061 1016.0735,-205.991 1016.0735,-205.991"/>
<polygon fill="#000000" stroke="#000000" points="1012.5735,-205.9909 1016.0735,-215.991 1019.5735,-205.991 1012.5735,-205.9909"/>
</g>
<!-- CrudComponent  -->
<g id="node15" class="node">
<title>CrudComponent </title>
<polygon fill="#fb8072" stroke="#000000" points="871.3297,-252 758.6703,-252 758.6703,-216 871.3297,-216 871.3297,-252"/>
<text text-anchor="middle" x="815" y="-229.8" font-family="Times,serif" font-size="14.00" fill="#000000">CrudComponent </text>
</g>
<!-- DataModule&#45;&gt;CrudComponent  -->
<g id="edge14" class="edge">
<title>DataModule&#45;&gt;CrudComponent </title>
<path fill="none" stroke="#000000" stroke-dasharray="5,2" d="M995.9433,-183C932.0896,-183 819.7422,-183 819.7422,-183 819.7422,-183 819.7422,-205.8757 819.7422,-205.8757"/>
<polygon fill="#000000" stroke="#000000" points="816.2423,-205.8757 819.7422,-215.8757 823.2423,-205.8757 816.2423,-205.8757"/>
</g>
<!-- EntrySelectComponent  -->
<g id="node16" class="node">
<title>EntrySelectComponent </title>
<polygon fill="#fb8072" stroke="#000000" points="741.1439,-252 590.8561,-252 590.8561,-216 741.1439,-216 741.1439,-252"/>
<text text-anchor="middle" x="666" y="-229.8" font-family="Times,serif" font-size="14.00" fill="#000000">EntrySelectComponent </text>
</g>
<!-- DataModule&#45;&gt;EntrySelectComponent  -->
<g id="edge15" class="edge">
<title>DataModule&#45;&gt;EntrySelectComponent </title>
<path fill="none" stroke="#000000" stroke-dasharray="5,2" d="M995.8522,-179C904.739,-179 701.0274,-179 701.0274,-179 701.0274,-179 701.0274,-205.9909 701.0274,-205.9909"/>
<polygon fill="#000000" stroke="#000000" points="697.5275,-205.9909 701.0274,-215.9909 704.5275,-205.991 697.5275,-205.9909"/>
</g>
<!-- UiModule -->
<g id="node10" class="node">
<title>UiModule</title>
<polygon fill="#8dd3c7" stroke="#000000" points="868.5484,-122 865.5484,-126 844.5484,-126 841.5484,-122 795.4516,-122 795.4516,-86 868.5484,-86 868.5484,-122"/>
<text text-anchor="middle" x="832" y="-99.8" font-family="Times,serif" font-size="14.00" fill="#000000">UiModule</text>
</g>
<!-- UiModule&#45;&gt;DataModule -->
<g id="edge9" class="edge">
<title>UiModule&#45;&gt;DataModule</title>
<path fill="none" stroke="#000000" d="M844.2578,-122.1243C844.2578,-136.7832 844.2578,-155 844.2578,-155 844.2578,-155 985.7804,-155 985.7804,-155"/>
<polygon fill="#000000" stroke="#000000" points="985.7804,-158.5001 995.7804,-155 985.7804,-151.5001 985.7804,-158.5001"/>
</g>
<!-- SdkService -->
<g id="node17" class="node">
<title>SdkService</title>
<ellipse fill="#fdb462" stroke="#000000" cx="716" cy="-104" rx="55.0343" ry="18"/>
<text text-anchor="middle" x="716" y="-99.8" font-family="Times,serif" font-size="14.00" fill="#000000">SdkService</text>
</g>
<!-- SdkService&#45;&gt;DataModule -->
<g id="edge16" class="edge">
<title>SdkService&#45;&gt;DataModule</title>
<path fill="none" stroke="#000000" d="M764.8012,-112.5938C764.8012,-128.0625 764.8012,-159 764.8012,-159 764.8012,-159 985.8548,-159 985.8548,-159"/>
<polygon fill="#000000" stroke="#000000" points="985.8548,-162.5001 995.8548,-159 985.8548,-155.5001 985.8548,-162.5001"/>
</g>
<!-- PublicService -->
<g id="node18" class="node">
<title>PublicService</title>
<ellipse fill="#fdb462" stroke="#000000" cx="578" cy="-104" rx="64.8428" ry="18"/>
<text text-anchor="middle" x="578" y="-99.8" font-family="Times,serif" font-size="14.00" fill="#000000">PublicService</text>
</g>
<!-- PublicService&#45;&gt;DataModule -->
<g id="edge17" class="edge">
<title>PublicService&#45;&gt;DataModule</title>
<path fill="none" stroke="#000000" d="M616.7996,-118.5843C616.7996,-136.0559 616.7996,-163 616.7996,-163 616.7996,-163 985.8013,-163 985.8013,-163"/>
<polygon fill="#000000" stroke="#000000" points="985.8013,-166.5001 995.8013,-163 985.8012,-159.5001 985.8013,-166.5001"/>
</g>
<!-- AdminService -->
<g id="node19" class="node">
<title>AdminService</title>
<ellipse fill="#fdb462" stroke="#000000" cx="429" cy="-104" rx="66.6325" ry="18"/>
<text text-anchor="middle" x="429" y="-99.8" font-family="Times,serif" font-size="14.00" fill="#000000">AdminService</text>
</g>
<!-- AdminService&#45;&gt;DataModule -->
<g id="edge18" class="edge">
<title>AdminService&#45;&gt;DataModule</title>
<path fill="none" stroke="#000000" d="M429,-122.2222C429,-140.8285 429,-167 429,-167 429,-167 985.6193,-167 985.6193,-167"/>
<polygon fill="#000000" stroke="#000000" points="985.6194,-170.5001 995.6193,-167 985.6193,-163.5001 985.6194,-170.5001"/>
</g>
<!-- CrudService -->
<g id="node20" class="node">
<title>CrudService</title>
<ellipse fill="#fdb462" stroke="#000000" cx="285" cy="-104" rx="59.1083" ry="18"/>
<text text-anchor="middle" x="285" y="-99.8" font-family="Times,serif" font-size="14.00" fill="#000000">CrudService</text>
</g>
<!-- CrudService&#45;&gt;DataModule -->
<g id="edge19" class="edge">
<title>CrudService&#45;&gt;DataModule</title>
<path fill="none" stroke="#000000" d="M285,-122.308C285,-142.1455 285,-171 285,-171 285,-171 985.7535,-171 985.7535,-171"/>
<polygon fill="#000000" stroke="#000000" points="985.7536,-174.5001 995.7535,-171 985.7535,-167.5001 985.7536,-174.5001"/>
</g>
<!-- ModelConfigService -->
<g id="node21" class="node">
<title>ModelConfigService</title>
<ellipse fill="#fdb462" stroke="#000000" cx="116" cy="-104" rx="92.0548" ry="18"/>
<text text-anchor="middle" x="116" y="-99.8" font-family="Times,serif" font-size="14.00" fill="#000000">ModelConfigService</text>
</g>
<!-- ModelConfigService&#45;&gt;DataModule -->
<g id="edge20" class="edge">
<title>ModelConfigService&#45;&gt;DataModule</title>
<path fill="none" stroke="#000000" d="M116,-122.2843C116,-143.3211 116,-175 116,-175 116,-175 985.7198,-175 985.7198,-175"/>
<polygon fill="#000000" stroke="#000000" points="985.7198,-178.5001 995.7198,-175 985.7197,-171.5001 985.7198,-178.5001"/>
</g>
</g>
</svg>
