<?xml version="1.0" encoding="UTF-8" standalone="no"?>
<!DOCTYPE svg PUBLIC "-//W3C//DTD SVG 1.1//EN"
 "http://www.w3.org/Graphics/SVG/1.1/DTD/svg11.dtd">
<!-- Generated by graphviz version 2.40.1 (20161225.0304)
 -->
<!-- Title: dependencies Pages: 1 -->
<svg width="1388pt" height="284pt"
 viewBox="0.00 0.00 1388.00 284.00" xmlns="http://www.w3.org/2000/svg" xmlns:xlink="http://www.w3.org/1999/xlink">
<g id="graph0" class="graph" transform="scale(1 1) rotate(0) translate(4 280)">
<title>dependencies</title>
<polygon fill="#ffffff" stroke="transparent" points="-4,4 -4,-280 1384,-280 1384,4 -4,4"/>
<text text-anchor="start" x="669.0091" y="-42.4" font-family="sans-serif" font-weight="bold" font-size="14.00" fill="#000000">Legend</text>
<polygon fill="#ffffb3" stroke="transparent" points="456,-10 456,-30 476,-30 476,-10 456,-10"/>
<text text-anchor="start" x="479.629" y="-15.4" font-family="sans-serif" font-size="14.00" fill="#000000"> &#160;Declarations</text>
<polygon fill="#8dd3c7" stroke="transparent" points="569,-10 569,-30 589,-30 589,-10 569,-10"/>
<text text-anchor="start" x="592.7251" y="-15.4" font-family="sans-serif" font-size="14.00" fill="#000000"> &#160;Module</text>
<polygon fill="#80b1d3" stroke="transparent" points="655,-10 655,-30 675,-30 675,-10 655,-10"/>
<text text-anchor="start" x="678.7812" y="-15.4" font-family="sans-serif" font-size="14.00" fill="#000000"> &#160;Bootstrap</text>
<polygon fill="#fdb462" stroke="transparent" points="752,-10 752,-30 772,-30 772,-10 752,-10"/>
<text text-anchor="start" x="775.6732" y="-15.4" font-family="sans-serif" font-size="14.00" fill="#000000"> &#160;Providers</text>
<polygon fill="#fb8072" stroke="transparent" points="848,-10 848,-30 868,-30 868,-10 848,-10"/>
<text text-anchor="start" x="871.7258" y="-15.4" font-family="sans-serif" font-size="14.00" fill="#000000"> &#160;Exports</text>
<g id="clust1" class="cluster">
<title>cluster_DataModule</title>
<polygon fill="none" stroke="#000000" stroke-dasharray="1,5" points="8,-70 8,-268 1372,-268 1372,-70 8,-70"/>
</g>
<g id="clust2" class="cluster">
<title>cluster_DataModule_declarations</title>
<polygon fill="none" stroke="#000000" points="784,-78 784,-130 1364,-130 1364,-78 784,-78"/>
</g>
<g id="clust7" class="cluster">
<title>cluster_DataModule_imports</title>
<polygon fill="none" stroke="#000000" points="449,-78 449,-130 776,-130 776,-78 449,-78"/>
</g>
<g id="clust8" class="cluster">
<title>cluster_DataModule_exports</title>
<polygon fill="none" stroke="#000000" points="352,-208 352,-260 946,-260 946,-208 352,-208"/>
</g>
<g id="clust10" class="cluster">
<title>cluster_DataModule_providers</title>
<polygon fill="none" stroke="#000000" points="16,-78 16,-130 441,-130 441,-78 16,-78"/>
</g>
<!-- EntryListComponent -->
<g id="node1" class="node">
<title>EntryListComponent</title>
<polygon fill="#ffffb3" stroke="#000000" points="1356.2148,-122 1221.7852,-122 1221.7852,-86 1356.2148,-86 1356.2148,-122"/>
<text text-anchor="middle" x="1289" y="-99.8" font-family="Times,serif" font-size="14.00" fill="#000000">EntryListComponent</text>
</g>
<!-- DataModule -->
<g id="node5" class="node">
<title>DataModule</title>
<polygon fill="#8dd3c7" stroke="#000000" points="697.9762,-187 694.9762,-191 673.9762,-191 670.9762,-187 612.0238,-187 612.0238,-151 697.9762,-151 697.9762,-187"/>
<text text-anchor="middle" x="655" y="-164.8" font-family="Times,serif" font-size="14.00" fill="#000000">DataModule</text>
</g>
<!-- EntryListComponent&#45;&gt;DataModule -->
<g id="edge1" class="edge">
<title>EntryListComponent&#45;&gt;DataModule</title>
<path fill="none" stroke="#000000" d="M1289,-122.2843C1289,-143.3211 1289,-175 1289,-175 1289,-175 708.079,-175 708.079,-175"/>
<polygon fill="#000000" stroke="#000000" points="708.079,-171.5001 698.079,-175 708.0789,-178.5001 708.079,-171.5001"/>
</g>
<!-- EntryComponent -->
<g id="node2" class="node">
<title>EntryComponent</title>
<polygon fill="#ffffb3" stroke="#000000" points="1204.437,-122 1091.563,-122 1091.563,-86 1204.437,-86 1204.437,-122"/>
<text text-anchor="middle" x="1148" y="-99.8" font-family="Times,serif" font-size="14.00" fill="#000000">EntryComponent</text>
</g>
<!-- EntryComponent&#45;&gt;DataModule -->
<g id="edge2" class="edge">
<title>EntryComponent&#45;&gt;DataModule</title>
<path fill="none" stroke="#000000" d="M1148,-122.1061C1148,-141.3391 1148,-169 1148,-169 1148,-169 708.3184,-169 708.3184,-169"/>
<polygon fill="#000000" stroke="#000000" points="708.3184,-165.5001 698.3184,-169 708.3183,-172.5001 708.3184,-165.5001"/>
</g>
<!-- EntriesComponent -->
<g id="node3" class="node">
<title>EntriesComponent</title>
<polygon fill="#ffffb3" stroke="#000000" points="1073.486,-122 952.514,-122 952.514,-86 1073.486,-86 1073.486,-122"/>
<text text-anchor="middle" x="1013" y="-99.8" font-family="Times,serif" font-size="14.00" fill="#000000">EntriesComponent</text>
</g>
<!-- EntriesComponent&#45;&gt;DataModule -->
<g id="edge3" class="edge">
<title>EntriesComponent&#45;&gt;DataModule</title>
<path fill="none" stroke="#000000" d="M1013,-122.0225C1013,-139.3734 1013,-163 1013,-163 1013,-163 708.1832,-163 708.1832,-163"/>
<polygon fill="#000000" stroke="#000000" points="708.1832,-159.5001 698.1832,-163 708.1831,-166.5001 708.1832,-159.5001"/>
</g>
<!-- EntryFormComponent -->
<g id="node4" class="node">
<title>EntryFormComponent</title>
<polygon fill="#ffffb3" stroke="#000000" points="934.2702,-122 791.7298,-122 791.7298,-86 934.2702,-86 934.2702,-122"/>
<text text-anchor="middle" x="863" y="-99.8" font-family="Times,serif" font-size="14.00" fill="#000000">EntryFormComponent</text>
</g>
<!-- EntryFormComponent&#45;&gt;DataModule -->
<g id="edge4" class="edge">
<title>EntryFormComponent&#45;&gt;DataModule</title>
<path fill="none" stroke="#000000" d="M795.8789,-122.2396C795.8789,-137.5706 795.8789,-157 795.8789,-157 795.8789,-157 708.0338,-157 708.0338,-157"/>
<polygon fill="#000000" stroke="#000000" points="708.0338,-153.5001 698.0338,-157 708.0338,-160.5001 708.0338,-153.5001"/>
</g>
<!-- EntryListComponent  -->
<g id="node9" class="node">
<title>EntryListComponent </title>
<polygon fill="#fb8072" stroke="#000000" points="937.7149,-252 800.2851,-252 800.2851,-216 937.7149,-216 937.7149,-252"/>
<text text-anchor="middle" x="869" y="-229.8" font-family="Times,serif" font-size="14.00" fill="#000000">EntryListComponent </text>
</g>
<!-- DataModule&#45;&gt;EntryListComponent  -->
<g id="edge8" class="edge">
<title>DataModule&#45;&gt;EntryListComponent </title>
<path fill="none" stroke="#000000" stroke-dasharray="5,2" d="M698.2106,-181C760.2734,-181 867.2639,-181 867.2639,-181 867.2639,-181 867.2639,-205.7604 867.2639,-205.7604"/>
<polygon fill="#000000" stroke="#000000" points="863.7639,-205.7604 867.2639,-215.7604 870.7639,-205.7604 863.7639,-205.7604"/>
</g>
<!-- EntryComponent  -->
<g id="node10" class="node">
<title>EntryComponent </title>
<polygon fill="#fb8072" stroke="#000000" points="781.9362,-252 666.0638,-252 666.0638,-216 781.9362,-216 781.9362,-252"/>
<text text-anchor="middle" x="724" y="-229.8" font-family="Times,serif" font-size="14.00" fill="#000000">EntryComponent </text>
</g>
<!-- DataModule&#45;&gt;EntryComponent  -->
<g id="edge9" class="edge">
<title>DataModule&#45;&gt;EntryComponent </title>
<path fill="none" stroke="#000000" stroke-dasharray="5,2" d="M682.01,-187.1061C682.01,-187.1061 682.01,-205.991 682.01,-205.991"/>
<polygon fill="#000000" stroke="#000000" points="678.5101,-205.9909 682.01,-215.991 685.5101,-205.991 678.5101,-205.9909"/>
</g>
<!-- EntriesComponent  -->
<g id="node11" class="node">
<title>EntriesComponent </title>
<polygon fill="#fb8072" stroke="#000000" points="648.487,-252 523.513,-252 523.513,-216 648.487,-216 648.487,-252"/>
<text text-anchor="middle" x="586" y="-229.8" font-family="Times,serif" font-size="14.00" fill="#000000">EntriesComponent </text>
</g>
<!-- DataModule&#45;&gt;EntriesComponent  -->
<g id="edge10" class="edge">
<title>DataModule&#45;&gt;EntriesComponent </title>
<path fill="none" stroke="#000000" stroke-dasharray="5,2" d="M630.1275,-187.1061C630.1275,-187.1061 630.1275,-205.991 630.1275,-205.991"/>
<polygon fill="#000000" stroke="#000000" points="626.6275,-205.9909 630.1275,-215.991 633.6275,-205.991 626.6275,-205.9909"/>
</g>
<!-- EntryFormComponent  -->
<g id="node12" class="node">
<title>EntryFormComponent </title>
<polygon fill="#fb8072" stroke="#000000" points="506.2702,-252 359.7298,-252 359.7298,-216 506.2702,-216 506.2702,-252"/>
<text text-anchor="middle" x="433" y="-229.8" font-family="Times,serif" font-size="14.00" fill="#000000">EntryFormComponent </text>
</g>
<!-- DataModule&#45;&gt;EntryFormComponent  -->
<g id="edge11" class="edge">
<title>DataModule&#45;&gt;EntryFormComponent </title>
<path fill="none" stroke="#000000" stroke-dasharray="5,2" d="M611.7113,-181C560.3754,-181 481.6808,-181 481.6808,-181 481.6808,-181 481.6808,-205.7604 481.6808,-205.7604"/>
<polygon fill="#000000" stroke="#000000" points="478.1808,-205.7604 481.6808,-215.7604 485.1808,-205.7604 478.1808,-205.7604"/>
</g>
<!-- BrowserModule -->
<g id="node6" class="node">
<title>BrowserModule</title>
<polygon fill="#8dd3c7" stroke="#000000" points="768.4734,-122 765.4734,-126 744.4734,-126 741.4734,-122 661.5266,-122 661.5266,-86 768.4734,-86 768.4734,-122"/>
<text text-anchor="middle" x="715" y="-99.8" font-family="Times,serif" font-size="14.00" fill="#000000">BrowserModule</text>
</g>
<!-- BrowserModule&#45;&gt;DataModule -->
<g id="edge5" class="edge">
<title>BrowserModule&#45;&gt;DataModule</title>
<path fill="none" stroke="#000000" d="M679.7507,-122.1061C679.7507,-122.1061 679.7507,-140.991 679.7507,-140.991"/>
<polygon fill="#000000" stroke="#000000" points="676.2508,-140.9909 679.7507,-150.991 683.2508,-140.991 676.2508,-140.9909"/>
</g>
<!-- FormsModule -->
<g id="node7" class="node">
<title>FormsModule</title>
<polygon fill="#8dd3c7" stroke="#000000" points="643.8288,-122 640.8288,-126 619.8288,-126 616.8288,-122 548.1712,-122 548.1712,-86 643.8288,-86 643.8288,-122"/>
<text text-anchor="middle" x="596" y="-99.8" font-family="Times,serif" font-size="14.00" fill="#000000">FormsModule</text>
</g>
<!-- FormsModule&#45;&gt;DataModule -->
<g id="edge6" class="edge">
<title>FormsModule&#45;&gt;DataModule</title>
<path fill="none" stroke="#000000" d="M627.838,-122.1061C627.838,-122.1061 627.838,-140.991 627.838,-140.991"/>
<polygon fill="#000000" stroke="#000000" points="624.3381,-140.9909 627.838,-150.991 631.3381,-140.991 624.3381,-140.9909"/>
</g>
<!-- UiModule -->
<g id="node8" class="node">
<title>UiModule</title>
<polygon fill="#8dd3c7" stroke="#000000" points="530.5484,-122 527.5484,-126 506.5484,-126 503.5484,-122 457.4516,-122 457.4516,-86 530.5484,-86 530.5484,-122"/>
<text text-anchor="middle" x="494" y="-99.8" font-family="Times,serif" font-size="14.00" fill="#000000">UiModule</text>
</g>
<!-- UiModule&#45;&gt;DataModule -->
<g id="edge7" class="edge">
<title>UiModule&#45;&gt;DataModule</title>
<path fill="none" stroke="#000000" d="M527.2653,-122.2396C527.2653,-137.5706 527.2653,-157 527.2653,-157 527.2653,-157 601.7548,-157 601.7548,-157"/>
<polygon fill="#000000" stroke="#000000" points="601.7549,-160.5001 611.7548,-157 601.7548,-153.5001 601.7549,-160.5001"/>
</g>
<!-- SdkService -->
<g id="node13" class="node">
<title>SdkService</title>
<ellipse fill="#fdb462" stroke="#000000" cx="378" cy="-104" rx="55.0343" ry="18"/>
<text text-anchor="middle" x="378" y="-99.8" font-family="Times,serif" font-size="14.00" fill="#000000">SdkService</text>
</g>
<!-- SdkService&#45;&gt;DataModule -->
<g id="edge12" class="edge">
<title>SdkService&#45;&gt;DataModule</title>
<path fill="none" stroke="#000000" d="M396.4411,-121.0652C396.4411,-138.4902 396.4411,-163 396.4411,-163 396.4411,-163 602.014,-163 602.014,-163"/>
<polygon fill="#000000" stroke="#000000" points="602.014,-166.5001 612.014,-163 602.014,-159.5001 602.014,-166.5001"/>
</g>
<!-- PublicService -->
<g id="node14" class="node">
<title>PublicService</title>
<ellipse fill="#fdb462" stroke="#000000" cx="240" cy="-104" rx="64.8428" ry="18"/>
<text text-anchor="middle" x="240" y="-99.8" font-family="Times,serif" font-size="14.00" fill="#000000">PublicService</text>
</g>
<!-- PublicService&#45;&gt;DataModule -->
<g id="edge13" class="edge">
<title>PublicService&#45;&gt;DataModule</title>
<path fill="none" stroke="#000000" d="M240,-122.1061C240,-141.3391 240,-169 240,-169 240,-169 601.7622,-169 601.7622,-169"/>
<polygon fill="#000000" stroke="#000000" points="601.7622,-172.5001 611.7622,-169 601.7621,-165.5001 601.7622,-172.5001"/>
</g>
<!-- AdminService -->
<g id="node15" class="node">
<title>AdminService</title>
<ellipse fill="#fdb462" stroke="#000000" cx="91" cy="-104" rx="66.6325" ry="18"/>
<text text-anchor="middle" x="91" y="-99.8" font-family="Times,serif" font-size="14.00" fill="#000000">AdminService</text>
</g>
<!-- AdminService&#45;&gt;DataModule -->
<g id="edge14" class="edge">
<title>AdminService&#45;&gt;DataModule</title>
<path fill="none" stroke="#000000" d="M91,-122.2843C91,-143.3211 91,-175 91,-175 91,-175 601.6804,-175 601.6804,-175"/>
<polygon fill="#000000" stroke="#000000" points="601.6804,-178.5001 611.6804,-175 601.6803,-171.5001 601.6804,-178.5001"/>
</g>
</g>
</svg>
