<?xml version="1.0" encoding="UTF-8" standalone="no"?>
<!DOCTYPE svg PUBLIC "-//W3C//DTD SVG 1.1//EN"
 "http://www.w3.org/Graphics/SVG/1.1/DTD/svg11.dtd">
<!-- Generated by graphviz version 2.47.0 (20210316.0004)
 -->
<!-- Title: dependencies Pages: 1 -->
<svg width="3428pt" height="284pt"
 viewBox="0.00 0.00 3428.00 284.00" xmlns="http://www.w3.org/2000/svg" xmlns:xlink="http://www.w3.org/1999/xlink">
<g id="graph0" class="graph" transform="scale(1 1) rotate(0) translate(4 280)">
<title>dependencies</title>
<polygon fill="white" stroke="transparent" points="-4,4 -4,-280 3424,-280 3424,4 -4,4"/>
<text text-anchor="start" x="1689.01" y="-42.4" font-family="sans-serif" font-weight="bold" font-size="14.00">Legend</text>
<polygon fill="#ffffb3" stroke="transparent" points="1476,-10 1476,-30 1496,-30 1496,-10 1476,-10"/>
<text text-anchor="start" x="1499.63" y="-15.4" font-family="sans-serif" font-size="14.00"> &#160;Declarations</text>
<polygon fill="#8dd3c7" stroke="transparent" points="1589,-10 1589,-30 1609,-30 1609,-10 1589,-10"/>
<text text-anchor="start" x="1612.73" y="-15.4" font-family="sans-serif" font-size="14.00"> &#160;Module</text>
<polygon fill="#80b1d3" stroke="transparent" points="1675,-10 1675,-30 1695,-30 1695,-10 1675,-10"/>
<text text-anchor="start" x="1698.78" y="-15.4" font-family="sans-serif" font-size="14.00"> &#160;Bootstrap</text>
<polygon fill="#fdb462" stroke="transparent" points="1772,-10 1772,-30 1792,-30 1792,-10 1772,-10"/>
<text text-anchor="start" x="1795.67" y="-15.4" font-family="sans-serif" font-size="14.00"> &#160;Providers</text>
<polygon fill="#fb8072" stroke="transparent" points="1868,-10 1868,-30 1888,-30 1888,-10 1868,-10"/>
<text text-anchor="start" x="1891.73" y="-15.4" font-family="sans-serif" font-size="14.00"> &#160;Exports</text>
<g id="clust1" class="cluster">
<title>cluster_DataModule</title>
<polygon fill="none" stroke="black" stroke-dasharray="1,5" points="8,-70 8,-268 3412,-268 3412,-70 8,-70"/>
</g>
<g id="clust19" class="cluster">
<title>cluster_DataModule_providers</title>
<polygon fill="none" stroke="black" points="2716,-78 2716,-130 3404,-130 3404,-78 2716,-78"/>
</g>
<g id="clust2" class="cluster">
<title>cluster_DataModule_declarations</title>
<polygon fill="none" stroke="black" points="552,-78 552,-130 2708,-130 2708,-78 552,-78"/>
</g>
<g id="clust17" class="cluster">
<title>cluster_DataModule_exports</title>
<polygon fill="none" stroke="black" points="486,-208 486,-260 2616,-260 2616,-208 486,-208"/>
</g>
<g id="clust16" class="cluster">
<title>cluster_DataModule_imports</title>
<polygon fill="none" stroke="black" points="16,-78 16,-130 544,-130 544,-78 16,-78"/>
</g>
<!-- AdminEntryInputComponent -->
<g id="node1" class="node">
<title>AdminEntryInputComponent</title>
<polygon fill="#ffffb3" stroke="black" points="2700.38,-122 2519.62,-122 2519.62,-86 2700.38,-86 2700.38,-122"/>
<text text-anchor="middle" x="2610" y="-99.8" font-family="Times,serif" font-size="14.00">AdminEntryInputComponent</text>
</g>
<!-- DataModule -->
<g id="node14" class="node">
<title>DataModule</title>
<polygon fill="#8dd3c7" stroke="black" points="1570.98,-187 1567.98,-191 1546.98,-191 1543.98,-187 1485.02,-187 1485.02,-151 1570.98,-151 1570.98,-187"/>
<text text-anchor="middle" x="1528" y="-164.8" font-family="Times,serif" font-size="14.00">DataModule</text>
</g>
<!-- AdminEntryInputComponent&#45;&gt;DataModule -->
<g id="edge1" class="edge">
<title>AdminEntryInputComponent&#45;&gt;DataModule</title>
<path fill="none" stroke="black" d="M2548.88,-122.02C2548.88,-139.37 2548.88,-163 2548.88,-163 2548.88,-163 1581.21,-163 1581.21,-163"/>
<polygon fill="black" stroke="black" points="1581.21,-159.5 1571.21,-163 1581.21,-166.5 1581.21,-159.5"/>
</g>
<!-- CrudComponent -->
<g id="node2" class="node">
<title>CrudComponent</title>
<polygon fill="#ffffb3" stroke="black" points="2501.83,-122 2392.17,-122 2392.17,-86 2501.83,-86 2501.83,-122"/>
<text text-anchor="middle" x="2447" y="-99.8" font-family="Times,serif" font-size="14.00">CrudComponent</text>
</g>
<!-- CrudComponent&#45;&gt;DataModule -->
<g id="edge2" class="edge">
<title>CrudComponent&#45;&gt;DataModule</title>
<path fill="none" stroke="black" d="M2427.7,-122.04C2427.7,-138.73 2427.7,-161 2427.7,-161 2427.7,-161 1581.09,-161 1581.09,-161"/>
<polygon fill="black" stroke="black" points="1581.09,-157.5 1571.09,-161 1581.09,-164.5 1581.09,-157.5"/>
</g>
<!-- DefaultEntryInputComponent -->
<g id="node3" class="node">
<title>DefaultEntryInputComponent</title>
<polygon fill="#ffffb3" stroke="black" points="2373.97,-122 2190.03,-122 2190.03,-86 2373.97,-86 2373.97,-122"/>
<text text-anchor="middle" x="2282" y="-99.8" font-family="Times,serif" font-size="14.00">DefaultEntryInputComponent</text>
</g>
<!-- DefaultEntryInputComponent&#45;&gt;DataModule -->
<g id="edge3" class="edge">
<title>DefaultEntryInputComponent&#45;&gt;DataModule</title>
<path fill="none" stroke="black" d="M2213.99,-122.01C2213.99,-138.05 2213.99,-159 2213.99,-159 2213.99,-159 1581.17,-159 1581.17,-159"/>
<polygon fill="black" stroke="black" points="1581.17,-155.5 1571.17,-159 1581.17,-162.5 1581.17,-155.5"/>
</g>
<!-- DefaultEntryOutputComponent -->
<g id="node4" class="node">
<title>DefaultEntryOutputComponent</title>
<polygon fill="#ffffb3" stroke="black" points="2171.8,-122 1978.2,-122 1978.2,-86 2171.8,-86 2171.8,-122"/>
<text text-anchor="middle" x="2075" y="-99.8" font-family="Times,serif" font-size="14.00">DefaultEntryOutputComponent</text>
</g>
<!-- DefaultEntryOutputComponent&#45;&gt;DataModule -->
<g id="edge4" class="edge">
<title>DefaultEntryOutputComponent&#45;&gt;DataModule</title>
<path fill="none" stroke="black" d="M2013.35,-122.24C2013.35,-137.57 2013.35,-157 2013.35,-157 2013.35,-157 1581.07,-157 1581.07,-157"/>
<polygon fill="black" stroke="black" points="1581.07,-153.5 1571.07,-157 1581.07,-160.5 1581.07,-153.5"/>
</g>
<!-- EntriesDirective -->
<g id="node5" class="node">
<title>EntriesDirective</title>
<polygon fill="#ffffb3" stroke="black" points="1959.74,-122 1852.26,-122 1852.26,-86 1959.74,-86 1959.74,-122"/>
<text text-anchor="middle" x="1906" y="-99.8" font-family="Times,serif" font-size="14.00">EntriesDirective</text>
</g>
<!-- EntriesDirective&#45;&gt;DataModule -->
<g id="edge5" class="edge">
<title>EntriesDirective&#45;&gt;DataModule</title>
<path fill="none" stroke="black" d="M1890.13,-122.12C1890.13,-136.78 1890.13,-155 1890.13,-155 1890.13,-155 1581.32,-155 1581.32,-155"/>
<polygon fill="black" stroke="black" points="1581.32,-151.5 1571.32,-155 1581.32,-158.5 1581.32,-151.5"/>
</g>
<!-- EntryActionbarComponent -->
<g id="node6" class="node">
<title>EntryActionbarComponent</title>
<polygon fill="#ffffb3" stroke="black" points="1834.41,-122 1665.59,-122 1665.59,-86 1834.41,-86 1834.41,-122"/>
<text text-anchor="middle" x="1750" y="-99.8" font-family="Times,serif" font-size="14.00">EntryActionbarComponent</text>
</g>
<!-- EntryActionbarComponent&#45;&gt;DataModule -->
<g id="edge6" class="edge">
<title>EntryActionbarComponent&#45;&gt;DataModule</title>
<path fill="none" stroke="black" d="M1714.83,-122.25C1714.83,-136.18 1714.83,-153 1714.83,-153 1714.83,-153 1581.33,-153 1581.33,-153"/>
<polygon fill="black" stroke="black" points="1581.33,-149.5 1571.33,-153 1581.33,-156.5 1581.33,-149.5"/>
</g>
<!-- EntryDirective -->
<g id="node7" class="node">
<title>EntryDirective</title>
<polygon fill="#ffffb3" stroke="black" points="1647.69,-122 1548.31,-122 1548.31,-86 1647.69,-86 1647.69,-122"/>
<text text-anchor="middle" x="1598" y="-99.8" font-family="Times,serif" font-size="14.00">EntryDirective</text>
</g>
<!-- EntryDirective&#45;&gt;DataModule -->
<g id="edge7" class="edge">
<title>EntryDirective&#45;&gt;DataModule</title>
<path fill="none" stroke="black" d="M1559.7,-122.11C1559.7,-122.11 1559.7,-140.99 1559.7,-140.99"/>
<polygon fill="black" stroke="black" points="1556.2,-140.99 1559.7,-150.99 1563.2,-140.99 1556.2,-140.99"/>
</g>
<!-- EntryFormComponent -->
<g id="node8" class="node">
<title>EntryFormComponent</title>
<polygon fill="#ffffb3" stroke="black" points="1530.27,-122 1387.73,-122 1387.73,-86 1530.27,-86 1530.27,-122"/>
<text text-anchor="middle" x="1459" y="-99.8" font-family="Times,serif" font-size="14.00">EntryFormComponent</text>
</g>
<!-- EntryFormComponent&#45;&gt;DataModule -->
<g id="edge8" class="edge">
<title>EntryFormComponent&#45;&gt;DataModule</title>
<path fill="none" stroke="black" d="M1507.7,-122.11C1507.7,-122.11 1507.7,-140.99 1507.7,-140.99"/>
<polygon fill="black" stroke="black" points="1504.2,-140.99 1507.7,-150.99 1511.2,-140.99 1504.2,-140.99"/>
</g>
<!-- EntryListComponent -->
<g id="node9" class="node">
<title>EntryListComponent</title>
<polygon fill="#ffffb3" stroke="black" points="1370.21,-122 1235.79,-122 1235.79,-86 1370.21,-86 1370.21,-122"/>
<text text-anchor="middle" x="1303" y="-99.8" font-family="Times,serif" font-size="14.00">EntryListComponent</text>
</g>
<!-- EntryListComponent&#45;&gt;DataModule -->
<g id="edge9" class="edge">
<title>EntryListComponent&#45;&gt;DataModule</title>
<path fill="none" stroke="black" d="M1314.07,-122.25C1314.07,-136.18 1314.07,-153 1314.07,-153 1314.07,-153 1474.97,-153 1474.97,-153"/>
<polygon fill="black" stroke="black" points="1474.97,-156.5 1484.97,-153 1474.97,-149.5 1474.97,-156.5"/>
</g>
<!-- EntryListPopComponent -->
<g id="node10" class="node">
<title>EntryListPopComponent</title>
<polygon fill="#ffffb3" stroke="black" points="1218,-122 1062,-122 1062,-86 1218,-86 1218,-122"/>
<text text-anchor="middle" x="1140" y="-99.8" font-family="Times,serif" font-size="14.00">EntryListPopComponent</text>
</g>
<!-- EntryListPopComponent&#45;&gt;DataModule -->
<g id="edge10" class="edge">
<title>EntryListPopComponent&#45;&gt;DataModule</title>
<path fill="none" stroke="black" d="M1160.07,-122.12C1160.07,-136.78 1160.07,-155 1160.07,-155 1160.07,-155 1474.71,-155 1474.71,-155"/>
<polygon fill="black" stroke="black" points="1474.71,-158.5 1484.71,-155 1474.71,-151.5 1474.71,-158.5"/>
</g>
<!-- EntryListSelectComponent -->
<g id="node11" class="node">
<title>EntryListSelectComponent</title>
<polygon fill="#ffffb3" stroke="black" points="1044.42,-122 875.58,-122 875.58,-86 1044.42,-86 1044.42,-122"/>
<text text-anchor="middle" x="960" y="-99.8" font-family="Times,serif" font-size="14.00">EntryListSelectComponent</text>
</g>
<!-- EntryListSelectComponent&#45;&gt;DataModule -->
<g id="edge11" class="edge">
<title>EntryListSelectComponent&#45;&gt;DataModule</title>
<path fill="none" stroke="black" d="M989.07,-122.24C989.07,-137.57 989.07,-157 989.07,-157 989.07,-157 1474.81,-157 1474.81,-157"/>
<polygon fill="black" stroke="black" points="1474.81,-160.5 1484.81,-157 1474.81,-153.5 1474.81,-160.5"/>
</g>
<!-- EntryPopComponent -->
<g id="node12" class="node">
<title>EntryPopComponent</title>
<polygon fill="#ffffb3" stroke="black" points="858.22,-122 723.78,-122 723.78,-86 858.22,-86 858.22,-122"/>
<text text-anchor="middle" x="791" y="-99.8" font-family="Times,serif" font-size="14.00">EntryPopComponent</text>
</g>
<!-- EntryPopComponent&#45;&gt;DataModule -->
<g id="edge12" class="edge">
<title>EntryPopComponent&#45;&gt;DataModule</title>
<path fill="none" stroke="black" d="M841.99,-122.01C841.99,-138.05 841.99,-159 841.99,-159 841.99,-159 1474.83,-159 1474.83,-159"/>
<polygon fill="black" stroke="black" points="1474.83,-162.5 1484.83,-159 1474.83,-155.5 1474.83,-162.5"/>
</g>
<!-- EntrySelectComponent -->
<g id="node13" class="node">
<title>EntrySelectComponent</title>
<polygon fill="#ffffb3" stroke="black" points="706.14,-122 559.86,-122 559.86,-86 706.14,-86 706.14,-122"/>
<text text-anchor="middle" x="633" y="-99.8" font-family="Times,serif" font-size="14.00">EntrySelectComponent</text>
</g>
<!-- EntrySelectComponent&#45;&gt;DataModule -->
<g id="edge13" class="edge">
<title>EntrySelectComponent&#45;&gt;DataModule</title>
<path fill="none" stroke="black" d="M699.38,-122.04C699.38,-138.73 699.38,-161 699.38,-161 699.38,-161 1474.91,-161 1474.91,-161"/>
<polygon fill="black" stroke="black" points="1474.91,-164.5 1484.91,-161 1474.91,-157.5 1474.91,-164.5"/>
</g>
<!-- AuthModule  -->
<g id="node20" class="node">
<title>AuthModule </title>
<polygon fill="#fb8072" stroke="black" points="2607.55,-252 2516.45,-252 2516.45,-216 2607.55,-216 2607.55,-252"/>
<text text-anchor="middle" x="2562" y="-229.8" font-family="Times,serif" font-size="14.00">AuthModule </text>
</g>
<!-- DataModule&#45;&gt;AuthModule  -->
<g id="edge19" class="edge">
<title>DataModule&#45;&gt;AuthModule </title>
<path fill="none" stroke="black" stroke-dasharray="5,2" d="M1571.13,-173C1768.75,-173 2578.2,-173 2578.2,-173 2578.2,-173 2578.2,-205.7 2578.2,-205.7"/>
<polygon fill="black" stroke="black" points="2574.7,-205.7 2578.2,-215.7 2581.7,-205.7 2574.7,-205.7"/>
</g>
<!-- CrudComponent  -->
<g id="node21" class="node">
<title>CrudComponent </title>
<polygon fill="#fb8072" stroke="black" points="2498.33,-252 2385.67,-252 2385.67,-216 2498.33,-216 2498.33,-252"/>
<text text-anchor="middle" x="2442" y="-229.8" font-family="Times,serif" font-size="14.00">CrudComponent </text>
</g>
<!-- DataModule&#45;&gt;CrudComponent  -->
<g id="edge20" class="edge">
<title>DataModule&#45;&gt;CrudComponent </title>
<path fill="none" stroke="black" stroke-dasharray="5,2" d="M1571.22,-175C1755.12,-175 2463.05,-175 2463.05,-175 2463.05,-175 2463.05,-205.98 2463.05,-205.98"/>
<polygon fill="black" stroke="black" points="2459.56,-205.98 2463.05,-215.98 2466.56,-205.98 2459.56,-205.98"/>
</g>
<!-- EntriesDirective  -->
<g id="node22" class="node">
<title>EntriesDirective </title>
<polygon fill="#fb8072" stroke="black" points="2367.74,-252 2256.26,-252 2256.26,-216 2367.74,-216 2367.74,-252"/>
<text text-anchor="middle" x="2312" y="-229.8" font-family="Times,serif" font-size="14.00">EntriesDirective </text>
</g>
<!-- DataModule&#45;&gt;EntriesDirective  -->
<g id="edge21" class="edge">
<title>DataModule&#45;&gt;EntriesDirective </title>
<path fill="none" stroke="black" stroke-dasharray="5,2" d="M1570.99,-177C1734.97,-177 2312,-177 2312,-177 2312,-177 2312,-205.96 2312,-205.96"/>
<polygon fill="black" stroke="black" points="2308.5,-205.96 2312,-215.96 2315.5,-205.96 2308.5,-205.96"/>
</g>
<!-- EntryActionbarComponent  -->
<g id="node23" class="node">
<title>EntryActionbarComponent </title>
<polygon fill="#fb8072" stroke="black" points="2237.91,-252 2066.09,-252 2066.09,-216 2237.91,-216 2237.91,-252"/>
<text text-anchor="middle" x="2152" y="-229.8" font-family="Times,serif" font-size="14.00">EntryActionbarComponent </text>
</g>
<!-- DataModule&#45;&gt;EntryActionbarComponent  -->
<g id="edge22" class="edge">
<title>DataModule&#45;&gt;EntryActionbarComponent </title>
<path fill="none" stroke="black" stroke-dasharray="5,2" d="M1571.45,-179C1707.9,-179 2118.85,-179 2118.85,-179 2118.85,-179 2118.85,-205.99 2118.85,-205.99"/>
<polygon fill="black" stroke="black" points="2115.35,-205.99 2118.85,-215.99 2122.35,-205.99 2115.35,-205.99"/>
</g>
<!-- EntryDirective  -->
<g id="node24" class="node">
<title>EntryDirective </title>
<polygon fill="#fb8072" stroke="black" points="2048.19,-252 1945.81,-252 1945.81,-216 2048.19,-216 2048.19,-252"/>
<text text-anchor="middle" x="1997" y="-229.8" font-family="Times,serif" font-size="14.00">EntryDirective </text>
</g>
<!-- DataModule&#45;&gt;EntryDirective  -->
<g id="edge23" class="edge">
<title>DataModule&#45;&gt;EntryDirective </title>
<path fill="none" stroke="black" stroke-dasharray="5,2" d="M1571.07,-181C1679.05,-181 1952.76,-181 1952.76,-181 1952.76,-181 1952.76,-205.76 1952.76,-205.76"/>
<polygon fill="black" stroke="black" points="1949.26,-205.76 1952.76,-215.76 1956.26,-205.76 1949.26,-205.76"/>
</g>
<!-- EntryFormComponent  -->
<g id="node25" class="node">
<title>EntryFormComponent </title>
<polygon fill="#fb8072" stroke="black" points="1928.27,-252 1781.73,-252 1781.73,-216 1928.27,-216 1928.27,-252"/>
<text text-anchor="middle" x="1855" y="-229.8" font-family="Times,serif" font-size="14.00">EntryFormComponent </text>
</g>
<!-- DataModule&#45;&gt;EntryFormComponent  -->
<g id="edge24" class="edge">
<title>DataModule&#45;&gt;EntryFormComponent </title>
<path fill="none" stroke="black" stroke-dasharray="5,2" d="M1571.14,-183C1649.69,-183 1808.04,-183 1808.04,-183 1808.04,-183 1808.04,-205.88 1808.04,-205.88"/>
<polygon fill="black" stroke="black" points="1804.54,-205.88 1808.04,-215.88 1811.54,-205.88 1804.54,-205.88"/>
</g>
<!-- EntryListComponent  -->
<g id="node26" class="node">
<title>EntryListComponent </title>
<polygon fill="#fb8072" stroke="black" points="1763.71,-252 1626.29,-252 1626.29,-216 1763.71,-216 1763.71,-252"/>
<text text-anchor="middle" x="1695" y="-229.8" font-family="Times,serif" font-size="14.00">EntryListComponent </text>
</g>
<!-- DataModule&#45;&gt;EntryListComponent  -->
<g id="edge25" class="edge">
<title>DataModule&#45;&gt;EntryListComponent </title>
<path fill="none" stroke="black" stroke-dasharray="5,2" d="M1571.03,-185C1601.46,-185 1636.87,-185 1636.87,-185 1636.87,-185 1636.87,-205.75 1636.87,-205.75"/>
<polygon fill="black" stroke="black" points="1633.37,-205.75 1636.87,-215.75 1640.37,-205.75 1633.37,-205.75"/>
</g>
<!-- EntryListPopComponent  -->
<g id="node27" class="node">
<title>EntryListPopComponent </title>
<polygon fill="#fb8072" stroke="black" points="1608,-252 1448,-252 1448,-216 1608,-216 1608,-252"/>
<text text-anchor="middle" x="1528" y="-229.8" font-family="Times,serif" font-size="14.00">EntryListPopComponent </text>
</g>
<!-- DataModule&#45;&gt;EntryListPopComponent  -->
<g id="edge26" class="edge">
<title>DataModule&#45;&gt;EntryListPopComponent </title>
<path fill="none" stroke="black" stroke-dasharray="5,2" d="M1528,-187.11C1528,-187.11 1528,-205.99 1528,-205.99"/>
<polygon fill="black" stroke="black" points="1524.5,-205.99 1528,-215.99 1531.5,-205.99 1524.5,-205.99"/>
</g>
<!-- EntryListSelectComponent  -->
<g id="node28" class="node">
<title>EntryListSelectComponent </title>
<polygon fill="#fb8072" stroke="black" points="1429.92,-252 1258.08,-252 1258.08,-216 1429.92,-216 1429.92,-252"/>
<text text-anchor="middle" x="1344" y="-229.8" font-family="Times,serif" font-size="14.00">EntryListSelectComponent </text>
</g>
<!-- DataModule&#45;&gt;EntryListSelectComponent  -->
<g id="edge27" class="edge">
<title>DataModule&#45;&gt;EntryListSelectComponent </title>
<path fill="none" stroke="black" stroke-dasharray="5,2" d="M1484.96,-185C1450.81,-185 1408.79,-185 1408.79,-185 1408.79,-185 1408.79,-205.75 1408.79,-205.75"/>
<polygon fill="black" stroke="black" points="1405.29,-205.75 1408.79,-215.75 1412.29,-205.75 1405.29,-205.75"/>
</g>
<!-- EntryPopComponent  -->
<g id="node29" class="node">
<title>EntryPopComponent </title>
<polygon fill="#fb8072" stroke="black" points="1239.72,-252 1102.28,-252 1102.28,-216 1239.72,-216 1239.72,-252"/>
<text text-anchor="middle" x="1171" y="-229.8" font-family="Times,serif" font-size="14.00">EntryPopComponent </text>
</g>
<!-- DataModule&#45;&gt;EntryPopComponent  -->
<g id="edge28" class="edge">
<title>DataModule&#45;&gt;EntryPopComponent </title>
<path fill="none" stroke="black" stroke-dasharray="5,2" d="M1484.87,-183C1401.62,-183 1226.95,-183 1226.95,-183 1226.95,-183 1226.95,-205.88 1226.95,-205.88"/>
<polygon fill="black" stroke="black" points="1223.45,-205.88 1226.95,-215.88 1230.45,-205.88 1223.45,-205.88"/>
</g>
<!-- EntrySelectComponent  -->
<g id="node30" class="node">
<title>EntrySelectComponent </title>
<polygon fill="#fb8072" stroke="black" points="1084.14,-252 933.86,-252 933.86,-216 1084.14,-216 1084.14,-252"/>
<text text-anchor="middle" x="1009" y="-229.8" font-family="Times,serif" font-size="14.00">EntrySelectComponent </text>
</g>
<!-- DataModule&#45;&gt;EntrySelectComponent  -->
<g id="edge29" class="edge">
<title>DataModule&#45;&gt;EntrySelectComponent </title>
<path fill="none" stroke="black" stroke-dasharray="5,2" d="M1484.79,-181C1371.22,-181 1073.04,-181 1073.04,-181 1073.04,-181 1073.04,-205.76 1073.04,-205.76"/>
<polygon fill="black" stroke="black" points="1069.54,-205.76 1073.04,-215.76 1076.54,-205.76 1069.54,-205.76"/>
</g>
<!-- FilesModule  -->
<g id="node31" class="node">
<title>FilesModule </title>
<polygon fill="#fb8072" stroke="black" points="916.27,-252 825.73,-252 825.73,-216 916.27,-216 916.27,-252"/>
<text text-anchor="middle" x="871" y="-229.8" font-family="Times,serif" font-size="14.00">FilesModule </text>
</g>
<!-- DataModule&#45;&gt;FilesModule  -->
<g id="edge30" class="edge">
<title>DataModule&#45;&gt;FilesModule </title>
<path fill="none" stroke="black" stroke-dasharray="5,2" d="M1484.56,-179C1341.76,-179 895.96,-179 895.96,-179 895.96,-179 895.96,-205.99 895.96,-205.99"/>
<polygon fill="black" stroke="black" points="892.46,-205.99 895.96,-215.99 899.46,-205.99 892.46,-205.99"/>
</g>
<!-- ResourceModule  -->
<g id="node32" class="node">
<title>ResourceModule </title>
<polygon fill="#fb8072" stroke="black" points="807.64,-252 692.36,-252 692.36,-216 807.64,-216 807.64,-252"/>
<text text-anchor="middle" x="750" y="-229.8" font-family="Times,serif" font-size="14.00">ResourceModule </text>
</g>
<!-- DataModule&#45;&gt;ResourceModule  -->
<g id="edge31" class="edge">
<title>DataModule&#45;&gt;ResourceModule </title>
<path fill="none" stroke="black" stroke-dasharray="5,2" d="M1484.83,-177C1323.58,-177 765.73,-177 765.73,-177 765.73,-177 765.73,-205.96 765.73,-205.96"/>
<polygon fill="black" stroke="black" points="762.23,-205.96 765.73,-215.96 769.23,-205.96 762.23,-205.96"/>
</g>
<!-- SdkModule  -->
<g id="node33" class="node">
<title>SdkModule </title>
<polygon fill="#fb8072" stroke="black" points="674.33,-252 589.67,-252 589.67,-216 674.33,-216 674.33,-252"/>
<text text-anchor="middle" x="632" y="-229.8" font-family="Times,serif" font-size="14.00">SdkModule </text>
</g>
<!-- DataModule&#45;&gt;SdkModule  -->
<g id="edge32" class="edge">
<title>DataModule&#45;&gt;SdkModule </title>
<path fill="none" stroke="black" stroke-dasharray="5,2" d="M1484.78,-175C1305.8,-175 632,-175 632,-175 632,-175 632,-205.98 632,-205.98"/>
<polygon fill="black" stroke="black" points="628.5,-205.98 632,-215.98 635.5,-205.98 628.5,-205.98"/>
</g>
<!-- UiModule  -->
<g id="node34" class="node">
<title>UiModule </title>
<polygon fill="#fb8072" stroke="black" points="571.55,-252 494.45,-252 494.45,-216 571.55,-216 571.55,-252"/>
<text text-anchor="middle" x="533" y="-229.8" font-family="Times,serif" font-size="14.00">UiModule </text>
</g>
<!-- DataModule&#45;&gt;UiModule  -->
<g id="edge33" class="edge">
<title>DataModule&#45;&gt;UiModule </title>
<path fill="none" stroke="black" stroke-dasharray="5,2" d="M1484.78,-173C1297.51,-173 565.6,-173 565.6,-173 565.6,-173 565.6,-205.7 565.6,-205.7"/>
<polygon fill="black" stroke="black" points="562.1,-205.7 565.6,-215.7 569.1,-205.7 562.1,-205.7"/>
</g>
<!-- AuthModule -->
<g id="node15" class="node">
<title>AuthModule</title>
<polygon fill="#8dd3c7" stroke="black" points="535.55,-122 532.55,-126 511.55,-126 508.55,-122 448.45,-122 448.45,-86 535.55,-86 535.55,-122"/>
<text text-anchor="middle" x="492" y="-99.8" font-family="Times,serif" font-size="14.00">AuthModule</text>
</g>
<!-- AuthModule&#45;&gt;DataModule -->
<g id="edge14" class="edge">
<title>AuthModule&#45;&gt;DataModule</title>
<path fill="none" stroke="black" d="M515.12,-122.02C515.12,-139.37 515.12,-163 515.12,-163 515.12,-163 1474.8,-163 1474.8,-163"/>
<polygon fill="black" stroke="black" points="1474.8,-166.5 1484.8,-163 1474.8,-159.5 1474.8,-166.5"/>
</g>
<!-- FilesModule -->
<g id="node16" class="node">
<title>FilesModule</title>
<polygon fill="#8dd3c7" stroke="black" points="430.27,-122 427.27,-126 406.27,-126 403.27,-122 343.73,-122 343.73,-86 430.27,-86 430.27,-122"/>
<text text-anchor="middle" x="387" y="-99.8" font-family="Times,serif" font-size="14.00">FilesModule</text>
</g>
<!-- FilesModule&#45;&gt;DataModule -->
<g id="edge15" class="edge">
<title>FilesModule&#45;&gt;DataModule</title>
<path fill="none" stroke="black" d="M387,-122.3C387,-140.27 387,-165 387,-165 387,-165 1475.01,-165 1475.01,-165"/>
<polygon fill="black" stroke="black" points="1475.01,-168.5 1485.01,-165 1475.01,-161.5 1475.01,-168.5"/>
</g>
<!-- ResourceModule -->
<g id="node17" class="node">
<title>ResourceModule</title>
<polygon fill="#8dd3c7" stroke="black" points="325.64,-122 322.64,-126 301.64,-126 298.64,-122 214.36,-122 214.36,-86 325.64,-86 325.64,-122"/>
<text text-anchor="middle" x="270" y="-99.8" font-family="Times,serif" font-size="14.00">ResourceModule</text>
</g>
<!-- ResourceModule&#45;&gt;DataModule -->
<g id="edge16" class="edge">
<title>ResourceModule&#45;&gt;DataModule</title>
<path fill="none" stroke="black" d="M270,-122.22C270,-140.83 270,-167 270,-167 270,-167 1474.7,-167 1474.7,-167"/>
<polygon fill="black" stroke="black" points="1474.7,-170.5 1484.7,-167 1474.7,-163.5 1474.7,-170.5"/>
</g>
<!-- SdkModule -->
<g id="node18" class="node">
<title>SdkModule</title>
<polygon fill="#8dd3c7" stroke="black" points="196.83,-122 193.83,-126 172.83,-126 169.83,-122 115.17,-122 115.17,-86 196.83,-86 196.83,-122"/>
<text text-anchor="middle" x="156" y="-99.8" font-family="Times,serif" font-size="14.00">SdkModule</text>
</g>
<!-- SdkModule&#45;&gt;DataModule -->
<g id="edge17" class="edge">
<title>SdkModule&#45;&gt;DataModule</title>
<path fill="none" stroke="black" d="M156,-122.11C156,-141.34 156,-169 156,-169 156,-169 1474.67,-169 1474.67,-169"/>
<polygon fill="black" stroke="black" points="1474.67,-172.5 1484.67,-169 1474.67,-165.5 1474.67,-172.5"/>
</g>
<!-- UiModule -->
<g id="node19" class="node">
<title>UiModule</title>
<polygon fill="#8dd3c7" stroke="black" points="97.55,-122 94.55,-126 73.55,-126 70.55,-122 24.45,-122 24.45,-86 97.55,-86 97.55,-122"/>
<text text-anchor="middle" x="61" y="-99.8" font-family="Times,serif" font-size="14.00">UiModule</text>
</g>
<!-- UiModule&#45;&gt;DataModule -->
<g id="edge18" class="edge">
<title>UiModule&#45;&gt;DataModule</title>
<path fill="none" stroke="black" d="M61,-122.31C61,-142.15 61,-171 61,-171 61,-171 1474.89,-171 1474.89,-171"/>
<polygon fill="black" stroke="black" points="1474.89,-174.5 1484.89,-171 1474.89,-167.5 1474.89,-174.5"/>
</g>
<!-- EntryService -->
<g id="node35" class="node">
<title>EntryService</title>
<ellipse fill="#fdb462" stroke="black" cx="3335" cy="-104" rx="61.39" ry="18"/>
<text text-anchor="middle" x="3335" y="-99.8" font-family="Times,serif" font-size="14.00">EntryService</text>
</g>
<!-- EntryService&#45;&gt;DataModule -->
<g id="edge34" class="edge">
<title>EntryService&#45;&gt;DataModule</title>
<path fill="none" stroke="black" d="M3335,-122.31C3335,-142.15 3335,-171 3335,-171 3335,-171 1581.33,-171 1581.33,-171"/>
<polygon fill="black" stroke="black" points="1581.33,-167.5 1571.33,-171 1581.33,-174.5 1581.33,-167.5"/>
</g>
<!-- HistoryService -->
<g id="node36" class="node">
<title>HistoryService</title>
<ellipse fill="#fdb462" stroke="black" cx="3187" cy="-104" rx="68.92" ry="18"/>
<text text-anchor="middle" x="3187" y="-99.8" font-family="Times,serif" font-size="14.00">HistoryService</text>
</g>
<!-- HistoryService&#45;&gt;DataModule -->
<g id="edge35" class="edge">
<title>HistoryService&#45;&gt;DataModule</title>
<path fill="none" stroke="black" d="M3187,-122.11C3187,-141.34 3187,-169 3187,-169 3187,-169 1581.1,-169 1581.1,-169"/>
<polygon fill="black" stroke="black" points="1581.1,-165.5 1571.1,-169 1581.1,-172.5 1581.1,-165.5"/>
</g>
<!-- ModelConfigService -->
<g id="node37" class="node">
<title>ModelConfigService</title>
<ellipse fill="#fdb462" stroke="black" cx="3008" cy="-104" rx="92.05" ry="18"/>
<text text-anchor="middle" x="3008" y="-99.8" font-family="Times,serif" font-size="14.00">ModelConfigService</text>
</g>
<!-- ModelConfigService&#45;&gt;DataModule -->
<g id="edge36" class="edge">
<title>ModelConfigService&#45;&gt;DataModule</title>
<path fill="none" stroke="black" d="M3008,-122.22C3008,-140.83 3008,-167 3008,-167 3008,-167 1581.09,-167 1581.09,-167"/>
<polygon fill="black" stroke="black" points="1581.09,-163.5 1571.09,-167 1581.09,-170.5 1581.09,-163.5"/>
</g>
<!-- TypeConfigService -->
<g id="node38" class="node">
<title>TypeConfigService</title>
<ellipse fill="#fdb462" stroke="black" cx="2811" cy="-104" rx="86.82" ry="18"/>
<text text-anchor="middle" x="2811" y="-99.8" font-family="Times,serif" font-size="14.00">TypeConfigService</text>
</g>
<!-- TypeConfigService&#45;&gt;DataModule -->
<g id="edge37" class="edge">
<title>TypeConfigService&#45;&gt;DataModule</title>
<path fill="none" stroke="black" d="M2811,-122.3C2811,-140.27 2811,-165 2811,-165 2811,-165 1581.05,-165 1581.05,-165"/>
<polygon fill="black" stroke="black" points="1581.05,-161.5 1571.05,-165 1581.05,-168.5 1581.05,-161.5"/>
</g>
</g>
</svg>
