<?xml version="1.0" encoding="UTF-8" standalone="no"?>
<!DOCTYPE svg PUBLIC "-//W3C//DTD SVG 1.1//EN"
 "http://www.w3.org/Graphics/SVG/1.1/DTD/svg11.dtd">
<!-- Generated by graphviz version 2.40.1 (20161225.0304)
 -->
<!-- Title: dependencies Pages: 1 -->
<svg width="3101pt" height="284pt"
 viewBox="0.00 0.00 3101.00 284.00" xmlns="http://www.w3.org/2000/svg" xmlns:xlink="http://www.w3.org/1999/xlink">
<g id="graph0" class="graph" transform="scale(1 1) rotate(0) translate(4 280)">
<title>dependencies</title>
<polygon fill="#ffffff" stroke="transparent" points="-4,4 -4,-280 3097,-280 3097,4 -4,4"/>
<text text-anchor="start" x="1525.5091" y="-42.4" font-family="sans-serif" font-weight="bold" font-size="14.00" fill="#000000">Legend</text>
<polygon fill="#ffffb3" stroke="transparent" points="1312.5,-10 1312.5,-30 1332.5,-30 1332.5,-10 1312.5,-10"/>
<text text-anchor="start" x="1336.129" y="-15.4" font-family="sans-serif" font-size="14.00" fill="#000000"> &#160;Declarations</text>
<polygon fill="#8dd3c7" stroke="transparent" points="1425.5,-10 1425.5,-30 1445.5,-30 1445.5,-10 1425.5,-10"/>
<text text-anchor="start" x="1449.2251" y="-15.4" font-family="sans-serif" font-size="14.00" fill="#000000"> &#160;Module</text>
<polygon fill="#80b1d3" stroke="transparent" points="1511.5,-10 1511.5,-30 1531.5,-30 1531.5,-10 1511.5,-10"/>
<text text-anchor="start" x="1535.2812" y="-15.4" font-family="sans-serif" font-size="14.00" fill="#000000"> &#160;Bootstrap</text>
<polygon fill="#fdb462" stroke="transparent" points="1608.5,-10 1608.5,-30 1628.5,-30 1628.5,-10 1608.5,-10"/>
<text text-anchor="start" x="1632.1732" y="-15.4" font-family="sans-serif" font-size="14.00" fill="#000000"> &#160;Providers</text>
<polygon fill="#fb8072" stroke="transparent" points="1704.5,-10 1704.5,-30 1724.5,-30 1724.5,-10 1704.5,-10"/>
<text text-anchor="start" x="1728.2258" y="-15.4" font-family="sans-serif" font-size="14.00" fill="#000000"> &#160;Exports</text>
<g id="clust1" class="cluster">
<title>cluster_DataModule</title>
<polygon fill="none" stroke="#000000" stroke-dasharray="1,5" points="8,-70 8,-268 3085,-268 3085,-70 8,-70"/>
</g>
<g id="clust2" class="cluster">
<title>cluster_DataModule_declarations</title>
<polygon fill="none" stroke="#000000" points="959,-78 959,-130 3077,-130 3077,-78 959,-78"/>
</g>
<g id="clust16" class="cluster">
<title>cluster_DataModule_imports</title>
<polygon fill="none" stroke="#000000" points="552,-78 552,-130 951,-130 951,-78 552,-78"/>
</g>
<g id="clust17" class="cluster">
<title>cluster_DataModule_exports</title>
<polygon fill="none" stroke="#000000" points="420,-208 420,-260 2581,-260 2581,-208 420,-208"/>
</g>
<g id="clust19" class="cluster">
<title>cluster_DataModule_providers</title>
<polygon fill="none" stroke="#000000" points="16,-78 16,-130 544,-130 544,-78 16,-78"/>
</g>
<!-- EntryListComponent -->
<g id="node1" class="node">
<title>EntryListComponent</title>
<polygon fill="#ffffb3" stroke="#000000" points="3069.2148,-122 2934.7852,-122 2934.7852,-86 3069.2148,-86 3069.2148,-122"/>
<text text-anchor="middle" x="3002" y="-99.8" font-family="Times,serif" font-size="14.00" fill="#000000">EntryListComponent</text>
</g>
<!-- DataModule -->
<g id="node14" class="node">
<title>DataModule</title>
<polygon fill="#8dd3c7" stroke="#000000" points="1500.9762,-187 1497.9762,-191 1476.9762,-191 1473.9762,-187 1415.0238,-187 1415.0238,-151 1500.9762,-151 1500.9762,-187"/>
<text text-anchor="middle" x="1458" y="-164.8" font-family="Times,serif" font-size="14.00" fill="#000000">DataModule</text>
</g>
<!-- EntryListComponent&#45;&gt;DataModule -->
<g id="edge1" class="edge">
<title>EntryListComponent&#45;&gt;DataModule</title>
<path fill="none" stroke="#000000" d="M3002,-122.308C3002,-142.1455 3002,-171 3002,-171 3002,-171 1511.3135,-171 1511.3135,-171"/>
<polygon fill="#000000" stroke="#000000" points="1511.3135,-167.5001 1501.3135,-171 1511.3134,-174.5001 1511.3135,-167.5001"/>
</g>
<!-- EntryDirective -->
<g id="node2" class="node">
<title>EntryDirective</title>
<polygon fill="#ffffb3" stroke="#000000" points="2916.6868,-122 2817.3132,-122 2817.3132,-86 2916.6868,-86 2916.6868,-122"/>
<text text-anchor="middle" x="2867" y="-99.8" font-family="Times,serif" font-size="14.00" fill="#000000">EntryDirective</text>
</g>
<!-- EntryDirective&#45;&gt;DataModule -->
<g id="edge2" class="edge">
<title>EntryDirective&#45;&gt;DataModule</title>
<path fill="none" stroke="#000000" d="M2867,-122.1686C2867,-141.0898 2867,-168 2867,-168 2867,-168 1511.325,-168 1511.325,-168"/>
<polygon fill="#000000" stroke="#000000" points="1511.325,-164.5001 1501.325,-168 1511.3249,-171.5001 1511.325,-164.5001"/>
</g>
<!-- EntriesDirective -->
<g id="node3" class="node">
<title>EntriesDirective</title>
<polygon fill="#ffffb3" stroke="#000000" points="2799.7367,-122 2692.2633,-122 2692.2633,-86 2799.7367,-86 2799.7367,-122"/>
<text text-anchor="middle" x="2746" y="-99.8" font-family="Times,serif" font-size="14.00" fill="#000000">EntriesDirective</text>
</g>
<!-- EntriesDirective&#45;&gt;DataModule -->
<g id="edge3" class="edge">
<title>EntriesDirective&#45;&gt;DataModule</title>
<path fill="none" stroke="#000000" d="M2746,-122.2667C2746,-140.5552 2746,-166 2746,-166 2746,-166 1511.2224,-166 1511.2224,-166"/>
<polygon fill="#000000" stroke="#000000" points="1511.2224,-162.5001 1501.2224,-166 1511.2223,-169.5001 1511.2224,-162.5001"/>
</g>
<!-- EntryFormComponent -->
<g id="node4" class="node">
<title>EntryFormComponent</title>
<polygon fill="#ffffb3" stroke="#000000" points="2674.2702,-122 2531.7298,-122 2531.7298,-86 2674.2702,-86 2674.2702,-122"/>
<text text-anchor="middle" x="2603" y="-99.8" font-family="Times,serif" font-size="14.00" fill="#000000">EntryFormComponent</text>
</g>
<!-- EntryFormComponent&#45;&gt;DataModule -->
<g id="edge4" class="edge">
<title>EntryFormComponent&#45;&gt;DataModule</title>
<path fill="none" stroke="#000000" d="M2552.2361,-122.002C2552.2361,-139.6754 2552.2361,-164 2552.2361,-164 2552.2361,-164 1511.2324,-164 1511.2324,-164"/>
<polygon fill="#000000" stroke="#000000" points="1511.2324,-160.5001 1501.2324,-164 1511.2323,-167.5001 1511.2324,-160.5001"/>
</g>
<!-- EntryPopComponent -->
<g id="node5" class="node">
<title>EntryPopComponent</title>
<polygon fill="#ffffb3" stroke="#000000" points="2514.219,-122 2379.781,-122 2379.781,-86 2514.219,-86 2514.219,-122"/>
<text text-anchor="middle" x="2447" y="-99.8" font-family="Times,serif" font-size="14.00" fill="#000000">EntryPopComponent</text>
</g>
<!-- EntryPopComponent&#45;&gt;DataModule -->
<g id="edge5" class="edge">
<title>EntryPopComponent&#45;&gt;DataModule</title>
<path fill="none" stroke="#000000" d="M2398.617,-122.0336C2398.617,-139.0597 2398.617,-162 2398.617,-162 2398.617,-162 1511.1705,-162 1511.1705,-162"/>
<polygon fill="#000000" stroke="#000000" points="1511.1705,-158.5001 1501.1705,-162 1511.1705,-165.5001 1511.1705,-158.5001"/>
</g>
<!-- DatamanagerListComponent -->
<g id="node6" class="node">
<title>DatamanagerListComponent</title>
<polygon fill="#ffffb3" stroke="#000000" points="2361.7324,-122 2184.2676,-122 2184.2676,-86 2361.7324,-86 2361.7324,-122"/>
<text text-anchor="middle" x="2273" y="-99.8" font-family="Times,serif" font-size="14.00" fill="#000000">DatamanagerListComponent</text>
</g>
<!-- DatamanagerListComponent&#45;&gt;DataModule -->
<g id="edge6" class="edge">
<title>DatamanagerListComponent&#45;&gt;DataModule</title>
<path fill="none" stroke="#000000" d="M2222.4606,-122.027C2222.4606,-138.3976 2222.4606,-160 2222.4606,-160 2222.4606,-160 1511.0145,-160 1511.0145,-160"/>
<polygon fill="#000000" stroke="#000000" points="1511.0146,-156.5001 1501.0145,-160 1511.0145,-163.5001 1511.0146,-156.5001"/>
</g>
<!-- ModelListComponent -->
<g id="node7" class="node">
<title>ModelListComponent</title>
<polygon fill="#ffffb3" stroke="#000000" points="2165.661,-122 2026.339,-122 2026.339,-86 2165.661,-86 2165.661,-122"/>
<text text-anchor="middle" x="2096" y="-99.8" font-family="Times,serif" font-size="14.00" fill="#000000">ModelListComponent</text>
</g>
<!-- ModelListComponent&#45;&gt;DataModule -->
<g id="edge7" class="edge">
<title>ModelListComponent&#45;&gt;DataModule</title>
<path fill="none" stroke="#000000" d="M2072.7232,-122.2819C2072.7232,-137.9478 2072.7232,-158 2072.7232,-158 2072.7232,-158 1511.2261,-158 1511.2261,-158"/>
<polygon fill="#000000" stroke="#000000" points="1511.2262,-154.5001 1501.2261,-158 1511.2261,-161.5001 1511.2262,-154.5001"/>
</g>
<!-- ResourceListComponent -->
<g id="node8" class="node">
<title>ResourceListComponent</title>
<polygon fill="#ffffb3" stroke="#000000" points="2008.6965,-122 1853.3035,-122 1853.3035,-86 2008.6965,-86 2008.6965,-122"/>
<text text-anchor="middle" x="1931" y="-99.8" font-family="Times,serif" font-size="14.00" fill="#000000">ResourceListComponent</text>
</g>
<!-- ResourceListComponent&#45;&gt;DataModule -->
<g id="edge8" class="edge">
<title>ResourceListComponent&#45;&gt;DataModule</title>
<path fill="none" stroke="#000000" d="M1859.2712,-122.1871C1859.2712,-137.1824 1859.2712,-156 1859.2712,-156 1859.2712,-156 1511.3243,-156 1511.3243,-156"/>
<polygon fill="#000000" stroke="#000000" points="1511.3243,-152.5001 1501.3243,-156 1511.3243,-159.5001 1511.3243,-152.5001"/>
</g>
<!-- ResourceFormComponent -->
<g id="node9" class="node">
<title>ResourceFormComponent</title>
<polygon fill="#ffffb3" stroke="#000000" points="1835.752,-122 1672.248,-122 1672.248,-86 1835.752,-86 1835.752,-122"/>
<text text-anchor="middle" x="1754" y="-99.8" font-family="Times,serif" font-size="14.00" fill="#000000">ResourceFormComponent</text>
</g>
<!-- ResourceFormComponent&#45;&gt;DataModule -->
<g id="edge9" class="edge">
<title>ResourceFormComponent&#45;&gt;DataModule</title>
<path fill="none" stroke="#000000" d="M1694.598,-122.0511C1694.598,-136.373 1694.598,-154 1694.598,-154 1694.598,-154 1511.1206,-154 1511.1206,-154"/>
<polygon fill="#000000" stroke="#000000" points="1511.1206,-150.5001 1501.1206,-154 1511.1206,-157.5001 1511.1206,-150.5001"/>
</g>
<!-- DefaultEntryInputComponent -->
<g id="node10" class="node">
<title>DefaultEntryInputComponent</title>
<polygon fill="#ffffb3" stroke="#000000" points="1653.965,-122 1470.035,-122 1470.035,-86 1653.965,-86 1653.965,-122"/>
<text text-anchor="middle" x="1562" y="-99.8" font-family="Times,serif" font-size="14.00" fill="#000000">DefaultEntryInputComponent</text>
</g>
<!-- DefaultEntryInputComponent&#45;&gt;DataModule -->
<g id="edge10" class="edge">
<title>DefaultEntryInputComponent&#45;&gt;DataModule</title>
<path fill="none" stroke="#000000" d="M1485.5028,-122.1061C1485.5028,-122.1061 1485.5028,-140.991 1485.5028,-140.991"/>
<polygon fill="#000000" stroke="#000000" points="1482.0029,-140.9909 1485.5028,-150.991 1489.0029,-140.991 1482.0029,-140.9909"/>
</g>
<!-- DefaultEntryOutputComponent -->
<g id="node11" class="node">
<title>DefaultEntryOutputComponent</title>
<polygon fill="#ffffb3" stroke="#000000" points="1451.8018,-122 1258.1982,-122 1258.1982,-86 1451.8018,-86 1451.8018,-122"/>
<text text-anchor="middle" x="1355" y="-99.8" font-family="Times,serif" font-size="14.00" fill="#000000">DefaultEntryOutputComponent</text>
</g>
<!-- DefaultEntryOutputComponent&#45;&gt;DataModule -->
<g id="edge11" class="edge">
<title>DefaultEntryOutputComponent&#45;&gt;DataModule</title>
<path fill="none" stroke="#000000" d="M1433.3314,-122.1061C1433.3314,-122.1061 1433.3314,-140.991 1433.3314,-140.991"/>
<polygon fill="#000000" stroke="#000000" points="1429.8314,-140.9909 1433.3314,-150.991 1436.8314,-140.991 1429.8314,-140.9909"/>
</g>
<!-- CrudComponent -->
<g id="node12" class="node">
<title>CrudComponent</title>
<polygon fill="#ffffb3" stroke="#000000" points="1240.8301,-122 1131.1699,-122 1131.1699,-86 1240.8301,-86 1240.8301,-122"/>
<text text-anchor="middle" x="1186" y="-99.8" font-family="Times,serif" font-size="14.00" fill="#000000">CrudComponent</text>
</g>
<!-- CrudComponent&#45;&gt;DataModule -->
<g id="edge12" class="edge">
<title>CrudComponent&#45;&gt;DataModule</title>
<path fill="none" stroke="#000000" d="M1223.5423,-122.0511C1223.5423,-136.373 1223.5423,-154 1223.5423,-154 1223.5423,-154 1404.9968,-154 1404.9968,-154"/>
<polygon fill="#000000" stroke="#000000" points="1404.9969,-157.5001 1414.9968,-154 1404.9968,-150.5001 1404.9969,-157.5001"/>
</g>
<!-- EntrySelectComponent -->
<g id="node13" class="node">
<title>EntrySelectComponent</title>
<polygon fill="#ffffb3" stroke="#000000" points="1113.1442,-122 966.8558,-122 966.8558,-86 1113.1442,-86 1113.1442,-122"/>
<text text-anchor="middle" x="1040" y="-99.8" font-family="Times,serif" font-size="14.00" fill="#000000">EntrySelectComponent</text>
</g>
<!-- EntrySelectComponent&#45;&gt;DataModule -->
<g id="edge13" class="edge">
<title>EntrySelectComponent&#45;&gt;DataModule</title>
<path fill="none" stroke="#000000" d="M1071.4869,-122.1871C1071.4869,-137.1824 1071.4869,-156 1071.4869,-156 1071.4869,-156 1404.7871,-156 1404.7871,-156"/>
<polygon fill="#000000" stroke="#000000" points="1404.7871,-159.5001 1414.7871,-156 1404.7871,-152.5001 1404.7871,-159.5001"/>
</g>
<!-- EntryListComponent  -->
<g id="node19" class="node">
<title>EntryListComponent </title>
<polygon fill="#fb8072" stroke="#000000" points="2572.7149,-252 2435.2851,-252 2435.2851,-216 2572.7149,-216 2572.7149,-252"/>
<text text-anchor="middle" x="2504" y="-229.8" font-family="Times,serif" font-size="14.00" fill="#000000">EntryListComponent </text>
</g>
<!-- DataModule&#45;&gt;EntryListComponent  -->
<g id="edge18" class="edge">
<title>DataModule&#45;&gt;EntryListComponent </title>
<path fill="none" stroke="#000000" stroke-dasharray="5,2" d="M1501.0338,-173C1694.5334,-173 2474.6261,-173 2474.6261,-173 2474.6261,-173 2474.6261,-205.698 2474.6261,-205.698"/>
<polygon fill="#000000" stroke="#000000" points="2471.1261,-205.698 2474.6261,-215.698 2478.1261,-205.698 2471.1261,-205.698"/>
</g>
<!-- EntryDirective  -->
<g id="node20" class="node">
<title>EntryDirective </title>
<polygon fill="#fb8072" stroke="#000000" points="2417.1871,-252 2314.8129,-252 2314.8129,-216 2417.1871,-216 2417.1871,-252"/>
<text text-anchor="middle" x="2366" y="-229.8" font-family="Times,serif" font-size="14.00" fill="#000000">EntryDirective </text>
</g>
<!-- DataModule&#45;&gt;EntryDirective  -->
<g id="edge19" class="edge">
<title>DataModule&#45;&gt;EntryDirective </title>
<path fill="none" stroke="#000000" stroke-dasharray="5,2" d="M1501.0527,-175C1677.7824,-175 2338.2614,-175 2338.2614,-175 2338.2614,-175 2338.2614,-205.9775 2338.2614,-205.9775"/>
<polygon fill="#000000" stroke="#000000" points="2334.7615,-205.9774 2338.2614,-215.9775 2341.7615,-205.9775 2334.7615,-205.9774"/>
</g>
<!-- EntriesDirective  -->
<g id="node21" class="node">
<title>EntriesDirective </title>
<polygon fill="#fb8072" stroke="#000000" points="2296.7367,-252 2185.2633,-252 2185.2633,-216 2296.7367,-216 2296.7367,-252"/>
<text text-anchor="middle" x="2241" y="-229.8" font-family="Times,serif" font-size="14.00" fill="#000000">EntriesDirective </text>
</g>
<!-- DataModule&#45;&gt;EntriesDirective  -->
<g id="edge20" class="edge">
<title>DataModule&#45;&gt;EntriesDirective </title>
<path fill="none" stroke="#000000" stroke-dasharray="5,2" d="M1501.0942,-177C1667.5822,-177 2259.5394,-177 2259.5394,-177 2259.5394,-177 2259.5394,-205.9648 2259.5394,-205.9648"/>
<polygon fill="#000000" stroke="#000000" points="2256.0395,-205.9648 2259.5394,-215.9648 2263.0395,-205.9649 2256.0395,-205.9648"/>
</g>
<!-- EntryFormComponent  -->
<g id="node22" class="node">
<title>EntryFormComponent </title>
<polygon fill="#fb8072" stroke="#000000" points="2167.2702,-252 2020.7298,-252 2020.7298,-216 2167.2702,-216 2167.2702,-252"/>
<text text-anchor="middle" x="2094" y="-229.8" font-family="Times,serif" font-size="14.00" fill="#000000">EntryFormComponent </text>
</g>
<!-- DataModule&#45;&gt;EntryFormComponent  -->
<g id="edge21" class="edge">
<title>DataModule&#45;&gt;EntryFormComponent </title>
<path fill="none" stroke="#000000" stroke-dasharray="5,2" d="M1501.1331,-179C1647.9595,-179 2119.2768,-179 2119.2768,-179 2119.2768,-179 2119.2768,-205.9909 2119.2768,-205.9909"/>
<polygon fill="#000000" stroke="#000000" points="2115.7769,-205.9909 2119.2768,-215.9909 2122.7769,-205.991 2115.7769,-205.9909"/>
</g>
<!-- EntryPopComponent  -->
<g id="node23" class="node">
<title>EntryPopComponent </title>
<polygon fill="#fb8072" stroke="#000000" points="2002.7191,-252 1865.2809,-252 1865.2809,-216 2002.7191,-216 2002.7191,-252"/>
<text text-anchor="middle" x="1934" y="-229.8" font-family="Times,serif" font-size="14.00" fill="#000000">EntryPopComponent </text>
</g>
<!-- DataModule&#45;&gt;EntryPopComponent  -->
<g id="edge22" class="edge">
<title>DataModule&#45;&gt;EntryPopComponent </title>
<path fill="none" stroke="#000000" stroke-dasharray="5,2" d="M1501.0814,-181C1618.2531,-181 1934,-181 1934,-181 1934,-181 1934,-205.7604 1934,-205.7604"/>
<polygon fill="#000000" stroke="#000000" points="1930.5001,-205.7604 1934,-215.7604 1937.5001,-205.7604 1930.5001,-205.7604"/>
</g>
<!-- CrudComponent  -->
<g id="node24" class="node">
<title>CrudComponent </title>
<polygon fill="#fb8072" stroke="#000000" points="1847.3297,-252 1734.6703,-252 1734.6703,-216 1847.3297,-216 1847.3297,-252"/>
<text text-anchor="middle" x="1791" y="-229.8" font-family="Times,serif" font-size="14.00" fill="#000000">CrudComponent </text>
</g>
<!-- DataModule&#45;&gt;CrudComponent  -->
<g id="edge23" class="edge">
<title>DataModule&#45;&gt;CrudComponent </title>
<path fill="none" stroke="#000000" stroke-dasharray="5,2" d="M1501.1162,-183C1589.9734,-183 1785.2306,-183 1785.2306,-183 1785.2306,-183 1785.2306,-205.8757 1785.2306,-205.8757"/>
<polygon fill="#000000" stroke="#000000" points="1781.7306,-205.8757 1785.2306,-215.8757 1788.7306,-205.8757 1781.7306,-205.8757"/>
</g>
<!-- EntrySelectComponent  -->
<g id="node25" class="node">
<title>EntrySelectComponent </title>
<polygon fill="#fb8072" stroke="#000000" points="1717.1439,-252 1566.8561,-252 1566.8561,-216 1717.1439,-216 1717.1439,-252"/>
<text text-anchor="middle" x="1642" y="-229.8" font-family="Times,serif" font-size="14.00" fill="#000000">EntrySelectComponent </text>
</g>
<!-- DataModule&#45;&gt;EntrySelectComponent  -->
<g id="edge24" class="edge">
<title>DataModule&#45;&gt;EntrySelectComponent </title>
<path fill="none" stroke="#000000" stroke-dasharray="5,2" d="M1501.2798,-185C1546.3522,-185 1610.4553,-185 1610.4553,-185 1610.4553,-185 1610.4553,-205.7542 1610.4553,-205.7542"/>
<polygon fill="#000000" stroke="#000000" points="1606.9554,-205.7542 1610.4553,-215.7542 1613.9554,-205.7542 1606.9554,-205.7542"/>
</g>
<!-- DatamanagerListComponent  -->
<g id="node26" class="node">
<title>DatamanagerListComponent </title>
<polygon fill="#fb8072" stroke="#000000" points="1548.7323,-252 1367.2677,-252 1367.2677,-216 1548.7323,-216 1548.7323,-252"/>
<text text-anchor="middle" x="1458" y="-229.8" font-family="Times,serif" font-size="14.00" fill="#000000">DatamanagerListComponent </text>
</g>
<!-- DataModule&#45;&gt;DatamanagerListComponent  -->
<g id="edge25" class="edge">
<title>DataModule&#45;&gt;DatamanagerListComponent </title>
<path fill="none" stroke="#000000" stroke-dasharray="5,2" d="M1458,-187.1061C1458,-187.1061 1458,-205.991 1458,-205.991"/>
<polygon fill="#000000" stroke="#000000" points="1454.5001,-205.9909 1458,-215.991 1461.5001,-205.991 1454.5001,-205.9909"/>
</g>
<!-- ModelListComponent  -->
<g id="node27" class="node">
<title>ModelListComponent </title>
<polygon fill="#fb8072" stroke="#000000" points="1349.6607,-252 1206.3393,-252 1206.3393,-216 1349.6607,-216 1349.6607,-252"/>
<text text-anchor="middle" x="1278" y="-229.8" font-family="Times,serif" font-size="14.00" fill="#000000">ModelListComponent </text>
</g>
<!-- DataModule&#45;&gt;ModelListComponent  -->
<g id="edge26" class="edge">
<title>DataModule&#45;&gt;ModelListComponent </title>
<path fill="none" stroke="#000000" stroke-dasharray="5,2" d="M1414.6827,-185C1369.1229,-185 1303.9648,-185 1303.9648,-185 1303.9648,-185 1303.9648,-205.7542 1303.9648,-205.7542"/>
<polygon fill="#000000" stroke="#000000" points="1300.4648,-205.7542 1303.9648,-215.7542 1307.4648,-205.7542 1300.4648,-205.7542"/>
</g>
<!-- ResourceListComponent  -->
<g id="node28" class="node">
<title>ResourceListComponent </title>
<polygon fill="#fb8072" stroke="#000000" points="1188.1967,-252 1029.8033,-252 1029.8033,-216 1188.1967,-216 1188.1967,-252"/>
<text text-anchor="middle" x="1109" y="-229.8" font-family="Times,serif" font-size="14.00" fill="#000000">ResourceListComponent </text>
</g>
<!-- DataModule&#45;&gt;ResourceListComponent  -->
<g id="edge27" class="edge">
<title>DataModule&#45;&gt;ResourceListComponent </title>
<path fill="none" stroke="#000000" stroke-dasharray="5,2" d="M1414.9636,-183C1332.3945,-183 1159.8417,-183 1159.8417,-183 1159.8417,-183 1159.8417,-205.8757 1159.8417,-205.8757"/>
<polygon fill="#000000" stroke="#000000" points="1156.3418,-205.8757 1159.8417,-215.8757 1163.3418,-205.8757 1156.3418,-205.8757"/>
</g>
<!-- ResourceFormComponent  -->
<g id="node29" class="node">
<title>ResourceFormComponent </title>
<polygon fill="#fb8072" stroke="#000000" points="1011.752,-252 844.248,-252 844.248,-216 1011.752,-216 1011.752,-252"/>
<text text-anchor="middle" x="928" y="-229.8" font-family="Times,serif" font-size="14.00" fill="#000000">ResourceFormComponent </text>
</g>
<!-- DataModule&#45;&gt;ResourceFormComponent  -->
<g id="edge28" class="edge">
<title>DataModule&#45;&gt;ResourceFormComponent </title>
<path fill="none" stroke="#000000" stroke-dasharray="5,2" d="M1414.7323,-181C1298.6649,-181 989.152,-181 989.152,-181 989.152,-181 989.152,-205.7604 989.152,-205.7604"/>
<polygon fill="#000000" stroke="#000000" points="985.6521,-205.7604 989.152,-215.7604 992.6521,-205.7604 985.6521,-205.7604"/>
</g>
<!-- UiModule  -->
<g id="node30" class="node">
<title>UiModule </title>
<polygon fill="#fb8072" stroke="#000000" points="826.547,-252 749.453,-252 749.453,-216 826.547,-216 826.547,-252"/>
<text text-anchor="middle" x="788" y="-229.8" font-family="Times,serif" font-size="14.00" fill="#000000">UiModule </text>
</g>
<!-- DataModule&#45;&gt;UiModule  -->
<g id="edge29" class="edge">
<title>DataModule&#45;&gt;UiModule </title>
<path fill="none" stroke="#000000" stroke-dasharray="5,2" d="M1414.9781,-179C1268.5304,-179 798.4287,-179 798.4287,-179 798.4287,-179 798.4287,-205.9909 798.4287,-205.9909"/>
<polygon fill="#000000" stroke="#000000" points="794.9287,-205.9909 798.4287,-215.9909 801.9287,-205.991 794.9287,-205.9909"/>
</g>
<!-- SdkModule  -->
<g id="node31" class="node">
<title>SdkModule </title>
<polygon fill="#fb8072" stroke="#000000" points="731.3326,-252 646.6674,-252 646.6674,-216 731.3326,-216 731.3326,-252"/>
<text text-anchor="middle" x="689" y="-229.8" font-family="Times,serif" font-size="14.00" fill="#000000">SdkModule </text>
</g>
<!-- DataModule&#45;&gt;SdkModule  -->
<g id="edge30" class="edge">
<title>DataModule&#45;&gt;SdkModule </title>
<path fill="none" stroke="#000000" stroke-dasharray="5,2" d="M1414.9907,-177C1254.3264,-177 698.5149,-177 698.5149,-177 698.5149,-177 698.5149,-205.9648 698.5149,-205.9648"/>
<polygon fill="#000000" stroke="#000000" points="695.015,-205.9648 698.5149,-215.9648 702.015,-205.9649 695.015,-205.9648"/>
</g>
<!-- FilesModule  -->
<g id="node32" class="node">
<title>FilesModule </title>
<polygon fill="#fb8072" stroke="#000000" points="628.2732,-252 537.7268,-252 537.7268,-216 628.2732,-216 628.2732,-252"/>
<text text-anchor="middle" x="583" y="-229.8" font-family="Times,serif" font-size="14.00" fill="#000000">FilesModule </text>
</g>
<!-- DataModule&#45;&gt;FilesModule  -->
<g id="edge31" class="edge">
<title>DataModule&#45;&gt;FilesModule </title>
<path fill="none" stroke="#000000" stroke-dasharray="5,2" d="M1414.8676,-175C1240.1327,-175 594.1815,-175 594.1815,-175 594.1815,-175 594.1815,-205.9775 594.1815,-205.9775"/>
<polygon fill="#000000" stroke="#000000" points="590.6815,-205.9774 594.1815,-215.9775 597.6815,-205.9775 590.6815,-205.9774"/>
</g>
<!-- AuthModule  -->
<g id="node33" class="node">
<title>AuthModule </title>
<polygon fill="#fb8072" stroke="#000000" points="519.547,-252 428.453,-252 428.453,-216 519.547,-216 519.547,-252"/>
<text text-anchor="middle" x="474" y="-229.8" font-family="Times,serif" font-size="14.00" fill="#000000">AuthModule </text>
</g>
<!-- DataModule&#45;&gt;AuthModule  -->
<g id="edge32" class="edge">
<title>DataModule&#45;&gt;AuthModule </title>
<path fill="none" stroke="#000000" stroke-dasharray="5,2" d="M1414.7681,-173C1224.8547,-173 474,-173 474,-173 474,-173 474,-205.698 474,-205.698"/>
<polygon fill="#000000" stroke="#000000" points="470.5001,-205.698 474,-215.698 477.5001,-205.698 470.5001,-205.698"/>
</g>
<!-- UiModule -->
<g id="node15" class="node">
<title>UiModule</title>
<polygon fill="#8dd3c7" stroke="#000000" points="942.5484,-122 939.5484,-126 918.5484,-126 915.5484,-122 869.4516,-122 869.4516,-86 942.5484,-86 942.5484,-122"/>
<text text-anchor="middle" x="906" y="-99.8" font-family="Times,serif" font-size="14.00" fill="#000000">UiModule</text>
</g>
<!-- UiModule&#45;&gt;DataModule -->
<g id="edge14" class="edge">
<title>UiModule&#45;&gt;DataModule</title>
<path fill="none" stroke="#000000" d="M906,-122.2819C906,-137.9478 906,-158 906,-158 906,-158 1404.6855,-158 1404.6855,-158"/>
<polygon fill="#000000" stroke="#000000" points="1404.6855,-161.5001 1414.6855,-158 1404.6855,-154.5001 1404.6855,-161.5001"/>
</g>
<!-- SdkModule -->
<g id="node16" class="node">
<title>SdkModule</title>
<polygon fill="#8dd3c7" stroke="#000000" points="851.8331,-122 848.8331,-126 827.8331,-126 824.8331,-122 770.1669,-122 770.1669,-86 851.8331,-86 851.8331,-122"/>
<text text-anchor="middle" x="811" y="-99.8" font-family="Times,serif" font-size="14.00" fill="#000000">SdkModule</text>
</g>
<!-- SdkModule&#45;&gt;DataModule -->
<g id="edge15" class="edge">
<title>SdkModule&#45;&gt;DataModule</title>
<path fill="none" stroke="#000000" d="M848.0202,-122.027C848.0202,-138.3976 848.0202,-160 848.0202,-160 848.0202,-160 1404.6208,-160 1404.6208,-160"/>
<polygon fill="#000000" stroke="#000000" points="1404.6208,-163.5001 1414.6208,-160 1404.6207,-156.5001 1404.6208,-163.5001"/>
</g>
<!-- FilesModule -->
<g id="node17" class="node">
<title>FilesModule</title>
<polygon fill="#8dd3c7" stroke="#000000" points="752.2731,-122 749.2731,-126 728.2731,-126 725.2731,-122 665.7269,-122 665.7269,-86 752.2731,-86 752.2731,-122"/>
<text text-anchor="middle" x="709" y="-99.8" font-family="Times,serif" font-size="14.00" fill="#000000">FilesModule</text>
</g>
<!-- FilesModule&#45;&gt;DataModule -->
<g id="edge16" class="edge">
<title>FilesModule&#45;&gt;DataModule</title>
<path fill="none" stroke="#000000" d="M740.4463,-122.0336C740.4463,-139.0597 740.4463,-162 740.4463,-162 740.4463,-162 1404.9965,-162 1404.9965,-162"/>
<polygon fill="#000000" stroke="#000000" points="1404.9966,-165.5001 1414.9965,-162 1404.9965,-158.5001 1404.9966,-165.5001"/>
</g>
<!-- AuthModule -->
<g id="node18" class="node">
<title>AuthModule</title>
<polygon fill="#8dd3c7" stroke="#000000" points="647.5482,-122 644.5482,-126 623.5482,-126 620.5482,-122 560.4518,-122 560.4518,-86 647.5482,-86 647.5482,-122"/>
<text text-anchor="middle" x="604" y="-99.8" font-family="Times,serif" font-size="14.00" fill="#000000">AuthModule</text>
</g>
<!-- AuthModule&#45;&gt;DataModule -->
<g id="edge17" class="edge">
<title>AuthModule&#45;&gt;DataModule</title>
<path fill="none" stroke="#000000" d="M637.3601,-122.002C637.3601,-139.6754 637.3601,-164 637.3601,-164 637.3601,-164 1404.7467,-164 1404.7467,-164"/>
<polygon fill="#000000" stroke="#000000" points="1404.7467,-167.5001 1414.7467,-164 1404.7466,-160.5001 1404.7467,-167.5001"/>
</g>
<!-- CrudService -->
<g id="node34" class="node">
<title>CrudService</title>
<ellipse fill="#fdb462" stroke="#000000" cx="477" cy="-104" rx="59.1083" ry="18"/>
<text text-anchor="middle" x="477" y="-99.8" font-family="Times,serif" font-size="14.00" fill="#000000">CrudService</text>
</g>
<!-- CrudService&#45;&gt;DataModule -->
<g id="edge33" class="edge">
<title>CrudService&#45;&gt;DataModule</title>
<path fill="none" stroke="#000000" d="M527.9137,-113.4165C527.9137,-130.7608 527.9137,-166 527.9137,-166 527.9137,-166 1405.0054,-166 1405.0054,-166"/>
<polygon fill="#000000" stroke="#000000" points="1405.0054,-169.5001 1415.0054,-166 1405.0053,-162.5001 1405.0054,-169.5001"/>
</g>
<!-- TypeConfigService -->
<g id="node35" class="node">
<title>TypeConfigService</title>
<ellipse fill="#fdb462" stroke="#000000" cx="313" cy="-104" rx="86.8184" ry="18"/>
<text text-anchor="middle" x="313" y="-99.8" font-family="Times,serif" font-size="14.00" fill="#000000">TypeConfigService</text>
</g>
<!-- TypeConfigService&#45;&gt;DataModule -->
<g id="edge34" class="edge">
<title>TypeConfigService&#45;&gt;DataModule</title>
<path fill="none" stroke="#000000" d="M313,-122.1686C313,-141.0898 313,-168 313,-168 313,-168 1404.8592,-168 1404.8592,-168"/>
<polygon fill="#000000" stroke="#000000" points="1404.8593,-171.5001 1414.8592,-168 1404.8592,-164.5001 1404.8593,-171.5001"/>
</g>
<!-- ModelConfigService -->
<g id="node36" class="node">
<title>ModelConfigService</title>
<ellipse fill="#fdb462" stroke="#000000" cx="116" cy="-104" rx="92.0548" ry="18"/>
<text text-anchor="middle" x="116" y="-99.8" font-family="Times,serif" font-size="14.00" fill="#000000">ModelConfigService</text>
</g>
<!-- ModelConfigService&#45;&gt;DataModule -->
<g id="edge35" class="edge">
<title>ModelConfigService&#45;&gt;DataModule</title>
<path fill="none" stroke="#000000" d="M116,-122.308C116,-142.1455 116,-171 116,-171 116,-171 1404.8692,-171 1404.8692,-171"/>
<polygon fill="#000000" stroke="#000000" points="1404.8692,-174.5001 1414.8692,-171 1404.8692,-167.5001 1404.8692,-174.5001"/>
</g>
</g>
</svg>
