<?xml version="1.0" encoding="UTF-8" standalone="no"?>
<!DOCTYPE svg PUBLIC "-//W3C//DTD SVG 1.1//EN"
 "http://www.w3.org/Graphics/SVG/1.1/DTD/svg11.dtd">
<!-- Generated by graphviz version 2.40.1 (20161225.0304)
 -->
<!-- Title: dependencies Pages: 1 -->
<svg width="525pt" height="284pt"
 viewBox="0.00 0.00 525.00 284.00" xmlns="http://www.w3.org/2000/svg" xmlns:xlink="http://www.w3.org/1999/xlink">
<g id="graph0" class="graph" transform="scale(1 1) rotate(0) translate(4 280)">
<title>dependencies</title>
<polygon fill="#ffffff" stroke="transparent" points="-4,4 -4,-280 521,-280 521,4 -4,4"/>
<text text-anchor="start" x="237.5091" y="-42.4" font-family="sans-serif" font-weight="bold" font-size="14.00" fill="#000000">Legend</text>
<polygon fill="#ffffb3" stroke="transparent" points="24.5,-10 24.5,-30 44.5,-30 44.5,-10 24.5,-10"/>
<text text-anchor="start" x="48.129" y="-15.4" font-family="sans-serif" font-size="14.00" fill="#000000"> &#160;Declarations</text>
<polygon fill="#8dd3c7" stroke="transparent" points="137.5,-10 137.5,-30 157.5,-30 157.5,-10 137.5,-10"/>
<text text-anchor="start" x="161.2251" y="-15.4" font-family="sans-serif" font-size="14.00" fill="#000000"> &#160;Module</text>
<polygon fill="#80b1d3" stroke="transparent" points="223.5,-10 223.5,-30 243.5,-30 243.5,-10 223.5,-10"/>
<text text-anchor="start" x="247.2812" y="-15.4" font-family="sans-serif" font-size="14.00" fill="#000000"> &#160;Bootstrap</text>
<polygon fill="#fdb462" stroke="transparent" points="320.5,-10 320.5,-30 340.5,-30 340.5,-10 320.5,-10"/>
<text text-anchor="start" x="344.1732" y="-15.4" font-family="sans-serif" font-size="14.00" fill="#000000"> &#160;Providers</text>
<polygon fill="#fb8072" stroke="transparent" points="416.5,-10 416.5,-30 436.5,-30 436.5,-10 416.5,-10"/>
<text text-anchor="start" x="440.2258" y="-15.4" font-family="sans-serif" font-size="14.00" fill="#000000"> &#160;Exports</text>
<g id="clust1" class="cluster">
<title>cluster_DataModule</title>
<polygon fill="none" stroke="#000000" stroke-dasharray="1,5" points="8,-70 8,-268 509,-268 509,-70 8,-70"/>
</g>
<g id="clust2" class="cluster">
<title>cluster_DataModule_declarations</title>
<polygon fill="none" stroke="#000000" points="351,-78 351,-130 501,-130 501,-78 351,-78"/>
</g>
<g id="clust4" class="cluster">
<title>cluster_DataModule_imports</title>
<polygon fill="none" stroke="#000000" points="16,-78 16,-130 343,-130 343,-78 16,-78"/>
</g>
<g id="clust5" class="cluster">
<title>cluster_DataModule_exports</title>
<polygon fill="none" stroke="#000000" points="145,-208 145,-260 299,-260 299,-208 145,-208"/>
</g>
<!-- EntryListComponent -->
<g id="node1" class="node">
<title>EntryListComponent</title>
<polygon fill="#ffffb3" stroke="#000000" points="493.2148,-122 358.7852,-122 358.7852,-86 493.2148,-86 493.2148,-122"/>
<text text-anchor="middle" x="426" y="-99.8" font-family="Times,serif" font-size="14.00" fill="#000000">EntryListComponent</text>
</g>
<!-- DataModule -->
<g id="node2" class="node">
<title>DataModule</title>
<polygon fill="#8dd3c7" stroke="#000000" points="264.9762,-187 261.9762,-191 240.9762,-191 237.9762,-187 179.0238,-187 179.0238,-151 264.9762,-151 264.9762,-187"/>
<text text-anchor="middle" x="222" y="-164.8" font-family="Times,serif" font-size="14.00" fill="#000000">DataModule</text>
</g>
<!-- EntryListComponent&#45;&gt;DataModule -->
<g id="edge1" class="edge">
<title>EntryListComponent&#45;&gt;DataModule</title>
<path fill="none" stroke="#000000" d="M426,-122.1061C426,-141.3391 426,-169 426,-169 426,-169 275.2632,-169 275.2632,-169"/>
<polygon fill="#000000" stroke="#000000" points="275.2632,-165.5001 265.2632,-169 275.2631,-172.5001 275.2632,-165.5001"/>
</g>
<!-- EntryListComponent  -->
<g id="node6" class="node">
<title>EntryListComponent </title>
<polygon fill="#fb8072" stroke="#000000" points="290.7149,-252 153.2851,-252 153.2851,-216 290.7149,-216 290.7149,-252"/>
<text text-anchor="middle" x="222" y="-229.8" font-family="Times,serif" font-size="14.00" fill="#000000">EntryListComponent </text>
</g>
<!-- DataModule&#45;&gt;EntryListComponent  -->
<g id="edge5" class="edge">
<title>DataModule&#45;&gt;EntryListComponent </title>
<path fill="none" stroke="#000000" stroke-dasharray="5,2" d="M222,-187.1061C222,-187.1061 222,-205.991 222,-205.991"/>
<polygon fill="#000000" stroke="#000000" points="218.5001,-205.9909 222,-215.991 225.5001,-205.991 218.5001,-205.9909"/>
</g>
<!-- BrowserModule -->
<g id="node3" class="node">
<title>BrowserModule</title>
<polygon fill="#8dd3c7" stroke="#000000" points="335.4734,-122 332.4734,-126 311.4734,-126 308.4734,-122 228.5266,-122 228.5266,-86 335.4734,-86 335.4734,-122"/>
<text text-anchor="middle" x="282" y="-99.8" font-family="Times,serif" font-size="14.00" fill="#000000">BrowserModule</text>
</g>
<!-- BrowserModule&#45;&gt;DataModule -->
<g id="edge2" class="edge">
<title>BrowserModule&#45;&gt;DataModule</title>
<path fill="none" stroke="#000000" d="M246.7507,-122.1061C246.7507,-122.1061 246.7507,-140.991 246.7507,-140.991"/>
<polygon fill="#000000" stroke="#000000" points="243.2508,-140.9909 246.7507,-150.991 250.2508,-140.991 243.2508,-140.9909"/>
</g>
<!-- FormsModule -->
<g id="node4" class="node">
<title>FormsModule</title>
<polygon fill="#8dd3c7" stroke="#000000" points="210.8288,-122 207.8288,-126 186.8288,-126 183.8288,-122 115.1712,-122 115.1712,-86 210.8288,-86 210.8288,-122"/>
<text text-anchor="middle" x="163" y="-99.8" font-family="Times,serif" font-size="14.00" fill="#000000">FormsModule</text>
</g>
<!-- FormsModule&#45;&gt;DataModule -->
<g id="edge3" class="edge">
<title>FormsModule&#45;&gt;DataModule</title>
<path fill="none" stroke="#000000" d="M194.838,-122.1061C194.838,-122.1061 194.838,-140.991 194.838,-140.991"/>
<polygon fill="#000000" stroke="#000000" points="191.3381,-140.9909 194.838,-150.991 198.3381,-140.991 191.3381,-140.9909"/>
</g>
<!-- UiModule -->
<g id="node5" class="node">
<title>UiModule</title>
<polygon fill="#8dd3c7" stroke="#000000" points="97.5484,-122 94.5484,-126 73.5484,-126 70.5484,-122 24.4516,-122 24.4516,-86 97.5484,-86 97.5484,-122"/>
<text text-anchor="middle" x="61" y="-99.8" font-family="Times,serif" font-size="14.00" fill="#000000">UiModule</text>
</g>
<!-- UiModule&#45;&gt;DataModule -->
<g id="edge4" class="edge">
<title>UiModule&#45;&gt;DataModule</title>
<path fill="none" stroke="#000000" d="M61,-122.1061C61,-141.3391 61,-169 61,-169 61,-169 168.855,-169 168.855,-169"/>
<polygon fill="#000000" stroke="#000000" points="168.855,-172.5001 178.855,-169 168.8549,-165.5001 168.855,-172.5001"/>
</g>
</g>
</svg>
