<?xml version="1.0" encoding="UTF-8" standalone="no"?>
<!DOCTYPE svg PUBLIC "-//W3C//DTD SVG 1.1//EN"
 "http://www.w3.org/Graphics/SVG/1.1/DTD/svg11.dtd">
<!-- Generated by graphviz version 2.40.1 (20161225.0304)
 -->
<!-- Title: dependencies Pages: 1 -->
<svg width="2877pt" height="284pt"
 viewBox="0.00 0.00 2877.00 284.00" xmlns="http://www.w3.org/2000/svg" xmlns:xlink="http://www.w3.org/1999/xlink">
<g id="graph0" class="graph" transform="scale(1 1) rotate(0) translate(4 280)">
<title>dependencies</title>
<polygon fill="#ffffff" stroke="transparent" points="-4,4 -4,-280 2873,-280 2873,4 -4,4"/>
<text text-anchor="start" x="1413.5091" y="-42.4" font-family="sans-serif" font-weight="bold" font-size="14.00" fill="#000000">Legend</text>
<polygon fill="#ffffb3" stroke="transparent" points="1200.5,-10 1200.5,-30 1220.5,-30 1220.5,-10 1200.5,-10"/>
<text text-anchor="start" x="1224.129" y="-15.4" font-family="sans-serif" font-size="14.00" fill="#000000"> &#160;Declarations</text>
<polygon fill="#8dd3c7" stroke="transparent" points="1313.5,-10 1313.5,-30 1333.5,-30 1333.5,-10 1313.5,-10"/>
<text text-anchor="start" x="1337.2251" y="-15.4" font-family="sans-serif" font-size="14.00" fill="#000000"> &#160;Module</text>
<polygon fill="#80b1d3" stroke="transparent" points="1399.5,-10 1399.5,-30 1419.5,-30 1419.5,-10 1399.5,-10"/>
<text text-anchor="start" x="1423.2812" y="-15.4" font-family="sans-serif" font-size="14.00" fill="#000000"> &#160;Bootstrap</text>
<polygon fill="#fdb462" stroke="transparent" points="1496.5,-10 1496.5,-30 1516.5,-30 1516.5,-10 1496.5,-10"/>
<text text-anchor="start" x="1520.1732" y="-15.4" font-family="sans-serif" font-size="14.00" fill="#000000"> &#160;Providers</text>
<polygon fill="#fb8072" stroke="transparent" points="1592.5,-10 1592.5,-30 1612.5,-30 1612.5,-10 1592.5,-10"/>
<text text-anchor="start" x="1616.2258" y="-15.4" font-family="sans-serif" font-size="14.00" fill="#000000"> &#160;Exports</text>
<g id="clust1" class="cluster">
<title>cluster_DataModule</title>
<polygon fill="none" stroke="#000000" stroke-dasharray="1,5" points="8,-70 8,-268 2861,-268 2861,-70 8,-70"/>
</g>
<g id="clust2" class="cluster">
<title>cluster_DataModule_declarations</title>
<polygon fill="none" stroke="#000000" points="1244,-78 1244,-130 2853,-130 2853,-78 1244,-78"/>
</g>
<g id="clust13" class="cluster">
<title>cluster_DataModule_imports</title>
<polygon fill="none" stroke="#000000" points="708,-78 708,-130 1236,-130 1236,-78 708,-78"/>
</g>
<g id="clust14" class="cluster">
<title>cluster_DataModule_exports</title>
<polygon fill="none" stroke="#000000" points="562,-208 562,-260 2134,-260 2134,-208 562,-208"/>
</g>
<g id="clust16" class="cluster">
<title>cluster_DataModule_providers</title>
<polygon fill="none" stroke="#000000" points="16,-78 16,-130 700,-130 700,-78 16,-78"/>
</g>
<!-- AdminEntryInputComponent -->
<g id="node1" class="node">
<title>AdminEntryInputComponent</title>
<polygon fill="#ffffb3" stroke="#000000" points="2845.3752,-122 2664.6248,-122 2664.6248,-86 2845.3752,-86 2845.3752,-122"/>
<text text-anchor="middle" x="2755" y="-99.8" font-family="Times,serif" font-size="14.00" fill="#000000">AdminEntryInputComponent</text>
</g>
<!-- DataModule -->
<g id="node11" class="node">
<title>DataModule</title>
<polygon fill="#8dd3c7" stroke="#000000" points="1367.9762,-187 1364.9762,-191 1343.9762,-191 1340.9762,-187 1282.0238,-187 1282.0238,-151 1367.9762,-151 1367.9762,-187"/>
<text text-anchor="middle" x="1325" y="-164.8" font-family="Times,serif" font-size="14.00" fill="#000000">DataModule</text>
</g>
<!-- AdminEntryInputComponent&#45;&gt;DataModule -->
<g id="edge1" class="edge">
<title>AdminEntryInputComponent&#45;&gt;DataModule</title>
<path fill="none" stroke="#000000" d="M2755,-122.1289C2755,-142.5724 2755,-173 2755,-173 2755,-173 1378.1867,-173 1378.1867,-173"/>
<polygon fill="#000000" stroke="#000000" points="1378.1867,-169.5001 1368.1867,-173 1378.1866,-176.5001 1378.1867,-169.5001"/>
</g>
<!-- CrudComponent -->
<g id="node2" class="node">
<title>CrudComponent</title>
<polygon fill="#ffffb3" stroke="#000000" points="2646.8301,-122 2537.1699,-122 2537.1699,-86 2646.8301,-86 2646.8301,-122"/>
<text text-anchor="middle" x="2592" y="-99.8" font-family="Times,serif" font-size="14.00" fill="#000000">CrudComponent</text>
</g>
<!-- CrudComponent&#45;&gt;DataModule -->
<g id="edge2" class="edge">
<title>CrudComponent&#45;&gt;DataModule</title>
<path fill="none" stroke="#000000" d="M2592,-122.308C2592,-142.1455 2592,-171 2592,-171 2592,-171 1378.2465,-171 1378.2465,-171"/>
<polygon fill="#000000" stroke="#000000" points="1378.2465,-167.5001 1368.2465,-171 1378.2464,-174.5001 1378.2465,-167.5001"/>
</g>
<!-- DefaultEntryInputComponent -->
<g id="node3" class="node">
<title>DefaultEntryInputComponent</title>
<polygon fill="#ffffb3" stroke="#000000" points="2518.965,-122 2335.035,-122 2335.035,-86 2518.965,-86 2518.965,-122"/>
<text text-anchor="middle" x="2427" y="-99.8" font-family="Times,serif" font-size="14.00" fill="#000000">DefaultEntryInputComponent</text>
</g>
<!-- DefaultEntryInputComponent&#45;&gt;DataModule -->
<g id="edge3" class="edge">
<title>DefaultEntryInputComponent&#45;&gt;DataModule</title>
<path fill="none" stroke="#000000" d="M2427,-122.1686C2427,-141.0898 2427,-168 2427,-168 2427,-168 1378.1997,-168 1378.1997,-168"/>
<polygon fill="#000000" stroke="#000000" points="1378.1997,-164.5001 1368.1997,-168 1378.1997,-171.5001 1378.1997,-164.5001"/>
</g>
<!-- DefaultEntryOutputComponent -->
<g id="node4" class="node">
<title>DefaultEntryOutputComponent</title>
<polygon fill="#ffffb3" stroke="#000000" points="2316.8018,-122 2123.1982,-122 2123.1982,-86 2316.8018,-86 2316.8018,-122"/>
<text text-anchor="middle" x="2220" y="-99.8" font-family="Times,serif" font-size="14.00" fill="#000000">DefaultEntryOutputComponent</text>
</g>
<!-- DefaultEntryOutputComponent&#45;&gt;DataModule -->
<g id="edge4" class="edge">
<title>DefaultEntryOutputComponent&#45;&gt;DataModule</title>
<path fill="none" stroke="#000000" d="M2221.0872,-122.2667C2221.0872,-140.5552 2221.0872,-166 2221.0872,-166 2221.0872,-166 1378.2201,-166 1378.2201,-166"/>
<polygon fill="#000000" stroke="#000000" points="1378.2202,-162.5001 1368.2201,-166 1378.2201,-169.5001 1378.2202,-162.5001"/>
</g>
<!-- EntriesDirective -->
<g id="node5" class="node">
<title>EntriesDirective</title>
<polygon fill="#ffffb3" stroke="#000000" points="2104.7367,-122 1997.2633,-122 1997.2633,-86 2104.7367,-86 2104.7367,-122"/>
<text text-anchor="middle" x="2051" y="-99.8" font-family="Times,serif" font-size="14.00" fill="#000000">EntriesDirective</text>
</g>
<!-- EntriesDirective&#45;&gt;DataModule -->
<g id="edge5" class="edge">
<title>EntriesDirective&#45;&gt;DataModule</title>
<path fill="none" stroke="#000000" d="M2006.7733,-122.0225C2006.7733,-139.3734 2006.7733,-163 2006.7733,-163 2006.7733,-163 1378.1652,-163 1378.1652,-163"/>
<polygon fill="#000000" stroke="#000000" points="1378.1652,-159.5001 1368.1652,-163 1378.1652,-166.5001 1378.1652,-159.5001"/>
</g>
<!-- EntryDirective -->
<g id="node6" class="node">
<title>EntryDirective</title>
<polygon fill="#ffffb3" stroke="#000000" points="1979.6868,-122 1880.3132,-122 1880.3132,-86 1979.6868,-86 1979.6868,-122"/>
<text text-anchor="middle" x="1930" y="-99.8" font-family="Times,serif" font-size="14.00" fill="#000000">EntryDirective</text>
</g>
<!-- EntryDirective&#45;&gt;DataModule -->
<g id="edge6" class="edge">
<title>EntryDirective&#45;&gt;DataModule</title>
<path fill="none" stroke="#000000" d="M1894.6017,-122.0352C1894.6017,-138.7344 1894.6017,-161 1894.6017,-161 1894.6017,-161 1378.2802,-161 1378.2802,-161"/>
<polygon fill="#000000" stroke="#000000" points="1378.2803,-157.5001 1368.2802,-161 1378.2802,-164.5001 1378.2803,-157.5001"/>
</g>
<!-- EntryFormComponent -->
<g id="node7" class="node">
<title>EntryFormComponent</title>
<polygon fill="#ffffb3" stroke="#000000" points="1862.2702,-122 1719.7298,-122 1719.7298,-86 1862.2702,-86 1862.2702,-122"/>
<text text-anchor="middle" x="1791" y="-99.8" font-family="Times,serif" font-size="14.00" fill="#000000">EntryFormComponent</text>
</g>
<!-- EntryFormComponent&#45;&gt;DataModule -->
<g id="edge7" class="edge">
<title>EntryFormComponent&#45;&gt;DataModule</title>
<path fill="none" stroke="#000000" d="M1737.9792,-122.0091C1737.9792,-138.0494 1737.9792,-159 1737.9792,-159 1737.9792,-159 1378.0273,-159 1378.0273,-159"/>
<polygon fill="#000000" stroke="#000000" points="1378.0273,-155.5001 1368.0273,-159 1378.0273,-162.5001 1378.0273,-155.5001"/>
</g>
<!-- EntryListComponent -->
<g id="node8" class="node">
<title>EntryListComponent</title>
<polygon fill="#ffffb3" stroke="#000000" points="1702.2148,-122 1567.7852,-122 1567.7852,-86 1702.2148,-86 1702.2148,-122"/>
<text text-anchor="middle" x="1635" y="-99.8" font-family="Times,serif" font-size="14.00" fill="#000000">EntryListComponent</text>
</g>
<!-- EntryListComponent&#45;&gt;DataModule -->
<g id="edge8" class="edge">
<title>EntryListComponent&#45;&gt;DataModule</title>
<path fill="none" stroke="#000000" d="M1602.0138,-122.1871C1602.0138,-137.1824 1602.0138,-156 1602.0138,-156 1602.0138,-156 1377.9795,-156 1377.9795,-156"/>
<polygon fill="#000000" stroke="#000000" points="1377.9795,-152.5001 1367.9795,-156 1377.9794,-159.5001 1377.9795,-152.5001"/>
</g>
<!-- EntryPopComponent -->
<g id="node9" class="node">
<title>EntryPopComponent</title>
<polygon fill="#ffffb3" stroke="#000000" points="1550.219,-122 1415.781,-122 1415.781,-86 1550.219,-86 1550.219,-122"/>
<text text-anchor="middle" x="1483" y="-99.8" font-family="Times,serif" font-size="14.00" fill="#000000">EntryPopComponent</text>
</g>
<!-- EntryPopComponent&#45;&gt;DataModule -->
<g id="edge9" class="edge">
<title>EntryPopComponent&#45;&gt;DataModule</title>
<path fill="none" stroke="#000000" d="M1443.874,-122.0511C1443.874,-136.373 1443.874,-154 1443.874,-154 1443.874,-154 1378.2525,-154 1378.2525,-154"/>
<polygon fill="#000000" stroke="#000000" points="1378.2525,-150.5001 1368.2525,-154 1378.2525,-157.5001 1378.2525,-150.5001"/>
</g>
<!-- EntrySelectComponent -->
<g id="node10" class="node">
<title>EntrySelectComponent</title>
<polygon fill="#ffffb3" stroke="#000000" points="1398.1442,-122 1251.8558,-122 1251.8558,-86 1398.1442,-86 1398.1442,-122"/>
<text text-anchor="middle" x="1325" y="-99.8" font-family="Times,serif" font-size="14.00" fill="#000000">EntrySelectComponent</text>
</g>
<!-- EntrySelectComponent&#45;&gt;DataModule -->
<g id="edge10" class="edge">
<title>EntrySelectComponent&#45;&gt;DataModule</title>
<path fill="none" stroke="#000000" d="M1325,-122.1061C1325,-122.1061 1325,-140.991 1325,-140.991"/>
<polygon fill="#000000" stroke="#000000" points="1321.5001,-140.9909 1325,-150.991 1328.5001,-140.991 1321.5001,-140.9909"/>
</g>
<!-- AuthModule  -->
<g id="node17" class="node">
<title>AuthModule </title>
<polygon fill="#fb8072" stroke="#000000" points="2125.547,-252 2034.453,-252 2034.453,-216 2125.547,-216 2125.547,-252"/>
<text text-anchor="middle" x="2080" y="-229.8" font-family="Times,serif" font-size="14.00" fill="#000000">AuthModule </text>
</g>
<!-- DataModule&#45;&gt;AuthModule  -->
<g id="edge16" class="edge">
<title>DataModule&#45;&gt;AuthModule </title>
<path fill="none" stroke="#000000" stroke-dasharray="5,2" d="M1367.9831,-175C1526.5659,-175 2069.6724,-175 2069.6724,-175 2069.6724,-175 2069.6724,-205.9775 2069.6724,-205.9775"/>
<polygon fill="#000000" stroke="#000000" points="2066.1724,-205.9774 2069.6724,-215.9775 2073.1724,-205.9775 2066.1724,-205.9774"/>
</g>
<!-- CrudComponent  -->
<g id="node18" class="node">
<title>CrudComponent </title>
<polygon fill="#fb8072" stroke="#000000" points="2016.3297,-252 1903.6703,-252 1903.6703,-216 2016.3297,-216 2016.3297,-252"/>
<text text-anchor="middle" x="1960" y="-229.8" font-family="Times,serif" font-size="14.00" fill="#000000">CrudComponent </text>
</g>
<!-- DataModule&#45;&gt;CrudComponent  -->
<g id="edge17" class="edge">
<title>DataModule&#45;&gt;CrudComponent </title>
<path fill="none" stroke="#000000" stroke-dasharray="5,2" d="M1368.3574,-178C1508.7062,-178 1941.5893,-178 1941.5893,-178 1941.5893,-178 1941.5893,-205.973 1941.5893,-205.973"/>
<polygon fill="#000000" stroke="#000000" points="1938.0893,-205.973 1941.5893,-215.973 1945.0893,-205.973 1938.0893,-205.973"/>
</g>
<!-- EntriesDirective  -->
<g id="node19" class="node">
<title>EntriesDirective </title>
<polygon fill="#fb8072" stroke="#000000" points="1885.7367,-252 1774.2633,-252 1774.2633,-216 1885.7367,-216 1885.7367,-252"/>
<text text-anchor="middle" x="1830" y="-229.8" font-family="Times,serif" font-size="14.00" fill="#000000">EntriesDirective </text>
</g>
<!-- DataModule&#45;&gt;EntriesDirective  -->
<g id="edge18" class="edge">
<title>DataModule&#45;&gt;EntriesDirective </title>
<path fill="none" stroke="#000000" stroke-dasharray="5,2" d="M1368.3521,-180C1488.7467,-180 1818.3834,-180 1818.3834,-180 1818.3834,-180 1818.3834,-205.7181 1818.3834,-205.7181"/>
<polygon fill="#000000" stroke="#000000" points="1814.8835,-205.718 1818.3834,-215.7181 1821.8835,-205.7181 1814.8835,-205.718"/>
</g>
<!-- EntryDirective  -->
<g id="node20" class="node">
<title>EntryDirective </title>
<polygon fill="#fb8072" stroke="#000000" points="1756.1871,-252 1653.8129,-252 1653.8129,-216 1756.1871,-216 1756.1871,-252"/>
<text text-anchor="middle" x="1705" y="-229.8" font-family="Times,serif" font-size="14.00" fill="#000000">EntryDirective </text>
</g>
<!-- DataModule&#45;&gt;EntryDirective  -->
<g id="edge19" class="edge">
<title>DataModule&#45;&gt;EntryDirective </title>
<path fill="none" stroke="#000000" stroke-dasharray="5,2" d="M1368.2703,-183C1462.4999,-183 1677.882,-183 1677.882,-183 1677.882,-183 1677.882,-205.8757 1677.882,-205.8757"/>
<polygon fill="#000000" stroke="#000000" points="1674.3821,-205.8757 1677.882,-215.8757 1681.3821,-205.8757 1674.3821,-205.8757"/>
</g>
<!-- EntryFormComponent  -->
<g id="node21" class="node">
<title>EntryFormComponent </title>
<polygon fill="#fb8072" stroke="#000000" points="1636.2702,-252 1489.7298,-252 1489.7298,-216 1636.2702,-216 1636.2702,-252"/>
<text text-anchor="middle" x="1563" y="-229.8" font-family="Times,serif" font-size="14.00" fill="#000000">EntryFormComponent </text>
</g>
<!-- DataModule&#45;&gt;EntryFormComponent  -->
<g id="edge20" class="edge">
<title>DataModule&#45;&gt;EntryFormComponent </title>
<path fill="none" stroke="#000000" stroke-dasharray="5,2" d="M1368.274,-185C1425.7188,-185 1519.9872,-185 1519.9872,-185 1519.9872,-185 1519.9872,-205.7542 1519.9872,-205.7542"/>
<polygon fill="#000000" stroke="#000000" points="1516.4873,-205.7542 1519.9872,-215.7542 1523.4873,-205.7542 1516.4873,-205.7542"/>
</g>
<!-- EntryListComponent  -->
<g id="node22" class="node">
<title>EntryListComponent </title>
<polygon fill="#fb8072" stroke="#000000" points="1471.7149,-252 1334.2851,-252 1334.2851,-216 1471.7149,-216 1471.7149,-252"/>
<text text-anchor="middle" x="1403" y="-229.8" font-family="Times,serif" font-size="14.00" fill="#000000">EntryListComponent </text>
</g>
<!-- DataModule&#45;&gt;EntryListComponent  -->
<g id="edge21" class="edge">
<title>DataModule&#45;&gt;EntryListComponent </title>
<path fill="none" stroke="#000000" stroke-dasharray="5,2" d="M1351.0654,-187.1061C1351.0654,-187.1061 1351.0654,-205.991 1351.0654,-205.991"/>
<polygon fill="#000000" stroke="#000000" points="1347.5655,-205.9909 1351.0654,-215.991 1354.5655,-205.991 1347.5655,-205.9909"/>
</g>
<!-- EntryPopComponent  -->
<g id="node23" class="node">
<title>EntryPopComponent </title>
<polygon fill="#fb8072" stroke="#000000" points="1315.7191,-252 1178.2809,-252 1178.2809,-216 1315.7191,-216 1315.7191,-252"/>
<text text-anchor="middle" x="1247" y="-229.8" font-family="Times,serif" font-size="14.00" fill="#000000">EntryPopComponent </text>
</g>
<!-- DataModule&#45;&gt;EntryPopComponent  -->
<g id="edge22" class="edge">
<title>DataModule&#45;&gt;EntryPopComponent </title>
<path fill="none" stroke="#000000" stroke-dasharray="5,2" d="M1298.9356,-187.1061C1298.9356,-187.1061 1298.9356,-205.991 1298.9356,-205.991"/>
<polygon fill="#000000" stroke="#000000" points="1295.4357,-205.9909 1298.9356,-215.991 1302.4357,-205.991 1295.4357,-205.9909"/>
</g>
<!-- EntrySelectComponent  -->
<g id="node24" class="node">
<title>EntrySelectComponent </title>
<polygon fill="#fb8072" stroke="#000000" points="1160.1439,-252 1009.8561,-252 1009.8561,-216 1160.1439,-216 1160.1439,-252"/>
<text text-anchor="middle" x="1085" y="-229.8" font-family="Times,serif" font-size="14.00" fill="#000000">EntrySelectComponent </text>
</g>
<!-- DataModule&#45;&gt;EntrySelectComponent  -->
<g id="edge23" class="edge">
<title>DataModule&#45;&gt;EntrySelectComponent </title>
<path fill="none" stroke="#000000" stroke-dasharray="5,2" d="M1281.7784,-185C1230.0001,-185 1150.1492,-185 1150.1492,-185 1150.1492,-185 1150.1492,-205.7542 1150.1492,-205.7542"/>
<polygon fill="#000000" stroke="#000000" points="1146.6493,-205.7542 1150.1492,-215.7542 1153.6493,-205.7542 1146.6493,-205.7542"/>
</g>
<!-- FilesModule  -->
<g id="node25" class="node">
<title>FilesModule </title>
<polygon fill="#fb8072" stroke="#000000" points="992.2732,-252 901.7268,-252 901.7268,-216 992.2732,-216 992.2732,-252"/>
<text text-anchor="middle" x="947" y="-229.8" font-family="Times,serif" font-size="14.00" fill="#000000">FilesModule </text>
</g>
<!-- DataModule&#45;&gt;FilesModule  -->
<g id="edge24" class="edge">
<title>DataModule&#45;&gt;FilesModule </title>
<path fill="none" stroke="#000000" stroke-dasharray="5,2" d="M1281.8863,-183C1183.1651,-183 949.1594,-183 949.1594,-183 949.1594,-183 949.1594,-205.8757 949.1594,-205.8757"/>
<polygon fill="#000000" stroke="#000000" points="945.6594,-205.8757 949.1594,-215.8757 952.6594,-205.8757 945.6594,-205.8757"/>
</g>
<!-- ResourceModule  -->
<g id="node26" class="node">
<title>ResourceModule </title>
<polygon fill="#fb8072" stroke="#000000" points="883.6355,-252 768.3645,-252 768.3645,-216 883.6355,-216 883.6355,-252"/>
<text text-anchor="middle" x="826" y="-229.8" font-family="Times,serif" font-size="14.00" fill="#000000">ResourceModule </text>
</g>
<!-- DataModule&#45;&gt;ResourceModule  -->
<g id="edge25" class="edge">
<title>DataModule&#45;&gt;ResourceModule </title>
<path fill="none" stroke="#000000" stroke-dasharray="5,2" d="M1281.7471,-180C1161.6278,-180 832.7451,-180 832.7451,-180 832.7451,-180 832.7451,-205.7181 832.7451,-205.7181"/>
<polygon fill="#000000" stroke="#000000" points="829.2452,-205.718 832.7451,-215.7181 836.2452,-205.7181 829.2452,-205.718"/>
</g>
<!-- SdkModule  -->
<g id="node27" class="node">
<title>SdkModule </title>
<polygon fill="#fb8072" stroke="#000000" points="750.3326,-252 665.6674,-252 665.6674,-216 750.3326,-216 750.3326,-252"/>
<text text-anchor="middle" x="708" y="-229.8" font-family="Times,serif" font-size="14.00" fill="#000000">SdkModule </text>
</g>
<!-- DataModule&#45;&gt;SdkModule  -->
<g id="edge26" class="edge">
<title>DataModule&#45;&gt;SdkModule </title>
<path fill="none" stroke="#000000" stroke-dasharray="5,2" d="M1281.9713,-178C1145.8159,-178 733.3213,-178 733.3213,-178 733.3213,-178 733.3213,-205.973 733.3213,-205.973"/>
<polygon fill="#000000" stroke="#000000" points="729.8214,-205.973 733.3213,-215.973 736.8214,-205.973 729.8214,-205.973"/>
</g>
<!-- UiModule  -->
<g id="node28" class="node">
<title>UiModule </title>
<polygon fill="#fb8072" stroke="#000000" points="647.547,-252 570.453,-252 570.453,-216 647.547,-216 647.547,-252"/>
<text text-anchor="middle" x="609" y="-229.8" font-family="Times,serif" font-size="14.00" fill="#000000">UiModule </text>
</g>
<!-- DataModule&#45;&gt;UiModule  -->
<g id="edge27" class="edge">
<title>DataModule&#45;&gt;UiModule </title>
<path fill="none" stroke="#000000" stroke-dasharray="5,2" d="M1281.9205,-175C1127.4686,-175 610.6098,-175 610.6098,-175 610.6098,-175 610.6098,-205.9775 610.6098,-205.9775"/>
<polygon fill="#000000" stroke="#000000" points="607.1099,-205.9774 610.6098,-215.9775 614.1099,-205.9775 607.1099,-205.9774"/>
</g>
<!-- AuthModule -->
<g id="node12" class="node">
<title>AuthModule</title>
<polygon fill="#8dd3c7" stroke="#000000" points="1227.5482,-122 1224.5482,-126 1203.5482,-126 1200.5482,-122 1140.4518,-122 1140.4518,-86 1227.5482,-86 1227.5482,-122"/>
<text text-anchor="middle" x="1184" y="-99.8" font-family="Times,serif" font-size="14.00" fill="#000000">AuthModule</text>
</g>
<!-- AuthModule&#45;&gt;DataModule -->
<g id="edge11" class="edge">
<title>AuthModule&#45;&gt;DataModule</title>
<path fill="none" stroke="#000000" d="M1202.9571,-122.0511C1202.9571,-136.373 1202.9571,-154 1202.9571,-154 1202.9571,-154 1271.9722,-154 1271.9722,-154"/>
<polygon fill="#000000" stroke="#000000" points="1271.9723,-157.5001 1281.9722,-154 1271.9722,-150.5001 1271.9723,-157.5001"/>
</g>
<!-- FilesModule -->
<g id="node13" class="node">
<title>FilesModule</title>
<polygon fill="#8dd3c7" stroke="#000000" points="1122.2731,-122 1119.2731,-126 1098.2731,-126 1095.2731,-122 1035.7269,-122 1035.7269,-86 1122.2731,-86 1122.2731,-122"/>
<text text-anchor="middle" x="1079" y="-99.8" font-family="Times,serif" font-size="14.00" fill="#000000">FilesModule</text>
</g>
<!-- FilesModule&#45;&gt;DataModule -->
<g id="edge12" class="edge">
<title>FilesModule&#45;&gt;DataModule</title>
<path fill="none" stroke="#000000" d="M1079,-122.1871C1079,-137.1824 1079,-156 1079,-156 1079,-156 1271.8686,-156 1271.8686,-156"/>
<polygon fill="#000000" stroke="#000000" points="1271.8686,-159.5001 1281.8686,-156 1271.8685,-152.5001 1271.8686,-159.5001"/>
</g>
<!-- ResourceModule -->
<g id="node14" class="node">
<title>ResourceModule</title>
<polygon fill="#8dd3c7" stroke="#000000" points="1017.636,-122 1014.636,-126 993.636,-126 990.636,-122 906.364,-122 906.364,-86 1017.636,-86 1017.636,-122"/>
<text text-anchor="middle" x="962" y="-99.8" font-family="Times,serif" font-size="14.00" fill="#000000">ResourceModule</text>
</g>
<!-- ResourceModule&#45;&gt;DataModule -->
<g id="edge13" class="edge">
<title>ResourceModule&#45;&gt;DataModule</title>
<path fill="none" stroke="#000000" d="M1013.8729,-122.0091C1013.8729,-138.0494 1013.8729,-159 1013.8729,-159 1013.8729,-159 1271.7391,-159 1271.7391,-159"/>
<polygon fill="#000000" stroke="#000000" points="1271.7391,-162.5001 1281.7391,-159 1271.7391,-155.5001 1271.7391,-162.5001"/>
</g>
<!-- SdkModule -->
<g id="node15" class="node">
<title>SdkModule</title>
<polygon fill="#8dd3c7" stroke="#000000" points="888.8331,-122 885.8331,-126 864.8331,-126 861.8331,-122 807.1669,-122 807.1669,-86 888.8331,-86 888.8331,-122"/>
<text text-anchor="middle" x="848" y="-99.8" font-family="Times,serif" font-size="14.00" fill="#000000">SdkModule</text>
</g>
<!-- SdkModule&#45;&gt;DataModule -->
<g id="edge14" class="edge">
<title>SdkModule&#45;&gt;DataModule</title>
<path fill="none" stroke="#000000" d="M858.1564,-122.0352C858.1564,-138.7344 858.1564,-161 858.1564,-161 858.1564,-161 1271.9173,-161 1271.9173,-161"/>
<polygon fill="#000000" stroke="#000000" points="1271.9173,-164.5001 1281.9173,-161 1271.9172,-157.5001 1271.9173,-164.5001"/>
</g>
<!-- UiModule -->
<g id="node16" class="node">
<title>UiModule</title>
<polygon fill="#8dd3c7" stroke="#000000" points="789.5484,-122 786.5484,-126 765.5484,-126 762.5484,-122 716.4516,-122 716.4516,-86 789.5484,-86 789.5484,-122"/>
<text text-anchor="middle" x="753" y="-99.8" font-family="Times,serif" font-size="14.00" fill="#000000">UiModule</text>
</g>
<!-- UiModule&#45;&gt;DataModule -->
<g id="edge15" class="edge">
<title>UiModule&#45;&gt;DataModule</title>
<path fill="none" stroke="#000000" d="M779.1029,-122.0225C779.1029,-139.3734 779.1029,-163 779.1029,-163 779.1029,-163 1271.7081,-163 1271.7081,-163"/>
<polygon fill="#000000" stroke="#000000" points="1271.7081,-166.5001 1281.7081,-163 1271.708,-159.5001 1271.7081,-166.5001"/>
</g>
<!-- CrudService -->
<g id="node29" class="node">
<title>CrudService</title>
<ellipse fill="#fdb462" stroke="#000000" cx="633" cy="-104" rx="59.1083" ry="18"/>
<text text-anchor="middle" x="633" y="-99.8" font-family="Times,serif" font-size="14.00" fill="#000000">CrudService</text>
</g>
<!-- CrudService&#45;&gt;DataModule -->
<g id="edge28" class="edge">
<title>CrudService&#45;&gt;DataModule</title>
<path fill="none" stroke="#000000" d="M678.9438,-115.6617C678.9438,-133.6216 678.9438,-166 678.9438,-166 678.9438,-166 1271.859,-166 1271.859,-166"/>
<polygon fill="#000000" stroke="#000000" points="1271.859,-169.5001 1281.859,-166 1271.859,-162.5001 1271.859,-169.5001"/>
</g>
<!-- HistoryService -->
<g id="node30" class="node">
<title>HistoryService</title>
<ellipse fill="#fdb462" stroke="#000000" cx="487" cy="-104" rx="68.9158" ry="18"/>
<text text-anchor="middle" x="487" y="-99.8" font-family="Times,serif" font-size="14.00" fill="#000000">HistoryService</text>
</g>
<!-- HistoryService&#45;&gt;DataModule -->
<g id="edge29" class="edge">
<title>HistoryService&#45;&gt;DataModule</title>
<path fill="none" stroke="#000000" d="M487,-122.1686C487,-141.0898 487,-168 487,-168 487,-168 1272.0012,-168 1272.0012,-168"/>
<polygon fill="#000000" stroke="#000000" points="1272.0012,-171.5001 1282.0012,-168 1272.0011,-164.5001 1272.0012,-171.5001"/>
</g>
<!-- ModelConfigService -->
<g id="node31" class="node">
<title>ModelConfigService</title>
<ellipse fill="#fdb462" stroke="#000000" cx="308" cy="-104" rx="92.0548" ry="18"/>
<text text-anchor="middle" x="308" y="-99.8" font-family="Times,serif" font-size="14.00" fill="#000000">ModelConfigService</text>
</g>
<!-- ModelConfigService&#45;&gt;DataModule -->
<g id="edge30" class="edge">
<title>ModelConfigService&#45;&gt;DataModule</title>
<path fill="none" stroke="#000000" d="M308,-122.308C308,-142.1455 308,-171 308,-171 308,-171 1271.9504,-171 1271.9504,-171"/>
<polygon fill="#000000" stroke="#000000" points="1271.9504,-174.5001 1281.9504,-171 1271.9503,-167.5001 1271.9504,-174.5001"/>
</g>
<!-- TypeConfigService -->
<g id="node32" class="node">
<title>TypeConfigService</title>
<ellipse fill="#fdb462" stroke="#000000" cx="111" cy="-104" rx="86.8184" ry="18"/>
<text text-anchor="middle" x="111" y="-99.8" font-family="Times,serif" font-size="14.00" fill="#000000">TypeConfigService</text>
</g>
<!-- TypeConfigService&#45;&gt;DataModule -->
<g id="edge31" class="edge">
<title>TypeConfigService&#45;&gt;DataModule</title>
<path fill="none" stroke="#000000" d="M111,-122.1289C111,-142.5724 111,-173 111,-173 111,-173 1271.7931,-173 1271.7931,-173"/>
<polygon fill="#000000" stroke="#000000" points="1271.7931,-176.5001 1281.7931,-173 1271.7931,-169.5001 1271.7931,-176.5001"/>
</g>
</g>
</svg>
