<?xml version="1.0" encoding="UTF-8" standalone="no"?>
<!DOCTYPE svg PUBLIC "-//W3C//DTD SVG 1.1//EN"
 "http://www.w3.org/Graphics/SVG/1.1/DTD/svg11.dtd">
<!-- Generated by graphviz version 2.40.1 (20161225.0304)
 -->
<!-- Title: dependencies Pages: 1 -->
<svg width="2722pt" height="284pt"
 viewBox="0.00 0.00 2722.00 284.00" xmlns="http://www.w3.org/2000/svg" xmlns:xlink="http://www.w3.org/1999/xlink">
<g id="graph0" class="graph" transform="scale(1 1) rotate(0) translate(4 280)">
<title>dependencies</title>
<polygon fill="#ffffff" stroke="transparent" points="-4,4 -4,-280 2718,-280 2718,4 -4,4"/>
<text text-anchor="start" x="1336.0091" y="-42.4" font-family="sans-serif" font-weight="bold" font-size="14.00" fill="#000000">Legend</text>
<polygon fill="#ffffb3" stroke="transparent" points="1123,-10 1123,-30 1143,-30 1143,-10 1123,-10"/>
<text text-anchor="start" x="1146.629" y="-15.4" font-family="sans-serif" font-size="14.00" fill="#000000"> &#160;Declarations</text>
<polygon fill="#8dd3c7" stroke="transparent" points="1236,-10 1236,-30 1256,-30 1256,-10 1236,-10"/>
<text text-anchor="start" x="1259.7251" y="-15.4" font-family="sans-serif" font-size="14.00" fill="#000000"> &#160;Module</text>
<polygon fill="#80b1d3" stroke="transparent" points="1322,-10 1322,-30 1342,-30 1342,-10 1322,-10"/>
<text text-anchor="start" x="1345.7812" y="-15.4" font-family="sans-serif" font-size="14.00" fill="#000000"> &#160;Bootstrap</text>
<polygon fill="#fdb462" stroke="transparent" points="1419,-10 1419,-30 1439,-30 1439,-10 1419,-10"/>
<text text-anchor="start" x="1442.6732" y="-15.4" font-family="sans-serif" font-size="14.00" fill="#000000"> &#160;Providers</text>
<polygon fill="#fb8072" stroke="transparent" points="1515,-10 1515,-30 1535,-30 1535,-10 1515,-10"/>
<text text-anchor="start" x="1538.7258" y="-15.4" font-family="sans-serif" font-size="14.00" fill="#000000"> &#160;Exports</text>
<g id="clust1" class="cluster">
<title>cluster_DataModule</title>
<polygon fill="none" stroke="#000000" stroke-dasharray="1,5" points="8,-70 8,-268 2706,-268 2706,-70 8,-70"/>
</g>
<g id="clust2" class="cluster">
<title>cluster_DataModule_declarations</title>
<polygon fill="none" stroke="#000000" points="1089,-78 1089,-130 2698,-130 2698,-78 1089,-78"/>
</g>
<g id="clust13" class="cluster">
<title>cluster_DataModule_imports</title>
<polygon fill="none" stroke="#000000" points="552,-78 552,-130 1081,-130 1081,-78 552,-78"/>
</g>
<g id="clust14" class="cluster">
<title>cluster_DataModule_exports</title>
<polygon fill="none" stroke="#000000" points="536,-208 536,-260 2108,-260 2108,-208 536,-208"/>
</g>
<g id="clust16" class="cluster">
<title>cluster_DataModule_providers</title>
<polygon fill="none" stroke="#000000" points="16,-78 16,-130 544,-130 544,-78 16,-78"/>
</g>
<!-- EntryListComponent -->
<g id="node1" class="node">
<title>EntryListComponent</title>
<polygon fill="#ffffb3" stroke="#000000" points="2690.2148,-122 2555.7852,-122 2555.7852,-86 2690.2148,-86 2690.2148,-122"/>
<text text-anchor="middle" x="2623" y="-99.8" font-family="Times,serif" font-size="14.00" fill="#000000">EntryListComponent</text>
</g>
<!-- DataModule -->
<g id="node11" class="node">
<title>DataModule</title>
<polygon fill="#8dd3c7" stroke="#000000" points="1285.9762,-187 1282.9762,-191 1261.9762,-191 1258.9762,-187 1200.0238,-187 1200.0238,-151 1285.9762,-151 1285.9762,-187"/>
<text text-anchor="middle" x="1243" y="-164.8" font-family="Times,serif" font-size="14.00" fill="#000000">DataModule</text>
</g>
<!-- EntryListComponent&#45;&gt;DataModule -->
<g id="edge1" class="edge">
<title>EntryListComponent&#45;&gt;DataModule</title>
<path fill="none" stroke="#000000" d="M2623,-122.2228C2623,-142.3652 2623,-172 2623,-172 2623,-172 1296.1961,-172 1296.1961,-172"/>
<polygon fill="#000000" stroke="#000000" points="1296.1962,-168.5001 1286.1961,-172 1296.1961,-175.5001 1296.1962,-168.5001"/>
</g>
<!-- EntryDirective -->
<g id="node2" class="node">
<title>EntryDirective</title>
<polygon fill="#ffffb3" stroke="#000000" points="2537.6868,-122 2438.3132,-122 2438.3132,-86 2537.6868,-86 2537.6868,-122"/>
<text text-anchor="middle" x="2488" y="-99.8" font-family="Times,serif" font-size="14.00" fill="#000000">EntryDirective</text>
</g>
<!-- EntryDirective&#45;&gt;DataModule -->
<g id="edge2" class="edge">
<title>EntryDirective&#45;&gt;DataModule</title>
<path fill="none" stroke="#000000" d="M2488,-122.1061C2488,-141.3391 2488,-169 2488,-169 2488,-169 1296.2173,-169 1296.2173,-169"/>
<polygon fill="#000000" stroke="#000000" points="1296.2173,-165.5001 1286.2173,-169 1296.2172,-172.5001 1296.2173,-165.5001"/>
</g>
<!-- EntriesDirective -->
<g id="node3" class="node">
<title>EntriesDirective</title>
<polygon fill="#ffffb3" stroke="#000000" points="2420.7367,-122 2313.2633,-122 2313.2633,-86 2420.7367,-86 2420.7367,-122"/>
<text text-anchor="middle" x="2367" y="-99.8" font-family="Times,serif" font-size="14.00" fill="#000000">EntriesDirective</text>
</g>
<!-- EntriesDirective&#45;&gt;DataModule -->
<g id="edge3" class="edge">
<title>EntriesDirective&#45;&gt;DataModule</title>
<path fill="none" stroke="#000000" d="M2367,-122.2222C2367,-140.8285 2367,-167 2367,-167 2367,-167 1296.0309,-167 1296.0309,-167"/>
<polygon fill="#000000" stroke="#000000" points="1296.0309,-163.5001 1286.0309,-167 1296.0309,-170.5001 1296.0309,-163.5001"/>
</g>
<!-- EntryFormComponent -->
<g id="node4" class="node">
<title>EntryFormComponent</title>
<polygon fill="#ffffb3" stroke="#000000" points="2295.2702,-122 2152.7298,-122 2152.7298,-86 2295.2702,-86 2295.2702,-122"/>
<text text-anchor="middle" x="2224" y="-99.8" font-family="Times,serif" font-size="14.00" fill="#000000">EntryFormComponent</text>
</g>
<!-- EntryFormComponent&#45;&gt;DataModule -->
<g id="edge4" class="edge">
<title>EntryFormComponent&#45;&gt;DataModule</title>
<path fill="none" stroke="#000000" d="M2224,-122.002C2224,-139.6754 2224,-164 2224,-164 2224,-164 1296.1001,-164 1296.1001,-164"/>
<polygon fill="#000000" stroke="#000000" points="1296.1001,-160.5001 1286.1001,-164 1296.1001,-167.5001 1296.1001,-160.5001"/>
</g>
<!-- EntryPopComponent -->
<g id="node5" class="node">
<title>EntryPopComponent</title>
<polygon fill="#ffffb3" stroke="#000000" points="2135.219,-122 2000.781,-122 2000.781,-86 2135.219,-86 2135.219,-122"/>
<text text-anchor="middle" x="2068" y="-99.8" font-family="Times,serif" font-size="14.00" fill="#000000">EntryPopComponent</text>
</g>
<!-- EntryPopComponent&#45;&gt;DataModule -->
<g id="edge5" class="edge">
<title>EntryPopComponent&#45;&gt;DataModule</title>
<path fill="none" stroke="#000000" d="M2050.374,-122.0336C2050.374,-139.0597 2050.374,-162 2050.374,-162 2050.374,-162 1296.1225,-162 1296.1225,-162"/>
<polygon fill="#000000" stroke="#000000" points="1296.1225,-158.5001 1286.1225,-162 1296.1225,-165.5001 1296.1225,-158.5001"/>
</g>
<!-- DefaultEntryInputComponent -->
<g id="node6" class="node">
<title>DefaultEntryInputComponent</title>
<polygon fill="#ffffb3" stroke="#000000" points="1982.965,-122 1799.035,-122 1799.035,-86 1982.965,-86 1982.965,-122"/>
<text text-anchor="middle" x="1891" y="-99.8" font-family="Times,serif" font-size="14.00" fill="#000000">DefaultEntryInputComponent</text>
</g>
<!-- DefaultEntryInputComponent&#45;&gt;DataModule -->
<g id="edge6" class="edge">
<title>DefaultEntryInputComponent&#45;&gt;DataModule</title>
<path fill="none" stroke="#000000" d="M1811.3179,-122.0091C1811.3179,-138.0494 1811.3179,-159 1811.3179,-159 1811.3179,-159 1296.1827,-159 1296.1827,-159"/>
<polygon fill="#000000" stroke="#000000" points="1296.1827,-155.5001 1286.1827,-159 1296.1826,-162.5001 1296.1827,-155.5001"/>
</g>
<!-- DefaultEntryOutputComponent -->
<g id="node7" class="node">
<title>DefaultEntryOutputComponent</title>
<polygon fill="#ffffb3" stroke="#000000" points="1780.8018,-122 1587.1982,-122 1587.1982,-86 1780.8018,-86 1780.8018,-122"/>
<text text-anchor="middle" x="1684" y="-99.8" font-family="Times,serif" font-size="14.00" fill="#000000">DefaultEntryOutputComponent</text>
</g>
<!-- DefaultEntryOutputComponent&#45;&gt;DataModule -->
<g id="edge7" class="edge">
<title>DefaultEntryOutputComponent&#45;&gt;DataModule</title>
<path fill="none" stroke="#000000" d="M1640.7421,-122.2396C1640.7421,-137.5706 1640.7421,-157 1640.7421,-157 1640.7421,-157 1296.3225,-157 1296.3225,-157"/>
<polygon fill="#000000" stroke="#000000" points="1296.3226,-153.5001 1286.3225,-157 1296.3225,-160.5001 1296.3226,-153.5001"/>
</g>
<!-- AdminEntryInputComponent -->
<g id="node8" class="node">
<title>AdminEntryInputComponent</title>
<polygon fill="#ffffb3" stroke="#000000" points="1569.3752,-122 1388.6248,-122 1388.6248,-86 1569.3752,-86 1569.3752,-122"/>
<text text-anchor="middle" x="1479" y="-99.8" font-family="Times,serif" font-size="14.00" fill="#000000">AdminEntryInputComponent</text>
</g>
<!-- AdminEntryInputComponent&#45;&gt;DataModule -->
<g id="edge8" class="edge">
<title>AdminEntryInputComponent&#45;&gt;DataModule</title>
<path fill="none" stroke="#000000" d="M1438.0469,-122.0511C1438.0469,-136.373 1438.0469,-154 1438.0469,-154 1438.0469,-154 1296.2872,-154 1296.2872,-154"/>
<polygon fill="#000000" stroke="#000000" points="1296.2873,-150.5001 1286.2872,-154 1296.2872,-157.5001 1296.2873,-150.5001"/>
</g>
<!-- CrudComponent -->
<g id="node9" class="node">
<title>CrudComponent</title>
<polygon fill="#ffffb3" stroke="#000000" points="1370.8301,-122 1261.1699,-122 1261.1699,-86 1370.8301,-86 1370.8301,-122"/>
<text text-anchor="middle" x="1316" y="-99.8" font-family="Times,serif" font-size="14.00" fill="#000000">CrudComponent</text>
</g>
<!-- CrudComponent&#45;&gt;DataModule -->
<g id="edge9" class="edge">
<title>CrudComponent&#45;&gt;DataModule</title>
<path fill="none" stroke="#000000" d="M1273.6617,-122.1061C1273.6617,-122.1061 1273.6617,-140.991 1273.6617,-140.991"/>
<polygon fill="#000000" stroke="#000000" points="1270.1617,-140.9909 1273.6617,-150.991 1277.1617,-140.991 1270.1617,-140.9909"/>
</g>
<!-- EntrySelectComponent -->
<g id="node10" class="node">
<title>EntrySelectComponent</title>
<polygon fill="#ffffb3" stroke="#000000" points="1243.1442,-122 1096.8558,-122 1096.8558,-86 1243.1442,-86 1243.1442,-122"/>
<text text-anchor="middle" x="1170" y="-99.8" font-family="Times,serif" font-size="14.00" fill="#000000">EntrySelectComponent</text>
</g>
<!-- EntrySelectComponent&#45;&gt;DataModule -->
<g id="edge10" class="edge">
<title>EntrySelectComponent&#45;&gt;DataModule</title>
<path fill="none" stroke="#000000" d="M1221.6669,-122.1061C1221.6669,-122.1061 1221.6669,-140.991 1221.6669,-140.991"/>
<polygon fill="#000000" stroke="#000000" points="1218.167,-140.9909 1221.6669,-150.991 1225.167,-140.991 1218.167,-140.9909"/>
</g>
<!-- EntryListComponent  -->
<g id="node17" class="node">
<title>EntryListComponent </title>
<polygon fill="#fb8072" stroke="#000000" points="2099.7149,-252 1962.2851,-252 1962.2851,-216 2099.7149,-216 2099.7149,-252"/>
<text text-anchor="middle" x="2031" y="-229.8" font-family="Times,serif" font-size="14.00" fill="#000000">EntryListComponent </text>
</g>
<!-- DataModule&#45;&gt;EntryListComponent  -->
<g id="edge16" class="edge">
<title>DataModule&#45;&gt;EntryListComponent </title>
<path fill="none" stroke="#000000" stroke-dasharray="5,2" d="M1286.1828,-175C1442.9071,-175 1972.5626,-175 1972.5626,-175 1972.5626,-175 1972.5626,-205.9775 1972.5626,-205.9775"/>
<polygon fill="#000000" stroke="#000000" points="1969.0627,-205.9774 1972.5626,-215.9775 1976.0627,-205.9775 1969.0627,-205.9774"/>
</g>
<!-- EntryDirective  -->
<g id="node18" class="node">
<title>EntryDirective </title>
<polygon fill="#fb8072" stroke="#000000" points="1944.1871,-252 1841.8129,-252 1841.8129,-216 1944.1871,-216 1944.1871,-252"/>
<text text-anchor="middle" x="1893" y="-229.8" font-family="Times,serif" font-size="14.00" fill="#000000">EntryDirective </text>
</g>
<!-- DataModule&#45;&gt;EntryDirective  -->
<g id="edge17" class="edge">
<title>DataModule&#45;&gt;EntryDirective </title>
<path fill="none" stroke="#000000" stroke-dasharray="5,2" d="M1286.1517,-177C1431.3264,-177 1893,-177 1893,-177 1893,-177 1893,-205.9648 1893,-205.9648"/>
<polygon fill="#000000" stroke="#000000" points="1889.5001,-205.9648 1893,-215.9648 1896.5001,-205.9649 1889.5001,-205.9648"/>
</g>
<!-- EntriesDirective  -->
<g id="node19" class="node">
<title>EntriesDirective </title>
<polygon fill="#fb8072" stroke="#000000" points="1823.7367,-252 1712.2633,-252 1712.2633,-216 1823.7367,-216 1823.7367,-252"/>
<text text-anchor="middle" x="1768" y="-229.8" font-family="Times,serif" font-size="14.00" fill="#000000">EntriesDirective </text>
</g>
<!-- DataModule&#45;&gt;EntriesDirective  -->
<g id="edge18" class="edge">
<title>DataModule&#45;&gt;EntriesDirective </title>
<path fill="none" stroke="#000000" stroke-dasharray="5,2" d="M1286.3653,-180C1408.5001,-180 1746.5163,-180 1746.5163,-180 1746.5163,-180 1746.5163,-205.7181 1746.5163,-205.7181"/>
<polygon fill="#000000" stroke="#000000" points="1743.0164,-205.718 1746.5163,-215.7181 1750.0164,-205.7181 1743.0164,-205.718"/>
</g>
<!-- EntryFormComponent  -->
<g id="node20" class="node">
<title>EntryFormComponent </title>
<polygon fill="#fb8072" stroke="#000000" points="1694.2702,-252 1547.7298,-252 1547.7298,-216 1694.2702,-216 1694.2702,-252"/>
<text text-anchor="middle" x="1621" y="-229.8" font-family="Times,serif" font-size="14.00" fill="#000000">EntryFormComponent </text>
</g>
<!-- DataModule&#45;&gt;EntryFormComponent  -->
<g id="edge19" class="edge">
<title>DataModule&#45;&gt;EntryFormComponent </title>
<path fill="none" stroke="#000000" stroke-dasharray="5,2" d="M1286.2281,-182C1372.6771,-182 1558.6513,-182 1558.6513,-182 1558.6513,-182 1558.6513,-205.8129 1558.6513,-205.8129"/>
<polygon fill="#000000" stroke="#000000" points="1555.1514,-205.8129 1558.6513,-215.8129 1562.1514,-205.813 1555.1514,-205.8129"/>
</g>
<!-- EntryPopComponent  -->
<g id="node21" class="node">
<title>EntryPopComponent </title>
<polygon fill="#fb8072" stroke="#000000" points="1529.7191,-252 1392.2809,-252 1392.2809,-216 1529.7191,-216 1529.7191,-252"/>
<text text-anchor="middle" x="1461" y="-229.8" font-family="Times,serif" font-size="14.00" fill="#000000">EntryPopComponent </text>
</g>
<!-- DataModule&#45;&gt;EntryPopComponent  -->
<g id="edge20" class="edge">
<title>DataModule&#45;&gt;EntryPopComponent </title>
<path fill="none" stroke="#000000" stroke-dasharray="5,2" d="M1286.0776,-185C1355.3843,-185 1483.9531,-185 1483.9531,-185 1483.9531,-185 1483.9531,-205.7542 1483.9531,-205.7542"/>
<polygon fill="#000000" stroke="#000000" points="1480.4532,-205.7542 1483.9531,-215.7542 1487.4532,-205.7542 1480.4532,-205.7542"/>
</g>
<!-- CrudComponent  -->
<g id="node22" class="node">
<title>CrudComponent </title>
<polygon fill="#fb8072" stroke="#000000" points="1374.3297,-252 1261.6703,-252 1261.6703,-216 1374.3297,-216 1374.3297,-252"/>
<text text-anchor="middle" x="1318" y="-229.8" font-family="Times,serif" font-size="14.00" fill="#000000">CrudComponent </text>
</g>
<!-- DataModule&#45;&gt;CrudComponent  -->
<g id="edge21" class="edge">
<title>DataModule&#45;&gt;CrudComponent </title>
<path fill="none" stroke="#000000" stroke-dasharray="5,2" d="M1273.7867,-187.1061C1273.7867,-187.1061 1273.7867,-205.991 1273.7867,-205.991"/>
<polygon fill="#000000" stroke="#000000" points="1270.2867,-205.9909 1273.7867,-215.991 1277.2867,-205.991 1270.2867,-205.9909"/>
</g>
<!-- EntrySelectComponent  -->
<g id="node23" class="node">
<title>EntrySelectComponent </title>
<polygon fill="#fb8072" stroke="#000000" points="1244.1439,-252 1093.8561,-252 1093.8561,-216 1244.1439,-216 1244.1439,-252"/>
<text text-anchor="middle" x="1169" y="-229.8" font-family="Times,serif" font-size="14.00" fill="#000000">EntrySelectComponent </text>
</g>
<!-- DataModule&#45;&gt;EntrySelectComponent  -->
<g id="edge22" class="edge">
<title>DataModule&#45;&gt;EntrySelectComponent </title>
<path fill="none" stroke="#000000" stroke-dasharray="5,2" d="M1222.0419,-187.1061C1222.0419,-187.1061 1222.0419,-205.991 1222.0419,-205.991"/>
<polygon fill="#000000" stroke="#000000" points="1218.542,-205.9909 1222.0419,-215.991 1225.542,-205.991 1218.542,-205.9909"/>
</g>
<!-- UiModule  -->
<g id="node24" class="node">
<title>UiModule </title>
<polygon fill="#fb8072" stroke="#000000" points="1075.547,-252 998.453,-252 998.453,-216 1075.547,-216 1075.547,-252"/>
<text text-anchor="middle" x="1037" y="-229.8" font-family="Times,serif" font-size="14.00" fill="#000000">UiModule </text>
</g>
<!-- DataModule&#45;&gt;UiModule  -->
<g id="edge23" class="edge">
<title>DataModule&#45;&gt;UiModule </title>
<path fill="none" stroke="#000000" stroke-dasharray="5,2" d="M1199.7804,-185C1142.4078,-185 1048.2578,-185 1048.2578,-185 1048.2578,-185 1048.2578,-205.7542 1048.2578,-205.7542"/>
<polygon fill="#000000" stroke="#000000" points="1044.7579,-205.7542 1048.2578,-215.7542 1051.7579,-205.7542 1044.7579,-205.7542"/>
</g>
<!-- SdkModule  -->
<g id="node25" class="node">
<title>SdkModule </title>
<polygon fill="#fb8072" stroke="#000000" points="980.3326,-252 895.6674,-252 895.6674,-216 980.3326,-216 980.3326,-252"/>
<text text-anchor="middle" x="938" y="-229.8" font-family="Times,serif" font-size="14.00" fill="#000000">SdkModule </text>
</g>
<!-- DataModule&#45;&gt;SdkModule  -->
<g id="edge24" class="edge">
<title>DataModule&#45;&gt;SdkModule </title>
<path fill="none" stroke="#000000" stroke-dasharray="5,2" d="M1199.728,-182C1113.1911,-182 927.0279,-182 927.0279,-182 927.0279,-182 927.0279,-205.8129 927.0279,-205.8129"/>
<polygon fill="#000000" stroke="#000000" points="923.528,-205.8129 927.0279,-215.8129 930.528,-205.813 923.528,-205.8129"/>
</g>
<!-- FilesModule  -->
<g id="node26" class="node">
<title>FilesModule </title>
<polygon fill="#fb8072" stroke="#000000" points="877.2732,-252 786.7268,-252 786.7268,-216 877.2732,-216 877.2732,-252"/>
<text text-anchor="middle" x="832" y="-229.8" font-family="Times,serif" font-size="14.00" fill="#000000">FilesModule </text>
</g>
<!-- DataModule&#45;&gt;FilesModule  -->
<g id="edge25" class="edge">
<title>DataModule&#45;&gt;FilesModule </title>
<path fill="none" stroke="#000000" stroke-dasharray="5,2" d="M1200.0047,-180C1092.9068,-180 822.7879,-180 822.7879,-180 822.7879,-180 822.7879,-205.7181 822.7879,-205.7181"/>
<polygon fill="#000000" stroke="#000000" points="819.288,-205.718 822.7879,-215.7181 826.288,-205.7181 819.288,-205.718"/>
</g>
<!-- AuthModule  -->
<g id="node27" class="node">
<title>AuthModule </title>
<polygon fill="#fb8072" stroke="#000000" points="768.547,-252 677.453,-252 677.453,-216 768.547,-216 768.547,-252"/>
<text text-anchor="middle" x="723" y="-229.8" font-family="Times,serif" font-size="14.00" fill="#000000">AuthModule </text>
</g>
<!-- DataModule&#45;&gt;AuthModule  -->
<g id="edge26" class="edge">
<title>DataModule&#45;&gt;AuthModule </title>
<path fill="none" stroke="#000000" stroke-dasharray="5,2" d="M1199.6513,-177C1075.8231,-177 729.375,-177 729.375,-177 729.375,-177 729.375,-205.9648 729.375,-205.9648"/>
<polygon fill="#000000" stroke="#000000" points="725.8751,-205.9648 729.375,-215.9648 732.8751,-205.9649 725.8751,-205.9648"/>
</g>
<!-- ResourceModule  -->
<g id="node28" class="node">
<title>ResourceModule </title>
<polygon fill="#fb8072" stroke="#000000" points="659.6355,-252 544.3645,-252 544.3645,-216 659.6355,-216 659.6355,-252"/>
<text text-anchor="middle" x="602" y="-229.8" font-family="Times,serif" font-size="14.00" fill="#000000">ResourceModule </text>
</g>
<!-- DataModule&#45;&gt;ResourceModule  -->
<g id="edge27" class="edge">
<title>DataModule&#45;&gt;ResourceModule </title>
<path fill="none" stroke="#000000" stroke-dasharray="5,2" d="M1199.9805,-175C1057.481,-175 609.875,-175 609.875,-175 609.875,-175 609.875,-205.9775 609.875,-205.9775"/>
<polygon fill="#000000" stroke="#000000" points="606.3751,-205.9774 609.875,-215.9775 613.3751,-205.9775 606.3751,-205.9774"/>
</g>
<!-- UiModule -->
<g id="node12" class="node">
<title>UiModule</title>
<polygon fill="#8dd3c7" stroke="#000000" points="1072.5484,-122 1069.5484,-126 1048.5484,-126 1045.5484,-122 999.4516,-122 999.4516,-86 1072.5484,-86 1072.5484,-122"/>
<text text-anchor="middle" x="1036" y="-99.8" font-family="Times,serif" font-size="14.00" fill="#000000">UiModule</text>
</g>
<!-- UiModule&#45;&gt;DataModule -->
<g id="edge11" class="edge">
<title>UiModule&#45;&gt;DataModule</title>
<path fill="none" stroke="#000000" d="M1023.7422,-122.0511C1023.7422,-136.373 1023.7422,-154 1023.7422,-154 1023.7422,-154 1189.9433,-154 1189.9433,-154"/>
<polygon fill="#000000" stroke="#000000" points="1189.9434,-157.5001 1199.9433,-154 1189.9433,-150.5001 1189.9434,-157.5001"/>
</g>
<!-- SdkModule -->
<g id="node13" class="node">
<title>SdkModule</title>
<polygon fill="#8dd3c7" stroke="#000000" points="981.8331,-122 978.8331,-126 957.8331,-126 954.8331,-122 900.1669,-122 900.1669,-86 981.8331,-86 981.8331,-122"/>
<text text-anchor="middle" x="941" y="-99.8" font-family="Times,serif" font-size="14.00" fill="#000000">SdkModule</text>
</g>
<!-- SdkModule&#45;&gt;DataModule -->
<g id="edge12" class="edge">
<title>SdkModule&#45;&gt;DataModule</title>
<path fill="none" stroke="#000000" d="M953.7221,-122.2396C953.7221,-137.5706 953.7221,-157 953.7221,-157 953.7221,-157 1190.0045,-157 1190.0045,-157"/>
<polygon fill="#000000" stroke="#000000" points="1190.0046,-160.5001 1200.0045,-157 1190.0045,-153.5001 1190.0046,-160.5001"/>
</g>
<!-- FilesModule -->
<g id="node14" class="node">
<title>FilesModule</title>
<polygon fill="#8dd3c7" stroke="#000000" points="882.2731,-122 879.2731,-126 858.2731,-126 855.2731,-122 795.7269,-122 795.7269,-86 882.2731,-86 882.2731,-122"/>
<text text-anchor="middle" x="839" y="-99.8" font-family="Times,serif" font-size="14.00" fill="#000000">FilesModule</text>
</g>
<!-- FilesModule&#45;&gt;DataModule -->
<g id="edge13" class="edge">
<title>FilesModule&#45;&gt;DataModule</title>
<path fill="none" stroke="#000000" d="M849.9621,-122.0091C849.9621,-138.0494 849.9621,-159 849.9621,-159 849.9621,-159 1189.8138,-159 1189.8138,-159"/>
<polygon fill="#000000" stroke="#000000" points="1189.8138,-162.5001 1199.8138,-159 1189.8137,-155.5001 1189.8138,-162.5001"/>
</g>
<!-- AuthModule -->
<g id="node15" class="node">
<title>AuthModule</title>
<polygon fill="#8dd3c7" stroke="#000000" points="777.5482,-122 774.5482,-126 753.5482,-126 750.5482,-122 690.4518,-122 690.4518,-86 777.5482,-86 777.5482,-122"/>
<text text-anchor="middle" x="734" y="-99.8" font-family="Times,serif" font-size="14.00" fill="#000000">AuthModule</text>
</g>
<!-- AuthModule&#45;&gt;DataModule -->
<g id="edge14" class="edge">
<title>AuthModule&#45;&gt;DataModule</title>
<path fill="none" stroke="#000000" d="M773.1485,-122.0336C773.1485,-139.0597 773.1485,-162 773.1485,-162 773.1485,-162 1189.6397,-162 1189.6397,-162"/>
<polygon fill="#000000" stroke="#000000" points="1189.6397,-165.5001 1199.6397,-162 1189.6396,-158.5001 1189.6397,-165.5001"/>
</g>
<!-- ResourceModule -->
<g id="node16" class="node">
<title>ResourceModule</title>
<polygon fill="#8dd3c7" stroke="#000000" points="671.636,-122 668.636,-126 647.636,-126 644.636,-122 560.364,-122 560.364,-86 671.636,-86 671.636,-122"/>
<text text-anchor="middle" x="616" y="-99.8" font-family="Times,serif" font-size="14.00" fill="#000000">ResourceModule</text>
</g>
<!-- ResourceModule&#45;&gt;DataModule -->
<g id="edge15" class="edge">
<title>ResourceModule&#45;&gt;DataModule</title>
<path fill="none" stroke="#000000" d="M665.6927,-122.002C665.6927,-139.6754 665.6927,-164 665.6927,-164 665.6927,-164 1189.6081,-164 1189.6081,-164"/>
<polygon fill="#000000" stroke="#000000" points="1189.6082,-167.5001 1199.6081,-164 1189.6081,-160.5001 1189.6082,-167.5001"/>
</g>
<!-- CrudService -->
<g id="node29" class="node">
<title>CrudService</title>
<ellipse fill="#fdb462" stroke="#000000" cx="477" cy="-104" rx="59.1083" ry="18"/>
<text text-anchor="middle" x="477" y="-99.8" font-family="Times,serif" font-size="14.00" fill="#000000">CrudService</text>
</g>
<!-- CrudService&#45;&gt;DataModule -->
<g id="edge28" class="edge">
<title>CrudService&#45;&gt;DataModule</title>
<path fill="none" stroke="#000000" d="M477,-122.2222C477,-140.8285 477,-167 477,-167 477,-167 1189.8989,-167 1189.8989,-167"/>
<polygon fill="#000000" stroke="#000000" points="1189.8989,-170.5001 1199.8989,-167 1189.8988,-163.5001 1189.8989,-170.5001"/>
</g>
<!-- TypeConfigService -->
<g id="node30" class="node">
<title>TypeConfigService</title>
<ellipse fill="#fdb462" stroke="#000000" cx="313" cy="-104" rx="86.8184" ry="18"/>
<text text-anchor="middle" x="313" y="-99.8" font-family="Times,serif" font-size="14.00" fill="#000000">TypeConfigService</text>
</g>
<!-- TypeConfigService&#45;&gt;DataModule -->
<g id="edge29" class="edge">
<title>TypeConfigService&#45;&gt;DataModule</title>
<path fill="none" stroke="#000000" d="M313,-122.1061C313,-141.3391 313,-169 313,-169 313,-169 1190.0093,-169 1190.0093,-169"/>
<polygon fill="#000000" stroke="#000000" points="1190.0094,-172.5001 1200.0093,-169 1190.0093,-165.5001 1190.0094,-172.5001"/>
</g>
<!-- ModelConfigService -->
<g id="node31" class="node">
<title>ModelConfigService</title>
<ellipse fill="#fdb462" stroke="#000000" cx="116" cy="-104" rx="92.0548" ry="18"/>
<text text-anchor="middle" x="116" y="-99.8" font-family="Times,serif" font-size="14.00" fill="#000000">ModelConfigService</text>
</g>
<!-- ModelConfigService&#45;&gt;DataModule -->
<g id="edge30" class="edge">
<title>ModelConfigService&#45;&gt;DataModule</title>
<path fill="none" stroke="#000000" d="M116,-122.2228C116,-142.3652 116,-172 116,-172 116,-172 1189.8543,-172 1189.8543,-172"/>
<polygon fill="#000000" stroke="#000000" points="1189.8543,-175.5001 1199.8543,-172 1189.8542,-168.5001 1189.8543,-175.5001"/>
</g>
</g>
</svg>
