<?xml version="1.0" encoding="UTF-8" standalone="no"?>
<!DOCTYPE svg PUBLIC "-//W3C//DTD SVG 1.1//EN"
 "http://www.w3.org/Graphics/SVG/1.1/DTD/svg11.dtd">
<!-- Generated by graphviz version 2.40.1 (20161225.0304)
 -->
<!-- Title: dependencies Pages: 1 -->
<svg width="3196pt" height="284pt"
 viewBox="0.00 0.00 3196.00 284.00" xmlns="http://www.w3.org/2000/svg" xmlns:xlink="http://www.w3.org/1999/xlink">
<g id="graph0" class="graph" transform="scale(1 1) rotate(0) translate(4 280)">
<title>dependencies</title>
<polygon fill="#ffffff" stroke="transparent" points="-4,4 -4,-280 3192,-280 3192,4 -4,4"/>
<text text-anchor="start" x="1573.0091" y="-42.4" font-family="sans-serif" font-weight="bold" font-size="14.00" fill="#000000">Legend</text>
<polygon fill="#ffffb3" stroke="transparent" points="1360,-10 1360,-30 1380,-30 1380,-10 1360,-10"/>
<text text-anchor="start" x="1383.629" y="-15.4" font-family="sans-serif" font-size="14.00" fill="#000000"> &#160;Declarations</text>
<polygon fill="#8dd3c7" stroke="transparent" points="1473,-10 1473,-30 1493,-30 1493,-10 1473,-10"/>
<text text-anchor="start" x="1496.7251" y="-15.4" font-family="sans-serif" font-size="14.00" fill="#000000"> &#160;Module</text>
<polygon fill="#80b1d3" stroke="transparent" points="1559,-10 1559,-30 1579,-30 1579,-10 1559,-10"/>
<text text-anchor="start" x="1582.7812" y="-15.4" font-family="sans-serif" font-size="14.00" fill="#000000"> &#160;Bootstrap</text>
<polygon fill="#fdb462" stroke="transparent" points="1656,-10 1656,-30 1676,-30 1676,-10 1656,-10"/>
<text text-anchor="start" x="1679.6732" y="-15.4" font-family="sans-serif" font-size="14.00" fill="#000000"> &#160;Providers</text>
<polygon fill="#fb8072" stroke="transparent" points="1752,-10 1752,-30 1772,-30 1772,-10 1752,-10"/>
<text text-anchor="start" x="1775.7258" y="-15.4" font-family="sans-serif" font-size="14.00" fill="#000000"> &#160;Exports</text>
<g id="clust1" class="cluster">
<title>cluster_DataModule</title>
<polygon fill="none" stroke="#000000" stroke-dasharray="1,5" points="8,-70 8,-268 3180,-268 3180,-70 8,-70"/>
</g>
<g id="clust2" class="cluster">
<title>cluster_DataModule_declarations</title>
<polygon fill="none" stroke="#000000" points="1226,-78 1226,-130 3172,-130 3172,-78 1226,-78"/>
</g>
<g id="clust15" class="cluster">
<title>cluster_DataModule_imports</title>
<polygon fill="none" stroke="#000000" points="979,-78 979,-130 1218,-130 1218,-78 979,-78"/>
</g>
<g id="clust16" class="cluster">
<title>cluster_DataModule_exports</title>
<polygon fill="none" stroke="#000000" points="682,-208 682,-260 2250,-260 2250,-208 682,-208"/>
</g>
<g id="clust18" class="cluster">
<title>cluster_DataModule_providers</title>
<polygon fill="none" stroke="#000000" points="16,-78 16,-130 971,-130 971,-78 16,-78"/>
</g>
<!-- EntryListComponent -->
<g id="node1" class="node">
<title>EntryListComponent</title>
<polygon fill="#ffffb3" stroke="#000000" points="3164.2148,-122 3029.7852,-122 3029.7852,-86 3164.2148,-86 3164.2148,-122"/>
<text text-anchor="middle" x="3097" y="-99.8" font-family="Times,serif" font-size="14.00" fill="#000000">EntryListComponent</text>
</g>
<!-- DataModule -->
<g id="node13" class="node">
<title>DataModule</title>
<polygon fill="#8dd3c7" stroke="#000000" points="1556.9762,-187 1553.9762,-191 1532.9762,-191 1529.9762,-187 1471.0238,-187 1471.0238,-151 1556.9762,-151 1556.9762,-187"/>
<text text-anchor="middle" x="1514" y="-164.8" font-family="Times,serif" font-size="14.00" fill="#000000">DataModule</text>
</g>
<!-- EntryListComponent&#45;&gt;DataModule -->
<g id="edge1" class="edge">
<title>EntryListComponent&#45;&gt;DataModule</title>
<path fill="none" stroke="#000000" d="M3097,-122.2843C3097,-143.3211 3097,-175 3097,-175 3097,-175 1567.1624,-175 1567.1624,-175"/>
<polygon fill="#000000" stroke="#000000" points="1567.1624,-171.5001 1557.1624,-175 1567.1624,-178.5001 1567.1624,-171.5001"/>
</g>
<!-- EntryComponent -->
<g id="node2" class="node">
<title>EntryComponent</title>
<polygon fill="#ffffb3" stroke="#000000" points="3012.437,-122 2899.563,-122 2899.563,-86 3012.437,-86 3012.437,-122"/>
<text text-anchor="middle" x="2956" y="-99.8" font-family="Times,serif" font-size="14.00" fill="#000000">EntryComponent</text>
</g>
<!-- EntryComponent&#45;&gt;DataModule -->
<g id="edge2" class="edge">
<title>EntryComponent&#45;&gt;DataModule</title>
<path fill="none" stroke="#000000" d="M2956,-122.2228C2956,-142.3652 2956,-172 2956,-172 2956,-172 1567.1562,-172 1567.1562,-172"/>
<polygon fill="#000000" stroke="#000000" points="1567.1562,-168.5001 1557.1562,-172 1567.1562,-175.5001 1567.1562,-168.5001"/>
</g>
<!-- EntriesComponent -->
<g id="node3" class="node">
<title>EntriesComponent</title>
<polygon fill="#ffffb3" stroke="#000000" points="2881.486,-122 2760.514,-122 2760.514,-86 2881.486,-86 2881.486,-122"/>
<text text-anchor="middle" x="2821" y="-99.8" font-family="Times,serif" font-size="14.00" fill="#000000">EntriesComponent</text>
</g>
<!-- EntriesComponent&#45;&gt;DataModule -->
<g id="edge3" class="edge">
<title>EntriesComponent&#45;&gt;DataModule</title>
<path fill="none" stroke="#000000" d="M2821,-122.1061C2821,-141.3391 2821,-169 2821,-169 2821,-169 1567.114,-169 1567.114,-169"/>
<polygon fill="#000000" stroke="#000000" points="1567.114,-165.5001 1557.114,-169 1567.1139,-172.5001 1567.114,-165.5001"/>
</g>
<!-- EntryFormComponent -->
<g id="node4" class="node">
<title>EntryFormComponent</title>
<polygon fill="#ffffb3" stroke="#000000" points="2742.2702,-122 2599.7298,-122 2599.7298,-86 2742.2702,-86 2742.2702,-122"/>
<text text-anchor="middle" x="2671" y="-99.8" font-family="Times,serif" font-size="14.00" fill="#000000">EntryFormComponent</text>
</g>
<!-- EntryFormComponent&#45;&gt;DataModule -->
<g id="edge4" class="edge">
<title>EntryFormComponent&#45;&gt;DataModule</title>
<path fill="none" stroke="#000000" d="M2671,-122.2222C2671,-140.8285 2671,-167 2671,-167 2671,-167 1567.2441,-167 1567.2441,-167"/>
<polygon fill="#000000" stroke="#000000" points="1567.2442,-163.5001 1557.2441,-167 1567.2441,-170.5001 1567.2442,-163.5001"/>
</g>
<!-- DatamanagerListComponent -->
<g id="node5" class="node">
<title>DatamanagerListComponent</title>
<polygon fill="#ffffb3" stroke="#000000" points="2581.7324,-122 2404.2676,-122 2404.2676,-86 2581.7324,-86 2581.7324,-122"/>
<text text-anchor="middle" x="2493" y="-99.8" font-family="Times,serif" font-size="14.00" fill="#000000">DatamanagerListComponent</text>
</g>
<!-- DatamanagerListComponent&#45;&gt;DataModule -->
<g id="edge5" class="edge">
<title>DatamanagerListComponent&#45;&gt;DataModule</title>
<path fill="none" stroke="#000000" d="M2493,-122.002C2493,-139.6754 2493,-164 2493,-164 2493,-164 1567.0122,-164 1567.0122,-164"/>
<polygon fill="#000000" stroke="#000000" points="1567.0123,-160.5001 1557.0122,-164 1567.0122,-167.5001 1567.0123,-160.5001"/>
</g>
<!-- ModelListComponent -->
<g id="node6" class="node">
<title>ModelListComponent</title>
<polygon fill="#ffffb3" stroke="#000000" points="2385.661,-122 2246.339,-122 2246.339,-86 2385.661,-86 2385.661,-122"/>
<text text-anchor="middle" x="2316" y="-99.8" font-family="Times,serif" font-size="14.00" fill="#000000">ModelListComponent</text>
</g>
<!-- ModelListComponent&#45;&gt;DataModule -->
<g id="edge6" class="edge">
<title>ModelListComponent&#45;&gt;DataModule</title>
<path fill="none" stroke="#000000" d="M2316,-122.0336C2316,-139.0597 2316,-162 2316,-162 2316,-162 1567.119,-162 1567.119,-162"/>
<polygon fill="#000000" stroke="#000000" points="1567.119,-158.5001 1557.119,-162 1567.119,-165.5001 1567.119,-158.5001"/>
</g>
<!-- ResourceListComponent -->
<g id="node7" class="node">
<title>ResourceListComponent</title>
<polygon fill="#ffffb3" stroke="#000000" points="2228.6965,-122 2073.3035,-122 2073.3035,-86 2228.6965,-86 2228.6965,-122"/>
<text text-anchor="middle" x="2151" y="-99.8" font-family="Times,serif" font-size="14.00" fill="#000000">ResourceListComponent</text>
</g>
<!-- ResourceListComponent&#45;&gt;DataModule -->
<g id="edge7" class="edge">
<title>ResourceListComponent&#45;&gt;DataModule</title>
<path fill="none" stroke="#000000" d="M2079.685,-122.0091C2079.685,-138.0494 2079.685,-159 2079.685,-159 2079.685,-159 1566.9826,-159 1566.9826,-159"/>
<polygon fill="#000000" stroke="#000000" points="1566.9826,-155.5001 1556.9826,-159 1566.9826,-162.5001 1566.9826,-155.5001"/>
</g>
<!-- DefaultEntryInputComponent -->
<g id="node8" class="node">
<title>DefaultEntryInputComponent</title>
<polygon fill="#ffffb3" stroke="#000000" points="2054.965,-122 1871.035,-122 1871.035,-86 2054.965,-86 2054.965,-122"/>
<text text-anchor="middle" x="1963" y="-99.8" font-family="Times,serif" font-size="14.00" fill="#000000">DefaultEntryInputComponent</text>
</g>
<!-- DefaultEntryInputComponent&#45;&gt;DataModule -->
<g id="edge8" class="edge">
<title>DefaultEntryInputComponent&#45;&gt;DataModule</title>
<path fill="none" stroke="#000000" d="M1911.6303,-122.2396C1911.6303,-137.5706 1911.6303,-157 1911.6303,-157 1911.6303,-157 1567.3103,-157 1567.3103,-157"/>
<polygon fill="#000000" stroke="#000000" points="1567.3104,-153.5001 1557.3103,-157 1567.3103,-160.5001 1567.3104,-153.5001"/>
</g>
<!-- DefaultEntryOutputComponent -->
<g id="node9" class="node">
<title>DefaultEntryOutputComponent</title>
<polygon fill="#ffffb3" stroke="#000000" points="1852.8018,-122 1659.1982,-122 1659.1982,-86 1852.8018,-86 1852.8018,-122"/>
<text text-anchor="middle" x="1756" y="-99.8" font-family="Times,serif" font-size="14.00" fill="#000000">DefaultEntryOutputComponent</text>
</g>
<!-- DefaultEntryOutputComponent&#45;&gt;DataModule -->
<g id="edge9" class="edge">
<title>DefaultEntryOutputComponent&#45;&gt;DataModule</title>
<path fill="none" stroke="#000000" d="M1712.6217,-122.0511C1712.6217,-136.373 1712.6217,-154 1712.6217,-154 1712.6217,-154 1567.0979,-154 1567.0979,-154"/>
<polygon fill="#000000" stroke="#000000" points="1567.098,-150.5001 1557.0979,-154 1567.0979,-157.5001 1567.098,-150.5001"/>
</g>
<!-- CrudComponent -->
<g id="node10" class="node">
<title>CrudComponent</title>
<polygon fill="#ffffb3" stroke="#000000" points="1641.8301,-122 1532.1699,-122 1532.1699,-86 1641.8301,-86 1641.8301,-122"/>
<text text-anchor="middle" x="1587" y="-99.8" font-family="Times,serif" font-size="14.00" fill="#000000">CrudComponent</text>
</g>
<!-- CrudComponent&#45;&gt;DataModule -->
<g id="edge10" class="edge">
<title>CrudComponent&#45;&gt;DataModule</title>
<path fill="none" stroke="#000000" d="M1544.6617,-122.1061C1544.6617,-122.1061 1544.6617,-140.991 1544.6617,-140.991"/>
<polygon fill="#000000" stroke="#000000" points="1541.1617,-140.9909 1544.6617,-150.991 1548.1617,-140.991 1541.1617,-140.9909"/>
</g>
<!-- EntrySelectComponent -->
<g id="node11" class="node">
<title>EntrySelectComponent</title>
<polygon fill="#ffffb3" stroke="#000000" points="1514.1442,-122 1367.8558,-122 1367.8558,-86 1514.1442,-86 1514.1442,-122"/>
<text text-anchor="middle" x="1441" y="-99.8" font-family="Times,serif" font-size="14.00" fill="#000000">EntrySelectComponent</text>
</g>
<!-- EntrySelectComponent&#45;&gt;DataModule -->
<g id="edge11" class="edge">
<title>EntrySelectComponent&#45;&gt;DataModule</title>
<path fill="none" stroke="#000000" d="M1492.6669,-122.1061C1492.6669,-122.1061 1492.6669,-140.991 1492.6669,-140.991"/>
<polygon fill="#000000" stroke="#000000" points="1489.167,-140.9909 1492.6669,-150.991 1496.167,-140.991 1489.167,-140.9909"/>
</g>
<!-- EditorComponent -->
<g id="node12" class="node">
<title>EditorComponent</title>
<polygon fill="#ffffb3" stroke="#000000" points="1350.3273,-122 1233.6727,-122 1233.6727,-86 1350.3273,-86 1350.3273,-122"/>
<text text-anchor="middle" x="1292" y="-99.8" font-family="Times,serif" font-size="14.00" fill="#000000">EditorComponent</text>
</g>
<!-- EditorComponent&#45;&gt;DataModule -->
<g id="edge12" class="edge">
<title>EditorComponent&#45;&gt;DataModule</title>
<path fill="none" stroke="#000000" d="M1309.0229,-122.0511C1309.0229,-136.373 1309.0229,-154 1309.0229,-154 1309.0229,-154 1460.5296,-154 1460.5296,-154"/>
<polygon fill="#000000" stroke="#000000" points="1460.5297,-157.5001 1470.5296,-154 1460.5296,-150.5001 1460.5297,-157.5001"/>
</g>
<!-- EntryListComponent  -->
<g id="node16" class="node">
<title>EntryListComponent </title>
<polygon fill="#fb8072" stroke="#000000" points="2241.7149,-252 2104.2851,-252 2104.2851,-216 2241.7149,-216 2241.7149,-252"/>
<text text-anchor="middle" x="2173" y="-229.8" font-family="Times,serif" font-size="14.00" fill="#000000">EntryListComponent </text>
</g>
<!-- DataModule&#45;&gt;EntryListComponent  -->
<g id="edge15" class="edge">
<title>DataModule&#45;&gt;EntryListComponent </title>
<path fill="none" stroke="#000000" stroke-dasharray="5,2" d="M1557.0561,-177C1702.4761,-177 2166.3705,-177 2166.3705,-177 2166.3705,-177 2166.3705,-205.9648 2166.3705,-205.9648"/>
<polygon fill="#000000" stroke="#000000" points="2162.8705,-205.9648 2166.3705,-215.9648 2169.8705,-205.9649 2162.8705,-205.9648"/>
</g>
<!-- EntryComponent  -->
<g id="node17" class="node">
<title>EntryComponent </title>
<polygon fill="#fb8072" stroke="#000000" points="2085.9362,-252 1970.0638,-252 1970.0638,-216 2085.9362,-216 2085.9362,-252"/>
<text text-anchor="middle" x="2028" y="-229.8" font-family="Times,serif" font-size="14.00" fill="#000000">EntryComponent </text>
</g>
<!-- DataModule&#45;&gt;EntryComponent  -->
<g id="edge16" class="edge">
<title>DataModule&#45;&gt;EntryComponent </title>
<path fill="none" stroke="#000000" stroke-dasharray="5,2" d="M1557.3672,-180C1678.6509,-180 2012.5072,-180 2012.5072,-180 2012.5072,-180 2012.5072,-205.7181 2012.5072,-205.7181"/>
<polygon fill="#000000" stroke="#000000" points="2009.0073,-205.718 2012.5072,-215.7181 2016.0073,-205.7181 2009.0073,-205.718"/>
</g>
<!-- EntriesComponent  -->
<g id="node18" class="node">
<title>EntriesComponent </title>
<polygon fill="#fb8072" stroke="#000000" points="1952.487,-252 1827.513,-252 1827.513,-216 1952.487,-216 1952.487,-252"/>
<text text-anchor="middle" x="1890" y="-229.8" font-family="Times,serif" font-size="14.00" fill="#000000">EntriesComponent </text>
</g>
<!-- DataModule&#45;&gt;EntriesComponent  -->
<g id="edge17" class="edge">
<title>DataModule&#45;&gt;EntriesComponent </title>
<path fill="none" stroke="#000000" stroke-dasharray="5,2" d="M1556.9809,-182C1645.5594,-182 1840.2039,-182 1840.2039,-182 1840.2039,-182 1840.2039,-205.8129 1840.2039,-205.8129"/>
<polygon fill="#000000" stroke="#000000" points="1836.704,-205.8129 1840.2039,-215.8129 1843.704,-205.813 1836.704,-205.8129"/>
</g>
<!-- EntryFormComponent  -->
<g id="node19" class="node">
<title>EntryFormComponent </title>
<polygon fill="#fb8072" stroke="#000000" points="1810.2702,-252 1663.7298,-252 1663.7298,-216 1810.2702,-216 1810.2702,-252"/>
<text text-anchor="middle" x="1737" y="-229.8" font-family="Times,serif" font-size="14.00" fill="#000000">EntryFormComponent </text>
</g>
<!-- DataModule&#45;&gt;EntryFormComponent  -->
<g id="edge18" class="edge">
<title>DataModule&#45;&gt;EntryFormComponent </title>
<path fill="none" stroke="#000000" stroke-dasharray="5,2" d="M1557.09,-185C1627.9656,-185 1761.3783,-185 1761.3783,-185 1761.3783,-185 1761.3783,-205.7542 1761.3783,-205.7542"/>
<polygon fill="#000000" stroke="#000000" points="1757.8784,-205.7542 1761.3783,-215.7542 1764.8784,-205.7542 1757.8784,-205.7542"/>
</g>
<!-- CrudComponent  -->
<g id="node20" class="node">
<title>CrudComponent </title>
<polygon fill="#fb8072" stroke="#000000" points="1645.3297,-252 1532.6703,-252 1532.6703,-216 1645.3297,-216 1645.3297,-252"/>
<text text-anchor="middle" x="1589" y="-229.8" font-family="Times,serif" font-size="14.00" fill="#000000">CrudComponent </text>
</g>
<!-- DataModule&#45;&gt;CrudComponent  -->
<g id="edge19" class="edge">
<title>DataModule&#45;&gt;CrudComponent </title>
<path fill="none" stroke="#000000" stroke-dasharray="5,2" d="M1544.7867,-187.1061C1544.7867,-187.1061 1544.7867,-205.991 1544.7867,-205.991"/>
<polygon fill="#000000" stroke="#000000" points="1541.2867,-205.9909 1544.7867,-215.991 1548.2867,-205.991 1541.2867,-205.9909"/>
</g>
<!-- EntrySelectComponent  -->
<g id="node21" class="node">
<title>EntrySelectComponent </title>
<polygon fill="#fb8072" stroke="#000000" points="1515.1439,-252 1364.8561,-252 1364.8561,-216 1515.1439,-216 1515.1439,-252"/>
<text text-anchor="middle" x="1440" y="-229.8" font-family="Times,serif" font-size="14.00" fill="#000000">EntrySelectComponent </text>
</g>
<!-- DataModule&#45;&gt;EntrySelectComponent  -->
<g id="edge20" class="edge">
<title>DataModule&#45;&gt;EntrySelectComponent </title>
<path fill="none" stroke="#000000" stroke-dasharray="5,2" d="M1493.0419,-187.1061C1493.0419,-187.1061 1493.0419,-205.991 1493.0419,-205.991"/>
<polygon fill="#000000" stroke="#000000" points="1489.542,-205.9909 1493.0419,-215.991 1496.542,-205.991 1489.542,-205.9909"/>
</g>
<!-- DatamanagerListComponent  -->
<g id="node22" class="node">
<title>DatamanagerListComponent </title>
<polygon fill="#fb8072" stroke="#000000" points="1346.7323,-252 1165.2677,-252 1165.2677,-216 1346.7323,-216 1346.7323,-252"/>
<text text-anchor="middle" x="1256" y="-229.8" font-family="Times,serif" font-size="14.00" fill="#000000">DatamanagerListComponent </text>
</g>
<!-- DataModule&#45;&gt;DatamanagerListComponent  -->
<g id="edge21" class="edge">
<title>DataModule&#45;&gt;DatamanagerListComponent </title>
<path fill="none" stroke="#000000" stroke-dasharray="5,2" d="M1470.9128,-185C1401.2078,-185 1271.4298,-185 1271.4298,-185 1271.4298,-185 1271.4298,-205.7542 1271.4298,-205.7542"/>
<polygon fill="#000000" stroke="#000000" points="1267.9299,-205.7542 1271.4298,-215.7542 1274.9299,-205.7542 1267.9299,-205.7542"/>
</g>
<!-- ModelListComponent  -->
<g id="node23" class="node">
<title>ModelListComponent </title>
<polygon fill="#fb8072" stroke="#000000" points="1147.6607,-252 1004.3393,-252 1004.3393,-216 1147.6607,-216 1147.6607,-252"/>
<text text-anchor="middle" x="1076" y="-229.8" font-family="Times,serif" font-size="14.00" fill="#000000">ModelListComponent </text>
</g>
<!-- DataModule&#45;&gt;ModelListComponent  -->
<g id="edge22" class="edge">
<title>DataModule&#45;&gt;ModelListComponent </title>
<path fill="none" stroke="#000000" stroke-dasharray="5,2" d="M1470.7068,-182C1367.0213,-182 1113.0167,-182 1113.0167,-182 1113.0167,-182 1113.0167,-205.8129 1113.0167,-205.8129"/>
<polygon fill="#000000" stroke="#000000" points="1109.5167,-205.8129 1113.0167,-215.8129 1116.5167,-205.813 1109.5167,-205.8129"/>
</g>
<!-- ResourceListComponent  -->
<g id="node24" class="node">
<title>ResourceListComponent </title>
<polygon fill="#fb8072" stroke="#000000" points="986.1967,-252 827.8033,-252 827.8033,-216 986.1967,-216 986.1967,-252"/>
<text text-anchor="middle" x="907" y="-229.8" font-family="Times,serif" font-size="14.00" fill="#000000">ResourceListComponent </text>
</g>
<!-- DataModule&#45;&gt;ResourceListComponent  -->
<g id="edge23" class="edge">
<title>DataModule&#45;&gt;ResourceListComponent </title>
<path fill="none" stroke="#000000" stroke-dasharray="5,2" d="M1470.7771,-180C1342.7991,-180 974.6827,-180 974.6827,-180 974.6827,-180 974.6827,-205.7181 974.6827,-205.7181"/>
<polygon fill="#000000" stroke="#000000" points="971.1828,-205.718 974.6827,-215.7181 978.1828,-205.7181 971.1828,-205.718"/>
</g>
<!-- EditorComponent  -->
<g id="node25" class="node">
<title>EditorComponent </title>
<polygon fill="#fb8072" stroke="#000000" points="809.8269,-252 690.1731,-252 690.1731,-216 809.8269,-216 809.8269,-252"/>
<text text-anchor="middle" x="750" y="-229.8" font-family="Times,serif" font-size="14.00" fill="#000000">EditorComponent </text>
</g>
<!-- DataModule&#45;&gt;EditorComponent  -->
<g id="edge24" class="edge">
<title>DataModule&#45;&gt;EditorComponent </title>
<path fill="none" stroke="#000000" stroke-dasharray="5,2" d="M1470.8922,-177C1310.5277,-177 757.6211,-177 757.6211,-177 757.6211,-177 757.6211,-205.9648 757.6211,-205.9648"/>
<polygon fill="#000000" stroke="#000000" points="754.1212,-205.9648 757.6211,-215.9648 761.1212,-205.9649 754.1212,-205.9648"/>
</g>
<!-- DataRoutingModule -->
<g id="node14" class="node">
<title>DataRoutingModule</title>
<polygon fill="#8dd3c7" stroke="#000000" points="1209.594,-122 1206.594,-126 1185.594,-126 1182.594,-122 1078.406,-122 1078.406,-86 1209.594,-86 1209.594,-122"/>
<text text-anchor="middle" x="1144" y="-99.8" font-family="Times,serif" font-size="14.00" fill="#000000">DataRoutingModule</text>
</g>
<!-- DataRoutingModule&#45;&gt;DataModule -->
<g id="edge13" class="edge">
<title>DataRoutingModule&#45;&gt;DataModule</title>
<path fill="none" stroke="#000000" d="M1187.4655,-122.2396C1187.4655,-137.5706 1187.4655,-157 1187.4655,-157 1187.4655,-157 1460.9755,-157 1460.9755,-157"/>
<polygon fill="#000000" stroke="#000000" points="1460.9756,-160.5001 1470.9755,-157 1460.9755,-153.5001 1460.9756,-160.5001"/>
</g>
<!-- UiModule -->
<g id="node15" class="node">
<title>UiModule</title>
<polygon fill="#8dd3c7" stroke="#000000" points="1060.5484,-122 1057.5484,-126 1036.5484,-126 1033.5484,-122 987.4516,-122 987.4516,-86 1060.5484,-86 1060.5484,-122"/>
<text text-anchor="middle" x="1024" y="-99.8" font-family="Times,serif" font-size="14.00" fill="#000000">UiModule</text>
</g>
<!-- UiModule&#45;&gt;DataModule -->
<g id="edge14" class="edge">
<title>UiModule&#45;&gt;DataModule</title>
<path fill="none" stroke="#000000" d="M1032.5966,-122.0091C1032.5966,-138.0494 1032.5966,-159 1032.5966,-159 1032.5966,-159 1460.855,-159 1460.855,-159"/>
<polygon fill="#000000" stroke="#000000" points="1460.855,-162.5001 1470.855,-159 1460.855,-155.5001 1460.855,-162.5001"/>
</g>
<!-- SdkService -->
<g id="node26" class="node">
<title>SdkService</title>
<ellipse fill="#fdb462" stroke="#000000" cx="908" cy="-104" rx="55.0343" ry="18"/>
<text text-anchor="middle" x="908" y="-99.8" font-family="Times,serif" font-size="14.00" fill="#000000">SdkService</text>
</g>
<!-- SdkService&#45;&gt;DataModule -->
<g id="edge25" class="edge">
<title>SdkService&#45;&gt;DataModule</title>
<path fill="none" stroke="#000000" d="M908,-122.0336C908,-139.0597 908,-162 908,-162 908,-162 1460.9038,-162 1460.9038,-162"/>
<polygon fill="#000000" stroke="#000000" points="1460.9038,-165.5001 1470.9038,-162 1460.9037,-158.5001 1460.9038,-165.5001"/>
</g>
<!-- PublicService -->
<g id="node27" class="node">
<title>PublicService</title>
<ellipse fill="#fdb462" stroke="#000000" cx="770" cy="-104" rx="64.8428" ry="18"/>
<text text-anchor="middle" x="770" y="-99.8" font-family="Times,serif" font-size="14.00" fill="#000000">PublicService</text>
</g>
<!-- PublicService&#45;&gt;DataModule -->
<g id="edge26" class="edge">
<title>PublicService&#45;&gt;DataModule</title>
<path fill="none" stroke="#000000" d="M831.1615,-109.9724C831.1615,-125.1487 831.1615,-164 831.1615,-164 831.1615,-164 1460.7674,-164 1460.7674,-164"/>
<polygon fill="#000000" stroke="#000000" points="1460.7674,-167.5001 1470.7674,-164 1460.7673,-160.5001 1460.7674,-167.5001"/>
</g>
<!-- AdminService -->
<g id="node28" class="node">
<title>AdminService</title>
<ellipse fill="#fdb462" stroke="#000000" cx="621" cy="-104" rx="66.6325" ry="18"/>
<text text-anchor="middle" x="621" y="-99.8" font-family="Times,serif" font-size="14.00" fill="#000000">AdminService</text>
</g>
<!-- AdminService&#45;&gt;DataModule -->
<g id="edge27" class="edge">
<title>AdminService&#45;&gt;DataModule</title>
<path fill="none" stroke="#000000" d="M621,-122.2222C621,-140.8285 621,-167 621,-167 621,-167 1460.9288,-167 1460.9288,-167"/>
<polygon fill="#000000" stroke="#000000" points="1460.9288,-170.5001 1470.9288,-167 1460.9287,-163.5001 1460.9288,-170.5001"/>
</g>
<!-- CrudService -->
<g id="node29" class="node">
<title>CrudService</title>
<ellipse fill="#fdb462" stroke="#000000" cx="477" cy="-104" rx="59.1083" ry="18"/>
<text text-anchor="middle" x="477" y="-99.8" font-family="Times,serif" font-size="14.00" fill="#000000">CrudService</text>
</g>
<!-- CrudService&#45;&gt;DataModule -->
<g id="edge28" class="edge">
<title>CrudService&#45;&gt;DataModule</title>
<path fill="none" stroke="#000000" d="M477,-122.1061C477,-141.3391 477,-169 477,-169 477,-169 1460.7617,-169 1460.7617,-169"/>
<polygon fill="#000000" stroke="#000000" points="1460.7617,-172.5001 1470.7617,-169 1460.7616,-165.5001 1460.7617,-172.5001"/>
</g>
<!-- TypeConfigService -->
<g id="node30" class="node">
<title>TypeConfigService</title>
<ellipse fill="#fdb462" stroke="#000000" cx="313" cy="-104" rx="86.8184" ry="18"/>
<text text-anchor="middle" x="313" y="-99.8" font-family="Times,serif" font-size="14.00" fill="#000000">TypeConfigService</text>
</g>
<!-- TypeConfigService&#45;&gt;DataModule -->
<g id="edge29" class="edge">
<title>TypeConfigService&#45;&gt;DataModule</title>
<path fill="none" stroke="#000000" d="M313,-122.2228C313,-142.3652 313,-172 313,-172 313,-172 1460.9017,-172 1460.9017,-172"/>
<polygon fill="#000000" stroke="#000000" points="1460.9017,-175.5001 1470.9017,-172 1460.9016,-168.5001 1460.9017,-175.5001"/>
</g>
<!-- ModelConfigService -->
<g id="node31" class="node">
<title>ModelConfigService</title>
<ellipse fill="#fdb462" stroke="#000000" cx="116" cy="-104" rx="92.0548" ry="18"/>
<text text-anchor="middle" x="116" y="-99.8" font-family="Times,serif" font-size="14.00" fill="#000000">ModelConfigService</text>
</g>
<!-- ModelConfigService&#45;&gt;DataModule -->
<g id="edge30" class="edge">
<title>ModelConfigService&#45;&gt;DataModule</title>
<path fill="none" stroke="#000000" d="M116,-122.2843C116,-143.3211 116,-175 116,-175 116,-175 1461.0133,-175 1461.0133,-175"/>
<polygon fill="#000000" stroke="#000000" points="1461.0133,-178.5001 1471.0133,-175 1461.0132,-171.5001 1461.0133,-178.5001"/>
</g>
</g>
</svg>
