<?xml version="1.0" encoding="UTF-8" standalone="no"?>
<!DOCTYPE svg PUBLIC "-//W3C//DTD SVG 1.1//EN"
 "http://www.w3.org/Graphics/SVG/1.1/DTD/svg11.dtd">
<!-- Generated by graphviz version 2.40.1 (20161225.0304)
 -->
<!-- Title: dependencies Pages: 1 -->
<svg width="3695pt" height="284pt"
 viewBox="0.00 0.00 3695.00 284.00" xmlns="http://www.w3.org/2000/svg" xmlns:xlink="http://www.w3.org/1999/xlink">
<g id="graph0" class="graph" transform="scale(1 1) rotate(0) translate(4 280)">
<title>dependencies</title>
<polygon fill="#ffffff" stroke="transparent" points="-4,4 -4,-280 3691,-280 3691,4 -4,4"/>
<text text-anchor="start" x="1822.5091" y="-42.4" font-family="sans-serif" font-weight="bold" font-size="14.00" fill="#000000">Legend</text>
<polygon fill="#ffffb3" stroke="transparent" points="1609.5,-10 1609.5,-30 1629.5,-30 1629.5,-10 1609.5,-10"/>
<text text-anchor="start" x="1633.129" y="-15.4" font-family="sans-serif" font-size="14.00" fill="#000000"> &#160;Declarations</text>
<polygon fill="#8dd3c7" stroke="transparent" points="1722.5,-10 1722.5,-30 1742.5,-30 1742.5,-10 1722.5,-10"/>
<text text-anchor="start" x="1746.2251" y="-15.4" font-family="sans-serif" font-size="14.00" fill="#000000"> &#160;Module</text>
<polygon fill="#80b1d3" stroke="transparent" points="1808.5,-10 1808.5,-30 1828.5,-30 1828.5,-10 1808.5,-10"/>
<text text-anchor="start" x="1832.2812" y="-15.4" font-family="sans-serif" font-size="14.00" fill="#000000"> &#160;Bootstrap</text>
<polygon fill="#fdb462" stroke="transparent" points="1905.5,-10 1905.5,-30 1925.5,-30 1925.5,-10 1905.5,-10"/>
<text text-anchor="start" x="1929.1732" y="-15.4" font-family="sans-serif" font-size="14.00" fill="#000000"> &#160;Providers</text>
<polygon fill="#fb8072" stroke="transparent" points="2001.5,-10 2001.5,-30 2021.5,-30 2021.5,-10 2001.5,-10"/>
<text text-anchor="start" x="2025.2258" y="-15.4" font-family="sans-serif" font-size="14.00" fill="#000000"> &#160;Exports</text>
<g id="clust1" class="cluster">
<title>cluster_DataModule</title>
<polygon fill="none" stroke="#000000" stroke-dasharray="1,5" points="8,-70 8,-268 3679,-268 3679,-70 8,-70"/>
</g>
<g id="clust2" class="cluster">
<title>cluster_DataModule_declarations</title>
<polygon fill="none" stroke="#000000" points="959,-78 959,-130 3671,-130 3671,-78 959,-78"/>
</g>
<g id="clust19" class="cluster">
<title>cluster_DataModule_imports</title>
<polygon fill="none" stroke="#000000" points="552,-78 552,-130 951,-130 951,-78 552,-78"/>
</g>
<g id="clust20" class="cluster">
<title>cluster_DataModule_exports</title>
<polygon fill="none" stroke="#000000" points="491,-208 491,-260 3053,-260 3053,-208 491,-208"/>
</g>
<g id="clust22" class="cluster">
<title>cluster_DataModule_providers</title>
<polygon fill="none" stroke="#000000" points="16,-78 16,-130 544,-130 544,-78 16,-78"/>
</g>
<!-- EntryListComponent -->
<g id="node1" class="node">
<title>EntryListComponent</title>
<polygon fill="#ffffb3" stroke="#000000" points="3663.2148,-122 3528.7852,-122 3528.7852,-86 3663.2148,-86 3663.2148,-122"/>
<text text-anchor="middle" x="3596" y="-99.8" font-family="Times,serif" font-size="14.00" fill="#000000">EntryListComponent</text>
</g>
<!-- DataModule -->
<g id="node17" class="node">
<title>DataModule</title>
<polygon fill="#8dd3c7" stroke="#000000" points="1803.9762,-187 1800.9762,-191 1779.9762,-191 1776.9762,-187 1718.0238,-187 1718.0238,-151 1803.9762,-151 1803.9762,-187"/>
<text text-anchor="middle" x="1761" y="-164.8" font-family="Times,serif" font-size="14.00" fill="#000000">DataModule</text>
</g>
<!-- EntryListComponent&#45;&gt;DataModule -->
<g id="edge1" class="edge">
<title>EntryListComponent&#45;&gt;DataModule</title>
<path fill="none" stroke="#000000" d="M3596,-122.308C3596,-142.1455 3596,-171 3596,-171 3596,-171 1814.1028,-171 1814.1028,-171"/>
<polygon fill="#000000" stroke="#000000" points="1814.1028,-167.5001 1804.1028,-171 1814.1027,-174.5001 1814.1028,-167.5001"/>
</g>
<!-- EntryDirective -->
<g id="node2" class="node">
<title>EntryDirective</title>
<polygon fill="#ffffb3" stroke="#000000" points="3510.6868,-122 3411.3132,-122 3411.3132,-86 3510.6868,-86 3510.6868,-122"/>
<text text-anchor="middle" x="3461" y="-99.8" font-family="Times,serif" font-size="14.00" fill="#000000">EntryDirective</text>
</g>
<!-- EntryDirective&#45;&gt;DataModule -->
<g id="edge2" class="edge">
<title>EntryDirective&#45;&gt;DataModule</title>
<path fill="none" stroke="#000000" d="M3461,-122.1061C3461,-141.3391 3461,-169 3461,-169 3461,-169 1814.301,-169 1814.301,-169"/>
<polygon fill="#000000" stroke="#000000" points="1814.3011,-165.5001 1804.301,-169 1814.301,-172.5001 1814.3011,-165.5001"/>
</g>
<!-- EntriesDirective -->
<g id="node3" class="node">
<title>EntriesDirective</title>
<polygon fill="#ffffb3" stroke="#000000" points="3393.7367,-122 3286.2633,-122 3286.2633,-86 3393.7367,-86 3393.7367,-122"/>
<text text-anchor="middle" x="3340" y="-99.8" font-family="Times,serif" font-size="14.00" fill="#000000">EntriesDirective</text>
</g>
<!-- EntriesDirective&#45;&gt;DataModule -->
<g id="edge3" class="edge">
<title>EntriesDirective&#45;&gt;DataModule</title>
<path fill="none" stroke="#000000" d="M3340,-122.1686C3340,-141.0898 3340,-168 3340,-168 3340,-168 1814.0533,-168 1814.0533,-168"/>
<polygon fill="#000000" stroke="#000000" points="1814.0534,-164.5001 1804.0533,-168 1814.0533,-171.5001 1814.0534,-164.5001"/>
</g>
<!-- EntryFormComponent -->
<g id="node4" class="node">
<title>EntryFormComponent</title>
<polygon fill="#ffffb3" stroke="#000000" points="3268.2702,-122 3125.7298,-122 3125.7298,-86 3268.2702,-86 3268.2702,-122"/>
<text text-anchor="middle" x="3197" y="-99.8" font-family="Times,serif" font-size="14.00" fill="#000000">EntryFormComponent</text>
</g>
<!-- EntryFormComponent&#45;&gt;DataModule -->
<g id="edge4" class="edge">
<title>EntryFormComponent&#45;&gt;DataModule</title>
<path fill="none" stroke="#000000" d="M3197,-122.2667C3197,-140.5552 3197,-166 3197,-166 3197,-166 1813.9766,-166 1813.9766,-166"/>
<polygon fill="#000000" stroke="#000000" points="1813.9767,-162.5001 1803.9766,-166 1813.9766,-169.5001 1813.9767,-162.5001"/>
</g>
<!-- EntryPopComponent -->
<g id="node5" class="node">
<title>EntryPopComponent</title>
<polygon fill="#ffffb3" stroke="#000000" points="3108.219,-122 2973.781,-122 2973.781,-86 3108.219,-86 3108.219,-122"/>
<text text-anchor="middle" x="3041" y="-99.8" font-family="Times,serif" font-size="14.00" fill="#000000">EntryPopComponent</text>
</g>
<!-- EntryPopComponent&#45;&gt;DataModule -->
<g id="edge5" class="edge">
<title>EntryPopComponent&#45;&gt;DataModule</title>
<path fill="none" stroke="#000000" d="M3009.374,-122.002C3009.374,-139.6754 3009.374,-164 3009.374,-164 3009.374,-164 1814.3344,-164 1814.3344,-164"/>
<polygon fill="#000000" stroke="#000000" points="1814.3344,-160.5001 1804.3344,-164 1814.3344,-167.5001 1814.3344,-160.5001"/>
</g>
<!-- ResourceListComponent -->
<g id="node6" class="node">
<title>ResourceListComponent</title>
<polygon fill="#ffffb3" stroke="#000000" points="2955.6965,-122 2800.3035,-122 2800.3035,-86 2955.6965,-86 2955.6965,-122"/>
<text text-anchor="middle" x="2878" y="-99.8" font-family="Times,serif" font-size="14.00" fill="#000000">ResourceListComponent</text>
</g>
<!-- ResourceListComponent&#45;&gt;DataModule -->
<g id="edge6" class="edge">
<title>ResourceListComponent&#45;&gt;DataModule</title>
<path fill="none" stroke="#000000" d="M2844.8726,-122.0336C2844.8726,-139.0597 2844.8726,-162 2844.8726,-162 2844.8726,-162 1814.1579,-162 1814.1579,-162"/>
<polygon fill="#000000" stroke="#000000" points="1814.158,-158.5001 1804.1579,-162 1814.1579,-165.5001 1814.158,-158.5001"/>
</g>
<!-- ResourceFormComponent -->
<g id="node7" class="node">
<title>ResourceFormComponent</title>
<polygon fill="#ffffb3" stroke="#000000" points="2782.752,-122 2619.248,-122 2619.248,-86 2782.752,-86 2782.752,-122"/>
<text text-anchor="middle" x="2701" y="-99.8" font-family="Times,serif" font-size="14.00" fill="#000000">ResourceFormComponent</text>
</g>
<!-- ResourceFormComponent&#45;&gt;DataModule -->
<g id="edge7" class="edge">
<title>ResourceFormComponent&#45;&gt;DataModule</title>
<path fill="none" stroke="#000000" d="M2629.1296,-122.027C2629.1296,-138.3976 2629.1296,-160 2629.1296,-160 2629.1296,-160 1814.0507,-160 1814.0507,-160"/>
<polygon fill="#000000" stroke="#000000" points="1814.0507,-156.5001 1804.0507,-160 1814.0506,-163.5001 1814.0507,-156.5001"/>
</g>
<!-- ResourcePopComponent -->
<g id="node8" class="node">
<title>ResourcePopComponent</title>
<polygon fill="#ffffb3" stroke="#000000" points="2601.7007,-122 2446.2993,-122 2446.2993,-86 2601.7007,-86 2601.7007,-122"/>
<text text-anchor="middle" x="2524" y="-99.8" font-family="Times,serif" font-size="14.00" fill="#000000">ResourcePopComponent</text>
</g>
<!-- ResourcePopComponent&#45;&gt;DataModule -->
<g id="edge8" class="edge">
<title>ResourcePopComponent&#45;&gt;DataModule</title>
<path fill="none" stroke="#000000" d="M2460.6295,-122.0091C2460.6295,-138.0494 2460.6295,-159 2460.6295,-159 2460.6295,-159 1814.237,-159 1814.237,-159"/>
<polygon fill="#000000" stroke="#000000" points="1814.237,-155.5001 1804.237,-159 1814.2369,-162.5001 1814.237,-155.5001"/>
</g>
<!-- ResourceCrudComponent -->
<g id="node9" class="node">
<title>ResourceCrudComponent</title>
<polygon fill="#ffffb3" stroke="#000000" points="2428.9157,-122 2267.0843,-122 2267.0843,-86 2428.9157,-86 2428.9157,-122"/>
<text text-anchor="middle" x="2348" y="-99.8" font-family="Times,serif" font-size="14.00" fill="#000000">ResourceCrudComponent</text>
</g>
<!-- ResourceCrudComponent&#45;&gt;DataModule -->
<g id="edge9" class="edge">
<title>ResourceCrudComponent&#45;&gt;DataModule</title>
<path fill="none" stroke="#000000" d="M2293.3536,-122.2396C2293.3536,-137.5706 2293.3536,-157 2293.3536,-157 2293.3536,-157 1814.1138,-157 1814.1138,-157"/>
<polygon fill="#000000" stroke="#000000" points="1814.1138,-153.5001 1804.1138,-157 1814.1138,-160.5001 1814.1138,-153.5001"/>
</g>
<!-- ResourceSelectComponent -->
<g id="node10" class="node">
<title>ResourceSelectComponent</title>
<polygon fill="#ffffb3" stroke="#000000" points="2248.626,-122 2081.374,-122 2081.374,-86 2248.626,-86 2248.626,-122"/>
<text text-anchor="middle" x="2165" y="-99.8" font-family="Times,serif" font-size="14.00" fill="#000000">ResourceSelectComponent</text>
</g>
<!-- ResourceSelectComponent&#45;&gt;DataModule -->
<g id="edge10" class="edge">
<title>ResourceSelectComponent&#45;&gt;DataModule</title>
<path fill="none" stroke="#000000" d="M2135.1296,-122.1243C2135.1296,-136.7832 2135.1296,-155 2135.1296,-155 2135.1296,-155 1814.2829,-155 1814.2829,-155"/>
<polygon fill="#000000" stroke="#000000" points="1814.2829,-151.5001 1804.2829,-155 1814.2829,-158.5001 1814.2829,-151.5001"/>
</g>
<!-- ResourceDeletePopComponent -->
<g id="node11" class="node">
<title>ResourceDeletePopComponent</title>
<polygon fill="#ffffb3" stroke="#000000" points="2062.7324,-122 1871.2676,-122 1871.2676,-86 2062.7324,-86 2062.7324,-122"/>
<text text-anchor="middle" x="1967" y="-99.8" font-family="Times,serif" font-size="14.00" fill="#000000">ResourceDeletePopComponent</text>
</g>
<!-- ResourceDeletePopComponent&#45;&gt;DataModule -->
<g id="edge11" class="edge">
<title>ResourceDeletePopComponent&#45;&gt;DataModule</title>
<path fill="none" stroke="#000000" d="M1946.2411,-122.2458C1946.2411,-136.1772 1946.2411,-153 1946.2411,-153 1946.2411,-153 1814.4308,-153 1814.4308,-153"/>
<polygon fill="#000000" stroke="#000000" points="1814.4308,-149.5001 1804.4308,-153 1814.4308,-156.5001 1814.4308,-149.5001"/>
</g>
<!-- DefaultEntryInputComponent -->
<g id="node12" class="node">
<title>DefaultEntryInputComponent</title>
<polygon fill="#ffffb3" stroke="#000000" points="1852.965,-122 1669.035,-122 1669.035,-86 1852.965,-86 1852.965,-122"/>
<text text-anchor="middle" x="1761" y="-99.8" font-family="Times,serif" font-size="14.00" fill="#000000">DefaultEntryInputComponent</text>
</g>
<!-- DefaultEntryInputComponent&#45;&gt;DataModule -->
<g id="edge12" class="edge">
<title>DefaultEntryInputComponent&#45;&gt;DataModule</title>
<path fill="none" stroke="#000000" d="M1761,-122.1061C1761,-122.1061 1761,-140.991 1761,-140.991"/>
<polygon fill="#000000" stroke="#000000" points="1757.5001,-140.9909 1761,-150.991 1764.5001,-140.991 1757.5001,-140.9909"/>
</g>
<!-- DefaultEntryOutputComponent -->
<g id="node13" class="node">
<title>DefaultEntryOutputComponent</title>
<polygon fill="#ffffb3" stroke="#000000" points="1650.8018,-122 1457.1982,-122 1457.1982,-86 1650.8018,-86 1650.8018,-122"/>
<text text-anchor="middle" x="1554" y="-99.8" font-family="Times,serif" font-size="14.00" fill="#000000">DefaultEntryOutputComponent</text>
</g>
<!-- DefaultEntryOutputComponent&#45;&gt;DataModule -->
<g id="edge13" class="edge">
<title>DefaultEntryOutputComponent&#45;&gt;DataModule</title>
<path fill="none" stroke="#000000" d="M1575.6503,-122.2458C1575.6503,-136.1772 1575.6503,-153 1575.6503,-153 1575.6503,-153 1708.0112,-153 1708.0112,-153"/>
<polygon fill="#000000" stroke="#000000" points="1708.0112,-156.5001 1718.0112,-153 1708.0111,-149.5001 1708.0112,-156.5001"/>
</g>
<!-- AdminEntryInputComponent -->
<g id="node14" class="node">
<title>AdminEntryInputComponent</title>
<polygon fill="#ffffb3" stroke="#000000" points="1439.3752,-122 1258.6248,-122 1258.6248,-86 1439.3752,-86 1439.3752,-122"/>
<text text-anchor="middle" x="1349" y="-99.8" font-family="Times,serif" font-size="14.00" fill="#000000">AdminEntryInputComponent</text>
</g>
<!-- AdminEntryInputComponent&#45;&gt;DataModule -->
<g id="edge14" class="edge">
<title>AdminEntryInputComponent&#45;&gt;DataModule</title>
<path fill="none" stroke="#000000" d="M1378.49,-122.1243C1378.49,-136.7832 1378.49,-155 1378.49,-155 1378.49,-155 1707.8648,-155 1707.8648,-155"/>
<polygon fill="#000000" stroke="#000000" points="1707.8648,-158.5001 1717.8648,-155 1707.8648,-151.5001 1707.8648,-158.5001"/>
</g>
<!-- CrudComponent -->
<g id="node15" class="node">
<title>CrudComponent</title>
<polygon fill="#ffffb3" stroke="#000000" points="1240.8301,-122 1131.1699,-122 1131.1699,-86 1240.8301,-86 1240.8301,-122"/>
<text text-anchor="middle" x="1186" y="-99.8" font-family="Times,serif" font-size="14.00" fill="#000000">CrudComponent</text>
</g>
<!-- CrudComponent&#45;&gt;DataModule -->
<g id="edge15" class="edge">
<title>CrudComponent&#45;&gt;DataModule</title>
<path fill="none" stroke="#000000" d="M1186,-122.2396C1186,-137.5706 1186,-157 1186,-157 1186,-157 1707.7815,-157 1707.7815,-157"/>
<polygon fill="#000000" stroke="#000000" points="1707.7816,-160.5001 1717.7815,-157 1707.7815,-153.5001 1707.7816,-160.5001"/>
</g>
<!-- EntrySelectComponent -->
<g id="node16" class="node">
<title>EntrySelectComponent</title>
<polygon fill="#ffffb3" stroke="#000000" points="1113.1442,-122 966.8558,-122 966.8558,-86 1113.1442,-86 1113.1442,-122"/>
<text text-anchor="middle" x="1040" y="-99.8" font-family="Times,serif" font-size="14.00" fill="#000000">EntrySelectComponent</text>
</g>
<!-- EntrySelectComponent&#45;&gt;DataModule -->
<g id="edge16" class="edge">
<title>EntrySelectComponent&#45;&gt;DataModule</title>
<path fill="none" stroke="#000000" d="M1108.8529,-122.0091C1108.8529,-138.0494 1108.8529,-159 1108.8529,-159 1108.8529,-159 1707.9586,-159 1707.9586,-159"/>
<polygon fill="#000000" stroke="#000000" points="1707.9586,-162.5001 1717.9586,-159 1707.9586,-155.5001 1707.9586,-162.5001"/>
</g>
<!-- EntryListComponent  -->
<g id="node22" class="node">
<title>EntryListComponent </title>
<polygon fill="#fb8072" stroke="#000000" points="3044.7149,-252 2907.2851,-252 2907.2851,-216 3044.7149,-216 3044.7149,-252"/>
<text text-anchor="middle" x="2976" y="-229.8" font-family="Times,serif" font-size="14.00" fill="#000000">EntryListComponent </text>
</g>
<!-- DataModule&#45;&gt;EntryListComponent  -->
<g id="edge21" class="edge">
<title>DataModule&#45;&gt;EntryListComponent </title>
<path fill="none" stroke="#000000" stroke-dasharray="5,2" d="M1804.0421,-173C2015.1925,-173 2931.3705,-173 2931.3705,-173 2931.3705,-173 2931.3705,-205.698 2931.3705,-205.698"/>
<polygon fill="#000000" stroke="#000000" points="2927.8705,-205.698 2931.3705,-215.698 2934.8705,-205.698 2927.8705,-205.698"/>
</g>
<!-- EntryDirective  -->
<g id="node23" class="node">
<title>EntryDirective </title>
<polygon fill="#fb8072" stroke="#000000" points="2889.1871,-252 2786.8129,-252 2786.8129,-216 2889.1871,-216 2889.1871,-252"/>
<text text-anchor="middle" x="2838" y="-229.8" font-family="Times,serif" font-size="14.00" fill="#000000">EntryDirective </text>
</g>
<!-- DataModule&#45;&gt;EntryDirective  -->
<g id="edge22" class="edge">
<title>DataModule&#45;&gt;EntryDirective </title>
<path fill="none" stroke="#000000" stroke-dasharray="5,2" d="M1804.0519,-175C1999.466,-175 2793.5293,-175 2793.5293,-175 2793.5293,-175 2793.5293,-205.9775 2793.5293,-205.9775"/>
<polygon fill="#000000" stroke="#000000" points="2790.0293,-205.9774 2793.5293,-215.9775 2797.0293,-205.9775 2790.0293,-205.9774"/>
</g>
<!-- EntriesDirective  -->
<g id="node24" class="node">
<title>EntriesDirective </title>
<polygon fill="#fb8072" stroke="#000000" points="2768.7367,-252 2657.2633,-252 2657.2633,-216 2768.7367,-216 2768.7367,-252"/>
<text text-anchor="middle" x="2713" y="-229.8" font-family="Times,serif" font-size="14.00" fill="#000000">EntriesDirective </text>
</g>
<!-- DataModule&#45;&gt;EntriesDirective  -->
<g id="edge23" class="edge">
<title>DataModule&#45;&gt;EntriesDirective </title>
<path fill="none" stroke="#000000" stroke-dasharray="5,2" d="M1804.0666,-177C1989.8082,-177 2713,-177 2713,-177 2713,-177 2713,-205.9648 2713,-205.9648"/>
<polygon fill="#000000" stroke="#000000" points="2709.5001,-205.9648 2713,-215.9648 2716.5001,-205.9649 2709.5001,-205.9648"/>
</g>
<!-- EntryFormComponent  -->
<g id="node25" class="node">
<title>EntryFormComponent </title>
<polygon fill="#fb8072" stroke="#000000" points="2639.2702,-252 2492.7298,-252 2492.7298,-216 2639.2702,-216 2639.2702,-252"/>
<text text-anchor="middle" x="2566" y="-229.8" font-family="Times,serif" font-size="14.00" fill="#000000">EntryFormComponent </text>
</g>
<!-- DataModule&#45;&gt;EntryFormComponent  -->
<g id="edge24" class="edge">
<title>DataModule&#45;&gt;EntryFormComponent </title>
<path fill="none" stroke="#000000" stroke-dasharray="5,2" d="M1804.11,-178C1968.5577,-178 2547.2327,-178 2547.2327,-178 2547.2327,-178 2547.2327,-205.973 2547.2327,-205.973"/>
<polygon fill="#000000" stroke="#000000" points="2543.7327,-205.973 2547.2327,-215.973 2550.7327,-205.973 2543.7327,-205.973"/>
</g>
<!-- EntryPopComponent  -->
<g id="node26" class="node">
<title>EntryPopComponent </title>
<polygon fill="#fb8072" stroke="#000000" points="2474.7191,-252 2337.2809,-252 2337.2809,-216 2474.7191,-216 2474.7191,-252"/>
<text text-anchor="middle" x="2406" y="-229.8" font-family="Times,serif" font-size="14.00" fill="#000000">EntryPopComponent </text>
</g>
<!-- DataModule&#45;&gt;EntryPopComponent  -->
<g id="edge25" class="edge">
<title>DataModule&#45;&gt;EntryPopComponent </title>
<path fill="none" stroke="#000000" stroke-dasharray="5,2" d="M1804.2387,-180C1945.2773,-180 2382.9241,-180 2382.9241,-180 2382.9241,-180 2382.9241,-205.7181 2382.9241,-205.7181"/>
<polygon fill="#000000" stroke="#000000" points="2379.4242,-205.718 2382.9241,-215.7181 2386.4242,-205.7181 2379.4242,-205.718"/>
</g>
<!-- CrudComponent  -->
<g id="node27" class="node">
<title>CrudComponent </title>
<polygon fill="#fb8072" stroke="#000000" points="2319.3297,-252 2206.6703,-252 2206.6703,-216 2319.3297,-216 2319.3297,-252"/>
<text text-anchor="middle" x="2263" y="-229.8" font-family="Times,serif" font-size="14.00" fill="#000000">CrudComponent </text>
</g>
<!-- DataModule&#45;&gt;CrudComponent  -->
<g id="edge26" class="edge">
<title>DataModule&#45;&gt;CrudComponent </title>
<path fill="none" stroke="#000000" stroke-dasharray="5,2" d="M1804.0694,-182C1919.6047,-182 2227.699,-182 2227.699,-182 2227.699,-182 2227.699,-205.8129 2227.699,-205.8129"/>
<polygon fill="#000000" stroke="#000000" points="2224.1991,-205.8129 2227.699,-215.8129 2231.1991,-205.813 2224.1991,-205.8129"/>
</g>
<!-- EntrySelectComponent  -->
<g id="node28" class="node">
<title>EntrySelectComponent </title>
<polygon fill="#fb8072" stroke="#000000" points="2189.1439,-252 2038.8561,-252 2038.8561,-216 2189.1439,-216 2189.1439,-252"/>
<text text-anchor="middle" x="2114" y="-229.8" font-family="Times,serif" font-size="14.00" fill="#000000">EntrySelectComponent </text>
</g>
<!-- DataModule&#45;&gt;EntrySelectComponent  -->
<g id="edge27" class="edge">
<title>DataModule&#45;&gt;EntrySelectComponent </title>
<path fill="none" stroke="#000000" stroke-dasharray="5,2" d="M1804.0875,-184C1884.8439,-184 2050.8971,-184 2050.8971,-184 2050.8971,-184 2050.8971,-205.9489 2050.8971,-205.9489"/>
<polygon fill="#000000" stroke="#000000" points="2047.3972,-205.9488 2050.8971,-215.9489 2054.3972,-205.9489 2047.3972,-205.9488"/>
</g>
<!-- ResourceListComponent  -->
<g id="node29" class="node">
<title>ResourceListComponent </title>
<polygon fill="#fb8072" stroke="#000000" points="2021.1967,-252 1862.8033,-252 1862.8033,-216 2021.1967,-216 2021.1967,-252"/>
<text text-anchor="middle" x="1942" y="-229.8" font-family="Times,serif" font-size="14.00" fill="#000000">ResourceListComponent </text>
</g>
<!-- DataModule&#45;&gt;ResourceListComponent  -->
<g id="edge28" class="edge">
<title>DataModule&#45;&gt;ResourceListComponent </title>
<path fill="none" stroke="#000000" stroke-dasharray="5,2" d="M1804.0707,-186C1833.3877,-186 1866.8929,-186 1866.8929,-186 1866.8929,-186 1866.8929,-205.8533 1866.8929,-205.8533"/>
<polygon fill="#000000" stroke="#000000" points="1863.3929,-205.8532 1866.8929,-215.8533 1870.3929,-205.8533 1863.3929,-205.8532"/>
</g>
<!-- ResourceFormComponent  -->
<g id="node30" class="node">
<title>ResourceFormComponent </title>
<polygon fill="#fb8072" stroke="#000000" points="1844.752,-252 1677.248,-252 1677.248,-216 1844.752,-216 1844.752,-252"/>
<text text-anchor="middle" x="1761" y="-229.8" font-family="Times,serif" font-size="14.00" fill="#000000">ResourceFormComponent </text>
</g>
<!-- DataModule&#45;&gt;ResourceFormComponent  -->
<g id="edge29" class="edge">
<title>DataModule&#45;&gt;ResourceFormComponent </title>
<path fill="none" stroke="#000000" stroke-dasharray="5,2" d="M1761,-187.1061C1761,-187.1061 1761,-205.991 1761,-205.991"/>
<polygon fill="#000000" stroke="#000000" points="1757.5001,-205.9909 1761,-215.991 1764.5001,-205.991 1757.5001,-205.9909"/>
</g>
<!-- ResourcePopComponent  -->
<g id="node31" class="node">
<title>ResourcePopComponent </title>
<polygon fill="#fb8072" stroke="#000000" points="1659.2009,-252 1500.7991,-252 1500.7991,-216 1659.2009,-216 1659.2009,-252"/>
<text text-anchor="middle" x="1580" y="-229.8" font-family="Times,serif" font-size="14.00" fill="#000000">ResourcePopComponent </text>
</g>
<!-- DataModule&#45;&gt;ResourcePopComponent  -->
<g id="edge30" class="edge">
<title>DataModule&#45;&gt;ResourcePopComponent </title>
<path fill="none" stroke="#000000" stroke-dasharray="5,2" d="M1717.886,-186C1688.5394,-186 1655.0006,-186 1655.0006,-186 1655.0006,-186 1655.0006,-205.8533 1655.0006,-205.8533"/>
<polygon fill="#000000" stroke="#000000" points="1651.5006,-205.8532 1655.0006,-215.8533 1658.5006,-205.8533 1651.5006,-205.8532"/>
</g>
<!-- ResourceCrudComponent  -->
<g id="node32" class="node">
<title>ResourceCrudComponent </title>
<polygon fill="#fb8072" stroke="#000000" points="1482.4152,-252 1317.5848,-252 1317.5848,-216 1482.4152,-216 1482.4152,-252"/>
<text text-anchor="middle" x="1400" y="-229.8" font-family="Times,serif" font-size="14.00" fill="#000000">ResourceCrudComponent </text>
</g>
<!-- DataModule&#45;&gt;ResourceCrudComponent  -->
<g id="edge31" class="edge">
<title>DataModule&#45;&gt;ResourceCrudComponent </title>
<path fill="none" stroke="#000000" stroke-dasharray="5,2" d="M1717.7342,-184C1636.6437,-184 1469.9034,-184 1469.9034,-184 1469.9034,-184 1469.9034,-205.9489 1469.9034,-205.9489"/>
<polygon fill="#000000" stroke="#000000" points="1466.4035,-205.9488 1469.9034,-215.9489 1473.4035,-205.9489 1466.4035,-205.9488"/>
</g>
<!-- ResourceDeletePopComponent  -->
<g id="node33" class="node">
<title>ResourceDeletePopComponent </title>
<polygon fill="#fb8072" stroke="#000000" points="1299.7323,-252 1104.2677,-252 1104.2677,-216 1299.7323,-216 1299.7323,-252"/>
<text text-anchor="middle" x="1202" y="-229.8" font-family="Times,serif" font-size="14.00" fill="#000000">ResourceDeletePopComponent </text>
</g>
<!-- DataModule&#45;&gt;ResourceDeletePopComponent  -->
<g id="edge32" class="edge">
<title>DataModule&#45;&gt;ResourceDeletePopComponent </title>
<path fill="none" stroke="#000000" stroke-dasharray="5,2" d="M1717.8095,-182C1599.524,-182 1279.0893,-182 1279.0893,-182 1279.0893,-182 1279.0893,-205.8129 1279.0893,-205.8129"/>
<polygon fill="#000000" stroke="#000000" points="1275.5893,-205.8129 1279.0893,-215.8129 1282.5893,-205.813 1275.5893,-205.8129"/>
</g>
<!-- ResourceSelectComponent  -->
<g id="node34" class="node">
<title>ResourceSelectComponent </title>
<polygon fill="#fb8072" stroke="#000000" points="1086.6256,-252 915.3744,-252 915.3744,-216 1086.6256,-216 1086.6256,-252"/>
<text text-anchor="middle" x="1001" y="-229.8" font-family="Times,serif" font-size="14.00" fill="#000000">ResourceSelectComponent </text>
</g>
<!-- DataModule&#45;&gt;ResourceSelectComponent  -->
<g id="edge33" class="edge">
<title>DataModule&#45;&gt;ResourceSelectComponent </title>
<path fill="none" stroke="#000000" stroke-dasharray="5,2" d="M1717.8029,-180C1560.3843,-180 1026.6204,-180 1026.6204,-180 1026.6204,-180 1026.6204,-205.7181 1026.6204,-205.7181"/>
<polygon fill="#000000" stroke="#000000" points="1023.1205,-205.718 1026.6204,-215.7181 1030.1205,-205.7181 1023.1205,-205.718"/>
</g>
<!-- UiModule  -->
<g id="node35" class="node">
<title>UiModule </title>
<polygon fill="#fb8072" stroke="#000000" points="897.547,-252 820.453,-252 820.453,-216 897.547,-216 897.547,-252"/>
<text text-anchor="middle" x="859" y="-229.8" font-family="Times,serif" font-size="14.00" fill="#000000">UiModule </text>
</g>
<!-- DataModule&#45;&gt;UiModule  -->
<g id="edge34" class="edge">
<title>DataModule&#45;&gt;UiModule </title>
<path fill="none" stroke="#000000" stroke-dasharray="5,2" d="M1717.7778,-178C1541.1336,-178 883.375,-178 883.375,-178 883.375,-178 883.375,-205.973 883.375,-205.973"/>
<polygon fill="#000000" stroke="#000000" points="879.8751,-205.973 883.375,-215.973 886.8751,-205.973 879.8751,-205.973"/>
</g>
<!-- SdkModule  -->
<g id="node36" class="node">
<title>SdkModule </title>
<polygon fill="#fb8072" stroke="#000000" points="802.3326,-252 717.6674,-252 717.6674,-216 802.3326,-216 802.3326,-252"/>
<text text-anchor="middle" x="760" y="-229.8" font-family="Times,serif" font-size="14.00" fill="#000000">SdkModule </text>
</g>
<!-- DataModule&#45;&gt;SdkModule  -->
<g id="edge35" class="edge">
<title>DataModule&#45;&gt;SdkModule </title>
<path fill="none" stroke="#000000" stroke-dasharray="5,2" d="M1717.864,-177C1529.2447,-177 786.375,-177 786.375,-177 786.375,-177 786.375,-205.9648 786.375,-205.9648"/>
<polygon fill="#000000" stroke="#000000" points="782.8751,-205.9648 786.375,-215.9648 789.8751,-205.9649 782.8751,-205.9648"/>
</g>
<!-- FilesModule  -->
<g id="node37" class="node">
<title>FilesModule </title>
<polygon fill="#fb8072" stroke="#000000" points="699.2732,-252 608.7268,-252 608.7268,-216 699.2732,-216 699.2732,-252"/>
<text text-anchor="middle" x="654" y="-229.8" font-family="Times,serif" font-size="14.00" fill="#000000">FilesModule </text>
</g>
<!-- DataModule&#45;&gt;FilesModule  -->
<g id="edge36" class="edge">
<title>DataModule&#45;&gt;FilesModule </title>
<path fill="none" stroke="#000000" stroke-dasharray="5,2" d="M1717.7164,-175C1516.5132,-175 682.375,-175 682.375,-175 682.375,-175 682.375,-205.9775 682.375,-205.9775"/>
<polygon fill="#000000" stroke="#000000" points="678.8751,-205.9774 682.375,-215.9775 685.8751,-205.9775 678.8751,-205.9774"/>
</g>
<!-- AuthModule  -->
<g id="node38" class="node">
<title>AuthModule </title>
<polygon fill="#fb8072" stroke="#000000" points="590.547,-252 499.453,-252 499.453,-216 590.547,-216 590.547,-252"/>
<text text-anchor="middle" x="545" y="-229.8" font-family="Times,serif" font-size="14.00" fill="#000000">AuthModule </text>
</g>
<!-- DataModule&#45;&gt;AuthModule  -->
<g id="edge37" class="edge">
<title>DataModule&#45;&gt;AuthModule </title>
<path fill="none" stroke="#000000" stroke-dasharray="5,2" d="M1717.7504,-173C1504.5191,-173 575.375,-173 575.375,-173 575.375,-173 575.375,-205.698 575.375,-205.698"/>
<polygon fill="#000000" stroke="#000000" points="571.8751,-205.698 575.375,-215.698 578.8751,-205.698 571.8751,-205.698"/>
</g>
<!-- UiModule -->
<g id="node18" class="node">
<title>UiModule</title>
<polygon fill="#8dd3c7" stroke="#000000" points="942.5484,-122 939.5484,-126 918.5484,-126 915.5484,-122 869.4516,-122 869.4516,-86 942.5484,-86 942.5484,-122"/>
<text text-anchor="middle" x="906" y="-99.8" font-family="Times,serif" font-size="14.00" fill="#000000">UiModule</text>
</g>
<!-- UiModule&#45;&gt;DataModule -->
<g id="edge17" class="edge">
<title>UiModule&#45;&gt;DataModule</title>
<path fill="none" stroke="#000000" d="M929.1054,-122.027C929.1054,-138.3976 929.1054,-160 929.1054,-160 929.1054,-160 1707.7357,-160 1707.7357,-160"/>
<polygon fill="#000000" stroke="#000000" points="1707.7357,-163.5001 1717.7357,-160 1707.7356,-156.5001 1707.7357,-163.5001"/>
</g>
<!-- SdkModule -->
<g id="node19" class="node">
<title>SdkModule</title>
<polygon fill="#8dd3c7" stroke="#000000" points="851.8331,-122 848.8331,-126 827.8331,-126 824.8331,-122 770.1669,-122 770.1669,-86 851.8331,-86 851.8331,-122"/>
<text text-anchor="middle" x="811" y="-99.8" font-family="Times,serif" font-size="14.00" fill="#000000">SdkModule</text>
</g>
<!-- SdkModule&#45;&gt;DataModule -->
<g id="edge18" class="edge">
<title>SdkModule&#45;&gt;DataModule</title>
<path fill="none" stroke="#000000" d="M836.0713,-122.0336C836.0713,-139.0597 836.0713,-162 836.0713,-162 836.0713,-162 1707.9371,-162 1707.9371,-162"/>
<polygon fill="#000000" stroke="#000000" points="1707.9371,-165.5001 1717.9371,-162 1707.937,-158.5001 1707.9371,-165.5001"/>
</g>
<!-- FilesModule -->
<g id="node20" class="node">
<title>FilesModule</title>
<polygon fill="#8dd3c7" stroke="#000000" points="752.2731,-122 749.2731,-126 728.2731,-126 725.2731,-122 665.7269,-122 665.7269,-86 752.2731,-86 752.2731,-122"/>
<text text-anchor="middle" x="709" y="-99.8" font-family="Times,serif" font-size="14.00" fill="#000000">FilesModule</text>
</g>
<!-- FilesModule&#45;&gt;DataModule -->
<g id="edge19" class="edge">
<title>FilesModule&#45;&gt;DataModule</title>
<path fill="none" stroke="#000000" d="M734.9851,-122.002C734.9851,-139.6754 734.9851,-164 734.9851,-164 734.9851,-164 1707.8948,-164 1707.8948,-164"/>
<polygon fill="#000000" stroke="#000000" points="1707.8948,-167.5001 1717.8948,-164 1707.8947,-160.5001 1707.8948,-167.5001"/>
</g>
<!-- AuthModule -->
<g id="node21" class="node">
<title>AuthModule</title>
<polygon fill="#8dd3c7" stroke="#000000" points="647.5482,-122 644.5482,-126 623.5482,-126 620.5482,-122 560.4518,-122 560.4518,-86 647.5482,-86 647.5482,-122"/>
<text text-anchor="middle" x="604" y="-99.8" font-family="Times,serif" font-size="14.00" fill="#000000">AuthModule</text>
</g>
<!-- AuthModule&#45;&gt;DataModule -->
<g id="edge20" class="edge">
<title>AuthModule&#45;&gt;DataModule</title>
<path fill="none" stroke="#000000" d="M628.3186,-122.2667C628.3186,-140.5552 628.3186,-166 628.3186,-166 628.3186,-166 1707.9807,-166 1707.9807,-166"/>
<polygon fill="#000000" stroke="#000000" points="1707.9807,-169.5001 1717.9807,-166 1707.9806,-162.5001 1707.9807,-169.5001"/>
</g>
<!-- CrudService -->
<g id="node39" class="node">
<title>CrudService</title>
<ellipse fill="#fdb462" stroke="#000000" cx="477" cy="-104" rx="59.1083" ry="18"/>
<text text-anchor="middle" x="477" y="-99.8" font-family="Times,serif" font-size="14.00" fill="#000000">CrudService</text>
</g>
<!-- CrudService&#45;&gt;DataModule -->
<g id="edge38" class="edge">
<title>CrudService&#45;&gt;DataModule</title>
<path fill="none" stroke="#000000" d="M517.8902,-117.2608C517.8902,-136.0068 517.8902,-168 517.8902,-168 517.8902,-168 1707.8483,-168 1707.8483,-168"/>
<polygon fill="#000000" stroke="#000000" points="1707.8484,-171.5001 1717.8483,-168 1707.8483,-164.5001 1707.8484,-171.5001"/>
</g>
<!-- TypeConfigService -->
<g id="node40" class="node">
<title>TypeConfigService</title>
<ellipse fill="#fdb462" stroke="#000000" cx="313" cy="-104" rx="86.8184" ry="18"/>
<text text-anchor="middle" x="313" y="-99.8" font-family="Times,serif" font-size="14.00" fill="#000000">TypeConfigService</text>
</g>
<!-- TypeConfigService&#45;&gt;DataModule -->
<g id="edge39" class="edge">
<title>TypeConfigService&#45;&gt;DataModule</title>
<path fill="none" stroke="#000000" d="M313,-122.1061C313,-141.3391 313,-169 313,-169 313,-169 1707.6642,-169 1707.6642,-169"/>
<polygon fill="#000000" stroke="#000000" points="1707.6643,-172.5001 1717.6642,-169 1707.6642,-165.5001 1707.6643,-172.5001"/>
</g>
<!-- ModelConfigService -->
<g id="node41" class="node">
<title>ModelConfigService</title>
<ellipse fill="#fdb462" stroke="#000000" cx="116" cy="-104" rx="92.0548" ry="18"/>
<text text-anchor="middle" x="116" y="-99.8" font-family="Times,serif" font-size="14.00" fill="#000000">ModelConfigService</text>
</g>
<!-- ModelConfigService&#45;&gt;DataModule -->
<g id="edge40" class="edge">
<title>ModelConfigService&#45;&gt;DataModule</title>
<path fill="none" stroke="#000000" d="M116,-122.308C116,-142.1455 116,-171 116,-171 116,-171 1707.8458,-171 1707.8458,-171"/>
<polygon fill="#000000" stroke="#000000" points="1707.8458,-174.5001 1717.8458,-171 1707.8458,-167.5001 1707.8458,-174.5001"/>
</g>
</g>
</svg>
