<?xml version="1.0" encoding="UTF-8" standalone="no"?>
<!DOCTYPE svg PUBLIC "-//W3C//DTD SVG 1.1//EN"
 "http://www.w3.org/Graphics/SVG/1.1/DTD/svg11.dtd">
<!-- Generated by graphviz version 2.40.1 (20161225.0304)
 -->
<!-- Title: dependencies Pages: 1 -->
<svg width="3100pt" height="284pt"
 viewBox="0.00 0.00 3100.00 284.00" xmlns="http://www.w3.org/2000/svg" xmlns:xlink="http://www.w3.org/1999/xlink">
<g id="graph0" class="graph" transform="scale(1 1) rotate(0) translate(4 280)">
<title>dependencies</title>
<polygon fill="#ffffff" stroke="transparent" points="-4,4 -4,-280 3096,-280 3096,4 -4,4"/>
<text text-anchor="start" x="1525.0091" y="-42.4" font-family="sans-serif" font-weight="bold" font-size="14.00" fill="#000000">Legend</text>
<polygon fill="#ffffb3" stroke="transparent" points="1312,-10 1312,-30 1332,-30 1332,-10 1312,-10"/>
<text text-anchor="start" x="1335.629" y="-15.4" font-family="sans-serif" font-size="14.00" fill="#000000"> &#160;Declarations</text>
<polygon fill="#8dd3c7" stroke="transparent" points="1425,-10 1425,-30 1445,-30 1445,-10 1425,-10"/>
<text text-anchor="start" x="1448.7251" y="-15.4" font-family="sans-serif" font-size="14.00" fill="#000000"> &#160;Module</text>
<polygon fill="#80b1d3" stroke="transparent" points="1511,-10 1511,-30 1531,-30 1531,-10 1511,-10"/>
<text text-anchor="start" x="1534.7812" y="-15.4" font-family="sans-serif" font-size="14.00" fill="#000000"> &#160;Bootstrap</text>
<polygon fill="#fdb462" stroke="transparent" points="1608,-10 1608,-30 1628,-30 1628,-10 1608,-10"/>
<text text-anchor="start" x="1631.6732" y="-15.4" font-family="sans-serif" font-size="14.00" fill="#000000"> &#160;Providers</text>
<polygon fill="#fb8072" stroke="transparent" points="1704,-10 1704,-30 1724,-30 1724,-10 1704,-10"/>
<text text-anchor="start" x="1727.7258" y="-15.4" font-family="sans-serif" font-size="14.00" fill="#000000"> &#160;Exports</text>
<g id="clust1" class="cluster">
<title>cluster_DataModule</title>
<polygon fill="none" stroke="#000000" stroke-dasharray="1,5" points="8,-70 8,-268 3084,-268 3084,-70 8,-70"/>
</g>
<g id="clust2" class="cluster">
<title>cluster_DataModule_declarations</title>
<polygon fill="none" stroke="#000000" points="959,-78 959,-130 3076,-130 3076,-78 959,-78"/>
</g>
<g id="clust16" class="cluster">
<title>cluster_DataModule_imports</title>
<polygon fill="none" stroke="#000000" points="552,-78 552,-130 951,-130 951,-78 552,-78"/>
</g>
<g id="clust17" class="cluster">
<title>cluster_DataModule_exports</title>
<polygon fill="none" stroke="#000000" points="409,-208 409,-260 2569,-260 2569,-208 409,-208"/>
</g>
<g id="clust19" class="cluster">
<title>cluster_DataModule_providers</title>
<polygon fill="none" stroke="#000000" points="16,-78 16,-130 544,-130 544,-78 16,-78"/>
</g>
<!-- EntryListComponent -->
<g id="node1" class="node">
<title>EntryListComponent</title>
<polygon fill="#ffffb3" stroke="#000000" points="3068.2148,-122 2933.7852,-122 2933.7852,-86 3068.2148,-86 3068.2148,-122"/>
<text text-anchor="middle" x="3001" y="-99.8" font-family="Times,serif" font-size="14.00" fill="#000000">EntryListComponent</text>
</g>
<!-- DataModule -->
<g id="node14" class="node">
<title>DataModule</title>
<polygon fill="#8dd3c7" stroke="#000000" points="1500.9762,-187 1497.9762,-191 1476.9762,-191 1473.9762,-187 1415.0238,-187 1415.0238,-151 1500.9762,-151 1500.9762,-187"/>
<text text-anchor="middle" x="1458" y="-164.8" font-family="Times,serif" font-size="14.00" fill="#000000">DataModule</text>
</g>
<!-- EntryListComponent&#45;&gt;DataModule -->
<g id="edge1" class="edge">
<title>EntryListComponent&#45;&gt;DataModule</title>
<path fill="none" stroke="#000000" d="M3001,-122.308C3001,-142.1455 3001,-171 3001,-171 3001,-171 1511.2854,-171 1511.2854,-171"/>
<polygon fill="#000000" stroke="#000000" points="1511.2854,-167.5001 1501.2854,-171 1511.2854,-174.5001 1511.2854,-167.5001"/>
</g>
<!-- EntryDirective -->
<g id="node2" class="node">
<title>EntryDirective</title>
<polygon fill="#ffffb3" stroke="#000000" points="2915.6868,-122 2816.3132,-122 2816.3132,-86 2915.6868,-86 2915.6868,-122"/>
<text text-anchor="middle" x="2866" y="-99.8" font-family="Times,serif" font-size="14.00" fill="#000000">EntryDirective</text>
</g>
<!-- EntryDirective&#45;&gt;DataModule -->
<g id="edge2" class="edge">
<title>EntryDirective&#45;&gt;DataModule</title>
<path fill="none" stroke="#000000" d="M2866,-122.1686C2866,-141.0898 2866,-168 2866,-168 2866,-168 1511.2942,-168 1511.2942,-168"/>
<polygon fill="#000000" stroke="#000000" points="1511.2943,-164.5001 1501.2942,-168 1511.2942,-171.5001 1511.2943,-164.5001"/>
</g>
<!-- EntriesDirective -->
<g id="node3" class="node">
<title>EntriesDirective</title>
<polygon fill="#ffffb3" stroke="#000000" points="2798.7367,-122 2691.2633,-122 2691.2633,-86 2798.7367,-86 2798.7367,-122"/>
<text text-anchor="middle" x="2745" y="-99.8" font-family="Times,serif" font-size="14.00" fill="#000000">EntriesDirective</text>
</g>
<!-- EntriesDirective&#45;&gt;DataModule -->
<g id="edge3" class="edge">
<title>EntriesDirective&#45;&gt;DataModule</title>
<path fill="none" stroke="#000000" d="M2745,-122.2667C2745,-140.5552 2745,-166 2745,-166 2745,-166 1511.1888,-166 1511.1888,-166"/>
<polygon fill="#000000" stroke="#000000" points="1511.1888,-162.5001 1501.1888,-166 1511.1888,-169.5001 1511.1888,-162.5001"/>
</g>
<!-- EntryFormComponent -->
<g id="node4" class="node">
<title>EntryFormComponent</title>
<polygon fill="#ffffb3" stroke="#000000" points="2673.2702,-122 2530.7298,-122 2530.7298,-86 2673.2702,-86 2673.2702,-122"/>
<text text-anchor="middle" x="2602" y="-99.8" font-family="Times,serif" font-size="14.00" fill="#000000">EntryFormComponent</text>
</g>
<!-- EntryFormComponent&#45;&gt;DataModule -->
<g id="edge4" class="edge">
<title>EntryFormComponent&#45;&gt;DataModule</title>
<path fill="none" stroke="#000000" d="M2545.7361,-122.002C2545.7361,-139.6754 2545.7361,-164 2545.7361,-164 2545.7361,-164 1511.3118,-164 1511.3118,-164"/>
<polygon fill="#000000" stroke="#000000" points="1511.3118,-160.5001 1501.3118,-164 1511.3117,-167.5001 1511.3118,-160.5001"/>
</g>
<!-- EntryPopComponent -->
<g id="node5" class="node">
<title>EntryPopComponent</title>
<polygon fill="#ffffb3" stroke="#000000" points="2513.219,-122 2378.781,-122 2378.781,-86 2513.219,-86 2513.219,-122"/>
<text text-anchor="middle" x="2446" y="-99.8" font-family="Times,serif" font-size="14.00" fill="#000000">EntryPopComponent</text>
</g>
<!-- EntryPopComponent&#45;&gt;DataModule -->
<g id="edge5" class="edge">
<title>EntryPopComponent&#45;&gt;DataModule</title>
<path fill="none" stroke="#000000" d="M2392.117,-122.0336C2392.117,-139.0597 2392.117,-162 2392.117,-162 2392.117,-162 1511.181,-162 1511.181,-162"/>
<polygon fill="#000000" stroke="#000000" points="1511.181,-158.5001 1501.181,-162 1511.1809,-165.5001 1511.181,-158.5001"/>
</g>
<!-- ResourceListComponent -->
<g id="node6" class="node">
<title>ResourceListComponent</title>
<polygon fill="#ffffb3" stroke="#000000" points="2360.6965,-122 2205.3035,-122 2205.3035,-86 2360.6965,-86 2360.6965,-122"/>
<text text-anchor="middle" x="2283" y="-99.8" font-family="Times,serif" font-size="14.00" fill="#000000">ResourceListComponent</text>
</g>
<!-- ResourceListComponent&#45;&gt;DataModule -->
<g id="edge6" class="edge">
<title>ResourceListComponent&#45;&gt;DataModule</title>
<path fill="none" stroke="#000000" d="M2245.01,-122.027C2245.01,-138.3976 2245.01,-160 2245.01,-160 2245.01,-160 1511.1526,-160 1511.1526,-160"/>
<polygon fill="#000000" stroke="#000000" points="1511.1527,-156.5001 1501.1526,-160 1511.1526,-163.5001 1511.1527,-156.5001"/>
</g>
<!-- ResourceFormComponent -->
<g id="node7" class="node">
<title>ResourceFormComponent</title>
<polygon fill="#ffffb3" stroke="#000000" points="2187.752,-122 2024.248,-122 2024.248,-86 2187.752,-86 2187.752,-122"/>
<text text-anchor="middle" x="2106" y="-99.8" font-family="Times,serif" font-size="14.00" fill="#000000">ResourceFormComponent</text>
</g>
<!-- ResourceFormComponent&#45;&gt;DataModule -->
<g id="edge7" class="edge">
<title>ResourceFormComponent&#45;&gt;DataModule</title>
<path fill="none" stroke="#000000" d="M2089.6296,-122.2819C2089.6296,-137.9478 2089.6296,-158 2089.6296,-158 2089.6296,-158 1511.4145,-158 1511.4145,-158"/>
<polygon fill="#000000" stroke="#000000" points="1511.4145,-154.5001 1501.4145,-158 1511.4144,-161.5001 1511.4145,-154.5001"/>
</g>
<!-- ResourcePopComponent -->
<g id="node8" class="node">
<title>ResourcePopComponent</title>
<polygon fill="#ffffb3" stroke="#000000" points="2006.7007,-122 1851.2993,-122 1851.2993,-86 2006.7007,-86 2006.7007,-122"/>
<text text-anchor="middle" x="1929" y="-99.8" font-family="Times,serif" font-size="14.00" fill="#000000">ResourcePopComponent</text>
</g>
<!-- ResourcePopComponent&#45;&gt;DataModule -->
<g id="edge8" class="edge">
<title>ResourcePopComponent&#45;&gt;DataModule</title>
<path fill="none" stroke="#000000" d="M1899.0469,-122.1871C1899.0469,-137.1824 1899.0469,-156 1899.0469,-156 1899.0469,-156 1511.0925,-156 1511.0925,-156"/>
<polygon fill="#000000" stroke="#000000" points="1511.0925,-152.5001 1501.0925,-156 1511.0924,-159.5001 1511.0925,-152.5001"/>
</g>
<!-- ResourceCrudComponent -->
<g id="node9" class="node">
<title>ResourceCrudComponent</title>
<polygon fill="#ffffb3" stroke="#000000" points="1833.9157,-122 1672.0843,-122 1672.0843,-86 1833.9157,-86 1833.9157,-122"/>
<text text-anchor="middle" x="1753" y="-99.8" font-family="Times,serif" font-size="14.00" fill="#000000">ResourceCrudComponent</text>
</g>
<!-- ResourceCrudComponent&#45;&gt;DataModule -->
<g id="edge9" class="edge">
<title>ResourceCrudComponent&#45;&gt;DataModule</title>
<path fill="none" stroke="#000000" d="M1688.6822,-122.0511C1688.6822,-136.373 1688.6822,-154 1688.6822,-154 1688.6822,-154 1511.1189,-154 1511.1189,-154"/>
<polygon fill="#000000" stroke="#000000" points="1511.119,-150.5001 1501.1189,-154 1511.1189,-157.5001 1511.119,-150.5001"/>
</g>
<!-- DefaultEntryInputComponent -->
<g id="node10" class="node">
<title>DefaultEntryInputComponent</title>
<polygon fill="#ffffb3" stroke="#000000" points="1653.965,-122 1470.035,-122 1470.035,-86 1653.965,-86 1653.965,-122"/>
<text text-anchor="middle" x="1562" y="-99.8" font-family="Times,serif" font-size="14.00" fill="#000000">DefaultEntryInputComponent</text>
</g>
<!-- DefaultEntryInputComponent&#45;&gt;DataModule -->
<g id="edge10" class="edge">
<title>DefaultEntryInputComponent&#45;&gt;DataModule</title>
<path fill="none" stroke="#000000" d="M1485.5028,-122.1061C1485.5028,-122.1061 1485.5028,-140.991 1485.5028,-140.991"/>
<polygon fill="#000000" stroke="#000000" points="1482.0029,-140.9909 1485.5028,-150.991 1489.0029,-140.991 1482.0029,-140.9909"/>
</g>
<!-- DefaultEntryOutputComponent -->
<g id="node11" class="node">
<title>DefaultEntryOutputComponent</title>
<polygon fill="#ffffb3" stroke="#000000" points="1451.8018,-122 1258.1982,-122 1258.1982,-86 1451.8018,-86 1451.8018,-122"/>
<text text-anchor="middle" x="1355" y="-99.8" font-family="Times,serif" font-size="14.00" fill="#000000">DefaultEntryOutputComponent</text>
</g>
<!-- DefaultEntryOutputComponent&#45;&gt;DataModule -->
<g id="edge11" class="edge">
<title>DefaultEntryOutputComponent&#45;&gt;DataModule</title>
<path fill="none" stroke="#000000" d="M1433.3314,-122.1061C1433.3314,-122.1061 1433.3314,-140.991 1433.3314,-140.991"/>
<polygon fill="#000000" stroke="#000000" points="1429.8314,-140.9909 1433.3314,-150.991 1436.8314,-140.991 1429.8314,-140.9909"/>
</g>
<!-- CrudComponent -->
<g id="node12" class="node">
<title>CrudComponent</title>
<polygon fill="#ffffb3" stroke="#000000" points="1240.8301,-122 1131.1699,-122 1131.1699,-86 1240.8301,-86 1240.8301,-122"/>
<text text-anchor="middle" x="1186" y="-99.8" font-family="Times,serif" font-size="14.00" fill="#000000">CrudComponent</text>
</g>
<!-- CrudComponent&#45;&gt;DataModule -->
<g id="edge12" class="edge">
<title>CrudComponent&#45;&gt;DataModule</title>
<path fill="none" stroke="#000000" d="M1217.0195,-122.0511C1217.0195,-136.373 1217.0195,-154 1217.0195,-154 1217.0195,-154 1404.9175,-154 1404.9175,-154"/>
<polygon fill="#000000" stroke="#000000" points="1404.9175,-157.5001 1414.9175,-154 1404.9175,-150.5001 1404.9175,-157.5001"/>
</g>
<!-- EntrySelectComponent -->
<g id="node13" class="node">
<title>EntrySelectComponent</title>
<polygon fill="#ffffb3" stroke="#000000" points="1113.1442,-122 966.8558,-122 966.8558,-86 1113.1442,-86 1113.1442,-122"/>
<text text-anchor="middle" x="1040" y="-99.8" font-family="Times,serif" font-size="14.00" fill="#000000">EntrySelectComponent</text>
</g>
<!-- EntrySelectComponent&#45;&gt;DataModule -->
<g id="edge13" class="edge">
<title>EntrySelectComponent&#45;&gt;DataModule</title>
<path fill="none" stroke="#000000" d="M1064.9858,-122.1871C1064.9858,-137.1824 1064.9858,-156 1064.9858,-156 1064.9858,-156 1404.8164,-156 1404.8164,-156"/>
<polygon fill="#000000" stroke="#000000" points="1404.8164,-159.5001 1414.8164,-156 1404.8163,-152.5001 1404.8164,-159.5001"/>
</g>
<!-- EntryListComponent  -->
<g id="node19" class="node">
<title>EntryListComponent </title>
<polygon fill="#fb8072" stroke="#000000" points="2560.7149,-252 2423.2851,-252 2423.2851,-216 2560.7149,-216 2560.7149,-252"/>
<text text-anchor="middle" x="2492" y="-229.8" font-family="Times,serif" font-size="14.00" fill="#000000">EntryListComponent </text>
</g>
<!-- DataModule&#45;&gt;EntryListComponent  -->
<g id="edge18" class="edge">
<title>DataModule&#45;&gt;EntryListComponent </title>
<path fill="none" stroke="#000000" stroke-dasharray="5,2" d="M1501.0807,-173C1693.8849,-173 2468.1261,-173 2468.1261,-173 2468.1261,-173 2468.1261,-205.698 2468.1261,-205.698"/>
<polygon fill="#000000" stroke="#000000" points="2464.6261,-205.698 2468.1261,-215.698 2471.6261,-205.698 2464.6261,-205.698"/>
</g>
<!-- EntryDirective  -->
<g id="node20" class="node">
<title>EntryDirective </title>
<polygon fill="#fb8072" stroke="#000000" points="2405.1871,-252 2302.8129,-252 2302.8129,-216 2405.1871,-216 2405.1871,-252"/>
<text text-anchor="middle" x="2354" y="-229.8" font-family="Times,serif" font-size="14.00" fill="#000000">EntryDirective </text>
</g>
<!-- DataModule&#45;&gt;EntryDirective  -->
<g id="edge19" class="edge">
<title>DataModule&#45;&gt;EntryDirective </title>
<path fill="none" stroke="#000000" stroke-dasharray="5,2" d="M1501.0253,-175C1676.8649,-175 2331.6275,-175 2331.6275,-175 2331.6275,-175 2331.6275,-205.9775 2331.6275,-205.9775"/>
<polygon fill="#000000" stroke="#000000" points="2328.1275,-205.9774 2331.6275,-215.9775 2335.1275,-205.9775 2328.1275,-205.9774"/>
</g>
<!-- EntriesDirective  -->
<g id="node21" class="node">
<title>EntriesDirective </title>
<polygon fill="#fb8072" stroke="#000000" points="2284.7367,-252 2173.2633,-252 2173.2633,-216 2284.7367,-216 2284.7367,-252"/>
<text text-anchor="middle" x="2229" y="-229.8" font-family="Times,serif" font-size="14.00" fill="#000000">EntriesDirective </text>
</g>
<!-- DataModule&#45;&gt;EntriesDirective  -->
<g id="edge20" class="edge">
<title>DataModule&#45;&gt;EntriesDirective </title>
<path fill="none" stroke="#000000" stroke-dasharray="5,2" d="M1501.0396,-177C1656.6083,-177 2180.6289,-177 2180.6289,-177 2180.6289,-177 2180.6289,-205.9648 2180.6289,-205.9648"/>
<polygon fill="#000000" stroke="#000000" points="2177.1289,-205.9648 2180.6289,-215.9648 2184.1289,-205.9649 2177.1289,-205.9648"/>
</g>
<!-- EntryFormComponent  -->
<g id="node22" class="node">
<title>EntryFormComponent </title>
<polygon fill="#fb8072" stroke="#000000" points="2155.2702,-252 2008.7298,-252 2008.7298,-216 2155.2702,-216 2155.2702,-252"/>
<text text-anchor="middle" x="2082" y="-229.8" font-family="Times,serif" font-size="14.00" fill="#000000">EntryFormComponent </text>
</g>
<!-- DataModule&#45;&gt;EntryFormComponent  -->
<g id="edge21" class="edge">
<title>DataModule&#45;&gt;EntryFormComponent </title>
<path fill="none" stroke="#000000" stroke-dasharray="5,2" d="M1501.3594,-179C1632.5801,-179 2016.4946,-179 2016.4946,-179 2016.4946,-179 2016.4946,-205.9909 2016.4946,-205.9909"/>
<polygon fill="#000000" stroke="#000000" points="2012.9946,-205.9909 2016.4946,-215.9909 2019.9946,-205.991 2012.9946,-205.9909"/>
</g>
<!-- EntryPopComponent  -->
<g id="node23" class="node">
<title>EntryPopComponent </title>
<polygon fill="#fb8072" stroke="#000000" points="1990.7191,-252 1853.2809,-252 1853.2809,-216 1990.7191,-216 1990.7191,-252"/>
<text text-anchor="middle" x="1922" y="-229.8" font-family="Times,serif" font-size="14.00" fill="#000000">EntryPopComponent </text>
</g>
<!-- DataModule&#45;&gt;EntryPopComponent  -->
<g id="edge22" class="edge">
<title>DataModule&#45;&gt;EntryPopComponent </title>
<path fill="none" stroke="#000000" stroke-dasharray="5,2" d="M1501.2138,-181C1620.3895,-181 1944.9531,-181 1944.9531,-181 1944.9531,-181 1944.9531,-205.7604 1944.9531,-205.7604"/>
<polygon fill="#000000" stroke="#000000" points="1941.4532,-205.7604 1944.9531,-215.7604 1948.4532,-205.7604 1941.4532,-205.7604"/>
</g>
<!-- CrudComponent  -->
<g id="node24" class="node">
<title>CrudComponent </title>
<polygon fill="#fb8072" stroke="#000000" points="1835.3297,-252 1722.6703,-252 1722.6703,-216 1835.3297,-216 1835.3297,-252"/>
<text text-anchor="middle" x="1779" y="-229.8" font-family="Times,serif" font-size="14.00" fill="#000000">CrudComponent </text>
</g>
<!-- DataModule&#45;&gt;CrudComponent  -->
<g id="edge23" class="edge">
<title>DataModule&#45;&gt;CrudComponent </title>
<path fill="none" stroke="#000000" stroke-dasharray="5,2" d="M1501.1764,-183C1588.5626,-183 1778.1464,-183 1778.1464,-183 1778.1464,-183 1778.1464,-205.8757 1778.1464,-205.8757"/>
<polygon fill="#000000" stroke="#000000" points="1774.6465,-205.8757 1778.1464,-215.8757 1781.6465,-205.8757 1774.6465,-205.8757"/>
</g>
<!-- EntrySelectComponent  -->
<g id="node25" class="node">
<title>EntrySelectComponent </title>
<polygon fill="#fb8072" stroke="#000000" points="1705.1439,-252 1554.8561,-252 1554.8561,-216 1705.1439,-216 1705.1439,-252"/>
<text text-anchor="middle" x="1630" y="-229.8" font-family="Times,serif" font-size="14.00" fill="#000000">EntrySelectComponent </text>
</g>
<!-- DataModule&#45;&gt;EntrySelectComponent  -->
<g id="edge24" class="edge">
<title>DataModule&#45;&gt;EntrySelectComponent </title>
<path fill="none" stroke="#000000" stroke-dasharray="5,2" d="M1501.1493,-185C1544.35,-185 1604.4553,-185 1604.4553,-185 1604.4553,-185 1604.4553,-205.7542 1604.4553,-205.7542"/>
<polygon fill="#000000" stroke="#000000" points="1600.9554,-205.7542 1604.4553,-215.7542 1607.9554,-205.7542 1600.9554,-205.7542"/>
</g>
<!-- ResourceListComponent  -->
<g id="node26" class="node">
<title>ResourceListComponent </title>
<polygon fill="#fb8072" stroke="#000000" points="1537.1967,-252 1378.8033,-252 1378.8033,-216 1537.1967,-216 1537.1967,-252"/>
<text text-anchor="middle" x="1458" y="-229.8" font-family="Times,serif" font-size="14.00" fill="#000000">ResourceListComponent </text>
</g>
<!-- DataModule&#45;&gt;ResourceListComponent  -->
<g id="edge25" class="edge">
<title>DataModule&#45;&gt;ResourceListComponent </title>
<path fill="none" stroke="#000000" stroke-dasharray="5,2" d="M1458,-187.1061C1458,-187.1061 1458,-205.991 1458,-205.991"/>
<polygon fill="#000000" stroke="#000000" points="1454.5001,-205.9909 1458,-215.991 1461.5001,-205.991 1454.5001,-205.9909"/>
</g>
<!-- ResourceFormComponent  -->
<g id="node27" class="node">
<title>ResourceFormComponent </title>
<polygon fill="#fb8072" stroke="#000000" points="1360.752,-252 1193.248,-252 1193.248,-216 1360.752,-216 1360.752,-252"/>
<text text-anchor="middle" x="1277" y="-229.8" font-family="Times,serif" font-size="14.00" fill="#000000">ResourceFormComponent </text>
</g>
<!-- DataModule&#45;&gt;ResourceFormComponent  -->
<g id="edge26" class="edge">
<title>DataModule&#45;&gt;ResourceFormComponent </title>
<path fill="none" stroke="#000000" stroke-dasharray="5,2" d="M1414.6448,-185C1370.8093,-185 1309.4876,-185 1309.4876,-185 1309.4876,-185 1309.4876,-205.7542 1309.4876,-205.7542"/>
<polygon fill="#000000" stroke="#000000" points="1305.9876,-205.7542 1309.4876,-215.7542 1312.9876,-205.7542 1305.9876,-205.7542"/>
</g>
<!-- ResourcePopComponent  -->
<g id="node28" class="node">
<title>ResourcePopComponent </title>
<polygon fill="#fb8072" stroke="#000000" points="1175.2009,-252 1016.7991,-252 1016.7991,-216 1175.2009,-216 1175.2009,-252"/>
<text text-anchor="middle" x="1096" y="-229.8" font-family="Times,serif" font-size="14.00" fill="#000000">ResourcePopComponent </text>
</g>
<!-- DataModule&#45;&gt;ResourcePopComponent  -->
<g id="edge27" class="edge">
<title>DataModule&#45;&gt;ResourcePopComponent </title>
<path fill="none" stroke="#000000" stroke-dasharray="5,2" d="M1414.9962,-183C1331.0173,-183 1153.3428,-183 1153.3428,-183 1153.3428,-183 1153.3428,-205.8757 1153.3428,-205.8757"/>
<polygon fill="#000000" stroke="#000000" points="1149.8428,-205.8757 1153.3428,-215.8757 1156.8428,-205.8757 1149.8428,-205.8757"/>
</g>
<!-- ResourceCrudComponent  -->
<g id="node29" class="node">
<title>ResourceCrudComponent </title>
<polygon fill="#fb8072" stroke="#000000" points="998.4152,-252 833.5848,-252 833.5848,-216 998.4152,-216 998.4152,-252"/>
<text text-anchor="middle" x="916" y="-229.8" font-family="Times,serif" font-size="14.00" fill="#000000">ResourceCrudComponent </text>
</g>
<!-- DataModule&#45;&gt;ResourceCrudComponent  -->
<g id="edge28" class="edge">
<title>DataModule&#45;&gt;ResourceCrudComponent </title>
<path fill="none" stroke="#000000" stroke-dasharray="5,2" d="M1414.97,-181C1297.9381,-181 982.5679,-181 982.5679,-181 982.5679,-181 982.5679,-205.7604 982.5679,-205.7604"/>
<polygon fill="#000000" stroke="#000000" points="979.0679,-205.7604 982.5679,-215.7604 986.0679,-205.7604 979.0679,-205.7604"/>
</g>
<!-- UiModule  -->
<g id="node30" class="node">
<title>UiModule </title>
<polygon fill="#fb8072" stroke="#000000" points="815.547,-252 738.453,-252 738.453,-216 815.547,-216 815.547,-252"/>
<text text-anchor="middle" x="777" y="-229.8" font-family="Times,serif" font-size="14.00" fill="#000000">UiModule </text>
</g>
<!-- DataModule&#45;&gt;UiModule  -->
<g id="edge29" class="edge">
<title>DataModule&#45;&gt;UiModule </title>
<path fill="none" stroke="#000000" stroke-dasharray="5,2" d="M1414.8753,-179C1267.4989,-179 792.9287,-179 792.9287,-179 792.9287,-179 792.9287,-205.9909 792.9287,-205.9909"/>
<polygon fill="#000000" stroke="#000000" points="789.4287,-205.9909 792.9287,-215.9909 796.4287,-205.991 789.4287,-205.9909"/>
</g>
<!-- SdkModule  -->
<g id="node31" class="node">
<title>SdkModule </title>
<polygon fill="#fb8072" stroke="#000000" points="720.3326,-252 635.6674,-252 635.6674,-216 720.3326,-216 720.3326,-252"/>
<text text-anchor="middle" x="678" y="-229.8" font-family="Times,serif" font-size="14.00" fill="#000000">SdkModule </text>
</g>
<!-- DataModule&#45;&gt;SdkModule  -->
<g id="edge30" class="edge">
<title>DataModule&#45;&gt;SdkModule </title>
<path fill="none" stroke="#000000" stroke-dasharray="5,2" d="M1414.956,-177C1253.4907,-177 693.0149,-177 693.0149,-177 693.0149,-177 693.0149,-205.9648 693.0149,-205.9648"/>
<polygon fill="#000000" stroke="#000000" points="689.515,-205.9648 693.0149,-215.9648 696.515,-205.9649 689.515,-205.9648"/>
</g>
<!-- FilesModule  -->
<g id="node32" class="node">
<title>FilesModule </title>
<polygon fill="#fb8072" stroke="#000000" points="617.2732,-252 526.7268,-252 526.7268,-216 617.2732,-216 617.2732,-252"/>
<text text-anchor="middle" x="572" y="-229.8" font-family="Times,serif" font-size="14.00" fill="#000000">FilesModule </text>
</g>
<!-- DataModule&#45;&gt;FilesModule  -->
<g id="edge31" class="edge">
<title>DataModule&#45;&gt;FilesModule </title>
<path fill="none" stroke="#000000" stroke-dasharray="5,2" d="M1414.8904,-175C1239.4799,-175 588.6815,-175 588.6815,-175 588.6815,-175 588.6815,-205.9775 588.6815,-205.9775"/>
<polygon fill="#000000" stroke="#000000" points="585.1815,-205.9774 588.6815,-215.9775 592.1815,-205.9775 585.1815,-205.9774"/>
</g>
<!-- AuthModule  -->
<g id="node33" class="node">
<title>AuthModule </title>
<polygon fill="#fb8072" stroke="#000000" points="508.547,-252 417.453,-252 417.453,-216 508.547,-216 508.547,-252"/>
<text text-anchor="middle" x="463" y="-229.8" font-family="Times,serif" font-size="14.00" fill="#000000">AuthModule </text>
</g>
<!-- DataModule&#45;&gt;AuthModule  -->
<g id="edge32" class="edge">
<title>DataModule&#45;&gt;AuthModule </title>
<path fill="none" stroke="#000000" stroke-dasharray="5,2" d="M1414.9315,-173C1223.9727,-173 463.1098,-173 463.1098,-173 463.1098,-173 463.1098,-205.698 463.1098,-205.698"/>
<polygon fill="#000000" stroke="#000000" points="459.6097,-205.698 463.1098,-215.698 466.6097,-205.698 459.6097,-205.698"/>
</g>
<!-- UiModule -->
<g id="node15" class="node">
<title>UiModule</title>
<polygon fill="#8dd3c7" stroke="#000000" points="942.5484,-122 939.5484,-126 918.5484,-126 915.5484,-122 869.4516,-122 869.4516,-86 942.5484,-86 942.5484,-122"/>
<text text-anchor="middle" x="906" y="-99.8" font-family="Times,serif" font-size="14.00" fill="#000000">UiModule</text>
</g>
<!-- UiModule&#45;&gt;DataModule -->
<g id="edge14" class="edge">
<title>UiModule&#45;&gt;DataModule</title>
<path fill="none" stroke="#000000" d="M906,-122.2819C906,-137.9478 906,-158 906,-158 906,-158 1404.6855,-158 1404.6855,-158"/>
<polygon fill="#000000" stroke="#000000" points="1404.6855,-161.5001 1414.6855,-158 1404.6855,-154.5001 1404.6855,-161.5001"/>
</g>
<!-- SdkModule -->
<g id="node16" class="node">
<title>SdkModule</title>
<polygon fill="#8dd3c7" stroke="#000000" points="851.8331,-122 848.8331,-126 827.8331,-126 824.8331,-122 770.1669,-122 770.1669,-86 851.8331,-86 851.8331,-122"/>
<text text-anchor="middle" x="811" y="-99.8" font-family="Times,serif" font-size="14.00" fill="#000000">SdkModule</text>
</g>
<!-- SdkModule&#45;&gt;DataModule -->
<g id="edge15" class="edge">
<title>SdkModule&#45;&gt;DataModule</title>
<path fill="none" stroke="#000000" d="M842.6043,-122.027C842.6043,-138.3976 842.6043,-160 842.6043,-160 842.6043,-160 1404.7266,-160 1404.7266,-160"/>
<polygon fill="#000000" stroke="#000000" points="1404.7266,-163.5001 1414.7266,-160 1404.7265,-156.5001 1404.7266,-163.5001"/>
</g>
<!-- FilesModule -->
<g id="node17" class="node">
<title>FilesModule</title>
<polygon fill="#8dd3c7" stroke="#000000" points="752.2731,-122 749.2731,-126 728.2731,-126 725.2731,-122 665.7269,-122 665.7269,-86 752.2731,-86 752.2731,-122"/>
<text text-anchor="middle" x="709" y="-99.8" font-family="Times,serif" font-size="14.00" fill="#000000">FilesModule</text>
</g>
<!-- FilesModule&#45;&gt;DataModule -->
<g id="edge16" class="edge">
<title>FilesModule&#45;&gt;DataModule</title>
<path fill="none" stroke="#000000" d="M745.4315,-122.0336C745.4315,-139.0597 745.4315,-162 745.4315,-162 745.4315,-162 1404.7647,-162 1404.7647,-162"/>
<polygon fill="#000000" stroke="#000000" points="1404.7647,-165.5001 1414.7647,-162 1404.7646,-158.5001 1404.7647,-165.5001"/>
</g>
<!-- AuthModule -->
<g id="node18" class="node">
<title>AuthModule</title>
<polygon fill="#8dd3c7" stroke="#000000" points="647.5482,-122 644.5482,-126 623.5482,-126 620.5482,-122 560.4518,-122 560.4518,-86 647.5482,-86 647.5482,-122"/>
<text text-anchor="middle" x="604" y="-99.8" font-family="Times,serif" font-size="14.00" fill="#000000">AuthModule</text>
</g>
<!-- AuthModule&#45;&gt;DataModule -->
<g id="edge17" class="edge">
<title>AuthModule&#45;&gt;DataModule</title>
<path fill="none" stroke="#000000" d="M641.6787,-122.002C641.6787,-139.6754 641.6787,-164 641.6787,-164 641.6787,-164 1404.9743,-164 1404.9743,-164"/>
<polygon fill="#000000" stroke="#000000" points="1404.9743,-167.5001 1414.9743,-164 1404.9743,-160.5001 1404.9743,-167.5001"/>
</g>
<!-- CrudService -->
<g id="node34" class="node">
<title>CrudService</title>
<ellipse fill="#fdb462" stroke="#000000" cx="477" cy="-104" rx="59.1083" ry="18"/>
<text text-anchor="middle" x="477" y="-99.8" font-family="Times,serif" font-size="14.00" fill="#000000">CrudService</text>
</g>
<!-- CrudService&#45;&gt;DataModule -->
<g id="edge33" class="edge">
<title>CrudService&#45;&gt;DataModule</title>
<path fill="none" stroke="#000000" d="M531.5837,-111.1122C531.5837,-127.3976 531.5837,-166 531.5837,-166 531.5837,-166 1404.8678,-166 1404.8678,-166"/>
<polygon fill="#000000" stroke="#000000" points="1404.8678,-169.5001 1414.8678,-166 1404.8678,-162.5001 1404.8678,-169.5001"/>
</g>
<!-- TypeConfigService -->
<g id="node35" class="node">
<title>TypeConfigService</title>
<ellipse fill="#fdb462" stroke="#000000" cx="313" cy="-104" rx="86.8184" ry="18"/>
<text text-anchor="middle" x="313" y="-99.8" font-family="Times,serif" font-size="14.00" fill="#000000">TypeConfigService</text>
</g>
<!-- TypeConfigService&#45;&gt;DataModule -->
<g id="edge34" class="edge">
<title>TypeConfigService&#45;&gt;DataModule</title>
<path fill="none" stroke="#000000" d="M313,-122.1686C313,-141.0898 313,-168 313,-168 313,-168 1404.8592,-168 1404.8592,-168"/>
<polygon fill="#000000" stroke="#000000" points="1404.8593,-171.5001 1414.8592,-168 1404.8592,-164.5001 1404.8593,-171.5001"/>
</g>
<!-- ModelConfigService -->
<g id="node36" class="node">
<title>ModelConfigService</title>
<ellipse fill="#fdb462" stroke="#000000" cx="116" cy="-104" rx="92.0548" ry="18"/>
<text text-anchor="middle" x="116" y="-99.8" font-family="Times,serif" font-size="14.00" fill="#000000">ModelConfigService</text>
</g>
<!-- ModelConfigService&#45;&gt;DataModule -->
<g id="edge35" class="edge">
<title>ModelConfigService&#45;&gt;DataModule</title>
<path fill="none" stroke="#000000" d="M116,-122.308C116,-142.1455 116,-171 116,-171 116,-171 1404.8692,-171 1404.8692,-171"/>
<polygon fill="#000000" stroke="#000000" points="1404.8692,-174.5001 1414.8692,-171 1404.8692,-167.5001 1404.8692,-174.5001"/>
</g>
</g>
</svg>
