<?xml version="1.0" encoding="UTF-8" standalone="no"?>
<!DOCTYPE svg PUBLIC "-//W3C//DTD SVG 1.1//EN"
 "http://www.w3.org/Graphics/SVG/1.1/DTD/svg11.dtd">
<!-- Generated by graphviz version 2.40.1 (20161225.0304)
 -->
<!-- Title: dependencies Pages: 1 -->
<svg width="2823pt" height="284pt"
 viewBox="0.00 0.00 2823.00 284.00" xmlns="http://www.w3.org/2000/svg" xmlns:xlink="http://www.w3.org/1999/xlink">
<g id="graph0" class="graph" transform="scale(1 1) rotate(0) translate(4 280)">
<title>dependencies</title>
<polygon fill="#ffffff" stroke="transparent" points="-4,4 -4,-280 2819,-280 2819,4 -4,4"/>
<text text-anchor="start" x="1386.5091" y="-42.4" font-family="sans-serif" font-weight="bold" font-size="14.00" fill="#000000">Legend</text>
<polygon fill="#ffffb3" stroke="transparent" points="1173.5,-10 1173.5,-30 1193.5,-30 1193.5,-10 1173.5,-10"/>
<text text-anchor="start" x="1197.129" y="-15.4" font-family="sans-serif" font-size="14.00" fill="#000000"> &#160;Declarations</text>
<polygon fill="#8dd3c7" stroke="transparent" points="1286.5,-10 1286.5,-30 1306.5,-30 1306.5,-10 1286.5,-10"/>
<text text-anchor="start" x="1310.2251" y="-15.4" font-family="sans-serif" font-size="14.00" fill="#000000"> &#160;Module</text>
<polygon fill="#80b1d3" stroke="transparent" points="1372.5,-10 1372.5,-30 1392.5,-30 1392.5,-10 1372.5,-10"/>
<text text-anchor="start" x="1396.2812" y="-15.4" font-family="sans-serif" font-size="14.00" fill="#000000"> &#160;Bootstrap</text>
<polygon fill="#fdb462" stroke="transparent" points="1469.5,-10 1469.5,-30 1489.5,-30 1489.5,-10 1469.5,-10"/>
<text text-anchor="start" x="1493.1732" y="-15.4" font-family="sans-serif" font-size="14.00" fill="#000000"> &#160;Providers</text>
<polygon fill="#fb8072" stroke="transparent" points="1565.5,-10 1565.5,-30 1585.5,-30 1585.5,-10 1565.5,-10"/>
<text text-anchor="start" x="1589.2258" y="-15.4" font-family="sans-serif" font-size="14.00" fill="#000000"> &#160;Exports</text>
<g id="clust1" class="cluster">
<title>cluster_DataModule</title>
<polygon fill="none" stroke="#000000" stroke-dasharray="1,5" points="8,-70 8,-268 2807,-268 2807,-70 8,-70"/>
</g>
<g id="clust2" class="cluster">
<title>cluster_DataModule_declarations</title>
<polygon fill="none" stroke="#000000" points="853,-78 853,-130 2799,-130 2799,-78 853,-78"/>
</g>
<g id="clust15" class="cluster">
<title>cluster_DataModule_imports</title>
<polygon fill="none" stroke="#000000" points="552,-78 552,-130 845,-130 845,-78 552,-78"/>
</g>
<g id="clust16" class="cluster">
<title>cluster_DataModule_exports</title>
<polygon fill="none" stroke="#000000" points="421,-208 421,-260 2200,-260 2200,-208 421,-208"/>
</g>
<g id="clust18" class="cluster">
<title>cluster_DataModule_providers</title>
<polygon fill="none" stroke="#000000" points="16,-78 16,-130 544,-130 544,-78 16,-78"/>
</g>
<!-- EntryListComponent -->
<g id="node1" class="node">
<title>EntryListComponent</title>
<polygon fill="#ffffb3" stroke="#000000" points="2791.2148,-122 2656.7852,-122 2656.7852,-86 2791.2148,-86 2791.2148,-122"/>
<text text-anchor="middle" x="2724" y="-99.8" font-family="Times,serif" font-size="14.00" fill="#000000">EntryListComponent</text>
</g>
<!-- DataModule -->
<g id="node13" class="node">
<title>DataModule</title>
<polygon fill="#8dd3c7" stroke="#000000" points="1340.9762,-187 1337.9762,-191 1316.9762,-191 1313.9762,-187 1255.0238,-187 1255.0238,-151 1340.9762,-151 1340.9762,-187"/>
<text text-anchor="middle" x="1298" y="-164.8" font-family="Times,serif" font-size="14.00" fill="#000000">DataModule</text>
</g>
<!-- EntryListComponent&#45;&gt;DataModule -->
<g id="edge1" class="edge">
<title>EntryListComponent&#45;&gt;DataModule</title>
<path fill="none" stroke="#000000" d="M2724,-122.2228C2724,-142.3652 2724,-172 2724,-172 2724,-172 1351.0659,-172 1351.0659,-172"/>
<polygon fill="#000000" stroke="#000000" points="1351.0659,-168.5001 1341.0659,-172 1351.0658,-175.5001 1351.0659,-168.5001"/>
</g>
<!-- EntryComponent -->
<g id="node2" class="node">
<title>EntryComponent</title>
<polygon fill="#ffffb3" stroke="#000000" points="2639.437,-122 2526.563,-122 2526.563,-86 2639.437,-86 2639.437,-122"/>
<text text-anchor="middle" x="2583" y="-99.8" font-family="Times,serif" font-size="14.00" fill="#000000">EntryComponent</text>
</g>
<!-- EntryComponent&#45;&gt;DataModule -->
<g id="edge2" class="edge">
<title>EntryComponent&#45;&gt;DataModule</title>
<path fill="none" stroke="#000000" d="M2583,-122.1061C2583,-141.3391 2583,-169 2583,-169 2583,-169 1351.1217,-169 1351.1217,-169"/>
<polygon fill="#000000" stroke="#000000" points="1351.1217,-165.5001 1341.1217,-169 1351.1217,-172.5001 1351.1217,-165.5001"/>
</g>
<!-- EntriesComponent -->
<g id="node3" class="node">
<title>EntriesComponent</title>
<polygon fill="#ffffb3" stroke="#000000" points="2508.486,-122 2387.514,-122 2387.514,-86 2508.486,-86 2508.486,-122"/>
<text text-anchor="middle" x="2448" y="-99.8" font-family="Times,serif" font-size="14.00" fill="#000000">EntriesComponent</text>
</g>
<!-- EntriesComponent&#45;&gt;DataModule -->
<g id="edge3" class="edge">
<title>EntriesComponent&#45;&gt;DataModule</title>
<path fill="none" stroke="#000000" d="M2448,-122.2222C2448,-140.8285 2448,-167 2448,-167 2448,-167 1350.9825,-167 1350.9825,-167"/>
<polygon fill="#000000" stroke="#000000" points="1350.9825,-163.5001 1340.9825,-167 1350.9825,-170.5001 1350.9825,-163.5001"/>
</g>
<!-- EntryFormComponent -->
<g id="node4" class="node">
<title>EntryFormComponent</title>
<polygon fill="#ffffb3" stroke="#000000" points="2369.2702,-122 2226.7298,-122 2226.7298,-86 2369.2702,-86 2369.2702,-122"/>
<text text-anchor="middle" x="2298" y="-99.8" font-family="Times,serif" font-size="14.00" fill="#000000">EntryFormComponent</text>
</g>
<!-- EntryFormComponent&#45;&gt;DataModule -->
<g id="edge4" class="edge">
<title>EntryFormComponent&#45;&gt;DataModule</title>
<path fill="none" stroke="#000000" d="M2298,-122.002C2298,-139.6754 2298,-164 2298,-164 2298,-164 1351.2897,-164 1351.2897,-164"/>
<polygon fill="#000000" stroke="#000000" points="1351.2898,-160.5001 1341.2897,-164 1351.2897,-167.5001 1351.2898,-160.5001"/>
</g>
<!-- DatamanagerListComponent -->
<g id="node5" class="node">
<title>DatamanagerListComponent</title>
<polygon fill="#ffffb3" stroke="#000000" points="2208.7324,-122 2031.2676,-122 2031.2676,-86 2208.7324,-86 2208.7324,-122"/>
<text text-anchor="middle" x="2120" y="-99.8" font-family="Times,serif" font-size="14.00" fill="#000000">DatamanagerListComponent</text>
</g>
<!-- DatamanagerListComponent&#45;&gt;DataModule -->
<g id="edge5" class="edge">
<title>DatamanagerListComponent&#45;&gt;DataModule</title>
<path fill="none" stroke="#000000" d="M2045.0554,-122.0336C2045.0554,-139.0597 2045.0554,-162 2045.0554,-162 2045.0554,-162 1351.1206,-162 1351.1206,-162"/>
<polygon fill="#000000" stroke="#000000" points="1351.1207,-158.5001 1341.1206,-162 1351.1206,-165.5001 1351.1207,-158.5001"/>
</g>
<!-- ModelListComponent -->
<g id="node6" class="node">
<title>ModelListComponent</title>
<polygon fill="#ffffb3" stroke="#000000" points="2012.661,-122 1873.339,-122 1873.339,-86 2012.661,-86 2012.661,-122"/>
<text text-anchor="middle" x="1943" y="-99.8" font-family="Times,serif" font-size="14.00" fill="#000000">ModelListComponent</text>
</g>
<!-- ModelListComponent&#45;&gt;DataModule -->
<g id="edge6" class="edge">
<title>ModelListComponent&#45;&gt;DataModule</title>
<path fill="none" stroke="#000000" d="M1887.7064,-122.0091C1887.7064,-138.0494 1887.7064,-159 1887.7064,-159 1887.7064,-159 1351.3625,-159 1351.3625,-159"/>
<polygon fill="#000000" stroke="#000000" points="1351.3626,-155.5001 1341.3625,-159 1351.3625,-162.5001 1351.3626,-155.5001"/>
</g>
<!-- ResourceListComponent -->
<g id="node7" class="node">
<title>ResourceListComponent</title>
<polygon fill="#ffffb3" stroke="#000000" points="1855.6965,-122 1700.3035,-122 1700.3035,-86 1855.6965,-86 1855.6965,-122"/>
<text text-anchor="middle" x="1778" y="-99.8" font-family="Times,serif" font-size="14.00" fill="#000000">ResourceListComponent</text>
</g>
<!-- ResourceListComponent&#45;&gt;DataModule -->
<g id="edge7" class="edge">
<title>ResourceListComponent&#45;&gt;DataModule</title>
<path fill="none" stroke="#000000" d="M1730.2684,-122.2396C1730.2684,-137.5706 1730.2684,-157 1730.2684,-157 1730.2684,-157 1351.0279,-157 1351.0279,-157"/>
<polygon fill="#000000" stroke="#000000" points="1351.0279,-153.5001 1341.0279,-157 1351.0279,-160.5001 1351.0279,-153.5001"/>
</g>
<!-- DefaultEntryInputComponent -->
<g id="node8" class="node">
<title>DefaultEntryInputComponent</title>
<polygon fill="#ffffb3" stroke="#000000" points="1681.965,-122 1498.035,-122 1498.035,-86 1681.965,-86 1681.965,-122"/>
<text text-anchor="middle" x="1590" y="-99.8" font-family="Times,serif" font-size="14.00" fill="#000000">DefaultEntryInputComponent</text>
</g>
<!-- DefaultEntryInputComponent&#45;&gt;DataModule -->
<g id="edge8" class="edge">
<title>DefaultEntryInputComponent&#45;&gt;DataModule</title>
<path fill="none" stroke="#000000" d="M1546.7162,-122.0511C1546.7162,-136.373 1546.7162,-154 1546.7162,-154 1546.7162,-154 1351.0391,-154 1351.0391,-154"/>
<polygon fill="#000000" stroke="#000000" points="1351.0391,-150.5001 1341.0391,-154 1351.0391,-157.5001 1351.0391,-150.5001"/>
</g>
<!-- DefaultEntryOutputComponent -->
<g id="node9" class="node">
<title>DefaultEntryOutputComponent</title>
<polygon fill="#ffffb3" stroke="#000000" points="1479.8018,-122 1286.1982,-122 1286.1982,-86 1479.8018,-86 1479.8018,-122"/>
<text text-anchor="middle" x="1383" y="-99.8" font-family="Times,serif" font-size="14.00" fill="#000000">DefaultEntryOutputComponent</text>
</g>
<!-- DefaultEntryOutputComponent&#45;&gt;DataModule -->
<g id="edge9" class="edge">
<title>DefaultEntryOutputComponent&#45;&gt;DataModule</title>
<path fill="none" stroke="#000000" d="M1313.6687,-122.1061C1313.6687,-122.1061 1313.6687,-140.991 1313.6687,-140.991"/>
<polygon fill="#000000" stroke="#000000" points="1310.1687,-140.9909 1313.6687,-150.991 1317.1687,-140.991 1310.1687,-140.9909"/>
</g>
<!-- CrudComponent -->
<g id="node10" class="node">
<title>CrudComponent</title>
<polygon fill="#ffffb3" stroke="#000000" points="1268.8301,-122 1159.1699,-122 1159.1699,-86 1268.8301,-86 1268.8301,-122"/>
<text text-anchor="middle" x="1214" y="-99.8" font-family="Times,serif" font-size="14.00" fill="#000000">CrudComponent</text>
</g>
<!-- CrudComponent&#45;&gt;DataModule -->
<g id="edge10" class="edge">
<title>CrudComponent&#45;&gt;DataModule</title>
<path fill="none" stroke="#000000" d="M1261.8384,-122.1061C1261.8384,-122.1061 1261.8384,-140.991 1261.8384,-140.991"/>
<polygon fill="#000000" stroke="#000000" points="1258.3384,-140.9909 1261.8384,-150.991 1265.3384,-140.991 1258.3384,-140.9909"/>
</g>
<!-- EntrySelectComponent -->
<g id="node11" class="node">
<title>EntrySelectComponent</title>
<polygon fill="#ffffb3" stroke="#000000" points="1141.1442,-122 994.8558,-122 994.8558,-86 1141.1442,-86 1141.1442,-122"/>
<text text-anchor="middle" x="1068" y="-99.8" font-family="Times,serif" font-size="14.00" fill="#000000">EntrySelectComponent</text>
</g>
<!-- EntrySelectComponent&#45;&gt;DataModule -->
<g id="edge11" class="edge">
<title>EntrySelectComponent&#45;&gt;DataModule</title>
<path fill="none" stroke="#000000" d="M1128.3529,-122.0511C1128.3529,-136.373 1128.3529,-154 1128.3529,-154 1128.3529,-154 1244.7519,-154 1244.7519,-154"/>
<polygon fill="#000000" stroke="#000000" points="1244.752,-157.5001 1254.7519,-154 1244.7519,-150.5001 1244.752,-157.5001"/>
</g>
<!-- EditorComponent -->
<g id="node12" class="node">
<title>EditorComponent</title>
<polygon fill="#ffffb3" stroke="#000000" points="977.3273,-122 860.6727,-122 860.6727,-86 977.3273,-86 977.3273,-122"/>
<text text-anchor="middle" x="919" y="-99.8" font-family="Times,serif" font-size="14.00" fill="#000000">EditorComponent</text>
</g>
<!-- EditorComponent&#45;&gt;DataModule -->
<g id="edge12" class="edge">
<title>EditorComponent&#45;&gt;DataModule</title>
<path fill="none" stroke="#000000" d="M965.7916,-122.2396C965.7916,-137.5706 965.7916,-157 965.7916,-157 965.7916,-157 1244.9101,-157 1244.9101,-157"/>
<polygon fill="#000000" stroke="#000000" points="1244.9102,-160.5001 1254.9101,-157 1244.9101,-153.5001 1244.9102,-160.5001"/>
</g>
<!-- EntryListComponent  -->
<g id="node17" class="node">
<title>EntryListComponent </title>
<polygon fill="#fb8072" stroke="#000000" points="2191.7149,-252 2054.2851,-252 2054.2851,-216 2191.7149,-216 2191.7149,-252"/>
<text text-anchor="middle" x="2123" y="-229.8" font-family="Times,serif" font-size="14.00" fill="#000000">EntryListComponent </text>
</g>
<!-- DataModule&#45;&gt;EntryListComponent  -->
<g id="edge16" class="edge">
<title>DataModule&#45;&gt;EntryListComponent </title>
<path fill="none" stroke="#000000" stroke-dasharray="5,2" d="M1341.194,-175C1510.9439,-175 2123,-175 2123,-175 2123,-175 2123,-205.9775 2123,-205.9775"/>
<polygon fill="#000000" stroke="#000000" points="2119.5001,-205.9774 2123,-215.9775 2126.5001,-205.9775 2119.5001,-205.9774"/>
</g>
<!-- EntryComponent  -->
<g id="node18" class="node">
<title>EntryComponent </title>
<polygon fill="#fb8072" stroke="#000000" points="2035.9362,-252 1920.0638,-252 1920.0638,-216 2035.9362,-216 2035.9362,-252"/>
<text text-anchor="middle" x="1978" y="-229.8" font-family="Times,serif" font-size="14.00" fill="#000000">EntryComponent </text>
</g>
<!-- DataModule&#45;&gt;EntryComponent  -->
<g id="edge17" class="edge">
<title>DataModule&#45;&gt;EntryComponent </title>
<path fill="none" stroke="#000000" stroke-dasharray="5,2" d="M1341.0861,-177C1488.9119,-177 1966.4311,-177 1966.4311,-177 1966.4311,-177 1966.4311,-205.9648 1966.4311,-205.9648"/>
<polygon fill="#000000" stroke="#000000" points="1962.9312,-205.9648 1966.4311,-215.9648 1969.9312,-205.9649 1962.9312,-205.9648"/>
</g>
<!-- EntriesComponent  -->
<g id="node19" class="node">
<title>EntriesComponent </title>
<polygon fill="#fb8072" stroke="#000000" points="1902.487,-252 1777.513,-252 1777.513,-216 1902.487,-216 1902.487,-252"/>
<text text-anchor="middle" x="1840" y="-229.8" font-family="Times,serif" font-size="14.00" fill="#000000">EntriesComponent </text>
</g>
<!-- DataModule&#45;&gt;EntriesComponent  -->
<g id="edge18" class="edge">
<title>DataModule&#45;&gt;EntriesComponent </title>
<path fill="none" stroke="#000000" stroke-dasharray="5,2" d="M1341.33,-180C1465.9889,-180 1816.6776,-180 1816.6776,-180 1816.6776,-180 1816.6776,-205.7181 1816.6776,-205.7181"/>
<polygon fill="#000000" stroke="#000000" points="1813.1777,-205.718 1816.6776,-215.7181 1820.1777,-205.7181 1813.1777,-205.718"/>
</g>
<!-- EntryFormComponent  -->
<g id="node20" class="node">
<title>EntryFormComponent </title>
<polygon fill="#fb8072" stroke="#000000" points="1760.2702,-252 1613.7298,-252 1613.7298,-216 1760.2702,-216 1760.2702,-252"/>
<text text-anchor="middle" x="1687" y="-229.8" font-family="Times,serif" font-size="14.00" fill="#000000">EntryFormComponent </text>
</g>
<!-- DataModule&#45;&gt;EntryFormComponent  -->
<g id="edge19" class="edge">
<title>DataModule&#45;&gt;EntryFormComponent </title>
<path fill="none" stroke="#000000" stroke-dasharray="5,2" d="M1341.2585,-182C1434.8808,-182 1647.9238,-182 1647.9238,-182 1647.9238,-182 1647.9238,-205.8129 1647.9238,-205.8129"/>
<polygon fill="#000000" stroke="#000000" points="1644.4238,-205.8129 1647.9238,-215.8129 1651.4238,-205.813 1644.4238,-205.8129"/>
</g>
<!-- CrudComponent  -->
<g id="node21" class="node">
<title>CrudComponent </title>
<polygon fill="#fb8072" stroke="#000000" points="1595.3297,-252 1482.6703,-252 1482.6703,-216 1595.3297,-216 1595.3297,-252"/>
<text text-anchor="middle" x="1539" y="-229.8" font-family="Times,serif" font-size="14.00" fill="#000000">CrudComponent </text>
</g>
<!-- DataModule&#45;&gt;CrudComponent  -->
<g id="edge20" class="edge">
<title>DataModule&#45;&gt;CrudComponent </title>
<path fill="none" stroke="#000000" stroke-dasharray="5,2" d="M1341.1562,-185C1397.853,-185 1490.3014,-185 1490.3014,-185 1490.3014,-185 1490.3014,-205.7542 1490.3014,-205.7542"/>
<polygon fill="#000000" stroke="#000000" points="1486.8014,-205.7542 1490.3014,-215.7542 1493.8014,-205.7542 1486.8014,-205.7542"/>
</g>
<!-- EntrySelectComponent  -->
<g id="node22" class="node">
<title>EntrySelectComponent </title>
<polygon fill="#fb8072" stroke="#000000" points="1465.1439,-252 1314.8561,-252 1314.8561,-216 1465.1439,-216 1465.1439,-252"/>
<text text-anchor="middle" x="1390" y="-229.8" font-family="Times,serif" font-size="14.00" fill="#000000">EntrySelectComponent </text>
</g>
<!-- DataModule&#45;&gt;EntrySelectComponent  -->
<g id="edge21" class="edge">
<title>DataModule&#45;&gt;EntrySelectComponent </title>
<path fill="none" stroke="#000000" stroke-dasharray="5,2" d="M1327.9581,-187.1061C1327.9581,-187.1061 1327.9581,-205.991 1327.9581,-205.991"/>
<polygon fill="#000000" stroke="#000000" points="1324.4582,-205.9909 1327.9581,-215.991 1331.4582,-205.991 1324.4582,-205.9909"/>
</g>
<!-- DatamanagerListComponent  -->
<g id="node23" class="node">
<title>DatamanagerListComponent </title>
<polygon fill="#fb8072" stroke="#000000" points="1296.7323,-252 1115.2677,-252 1115.2677,-216 1296.7323,-216 1296.7323,-252"/>
<text text-anchor="middle" x="1206" y="-229.8" font-family="Times,serif" font-size="14.00" fill="#000000">DatamanagerListComponent </text>
</g>
<!-- DataModule&#45;&gt;DatamanagerListComponent  -->
<g id="edge22" class="edge">
<title>DataModule&#45;&gt;DatamanagerListComponent </title>
<path fill="none" stroke="#000000" stroke-dasharray="5,2" d="M1275.814,-187.1061C1275.814,-187.1061 1275.814,-205.991 1275.814,-205.991"/>
<polygon fill="#000000" stroke="#000000" points="1272.3141,-205.9909 1275.814,-215.991 1279.3141,-205.991 1272.3141,-205.9909"/>
</g>
<!-- ModelListComponent  -->
<g id="node24" class="node">
<title>ModelListComponent </title>
<polygon fill="#fb8072" stroke="#000000" points="1097.6607,-252 954.3393,-252 954.3393,-216 1097.6607,-216 1097.6607,-252"/>
<text text-anchor="middle" x="1026" y="-229.8" font-family="Times,serif" font-size="14.00" fill="#000000">ModelListComponent </text>
</g>
<!-- DataModule&#45;&gt;ModelListComponent  -->
<g id="edge23" class="edge">
<title>DataModule&#45;&gt;ModelListComponent </title>
<path fill="none" stroke="#000000" stroke-dasharray="5,2" d="M1254.9881,-185C1183.0508,-185 1046.1292,-185 1046.1292,-185 1046.1292,-185 1046.1292,-205.7542 1046.1292,-205.7542"/>
<polygon fill="#000000" stroke="#000000" points="1042.6293,-205.7542 1046.1292,-215.7542 1049.6293,-205.7542 1042.6293,-205.7542"/>
</g>
<!-- ResourceListComponent  -->
<g id="node25" class="node">
<title>ResourceListComponent </title>
<polygon fill="#fb8072" stroke="#000000" points="936.1967,-252 777.8033,-252 777.8033,-216 936.1967,-216 936.1967,-252"/>
<text text-anchor="middle" x="857" y="-229.8" font-family="Times,serif" font-size="14.00" fill="#000000">ResourceListComponent </text>
</g>
<!-- DataModule&#45;&gt;ResourceListComponent  -->
<g id="edge24" class="edge">
<title>DataModule&#45;&gt;ResourceListComponent </title>
<path fill="none" stroke="#000000" stroke-dasharray="5,2" d="M1254.8769,-182C1151.5989,-182 898.5924,-182 898.5924,-182 898.5924,-182 898.5924,-205.8129 898.5924,-205.8129"/>
<polygon fill="#000000" stroke="#000000" points="895.0925,-205.8129 898.5924,-215.8129 902.0925,-205.813 895.0925,-205.8129"/>
</g>
<!-- EditorComponent  -->
<g id="node26" class="node">
<title>EditorComponent </title>
<polygon fill="#fb8072" stroke="#000000" points="759.8269,-252 640.1731,-252 640.1731,-216 759.8269,-216 759.8269,-252"/>
<text text-anchor="middle" x="700" y="-229.8" font-family="Times,serif" font-size="14.00" fill="#000000">EditorComponent </text>
</g>
<!-- DataModule&#45;&gt;EditorComponent  -->
<g id="edge25" class="edge">
<title>DataModule&#45;&gt;EditorComponent </title>
<path fill="none" stroke="#000000" stroke-dasharray="5,2" d="M1254.7625,-180C1125.8087,-180 752.7898,-180 752.7898,-180 752.7898,-180 752.7898,-205.7181 752.7898,-205.7181"/>
<polygon fill="#000000" stroke="#000000" points="749.2899,-205.718 752.7898,-215.7181 756.2899,-205.7181 749.2899,-205.718"/>
</g>
<!-- SdkModule  -->
<g id="node27" class="node">
<title>SdkModule </title>
<polygon fill="#fb8072" stroke="#000000" points="622.3326,-252 537.6674,-252 537.6674,-216 622.3326,-216 622.3326,-252"/>
<text text-anchor="middle" x="580" y="-229.8" font-family="Times,serif" font-size="14.00" fill="#000000">SdkModule </text>
</g>
<!-- DataModule&#45;&gt;SdkModule  -->
<g id="edge26" class="edge">
<title>DataModule&#45;&gt;SdkModule </title>
<path fill="none" stroke="#000000" stroke-dasharray="5,2" d="M1254.8392,-177C1101.3423,-177 591.0149,-177 591.0149,-177 591.0149,-177 591.0149,-205.9648 591.0149,-205.9648"/>
<polygon fill="#000000" stroke="#000000" points="587.515,-205.9648 591.0149,-215.9648 594.515,-205.9649 587.515,-205.9648"/>
</g>
<!-- FilesModule  -->
<g id="node28" class="node">
<title>FilesModule </title>
<polygon fill="#fb8072" stroke="#000000" points="519.2732,-252 428.7268,-252 428.7268,-216 519.2732,-216 519.2732,-252"/>
<text text-anchor="middle" x="474" y="-229.8" font-family="Times,serif" font-size="14.00" fill="#000000">FilesModule </text>
</g>
<!-- DataModule&#45;&gt;FilesModule  -->
<g id="edge27" class="edge">
<title>DataModule&#45;&gt;FilesModule </title>
<path fill="none" stroke="#000000" stroke-dasharray="5,2" d="M1254.8583,-175C1085.3142,-175 474,-175 474,-175 474,-175 474,-205.9775 474,-205.9775"/>
<polygon fill="#000000" stroke="#000000" points="470.5001,-205.9774 474,-215.9775 477.5001,-205.9775 470.5001,-205.9774"/>
</g>
<!-- UiModule -->
<g id="node14" class="node">
<title>UiModule</title>
<polygon fill="#8dd3c7" stroke="#000000" points="836.5484,-122 833.5484,-126 812.5484,-126 809.5484,-122 763.4516,-122 763.4516,-86 836.5484,-86 836.5484,-122"/>
<text text-anchor="middle" x="800" y="-99.8" font-family="Times,serif" font-size="14.00" fill="#000000">UiModule</text>
</g>
<!-- UiModule&#45;&gt;DataModule -->
<g id="edge13" class="edge">
<title>UiModule&#45;&gt;DataModule</title>
<path fill="none" stroke="#000000" d="M807.2126,-122.0091C807.2126,-138.0494 807.2126,-159 807.2126,-159 807.2126,-159 1244.876,-159 1244.876,-159"/>
<polygon fill="#000000" stroke="#000000" points="1244.8761,-162.5001 1254.876,-159 1244.876,-155.5001 1244.8761,-162.5001"/>
</g>
<!-- SdkModule -->
<g id="node15" class="node">
<title>SdkModule</title>
<polygon fill="#8dd3c7" stroke="#000000" points="745.8331,-122 742.8331,-126 721.8331,-126 718.8331,-122 664.1669,-122 664.1669,-86 745.8331,-86 745.8331,-122"/>
<text text-anchor="middle" x="705" y="-99.8" font-family="Times,serif" font-size="14.00" fill="#000000">SdkModule</text>
</g>
<!-- SdkModule&#45;&gt;DataModule -->
<g id="edge14" class="edge">
<title>SdkModule&#45;&gt;DataModule</title>
<path fill="none" stroke="#000000" d="M705,-122.0336C705,-139.0597 705,-162 705,-162 705,-162 1244.8752,-162 1244.8752,-162"/>
<polygon fill="#000000" stroke="#000000" points="1244.8753,-165.5001 1254.8752,-162 1244.8752,-158.5001 1244.8753,-165.5001"/>
</g>
<!-- FilesModule -->
<g id="node16" class="node">
<title>FilesModule</title>
<polygon fill="#8dd3c7" stroke="#000000" points="646.2731,-122 643.2731,-126 622.2731,-126 619.2731,-122 559.7269,-122 559.7269,-86 646.2731,-86 646.2731,-122"/>
<text text-anchor="middle" x="603" y="-99.8" font-family="Times,serif" font-size="14.00" fill="#000000">FilesModule</text>
</g>
<!-- FilesModule&#45;&gt;DataModule -->
<g id="edge15" class="edge">
<title>FilesModule&#45;&gt;DataModule</title>
<path fill="none" stroke="#000000" d="M631.2514,-122.002C631.2514,-139.6754 631.2514,-164 631.2514,-164 631.2514,-164 1245.0224,-164 1245.0224,-164"/>
<polygon fill="#000000" stroke="#000000" points="1245.0224,-167.5001 1255.0224,-164 1245.0223,-160.5001 1245.0224,-167.5001"/>
</g>
<!-- CrudService -->
<g id="node29" class="node">
<title>CrudService</title>
<ellipse fill="#fdb462" stroke="#000000" cx="477" cy="-104" rx="59.1083" ry="18"/>
<text text-anchor="middle" x="477" y="-99.8" font-family="Times,serif" font-size="14.00" fill="#000000">CrudService</text>
</g>
<!-- CrudService&#45;&gt;DataModule -->
<g id="edge28" class="edge">
<title>CrudService&#45;&gt;DataModule</title>
<path fill="none" stroke="#000000" d="M527.7201,-113.5683C527.7201,-131.1924 527.7201,-167 527.7201,-167 527.7201,-167 1244.9359,-167 1244.9359,-167"/>
<polygon fill="#000000" stroke="#000000" points="1244.9359,-170.5001 1254.9359,-167 1244.9358,-163.5001 1244.9359,-170.5001"/>
</g>
<!-- TypeConfigService -->
<g id="node30" class="node">
<title>TypeConfigService</title>
<ellipse fill="#fdb462" stroke="#000000" cx="313" cy="-104" rx="86.8184" ry="18"/>
<text text-anchor="middle" x="313" y="-99.8" font-family="Times,serif" font-size="14.00" fill="#000000">TypeConfigService</text>
</g>
<!-- TypeConfigService&#45;&gt;DataModule -->
<g id="edge29" class="edge">
<title>TypeConfigService&#45;&gt;DataModule</title>
<path fill="none" stroke="#000000" d="M313,-122.1061C313,-141.3391 313,-169 313,-169 313,-169 1244.7241,-169 1244.7241,-169"/>
<polygon fill="#000000" stroke="#000000" points="1244.7242,-172.5001 1254.7241,-169 1244.7241,-165.5001 1244.7242,-172.5001"/>
</g>
<!-- ModelConfigService -->
<g id="node31" class="node">
<title>ModelConfigService</title>
<ellipse fill="#fdb462" stroke="#000000" cx="116" cy="-104" rx="92.0548" ry="18"/>
<text text-anchor="middle" x="116" y="-99.8" font-family="Times,serif" font-size="14.00" fill="#000000">ModelConfigService</text>
</g>
<!-- ModelConfigService&#45;&gt;DataModule -->
<g id="edge30" class="edge">
<title>ModelConfigService&#45;&gt;DataModule</title>
<path fill="none" stroke="#000000" d="M116,-122.2228C116,-142.3652 116,-172 116,-172 116,-172 1244.8826,-172 1244.8826,-172"/>
<polygon fill="#000000" stroke="#000000" points="1244.8826,-175.5001 1254.8826,-172 1244.8826,-168.5001 1244.8826,-175.5001"/>
</g>
</g>
</svg>
