<?xml version="1.0" encoding="UTF-8" standalone="no"?>
<!DOCTYPE svg PUBLIC "-//W3C//DTD SVG 1.1//EN"
 "http://www.w3.org/Graphics/SVG/1.1/DTD/svg11.dtd">
<!-- Generated by graphviz version 2.40.1 (20161225.0304)
 -->
<!-- Title: dependencies Pages: 1 -->
<svg width="3310pt" height="284pt"
 viewBox="0.00 0.00 3310.00 284.00" xmlns="http://www.w3.org/2000/svg" xmlns:xlink="http://www.w3.org/1999/xlink">
<g id="graph0" class="graph" transform="scale(1 1) rotate(0) translate(4 280)">
<title>dependencies</title>
<polygon fill="#ffffff" stroke="transparent" points="-4,4 -4,-280 3306,-280 3306,4 -4,4"/>
<text text-anchor="start" x="1630.0091" y="-42.4" font-family="sans-serif" font-weight="bold" font-size="14.00" fill="#000000">Legend</text>
<polygon fill="#ffffb3" stroke="transparent" points="1417,-10 1417,-30 1437,-30 1437,-10 1417,-10"/>
<text text-anchor="start" x="1440.629" y="-15.4" font-family="sans-serif" font-size="14.00" fill="#000000"> &#160;Declarations</text>
<polygon fill="#8dd3c7" stroke="transparent" points="1530,-10 1530,-30 1550,-30 1550,-10 1530,-10"/>
<text text-anchor="start" x="1553.7251" y="-15.4" font-family="sans-serif" font-size="14.00" fill="#000000"> &#160;Module</text>
<polygon fill="#80b1d3" stroke="transparent" points="1616,-10 1616,-30 1636,-30 1636,-10 1616,-10"/>
<text text-anchor="start" x="1639.7812" y="-15.4" font-family="sans-serif" font-size="14.00" fill="#000000"> &#160;Bootstrap</text>
<polygon fill="#fdb462" stroke="transparent" points="1713,-10 1713,-30 1733,-30 1733,-10 1713,-10"/>
<text text-anchor="start" x="1736.6732" y="-15.4" font-family="sans-serif" font-size="14.00" fill="#000000"> &#160;Providers</text>
<polygon fill="#fb8072" stroke="transparent" points="1809,-10 1809,-30 1829,-30 1829,-10 1809,-10"/>
<text text-anchor="start" x="1832.7258" y="-15.4" font-family="sans-serif" font-size="14.00" fill="#000000"> &#160;Exports</text>
<g id="clust1" class="cluster">
<title>cluster_DataModule</title>
<polygon fill="none" stroke="#000000" stroke-dasharray="1,5" points="8,-70 8,-268 3294,-268 3294,-70 8,-70"/>
</g>
<g id="clust2" class="cluster">
<title>cluster_DataModule_declarations</title>
<polygon fill="none" stroke="#000000" points="959,-78 959,-130 3286,-130 3286,-78 959,-78"/>
</g>
<g id="clust17" class="cluster">
<title>cluster_DataModule_imports</title>
<polygon fill="none" stroke="#000000" points="552,-78 552,-130 951,-130 951,-78 552,-78"/>
</g>
<g id="clust18" class="cluster">
<title>cluster_DataModule_exports</title>
<polygon fill="none" stroke="#000000" points="391,-208 391,-260 2764,-260 2764,-208 391,-208"/>
</g>
<g id="clust20" class="cluster">
<title>cluster_DataModule_providers</title>
<polygon fill="none" stroke="#000000" points="16,-78 16,-130 544,-130 544,-78 16,-78"/>
</g>
<!-- EntryListComponent -->
<g id="node1" class="node">
<title>EntryListComponent</title>
<polygon fill="#ffffb3" stroke="#000000" points="3278.2148,-122 3143.7852,-122 3143.7852,-86 3278.2148,-86 3278.2148,-122"/>
<text text-anchor="middle" x="3211" y="-99.8" font-family="Times,serif" font-size="14.00" fill="#000000">EntryListComponent</text>
</g>
<!-- DataModule -->
<g id="node15" class="node">
<title>DataModule</title>
<polygon fill="#8dd3c7" stroke="#000000" points="1604.9762,-187 1601.9762,-191 1580.9762,-191 1577.9762,-187 1519.0238,-187 1519.0238,-151 1604.9762,-151 1604.9762,-187"/>
<text text-anchor="middle" x="1562" y="-164.8" font-family="Times,serif" font-size="14.00" fill="#000000">DataModule</text>
</g>
<!-- EntryListComponent&#45;&gt;DataModule -->
<g id="edge1" class="edge">
<title>EntryListComponent&#45;&gt;DataModule</title>
<path fill="none" stroke="#000000" d="M3211,-122.308C3211,-142.1455 3211,-171 3211,-171 3211,-171 1615.2591,-171 1615.2591,-171"/>
<polygon fill="#000000" stroke="#000000" points="1615.2592,-167.5001 1605.2591,-171 1615.2591,-174.5001 1615.2592,-167.5001"/>
</g>
<!-- EntryDirective -->
<g id="node2" class="node">
<title>EntryDirective</title>
<polygon fill="#ffffb3" stroke="#000000" points="3125.6868,-122 3026.3132,-122 3026.3132,-86 3125.6868,-86 3125.6868,-122"/>
<text text-anchor="middle" x="3076" y="-99.8" font-family="Times,serif" font-size="14.00" fill="#000000">EntryDirective</text>
</g>
<!-- EntryDirective&#45;&gt;DataModule -->
<g id="edge2" class="edge">
<title>EntryDirective&#45;&gt;DataModule</title>
<path fill="none" stroke="#000000" d="M3076,-122.1061C3076,-141.3391 3076,-169 3076,-169 3076,-169 1615.2744,-169 1615.2744,-169"/>
<polygon fill="#000000" stroke="#000000" points="1615.2745,-165.5001 1605.2744,-169 1615.2744,-172.5001 1615.2745,-165.5001"/>
</g>
<!-- EntriesDirective -->
<g id="node3" class="node">
<title>EntriesDirective</title>
<polygon fill="#ffffb3" stroke="#000000" points="3008.7367,-122 2901.2633,-122 2901.2633,-86 3008.7367,-86 3008.7367,-122"/>
<text text-anchor="middle" x="2955" y="-99.8" font-family="Times,serif" font-size="14.00" fill="#000000">EntriesDirective</text>
</g>
<!-- EntriesDirective&#45;&gt;DataModule -->
<g id="edge3" class="edge">
<title>EntriesDirective&#45;&gt;DataModule</title>
<path fill="none" stroke="#000000" d="M2955,-122.2222C2955,-140.8285 2955,-167 2955,-167 2955,-167 1615.2172,-167 1615.2172,-167"/>
<polygon fill="#000000" stroke="#000000" points="1615.2173,-163.5001 1605.2172,-167 1615.2172,-170.5001 1615.2173,-163.5001"/>
</g>
<!-- EntryFormComponent -->
<g id="node4" class="node">
<title>EntryFormComponent</title>
<polygon fill="#ffffb3" stroke="#000000" points="2883.2702,-122 2740.7298,-122 2740.7298,-86 2883.2702,-86 2883.2702,-122"/>
<text text-anchor="middle" x="2812" y="-99.8" font-family="Times,serif" font-size="14.00" fill="#000000">EntryFormComponent</text>
</g>
<!-- EntryFormComponent&#45;&gt;DataModule -->
<g id="edge4" class="edge">
<title>EntryFormComponent&#45;&gt;DataModule</title>
<path fill="none" stroke="#000000" d="M2748.2361,-122.302C2748.2361,-140.2699 2748.2361,-165 2748.2361,-165 2748.2361,-165 1615.2719,-165 1615.2719,-165"/>
<polygon fill="#000000" stroke="#000000" points="1615.272,-161.5001 1605.2719,-165 1615.2719,-168.5001 1615.272,-161.5001"/>
</g>
<!-- EntryPopComponent -->
<g id="node5" class="node">
<title>EntryPopComponent</title>
<polygon fill="#ffffb3" stroke="#000000" points="2723.219,-122 2588.781,-122 2588.781,-86 2723.219,-86 2723.219,-122"/>
<text text-anchor="middle" x="2656" y="-99.8" font-family="Times,serif" font-size="14.00" fill="#000000">EntryPopComponent</text>
</g>
<!-- EntryPopComponent&#45;&gt;DataModule -->
<g id="edge5" class="edge">
<title>EntryPopComponent&#45;&gt;DataModule</title>
<path fill="none" stroke="#000000" d="M2594.617,-122.0225C2594.617,-139.3734 2594.617,-163 2594.617,-163 2594.617,-163 1615.0556,-163 1615.0556,-163"/>
<polygon fill="#000000" stroke="#000000" points="1615.0556,-159.5001 1605.0556,-163 1615.0556,-166.5001 1615.0556,-159.5001"/>
</g>
<!-- ResourceListComponent -->
<g id="node6" class="node">
<title>ResourceListComponent</title>
<polygon fill="#ffffb3" stroke="#000000" points="2570.6965,-122 2415.3035,-122 2415.3035,-86 2570.6965,-86 2570.6965,-122"/>
<text text-anchor="middle" x="2493" y="-99.8" font-family="Times,serif" font-size="14.00" fill="#000000">ResourceListComponent</text>
</g>
<!-- ResourceListComponent&#45;&gt;DataModule -->
<g id="edge6" class="edge">
<title>ResourceListComponent&#45;&gt;DataModule</title>
<path fill="none" stroke="#000000" d="M2447.51,-122.0352C2447.51,-138.7344 2447.51,-161 2447.51,-161 2447.51,-161 1615.0092,-161 1615.0092,-161"/>
<polygon fill="#000000" stroke="#000000" points="1615.0093,-157.5001 1605.0092,-161 1615.0092,-164.5001 1615.0093,-157.5001"/>
</g>
<!-- ResourceFormComponent -->
<g id="node7" class="node">
<title>ResourceFormComponent</title>
<polygon fill="#ffffb3" stroke="#000000" points="2397.752,-122 2234.248,-122 2234.248,-86 2397.752,-86 2397.752,-122"/>
<text text-anchor="middle" x="2316" y="-99.8" font-family="Times,serif" font-size="14.00" fill="#000000">ResourceFormComponent</text>
</g>
<!-- ResourceFormComponent&#45;&gt;DataModule -->
<g id="edge7" class="edge">
<title>ResourceFormComponent&#45;&gt;DataModule</title>
<path fill="none" stroke="#000000" d="M2292.1296,-122.0091C2292.1296,-138.0494 2292.1296,-159 2292.1296,-159 2292.1296,-159 1615.2164,-159 1615.2164,-159"/>
<polygon fill="#000000" stroke="#000000" points="1615.2164,-155.5001 1605.2164,-159 1615.2163,-162.5001 1615.2164,-155.5001"/>
</g>
<!-- ResourcePopComponent -->
<g id="node8" class="node">
<title>ResourcePopComponent</title>
<polygon fill="#ffffb3" stroke="#000000" points="2216.7007,-122 2061.2993,-122 2061.2993,-86 2216.7007,-86 2216.7007,-122"/>
<text text-anchor="middle" x="2139" y="-99.8" font-family="Times,serif" font-size="14.00" fill="#000000">ResourcePopComponent</text>
</g>
<!-- ResourcePopComponent&#45;&gt;DataModule -->
<g id="edge8" class="edge">
<title>ResourcePopComponent&#45;&gt;DataModule</title>
<path fill="none" stroke="#000000" d="M2123.6295,-122.2396C2123.6295,-137.5706 2123.6295,-157 2123.6295,-157 2123.6295,-157 1615.1376,-157 1615.1376,-157"/>
<polygon fill="#000000" stroke="#000000" points="1615.1376,-153.5001 1605.1376,-157 1615.1375,-160.5001 1615.1376,-153.5001"/>
</g>
<!-- ResourceCrudComponent -->
<g id="node9" class="node">
<title>ResourceCrudComponent</title>
<polygon fill="#ffffb3" stroke="#000000" points="2043.9157,-122 1882.0843,-122 1882.0843,-86 2043.9157,-86 2043.9157,-122"/>
<text text-anchor="middle" x="1963" y="-99.8" font-family="Times,serif" font-size="14.00" fill="#000000">ResourceCrudComponent</text>
</g>
<!-- ResourceCrudComponent&#45;&gt;DataModule -->
<g id="edge9" class="edge">
<title>ResourceCrudComponent&#45;&gt;DataModule</title>
<path fill="none" stroke="#000000" d="M1891.1822,-122.1243C1891.1822,-136.7832 1891.1822,-155 1891.1822,-155 1891.1822,-155 1615.0348,-155 1615.0348,-155"/>
<polygon fill="#000000" stroke="#000000" points="1615.0349,-151.5001 1605.0348,-155 1615.0348,-158.5001 1615.0349,-151.5001"/>
</g>
<!-- ResourceDeletePopComponent -->
<g id="node10" class="node">
<title>ResourceDeletePopComponent</title>
<polygon fill="#ffffb3" stroke="#000000" points="1863.7324,-122 1672.2676,-122 1672.2676,-86 1863.7324,-86 1863.7324,-122"/>
<text text-anchor="middle" x="1768" y="-99.8" font-family="Times,serif" font-size="14.00" fill="#000000">ResourceDeletePopComponent</text>
</g>
<!-- ResourceDeletePopComponent&#45;&gt;DataModule -->
<g id="edge10" class="edge">
<title>ResourceDeletePopComponent&#45;&gt;DataModule</title>
<path fill="none" stroke="#000000" d="M1702.2411,-122.2458C1702.2411,-136.1772 1702.2411,-153 1702.2411,-153 1702.2411,-153 1615.2213,-153 1615.2213,-153"/>
<polygon fill="#000000" stroke="#000000" points="1615.2213,-149.5001 1605.2213,-153 1615.2212,-156.5001 1615.2213,-149.5001"/>
</g>
<!-- DefaultEntryInputComponent -->
<g id="node11" class="node">
<title>DefaultEntryInputComponent</title>
<polygon fill="#ffffb3" stroke="#000000" points="1653.965,-122 1470.035,-122 1470.035,-86 1653.965,-86 1653.965,-122"/>
<text text-anchor="middle" x="1562" y="-99.8" font-family="Times,serif" font-size="14.00" fill="#000000">DefaultEntryInputComponent</text>
</g>
<!-- DefaultEntryInputComponent&#45;&gt;DataModule -->
<g id="edge11" class="edge">
<title>DefaultEntryInputComponent&#45;&gt;DataModule</title>
<path fill="none" stroke="#000000" d="M1562,-122.1061C1562,-122.1061 1562,-140.991 1562,-140.991"/>
<polygon fill="#000000" stroke="#000000" points="1558.5001,-140.9909 1562,-150.991 1565.5001,-140.991 1558.5001,-140.9909"/>
</g>
<!-- DefaultEntryOutputComponent -->
<g id="node12" class="node">
<title>DefaultEntryOutputComponent</title>
<polygon fill="#ffffb3" stroke="#000000" points="1451.8018,-122 1258.1982,-122 1258.1982,-86 1451.8018,-86 1451.8018,-122"/>
<text text-anchor="middle" x="1355" y="-99.8" font-family="Times,serif" font-size="14.00" fill="#000000">DefaultEntryOutputComponent</text>
</g>
<!-- DefaultEntryOutputComponent&#45;&gt;DataModule -->
<g id="edge12" class="edge">
<title>DefaultEntryOutputComponent&#45;&gt;DataModule</title>
<path fill="none" stroke="#000000" d="M1420.0125,-122.2458C1420.0125,-136.1772 1420.0125,-153 1420.0125,-153 1420.0125,-153 1509.0137,-153 1509.0137,-153"/>
<polygon fill="#000000" stroke="#000000" points="1509.0138,-156.5001 1519.0137,-153 1509.0137,-149.5001 1509.0138,-156.5001"/>
</g>
<!-- CrudComponent -->
<g id="node13" class="node">
<title>CrudComponent</title>
<polygon fill="#ffffb3" stroke="#000000" points="1240.8301,-122 1131.1699,-122 1131.1699,-86 1240.8301,-86 1240.8301,-122"/>
<text text-anchor="middle" x="1186" y="-99.8" font-family="Times,serif" font-size="14.00" fill="#000000">CrudComponent</text>
</g>
<!-- CrudComponent&#45;&gt;DataModule -->
<g id="edge13" class="edge">
<title>CrudComponent&#45;&gt;DataModule</title>
<path fill="none" stroke="#000000" d="M1226.1573,-122.1243C1226.1573,-136.7832 1226.1573,-155 1226.1573,-155 1226.1573,-155 1508.782,-155 1508.782,-155"/>
<polygon fill="#000000" stroke="#000000" points="1508.782,-158.5001 1518.782,-155 1508.7819,-151.5001 1508.782,-158.5001"/>
</g>
<!-- EntrySelectComponent -->
<g id="node14" class="node">
<title>EntrySelectComponent</title>
<polygon fill="#ffffb3" stroke="#000000" points="1113.1442,-122 966.8558,-122 966.8558,-86 1113.1442,-86 1113.1442,-122"/>
<text text-anchor="middle" x="1040" y="-99.8" font-family="Times,serif" font-size="14.00" fill="#000000">EntrySelectComponent</text>
</g>
<!-- EntrySelectComponent&#45;&gt;DataModule -->
<g id="edge14" class="edge">
<title>EntrySelectComponent&#45;&gt;DataModule</title>
<path fill="none" stroke="#000000" d="M1070.9322,-122.2396C1070.9322,-137.5706 1070.9322,-157 1070.9322,-157 1070.9322,-157 1508.8514,-157 1508.8514,-157"/>
<polygon fill="#000000" stroke="#000000" points="1508.8514,-160.5001 1518.8514,-157 1508.8514,-153.5001 1508.8514,-160.5001"/>
</g>
<!-- EntryListComponent  -->
<g id="node20" class="node">
<title>EntryListComponent </title>
<polygon fill="#fb8072" stroke="#000000" points="2755.7149,-252 2618.2851,-252 2618.2851,-216 2755.7149,-216 2755.7149,-252"/>
<text text-anchor="middle" x="2687" y="-229.8" font-family="Times,serif" font-size="14.00" fill="#000000">EntryListComponent </text>
</g>
<!-- DataModule&#45;&gt;EntryListComponent  -->
<g id="edge19" class="edge">
<title>DataModule&#45;&gt;EntryListComponent </title>
<path fill="none" stroke="#000000" stroke-dasharray="5,2" d="M1605.1192,-173C1809.4745,-173 2670.6261,-173 2670.6261,-173 2670.6261,-173 2670.6261,-205.698 2670.6261,-205.698"/>
<polygon fill="#000000" stroke="#000000" points="2667.1261,-205.698 2670.6261,-215.698 2674.1261,-205.698 2667.1261,-205.698"/>
</g>
<!-- EntryDirective  -->
<g id="node21" class="node">
<title>EntryDirective </title>
<polygon fill="#fb8072" stroke="#000000" points="2600.1871,-252 2497.8129,-252 2497.8129,-216 2600.1871,-216 2600.1871,-252"/>
<text text-anchor="middle" x="2549" y="-229.8" font-family="Times,serif" font-size="14.00" fill="#000000">EntryDirective </text>
</g>
<!-- DataModule&#45;&gt;EntryDirective  -->
<g id="edge20" class="edge">
<title>DataModule&#45;&gt;EntryDirective </title>
<path fill="none" stroke="#000000" stroke-dasharray="5,2" d="M1605.0254,-175C1793.1614,-175 2534.1275,-175 2534.1275,-175 2534.1275,-175 2534.1275,-205.9775 2534.1275,-205.9775"/>
<polygon fill="#000000" stroke="#000000" points="2530.6275,-205.9774 2534.1275,-215.9775 2537.6275,-205.9775 2530.6275,-205.9774"/>
</g>
<!-- EntriesDirective  -->
<g id="node22" class="node">
<title>EntriesDirective </title>
<polygon fill="#fb8072" stroke="#000000" points="2479.7367,-252 2368.2633,-252 2368.2633,-216 2479.7367,-216 2479.7367,-252"/>
<text text-anchor="middle" x="2424" y="-229.8" font-family="Times,serif" font-size="14.00" fill="#000000">EntriesDirective </text>
</g>
<!-- DataModule&#45;&gt;EntriesDirective  -->
<g id="edge21" class="edge">
<title>DataModule&#45;&gt;EntriesDirective </title>
<path fill="none" stroke="#000000" stroke-dasharray="5,2" d="M1604.9913,-177C1773.9447,-177 2383.1289,-177 2383.1289,-177 2383.1289,-177 2383.1289,-205.9648 2383.1289,-205.9648"/>
<polygon fill="#000000" stroke="#000000" points="2379.6289,-205.9648 2383.1289,-215.9648 2386.6289,-205.9649 2379.6289,-205.9648"/>
</g>
<!-- EntryFormComponent  -->
<g id="node23" class="node">
<title>EntryFormComponent </title>
<polygon fill="#fb8072" stroke="#000000" points="2350.2702,-252 2203.7298,-252 2203.7298,-216 2350.2702,-216 2350.2702,-252"/>
<text text-anchor="middle" x="2277" y="-229.8" font-family="Times,serif" font-size="14.00" fill="#000000">EntryFormComponent </text>
</g>
<!-- DataModule&#45;&gt;EntryFormComponent  -->
<g id="edge22" class="edge">
<title>DataModule&#45;&gt;EntryFormComponent </title>
<path fill="none" stroke="#000000" stroke-dasharray="5,2" d="M1605.0344,-179C1749.8143,-179 2210.2327,-179 2210.2327,-179 2210.2327,-179 2210.2327,-205.9909 2210.2327,-205.9909"/>
<polygon fill="#000000" stroke="#000000" points="2206.7327,-205.9909 2210.2327,-215.9909 2213.7327,-205.991 2206.7327,-205.9909"/>
</g>
<!-- EntryPopComponent  -->
<g id="node24" class="node">
<title>EntryPopComponent </title>
<polygon fill="#fb8072" stroke="#000000" points="2185.7191,-252 2048.2809,-252 2048.2809,-216 2185.7191,-216 2185.7191,-252"/>
<text text-anchor="middle" x="2117" y="-229.8" font-family="Times,serif" font-size="14.00" fill="#000000">EntryPopComponent </text>
</g>
<!-- DataModule&#45;&gt;EntryPopComponent  -->
<g id="edge23" class="edge">
<title>DataModule&#45;&gt;EntryPopComponent </title>
<path fill="none" stroke="#000000" stroke-dasharray="5,2" d="M1605.2982,-181C1725.5432,-181 2054.7702,-181 2054.7702,-181 2054.7702,-181 2054.7702,-205.7604 2054.7702,-205.7604"/>
<polygon fill="#000000" stroke="#000000" points="2051.2702,-205.7604 2054.7702,-215.7604 2058.2702,-205.7604 2051.2702,-205.7604"/>
</g>
<!-- CrudComponent  -->
<g id="node25" class="node">
<title>CrudComponent </title>
<polygon fill="#fb8072" stroke="#000000" points="2030.3297,-252 1917.6703,-252 1917.6703,-216 2030.3297,-216 2030.3297,-252"/>
<text text-anchor="middle" x="1974" y="-229.8" font-family="Times,serif" font-size="14.00" fill="#000000">CrudComponent </text>
</g>
<!-- DataModule&#45;&gt;CrudComponent  -->
<g id="edge24" class="edge">
<title>DataModule&#45;&gt;CrudComponent </title>
<path fill="none" stroke="#000000" stroke-dasharray="5,2" d="M1605.3125,-183C1711.0919,-183 1974,-183 1974,-183 1974,-183 1974,-205.8757 1974,-205.8757"/>
<polygon fill="#000000" stroke="#000000" points="1970.5001,-205.8757 1974,-215.8757 1977.5001,-205.8757 1970.5001,-205.8757"/>
</g>
<!-- EntrySelectComponent  -->
<g id="node26" class="node">
<title>EntrySelectComponent </title>
<polygon fill="#fb8072" stroke="#000000" points="1900.1439,-252 1749.8561,-252 1749.8561,-216 1900.1439,-216 1900.1439,-252"/>
<text text-anchor="middle" x="1825" y="-229.8" font-family="Times,serif" font-size="14.00" fill="#000000">EntrySelectComponent </text>
</g>
<!-- DataModule&#45;&gt;EntrySelectComponent  -->
<g id="edge25" class="edge">
<title>DataModule&#45;&gt;EntrySelectComponent </title>
<path fill="none" stroke="#000000" stroke-dasharray="5,2" d="M1605.219,-185C1675.5241,-185 1806.8971,-185 1806.8971,-185 1806.8971,-185 1806.8971,-205.7542 1806.8971,-205.7542"/>
<polygon fill="#000000" stroke="#000000" points="1803.3972,-205.7542 1806.8971,-215.7542 1810.3972,-205.7542 1803.3972,-205.7542"/>
</g>
<!-- ResourceListComponent  -->
<g id="node27" class="node">
<title>ResourceListComponent </title>
<polygon fill="#fb8072" stroke="#000000" points="1732.1967,-252 1573.8033,-252 1573.8033,-216 1732.1967,-216 1732.1967,-252"/>
<text text-anchor="middle" x="1653" y="-229.8" font-family="Times,serif" font-size="14.00" fill="#000000">ResourceListComponent </text>
</g>
<!-- DataModule&#45;&gt;ResourceListComponent  -->
<g id="edge26" class="edge">
<title>DataModule&#45;&gt;ResourceListComponent </title>
<path fill="none" stroke="#000000" stroke-dasharray="5,2" d="M1589.32,-187.1061C1589.32,-187.1061 1589.32,-205.991 1589.32,-205.991"/>
<polygon fill="#000000" stroke="#000000" points="1585.82,-205.9909 1589.32,-215.991 1592.82,-205.991 1585.82,-205.9909"/>
</g>
<!-- ResourceFormComponent  -->
<g id="node28" class="node">
<title>ResourceFormComponent </title>
<polygon fill="#fb8072" stroke="#000000" points="1555.752,-252 1388.248,-252 1388.248,-216 1555.752,-216 1555.752,-252"/>
<text text-anchor="middle" x="1472" y="-229.8" font-family="Times,serif" font-size="14.00" fill="#000000">ResourceFormComponent </text>
</g>
<!-- DataModule&#45;&gt;ResourceFormComponent  -->
<g id="edge27" class="edge">
<title>DataModule&#45;&gt;ResourceFormComponent </title>
<path fill="none" stroke="#000000" stroke-dasharray="5,2" d="M1537.3189,-187.1061C1537.3189,-187.1061 1537.3189,-205.991 1537.3189,-205.991"/>
<polygon fill="#000000" stroke="#000000" points="1533.819,-205.9909 1537.3189,-215.991 1540.819,-205.991 1533.819,-205.9909"/>
</g>
<!-- ResourcePopComponent  -->
<g id="node29" class="node">
<title>ResourcePopComponent </title>
<polygon fill="#fb8072" stroke="#000000" points="1370.2009,-252 1211.7991,-252 1211.7991,-216 1370.2009,-216 1370.2009,-252"/>
<text text-anchor="middle" x="1291" y="-229.8" font-family="Times,serif" font-size="14.00" fill="#000000">ResourcePopComponent </text>
</g>
<!-- DataModule&#45;&gt;ResourcePopComponent  -->
<g id="edge28" class="edge">
<title>DataModule&#45;&gt;ResourcePopComponent </title>
<path fill="none" stroke="#000000" stroke-dasharray="5,2" d="M1518.8626,-185C1447.9092,-185 1314.3498,-185 1314.3498,-185 1314.3498,-185 1314.3498,-205.7542 1314.3498,-205.7542"/>
<polygon fill="#000000" stroke="#000000" points="1310.8498,-205.7542 1314.3498,-215.7542 1317.8498,-205.7542 1310.8498,-205.7542"/>
</g>
<!-- ResourceCrudComponent  -->
<g id="node30" class="node">
<title>ResourceCrudComponent </title>
<polygon fill="#fb8072" stroke="#000000" points="1193.4152,-252 1028.5848,-252 1028.5848,-216 1193.4152,-216 1193.4152,-252"/>
<text text-anchor="middle" x="1111" y="-229.8" font-family="Times,serif" font-size="14.00" fill="#000000">ResourceCrudComponent </text>
</g>
<!-- DataModule&#45;&gt;ResourceCrudComponent  -->
<g id="edge29" class="edge">
<title>DataModule&#45;&gt;ResourceCrudComponent </title>
<path fill="none" stroke="#000000" stroke-dasharray="5,2" d="M1518.8557,-183C1415.527,-183 1162.3964,-183 1162.3964,-183 1162.3964,-183 1162.3964,-205.8757 1162.3964,-205.8757"/>
<polygon fill="#000000" stroke="#000000" points="1158.8965,-205.8757 1162.3964,-215.8757 1165.8965,-205.8757 1158.8965,-205.8757"/>
</g>
<!-- ResourceDeletePopComponent  -->
<g id="node31" class="node">
<title>ResourceDeletePopComponent </title>
<polygon fill="#fb8072" stroke="#000000" points="1010.7323,-252 815.2677,-252 815.2677,-216 1010.7323,-216 1010.7323,-252"/>
<text text-anchor="middle" x="913" y="-229.8" font-family="Times,serif" font-size="14.00" fill="#000000">ResourceDeletePopComponent </text>
</g>
<!-- DataModule&#45;&gt;ResourceDeletePopComponent  -->
<g id="edge30" class="edge">
<title>DataModule&#45;&gt;ResourceDeletePopComponent </title>
<path fill="none" stroke="#000000" stroke-dasharray="5,2" d="M1518.9053,-181C1385.5656,-181 988.6471,-181 988.6471,-181 988.6471,-181 988.6471,-205.7604 988.6471,-205.7604"/>
<polygon fill="#000000" stroke="#000000" points="985.1472,-205.7604 988.6471,-215.7604 992.1472,-205.7604 985.1472,-205.7604"/>
</g>
<!-- UiModule  -->
<g id="node32" class="node">
<title>UiModule </title>
<polygon fill="#fb8072" stroke="#000000" points="797.547,-252 720.453,-252 720.453,-216 797.547,-216 797.547,-252"/>
<text text-anchor="middle" x="759" y="-229.8" font-family="Times,serif" font-size="14.00" fill="#000000">UiModule </text>
</g>
<!-- DataModule&#45;&gt;UiModule  -->
<g id="edge31" class="edge">
<title>DataModule&#45;&gt;UiModule </title>
<path fill="none" stroke="#000000" stroke-dasharray="5,2" d="M1518.7801,-179C1355.2938,-179 783.9287,-179 783.9287,-179 783.9287,-179 783.9287,-205.9909 783.9287,-205.9909"/>
<polygon fill="#000000" stroke="#000000" points="780.4287,-205.9909 783.9287,-215.9909 787.4287,-205.991 780.4287,-205.9909"/>
</g>
<!-- SdkModule  -->
<g id="node33" class="node">
<title>SdkModule </title>
<polygon fill="#fb8072" stroke="#000000" points="702.3326,-252 617.6674,-252 617.6674,-216 702.3326,-216 702.3326,-252"/>
<text text-anchor="middle" x="660" y="-229.8" font-family="Times,serif" font-size="14.00" fill="#000000">SdkModule </text>
</g>
<!-- DataModule&#45;&gt;SdkModule  -->
<g id="edge32" class="edge">
<title>DataModule&#45;&gt;SdkModule </title>
<path fill="none" stroke="#000000" stroke-dasharray="5,2" d="M1518.7601,-177C1342.0434,-177 684.0149,-177 684.0149,-177 684.0149,-177 684.0149,-205.9648 684.0149,-205.9648"/>
<polygon fill="#000000" stroke="#000000" points="680.515,-205.9648 684.0149,-215.9648 687.515,-205.9649 680.515,-205.9648"/>
</g>
<!-- FilesModule  -->
<g id="node34" class="node">
<title>FilesModule </title>
<polygon fill="#fb8072" stroke="#000000" points="599.2732,-252 508.7268,-252 508.7268,-216 599.2732,-216 599.2732,-252"/>
<text text-anchor="middle" x="554" y="-229.8" font-family="Times,serif" font-size="14.00" fill="#000000">FilesModule </text>
</g>
<!-- DataModule&#45;&gt;FilesModule  -->
<g id="edge33" class="edge">
<title>DataModule&#45;&gt;FilesModule </title>
<path fill="none" stroke="#000000" stroke-dasharray="5,2" d="M1518.842,-175C1329.253,-175 579.6815,-175 579.6815,-175 579.6815,-175 579.6815,-205.9775 579.6815,-205.9775"/>
<polygon fill="#000000" stroke="#000000" points="576.1815,-205.9774 579.6815,-215.9775 583.1815,-205.9775 576.1815,-205.9774"/>
</g>
<!-- AuthModule  -->
<g id="node35" class="node">
<title>AuthModule </title>
<polygon fill="#fb8072" stroke="#000000" points="490.547,-252 399.453,-252 399.453,-216 490.547,-216 490.547,-252"/>
<text text-anchor="middle" x="445" y="-229.8" font-family="Times,serif" font-size="14.00" fill="#000000">AuthModule </text>
</g>
<!-- DataModule&#45;&gt;AuthModule  -->
<g id="edge34" class="edge">
<title>DataModule&#45;&gt;AuthModule </title>
<path fill="none" stroke="#000000" stroke-dasharray="5,2" d="M1518.9094,-173C1314.6898,-173 454.1098,-173 454.1098,-173 454.1098,-173 454.1098,-205.698 454.1098,-205.698"/>
<polygon fill="#000000" stroke="#000000" points="450.6097,-205.698 454.1098,-215.698 457.6097,-205.698 450.6097,-205.698"/>
</g>
<!-- UiModule -->
<g id="node16" class="node">
<title>UiModule</title>
<polygon fill="#8dd3c7" stroke="#000000" points="942.5484,-122 939.5484,-126 918.5484,-126 915.5484,-122 869.4516,-122 869.4516,-86 942.5484,-86 942.5484,-122"/>
<text text-anchor="middle" x="906" y="-99.8" font-family="Times,serif" font-size="14.00" fill="#000000">UiModule</text>
</g>
<!-- UiModule&#45;&gt;DataModule -->
<g id="edge15" class="edge">
<title>UiModule&#45;&gt;DataModule</title>
<path fill="none" stroke="#000000" d="M906,-122.0091C906,-138.0494 906,-159 906,-159 906,-159 1508.958,-159 1508.958,-159"/>
<polygon fill="#000000" stroke="#000000" points="1508.958,-162.5001 1518.958,-159 1508.958,-155.5001 1508.958,-162.5001"/>
</g>
<!-- SdkModule -->
<g id="node17" class="node">
<title>SdkModule</title>
<polygon fill="#8dd3c7" stroke="#000000" points="851.8331,-122 848.8331,-126 827.8331,-126 824.8331,-122 770.1669,-122 770.1669,-86 851.8331,-86 851.8331,-122"/>
<text text-anchor="middle" x="811" y="-99.8" font-family="Times,serif" font-size="14.00" fill="#000000">SdkModule</text>
</g>
<!-- SdkModule&#45;&gt;DataModule -->
<g id="edge16" class="edge">
<title>SdkModule&#45;&gt;DataModule</title>
<path fill="none" stroke="#000000" d="M833.5251,-122.0352C833.5251,-138.7344 833.5251,-161 833.5251,-161 833.5251,-161 1508.8816,-161 1508.8816,-161"/>
<polygon fill="#000000" stroke="#000000" points="1508.8816,-164.5001 1518.8816,-161 1508.8815,-157.5001 1508.8816,-164.5001"/>
</g>
<!-- FilesModule -->
<g id="node18" class="node">
<title>FilesModule</title>
<polygon fill="#8dd3c7" stroke="#000000" points="752.2731,-122 749.2731,-126 728.2731,-126 725.2731,-122 665.7269,-122 665.7269,-86 752.2731,-86 752.2731,-122"/>
<text text-anchor="middle" x="709" y="-99.8" font-family="Times,serif" font-size="14.00" fill="#000000">FilesModule</text>
</g>
<!-- FilesModule&#45;&gt;DataModule -->
<g id="edge17" class="edge">
<title>FilesModule&#45;&gt;DataModule</title>
<path fill="none" stroke="#000000" d="M736.4315,-122.0225C736.4315,-139.3734 736.4315,-163 736.4315,-163 736.4315,-163 1508.7762,-163 1508.7762,-163"/>
<polygon fill="#000000" stroke="#000000" points="1508.7763,-166.5001 1518.7762,-163 1508.7762,-159.5001 1508.7763,-166.5001"/>
</g>
<!-- AuthModule -->
<g id="node19" class="node">
<title>AuthModule</title>
<polygon fill="#8dd3c7" stroke="#000000" points="647.5482,-122 644.5482,-126 623.5482,-126 620.5482,-122 560.4518,-122 560.4518,-86 647.5482,-86 647.5482,-122"/>
<text text-anchor="middle" x="604" y="-99.8" font-family="Times,serif" font-size="14.00" fill="#000000">AuthModule</text>
</g>
<!-- AuthModule&#45;&gt;DataModule -->
<g id="edge18" class="edge">
<title>AuthModule&#45;&gt;DataModule</title>
<path fill="none" stroke="#000000" d="M632.6787,-122.302C632.6787,-140.2699 632.6787,-165 632.6787,-165 632.6787,-165 1508.7325,-165 1508.7325,-165"/>
<polygon fill="#000000" stroke="#000000" points="1508.7326,-168.5001 1518.7325,-165 1508.7325,-161.5001 1508.7326,-168.5001"/>
</g>
<!-- CrudService -->
<g id="node36" class="node">
<title>CrudService</title>
<ellipse fill="#fdb462" stroke="#000000" cx="477" cy="-104" rx="59.1083" ry="18"/>
<text text-anchor="middle" x="477" y="-99.8" font-family="Times,serif" font-size="14.00" fill="#000000">CrudService</text>
</g>
<!-- CrudService&#45;&gt;DataModule -->
<g id="edge35" class="edge">
<title>CrudService&#45;&gt;DataModule</title>
<path fill="none" stroke="#000000" d="M522.5837,-115.5552C522.5837,-133.7427 522.5837,-167 522.5837,-167 522.5837,-167 1508.9889,-167 1508.9889,-167"/>
<polygon fill="#000000" stroke="#000000" points="1508.989,-170.5001 1518.9889,-167 1508.9889,-163.5001 1508.989,-170.5001"/>
</g>
<!-- TypeConfigService -->
<g id="node37" class="node">
<title>TypeConfigService</title>
<ellipse fill="#fdb462" stroke="#000000" cx="313" cy="-104" rx="86.8184" ry="18"/>
<text text-anchor="middle" x="313" y="-99.8" font-family="Times,serif" font-size="14.00" fill="#000000">TypeConfigService</text>
</g>
<!-- TypeConfigService&#45;&gt;DataModule -->
<g id="edge36" class="edge">
<title>TypeConfigService&#45;&gt;DataModule</title>
<path fill="none" stroke="#000000" d="M312.9087,-122.1061C312.9087,-141.3391 312.9087,-169 312.9087,-169 312.9087,-169 1509.0035,-169 1509.0035,-169"/>
<polygon fill="#000000" stroke="#000000" points="1509.0035,-172.5001 1519.0035,-169 1509.0034,-165.5001 1509.0035,-172.5001"/>
</g>
<!-- ModelConfigService -->
<g id="node38" class="node">
<title>ModelConfigService</title>
<ellipse fill="#fdb462" stroke="#000000" cx="116" cy="-104" rx="92.0548" ry="18"/>
<text text-anchor="middle" x="116" y="-99.8" font-family="Times,serif" font-size="14.00" fill="#000000">ModelConfigService</text>
</g>
<!-- ModelConfigService&#45;&gt;DataModule -->
<g id="edge37" class="edge">
<title>ModelConfigService&#45;&gt;DataModule</title>
<path fill="none" stroke="#000000" d="M116,-122.308C116,-142.1455 116,-171 116,-171 116,-171 1508.7241,-171 1508.7241,-171"/>
<polygon fill="#000000" stroke="#000000" points="1508.7241,-174.5001 1518.7241,-171 1508.7241,-167.5001 1508.7241,-174.5001"/>
</g>
</g>
</svg>
