<?xml version="1.0" encoding="UTF-8" standalone="no"?>
<!DOCTYPE svg PUBLIC "-//W3C//DTD SVG 1.1//EN"
 "http://www.w3.org/Graphics/SVG/1.1/DTD/svg11.dtd">
<!-- Generated by graphviz version 2.47.0 (20210316.0004)
 -->
<!-- Title: dependencies Pages: 1 -->
<svg width="751pt" height="284pt"
 viewBox="0.00 0.00 751.00 284.00" xmlns="http://www.w3.org/2000/svg" xmlns:xlink="http://www.w3.org/1999/xlink">
<g id="graph0" class="graph" transform="scale(1 1) rotate(0) translate(4 280)">
<title>dependencies</title>
<polygon fill="white" stroke="transparent" points="-4,4 -4,-280 747,-280 747,4 -4,4"/>
<text text-anchor="start" x="350.51" y="-42.4" font-family="sans-serif" font-weight="bold" font-size="14.00">Legend</text>
<polygon fill="#ffffb3" stroke="transparent" points="137.5,-10 137.5,-30 157.5,-30 157.5,-10 137.5,-10"/>
<text text-anchor="start" x="161.13" y="-15.4" font-family="sans-serif" font-size="14.00"> &#160;Declarations</text>
<polygon fill="#8dd3c7" stroke="transparent" points="250.5,-10 250.5,-30 270.5,-30 270.5,-10 250.5,-10"/>
<text text-anchor="start" x="274.23" y="-15.4" font-family="sans-serif" font-size="14.00"> &#160;Module</text>
<polygon fill="#80b1d3" stroke="transparent" points="336.5,-10 336.5,-30 356.5,-30 356.5,-10 336.5,-10"/>
<text text-anchor="start" x="360.28" y="-15.4" font-family="sans-serif" font-size="14.00"> &#160;Bootstrap</text>
<polygon fill="#fdb462" stroke="transparent" points="433.5,-10 433.5,-30 453.5,-30 453.5,-10 433.5,-10"/>
<text text-anchor="start" x="457.17" y="-15.4" font-family="sans-serif" font-size="14.00"> &#160;Providers</text>
<polygon fill="#fb8072" stroke="transparent" points="529.5,-10 529.5,-30 549.5,-30 549.5,-10 529.5,-10"/>
<text text-anchor="start" x="553.23" y="-15.4" font-family="sans-serif" font-size="14.00"> &#160;Exports</text>
<g id="clust1" class="cluster">
<title>cluster_NotificationsModule</title>
<polygon fill="none" stroke="black" stroke-dasharray="1,5" points="8,-70 8,-268 735,-268 735,-70 8,-70"/>
</g>
<g id="clust5" class="cluster">
<title>cluster_NotificationsModule_imports</title>
<polygon fill="none" stroke="black" points="527,-78 527,-130 727,-130 727,-78 527,-78"/>
</g>
<g id="clust8" class="cluster">
<title>cluster_NotificationsModule_providers</title>
<polygon fill="none" stroke="black" points="323,-78 323,-130 519,-130 519,-78 323,-78"/>
</g>
<g id="clust6" class="cluster">
<title>cluster_NotificationsModule_exports</title>
<polygon fill="none" stroke="black" points="257,-208 257,-260 563,-260 563,-208 257,-208"/>
</g>
<g id="clust2" class="cluster">
<title>cluster_NotificationsModule_declarations</title>
<polygon fill="none" stroke="black" points="16,-78 16,-130 315,-130 315,-78 16,-78"/>
</g>
<!-- ErrorComponent -->
<g id="node1" class="node">
<title>ErrorComponent</title>
<polygon fill="#ffffb3" stroke="black" points="307.37,-122 196.63,-122 196.63,-86 307.37,-86 307.37,-122"/>
<text text-anchor="middle" x="252" y="-99.8" font-family="Times,serif" font-size="14.00">ErrorComponent</text>
</g>
<!-- NotificationsModule -->
<g id="node3" class="node">
<title>NotificationsModule</title>
<polygon fill="#8dd3c7" stroke="black" points="487.14,-187 484.14,-191 463.14,-191 460.14,-187 354.86,-187 354.86,-151 487.14,-151 487.14,-187"/>
<text text-anchor="middle" x="421" y="-164.8" font-family="Times,serif" font-size="14.00">NotificationsModule</text>
</g>
<!-- ErrorComponent&#45;&gt;NotificationsModule -->
<g id="edge1" class="edge">
<title>ErrorComponent&#45;&gt;NotificationsModule</title>
<path fill="none" stroke="black" d="M286.24,-122.02C286.24,-139.37 286.24,-163 286.24,-163 286.24,-163 344.8,-163 344.8,-163"/>
<polygon fill="black" stroke="black" points="344.8,-166.5 354.8,-163 344.8,-159.5 344.8,-166.5"/>
</g>
<!-- NotificationsComponent -->
<g id="node2" class="node">
<title>NotificationsComponent</title>
<polygon fill="#ffffb3" stroke="black" points="178.43,-122 23.57,-122 23.57,-86 178.43,-86 178.43,-122"/>
<text text-anchor="middle" x="101" y="-99.8" font-family="Times,serif" font-size="14.00">NotificationsComponent</text>
</g>
<!-- NotificationsComponent&#45;&gt;NotificationsModule -->
<g id="edge2" class="edge">
<title>NotificationsComponent&#45;&gt;NotificationsModule</title>
<path fill="none" stroke="black" d="M101,-122.28C101,-143.32 101,-175 101,-175 101,-175 344.7,-175 344.7,-175"/>
<polygon fill="black" stroke="black" points="344.7,-178.5 354.7,-175 344.7,-171.5 344.7,-178.5"/>
</g>
<!-- ErrorComponent  -->
<g id="node6" class="node">
<title>ErrorComponent </title>
<polygon fill="#fb8072" stroke="black" points="555.37,-252 440.63,-252 440.63,-216 555.37,-216 555.37,-252"/>
<text text-anchor="middle" x="498" y="-229.8" font-family="Times,serif" font-size="14.00">ErrorComponent </text>
</g>
<!-- NotificationsModule&#45;&gt;ErrorComponent  -->
<g id="edge5" class="edge">
<title>NotificationsModule&#45;&gt;ErrorComponent </title>
<path fill="none" stroke="black" stroke-dasharray="5,2" d="M464.07,-187.11C464.07,-187.11 464.07,-205.99 464.07,-205.99"/>
<polygon fill="black" stroke="black" points="460.57,-205.99 464.07,-215.99 467.57,-205.99 460.57,-205.99"/>
</g>
<!-- NotificationsComponent  -->
<g id="node7" class="node">
<title>NotificationsComponent </title>
<polygon fill="#fb8072" stroke="black" points="422.93,-252 265.07,-252 265.07,-216 422.93,-216 422.93,-252"/>
<text text-anchor="middle" x="344" y="-229.8" font-family="Times,serif" font-size="14.00">NotificationsComponent </text>
</g>
<!-- NotificationsModule&#45;&gt;NotificationsComponent  -->
<g id="edge6" class="edge">
<title>NotificationsModule&#45;&gt;NotificationsComponent </title>
<path fill="none" stroke="black" stroke-dasharray="5,2" d="M388.82,-187.11C388.82,-187.11 388.82,-205.99 388.82,-205.99"/>
<polygon fill="black" stroke="black" points="385.32,-205.99 388.82,-215.99 392.32,-205.99 385.32,-205.99"/>
</g>
<!-- IconModule -->
<g id="node4" class="node">
<title>IconModule</title>
<polygon fill="#8dd3c7" stroke="black" points="719.43,-122 716.43,-126 695.43,-126 692.43,-122 634.57,-122 634.57,-86 719.43,-86 719.43,-122"/>
<text text-anchor="middle" x="677" y="-99.8" font-family="Times,serif" font-size="14.00">IconModule</text>
</g>
<!-- IconModule&#45;&gt;NotificationsModule -->
<g id="edge3" class="edge">
<title>IconModule&#45;&gt;NotificationsModule</title>
<path fill="none" stroke="black" d="M677,-122.28C677,-143.32 677,-175 677,-175 677,-175 497.26,-175 497.26,-175"/>
<polygon fill="black" stroke="black" points="497.26,-171.5 487.26,-175 497.26,-178.5 497.26,-171.5"/>
</g>
<!-- PopModule -->
<g id="node5" class="node">
<title>PopModule</title>
<polygon fill="#8dd3c7" stroke="black" points="616.83,-122 613.83,-126 592.83,-126 589.83,-122 535.17,-122 535.17,-86 616.83,-86 616.83,-122"/>
<text text-anchor="middle" x="576" y="-99.8" font-family="Times,serif" font-size="14.00">PopModule</text>
</g>
<!-- PopModule&#45;&gt;NotificationsModule -->
<g id="edge4" class="edge">
<title>PopModule&#45;&gt;NotificationsModule</title>
<path fill="none" stroke="black" d="M545.26,-122.02C545.26,-139.37 545.26,-163 545.26,-163 545.26,-163 497.49,-163 497.49,-163"/>
<polygon fill="black" stroke="black" points="497.49,-159.5 487.49,-163 497.49,-166.5 497.49,-159.5"/>
</g>
<!-- NotificationsService -->
<g id="node8" class="node">
<title>NotificationsService</title>
<ellipse fill="#fdb462" stroke="black" cx="421" cy="-104" rx="90.32" ry="18"/>
<text text-anchor="middle" x="421" y="-99.8" font-family="Times,serif" font-size="14.00">NotificationsService</text>
</g>
<!-- NotificationsService&#45;&gt;NotificationsModule -->
<g id="edge7" class="edge">
<title>NotificationsService&#45;&gt;NotificationsModule</title>
<path fill="none" stroke="black" d="M421,-122.11C421,-122.11 421,-140.99 421,-140.99"/>
<polygon fill="black" stroke="black" points="417.5,-140.99 421,-150.99 424.5,-140.99 417.5,-140.99"/>
</g>
</g>
</svg>
