<?xml version="1.0" encoding="UTF-8" standalone="no"?>
<!DOCTYPE svg PUBLIC "-//W3C//DTD SVG 1.1//EN"
 "http://www.w3.org/Graphics/SVG/1.1/DTD/svg11.dtd">
<!-- Generated by graphviz version 2.47.0 (20210316.0004)
 -->
<!-- Title: dependencies Pages: 1 -->
<svg width="751pt" height="284pt"
 viewBox="0.00 0.00 751.00 284.00" xmlns="http://www.w3.org/2000/svg" xmlns:xlink="http://www.w3.org/1999/xlink">
<g id="graph0" class="graph" transform="scale(1 1) rotate(0) translate(4 280)">
<title>dependencies</title>
<polygon fill="white" stroke="transparent" points="-4,4 -4,-280 747,-280 747,4 -4,4"/>
<text text-anchor="start" x="350.51" y="-42.4" font-family="sans-serif" font-weight="bold" font-size="14.00">Legend</text>
<polygon fill="#ffffb3" stroke="transparent" points="137.5,-10 137.5,-30 157.5,-30 157.5,-10 137.5,-10"/>
<text text-anchor="start" x="161.13" y="-15.4" font-family="sans-serif" font-size="14.00"> &#160;Declarations</text>
<polygon fill="#8dd3c7" stroke="transparent" points="250.5,-10 250.5,-30 270.5,-30 270.5,-10 250.5,-10"/>
<text text-anchor="start" x="274.23" y="-15.4" font-family="sans-serif" font-size="14.00"> &#160;Module</text>
<polygon fill="#80b1d3" stroke="transparent" points="336.5,-10 336.5,-30 356.5,-30 356.5,-10 336.5,-10"/>
<text text-anchor="start" x="360.28" y="-15.4" font-family="sans-serif" font-size="14.00"> &#160;Bootstrap</text>
<polygon fill="#fdb462" stroke="transparent" points="433.5,-10 433.5,-30 453.5,-30 453.5,-10 433.5,-10"/>
<text text-anchor="start" x="457.17" y="-15.4" font-family="sans-serif" font-size="14.00"> &#160;Providers</text>
<polygon fill="#fb8072" stroke="transparent" points="529.5,-10 529.5,-30 549.5,-30 549.5,-10 529.5,-10"/>
<text text-anchor="start" x="553.23" y="-15.4" font-family="sans-serif" font-size="14.00"> &#160;Exports</text>
<g id="clust1" class="cluster">
<title>cluster_NotificationsModule</title>
<polygon fill="none" stroke="black" stroke-dasharray="1,5" points="8,-70 8,-268 735,-268 735,-70 8,-70"/>
</g>
<g id="clust6" class="cluster">
<title>cluster_NotificationsModule_exports</title>
<polygon fill="none" stroke="black" points="292,-208 292,-260 598,-260 598,-208 292,-208"/>
</g>
<g id="clust5" class="cluster">
<title>cluster_NotificationsModule_imports</title>
<polygon fill="none" stroke="black" points="527,-78 527,-130 727,-130 727,-78 527,-78"/>
</g>
<g id="clust2" class="cluster">
<title>cluster_NotificationsModule_declarations</title>
<polygon fill="none" stroke="black" points="220,-78 220,-130 519,-130 519,-78 220,-78"/>
</g>
<g id="clust8" class="cluster">
<title>cluster_NotificationsModule_providers</title>
<polygon fill="none" stroke="black" points="16,-78 16,-130 212,-130 212,-78 16,-78"/>
</g>
<!-- ErrorComponent -->
<g id="node1" class="node">
<title>ErrorComponent</title>
<polygon fill="#ffffb3" stroke="black" points="511.37,-122 400.63,-122 400.63,-86 511.37,-86 511.37,-122"/>
<text text-anchor="middle" x="456" y="-99.8" font-family="Times,serif" font-size="14.00">ErrorComponent</text>
</g>
<!-- NotificationsModule -->
<g id="node3" class="node">
<title>NotificationsModule</title>
<polygon fill="#8dd3c7" stroke="black" points="522.14,-187 519.14,-191 498.14,-191 495.14,-187 389.86,-187 389.86,-151 522.14,-151 522.14,-187"/>
<text text-anchor="middle" x="456" y="-164.8" font-family="Times,serif" font-size="14.00">NotificationsModule</text>
</g>
<!-- ErrorComponent&#45;&gt;NotificationsModule -->
<g id="edge1" class="edge">
<title>ErrorComponent&#45;&gt;NotificationsModule</title>
<path fill="none" stroke="black" d="M456,-122.11C456,-122.11 456,-140.99 456,-140.99"/>
<polygon fill="black" stroke="black" points="452.5,-140.99 456,-150.99 459.5,-140.99 452.5,-140.99"/>
</g>
<!-- NotificationsComponent -->
<g id="node2" class="node">
<title>NotificationsComponent</title>
<polygon fill="#ffffb3" stroke="black" points="382.43,-122 227.57,-122 227.57,-86 382.43,-86 382.43,-122"/>
<text text-anchor="middle" x="305" y="-99.8" font-family="Times,serif" font-size="14.00">NotificationsComponent</text>
</g>
<!-- NotificationsComponent&#45;&gt;NotificationsModule -->
<g id="edge2" class="edge">
<title>NotificationsComponent&#45;&gt;NotificationsModule</title>
<path fill="none" stroke="black" d="M382.59,-104C390.17,-104 395.12,-104 395.12,-104 395.12,-104 395.12,-140.89 395.12,-140.89"/>
<polygon fill="black" stroke="black" points="391.62,-140.89 395.12,-150.89 398.62,-140.89 391.62,-140.89"/>
</g>
<!-- ErrorComponent  -->
<g id="node6" class="node">
<title>ErrorComponent </title>
<polygon fill="#fb8072" stroke="black" points="590.37,-252 475.63,-252 475.63,-216 590.37,-216 590.37,-252"/>
<text text-anchor="middle" x="533" y="-229.8" font-family="Times,serif" font-size="14.00">ErrorComponent </text>
</g>
<!-- NotificationsModule&#45;&gt;ErrorComponent  -->
<g id="edge5" class="edge">
<title>NotificationsModule&#45;&gt;ErrorComponent </title>
<path fill="none" stroke="black" stroke-dasharray="5,2" d="M499.07,-187.11C499.07,-187.11 499.07,-205.99 499.07,-205.99"/>
<polygon fill="black" stroke="black" points="495.57,-205.99 499.07,-215.99 502.57,-205.99 495.57,-205.99"/>
</g>
<!-- NotificationsComponent  -->
<g id="node7" class="node">
<title>NotificationsComponent </title>
<polygon fill="#fb8072" stroke="black" points="457.93,-252 300.07,-252 300.07,-216 457.93,-216 457.93,-252"/>
<text text-anchor="middle" x="379" y="-229.8" font-family="Times,serif" font-size="14.00">NotificationsComponent </text>
</g>
<!-- NotificationsModule&#45;&gt;NotificationsComponent  -->
<g id="edge6" class="edge">
<title>NotificationsModule&#45;&gt;NotificationsComponent </title>
<path fill="none" stroke="black" stroke-dasharray="5,2" d="M423.82,-187.11C423.82,-187.11 423.82,-205.99 423.82,-205.99"/>
<polygon fill="black" stroke="black" points="420.32,-205.99 423.82,-215.99 427.32,-205.99 420.32,-205.99"/>
</g>
<!-- IconModule -->
<g id="node4" class="node">
<title>IconModule</title>
<polygon fill="#8dd3c7" stroke="black" points="719.43,-122 716.43,-126 695.43,-126 692.43,-122 634.57,-122 634.57,-86 719.43,-86 719.43,-122"/>
<text text-anchor="middle" x="677" y="-99.8" font-family="Times,serif" font-size="14.00">IconModule</text>
</g>
<!-- IconModule&#45;&gt;NotificationsModule -->
<g id="edge3" class="edge">
<title>IconModule&#45;&gt;NotificationsModule</title>
<path fill="none" stroke="black" d="M677,-122.11C677,-141.34 677,-169 677,-169 677,-169 532.31,-169 532.31,-169"/>
<polygon fill="black" stroke="black" points="532.31,-165.5 522.31,-169 532.31,-172.5 532.31,-165.5"/>
</g>
<!-- PopModule -->
<g id="node5" class="node">
<title>PopModule</title>
<polygon fill="#8dd3c7" stroke="black" points="616.83,-122 613.83,-126 592.83,-126 589.83,-122 535.17,-122 535.17,-86 616.83,-86 616.83,-122"/>
<text text-anchor="middle" x="576" y="-99.8" font-family="Times,serif" font-size="14.00">PopModule</text>
</g>
<!-- PopModule&#45;&gt;NotificationsModule -->
<g id="edge4" class="edge">
<title>PopModule&#45;&gt;NotificationsModule</title>
<path fill="none" stroke="black" d="M535.26,-104C525.02,-104 516.88,-104 516.88,-104 516.88,-104 516.88,-140.89 516.88,-140.89"/>
<polygon fill="black" stroke="black" points="513.38,-140.89 516.88,-150.89 520.38,-140.89 513.38,-140.89"/>
</g>
<!-- NotificationsService -->
<g id="node8" class="node">
<title>NotificationsService</title>
<ellipse fill="#fdb462" stroke="black" cx="114" cy="-104" rx="90.32" ry="18"/>
<text text-anchor="middle" x="114" y="-99.8" font-family="Times,serif" font-size="14.00">NotificationsService</text>
</g>
<!-- NotificationsService&#45;&gt;NotificationsModule -->
<g id="edge7" class="edge">
<title>NotificationsService&#45;&gt;NotificationsModule</title>
<path fill="none" stroke="black" d="M114,-122.11C114,-141.34 114,-169 114,-169 114,-169 379.65,-169 379.65,-169"/>
<polygon fill="black" stroke="black" points="379.65,-172.5 389.65,-169 379.65,-165.5 379.65,-172.5"/>
</g>
</g>
</svg>
