<?xml version="1.0" encoding="UTF-8" standalone="no"?>
<!DOCTYPE svg PUBLIC "-//W3C//DTD SVG 1.1//EN"
 "http://www.w3.org/Graphics/SVG/1.1/DTD/svg11.dtd">
<!-- Generated by graphviz version 2.47.0 (20210316.0004)
 -->
<!-- Title: dependencies Pages: 1 -->
<svg width="751pt" height="284pt"
 viewBox="0.00 0.00 751.00 284.00" xmlns="http://www.w3.org/2000/svg" xmlns:xlink="http://www.w3.org/1999/xlink">
<g id="graph0" class="graph" transform="scale(1 1) rotate(0) translate(4 280)">
<title>dependencies</title>
<polygon fill="white" stroke="transparent" points="-4,4 -4,-280 747,-280 747,4 -4,4"/>
<text text-anchor="start" x="350.51" y="-42.4" font-family="sans-serif" font-weight="bold" font-size="14.00">Legend</text>
<polygon fill="#ffffb3" stroke="transparent" points="137.5,-10 137.5,-30 157.5,-30 157.5,-10 137.5,-10"/>
<text text-anchor="start" x="161.13" y="-15.4" font-family="sans-serif" font-size="14.00"> &#160;Declarations</text>
<polygon fill="#8dd3c7" stroke="transparent" points="250.5,-10 250.5,-30 270.5,-30 270.5,-10 250.5,-10"/>
<text text-anchor="start" x="274.23" y="-15.4" font-family="sans-serif" font-size="14.00"> &#160;Module</text>
<polygon fill="#80b1d3" stroke="transparent" points="336.5,-10 336.5,-30 356.5,-30 356.5,-10 336.5,-10"/>
<text text-anchor="start" x="360.28" y="-15.4" font-family="sans-serif" font-size="14.00"> &#160;Bootstrap</text>
<polygon fill="#fdb462" stroke="transparent" points="433.5,-10 433.5,-30 453.5,-30 453.5,-10 433.5,-10"/>
<text text-anchor="start" x="457.17" y="-15.4" font-family="sans-serif" font-size="14.00"> &#160;Providers</text>
<polygon fill="#fb8072" stroke="transparent" points="529.5,-10 529.5,-30 549.5,-30 549.5,-10 529.5,-10"/>
<text text-anchor="start" x="553.23" y="-15.4" font-family="sans-serif" font-size="14.00"> &#160;Exports</text>
<g id="clust1" class="cluster">
<title>cluster_NotificationsModule</title>
<polygon fill="none" stroke="black" stroke-dasharray="1,5" points="8,-70 8,-268 735,-268 735,-70 8,-70"/>
</g>
<g id="clust8" class="cluster">
<title>cluster_NotificationsModule_providers</title>
<polygon fill="none" stroke="black" points="531,-78 531,-130 727,-130 727,-78 531,-78"/>
</g>
<g id="clust5" class="cluster">
<title>cluster_NotificationsModule_imports</title>
<polygon fill="none" stroke="black" points="323,-78 323,-130 523,-130 523,-78 323,-78"/>
</g>
<g id="clust6" class="cluster">
<title>cluster_NotificationsModule_exports</title>
<polygon fill="none" stroke="black" points="208,-208 208,-260 514,-260 514,-208 208,-208"/>
</g>
<g id="clust2" class="cluster">
<title>cluster_NotificationsModule_declarations</title>
<polygon fill="none" stroke="black" points="16,-78 16,-130 315,-130 315,-78 16,-78"/>
</g>
<!-- ErrorComponent -->
<g id="node1" class="node">
<title>ErrorComponent</title>
<polygon fill="#ffffb3" stroke="black" points="307.37,-122 196.63,-122 196.63,-86 307.37,-86 307.37,-122"/>
<text text-anchor="middle" x="252" y="-99.8" font-family="Times,serif" font-size="14.00">ErrorComponent</text>
</g>
<!-- NotificationsModule -->
<g id="node3" class="node">
<title>NotificationsModule</title>
<polygon fill="#8dd3c7" stroke="black" points="438.14,-187 435.14,-191 414.14,-191 411.14,-187 305.86,-187 305.86,-151 438.14,-151 438.14,-187"/>
<text text-anchor="middle" x="372" y="-164.8" font-family="Times,serif" font-size="14.00">NotificationsModule</text>
</g>
<!-- ErrorComponent&#45;&gt;NotificationsModule -->
<g id="edge1" class="edge">
<title>ErrorComponent&#45;&gt;NotificationsModule</title>
<path fill="none" stroke="black" d="M307.65,-104C314.63,-104 319.38,-104 319.38,-104 319.38,-104 319.38,-140.89 319.38,-140.89"/>
<polygon fill="black" stroke="black" points="315.88,-140.89 319.38,-150.89 322.88,-140.89 315.88,-140.89"/>
</g>
<!-- NotificationsComponent -->
<g id="node2" class="node">
<title>NotificationsComponent</title>
<polygon fill="#ffffb3" stroke="black" points="178.43,-122 23.57,-122 23.57,-86 178.43,-86 178.43,-122"/>
<text text-anchor="middle" x="101" y="-99.8" font-family="Times,serif" font-size="14.00">NotificationsComponent</text>
</g>
<!-- NotificationsComponent&#45;&gt;NotificationsModule -->
<g id="edge2" class="edge">
<title>NotificationsComponent&#45;&gt;NotificationsModule</title>
<path fill="none" stroke="black" d="M101,-122.11C101,-141.34 101,-169 101,-169 101,-169 295.71,-169 295.71,-169"/>
<polygon fill="black" stroke="black" points="295.71,-172.5 305.71,-169 295.71,-165.5 295.71,-172.5"/>
</g>
<!-- ErrorComponent  -->
<g id="node6" class="node">
<title>ErrorComponent </title>
<polygon fill="#fb8072" stroke="black" points="506.37,-252 391.63,-252 391.63,-216 506.37,-216 506.37,-252"/>
<text text-anchor="middle" x="449" y="-229.8" font-family="Times,serif" font-size="14.00">ErrorComponent </text>
</g>
<!-- NotificationsModule&#45;&gt;ErrorComponent  -->
<g id="edge5" class="edge">
<title>NotificationsModule&#45;&gt;ErrorComponent </title>
<path fill="none" stroke="black" stroke-dasharray="5,2" d="M415.07,-187.11C415.07,-187.11 415.07,-205.99 415.07,-205.99"/>
<polygon fill="black" stroke="black" points="411.57,-205.99 415.07,-215.99 418.57,-205.99 411.57,-205.99"/>
</g>
<!-- NotificationsComponent  -->
<g id="node7" class="node">
<title>NotificationsComponent </title>
<polygon fill="#fb8072" stroke="black" points="373.93,-252 216.07,-252 216.07,-216 373.93,-216 373.93,-252"/>
<text text-anchor="middle" x="295" y="-229.8" font-family="Times,serif" font-size="14.00">NotificationsComponent </text>
</g>
<!-- NotificationsModule&#45;&gt;NotificationsComponent  -->
<g id="edge6" class="edge">
<title>NotificationsModule&#45;&gt;NotificationsComponent </title>
<path fill="none" stroke="black" stroke-dasharray="5,2" d="M339.82,-187.11C339.82,-187.11 339.82,-205.99 339.82,-205.99"/>
<polygon fill="black" stroke="black" points="336.32,-205.99 339.82,-215.99 343.32,-205.99 336.32,-205.99"/>
</g>
<!-- IconModule -->
<g id="node4" class="node">
<title>IconModule</title>
<polygon fill="#8dd3c7" stroke="black" points="515.43,-122 512.43,-126 491.43,-126 488.43,-122 430.57,-122 430.57,-86 515.43,-86 515.43,-122"/>
<text text-anchor="middle" x="473" y="-99.8" font-family="Times,serif" font-size="14.00">IconModule</text>
</g>
<!-- IconModule&#45;&gt;NotificationsModule -->
<g id="edge3" class="edge">
<title>IconModule&#45;&gt;NotificationsModule</title>
<path fill="none" stroke="black" d="M434.55,-122.11C434.55,-122.11 434.55,-140.99 434.55,-140.99"/>
<polygon fill="black" stroke="black" points="431.05,-140.99 434.55,-150.99 438.05,-140.99 431.05,-140.99"/>
</g>
<!-- PopModule -->
<g id="node5" class="node">
<title>PopModule</title>
<polygon fill="#8dd3c7" stroke="black" points="412.83,-122 409.83,-126 388.83,-126 385.83,-122 331.17,-122 331.17,-86 412.83,-86 412.83,-122"/>
<text text-anchor="middle" x="372" y="-99.8" font-family="Times,serif" font-size="14.00">PopModule</text>
</g>
<!-- PopModule&#45;&gt;NotificationsModule -->
<g id="edge4" class="edge">
<title>PopModule&#45;&gt;NotificationsModule</title>
<path fill="none" stroke="black" d="M372,-122.11C372,-122.11 372,-140.99 372,-140.99"/>
<polygon fill="black" stroke="black" points="368.5,-140.99 372,-150.99 375.5,-140.99 368.5,-140.99"/>
</g>
<!-- NotificationsService -->
<g id="node8" class="node">
<title>NotificationsService</title>
<ellipse fill="#fdb462" stroke="black" cx="629" cy="-104" rx="90.32" ry="18"/>
<text text-anchor="middle" x="629" y="-99.8" font-family="Times,serif" font-size="14.00">NotificationsService</text>
</g>
<!-- NotificationsService&#45;&gt;NotificationsModule -->
<g id="edge7" class="edge">
<title>NotificationsService&#45;&gt;NotificationsModule</title>
<path fill="none" stroke="black" d="M629,-122.11C629,-141.34 629,-169 629,-169 629,-169 448.18,-169 448.18,-169"/>
<polygon fill="black" stroke="black" points="448.18,-165.5 438.18,-169 448.18,-172.5 448.18,-165.5"/>
</g>
</g>
</svg>
