<?xml version="1.0" encoding="UTF-8" standalone="no"?>
<!DOCTYPE svg PUBLIC "-//W3C//DTD SVG 1.1//EN"
 "http://www.w3.org/Graphics/SVG/1.1/DTD/svg11.dtd">
<!-- Generated by graphviz version 2.40.1 (20161225.0304)
 -->
<!-- Title: dependencies Pages: 1 -->
<svg width="649pt" height="284pt"
 viewBox="0.00 0.00 649.00 284.00" xmlns="http://www.w3.org/2000/svg" xmlns:xlink="http://www.w3.org/1999/xlink">
<g id="graph0" class="graph" transform="scale(1 1) rotate(0) translate(4 280)">
<title>dependencies</title>
<polygon fill="#ffffff" stroke="transparent" points="-4,4 -4,-280 645,-280 645,4 -4,4"/>
<text text-anchor="start" x="299.5091" y="-42.4" font-family="sans-serif" font-weight="bold" font-size="14.00" fill="#000000">Legend</text>
<polygon fill="#ffffb3" stroke="transparent" points="86.5,-10 86.5,-30 106.5,-30 106.5,-10 86.5,-10"/>
<text text-anchor="start" x="110.129" y="-15.4" font-family="sans-serif" font-size="14.00" fill="#000000"> &#160;Declarations</text>
<polygon fill="#8dd3c7" stroke="transparent" points="199.5,-10 199.5,-30 219.5,-30 219.5,-10 199.5,-10"/>
<text text-anchor="start" x="223.2251" y="-15.4" font-family="sans-serif" font-size="14.00" fill="#000000"> &#160;Module</text>
<polygon fill="#80b1d3" stroke="transparent" points="285.5,-10 285.5,-30 305.5,-30 305.5,-10 285.5,-10"/>
<text text-anchor="start" x="309.2812" y="-15.4" font-family="sans-serif" font-size="14.00" fill="#000000"> &#160;Bootstrap</text>
<polygon fill="#fdb462" stroke="transparent" points="382.5,-10 382.5,-30 402.5,-30 402.5,-10 382.5,-10"/>
<text text-anchor="start" x="406.1732" y="-15.4" font-family="sans-serif" font-size="14.00" fill="#000000"> &#160;Providers</text>
<polygon fill="#fb8072" stroke="transparent" points="478.5,-10 478.5,-30 498.5,-30 498.5,-10 478.5,-10"/>
<text text-anchor="start" x="502.2258" y="-15.4" font-family="sans-serif" font-size="14.00" fill="#000000"> &#160;Exports</text>
<g id="clust1" class="cluster">
<title>cluster_NotificationsModule</title>
<polygon fill="none" stroke="#000000" stroke-dasharray="1,5" points="8,-70 8,-268 633,-268 633,-70 8,-70"/>
</g>
<g id="clust2" class="cluster">
<title>cluster_NotificationsModule_declarations</title>
<polygon fill="none" stroke="#000000" points="326,-78 326,-130 625,-130 625,-78 326,-78"/>
</g>
<g id="clust5" class="cluster">
<title>cluster_NotificationsModule_imports</title>
<polygon fill="none" stroke="#000000" points="220,-78 220,-130 318,-130 318,-78 220,-78"/>
</g>
<g id="clust6" class="cluster">
<title>cluster_NotificationsModule_exports</title>
<polygon fill="none" stroke="#000000" points="187,-208 187,-260 493,-260 493,-208 187,-208"/>
</g>
<g id="clust8" class="cluster">
<title>cluster_NotificationsModule_providers</title>
<polygon fill="none" stroke="#000000" points="16,-78 16,-130 212,-130 212,-78 16,-78"/>
</g>
<!-- NotificationsComponent -->
<g id="node1" class="node">
<title>NotificationsComponent</title>
<polygon fill="#ffffb3" stroke="#000000" points="617.427,-122 462.573,-122 462.573,-86 617.427,-86 617.427,-122"/>
<text text-anchor="middle" x="540" y="-99.8" font-family="Times,serif" font-size="14.00" fill="#000000">NotificationsComponent</text>
</g>
<!-- NotificationsModule -->
<g id="node3" class="node">
<title>NotificationsModule</title>
<polygon fill="#8dd3c7" stroke="#000000" points="395.1443,-187 392.1443,-191 371.1443,-191 368.1443,-187 262.8557,-187 262.8557,-151 395.1443,-151 395.1443,-187"/>
<text text-anchor="middle" x="329" y="-164.8" font-family="Times,serif" font-size="14.00" fill="#000000">NotificationsModule</text>
</g>
<!-- NotificationsComponent&#45;&gt;NotificationsModule -->
<g id="edge1" class="edge">
<title>NotificationsComponent&#45;&gt;NotificationsModule</title>
<path fill="none" stroke="#000000" d="M473.875,-122.1061C473.875,-141.3391 473.875,-169 473.875,-169 473.875,-169 405.5013,-169 405.5013,-169"/>
<polygon fill="#000000" stroke="#000000" points="405.5013,-165.5001 395.5013,-169 405.5013,-172.5001 405.5013,-165.5001"/>
</g>
<!-- ErrorComponent -->
<g id="node2" class="node">
<title>ErrorComponent</title>
<polygon fill="#ffffb3" stroke="#000000" points="444.3669,-122 333.6331,-122 333.6331,-86 444.3669,-86 444.3669,-122"/>
<text text-anchor="middle" x="389" y="-99.8" font-family="Times,serif" font-size="14.00" fill="#000000">ErrorComponent</text>
</g>
<!-- ErrorComponent&#45;&gt;NotificationsModule -->
<g id="edge2" class="edge">
<title>ErrorComponent&#45;&gt;NotificationsModule</title>
<path fill="none" stroke="#000000" d="M364.4443,-122.1061C364.4443,-122.1061 364.4443,-140.991 364.4443,-140.991"/>
<polygon fill="#000000" stroke="#000000" points="360.9443,-140.9909 364.4443,-150.991 367.9443,-140.991 360.9443,-140.9909"/>
</g>
<!-- NotificationsComponent  -->
<g id="node5" class="node">
<title>NotificationsComponent </title>
<polygon fill="#fb8072" stroke="#000000" points="484.9264,-252 327.0736,-252 327.0736,-216 484.9264,-216 484.9264,-252"/>
<text text-anchor="middle" x="406" y="-229.8" font-family="Times,serif" font-size="14.00" fill="#000000">NotificationsComponent </text>
</g>
<!-- NotificationsModule&#45;&gt;NotificationsComponent  -->
<g id="edge4" class="edge">
<title>NotificationsModule&#45;&gt;NotificationsComponent </title>
<path fill="none" stroke="#000000" stroke-dasharray="5,2" d="M361.1794,-187.1061C361.1794,-187.1061 361.1794,-205.991 361.1794,-205.991"/>
<polygon fill="#000000" stroke="#000000" points="357.6794,-205.9909 361.1794,-215.991 364.6794,-205.991 357.6794,-205.9909"/>
</g>
<!-- ErrorComponent  -->
<g id="node6" class="node">
<title>ErrorComponent </title>
<polygon fill="#fb8072" stroke="#000000" points="309.3674,-252 194.6326,-252 194.6326,-216 309.3674,-216 309.3674,-252"/>
<text text-anchor="middle" x="252" y="-229.8" font-family="Times,serif" font-size="14.00" fill="#000000">ErrorComponent </text>
</g>
<!-- NotificationsModule&#45;&gt;ErrorComponent  -->
<g id="edge5" class="edge">
<title>NotificationsModule&#45;&gt;ErrorComponent </title>
<path fill="none" stroke="#000000" stroke-dasharray="5,2" d="M285.9308,-187.1061C285.9308,-187.1061 285.9308,-205.991 285.9308,-205.991"/>
<polygon fill="#000000" stroke="#000000" points="282.4308,-205.9909 285.9308,-215.991 289.4308,-205.991 282.4308,-205.9909"/>
</g>
<!-- PopModule -->
<g id="node4" class="node">
<title>PopModule</title>
<polygon fill="#8dd3c7" stroke="#000000" points="309.8331,-122 306.8331,-126 285.8331,-126 282.8331,-122 228.1669,-122 228.1669,-86 309.8331,-86 309.8331,-122"/>
<text text-anchor="middle" x="269" y="-99.8" font-family="Times,serif" font-size="14.00" fill="#000000">PopModule</text>
</g>
<!-- PopModule&#45;&gt;NotificationsModule -->
<g id="edge3" class="edge">
<title>PopModule&#45;&gt;NotificationsModule</title>
<path fill="none" stroke="#000000" d="M286.1722,-122.1061C286.1722,-122.1061 286.1722,-140.991 286.1722,-140.991"/>
<polygon fill="#000000" stroke="#000000" points="282.6722,-140.9909 286.1722,-150.991 289.6722,-140.991 282.6722,-140.9909"/>
</g>
<!-- NotificationsService -->
<g id="node7" class="node">
<title>NotificationsService</title>
<ellipse fill="#fdb462" stroke="#000000" cx="114" cy="-104" rx="90.3217" ry="18"/>
<text text-anchor="middle" x="114" y="-99.8" font-family="Times,serif" font-size="14.00" fill="#000000">NotificationsService</text>
</g>
<!-- NotificationsService&#45;&gt;NotificationsModule -->
<g id="edge6" class="edge">
<title>NotificationsService&#45;&gt;NotificationsModule</title>
<path fill="none" stroke="#000000" d="M199.6137,-109.9985C199.6137,-126.0898 199.6137,-169 199.6137,-169 199.6137,-169 252.7907,-169 252.7907,-169"/>
<polygon fill="#000000" stroke="#000000" points="252.7908,-172.5001 262.7907,-169 252.7907,-165.5001 252.7908,-172.5001"/>
</g>
</g>
</svg>
