<?xml version="1.0" encoding="UTF-8" standalone="no"?>
<!DOCTYPE svg PUBLIC "-//W3C//DTD SVG 1.1//EN"
 "http://www.w3.org/Graphics/SVG/1.1/DTD/svg11.dtd">
<!-- Generated by graphviz version 2.40.1 (20161225.0304)
 -->
<!-- Title: dependencies Pages: 1 -->
<svg width="751pt" height="284pt"
 viewBox="0.00 0.00 751.00 284.00" xmlns="http://www.w3.org/2000/svg" xmlns:xlink="http://www.w3.org/1999/xlink">
<g id="graph0" class="graph" transform="scale(1 1) rotate(0) translate(4 280)">
<title>dependencies</title>
<polygon fill="#ffffff" stroke="transparent" points="-4,4 -4,-280 747,-280 747,4 -4,4"/>
<text text-anchor="start" x="350.5091" y="-42.4" font-family="sans-serif" font-weight="bold" font-size="14.00" fill="#000000">Legend</text>
<polygon fill="#ffffb3" stroke="transparent" points="137.5,-10 137.5,-30 157.5,-30 157.5,-10 137.5,-10"/>
<text text-anchor="start" x="161.129" y="-15.4" font-family="sans-serif" font-size="14.00" fill="#000000"> &#160;Declarations</text>
<polygon fill="#8dd3c7" stroke="transparent" points="250.5,-10 250.5,-30 270.5,-30 270.5,-10 250.5,-10"/>
<text text-anchor="start" x="274.2251" y="-15.4" font-family="sans-serif" font-size="14.00" fill="#000000"> &#160;Module</text>
<polygon fill="#80b1d3" stroke="transparent" points="336.5,-10 336.5,-30 356.5,-30 356.5,-10 336.5,-10"/>
<text text-anchor="start" x="360.2812" y="-15.4" font-family="sans-serif" font-size="14.00" fill="#000000"> &#160;Bootstrap</text>
<polygon fill="#fdb462" stroke="transparent" points="433.5,-10 433.5,-30 453.5,-30 453.5,-10 433.5,-10"/>
<text text-anchor="start" x="457.1732" y="-15.4" font-family="sans-serif" font-size="14.00" fill="#000000"> &#160;Providers</text>
<polygon fill="#fb8072" stroke="transparent" points="529.5,-10 529.5,-30 549.5,-30 549.5,-10 529.5,-10"/>
<text text-anchor="start" x="553.2258" y="-15.4" font-family="sans-serif" font-size="14.00" fill="#000000"> &#160;Exports</text>
<g id="clust1" class="cluster">
<title>cluster_NotificationsModule</title>
<polygon fill="none" stroke="#000000" stroke-dasharray="1,5" points="8,-70 8,-268 735,-268 735,-70 8,-70"/>
</g>
<g id="clust2" class="cluster">
<title>cluster_NotificationsModule_declarations</title>
<polygon fill="none" stroke="#000000" points="428,-78 428,-130 727,-130 727,-78 428,-78"/>
</g>
<g id="clust5" class="cluster">
<title>cluster_NotificationsModule_imports</title>
<polygon fill="none" stroke="#000000" points="220,-78 220,-130 420,-130 420,-78 220,-78"/>
</g>
<g id="clust6" class="cluster">
<title>cluster_NotificationsModule_exports</title>
<polygon fill="none" stroke="#000000" points="229,-208 229,-260 535,-260 535,-208 229,-208"/>
</g>
<g id="clust8" class="cluster">
<title>cluster_NotificationsModule_providers</title>
<polygon fill="none" stroke="#000000" points="16,-78 16,-130 212,-130 212,-78 16,-78"/>
</g>
<!-- NotificationsComponent -->
<g id="node1" class="node">
<title>NotificationsComponent</title>
<polygon fill="#ffffb3" stroke="#000000" points="719.427,-122 564.573,-122 564.573,-86 719.427,-86 719.427,-122"/>
<text text-anchor="middle" x="642" y="-99.8" font-family="Times,serif" font-size="14.00" fill="#000000">NotificationsComponent</text>
</g>
<!-- NotificationsModule -->
<g id="node3" class="node">
<title>NotificationsModule</title>
<polygon fill="#8dd3c7" stroke="#000000" points="437.1443,-187 434.1443,-191 413.1443,-191 410.1443,-187 304.8557,-187 304.8557,-151 437.1443,-151 437.1443,-187"/>
<text text-anchor="middle" x="371" y="-164.8" font-family="Times,serif" font-size="14.00" fill="#000000">NotificationsModule</text>
</g>
<!-- NotificationsComponent&#45;&gt;NotificationsModule -->
<g id="edge1" class="edge">
<title>NotificationsComponent&#45;&gt;NotificationsModule</title>
<path fill="none" stroke="#000000" d="M642,-122.1061C642,-141.3391 642,-169 642,-169 642,-169 447.2941,-169 447.2941,-169"/>
<polygon fill="#000000" stroke="#000000" points="447.2941,-165.5001 437.2941,-169 447.294,-172.5001 447.2941,-165.5001"/>
</g>
<!-- ErrorComponent -->
<g id="node2" class="node">
<title>ErrorComponent</title>
<polygon fill="#ffffb3" stroke="#000000" points="546.3669,-122 435.6331,-122 435.6331,-86 546.3669,-86 546.3669,-122"/>
<text text-anchor="middle" x="491" y="-99.8" font-family="Times,serif" font-size="14.00" fill="#000000">ErrorComponent</text>
</g>
<!-- ErrorComponent&#45;&gt;NotificationsModule -->
<g id="edge2" class="edge">
<title>ErrorComponent&#45;&gt;NotificationsModule</title>
<path fill="none" stroke="#000000" d="M435.3537,-104C428.3708,-104 423.6164,-104 423.6164,-104 423.6164,-104 423.6164,-140.8939 423.6164,-140.8939"/>
<polygon fill="#000000" stroke="#000000" points="420.1165,-140.8938 423.6164,-150.8939 427.1165,-140.8939 420.1165,-140.8938"/>
</g>
<!-- NotificationsComponent  -->
<g id="node6" class="node">
<title>NotificationsComponent </title>
<polygon fill="#fb8072" stroke="#000000" points="526.9264,-252 369.0736,-252 369.0736,-216 526.9264,-216 526.9264,-252"/>
<text text-anchor="middle" x="448" y="-229.8" font-family="Times,serif" font-size="14.00" fill="#000000">NotificationsComponent </text>
</g>
<!-- NotificationsModule&#45;&gt;NotificationsComponent  -->
<g id="edge5" class="edge">
<title>NotificationsModule&#45;&gt;NotificationsComponent </title>
<path fill="none" stroke="#000000" stroke-dasharray="5,2" d="M403.1794,-187.1061C403.1794,-187.1061 403.1794,-205.991 403.1794,-205.991"/>
<polygon fill="#000000" stroke="#000000" points="399.6794,-205.9909 403.1794,-215.991 406.6794,-205.991 399.6794,-205.9909"/>
</g>
<!-- ErrorComponent  -->
<g id="node7" class="node">
<title>ErrorComponent </title>
<polygon fill="#fb8072" stroke="#000000" points="351.3674,-252 236.6326,-252 236.6326,-216 351.3674,-216 351.3674,-252"/>
<text text-anchor="middle" x="294" y="-229.8" font-family="Times,serif" font-size="14.00" fill="#000000">ErrorComponent </text>
</g>
<!-- NotificationsModule&#45;&gt;ErrorComponent  -->
<g id="edge6" class="edge">
<title>NotificationsModule&#45;&gt;ErrorComponent </title>
<path fill="none" stroke="#000000" stroke-dasharray="5,2" d="M327.9308,-187.1061C327.9308,-187.1061 327.9308,-205.991 327.9308,-205.991"/>
<polygon fill="#000000" stroke="#000000" points="324.4308,-205.9909 327.9308,-215.991 331.4308,-205.991 324.4308,-205.9909"/>
</g>
<!-- PopModule -->
<g id="node4" class="node">
<title>PopModule</title>
<polygon fill="#8dd3c7" stroke="#000000" points="411.8331,-122 408.8331,-126 387.8331,-126 384.8331,-122 330.1669,-122 330.1669,-86 411.8331,-86 411.8331,-122"/>
<text text-anchor="middle" x="371" y="-99.8" font-family="Times,serif" font-size="14.00" fill="#000000">PopModule</text>
</g>
<!-- PopModule&#45;&gt;NotificationsModule -->
<g id="edge3" class="edge">
<title>PopModule&#45;&gt;NotificationsModule</title>
<path fill="none" stroke="#000000" d="M371,-122.1061C371,-122.1061 371,-140.991 371,-140.991"/>
<polygon fill="#000000" stroke="#000000" points="367.5001,-140.9909 371,-150.991 374.5001,-140.991 367.5001,-140.9909"/>
</g>
<!-- IconModule -->
<g id="node5" class="node">
<title>IconModule</title>
<polygon fill="#8dd3c7" stroke="#000000" points="312.4261,-122 309.4261,-126 288.4261,-126 285.4261,-122 227.5739,-122 227.5739,-86 312.4261,-86 312.4261,-122"/>
<text text-anchor="middle" x="270" y="-99.8" font-family="Times,serif" font-size="14.00" fill="#000000">IconModule</text>
</g>
<!-- IconModule&#45;&gt;NotificationsModule -->
<g id="edge4" class="edge">
<title>IconModule&#45;&gt;NotificationsModule</title>
<path fill="none" stroke="#000000" d="M308.4453,-122.1061C308.4453,-122.1061 308.4453,-140.991 308.4453,-140.991"/>
<polygon fill="#000000" stroke="#000000" points="304.9454,-140.9909 308.4453,-150.991 311.9454,-140.991 304.9454,-140.9909"/>
</g>
<!-- NotificationsService -->
<g id="node8" class="node">
<title>NotificationsService</title>
<ellipse fill="#fdb462" stroke="#000000" cx="114" cy="-104" rx="90.3217" ry="18"/>
<text text-anchor="middle" x="114" y="-99.8" font-family="Times,serif" font-size="14.00" fill="#000000">NotificationsService</text>
</g>
<!-- NotificationsService&#45;&gt;NotificationsModule -->
<g id="edge7" class="edge">
<title>NotificationsService&#45;&gt;NotificationsModule</title>
<path fill="none" stroke="#000000" d="M114,-122.1061C114,-141.3391 114,-169 114,-169 114,-169 294.8161,-169 294.8161,-169"/>
<polygon fill="#000000" stroke="#000000" points="294.8161,-172.5001 304.8161,-169 294.8161,-165.5001 294.8161,-172.5001"/>
</g>
</g>
</svg>
