<?xml version="1.0" encoding="UTF-8" standalone="no"?>
<!DOCTYPE svg PUBLIC "-//W3C//DTD SVG 1.1//EN"
 "http://www.w3.org/Graphics/SVG/1.1/DTD/svg11.dtd">
<!-- Generated by graphviz version 2.40.1 (20161225.0304)
 -->
<!-- Title: dependencies Pages: 1 -->
<svg width="866pt" height="396pt"
 viewBox="0.00 0.00 866.00 395.59" xmlns="http://www.w3.org/2000/svg" xmlns:xlink="http://www.w3.org/1999/xlink">
<g id="graph0" class="graph" transform="scale(1 1) rotate(0) translate(4 391.5901)">
<title>dependencies</title>
<polygon fill="#ffffff" stroke="transparent" points="-4,4 -4,-391.5901 862,-391.5901 862,4 -4,4"/>
<text text-anchor="start" x="408.0091" y="-42.4" font-family="sans-serif" font-weight="bold" font-size="14.00" fill="#000000">Legend</text>
<polygon fill="#ffffb3" stroke="transparent" points="195,-10 195,-30 215,-30 215,-10 195,-10"/>
<text text-anchor="start" x="218.629" y="-15.4" font-family="sans-serif" font-size="14.00" fill="#000000"> &#160;Declarations</text>
<polygon fill="#8dd3c7" stroke="transparent" points="308,-10 308,-30 328,-30 328,-10 308,-10"/>
<text text-anchor="start" x="331.7251" y="-15.4" font-family="sans-serif" font-size="14.00" fill="#000000"> &#160;Module</text>
<polygon fill="#80b1d3" stroke="transparent" points="394,-10 394,-30 414,-30 414,-10 394,-10"/>
<text text-anchor="start" x="417.7812" y="-15.4" font-family="sans-serif" font-size="14.00" fill="#000000"> &#160;Bootstrap</text>
<polygon fill="#fdb462" stroke="transparent" points="491,-10 491,-30 511,-30 511,-10 491,-10"/>
<text text-anchor="start" x="514.6732" y="-15.4" font-family="sans-serif" font-size="14.00" fill="#000000"> &#160;Providers</text>
<polygon fill="#fb8072" stroke="transparent" points="587,-10 587,-30 607,-30 607,-10 587,-10"/>
<text text-anchor="start" x="610.7258" y="-15.4" font-family="sans-serif" font-size="14.00" fill="#000000"> &#160;Exports</text>
<g id="clust1" class="cluster">
<title>cluster_AceModule</title>
<polygon fill="none" stroke="#000000" stroke-dasharray="1,5" points="8,-70 8,-379.5901 850,-379.5901 850,-70 8,-70"/>
</g>
<g id="clust2" class="cluster">
<title>cluster_AceModule_declarations</title>
<polygon fill="none" stroke="#000000" points="369,-189.5901 369,-241.5901 489,-241.5901 489,-189.5901 369,-189.5901"/>
</g>
<g id="clust3" class="cluster">
<title>cluster_AceModule_AceComponent_providers</title>
<polygon fill="none" stroke="#000000" points="16,-78 16,-176.5901 842,-176.5901 842,-78 16,-78"/>
</g>
<g id="clust4" class="cluster">
<title>cluster_AceModule_imports</title>
<polygon fill="none" stroke="#000000" points="271,-189.5901 271,-241.5901 361,-241.5901 361,-189.5901 271,-189.5901"/>
</g>
<g id="clust5" class="cluster">
<title>cluster_AceModule_exports</title>
<polygon fill="none" stroke="#000000" points="310,-319.5901 310,-371.5901 434,-371.5901 434,-319.5901 310,-319.5901"/>
</g>
<!-- AceComponent -->
<g id="node1" class="node">
<title>AceComponent</title>
<polygon fill="#ffffb3" stroke="#000000" points="480.8683,-233.5901 377.1317,-233.5901 377.1317,-197.5901 480.8683,-197.5901 480.8683,-233.5901"/>
<text text-anchor="middle" x="429" y="-211.3901" font-family="Times,serif" font-size="14.00" fill="#000000">AceComponent</text>
</g>
<!-- AceModule -->
<g id="node2" class="node">
<title>AceModule</title>
<polygon fill="#8dd3c7" stroke="#000000" points="413.0856,-298.5901 410.0856,-302.5901 389.0856,-302.5901 386.0856,-298.5901 330.9144,-298.5901 330.9144,-262.5901 413.0856,-262.5901 413.0856,-298.5901"/>
<text text-anchor="middle" x="372" y="-276.3901" font-family="Times,serif" font-size="14.00" fill="#000000">AceModule</text>
</g>
<!-- AceComponent&#45;&gt;AceModule -->
<g id="edge1" class="edge">
<title>AceComponent&#45;&gt;AceModule</title>
<path fill="none" stroke="#000000" d="M395.0544,-233.6962C395.0544,-233.6962 395.0544,-252.581 395.0544,-252.581"/>
<polygon fill="#000000" stroke="#000000" points="391.5544,-252.581 395.0544,-262.581 398.5544,-252.5811 391.5544,-252.581"/>
</g>
<!-- AceComponent  -->
<g id="node5" class="node">
<title>AceComponent </title>
<polygon fill="#fb8072" stroke="#000000" points="425.8688,-363.5901 318.1312,-363.5901 318.1312,-327.5901 425.8688,-327.5901 425.8688,-363.5901"/>
<text text-anchor="middle" x="372" y="-341.3901" font-family="Times,serif" font-size="14.00" fill="#000000">AceComponent </text>
</g>
<!-- AceModule&#45;&gt;AceComponent  -->
<g id="edge4" class="edge">
<title>AceModule&#45;&gt;AceComponent </title>
<path fill="none" stroke="#000000" stroke-dasharray="5,2" d="M372,-298.6962C372,-298.6962 372,-317.581 372,-317.581"/>
<polygon fill="#000000" stroke="#000000" points="368.5001,-317.581 372,-327.581 375.5001,-317.5811 368.5001,-317.581"/>
</g>
<!-- {
 &#160;&#160;&#160;provide: NG_VALUE_ACCESSOR, useExisting: forwardRef(() =&gt; AceComponent), multi: true
} -->
<g id="node3" class="node">
<title>{
 &#160;&#160;&#160;provide: NG_VALUE_ACCESSOR, useExisting: forwardRef(() =&gt; AceComponent), multi: true
}</title>
<ellipse fill="#fdb462" stroke="#000000" cx="429" cy="-127.295" rx="405.3925" ry="41.0911"/>
<text text-anchor="middle" x="429" y="-139.895" font-family="Times,serif" font-size="14.00" fill="#000000">{</text>
<text text-anchor="middle" x="429" y="-123.095" font-family="Times,serif" font-size="14.00" fill="#000000"> &#160;&#160;&#160;provide: NG_VALUE_ACCESSOR, useExisting: forwardRef(() =&gt; AceComponent), multi: true</text>
<text text-anchor="middle" x="429" y="-106.295" font-family="Times,serif" font-size="14.00" fill="#000000">}</text>
</g>
<!-- {
 &#160;&#160;&#160;provide: NG_VALUE_ACCESSOR, useExisting: forwardRef(() =&gt; AceComponent), multi: true
}&#45;&gt;AceComponent -->
<g id="edge2" class="edge">
<title>{
 &#160;&#160;&#160;provide: NG_VALUE_ACCESSOR, useExisting: forwardRef(() =&gt; AceComponent), multi: true
}&#45;&gt;AceComponent</title>
<path fill="none" stroke="#000000" d="M429,-168.5989C429,-168.5989 429,-187.2551 429,-187.2551"/>
<polygon fill="#000000" stroke="#000000" points="425.5001,-187.255 429,-197.2551 432.5001,-187.2551 425.5001,-187.255"/>
</g>
<!-- UiModule -->
<g id="node4" class="node">
<title>UiModule</title>
<polygon fill="#8dd3c7" stroke="#000000" points="352.5484,-233.5901 349.5484,-237.5901 328.5484,-237.5901 325.5484,-233.5901 279.4516,-233.5901 279.4516,-197.5901 352.5484,-197.5901 352.5484,-233.5901"/>
<text text-anchor="middle" x="316" y="-211.3901" font-family="Times,serif" font-size="14.00" fill="#000000">UiModule</text>
</g>
<!-- UiModule&#45;&gt;AceModule -->
<g id="edge3" class="edge">
<title>UiModule&#45;&gt;AceModule</title>
<path fill="none" stroke="#000000" d="M341.8654,-233.6962C341.8654,-233.6962 341.8654,-252.581 341.8654,-252.581"/>
<polygon fill="#000000" stroke="#000000" points="338.3654,-252.581 341.8654,-262.581 345.3654,-252.5811 338.3654,-252.581"/>
</g>
</g>
</svg>
