<?xml version="1.0" encoding="UTF-8" standalone="no"?>
<!DOCTYPE svg PUBLIC "-//W3C//DTD SVG 1.1//EN"
 "http://www.w3.org/Graphics/SVG/1.1/DTD/svg11.dtd">
<!-- Generated by graphviz version 2.40.1 (20161225.0304)
 -->
<!-- Title: dependencies Pages: 1 -->
<svg width="872pt" height="396pt"
 viewBox="0.00 0.00 872.00 395.59" xmlns="http://www.w3.org/2000/svg" xmlns:xlink="http://www.w3.org/1999/xlink">
<g id="graph0" class="graph" transform="scale(1 1) rotate(0) translate(4 391.5901)">
<title>dependencies</title>
<polygon fill="#ffffff" stroke="transparent" points="-4,4 -4,-391.5901 868,-391.5901 868,4 -4,4"/>
<text text-anchor="start" x="411.0091" y="-42.4" font-family="sans-serif" font-weight="bold" font-size="14.00" fill="#000000">Legend</text>
<polygon fill="#ffffb3" stroke="transparent" points="198,-10 198,-30 218,-30 218,-10 198,-10"/>
<text text-anchor="start" x="221.629" y="-15.4" font-family="sans-serif" font-size="14.00" fill="#000000"> &#160;Declarations</text>
<polygon fill="#8dd3c7" stroke="transparent" points="311,-10 311,-30 331,-30 331,-10 311,-10"/>
<text text-anchor="start" x="334.7251" y="-15.4" font-family="sans-serif" font-size="14.00" fill="#000000"> &#160;Module</text>
<polygon fill="#80b1d3" stroke="transparent" points="397,-10 397,-30 417,-30 417,-10 397,-10"/>
<text text-anchor="start" x="420.7812" y="-15.4" font-family="sans-serif" font-size="14.00" fill="#000000"> &#160;Bootstrap</text>
<polygon fill="#fdb462" stroke="transparent" points="494,-10 494,-30 514,-30 514,-10 494,-10"/>
<text text-anchor="start" x="517.6732" y="-15.4" font-family="sans-serif" font-size="14.00" fill="#000000"> &#160;Providers</text>
<polygon fill="#fb8072" stroke="transparent" points="590,-10 590,-30 610,-30 610,-10 590,-10"/>
<text text-anchor="start" x="613.7258" y="-15.4" font-family="sans-serif" font-size="14.00" fill="#000000"> &#160;Exports</text>
<g id="clust1" class="cluster">
<title>cluster_AceModule</title>
<polygon fill="none" stroke="#000000" stroke-dasharray="1,5" points="8,-70 8,-379.5901 856,-379.5901 856,-70 8,-70"/>
</g>
<g id="clust2" class="cluster">
<title>cluster_AceModule_declarations</title>
<polygon fill="none" stroke="#000000" points="372,-189.5901 372,-241.5901 492,-241.5901 492,-189.5901 372,-189.5901"/>
</g>
<g id="clust3" class="cluster">
<title>cluster_AceModule_AceComponent_providers</title>
<polygon fill="none" stroke="#000000" points="16,-78 16,-176.5901 848,-176.5901 848,-78 16,-78"/>
</g>
<g id="clust4" class="cluster">
<title>cluster_AceModule_imports</title>
<polygon fill="none" stroke="#000000" points="274,-189.5901 274,-241.5901 364,-241.5901 364,-189.5901 274,-189.5901"/>
</g>
<g id="clust5" class="cluster">
<title>cluster_AceModule_exports</title>
<polygon fill="none" stroke="#000000" points="313,-319.5901 313,-371.5901 437,-371.5901 437,-319.5901 313,-319.5901"/>
</g>
<!-- AceComponent -->
<g id="node1" class="node">
<title>AceComponent</title>
<polygon fill="#ffffb3" stroke="#000000" points="483.8683,-233.5901 380.1317,-233.5901 380.1317,-197.5901 483.8683,-197.5901 483.8683,-233.5901"/>
<text text-anchor="middle" x="432" y="-211.3901" font-family="Times,serif" font-size="14.00" fill="#000000">AceComponent</text>
</g>
<!-- AceModule -->
<g id="node2" class="node">
<title>AceModule</title>
<polygon fill="#8dd3c7" stroke="#000000" points="416.0856,-298.5901 413.0856,-302.5901 392.0856,-302.5901 389.0856,-298.5901 333.9144,-298.5901 333.9144,-262.5901 416.0856,-262.5901 416.0856,-298.5901"/>
<text text-anchor="middle" x="375" y="-276.3901" font-family="Times,serif" font-size="14.00" fill="#000000">AceModule</text>
</g>
<!-- AceComponent&#45;&gt;AceModule -->
<g id="edge1" class="edge">
<title>AceComponent&#45;&gt;AceModule</title>
<path fill="none" stroke="#000000" d="M398.0544,-233.6962C398.0544,-233.6962 398.0544,-252.581 398.0544,-252.581"/>
<polygon fill="#000000" stroke="#000000" points="394.5544,-252.581 398.0544,-262.581 401.5544,-252.5811 394.5544,-252.581"/>
</g>
<!-- AceComponent  -->
<g id="node5" class="node">
<title>AceComponent </title>
<polygon fill="#fb8072" stroke="#000000" points="428.8688,-363.5901 321.1312,-363.5901 321.1312,-327.5901 428.8688,-327.5901 428.8688,-363.5901"/>
<text text-anchor="middle" x="375" y="-341.3901" font-family="Times,serif" font-size="14.00" fill="#000000">AceComponent </text>
</g>
<!-- AceModule&#45;&gt;AceComponent  -->
<g id="edge4" class="edge">
<title>AceModule&#45;&gt;AceComponent </title>
<path fill="none" stroke="#000000" stroke-dasharray="5,2" d="M375,-298.6962C375,-298.6962 375,-317.581 375,-317.581"/>
<polygon fill="#000000" stroke="#000000" points="371.5001,-317.581 375,-327.581 378.5001,-317.5811 371.5001,-317.581"/>
</g>
<!-- {
 &#160;&#160;&#160;provide: NG_VALUE_ACCESSOR, useExisting: forwardRef(() =&gt; AceComponent), multi: true,
} -->
<g id="node3" class="node">
<title>{
 &#160;&#160;&#160;provide: NG_VALUE_ACCESSOR, useExisting: forwardRef(() =&gt; AceComponent), multi: true,
}</title>
<ellipse fill="#fdb462" stroke="#000000" cx="432" cy="-127.295" rx="407.8423" ry="41.0911"/>
<text text-anchor="middle" x="432" y="-139.895" font-family="Times,serif" font-size="14.00" fill="#000000">{</text>
<text text-anchor="middle" x="432" y="-123.095" font-family="Times,serif" font-size="14.00" fill="#000000"> &#160;&#160;&#160;provide: NG_VALUE_ACCESSOR, useExisting: forwardRef(() =&gt; AceComponent), multi: true,</text>
<text text-anchor="middle" x="432" y="-106.295" font-family="Times,serif" font-size="14.00" fill="#000000">}</text>
</g>
<!-- {
 &#160;&#160;&#160;provide: NG_VALUE_ACCESSOR, useExisting: forwardRef(() =&gt; AceComponent), multi: true,
}&#45;&gt;AceComponent -->
<g id="edge2" class="edge">
<title>{
 &#160;&#160;&#160;provide: NG_VALUE_ACCESSOR, useExisting: forwardRef(() =&gt; AceComponent), multi: true,
}&#45;&gt;AceComponent</title>
<path fill="none" stroke="#000000" d="M432,-168.5989C432,-168.5989 432,-187.2551 432,-187.2551"/>
<polygon fill="#000000" stroke="#000000" points="428.5001,-187.255 432,-197.2551 435.5001,-187.2551 428.5001,-187.255"/>
</g>
<!-- UiModule -->
<g id="node4" class="node">
<title>UiModule</title>
<polygon fill="#8dd3c7" stroke="#000000" points="355.5484,-233.5901 352.5484,-237.5901 331.5484,-237.5901 328.5484,-233.5901 282.4516,-233.5901 282.4516,-197.5901 355.5484,-197.5901 355.5484,-233.5901"/>
<text text-anchor="middle" x="319" y="-211.3901" font-family="Times,serif" font-size="14.00" fill="#000000">UiModule</text>
</g>
<!-- UiModule&#45;&gt;AceModule -->
<g id="edge3" class="edge">
<title>UiModule&#45;&gt;AceModule</title>
<path fill="none" stroke="#000000" d="M344.8654,-233.6962C344.8654,-233.6962 344.8654,-252.581 344.8654,-252.581"/>
<polygon fill="#000000" stroke="#000000" points="341.3654,-252.581 344.8654,-262.581 348.3654,-252.5811 341.3654,-252.581"/>
</g>
</g>
</svg>
