<?xml version="1.0" encoding="UTF-8" standalone="no"?>
<!DOCTYPE svg PUBLIC "-//W3C//DTD SVG 1.1//EN"
 "http://www.w3.org/Graphics/SVG/1.1/DTD/svg11.dtd">
<!-- Generated by graphviz version 2.47.0 (20210316.0004)
 -->
<!-- Title: dependencies Pages: 1 -->
<svg width="504pt" height="284pt"
 viewBox="0.00 0.00 504.00 284.00" xmlns="http://www.w3.org/2000/svg" xmlns:xlink="http://www.w3.org/1999/xlink">
<g id="graph0" class="graph" transform="scale(1 1) rotate(0) translate(4 280)">
<title>dependencies</title>
<polygon fill="white" stroke="transparent" points="-4,4 -4,-280 500,-280 500,4 -4,4"/>
<text text-anchor="start" x="227.01" y="-42.4" font-family="sans-serif" font-weight="bold" font-size="14.00">Legend</text>
<polygon fill="#ffffb3" stroke="transparent" points="14,-10 14,-30 34,-30 34,-10 14,-10"/>
<text text-anchor="start" x="37.63" y="-15.4" font-family="sans-serif" font-size="14.00"> &#160;Declarations</text>
<polygon fill="#8dd3c7" stroke="transparent" points="127,-10 127,-30 147,-30 147,-10 127,-10"/>
<text text-anchor="start" x="150.73" y="-15.4" font-family="sans-serif" font-size="14.00"> &#160;Module</text>
<polygon fill="#80b1d3" stroke="transparent" points="213,-10 213,-30 233,-30 233,-10 213,-10"/>
<text text-anchor="start" x="236.78" y="-15.4" font-family="sans-serif" font-size="14.00"> &#160;Bootstrap</text>
<polygon fill="#fdb462" stroke="transparent" points="310,-10 310,-30 330,-30 330,-10 310,-10"/>
<text text-anchor="start" x="333.67" y="-15.4" font-family="sans-serif" font-size="14.00"> &#160;Providers</text>
<polygon fill="#fb8072" stroke="transparent" points="406,-10 406,-30 426,-30 426,-10 406,-10"/>
<text text-anchor="start" x="429.73" y="-15.4" font-family="sans-serif" font-size="14.00"> &#160;Exports</text>
<g id="clust1" class="cluster">
<title>cluster_AceModule</title>
<polygon fill="none" stroke="black" stroke-dasharray="1,5" points="131,-70 131,-268 365,-268 365,-70 131,-70"/>
</g>
<g id="clust2" class="cluster">
<title>cluster_AceModule_declarations</title>
<polygon fill="none" stroke="black" points="237,-78 237,-130 357,-130 357,-78 237,-78"/>
</g>
<g id="clust4" class="cluster">
<title>cluster_AceModule_imports</title>
<polygon fill="none" stroke="black" points="139,-78 139,-130 229,-130 229,-78 139,-78"/>
</g>
<g id="clust5" class="cluster">
<title>cluster_AceModule_exports</title>
<polygon fill="none" stroke="black" points="186,-208 186,-260 310,-260 310,-208 186,-208"/>
</g>
<!-- AceComponent -->
<g id="node1" class="node">
<title>AceComponent</title>
<polygon fill="#ffffb3" stroke="black" points="348.87,-122 245.13,-122 245.13,-86 348.87,-86 348.87,-122"/>
<text text-anchor="middle" x="297" y="-99.8" font-family="Times,serif" font-size="14.00">AceComponent</text>
</g>
<!-- AceModule -->
<g id="node2" class="node">
<title>AceModule</title>
<polygon fill="#8dd3c7" stroke="black" points="289.09,-187 286.09,-191 265.09,-191 262.09,-187 206.91,-187 206.91,-151 289.09,-151 289.09,-187"/>
<text text-anchor="middle" x="248" y="-164.8" font-family="Times,serif" font-size="14.00">AceModule</text>
</g>
<!-- AceComponent&#45;&gt;AceModule -->
<g id="edge1" class="edge">
<title>AceComponent&#45;&gt;AceModule</title>
<path fill="none" stroke="black" d="M267.05,-122.11C267.05,-122.11 267.05,-140.99 267.05,-140.99"/>
<polygon fill="black" stroke="black" points="263.55,-140.99 267.05,-150.99 270.55,-140.99 263.55,-140.99"/>
</g>
<!-- AceComponent  -->
<g id="node4" class="node">
<title>AceComponent </title>
<polygon fill="#fb8072" stroke="black" points="301.87,-252 194.13,-252 194.13,-216 301.87,-216 301.87,-252"/>
<text text-anchor="middle" x="248" y="-229.8" font-family="Times,serif" font-size="14.00">AceComponent </text>
</g>
<!-- AceModule&#45;&gt;AceComponent  -->
<g id="edge3" class="edge">
<title>AceModule&#45;&gt;AceComponent </title>
<path fill="none" stroke="black" stroke-dasharray="5,2" d="M248,-187.11C248,-187.11 248,-205.99 248,-205.99"/>
<polygon fill="black" stroke="black" points="244.5,-205.99 248,-215.99 251.5,-205.99 244.5,-205.99"/>
</g>
<!-- UiModule -->
<g id="node3" class="node">
<title>UiModule</title>
<polygon fill="#8dd3c7" stroke="black" points="220.55,-122 217.55,-126 196.55,-126 193.55,-122 147.45,-122 147.45,-86 220.55,-86 220.55,-122"/>
<text text-anchor="middle" x="184" y="-99.8" font-family="Times,serif" font-size="14.00">UiModule</text>
</g>
<!-- UiModule&#45;&gt;AceModule -->
<g id="edge2" class="edge">
<title>UiModule&#45;&gt;AceModule</title>
<path fill="none" stroke="black" d="M213.87,-122.11C213.87,-122.11 213.87,-140.99 213.87,-140.99"/>
<polygon fill="black" stroke="black" points="210.37,-140.99 213.87,-150.99 217.37,-140.99 210.37,-140.99"/>
</g>
</g>
</svg>
