<?xml version="1.0" encoding="UTF-8" standalone="no"?>
<!DOCTYPE svg PUBLIC "-//W3C//DTD SVG 1.1//EN"
 "http://www.w3.org/Graphics/SVG/1.1/DTD/svg11.dtd">
<!-- Generated by graphviz version 2.47.0 (20210316.0004)
 -->
<!-- Title: dependencies Pages: 1 -->
<svg width="872pt" height="396pt"
 viewBox="0.00 0.00 872.00 395.59" xmlns="http://www.w3.org/2000/svg" xmlns:xlink="http://www.w3.org/1999/xlink">
<g id="graph0" class="graph" transform="scale(1 1) rotate(0) translate(4 391.59)">
<title>dependencies</title>
<polygon fill="white" stroke="transparent" points="-4,4 -4,-391.59 868,-391.59 868,4 -4,4"/>
<text text-anchor="start" x="411.01" y="-42.4" font-family="sans-serif" font-weight="bold" font-size="14.00">Legend</text>
<polygon fill="#ffffb3" stroke="transparent" points="198,-10 198,-30 218,-30 218,-10 198,-10"/>
<text text-anchor="start" x="221.63" y="-15.4" font-family="sans-serif" font-size="14.00"> &#160;Declarations</text>
<polygon fill="#8dd3c7" stroke="transparent" points="311,-10 311,-30 331,-30 331,-10 311,-10"/>
<text text-anchor="start" x="334.73" y="-15.4" font-family="sans-serif" font-size="14.00"> &#160;Module</text>
<polygon fill="#80b1d3" stroke="transparent" points="397,-10 397,-30 417,-30 417,-10 397,-10"/>
<text text-anchor="start" x="420.78" y="-15.4" font-family="sans-serif" font-size="14.00"> &#160;Bootstrap</text>
<polygon fill="#fdb462" stroke="transparent" points="494,-10 494,-30 514,-30 514,-10 494,-10"/>
<text text-anchor="start" x="517.67" y="-15.4" font-family="sans-serif" font-size="14.00"> &#160;Providers</text>
<polygon fill="#fb8072" stroke="transparent" points="590,-10 590,-30 610,-30 610,-10 590,-10"/>
<text text-anchor="start" x="613.73" y="-15.4" font-family="sans-serif" font-size="14.00"> &#160;Exports</text>
<g id="clust1" class="cluster">
<title>cluster_AceModule</title>
<polygon fill="none" stroke="black" stroke-dasharray="1,5" points="8,-70 8,-379.59 856,-379.59 856,-70 8,-70"/>
</g>
<g id="clust4" class="cluster">
<title>cluster_AceModule_imports</title>
<polygon fill="none" stroke="black" points="500,-189.59 500,-241.59 590,-241.59 590,-189.59 500,-189.59"/>
</g>
<g id="clust2" class="cluster">
<title>cluster_AceModule_declarations</title>
<polygon fill="none" stroke="black" points="372,-189.59 372,-241.59 492,-241.59 492,-189.59 372,-189.59"/>
</g>
<g id="clust3" class="cluster">
<title>cluster_AceModule_AceComponent_providers</title>
<polygon fill="none" stroke="black" points="16,-78 16,-176.59 848,-176.59 848,-78 16,-78"/>
</g>
<g id="clust5" class="cluster">
<title>cluster_AceModule_exports</title>
<polygon fill="none" stroke="black" points="426,-319.59 426,-371.59 550,-371.59 550,-319.59 426,-319.59"/>
</g>
<!-- AceComponent -->
<g id="node1" class="node">
<title>AceComponent</title>
<polygon fill="#ffffb3" stroke="black" points="483.87,-233.59 380.13,-233.59 380.13,-197.59 483.87,-197.59 483.87,-233.59"/>
<text text-anchor="middle" x="432" y="-211.39" font-family="Times,serif" font-size="14.00">AceComponent</text>
</g>
<!-- AceModule -->
<g id="node2" class="node">
<title>AceModule</title>
<polygon fill="#8dd3c7" stroke="black" points="529.09,-298.59 526.09,-302.59 505.09,-302.59 502.09,-298.59 446.91,-298.59 446.91,-262.59 529.09,-262.59 529.09,-298.59"/>
<text text-anchor="middle" x="488" y="-276.39" font-family="Times,serif" font-size="14.00">AceModule</text>
</g>
<!-- AceComponent&#45;&gt;AceModule -->
<g id="edge1" class="edge">
<title>AceComponent&#45;&gt;AceModule</title>
<path fill="none" stroke="black" d="M465.45,-233.7C465.45,-233.7 465.45,-252.58 465.45,-252.58"/>
<polygon fill="black" stroke="black" points="461.95,-252.58 465.45,-262.58 468.95,-252.58 461.95,-252.58"/>
</g>
<!-- AceComponent  -->
<g id="node5" class="node">
<title>AceComponent </title>
<polygon fill="#fb8072" stroke="black" points="541.87,-363.59 434.13,-363.59 434.13,-327.59 541.87,-327.59 541.87,-363.59"/>
<text text-anchor="middle" x="488" y="-341.39" font-family="Times,serif" font-size="14.00">AceComponent </text>
</g>
<!-- AceModule&#45;&gt;AceComponent  -->
<g id="edge4" class="edge">
<title>AceModule&#45;&gt;AceComponent </title>
<path fill="none" stroke="black" stroke-dasharray="5,2" d="M488,-298.7C488,-298.7 488,-317.58 488,-317.58"/>
<polygon fill="black" stroke="black" points="484.5,-317.58 488,-327.58 491.5,-317.58 484.5,-317.58"/>
</g>
<!-- {
 &#160;&#160;&#160;provide: NG_VALUE_ACCESSOR, useExisting: forwardRef(() =&gt; AceComponent), multi: true,
} -->
<g id="node3" class="node">
<title>{
 &#160;&#160;&#160;provide: NG_VALUE_ACCESSOR, useExisting: forwardRef(() =&gt; AceComponent), multi: true,
}</title>
<ellipse fill="#fdb462" stroke="black" cx="432" cy="-127.3" rx="407.84" ry="41.09"/>
<text text-anchor="middle" x="432" y="-139.9" font-family="Times,serif" font-size="14.00">{</text>
<text text-anchor="middle" x="432" y="-123.1" font-family="Times,serif" font-size="14.00"> &#160;&#160;&#160;provide: NG_VALUE_ACCESSOR, useExisting: forwardRef(() =&gt; AceComponent), multi: true,</text>
<text text-anchor="middle" x="432" y="-106.3" font-family="Times,serif" font-size="14.00">}</text>
</g>
<!-- {
 &#160;&#160;&#160;provide: NG_VALUE_ACCESSOR, useExisting: forwardRef(() =&gt; AceComponent), multi: true,
}&#45;&gt;AceComponent -->
<g id="edge2" class="edge">
<title>{
 &#160;&#160;&#160;provide: NG_VALUE_ACCESSOR, useExisting: forwardRef(() =&gt; AceComponent), multi: true,
}&#45;&gt;AceComponent</title>
<path fill="none" stroke="black" d="M432,-168.6C432,-168.6 432,-187.26 432,-187.26"/>
<polygon fill="black" stroke="black" points="428.5,-187.26 432,-197.26 435.5,-187.26 428.5,-187.26"/>
</g>
<!-- UiModule -->
<g id="node4" class="node">
<title>UiModule</title>
<polygon fill="#8dd3c7" stroke="black" points="581.55,-233.59 578.55,-237.59 557.55,-237.59 554.55,-233.59 508.45,-233.59 508.45,-197.59 581.55,-197.59 581.55,-233.59"/>
<text text-anchor="middle" x="545" y="-211.39" font-family="Times,serif" font-size="14.00">UiModule</text>
</g>
<!-- UiModule&#45;&gt;AceModule -->
<g id="edge3" class="edge">
<title>UiModule&#45;&gt;AceModule</title>
<path fill="none" stroke="black" d="M518.63,-233.7C518.63,-233.7 518.63,-252.58 518.63,-252.58"/>
<polygon fill="black" stroke="black" points="515.13,-252.58 518.63,-262.58 522.13,-252.58 515.13,-252.58"/>
</g>
</g>
</svg>
