<?xml version="1.0" encoding="UTF-8" standalone="no"?>
<!DOCTYPE svg PUBLIC "-//W3C//DTD SVG 1.1//EN"
 "http://www.w3.org/Graphics/SVG/1.1/DTD/svg11.dtd">
<!-- Generated by graphviz version 2.40.1 (20161225.0304)
 -->
<!-- Title: dependencies Pages: 1 -->
<svg width="504pt" height="284pt"
 viewBox="0.00 0.00 504.00 284.00" xmlns="http://www.w3.org/2000/svg" xmlns:xlink="http://www.w3.org/1999/xlink">
<g id="graph0" class="graph" transform="scale(1 1) rotate(0) translate(4 280)">
<title>dependencies</title>
<polygon fill="#ffffff" stroke="transparent" points="-4,4 -4,-280 500,-280 500,4 -4,4"/>
<text text-anchor="start" x="227.0091" y="-42.4" font-family="sans-serif" font-weight="bold" font-size="14.00" fill="#000000">Legend</text>
<polygon fill="#ffffb3" stroke="transparent" points="14,-10 14,-30 34,-30 34,-10 14,-10"/>
<text text-anchor="start" x="37.629" y="-15.4" font-family="sans-serif" font-size="14.00" fill="#000000"> &#160;Declarations</text>
<polygon fill="#8dd3c7" stroke="transparent" points="127,-10 127,-30 147,-30 147,-10 127,-10"/>
<text text-anchor="start" x="150.7251" y="-15.4" font-family="sans-serif" font-size="14.00" fill="#000000"> &#160;Module</text>
<polygon fill="#80b1d3" stroke="transparent" points="213,-10 213,-30 233,-30 233,-10 213,-10"/>
<text text-anchor="start" x="236.7812" y="-15.4" font-family="sans-serif" font-size="14.00" fill="#000000"> &#160;Bootstrap</text>
<polygon fill="#fdb462" stroke="transparent" points="310,-10 310,-30 330,-30 330,-10 310,-10"/>
<text text-anchor="start" x="333.6732" y="-15.4" font-family="sans-serif" font-size="14.00" fill="#000000"> &#160;Providers</text>
<polygon fill="#fb8072" stroke="transparent" points="406,-10 406,-30 426,-30 426,-10 406,-10"/>
<text text-anchor="start" x="429.7258" y="-15.4" font-family="sans-serif" font-size="14.00" fill="#000000"> &#160;Exports</text>
<g id="clust1" class="cluster">
<title>cluster_ActionbarModule</title>
<polygon fill="none" stroke="#000000" stroke-dasharray="1,5" points="55.5,-70 55.5,-268 440.5,-268 440.5,-70 55.5,-70"/>
</g>
<g id="clust2" class="cluster">
<title>cluster_ActionbarModule_declarations</title>
<polygon fill="none" stroke="#000000" points="278.5,-78 278.5,-130 432.5,-130 432.5,-78 278.5,-78"/>
</g>
<g id="clust4" class="cluster">
<title>cluster_ActionbarModule_imports</title>
<polygon fill="none" stroke="#000000" points="63.5,-78 63.5,-130 270.5,-130 270.5,-78 63.5,-78"/>
</g>
<g id="clust5" class="cluster">
<title>cluster_ActionbarModule_exports</title>
<polygon fill="none" stroke="#000000" points="134.5,-208 134.5,-260 290.5,-260 290.5,-208 134.5,-208"/>
</g>
<!-- ActionbarComponent -->
<g id="node1" class="node">
<title>ActionbarComponent</title>
<polygon fill="#ffffb3" stroke="#000000" points="424.3104,-122 286.6896,-122 286.6896,-86 424.3104,-86 424.3104,-122"/>
<text text-anchor="middle" x="355.5" y="-99.8" font-family="Times,serif" font-size="14.00" fill="#000000">ActionbarComponent</text>
</g>
<!-- ActionbarModule -->
<g id="node2" class="node">
<title>ActionbarModule</title>
<polygon fill="#8dd3c7" stroke="#000000" points="270.0284,-187 267.0284,-191 246.0284,-191 243.0284,-187 154.9716,-187 154.9716,-151 270.0284,-151 270.0284,-187"/>
<text text-anchor="middle" x="212.5" y="-164.8" font-family="Times,serif" font-size="14.00" fill="#000000">ActionbarModule</text>
</g>
<!-- ActionbarComponent&#45;&gt;ActionbarModule -->
<g id="edge1" class="edge">
<title>ActionbarComponent&#45;&gt;ActionbarModule</title>
<path fill="none" stroke="#000000" d="M286.448,-104C274.6859,-104 266.1799,-104 266.1799,-104 266.1799,-104 266.1799,-140.8939 266.1799,-140.8939"/>
<polygon fill="#000000" stroke="#000000" points="262.68,-140.8938 266.1799,-150.8939 269.68,-140.8939 262.68,-140.8938"/>
</g>
<!-- ActionbarComponent  -->
<g id="node5" class="node">
<title>ActionbarComponent </title>
<polygon fill="#fb8072" stroke="#000000" points="282.8101,-252 142.1899,-252 142.1899,-216 282.8101,-216 282.8101,-252"/>
<text text-anchor="middle" x="212.5" y="-229.8" font-family="Times,serif" font-size="14.00" fill="#000000">ActionbarComponent </text>
</g>
<!-- ActionbarModule&#45;&gt;ActionbarComponent  -->
<g id="edge4" class="edge">
<title>ActionbarModule&#45;&gt;ActionbarComponent </title>
<path fill="none" stroke="#000000" stroke-dasharray="5,2" d="M212.5,-187.1061C212.5,-187.1061 212.5,-205.991 212.5,-205.991"/>
<polygon fill="#000000" stroke="#000000" points="209.0001,-205.9909 212.5,-215.991 216.0001,-205.991 209.0001,-205.9909"/>
</g>
<!-- LoaderModule -->
<g id="node3" class="node">
<title>LoaderModule</title>
<polygon fill="#8dd3c7" stroke="#000000" points="262.1924,-122 259.1924,-126 238.1924,-126 235.1924,-122 162.8076,-122 162.8076,-86 262.1924,-86 262.1924,-122"/>
<text text-anchor="middle" x="212.5" y="-99.8" font-family="Times,serif" font-size="14.00" fill="#000000">LoaderModule</text>
</g>
<!-- LoaderModule&#45;&gt;ActionbarModule -->
<g id="edge2" class="edge">
<title>LoaderModule&#45;&gt;ActionbarModule</title>
<path fill="none" stroke="#000000" d="M212.5,-122.1061C212.5,-122.1061 212.5,-140.991 212.5,-140.991"/>
<polygon fill="#000000" stroke="#000000" points="209.0001,-140.9909 212.5,-150.991 216.0001,-140.991 209.0001,-140.9909"/>
</g>
<!-- UiModule -->
<g id="node4" class="node">
<title>UiModule</title>
<polygon fill="#8dd3c7" stroke="#000000" points="145.0484,-122 142.0484,-126 121.0484,-126 118.0484,-122 71.9516,-122 71.9516,-86 145.0484,-86 145.0484,-122"/>
<text text-anchor="middle" x="108.5" y="-99.8" font-family="Times,serif" font-size="14.00" fill="#000000">UiModule</text>
</g>
<!-- UiModule&#45;&gt;ActionbarModule -->
<g id="edge3" class="edge">
<title>UiModule&#45;&gt;ActionbarModule</title>
<path fill="none" stroke="#000000" d="M145.0699,-104C152.8741,-104 158.8201,-104 158.8201,-104 158.8201,-104 158.8201,-140.8939 158.8201,-140.8939"/>
<polygon fill="#000000" stroke="#000000" points="155.3202,-140.8938 158.8201,-150.8939 162.3202,-140.8939 155.3202,-140.8938"/>
</g>
</g>
</svg>
