<?xml version="1.0" encoding="UTF-8" standalone="no"?>
<!DOCTYPE svg PUBLIC "-//W3C//DTD SVG 1.1//EN"
 "http://www.w3.org/Graphics/SVG/1.1/DTD/svg11.dtd">
<!-- Generated by graphviz version 2.40.1 (20161225.0304)
 -->
<!-- Title: dependencies Pages: 1 -->
<svg width="1540pt" height="284pt"
 viewBox="0.00 0.00 1540.00 284.00" xmlns="http://www.w3.org/2000/svg" xmlns:xlink="http://www.w3.org/1999/xlink">
<g id="graph0" class="graph" transform="scale(1 1) rotate(0) translate(4 280)">
<title>dependencies</title>
<polygon fill="#ffffff" stroke="transparent" points="-4,4 -4,-280 1536,-280 1536,4 -4,4"/>
<text text-anchor="start" x="745.0091" y="-42.4" font-family="sans-serif" font-weight="bold" font-size="14.00" fill="#000000">Legend</text>
<polygon fill="#ffffb3" stroke="transparent" points="532,-10 532,-30 552,-30 552,-10 532,-10"/>
<text text-anchor="start" x="555.629" y="-15.4" font-family="sans-serif" font-size="14.00" fill="#000000"> &#160;Declarations</text>
<polygon fill="#8dd3c7" stroke="transparent" points="645,-10 645,-30 665,-30 665,-10 645,-10"/>
<text text-anchor="start" x="668.7251" y="-15.4" font-family="sans-serif" font-size="14.00" fill="#000000"> &#160;Module</text>
<polygon fill="#80b1d3" stroke="transparent" points="731,-10 731,-30 751,-30 751,-10 731,-10"/>
<text text-anchor="start" x="754.7812" y="-15.4" font-family="sans-serif" font-size="14.00" fill="#000000"> &#160;Bootstrap</text>
<polygon fill="#fdb462" stroke="transparent" points="828,-10 828,-30 848,-30 848,-10 828,-10"/>
<text text-anchor="start" x="851.6732" y="-15.4" font-family="sans-serif" font-size="14.00" fill="#000000"> &#160;Providers</text>
<polygon fill="#fb8072" stroke="transparent" points="924,-10 924,-30 944,-30 944,-10 924,-10"/>
<text text-anchor="start" x="947.7258" y="-15.4" font-family="sans-serif" font-size="14.00" fill="#000000"> &#160;Exports</text>
<g id="clust1" class="cluster">
<title>cluster_AuthModule</title>
<polygon fill="none" stroke="#000000" stroke-dasharray="1,5" points="8,-70 8,-268 1524,-268 1524,-70 8,-70"/>
</g>
<g id="clust2" class="cluster">
<title>cluster_AuthModule_declarations</title>
<polygon fill="none" stroke="#000000" points="638,-78 638,-130 1516,-130 1516,-78 638,-78"/>
</g>
<g id="clust8" class="cluster">
<title>cluster_AuthModule_imports</title>
<polygon fill="none" stroke="#000000" points="414,-78 414,-130 630,-130 630,-78 414,-78"/>
</g>
<g id="clust9" class="cluster">
<title>cluster_AuthModule_exports</title>
<polygon fill="none" stroke="#000000" points="281,-208 281,-260 1176,-260 1176,-208 281,-208"/>
</g>
<g id="clust11" class="cluster">
<title>cluster_AuthModule_providers</title>
<polygon fill="none" stroke="#000000" points="16,-78 16,-130 406,-130 406,-78 16,-78"/>
</g>
<!-- PublicLoginComponent -->
<g id="node1" class="node">
<title>PublicLoginComponent</title>
<polygon fill="#ffffb3" stroke="#000000" points="1508.0547,-122 1357.9453,-122 1357.9453,-86 1508.0547,-86 1508.0547,-122"/>
<text text-anchor="middle" x="1433" y="-99.8" font-family="Times,serif" font-size="14.00" fill="#000000">PublicLoginComponent</text>
</g>
<!-- AuthModule -->
<g id="node6" class="node">
<title>AuthModule</title>
<polygon fill="#8dd3c7" stroke="#000000" points="769.5482,-187 766.5482,-191 745.5482,-191 742.5482,-187 682.4518,-187 682.4518,-151 769.5482,-151 769.5482,-187"/>
<text text-anchor="middle" x="726" y="-164.8" font-family="Times,serif" font-size="14.00" fill="#000000">AuthModule</text>
</g>
<!-- PublicLoginComponent&#45;&gt;AuthModule -->
<g id="edge1" class="edge">
<title>PublicLoginComponent&#45;&gt;AuthModule</title>
<path fill="none" stroke="#000000" d="M1433,-122.2228C1433,-142.3652 1433,-172 1433,-172 1433,-172 779.6925,-172 779.6925,-172"/>
<polygon fill="#000000" stroke="#000000" points="779.6925,-168.5001 769.6925,-172 779.6924,-175.5001 779.6925,-168.5001"/>
</g>
<!-- PublicSignupComponent -->
<g id="node2" class="node">
<title>PublicSignupComponent</title>
<polygon fill="#ffffb3" stroke="#000000" points="1339.2841,-122 1182.7159,-122 1182.7159,-86 1339.2841,-86 1339.2841,-122"/>
<text text-anchor="middle" x="1261" y="-99.8" font-family="Times,serif" font-size="14.00" fill="#000000">PublicSignupComponent</text>
</g>
<!-- PublicSignupComponent&#45;&gt;AuthModule -->
<g id="edge2" class="edge">
<title>PublicSignupComponent&#45;&gt;AuthModule</title>
<path fill="none" stroke="#000000" d="M1261,-122.2222C1261,-140.8285 1261,-167 1261,-167 1261,-167 779.7813,-167 779.7813,-167"/>
<polygon fill="#000000" stroke="#000000" points="779.7813,-163.5001 769.7813,-167 779.7813,-170.5001 779.7813,-163.5001"/>
</g>
<!-- ValidationOnBlurDirective -->
<g id="node3" class="node">
<title>ValidationOnBlurDirective</title>
<polygon fill="#ffffb3" stroke="#000000" points="1164.6755,-122 995.3245,-122 995.3245,-86 1164.6755,-86 1164.6755,-122"/>
<text text-anchor="middle" x="1080" y="-99.8" font-family="Times,serif" font-size="14.00" fill="#000000">ValidationOnBlurDirective</text>
</g>
<!-- ValidationOnBlurDirective&#45;&gt;AuthModule -->
<g id="edge3" class="edge">
<title>ValidationOnBlurDirective&#45;&gt;AuthModule</title>
<path fill="none" stroke="#000000" d="M1108.2792,-122.0336C1108.2792,-139.0597 1108.2792,-162 1108.2792,-162 1108.2792,-162 779.8523,-162 779.8523,-162"/>
<polygon fill="#000000" stroke="#000000" points="779.8523,-158.5001 769.8523,-162 779.8523,-165.5001 779.8523,-158.5001"/>
</g>
<!-- AdminLoginComponent -->
<g id="node4" class="node">
<title>AdminLoginComponent</title>
<polygon fill="#ffffb3" stroke="#000000" points="977.6638,-122 824.3362,-122 824.3362,-86 977.6638,-86 977.6638,-122"/>
<text text-anchor="middle" x="901" y="-99.8" font-family="Times,serif" font-size="14.00" fill="#000000">AdminLoginComponent</text>
</g>
<!-- AdminLoginComponent&#45;&gt;AuthModule -->
<g id="edge4" class="edge">
<title>AdminLoginComponent&#45;&gt;AuthModule</title>
<path fill="none" stroke="#000000" d="M926.6106,-122.2396C926.6106,-137.5706 926.6106,-157 926.6106,-157 926.6106,-157 780.0248,-157 780.0248,-157"/>
<polygon fill="#000000" stroke="#000000" points="780.0249,-153.5001 770.0248,-157 780.0248,-160.5001 780.0249,-153.5001"/>
</g>
<!-- AdminSignupComponent -->
<g id="node5" class="node">
<title>AdminSignupComponent</title>
<polygon fill="#ffffb3" stroke="#000000" points="805.8934,-122 646.1066,-122 646.1066,-86 805.8934,-86 805.8934,-122"/>
<text text-anchor="middle" x="726" y="-99.8" font-family="Times,serif" font-size="14.00" fill="#000000">AdminSignupComponent</text>
</g>
<!-- AdminSignupComponent&#45;&gt;AuthModule -->
<g id="edge5" class="edge">
<title>AdminSignupComponent&#45;&gt;AuthModule</title>
<path fill="none" stroke="#000000" d="M726,-122.1061C726,-122.1061 726,-140.991 726,-140.991"/>
<polygon fill="#000000" stroke="#000000" points="722.5001,-140.9909 726,-150.991 729.5001,-140.991 722.5001,-140.9909"/>
</g>
<!-- ValidationOnBlurDirective  -->
<g id="node9" class="node">
<title>ValidationOnBlurDirective </title>
<polygon fill="#fb8072" stroke="#000000" points="1168.1757,-252 995.8243,-252 995.8243,-216 1168.1757,-216 1168.1757,-252"/>
<text text-anchor="middle" x="1082" y="-229.8" font-family="Times,serif" font-size="14.00" fill="#000000">ValidationOnBlurDirective </text>
</g>
<!-- AuthModule&#45;&gt;ValidationOnBlurDirective  -->
<g id="edge8" class="edge">
<title>AuthModule&#45;&gt;ValidationOnBlurDirective </title>
<path fill="none" stroke="#000000" stroke-dasharray="5,2" d="M769.6236,-177C858.4477,-177 1051.9708,-177 1051.9708,-177 1051.9708,-177 1051.9708,-205.9648 1051.9708,-205.9648"/>
<polygon fill="#000000" stroke="#000000" points="1048.4709,-205.9648 1051.9708,-215.9648 1055.4709,-205.9649 1048.4709,-205.9648"/>
</g>
<!-- PublicLoginComponent  -->
<g id="node10" class="node">
<title>PublicLoginComponent </title>
<polygon fill="#fb8072" stroke="#000000" points="978.054,-252 823.946,-252 823.946,-216 978.054,-216 978.054,-252"/>
<text text-anchor="middle" x="901" y="-229.8" font-family="Times,serif" font-size="14.00" fill="#000000">PublicLoginComponent </text>
</g>
<!-- AuthModule&#45;&gt;PublicLoginComponent  -->
<g id="edge9" class="edge">
<title>AuthModule&#45;&gt;PublicLoginComponent </title>
<path fill="none" stroke="#000000" stroke-dasharray="5,2" d="M769.6112,-182C813.7055,-182 875.3894,-182 875.3894,-182 875.3894,-182 875.3894,-205.8129 875.3894,-205.8129"/>
<polygon fill="#000000" stroke="#000000" points="871.8895,-205.8129 875.3894,-215.8129 878.8895,-205.813 871.8895,-205.8129"/>
</g>
<!-- PublicSignupComponent  -->
<g id="node11" class="node">
<title>PublicSignupComponent </title>
<polygon fill="#fb8072" stroke="#000000" points="806.2843,-252 645.7157,-252 645.7157,-216 806.2843,-216 806.2843,-252"/>
<text text-anchor="middle" x="726" y="-229.8" font-family="Times,serif" font-size="14.00" fill="#000000">PublicSignupComponent </text>
</g>
<!-- AuthModule&#45;&gt;PublicSignupComponent  -->
<g id="edge10" class="edge">
<title>AuthModule&#45;&gt;PublicSignupComponent </title>
<path fill="none" stroke="#000000" stroke-dasharray="5,2" d="M726,-187.1061C726,-187.1061 726,-205.991 726,-205.991"/>
<polygon fill="#000000" stroke="#000000" points="722.5001,-205.9909 726,-215.991 729.5001,-205.991 722.5001,-205.9909"/>
</g>
<!-- AdminLoginComponent  -->
<g id="node12" class="node">
<title>AdminLoginComponent </title>
<polygon fill="#fb8072" stroke="#000000" points="627.6635,-252 470.3365,-252 470.3365,-216 627.6635,-216 627.6635,-252"/>
<text text-anchor="middle" x="549" y="-229.8" font-family="Times,serif" font-size="14.00" fill="#000000">AdminLoginComponent </text>
</g>
<!-- AuthModule&#45;&gt;AdminLoginComponent  -->
<g id="edge11" class="edge">
<title>AuthModule&#45;&gt;AdminLoginComponent </title>
<path fill="none" stroke="#000000" stroke-dasharray="5,2" d="M682.0041,-182C629.8295,-182 549.8493,-182 549.8493,-182 549.8493,-182 549.8493,-205.8129 549.8493,-205.8129"/>
<polygon fill="#000000" stroke="#000000" points="546.3494,-205.8129 549.8493,-215.8129 553.3494,-205.813 546.3494,-205.8129"/>
</g>
<!-- AdminSignupComponent  -->
<g id="node13" class="node">
<title>AdminSignupComponent </title>
<polygon fill="#fb8072" stroke="#000000" points="452.8939,-252 289.1061,-252 289.1061,-216 452.8939,-216 452.8939,-252"/>
<text text-anchor="middle" x="371" y="-229.8" font-family="Times,serif" font-size="14.00" fill="#000000">AdminSignupComponent </text>
</g>
<!-- AuthModule&#45;&gt;AdminSignupComponent  -->
<g id="edge12" class="edge">
<title>AuthModule&#45;&gt;AdminSignupComponent </title>
<path fill="none" stroke="#000000" stroke-dasharray="5,2" d="M682.1772,-177C601.4595,-177 437.4616,-177 437.4616,-177 437.4616,-177 437.4616,-205.9648 437.4616,-205.9648"/>
<polygon fill="#000000" stroke="#000000" points="433.9617,-205.9648 437.4616,-215.9648 440.9617,-205.9649 433.9617,-205.9648"/>
</g>
<!-- cookieFactory.() -->
<g id="node7" class="node">
<title>cookieFactory.()</title>
<polygon fill="#8dd3c7" stroke="#000000" points="622.404,-122 619.404,-126 598.404,-126 595.404,-122 513.596,-122 513.596,-86 622.404,-86 622.404,-122"/>
<text text-anchor="middle" x="568" y="-99.8" font-family="Times,serif" font-size="14.00" fill="#000000">cookieFactory.()</text>
</g>
<!-- cookieFactory.()&#45;&gt;AuthModule -->
<g id="edge6" class="edge">
<title>cookieFactory.()&#45;&gt;AuthModule</title>
<path fill="none" stroke="#000000" d="M586.1507,-122.2396C586.1507,-137.5706 586.1507,-157 586.1507,-157 586.1507,-157 672.1345,-157 672.1345,-157"/>
<polygon fill="#000000" stroke="#000000" points="672.1345,-160.5001 682.1345,-157 672.1345,-153.5001 672.1345,-160.5001"/>
</g>
<!-- UiModule -->
<g id="node8" class="node">
<title>UiModule</title>
<polygon fill="#8dd3c7" stroke="#000000" points="495.5484,-122 492.5484,-126 471.5484,-126 468.5484,-122 422.4516,-122 422.4516,-86 495.5484,-86 495.5484,-122"/>
<text text-anchor="middle" x="459" y="-99.8" font-family="Times,serif" font-size="14.00" fill="#000000">UiModule</text>
</g>
<!-- UiModule&#45;&gt;AuthModule -->
<g id="edge7" class="edge">
<title>UiModule&#45;&gt;AuthModule</title>
<path fill="none" stroke="#000000" d="M483.0959,-122.0336C483.0959,-139.0597 483.0959,-162 483.0959,-162 483.0959,-162 672.2931,-162 672.2931,-162"/>
<polygon fill="#000000" stroke="#000000" points="672.2931,-165.5001 682.2931,-162 672.293,-158.5001 672.2931,-165.5001"/>
</g>
<!-- AuthorizationService -->
<g id="node14" class="node">
<title>AuthorizationService</title>
<ellipse fill="#fdb462" stroke="#000000" cx="304" cy="-104" rx="93.7572" ry="18"/>
<text text-anchor="middle" x="304" y="-99.8" font-family="Times,serif" font-size="14.00" fill="#000000">AuthorizationService</text>
</g>
<!-- AuthorizationService&#45;&gt;AuthModule -->
<g id="edge13" class="edge">
<title>AuthorizationService&#45;&gt;AuthModule</title>
<path fill="none" stroke="#000000" d="M343.4659,-120.5525C343.4659,-139.2183 343.4659,-167 343.4659,-167 343.4659,-167 672.1185,-167 672.1185,-167"/>
<polygon fill="#000000" stroke="#000000" points="672.1185,-170.5001 682.1185,-167 672.1184,-163.5001 672.1185,-170.5001"/>
</g>
<!-- PublicAuthService -->
<g id="node15" class="node">
<title>PublicAuthService</title>
<ellipse fill="#fdb462" stroke="#000000" cx="108" cy="-104" rx="83.9663" ry="18"/>
<text text-anchor="middle" x="108" y="-99.8" font-family="Times,serif" font-size="14.00" fill="#000000">PublicAuthService</text>
</g>
<!-- PublicAuthService&#45;&gt;AuthModule -->
<g id="edge14" class="edge">
<title>PublicAuthService&#45;&gt;AuthModule</title>
<path fill="none" stroke="#000000" d="M108,-122.2228C108,-142.3652 108,-172 108,-172 108,-172 672.0504,-172 672.0504,-172"/>
<polygon fill="#000000" stroke="#000000" points="672.0504,-175.5001 682.0504,-172 672.0504,-168.5001 672.0504,-175.5001"/>
</g>
</g>
</svg>
