<?xml version="1.0" encoding="UTF-8" standalone="no"?>
<!DOCTYPE svg PUBLIC "-//W3C//DTD SVG 1.1//EN"
 "http://www.w3.org/Graphics/SVG/1.1/DTD/svg11.dtd">
<!-- Generated by graphviz version 2.40.1 (20161225.0304)
 -->
<!-- Title: dependencies Pages: 1 -->
<svg width="898pt" height="284pt"
 viewBox="0.00 0.00 898.00 284.00" xmlns="http://www.w3.org/2000/svg" xmlns:xlink="http://www.w3.org/1999/xlink">
<g id="graph0" class="graph" transform="scale(1 1) rotate(0) translate(4 280)">
<title>dependencies</title>
<polygon fill="#ffffff" stroke="transparent" points="-4,4 -4,-280 894,-280 894,4 -4,4"/>
<text text-anchor="start" x="424.0091" y="-42.4" font-family="sans-serif" font-weight="bold" font-size="14.00" fill="#000000">Legend</text>
<polygon fill="#ffffb3" stroke="transparent" points="211,-10 211,-30 231,-30 231,-10 211,-10"/>
<text text-anchor="start" x="234.629" y="-15.4" font-family="sans-serif" font-size="14.00" fill="#000000"> &#160;Declarations</text>
<polygon fill="#8dd3c7" stroke="transparent" points="324,-10 324,-30 344,-30 344,-10 324,-10"/>
<text text-anchor="start" x="347.7251" y="-15.4" font-family="sans-serif" font-size="14.00" fill="#000000"> &#160;Module</text>
<polygon fill="#80b1d3" stroke="transparent" points="410,-10 410,-30 430,-30 430,-10 410,-10"/>
<text text-anchor="start" x="433.7812" y="-15.4" font-family="sans-serif" font-size="14.00" fill="#000000"> &#160;Bootstrap</text>
<polygon fill="#fdb462" stroke="transparent" points="507,-10 507,-30 527,-30 527,-10 507,-10"/>
<text text-anchor="start" x="530.6732" y="-15.4" font-family="sans-serif" font-size="14.00" fill="#000000"> &#160;Providers</text>
<polygon fill="#fb8072" stroke="transparent" points="603,-10 603,-30 623,-30 623,-10 603,-10"/>
<text text-anchor="start" x="626.7258" y="-15.4" font-family="sans-serif" font-size="14.00" fill="#000000"> &#160;Exports</text>
<g id="clust1" class="cluster">
<title>cluster_AuthModule</title>
<polygon fill="none" stroke="#000000" stroke-dasharray="1,5" points="8,-70 8,-268 882,-268 882,-70 8,-70"/>
</g>
<g id="clust2" class="cluster">
<title>cluster_AuthModule_declarations</title>
<polygon fill="none" stroke="#000000" points="372,-78 372,-130 874,-130 874,-78 372,-78"/>
</g>
<g id="clust6" class="cluster">
<title>cluster_AuthModule_imports</title>
<polygon fill="none" stroke="#000000" points="148,-78 148,-130 364,-130 364,-78 148,-78"/>
</g>
<g id="clust7" class="cluster">
<title>cluster_AuthModule_exports</title>
<polygon fill="none" stroke="#000000" points="140,-208 140,-260 652,-260 652,-208 140,-208"/>
</g>
<g id="clust9" class="cluster">
<title>cluster_AuthModule_providers</title>
<polygon fill="none" stroke="#000000" points="16,-78 16,-130 140,-130 140,-78 16,-78"/>
</g>
<!-- ValidationOnBlurDirective -->
<g id="node1" class="node">
<title>ValidationOnBlurDirective</title>
<polygon fill="#ffffb3" stroke="#000000" points="865.6755,-122 696.3245,-122 696.3245,-86 865.6755,-86 865.6755,-122"/>
<text text-anchor="middle" x="781" y="-99.8" font-family="Times,serif" font-size="14.00" fill="#000000">ValidationOnBlurDirective</text>
</g>
<!-- AuthModule -->
<g id="node4" class="node">
<title>AuthModule</title>
<polygon fill="#8dd3c7" stroke="#000000" points="412.5482,-187 409.5482,-191 388.5482,-191 385.5482,-187 325.4518,-187 325.4518,-151 412.5482,-151 412.5482,-187"/>
<text text-anchor="middle" x="369" y="-164.8" font-family="Times,serif" font-size="14.00" fill="#000000">AuthModule</text>
</g>
<!-- ValidationOnBlurDirective&#45;&gt;AuthModule -->
<g id="edge1" class="edge">
<title>ValidationOnBlurDirective&#45;&gt;AuthModule</title>
<path fill="none" stroke="#000000" d="M781,-122.1061C781,-141.3391 781,-169 781,-169 781,-169 422.7012,-169 422.7012,-169"/>
<polygon fill="#000000" stroke="#000000" points="422.7012,-165.5001 412.7012,-169 422.7011,-172.5001 422.7012,-165.5001"/>
</g>
<!-- PasswordResetComponent -->
<g id="node2" class="node">
<title>PasswordResetComponent</title>
<polygon fill="#ffffb3" stroke="#000000" points="678.087,-122 511.913,-122 511.913,-86 678.087,-86 678.087,-122"/>
<text text-anchor="middle" x="595" y="-99.8" font-family="Times,serif" font-size="14.00" fill="#000000">PasswordResetComponent</text>
</g>
<!-- PasswordResetComponent&#45;&gt;AuthModule -->
<g id="edge2" class="edge">
<title>PasswordResetComponent&#45;&gt;AuthModule</title>
<path fill="none" stroke="#000000" d="M578.1471,-122.027C578.1471,-138.3976 578.1471,-160 578.1471,-160 578.1471,-160 422.5895,-160 422.5895,-160"/>
<polygon fill="#000000" stroke="#000000" points="422.5895,-156.5001 412.5895,-160 422.5895,-163.5001 422.5895,-156.5001"/>
</g>
<!-- LoginComponent -->
<g id="node3" class="node">
<title>LoginComponent</title>
<polygon fill="#ffffb3" stroke="#000000" points="494.2758,-122 379.7242,-122 379.7242,-86 494.2758,-86 494.2758,-122"/>
<text text-anchor="middle" x="437" y="-99.8" font-family="Times,serif" font-size="14.00" fill="#000000">LoginComponent</text>
</g>
<!-- LoginComponent&#45;&gt;AuthModule -->
<g id="edge3" class="edge">
<title>LoginComponent&#45;&gt;AuthModule</title>
<path fill="none" stroke="#000000" d="M396.1929,-122.1061C396.1929,-122.1061 396.1929,-140.991 396.1929,-140.991"/>
<polygon fill="#000000" stroke="#000000" points="392.6929,-140.9909 396.1929,-150.991 399.6929,-140.991 392.6929,-140.9909"/>
</g>
<!-- ValidationOnBlurDirective  -->
<g id="node7" class="node">
<title>ValidationOnBlurDirective </title>
<polygon fill="#fb8072" stroke="#000000" points="644.1757,-252 471.8243,-252 471.8243,-216 644.1757,-216 644.1757,-252"/>
<text text-anchor="middle" x="558" y="-229.8" font-family="Times,serif" font-size="14.00" fill="#000000">ValidationOnBlurDirective </text>
</g>
<!-- AuthModule&#45;&gt;ValidationOnBlurDirective  -->
<g id="edge6" class="edge">
<title>AuthModule&#45;&gt;ValidationOnBlurDirective </title>
<path fill="none" stroke="#000000" stroke-dasharray="5,2" d="M412.759,-178C444.9146,-178 483.0251,-178 483.0251,-178 483.0251,-178 483.0251,-205.973 483.0251,-205.973"/>
<polygon fill="#000000" stroke="#000000" points="479.5251,-205.973 483.0251,-215.973 486.5251,-205.973 479.5251,-205.973"/>
</g>
<!-- PasswordResetComponent  -->
<g id="node8" class="node">
<title>PasswordResetComponent </title>
<polygon fill="#fb8072" stroke="#000000" points="453.5875,-252 284.4125,-252 284.4125,-216 453.5875,-216 453.5875,-252"/>
<text text-anchor="middle" x="369" y="-229.8" font-family="Times,serif" font-size="14.00" fill="#000000">PasswordResetComponent </text>
</g>
<!-- AuthModule&#45;&gt;PasswordResetComponent  -->
<g id="edge7" class="edge">
<title>AuthModule&#45;&gt;PasswordResetComponent </title>
<path fill="none" stroke="#000000" stroke-dasharray="5,2" d="M369,-187.1061C369,-187.1061 369,-205.991 369,-205.991"/>
<polygon fill="#000000" stroke="#000000" points="365.5001,-205.9909 369,-215.991 372.5001,-205.991 365.5001,-205.9909"/>
</g>
<!-- LoginComponent  -->
<g id="node9" class="node">
<title>LoginComponent </title>
<polygon fill="#fb8072" stroke="#000000" points="266.2759,-252 147.7241,-252 147.7241,-216 266.2759,-216 266.2759,-252"/>
<text text-anchor="middle" x="207" y="-229.8" font-family="Times,serif" font-size="14.00" fill="#000000">LoginComponent </text>
</g>
<!-- AuthModule&#45;&gt;LoginComponent  -->
<g id="edge8" class="edge">
<title>AuthModule&#45;&gt;LoginComponent </title>
<path fill="none" stroke="#000000" stroke-dasharray="5,2" d="M325.316,-178C293.8241,-178 256.8429,-178 256.8429,-178 256.8429,-178 256.8429,-205.973 256.8429,-205.973"/>
<polygon fill="#000000" stroke="#000000" points="253.343,-205.973 256.8429,-215.973 260.343,-205.973 253.343,-205.973"/>
</g>
<!-- cookieFactory.() -->
<g id="node5" class="node">
<title>cookieFactory.()</title>
<polygon fill="#8dd3c7" stroke="#000000" points="356.404,-122 353.404,-126 332.404,-126 329.404,-122 247.596,-122 247.596,-86 356.404,-86 356.404,-122"/>
<text text-anchor="middle" x="302" y="-99.8" font-family="Times,serif" font-size="14.00" fill="#000000">cookieFactory.()</text>
</g>
<!-- cookieFactory.()&#45;&gt;AuthModule -->
<g id="edge4" class="edge">
<title>cookieFactory.()&#45;&gt;AuthModule</title>
<path fill="none" stroke="#000000" d="M340.8393,-122.1061C340.8393,-122.1061 340.8393,-140.991 340.8393,-140.991"/>
<polygon fill="#000000" stroke="#000000" points="337.3393,-140.9909 340.8393,-150.991 344.3393,-140.991 337.3393,-140.9909"/>
</g>
<!-- UiModule -->
<g id="node6" class="node">
<title>UiModule</title>
<polygon fill="#8dd3c7" stroke="#000000" points="229.5484,-122 226.5484,-126 205.5484,-126 202.5484,-122 156.4516,-122 156.4516,-86 229.5484,-86 229.5484,-122"/>
<text text-anchor="middle" x="193" y="-99.8" font-family="Times,serif" font-size="14.00" fill="#000000">UiModule</text>
</g>
<!-- UiModule&#45;&gt;AuthModule -->
<g id="edge5" class="edge">
<title>UiModule&#45;&gt;AuthModule</title>
<path fill="none" stroke="#000000" d="M193,-122.027C193,-138.3976 193,-160 193,-160 193,-160 315.0418,-160 315.0418,-160"/>
<polygon fill="#000000" stroke="#000000" points="315.0418,-163.5001 325.0418,-160 315.0417,-156.5001 315.0418,-163.5001"/>
</g>
<!-- AuthGuard -->
<g id="node10" class="node">
<title>AuthGuard</title>
<ellipse fill="#fdb462" stroke="#000000" cx="78" cy="-104" rx="54.4566" ry="18"/>
<text text-anchor="middle" x="78" y="-99.8" font-family="Times,serif" font-size="14.00" fill="#000000">AuthGuard</text>
</g>
<!-- AuthGuard&#45;&gt;AuthModule -->
<g id="edge9" class="edge">
<title>AuthGuard&#45;&gt;AuthModule</title>
<path fill="none" stroke="#000000" d="M78,-122.1061C78,-141.3391 78,-169 78,-169 78,-169 315.4344,-169 315.4344,-169"/>
<polygon fill="#000000" stroke="#000000" points="315.4344,-172.5001 325.4344,-169 315.4343,-165.5001 315.4344,-172.5001"/>
</g>
</g>
</svg>
