<?xml version="1.0" encoding="UTF-8" standalone="no"?>
<!DOCTYPE svg PUBLIC "-//W3C//DTD SVG 1.1//EN"
 "http://www.w3.org/Graphics/SVG/1.1/DTD/svg11.dtd">
<!-- Generated by graphviz version 2.47.0 (20210316.0004)
 -->
<!-- Title: dependencies Pages: 1 -->
<svg width="857pt" height="284pt"
 viewBox="0.00 0.00 857.00 284.00" xmlns="http://www.w3.org/2000/svg" xmlns:xlink="http://www.w3.org/1999/xlink">
<g id="graph0" class="graph" transform="scale(1 1) rotate(0) translate(4 280)">
<title>dependencies</title>
<polygon fill="white" stroke="transparent" points="-4,4 -4,-280 853,-280 853,4 -4,4"/>
<text text-anchor="start" x="403.51" y="-42.4" font-family="sans-serif" font-weight="bold" font-size="14.00">Legend</text>
<polygon fill="#ffffb3" stroke="transparent" points="190.5,-10 190.5,-30 210.5,-30 210.5,-10 190.5,-10"/>
<text text-anchor="start" x="214.13" y="-15.4" font-family="sans-serif" font-size="14.00"> &#160;Declarations</text>
<polygon fill="#8dd3c7" stroke="transparent" points="303.5,-10 303.5,-30 323.5,-30 323.5,-10 303.5,-10"/>
<text text-anchor="start" x="327.23" y="-15.4" font-family="sans-serif" font-size="14.00"> &#160;Module</text>
<polygon fill="#80b1d3" stroke="transparent" points="389.5,-10 389.5,-30 409.5,-30 409.5,-10 389.5,-10"/>
<text text-anchor="start" x="413.28" y="-15.4" font-family="sans-serif" font-size="14.00"> &#160;Bootstrap</text>
<polygon fill="#fdb462" stroke="transparent" points="486.5,-10 486.5,-30 506.5,-30 506.5,-10 486.5,-10"/>
<text text-anchor="start" x="510.17" y="-15.4" font-family="sans-serif" font-size="14.00"> &#160;Providers</text>
<polygon fill="#fb8072" stroke="transparent" points="582.5,-10 582.5,-30 602.5,-30 602.5,-10 582.5,-10"/>
<text text-anchor="start" x="606.23" y="-15.4" font-family="sans-serif" font-size="14.00"> &#160;Exports</text>
<g id="clust1" class="cluster">
<title>cluster_AuthModule</title>
<polygon fill="none" stroke="black" stroke-dasharray="1,5" points="8,-70 8,-268 841,-268 841,-70 8,-70"/>
</g>
<g id="clust2" class="cluster">
<title>cluster_AuthModule_declarations</title>
<polygon fill="none" stroke="black" points="379,-78 379,-130 833,-130 833,-78 379,-78"/>
</g>
<g id="clust7" class="cluster">
<title>cluster_AuthModule_exports</title>
<polygon fill="none" stroke="black" points="152,-208 152,-260 616,-260 616,-208 152,-208"/>
</g>
<g id="clust6" class="cluster">
<title>cluster_AuthModule_imports</title>
<polygon fill="none" stroke="black" points="158,-78 158,-130 371,-130 371,-78 158,-78"/>
</g>
<g id="clust9" class="cluster">
<title>cluster_AuthModule_providers</title>
<polygon fill="none" stroke="black" points="16,-78 16,-130 150,-130 150,-78 16,-78"/>
</g>
<!-- LoginComponent -->
<g id="node1" class="node">
<title>LoginComponent</title>
<polygon fill="#ffffb3" stroke="black" points="825.28,-122 710.72,-122 710.72,-86 825.28,-86 825.28,-122"/>
<text text-anchor="middle" x="768" y="-99.8" font-family="Times,serif" font-size="14.00">LoginComponent</text>
</g>
<!-- AuthModule -->
<g id="node4" class="node">
<title>AuthModule</title>
<polygon fill="#8dd3c7" stroke="black" points="430.55,-187 427.55,-191 406.55,-191 403.55,-187 343.45,-187 343.45,-151 430.55,-151 430.55,-187"/>
<text text-anchor="middle" x="387" y="-164.8" font-family="Times,serif" font-size="14.00">AuthModule</text>
</g>
<!-- LoginComponent&#45;&gt;AuthModule -->
<g id="edge1" class="edge">
<title>LoginComponent&#45;&gt;AuthModule</title>
<path fill="none" stroke="black" d="M768,-122.11C768,-141.34 768,-169 768,-169 768,-169 440.71,-169 440.71,-169"/>
<polygon fill="black" stroke="black" points="440.71,-165.5 430.71,-169 440.71,-172.5 440.71,-165.5"/>
</g>
<!-- PasswordResetComponent -->
<g id="node2" class="node">
<title>PasswordResetComponent</title>
<polygon fill="#ffffb3" stroke="black" points="693.09,-122 526.91,-122 526.91,-86 693.09,-86 693.09,-122"/>
<text text-anchor="middle" x="610" y="-99.8" font-family="Times,serif" font-size="14.00">PasswordResetComponent</text>
</g>
<!-- PasswordResetComponent&#45;&gt;AuthModule -->
<g id="edge2" class="edge">
<title>PasswordResetComponent&#45;&gt;AuthModule</title>
<path fill="none" stroke="black" d="M567.55,-122.03C567.55,-138.4 567.55,-160 567.55,-160 567.55,-160 440.71,-160 440.71,-160"/>
<polygon fill="black" stroke="black" points="440.71,-156.5 430.71,-160 440.71,-163.5 440.71,-156.5"/>
</g>
<!-- SignupComponent -->
<g id="node3" class="node">
<title>SignupComponent</title>
<polygon fill="#ffffb3" stroke="black" points="508.51,-122 387.49,-122 387.49,-86 508.51,-86 508.51,-122"/>
<text text-anchor="middle" x="448" y="-99.8" font-family="Times,serif" font-size="14.00">SignupComponent</text>
</g>
<!-- SignupComponent&#45;&gt;AuthModule -->
<g id="edge3" class="edge">
<title>SignupComponent&#45;&gt;AuthModule</title>
<path fill="none" stroke="black" d="M409.14,-122.11C409.14,-122.11 409.14,-140.99 409.14,-140.99"/>
<polygon fill="black" stroke="black" points="405.64,-140.99 409.14,-150.99 412.64,-140.99 405.64,-140.99"/>
</g>
<!-- LoginComponent  -->
<g id="node7" class="node">
<title>LoginComponent </title>
<polygon fill="#fb8072" stroke="black" points="608.28,-252 489.72,-252 489.72,-216 608.28,-216 608.28,-252"/>
<text text-anchor="middle" x="549" y="-229.8" font-family="Times,serif" font-size="14.00">LoginComponent </text>
</g>
<!-- AuthModule&#45;&gt;LoginComponent  -->
<g id="edge6" class="edge">
<title>AuthModule&#45;&gt;LoginComponent </title>
<path fill="none" stroke="black" stroke-dasharray="5,2" d="M430.69,-178C462.19,-178 499.18,-178 499.18,-178 499.18,-178 499.18,-205.97 499.18,-205.97"/>
<polygon fill="black" stroke="black" points="495.68,-205.97 499.18,-215.97 502.68,-205.97 495.68,-205.97"/>
</g>
<!-- PasswordResetComponent  -->
<g id="node8" class="node">
<title>PasswordResetComponent </title>
<polygon fill="#fb8072" stroke="black" points="471.59,-252 302.41,-252 302.41,-216 471.59,-216 471.59,-252"/>
<text text-anchor="middle" x="387" y="-229.8" font-family="Times,serif" font-size="14.00">PasswordResetComponent </text>
</g>
<!-- AuthModule&#45;&gt;PasswordResetComponent  -->
<g id="edge7" class="edge">
<title>AuthModule&#45;&gt;PasswordResetComponent </title>
<path fill="none" stroke="black" stroke-dasharray="5,2" d="M387,-187.11C387,-187.11 387,-205.99 387,-205.99"/>
<polygon fill="black" stroke="black" points="383.5,-205.99 387,-215.99 390.5,-205.99 383.5,-205.99"/>
</g>
<!-- SignupComponent  -->
<g id="node9" class="node">
<title>SignupComponent </title>
<polygon fill="#fb8072" stroke="black" points="284.01,-252 159.99,-252 159.99,-216 284.01,-216 284.01,-252"/>
<text text-anchor="middle" x="222" y="-229.8" font-family="Times,serif" font-size="14.00">SignupComponent </text>
</g>
<!-- AuthModule&#45;&gt;SignupComponent  -->
<g id="edge8" class="edge">
<title>AuthModule&#45;&gt;SignupComponent </title>
<path fill="none" stroke="black" stroke-dasharray="5,2" d="M343.28,-178C312.95,-178 277.98,-178 277.98,-178 277.98,-178 277.98,-205.97 277.98,-205.97"/>
<polygon fill="black" stroke="black" points="274.48,-205.97 277.98,-215.97 281.48,-205.97 274.48,-205.97"/>
</g>
<!-- UiModule -->
<g id="node5" class="node">
<title>UiModule</title>
<polygon fill="#8dd3c7" stroke="black" points="362.55,-122 359.55,-126 338.55,-126 335.55,-122 289.45,-122 289.45,-86 362.55,-86 362.55,-122"/>
<text text-anchor="middle" x="326" y="-99.8" font-family="Times,serif" font-size="14.00">UiModule</text>
</g>
<!-- UiModule&#45;&gt;AuthModule -->
<g id="edge4" class="edge">
<title>UiModule&#45;&gt;AuthModule</title>
<path fill="none" stroke="black" d="M353,-122.11C353,-122.11 353,-140.99 353,-140.99"/>
<polygon fill="black" stroke="black" points="349.5,-140.99 353,-150.99 356.5,-140.99 349.5,-140.99"/>
</g>
<!-- cookieFactory() -->
<g id="node6" class="node">
<title>cookieFactory()</title>
<polygon fill="#8dd3c7" stroke="black" points="271.9,-122 268.9,-126 247.9,-126 244.9,-122 166.1,-122 166.1,-86 271.9,-86 271.9,-122"/>
<text text-anchor="middle" x="219" y="-99.8" font-family="Times,serif" font-size="14.00">cookieFactory()</text>
</g>
<!-- cookieFactory()&#45;&gt;AuthModule -->
<g id="edge5" class="edge">
<title>cookieFactory()&#45;&gt;AuthModule</title>
<path fill="none" stroke="black" d="M219,-122.03C219,-138.4 219,-160 219,-160 219,-160 333.3,-160 333.3,-160"/>
<polygon fill="black" stroke="black" points="333.3,-163.5 343.3,-160 333.3,-156.5 333.3,-163.5"/>
</g>
<!-- AuthService -->
<g id="node10" class="node">
<title>AuthService</title>
<ellipse fill="#fdb462" stroke="black" cx="83" cy="-104" rx="59.11" ry="18"/>
<text text-anchor="middle" x="83" y="-99.8" font-family="Times,serif" font-size="14.00">AuthService</text>
</g>
<!-- AuthService&#45;&gt;AuthModule -->
<g id="edge9" class="edge">
<title>AuthService&#45;&gt;AuthModule</title>
<path fill="none" stroke="black" d="M83,-122.11C83,-141.34 83,-169 83,-169 83,-169 333.44,-169 333.44,-169"/>
<polygon fill="black" stroke="black" points="333.44,-172.5 343.44,-169 333.44,-165.5 333.44,-172.5"/>
</g>
</g>
</svg>
