<?xml version="1.0" encoding="UTF-8" standalone="no"?>
<!DOCTYPE svg PUBLIC "-//W3C//DTD SVG 1.1//EN"
 "http://www.w3.org/Graphics/SVG/1.1/DTD/svg11.dtd">
<!-- Generated by graphviz version 2.40.1 (20161225.0304)
 -->
<!-- Title: dependencies Pages: 1 -->
<svg width="933pt" height="284pt"
 viewBox="0.00 0.00 933.00 284.00" xmlns="http://www.w3.org/2000/svg" xmlns:xlink="http://www.w3.org/1999/xlink">
<g id="graph0" class="graph" transform="scale(1 1) rotate(0) translate(4 280)">
<title>dependencies</title>
<polygon fill="#ffffff" stroke="transparent" points="-4,4 -4,-280 929,-280 929,4 -4,4"/>
<text text-anchor="start" x="441.5091" y="-42.4" font-family="sans-serif" font-weight="bold" font-size="14.00" fill="#000000">Legend</text>
<polygon fill="#ffffb3" stroke="transparent" points="228.5,-10 228.5,-30 248.5,-30 248.5,-10 228.5,-10"/>
<text text-anchor="start" x="252.129" y="-15.4" font-family="sans-serif" font-size="14.00" fill="#000000"> &#160;Declarations</text>
<polygon fill="#8dd3c7" stroke="transparent" points="341.5,-10 341.5,-30 361.5,-30 361.5,-10 341.5,-10"/>
<text text-anchor="start" x="365.2251" y="-15.4" font-family="sans-serif" font-size="14.00" fill="#000000"> &#160;Module</text>
<polygon fill="#80b1d3" stroke="transparent" points="427.5,-10 427.5,-30 447.5,-30 447.5,-10 427.5,-10"/>
<text text-anchor="start" x="451.2812" y="-15.4" font-family="sans-serif" font-size="14.00" fill="#000000"> &#160;Bootstrap</text>
<polygon fill="#fdb462" stroke="transparent" points="524.5,-10 524.5,-30 544.5,-30 544.5,-10 524.5,-10"/>
<text text-anchor="start" x="548.1732" y="-15.4" font-family="sans-serif" font-size="14.00" fill="#000000"> &#160;Providers</text>
<polygon fill="#fb8072" stroke="transparent" points="620.5,-10 620.5,-30 640.5,-30 640.5,-10 620.5,-10"/>
<text text-anchor="start" x="644.2258" y="-15.4" font-family="sans-serif" font-size="14.00" fill="#000000"> &#160;Exports</text>
<g id="clust1" class="cluster">
<title>cluster_AuthModule</title>
<polygon fill="none" stroke="#000000" stroke-dasharray="1,5" points="8,-70 8,-268 917,-268 917,-70 8,-70"/>
</g>
<g id="clust2" class="cluster">
<title>cluster_AuthModule_declarations</title>
<polygon fill="none" stroke="#000000" points="455,-78 455,-130 909,-130 909,-78 455,-78"/>
</g>
<g id="clust6" class="cluster">
<title>cluster_AuthModule_imports</title>
<polygon fill="none" stroke="#000000" points="285,-78 285,-130 447,-130 447,-78 285,-78"/>
</g>
<g id="clust7" class="cluster">
<title>cluster_AuthModule_exports</title>
<polygon fill="none" stroke="#000000" points="177,-208 177,-260 641,-260 641,-208 177,-208"/>
</g>
<g id="clust9" class="cluster">
<title>cluster_AuthModule_providers</title>
<polygon fill="none" stroke="#000000" points="16,-78 16,-130 277,-130 277,-78 16,-78"/>
</g>
<!-- LoginComponent -->
<g id="node1" class="node">
<title>LoginComponent</title>
<polygon fill="#ffffb3" stroke="#000000" points="901.2758,-122 786.7242,-122 786.7242,-86 901.2758,-86 901.2758,-122"/>
<text text-anchor="middle" x="844" y="-99.8" font-family="Times,serif" font-size="14.00" fill="#000000">LoginComponent</text>
</g>
<!-- AuthModule -->
<g id="node4" class="node">
<title>AuthModule</title>
<polygon fill="#8dd3c7" stroke="#000000" points="455.5482,-187 452.5482,-191 431.5482,-191 428.5482,-187 368.4518,-187 368.4518,-151 455.5482,-151 455.5482,-187"/>
<text text-anchor="middle" x="412" y="-164.8" font-family="Times,serif" font-size="14.00" fill="#000000">AuthModule</text>
</g>
<!-- LoginComponent&#45;&gt;AuthModule -->
<g id="edge1" class="edge">
<title>LoginComponent&#45;&gt;AuthModule</title>
<path fill="none" stroke="#000000" d="M844,-122.1061C844,-141.3391 844,-169 844,-169 844,-169 465.7998,-169 465.7998,-169"/>
<polygon fill="#000000" stroke="#000000" points="465.7999,-165.5001 455.7998,-169 465.7998,-172.5001 465.7999,-165.5001"/>
</g>
<!-- PasswordResetComponent -->
<g id="node2" class="node">
<title>PasswordResetComponent</title>
<polygon fill="#ffffb3" stroke="#000000" points="769.087,-122 602.913,-122 602.913,-86 769.087,-86 769.087,-122"/>
<text text-anchor="middle" x="686" y="-99.8" font-family="Times,serif" font-size="14.00" fill="#000000">PasswordResetComponent</text>
</g>
<!-- PasswordResetComponent&#45;&gt;AuthModule -->
<g id="edge2" class="edge">
<title>PasswordResetComponent&#45;&gt;AuthModule</title>
<path fill="none" stroke="#000000" d="M618.0472,-122.027C618.0472,-138.3976 618.0472,-160 618.0472,-160 618.0472,-160 465.6973,-160 465.6973,-160"/>
<polygon fill="#000000" stroke="#000000" points="465.6973,-156.5001 455.6973,-160 465.6973,-163.5001 465.6973,-156.5001"/>
</g>
<!-- SignupComponent -->
<g id="node3" class="node">
<title>SignupComponent</title>
<polygon fill="#ffffb3" stroke="#000000" points="584.5056,-122 463.4944,-122 463.4944,-86 584.5056,-86 584.5056,-122"/>
<text text-anchor="middle" x="524" y="-99.8" font-family="Times,serif" font-size="14.00" fill="#000000">SignupComponent</text>
</g>
<!-- SignupComponent&#45;&gt;AuthModule -->
<g id="edge3" class="edge">
<title>SignupComponent&#45;&gt;AuthModule</title>
<path fill="none" stroke="#000000" d="M463.2611,-104C453.9625,-104 447.3868,-104 447.3868,-104 447.3868,-104 447.3868,-140.8939 447.3868,-140.8939"/>
<polygon fill="#000000" stroke="#000000" points="443.8868,-140.8938 447.3868,-150.8939 450.8868,-140.8939 443.8868,-140.8938"/>
</g>
<!-- LoginComponent  -->
<g id="node7" class="node">
<title>LoginComponent </title>
<polygon fill="#fb8072" stroke="#000000" points="633.2759,-252 514.7241,-252 514.7241,-216 633.2759,-216 633.2759,-252"/>
<text text-anchor="middle" x="574" y="-229.8" font-family="Times,serif" font-size="14.00" fill="#000000">LoginComponent </text>
</g>
<!-- AuthModule&#45;&gt;LoginComponent  -->
<g id="edge6" class="edge">
<title>AuthModule&#45;&gt;LoginComponent </title>
<path fill="none" stroke="#000000" stroke-dasharray="5,2" d="M455.5636,-178C495.9003,-178 549.6825,-178 549.6825,-178 549.6825,-178 549.6825,-205.973 549.6825,-205.973"/>
<polygon fill="#000000" stroke="#000000" points="546.1826,-205.973 549.6825,-215.973 553.1826,-205.973 546.1826,-205.973"/>
</g>
<!-- PasswordResetComponent  -->
<g id="node8" class="node">
<title>PasswordResetComponent </title>
<polygon fill="#fb8072" stroke="#000000" points="496.5875,-252 327.4125,-252 327.4125,-216 496.5875,-216 496.5875,-252"/>
<text text-anchor="middle" x="412" y="-229.8" font-family="Times,serif" font-size="14.00" fill="#000000">PasswordResetComponent </text>
</g>
<!-- AuthModule&#45;&gt;PasswordResetComponent  -->
<g id="edge7" class="edge">
<title>AuthModule&#45;&gt;PasswordResetComponent </title>
<path fill="none" stroke="#000000" stroke-dasharray="5,2" d="M412,-187.1061C412,-187.1061 412,-205.991 412,-205.991"/>
<polygon fill="#000000" stroke="#000000" points="408.5001,-205.9909 412,-215.991 415.5001,-205.991 408.5001,-205.9909"/>
</g>
<!-- SignupComponent  -->
<g id="node9" class="node">
<title>SignupComponent </title>
<polygon fill="#fb8072" stroke="#000000" points="309.0066,-252 184.9934,-252 184.9934,-216 309.0066,-216 309.0066,-252"/>
<text text-anchor="middle" x="247" y="-229.8" font-family="Times,serif" font-size="14.00" fill="#000000">SignupComponent </text>
</g>
<!-- AuthModule&#45;&gt;SignupComponent  -->
<g id="edge8" class="edge">
<title>AuthModule&#45;&gt;SignupComponent </title>
<path fill="none" stroke="#000000" stroke-dasharray="5,2" d="M368.2246,-178C337.2652,-178 301.2397,-178 301.2397,-178 301.2397,-178 301.2397,-205.973 301.2397,-205.973"/>
<polygon fill="#000000" stroke="#000000" points="297.7397,-205.973 301.2397,-215.973 304.7397,-205.973 297.7397,-205.973"/>
</g>
<!-- () -->
<g id="node5" class="node">
<title>()</title>
<polygon fill="#8dd3c7" stroke="#000000" points="439,-122 436,-126 415,-126 412,-122 385,-122 385,-86 439,-86 439,-122"/>
<text text-anchor="middle" x="412" y="-99.8" font-family="Times,serif" font-size="14.00" fill="#000000">()</text>
</g>
<!-- ()&#45;&gt;AuthModule -->
<g id="edge4" class="edge">
<title>()&#45;&gt;AuthModule</title>
<path fill="none" stroke="#000000" d="M412,-122.1061C412,-122.1061 412,-140.991 412,-140.991"/>
<polygon fill="#000000" stroke="#000000" points="408.5001,-140.9909 412,-150.991 415.5001,-140.991 408.5001,-140.9909"/>
</g>
<!-- UiModule -->
<g id="node6" class="node">
<title>UiModule</title>
<polygon fill="#8dd3c7" stroke="#000000" points="366.5484,-122 363.5484,-126 342.5484,-126 339.5484,-122 293.4516,-122 293.4516,-86 366.5484,-86 366.5484,-122"/>
<text text-anchor="middle" x="330" y="-99.8" font-family="Times,serif" font-size="14.00" fill="#000000">UiModule</text>
</g>
<!-- UiModule&#45;&gt;AuthModule -->
<g id="edge5" class="edge">
<title>UiModule&#45;&gt;AuthModule</title>
<path fill="none" stroke="#000000" d="M366.7278,-104C372.505,-104 376.6133,-104 376.6133,-104 376.6133,-104 376.6133,-140.8939 376.6133,-140.8939"/>
<polygon fill="#000000" stroke="#000000" points="373.1133,-140.8938 376.6133,-150.8939 380.1133,-140.8939 373.1133,-140.8938"/>
</g>
<!-- AuthGuard -->
<g id="node10" class="node">
<title>AuthGuard</title>
<ellipse fill="#fdb462" stroke="#000000" cx="215" cy="-104" rx="54.4566" ry="18"/>
<text text-anchor="middle" x="215" y="-99.8" font-family="Times,serif" font-size="14.00" fill="#000000">AuthGuard</text>
</g>
<!-- AuthGuard&#45;&gt;AuthModule -->
<g id="edge9" class="edge">
<title>AuthGuard&#45;&gt;AuthModule</title>
<path fill="none" stroke="#000000" d="M227.1127,-121.7188C227.1127,-138.125 227.1127,-160 227.1127,-160 227.1127,-160 358.1843,-160 358.1843,-160"/>
<polygon fill="#000000" stroke="#000000" points="358.1843,-163.5001 368.1843,-160 358.1843,-156.5001 358.1843,-163.5001"/>
</g>
<!-- AuthService -->
<g id="node11" class="node">
<title>AuthService</title>
<ellipse fill="#fdb462" stroke="#000000" cx="83" cy="-104" rx="59.1083" ry="18"/>
<text text-anchor="middle" x="83" y="-99.8" font-family="Times,serif" font-size="14.00" fill="#000000">AuthService</text>
</g>
<!-- AuthService&#45;&gt;AuthModule -->
<g id="edge10" class="edge">
<title>AuthService&#45;&gt;AuthModule</title>
<path fill="none" stroke="#000000" d="M83,-122.1061C83,-141.3391 83,-169 83,-169 83,-169 358.3113,-169 358.3113,-169"/>
<polygon fill="#000000" stroke="#000000" points="358.3114,-172.5001 368.3113,-169 358.3113,-165.5001 358.3114,-172.5001"/>
</g>
</g>
</svg>
