<?xml version="1.0" encoding="UTF-8" standalone="no"?>
<!DOCTYPE svg PUBLIC "-//W3C//DTD SVG 1.1//EN"
 "http://www.w3.org/Graphics/SVG/1.1/DTD/svg11.dtd">
<!-- Generated by graphviz version 2.40.1 (20161225.0304)
 -->
<!-- Title: dependencies Pages: 1 -->
<svg width="766pt" height="284pt"
 viewBox="0.00 0.00 766.00 284.00" xmlns="http://www.w3.org/2000/svg" xmlns:xlink="http://www.w3.org/1999/xlink">
<g id="graph0" class="graph" transform="scale(1 1) rotate(0) translate(4 280)">
<title>dependencies</title>
<polygon fill="#ffffff" stroke="transparent" points="-4,4 -4,-280 762,-280 762,4 -4,4"/>
<text text-anchor="start" x="358.0091" y="-42.4" font-family="sans-serif" font-weight="bold" font-size="14.00" fill="#000000">Legend</text>
<polygon fill="#ffffb3" stroke="transparent" points="145,-10 145,-30 165,-30 165,-10 145,-10"/>
<text text-anchor="start" x="168.629" y="-15.4" font-family="sans-serif" font-size="14.00" fill="#000000"> &#160;Declarations</text>
<polygon fill="#8dd3c7" stroke="transparent" points="258,-10 258,-30 278,-30 278,-10 258,-10"/>
<text text-anchor="start" x="281.7251" y="-15.4" font-family="sans-serif" font-size="14.00" fill="#000000"> &#160;Module</text>
<polygon fill="#80b1d3" stroke="transparent" points="344,-10 344,-30 364,-30 364,-10 344,-10"/>
<text text-anchor="start" x="367.7812" y="-15.4" font-family="sans-serif" font-size="14.00" fill="#000000"> &#160;Bootstrap</text>
<polygon fill="#fdb462" stroke="transparent" points="441,-10 441,-30 461,-30 461,-10 441,-10"/>
<text text-anchor="start" x="464.6732" y="-15.4" font-family="sans-serif" font-size="14.00" fill="#000000"> &#160;Providers</text>
<polygon fill="#fb8072" stroke="transparent" points="537,-10 537,-30 557,-30 557,-10 537,-10"/>
<text text-anchor="start" x="560.7258" y="-15.4" font-family="sans-serif" font-size="14.00" fill="#000000"> &#160;Exports</text>
<g id="clust1" class="cluster">
<title>cluster_AuthModule</title>
<polygon fill="none" stroke="#000000" stroke-dasharray="1,5" points="8,-70 8,-268 750,-268 750,-70 8,-70"/>
</g>
<g id="clust2" class="cluster">
<title>cluster_AuthModule_declarations</title>
<polygon fill="none" stroke="#000000" points="240,-78 240,-130 742,-130 742,-78 240,-78"/>
</g>
<g id="clust6" class="cluster">
<title>cluster_AuthModule_imports</title>
<polygon fill="none" stroke="#000000" points="16,-78 16,-130 232,-130 232,-78 16,-78"/>
</g>
<g id="clust7" class="cluster">
<title>cluster_AuthModule_exports</title>
<polygon fill="none" stroke="#000000" points="76,-208 76,-260 588,-260 588,-208 76,-208"/>
</g>
<!-- ValidationOnBlurDirective -->
<g id="node1" class="node">
<title>ValidationOnBlurDirective</title>
<polygon fill="#ffffb3" stroke="#000000" points="733.6755,-122 564.3245,-122 564.3245,-86 733.6755,-86 733.6755,-122"/>
<text text-anchor="middle" x="649" y="-99.8" font-family="Times,serif" font-size="14.00" fill="#000000">ValidationOnBlurDirective</text>
</g>
<!-- AuthModule -->
<g id="node4" class="node">
<title>AuthModule</title>
<polygon fill="#8dd3c7" stroke="#000000" points="348.5482,-187 345.5482,-191 324.5482,-191 321.5482,-187 261.4518,-187 261.4518,-151 348.5482,-151 348.5482,-187"/>
<text text-anchor="middle" x="305" y="-164.8" font-family="Times,serif" font-size="14.00" fill="#000000">AuthModule</text>
</g>
<!-- ValidationOnBlurDirective&#45;&gt;AuthModule -->
<g id="edge1" class="edge">
<title>ValidationOnBlurDirective&#45;&gt;AuthModule</title>
<path fill="none" stroke="#000000" d="M572.375,-122.1061C572.375,-141.3391 572.375,-169 572.375,-169 572.375,-169 358.5535,-169 358.5535,-169"/>
<polygon fill="#000000" stroke="#000000" points="358.5535,-165.5001 348.5535,-169 358.5535,-172.5001 358.5535,-165.5001"/>
</g>
<!-- PasswordResetComponent -->
<g id="node2" class="node">
<title>PasswordResetComponent</title>
<polygon fill="#ffffb3" stroke="#000000" points="546.087,-122 379.913,-122 379.913,-86 546.087,-86 546.087,-122"/>
<text text-anchor="middle" x="463" y="-99.8" font-family="Times,serif" font-size="14.00" fill="#000000">PasswordResetComponent</text>
</g>
<!-- PasswordResetComponent&#45;&gt;AuthModule -->
<g id="edge2" class="edge">
<title>PasswordResetComponent&#45;&gt;AuthModule</title>
<path fill="none" stroke="#000000" d="M384.875,-122.027C384.875,-138.3976 384.875,-160 384.875,-160 384.875,-160 358.6768,-160 358.6768,-160"/>
<polygon fill="#000000" stroke="#000000" points="358.6768,-156.5001 348.6768,-160 358.6767,-163.5001 358.6768,-156.5001"/>
</g>
<!-- LoginComponent -->
<g id="node3" class="node">
<title>LoginComponent</title>
<polygon fill="#ffffb3" stroke="#000000" points="362.2758,-122 247.7242,-122 247.7242,-86 362.2758,-86 362.2758,-122"/>
<text text-anchor="middle" x="305" y="-99.8" font-family="Times,serif" font-size="14.00" fill="#000000">LoginComponent</text>
</g>
<!-- LoginComponent&#45;&gt;AuthModule -->
<g id="edge3" class="edge">
<title>LoginComponent&#45;&gt;AuthModule</title>
<path fill="none" stroke="#000000" d="M305,-122.1061C305,-122.1061 305,-140.991 305,-140.991"/>
<polygon fill="#000000" stroke="#000000" points="301.5001,-140.9909 305,-150.991 308.5001,-140.991 301.5001,-140.9909"/>
</g>
<!-- ValidationOnBlurDirective  -->
<g id="node7" class="node">
<title>ValidationOnBlurDirective </title>
<polygon fill="#fb8072" stroke="#000000" points="580.1757,-252 407.8243,-252 407.8243,-216 580.1757,-216 580.1757,-252"/>
<text text-anchor="middle" x="494" y="-229.8" font-family="Times,serif" font-size="14.00" fill="#000000">ValidationOnBlurDirective </text>
</g>
<!-- AuthModule&#45;&gt;ValidationOnBlurDirective  -->
<g id="edge6" class="edge">
<title>AuthModule&#45;&gt;ValidationOnBlurDirective </title>
<path fill="none" stroke="#000000" stroke-dasharray="5,2" d="M348.8104,-178C399.7261,-178 476.8529,-178 476.8529,-178 476.8529,-178 476.8529,-205.973 476.8529,-205.973"/>
<polygon fill="#000000" stroke="#000000" points="473.353,-205.973 476.8529,-215.973 480.353,-205.973 473.353,-205.973"/>
</g>
<!-- PasswordResetComponent  -->
<g id="node8" class="node">
<title>PasswordResetComponent </title>
<polygon fill="#fb8072" stroke="#000000" points="389.5875,-252 220.4125,-252 220.4125,-216 389.5875,-216 389.5875,-252"/>
<text text-anchor="middle" x="305" y="-229.8" font-family="Times,serif" font-size="14.00" fill="#000000">PasswordResetComponent </text>
</g>
<!-- AuthModule&#45;&gt;PasswordResetComponent  -->
<g id="edge7" class="edge">
<title>AuthModule&#45;&gt;PasswordResetComponent </title>
<path fill="none" stroke="#000000" stroke-dasharray="5,2" d="M305,-187.1061C305,-187.1061 305,-205.991 305,-205.991"/>
<polygon fill="#000000" stroke="#000000" points="301.5001,-205.9909 305,-215.991 308.5001,-205.991 301.5001,-205.9909"/>
</g>
<!-- LoginComponent  -->
<g id="node9" class="node">
<title>LoginComponent </title>
<polygon fill="#fb8072" stroke="#000000" points="202.2759,-252 83.7241,-252 83.7241,-216 202.2759,-216 202.2759,-252"/>
<text text-anchor="middle" x="143" y="-229.8" font-family="Times,serif" font-size="14.00" fill="#000000">LoginComponent </text>
</g>
<!-- AuthModule&#45;&gt;LoginComponent  -->
<g id="edge8" class="edge">
<title>AuthModule&#45;&gt;LoginComponent </title>
<path fill="none" stroke="#000000" stroke-dasharray="5,2" d="M261.1481,-178C218.0966,-178 158.8429,-178 158.8429,-178 158.8429,-178 158.8429,-205.973 158.8429,-205.973"/>
<polygon fill="#000000" stroke="#000000" points="155.343,-205.973 158.8429,-215.973 162.343,-205.973 155.343,-205.973"/>
</g>
<!-- cookieFactory.() -->
<g id="node5" class="node">
<title>cookieFactory.()</title>
<polygon fill="#8dd3c7" stroke="#000000" points="224.404,-122 221.404,-126 200.404,-126 197.404,-122 115.596,-122 115.596,-86 224.404,-86 224.404,-122"/>
<text text-anchor="middle" x="170" y="-99.8" font-family="Times,serif" font-size="14.00" fill="#000000">cookieFactory.()</text>
</g>
<!-- cookieFactory.()&#45;&gt;AuthModule -->
<g id="edge4" class="edge">
<title>cookieFactory.()&#45;&gt;AuthModule</title>
<path fill="none" stroke="#000000" d="M211.1722,-122.027C211.1722,-138.3976 211.1722,-160 211.1722,-160 211.1722,-160 251.3823,-160 251.3823,-160"/>
<polygon fill="#000000" stroke="#000000" points="251.3823,-163.5001 261.3823,-160 251.3823,-156.5001 251.3823,-163.5001"/>
</g>
<!-- UiModule -->
<g id="node6" class="node">
<title>UiModule</title>
<polygon fill="#8dd3c7" stroke="#000000" points="97.5484,-122 94.5484,-126 73.5484,-126 70.5484,-122 24.4516,-122 24.4516,-86 97.5484,-86 97.5484,-122"/>
<text text-anchor="middle" x="61" y="-99.8" font-family="Times,serif" font-size="14.00" fill="#000000">UiModule</text>
</g>
<!-- UiModule&#45;&gt;AuthModule -->
<g id="edge5" class="edge">
<title>UiModule&#45;&gt;AuthModule</title>
<path fill="none" stroke="#000000" d="M90.8178,-122.1061C90.8178,-141.3391 90.8178,-169 90.8178,-169 90.8178,-169 251.3989,-169 251.3989,-169"/>
<polygon fill="#000000" stroke="#000000" points="251.3989,-172.5001 261.3989,-169 251.3988,-165.5001 251.3989,-172.5001"/>
</g>
</g>
</svg>
