<?xml version="1.0" encoding="UTF-8" standalone="no"?>
<!DOCTYPE svg PUBLIC "-//W3C//DTD SVG 1.1//EN"
 "http://www.w3.org/Graphics/SVG/1.1/DTD/svg11.dtd">
<!-- Generated by graphviz version 2.40.1 (20161225.0304)
 -->
<!-- Title: dependencies Pages: 1 -->
<svg width="793pt" height="284pt"
 viewBox="0.00 0.00 793.00 284.00" xmlns="http://www.w3.org/2000/svg" xmlns:xlink="http://www.w3.org/1999/xlink">
<g id="graph0" class="graph" transform="scale(1 1) rotate(0) translate(4 280)">
<title>dependencies</title>
<polygon fill="#ffffff" stroke="transparent" points="-4,4 -4,-280 789,-280 789,4 -4,4"/>
<text text-anchor="start" x="371.5091" y="-42.4" font-family="sans-serif" font-weight="bold" font-size="14.00" fill="#000000">Legend</text>
<polygon fill="#ffffb3" stroke="transparent" points="158.5,-10 158.5,-30 178.5,-30 178.5,-10 158.5,-10"/>
<text text-anchor="start" x="182.129" y="-15.4" font-family="sans-serif" font-size="14.00" fill="#000000"> &#160;Declarations</text>
<polygon fill="#8dd3c7" stroke="transparent" points="271.5,-10 271.5,-30 291.5,-30 291.5,-10 271.5,-10"/>
<text text-anchor="start" x="295.2251" y="-15.4" font-family="sans-serif" font-size="14.00" fill="#000000"> &#160;Module</text>
<polygon fill="#80b1d3" stroke="transparent" points="357.5,-10 357.5,-30 377.5,-30 377.5,-10 357.5,-10"/>
<text text-anchor="start" x="381.2812" y="-15.4" font-family="sans-serif" font-size="14.00" fill="#000000"> &#160;Bootstrap</text>
<polygon fill="#fdb462" stroke="transparent" points="454.5,-10 454.5,-30 474.5,-30 474.5,-10 454.5,-10"/>
<text text-anchor="start" x="478.1732" y="-15.4" font-family="sans-serif" font-size="14.00" fill="#000000"> &#160;Providers</text>
<polygon fill="#fb8072" stroke="transparent" points="550.5,-10 550.5,-30 570.5,-30 570.5,-10 550.5,-10"/>
<text text-anchor="start" x="574.2258" y="-15.4" font-family="sans-serif" font-size="14.00" fill="#000000"> &#160;Exports</text>
<g id="clust1" class="cluster">
<title>cluster_AuthModule</title>
<polygon fill="none" stroke="#000000" stroke-dasharray="1,5" points="8,-70 8,-268 777,-268 777,-70 8,-70"/>
</g>
<g id="clust2" class="cluster">
<title>cluster_AuthModule_declarations</title>
<polygon fill="none" stroke="#000000" points="455,-78 455,-130 769,-130 769,-78 455,-78"/>
</g>
<g id="clust5" class="cluster">
<title>cluster_AuthModule_imports</title>
<polygon fill="none" stroke="#000000" points="285,-78 285,-130 447,-130 447,-78 285,-78"/>
</g>
<g id="clust6" class="cluster">
<title>cluster_AuthModule_exports</title>
<polygon fill="none" stroke="#000000" points="223,-208 223,-260 545,-260 545,-208 223,-208"/>
</g>
<g id="clust8" class="cluster">
<title>cluster_AuthModule_providers</title>
<polygon fill="none" stroke="#000000" points="16,-78 16,-130 277,-130 277,-78 16,-78"/>
</g>
<!-- PasswordResetComponent -->
<g id="node1" class="node">
<title>PasswordResetComponent</title>
<polygon fill="#ffffb3" stroke="#000000" points="761.087,-122 594.913,-122 594.913,-86 761.087,-86 761.087,-122"/>
<text text-anchor="middle" x="678" y="-99.8" font-family="Times,serif" font-size="14.00" fill="#000000">PasswordResetComponent</text>
</g>
<!-- AuthModule -->
<g id="node3" class="node">
<title>AuthModule</title>
<polygon fill="#8dd3c7" stroke="#000000" points="414.5482,-187 411.5482,-191 390.5482,-191 387.5482,-187 327.4518,-187 327.4518,-151 414.5482,-151 414.5482,-187"/>
<text text-anchor="middle" x="371" y="-164.8" font-family="Times,serif" font-size="14.00" fill="#000000">AuthModule</text>
</g>
<!-- PasswordResetComponent&#45;&gt;AuthModule -->
<g id="edge1" class="edge">
<title>PasswordResetComponent&#45;&gt;AuthModule</title>
<path fill="none" stroke="#000000" d="M678,-122.2843C678,-143.3211 678,-175 678,-175 678,-175 424.6596,-175 424.6596,-175"/>
<polygon fill="#000000" stroke="#000000" points="424.6596,-171.5001 414.6596,-175 424.6595,-178.5001 424.6596,-171.5001"/>
</g>
<!-- LoginComponent -->
<g id="node2" class="node">
<title>LoginComponent</title>
<polygon fill="#ffffb3" stroke="#000000" points="577.2758,-122 462.7242,-122 462.7242,-86 577.2758,-86 577.2758,-122"/>
<text text-anchor="middle" x="520" y="-99.8" font-family="Times,serif" font-size="14.00" fill="#000000">LoginComponent</text>
</g>
<!-- LoginComponent&#45;&gt;AuthModule -->
<g id="edge2" class="edge">
<title>LoginComponent&#45;&gt;AuthModule</title>
<path fill="none" stroke="#000000" d="M499.7029,-122.0225C499.7029,-139.3734 499.7029,-163 499.7029,-163 499.7029,-163 424.5729,-163 424.5729,-163"/>
<polygon fill="#000000" stroke="#000000" points="424.5729,-159.5001 414.5729,-163 424.5729,-166.5001 424.5729,-159.5001"/>
</g>
<!-- PasswordResetComponent  -->
<g id="node6" class="node">
<title>PasswordResetComponent </title>
<polygon fill="#fb8072" stroke="#000000" points="536.5875,-252 367.4125,-252 367.4125,-216 536.5875,-216 536.5875,-252"/>
<text text-anchor="middle" x="452" y="-229.8" font-family="Times,serif" font-size="14.00" fill="#000000">PasswordResetComponent </text>
</g>
<!-- AuthModule&#45;&gt;PasswordResetComponent  -->
<g id="edge5" class="edge">
<title>AuthModule&#45;&gt;PasswordResetComponent </title>
<path fill="none" stroke="#000000" stroke-dasharray="5,2" d="M390.99,-187.1061C390.99,-187.1061 390.99,-205.991 390.99,-205.991"/>
<polygon fill="#000000" stroke="#000000" points="387.4901,-205.9909 390.99,-215.991 394.4901,-205.991 387.4901,-205.9909"/>
</g>
<!-- LoginComponent  -->
<g id="node7" class="node">
<title>LoginComponent </title>
<polygon fill="#fb8072" stroke="#000000" points="349.2759,-252 230.7241,-252 230.7241,-216 349.2759,-216 349.2759,-252"/>
<text text-anchor="middle" x="290" y="-229.8" font-family="Times,serif" font-size="14.00" fill="#000000">LoginComponent </text>
</g>
<!-- AuthModule&#45;&gt;LoginComponent  -->
<g id="edge6" class="edge">
<title>AuthModule&#45;&gt;LoginComponent </title>
<path fill="none" stroke="#000000" stroke-dasharray="5,2" d="M338.1822,-187.1061C338.1822,-187.1061 338.1822,-205.991 338.1822,-205.991"/>
<polygon fill="#000000" stroke="#000000" points="334.6822,-205.9909 338.1822,-215.991 341.6822,-205.991 334.6822,-205.9909"/>
</g>
<!-- () -->
<g id="node4" class="node">
<title>()</title>
<polygon fill="#8dd3c7" stroke="#000000" points="439,-122 436,-126 415,-126 412,-122 385,-122 385,-86 439,-86 439,-122"/>
<text text-anchor="middle" x="412" y="-99.8" font-family="Times,serif" font-size="14.00" fill="#000000">()</text>
</g>
<!-- ()&#45;&gt;AuthModule -->
<g id="edge3" class="edge">
<title>()&#45;&gt;AuthModule</title>
<path fill="none" stroke="#000000" d="M399.8868,-122.1061C399.8868,-122.1061 399.8868,-140.991 399.8868,-140.991"/>
<polygon fill="#000000" stroke="#000000" points="396.3868,-140.9909 399.8868,-150.991 403.3868,-140.991 396.3868,-140.9909"/>
</g>
<!-- UiModule -->
<g id="node5" class="node">
<title>UiModule</title>
<polygon fill="#8dd3c7" stroke="#000000" points="366.5484,-122 363.5484,-126 342.5484,-126 339.5484,-122 293.4516,-122 293.4516,-86 366.5484,-86 366.5484,-122"/>
<text text-anchor="middle" x="330" y="-99.8" font-family="Times,serif" font-size="14.00" fill="#000000">UiModule</text>
</g>
<!-- UiModule&#45;&gt;AuthModule -->
<g id="edge4" class="edge">
<title>UiModule&#45;&gt;AuthModule</title>
<path fill="none" stroke="#000000" d="M347,-122.1061C347,-122.1061 347,-140.991 347,-140.991"/>
<polygon fill="#000000" stroke="#000000" points="343.5001,-140.9909 347,-150.991 350.5001,-140.991 343.5001,-140.9909"/>
</g>
<!-- AuthGuard -->
<g id="node8" class="node">
<title>AuthGuard</title>
<ellipse fill="#fdb462" stroke="#000000" cx="215" cy="-104" rx="54.4566" ry="18"/>
<text text-anchor="middle" x="215" y="-99.8" font-family="Times,serif" font-size="14.00" fill="#000000">AuthGuard</text>
</g>
<!-- AuthGuard&#45;&gt;AuthModule -->
<g id="edge7" class="edge">
<title>AuthGuard&#45;&gt;AuthModule</title>
<path fill="none" stroke="#000000" d="M250.1702,-117.9822C250.1702,-135.4293 250.1702,-163 250.1702,-163 250.1702,-163 317.3777,-163 317.3777,-163"/>
<polygon fill="#000000" stroke="#000000" points="317.3777,-166.5001 327.3777,-163 317.3776,-159.5001 317.3777,-166.5001"/>
</g>
<!-- AuthService -->
<g id="node9" class="node">
<title>AuthService</title>
<ellipse fill="#fdb462" stroke="#000000" cx="83" cy="-104" rx="59.1083" ry="18"/>
<text text-anchor="middle" x="83" y="-99.8" font-family="Times,serif" font-size="14.00" fill="#000000">AuthService</text>
</g>
<!-- AuthService&#45;&gt;AuthModule -->
<g id="edge8" class="edge">
<title>AuthService&#45;&gt;AuthModule</title>
<path fill="none" stroke="#000000" d="M83,-122.2843C83,-143.3211 83,-175 83,-175 83,-175 317.259,-175 317.259,-175"/>
<polygon fill="#000000" stroke="#000000" points="317.259,-178.5001 327.259,-175 317.259,-171.5001 317.259,-178.5001"/>
</g>
</g>
</svg>
