<?xml version="1.0" encoding="UTF-8" standalone="no"?>
<!DOCTYPE svg PUBLIC "-//W3C//DTD SVG 1.1//EN"
 "http://www.w3.org/Graphics/SVG/1.1/DTD/svg11.dtd">
<!-- Generated by graphviz version 2.40.1 (20161225.0304)
 -->
<!-- Title: dependencies Pages: 1 -->
<svg width="857pt" height="284pt"
 viewBox="0.00 0.00 857.00 284.00" xmlns="http://www.w3.org/2000/svg" xmlns:xlink="http://www.w3.org/1999/xlink">
<g id="graph0" class="graph" transform="scale(1 1) rotate(0) translate(4 280)">
<title>dependencies</title>
<polygon fill="#ffffff" stroke="transparent" points="-4,4 -4,-280 853,-280 853,4 -4,4"/>
<text text-anchor="start" x="403.5091" y="-42.4" font-family="sans-serif" font-weight="bold" font-size="14.00" fill="#000000">Legend</text>
<polygon fill="#ffffb3" stroke="transparent" points="190.5,-10 190.5,-30 210.5,-30 210.5,-10 190.5,-10"/>
<text text-anchor="start" x="214.129" y="-15.4" font-family="sans-serif" font-size="14.00" fill="#000000"> &#160;Declarations</text>
<polygon fill="#8dd3c7" stroke="transparent" points="303.5,-10 303.5,-30 323.5,-30 323.5,-10 303.5,-10"/>
<text text-anchor="start" x="327.2251" y="-15.4" font-family="sans-serif" font-size="14.00" fill="#000000"> &#160;Module</text>
<polygon fill="#80b1d3" stroke="transparent" points="389.5,-10 389.5,-30 409.5,-30 409.5,-10 389.5,-10"/>
<text text-anchor="start" x="413.2812" y="-15.4" font-family="sans-serif" font-size="14.00" fill="#000000"> &#160;Bootstrap</text>
<polygon fill="#fdb462" stroke="transparent" points="486.5,-10 486.5,-30 506.5,-30 506.5,-10 486.5,-10"/>
<text text-anchor="start" x="510.1732" y="-15.4" font-family="sans-serif" font-size="14.00" fill="#000000"> &#160;Providers</text>
<polygon fill="#fb8072" stroke="transparent" points="582.5,-10 582.5,-30 602.5,-30 602.5,-10 582.5,-10"/>
<text text-anchor="start" x="606.2258" y="-15.4" font-family="sans-serif" font-size="14.00" fill="#000000"> &#160;Exports</text>
<g id="clust1" class="cluster">
<title>cluster_AuthModule</title>
<polygon fill="none" stroke="#000000" stroke-dasharray="1,5" points="8,-70 8,-268 841,-268 841,-70 8,-70"/>
</g>
<g id="clust2" class="cluster">
<title>cluster_AuthModule_declarations</title>
<polygon fill="none" stroke="#000000" points="379,-78 379,-130 833,-130 833,-78 379,-78"/>
</g>
<g id="clust6" class="cluster">
<title>cluster_AuthModule_imports</title>
<polygon fill="none" stroke="#000000" points="158,-78 158,-130 371,-130 371,-78 158,-78"/>
</g>
<g id="clust7" class="cluster">
<title>cluster_AuthModule_exports</title>
<polygon fill="none" stroke="#000000" points="152,-208 152,-260 616,-260 616,-208 152,-208"/>
</g>
<g id="clust9" class="cluster">
<title>cluster_AuthModule_providers</title>
<polygon fill="none" stroke="#000000" points="16,-78 16,-130 150,-130 150,-78 16,-78"/>
</g>
<!-- LoginComponent -->
<g id="node1" class="node">
<title>LoginComponent</title>
<polygon fill="#ffffb3" stroke="#000000" points="825.2758,-122 710.7242,-122 710.7242,-86 825.2758,-86 825.2758,-122"/>
<text text-anchor="middle" x="768" y="-99.8" font-family="Times,serif" font-size="14.00" fill="#000000">LoginComponent</text>
</g>
<!-- AuthModule -->
<g id="node4" class="node">
<title>AuthModule</title>
<polygon fill="#8dd3c7" stroke="#000000" points="430.5482,-187 427.5482,-191 406.5482,-191 403.5482,-187 343.4518,-187 343.4518,-151 430.5482,-151 430.5482,-187"/>
<text text-anchor="middle" x="387" y="-164.8" font-family="Times,serif" font-size="14.00" fill="#000000">AuthModule</text>
</g>
<!-- LoginComponent&#45;&gt;AuthModule -->
<g id="edge1" class="edge">
<title>LoginComponent&#45;&gt;AuthModule</title>
<path fill="none" stroke="#000000" d="M768,-122.1061C768,-141.3391 768,-169 768,-169 768,-169 440.7055,-169 440.7055,-169"/>
<polygon fill="#000000" stroke="#000000" points="440.7056,-165.5001 430.7055,-169 440.7055,-172.5001 440.7056,-165.5001"/>
</g>
<!-- PasswordResetComponent -->
<g id="node2" class="node">
<title>PasswordResetComponent</title>
<polygon fill="#ffffb3" stroke="#000000" points="693.087,-122 526.913,-122 526.913,-86 693.087,-86 693.087,-122"/>
<text text-anchor="middle" x="610" y="-99.8" font-family="Times,serif" font-size="14.00" fill="#000000">PasswordResetComponent</text>
</g>
<!-- PasswordResetComponent&#45;&gt;AuthModule -->
<g id="edge2" class="edge">
<title>PasswordResetComponent&#45;&gt;AuthModule</title>
<path fill="none" stroke="#000000" d="M567.5472,-122.027C567.5472,-138.3976 567.5472,-160 567.5472,-160 567.5472,-160 440.7054,-160 440.7054,-160"/>
<polygon fill="#000000" stroke="#000000" points="440.7055,-156.5001 430.7054,-160 440.7054,-163.5001 440.7055,-156.5001"/>
</g>
<!-- SignupComponent -->
<g id="node3" class="node">
<title>SignupComponent</title>
<polygon fill="#ffffb3" stroke="#000000" points="508.5056,-122 387.4944,-122 387.4944,-86 508.5056,-86 508.5056,-122"/>
<text text-anchor="middle" x="448" y="-99.8" font-family="Times,serif" font-size="14.00" fill="#000000">SignupComponent</text>
</g>
<!-- SignupComponent&#45;&gt;AuthModule -->
<g id="edge3" class="edge">
<title>SignupComponent&#45;&gt;AuthModule</title>
<path fill="none" stroke="#000000" d="M409.1354,-122.1061C409.1354,-122.1061 409.1354,-140.991 409.1354,-140.991"/>
<polygon fill="#000000" stroke="#000000" points="405.6354,-140.9909 409.1354,-150.991 412.6354,-140.991 405.6354,-140.9909"/>
</g>
<!-- LoginComponent  -->
<g id="node7" class="node">
<title>LoginComponent </title>
<polygon fill="#fb8072" stroke="#000000" points="608.2759,-252 489.7241,-252 489.7241,-216 608.2759,-216 608.2759,-252"/>
<text text-anchor="middle" x="549" y="-229.8" font-family="Times,serif" font-size="14.00" fill="#000000">LoginComponent </text>
</g>
<!-- AuthModule&#45;&gt;LoginComponent  -->
<g id="edge6" class="edge">
<title>AuthModule&#45;&gt;LoginComponent </title>
<path fill="none" stroke="#000000" stroke-dasharray="5,2" d="M430.6939,-178C462.1929,-178 499.1825,-178 499.1825,-178 499.1825,-178 499.1825,-205.973 499.1825,-205.973"/>
<polygon fill="#000000" stroke="#000000" points="495.6826,-205.973 499.1825,-215.973 502.6826,-205.973 495.6826,-205.973"/>
</g>
<!-- PasswordResetComponent  -->
<g id="node8" class="node">
<title>PasswordResetComponent </title>
<polygon fill="#fb8072" stroke="#000000" points="471.5875,-252 302.4125,-252 302.4125,-216 471.5875,-216 471.5875,-252"/>
<text text-anchor="middle" x="387" y="-229.8" font-family="Times,serif" font-size="14.00" fill="#000000">PasswordResetComponent </text>
</g>
<!-- AuthModule&#45;&gt;PasswordResetComponent  -->
<g id="edge7" class="edge">
<title>AuthModule&#45;&gt;PasswordResetComponent </title>
<path fill="none" stroke="#000000" stroke-dasharray="5,2" d="M387,-187.1061C387,-187.1061 387,-205.991 387,-205.991"/>
<polygon fill="#000000" stroke="#000000" points="383.5001,-205.9909 387,-215.991 390.5001,-205.991 383.5001,-205.9909"/>
</g>
<!-- SignupComponent  -->
<g id="node9" class="node">
<title>SignupComponent </title>
<polygon fill="#fb8072" stroke="#000000" points="284.0066,-252 159.9934,-252 159.9934,-216 284.0066,-216 284.0066,-252"/>
<text text-anchor="middle" x="222" y="-229.8" font-family="Times,serif" font-size="14.00" fill="#000000">SignupComponent </text>
</g>
<!-- AuthModule&#45;&gt;SignupComponent  -->
<g id="edge8" class="edge">
<title>AuthModule&#45;&gt;SignupComponent </title>
<path fill="none" stroke="#000000" stroke-dasharray="5,2" d="M343.2845,-178C312.9536,-178 277.9774,-178 277.9774,-178 277.9774,-178 277.9774,-205.973 277.9774,-205.973"/>
<polygon fill="#000000" stroke="#000000" points="274.4775,-205.973 277.9774,-215.973 281.4775,-205.973 274.4775,-205.973"/>
</g>
<!-- UiModule -->
<g id="node5" class="node">
<title>UiModule</title>
<polygon fill="#8dd3c7" stroke="#000000" points="362.5484,-122 359.5484,-126 338.5484,-126 335.5484,-122 289.4516,-122 289.4516,-86 362.5484,-86 362.5484,-122"/>
<text text-anchor="middle" x="326" y="-99.8" font-family="Times,serif" font-size="14.00" fill="#000000">UiModule</text>
</g>
<!-- UiModule&#45;&gt;AuthModule -->
<g id="edge4" class="edge">
<title>UiModule&#45;&gt;AuthModule</title>
<path fill="none" stroke="#000000" d="M353,-122.1061C353,-122.1061 353,-140.991 353,-140.991"/>
<polygon fill="#000000" stroke="#000000" points="349.5001,-140.9909 353,-150.991 356.5001,-140.991 349.5001,-140.9909"/>
</g>
<!-- cookieFactory() -->
<g id="node6" class="node">
<title>cookieFactory()</title>
<polygon fill="#8dd3c7" stroke="#000000" points="271.9048,-122 268.9048,-126 247.9048,-126 244.9048,-122 166.0952,-122 166.0952,-86 271.9048,-86 271.9048,-122"/>
<text text-anchor="middle" x="219" y="-99.8" font-family="Times,serif" font-size="14.00" fill="#000000">cookieFactory()</text>
</g>
<!-- cookieFactory()&#45;&gt;AuthModule -->
<g id="edge5" class="edge">
<title>cookieFactory()&#45;&gt;AuthModule</title>
<path fill="none" stroke="#000000" d="M219,-122.027C219,-138.3976 219,-160 219,-160 219,-160 333.2985,-160 333.2985,-160"/>
<polygon fill="#000000" stroke="#000000" points="333.2986,-163.5001 343.2985,-160 333.2985,-156.5001 333.2986,-163.5001"/>
</g>
<!-- AuthService -->
<g id="node10" class="node">
<title>AuthService</title>
<ellipse fill="#fdb462" stroke="#000000" cx="83" cy="-104" rx="59.1083" ry="18"/>
<text text-anchor="middle" x="83" y="-99.8" font-family="Times,serif" font-size="14.00" fill="#000000">AuthService</text>
</g>
<!-- AuthService&#45;&gt;AuthModule -->
<g id="edge9" class="edge">
<title>AuthService&#45;&gt;AuthModule</title>
<path fill="none" stroke="#000000" d="M83,-122.1061C83,-141.3391 83,-169 83,-169 83,-169 333.4442,-169 333.4442,-169"/>
<polygon fill="#000000" stroke="#000000" points="333.4442,-172.5001 343.4442,-169 333.4442,-165.5001 333.4442,-172.5001"/>
</g>
</g>
</svg>
