<?xml version="1.0" encoding="UTF-8" standalone="no"?>
<!DOCTYPE svg PUBLIC "-//W3C//DTD SVG 1.1//EN"
 "http://www.w3.org/Graphics/SVG/1.1/DTD/svg11.dtd">
<!-- Generated by graphviz version 2.40.1 (20161225.0304)
 -->
<!-- Title: dependencies Pages: 1 -->
<svg width="2096pt" height="284pt"
 viewBox="0.00 0.00 2096.00 284.00" xmlns="http://www.w3.org/2000/svg" xmlns:xlink="http://www.w3.org/1999/xlink">
<g id="graph0" class="graph" transform="scale(1 1) rotate(0) translate(4 280)">
<title>dependencies</title>
<polygon fill="#ffffff" stroke="transparent" points="-4,4 -4,-280 2092,-280 2092,4 -4,4"/>
<text text-anchor="start" x="1023.0091" y="-42.4" font-family="sans-serif" font-weight="bold" font-size="14.00" fill="#000000">Legend</text>
<polygon fill="#ffffb3" stroke="transparent" points="810,-10 810,-30 830,-30 830,-10 810,-10"/>
<text text-anchor="start" x="833.629" y="-15.4" font-family="sans-serif" font-size="14.00" fill="#000000"> &#160;Declarations</text>
<polygon fill="#8dd3c7" stroke="transparent" points="923,-10 923,-30 943,-30 943,-10 923,-10"/>
<text text-anchor="start" x="946.7251" y="-15.4" font-family="sans-serif" font-size="14.00" fill="#000000"> &#160;Module</text>
<polygon fill="#80b1d3" stroke="transparent" points="1009,-10 1009,-30 1029,-30 1029,-10 1009,-10"/>
<text text-anchor="start" x="1032.7812" y="-15.4" font-family="sans-serif" font-size="14.00" fill="#000000"> &#160;Bootstrap</text>
<polygon fill="#fdb462" stroke="transparent" points="1106,-10 1106,-30 1126,-30 1126,-10 1106,-10"/>
<text text-anchor="start" x="1129.6732" y="-15.4" font-family="sans-serif" font-size="14.00" fill="#000000"> &#160;Providers</text>
<polygon fill="#fb8072" stroke="transparent" points="1202,-10 1202,-30 1222,-30 1222,-10 1202,-10"/>
<text text-anchor="start" x="1225.7258" y="-15.4" font-family="sans-serif" font-size="14.00" fill="#000000"> &#160;Exports</text>
<g id="clust1" class="cluster">
<title>cluster_AuthModule</title>
<polygon fill="none" stroke="#000000" stroke-dasharray="1,5" points="8,-70 8,-268 2080,-268 2080,-70 8,-70"/>
</g>
<g id="clust2" class="cluster">
<title>cluster_AuthModule_declarations</title>
<polygon fill="none" stroke="#000000" points="1207,-78 1207,-130 2072,-130 2072,-78 1207,-78"/>
</g>
<g id="clust8" class="cluster">
<title>cluster_AuthModule_imports</title>
<polygon fill="none" stroke="#000000" points="637,-78 637,-130 1199,-130 1199,-78 637,-78"/>
</g>
<g id="clust9" class="cluster">
<title>cluster_AuthModule_exports</title>
<polygon fill="none" stroke="#000000" points="599,-208 599,-260 1481,-260 1481,-208 599,-208"/>
</g>
<g id="clust11" class="cluster">
<title>cluster_AuthModule_providers</title>
<polygon fill="none" stroke="#000000" points="16,-78 16,-130 629,-130 629,-78 16,-78"/>
</g>
<!-- PublicLoginComponent -->
<g id="node1" class="node">
<title>PublicLoginComponent</title>
<polygon fill="#ffffb3" stroke="#000000" points="2064.0547,-122 1913.9453,-122 1913.9453,-86 2064.0547,-86 2064.0547,-122"/>
<text text-anchor="middle" x="1989" y="-99.8" font-family="Times,serif" font-size="14.00" fill="#000000">PublicLoginComponent</text>
</g>
<!-- AuthModule -->
<g id="node6" class="node">
<title>AuthModule</title>
<polygon fill="#8dd3c7" stroke="#000000" points="1081.5482,-187 1078.5482,-191 1057.5482,-191 1054.5482,-187 994.4518,-187 994.4518,-151 1081.5482,-151 1081.5482,-187"/>
<text text-anchor="middle" x="1038" y="-164.8" font-family="Times,serif" font-size="14.00" fill="#000000">AuthModule</text>
</g>
<!-- PublicLoginComponent&#45;&gt;AuthModule -->
<g id="edge1" class="edge">
<title>PublicLoginComponent&#45;&gt;AuthModule</title>
<path fill="none" stroke="#000000" d="M1989,-122.0267C1989,-142.7672 1989,-174 1989,-174 1989,-174 1091.647,-174 1091.647,-174"/>
<polygon fill="#000000" stroke="#000000" points="1091.6471,-170.5001 1081.647,-174 1091.647,-177.5001 1091.6471,-170.5001"/>
</g>
<!-- PublicSignupComponent -->
<g id="node2" class="node">
<title>PublicSignupComponent</title>
<polygon fill="#ffffb3" stroke="#000000" points="1895.2841,-122 1738.7159,-122 1738.7159,-86 1895.2841,-86 1895.2841,-122"/>
<text text-anchor="middle" x="1817" y="-99.8" font-family="Times,serif" font-size="14.00" fill="#000000">PublicSignupComponent</text>
</g>
<!-- PublicSignupComponent&#45;&gt;AuthModule -->
<g id="edge2" class="edge">
<title>PublicSignupComponent&#45;&gt;AuthModule</title>
<path fill="none" stroke="#000000" d="M1817,-122.1061C1817,-141.3391 1817,-169 1817,-169 1817,-169 1091.5516,-169 1091.5516,-169"/>
<polygon fill="#000000" stroke="#000000" points="1091.5517,-165.5001 1081.5516,-169 1091.5516,-172.5001 1091.5517,-165.5001"/>
</g>
<!-- ValidationOnBlurDirective -->
<g id="node3" class="node">
<title>ValidationOnBlurDirective</title>
<polygon fill="#ffffb3" stroke="#000000" points="1720.6755,-122 1551.3245,-122 1551.3245,-86 1720.6755,-86 1720.6755,-122"/>
<text text-anchor="middle" x="1636" y="-99.8" font-family="Times,serif" font-size="14.00" fill="#000000">ValidationOnBlurDirective</text>
</g>
<!-- ValidationOnBlurDirective&#45;&gt;AuthModule -->
<g id="edge3" class="edge">
<title>ValidationOnBlurDirective&#45;&gt;AuthModule</title>
<path fill="none" stroke="#000000" d="M1636,-122.302C1636,-140.2699 1636,-165 1636,-165 1636,-165 1091.9724,-165 1091.9724,-165"/>
<polygon fill="#000000" stroke="#000000" points="1091.9724,-161.5001 1081.9724,-165 1091.9723,-168.5001 1091.9724,-161.5001"/>
</g>
<!-- InputErrorsComponent -->
<g id="node4" class="node">
<title>InputErrorsComponent</title>
<polygon fill="#ffffb3" stroke="#000000" points="1532.8627,-122 1387.1373,-122 1387.1373,-86 1532.8627,-86 1532.8627,-122"/>
<text text-anchor="middle" x="1460" y="-99.8" font-family="Times,serif" font-size="14.00" fill="#000000">InputErrorsComponent</text>
</g>
<!-- InputErrorsComponent&#45;&gt;AuthModule -->
<g id="edge4" class="edge">
<title>InputErrorsComponent&#45;&gt;AuthModule</title>
<path fill="none" stroke="#000000" d="M1430.2032,-122.027C1430.2032,-138.3976 1430.2032,-160 1430.2032,-160 1430.2032,-160 1091.8491,-160 1091.8491,-160"/>
<polygon fill="#000000" stroke="#000000" points="1091.8491,-156.5001 1081.8491,-160 1091.849,-163.5001 1091.8491,-156.5001"/>
</g>
<!-- AdminLoginComponent -->
<g id="node5" class="node">
<title>AdminLoginComponent</title>
<polygon fill="#ffffb3" stroke="#000000" points="1368.6638,-122 1215.3362,-122 1215.3362,-86 1368.6638,-86 1368.6638,-122"/>
<text text-anchor="middle" x="1292" y="-99.8" font-family="Times,serif" font-size="14.00" fill="#000000">AdminLoginComponent</text>
</g>
<!-- AdminLoginComponent&#45;&gt;AuthModule -->
<g id="edge5" class="edge">
<title>AdminLoginComponent&#45;&gt;AuthModule</title>
<path fill="none" stroke="#000000" d="M1248.9248,-122.1871C1248.9248,-137.1824 1248.9248,-156 1248.9248,-156 1248.9248,-156 1091.7038,-156 1091.7038,-156"/>
<polygon fill="#000000" stroke="#000000" points="1091.7038,-152.5001 1081.7038,-156 1091.7037,-159.5001 1091.7038,-152.5001"/>
</g>
<!-- ValidationOnBlurDirective  -->
<g id="node11" class="node">
<title>ValidationOnBlurDirective </title>
<polygon fill="#fb8072" stroke="#000000" points="1473.1757,-252 1300.8243,-252 1300.8243,-216 1473.1757,-216 1473.1757,-252"/>
<text text-anchor="middle" x="1387" y="-229.8" font-family="Times,serif" font-size="14.00" fill="#000000">ValidationOnBlurDirective </text>
</g>
<!-- AuthModule&#45;&gt;ValidationOnBlurDirective  -->
<g id="edge10" class="edge">
<title>AuthModule&#45;&gt;ValidationOnBlurDirective </title>
<path fill="none" stroke="#000000" stroke-dasharray="5,2" d="M1081.786,-178C1164.3312,-178 1334.747,-178 1334.747,-178 1334.747,-178 1334.747,-205.973 1334.747,-205.973"/>
<polygon fill="#000000" stroke="#000000" points="1331.2471,-205.973 1334.747,-215.973 1338.2471,-205.973 1331.2471,-205.973"/>
</g>
<!-- InputErrorsComponent  -->
<g id="node12" class="node">
<title>InputErrorsComponent </title>
<polygon fill="#fb8072" stroke="#000000" points="1282.863,-252 1133.137,-252 1133.137,-216 1282.863,-216 1282.863,-252"/>
<text text-anchor="middle" x="1208" y="-229.8" font-family="Times,serif" font-size="14.00" fill="#000000">InputErrorsComponent </text>
</g>
<!-- AuthModule&#45;&gt;InputErrorsComponent  -->
<g id="edge11" class="edge">
<title>AuthModule&#45;&gt;InputErrorsComponent </title>
<path fill="none" stroke="#000000" stroke-dasharray="5,2" d="M1081.8058,-183C1117.578,-183 1162.2497,-183 1162.2497,-183 1162.2497,-183 1162.2497,-205.8757 1162.2497,-205.8757"/>
<polygon fill="#000000" stroke="#000000" points="1158.7497,-205.8757 1162.2497,-215.8757 1165.7497,-205.8757 1158.7497,-205.8757"/>
</g>
<!-- PublicLoginComponent  -->
<g id="node13" class="node">
<title>PublicLoginComponent </title>
<polygon fill="#fb8072" stroke="#000000" points="1115.054,-252 960.946,-252 960.946,-216 1115.054,-216 1115.054,-252"/>
<text text-anchor="middle" x="1038" y="-229.8" font-family="Times,serif" font-size="14.00" fill="#000000">PublicLoginComponent </text>
</g>
<!-- AuthModule&#45;&gt;PublicLoginComponent  -->
<g id="edge12" class="edge">
<title>AuthModule&#45;&gt;PublicLoginComponent </title>
<path fill="none" stroke="#000000" stroke-dasharray="5,2" d="M1038,-187.1061C1038,-187.1061 1038,-205.991 1038,-205.991"/>
<polygon fill="#000000" stroke="#000000" points="1034.5001,-205.9909 1038,-215.991 1041.5001,-205.991 1034.5001,-205.9909"/>
</g>
<!-- PublicSignupComponent  -->
<g id="node14" class="node">
<title>PublicSignupComponent </title>
<polygon fill="#fb8072" stroke="#000000" points="943.2843,-252 782.7157,-252 782.7157,-216 943.2843,-216 943.2843,-252"/>
<text text-anchor="middle" x="863" y="-229.8" font-family="Times,serif" font-size="14.00" fill="#000000">PublicSignupComponent </text>
</g>
<!-- AuthModule&#45;&gt;PublicSignupComponent  -->
<g id="edge13" class="edge">
<title>AuthModule&#45;&gt;PublicSignupComponent </title>
<path fill="none" stroke="#000000" stroke-dasharray="5,2" d="M994.1846,-183C962.899,-183 926.3277,-183 926.3277,-183 926.3277,-183 926.3277,-205.8757 926.3277,-205.8757"/>
<polygon fill="#000000" stroke="#000000" points="922.8277,-205.8757 926.3277,-215.8757 929.8277,-205.8757 922.8277,-205.8757"/>
</g>
<!-- AdminLoginComponent  -->
<g id="node15" class="node">
<title>AdminLoginComponent </title>
<polygon fill="#fb8072" stroke="#000000" points="764.6635,-252 607.3365,-252 607.3365,-216 764.6635,-216 764.6635,-252"/>
<text text-anchor="middle" x="686" y="-229.8" font-family="Times,serif" font-size="14.00" fill="#000000">AdminLoginComponent </text>
</g>
<!-- AuthModule&#45;&gt;AdminLoginComponent  -->
<g id="edge14" class="edge">
<title>AuthModule&#45;&gt;AdminLoginComponent </title>
<path fill="none" stroke="#000000" stroke-dasharray="5,2" d="M994.2027,-178C914.914,-178 755.7148,-178 755.7148,-178 755.7148,-178 755.7148,-205.973 755.7148,-205.973"/>
<polygon fill="#000000" stroke="#000000" points="752.2148,-205.973 755.7148,-215.973 759.2148,-205.973 752.2148,-205.973"/>
</g>
<!-- CookieModule.forRoot() -->
<g id="node7" class="node">
<title>CookieModule.forRoot()</title>
<polygon fill="#8dd3c7" stroke="#000000" points="1191.3616,-122 1188.3616,-126 1167.3616,-126 1164.3616,-122 1034.6384,-122 1034.6384,-86 1191.3616,-86 1191.3616,-122"/>
<text text-anchor="middle" x="1113" y="-99.8" font-family="Times,serif" font-size="14.00" fill="#000000">CookieModule.forRoot()</text>
</g>
<!-- CookieModule.forRoot()&#45;&gt;AuthModule -->
<g id="edge6" class="edge">
<title>CookieModule.forRoot()&#45;&gt;AuthModule</title>
<path fill="none" stroke="#000000" d="M1058.2965,-122.1061C1058.2965,-122.1061 1058.2965,-140.991 1058.2965,-140.991"/>
<polygon fill="#000000" stroke="#000000" points="1054.7965,-140.9909 1058.2965,-150.991 1061.7965,-140.991 1054.7965,-140.9909"/>
</g>
<!-- BrowserModule -->
<g id="node8" class="node">
<title>BrowserModule</title>
<polygon fill="#8dd3c7" stroke="#000000" points="1016.4734,-122 1013.4734,-126 992.4734,-126 989.4734,-122 909.5266,-122 909.5266,-86 1016.4734,-86 1016.4734,-122"/>
<text text-anchor="middle" x="963" y="-99.8" font-family="Times,serif" font-size="14.00" fill="#000000">BrowserModule</text>
</g>
<!-- BrowserModule&#45;&gt;AuthModule -->
<g id="edge7" class="edge">
<title>BrowserModule&#45;&gt;AuthModule</title>
<path fill="none" stroke="#000000" d="M1005.3566,-122.1061C1005.3566,-122.1061 1005.3566,-140.991 1005.3566,-140.991"/>
<polygon fill="#000000" stroke="#000000" points="1001.8567,-140.9909 1005.3566,-150.991 1008.8567,-140.991 1001.8567,-140.9909"/>
</g>
<!-- ReactiveFormsModule -->
<g id="node9" class="node">
<title>ReactiveFormsModule</title>
<polygon fill="#8dd3c7" stroke="#000000" points="891.3047,-122 888.3047,-126 867.3047,-126 864.3047,-122 746.6953,-122 746.6953,-86 891.3047,-86 891.3047,-122"/>
<text text-anchor="middle" x="819" y="-99.8" font-family="Times,serif" font-size="14.00" fill="#000000">ReactiveFormsModule</text>
</g>
<!-- ReactiveFormsModule&#45;&gt;AuthModule -->
<g id="edge8" class="edge">
<title>ReactiveFormsModule&#45;&gt;AuthModule</title>
<path fill="none" stroke="#000000" d="M837.0051,-122.1871C837.0051,-137.1824 837.0051,-156 837.0051,-156 837.0051,-156 984.3871,-156 984.3871,-156"/>
<polygon fill="#000000" stroke="#000000" points="984.3871,-159.5001 994.3871,-156 984.3871,-152.5001 984.3871,-159.5001"/>
</g>
<!-- HttpModule -->
<g id="node10" class="node">
<title>HttpModule</title>
<polygon fill="#8dd3c7" stroke="#000000" points="729.4387,-122 726.4387,-126 705.4387,-126 702.4387,-122 644.5613,-122 644.5613,-86 729.4387,-86 729.4387,-122"/>
<text text-anchor="middle" x="687" y="-99.8" font-family="Times,serif" font-size="14.00" fill="#000000">HttpModule</text>
</g>
<!-- HttpModule&#45;&gt;AuthModule -->
<g id="edge9" class="edge">
<title>HttpModule&#45;&gt;AuthModule</title>
<path fill="none" stroke="#000000" d="M687,-122.027C687,-138.3976 687,-160 687,-160 687,-160 984.2553,-160 984.2553,-160"/>
<polygon fill="#000000" stroke="#000000" points="984.2553,-163.5001 994.2553,-160 984.2553,-156.5001 984.2553,-163.5001"/>
</g>
<!-- AuthorizationService -->
<g id="node16" class="node">
<title>AuthorizationService</title>
<ellipse fill="#fdb462" stroke="#000000" cx="527" cy="-104" rx="93.7572" ry="18"/>
<text text-anchor="middle" x="527" y="-99.8" font-family="Times,serif" font-size="14.00" fill="#000000">AuthorizationService</text>
</g>
<!-- AuthorizationService&#45;&gt;AuthModule -->
<g id="edge15" class="edge">
<title>AuthorizationService&#45;&gt;AuthModule</title>
<path fill="none" stroke="#000000" d="M614.0234,-110.9975C614.0234,-127.0202 614.0234,-165 614.0234,-165 614.0234,-165 984.2239,-165 984.2239,-165"/>
<polygon fill="#000000" stroke="#000000" points="984.224,-168.5001 994.2239,-165 984.2239,-161.5001 984.224,-168.5001"/>
</g>
<!-- requestOptionsProvider -->
<g id="node17" class="node">
<title>requestOptionsProvider</title>
<ellipse fill="#fdb462" stroke="#000000" cx="313" cy="-104" rx="102.5092" ry="18"/>
<text text-anchor="middle" x="313" y="-99.8" font-family="Times,serif" font-size="14.00" fill="#000000">requestOptionsProvider</text>
</g>
<!-- requestOptionsProvider&#45;&gt;AuthModule -->
<g id="edge16" class="edge">
<title>requestOptionsProvider&#45;&gt;AuthModule</title>
<path fill="none" stroke="#000000" d="M313,-122.1061C313,-141.3391 313,-169 313,-169 313,-169 984.2807,-169 984.2807,-169"/>
<polygon fill="#000000" stroke="#000000" points="984.2807,-172.5001 994.2807,-169 984.2807,-165.5001 984.2807,-172.5001"/>
</g>
<!-- PublicAuthService -->
<g id="node18" class="node">
<title>PublicAuthService</title>
<ellipse fill="#fdb462" stroke="#000000" cx="108" cy="-104" rx="83.9663" ry="18"/>
<text text-anchor="middle" x="108" y="-99.8" font-family="Times,serif" font-size="14.00" fill="#000000">PublicAuthService</text>
</g>
<!-- PublicAuthService&#45;&gt;AuthModule -->
<g id="edge17" class="edge">
<title>PublicAuthService&#45;&gt;AuthModule</title>
<path fill="none" stroke="#000000" d="M108,-122.0267C108,-142.7672 108,-174 108,-174 108,-174 984.3915,-174 984.3915,-174"/>
<polygon fill="#000000" stroke="#000000" points="984.3916,-177.5001 994.3915,-174 984.3915,-170.5001 984.3916,-177.5001"/>
</g>
</g>
</svg>
