<?xml version="1.0" encoding="UTF-8" standalone="no"?>
<!DOCTYPE svg PUBLIC "-//W3C//DTD SVG 1.1//EN"
 "http://www.w3.org/Graphics/SVG/1.1/DTD/svg11.dtd">
<!-- Generated by graphviz version 2.40.1 (20161225.0304)
 -->
<!-- Title: dependencies Pages: 1 -->
<svg width="981pt" height="284pt"
 viewBox="0.00 0.00 981.00 284.00" xmlns="http://www.w3.org/2000/svg" xmlns:xlink="http://www.w3.org/1999/xlink">
<g id="graph0" class="graph" transform="scale(1 1) rotate(0) translate(4 280)">
<title>dependencies</title>
<polygon fill="#ffffff" stroke="transparent" points="-4,4 -4,-280 977,-280 977,4 -4,4"/>
<text text-anchor="start" x="465.5091" y="-42.4" font-family="sans-serif" font-weight="bold" font-size="14.00" fill="#000000">Legend</text>
<polygon fill="#ffffb3" stroke="transparent" points="252.5,-10 252.5,-30 272.5,-30 272.5,-10 252.5,-10"/>
<text text-anchor="start" x="276.129" y="-15.4" font-family="sans-serif" font-size="14.00" fill="#000000"> &#160;Declarations</text>
<polygon fill="#8dd3c7" stroke="transparent" points="365.5,-10 365.5,-30 385.5,-30 385.5,-10 365.5,-10"/>
<text text-anchor="start" x="389.2251" y="-15.4" font-family="sans-serif" font-size="14.00" fill="#000000"> &#160;Module</text>
<polygon fill="#80b1d3" stroke="transparent" points="451.5,-10 451.5,-30 471.5,-30 471.5,-10 451.5,-10"/>
<text text-anchor="start" x="475.2812" y="-15.4" font-family="sans-serif" font-size="14.00" fill="#000000"> &#160;Bootstrap</text>
<polygon fill="#fdb462" stroke="transparent" points="548.5,-10 548.5,-30 568.5,-30 568.5,-10 548.5,-10"/>
<text text-anchor="start" x="572.1732" y="-15.4" font-family="sans-serif" font-size="14.00" fill="#000000"> &#160;Providers</text>
<polygon fill="#fb8072" stroke="transparent" points="644.5,-10 644.5,-30 664.5,-30 664.5,-10 644.5,-10"/>
<text text-anchor="start" x="668.2258" y="-15.4" font-family="sans-serif" font-size="14.00" fill="#000000"> &#160;Exports</text>
<g id="clust1" class="cluster">
<title>cluster_AuthModule</title>
<polygon fill="none" stroke="#000000" stroke-dasharray="1,5" points="8,-70 8,-268 965,-268 965,-70 8,-70"/>
</g>
<g id="clust2" class="cluster">
<title>cluster_AuthModule_declarations</title>
<polygon fill="none" stroke="#000000" points="455,-78 455,-130 957,-130 957,-78 455,-78"/>
</g>
<g id="clust6" class="cluster">
<title>cluster_AuthModule_imports</title>
<polygon fill="none" stroke="#000000" points="285,-78 285,-130 447,-130 447,-78 285,-78"/>
</g>
<g id="clust7" class="cluster">
<title>cluster_AuthModule_exports</title>
<polygon fill="none" stroke="#000000" points="183,-208 183,-260 695,-260 695,-208 183,-208"/>
</g>
<g id="clust9" class="cluster">
<title>cluster_AuthModule_providers</title>
<polygon fill="none" stroke="#000000" points="16,-78 16,-130 277,-130 277,-78 16,-78"/>
</g>
<!-- ValidationOnBlurDirective -->
<g id="node1" class="node">
<title>ValidationOnBlurDirective</title>
<polygon fill="#ffffb3" stroke="#000000" points="948.6755,-122 779.3245,-122 779.3245,-86 948.6755,-86 948.6755,-122"/>
<text text-anchor="middle" x="864" y="-99.8" font-family="Times,serif" font-size="14.00" fill="#000000">ValidationOnBlurDirective</text>
</g>
<!-- AuthModule -->
<g id="node4" class="node">
<title>AuthModule</title>
<polygon fill="#8dd3c7" stroke="#000000" points="455.5482,-187 452.5482,-191 431.5482,-191 428.5482,-187 368.4518,-187 368.4518,-151 455.5482,-151 455.5482,-187"/>
<text text-anchor="middle" x="412" y="-164.8" font-family="Times,serif" font-size="14.00" fill="#000000">AuthModule</text>
</g>
<!-- ValidationOnBlurDirective&#45;&gt;AuthModule -->
<g id="edge1" class="edge">
<title>ValidationOnBlurDirective&#45;&gt;AuthModule</title>
<path fill="none" stroke="#000000" d="M864,-122.1061C864,-141.3391 864,-169 864,-169 864,-169 465.7504,-169 465.7504,-169"/>
<polygon fill="#000000" stroke="#000000" points="465.7504,-165.5001 455.7504,-169 465.7503,-172.5001 465.7504,-165.5001"/>
</g>
<!-- PasswordResetComponent -->
<g id="node2" class="node">
<title>PasswordResetComponent</title>
<polygon fill="#ffffb3" stroke="#000000" points="761.087,-122 594.913,-122 594.913,-86 761.087,-86 761.087,-122"/>
<text text-anchor="middle" x="678" y="-99.8" font-family="Times,serif" font-size="14.00" fill="#000000">PasswordResetComponent</text>
</g>
<!-- PasswordResetComponent&#45;&gt;AuthModule -->
<g id="edge2" class="edge">
<title>PasswordResetComponent&#45;&gt;AuthModule</title>
<path fill="none" stroke="#000000" d="M641.1471,-122.027C641.1471,-138.3976 641.1471,-160 641.1471,-160 641.1471,-160 465.6402,-160 465.6402,-160"/>
<polygon fill="#000000" stroke="#000000" points="465.6402,-156.5001 455.6402,-160 465.6401,-163.5001 465.6402,-156.5001"/>
</g>
<!-- LoginComponent -->
<g id="node3" class="node">
<title>LoginComponent</title>
<polygon fill="#ffffb3" stroke="#000000" points="577.2758,-122 462.7242,-122 462.7242,-86 577.2758,-86 577.2758,-122"/>
<text text-anchor="middle" x="520" y="-99.8" font-family="Times,serif" font-size="14.00" fill="#000000">LoginComponent</text>
</g>
<!-- LoginComponent&#45;&gt;AuthModule -->
<g id="edge3" class="edge">
<title>LoginComponent&#45;&gt;AuthModule</title>
<path fill="none" stroke="#000000" d="M462.4323,-104C453.6192,-104 447.3868,-104 447.3868,-104 447.3868,-104 447.3868,-140.8939 447.3868,-140.8939"/>
<polygon fill="#000000" stroke="#000000" points="443.8868,-140.8938 447.3868,-150.8939 450.8868,-140.8939 443.8868,-140.8938"/>
</g>
<!-- ValidationOnBlurDirective  -->
<g id="node7" class="node">
<title>ValidationOnBlurDirective </title>
<polygon fill="#fb8072" stroke="#000000" points="687.1757,-252 514.8243,-252 514.8243,-216 687.1757,-216 687.1757,-252"/>
<text text-anchor="middle" x="601" y="-229.8" font-family="Times,serif" font-size="14.00" fill="#000000">ValidationOnBlurDirective </text>
</g>
<!-- AuthModule&#45;&gt;ValidationOnBlurDirective  -->
<g id="edge6" class="edge">
<title>AuthModule&#45;&gt;ValidationOnBlurDirective </title>
<path fill="none" stroke="#000000" stroke-dasharray="5,2" d="M455.8848,-178C494.9722,-178 546.0251,-178 546.0251,-178 546.0251,-178 546.0251,-205.973 546.0251,-205.973"/>
<polygon fill="#000000" stroke="#000000" points="542.5251,-205.973 546.0251,-215.973 549.5251,-205.973 542.5251,-205.973"/>
</g>
<!-- PasswordResetComponent  -->
<g id="node8" class="node">
<title>PasswordResetComponent </title>
<polygon fill="#fb8072" stroke="#000000" points="496.5875,-252 327.4125,-252 327.4125,-216 496.5875,-216 496.5875,-252"/>
<text text-anchor="middle" x="412" y="-229.8" font-family="Times,serif" font-size="14.00" fill="#000000">PasswordResetComponent </text>
</g>
<!-- AuthModule&#45;&gt;PasswordResetComponent  -->
<g id="edge7" class="edge">
<title>AuthModule&#45;&gt;PasswordResetComponent </title>
<path fill="none" stroke="#000000" stroke-dasharray="5,2" d="M412,-187.1061C412,-187.1061 412,-205.991 412,-205.991"/>
<polygon fill="#000000" stroke="#000000" points="408.5001,-205.9909 412,-215.991 415.5001,-205.991 408.5001,-205.9909"/>
</g>
<!-- LoginComponent  -->
<g id="node9" class="node">
<title>LoginComponent </title>
<polygon fill="#fb8072" stroke="#000000" points="309.2759,-252 190.7241,-252 190.7241,-216 309.2759,-216 309.2759,-252"/>
<text text-anchor="middle" x="250" y="-229.8" font-family="Times,serif" font-size="14.00" fill="#000000">LoginComponent </text>
</g>
<!-- AuthModule&#45;&gt;LoginComponent  -->
<g id="edge8" class="edge">
<title>AuthModule&#45;&gt;LoginComponent </title>
<path fill="none" stroke="#000000" stroke-dasharray="5,2" d="M368.2019,-178C337.2264,-178 301.1822,-178 301.1822,-178 301.1822,-178 301.1822,-205.973 301.1822,-205.973"/>
<polygon fill="#000000" stroke="#000000" points="297.6822,-205.973 301.1822,-215.973 304.6822,-205.973 297.6822,-205.973"/>
</g>
<!-- () -->
<g id="node5" class="node">
<title>()</title>
<polygon fill="#8dd3c7" stroke="#000000" points="439,-122 436,-126 415,-126 412,-122 385,-122 385,-86 439,-86 439,-122"/>
<text text-anchor="middle" x="412" y="-99.8" font-family="Times,serif" font-size="14.00" fill="#000000">()</text>
</g>
<!-- ()&#45;&gt;AuthModule -->
<g id="edge4" class="edge">
<title>()&#45;&gt;AuthModule</title>
<path fill="none" stroke="#000000" d="M412,-122.1061C412,-122.1061 412,-140.991 412,-140.991"/>
<polygon fill="#000000" stroke="#000000" points="408.5001,-140.9909 412,-150.991 415.5001,-140.991 408.5001,-140.9909"/>
</g>
<!-- UiModule -->
<g id="node6" class="node">
<title>UiModule</title>
<polygon fill="#8dd3c7" stroke="#000000" points="366.5484,-122 363.5484,-126 342.5484,-126 339.5484,-122 293.4516,-122 293.4516,-86 366.5484,-86 366.5484,-122"/>
<text text-anchor="middle" x="330" y="-99.8" font-family="Times,serif" font-size="14.00" fill="#000000">UiModule</text>
</g>
<!-- UiModule&#45;&gt;AuthModule -->
<g id="edge5" class="edge">
<title>UiModule&#45;&gt;AuthModule</title>
<path fill="none" stroke="#000000" d="M366.7278,-104C372.505,-104 376.6133,-104 376.6133,-104 376.6133,-104 376.6133,-140.8939 376.6133,-140.8939"/>
<polygon fill="#000000" stroke="#000000" points="373.1133,-140.8938 376.6133,-150.8939 380.1133,-140.8939 373.1133,-140.8938"/>
</g>
<!-- AuthGuard -->
<g id="node10" class="node">
<title>AuthGuard</title>
<ellipse fill="#fdb462" stroke="#000000" cx="215" cy="-104" rx="54.4566" ry="18"/>
<text text-anchor="middle" x="215" y="-99.8" font-family="Times,serif" font-size="14.00" fill="#000000">AuthGuard</text>
</g>
<!-- AuthGuard&#45;&gt;AuthModule -->
<g id="edge9" class="edge">
<title>AuthGuard&#45;&gt;AuthModule</title>
<path fill="none" stroke="#000000" d="M230.1702,-121.4118C230.1702,-137.8507 230.1702,-160 230.1702,-160 230.1702,-160 358.4472,-160 358.4472,-160"/>
<polygon fill="#000000" stroke="#000000" points="358.4473,-163.5001 368.4472,-160 358.4472,-156.5001 358.4473,-163.5001"/>
</g>
<!-- AuthService -->
<g id="node11" class="node">
<title>AuthService</title>
<ellipse fill="#fdb462" stroke="#000000" cx="83" cy="-104" rx="59.1083" ry="18"/>
<text text-anchor="middle" x="83" y="-99.8" font-family="Times,serif" font-size="14.00" fill="#000000">AuthService</text>
</g>
<!-- AuthService&#45;&gt;AuthModule -->
<g id="edge10" class="edge">
<title>AuthService&#45;&gt;AuthModule</title>
<path fill="none" stroke="#000000" d="M83,-122.1061C83,-141.3391 83,-169 83,-169 83,-169 358.3113,-169 358.3113,-169"/>
<polygon fill="#000000" stroke="#000000" points="358.3114,-172.5001 368.3113,-169 358.3113,-165.5001 358.3114,-172.5001"/>
</g>
</g>
</svg>
