<?xml version="1.0" encoding="UTF-8" standalone="no"?>
<!DOCTYPE svg PUBLIC "-//W3C//DTD SVG 1.1//EN"
 "http://www.w3.org/Graphics/SVG/1.1/DTD/svg11.dtd">
<!-- Generated by graphviz version 2.40.1 (20161225.0304)
 -->
<!-- Title: dependencies Pages: 1 -->
<svg width="1035pt" height="284pt"
 viewBox="0.00 0.00 1035.00 284.00" xmlns="http://www.w3.org/2000/svg" xmlns:xlink="http://www.w3.org/1999/xlink">
<g id="graph0" class="graph" transform="scale(1 1) rotate(0) translate(4 280)">
<title>dependencies</title>
<polygon fill="#ffffff" stroke="transparent" points="-4,4 -4,-280 1031,-280 1031,4 -4,4"/>
<text text-anchor="start" x="492.5091" y="-42.4" font-family="sans-serif" font-weight="bold" font-size="14.00" fill="#000000">Legend</text>
<polygon fill="#ffffb3" stroke="transparent" points="279.5,-10 279.5,-30 299.5,-30 299.5,-10 279.5,-10"/>
<text text-anchor="start" x="303.129" y="-15.4" font-family="sans-serif" font-size="14.00" fill="#000000"> &#160;Declarations</text>
<polygon fill="#8dd3c7" stroke="transparent" points="392.5,-10 392.5,-30 412.5,-30 412.5,-10 392.5,-10"/>
<text text-anchor="start" x="416.2251" y="-15.4" font-family="sans-serif" font-size="14.00" fill="#000000"> &#160;Module</text>
<polygon fill="#80b1d3" stroke="transparent" points="478.5,-10 478.5,-30 498.5,-30 498.5,-10 478.5,-10"/>
<text text-anchor="start" x="502.2812" y="-15.4" font-family="sans-serif" font-size="14.00" fill="#000000"> &#160;Bootstrap</text>
<polygon fill="#fdb462" stroke="transparent" points="575.5,-10 575.5,-30 595.5,-30 595.5,-10 575.5,-10"/>
<text text-anchor="start" x="599.1732" y="-15.4" font-family="sans-serif" font-size="14.00" fill="#000000"> &#160;Providers</text>
<polygon fill="#fb8072" stroke="transparent" points="671.5,-10 671.5,-30 691.5,-30 691.5,-10 671.5,-10"/>
<text text-anchor="start" x="695.2258" y="-15.4" font-family="sans-serif" font-size="14.00" fill="#000000"> &#160;Exports</text>
<g id="clust1" class="cluster">
<title>cluster_AuthModule</title>
<polygon fill="none" stroke="#000000" stroke-dasharray="1,5" points="8,-70 8,-268 1019,-268 1019,-70 8,-70"/>
</g>
<g id="clust2" class="cluster">
<title>cluster_AuthModule_declarations</title>
<polygon fill="none" stroke="#000000" points="509,-78 509,-130 1011,-130 1011,-78 509,-78"/>
</g>
<g id="clust6" class="cluster">
<title>cluster_AuthModule_imports</title>
<polygon fill="none" stroke="#000000" points="285,-78 285,-130 501,-130 501,-78 285,-78"/>
</g>
<g id="clust7" class="cluster">
<title>cluster_AuthModule_exports</title>
<polygon fill="none" stroke="#000000" points="210,-208 210,-260 722,-260 722,-208 210,-208"/>
</g>
<g id="clust9" class="cluster">
<title>cluster_AuthModule_providers</title>
<polygon fill="none" stroke="#000000" points="16,-78 16,-130 277,-130 277,-78 16,-78"/>
</g>
<!-- ValidationOnBlurDirective -->
<g id="node1" class="node">
<title>ValidationOnBlurDirective</title>
<polygon fill="#ffffb3" stroke="#000000" points="1002.6755,-122 833.3245,-122 833.3245,-86 1002.6755,-86 1002.6755,-122"/>
<text text-anchor="middle" x="918" y="-99.8" font-family="Times,serif" font-size="14.00" fill="#000000">ValidationOnBlurDirective</text>
</g>
<!-- AuthModule -->
<g id="node4" class="node">
<title>AuthModule</title>
<polygon fill="#8dd3c7" stroke="#000000" points="482.5482,-187 479.5482,-191 458.5482,-191 455.5482,-187 395.4518,-187 395.4518,-151 482.5482,-151 482.5482,-187"/>
<text text-anchor="middle" x="439" y="-164.8" font-family="Times,serif" font-size="14.00" fill="#000000">AuthModule</text>
</g>
<!-- ValidationOnBlurDirective&#45;&gt;AuthModule -->
<g id="edge1" class="edge">
<title>ValidationOnBlurDirective&#45;&gt;AuthModule</title>
<path fill="none" stroke="#000000" d="M918,-122.1289C918,-142.5724 918,-173 918,-173 918,-173 492.7779,-173 492.7779,-173"/>
<polygon fill="#000000" stroke="#000000" points="492.7779,-169.5001 482.7779,-173 492.7778,-176.5001 492.7779,-169.5001"/>
</g>
<!-- PasswordResetComponent -->
<g id="node2" class="node">
<title>PasswordResetComponent</title>
<polygon fill="#ffffb3" stroke="#000000" points="815.087,-122 648.913,-122 648.913,-86 815.087,-86 815.087,-122"/>
<text text-anchor="middle" x="732" y="-99.8" font-family="Times,serif" font-size="14.00" fill="#000000">PasswordResetComponent</text>
</g>
<!-- PasswordResetComponent&#45;&gt;AuthModule -->
<g id="edge2" class="edge">
<title>PasswordResetComponent&#45;&gt;AuthModule</title>
<path fill="none" stroke="#000000" d="M681.6471,-122.2667C681.6471,-140.5552 681.6471,-166 681.6471,-166 681.6471,-166 492.6607,-166 492.6607,-166"/>
<polygon fill="#000000" stroke="#000000" points="492.6607,-162.5001 482.6607,-166 492.6606,-169.5001 492.6607,-162.5001"/>
</g>
<!-- LoginComponent -->
<g id="node3" class="node">
<title>LoginComponent</title>
<polygon fill="#ffffb3" stroke="#000000" points="631.2758,-122 516.7242,-122 516.7242,-86 631.2758,-86 631.2758,-122"/>
<text text-anchor="middle" x="574" y="-99.8" font-family="Times,serif" font-size="14.00" fill="#000000">LoginComponent</text>
</g>
<!-- LoginComponent&#45;&gt;AuthModule -->
<g id="edge3" class="edge">
<title>LoginComponent&#45;&gt;AuthModule</title>
<path fill="none" stroke="#000000" d="M520.2029,-122.0091C520.2029,-138.0494 520.2029,-159 520.2029,-159 520.2029,-159 492.9287,-159 492.9287,-159"/>
<polygon fill="#000000" stroke="#000000" points="492.9287,-155.5001 482.9287,-159 492.9287,-162.5001 492.9287,-155.5001"/>
</g>
<!-- ValidationOnBlurDirective  -->
<g id="node7" class="node">
<title>ValidationOnBlurDirective </title>
<polygon fill="#fb8072" stroke="#000000" points="714.1757,-252 541.8243,-252 541.8243,-216 714.1757,-216 714.1757,-252"/>
<text text-anchor="middle" x="628" y="-229.8" font-family="Times,serif" font-size="14.00" fill="#000000">ValidationOnBlurDirective </text>
</g>
<!-- AuthModule&#45;&gt;ValidationOnBlurDirective  -->
<g id="edge6" class="edge">
<title>AuthModule&#45;&gt;ValidationOnBlurDirective </title>
<path fill="none" stroke="#000000" stroke-dasharray="5,2" d="M482.863,-180C526.3493,-180 586.5251,-180 586.5251,-180 586.5251,-180 586.5251,-205.7181 586.5251,-205.7181"/>
<polygon fill="#000000" stroke="#000000" points="583.0251,-205.718 586.5251,-215.7181 590.0251,-205.7181 583.0251,-205.718"/>
</g>
<!-- PasswordResetComponent  -->
<g id="node8" class="node">
<title>PasswordResetComponent </title>
<polygon fill="#fb8072" stroke="#000000" points="523.5875,-252 354.4125,-252 354.4125,-216 523.5875,-216 523.5875,-252"/>
<text text-anchor="middle" x="439" y="-229.8" font-family="Times,serif" font-size="14.00" fill="#000000">PasswordResetComponent </text>
</g>
<!-- AuthModule&#45;&gt;PasswordResetComponent  -->
<g id="edge7" class="edge">
<title>AuthModule&#45;&gt;PasswordResetComponent </title>
<path fill="none" stroke="#000000" stroke-dasharray="5,2" d="M439,-187.1061C439,-187.1061 439,-205.991 439,-205.991"/>
<polygon fill="#000000" stroke="#000000" points="435.5001,-205.9909 439,-215.991 442.5001,-205.991 435.5001,-205.9909"/>
</g>
<!-- LoginComponent  -->
<g id="node9" class="node">
<title>LoginComponent </title>
<polygon fill="#fb8072" stroke="#000000" points="336.2759,-252 217.7241,-252 217.7241,-216 336.2759,-216 336.2759,-252"/>
<text text-anchor="middle" x="277" y="-229.8" font-family="Times,serif" font-size="14.00" fill="#000000">LoginComponent </text>
</g>
<!-- AuthModule&#45;&gt;LoginComponent  -->
<g id="edge8" class="edge">
<title>AuthModule&#45;&gt;LoginComponent </title>
<path fill="none" stroke="#000000" stroke-dasharray="5,2" d="M395.1702,-180C359.3783,-180 314.6822,-180 314.6822,-180 314.6822,-180 314.6822,-205.7181 314.6822,-205.7181"/>
<polygon fill="#000000" stroke="#000000" points="311.1822,-205.718 314.6822,-215.7181 318.1822,-205.7181 311.1822,-205.718"/>
</g>
<!-- cookieFactory.() -->
<g id="node5" class="node">
<title>cookieFactory.()</title>
<polygon fill="#8dd3c7" stroke="#000000" points="493.404,-122 490.404,-126 469.404,-126 466.404,-122 384.596,-122 384.596,-86 493.404,-86 493.404,-122"/>
<text text-anchor="middle" x="439" y="-99.8" font-family="Times,serif" font-size="14.00" fill="#000000">cookieFactory.()</text>
</g>
<!-- cookieFactory.()&#45;&gt;AuthModule -->
<g id="edge4" class="edge">
<title>cookieFactory.()&#45;&gt;AuthModule</title>
<path fill="none" stroke="#000000" d="M439,-122.1061C439,-122.1061 439,-140.991 439,-140.991"/>
<polygon fill="#000000" stroke="#000000" points="435.5001,-140.9909 439,-150.991 442.5001,-140.991 435.5001,-140.9909"/>
</g>
<!-- UiModule -->
<g id="node6" class="node">
<title>UiModule</title>
<polygon fill="#8dd3c7" stroke="#000000" points="366.5484,-122 363.5484,-126 342.5484,-126 339.5484,-122 293.4516,-122 293.4516,-86 366.5484,-86 366.5484,-122"/>
<text text-anchor="middle" x="330" y="-99.8" font-family="Times,serif" font-size="14.00" fill="#000000">UiModule</text>
</g>
<!-- UiModule&#45;&gt;AuthModule -->
<g id="edge5" class="edge">
<title>UiModule&#45;&gt;AuthModule</title>
<path fill="none" stroke="#000000" d="M360.49,-122.0091C360.49,-138.0494 360.49,-159 360.49,-159 360.49,-159 385.1542,-159 385.1542,-159"/>
<polygon fill="#000000" stroke="#000000" points="385.1542,-162.5001 395.1542,-159 385.1541,-155.5001 385.1542,-162.5001"/>
</g>
<!-- AuthGuard -->
<g id="node10" class="node">
<title>AuthGuard</title>
<ellipse fill="#fdb462" stroke="#000000" cx="215" cy="-104" rx="54.4566" ry="18"/>
<text text-anchor="middle" x="215" y="-99.8" font-family="Times,serif" font-size="14.00" fill="#000000">AuthGuard</text>
</g>
<!-- AuthGuard&#45;&gt;AuthModule -->
<g id="edge9" class="edge">
<title>AuthGuard&#45;&gt;AuthModule</title>
<path fill="none" stroke="#000000" d="M243.6702,-119.3258C243.6702,-137.6858 243.6702,-166 243.6702,-166 243.6702,-166 385.1642,-166 385.1642,-166"/>
<polygon fill="#000000" stroke="#000000" points="385.1642,-169.5001 395.1642,-166 385.1642,-162.5001 385.1642,-169.5001"/>
</g>
<!-- AuthService -->
<g id="node11" class="node">
<title>AuthService</title>
<ellipse fill="#fdb462" stroke="#000000" cx="83" cy="-104" rx="59.1083" ry="18"/>
<text text-anchor="middle" x="83" y="-99.8" font-family="Times,serif" font-size="14.00" fill="#000000">AuthService</text>
</g>
<!-- AuthService&#45;&gt;AuthModule -->
<g id="edge10" class="edge">
<title>AuthService&#45;&gt;AuthModule</title>
<path fill="none" stroke="#000000" d="M83,-122.1289C83,-142.5724 83,-173 83,-173 83,-173 385.3474,-173 385.3474,-173"/>
<polygon fill="#000000" stroke="#000000" points="385.3474,-176.5001 395.3474,-173 385.3474,-169.5001 385.3474,-176.5001"/>
</g>
</g>
</svg>
