<?xml version="1.0" encoding="UTF-8" standalone="no"?>
<!DOCTYPE svg PUBLIC "-//W3C//DTD SVG 1.1//EN"
 "http://www.w3.org/Graphics/SVG/1.1/DTD/svg11.dtd">
<!-- Generated by graphviz version 2.40.1 (20161225.0304)
 -->
<!-- Title: dependencies Pages: 1 -->
<svg width="1236pt" height="284pt"
 viewBox="0.00 0.00 1236.00 284.00" xmlns="http://www.w3.org/2000/svg" xmlns:xlink="http://www.w3.org/1999/xlink">
<g id="graph0" class="graph" transform="scale(1 1) rotate(0) translate(4 280)">
<title>dependencies</title>
<polygon fill="#ffffff" stroke="transparent" points="-4,4 -4,-280 1232,-280 1232,4 -4,4"/>
<text text-anchor="start" x="593.0091" y="-42.4" font-family="sans-serif" font-weight="bold" font-size="14.00" fill="#000000">Legend</text>
<polygon fill="#ffffb3" stroke="transparent" points="380,-10 380,-30 400,-30 400,-10 380,-10"/>
<text text-anchor="start" x="403.629" y="-15.4" font-family="sans-serif" font-size="14.00" fill="#000000"> &#160;Declarations</text>
<polygon fill="#8dd3c7" stroke="transparent" points="493,-10 493,-30 513,-30 513,-10 493,-10"/>
<text text-anchor="start" x="516.7251" y="-15.4" font-family="sans-serif" font-size="14.00" fill="#000000"> &#160;Module</text>
<polygon fill="#80b1d3" stroke="transparent" points="579,-10 579,-30 599,-30 599,-10 579,-10"/>
<text text-anchor="start" x="602.7812" y="-15.4" font-family="sans-serif" font-size="14.00" fill="#000000"> &#160;Bootstrap</text>
<polygon fill="#fdb462" stroke="transparent" points="676,-10 676,-30 696,-30 696,-10 676,-10"/>
<text text-anchor="start" x="699.6732" y="-15.4" font-family="sans-serif" font-size="14.00" fill="#000000"> &#160;Providers</text>
<polygon fill="#fb8072" stroke="transparent" points="772,-10 772,-30 792,-30 792,-10 772,-10"/>
<text text-anchor="start" x="795.7258" y="-15.4" font-family="sans-serif" font-size="14.00" fill="#000000"> &#160;Exports</text>
<g id="clust1" class="cluster">
<title>cluster_AuthModule</title>
<polygon fill="none" stroke="#000000" stroke-dasharray="1,5" points="8,-70 8,-268 1220,-268 1220,-70 8,-70"/>
</g>
<g id="clust2" class="cluster">
<title>cluster_AuthModule_declarations</title>
<polygon fill="none" stroke="#000000" points="512,-78 512,-130 1212,-130 1212,-78 512,-78"/>
</g>
<g id="clust7" class="cluster">
<title>cluster_AuthModule_imports</title>
<polygon fill="none" stroke="#000000" points="414,-78 414,-130 504,-130 504,-78 414,-78"/>
</g>
<g id="clust8" class="cluster">
<title>cluster_AuthModule_exports</title>
<polygon fill="none" stroke="#000000" points="246,-208 246,-260 960,-260 960,-208 246,-208"/>
</g>
<g id="clust10" class="cluster">
<title>cluster_AuthModule_providers</title>
<polygon fill="none" stroke="#000000" points="16,-78 16,-130 406,-130 406,-78 16,-78"/>
</g>
<!-- PublicLoginComponent -->
<g id="node1" class="node">
<title>PublicLoginComponent</title>
<polygon fill="#ffffb3" stroke="#000000" points="1204.0547,-122 1053.9453,-122 1053.9453,-86 1204.0547,-86 1204.0547,-122"/>
<text text-anchor="middle" x="1129" y="-99.8" font-family="Times,serif" font-size="14.00" fill="#000000">PublicLoginComponent</text>
</g>
<!-- AuthModule -->
<g id="node5" class="node">
<title>AuthModule</title>
<polygon fill="#8dd3c7" stroke="#000000" points="640.5482,-187 637.5482,-191 616.5482,-191 613.5482,-187 553.4518,-187 553.4518,-151 640.5482,-151 640.5482,-187"/>
<text text-anchor="middle" x="597" y="-164.8" font-family="Times,serif" font-size="14.00" fill="#000000">AuthModule</text>
</g>
<!-- PublicLoginComponent&#45;&gt;AuthModule -->
<g id="edge1" class="edge">
<title>PublicLoginComponent&#45;&gt;AuthModule</title>
<path fill="none" stroke="#000000" d="M1129,-122.1289C1129,-142.5724 1129,-173 1129,-173 1129,-173 650.9884,-173 650.9884,-173"/>
<polygon fill="#000000" stroke="#000000" points="650.9884,-169.5001 640.9884,-173 650.9884,-176.5001 650.9884,-169.5001"/>
</g>
<!-- PublicSignupComponent -->
<g id="node2" class="node">
<title>PublicSignupComponent</title>
<polygon fill="#ffffb3" stroke="#000000" points="1035.2841,-122 878.7159,-122 878.7159,-86 1035.2841,-86 1035.2841,-122"/>
<text text-anchor="middle" x="957" y="-99.8" font-family="Times,serif" font-size="14.00" fill="#000000">PublicSignupComponent</text>
</g>
<!-- PublicSignupComponent&#45;&gt;AuthModule -->
<g id="edge2" class="edge">
<title>PublicSignupComponent&#45;&gt;AuthModule</title>
<path fill="none" stroke="#000000" d="M915.4729,-122.2667C915.4729,-140.5552 915.4729,-166 915.4729,-166 915.4729,-166 650.6145,-166 650.6145,-166"/>
<polygon fill="#000000" stroke="#000000" points="650.6146,-162.5001 640.6145,-166 650.6145,-169.5001 650.6146,-162.5001"/>
</g>
<!-- ValidationOnBlurDirective -->
<g id="node3" class="node">
<title>ValidationOnBlurDirective</title>
<polygon fill="#ffffb3" stroke="#000000" points="860.6755,-122 691.3245,-122 691.3245,-86 860.6755,-86 860.6755,-122"/>
<text text-anchor="middle" x="776" y="-99.8" font-family="Times,serif" font-size="14.00" fill="#000000">ValidationOnBlurDirective</text>
</g>
<!-- ValidationOnBlurDirective&#45;&gt;AuthModule -->
<g id="edge3" class="edge">
<title>ValidationOnBlurDirective&#45;&gt;AuthModule</title>
<path fill="none" stroke="#000000" d="M726.7197,-122.0091C726.7197,-138.0494 726.7197,-159 726.7197,-159 726.7197,-159 650.5556,-159 650.5556,-159"/>
<polygon fill="#000000" stroke="#000000" points="650.5557,-155.5001 640.5556,-159 650.5556,-162.5001 650.5557,-155.5001"/>
</g>
<!-- AdminLoginComponent -->
<g id="node4" class="node">
<title>AdminLoginComponent</title>
<polygon fill="#ffffb3" stroke="#000000" points="673.6638,-122 520.3362,-122 520.3362,-86 673.6638,-86 673.6638,-122"/>
<text text-anchor="middle" x="597" y="-99.8" font-family="Times,serif" font-size="14.00" fill="#000000">AdminLoginComponent</text>
</g>
<!-- AdminLoginComponent&#45;&gt;AuthModule -->
<g id="edge4" class="edge">
<title>AdminLoginComponent&#45;&gt;AuthModule</title>
<path fill="none" stroke="#000000" d="M597,-122.1061C597,-122.1061 597,-140.991 597,-140.991"/>
<polygon fill="#000000" stroke="#000000" points="593.5001,-140.9909 597,-150.991 600.5001,-140.991 593.5001,-140.9909"/>
</g>
<!-- ValidationOnBlurDirective  -->
<g id="node7" class="node">
<title>ValidationOnBlurDirective </title>
<polygon fill="#fb8072" stroke="#000000" points="952.1757,-252 779.8243,-252 779.8243,-216 952.1757,-216 952.1757,-252"/>
<text text-anchor="middle" x="866" y="-229.8" font-family="Times,serif" font-size="14.00" fill="#000000">ValidationOnBlurDirective </text>
</g>
<!-- AuthModule&#45;&gt;ValidationOnBlurDirective  -->
<g id="edge6" class="edge">
<title>AuthModule&#45;&gt;ValidationOnBlurDirective </title>
<path fill="none" stroke="#000000" stroke-dasharray="5,2" d="M640.5504,-180C705.4839,-180 820.125,-180 820.125,-180 820.125,-180 820.125,-205.7181 820.125,-205.7181"/>
<polygon fill="#000000" stroke="#000000" points="816.6251,-205.718 820.125,-215.7181 823.6251,-205.7181 816.6251,-205.718"/>
</g>
<!-- PublicLoginComponent  -->
<g id="node8" class="node">
<title>PublicLoginComponent </title>
<polygon fill="#fb8072" stroke="#000000" points="762.054,-252 607.946,-252 607.946,-216 762.054,-216 762.054,-252"/>
<text text-anchor="middle" x="685" y="-229.8" font-family="Times,serif" font-size="14.00" fill="#000000">PublicLoginComponent </text>
</g>
<!-- AuthModule&#45;&gt;PublicLoginComponent  -->
<g id="edge7" class="edge">
<title>AuthModule&#45;&gt;PublicLoginComponent </title>
<path fill="none" stroke="#000000" stroke-dasharray="5,2" d="M624.3733,-187.1061C624.3733,-187.1061 624.3733,-205.991 624.3733,-205.991"/>
<polygon fill="#000000" stroke="#000000" points="620.8733,-205.9909 624.3733,-215.991 627.8733,-205.991 620.8733,-205.9909"/>
</g>
<!-- PublicSignupComponent  -->
<g id="node9" class="node">
<title>PublicSignupComponent </title>
<polygon fill="#fb8072" stroke="#000000" points="590.2843,-252 429.7157,-252 429.7157,-216 590.2843,-216 590.2843,-252"/>
<text text-anchor="middle" x="510" y="-229.8" font-family="Times,serif" font-size="14.00" fill="#000000">PublicSignupComponent </text>
</g>
<!-- AuthModule&#45;&gt;PublicSignupComponent  -->
<g id="edge8" class="edge">
<title>AuthModule&#45;&gt;PublicSignupComponent </title>
<path fill="none" stroke="#000000" stroke-dasharray="5,2" d="M571.6843,-187.1061C571.6843,-187.1061 571.6843,-205.991 571.6843,-205.991"/>
<polygon fill="#000000" stroke="#000000" points="568.1843,-205.9909 571.6843,-215.991 575.1843,-205.991 568.1843,-205.9909"/>
</g>
<!-- AdminLoginComponent  -->
<g id="node10" class="node">
<title>AdminLoginComponent </title>
<polygon fill="#fb8072" stroke="#000000" points="411.6635,-252 254.3365,-252 254.3365,-216 411.6635,-216 411.6635,-252"/>
<text text-anchor="middle" x="333" y="-229.8" font-family="Times,serif" font-size="14.00" fill="#000000">AdminLoginComponent </text>
</g>
<!-- AuthModule&#45;&gt;AdminLoginComponent  -->
<g id="edge9" class="edge">
<title>AuthModule&#45;&gt;AdminLoginComponent </title>
<path fill="none" stroke="#000000" stroke-dasharray="5,2" d="M553.3426,-180C496.5781,-180 404.6051,-180 404.6051,-180 404.6051,-180 404.6051,-205.7181 404.6051,-205.7181"/>
<polygon fill="#000000" stroke="#000000" points="401.1052,-205.718 404.6051,-215.7181 408.1052,-205.7181 401.1052,-205.718"/>
</g>
<!-- UiModule -->
<g id="node6" class="node">
<title>UiModule</title>
<polygon fill="#8dd3c7" stroke="#000000" points="495.5484,-122 492.5484,-126 471.5484,-126 468.5484,-122 422.4516,-122 422.4516,-86 495.5484,-86 495.5484,-122"/>
<text text-anchor="middle" x="459" y="-99.8" font-family="Times,serif" font-size="14.00" fill="#000000">UiModule</text>
</g>
<!-- UiModule&#45;&gt;AuthModule -->
<g id="edge5" class="edge">
<title>UiModule&#45;&gt;AuthModule</title>
<path fill="none" stroke="#000000" d="M462.8158,-122.0091C462.8158,-138.0494 462.8158,-159 462.8158,-159 462.8158,-159 543.4342,-159 543.4342,-159"/>
<polygon fill="#000000" stroke="#000000" points="543.4343,-162.5001 553.4342,-159 543.4342,-155.5001 543.4343,-162.5001"/>
</g>
<!-- AuthorizationService -->
<g id="node11" class="node">
<title>AuthorizationService</title>
<ellipse fill="#fdb462" stroke="#000000" cx="304" cy="-104" rx="93.7572" ry="18"/>
<text text-anchor="middle" x="304" y="-99.8" font-family="Times,serif" font-size="14.00" fill="#000000">AuthorizationService</text>
</g>
<!-- AuthorizationService&#45;&gt;AuthModule -->
<g id="edge10" class="edge">
<title>AuthorizationService&#45;&gt;AuthModule</title>
<path fill="none" stroke="#000000" d="M326.0234,-121.6009C326.0234,-139.9308 326.0234,-166 326.0234,-166 326.0234,-166 543.1618,-166 543.1618,-166"/>
<polygon fill="#000000" stroke="#000000" points="543.1618,-169.5001 553.1618,-166 543.1617,-162.5001 543.1618,-169.5001"/>
</g>
<!-- PublicAuthService -->
<g id="node12" class="node">
<title>PublicAuthService</title>
<ellipse fill="#fdb462" stroke="#000000" cx="108" cy="-104" rx="83.9663" ry="18"/>
<text text-anchor="middle" x="108" y="-99.8" font-family="Times,serif" font-size="14.00" fill="#000000">PublicAuthService</text>
</g>
<!-- PublicAuthService&#45;&gt;AuthModule -->
<g id="edge11" class="edge">
<title>PublicAuthService&#45;&gt;AuthModule</title>
<path fill="none" stroke="#000000" d="M108,-122.1289C108,-142.5724 108,-173 108,-173 108,-173 543.1742,-173 543.1742,-173"/>
<polygon fill="#000000" stroke="#000000" points="543.1742,-176.5001 553.1742,-173 543.1741,-169.5001 543.1742,-176.5001"/>
</g>
</g>
</svg>
