<?xml version="1.0" encoding="UTF-8" standalone="no"?>
<!DOCTYPE svg PUBLIC "-//W3C//DTD SVG 1.1//EN"
 "http://www.w3.org/Graphics/SVG/1.1/DTD/svg11.dtd">
<!-- Generated by graphviz version 2.40.1 (20161225.0304)
 -->
<!-- Title: dependencies Pages: 1 -->
<svg width="952pt" height="396pt"
 viewBox="0.00 0.00 952.00 395.59" xmlns="http://www.w3.org/2000/svg" xmlns:xlink="http://www.w3.org/1999/xlink">
<g id="graph0" class="graph" transform="scale(1 1) rotate(0) translate(4 391.5901)">
<title>dependencies</title>
<polygon fill="#ffffff" stroke="transparent" points="-4,4 -4,-391.5901 948,-391.5901 948,4 -4,4"/>
<text text-anchor="start" x="451.0091" y="-42.4" font-family="sans-serif" font-weight="bold" font-size="14.00" fill="#000000">Legend</text>
<polygon fill="#ffffb3" stroke="transparent" points="238,-10 238,-30 258,-30 258,-10 238,-10"/>
<text text-anchor="start" x="261.629" y="-15.4" font-family="sans-serif" font-size="14.00" fill="#000000"> &#160;Declarations</text>
<polygon fill="#8dd3c7" stroke="transparent" points="351,-10 351,-30 371,-30 371,-10 351,-10"/>
<text text-anchor="start" x="374.7251" y="-15.4" font-family="sans-serif" font-size="14.00" fill="#000000"> &#160;Module</text>
<polygon fill="#80b1d3" stroke="transparent" points="437,-10 437,-30 457,-30 457,-10 437,-10"/>
<text text-anchor="start" x="460.7812" y="-15.4" font-family="sans-serif" font-size="14.00" fill="#000000"> &#160;Bootstrap</text>
<polygon fill="#fdb462" stroke="transparent" points="534,-10 534,-30 554,-30 554,-10 534,-10"/>
<text text-anchor="start" x="557.6732" y="-15.4" font-family="sans-serif" font-size="14.00" fill="#000000"> &#160;Providers</text>
<polygon fill="#fb8072" stroke="transparent" points="630,-10 630,-30 650,-30 650,-10 630,-10"/>
<text text-anchor="start" x="653.7258" y="-15.4" font-family="sans-serif" font-size="14.00" fill="#000000"> &#160;Exports</text>
<g id="clust1" class="cluster">
<title>cluster_MediumEditorModule</title>
<polygon fill="none" stroke="#000000" stroke-dasharray="1,5" points="8,-70 8,-379.5901 936,-379.5901 936,-70 8,-70"/>
</g>
<g id="clust2" class="cluster">
<title>cluster_MediumEditorModule_declarations</title>
<polygon fill="none" stroke="#000000" points="382,-189.5901 382,-241.5901 562,-241.5901 562,-189.5901 382,-189.5901"/>
</g>
<g id="clust3" class="cluster">
<title>cluster_MediumEditorModule_MediumEditorComponent_providers</title>
<polygon fill="none" stroke="#000000" points="16,-78 16,-176.5901 928,-176.5901 928,-78 16,-78"/>
</g>
<g id="clust5" class="cluster">
<title>cluster_MediumEditorModule_exports</title>
<polygon fill="none" stroke="#000000" points="380,-319.5901 380,-371.5901 564,-371.5901 564,-319.5901 380,-319.5901"/>
</g>
<!-- MediumEditorComponent -->
<g id="node1" class="node">
<title>MediumEditorComponent</title>
<polygon fill="#ffffb3" stroke="#000000" points="553.7674,-233.5901 390.2326,-233.5901 390.2326,-197.5901 553.7674,-197.5901 553.7674,-233.5901"/>
<text text-anchor="middle" x="472" y="-211.3901" font-family="Times,serif" font-size="14.00" fill="#000000">MediumEditorComponent</text>
</g>
<!-- MediumEditorModule -->
<g id="node2" class="node">
<title>MediumEditorModule</title>
<polygon fill="#8dd3c7" stroke="#000000" points="542.9846,-298.5901 539.9846,-302.5901 518.9846,-302.5901 515.9846,-298.5901 401.0154,-298.5901 401.0154,-262.5901 542.9846,-262.5901 542.9846,-298.5901"/>
<text text-anchor="middle" x="472" y="-276.3901" font-family="Times,serif" font-size="14.00" fill="#000000">MediumEditorModule</text>
</g>
<!-- MediumEditorComponent&#45;&gt;MediumEditorModule -->
<g id="edge1" class="edge">
<title>MediumEditorComponent&#45;&gt;MediumEditorModule</title>
<path fill="none" stroke="#000000" d="M472,-233.6962C472,-233.6962 472,-252.581 472,-252.581"/>
<polygon fill="#000000" stroke="#000000" points="468.5001,-252.581 472,-262.581 475.5001,-252.5811 468.5001,-252.581"/>
</g>
<!-- MediumEditorComponent  -->
<g id="node4" class="node">
<title>MediumEditorComponent </title>
<polygon fill="#fb8072" stroke="#000000" points="555.7674,-363.5901 388.2326,-363.5901 388.2326,-327.5901 555.7674,-327.5901 555.7674,-363.5901"/>
<text text-anchor="middle" x="472" y="-341.3901" font-family="Times,serif" font-size="14.00" fill="#000000">MediumEditorComponent </text>
</g>
<!-- MediumEditorModule&#45;&gt;MediumEditorComponent  -->
<g id="edge3" class="edge">
<title>MediumEditorModule&#45;&gt;MediumEditorComponent </title>
<path fill="none" stroke="#000000" stroke-dasharray="5,2" d="M472,-298.6962C472,-298.6962 472,-317.581 472,-317.581"/>
<polygon fill="#000000" stroke="#000000" points="468.5001,-317.581 472,-327.581 475.5001,-317.5811 468.5001,-317.581"/>
</g>
<!-- {
 &#160;&#160;&#160;provide: NG_VALUE_ACCESSOR, useExisting: forwardRef(() =&gt; MediumEditorComponent), multi: true
} -->
<g id="node3" class="node">
<title>{
 &#160;&#160;&#160;provide: NG_VALUE_ACCESSOR, useExisting: forwardRef(() =&gt; MediumEditorComponent), multi: true
}</title>
<ellipse fill="#fdb462" stroke="#000000" cx="472" cy="-127.295" rx="447.6026" ry="41.0911"/>
<text text-anchor="middle" x="472" y="-139.895" font-family="Times,serif" font-size="14.00" fill="#000000">{</text>
<text text-anchor="middle" x="472" y="-123.095" font-family="Times,serif" font-size="14.00" fill="#000000"> &#160;&#160;&#160;provide: NG_VALUE_ACCESSOR, useExisting: forwardRef(() =&gt; MediumEditorComponent), multi: true</text>
<text text-anchor="middle" x="472" y="-106.295" font-family="Times,serif" font-size="14.00" fill="#000000">}</text>
</g>
<!-- {
 &#160;&#160;&#160;provide: NG_VALUE_ACCESSOR, useExisting: forwardRef(() =&gt; MediumEditorComponent), multi: true
}&#45;&gt;MediumEditorComponent -->
<g id="edge2" class="edge">
<title>{
 &#160;&#160;&#160;provide: NG_VALUE_ACCESSOR, useExisting: forwardRef(() =&gt; MediumEditorComponent), multi: true
}&#45;&gt;MediumEditorComponent</title>
<path fill="none" stroke="#000000" d="M472,-168.5989C472,-168.5989 472,-187.2551 472,-187.2551"/>
<polygon fill="#000000" stroke="#000000" points="468.5001,-187.255 472,-197.2551 475.5001,-187.2551 468.5001,-187.255"/>
</g>
</g>
</svg>
