<?xml version="1.0" encoding="UTF-8" standalone="no"?>
<!DOCTYPE svg PUBLIC "-//W3C//DTD SVG 1.1//EN"
 "http://www.w3.org/Graphics/SVG/1.1/DTD/svg11.dtd">
<!-- Generated by graphviz version 2.40.1 (20161225.0304)
 -->
<!-- Title: dependencies Pages: 1 -->
<svg width="956pt" height="396pt"
 viewBox="0.00 0.00 956.00 395.59" xmlns="http://www.w3.org/2000/svg" xmlns:xlink="http://www.w3.org/1999/xlink">
<g id="graph0" class="graph" transform="scale(1 1) rotate(0) translate(4 391.5901)">
<title>dependencies</title>
<polygon fill="#ffffff" stroke="transparent" points="-4,4 -4,-391.5901 952,-391.5901 952,4 -4,4"/>
<text text-anchor="start" x="453.0091" y="-42.4" font-family="sans-serif" font-weight="bold" font-size="14.00" fill="#000000">Legend</text>
<polygon fill="#ffffb3" stroke="transparent" points="240,-10 240,-30 260,-30 260,-10 240,-10"/>
<text text-anchor="start" x="263.629" y="-15.4" font-family="sans-serif" font-size="14.00" fill="#000000"> &#160;Declarations</text>
<polygon fill="#8dd3c7" stroke="transparent" points="353,-10 353,-30 373,-30 373,-10 353,-10"/>
<text text-anchor="start" x="376.7251" y="-15.4" font-family="sans-serif" font-size="14.00" fill="#000000"> &#160;Module</text>
<polygon fill="#80b1d3" stroke="transparent" points="439,-10 439,-30 459,-30 459,-10 439,-10"/>
<text text-anchor="start" x="462.7812" y="-15.4" font-family="sans-serif" font-size="14.00" fill="#000000"> &#160;Bootstrap</text>
<polygon fill="#fdb462" stroke="transparent" points="536,-10 536,-30 556,-30 556,-10 536,-10"/>
<text text-anchor="start" x="559.6732" y="-15.4" font-family="sans-serif" font-size="14.00" fill="#000000"> &#160;Providers</text>
<polygon fill="#fb8072" stroke="transparent" points="632,-10 632,-30 652,-30 652,-10 632,-10"/>
<text text-anchor="start" x="655.7258" y="-15.4" font-family="sans-serif" font-size="14.00" fill="#000000"> &#160;Exports</text>
<g id="clust1" class="cluster">
<title>cluster_MediumEditorModule</title>
<polygon fill="none" stroke="#000000" stroke-dasharray="1,5" points="8,-70 8,-379.5901 940,-379.5901 940,-70 8,-70"/>
</g>
<g id="clust2" class="cluster">
<title>cluster_MediumEditorModule_declarations</title>
<polygon fill="none" stroke="#000000" points="384,-189.5901 384,-241.5901 564,-241.5901 564,-189.5901 384,-189.5901"/>
</g>
<g id="clust3" class="cluster">
<title>cluster_MediumEditorModule_MediumEditorComponent_providers</title>
<polygon fill="none" stroke="#000000" points="16,-78 16,-176.5901 932,-176.5901 932,-78 16,-78"/>
</g>
<g id="clust5" class="cluster">
<title>cluster_MediumEditorModule_exports</title>
<polygon fill="none" stroke="#000000" points="382,-319.5901 382,-371.5901 566,-371.5901 566,-319.5901 382,-319.5901"/>
</g>
<!-- MediumEditorComponent -->
<g id="node1" class="node">
<title>MediumEditorComponent</title>
<polygon fill="#ffffb3" stroke="#000000" points="555.7674,-233.5901 392.2326,-233.5901 392.2326,-197.5901 555.7674,-197.5901 555.7674,-233.5901"/>
<text text-anchor="middle" x="474" y="-211.3901" font-family="Times,serif" font-size="14.00" fill="#000000">MediumEditorComponent</text>
</g>
<!-- MediumEditorModule -->
<g id="node2" class="node">
<title>MediumEditorModule</title>
<polygon fill="#8dd3c7" stroke="#000000" points="544.9846,-298.5901 541.9846,-302.5901 520.9846,-302.5901 517.9846,-298.5901 403.0154,-298.5901 403.0154,-262.5901 544.9846,-262.5901 544.9846,-298.5901"/>
<text text-anchor="middle" x="474" y="-276.3901" font-family="Times,serif" font-size="14.00" fill="#000000">MediumEditorModule</text>
</g>
<!-- MediumEditorComponent&#45;&gt;MediumEditorModule -->
<g id="edge1" class="edge">
<title>MediumEditorComponent&#45;&gt;MediumEditorModule</title>
<path fill="none" stroke="#000000" d="M474,-233.6962C474,-233.6962 474,-252.581 474,-252.581"/>
<polygon fill="#000000" stroke="#000000" points="470.5001,-252.581 474,-262.581 477.5001,-252.5811 470.5001,-252.581"/>
</g>
<!-- MediumEditorComponent  -->
<g id="node4" class="node">
<title>MediumEditorComponent </title>
<polygon fill="#fb8072" stroke="#000000" points="557.7674,-363.5901 390.2326,-363.5901 390.2326,-327.5901 557.7674,-327.5901 557.7674,-363.5901"/>
<text text-anchor="middle" x="474" y="-341.3901" font-family="Times,serif" font-size="14.00" fill="#000000">MediumEditorComponent </text>
</g>
<!-- MediumEditorModule&#45;&gt;MediumEditorComponent  -->
<g id="edge3" class="edge">
<title>MediumEditorModule&#45;&gt;MediumEditorComponent </title>
<path fill="none" stroke="#000000" stroke-dasharray="5,2" d="M474,-298.6962C474,-298.6962 474,-317.581 474,-317.581"/>
<polygon fill="#000000" stroke="#000000" points="470.5001,-317.581 474,-327.581 477.5001,-317.5811 470.5001,-317.581"/>
</g>
<!-- {
 &#160;&#160;&#160;provide: NG_VALUE_ACCESSOR, useExisting: forwardRef(() =&gt; MediumEditorComponent), multi: true,
} -->
<g id="node3" class="node">
<title>{
 &#160;&#160;&#160;provide: NG_VALUE_ACCESSOR, useExisting: forwardRef(() =&gt; MediumEditorComponent), multi: true,
}</title>
<ellipse fill="#fdb462" stroke="#000000" cx="474" cy="-127.295" rx="450.0524" ry="41.0911"/>
<text text-anchor="middle" x="474" y="-139.895" font-family="Times,serif" font-size="14.00" fill="#000000">{</text>
<text text-anchor="middle" x="474" y="-123.095" font-family="Times,serif" font-size="14.00" fill="#000000"> &#160;&#160;&#160;provide: NG_VALUE_ACCESSOR, useExisting: forwardRef(() =&gt; MediumEditorComponent), multi: true,</text>
<text text-anchor="middle" x="474" y="-106.295" font-family="Times,serif" font-size="14.00" fill="#000000">}</text>
</g>
<!-- {
 &#160;&#160;&#160;provide: NG_VALUE_ACCESSOR, useExisting: forwardRef(() =&gt; MediumEditorComponent), multi: true,
}&#45;&gt;MediumEditorComponent -->
<g id="edge2" class="edge">
<title>{
 &#160;&#160;&#160;provide: NG_VALUE_ACCESSOR, useExisting: forwardRef(() =&gt; MediumEditorComponent), multi: true,
}&#45;&gt;MediumEditorComponent</title>
<path fill="none" stroke="#000000" d="M474,-168.5989C474,-168.5989 474,-187.2551 474,-187.2551"/>
<polygon fill="#000000" stroke="#000000" points="470.5001,-187.255 474,-197.2551 477.5001,-187.2551 470.5001,-187.255"/>
</g>
</g>
</svg>
