<?xml version="1.0" encoding="UTF-8" standalone="no"?>
<!DOCTYPE svg PUBLIC "-//W3C//DTD SVG 1.1//EN"
 "http://www.w3.org/Graphics/SVG/1.1/DTD/svg11.dtd">
<!-- Generated by graphviz version 2.47.0 (20210316.0004)
 -->
<!-- Title: dependencies Pages: 1 -->
<svg width="956pt" height="396pt"
 viewBox="0.00 0.00 956.00 395.59" xmlns="http://www.w3.org/2000/svg" xmlns:xlink="http://www.w3.org/1999/xlink">
<g id="graph0" class="graph" transform="scale(1 1) rotate(0) translate(4 391.59)">
<title>dependencies</title>
<polygon fill="white" stroke="transparent" points="-4,4 -4,-391.59 952,-391.59 952,4 -4,4"/>
<text text-anchor="start" x="453.01" y="-42.4" font-family="sans-serif" font-weight="bold" font-size="14.00">Legend</text>
<polygon fill="#ffffb3" stroke="transparent" points="240,-10 240,-30 260,-30 260,-10 240,-10"/>
<text text-anchor="start" x="263.63" y="-15.4" font-family="sans-serif" font-size="14.00"> &#160;Declarations</text>
<polygon fill="#8dd3c7" stroke="transparent" points="353,-10 353,-30 373,-30 373,-10 353,-10"/>
<text text-anchor="start" x="376.73" y="-15.4" font-family="sans-serif" font-size="14.00"> &#160;Module</text>
<polygon fill="#80b1d3" stroke="transparent" points="439,-10 439,-30 459,-30 459,-10 439,-10"/>
<text text-anchor="start" x="462.78" y="-15.4" font-family="sans-serif" font-size="14.00"> &#160;Bootstrap</text>
<polygon fill="#fdb462" stroke="transparent" points="536,-10 536,-30 556,-30 556,-10 536,-10"/>
<text text-anchor="start" x="559.67" y="-15.4" font-family="sans-serif" font-size="14.00"> &#160;Providers</text>
<polygon fill="#fb8072" stroke="transparent" points="632,-10 632,-30 652,-30 652,-10 632,-10"/>
<text text-anchor="start" x="655.73" y="-15.4" font-family="sans-serif" font-size="14.00"> &#160;Exports</text>
<g id="clust1" class="cluster">
<title>cluster_MediumEditorModule</title>
<polygon fill="none" stroke="black" stroke-dasharray="1,5" points="8,-70 8,-379.59 940,-379.59 940,-70 8,-70"/>
</g>
<g id="clust5" class="cluster">
<title>cluster_MediumEditorModule_exports</title>
<polygon fill="none" stroke="black" points="382,-319.59 382,-371.59 566,-371.59 566,-319.59 382,-319.59"/>
</g>
<g id="clust2" class="cluster">
<title>cluster_MediumEditorModule_declarations</title>
<polygon fill="none" stroke="black" points="384,-189.59 384,-241.59 564,-241.59 564,-189.59 384,-189.59"/>
</g>
<g id="clust3" class="cluster">
<title>cluster_MediumEditorModule_MediumEditorComponent_providers</title>
<polygon fill="none" stroke="black" points="16,-78 16,-176.59 932,-176.59 932,-78 16,-78"/>
</g>
<!-- MediumEditorComponent -->
<g id="node1" class="node">
<title>MediumEditorComponent</title>
<polygon fill="#ffffb3" stroke="black" points="555.77,-233.59 392.23,-233.59 392.23,-197.59 555.77,-197.59 555.77,-233.59"/>
<text text-anchor="middle" x="474" y="-211.39" font-family="Times,serif" font-size="14.00">MediumEditorComponent</text>
</g>
<!-- MediumEditorModule -->
<g id="node2" class="node">
<title>MediumEditorModule</title>
<polygon fill="#8dd3c7" stroke="black" points="544.98,-298.59 541.98,-302.59 520.98,-302.59 517.98,-298.59 403.02,-298.59 403.02,-262.59 544.98,-262.59 544.98,-298.59"/>
<text text-anchor="middle" x="474" y="-276.39" font-family="Times,serif" font-size="14.00">MediumEditorModule</text>
</g>
<!-- MediumEditorComponent&#45;&gt;MediumEditorModule -->
<g id="edge1" class="edge">
<title>MediumEditorComponent&#45;&gt;MediumEditorModule</title>
<path fill="none" stroke="black" d="M474,-233.7C474,-233.7 474,-252.58 474,-252.58"/>
<polygon fill="black" stroke="black" points="470.5,-252.58 474,-262.58 477.5,-252.58 470.5,-252.58"/>
</g>
<!-- MediumEditorComponent  -->
<g id="node4" class="node">
<title>MediumEditorComponent </title>
<polygon fill="#fb8072" stroke="black" points="557.77,-363.59 390.23,-363.59 390.23,-327.59 557.77,-327.59 557.77,-363.59"/>
<text text-anchor="middle" x="474" y="-341.39" font-family="Times,serif" font-size="14.00">MediumEditorComponent </text>
</g>
<!-- MediumEditorModule&#45;&gt;MediumEditorComponent  -->
<g id="edge3" class="edge">
<title>MediumEditorModule&#45;&gt;MediumEditorComponent </title>
<path fill="none" stroke="black" stroke-dasharray="5,2" d="M474,-298.7C474,-298.7 474,-317.58 474,-317.58"/>
<polygon fill="black" stroke="black" points="470.5,-317.58 474,-327.58 477.5,-317.58 470.5,-317.58"/>
</g>
<!-- {
 &#160;&#160;&#160;provide: NG_VALUE_ACCESSOR, useExisting: forwardRef(() =&gt; MediumEditorComponent), multi: true,
} -->
<g id="node3" class="node">
<title>{
 &#160;&#160;&#160;provide: NG_VALUE_ACCESSOR, useExisting: forwardRef(() =&gt; MediumEditorComponent), multi: true,
}</title>
<ellipse fill="#fdb462" stroke="black" cx="474" cy="-127.3" rx="450.05" ry="41.09"/>
<text text-anchor="middle" x="474" y="-139.9" font-family="Times,serif" font-size="14.00">{</text>
<text text-anchor="middle" x="474" y="-123.1" font-family="Times,serif" font-size="14.00"> &#160;&#160;&#160;provide: NG_VALUE_ACCESSOR, useExisting: forwardRef(() =&gt; MediumEditorComponent), multi: true,</text>
<text text-anchor="middle" x="474" y="-106.3" font-family="Times,serif" font-size="14.00">}</text>
</g>
<!-- {
 &#160;&#160;&#160;provide: NG_VALUE_ACCESSOR, useExisting: forwardRef(() =&gt; MediumEditorComponent), multi: true,
}&#45;&gt;MediumEditorComponent -->
<g id="edge2" class="edge">
<title>{
 &#160;&#160;&#160;provide: NG_VALUE_ACCESSOR, useExisting: forwardRef(() =&gt; MediumEditorComponent), multi: true,
}&#45;&gt;MediumEditorComponent</title>
<path fill="none" stroke="black" d="M474,-168.6C474,-168.6 474,-187.26 474,-187.26"/>
<polygon fill="black" stroke="black" points="470.5,-187.26 474,-197.26 477.5,-187.26 470.5,-187.26"/>
</g>
</g>
</svg>
