<?xml version="1.0" encoding="UTF-8" standalone="no"?>
<!DOCTYPE svg PUBLIC "-//W3C//DTD SVG 1.1//EN"
 "http://www.w3.org/Graphics/SVG/1.1/DTD/svg11.dtd">
<!-- Generated by graphviz version 2.40.1 (20161225.0304)
 -->
<!-- Title: dependencies Pages: 1 -->
<svg width="1779pt" height="284pt"
 viewBox="0.00 0.00 1779.00 284.00" xmlns="http://www.w3.org/2000/svg" xmlns:xlink="http://www.w3.org/1999/xlink">
<g id="graph0" class="graph" transform="scale(1 1) rotate(0) translate(4 280)">
<title>dependencies</title>
<polygon fill="#ffffff" stroke="transparent" points="-4,4 -4,-280 1775,-280 1775,4 -4,4"/>
<text text-anchor="start" x="864.5091" y="-42.4" font-family="sans-serif" font-weight="bold" font-size="14.00" fill="#000000">Legend</text>
<polygon fill="#ffffb3" stroke="transparent" points="651.5,-10 651.5,-30 671.5,-30 671.5,-10 651.5,-10"/>
<text text-anchor="start" x="675.129" y="-15.4" font-family="sans-serif" font-size="14.00" fill="#000000"> &#160;Declarations</text>
<polygon fill="#8dd3c7" stroke="transparent" points="764.5,-10 764.5,-30 784.5,-30 784.5,-10 764.5,-10"/>
<text text-anchor="start" x="788.2251" y="-15.4" font-family="sans-serif" font-size="14.00" fill="#000000"> &#160;Module</text>
<polygon fill="#80b1d3" stroke="transparent" points="850.5,-10 850.5,-30 870.5,-30 870.5,-10 850.5,-10"/>
<text text-anchor="start" x="874.2812" y="-15.4" font-family="sans-serif" font-size="14.00" fill="#000000"> &#160;Bootstrap</text>
<polygon fill="#fdb462" stroke="transparent" points="947.5,-10 947.5,-30 967.5,-30 967.5,-10 947.5,-10"/>
<text text-anchor="start" x="971.1732" y="-15.4" font-family="sans-serif" font-size="14.00" fill="#000000"> &#160;Providers</text>
<polygon fill="#fb8072" stroke="transparent" points="1043.5,-10 1043.5,-30 1063.5,-30 1063.5,-10 1043.5,-10"/>
<text text-anchor="start" x="1067.2258" y="-15.4" font-family="sans-serif" font-size="14.00" fill="#000000"> &#160;Exports</text>
<g id="clust1" class="cluster">
<title>cluster_FormModule</title>
<polygon fill="none" stroke="#000000" stroke-dasharray="1,5" points="8,-70 8,-268 1763,-268 1763,-70 8,-70"/>
</g>
<g id="clust2" class="cluster">
<title>cluster_FormModule_declarations</title>
<polygon fill="none" stroke="#000000" points="268,-78 268,-130 1755,-130 1755,-78 268,-78"/>
</g>
<g id="clust13" class="cluster">
<title>cluster_FormModule_imports</title>
<polygon fill="none" stroke="#000000" points="162,-78 162,-130 260,-130 260,-78 162,-78"/>
</g>
<g id="clust14" class="cluster">
<title>cluster_FormModule_exports</title>
<polygon fill="none" stroke="#000000" points="313,-208 313,-260 1403,-260 1403,-208 313,-208"/>
</g>
<g id="clust16" class="cluster">
<title>cluster_FormModule_providers</title>
<polygon fill="none" stroke="#000000" points="16,-78 16,-130 154,-130 154,-78 16,-78"/>
</g>
<!-- FormComponent -->
<g id="node1" class="node">
<title>FormComponent</title>
<polygon fill="#ffffb3" stroke="#000000" points="1746.6667,-122 1635.3333,-122 1635.3333,-86 1746.6667,-86 1746.6667,-122"/>
<text text-anchor="middle" x="1691" y="-99.8" font-family="Times,serif" font-size="14.00" fill="#000000">FormComponent</text>
</g>
<!-- FormModule -->
<g id="node11" class="node">
<title>FormModule</title>
<polygon fill="#8dd3c7" stroke="#000000" points="879.8837,-187 876.8837,-191 855.8837,-191 852.8837,-187 790.1163,-187 790.1163,-151 879.8837,-151 879.8837,-187"/>
<text text-anchor="middle" x="835" y="-164.8" font-family="Times,serif" font-size="14.00" fill="#000000">FormModule</text>
</g>
<!-- FormComponent&#45;&gt;FormModule -->
<g id="edge1" class="edge">
<title>FormComponent&#45;&gt;FormModule</title>
<path fill="none" stroke="#000000" d="M1691,-122.308C1691,-142.1455 1691,-171 1691,-171 1691,-171 890.117,-171 890.117,-171"/>
<polygon fill="#000000" stroke="#000000" points="890.1171,-167.5001 880.117,-171 890.117,-174.5001 890.1171,-167.5001"/>
</g>
<!-- InputComponent -->
<g id="node2" class="node">
<title>InputComponent</title>
<polygon fill="#ffffb3" stroke="#000000" points="1617.3837,-122 1506.6163,-122 1506.6163,-86 1617.3837,-86 1617.3837,-122"/>
<text text-anchor="middle" x="1562" y="-99.8" font-family="Times,serif" font-size="14.00" fill="#000000">InputComponent</text>
</g>
<!-- InputComponent&#45;&gt;FormModule -->
<g id="edge2" class="edge">
<title>InputComponent&#45;&gt;FormModule</title>
<path fill="none" stroke="#000000" d="M1562,-122.2222C1562,-140.8285 1562,-167 1562,-167 1562,-167 889.9285,-167 889.9285,-167"/>
<polygon fill="#000000" stroke="#000000" points="889.9285,-163.5001 879.9285,-167 889.9284,-170.5001 889.9285,-163.5001"/>
</g>
<!-- OutputComponent -->
<g id="node3" class="node">
<title>OutputComponent</title>
<polygon fill="#ffffb3" stroke="#000000" points="1488.2204,-122 1367.7796,-122 1367.7796,-86 1488.2204,-86 1488.2204,-122"/>
<text text-anchor="middle" x="1428" y="-99.8" font-family="Times,serif" font-size="14.00" fill="#000000">OutputComponent</text>
</g>
<!-- OutputComponent&#45;&gt;FormModule -->
<g id="edge3" class="edge">
<title>OutputComponent&#45;&gt;FormModule</title>
<path fill="none" stroke="#000000" d="M1381.2365,-122.0225C1381.2365,-139.3734 1381.2365,-163 1381.2365,-163 1381.2365,-163 890.1655,-163 890.1655,-163"/>
<polygon fill="#000000" stroke="#000000" points="890.1656,-159.5001 880.1655,-163 890.1655,-166.5001 890.1656,-159.5001"/>
</g>
<!-- DefaultInputComponent -->
<g id="node4" class="node">
<title>DefaultInputComponent</title>
<polygon fill="#ffffb3" stroke="#000000" points="1349.3613,-122 1196.6387,-122 1196.6387,-86 1349.3613,-86 1349.3613,-122"/>
<text text-anchor="middle" x="1273" y="-99.8" font-family="Times,serif" font-size="14.00" fill="#000000">DefaultInputComponent</text>
</g>
<!-- DefaultInputComponent&#45;&gt;FormModule -->
<g id="edge4" class="edge">
<title>DefaultInputComponent&#45;&gt;FormModule</title>
<path fill="none" stroke="#000000" d="M1228.8806,-122.0091C1228.8806,-138.0494 1228.8806,-159 1228.8806,-159 1228.8806,-159 890.1831,-159 890.1831,-159"/>
<polygon fill="#000000" stroke="#000000" points="890.1831,-155.5001 880.1831,-159 890.1831,-162.5001 890.1831,-155.5001"/>
</g>
<!-- DefaultOutputComponent -->
<g id="node5" class="node">
<title>DefaultOutputComponent</title>
<polygon fill="#ffffb3" stroke="#000000" points="1178.1979,-122 1015.8021,-122 1015.8021,-86 1178.1979,-86 1178.1979,-122"/>
<text text-anchor="middle" x="1097" y="-99.8" font-family="Times,serif" font-size="14.00" fill="#000000">DefaultOutputComponent</text>
</g>
<!-- DefaultOutputComponent&#45;&gt;FormModule -->
<g id="edge5" class="edge">
<title>DefaultOutputComponent&#45;&gt;FormModule</title>
<path fill="none" stroke="#000000" d="M1072.3806,-122.1243C1072.3806,-136.7832 1072.3806,-155 1072.3806,-155 1072.3806,-155 889.9285,-155 889.9285,-155"/>
<polygon fill="#000000" stroke="#000000" points="889.9286,-151.5001 879.9285,-155 889.9285,-158.5001 889.9286,-151.5001"/>
</g>
<!-- DynamicSlotComponent -->
<g id="node6" class="node">
<title>DynamicSlotComponent</title>
<polygon fill="#ffffb3" stroke="#000000" points="997.7133,-122 842.2867,-122 842.2867,-86 997.7133,-86 997.7133,-122"/>
<text text-anchor="middle" x="920" y="-99.8" font-family="Times,serif" font-size="14.00" fill="#000000">DynamicSlotComponent</text>
</g>
<!-- DynamicSlotComponent&#45;&gt;FormModule -->
<g id="edge6" class="edge">
<title>DynamicSlotComponent&#45;&gt;FormModule</title>
<path fill="none" stroke="#000000" d="M861.1676,-122.1061C861.1676,-122.1061 861.1676,-140.991 861.1676,-140.991"/>
<polygon fill="#000000" stroke="#000000" points="857.6677,-140.9909 861.1676,-150.991 864.6677,-140.991 857.6677,-140.9909"/>
</g>
<!-- InputErrorsComponent -->
<g id="node7" class="node">
<title>InputErrorsComponent</title>
<polygon fill="#ffffb3" stroke="#000000" points="823.8627,-122 678.1373,-122 678.1373,-86 823.8627,-86 823.8627,-122"/>
<text text-anchor="middle" x="751" y="-99.8" font-family="Times,serif" font-size="14.00" fill="#000000">InputErrorsComponent</text>
</g>
<!-- InputErrorsComponent&#45;&gt;FormModule -->
<g id="edge7" class="edge">
<title>InputErrorsComponent&#45;&gt;FormModule</title>
<path fill="none" stroke="#000000" d="M806.9948,-122.1061C806.9948,-122.1061 806.9948,-140.991 806.9948,-140.991"/>
<polygon fill="#000000" stroke="#000000" points="803.4948,-140.9909 806.9948,-150.991 810.4948,-140.991 803.4948,-140.9909"/>
</g>
<!-- SlotHostDirective -->
<g id="node8" class="node">
<title>SlotHostDirective</title>
<polygon fill="#ffffb3" stroke="#000000" points="660.5884,-122 543.4116,-122 543.4116,-86 660.5884,-86 660.5884,-122"/>
<text text-anchor="middle" x="602" y="-99.8" font-family="Times,serif" font-size="14.00" fill="#000000">SlotHostDirective</text>
</g>
<!-- SlotHostDirective&#45;&gt;FormModule -->
<g id="edge8" class="edge">
<title>SlotHostDirective&#45;&gt;FormModule</title>
<path fill="none" stroke="#000000" d="M611.0121,-122.1243C611.0121,-136.7832 611.0121,-155 611.0121,-155 611.0121,-155 779.9421,-155 779.9421,-155"/>
<polygon fill="#000000" stroke="#000000" points="779.9422,-158.5001 789.9421,-155 779.9421,-151.5001 779.9422,-158.5001"/>
</g>
<!-- SelectComponent -->
<g id="node9" class="node">
<title>SelectComponent</title>
<polygon fill="#ffffb3" stroke="#000000" points="525.5409,-122 410.4591,-122 410.4591,-86 525.5409,-86 525.5409,-122"/>
<text text-anchor="middle" x="468" y="-99.8" font-family="Times,serif" font-size="14.00" fill="#000000">SelectComponent</text>
</g>
<!-- SelectComponent&#45;&gt;FormModule -->
<g id="edge9" class="edge">
<title>SelectComponent&#45;&gt;FormModule</title>
<path fill="none" stroke="#000000" d="M492.1769,-122.0091C492.1769,-138.0494 492.1769,-159 492.1769,-159 492.1769,-159 779.8293,-159 779.8293,-159"/>
<polygon fill="#000000" stroke="#000000" points="779.8294,-162.5001 789.8293,-159 779.8293,-155.5001 779.8294,-162.5001"/>
</g>
<!-- VisibleFieldsPipe -->
<g id="node10" class="node">
<title>VisibleFieldsPipe</title>
<polygon fill="#ffffb3" stroke="#000000" points="391.5493,-122 276.4507,-122 276.4507,-86 391.5493,-86 391.5493,-122"/>
<text text-anchor="middle" x="334" y="-99.8" font-family="Times,serif" font-size="14.00" fill="#000000">VisibleFieldsPipe</text>
</g>
<!-- VisibleFieldsPipe&#45;&gt;FormModule -->
<g id="edge10" class="edge">
<title>VisibleFieldsPipe&#45;&gt;FormModule</title>
<path fill="none" stroke="#000000" d="M356.625,-122.0225C356.625,-139.3734 356.625,-163 356.625,-163 356.625,-163 779.9956,-163 779.9956,-163"/>
<polygon fill="#000000" stroke="#000000" points="779.9957,-166.5001 789.9956,-163 779.9956,-159.5001 779.9957,-166.5001"/>
</g>
<!-- FormComponent  -->
<g id="node13" class="node">
<title>FormComponent </title>
<polygon fill="#fb8072" stroke="#000000" points="1394.6663,-252 1279.3337,-252 1279.3337,-216 1394.6663,-216 1394.6663,-252"/>
<text text-anchor="middle" x="1337" y="-229.8" font-family="Times,serif" font-size="14.00" fill="#000000">FormComponent </text>
</g>
<!-- FormModule&#45;&gt;FormComponent  -->
<g id="edge12" class="edge">
<title>FormModule&#45;&gt;FormComponent </title>
<path fill="none" stroke="#000000" stroke-dasharray="5,2" d="M880.103,-175C999.4489,-175 1314.4238,-175 1314.4238,-175 1314.4238,-175 1314.4238,-205.9775 1314.4238,-205.9775"/>
<polygon fill="#000000" stroke="#000000" points="1310.9238,-205.9774 1314.4238,-215.9775 1317.9238,-205.9775 1310.9238,-205.9774"/>
</g>
<!-- InputComponent  -->
<g id="node14" class="node">
<title>InputComponent </title>
<polygon fill="#fb8072" stroke="#000000" points="1261.3842,-252 1146.6158,-252 1146.6158,-216 1261.3842,-216 1261.3842,-252"/>
<text text-anchor="middle" x="1204" y="-229.8" font-family="Times,serif" font-size="14.00" fill="#000000">InputComponent </text>
</g>
<!-- FormModule&#45;&gt;InputComponent  -->
<g id="edge13" class="edge">
<title>FormModule&#45;&gt;InputComponent </title>
<path fill="none" stroke="#000000" stroke-dasharray="5,2" d="M880.1872,-179C970.0163,-179 1162.4536,-179 1162.4536,-179 1162.4536,-179 1162.4536,-205.9909 1162.4536,-205.9909"/>
<polygon fill="#000000" stroke="#000000" points="1158.9536,-205.9909 1162.4536,-215.9909 1165.9536,-205.991 1158.9536,-205.9909"/>
</g>
<!-- OutputComponent  -->
<g id="node15" class="node">
<title>OutputComponent </title>
<polygon fill="#fb8072" stroke="#000000" points="1128.7205,-252 1005.2795,-252 1005.2795,-216 1128.7205,-216 1128.7205,-252"/>
<text text-anchor="middle" x="1067" y="-229.8" font-family="Times,serif" font-size="14.00" fill="#000000">OutputComponent </text>
</g>
<!-- FormModule&#45;&gt;OutputComponent  -->
<g id="edge14" class="edge">
<title>FormModule&#45;&gt;OutputComponent </title>
<path fill="none" stroke="#000000" stroke-dasharray="5,2" d="M880.2009,-183C932.2064,-183 1010.5205,-183 1010.5205,-183 1010.5205,-183 1010.5205,-205.8757 1010.5205,-205.8757"/>
<polygon fill="#000000" stroke="#000000" points="1007.0206,-205.8757 1010.5205,-215.8757 1014.0206,-205.8757 1007.0206,-205.8757"/>
</g>
<!-- InputErrorsComponent  -->
<g id="node16" class="node">
<title>InputErrorsComponent </title>
<polygon fill="#fb8072" stroke="#000000" points="986.863,-252 837.137,-252 837.137,-216 986.863,-216 986.863,-252"/>
<text text-anchor="middle" x="912" y="-229.8" font-family="Times,serif" font-size="14.00" fill="#000000">InputErrorsComponent </text>
</g>
<!-- FormModule&#45;&gt;InputErrorsComponent  -->
<g id="edge15" class="edge">
<title>FormModule&#45;&gt;InputErrorsComponent </title>
<path fill="none" stroke="#000000" stroke-dasharray="5,2" d="M858.6303,-187.1061C858.6303,-187.1061 858.6303,-205.991 858.6303,-205.991"/>
<polygon fill="#000000" stroke="#000000" points="855.1303,-205.9909 858.6303,-215.991 862.1303,-205.991 855.1303,-205.9909"/>
</g>
<!-- SlotHostDirective  -->
<g id="node17" class="node">
<title>SlotHostDirective </title>
<polygon fill="#fb8072" stroke="#000000" points="819.0891,-252 698.9109,-252 698.9109,-216 819.0891,-216 819.0891,-252"/>
<text text-anchor="middle" x="759" y="-229.8" font-family="Times,serif" font-size="14.00" fill="#000000">SlotHostDirective </text>
</g>
<!-- FormModule&#45;&gt;SlotHostDirective  -->
<g id="edge16" class="edge">
<title>FormModule&#45;&gt;SlotHostDirective </title>
<path fill="none" stroke="#000000" stroke-dasharray="5,2" d="M804.6762,-187.1061C804.6762,-187.1061 804.6762,-205.991 804.6762,-205.991"/>
<polygon fill="#000000" stroke="#000000" points="801.1763,-205.9909 804.6762,-215.991 808.1763,-205.991 801.1763,-205.9909"/>
</g>
<!-- SelectComponent  -->
<g id="node18" class="node">
<title>SelectComponent </title>
<polygon fill="#fb8072" stroke="#000000" points="680.54,-252 561.46,-252 561.46,-216 680.54,-216 680.54,-252"/>
<text text-anchor="middle" x="621" y="-229.8" font-family="Times,serif" font-size="14.00" fill="#000000">SelectComponent </text>
</g>
<!-- FormModule&#45;&gt;SelectComponent  -->
<g id="edge17" class="edge">
<title>FormModule&#45;&gt;SelectComponent </title>
<path fill="none" stroke="#000000" stroke-dasharray="5,2" d="M789.7235,-183C740.6647,-183 669.3065,-183 669.3065,-183 669.3065,-183 669.3065,-205.8757 669.3065,-205.8757"/>
<polygon fill="#000000" stroke="#000000" points="665.8065,-205.8757 669.3065,-215.8757 672.8065,-205.8757 665.8065,-205.8757"/>
</g>
<!-- PopModule  -->
<g id="node19" class="node">
<title>PopModule </title>
<polygon fill="#fb8072" stroke="#000000" points="543.3326,-252 458.6674,-252 458.6674,-216 543.3326,-216 543.3326,-252"/>
<text text-anchor="middle" x="501" y="-229.8" font-family="Times,serif" font-size="14.00" fill="#000000">PopModule </text>
</g>
<!-- FormModule&#45;&gt;PopModule  -->
<g id="edge18" class="edge">
<title>FormModule&#45;&gt;PopModule </title>
<path fill="none" stroke="#000000" stroke-dasharray="5,2" d="M790.0261,-179C706.2226,-179 534.5931,-179 534.5931,-179 534.5931,-179 534.5931,-205.9909 534.5931,-205.9909"/>
<polygon fill="#000000" stroke="#000000" points="531.0932,-205.9909 534.5931,-215.9909 538.0932,-205.991 531.0932,-205.9909"/>
</g>
<!-- VisibleFieldsPipe  -->
<g id="node20" class="node">
<title>VisibleFieldsPipe </title>
<polygon fill="#fb8072" stroke="#000000" points="440.5484,-252 321.4516,-252 321.4516,-216 440.5484,-216 440.5484,-252"/>
<text text-anchor="middle" x="381" y="-229.8" font-family="Times,serif" font-size="14.00" fill="#000000">VisibleFieldsPipe </text>
</g>
<!-- FormModule&#45;&gt;VisibleFieldsPipe  -->
<g id="edge19" class="edge">
<title>FormModule&#45;&gt;VisibleFieldsPipe </title>
<path fill="none" stroke="#000000" stroke-dasharray="5,2" d="M789.9914,-175C683.5826,-175 425.3771,-175 425.3771,-175 425.3771,-175 425.3771,-205.9775 425.3771,-205.9775"/>
<polygon fill="#000000" stroke="#000000" points="421.8772,-205.9774 425.3771,-215.9775 428.8772,-205.9775 421.8772,-205.9774"/>
</g>
<!-- PopModule -->
<g id="node12" class="node">
<title>PopModule</title>
<polygon fill="#8dd3c7" stroke="#000000" points="251.8331,-122 248.8331,-126 227.8331,-126 224.8331,-122 170.1669,-122 170.1669,-86 251.8331,-86 251.8331,-122"/>
<text text-anchor="middle" x="211" y="-99.8" font-family="Times,serif" font-size="14.00" fill="#000000">PopModule</text>
</g>
<!-- PopModule&#45;&gt;FormModule -->
<g id="edge11" class="edge">
<title>PopModule&#45;&gt;FormModule</title>
<path fill="none" stroke="#000000" d="M211,-122.2222C211,-140.8285 211,-167 211,-167 211,-167 779.8724,-167 779.8724,-167"/>
<polygon fill="#000000" stroke="#000000" points="779.8725,-170.5001 789.8724,-167 779.8724,-163.5001 779.8725,-170.5001"/>
</g>
<!-- FormService -->
<g id="node21" class="node">
<title>FormService</title>
<ellipse fill="#fdb462" stroke="#000000" cx="85" cy="-104" rx="60.8313" ry="18"/>
<text text-anchor="middle" x="85" y="-99.8" font-family="Times,serif" font-size="14.00" fill="#000000">FormService</text>
</g>
<!-- FormService&#45;&gt;FormModule -->
<g id="edge20" class="edge">
<title>FormService&#45;&gt;FormModule</title>
<path fill="none" stroke="#000000" d="M85,-122.308C85,-142.1455 85,-171 85,-171 85,-171 780.052,-171 780.052,-171"/>
<polygon fill="#000000" stroke="#000000" points="780.052,-174.5001 790.052,-171 780.052,-167.5001 780.052,-174.5001"/>
</g>
</g>
</svg>
