<?xml version="1.0" encoding="UTF-8" standalone="no"?>
<!DOCTYPE svg PUBLIC "-//W3C//DTD SVG 1.1//EN"
 "http://www.w3.org/Graphics/SVG/1.1/DTD/svg11.dtd">
<!-- Generated by graphviz version 2.40.1 (20161225.0304)
 -->
<!-- Title: dependencies Pages: 1 -->
<svg width="2443pt" height="284pt"
 viewBox="0.00 0.00 2443.00 284.00" xmlns="http://www.w3.org/2000/svg" xmlns:xlink="http://www.w3.org/1999/xlink">
<g id="graph0" class="graph" transform="scale(1 1) rotate(0) translate(4 280)">
<title>dependencies</title>
<polygon fill="#ffffff" stroke="transparent" points="-4,4 -4,-280 2439,-280 2439,4 -4,4"/>
<text text-anchor="start" x="1196.5091" y="-42.4" font-family="sans-serif" font-weight="bold" font-size="14.00" fill="#000000">Legend</text>
<polygon fill="#ffffb3" stroke="transparent" points="983.5,-10 983.5,-30 1003.5,-30 1003.5,-10 983.5,-10"/>
<text text-anchor="start" x="1007.129" y="-15.4" font-family="sans-serif" font-size="14.00" fill="#000000"> &#160;Declarations</text>
<polygon fill="#8dd3c7" stroke="transparent" points="1096.5,-10 1096.5,-30 1116.5,-30 1116.5,-10 1096.5,-10"/>
<text text-anchor="start" x="1120.2251" y="-15.4" font-family="sans-serif" font-size="14.00" fill="#000000"> &#160;Module</text>
<polygon fill="#80b1d3" stroke="transparent" points="1182.5,-10 1182.5,-30 1202.5,-30 1202.5,-10 1182.5,-10"/>
<text text-anchor="start" x="1206.2812" y="-15.4" font-family="sans-serif" font-size="14.00" fill="#000000"> &#160;Bootstrap</text>
<polygon fill="#fdb462" stroke="transparent" points="1279.5,-10 1279.5,-30 1299.5,-30 1299.5,-10 1279.5,-10"/>
<text text-anchor="start" x="1303.1732" y="-15.4" font-family="sans-serif" font-size="14.00" fill="#000000"> &#160;Providers</text>
<polygon fill="#fb8072" stroke="transparent" points="1375.5,-10 1375.5,-30 1395.5,-30 1395.5,-10 1375.5,-10"/>
<text text-anchor="start" x="1399.2258" y="-15.4" font-family="sans-serif" font-size="14.00" fill="#000000"> &#160;Exports</text>
<g id="clust1" class="cluster">
<title>cluster_FormModule</title>
<polygon fill="none" stroke="#000000" stroke-dasharray="1,5" points="8,-70 8,-268 2427,-268 2427,-70 8,-70"/>
</g>
<g id="clust2" class="cluster">
<title>cluster_FormModule_declarations</title>
<polygon fill="none" stroke="#000000" points="697,-78 697,-130 2419,-130 2419,-78 697,-78"/>
</g>
<g id="clust15" class="cluster">
<title>cluster_FormModule_imports</title>
<polygon fill="none" stroke="#000000" points="162,-78 162,-130 689,-130 689,-78 162,-78"/>
</g>
<g id="clust16" class="cluster">
<title>cluster_FormModule_exports</title>
<polygon fill="none" stroke="#000000" points="350,-208 350,-260 1952,-260 1952,-208 350,-208"/>
</g>
<g id="clust18" class="cluster">
<title>cluster_FormModule_providers</title>
<polygon fill="none" stroke="#000000" points="16,-78 16,-130 154,-130 154,-78 16,-78"/>
</g>
<!-- CalendarComponent -->
<g id="node1" class="node">
<title>CalendarComponent</title>
<polygon fill="#ffffb3" stroke="#000000" points="2410.8641,-122 2279.1359,-122 2279.1359,-86 2410.8641,-86 2410.8641,-122"/>
<text text-anchor="middle" x="2345" y="-99.8" font-family="Times,serif" font-size="14.00" fill="#000000">CalendarComponent</text>
</g>
<!-- FormModule -->
<g id="node13" class="node">
<title>FormModule</title>
<polygon fill="#8dd3c7" stroke="#000000" points="1144.8837,-187 1141.8837,-191 1120.8837,-191 1117.8837,-187 1055.1163,-187 1055.1163,-151 1144.8837,-151 1144.8837,-187"/>
<text text-anchor="middle" x="1100" y="-164.8" font-family="Times,serif" font-size="14.00" fill="#000000">FormModule</text>
</g>
<!-- CalendarComponent&#45;&gt;FormModule -->
<g id="edge1" class="edge">
<title>CalendarComponent&#45;&gt;FormModule</title>
<path fill="none" stroke="#000000" d="M2345,-122.2228C2345,-142.3652 2345,-172 2345,-172 2345,-172 1155.0457,-172 1155.0457,-172"/>
<polygon fill="#000000" stroke="#000000" points="1155.0458,-168.5001 1145.0457,-172 1155.0457,-175.5001 1155.0458,-168.5001"/>
</g>
<!-- DaterangeComponent -->
<g id="node2" class="node">
<title>DaterangeComponent</title>
<polygon fill="#ffffb3" stroke="#000000" points="2261.3487,-122 2122.6513,-122 2122.6513,-86 2261.3487,-86 2261.3487,-122"/>
<text text-anchor="middle" x="2192" y="-99.8" font-family="Times,serif" font-size="14.00" fill="#000000">DaterangeComponent</text>
</g>
<!-- DaterangeComponent&#45;&gt;FormModule -->
<g id="edge2" class="edge">
<title>DaterangeComponent&#45;&gt;FormModule</title>
<path fill="none" stroke="#000000" d="M2192,-122.1061C2192,-141.3391 2192,-169 2192,-169 2192,-169 1155.187,-169 1155.187,-169"/>
<polygon fill="#000000" stroke="#000000" points="1155.187,-165.5001 1145.187,-169 1155.1869,-172.5001 1155.187,-165.5001"/>
</g>
<!-- DatetimeComponent -->
<g id="node3" class="node">
<title>DatetimeComponent</title>
<polygon fill="#ffffb3" stroke="#000000" points="2104.1457,-122 1971.8543,-122 1971.8543,-86 2104.1457,-86 2104.1457,-122"/>
<text text-anchor="middle" x="2038" y="-99.8" font-family="Times,serif" font-size="14.00" fill="#000000">DatetimeComponent</text>
</g>
<!-- DatetimeComponent&#45;&gt;FormModule -->
<g id="edge3" class="edge">
<title>DatetimeComponent&#45;&gt;FormModule</title>
<path fill="none" stroke="#000000" d="M2038,-122.2222C2038,-140.8285 2038,-167 2038,-167 2038,-167 1154.9257,-167 1154.9257,-167"/>
<polygon fill="#000000" stroke="#000000" points="1154.9257,-163.5001 1144.9257,-167 1154.9256,-170.5001 1154.9257,-163.5001"/>
</g>
<!-- DatetimePipe -->
<g id="node4" class="node">
<title>DatetimePipe</title>
<polygon fill="#ffffb3" stroke="#000000" points="1954.2008,-122 1861.7992,-122 1861.7992,-86 1954.2008,-86 1954.2008,-122"/>
<text text-anchor="middle" x="1908" y="-99.8" font-family="Times,serif" font-size="14.00" fill="#000000">DatetimePipe</text>
</g>
<!-- DatetimePipe&#45;&gt;FormModule -->
<g id="edge4" class="edge">
<title>DatetimePipe&#45;&gt;FormModule</title>
<path fill="none" stroke="#000000" d="M1902.7909,-122.002C1902.7909,-139.6754 1902.7909,-164 1902.7909,-164 1902.7909,-164 1155.1713,-164 1155.1713,-164"/>
<polygon fill="#000000" stroke="#000000" points="1155.1713,-160.5001 1145.1713,-164 1155.1713,-167.5001 1155.1713,-160.5001"/>
</g>
<!-- DefaultInputComponent -->
<g id="node5" class="node">
<title>DefaultInputComponent</title>
<polygon fill="#ffffb3" stroke="#000000" points="1843.3613,-122 1690.6387,-122 1690.6387,-86 1843.3613,-86 1843.3613,-122"/>
<text text-anchor="middle" x="1767" y="-99.8" font-family="Times,serif" font-size="14.00" fill="#000000">DefaultInputComponent</text>
</g>
<!-- DefaultInputComponent&#45;&gt;FormModule -->
<g id="edge5" class="edge">
<title>DefaultInputComponent&#45;&gt;FormModule</title>
<path fill="none" stroke="#000000" d="M1740.3719,-122.0336C1740.3719,-139.0597 1740.3719,-162 1740.3719,-162 1740.3719,-162 1155.0297,-162 1155.0297,-162"/>
<polygon fill="#000000" stroke="#000000" points="1155.0297,-158.5001 1145.0297,-162 1155.0297,-165.5001 1155.0297,-158.5001"/>
</g>
<!-- DefaultOutputComponent -->
<g id="node6" class="node">
<title>DefaultOutputComponent</title>
<polygon fill="#ffffb3" stroke="#000000" points="1672.1979,-122 1509.8021,-122 1509.8021,-86 1672.1979,-86 1672.1979,-122"/>
<text text-anchor="middle" x="1591" y="-99.8" font-family="Times,serif" font-size="14.00" fill="#000000">DefaultOutputComponent</text>
</g>
<!-- DefaultOutputComponent&#45;&gt;FormModule -->
<g id="edge6" class="edge">
<title>DefaultOutputComponent&#45;&gt;FormModule</title>
<path fill="none" stroke="#000000" d="M1569.9869,-122.0091C1569.9869,-138.0494 1569.9869,-159 1569.9869,-159 1569.9869,-159 1155.0643,-159 1155.0643,-159"/>
<polygon fill="#000000" stroke="#000000" points="1155.0643,-155.5001 1145.0643,-159 1155.0643,-162.5001 1155.0643,-155.5001"/>
</g>
<!-- FormComponent -->
<g id="node7" class="node">
<title>FormComponent</title>
<polygon fill="#ffffb3" stroke="#000000" points="1491.6667,-122 1380.3333,-122 1380.3333,-86 1491.6667,-86 1491.6667,-122"/>
<text text-anchor="middle" x="1436" y="-99.8" font-family="Times,serif" font-size="14.00" fill="#000000">FormComponent</text>
</g>
<!-- FormComponent&#45;&gt;FormModule -->
<g id="edge7" class="edge">
<title>FormComponent&#45;&gt;FormModule</title>
<path fill="none" stroke="#000000" d="M1412.0614,-122.2396C1412.0614,-137.5706 1412.0614,-157 1412.0614,-157 1412.0614,-157 1155.0431,-157 1155.0431,-157"/>
<polygon fill="#000000" stroke="#000000" points="1155.0432,-153.5001 1145.0431,-157 1155.0431,-160.5001 1155.0432,-153.5001"/>
</g>
<!-- HeatmapComponent -->
<g id="node8" class="node">
<title>HeatmapComponent</title>
<polygon fill="#ffffb3" stroke="#000000" points="1361.8641,-122 1230.1359,-122 1230.1359,-86 1361.8641,-86 1361.8641,-122"/>
<text text-anchor="middle" x="1296" y="-99.8" font-family="Times,serif" font-size="14.00" fill="#000000">HeatmapComponent</text>
</g>
<!-- HeatmapComponent&#45;&gt;FormModule -->
<g id="edge8" class="edge">
<title>HeatmapComponent&#45;&gt;FormModule</title>
<path fill="none" stroke="#000000" d="M1238.7425,-122.0511C1238.7425,-136.373 1238.7425,-154 1238.7425,-154 1238.7425,-154 1155.0457,-154 1155.0457,-154"/>
<polygon fill="#000000" stroke="#000000" points="1155.0457,-150.5001 1145.0457,-154 1155.0457,-157.5001 1155.0457,-150.5001"/>
</g>
<!-- MaxItemsPipe -->
<g id="node9" class="node">
<title>MaxItemsPipe</title>
<polygon fill="#ffffb3" stroke="#000000" points="1211.6486,-122 1114.3514,-122 1114.3514,-86 1211.6486,-86 1211.6486,-122"/>
<text text-anchor="middle" x="1163" y="-99.8" font-family="Times,serif" font-size="14.00" fill="#000000">MaxItemsPipe</text>
</g>
<!-- MaxItemsPipe&#45;&gt;FormModule -->
<g id="edge9" class="edge">
<title>MaxItemsPipe&#45;&gt;FormModule</title>
<path fill="none" stroke="#000000" d="M1129.5589,-122.1061C1129.5589,-122.1061 1129.5589,-140.991 1129.5589,-140.991"/>
<polygon fill="#000000" stroke="#000000" points="1126.059,-140.9909 1129.5589,-150.991 1133.059,-140.991 1126.059,-140.9909"/>
</g>
<!-- MonthComponent -->
<g id="node10" class="node">
<title>MonthComponent</title>
<polygon fill="#ffffb3" stroke="#000000" points="1096.1681,-122 977.8319,-122 977.8319,-86 1096.1681,-86 1096.1681,-122"/>
<text text-anchor="middle" x="1037" y="-99.8" font-family="Times,serif" font-size="14.00" fill="#000000">MonthComponent</text>
</g>
<!-- MonthComponent&#45;&gt;FormModule -->
<g id="edge10" class="edge">
<title>MonthComponent&#45;&gt;FormModule</title>
<path fill="none" stroke="#000000" d="M1075.696,-122.1061C1075.696,-122.1061 1075.696,-140.991 1075.696,-140.991"/>
<polygon fill="#000000" stroke="#000000" points="1072.1961,-140.9909 1075.696,-150.991 1079.1961,-140.991 1072.1961,-140.9909"/>
</g>
<!-- ToggleComponent -->
<g id="node11" class="node">
<title>ToggleComponent</title>
<polygon fill="#ffffb3" stroke="#000000" points="959.4902,-122 838.5098,-122 838.5098,-86 959.4902,-86 959.4902,-122"/>
<text text-anchor="middle" x="899" y="-99.8" font-family="Times,serif" font-size="14.00" fill="#000000">ToggleComponent</text>
</g>
<!-- ToggleComponent&#45;&gt;FormModule -->
<g id="edge11" class="edge">
<title>ToggleComponent&#45;&gt;FormModule</title>
<path fill="none" stroke="#000000" d="M920.9606,-122.0511C920.9606,-136.373 920.9606,-154 920.9606,-154 920.9606,-154 1044.8208,-154 1044.8208,-154"/>
<polygon fill="#000000" stroke="#000000" points="1044.8208,-157.5001 1054.8208,-154 1044.8208,-150.5001 1044.8208,-157.5001"/>
</g>
<!-- VisibleFieldsPipe -->
<g id="node12" class="node">
<title>VisibleFieldsPipe</title>
<polygon fill="#ffffb3" stroke="#000000" points="820.5493,-122 705.4507,-122 705.4507,-86 820.5493,-86 820.5493,-122"/>
<text text-anchor="middle" x="763" y="-99.8" font-family="Times,serif" font-size="14.00" fill="#000000">VisibleFieldsPipe</text>
</g>
<!-- VisibleFieldsPipe&#45;&gt;FormModule -->
<g id="edge12" class="edge">
<title>VisibleFieldsPipe&#45;&gt;FormModule</title>
<path fill="none" stroke="#000000" d="M781.3452,-122.2396C781.3452,-137.5706 781.3452,-157 781.3452,-157 781.3452,-157 1045.0204,-157 1045.0204,-157"/>
<polygon fill="#000000" stroke="#000000" points="1045.0204,-160.5001 1055.0204,-157 1045.0204,-153.5001 1045.0204,-160.5001"/>
</g>
<!-- CalendarComponent  -->
<g id="node19" class="node">
<title>CalendarComponent </title>
<polygon fill="#fb8072" stroke="#000000" points="1943.8645,-252 1808.1355,-252 1808.1355,-216 1943.8645,-216 1943.8645,-252"/>
<text text-anchor="middle" x="1876" y="-229.8" font-family="Times,serif" font-size="14.00" fill="#000000">CalendarComponent </text>
</g>
<!-- FormModule&#45;&gt;CalendarComponent  -->
<g id="edge18" class="edge">
<title>FormModule&#45;&gt;CalendarComponent </title>
<path fill="none" stroke="#000000" stroke-dasharray="5,2" d="M1145.1324,-175C1303.7172,-175 1825.8743,-175 1825.8743,-175 1825.8743,-175 1825.8743,-205.9775 1825.8743,-205.9775"/>
<polygon fill="#000000" stroke="#000000" points="1822.3744,-205.9774 1825.8743,-215.9775 1829.3744,-205.9775 1822.3744,-205.9774"/>
</g>
<!-- DaterangeComponent  -->
<g id="node20" class="node">
<title>DaterangeComponent </title>
<polygon fill="#fb8072" stroke="#000000" points="1790.349,-252 1647.651,-252 1647.651,-216 1790.349,-216 1790.349,-252"/>
<text text-anchor="middle" x="1719" y="-229.8" font-family="Times,serif" font-size="14.00" fill="#000000">DaterangeComponent </text>
</g>
<!-- FormModule&#45;&gt;DaterangeComponent  -->
<g id="edge19" class="edge">
<title>FormModule&#45;&gt;DaterangeComponent </title>
<path fill="none" stroke="#000000" stroke-dasharray="5,2" d="M1145.3497,-177C1278.6575,-177 1659.9623,-177 1659.9623,-177 1659.9623,-177 1659.9623,-205.9648 1659.9623,-205.9648"/>
<polygon fill="#000000" stroke="#000000" points="1656.4624,-205.9648 1659.9623,-215.9648 1663.4624,-205.9649 1656.4624,-205.9648"/>
</g>
<!-- DatetimeComponent  -->
<g id="node21" class="node">
<title>DatetimeComponent </title>
<polygon fill="#fb8072" stroke="#000000" points="1630.1453,-252 1493.8547,-252 1493.8547,-216 1630.1453,-216 1630.1453,-252"/>
<text text-anchor="middle" x="1562" y="-229.8" font-family="Times,serif" font-size="14.00" fill="#000000">DatetimeComponent </text>
</g>
<!-- FormModule&#45;&gt;DatetimeComponent  -->
<g id="edge20" class="edge">
<title>FormModule&#45;&gt;DatetimeComponent </title>
<path fill="none" stroke="#000000" stroke-dasharray="5,2" d="M1144.9348,-180C1249.8129,-180 1501.9143,-180 1501.9143,-180 1501.9143,-180 1501.9143,-205.7181 1501.9143,-205.7181"/>
<polygon fill="#000000" stroke="#000000" points="1498.4143,-205.718 1501.9143,-215.7181 1505.4143,-205.7181 1498.4143,-205.718"/>
</g>
<!-- DatetimePipe  -->
<g id="node22" class="node">
<title>DatetimePipe </title>
<polygon fill="#fb8072" stroke="#000000" points="1475.7011,-252 1380.2989,-252 1380.2989,-216 1475.7011,-216 1475.7011,-252"/>
<text text-anchor="middle" x="1428" y="-229.8" font-family="Times,serif" font-size="14.00" fill="#000000">DatetimePipe </text>
</g>
<!-- FormModule&#45;&gt;DatetimePipe  -->
<g id="edge21" class="edge">
<title>FormModule&#45;&gt;DatetimePipe </title>
<path fill="none" stroke="#000000" stroke-dasharray="5,2" d="M1144.9662,-182C1238.1995,-182 1443.9558,-182 1443.9558,-182 1443.9558,-182 1443.9558,-205.8129 1443.9558,-205.8129"/>
<polygon fill="#000000" stroke="#000000" points="1440.4559,-205.8129 1443.9558,-215.8129 1447.4559,-205.813 1440.4559,-205.8129"/>
</g>
<!-- FormComponent  -->
<g id="node23" class="node">
<title>FormComponent </title>
<polygon fill="#fb8072" stroke="#000000" points="1362.6663,-252 1247.3337,-252 1247.3337,-216 1362.6663,-216 1362.6663,-252"/>
<text text-anchor="middle" x="1305" y="-229.8" font-family="Times,serif" font-size="14.00" fill="#000000">FormComponent </text>
</g>
<!-- FormModule&#45;&gt;FormComponent  -->
<g id="edge22" class="edge">
<title>FormModule&#45;&gt;FormComponent </title>
<path fill="none" stroke="#000000" stroke-dasharray="5,2" d="M1144.9167,-185C1205.166,-185 1304.6745,-185 1304.6745,-185 1304.6745,-185 1304.6745,-205.7542 1304.6745,-205.7542"/>
<polygon fill="#000000" stroke="#000000" points="1301.1745,-205.7542 1304.6745,-215.7542 1308.1745,-205.7542 1301.1745,-205.7542"/>
</g>
<!-- HeatmapComponent  -->
<g id="node24" class="node">
<title>HeatmapComponent </title>
<polygon fill="#fb8072" stroke="#000000" points="1229.8645,-252 1094.1355,-252 1094.1355,-216 1229.8645,-216 1229.8645,-252"/>
<text text-anchor="middle" x="1162" y="-229.8" font-family="Times,serif" font-size="14.00" fill="#000000">HeatmapComponent </text>
</g>
<!-- FormModule&#45;&gt;HeatmapComponent  -->
<g id="edge23" class="edge">
<title>FormModule&#45;&gt;HeatmapComponent </title>
<path fill="none" stroke="#000000" stroke-dasharray="5,2" d="M1119.6299,-187.1061C1119.6299,-187.1061 1119.6299,-205.991 1119.6299,-205.991"/>
<polygon fill="#000000" stroke="#000000" points="1116.13,-205.9909 1119.6299,-215.991 1123.13,-205.991 1116.13,-205.9909"/>
</g>
<!-- IoModule  -->
<g id="node25" class="node">
<title>IoModule </title>
<polygon fill="#fb8072" stroke="#000000" points="1076.211,-252 1001.789,-252 1001.789,-216 1076.211,-216 1076.211,-252"/>
<text text-anchor="middle" x="1039" y="-229.8" font-family="Times,serif" font-size="14.00" fill="#000000">IoModule </text>
</g>
<!-- FormModule&#45;&gt;IoModule  -->
<g id="edge24" class="edge">
<title>FormModule&#45;&gt;IoModule </title>
<path fill="none" stroke="#000000" stroke-dasharray="5,2" d="M1065.7067,-187.1061C1065.7067,-187.1061 1065.7067,-205.991 1065.7067,-205.991"/>
<polygon fill="#000000" stroke="#000000" points="1062.2068,-205.9909 1065.7067,-215.991 1069.2068,-205.991 1062.2068,-205.9909"/>
</g>
<!-- MaxItemsPipe  -->
<g id="node26" class="node">
<title>MaxItemsPipe </title>
<polygon fill="#fb8072" stroke="#000000" points="983.6481,-252 882.3519,-252 882.3519,-216 983.6481,-216 983.6481,-252"/>
<text text-anchor="middle" x="933" y="-229.8" font-family="Times,serif" font-size="14.00" fill="#000000">MaxItemsPipe </text>
</g>
<!-- FormModule&#45;&gt;MaxItemsPipe  -->
<g id="edge25" class="edge">
<title>FormModule&#45;&gt;MaxItemsPipe </title>
<path fill="none" stroke="#000000" stroke-dasharray="5,2" d="M1054.7729,-185C1016.758,-185 968.5807,-185 968.5807,-185 968.5807,-185 968.5807,-205.7542 968.5807,-205.7542"/>
<polygon fill="#000000" stroke="#000000" points="965.0807,-205.7542 968.5807,-215.7542 972.0807,-205.7542 965.0807,-205.7542"/>
</g>
<!-- MonthComponent  -->
<g id="node27" class="node">
<title>MonthComponent </title>
<polygon fill="#fb8072" stroke="#000000" points="864.1677,-252 741.8323,-252 741.8323,-216 864.1677,-216 864.1677,-252"/>
<text text-anchor="middle" x="803" y="-229.8" font-family="Times,serif" font-size="14.00" fill="#000000">MonthComponent </text>
</g>
<!-- FormModule&#45;&gt;MonthComponent  -->
<g id="edge26" class="edge">
<title>FormModule&#45;&gt;MonthComponent </title>
<path fill="none" stroke="#000000" stroke-dasharray="5,2" d="M1054.9613,-182C983.2911,-182 851.2944,-182 851.2944,-182 851.2944,-182 851.2944,-205.8129 851.2944,-205.8129"/>
<polygon fill="#000000" stroke="#000000" points="847.7944,-205.8129 851.2944,-215.8129 854.7944,-205.813 847.7944,-205.8129"/>
</g>
<!-- PopModule  -->
<g id="node28" class="node">
<title>PopModule </title>
<polygon fill="#fb8072" stroke="#000000" points="723.3326,-252 638.6674,-252 638.6674,-216 723.3326,-216 723.3326,-252"/>
<text text-anchor="middle" x="681" y="-229.8" font-family="Times,serif" font-size="14.00" fill="#000000">PopModule </text>
</g>
<!-- FormModule&#45;&gt;PopModule  -->
<g id="edge27" class="edge">
<title>FormModule&#45;&gt;PopModule </title>
<path fill="none" stroke="#000000" stroke-dasharray="5,2" d="M1055.0029,-180C953.265,-180 714.321,-180 714.321,-180 714.321,-180 714.321,-205.7181 714.321,-205.7181"/>
<polygon fill="#000000" stroke="#000000" points="710.8211,-205.718 714.321,-215.7181 717.8211,-205.7181 710.8211,-205.718"/>
</g>
<!-- ToggleComponent  -->
<g id="node29" class="node">
<title>ToggleComponent </title>
<polygon fill="#fb8072" stroke="#000000" points="620.4912,-252 495.5088,-252 495.5088,-216 620.4912,-216 620.4912,-252"/>
<text text-anchor="middle" x="558" y="-229.8" font-family="Times,serif" font-size="14.00" fill="#000000">ToggleComponent </text>
</g>
<!-- FormModule&#45;&gt;ToggleComponent  -->
<g id="edge28" class="edge">
<title>FormModule&#45;&gt;ToggleComponent </title>
<path fill="none" stroke="#000000" stroke-dasharray="5,2" d="M1055.0812,-177C933.7527,-177 608.5163,-177 608.5163,-177 608.5163,-177 608.5163,-205.9648 608.5163,-205.9648"/>
<polygon fill="#000000" stroke="#000000" points="605.0164,-205.9648 608.5163,-215.9648 612.0164,-205.9649 605.0164,-205.9648"/>
</g>
<!-- VisibleFieldsPipe  -->
<g id="node30" class="node">
<title>VisibleFieldsPipe </title>
<polygon fill="#fb8072" stroke="#000000" points="477.5484,-252 358.4516,-252 358.4516,-216 477.5484,-216 477.5484,-252"/>
<text text-anchor="middle" x="418" y="-229.8" font-family="Times,serif" font-size="14.00" fill="#000000">VisibleFieldsPipe </text>
</g>
<!-- FormModule&#45;&gt;VisibleFieldsPipe  -->
<g id="edge29" class="edge">
<title>FormModule&#45;&gt;VisibleFieldsPipe </title>
<path fill="none" stroke="#000000" stroke-dasharray="5,2" d="M1055.0051,-175C905.3844,-175 433.9641,-175 433.9641,-175 433.9641,-175 433.9641,-205.9775 433.9641,-205.9775"/>
<polygon fill="#000000" stroke="#000000" points="430.4641,-205.9774 433.9641,-215.9775 437.4641,-205.9775 430.4641,-205.9774"/>
</g>
<!-- IconModule -->
<g id="node14" class="node">
<title>IconModule</title>
<polygon fill="#8dd3c7" stroke="#000000" points="681.4261,-122 678.4261,-126 657.4261,-126 654.4261,-122 596.5739,-122 596.5739,-86 681.4261,-86 681.4261,-122"/>
<text text-anchor="middle" x="639" y="-99.8" font-family="Times,serif" font-size="14.00" fill="#000000">IconModule</text>
</g>
<!-- IconModule&#45;&gt;FormModule -->
<g id="edge13" class="edge">
<title>IconModule&#45;&gt;FormModule</title>
<path fill="none" stroke="#000000" d="M659.8982,-122.0091C659.8982,-138.0494 659.8982,-159 659.8982,-159 659.8982,-159 1044.9696,-159 1044.9696,-159"/>
<polygon fill="#000000" stroke="#000000" points="1044.9697,-162.5001 1054.9696,-159 1044.9696,-155.5001 1044.9697,-162.5001"/>
</g>
<!-- IoModule -->
<g id="node15" class="node">
<title>IoModule</title>
<polygon fill="#8dd3c7" stroke="#000000" points="578.7107,-122 575.7107,-126 554.7107,-126 551.7107,-122 507.2893,-122 507.2893,-86 578.7107,-86 578.7107,-122"/>
<text text-anchor="middle" x="543" y="-99.8" font-family="Times,serif" font-size="14.00" fill="#000000">IoModule</text>
</g>
<!-- IoModule&#45;&gt;FormModule -->
<g id="edge14" class="edge">
<title>IoModule&#45;&gt;FormModule</title>
<path fill="none" stroke="#000000" d="M543,-122.0336C543,-139.0597 543,-162 543,-162 543,-162 1044.8902,-162 1044.8902,-162"/>
<polygon fill="#000000" stroke="#000000" points="1044.8902,-165.5001 1054.8902,-162 1044.8901,-158.5001 1044.8902,-165.5001"/>
</g>
<!-- LoaderModule -->
<g id="node16" class="node">
<title>LoaderModule</title>
<polygon fill="#8dd3c7" stroke="#000000" points="489.6924,-122 486.6924,-126 465.6924,-126 462.6924,-122 390.3076,-122 390.3076,-86 489.6924,-86 489.6924,-122"/>
<text text-anchor="middle" x="440" y="-99.8" font-family="Times,serif" font-size="14.00" fill="#000000">LoaderModule</text>
</g>
<!-- LoaderModule&#45;&gt;FormModule -->
<g id="edge15" class="edge">
<title>LoaderModule&#45;&gt;FormModule</title>
<path fill="none" stroke="#000000" d="M483.5602,-122.002C483.5602,-139.6754 483.5602,-164 483.5602,-164 483.5602,-164 1044.6717,-164 1044.6717,-164"/>
<polygon fill="#000000" stroke="#000000" points="1044.6717,-167.5001 1054.6717,-164 1044.6717,-160.5001 1044.6717,-167.5001"/>
</g>
<!-- PopModule -->
<g id="node17" class="node">
<title>PopModule</title>
<polygon fill="#8dd3c7" stroke="#000000" points="372.8331,-122 369.8331,-126 348.8331,-126 345.8331,-122 291.1669,-122 291.1669,-86 372.8331,-86 372.8331,-122"/>
<text text-anchor="middle" x="332" y="-99.8" font-family="Times,serif" font-size="14.00" fill="#000000">PopModule</text>
</g>
<!-- PopModule&#45;&gt;FormModule -->
<g id="edge16" class="edge">
<title>PopModule&#45;&gt;FormModule</title>
<path fill="none" stroke="#000000" d="M365.571,-122.2222C365.571,-140.8285 365.571,-167 365.571,-167 365.571,-167 1044.8884,-167 1044.8884,-167"/>
<polygon fill="#000000" stroke="#000000" points="1044.8885,-170.5001 1054.8884,-167 1044.8884,-163.5001 1044.8885,-170.5001"/>
</g>
<!-- SymbolModule -->
<g id="node18" class="node">
<title>SymbolModule</title>
<polygon fill="#8dd3c7" stroke="#000000" points="273.6137,-122 270.6137,-126 249.6137,-126 246.6137,-122 170.3863,-122 170.3863,-86 273.6137,-86 273.6137,-122"/>
<text text-anchor="middle" x="222" y="-99.8" font-family="Times,serif" font-size="14.00" fill="#000000">SymbolModule</text>
</g>
<!-- SymbolModule&#45;&gt;FormModule -->
<g id="edge17" class="edge">
<title>SymbolModule&#45;&gt;FormModule</title>
<path fill="none" stroke="#000000" d="M222,-122.1061C222,-141.3391 222,-169 222,-169 222,-169 1044.9487,-169 1044.9487,-169"/>
<polygon fill="#000000" stroke="#000000" points="1044.9488,-172.5001 1054.9487,-169 1044.9487,-165.5001 1044.9488,-172.5001"/>
</g>
<!-- FormService -->
<g id="node31" class="node">
<title>FormService</title>
<ellipse fill="#fdb462" stroke="#000000" cx="85" cy="-104" rx="60.8313" ry="18"/>
<text text-anchor="middle" x="85" y="-99.8" font-family="Times,serif" font-size="14.00" fill="#000000">FormService</text>
</g>
<!-- FormService&#45;&gt;FormModule -->
<g id="edge30" class="edge">
<title>FormService&#45;&gt;FormModule</title>
<path fill="none" stroke="#000000" d="M85,-122.2228C85,-142.3652 85,-172 85,-172 85,-172 1045.0771,-172 1045.0771,-172"/>
<polygon fill="#000000" stroke="#000000" points="1045.0771,-175.5001 1055.0771,-172 1045.077,-168.5001 1045.0771,-175.5001"/>
</g>
</g>
</svg>
