<?xml version="1.0" encoding="UTF-8" standalone="no"?>
<!DOCTYPE svg PUBLIC "-//W3C//DTD SVG 1.1//EN"
 "http://www.w3.org/Graphics/SVG/1.1/DTD/svg11.dtd">
<!-- Generated by graphviz version 2.40.1 (20161225.0304)
 -->
<!-- Title: dependencies Pages: 1 -->
<svg width="1128pt" height="284pt"
 viewBox="0.00 0.00 1128.00 284.00" xmlns="http://www.w3.org/2000/svg" xmlns:xlink="http://www.w3.org/1999/xlink">
<g id="graph0" class="graph" transform="scale(1 1) rotate(0) translate(4 280)">
<title>dependencies</title>
<polygon fill="#ffffff" stroke="transparent" points="-4,4 -4,-280 1124,-280 1124,4 -4,4"/>
<text text-anchor="start" x="539.0091" y="-42.4" font-family="sans-serif" font-weight="bold" font-size="14.00" fill="#000000">Legend</text>
<polygon fill="#ffffb3" stroke="transparent" points="326,-10 326,-30 346,-30 346,-10 326,-10"/>
<text text-anchor="start" x="349.629" y="-15.4" font-family="sans-serif" font-size="14.00" fill="#000000"> &#160;Declarations</text>
<polygon fill="#8dd3c7" stroke="transparent" points="439,-10 439,-30 459,-30 459,-10 439,-10"/>
<text text-anchor="start" x="462.7251" y="-15.4" font-family="sans-serif" font-size="14.00" fill="#000000"> &#160;Module</text>
<polygon fill="#80b1d3" stroke="transparent" points="525,-10 525,-30 545,-30 545,-10 525,-10"/>
<text text-anchor="start" x="548.7812" y="-15.4" font-family="sans-serif" font-size="14.00" fill="#000000"> &#160;Bootstrap</text>
<polygon fill="#fdb462" stroke="transparent" points="622,-10 622,-30 642,-30 642,-10 622,-10"/>
<text text-anchor="start" x="645.6732" y="-15.4" font-family="sans-serif" font-size="14.00" fill="#000000"> &#160;Providers</text>
<polygon fill="#fb8072" stroke="transparent" points="718,-10 718,-30 738,-30 738,-10 718,-10"/>
<text text-anchor="start" x="741.7258" y="-15.4" font-family="sans-serif" font-size="14.00" fill="#000000"> &#160;Exports</text>
<g id="clust1" class="cluster">
<title>cluster_FormModule</title>
<polygon fill="none" stroke="#000000" stroke-dasharray="1,5" points="8,-70 8,-268 1112,-268 1112,-70 8,-70"/>
</g>
<g id="clust2" class="cluster">
<title>cluster_FormModule_declarations</title>
<polygon fill="none" stroke="#000000" points="357,-78 357,-130 1104,-130 1104,-78 357,-78"/>
</g>
<g id="clust8" class="cluster">
<title>cluster_FormModule_imports</title>
<polygon fill="none" stroke="#000000" points="162,-78 162,-130 349,-130 349,-78 162,-78"/>
</g>
<g id="clust9" class="cluster">
<title>cluster_FormModule_exports</title>
<polygon fill="none" stroke="#000000" points="210,-208 210,-260 811,-260 811,-208 210,-208"/>
</g>
<g id="clust11" class="cluster">
<title>cluster_FormModule_providers</title>
<polygon fill="none" stroke="#000000" points="16,-78 16,-130 154,-130 154,-78 16,-78"/>
</g>
<!-- FormComponent -->
<g id="node1" class="node">
<title>FormComponent</title>
<polygon fill="#ffffb3" stroke="#000000" points="1095.6667,-122 984.3333,-122 984.3333,-86 1095.6667,-86 1095.6667,-122"/>
<text text-anchor="middle" x="1040" y="-99.8" font-family="Times,serif" font-size="14.00" fill="#000000">FormComponent</text>
</g>
<!-- FormModule -->
<g id="node6" class="node">
<title>FormModule</title>
<polygon fill="#8dd3c7" stroke="#000000" points="534.8837,-187 531.8837,-191 510.8837,-191 507.8837,-187 445.1163,-187 445.1163,-151 534.8837,-151 534.8837,-187"/>
<text text-anchor="middle" x="490" y="-164.8" font-family="Times,serif" font-size="14.00" fill="#000000">FormModule</text>
</g>
<!-- FormComponent&#45;&gt;FormModule -->
<g id="edge1" class="edge">
<title>FormComponent&#45;&gt;FormModule</title>
<path fill="none" stroke="#000000" d="M1040,-122.1061C1040,-141.3391 1040,-169 1040,-169 1040,-169 545.0088,-169 545.0088,-169"/>
<polygon fill="#000000" stroke="#000000" points="545.0088,-165.5001 535.0088,-169 545.0088,-172.5001 545.0088,-165.5001"/>
</g>
<!-- DefaultInputComponent -->
<g id="node2" class="node">
<title>DefaultInputComponent</title>
<polygon fill="#ffffb3" stroke="#000000" points="966.3613,-122 813.6387,-122 813.6387,-86 966.3613,-86 966.3613,-122"/>
<text text-anchor="middle" x="890" y="-99.8" font-family="Times,serif" font-size="14.00" fill="#000000">DefaultInputComponent</text>
</g>
<!-- DefaultInputComponent&#45;&gt;FormModule -->
<g id="edge2" class="edge">
<title>DefaultInputComponent&#45;&gt;FormModule</title>
<path fill="none" stroke="#000000" d="M890,-122.0225C890,-139.3734 890,-163 890,-163 890,-163 545.1075,-163 545.1075,-163"/>
<polygon fill="#000000" stroke="#000000" points="545.1076,-159.5001 535.1075,-163 545.1075,-166.5001 545.1076,-159.5001"/>
</g>
<!-- DefaultOutputComponent -->
<g id="node3" class="node">
<title>DefaultOutputComponent</title>
<polygon fill="#ffffb3" stroke="#000000" points="795.1979,-122 632.8021,-122 632.8021,-86 795.1979,-86 795.1979,-122"/>
<text text-anchor="middle" x="714" y="-99.8" font-family="Times,serif" font-size="14.00" fill="#000000">DefaultOutputComponent</text>
</g>
<!-- DefaultOutputComponent&#45;&gt;FormModule -->
<g id="edge3" class="edge">
<title>DefaultOutputComponent&#45;&gt;FormModule</title>
<path fill="none" stroke="#000000" d="M651.2106,-122.2396C651.2106,-137.5706 651.2106,-157 651.2106,-157 651.2106,-157 544.9061,-157 544.9061,-157"/>
<polygon fill="#000000" stroke="#000000" points="544.9062,-153.5001 534.9061,-157 544.9061,-160.5001 544.9062,-153.5001"/>
</g>
<!-- SelectComponent -->
<g id="node4" class="node">
<title>SelectComponent</title>
<polygon fill="#ffffb3" stroke="#000000" points="614.5409,-122 499.4591,-122 499.4591,-86 614.5409,-86 614.5409,-122"/>
<text text-anchor="middle" x="557" y="-99.8" font-family="Times,serif" font-size="14.00" fill="#000000">SelectComponent</text>
</g>
<!-- SelectComponent&#45;&gt;FormModule -->
<g id="edge4" class="edge">
<title>SelectComponent&#45;&gt;FormModule</title>
<path fill="none" stroke="#000000" d="M517.0859,-122.1061C517.0859,-122.1061 517.0859,-140.991 517.0859,-140.991"/>
<polygon fill="#000000" stroke="#000000" points="513.586,-140.9909 517.0859,-150.991 520.586,-140.991 513.586,-140.9909"/>
</g>
<!-- VisibleFieldsPipe -->
<g id="node5" class="node">
<title>VisibleFieldsPipe</title>
<polygon fill="#ffffb3" stroke="#000000" points="480.5493,-122 365.4507,-122 365.4507,-86 480.5493,-86 480.5493,-122"/>
<text text-anchor="middle" x="423" y="-99.8" font-family="Times,serif" font-size="14.00" fill="#000000">VisibleFieldsPipe</text>
</g>
<!-- VisibleFieldsPipe&#45;&gt;FormModule -->
<g id="edge5" class="edge">
<title>VisibleFieldsPipe&#45;&gt;FormModule</title>
<path fill="none" stroke="#000000" d="M462.9162,-122.1061C462.9162,-122.1061 462.9162,-140.991 462.9162,-140.991"/>
<polygon fill="#000000" stroke="#000000" points="459.4163,-140.9909 462.9162,-150.991 466.4163,-140.991 459.4163,-140.9909"/>
</g>
<!-- FormComponent  -->
<g id="node9" class="node">
<title>FormComponent </title>
<polygon fill="#fb8072" stroke="#000000" points="802.6663,-252 687.3337,-252 687.3337,-216 802.6663,-216 802.6663,-252"/>
<text text-anchor="middle" x="745" y="-229.8" font-family="Times,serif" font-size="14.00" fill="#000000">FormComponent </text>
</g>
<!-- FormModule&#45;&gt;FormComponent  -->
<g id="edge8" class="edge">
<title>FormModule&#45;&gt;FormComponent </title>
<path fill="none" stroke="#000000" stroke-dasharray="5,2" d="M534.9199,-175C607.1906,-175 741.2579,-175 741.2579,-175 741.2579,-175 741.2579,-205.9775 741.2579,-205.9775"/>
<polygon fill="#000000" stroke="#000000" points="737.758,-205.9774 741.2579,-215.9775 744.758,-205.9775 737.758,-205.9774"/>
</g>
<!-- SelectComponent  -->
<g id="node10" class="node">
<title>SelectComponent </title>
<polygon fill="#fb8072" stroke="#000000" points="669.54,-252 550.46,-252 550.46,-216 669.54,-216 669.54,-252"/>
<text text-anchor="middle" x="610" y="-229.8" font-family="Times,serif" font-size="14.00" fill="#000000">SelectComponent </text>
</g>
<!-- FormModule&#45;&gt;SelectComponent  -->
<g id="edge9" class="edge">
<title>FormModule&#45;&gt;SelectComponent </title>
<path fill="none" stroke="#000000" stroke-dasharray="5,2" d="M534.9559,-181C558.5554,-181 582.625,-181 582.625,-181 582.625,-181 582.625,-205.7604 582.625,-205.7604"/>
<polygon fill="#000000" stroke="#000000" points="579.1251,-205.7604 582.625,-215.7604 586.1251,-205.7604 579.1251,-205.7604"/>
</g>
<!-- PopModule  -->
<g id="node11" class="node">
<title>PopModule </title>
<polygon fill="#fb8072" stroke="#000000" points="532.3326,-252 447.6674,-252 447.6674,-216 532.3326,-216 532.3326,-252"/>
<text text-anchor="middle" x="490" y="-229.8" font-family="Times,serif" font-size="14.00" fill="#000000">PopModule </text>
</g>
<!-- FormModule&#45;&gt;PopModule  -->
<g id="edge10" class="edge">
<title>FormModule&#45;&gt;PopModule </title>
<path fill="none" stroke="#000000" stroke-dasharray="5,2" d="M490,-187.1061C490,-187.1061 490,-205.991 490,-205.991"/>
<polygon fill="#000000" stroke="#000000" points="486.5001,-205.9909 490,-215.991 493.5001,-205.991 486.5001,-205.9909"/>
</g>
<!-- VisibleFieldsPipe  -->
<g id="node12" class="node">
<title>VisibleFieldsPipe </title>
<polygon fill="#fb8072" stroke="#000000" points="429.5484,-252 310.4516,-252 310.4516,-216 429.5484,-216 429.5484,-252"/>
<text text-anchor="middle" x="370" y="-229.8" font-family="Times,serif" font-size="14.00" fill="#000000">VisibleFieldsPipe </text>
</g>
<!-- FormModule&#45;&gt;VisibleFieldsPipe  -->
<g id="edge11" class="edge">
<title>FormModule&#45;&gt;VisibleFieldsPipe </title>
<path fill="none" stroke="#000000" stroke-dasharray="5,2" d="M445.0441,-181C421.4446,-181 397.375,-181 397.375,-181 397.375,-181 397.375,-205.7604 397.375,-205.7604"/>
<polygon fill="#000000" stroke="#000000" points="393.8751,-205.7604 397.375,-215.7604 400.8751,-205.7604 393.8751,-205.7604"/>
</g>
<!-- IoModule  -->
<g id="node13" class="node">
<title>IoModule </title>
<polygon fill="#fb8072" stroke="#000000" points="292.211,-252 217.789,-252 217.789,-216 292.211,-216 292.211,-252"/>
<text text-anchor="middle" x="255" y="-229.8" font-family="Times,serif" font-size="14.00" fill="#000000">IoModule </text>
</g>
<!-- FormModule&#45;&gt;IoModule  -->
<g id="edge12" class="edge">
<title>FormModule&#45;&gt;IoModule </title>
<path fill="none" stroke="#000000" stroke-dasharray="5,2" d="M445.106,-175C382.3087,-175 275.8445,-175 275.8445,-175 275.8445,-175 275.8445,-205.9775 275.8445,-205.9775"/>
<polygon fill="#000000" stroke="#000000" points="272.3446,-205.9774 275.8445,-215.9775 279.3446,-205.9775 272.3446,-205.9774"/>
</g>
<!-- PopModule -->
<g id="node7" class="node">
<title>PopModule</title>
<polygon fill="#8dd3c7" stroke="#000000" points="340.8331,-122 337.8331,-126 316.8331,-126 313.8331,-122 259.1669,-122 259.1669,-86 340.8331,-86 340.8331,-122"/>
<text text-anchor="middle" x="300" y="-99.8" font-family="Times,serif" font-size="14.00" fill="#000000">PopModule</text>
</g>
<!-- PopModule&#45;&gt;FormModule -->
<g id="edge6" class="edge">
<title>PopModule&#45;&gt;FormModule</title>
<path fill="none" stroke="#000000" d="M325.571,-122.2396C325.571,-137.5706 325.571,-157 325.571,-157 325.571,-157 435.0691,-157 435.0691,-157"/>
<polygon fill="#000000" stroke="#000000" points="435.0691,-160.5001 445.0691,-157 435.069,-153.5001 435.0691,-160.5001"/>
</g>
<!-- IoModule -->
<g id="node8" class="node">
<title>IoModule</title>
<polygon fill="#8dd3c7" stroke="#000000" points="241.7107,-122 238.7107,-126 217.7107,-126 214.7107,-122 170.2893,-122 170.2893,-86 241.7107,-86 241.7107,-122"/>
<text text-anchor="middle" x="206" y="-99.8" font-family="Times,serif" font-size="14.00" fill="#000000">IoModule</text>
</g>
<!-- IoModule&#45;&gt;FormModule -->
<g id="edge7" class="edge">
<title>IoModule&#45;&gt;FormModule</title>
<path fill="none" stroke="#000000" d="M229.625,-122.0225C229.625,-139.3734 229.625,-163 229.625,-163 229.625,-163 434.9434,-163 434.9434,-163"/>
<polygon fill="#000000" stroke="#000000" points="434.9434,-166.5001 444.9434,-163 434.9434,-159.5001 434.9434,-166.5001"/>
</g>
<!-- FormService -->
<g id="node14" class="node">
<title>FormService</title>
<ellipse fill="#fdb462" stroke="#000000" cx="85" cy="-104" rx="60.8313" ry="18"/>
<text text-anchor="middle" x="85" y="-99.8" font-family="Times,serif" font-size="14.00" fill="#000000">FormService</text>
</g>
<!-- FormService&#45;&gt;FormModule -->
<g id="edge13" class="edge">
<title>FormService&#45;&gt;FormModule</title>
<path fill="none" stroke="#000000" d="M85,-122.1061C85,-141.3391 85,-169 85,-169 85,-169 435.1105,-169 435.1105,-169"/>
<polygon fill="#000000" stroke="#000000" points="435.1105,-172.5001 445.1105,-169 435.1105,-165.5001 435.1105,-172.5001"/>
</g>
</g>
</svg>
