<?xml version="1.0" encoding="UTF-8" standalone="no"?>
<!DOCTYPE svg PUBLIC "-//W3C//DTD SVG 1.1//EN"
 "http://www.w3.org/Graphics/SVG/1.1/DTD/svg11.dtd">
<!-- Generated by graphviz version 2.40.1 (20161225.0304)
 -->
<!-- Title: dependencies Pages: 1 -->
<svg width="2441pt" height="284pt"
 viewBox="0.00 0.00 2441.00 284.00" xmlns="http://www.w3.org/2000/svg" xmlns:xlink="http://www.w3.org/1999/xlink">
<g id="graph0" class="graph" transform="scale(1 1) rotate(0) translate(4 280)">
<title>dependencies</title>
<polygon fill="#ffffff" stroke="transparent" points="-4,4 -4,-280 2437,-280 2437,4 -4,4"/>
<text text-anchor="start" x="1195.5091" y="-42.4" font-family="sans-serif" font-weight="bold" font-size="14.00" fill="#000000">Legend</text>
<polygon fill="#ffffb3" stroke="transparent" points="982.5,-10 982.5,-30 1002.5,-30 1002.5,-10 982.5,-10"/>
<text text-anchor="start" x="1006.129" y="-15.4" font-family="sans-serif" font-size="14.00" fill="#000000"> &#160;Declarations</text>
<polygon fill="#8dd3c7" stroke="transparent" points="1095.5,-10 1095.5,-30 1115.5,-30 1115.5,-10 1095.5,-10"/>
<text text-anchor="start" x="1119.2251" y="-15.4" font-family="sans-serif" font-size="14.00" fill="#000000"> &#160;Module</text>
<polygon fill="#80b1d3" stroke="transparent" points="1181.5,-10 1181.5,-30 1201.5,-30 1201.5,-10 1181.5,-10"/>
<text text-anchor="start" x="1205.2812" y="-15.4" font-family="sans-serif" font-size="14.00" fill="#000000"> &#160;Bootstrap</text>
<polygon fill="#fdb462" stroke="transparent" points="1278.5,-10 1278.5,-30 1298.5,-30 1298.5,-10 1278.5,-10"/>
<text text-anchor="start" x="1302.1732" y="-15.4" font-family="sans-serif" font-size="14.00" fill="#000000"> &#160;Providers</text>
<polygon fill="#fb8072" stroke="transparent" points="1374.5,-10 1374.5,-30 1394.5,-30 1394.5,-10 1374.5,-10"/>
<text text-anchor="start" x="1398.2258" y="-15.4" font-family="sans-serif" font-size="14.00" fill="#000000"> &#160;Exports</text>
<g id="clust1" class="cluster">
<title>cluster_FormModule</title>
<polygon fill="none" stroke="#000000" stroke-dasharray="1,5" points="8,-70 8,-268 2425,-268 2425,-70 8,-70"/>
</g>
<g id="clust2" class="cluster">
<title>cluster_FormModule_declarations</title>
<polygon fill="none" stroke="#000000" points="698,-78 698,-130 2417,-130 2417,-78 698,-78"/>
</g>
<g id="clust15" class="cluster">
<title>cluster_FormModule_imports</title>
<polygon fill="none" stroke="#000000" points="162,-78 162,-130 690,-130 690,-78 162,-78"/>
</g>
<g id="clust16" class="cluster">
<title>cluster_FormModule_exports</title>
<polygon fill="none" stroke="#000000" points="350,-208 350,-260 1952,-260 1952,-208 350,-208"/>
</g>
<g id="clust18" class="cluster">
<title>cluster_FormModule_providers</title>
<polygon fill="none" stroke="#000000" points="16,-78 16,-130 154,-130 154,-78 16,-78"/>
</g>
<!-- FormComponent -->
<g id="node1" class="node">
<title>FormComponent</title>
<polygon fill="#ffffb3" stroke="#000000" points="2408.6667,-122 2297.3333,-122 2297.3333,-86 2408.6667,-86 2408.6667,-122"/>
<text text-anchor="middle" x="2353" y="-99.8" font-family="Times,serif" font-size="14.00" fill="#000000">FormComponent</text>
</g>
<!-- FormModule -->
<g id="node13" class="node">
<title>FormModule</title>
<polygon fill="#8dd3c7" stroke="#000000" points="1133.8837,-187 1130.8837,-191 1109.8837,-191 1106.8837,-187 1044.1163,-187 1044.1163,-151 1133.8837,-151 1133.8837,-187"/>
<text text-anchor="middle" x="1089" y="-164.8" font-family="Times,serif" font-size="14.00" fill="#000000">FormModule</text>
</g>
<!-- FormComponent&#45;&gt;FormModule -->
<g id="edge1" class="edge">
<title>FormComponent&#45;&gt;FormModule</title>
<path fill="none" stroke="#000000" d="M2353,-122.2228C2353,-142.3652 2353,-172 2353,-172 2353,-172 1143.9864,-172 1143.9864,-172"/>
<polygon fill="#000000" stroke="#000000" points="1143.9865,-168.5001 1133.9864,-172 1143.9864,-175.5001 1143.9865,-168.5001"/>
</g>
<!-- DefaultInputComponent -->
<g id="node2" class="node">
<title>DefaultInputComponent</title>
<polygon fill="#ffffb3" stroke="#000000" points="2279.3613,-122 2126.6387,-122 2126.6387,-86 2279.3613,-86 2279.3613,-122"/>
<text text-anchor="middle" x="2203" y="-99.8" font-family="Times,serif" font-size="14.00" fill="#000000">DefaultInputComponent</text>
</g>
<!-- DefaultInputComponent&#45;&gt;FormModule -->
<g id="edge2" class="edge">
<title>DefaultInputComponent&#45;&gt;FormModule</title>
<path fill="none" stroke="#000000" d="M2203,-122.1061C2203,-141.3391 2203,-169 2203,-169 2203,-169 1144.0499,-169 1144.0499,-169"/>
<polygon fill="#000000" stroke="#000000" points="1144.0499,-165.5001 1134.0499,-169 1144.0498,-172.5001 1144.0499,-165.5001"/>
</g>
<!-- DefaultOutputComponent -->
<g id="node3" class="node">
<title>DefaultOutputComponent</title>
<polygon fill="#ffffb3" stroke="#000000" points="2108.1979,-122 1945.8021,-122 1945.8021,-86 2108.1979,-86 2108.1979,-122"/>
<text text-anchor="middle" x="2027" y="-99.8" font-family="Times,serif" font-size="14.00" fill="#000000">DefaultOutputComponent</text>
</g>
<!-- DefaultOutputComponent&#45;&gt;FormModule -->
<g id="edge3" class="edge">
<title>DefaultOutputComponent&#45;&gt;FormModule</title>
<path fill="none" stroke="#000000" d="M2027,-122.2222C2027,-140.8285 2027,-167 2027,-167 2027,-167 1143.9257,-167 1143.9257,-167"/>
<polygon fill="#000000" stroke="#000000" points="1143.9257,-163.5001 1133.9257,-167 1143.9256,-170.5001 1143.9257,-163.5001"/>
</g>
<!-- DatetimeComponent -->
<g id="node4" class="node">
<title>DatetimeComponent</title>
<polygon fill="#ffffb3" stroke="#000000" points="1928.1457,-122 1795.8543,-122 1795.8543,-86 1928.1457,-86 1928.1457,-122"/>
<text text-anchor="middle" x="1862" y="-99.8" font-family="Times,serif" font-size="14.00" fill="#000000">DatetimeComponent</text>
</g>
<!-- DatetimeComponent&#45;&gt;FormModule -->
<g id="edge4" class="edge">
<title>DatetimeComponent&#45;&gt;FormModule</title>
<path fill="none" stroke="#000000" d="M1802.875,-122.002C1802.875,-139.6754 1802.875,-164 1802.875,-164 1802.875,-164 1143.9265,-164 1143.9265,-164"/>
<polygon fill="#000000" stroke="#000000" points="1143.9265,-160.5001 1133.9265,-164 1143.9265,-167.5001 1143.9265,-160.5001"/>
</g>
<!-- DatetimePipe -->
<g id="node5" class="node">
<title>DatetimePipe</title>
<polygon fill="#ffffb3" stroke="#000000" points="1778.2008,-122 1685.7992,-122 1685.7992,-86 1778.2008,-86 1778.2008,-122"/>
<text text-anchor="middle" x="1732" y="-99.8" font-family="Times,serif" font-size="14.00" fill="#000000">DatetimePipe</text>
</g>
<!-- DatetimePipe&#45;&gt;FormModule -->
<g id="edge5" class="edge">
<title>DatetimePipe&#45;&gt;FormModule</title>
<path fill="none" stroke="#000000" d="M1732,-122.0336C1732,-139.0597 1732,-162 1732,-162 1732,-162 1143.9589,-162 1143.9589,-162"/>
<polygon fill="#000000" stroke="#000000" points="1143.959,-158.5001 1133.9589,-162 1143.9589,-165.5001 1143.959,-158.5001"/>
</g>
<!-- MonthComponent -->
<g id="node6" class="node">
<title>MonthComponent</title>
<polygon fill="#ffffb3" stroke="#000000" points="1668.1681,-122 1549.8319,-122 1549.8319,-86 1668.1681,-86 1668.1681,-122"/>
<text text-anchor="middle" x="1609" y="-99.8" font-family="Times,serif" font-size="14.00" fill="#000000">MonthComponent</text>
</g>
<!-- MonthComponent&#45;&gt;FormModule -->
<g id="edge6" class="edge">
<title>MonthComponent&#45;&gt;FormModule</title>
<path fill="none" stroke="#000000" d="M1554.9079,-122.0091C1554.9079,-138.0494 1554.9079,-159 1554.9079,-159 1554.9079,-159 1144.0965,-159 1144.0965,-159"/>
<polygon fill="#000000" stroke="#000000" points="1144.0966,-155.5001 1134.0965,-159 1144.0965,-162.5001 1144.0966,-155.5001"/>
</g>
<!-- HeatmapComponent -->
<g id="node7" class="node">
<title>HeatmapComponent</title>
<polygon fill="#ffffb3" stroke="#000000" points="1531.8641,-122 1400.1359,-122 1400.1359,-86 1531.8641,-86 1531.8641,-122"/>
<text text-anchor="middle" x="1466" y="-99.8" font-family="Times,serif" font-size="14.00" fill="#000000">HeatmapComponent</text>
</g>
<!-- HeatmapComponent&#45;&gt;FormModule -->
<g id="edge7" class="edge">
<title>HeatmapComponent&#45;&gt;FormModule</title>
<path fill="none" stroke="#000000" d="M1490.0607,-122.2396C1490.0607,-137.5706 1490.0607,-157 1490.0607,-157 1490.0607,-157 1144.2271,-157 1144.2271,-157"/>
<polygon fill="#000000" stroke="#000000" points="1144.2272,-153.5001 1134.2271,-157 1144.2271,-160.5001 1144.2272,-153.5001"/>
</g>
<!-- DaterangeComponent -->
<g id="node8" class="node">
<title>DaterangeComponent</title>
<polygon fill="#ffffb3" stroke="#000000" points="1382.3487,-122 1243.6513,-122 1243.6513,-86 1382.3487,-86 1382.3487,-122"/>
<text text-anchor="middle" x="1313" y="-99.8" font-family="Times,serif" font-size="14.00" fill="#000000">DaterangeComponent</text>
</g>
<!-- DaterangeComponent&#45;&gt;FormModule -->
<g id="edge8" class="edge">
<title>DaterangeComponent&#45;&gt;FormModule</title>
<path fill="none" stroke="#000000" d="M1248.4469,-122.0511C1248.4469,-136.373 1248.4469,-154 1248.4469,-154 1248.4469,-154 1144.2646,-154 1144.2646,-154"/>
<polygon fill="#000000" stroke="#000000" points="1144.2646,-150.5001 1134.2646,-154 1144.2645,-157.5001 1144.2646,-150.5001"/>
</g>
<!-- CalendarComponent -->
<g id="node9" class="node">
<title>CalendarComponent</title>
<polygon fill="#ffffb3" stroke="#000000" points="1225.8641,-122 1094.1359,-122 1094.1359,-86 1225.8641,-86 1225.8641,-122"/>
<text text-anchor="middle" x="1160" y="-99.8" font-family="Times,serif" font-size="14.00" fill="#000000">CalendarComponent</text>
</g>
<!-- CalendarComponent&#45;&gt;FormModule -->
<g id="edge9" class="edge">
<title>CalendarComponent&#45;&gt;FormModule</title>
<path fill="none" stroke="#000000" d="M1114.0049,-122.1061C1114.0049,-122.1061 1114.0049,-140.991 1114.0049,-140.991"/>
<polygon fill="#000000" stroke="#000000" points="1110.505,-140.9909 1114.0049,-150.991 1117.505,-140.991 1110.505,-140.9909"/>
</g>
<!-- VisibleFieldsPipe -->
<g id="node10" class="node">
<title>VisibleFieldsPipe</title>
<polygon fill="#ffffb3" stroke="#000000" points="1075.5493,-122 960.4507,-122 960.4507,-86 1075.5493,-86 1075.5493,-122"/>
<text text-anchor="middle" x="1018" y="-99.8" font-family="Times,serif" font-size="14.00" fill="#000000">VisibleFieldsPipe</text>
</g>
<!-- VisibleFieldsPipe&#45;&gt;FormModule -->
<g id="edge10" class="edge">
<title>VisibleFieldsPipe&#45;&gt;FormModule</title>
<path fill="none" stroke="#000000" d="M1059.9162,-122.1061C1059.9162,-122.1061 1059.9162,-140.991 1059.9162,-140.991"/>
<polygon fill="#000000" stroke="#000000" points="1056.4163,-140.9909 1059.9162,-150.991 1063.4163,-140.991 1056.4163,-140.9909"/>
</g>
<!-- MaxItemsPipe -->
<g id="node11" class="node">
<title>MaxItemsPipe</title>
<polygon fill="#ffffb3" stroke="#000000" points="941.6486,-122 844.3514,-122 844.3514,-86 941.6486,-86 941.6486,-122"/>
<text text-anchor="middle" x="893" y="-99.8" font-family="Times,serif" font-size="14.00" fill="#000000">MaxItemsPipe</text>
</g>
<!-- MaxItemsPipe&#45;&gt;FormModule -->
<g id="edge11" class="edge">
<title>MaxItemsPipe&#45;&gt;FormModule</title>
<path fill="none" stroke="#000000" d="M938.1201,-122.0511C938.1201,-136.373 938.1201,-154 938.1201,-154 938.1201,-154 1033.7311,-154 1033.7311,-154"/>
<polygon fill="#000000" stroke="#000000" points="1033.7311,-157.5001 1043.7311,-154 1033.731,-150.5001 1033.7311,-157.5001"/>
</g>
<!-- ToggleComponent -->
<g id="node12" class="node">
<title>ToggleComponent</title>
<polygon fill="#ffffb3" stroke="#000000" points="826.4902,-122 705.5098,-122 705.5098,-86 826.4902,-86 826.4902,-122"/>
<text text-anchor="middle" x="766" y="-99.8" font-family="Times,serif" font-size="14.00" fill="#000000">ToggleComponent</text>
</g>
<!-- ToggleComponent&#45;&gt;FormModule -->
<g id="edge12" class="edge">
<title>ToggleComponent&#45;&gt;FormModule</title>
<path fill="none" stroke="#000000" d="M750.4822,-122.2396C750.4822,-137.5706 750.4822,-157 750.4822,-157 750.4822,-157 1034.0475,-157 1034.0475,-157"/>
<polygon fill="#000000" stroke="#000000" points="1034.0475,-160.5001 1044.0475,-157 1034.0474,-153.5001 1034.0475,-160.5001"/>
</g>
<!-- FormComponent  -->
<g id="node19" class="node">
<title>FormComponent </title>
<polygon fill="#fb8072" stroke="#000000" points="1943.6663,-252 1828.3337,-252 1828.3337,-216 1943.6663,-216 1943.6663,-252"/>
<text text-anchor="middle" x="1886" y="-229.8" font-family="Times,serif" font-size="14.00" fill="#000000">FormComponent </text>
</g>
<!-- FormModule&#45;&gt;FormComponent  -->
<g id="edge18" class="edge">
<title>FormModule&#45;&gt;FormComponent </title>
<path fill="none" stroke="#000000" stroke-dasharray="5,2" d="M1133.988,-175C1301.3471,-175 1878.3698,-175 1878.3698,-175 1878.3698,-175 1878.3698,-205.9775 1878.3698,-205.9775"/>
<polygon fill="#000000" stroke="#000000" points="1874.8698,-205.9774 1878.3698,-215.9775 1881.8698,-205.9775 1874.8698,-205.9774"/>
</g>
<!-- DatetimeComponent  -->
<g id="node20" class="node">
<title>DatetimeComponent </title>
<polygon fill="#fb8072" stroke="#000000" points="1810.1453,-252 1673.8547,-252 1673.8547,-216 1810.1453,-216 1810.1453,-252"/>
<text text-anchor="middle" x="1742" y="-229.8" font-family="Times,serif" font-size="14.00" fill="#000000">DatetimeComponent </text>
</g>
<!-- FormModule&#45;&gt;DatetimeComponent  -->
<g id="edge19" class="edge">
<title>FormModule&#45;&gt;DatetimeComponent </title>
<path fill="none" stroke="#000000" stroke-dasharray="5,2" d="M1133.8996,-177C1271.798,-177 1679.9136,-177 1679.9136,-177 1679.9136,-177 1679.9136,-205.9648 1679.9136,-205.9648"/>
<polygon fill="#000000" stroke="#000000" points="1676.4136,-205.9648 1679.9136,-215.9648 1683.4136,-205.9649 1676.4136,-205.9648"/>
</g>
<!-- DatetimePipe  -->
<g id="node21" class="node">
<title>DatetimePipe </title>
<polygon fill="#fb8072" stroke="#000000" points="1655.7011,-252 1560.2989,-252 1560.2989,-216 1655.7011,-216 1655.7011,-252"/>
<text text-anchor="middle" x="1608" y="-229.8" font-family="Times,serif" font-size="14.00" fill="#000000">DatetimePipe </text>
</g>
<!-- FormModule&#45;&gt;DatetimePipe  -->
<g id="edge20" class="edge">
<title>FormModule&#45;&gt;DatetimePipe </title>
<path fill="none" stroke="#000000" stroke-dasharray="5,2" d="M1134.1499,-180C1260.4194,-180 1608,-180 1608,-180 1608,-180 1608,-205.7181 1608,-205.7181"/>
<polygon fill="#000000" stroke="#000000" points="1604.5001,-205.718 1608,-215.7181 1611.5001,-205.7181 1604.5001,-205.718"/>
</g>
<!-- CalendarComponent  -->
<g id="node22" class="node">
<title>CalendarComponent </title>
<polygon fill="#fb8072" stroke="#000000" points="1541.8645,-252 1406.1355,-252 1406.1355,-216 1541.8645,-216 1541.8645,-252"/>
<text text-anchor="middle" x="1474" y="-229.8" font-family="Times,serif" font-size="14.00" fill="#000000">CalendarComponent </text>
</g>
<!-- FormModule&#45;&gt;CalendarComponent  -->
<g id="edge21" class="edge">
<title>FormModule&#45;&gt;CalendarComponent </title>
<path fill="none" stroke="#000000" stroke-dasharray="5,2" d="M1134.1279,-182C1230.5987,-182 1448.1893,-182 1448.1893,-182 1448.1893,-182 1448.1893,-205.8129 1448.1893,-205.8129"/>
<polygon fill="#000000" stroke="#000000" points="1444.6894,-205.8129 1448.1893,-215.8129 1451.6894,-205.813 1444.6894,-205.8129"/>
</g>
<!-- HeatmapComponent  -->
<g id="node23" class="node">
<title>HeatmapComponent </title>
<polygon fill="#fb8072" stroke="#000000" points="1388.8645,-252 1253.1355,-252 1253.1355,-216 1388.8645,-216 1388.8645,-252"/>
<text text-anchor="middle" x="1321" y="-229.8" font-family="Times,serif" font-size="14.00" fill="#000000">HeatmapComponent </text>
</g>
<!-- FormModule&#45;&gt;HeatmapComponent  -->
<g id="edge22" class="edge">
<title>FormModule&#45;&gt;HeatmapComponent </title>
<path fill="none" stroke="#000000" stroke-dasharray="5,2" d="M1133.9445,-185C1200.5979,-185 1317.8712,-185 1317.8712,-185 1317.8712,-185 1317.8712,-205.7542 1317.8712,-205.7542"/>
<polygon fill="#000000" stroke="#000000" points="1314.3712,-205.7542 1317.8712,-215.7542 1321.3712,-205.7542 1314.3712,-205.7542"/>
</g>
<!-- DaterangeComponent  -->
<g id="node24" class="node">
<title>DaterangeComponent </title>
<polygon fill="#fb8072" stroke="#000000" points="1235.349,-252 1092.651,-252 1092.651,-216 1235.349,-216 1235.349,-252"/>
<text text-anchor="middle" x="1164" y="-229.8" font-family="Times,serif" font-size="14.00" fill="#000000">DaterangeComponent </text>
</g>
<!-- FormModule&#45;&gt;DaterangeComponent  -->
<g id="edge23" class="edge">
<title>FormModule&#45;&gt;DaterangeComponent </title>
<path fill="none" stroke="#000000" stroke-dasharray="5,2" d="M1113.3838,-187.1061C1113.3838,-187.1061 1113.3838,-205.991 1113.3838,-205.991"/>
<polygon fill="#000000" stroke="#000000" points="1109.8838,-205.9909 1113.3838,-215.991 1116.8838,-205.991 1109.8838,-205.9909"/>
</g>
<!-- MonthComponent  -->
<g id="node25" class="node">
<title>MonthComponent </title>
<polygon fill="#fb8072" stroke="#000000" points="1075.1677,-252 952.8323,-252 952.8323,-216 1075.1677,-216 1075.1677,-252"/>
<text text-anchor="middle" x="1014" y="-229.8" font-family="Times,serif" font-size="14.00" fill="#000000">MonthComponent </text>
</g>
<!-- FormModule&#45;&gt;MonthComponent  -->
<g id="edge24" class="edge">
<title>FormModule&#45;&gt;MonthComponent </title>
<path fill="none" stroke="#000000" stroke-dasharray="5,2" d="M1059.571,-187.1061C1059.571,-187.1061 1059.571,-205.991 1059.571,-205.991"/>
<polygon fill="#000000" stroke="#000000" points="1056.0711,-205.9909 1059.571,-215.991 1063.0711,-205.991 1056.0711,-205.9909"/>
</g>
<!-- PopModule  -->
<g id="node26" class="node">
<title>PopModule </title>
<polygon fill="#fb8072" stroke="#000000" points="934.3326,-252 849.6674,-252 849.6674,-216 934.3326,-216 934.3326,-252"/>
<text text-anchor="middle" x="892" y="-229.8" font-family="Times,serif" font-size="14.00" fill="#000000">PopModule </text>
</g>
<!-- FormModule&#45;&gt;PopModule  -->
<g id="edge25" class="edge">
<title>FormModule&#45;&gt;PopModule </title>
<path fill="none" stroke="#000000" stroke-dasharray="5,2" d="M1043.8042,-185C985.6431,-185 892,-185 892,-185 892,-185 892,-205.7542 892,-205.7542"/>
<polygon fill="#000000" stroke="#000000" points="888.5001,-205.7542 892,-215.7542 895.5001,-205.7542 888.5001,-205.7542"/>
</g>
<!-- VisibleFieldsPipe  -->
<g id="node27" class="node">
<title>VisibleFieldsPipe </title>
<polygon fill="#fb8072" stroke="#000000" points="831.5484,-252 712.4516,-252 712.4516,-216 831.5484,-216 831.5484,-252"/>
<text text-anchor="middle" x="772" y="-229.8" font-family="Times,serif" font-size="14.00" fill="#000000">VisibleFieldsPipe </text>
</g>
<!-- FormModule&#45;&gt;VisibleFieldsPipe  -->
<g id="edge26" class="edge">
<title>FormModule&#45;&gt;VisibleFieldsPipe </title>
<path fill="none" stroke="#000000" stroke-dasharray="5,2" d="M1044.0104,-182C960.1778,-182 788.4887,-182 788.4887,-182 788.4887,-182 788.4887,-205.8129 788.4887,-205.8129"/>
<polygon fill="#000000" stroke="#000000" points="784.9888,-205.8129 788.4887,-215.8129 791.9888,-205.813 784.9888,-205.8129"/>
</g>
<!-- MaxItemsPipe  -->
<g id="node28" class="node">
<title>MaxItemsPipe </title>
<polygon fill="#fb8072" stroke="#000000" points="694.6481,-252 593.3519,-252 593.3519,-216 694.6481,-216 694.6481,-252"/>
<text text-anchor="middle" x="644" y="-229.8" font-family="Times,serif" font-size="14.00" fill="#000000">MaxItemsPipe </text>
</g>
<!-- FormModule&#45;&gt;MaxItemsPipe  -->
<g id="edge27" class="edge">
<title>FormModule&#45;&gt;MaxItemsPipe </title>
<path fill="none" stroke="#000000" stroke-dasharray="5,2" d="M1043.7932,-180C938.9529,-180 688.1201,-180 688.1201,-180 688.1201,-180 688.1201,-205.7181 688.1201,-205.7181"/>
<polygon fill="#000000" stroke="#000000" points="684.6202,-205.718 688.1201,-215.7181 691.6202,-205.7181 684.6202,-205.718"/>
</g>
<!-- IoModule  -->
<g id="node29" class="node">
<title>IoModule </title>
<polygon fill="#fb8072" stroke="#000000" points="575.211,-252 500.789,-252 500.789,-216 575.211,-216 575.211,-252"/>
<text text-anchor="middle" x="538" y="-229.8" font-family="Times,serif" font-size="14.00" fill="#000000">IoModule </text>
</g>
<!-- FormModule&#45;&gt;IoModule  -->
<g id="edge28" class="edge">
<title>FormModule&#45;&gt;IoModule </title>
<path fill="none" stroke="#000000" stroke-dasharray="5,2" d="M1043.885,-177C913.1602,-177 543.375,-177 543.375,-177 543.375,-177 543.375,-205.9648 543.375,-205.9648"/>
<polygon fill="#000000" stroke="#000000" points="539.8751,-205.9648 543.375,-215.9648 546.8751,-205.9649 539.8751,-205.9648"/>
</g>
<!-- ToggleComponent  -->
<g id="node30" class="node">
<title>ToggleComponent </title>
<polygon fill="#fb8072" stroke="#000000" points="482.4912,-252 357.5088,-252 357.5088,-216 482.4912,-216 482.4912,-252"/>
<text text-anchor="middle" x="420" y="-229.8" font-family="Times,serif" font-size="14.00" fill="#000000">ToggleComponent </text>
</g>
<!-- FormModule&#45;&gt;ToggleComponent  -->
<g id="edge29" class="edge">
<title>FormModule&#45;&gt;ToggleComponent </title>
<path fill="none" stroke="#000000" stroke-dasharray="5,2" d="M1044.0197,-175C896.7368,-175 438.3245,-175 438.3245,-175 438.3245,-175 438.3245,-205.9775 438.3245,-205.9775"/>
<polygon fill="#000000" stroke="#000000" points="434.8244,-205.9775 438.3245,-215.9775 441.8244,-205.9774 434.8244,-205.9775"/>
</g>
<!-- PopModule -->
<g id="node14" class="node">
<title>PopModule</title>
<polygon fill="#8dd3c7" stroke="#000000" points="681.8331,-122 678.8331,-126 657.8331,-126 654.8331,-122 600.1669,-122 600.1669,-86 681.8331,-86 681.8331,-122"/>
<text text-anchor="middle" x="641" y="-99.8" font-family="Times,serif" font-size="14.00" fill="#000000">PopModule</text>
</g>
<!-- PopModule&#45;&gt;FormModule -->
<g id="edge13" class="edge">
<title>PopModule&#45;&gt;FormModule</title>
<path fill="none" stroke="#000000" d="M641,-122.0091C641,-138.0494 641,-159 641,-159 641,-159 1033.9928,-159 1033.9928,-159"/>
<polygon fill="#000000" stroke="#000000" points="1033.9929,-162.5001 1043.9928,-159 1033.9928,-155.5001 1033.9929,-162.5001"/>
</g>
<!-- IoModule -->
<g id="node15" class="node">
<title>IoModule</title>
<polygon fill="#8dd3c7" stroke="#000000" points="582.7107,-122 579.7107,-126 558.7107,-126 555.7107,-122 511.2893,-122 511.2893,-86 582.7107,-86 582.7107,-122"/>
<text text-anchor="middle" x="547" y="-99.8" font-family="Times,serif" font-size="14.00" fill="#000000">IoModule</text>
</g>
<!-- IoModule&#45;&gt;FormModule -->
<g id="edge14" class="edge">
<title>IoModule&#45;&gt;FormModule</title>
<path fill="none" stroke="#000000" d="M578.9802,-122.0336C578.9802,-139.0597 578.9802,-162 578.9802,-162 578.9802,-162 1033.7391,-162 1033.7391,-162"/>
<polygon fill="#000000" stroke="#000000" points="1033.7392,-165.5001 1043.7391,-162 1033.7391,-158.5001 1033.7392,-165.5001"/>
</g>
<!-- LoaderModule -->
<g id="node16" class="node">
<title>LoaderModule</title>
<polygon fill="#8dd3c7" stroke="#000000" points="493.6924,-122 490.6924,-126 469.6924,-126 466.6924,-122 394.3076,-122 394.3076,-86 493.6924,-86 493.6924,-122"/>
<text text-anchor="middle" x="444" y="-99.8" font-family="Times,serif" font-size="14.00" fill="#000000">LoaderModule</text>
</g>
<!-- LoaderModule&#45;&gt;FormModule -->
<g id="edge15" class="edge">
<title>LoaderModule&#45;&gt;FormModule</title>
<path fill="none" stroke="#000000" d="M487.9206,-122.002C487.9206,-139.6754 487.9206,-164 487.9206,-164 487.9206,-164 1033.8214,-164 1033.8214,-164"/>
<polygon fill="#000000" stroke="#000000" points="1033.8214,-167.5001 1043.8214,-164 1033.8213,-160.5001 1033.8214,-167.5001"/>
</g>
<!-- IconModule -->
<g id="node17" class="node">
<title>IconModule</title>
<polygon fill="#8dd3c7" stroke="#000000" points="376.4261,-122 373.4261,-126 352.4261,-126 349.4261,-122 291.5739,-122 291.5739,-86 376.4261,-86 376.4261,-122"/>
<text text-anchor="middle" x="334" y="-99.8" font-family="Times,serif" font-size="14.00" fill="#000000">IconModule</text>
</g>
<!-- IconModule&#45;&gt;FormModule -->
<g id="edge16" class="edge">
<title>IconModule&#45;&gt;FormModule</title>
<path fill="none" stroke="#000000" d="M366.9837,-122.2222C366.9837,-140.8285 366.9837,-167 366.9837,-167 366.9837,-167 1034.1074,-167 1034.1074,-167"/>
<polygon fill="#000000" stroke="#000000" points="1034.1075,-170.5001 1044.1074,-167 1034.1074,-163.5001 1034.1075,-170.5001"/>
</g>
<!-- SymbolModule -->
<g id="node18" class="node">
<title>SymbolModule</title>
<polygon fill="#8dd3c7" stroke="#000000" points="273.6137,-122 270.6137,-126 249.6137,-126 246.6137,-122 170.3863,-122 170.3863,-86 273.6137,-86 273.6137,-122"/>
<text text-anchor="middle" x="222" y="-99.8" font-family="Times,serif" font-size="14.00" fill="#000000">SymbolModule</text>
</g>
<!-- SymbolModule&#45;&gt;FormModule -->
<g id="edge17" class="edge">
<title>SymbolModule&#45;&gt;FormModule</title>
<path fill="none" stroke="#000000" d="M222,-122.1061C222,-141.3391 222,-169 222,-169 222,-169 1033.91,-169 1033.91,-169"/>
<polygon fill="#000000" stroke="#000000" points="1033.91,-172.5001 1043.91,-169 1033.9099,-165.5001 1033.91,-172.5001"/>
</g>
<!-- FormService -->
<g id="node31" class="node">
<title>FormService</title>
<ellipse fill="#fdb462" stroke="#000000" cx="85" cy="-104" rx="60.8313" ry="18"/>
<text text-anchor="middle" x="85" y="-99.8" font-family="Times,serif" font-size="14.00" fill="#000000">FormService</text>
</g>
<!-- FormService&#45;&gt;FormModule -->
<g id="edge30" class="edge">
<title>FormService&#45;&gt;FormModule</title>
<path fill="none" stroke="#000000" d="M85,-122.2228C85,-142.3652 85,-172 85,-172 85,-172 1033.9097,-172 1033.9097,-172"/>
<polygon fill="#000000" stroke="#000000" points="1033.9098,-175.5001 1043.9097,-172 1033.9097,-168.5001 1033.9098,-175.5001"/>
</g>
</g>
</svg>
