<?xml version="1.0" encoding="UTF-8" standalone="no"?>
<!DOCTYPE svg PUBLIC "-//W3C//DTD SVG 1.1//EN"
 "http://www.w3.org/Graphics/SVG/1.1/DTD/svg11.dtd">
<!-- Generated by graphviz version 2.40.1 (20161225.0304)
 -->
<!-- Title: dependencies Pages: 1 -->
<svg width="2135pt" height="284pt"
 viewBox="0.00 0.00 2135.00 284.00" xmlns="http://www.w3.org/2000/svg" xmlns:xlink="http://www.w3.org/1999/xlink">
<g id="graph0" class="graph" transform="scale(1 1) rotate(0) translate(4 280)">
<title>dependencies</title>
<polygon fill="#ffffff" stroke="transparent" points="-4,4 -4,-280 2131,-280 2131,4 -4,4"/>
<text text-anchor="start" x="1042.5091" y="-42.4" font-family="sans-serif" font-weight="bold" font-size="14.00" fill="#000000">Legend</text>
<polygon fill="#ffffb3" stroke="transparent" points="829.5,-10 829.5,-30 849.5,-30 849.5,-10 829.5,-10"/>
<text text-anchor="start" x="853.129" y="-15.4" font-family="sans-serif" font-size="14.00" fill="#000000"> &#160;Declarations</text>
<polygon fill="#8dd3c7" stroke="transparent" points="942.5,-10 942.5,-30 962.5,-30 962.5,-10 942.5,-10"/>
<text text-anchor="start" x="966.2251" y="-15.4" font-family="sans-serif" font-size="14.00" fill="#000000"> &#160;Module</text>
<polygon fill="#80b1d3" stroke="transparent" points="1028.5,-10 1028.5,-30 1048.5,-30 1048.5,-10 1028.5,-10"/>
<text text-anchor="start" x="1052.2812" y="-15.4" font-family="sans-serif" font-size="14.00" fill="#000000"> &#160;Bootstrap</text>
<polygon fill="#fdb462" stroke="transparent" points="1125.5,-10 1125.5,-30 1145.5,-30 1145.5,-10 1125.5,-10"/>
<text text-anchor="start" x="1149.1732" y="-15.4" font-family="sans-serif" font-size="14.00" fill="#000000"> &#160;Providers</text>
<polygon fill="#fb8072" stroke="transparent" points="1221.5,-10 1221.5,-30 1241.5,-30 1241.5,-10 1221.5,-10"/>
<text text-anchor="start" x="1245.2258" y="-15.4" font-family="sans-serif" font-size="14.00" fill="#000000"> &#160;Exports</text>
<g id="clust1" class="cluster">
<title>cluster_FormModule</title>
<polygon fill="none" stroke="#000000" stroke-dasharray="1,5" points="8,-70 8,-268 2119,-268 2119,-70 8,-70"/>
</g>
<g id="clust2" class="cluster">
<title>cluster_FormModule_declarations</title>
<polygon fill="none" stroke="#000000" points="698,-78 698,-130 2111,-130 2111,-78 698,-78"/>
</g>
<g id="clust13" class="cluster">
<title>cluster_FormModule_imports</title>
<polygon fill="none" stroke="#000000" points="162,-78 162,-130 690,-130 690,-78 162,-78"/>
</g>
<g id="clust14" class="cluster">
<title>cluster_FormModule_exports</title>
<polygon fill="none" stroke="#000000" points="352,-208 352,-260 1641,-260 1641,-208 352,-208"/>
</g>
<g id="clust16" class="cluster">
<title>cluster_FormModule_providers</title>
<polygon fill="none" stroke="#000000" points="16,-78 16,-130 154,-130 154,-78 16,-78"/>
</g>
<!-- FormComponent -->
<g id="node1" class="node">
<title>FormComponent</title>
<polygon fill="#ffffb3" stroke="#000000" points="2102.6667,-122 1991.3333,-122 1991.3333,-86 2102.6667,-86 2102.6667,-122"/>
<text text-anchor="middle" x="2047" y="-99.8" font-family="Times,serif" font-size="14.00" fill="#000000">FormComponent</text>
</g>
<!-- FormModule -->
<g id="node11" class="node">
<title>FormModule</title>
<polygon fill="#8dd3c7" stroke="#000000" points="999.8837,-187 996.8837,-191 975.8837,-191 972.8837,-187 910.1163,-187 910.1163,-151 999.8837,-151 999.8837,-187"/>
<text text-anchor="middle" x="955" y="-164.8" font-family="Times,serif" font-size="14.00" fill="#000000">FormModule</text>
</g>
<!-- FormComponent&#45;&gt;FormModule -->
<g id="edge1" class="edge">
<title>FormComponent&#45;&gt;FormModule</title>
<path fill="none" stroke="#000000" d="M2047,-122.2228C2047,-142.3652 2047,-172 2047,-172 2047,-172 1010.187,-172 1010.187,-172"/>
<polygon fill="#000000" stroke="#000000" points="1010.187,-168.5001 1000.187,-172 1010.1869,-175.5001 1010.187,-168.5001"/>
</g>
<!-- DefaultInputComponent -->
<g id="node2" class="node">
<title>DefaultInputComponent</title>
<polygon fill="#ffffb3" stroke="#000000" points="1973.3613,-122 1820.6387,-122 1820.6387,-86 1973.3613,-86 1973.3613,-122"/>
<text text-anchor="middle" x="1897" y="-99.8" font-family="Times,serif" font-size="14.00" fill="#000000">DefaultInputComponent</text>
</g>
<!-- DefaultInputComponent&#45;&gt;FormModule -->
<g id="edge2" class="edge">
<title>DefaultInputComponent&#45;&gt;FormModule</title>
<path fill="none" stroke="#000000" d="M1897,-122.1061C1897,-141.3391 1897,-169 1897,-169 1897,-169 1010.1173,-169 1010.1173,-169"/>
<polygon fill="#000000" stroke="#000000" points="1010.1173,-165.5001 1000.1173,-169 1010.1172,-172.5001 1010.1173,-165.5001"/>
</g>
<!-- DefaultOutputComponent -->
<g id="node3" class="node">
<title>DefaultOutputComponent</title>
<polygon fill="#ffffb3" stroke="#000000" points="1802.1979,-122 1639.8021,-122 1639.8021,-86 1802.1979,-86 1802.1979,-122"/>
<text text-anchor="middle" x="1721" y="-99.8" font-family="Times,serif" font-size="14.00" fill="#000000">DefaultOutputComponent</text>
</g>
<!-- DefaultOutputComponent&#45;&gt;FormModule -->
<g id="edge3" class="edge">
<title>DefaultOutputComponent&#45;&gt;FormModule</title>
<path fill="none" stroke="#000000" d="M1721,-122.2667C1721,-140.5552 1721,-166 1721,-166 1721,-166 1010.057,-166 1010.057,-166"/>
<polygon fill="#000000" stroke="#000000" points="1010.0571,-162.5001 1000.057,-166 1010.057,-169.5001 1010.0571,-162.5001"/>
</g>
<!-- DatetimeComponent -->
<g id="node4" class="node">
<title>DatetimeComponent</title>
<polygon fill="#ffffb3" stroke="#000000" points="1622.1457,-122 1489.8543,-122 1489.8543,-86 1622.1457,-86 1622.1457,-122"/>
<text text-anchor="middle" x="1556" y="-99.8" font-family="Times,serif" font-size="14.00" fill="#000000">DatetimeComponent</text>
</g>
<!-- DatetimeComponent&#45;&gt;FormModule -->
<g id="edge4" class="edge">
<title>DatetimeComponent&#45;&gt;FormModule</title>
<path fill="none" stroke="#000000" d="M1494.375,-122.0225C1494.375,-139.3734 1494.375,-163 1494.375,-163 1494.375,-163 1010.0591,-163 1010.0591,-163"/>
<polygon fill="#000000" stroke="#000000" points="1010.0591,-159.5001 1000.0591,-163 1010.0591,-166.5001 1010.0591,-159.5001"/>
</g>
<!-- DatetimePipe -->
<g id="node5" class="node">
<title>DatetimePipe</title>
<polygon fill="#ffffb3" stroke="#000000" points="1472.2008,-122 1379.7992,-122 1379.7992,-86 1472.2008,-86 1472.2008,-122"/>
<text text-anchor="middle" x="1426" y="-99.8" font-family="Times,serif" font-size="14.00" fill="#000000">DatetimePipe</text>
</g>
<!-- DatetimePipe&#45;&gt;FormModule -->
<g id="edge5" class="edge">
<title>DatetimePipe&#45;&gt;FormModule</title>
<path fill="none" stroke="#000000" d="M1426,-122.027C1426,-138.3976 1426,-160 1426,-160 1426,-160 1010.1615,-160 1010.1615,-160"/>
<polygon fill="#000000" stroke="#000000" points="1010.1615,-156.5001 1000.1615,-160 1010.1614,-163.5001 1010.1615,-156.5001"/>
</g>
<!-- MonthComponent -->
<g id="node6" class="node">
<title>MonthComponent</title>
<polygon fill="#ffffb3" stroke="#000000" points="1362.1681,-122 1243.8319,-122 1243.8319,-86 1362.1681,-86 1362.1681,-122"/>
<text text-anchor="middle" x="1303" y="-99.8" font-family="Times,serif" font-size="14.00" fill="#000000">MonthComponent</text>
</g>
<!-- MonthComponent&#45;&gt;FormModule -->
<g id="edge6" class="edge">
<title>MonthComponent&#45;&gt;FormModule</title>
<path fill="none" stroke="#000000" d="M1281.0499,-122.2396C1281.0499,-137.5706 1281.0499,-157 1281.0499,-157 1281.0499,-157 1009.9935,-157 1009.9935,-157"/>
<polygon fill="#000000" stroke="#000000" points="1009.9936,-153.5001 999.9935,-157 1009.9935,-160.5001 1009.9936,-153.5001"/>
</g>
<!-- CalendarComponent -->
<g id="node7" class="node">
<title>CalendarComponent</title>
<polygon fill="#ffffb3" stroke="#000000" points="1225.8641,-122 1094.1359,-122 1094.1359,-86 1225.8641,-86 1225.8641,-122"/>
<text text-anchor="middle" x="1160" y="-99.8" font-family="Times,serif" font-size="14.00" fill="#000000">CalendarComponent</text>
</g>
<!-- CalendarComponent&#45;&gt;FormModule -->
<g id="edge7" class="edge">
<title>CalendarComponent&#45;&gt;FormModule</title>
<path fill="none" stroke="#000000" d="M1182.394,-122.0511C1182.394,-136.373 1182.394,-154 1182.394,-154 1182.394,-154 1009.9257,-154 1009.9257,-154"/>
<polygon fill="#000000" stroke="#000000" points="1009.9258,-150.5001 999.9257,-154 1009.9257,-157.5001 1009.9258,-150.5001"/>
</g>
<!-- VisibleFieldsPipe -->
<g id="node8" class="node">
<title>VisibleFieldsPipe</title>
<polygon fill="#ffffb3" stroke="#000000" points="1075.5493,-122 960.4507,-122 960.4507,-86 1075.5493,-86 1075.5493,-122"/>
<text text-anchor="middle" x="1018" y="-99.8" font-family="Times,serif" font-size="14.00" fill="#000000">VisibleFieldsPipe</text>
</g>
<!-- VisibleFieldsPipe&#45;&gt;FormModule -->
<g id="edge8" class="edge">
<title>VisibleFieldsPipe&#45;&gt;FormModule</title>
<path fill="none" stroke="#000000" d="M980.0838,-122.1061C980.0838,-122.1061 980.0838,-140.991 980.0838,-140.991"/>
<polygon fill="#000000" stroke="#000000" points="976.5839,-140.9909 980.0838,-150.991 983.5839,-140.991 976.5839,-140.9909"/>
</g>
<!-- MaxItemsPipe -->
<g id="node9" class="node">
<title>MaxItemsPipe</title>
<polygon fill="#ffffb3" stroke="#000000" points="941.6486,-122 844.3514,-122 844.3514,-86 941.6486,-86 941.6486,-122"/>
<text text-anchor="middle" x="893" y="-99.8" font-family="Times,serif" font-size="14.00" fill="#000000">MaxItemsPipe</text>
</g>
<!-- MaxItemsPipe&#45;&gt;FormModule -->
<g id="edge9" class="edge">
<title>MaxItemsPipe&#45;&gt;FormModule</title>
<path fill="none" stroke="#000000" d="M925.9411,-122.1061C925.9411,-122.1061 925.9411,-140.991 925.9411,-140.991"/>
<polygon fill="#000000" stroke="#000000" points="922.4412,-140.9909 925.9411,-150.991 929.4412,-140.991 922.4412,-140.9909"/>
</g>
<!-- ToggleComponent -->
<g id="node10" class="node">
<title>ToggleComponent</title>
<polygon fill="#ffffb3" stroke="#000000" points="826.4902,-122 705.5098,-122 705.5098,-86 826.4902,-86 826.4902,-122"/>
<text text-anchor="middle" x="766" y="-99.8" font-family="Times,serif" font-size="14.00" fill="#000000">ToggleComponent</text>
</g>
<!-- ToggleComponent&#45;&gt;FormModule -->
<g id="edge10" class="edge">
<title>ToggleComponent&#45;&gt;FormModule</title>
<path fill="none" stroke="#000000" d="M770.4855,-122.0511C770.4855,-136.373 770.4855,-154 770.4855,-154 770.4855,-154 899.8627,-154 899.8627,-154"/>
<polygon fill="#000000" stroke="#000000" points="899.8627,-157.5001 909.8627,-154 899.8626,-150.5001 899.8627,-157.5001"/>
</g>
<!-- FormComponent  -->
<g id="node17" class="node">
<title>FormComponent </title>
<polygon fill="#fb8072" stroke="#000000" points="1632.6663,-252 1517.3337,-252 1517.3337,-216 1632.6663,-216 1632.6663,-252"/>
<text text-anchor="middle" x="1575" y="-229.8" font-family="Times,serif" font-size="14.00" fill="#000000">FormComponent </text>
</g>
<!-- FormModule&#45;&gt;FormComponent  -->
<g id="edge16" class="edge">
<title>FormModule&#45;&gt;FormComponent </title>
<path fill="none" stroke="#000000" stroke-dasharray="5,2" d="M1000.2128,-175C1142.2094,-175 1569.8697,-175 1569.8697,-175 1569.8697,-175 1569.8697,-205.9775 1569.8697,-205.9775"/>
<polygon fill="#000000" stroke="#000000" points="1566.3698,-205.9774 1569.8697,-215.9775 1573.3698,-205.9775 1566.3698,-205.9774"/>
</g>
<!-- DatetimeComponent  -->
<g id="node18" class="node">
<title>DatetimeComponent </title>
<polygon fill="#fb8072" stroke="#000000" points="1499.1453,-252 1362.8547,-252 1362.8547,-216 1499.1453,-216 1499.1453,-252"/>
<text text-anchor="middle" x="1431" y="-229.8" font-family="Times,serif" font-size="14.00" fill="#000000">DatetimeComponent </text>
</g>
<!-- FormModule&#45;&gt;DatetimeComponent  -->
<g id="edge17" class="edge">
<title>FormModule&#45;&gt;DatetimeComponent </title>
<path fill="none" stroke="#000000" stroke-dasharray="5,2" d="M999.9592,-178C1107.6346,-178 1371.4136,-178 1371.4136,-178 1371.4136,-178 1371.4136,-205.973 1371.4136,-205.973"/>
<polygon fill="#000000" stroke="#000000" points="1367.9136,-205.973 1371.4136,-215.973 1374.9136,-205.973 1367.9136,-205.973"/>
</g>
<!-- DatetimePipe  -->
<g id="node19" class="node">
<title>DatetimePipe </title>
<polygon fill="#fb8072" stroke="#000000" points="1344.7011,-252 1249.2989,-252 1249.2989,-216 1344.7011,-216 1344.7011,-252"/>
<text text-anchor="middle" x="1297" y="-229.8" font-family="Times,serif" font-size="14.00" fill="#000000">DatetimePipe </text>
</g>
<!-- FormModule&#45;&gt;DatetimePipe  -->
<g id="edge18" class="edge">
<title>FormModule&#45;&gt;DatetimePipe </title>
<path fill="none" stroke="#000000" stroke-dasharray="5,2" d="M999.9722,-181C1096.1102,-181 1312.9501,-181 1312.9501,-181 1312.9501,-181 1312.9501,-205.7604 1312.9501,-205.7604"/>
<polygon fill="#000000" stroke="#000000" points="1309.4502,-205.7604 1312.9501,-215.7604 1316.4502,-205.7604 1309.4502,-205.7604"/>
</g>
<!-- CalendarComponent  -->
<g id="node20" class="node">
<title>CalendarComponent </title>
<polygon fill="#fb8072" stroke="#000000" points="1230.8645,-252 1095.1355,-252 1095.1355,-216 1230.8645,-216 1230.8645,-252"/>
<text text-anchor="middle" x="1163" y="-229.8" font-family="Times,serif" font-size="14.00" fill="#000000">CalendarComponent </text>
</g>
<!-- FormModule&#45;&gt;CalendarComponent  -->
<g id="edge19" class="edge">
<title>FormModule&#45;&gt;CalendarComponent </title>
<path fill="none" stroke="#000000" stroke-dasharray="5,2" d="M999.9762,-184C1054.4065,-184 1138.856,-184 1138.856,-184 1138.856,-184 1138.856,-205.9489 1138.856,-205.9489"/>
<polygon fill="#000000" stroke="#000000" points="1135.3561,-205.9488 1138.856,-215.9489 1142.3561,-205.9489 1135.3561,-205.9488"/>
</g>
<!-- MonthComponent  -->
<g id="node21" class="node">
<title>MonthComponent </title>
<polygon fill="#fb8072" stroke="#000000" points="1077.1677,-252 954.8323,-252 954.8323,-216 1077.1677,-216 1077.1677,-252"/>
<text text-anchor="middle" x="1016" y="-229.8" font-family="Times,serif" font-size="14.00" fill="#000000">MonthComponent </text>
</g>
<!-- FormModule&#45;&gt;MonthComponent  -->
<g id="edge20" class="edge">
<title>FormModule&#45;&gt;MonthComponent </title>
<path fill="none" stroke="#000000" stroke-dasharray="5,2" d="M977.429,-187.1061C977.429,-187.1061 977.429,-205.991 977.429,-205.991"/>
<polygon fill="#000000" stroke="#000000" points="973.9291,-205.9909 977.429,-215.991 980.9291,-205.991 973.9291,-205.9909"/>
</g>
<!-- PopModule  -->
<g id="node22" class="node">
<title>PopModule </title>
<polygon fill="#fb8072" stroke="#000000" points="936.3326,-252 851.6674,-252 851.6674,-216 936.3326,-216 936.3326,-252"/>
<text text-anchor="middle" x="894" y="-229.8" font-family="Times,serif" font-size="14.00" fill="#000000">PopModule </text>
</g>
<!-- FormModule&#45;&gt;PopModule  -->
<g id="edge21" class="edge">
<title>FormModule&#45;&gt;PopModule </title>
<path fill="none" stroke="#000000" stroke-dasharray="5,2" d="M923.2372,-187.1061C923.2372,-187.1061 923.2372,-205.991 923.2372,-205.991"/>
<polygon fill="#000000" stroke="#000000" points="919.7373,-205.9909 923.2372,-215.991 926.7373,-205.991 919.7373,-205.9909"/>
</g>
<!-- VisibleFieldsPipe  -->
<g id="node23" class="node">
<title>VisibleFieldsPipe </title>
<polygon fill="#fb8072" stroke="#000000" points="833.5484,-252 714.4516,-252 714.4516,-216 833.5484,-216 833.5484,-252"/>
<text text-anchor="middle" x="774" y="-229.8" font-family="Times,serif" font-size="14.00" fill="#000000">VisibleFieldsPipe </text>
</g>
<!-- FormModule&#45;&gt;VisibleFieldsPipe  -->
<g id="edge22" class="edge">
<title>FormModule&#45;&gt;VisibleFieldsPipe </title>
<path fill="none" stroke="#000000" stroke-dasharray="5,2" d="M909.8756,-184C874.0736,-184 830.0097,-184 830.0097,-184 830.0097,-184 830.0097,-205.9489 830.0097,-205.9489"/>
<polygon fill="#000000" stroke="#000000" points="826.5097,-205.9488 830.0097,-215.9489 833.5097,-205.9489 826.5097,-205.9488"/>
</g>
<!-- MaxItemsPipe  -->
<g id="node24" class="node">
<title>MaxItemsPipe </title>
<polygon fill="#fb8072" stroke="#000000" points="696.6481,-252 595.3519,-252 595.3519,-216 696.6481,-216 696.6481,-252"/>
<text text-anchor="middle" x="646" y="-229.8" font-family="Times,serif" font-size="14.00" fill="#000000">MaxItemsPipe </text>
</g>
<!-- FormModule&#45;&gt;MaxItemsPipe  -->
<g id="edge23" class="edge">
<title>FormModule&#45;&gt;MaxItemsPipe </title>
<path fill="none" stroke="#000000" stroke-dasharray="5,2" d="M909.8971,-181C834.0404,-181 689.1201,-181 689.1201,-181 689.1201,-181 689.1201,-205.7604 689.1201,-205.7604"/>
<polygon fill="#000000" stroke="#000000" points="685.6202,-205.7604 689.1201,-215.7604 692.6202,-205.7604 685.6202,-205.7604"/>
</g>
<!-- IoModule  -->
<g id="node25" class="node">
<title>IoModule </title>
<polygon fill="#fb8072" stroke="#000000" points="577.211,-252 502.789,-252 502.789,-216 577.211,-216 577.211,-252"/>
<text text-anchor="middle" x="540" y="-229.8" font-family="Times,serif" font-size="14.00" fill="#000000">IoModule </text>
</g>
<!-- FormModule&#45;&gt;IoModule  -->
<g id="edge24" class="edge">
<title>FormModule&#45;&gt;IoModule </title>
<path fill="none" stroke="#000000" stroke-dasharray="5,2" d="M909.8794,-178C801.1134,-178 533.3816,-178 533.3816,-178 533.3816,-178 533.3816,-205.973 533.3816,-205.973"/>
<polygon fill="#000000" stroke="#000000" points="529.8817,-205.973 533.3816,-215.973 536.8817,-205.973 529.8817,-205.973"/>
</g>
<!-- ToggleComponent  -->
<g id="node26" class="node">
<title>ToggleComponent </title>
<polygon fill="#fb8072" stroke="#000000" points="484.4912,-252 359.5088,-252 359.5088,-216 484.4912,-216 484.4912,-252"/>
<text text-anchor="middle" x="422" y="-229.8" font-family="Times,serif" font-size="14.00" fill="#000000">ToggleComponent </text>
</g>
<!-- FormModule&#45;&gt;ToggleComponent  -->
<g id="edge25" class="edge">
<title>FormModule&#45;&gt;ToggleComponent </title>
<path fill="none" stroke="#000000" stroke-dasharray="5,2" d="M909.6892,-175C783.8549,-175 439.3245,-175 439.3245,-175 439.3245,-175 439.3245,-205.9775 439.3245,-205.9775"/>
<polygon fill="#000000" stroke="#000000" points="435.8244,-205.9775 439.3245,-215.9775 442.8244,-205.9774 435.8244,-205.9775"/>
</g>
<!-- PopModule -->
<g id="node12" class="node">
<title>PopModule</title>
<polygon fill="#8dd3c7" stroke="#000000" points="681.8331,-122 678.8331,-126 657.8331,-126 654.8331,-122 600.1669,-122 600.1669,-86 681.8331,-86 681.8331,-122"/>
<text text-anchor="middle" x="641" y="-99.8" font-family="Times,serif" font-size="14.00" fill="#000000">PopModule</text>
</g>
<!-- PopModule&#45;&gt;FormModule -->
<g id="edge11" class="edge">
<title>PopModule&#45;&gt;FormModule</title>
<path fill="none" stroke="#000000" d="M641,-122.2396C641,-137.5706 641,-157 641,-157 641,-157 900.0115,-157 900.0115,-157"/>
<polygon fill="#000000" stroke="#000000" points="900.0115,-160.5001 910.0115,-157 900.0114,-153.5001 900.0115,-160.5001"/>
</g>
<!-- IoModule -->
<g id="node13" class="node">
<title>IoModule</title>
<polygon fill="#8dd3c7" stroke="#000000" points="582.7107,-122 579.7107,-126 558.7107,-126 555.7107,-122 511.2893,-122 511.2893,-86 582.7107,-86 582.7107,-122"/>
<text text-anchor="middle" x="547" y="-99.8" font-family="Times,serif" font-size="14.00" fill="#000000">IoModule</text>
</g>
<!-- IoModule&#45;&gt;FormModule -->
<g id="edge12" class="edge">
<title>IoModule&#45;&gt;FormModule</title>
<path fill="none" stroke="#000000" d="M555.3684,-122.027C555.3684,-138.3976 555.3684,-160 555.3684,-160 555.3684,-160 899.934,-160 899.934,-160"/>
<polygon fill="#000000" stroke="#000000" points="899.934,-163.5001 909.934,-160 899.934,-156.5001 899.934,-163.5001"/>
</g>
<!-- LoaderModule -->
<g id="node14" class="node">
<title>LoaderModule</title>
<polygon fill="#8dd3c7" stroke="#000000" points="493.6924,-122 490.6924,-126 469.6924,-126 466.6924,-122 394.3076,-122 394.3076,-86 493.6924,-86 493.6924,-122"/>
<text text-anchor="middle" x="444" y="-99.8" font-family="Times,serif" font-size="14.00" fill="#000000">LoaderModule</text>
</g>
<!-- LoaderModule&#45;&gt;FormModule -->
<g id="edge13" class="edge">
<title>LoaderModule&#45;&gt;FormModule</title>
<path fill="none" stroke="#000000" d="M488.9206,-122.0225C488.9206,-139.3734 488.9206,-163 488.9206,-163 488.9206,-163 899.8869,-163 899.8869,-163"/>
<polygon fill="#000000" stroke="#000000" points="899.8869,-166.5001 909.8869,-163 899.8868,-159.5001 899.8869,-166.5001"/>
</g>
<!-- IconModule -->
<g id="node15" class="node">
<title>IconModule</title>
<polygon fill="#8dd3c7" stroke="#000000" points="376.4261,-122 373.4261,-126 352.4261,-126 349.4261,-122 291.5739,-122 291.5739,-86 376.4261,-86 376.4261,-122"/>
<text text-anchor="middle" x="334" y="-99.8" font-family="Times,serif" font-size="14.00" fill="#000000">IconModule</text>
</g>
<!-- IconModule&#45;&gt;FormModule -->
<g id="edge14" class="edge">
<title>IconModule&#45;&gt;FormModule</title>
<path fill="none" stroke="#000000" d="M367.9837,-122.2667C367.9837,-140.5552 367.9837,-166 367.9837,-166 367.9837,-166 899.9125,-166 899.9125,-166"/>
<polygon fill="#000000" stroke="#000000" points="899.9126,-169.5001 909.9125,-166 899.9125,-162.5001 899.9126,-169.5001"/>
</g>
<!-- SymbolModule -->
<g id="node16" class="node">
<title>SymbolModule</title>
<polygon fill="#8dd3c7" stroke="#000000" points="273.6137,-122 270.6137,-126 249.6137,-126 246.6137,-122 170.3863,-122 170.3863,-86 273.6137,-86 273.6137,-122"/>
<text text-anchor="middle" x="222" y="-99.8" font-family="Times,serif" font-size="14.00" fill="#000000">SymbolModule</text>
</g>
<!-- SymbolModule&#45;&gt;FormModule -->
<g id="edge15" class="edge">
<title>SymbolModule&#45;&gt;FormModule</title>
<path fill="none" stroke="#000000" d="M222,-122.1061C222,-141.3391 222,-169 222,-169 222,-169 899.9762,-169 899.9762,-169"/>
<polygon fill="#000000" stroke="#000000" points="899.9763,-172.5001 909.9762,-169 899.9762,-165.5001 899.9763,-172.5001"/>
</g>
<!-- FormService -->
<g id="node27" class="node">
<title>FormService</title>
<ellipse fill="#fdb462" stroke="#000000" cx="85" cy="-104" rx="60.8313" ry="18"/>
<text text-anchor="middle" x="85" y="-99.8" font-family="Times,serif" font-size="14.00" fill="#000000">FormService</text>
</g>
<!-- FormService&#45;&gt;FormModule -->
<g id="edge26" class="edge">
<title>FormService&#45;&gt;FormModule</title>
<path fill="none" stroke="#000000" d="M85,-122.2228C85,-142.3652 85,-172 85,-172 85,-172 900.057,-172 900.057,-172"/>
<polygon fill="#000000" stroke="#000000" points="900.0571,-175.5001 910.057,-172 900.057,-168.5001 900.0571,-175.5001"/>
</g>
</g>
</svg>
