<?xml version="1.0" encoding="UTF-8" standalone="no"?>
<!DOCTYPE svg PUBLIC "-//W3C//DTD SVG 1.1//EN"
 "http://www.w3.org/Graphics/SVG/1.1/DTD/svg11.dtd">
<!-- Generated by graphviz version 2.40.1 (20161225.0304)
 -->
<!-- Title: dependencies Pages: 1 -->
<svg width="1678pt" height="284pt"
 viewBox="0.00 0.00 1678.00 284.00" xmlns="http://www.w3.org/2000/svg" xmlns:xlink="http://www.w3.org/1999/xlink">
<g id="graph0" class="graph" transform="scale(1 1) rotate(0) translate(4 280)">
<title>dependencies</title>
<polygon fill="#ffffff" stroke="transparent" points="-4,4 -4,-280 1674,-280 1674,4 -4,4"/>
<text text-anchor="start" x="814.0091" y="-42.4" font-family="sans-serif" font-weight="bold" font-size="14.00" fill="#000000">Legend</text>
<polygon fill="#ffffb3" stroke="transparent" points="601,-10 601,-30 621,-30 621,-10 601,-10"/>
<text text-anchor="start" x="624.629" y="-15.4" font-family="sans-serif" font-size="14.00" fill="#000000"> &#160;Declarations</text>
<polygon fill="#8dd3c7" stroke="transparent" points="714,-10 714,-30 734,-30 734,-10 714,-10"/>
<text text-anchor="start" x="737.7251" y="-15.4" font-family="sans-serif" font-size="14.00" fill="#000000"> &#160;Module</text>
<polygon fill="#80b1d3" stroke="transparent" points="800,-10 800,-30 820,-30 820,-10 800,-10"/>
<text text-anchor="start" x="823.7812" y="-15.4" font-family="sans-serif" font-size="14.00" fill="#000000"> &#160;Bootstrap</text>
<polygon fill="#fdb462" stroke="transparent" points="897,-10 897,-30 917,-30 917,-10 897,-10"/>
<text text-anchor="start" x="920.6732" y="-15.4" font-family="sans-serif" font-size="14.00" fill="#000000"> &#160;Providers</text>
<polygon fill="#fb8072" stroke="transparent" points="993,-10 993,-30 1013,-30 1013,-10 993,-10"/>
<text text-anchor="start" x="1016.7258" y="-15.4" font-family="sans-serif" font-size="14.00" fill="#000000"> &#160;Exports</text>
<g id="clust1" class="cluster">
<title>cluster_FormModule</title>
<polygon fill="none" stroke="#000000" stroke-dasharray="1,5" points="8,-70 8,-268 1662,-268 1662,-70 8,-70"/>
</g>
<g id="clust2" class="cluster">
<title>cluster_FormModule_declarations</title>
<polygon fill="none" stroke="#000000" points="357,-78 357,-130 1654,-130 1654,-78 357,-78"/>
</g>
<g id="clust12" class="cluster">
<title>cluster_FormModule_imports</title>
<polygon fill="none" stroke="#000000" points="162,-78 162,-130 349,-130 349,-78 162,-78"/>
</g>
<g id="clust13" class="cluster">
<title>cluster_FormModule_exports</title>
<polygon fill="none" stroke="#000000" points="229,-208 229,-260 1399,-260 1399,-208 229,-208"/>
</g>
<g id="clust15" class="cluster">
<title>cluster_FormModule_providers</title>
<polygon fill="none" stroke="#000000" points="16,-78 16,-130 154,-130 154,-78 16,-78"/>
</g>
<!-- FormComponent -->
<g id="node1" class="node">
<title>FormComponent</title>
<polygon fill="#ffffb3" stroke="#000000" points="1645.6667,-122 1534.3333,-122 1534.3333,-86 1645.6667,-86 1645.6667,-122"/>
<text text-anchor="middle" x="1590" y="-99.8" font-family="Times,serif" font-size="14.00" fill="#000000">FormComponent</text>
</g>
<!-- FormModule -->
<g id="node10" class="node">
<title>FormModule</title>
<polygon fill="#8dd3c7" stroke="#000000" points="818.8837,-187 815.8837,-191 794.8837,-191 791.8837,-187 729.1163,-187 729.1163,-151 818.8837,-151 818.8837,-187"/>
<text text-anchor="middle" x="774" y="-164.8" font-family="Times,serif" font-size="14.00" fill="#000000">FormModule</text>
</g>
<!-- FormComponent&#45;&gt;FormModule -->
<g id="edge1" class="edge">
<title>FormComponent&#45;&gt;FormModule</title>
<path fill="none" stroke="#000000" d="M1590,-122.1061C1590,-141.3391 1590,-169 1590,-169 1590,-169 829.034,-169 829.034,-169"/>
<polygon fill="#000000" stroke="#000000" points="829.0341,-165.5001 819.034,-169 829.034,-172.5001 829.0341,-165.5001"/>
</g>
<!-- DefaultInputComponent -->
<g id="node2" class="node">
<title>DefaultInputComponent</title>
<polygon fill="#ffffb3" stroke="#000000" points="1516.3613,-122 1363.6387,-122 1363.6387,-86 1516.3613,-86 1516.3613,-122"/>
<text text-anchor="middle" x="1440" y="-99.8" font-family="Times,serif" font-size="14.00" fill="#000000">DefaultInputComponent</text>
</g>
<!-- DefaultInputComponent&#45;&gt;FormModule -->
<g id="edge2" class="edge">
<title>DefaultInputComponent&#45;&gt;FormModule</title>
<path fill="none" stroke="#000000" d="M1377.0763,-122.2667C1377.0763,-140.5552 1377.0763,-166 1377.0763,-166 1377.0763,-166 829.3287,-166 829.3287,-166"/>
<polygon fill="#000000" stroke="#000000" points="829.3288,-162.5001 819.3287,-166 829.3287,-169.5001 829.3288,-162.5001"/>
</g>
<!-- DefaultOutputComponent -->
<g id="node3" class="node">
<title>DefaultOutputComponent</title>
<polygon fill="#ffffb3" stroke="#000000" points="1345.1979,-122 1182.8021,-122 1182.8021,-86 1345.1979,-86 1345.1979,-122"/>
<text text-anchor="middle" x="1264" y="-99.8" font-family="Times,serif" font-size="14.00" fill="#000000">DefaultOutputComponent</text>
</g>
<!-- DefaultOutputComponent&#45;&gt;FormModule -->
<g id="edge3" class="edge">
<title>DefaultOutputComponent&#45;&gt;FormModule</title>
<path fill="none" stroke="#000000" d="M1219.9869,-122.0336C1219.9869,-139.0597 1219.9869,-162 1219.9869,-162 1219.9869,-162 829.2179,-162 829.2179,-162"/>
<polygon fill="#000000" stroke="#000000" points="829.218,-158.5001 819.2179,-162 829.2179,-165.5001 829.218,-158.5001"/>
</g>
<!-- DatetimeComponent -->
<g id="node4" class="node">
<title>DatetimeComponent</title>
<polygon fill="#ffffb3" stroke="#000000" points="1165.1457,-122 1032.8543,-122 1032.8543,-86 1165.1457,-86 1165.1457,-122"/>
<text text-anchor="middle" x="1099" y="-99.8" font-family="Times,serif" font-size="14.00" fill="#000000">DatetimeComponent</text>
</g>
<!-- DatetimeComponent&#45;&gt;FormModule -->
<g id="edge4" class="edge">
<title>DatetimeComponent&#45;&gt;FormModule</title>
<path fill="none" stroke="#000000" d="M1067.7639,-122.0091C1067.7639,-138.0494 1067.7639,-159 1067.7639,-159 1067.7639,-159 828.9362,-159 828.9362,-159"/>
<polygon fill="#000000" stroke="#000000" points="828.9362,-155.5001 818.9362,-159 828.9361,-162.5001 828.9362,-155.5001"/>
</g>
<!-- DatetimePipe -->
<g id="node5" class="node">
<title>DatetimePipe</title>
<polygon fill="#ffffb3" stroke="#000000" points="1015.2008,-122 922.7992,-122 922.7992,-86 1015.2008,-86 1015.2008,-122"/>
<text text-anchor="middle" x="969" y="-99.8" font-family="Times,serif" font-size="14.00" fill="#000000">DatetimePipe</text>
</g>
<!-- DatetimePipe&#45;&gt;FormModule -->
<g id="edge5" class="edge">
<title>DatetimePipe&#45;&gt;FormModule</title>
<path fill="none" stroke="#000000" d="M955.7909,-122.1243C955.7909,-136.7832 955.7909,-155 955.7909,-155 955.7909,-155 828.9371,-155 828.9371,-155"/>
<polygon fill="#000000" stroke="#000000" points="828.9371,-151.5001 818.9371,-155 828.937,-158.5001 828.9371,-151.5001"/>
</g>
<!-- MonthComponent -->
<g id="node6" class="node">
<title>MonthComponent</title>
<polygon fill="#ffffb3" stroke="#000000" points="905.1681,-122 786.8319,-122 786.8319,-86 905.1681,-86 905.1681,-122"/>
<text text-anchor="middle" x="846" y="-99.8" font-family="Times,serif" font-size="14.00" fill="#000000">MonthComponent</text>
</g>
<!-- MonthComponent&#45;&gt;FormModule -->
<g id="edge6" class="edge">
<title>MonthComponent&#45;&gt;FormModule</title>
<path fill="none" stroke="#000000" d="M802.804,-122.1061C802.804,-122.1061 802.804,-140.991 802.804,-140.991"/>
<polygon fill="#000000" stroke="#000000" points="799.3041,-140.9909 802.804,-150.991 806.3041,-140.991 799.3041,-140.9909"/>
</g>
<!-- CalendarComponent -->
<g id="node7" class="node">
<title>CalendarComponent</title>
<polygon fill="#ffffb3" stroke="#000000" points="768.8641,-122 637.1359,-122 637.1359,-86 768.8641,-86 768.8641,-122"/>
<text text-anchor="middle" x="703" y="-99.8" font-family="Times,serif" font-size="14.00" fill="#000000">CalendarComponent</text>
</g>
<!-- CalendarComponent&#45;&gt;FormModule -->
<g id="edge7" class="edge">
<title>CalendarComponent&#45;&gt;FormModule</title>
<path fill="none" stroke="#000000" d="M748.9951,-122.1061C748.9951,-122.1061 748.9951,-140.991 748.9951,-140.991"/>
<polygon fill="#000000" stroke="#000000" points="745.4952,-140.9909 748.9951,-150.991 752.4952,-140.991 745.4952,-140.9909"/>
</g>
<!-- VisibleFieldsPipe -->
<g id="node8" class="node">
<title>VisibleFieldsPipe</title>
<polygon fill="#ffffb3" stroke="#000000" points="618.5493,-122 503.4507,-122 503.4507,-86 618.5493,-86 618.5493,-122"/>
<text text-anchor="middle" x="561" y="-99.8" font-family="Times,serif" font-size="14.00" fill="#000000">VisibleFieldsPipe</text>
</g>
<!-- VisibleFieldsPipe&#45;&gt;FormModule -->
<g id="edge8" class="edge">
<title>VisibleFieldsPipe&#45;&gt;FormModule</title>
<path fill="none" stroke="#000000" d="M614.179,-122.1243C614.179,-136.7832 614.179,-155 614.179,-155 614.179,-155 719.0556,-155 719.0556,-155"/>
<polygon fill="#000000" stroke="#000000" points="719.0557,-158.5001 729.0556,-155 719.0556,-151.5001 719.0557,-158.5001"/>
</g>
<!-- ToggleComponent -->
<g id="node9" class="node">
<title>ToggleComponent</title>
<polygon fill="#ffffb3" stroke="#000000" points="485.4902,-122 364.5098,-122 364.5098,-86 485.4902,-86 485.4902,-122"/>
<text text-anchor="middle" x="425" y="-99.8" font-family="Times,serif" font-size="14.00" fill="#000000">ToggleComponent</text>
</g>
<!-- ToggleComponent&#45;&gt;FormModule -->
<g id="edge9" class="edge">
<title>ToggleComponent&#45;&gt;FormModule</title>
<path fill="none" stroke="#000000" d="M478.9855,-122.0091C478.9855,-138.0494 478.9855,-159 478.9855,-159 478.9855,-159 718.8725,-159 718.8725,-159"/>
<polygon fill="#000000" stroke="#000000" points="718.8725,-162.5001 728.8725,-159 718.8725,-155.5001 718.8725,-162.5001"/>
</g>
<!-- FormComponent  -->
<g id="node13" class="node">
<title>FormComponent </title>
<polygon fill="#fb8072" stroke="#000000" points="1390.6663,-252 1275.3337,-252 1275.3337,-216 1390.6663,-216 1390.6663,-252"/>
<text text-anchor="middle" x="1333" y="-229.8" font-family="Times,serif" font-size="14.00" fill="#000000">FormComponent </text>
</g>
<!-- FormModule&#45;&gt;FormComponent  -->
<g id="edge12" class="edge">
<title>FormModule&#45;&gt;FormComponent </title>
<path fill="none" stroke="#000000" stroke-dasharray="5,2" d="M819.2589,-173C948.5435,-173 1310.2579,-173 1310.2579,-173 1310.2579,-173 1310.2579,-205.698 1310.2579,-205.698"/>
<polygon fill="#000000" stroke="#000000" points="1306.758,-205.698 1310.2579,-215.698 1313.758,-205.698 1306.758,-205.698"/>
</g>
<!-- DatetimeComponent  -->
<g id="node14" class="node">
<title>DatetimeComponent </title>
<polygon fill="#fb8072" stroke="#000000" points="1257.1453,-252 1120.8547,-252 1120.8547,-216 1257.1453,-216 1257.1453,-252"/>
<text text-anchor="middle" x="1189" y="-229.8" font-family="Times,serif" font-size="14.00" fill="#000000">DatetimeComponent </text>
</g>
<!-- FormModule&#45;&gt;DatetimeComponent  -->
<g id="edge13" class="edge">
<title>FormModule&#45;&gt;DatetimeComponent </title>
<path fill="none" stroke="#000000" stroke-dasharray="5,2" d="M818.8929,-177C917.2654,-177 1143.125,-177 1143.125,-177 1143.125,-177 1143.125,-205.9648 1143.125,-205.9648"/>
<polygon fill="#000000" stroke="#000000" points="1139.6251,-205.9648 1143.125,-215.9648 1146.6251,-205.9649 1139.6251,-205.9648"/>
</g>
<!-- DatetimePipe  -->
<g id="node15" class="node">
<title>DatetimePipe </title>
<polygon fill="#fb8072" stroke="#000000" points="1102.7011,-252 1007.2989,-252 1007.2989,-216 1102.7011,-216 1102.7011,-252"/>
<text text-anchor="middle" x="1055" y="-229.8" font-family="Times,serif" font-size="14.00" fill="#000000">DatetimePipe </text>
</g>
<!-- FormModule&#45;&gt;DatetimePipe  -->
<g id="edge14" class="edge">
<title>FormModule&#45;&gt;DatetimePipe </title>
<path fill="none" stroke="#000000" stroke-dasharray="5,2" d="M819.1595,-180C887.9592,-180 1011.125,-180 1011.125,-180 1011.125,-180 1011.125,-205.7181 1011.125,-205.7181"/>
<polygon fill="#000000" stroke="#000000" points="1007.6251,-205.718 1011.125,-215.7181 1014.6251,-205.7181 1007.6251,-205.718"/>
</g>
<!-- CalendarComponent  -->
<g id="node16" class="node">
<title>CalendarComponent </title>
<polygon fill="#fb8072" stroke="#000000" points="988.8645,-252 853.1355,-252 853.1355,-216 988.8645,-216 988.8645,-252"/>
<text text-anchor="middle" x="921" y="-229.8" font-family="Times,serif" font-size="14.00" fill="#000000">CalendarComponent </text>
</g>
<!-- FormModule&#45;&gt;CalendarComponent  -->
<g id="edge15" class="edge">
<title>FormModule&#45;&gt;CalendarComponent </title>
<path fill="none" stroke="#000000" stroke-dasharray="5,2" d="M818.9732,-184C847.6004,-184 879.3259,-184 879.3259,-184 879.3259,-184 879.3259,-205.9489 879.3259,-205.9489"/>
<polygon fill="#000000" stroke="#000000" points="875.826,-205.9488 879.3259,-215.9489 882.826,-205.9489 875.826,-205.9488"/>
</g>
<!-- MonthComponent  -->
<g id="node17" class="node">
<title>MonthComponent </title>
<polygon fill="#fb8072" stroke="#000000" points="835.1677,-252 712.8323,-252 712.8323,-216 835.1677,-216 835.1677,-252"/>
<text text-anchor="middle" x="774" y="-229.8" font-family="Times,serif" font-size="14.00" fill="#000000">MonthComponent </text>
</g>
<!-- FormModule&#45;&gt;MonthComponent  -->
<g id="edge16" class="edge">
<title>FormModule&#45;&gt;MonthComponent </title>
<path fill="none" stroke="#000000" stroke-dasharray="5,2" d="M774,-187.1061C774,-187.1061 774,-205.991 774,-205.991"/>
<polygon fill="#000000" stroke="#000000" points="770.5001,-205.9909 774,-215.991 777.5001,-205.991 770.5001,-205.9909"/>
</g>
<!-- PopModule  -->
<g id="node18" class="node">
<title>PopModule </title>
<polygon fill="#fb8072" stroke="#000000" points="694.3326,-252 609.6674,-252 609.6674,-216 694.3326,-216 694.3326,-252"/>
<text text-anchor="middle" x="652" y="-229.8" font-family="Times,serif" font-size="14.00" fill="#000000">PopModule </text>
</g>
<!-- FormModule&#45;&gt;PopModule  -->
<g id="edge17" class="edge">
<title>FormModule&#45;&gt;PopModule </title>
<path fill="none" stroke="#000000" stroke-dasharray="5,2" d="M729.0294,-184C699.2857,-184 665.7421,-184 665.7421,-184 665.7421,-184 665.7421,-205.9489 665.7421,-205.9489"/>
<polygon fill="#000000" stroke="#000000" points="662.2422,-205.9488 665.7421,-215.9489 669.2422,-205.9489 662.2422,-205.9488"/>
</g>
<!-- VisibleFieldsPipe  -->
<g id="node19" class="node">
<title>VisibleFieldsPipe </title>
<polygon fill="#fb8072" stroke="#000000" points="591.5484,-252 472.4516,-252 472.4516,-216 591.5484,-216 591.5484,-252"/>
<text text-anchor="middle" x="532" y="-229.8" font-family="Times,serif" font-size="14.00" fill="#000000">VisibleFieldsPipe </text>
</g>
<!-- FormModule&#45;&gt;VisibleFieldsPipe  -->
<g id="edge18" class="edge">
<title>FormModule&#45;&gt;VisibleFieldsPipe </title>
<path fill="none" stroke="#000000" stroke-dasharray="5,2" d="M728.9552,-180C662.8645,-180 547.375,-180 547.375,-180 547.375,-180 547.375,-205.7181 547.375,-205.7181"/>
<polygon fill="#000000" stroke="#000000" points="543.8751,-205.718 547.375,-215.7181 550.8751,-205.7181 543.8751,-205.718"/>
</g>
<!-- IoModule  -->
<g id="node20" class="node">
<title>IoModule </title>
<polygon fill="#fb8072" stroke="#000000" points="454.211,-252 379.789,-252 379.789,-216 454.211,-216 454.211,-252"/>
<text text-anchor="middle" x="417" y="-229.8" font-family="Times,serif" font-size="14.00" fill="#000000">IoModule </text>
</g>
<!-- FormModule&#45;&gt;IoModule  -->
<g id="edge19" class="edge">
<title>FormModule&#45;&gt;IoModule </title>
<path fill="none" stroke="#000000" stroke-dasharray="5,2" d="M728.7857,-177C632.722,-177 417,-177 417,-177 417,-177 417,-205.9648 417,-205.9648"/>
<polygon fill="#000000" stroke="#000000" points="413.5001,-205.9648 417,-215.9648 420.5001,-205.9649 413.5001,-205.9648"/>
</g>
<!-- ToggleComponent  -->
<g id="node21" class="node">
<title>ToggleComponent </title>
<polygon fill="#fb8072" stroke="#000000" points="361.4912,-252 236.5088,-252 236.5088,-216 361.4912,-216 361.4912,-252"/>
<text text-anchor="middle" x="299" y="-229.8" font-family="Times,serif" font-size="14.00" fill="#000000">ToggleComponent </text>
</g>
<!-- FormModule&#45;&gt;ToggleComponent  -->
<g id="edge20" class="edge">
<title>FormModule&#45;&gt;ToggleComponent </title>
<path fill="none" stroke="#000000" stroke-dasharray="5,2" d="M728.7268,-173C619.5929,-173 350.9557,-173 350.9557,-173 350.9557,-173 350.9557,-205.698 350.9557,-205.698"/>
<polygon fill="#000000" stroke="#000000" points="347.4557,-205.698 350.9557,-215.698 354.4557,-205.698 347.4557,-205.698"/>
</g>
<!-- PopModule -->
<g id="node11" class="node">
<title>PopModule</title>
<polygon fill="#8dd3c7" stroke="#000000" points="340.8331,-122 337.8331,-126 316.8331,-126 313.8331,-122 259.1669,-122 259.1669,-86 340.8331,-86 340.8331,-122"/>
<text text-anchor="middle" x="300" y="-99.8" font-family="Times,serif" font-size="14.00" fill="#000000">PopModule</text>
</g>
<!-- PopModule&#45;&gt;FormModule -->
<g id="edge10" class="edge">
<title>PopModule&#45;&gt;FormModule</title>
<path fill="none" stroke="#000000" d="M300,-122.0336C300,-139.0597 300,-162 300,-162 300,-162 718.9799,-162 718.9799,-162"/>
<polygon fill="#000000" stroke="#000000" points="718.9799,-165.5001 728.9799,-162 718.9799,-158.5001 718.9799,-165.5001"/>
</g>
<!-- IoModule -->
<g id="node12" class="node">
<title>IoModule</title>
<polygon fill="#8dd3c7" stroke="#000000" points="241.7107,-122 238.7107,-126 217.7107,-126 214.7107,-122 170.2893,-122 170.2893,-86 241.7107,-86 241.7107,-122"/>
<text text-anchor="middle" x="206" y="-99.8" font-family="Times,serif" font-size="14.00" fill="#000000">IoModule</text>
</g>
<!-- IoModule&#45;&gt;FormModule -->
<g id="edge11" class="edge">
<title>IoModule&#45;&gt;FormModule</title>
<path fill="none" stroke="#000000" d="M203.5749,-122.2667C203.5749,-140.5552 203.5749,-166 203.5748,-166 203.5748,-166 718.7629,-166 718.7629,-166"/>
<polygon fill="#000000" stroke="#000000" points="718.7629,-169.5001 728.7629,-166 718.7629,-162.5001 718.7629,-169.5001"/>
</g>
<!-- FormService -->
<g id="node22" class="node">
<title>FormService</title>
<ellipse fill="#fdb462" stroke="#000000" cx="85" cy="-104" rx="60.8313" ry="18"/>
<text text-anchor="middle" x="85" y="-99.8" font-family="Times,serif" font-size="14.00" fill="#000000">FormService</text>
</g>
<!-- FormService&#45;&gt;FormModule -->
<g id="edge21" class="edge">
<title>FormService&#45;&gt;FormModule</title>
<path fill="none" stroke="#000000" d="M85,-122.1061C85,-141.3391 85,-169 85,-169 85,-169 719.0586,-169 719.0586,-169"/>
<polygon fill="#000000" stroke="#000000" points="719.0586,-172.5001 729.0586,-169 719.0585,-165.5001 719.0586,-172.5001"/>
</g>
</g>
</svg>
