<?xml version="1.0" encoding="UTF-8" standalone="no"?>
<!DOCTYPE svg PUBLIC "-//W3C//DTD SVG 1.1//EN"
 "http://www.w3.org/Graphics/SVG/1.1/DTD/svg11.dtd">
<!-- Generated by graphviz version 2.40.1 (20161225.0304)
 -->
<!-- Title: dependencies Pages: 1 -->
<svg width="1795pt" height="284pt"
 viewBox="0.00 0.00 1795.00 284.00" xmlns="http://www.w3.org/2000/svg" xmlns:xlink="http://www.w3.org/1999/xlink">
<g id="graph0" class="graph" transform="scale(1 1) rotate(0) translate(4 280)">
<title>dependencies</title>
<polygon fill="#ffffff" stroke="transparent" points="-4,4 -4,-280 1791,-280 1791,4 -4,4"/>
<text text-anchor="start" x="872.5091" y="-42.4" font-family="sans-serif" font-weight="bold" font-size="14.00" fill="#000000">Legend</text>
<polygon fill="#ffffb3" stroke="transparent" points="659.5,-10 659.5,-30 679.5,-30 679.5,-10 659.5,-10"/>
<text text-anchor="start" x="683.129" y="-15.4" font-family="sans-serif" font-size="14.00" fill="#000000"> &#160;Declarations</text>
<polygon fill="#8dd3c7" stroke="transparent" points="772.5,-10 772.5,-30 792.5,-30 792.5,-10 772.5,-10"/>
<text text-anchor="start" x="796.2251" y="-15.4" font-family="sans-serif" font-size="14.00" fill="#000000"> &#160;Module</text>
<polygon fill="#80b1d3" stroke="transparent" points="858.5,-10 858.5,-30 878.5,-30 878.5,-10 858.5,-10"/>
<text text-anchor="start" x="882.2812" y="-15.4" font-family="sans-serif" font-size="14.00" fill="#000000"> &#160;Bootstrap</text>
<polygon fill="#fdb462" stroke="transparent" points="955.5,-10 955.5,-30 975.5,-30 975.5,-10 955.5,-10"/>
<text text-anchor="start" x="979.1732" y="-15.4" font-family="sans-serif" font-size="14.00" fill="#000000"> &#160;Providers</text>
<polygon fill="#fb8072" stroke="transparent" points="1051.5,-10 1051.5,-30 1071.5,-30 1071.5,-10 1051.5,-10"/>
<text text-anchor="start" x="1075.2258" y="-15.4" font-family="sans-serif" font-size="14.00" fill="#000000"> &#160;Exports</text>
<g id="clust1" class="cluster">
<title>cluster_FormModule</title>
<polygon fill="none" stroke="#000000" stroke-dasharray="1,5" points="8,-70 8,-268 1779,-268 1779,-70 8,-70"/>
</g>
<g id="clust2" class="cluster">
<title>cluster_FormModule_declarations</title>
<polygon fill="none" stroke="#000000" points="474,-78 474,-130 1771,-130 1771,-78 474,-78"/>
</g>
<g id="clust12" class="cluster">
<title>cluster_FormModule_imports</title>
<polygon fill="none" stroke="#000000" points="162,-78 162,-130 466,-130 466,-78 162,-78"/>
</g>
<g id="clust13" class="cluster">
<title>cluster_FormModule_exports</title>
<polygon fill="none" stroke="#000000" points="275,-208 275,-260 1445,-260 1445,-208 275,-208"/>
</g>
<g id="clust15" class="cluster">
<title>cluster_FormModule_providers</title>
<polygon fill="none" stroke="#000000" points="16,-78 16,-130 154,-130 154,-78 16,-78"/>
</g>
<!-- FormComponent -->
<g id="node1" class="node">
<title>FormComponent</title>
<polygon fill="#ffffb3" stroke="#000000" points="1762.6667,-122 1651.3333,-122 1651.3333,-86 1762.6667,-86 1762.6667,-122"/>
<text text-anchor="middle" x="1707" y="-99.8" font-family="Times,serif" font-size="14.00" fill="#000000">FormComponent</text>
</g>
<!-- FormModule -->
<g id="node10" class="node">
<title>FormModule</title>
<polygon fill="#8dd3c7" stroke="#000000" points="864.8837,-187 861.8837,-191 840.8837,-191 837.8837,-187 775.1163,-187 775.1163,-151 864.8837,-151 864.8837,-187"/>
<text text-anchor="middle" x="820" y="-164.8" font-family="Times,serif" font-size="14.00" fill="#000000">FormModule</text>
</g>
<!-- FormComponent&#45;&gt;FormModule -->
<g id="edge1" class="edge">
<title>FormComponent&#45;&gt;FormModule</title>
<path fill="none" stroke="#000000" d="M1707,-122.308C1707,-142.1455 1707,-171 1707,-171 1707,-171 874.8997,-171 874.8997,-171"/>
<polygon fill="#000000" stroke="#000000" points="874.8997,-167.5001 864.8997,-171 874.8996,-174.5001 874.8997,-167.5001"/>
</g>
<!-- DefaultInputComponent -->
<g id="node2" class="node">
<title>DefaultInputComponent</title>
<polygon fill="#ffffb3" stroke="#000000" points="1633.3613,-122 1480.6387,-122 1480.6387,-86 1633.3613,-86 1633.3613,-122"/>
<text text-anchor="middle" x="1557" y="-99.8" font-family="Times,serif" font-size="14.00" fill="#000000">DefaultInputComponent</text>
</g>
<!-- DefaultInputComponent&#45;&gt;FormModule -->
<g id="edge2" class="edge">
<title>DefaultInputComponent&#45;&gt;FormModule</title>
<path fill="none" stroke="#000000" d="M1557,-122.1686C1557,-141.0898 1557,-168 1557,-168 1557,-168 874.9932,-168 874.9932,-168"/>
<polygon fill="#000000" stroke="#000000" points="874.9933,-164.5001 864.9932,-168 874.9932,-171.5001 874.9933,-164.5001"/>
</g>
<!-- DefaultOutputComponent -->
<g id="node3" class="node">
<title>DefaultOutputComponent</title>
<polygon fill="#ffffb3" stroke="#000000" points="1462.1979,-122 1299.8021,-122 1299.8021,-86 1462.1979,-86 1462.1979,-122"/>
<text text-anchor="middle" x="1381" y="-99.8" font-family="Times,serif" font-size="14.00" fill="#000000">DefaultOutputComponent</text>
</g>
<!-- DefaultOutputComponent&#45;&gt;FormModule -->
<g id="edge3" class="edge">
<title>DefaultOutputComponent&#45;&gt;FormModule</title>
<path fill="none" stroke="#000000" d="M1312.2447,-122.302C1312.2447,-140.2699 1312.2447,-165 1312.2447,-165 1312.2447,-165 874.9884,-165 874.9884,-165"/>
<polygon fill="#000000" stroke="#000000" points="874.9884,-161.5001 864.9884,-165 874.9883,-168.5001 874.9884,-161.5001"/>
</g>
<!-- DatetimeComponent -->
<g id="node4" class="node">
<title>DatetimeComponent</title>
<polygon fill="#ffffb3" stroke="#000000" points="1282.1457,-122 1149.8543,-122 1149.8543,-86 1282.1457,-86 1282.1457,-122"/>
<text text-anchor="middle" x="1216" y="-99.8" font-family="Times,serif" font-size="14.00" fill="#000000">DatetimeComponent</text>
</g>
<!-- DatetimeComponent&#45;&gt;FormModule -->
<g id="edge4" class="edge">
<title>DatetimeComponent&#45;&gt;FormModule</title>
<path fill="none" stroke="#000000" d="M1158.3024,-122.0352C1158.3024,-138.7344 1158.3024,-161 1158.3024,-161 1158.3024,-161 874.9239,-161 874.9239,-161"/>
<polygon fill="#000000" stroke="#000000" points="874.924,-157.5001 864.9239,-161 874.9239,-164.5001 874.924,-157.5001"/>
</g>
<!-- DatetimePipe -->
<g id="node5" class="node">
<title>DatetimePipe</title>
<polygon fill="#ffffb3" stroke="#000000" points="1132.2008,-122 1039.7992,-122 1039.7992,-86 1132.2008,-86 1132.2008,-122"/>
<text text-anchor="middle" x="1086" y="-99.8" font-family="Times,serif" font-size="14.00" fill="#000000">DatetimePipe</text>
</g>
<!-- DatetimePipe&#45;&gt;FormModule -->
<g id="edge5" class="edge">
<title>DatetimePipe&#45;&gt;FormModule</title>
<path fill="none" stroke="#000000" d="M1046.5247,-122.2819C1046.5247,-137.9478 1046.5247,-158 1046.5247,-158 1046.5247,-158 875.0248,-158 875.0248,-158"/>
<polygon fill="#000000" stroke="#000000" points="875.0249,-154.5001 865.0248,-158 875.0248,-161.5001 875.0249,-154.5001"/>
</g>
<!-- MonthComponent -->
<g id="node6" class="node">
<title>MonthComponent</title>
<polygon fill="#ffffb3" stroke="#000000" points="1022.1681,-122 903.8319,-122 903.8319,-86 1022.1681,-86 1022.1681,-122"/>
<text text-anchor="middle" x="963" y="-99.8" font-family="Times,serif" font-size="14.00" fill="#000000">MonthComponent</text>
</g>
<!-- MonthComponent&#45;&gt;FormModule -->
<g id="edge6" class="edge">
<title>MonthComponent&#45;&gt;FormModule</title>
<path fill="none" stroke="#000000" d="M982.7779,-122.1243C982.7779,-136.7832 982.7779,-155 982.7779,-155 982.7779,-155 874.9107,-155 874.9107,-155"/>
<polygon fill="#000000" stroke="#000000" points="874.9107,-151.5001 864.9107,-155 874.9106,-158.5001 874.9107,-151.5001"/>
</g>
<!-- CalendarComponent -->
<g id="node7" class="node">
<title>CalendarComponent</title>
<polygon fill="#ffffb3" stroke="#000000" points="885.8641,-122 754.1359,-122 754.1359,-86 885.8641,-86 885.8641,-122"/>
<text text-anchor="middle" x="820" y="-99.8" font-family="Times,serif" font-size="14.00" fill="#000000">CalendarComponent</text>
</g>
<!-- CalendarComponent&#45;&gt;FormModule -->
<g id="edge7" class="edge">
<title>CalendarComponent&#45;&gt;FormModule</title>
<path fill="none" stroke="#000000" d="M820,-122.1061C820,-122.1061 820,-140.991 820,-140.991"/>
<polygon fill="#000000" stroke="#000000" points="816.5001,-140.9909 820,-150.991 823.5001,-140.991 816.5001,-140.9909"/>
</g>
<!-- VisibleFieldsPipe -->
<g id="node8" class="node">
<title>VisibleFieldsPipe</title>
<polygon fill="#ffffb3" stroke="#000000" points="735.5493,-122 620.4507,-122 620.4507,-86 735.5493,-86 735.5493,-122"/>
<text text-anchor="middle" x="678" y="-99.8" font-family="Times,serif" font-size="14.00" fill="#000000">VisibleFieldsPipe</text>
</g>
<!-- VisibleFieldsPipe&#45;&gt;FormModule -->
<g id="edge8" class="edge">
<title>VisibleFieldsPipe&#45;&gt;FormModule</title>
<path fill="none" stroke="#000000" d="M682.3139,-122.1243C682.3139,-136.7832 682.3139,-155 682.3139,-155 682.3139,-155 764.9164,-155 764.9164,-155"/>
<polygon fill="#000000" stroke="#000000" points="764.9165,-158.5001 774.9164,-155 764.9164,-151.5001 764.9165,-158.5001"/>
</g>
<!-- ToggleComponent -->
<g id="node9" class="node">
<title>ToggleComponent</title>
<polygon fill="#ffffb3" stroke="#000000" points="602.4902,-122 481.5098,-122 481.5098,-86 602.4902,-86 602.4902,-122"/>
<text text-anchor="middle" x="542" y="-99.8" font-family="Times,serif" font-size="14.00" fill="#000000">ToggleComponent</text>
</g>
<!-- ToggleComponent&#45;&gt;FormModule -->
<g id="edge9" class="edge">
<title>ToggleComponent&#45;&gt;FormModule</title>
<path fill="none" stroke="#000000" d="M560.4855,-122.2819C560.4855,-137.9478 560.4855,-158 560.4855,-158 560.4855,-158 765.0923,-158 765.0923,-158"/>
<polygon fill="#000000" stroke="#000000" points="765.0923,-161.5001 775.0923,-158 765.0923,-154.5001 765.0923,-161.5001"/>
</g>
<!-- FormComponent  -->
<g id="node14" class="node">
<title>FormComponent </title>
<polygon fill="#fb8072" stroke="#000000" points="1436.6663,-252 1321.3337,-252 1321.3337,-216 1436.6663,-216 1436.6663,-252"/>
<text text-anchor="middle" x="1379" y="-229.8" font-family="Times,serif" font-size="14.00" fill="#000000">FormComponent </text>
</g>
<!-- FormModule&#45;&gt;FormComponent  -->
<g id="edge13" class="edge">
<title>FormModule&#45;&gt;FormComponent </title>
<path fill="none" stroke="#000000" stroke-dasharray="5,2" d="M865.2718,-174C998.3505,-174 1379,-174 1379,-174 1379,-174 1379,-205.998 1379,-205.998"/>
<polygon fill="#000000" stroke="#000000" points="1375.5001,-205.998 1379,-215.998 1382.5001,-205.9981 1375.5001,-205.998"/>
</g>
<!-- DatetimeComponent  -->
<g id="node15" class="node">
<title>DatetimeComponent </title>
<polygon fill="#fb8072" stroke="#000000" points="1303.1453,-252 1166.8547,-252 1166.8547,-216 1303.1453,-216 1303.1453,-252"/>
<text text-anchor="middle" x="1235" y="-229.8" font-family="Times,serif" font-size="14.00" fill="#000000">DatetimeComponent </text>
</g>
<!-- FormModule&#45;&gt;DatetimeComponent  -->
<g id="edge14" class="edge">
<title>FormModule&#45;&gt;DatetimeComponent </title>
<path fill="none" stroke="#000000" stroke-dasharray="5,2" d="M865.2378,-178C970.8233,-178 1224.625,-178 1224.625,-178 1224.625,-178 1224.625,-205.973 1224.625,-205.973"/>
<polygon fill="#000000" stroke="#000000" points="1221.1251,-205.973 1224.625,-215.973 1228.1251,-205.973 1221.1251,-205.973"/>
</g>
<!-- DatetimePipe  -->
<g id="node16" class="node">
<title>DatetimePipe </title>
<polygon fill="#fb8072" stroke="#000000" points="1148.7011,-252 1053.2989,-252 1053.2989,-216 1148.7011,-216 1148.7011,-252"/>
<text text-anchor="middle" x="1101" y="-229.8" font-family="Times,serif" font-size="14.00" fill="#000000">DatetimePipe </text>
</g>
<!-- FormModule&#45;&gt;DatetimePipe  -->
<g id="edge15" class="edge">
<title>FormModule&#45;&gt;DatetimePipe </title>
<path fill="none" stroke="#000000" stroke-dasharray="5,2" d="M865.0185,-181C942.4516,-181 1092.625,-181 1092.625,-181 1092.625,-181 1092.625,-205.7604 1092.625,-205.7604"/>
<polygon fill="#000000" stroke="#000000" points="1089.1251,-205.7604 1092.625,-215.7604 1096.1251,-205.7604 1089.1251,-205.7604"/>
</g>
<!-- CalendarComponent  -->
<g id="node17" class="node">
<title>CalendarComponent </title>
<polygon fill="#fb8072" stroke="#000000" points="1034.8645,-252 899.1355,-252 899.1355,-216 1034.8645,-216 1034.8645,-252"/>
<text text-anchor="middle" x="967" y="-229.8" font-family="Times,serif" font-size="14.00" fill="#000000">CalendarComponent </text>
</g>
<!-- FormModule&#45;&gt;CalendarComponent  -->
<g id="edge16" class="edge">
<title>FormModule&#45;&gt;CalendarComponent </title>
<path fill="none" stroke="#000000" stroke-dasharray="5,2" d="M865.1837,-184C900.3512,-184 943.2221,-184 943.2221,-184 943.2221,-184 943.2221,-205.9489 943.2221,-205.9489"/>
<polygon fill="#000000" stroke="#000000" points="939.7222,-205.9488 943.2221,-215.9489 946.7222,-205.9489 939.7222,-205.9488"/>
</g>
<!-- MonthComponent  -->
<g id="node18" class="node">
<title>MonthComponent </title>
<polygon fill="#fb8072" stroke="#000000" points="881.1677,-252 758.8323,-252 758.8323,-216 881.1677,-216 881.1677,-252"/>
<text text-anchor="middle" x="820" y="-229.8" font-family="Times,serif" font-size="14.00" fill="#000000">MonthComponent </text>
</g>
<!-- FormModule&#45;&gt;MonthComponent  -->
<g id="edge17" class="edge">
<title>FormModule&#45;&gt;MonthComponent </title>
<path fill="none" stroke="#000000" stroke-dasharray="5,2" d="M820,-187.1061C820,-187.1061 820,-205.991 820,-205.991"/>
<polygon fill="#000000" stroke="#000000" points="816.5001,-205.9909 820,-215.991 823.5001,-205.991 816.5001,-205.9909"/>
</g>
<!-- PopModule  -->
<g id="node19" class="node">
<title>PopModule </title>
<polygon fill="#fb8072" stroke="#000000" points="740.3326,-252 655.6674,-252 655.6674,-216 740.3326,-216 740.3326,-252"/>
<text text-anchor="middle" x="698" y="-229.8" font-family="Times,serif" font-size="14.00" fill="#000000">PopModule </text>
</g>
<!-- FormModule&#45;&gt;PopModule  -->
<g id="edge18" class="edge">
<title>FormModule&#45;&gt;PopModule </title>
<path fill="none" stroke="#000000" stroke-dasharray="5,2" d="M774.87,-184C744.1512,-184 709.0441,-184 709.0441,-184 709.0441,-184 709.0441,-205.9489 709.0441,-205.9489"/>
<polygon fill="#000000" stroke="#000000" points="705.5442,-205.9488 709.0441,-215.9489 712.5442,-205.9489 705.5442,-205.9488"/>
</g>
<!-- VisibleFieldsPipe  -->
<g id="node20" class="node">
<title>VisibleFieldsPipe </title>
<polygon fill="#fb8072" stroke="#000000" points="637.5484,-252 518.4516,-252 518.4516,-216 637.5484,-216 637.5484,-252"/>
<text text-anchor="middle" x="578" y="-229.8" font-family="Times,serif" font-size="14.00" fill="#000000">VisibleFieldsPipe </text>
</g>
<!-- FormModule&#45;&gt;VisibleFieldsPipe  -->
<g id="edge19" class="edge">
<title>FormModule&#45;&gt;VisibleFieldsPipe </title>
<path fill="none" stroke="#000000" stroke-dasharray="5,2" d="M774.706,-181C718.1878,-181 628.875,-181 628.875,-181 628.875,-181 628.875,-205.7604 628.875,-205.7604"/>
<polygon fill="#000000" stroke="#000000" points="625.3751,-205.7604 628.875,-215.7604 632.3751,-205.7604 625.3751,-205.7604"/>
</g>
<!-- IoModule  -->
<g id="node21" class="node">
<title>IoModule </title>
<polygon fill="#fb8072" stroke="#000000" points="500.211,-252 425.789,-252 425.789,-216 500.211,-216 500.211,-252"/>
<text text-anchor="middle" x="463" y="-229.8" font-family="Times,serif" font-size="14.00" fill="#000000">IoModule </text>
</g>
<!-- FormModule&#45;&gt;IoModule  -->
<g id="edge20" class="edge">
<title>FormModule&#45;&gt;IoModule </title>
<path fill="none" stroke="#000000" stroke-dasharray="5,2" d="M774.9342,-178C684.8102,-178 490.9301,-178 490.9301,-178 490.9301,-178 490.9301,-205.973 490.9301,-205.973"/>
<polygon fill="#000000" stroke="#000000" points="487.4301,-205.973 490.9301,-215.973 494.4301,-205.973 487.4301,-205.973"/>
</g>
<!-- ToggleComponent  -->
<g id="node22" class="node">
<title>ToggleComponent </title>
<polygon fill="#fb8072" stroke="#000000" points="407.4912,-252 282.5088,-252 282.5088,-216 407.4912,-216 407.4912,-252"/>
<text text-anchor="middle" x="345" y="-229.8" font-family="Times,serif" font-size="14.00" fill="#000000">ToggleComponent </text>
</g>
<!-- FormModule&#45;&gt;ToggleComponent  -->
<g id="edge21" class="edge">
<title>FormModule&#45;&gt;ToggleComponent </title>
<path fill="none" stroke="#000000" stroke-dasharray="5,2" d="M774.9833,-174C665.0419,-174 391.7895,-174 391.7895,-174 391.7895,-174 391.7895,-205.998 391.7895,-205.998"/>
<polygon fill="#000000" stroke="#000000" points="388.2895,-205.998 391.7895,-215.998 395.2895,-205.9981 388.2895,-205.998"/>
</g>
<!-- PopModule -->
<g id="node11" class="node">
<title>PopModule</title>
<polygon fill="#8dd3c7" stroke="#000000" points="457.8331,-122 454.8331,-126 433.8331,-126 430.8331,-122 376.1669,-122 376.1669,-86 457.8331,-86 457.8331,-122"/>
<text text-anchor="middle" x="417" y="-99.8" font-family="Times,serif" font-size="14.00" fill="#000000">PopModule</text>
</g>
<!-- PopModule&#45;&gt;FormModule -->
<g id="edge10" class="edge">
<title>PopModule&#45;&gt;FormModule</title>
<path fill="none" stroke="#000000" d="M441.6555,-122.0352C441.6555,-138.7344 441.6555,-161 441.6555,-161 441.6555,-161 765.1132,-161 765.1132,-161"/>
<polygon fill="#000000" stroke="#000000" points="765.1132,-164.5001 775.1132,-161 765.1131,-157.5001 765.1132,-164.5001"/>
</g>
<!-- IoModule -->
<g id="node12" class="node">
<title>IoModule</title>
<polygon fill="#8dd3c7" stroke="#000000" points="358.7107,-122 355.7107,-126 334.7107,-126 331.7107,-122 287.2893,-122 287.2893,-86 358.7107,-86 358.7107,-122"/>
<text text-anchor="middle" x="323" y="-99.8" font-family="Times,serif" font-size="14.00" fill="#000000">IoModule</text>
</g>
<!-- IoModule&#45;&gt;FormModule -->
<g id="edge11" class="edge">
<title>IoModule&#45;&gt;FormModule</title>
<path fill="none" stroke="#000000" d="M323,-122.302C323,-140.2699 323,-165 323,-165 323,-165 765.018,-165 765.018,-165"/>
<polygon fill="#000000" stroke="#000000" points="765.018,-168.5001 775.018,-165 765.018,-161.5001 765.018,-168.5001"/>
</g>
<!-- LoaderModule -->
<g id="node13" class="node">
<title>LoaderModule</title>
<polygon fill="#8dd3c7" stroke="#000000" points="269.6924,-122 266.6924,-126 245.6924,-126 242.6924,-122 170.3076,-122 170.3076,-86 269.6924,-86 269.6924,-122"/>
<text text-anchor="middle" x="220" y="-99.8" font-family="Times,serif" font-size="14.00" fill="#000000">LoaderModule</text>
</g>
<!-- LoaderModule&#45;&gt;FormModule -->
<g id="edge12" class="edge">
<title>LoaderModule&#45;&gt;FormModule</title>
<path fill="none" stroke="#000000" d="M220,-122.1686C220,-141.0898 220,-168 220,-168 220,-168 764.9025,-168 764.9025,-168"/>
<polygon fill="#000000" stroke="#000000" points="764.9025,-171.5001 774.9025,-168 764.9024,-164.5001 764.9025,-171.5001"/>
</g>
<!-- FormService -->
<g id="node23" class="node">
<title>FormService</title>
<ellipse fill="#fdb462" stroke="#000000" cx="85" cy="-104" rx="60.8313" ry="18"/>
<text text-anchor="middle" x="85" y="-99.8" font-family="Times,serif" font-size="14.00" fill="#000000">FormService</text>
</g>
<!-- FormService&#45;&gt;FormModule -->
<g id="edge22" class="edge">
<title>FormService&#45;&gt;FormModule</title>
<path fill="none" stroke="#000000" d="M85,-122.308C85,-142.1455 85,-171 85,-171 85,-171 764.8534,-171 764.8534,-171"/>
<polygon fill="#000000" stroke="#000000" points="764.8534,-174.5001 774.8534,-171 764.8533,-167.5001 764.8534,-174.5001"/>
</g>
</g>
</svg>
