<?xml version="1.0" encoding="UTF-8" standalone="no"?>
<!DOCTYPE svg PUBLIC "-//W3C//DTD SVG 1.1//EN"
 "http://www.w3.org/Graphics/SVG/1.1/DTD/svg11.dtd">
<!-- Generated by graphviz version 2.40.1 (20161225.0304)
 -->
<!-- Title: dependencies Pages: 1 -->
<svg width="1524pt" height="284pt"
 viewBox="0.00 0.00 1524.00 284.00" xmlns="http://www.w3.org/2000/svg" xmlns:xlink="http://www.w3.org/1999/xlink">
<g id="graph0" class="graph" transform="scale(1 1) rotate(0) translate(4 280)">
<title>dependencies</title>
<polygon fill="#ffffff" stroke="transparent" points="-4,4 -4,-280 1520,-280 1520,4 -4,4"/>
<text text-anchor="start" x="737.0091" y="-42.4" font-family="sans-serif" font-weight="bold" font-size="14.00" fill="#000000">Legend</text>
<polygon fill="#ffffb3" stroke="transparent" points="524,-10 524,-30 544,-30 544,-10 524,-10"/>
<text text-anchor="start" x="547.629" y="-15.4" font-family="sans-serif" font-size="14.00" fill="#000000"> &#160;Declarations</text>
<polygon fill="#8dd3c7" stroke="transparent" points="637,-10 637,-30 657,-30 657,-10 637,-10"/>
<text text-anchor="start" x="660.7251" y="-15.4" font-family="sans-serif" font-size="14.00" fill="#000000"> &#160;Module</text>
<polygon fill="#80b1d3" stroke="transparent" points="723,-10 723,-30 743,-30 743,-10 723,-10"/>
<text text-anchor="start" x="746.7812" y="-15.4" font-family="sans-serif" font-size="14.00" fill="#000000"> &#160;Bootstrap</text>
<polygon fill="#fdb462" stroke="transparent" points="820,-10 820,-30 840,-30 840,-10 820,-10"/>
<text text-anchor="start" x="843.6732" y="-15.4" font-family="sans-serif" font-size="14.00" fill="#000000"> &#160;Providers</text>
<polygon fill="#fb8072" stroke="transparent" points="916,-10 916,-30 936,-30 936,-10 916,-10"/>
<text text-anchor="start" x="939.7258" y="-15.4" font-family="sans-serif" font-size="14.00" fill="#000000"> &#160;Exports</text>
<g id="clust1" class="cluster">
<title>cluster_FormModule</title>
<polygon fill="none" stroke="#000000" stroke-dasharray="1,5" points="8,-70 8,-268 1508,-268 1508,-70 8,-70"/>
</g>
<g id="clust2" class="cluster">
<title>cluster_FormModule_declarations</title>
<polygon fill="none" stroke="#000000" points="357,-78 357,-130 1500,-130 1500,-78 357,-78"/>
</g>
<g id="clust11" class="cluster">
<title>cluster_FormModule_imports</title>
<polygon fill="none" stroke="#000000" points="162,-78 162,-130 349,-130 349,-78 162,-78"/>
</g>
<g id="clust12" class="cluster">
<title>cluster_FormModule_exports</title>
<polygon fill="none" stroke="#000000" points="216,-208 216,-260 1226,-260 1226,-208 216,-208"/>
</g>
<g id="clust14" class="cluster">
<title>cluster_FormModule_providers</title>
<polygon fill="none" stroke="#000000" points="16,-78 16,-130 154,-130 154,-78 16,-78"/>
</g>
<!-- FormComponent -->
<g id="node1" class="node">
<title>FormComponent</title>
<polygon fill="#ffffb3" stroke="#000000" points="1491.6667,-122 1380.3333,-122 1380.3333,-86 1491.6667,-86 1491.6667,-122"/>
<text text-anchor="middle" x="1436" y="-99.8" font-family="Times,serif" font-size="14.00" fill="#000000">FormComponent</text>
</g>
<!-- FormModule -->
<g id="node9" class="node">
<title>FormModule</title>
<polygon fill="#8dd3c7" stroke="#000000" points="725.8837,-187 722.8837,-191 701.8837,-191 698.8837,-187 636.1163,-187 636.1163,-151 725.8837,-151 725.8837,-187"/>
<text text-anchor="middle" x="681" y="-164.8" font-family="Times,serif" font-size="14.00" fill="#000000">FormModule</text>
</g>
<!-- FormComponent&#45;&gt;FormModule -->
<g id="edge1" class="edge">
<title>FormComponent&#45;&gt;FormModule</title>
<path fill="none" stroke="#000000" d="M1436,-122.308C1436,-142.1455 1436,-171 1436,-171 1436,-171 735.9677,-171 735.9677,-171"/>
<polygon fill="#000000" stroke="#000000" points="735.9677,-167.5001 725.9677,-171 735.9676,-174.5001 735.9677,-167.5001"/>
</g>
<!-- DefaultInputComponent -->
<g id="node2" class="node">
<title>DefaultInputComponent</title>
<polygon fill="#ffffb3" stroke="#000000" points="1362.3613,-122 1209.6387,-122 1209.6387,-86 1362.3613,-86 1362.3613,-122"/>
<text text-anchor="middle" x="1286" y="-99.8" font-family="Times,serif" font-size="14.00" fill="#000000">DefaultInputComponent</text>
</g>
<!-- DefaultInputComponent&#45;&gt;FormModule -->
<g id="edge2" class="edge">
<title>DefaultInputComponent&#45;&gt;FormModule</title>
<path fill="none" stroke="#000000" d="M1213.5763,-122.2222C1213.5763,-140.8285 1213.5763,-167 1213.5763,-167 1213.5763,-167 735.9482,-167 735.9482,-167"/>
<polygon fill="#000000" stroke="#000000" points="735.9482,-163.5001 725.9482,-167 735.9481,-170.5001 735.9482,-163.5001"/>
</g>
<!-- DefaultOutputComponent -->
<g id="node3" class="node">
<title>DefaultOutputComponent</title>
<polygon fill="#ffffb3" stroke="#000000" points="1191.1979,-122 1028.8021,-122 1028.8021,-86 1191.1979,-86 1191.1979,-122"/>
<text text-anchor="middle" x="1110" y="-99.8" font-family="Times,serif" font-size="14.00" fill="#000000">DefaultOutputComponent</text>
</g>
<!-- DefaultOutputComponent&#45;&gt;FormModule -->
<g id="edge3" class="edge">
<title>DefaultOutputComponent&#45;&gt;FormModule</title>
<path fill="none" stroke="#000000" d="M1056.7106,-122.0225C1056.7106,-139.3734 1056.7106,-163 1056.7106,-163 1056.7106,-163 735.9463,-163 735.9463,-163"/>
<polygon fill="#000000" stroke="#000000" points="735.9463,-159.5001 725.9463,-163 735.9463,-166.5001 735.9463,-159.5001"/>
</g>
<!-- SelectComponent -->
<g id="node4" class="node">
<title>SelectComponent</title>
<polygon fill="#ffffb3" stroke="#000000" points="1010.5409,-122 895.4591,-122 895.4591,-86 1010.5409,-86 1010.5409,-122"/>
<text text-anchor="middle" x="953" y="-99.8" font-family="Times,serif" font-size="14.00" fill="#000000">SelectComponent</text>
</g>
<!-- SelectComponent&#45;&gt;FormModule -->
<g id="edge4" class="edge">
<title>SelectComponent&#45;&gt;FormModule</title>
<path fill="none" stroke="#000000" d="M921.1513,-122.0091C921.1513,-138.0494 921.1513,-159 921.1513,-159 921.1513,-159 735.8889,-159 735.8889,-159"/>
<polygon fill="#000000" stroke="#000000" points="735.8889,-155.5001 725.8889,-159 735.8889,-162.5001 735.8889,-155.5001"/>
</g>
<!-- DatetimeComponent -->
<g id="node5" class="node">
<title>DatetimeComponent</title>
<polygon fill="#ffffb3" stroke="#000000" points="877.1457,-122 744.8543,-122 744.8543,-86 877.1457,-86 877.1457,-122"/>
<text text-anchor="middle" x="811" y="-99.8" font-family="Times,serif" font-size="14.00" fill="#000000">DatetimeComponent</text>
</g>
<!-- DatetimeComponent&#45;&gt;FormModule -->
<g id="edge5" class="edge">
<title>DatetimeComponent&#45;&gt;FormModule</title>
<path fill="none" stroke="#000000" d="M768.7639,-122.1243C768.7639,-136.7832 768.7639,-155 768.7639,-155 768.7639,-155 735.9103,-155 735.9103,-155"/>
<polygon fill="#000000" stroke="#000000" points="735.9104,-151.5001 725.9103,-155 735.9103,-158.5001 735.9104,-151.5001"/>
</g>
<!-- DatetimePipe -->
<g id="node6" class="node">
<title>DatetimePipe</title>
<polygon fill="#ffffb3" stroke="#000000" points="727.2008,-122 634.7992,-122 634.7992,-86 727.2008,-86 727.2008,-122"/>
<text text-anchor="middle" x="681" y="-99.8" font-family="Times,serif" font-size="14.00" fill="#000000">DatetimePipe</text>
</g>
<!-- DatetimePipe&#45;&gt;FormModule -->
<g id="edge6" class="edge">
<title>DatetimePipe&#45;&gt;FormModule</title>
<path fill="none" stroke="#000000" d="M681,-122.1061C681,-122.1061 681,-140.991 681,-140.991"/>
<polygon fill="#000000" stroke="#000000" points="677.5001,-140.9909 681,-150.991 684.5001,-140.991 677.5001,-140.9909"/>
</g>
<!-- MonthComponent -->
<g id="node7" class="node">
<title>MonthComponent</title>
<polygon fill="#ffffb3" stroke="#000000" points="617.1681,-122 498.8319,-122 498.8319,-86 617.1681,-86 617.1681,-122"/>
<text text-anchor="middle" x="558" y="-99.8" font-family="Times,serif" font-size="14.00" fill="#000000">MonthComponent</text>
</g>
<!-- MonthComponent&#45;&gt;FormModule -->
<g id="edge7" class="edge">
<title>MonthComponent&#45;&gt;FormModule</title>
<path fill="none" stroke="#000000" d="M587.125,-122.1243C587.125,-136.7832 587.125,-155 587.125,-155 587.125,-155 625.9872,-155 625.9872,-155"/>
<polygon fill="#000000" stroke="#000000" points="625.9872,-158.5001 635.9872,-155 625.9872,-151.5001 625.9872,-158.5001"/>
</g>
<!-- VisibleFieldsPipe -->
<g id="node8" class="node">
<title>VisibleFieldsPipe</title>
<polygon fill="#ffffb3" stroke="#000000" points="480.5493,-122 365.4507,-122 365.4507,-86 480.5493,-86 480.5493,-122"/>
<text text-anchor="middle" x="423" y="-99.8" font-family="Times,serif" font-size="14.00" fill="#000000">VisibleFieldsPipe</text>
</g>
<!-- VisibleFieldsPipe&#45;&gt;FormModule -->
<g id="edge8" class="edge">
<title>VisibleFieldsPipe&#45;&gt;FormModule</title>
<path fill="none" stroke="#000000" d="M467.179,-122.0091C467.179,-138.0494 467.179,-159 467.179,-159 467.179,-159 625.9153,-159 625.9153,-159"/>
<polygon fill="#000000" stroke="#000000" points="625.9154,-162.5001 635.9153,-159 625.9153,-155.5001 625.9154,-162.5001"/>
</g>
<!-- FormComponent  -->
<g id="node12" class="node">
<title>FormComponent </title>
<polygon fill="#fb8072" stroke="#000000" points="1217.6663,-252 1102.3337,-252 1102.3337,-216 1217.6663,-216 1217.6663,-252"/>
<text text-anchor="middle" x="1160" y="-229.8" font-family="Times,serif" font-size="14.00" fill="#000000">FormComponent </text>
</g>
<!-- FormModule&#45;&gt;FormComponent  -->
<g id="edge11" class="edge">
<title>FormModule&#45;&gt;FormComponent </title>
<path fill="none" stroke="#000000" stroke-dasharray="5,2" d="M726.082,-175C842.9694,-175 1146.7579,-175 1146.7579,-175 1146.7579,-175 1146.7579,-205.9775 1146.7579,-205.9775"/>
<polygon fill="#000000" stroke="#000000" points="1143.258,-205.9774 1146.7579,-215.9775 1150.258,-205.9775 1143.258,-205.9774"/>
</g>
<!-- SelectComponent  -->
<g id="node13" class="node">
<title>SelectComponent </title>
<polygon fill="#fb8072" stroke="#000000" points="1084.54,-252 965.46,-252 965.46,-216 1084.54,-216 1084.54,-252"/>
<text text-anchor="middle" x="1025" y="-229.8" font-family="Times,serif" font-size="14.00" fill="#000000">SelectComponent </text>
</g>
<!-- FormModule&#45;&gt;SelectComponent  -->
<g id="edge12" class="edge">
<title>FormModule&#45;&gt;SelectComponent </title>
<path fill="none" stroke="#000000" stroke-dasharray="5,2" d="M725.9875,-179C811.2945,-179 988.125,-179 988.125,-179 988.125,-179 988.125,-205.9909 988.125,-205.9909"/>
<polygon fill="#000000" stroke="#000000" points="984.6251,-205.9909 988.125,-215.9909 991.6251,-205.991 984.6251,-205.9909"/>
</g>
<!-- DatetimeComponent  -->
<g id="node14" class="node">
<title>DatetimeComponent </title>
<polygon fill="#fb8072" stroke="#000000" points="947.1453,-252 810.8547,-252 810.8547,-216 947.1453,-216 947.1453,-252"/>
<text text-anchor="middle" x="879" y="-229.8" font-family="Times,serif" font-size="14.00" fill="#000000">DatetimeComponent </text>
</g>
<!-- FormModule&#45;&gt;DatetimeComponent  -->
<g id="edge13" class="edge">
<title>FormModule&#45;&gt;DatetimeComponent </title>
<path fill="none" stroke="#000000" stroke-dasharray="5,2" d="M726.0064,-183C774.2905,-183 844.125,-183 844.125,-183 844.125,-183 844.125,-205.8757 844.125,-205.8757"/>
<polygon fill="#000000" stroke="#000000" points="840.6251,-205.8757 844.125,-215.8757 847.6251,-205.8757 840.6251,-205.8757"/>
</g>
<!-- DatetimePipe  -->
<g id="node15" class="node">
<title>DatetimePipe </title>
<polygon fill="#fb8072" stroke="#000000" points="792.7011,-252 697.2989,-252 697.2989,-216 792.7011,-216 792.7011,-252"/>
<text text-anchor="middle" x="745" y="-229.8" font-family="Times,serif" font-size="14.00" fill="#000000">DatetimePipe </text>
</g>
<!-- FormModule&#45;&gt;DatetimePipe  -->
<g id="edge14" class="edge">
<title>FormModule&#45;&gt;DatetimePipe </title>
<path fill="none" stroke="#000000" stroke-dasharray="5,2" d="M711.5458,-187.1061C711.5458,-187.1061 711.5458,-205.991 711.5458,-205.991"/>
<polygon fill="#000000" stroke="#000000" points="708.0458,-205.9909 711.5458,-215.991 715.0458,-205.991 708.0458,-205.9909"/>
</g>
<!-- MonthComponent  -->
<g id="node16" class="node">
<title>MonthComponent </title>
<polygon fill="#fb8072" stroke="#000000" points="679.1677,-252 556.8323,-252 556.8323,-216 679.1677,-216 679.1677,-252"/>
<text text-anchor="middle" x="618" y="-229.8" font-family="Times,serif" font-size="14.00" fill="#000000">MonthComponent </text>
</g>
<!-- FormModule&#45;&gt;MonthComponent  -->
<g id="edge15" class="edge">
<title>FormModule&#45;&gt;MonthComponent </title>
<path fill="none" stroke="#000000" stroke-dasharray="5,2" d="M657.571,-187.1061C657.571,-187.1061 657.571,-205.991 657.571,-205.991"/>
<polygon fill="#000000" stroke="#000000" points="654.0711,-205.9909 657.571,-215.991 661.0711,-205.991 654.0711,-205.9909"/>
</g>
<!-- PopModule  -->
<g id="node17" class="node">
<title>PopModule </title>
<polygon fill="#fb8072" stroke="#000000" points="538.3326,-252 453.6674,-252 453.6674,-216 538.3326,-216 538.3326,-252"/>
<text text-anchor="middle" x="496" y="-229.8" font-family="Times,serif" font-size="14.00" fill="#000000">PopModule </text>
</g>
<!-- FormModule&#45;&gt;PopModule  -->
<g id="edge16" class="edge">
<title>FormModule&#45;&gt;PopModule </title>
<path fill="none" stroke="#000000" stroke-dasharray="5,2" d="M635.7462,-183C587.6759,-183 518.5412,-183 518.5412,-183 518.5412,-183 518.5412,-205.8757 518.5412,-205.8757"/>
<polygon fill="#000000" stroke="#000000" points="515.0413,-205.8757 518.5412,-215.8757 522.0413,-205.8757 515.0413,-205.8757"/>
</g>
<!-- VisibleFieldsPipe  -->
<g id="node18" class="node">
<title>VisibleFieldsPipe </title>
<polygon fill="#fb8072" stroke="#000000" points="435.5484,-252 316.4516,-252 316.4516,-216 435.5484,-216 435.5484,-252"/>
<text text-anchor="middle" x="376" y="-229.8" font-family="Times,serif" font-size="14.00" fill="#000000">VisibleFieldsPipe </text>
</g>
<!-- FormModule&#45;&gt;VisibleFieldsPipe  -->
<g id="edge17" class="edge">
<title>FormModule&#45;&gt;VisibleFieldsPipe </title>
<path fill="none" stroke="#000000" stroke-dasharray="5,2" d="M635.9127,-179C556.5866,-179 400.375,-179 400.375,-179 400.375,-179 400.375,-205.9909 400.375,-205.9909"/>
<polygon fill="#000000" stroke="#000000" points="396.8751,-205.9909 400.375,-215.9909 403.8751,-205.991 396.8751,-205.9909"/>
</g>
<!-- IoModule  -->
<g id="node19" class="node">
<title>IoModule </title>
<polygon fill="#fb8072" stroke="#000000" points="298.211,-252 223.789,-252 223.789,-216 298.211,-216 298.211,-252"/>
<text text-anchor="middle" x="261" y="-229.8" font-family="Times,serif" font-size="14.00" fill="#000000">IoModule </text>
</g>
<!-- FormModule&#45;&gt;IoModule  -->
<g id="edge18" class="edge">
<title>FormModule&#45;&gt;IoModule </title>
<path fill="none" stroke="#000000" stroke-dasharray="5,2" d="M636.0383,-175C531.0972,-175 278.8445,-175 278.8445,-175 278.8445,-175 278.8445,-205.9775 278.8445,-205.9775"/>
<polygon fill="#000000" stroke="#000000" points="275.3446,-205.9774 278.8445,-215.9775 282.3446,-205.9775 275.3446,-205.9774"/>
</g>
<!-- PopModule -->
<g id="node10" class="node">
<title>PopModule</title>
<polygon fill="#8dd3c7" stroke="#000000" points="340.8331,-122 337.8331,-126 316.8331,-126 313.8331,-122 259.1669,-122 259.1669,-86 340.8331,-86 340.8331,-122"/>
<text text-anchor="middle" x="300" y="-99.8" font-family="Times,serif" font-size="14.00" fill="#000000">PopModule</text>
</g>
<!-- PopModule&#45;&gt;FormModule -->
<g id="edge9" class="edge">
<title>PopModule&#45;&gt;FormModule</title>
<path fill="none" stroke="#000000" d="M328.571,-122.0225C328.571,-139.3734 328.571,-163 328.571,-163 328.571,-163 626.0067,-163 626.0067,-163"/>
<polygon fill="#000000" stroke="#000000" points="626.0067,-166.5001 636.0067,-163 626.0066,-159.5001 626.0067,-166.5001"/>
</g>
<!-- IoModule -->
<g id="node11" class="node">
<title>IoModule</title>
<polygon fill="#8dd3c7" stroke="#000000" points="241.7107,-122 238.7107,-126 217.7107,-126 214.7107,-122 170.2893,-122 170.2893,-86 241.7107,-86 241.7107,-122"/>
<text text-anchor="middle" x="206" y="-99.8" font-family="Times,serif" font-size="14.00" fill="#000000">IoModule</text>
</g>
<!-- IoModule&#45;&gt;FormModule -->
<g id="edge10" class="edge">
<title>IoModule&#45;&gt;FormModule</title>
<path fill="none" stroke="#000000" d="M232.625,-122.2222C232.625,-140.8285 232.625,-167 232.625,-167 232.625,-167 625.9552,-167 625.9552,-167"/>
<polygon fill="#000000" stroke="#000000" points="625.9552,-170.5001 635.9552,-167 625.9551,-163.5001 625.9552,-170.5001"/>
</g>
<!-- FormService -->
<g id="node20" class="node">
<title>FormService</title>
<ellipse fill="#fdb462" stroke="#000000" cx="85" cy="-104" rx="60.8313" ry="18"/>
<text text-anchor="middle" x="85" y="-99.8" font-family="Times,serif" font-size="14.00" fill="#000000">FormService</text>
</g>
<!-- FormService&#45;&gt;FormModule -->
<g id="edge19" class="edge">
<title>FormService&#45;&gt;FormModule</title>
<path fill="none" stroke="#000000" d="M85,-122.308C85,-142.1455 85,-171 85,-171 85,-171 625.7139,-171 625.7139,-171"/>
<polygon fill="#000000" stroke="#000000" points="625.714,-174.5001 635.7139,-171 625.7139,-167.5001 625.714,-174.5001"/>
</g>
</g>
</svg>
