<?xml version="1.0" encoding="UTF-8" standalone="no"?>
<!DOCTYPE svg PUBLIC "-//W3C//DTD SVG 1.1//EN"
 "http://www.w3.org/Graphics/SVG/1.1/DTD/svg11.dtd">
<!-- Generated by graphviz version 2.40.1 (20161225.0304)
 -->
<!-- Title: dependencies Pages: 1 -->
<svg width="1390pt" height="284pt"
 viewBox="0.00 0.00 1390.00 284.00" xmlns="http://www.w3.org/2000/svg" xmlns:xlink="http://www.w3.org/1999/xlink">
<g id="graph0" class="graph" transform="scale(1 1) rotate(0) translate(4 280)">
<title>dependencies</title>
<polygon fill="#ffffff" stroke="transparent" points="-4,4 -4,-280 1386,-280 1386,4 -4,4"/>
<text text-anchor="start" x="670.0091" y="-42.4" font-family="sans-serif" font-weight="bold" font-size="14.00" fill="#000000">Legend</text>
<polygon fill="#ffffb3" stroke="transparent" points="457,-10 457,-30 477,-30 477,-10 457,-10"/>
<text text-anchor="start" x="480.629" y="-15.4" font-family="sans-serif" font-size="14.00" fill="#000000"> &#160;Declarations</text>
<polygon fill="#8dd3c7" stroke="transparent" points="570,-10 570,-30 590,-30 590,-10 570,-10"/>
<text text-anchor="start" x="593.7251" y="-15.4" font-family="sans-serif" font-size="14.00" fill="#000000"> &#160;Module</text>
<polygon fill="#80b1d3" stroke="transparent" points="656,-10 656,-30 676,-30 676,-10 656,-10"/>
<text text-anchor="start" x="679.7812" y="-15.4" font-family="sans-serif" font-size="14.00" fill="#000000"> &#160;Bootstrap</text>
<polygon fill="#fdb462" stroke="transparent" points="753,-10 753,-30 773,-30 773,-10 753,-10"/>
<text text-anchor="start" x="776.6732" y="-15.4" font-family="sans-serif" font-size="14.00" fill="#000000"> &#160;Providers</text>
<polygon fill="#fb8072" stroke="transparent" points="849,-10 849,-30 869,-30 869,-10 849,-10"/>
<text text-anchor="start" x="872.7258" y="-15.4" font-family="sans-serif" font-size="14.00" fill="#000000"> &#160;Exports</text>
<g id="clust1" class="cluster">
<title>cluster_FormModule</title>
<polygon fill="none" stroke="#000000" stroke-dasharray="1,5" points="8,-70 8,-268 1374,-268 1374,-70 8,-70"/>
</g>
<g id="clust2" class="cluster">
<title>cluster_FormModule_declarations</title>
<polygon fill="none" stroke="#000000" points="357,-78 357,-130 1366,-130 1366,-78 357,-78"/>
</g>
<g id="clust10" class="cluster">
<title>cluster_FormModule_imports</title>
<polygon fill="none" stroke="#000000" points="162,-78 162,-130 349,-130 349,-78 162,-78"/>
</g>
<g id="clust11" class="cluster">
<title>cluster_FormModule_exports</title>
<polygon fill="none" stroke="#000000" points="217,-208 217,-260 1090,-260 1090,-208 217,-208"/>
</g>
<g id="clust13" class="cluster">
<title>cluster_FormModule_providers</title>
<polygon fill="none" stroke="#000000" points="16,-78 16,-130 154,-130 154,-78 16,-78"/>
</g>
<!-- FormComponent -->
<g id="node1" class="node">
<title>FormComponent</title>
<polygon fill="#ffffb3" stroke="#000000" points="1357.6667,-122 1246.3333,-122 1246.3333,-86 1357.6667,-86 1357.6667,-122"/>
<text text-anchor="middle" x="1302" y="-99.8" font-family="Times,serif" font-size="14.00" fill="#000000">FormComponent</text>
</g>
<!-- FormModule -->
<g id="node8" class="node">
<title>FormModule</title>
<polygon fill="#8dd3c7" stroke="#000000" points="663.8837,-187 660.8837,-191 639.8837,-191 636.8837,-187 574.1163,-187 574.1163,-151 663.8837,-151 663.8837,-187"/>
<text text-anchor="middle" x="619" y="-164.8" font-family="Times,serif" font-size="14.00" fill="#000000">FormModule</text>
</g>
<!-- FormComponent&#45;&gt;FormModule -->
<g id="edge1" class="edge">
<title>FormComponent&#45;&gt;FormModule</title>
<path fill="none" stroke="#000000" d="M1302,-122.1061C1302,-141.3391 1302,-169 1302,-169 1302,-169 674.0777,-169 674.0777,-169"/>
<polygon fill="#000000" stroke="#000000" points="674.0777,-165.5001 664.0777,-169 674.0776,-172.5001 674.0777,-165.5001"/>
</g>
<!-- DefaultInputComponent -->
<g id="node2" class="node">
<title>DefaultInputComponent</title>
<polygon fill="#ffffb3" stroke="#000000" points="1228.3613,-122 1075.6387,-122 1075.6387,-86 1228.3613,-86 1228.3613,-122"/>
<text text-anchor="middle" x="1152" y="-99.8" font-family="Times,serif" font-size="14.00" fill="#000000">DefaultInputComponent</text>
</g>
<!-- DefaultInputComponent&#45;&gt;FormModule -->
<g id="edge2" class="edge">
<title>DefaultInputComponent&#45;&gt;FormModule</title>
<path fill="none" stroke="#000000" d="M1155.0069,-122.302C1155.0069,-140.2699 1155.0069,-165 1155.0069,-165 1155.0069,-165 674.2377,-165 674.2377,-165"/>
<polygon fill="#000000" stroke="#000000" points="674.2377,-161.5001 664.2377,-165 674.2377,-168.5001 674.2377,-161.5001"/>
</g>
<!-- DefaultOutputComponent -->
<g id="node3" class="node">
<title>DefaultOutputComponent</title>
<polygon fill="#ffffb3" stroke="#000000" points="1057.1979,-122 894.8021,-122 894.8021,-86 1057.1979,-86 1057.1979,-122"/>
<text text-anchor="middle" x="976" y="-99.8" font-family="Times,serif" font-size="14.00" fill="#000000">DefaultOutputComponent</text>
</g>
<!-- DefaultOutputComponent&#45;&gt;FormModule -->
<g id="edge3" class="edge">
<title>DefaultOutputComponent&#45;&gt;FormModule</title>
<path fill="none" stroke="#000000" d="M921.4869,-122.027C921.4869,-138.3976 921.4869,-160 921.4869,-160 921.4869,-160 673.9587,-160 673.9587,-160"/>
<polygon fill="#000000" stroke="#000000" points="673.9587,-156.5001 663.9587,-160 673.9587,-163.5001 673.9587,-156.5001"/>
</g>
<!-- DatetimeComponent -->
<g id="node4" class="node">
<title>DatetimeComponent</title>
<polygon fill="#ffffb3" stroke="#000000" points="877.1457,-122 744.8543,-122 744.8543,-86 877.1457,-86 877.1457,-122"/>
<text text-anchor="middle" x="811" y="-99.8" font-family="Times,serif" font-size="14.00" fill="#000000">DatetimeComponent</text>
</g>
<!-- DatetimeComponent&#45;&gt;FormModule -->
<g id="edge4" class="edge">
<title>DatetimeComponent&#45;&gt;FormModule</title>
<path fill="none" stroke="#000000" d="M769.2639,-122.1871C769.2639,-137.1824 769.2639,-156 769.2639,-156 769.2639,-156 674.0841,-156 674.0841,-156"/>
<polygon fill="#000000" stroke="#000000" points="674.0841,-152.5001 664.0841,-156 674.0841,-159.5001 674.0841,-152.5001"/>
</g>
<!-- DatetimePipe -->
<g id="node5" class="node">
<title>DatetimePipe</title>
<polygon fill="#ffffb3" stroke="#000000" points="727.2008,-122 634.7992,-122 634.7992,-86 727.2008,-86 727.2008,-122"/>
<text text-anchor="middle" x="681" y="-99.8" font-family="Times,serif" font-size="14.00" fill="#000000">DatetimePipe</text>
</g>
<!-- DatetimePipe&#45;&gt;FormModule -->
<g id="edge5" class="edge">
<title>DatetimePipe&#45;&gt;FormModule</title>
<path fill="none" stroke="#000000" d="M649.4208,-122.1061C649.4208,-122.1061 649.4208,-140.991 649.4208,-140.991"/>
<polygon fill="#000000" stroke="#000000" points="645.9208,-140.9909 649.4208,-150.991 652.9208,-140.991 645.9208,-140.9909"/>
</g>
<!-- MonthComponent -->
<g id="node6" class="node">
<title>MonthComponent</title>
<polygon fill="#ffffb3" stroke="#000000" points="617.1681,-122 498.8319,-122 498.8319,-86 617.1681,-86 617.1681,-122"/>
<text text-anchor="middle" x="558" y="-99.8" font-family="Times,serif" font-size="14.00" fill="#000000">MonthComponent</text>
</g>
<!-- MonthComponent&#45;&gt;FormModule -->
<g id="edge6" class="edge">
<title>MonthComponent&#45;&gt;FormModule</title>
<path fill="none" stroke="#000000" d="M595.696,-122.1061C595.696,-122.1061 595.696,-140.991 595.696,-140.991"/>
<polygon fill="#000000" stroke="#000000" points="592.1961,-140.9909 595.696,-150.991 599.1961,-140.991 592.1961,-140.9909"/>
</g>
<!-- VisibleFieldsPipe -->
<g id="node7" class="node">
<title>VisibleFieldsPipe</title>
<polygon fill="#ffffb3" stroke="#000000" points="480.5493,-122 365.4507,-122 365.4507,-86 480.5493,-86 480.5493,-122"/>
<text text-anchor="middle" x="423" y="-99.8" font-family="Times,serif" font-size="14.00" fill="#000000">VisibleFieldsPipe</text>
</g>
<!-- VisibleFieldsPipe&#45;&gt;FormModule -->
<g id="edge7" class="edge">
<title>VisibleFieldsPipe&#45;&gt;FormModule</title>
<path fill="none" stroke="#000000" d="M467.679,-122.1871C467.679,-137.1824 467.679,-156 467.679,-156 467.679,-156 564.0084,-156 564.0084,-156"/>
<polygon fill="#000000" stroke="#000000" points="564.0084,-159.5001 574.0084,-156 564.0084,-152.5001 564.0084,-159.5001"/>
</g>
<!-- FormComponent  -->
<g id="node11" class="node">
<title>FormComponent </title>
<polygon fill="#fb8072" stroke="#000000" points="1081.6663,-252 966.3337,-252 966.3337,-216 1081.6663,-216 1081.6663,-252"/>
<text text-anchor="middle" x="1024" y="-229.8" font-family="Times,serif" font-size="14.00" fill="#000000">FormComponent </text>
</g>
<!-- FormModule&#45;&gt;FormComponent  -->
<g id="edge10" class="edge">
<title>FormModule&#45;&gt;FormComponent </title>
<path fill="none" stroke="#000000" stroke-dasharray="5,2" d="M664.0543,-174C767.2191,-174 1011.7579,-174 1011.7579,-174 1011.7579,-174 1011.7579,-205.998 1011.7579,-205.998"/>
<polygon fill="#000000" stroke="#000000" points="1008.258,-205.998 1011.7579,-215.998 1015.258,-205.9981 1008.258,-205.998"/>
</g>
<!-- DatetimeComponent  -->
<g id="node12" class="node">
<title>DatetimeComponent </title>
<polygon fill="#fb8072" stroke="#000000" points="948.1453,-252 811.8547,-252 811.8547,-216 948.1453,-216 948.1453,-252"/>
<text text-anchor="middle" x="880" y="-229.8" font-family="Times,serif" font-size="14.00" fill="#000000">DatetimeComponent </text>
</g>
<!-- FormModule&#45;&gt;DatetimeComponent  -->
<g id="edge11" class="edge">
<title>FormModule&#45;&gt;DatetimeComponent </title>
<path fill="none" stroke="#000000" stroke-dasharray="5,2" d="M664.1163,-178C729.9594,-178 844.625,-178 844.625,-178 844.625,-178 844.625,-205.973 844.625,-205.973"/>
<polygon fill="#000000" stroke="#000000" points="841.1251,-205.973 844.625,-215.973 848.1251,-205.973 841.1251,-205.973"/>
</g>
<!-- DatetimePipe  -->
<g id="node13" class="node">
<title>DatetimePipe </title>
<polygon fill="#fb8072" stroke="#000000" points="793.7011,-252 698.2989,-252 698.2989,-216 793.7011,-216 793.7011,-252"/>
<text text-anchor="middle" x="746" y="-229.8" font-family="Times,serif" font-size="14.00" fill="#000000">DatetimePipe </text>
</g>
<!-- FormModule&#45;&gt;DatetimePipe  -->
<g id="edge12" class="edge">
<title>FormModule&#45;&gt;DatetimePipe </title>
<path fill="none" stroke="#000000" stroke-dasharray="5,2" d="M663.8929,-183C687.9212,-183 712.625,-183 712.625,-183 712.625,-183 712.625,-205.8757 712.625,-205.8757"/>
<polygon fill="#000000" stroke="#000000" points="709.1251,-205.8757 712.625,-215.8757 716.1251,-205.8757 709.1251,-205.8757"/>
</g>
<!-- MonthComponent  -->
<g id="node14" class="node">
<title>MonthComponent </title>
<polygon fill="#fb8072" stroke="#000000" points="680.1677,-252 557.8323,-252 557.8323,-216 680.1677,-216 680.1677,-252"/>
<text text-anchor="middle" x="619" y="-229.8" font-family="Times,serif" font-size="14.00" fill="#000000">MonthComponent </text>
</g>
<!-- FormModule&#45;&gt;MonthComponent  -->
<g id="edge13" class="edge">
<title>FormModule&#45;&gt;MonthComponent </title>
<path fill="none" stroke="#000000" stroke-dasharray="5,2" d="M619,-187.1061C619,-187.1061 619,-205.991 619,-205.991"/>
<polygon fill="#000000" stroke="#000000" points="615.5001,-205.9909 619,-215.991 622.5001,-205.991 615.5001,-205.9909"/>
</g>
<!-- PopModule  -->
<g id="node15" class="node">
<title>PopModule </title>
<polygon fill="#fb8072" stroke="#000000" points="539.3326,-252 454.6674,-252 454.6674,-216 539.3326,-216 539.3326,-252"/>
<text text-anchor="middle" x="497" y="-229.8" font-family="Times,serif" font-size="14.00" fill="#000000">PopModule </text>
</g>
<!-- FormModule&#45;&gt;PopModule  -->
<g id="edge14" class="edge">
<title>FormModule&#45;&gt;PopModule </title>
<path fill="none" stroke="#000000" stroke-dasharray="5,2" d="M573.9917,-183C547.46,-183 519.0412,-183 519.0412,-183 519.0412,-183 519.0412,-205.8757 519.0412,-205.8757"/>
<polygon fill="#000000" stroke="#000000" points="515.5413,-205.8757 519.0412,-215.8757 522.5413,-205.8757 515.5413,-205.8757"/>
</g>
<!-- VisibleFieldsPipe  -->
<g id="node16" class="node">
<title>VisibleFieldsPipe </title>
<polygon fill="#fb8072" stroke="#000000" points="436.5484,-252 317.4516,-252 317.4516,-216 436.5484,-216 436.5484,-252"/>
<text text-anchor="middle" x="377" y="-229.8" font-family="Times,serif" font-size="14.00" fill="#000000">VisibleFieldsPipe </text>
</g>
<!-- FormModule&#45;&gt;VisibleFieldsPipe  -->
<g id="edge15" class="edge">
<title>FormModule&#45;&gt;VisibleFieldsPipe </title>
<path fill="none" stroke="#000000" stroke-dasharray="5,2" d="M574.0688,-178C510.2156,-178 400.875,-178 400.875,-178 400.875,-178 400.875,-205.973 400.875,-205.973"/>
<polygon fill="#000000" stroke="#000000" points="397.3751,-205.973 400.875,-215.973 404.3751,-205.973 397.3751,-205.973"/>
</g>
<!-- IoModule  -->
<g id="node17" class="node">
<title>IoModule </title>
<polygon fill="#fb8072" stroke="#000000" points="299.211,-252 224.789,-252 224.789,-216 299.211,-216 299.211,-252"/>
<text text-anchor="middle" x="262" y="-229.8" font-family="Times,serif" font-size="14.00" fill="#000000">IoModule </text>
</g>
<!-- FormModule&#45;&gt;IoModule  -->
<g id="edge16" class="edge">
<title>FormModule&#45;&gt;IoModule </title>
<path fill="none" stroke="#000000" stroke-dasharray="5,2" d="M573.8964,-174C481.5034,-174 279.3445,-174 279.3445,-174 279.3445,-174 279.3445,-205.998 279.3445,-205.998"/>
<polygon fill="#000000" stroke="#000000" points="275.8446,-205.998 279.3445,-215.998 282.8446,-205.9981 275.8446,-205.998"/>
</g>
<!-- PopModule -->
<g id="node9" class="node">
<title>PopModule</title>
<polygon fill="#8dd3c7" stroke="#000000" points="340.8331,-122 337.8331,-126 316.8331,-126 313.8331,-122 259.1669,-122 259.1669,-86 340.8331,-86 340.8331,-122"/>
<text text-anchor="middle" x="300" y="-99.8" font-family="Times,serif" font-size="14.00" fill="#000000">PopModule</text>
</g>
<!-- PopModule&#45;&gt;FormModule -->
<g id="edge8" class="edge">
<title>PopModule&#45;&gt;FormModule</title>
<path fill="none" stroke="#000000" d="M329.071,-122.027C329.071,-138.3976 329.071,-160 329.071,-160 329.071,-160 564.0167,-160 564.0167,-160"/>
<polygon fill="#000000" stroke="#000000" points="564.0167,-163.5001 574.0167,-160 564.0167,-156.5001 564.0167,-163.5001"/>
</g>
<!-- IoModule -->
<g id="node10" class="node">
<title>IoModule</title>
<polygon fill="#8dd3c7" stroke="#000000" points="241.7107,-122 238.7107,-126 217.7107,-126 214.7107,-122 170.2893,-122 170.2893,-86 241.7107,-86 241.7107,-122"/>
<text text-anchor="middle" x="206" y="-99.8" font-family="Times,serif" font-size="14.00" fill="#000000">IoModule</text>
</g>
<!-- IoModule&#45;&gt;FormModule -->
<g id="edge9" class="edge">
<title>IoModule&#45;&gt;FormModule</title>
<path fill="none" stroke="#000000" d="M233.125,-122.302C233.125,-140.2699 233.125,-165 233.125,-165 233.125,-165 563.98,-165 563.98,-165"/>
<polygon fill="#000000" stroke="#000000" points="563.9801,-168.5001 573.98,-165 563.98,-161.5001 563.9801,-168.5001"/>
</g>
<!-- FormService -->
<g id="node18" class="node">
<title>FormService</title>
<ellipse fill="#fdb462" stroke="#000000" cx="85" cy="-104" rx="60.8313" ry="18"/>
<text text-anchor="middle" x="85" y="-99.8" font-family="Times,serif" font-size="14.00" fill="#000000">FormService</text>
</g>
<!-- FormService&#45;&gt;FormModule -->
<g id="edge17" class="edge">
<title>FormService&#45;&gt;FormModule</title>
<path fill="none" stroke="#000000" d="M85,-122.1061C85,-141.3391 85,-169 85,-169 85,-169 563.9317,-169 563.9317,-169"/>
<polygon fill="#000000" stroke="#000000" points="563.9317,-172.5001 573.9317,-169 563.9316,-165.5001 563.9317,-172.5001"/>
</g>
</g>
</svg>
