<?xml version="1.0" encoding="UTF-8" standalone="no"?>
<!DOCTYPE svg PUBLIC "-//W3C//DTD SVG 1.1//EN"
 "http://www.w3.org/Graphics/SVG/1.1/DTD/svg11.dtd">
<!-- Generated by graphviz version 2.40.1 (20161225.0304)
 -->
<!-- Title: dependencies Pages: 1 -->
<svg width="1663pt" height="284pt"
 viewBox="0.00 0.00 1663.00 284.00" xmlns="http://www.w3.org/2000/svg" xmlns:xlink="http://www.w3.org/1999/xlink">
<g id="graph0" class="graph" transform="scale(1 1) rotate(0) translate(4 280)">
<title>dependencies</title>
<polygon fill="#ffffff" stroke="transparent" points="-4,4 -4,-280 1659,-280 1659,4 -4,4"/>
<text text-anchor="start" x="806.5091" y="-42.4" font-family="sans-serif" font-weight="bold" font-size="14.00" fill="#000000">Legend</text>
<polygon fill="#ffffb3" stroke="transparent" points="593.5,-10 593.5,-30 613.5,-30 613.5,-10 593.5,-10"/>
<text text-anchor="start" x="617.129" y="-15.4" font-family="sans-serif" font-size="14.00" fill="#000000"> &#160;Declarations</text>
<polygon fill="#8dd3c7" stroke="transparent" points="706.5,-10 706.5,-30 726.5,-30 726.5,-10 706.5,-10"/>
<text text-anchor="start" x="730.2251" y="-15.4" font-family="sans-serif" font-size="14.00" fill="#000000"> &#160;Module</text>
<polygon fill="#80b1d3" stroke="transparent" points="792.5,-10 792.5,-30 812.5,-30 812.5,-10 792.5,-10"/>
<text text-anchor="start" x="816.2812" y="-15.4" font-family="sans-serif" font-size="14.00" fill="#000000"> &#160;Bootstrap</text>
<polygon fill="#fdb462" stroke="transparent" points="889.5,-10 889.5,-30 909.5,-30 909.5,-10 889.5,-10"/>
<text text-anchor="start" x="913.1732" y="-15.4" font-family="sans-serif" font-size="14.00" fill="#000000"> &#160;Providers</text>
<polygon fill="#fb8072" stroke="transparent" points="985.5,-10 985.5,-30 1005.5,-30 1005.5,-10 985.5,-10"/>
<text text-anchor="start" x="1009.2258" y="-15.4" font-family="sans-serif" font-size="14.00" fill="#000000"> &#160;Exports</text>
<g id="clust1" class="cluster">
<title>cluster_FormModule</title>
<polygon fill="none" stroke="#000000" stroke-dasharray="1,5" points="8,-70 8,-268 1647,-268 1647,-70 8,-70"/>
</g>
<g id="clust2" class="cluster">
<title>cluster_FormModule_declarations</title>
<polygon fill="none" stroke="#000000" points="122,-78 122,-130 1639,-130 1639,-78 122,-78"/>
</g>
<g id="clust13" class="cluster">
<title>cluster_FormModule_imports</title>
<polygon fill="none" stroke="#000000" points="16,-78 16,-130 114,-130 114,-78 16,-78"/>
</g>
<g id="clust14" class="cluster">
<title>cluster_FormModule_exports</title>
<polygon fill="none" stroke="#000000" points="257,-208 257,-260 1370,-260 1370,-208 257,-208"/>
</g>
<!-- FormComponent -->
<g id="node1" class="node">
<title>FormComponent</title>
<polygon fill="#ffffb3" stroke="#000000" points="1630.6667,-122 1519.3333,-122 1519.3333,-86 1630.6667,-86 1630.6667,-122"/>
<text text-anchor="middle" x="1575" y="-99.8" font-family="Times,serif" font-size="14.00" fill="#000000">FormComponent</text>
</g>
<!-- FormModule -->
<g id="node11" class="node">
<title>FormModule</title>
<polygon fill="#8dd3c7" stroke="#000000" points="845.8837,-187 842.8837,-191 821.8837,-191 818.8837,-187 756.1163,-187 756.1163,-151 845.8837,-151 845.8837,-187"/>
<text text-anchor="middle" x="801" y="-164.8" font-family="Times,serif" font-size="14.00" fill="#000000">FormModule</text>
</g>
<!-- FormComponent&#45;&gt;FormModule -->
<g id="edge1" class="edge">
<title>FormComponent&#45;&gt;FormModule</title>
<path fill="none" stroke="#000000" d="M1575,-122.308C1575,-142.1455 1575,-171 1575,-171 1575,-171 855.959,-171 855.959,-171"/>
<polygon fill="#000000" stroke="#000000" points="855.9591,-167.5001 845.959,-171 855.959,-174.5001 855.9591,-167.5001"/>
</g>
<!-- InputComponent -->
<g id="node2" class="node">
<title>InputComponent</title>
<polygon fill="#ffffb3" stroke="#000000" points="1501.3837,-122 1390.6163,-122 1390.6163,-86 1501.3837,-86 1501.3837,-122"/>
<text text-anchor="middle" x="1446" y="-99.8" font-family="Times,serif" font-size="14.00" fill="#000000">InputComponent</text>
</g>
<!-- InputComponent&#45;&gt;FormModule -->
<g id="edge2" class="edge">
<title>InputComponent&#45;&gt;FormModule</title>
<path fill="none" stroke="#000000" d="M1446,-122.2222C1446,-140.8285 1446,-167 1446,-167 1446,-167 856.0988,-167 856.0988,-167"/>
<polygon fill="#000000" stroke="#000000" points="856.0988,-163.5001 846.0988,-167 856.0988,-170.5001 856.0988,-163.5001"/>
</g>
<!-- OutputComponent -->
<g id="node3" class="node">
<title>OutputComponent</title>
<polygon fill="#ffffb3" stroke="#000000" points="1372.2204,-122 1251.7796,-122 1251.7796,-86 1372.2204,-86 1372.2204,-122"/>
<text text-anchor="middle" x="1312" y="-99.8" font-family="Times,serif" font-size="14.00" fill="#000000">OutputComponent</text>
</g>
<!-- OutputComponent&#45;&gt;FormModule -->
<g id="edge3" class="edge">
<title>OutputComponent&#45;&gt;FormModule</title>
<path fill="none" stroke="#000000" d="M1288.4543,-122.0225C1288.4543,-139.3734 1288.4543,-163 1288.4543,-163 1288.4543,-163 855.9848,-163 855.9848,-163"/>
<polygon fill="#000000" stroke="#000000" points="855.9848,-159.5001 845.9848,-163 855.9848,-166.5001 855.9848,-159.5001"/>
</g>
<!-- DefaultInputComponent -->
<g id="node4" class="node">
<title>DefaultInputComponent</title>
<polygon fill="#ffffb3" stroke="#000000" points="1233.3613,-122 1080.6387,-122 1080.6387,-86 1233.3613,-86 1233.3613,-122"/>
<text text-anchor="middle" x="1157" y="-99.8" font-family="Times,serif" font-size="14.00" fill="#000000">DefaultInputComponent</text>
</g>
<!-- DefaultInputComponent&#45;&gt;FormModule -->
<g id="edge4" class="edge">
<title>DefaultInputComponent&#45;&gt;FormModule</title>
<path fill="none" stroke="#000000" d="M1088.2148,-122.0091C1088.2148,-138.0494 1088.2148,-159 1088.2148,-159 1088.2148,-159 856.1933,-159 856.1933,-159"/>
<polygon fill="#000000" stroke="#000000" points="856.1933,-155.5001 846.1933,-159 856.1932,-162.5001 856.1933,-155.5001"/>
</g>
<!-- DefaultOutputComponent -->
<g id="node5" class="node">
<title>DefaultOutputComponent</title>
<polygon fill="#ffffb3" stroke="#000000" points="1062.1979,-122 899.8021,-122 899.8021,-86 1062.1979,-86 1062.1979,-122"/>
<text text-anchor="middle" x="981" y="-99.8" font-family="Times,serif" font-size="14.00" fill="#000000">DefaultOutputComponent</text>
</g>
<!-- DefaultOutputComponent&#45;&gt;FormModule -->
<g id="edge5" class="edge">
<title>DefaultOutputComponent&#45;&gt;FormModule</title>
<path fill="none" stroke="#000000" d="M926.7912,-122.1243C926.7912,-136.7832 926.7912,-155 926.7912,-155 926.7912,-155 856.0582,-155 856.0582,-155"/>
<polygon fill="#000000" stroke="#000000" points="856.0582,-151.5001 846.0582,-155 856.0582,-158.5001 856.0582,-151.5001"/>
</g>
<!-- DynamicFieldComponent -->
<g id="node6" class="node">
<title>DynamicFieldComponent</title>
<polygon fill="#ffffb3" stroke="#000000" points="881.9284,-122 720.0716,-122 720.0716,-86 881.9284,-86 881.9284,-122"/>
<text text-anchor="middle" x="801" y="-99.8" font-family="Times,serif" font-size="14.00" fill="#000000">DynamicFieldComponent</text>
</g>
<!-- DynamicFieldComponent&#45;&gt;FormModule -->
<g id="edge6" class="edge">
<title>DynamicFieldComponent&#45;&gt;FormModule</title>
<path fill="none" stroke="#000000" d="M801,-122.1061C801,-122.1061 801,-140.991 801,-140.991"/>
<polygon fill="#000000" stroke="#000000" points="797.5001,-140.9909 801,-150.991 804.5001,-140.991 797.5001,-140.9909"/>
</g>
<!-- InputErrorsComponent -->
<g id="node7" class="node">
<title>InputErrorsComponent</title>
<polygon fill="#ffffb3" stroke="#000000" points="701.8627,-122 556.1373,-122 556.1373,-86 701.8627,-86 701.8627,-122"/>
<text text-anchor="middle" x="629" y="-99.8" font-family="Times,serif" font-size="14.00" fill="#000000">InputErrorsComponent</text>
</g>
<!-- InputErrorsComponent&#45;&gt;FormModule -->
<g id="edge7" class="edge">
<title>InputErrorsComponent&#45;&gt;FormModule</title>
<path fill="none" stroke="#000000" d="M680.7649,-122.1243C680.7649,-136.7832 680.7649,-155 680.7649,-155 680.7649,-155 745.8868,-155 745.8868,-155"/>
<polygon fill="#000000" stroke="#000000" points="745.8868,-158.5001 755.8868,-155 745.8868,-151.5001 745.8868,-158.5001"/>
</g>
<!-- FieldHostDirective -->
<g id="node8" class="node">
<title>FieldHostDirective</title>
<polygon fill="#ffffb3" stroke="#000000" points="537.8034,-122 414.1966,-122 414.1966,-86 537.8034,-86 537.8034,-122"/>
<text text-anchor="middle" x="476" y="-99.8" font-family="Times,serif" font-size="14.00" fill="#000000">FieldHostDirective</text>
</g>
<!-- FieldHostDirective&#45;&gt;FormModule -->
<g id="edge8" class="edge">
<title>FieldHostDirective&#45;&gt;FormModule</title>
<path fill="none" stroke="#000000" d="M530.0658,-122.0091C530.0658,-138.0494 530.0658,-159 530.0658,-159 530.0658,-159 745.9566,-159 745.9566,-159"/>
<polygon fill="#000000" stroke="#000000" points="745.9566,-162.5001 755.9566,-159 745.9565,-155.5001 745.9566,-162.5001"/>
</g>
<!-- SelectComponent -->
<g id="node9" class="node">
<title>SelectComponent</title>
<polygon fill="#ffffb3" stroke="#000000" points="396.5409,-122 281.4591,-122 281.4591,-86 396.5409,-86 396.5409,-122"/>
<text text-anchor="middle" x="339" y="-99.8" font-family="Times,serif" font-size="14.00" fill="#000000">SelectComponent</text>
</g>
<!-- SelectComponent&#45;&gt;FormModule -->
<g id="edge9" class="edge">
<title>SelectComponent&#45;&gt;FormModule</title>
<path fill="none" stroke="#000000" d="M382.1523,-122.0225C382.1523,-139.3734 382.1523,-163 382.1523,-163 382.1523,-163 745.778,-163 745.778,-163"/>
<polygon fill="#000000" stroke="#000000" points="745.778,-166.5001 755.778,-163 745.778,-159.5001 745.778,-166.5001"/>
</g>
<!-- SelectionComponent -->
<g id="node10" class="node">
<title>SelectionComponent</title>
<polygon fill="#ffffb3" stroke="#000000" points="263.9313,-122 130.0687,-122 130.0687,-86 263.9313,-86 263.9313,-122"/>
<text text-anchor="middle" x="197" y="-99.8" font-family="Times,serif" font-size="14.00" fill="#000000">SelectionComponent</text>
</g>
<!-- SelectionComponent&#45;&gt;FormModule -->
<g id="edge10" class="edge">
<title>SelectionComponent&#45;&gt;FormModule</title>
<path fill="none" stroke="#000000" d="M197,-122.2222C197,-140.8285 197,-167 197,-167 197,-167 746.0953,-167 746.0953,-167"/>
<polygon fill="#000000" stroke="#000000" points="746.0953,-170.5001 756.0953,-167 746.0953,-163.5001 746.0953,-170.5001"/>
</g>
<!-- FormComponent  -->
<g id="node13" class="node">
<title>FormComponent </title>
<polygon fill="#fb8072" stroke="#000000" points="1361.6663,-252 1246.3337,-252 1246.3337,-216 1361.6663,-216 1361.6663,-252"/>
<text text-anchor="middle" x="1304" y="-229.8" font-family="Times,serif" font-size="14.00" fill="#000000">FormComponent </text>
</g>
<!-- FormModule&#45;&gt;FormComponent  -->
<g id="edge12" class="edge">
<title>FormModule&#45;&gt;FormComponent </title>
<path fill="none" stroke="#000000" stroke-dasharray="5,2" d="M846.1311,-175C973.239,-175 1325.0187,-175 1325.0187,-175 1325.0187,-175 1325.0187,-205.9775 1325.0187,-205.9775"/>
<polygon fill="#000000" stroke="#000000" points="1321.5188,-205.9774 1325.0187,-215.9775 1328.5188,-205.9775 1321.5188,-205.9774"/>
</g>
<!-- InputComponent  -->
<g id="node14" class="node">
<title>InputComponent </title>
<polygon fill="#fb8072" stroke="#000000" points="1228.3842,-252 1113.6158,-252 1113.6158,-216 1228.3842,-216 1228.3842,-252"/>
<text text-anchor="middle" x="1171" y="-229.8" font-family="Times,serif" font-size="14.00" fill="#000000">InputComponent </text>
</g>
<!-- FormModule&#45;&gt;InputComponent  -->
<g id="edge13" class="edge">
<title>FormModule&#45;&gt;InputComponent </title>
<path fill="none" stroke="#000000" stroke-dasharray="5,2" d="M845.9994,-179C944.605,-179 1171,-179 1171,-179 1171,-179 1171,-205.9909 1171,-205.9909"/>
<polygon fill="#000000" stroke="#000000" points="1167.5001,-205.9909 1171,-215.9909 1174.5001,-205.991 1167.5001,-205.9909"/>
</g>
<!-- OutputComponent  -->
<g id="node15" class="node">
<title>OutputComponent </title>
<polygon fill="#fb8072" stroke="#000000" points="1095.7205,-252 972.2795,-252 972.2795,-216 1095.7205,-216 1095.7205,-252"/>
<text text-anchor="middle" x="1034" y="-229.8" font-family="Times,serif" font-size="14.00" fill="#000000">OutputComponent </text>
</g>
<!-- FormModule&#45;&gt;OutputComponent  -->
<g id="edge14" class="edge">
<title>FormModule&#45;&gt;OutputComponent </title>
<path fill="none" stroke="#000000" stroke-dasharray="5,2" d="M846.0426,-183C909.381,-183 1017.1194,-183 1017.1194,-183 1017.1194,-183 1017.1194,-205.8757 1017.1194,-205.8757"/>
<polygon fill="#000000" stroke="#000000" points="1013.6195,-205.8757 1017.1194,-215.8757 1020.6195,-205.8757 1013.6195,-205.8757"/>
</g>
<!-- InputErrorsComponent  -->
<g id="node16" class="node">
<title>InputErrorsComponent </title>
<polygon fill="#fb8072" stroke="#000000" points="953.863,-252 804.137,-252 804.137,-216 953.863,-216 953.863,-252"/>
<text text-anchor="middle" x="879" y="-229.8" font-family="Times,serif" font-size="14.00" fill="#000000">InputErrorsComponent </text>
</g>
<!-- FormModule&#45;&gt;InputErrorsComponent  -->
<g id="edge15" class="edge">
<title>FormModule&#45;&gt;InputErrorsComponent </title>
<path fill="none" stroke="#000000" stroke-dasharray="5,2" d="M825.1303,-187.1061C825.1303,-187.1061 825.1303,-205.991 825.1303,-205.991"/>
<polygon fill="#000000" stroke="#000000" points="821.6303,-205.9909 825.1303,-215.991 828.6303,-205.991 821.6303,-205.9909"/>
</g>
<!-- FieldHostDirective  -->
<g id="node17" class="node">
<title>FieldHostDirective </title>
<polygon fill="#fb8072" stroke="#000000" points="786.3032,-252 659.6968,-252 659.6968,-216 786.3032,-216 786.3032,-252"/>
<text text-anchor="middle" x="723" y="-229.8" font-family="Times,serif" font-size="14.00" fill="#000000">FieldHostDirective </text>
</g>
<!-- FormModule&#45;&gt;FieldHostDirective  -->
<g id="edge16" class="edge">
<title>FormModule&#45;&gt;FieldHostDirective </title>
<path fill="none" stroke="#000000" stroke-dasharray="5,2" d="M771.2298,-187.1061C771.2298,-187.1061 771.2298,-205.991 771.2298,-205.991"/>
<polygon fill="#000000" stroke="#000000" points="767.7299,-205.9909 771.2298,-215.991 774.7299,-205.991 767.7299,-205.9909"/>
</g>
<!-- SelectComponent  -->
<g id="node18" class="node">
<title>SelectComponent </title>
<polygon fill="#fb8072" stroke="#000000" points="641.54,-252 522.46,-252 522.46,-216 641.54,-216 641.54,-252"/>
<text text-anchor="middle" x="582" y="-229.8" font-family="Times,serif" font-size="14.00" fill="#000000">SelectComponent </text>
</g>
<!-- FormModule&#45;&gt;SelectComponent  -->
<g id="edge17" class="edge">
<title>FormModule&#45;&gt;SelectComponent </title>
<path fill="none" stroke="#000000" stroke-dasharray="5,2" d="M755.8728,-183C696.2782,-183 598.7944,-183 598.7944,-183 598.7944,-183 598.7944,-205.8757 598.7944,-205.8757"/>
<polygon fill="#000000" stroke="#000000" points="595.2944,-205.8757 598.7944,-215.8757 602.2944,-205.8757 595.2944,-205.8757"/>
</g>
<!-- SelectionComponent  -->
<g id="node19" class="node">
<title>SelectionComponent </title>
<polygon fill="#fb8072" stroke="#000000" points="504.4306,-252 367.5694,-252 367.5694,-216 504.4306,-216 504.4306,-252"/>
<text text-anchor="middle" x="436" y="-229.8" font-family="Times,serif" font-size="14.00" fill="#000000">SelectionComponent </text>
</g>
<!-- FormModule&#45;&gt;SelectionComponent  -->
<g id="edge18" class="edge">
<title>FormModule&#45;&gt;SelectionComponent </title>
<path fill="none" stroke="#000000" stroke-dasharray="5,2" d="M755.9914,-179C663.2341,-179 459.4069,-179 459.4069,-179 459.4069,-179 459.4069,-205.9909 459.4069,-205.9909"/>
<polygon fill="#000000" stroke="#000000" points="455.907,-205.9909 459.4069,-215.9909 462.907,-205.991 455.907,-205.9909"/>
</g>
<!-- PopModule  -->
<g id="node20" class="node">
<title>PopModule </title>
<polygon fill="#fb8072" stroke="#000000" points="349.3326,-252 264.6674,-252 264.6674,-216 349.3326,-216 349.3326,-252"/>
<text text-anchor="middle" x="307" y="-229.8" font-family="Times,serif" font-size="14.00" fill="#000000">PopModule </text>
</g>
<!-- FormModule&#45;&gt;PopModule  -->
<g id="edge19" class="edge">
<title>FormModule&#45;&gt;PopModule </title>
<path fill="none" stroke="#000000" stroke-dasharray="5,2" d="M755.7448,-175C635.1755,-175 315.3231,-175 315.3231,-175 315.3231,-175 315.3231,-205.9775 315.3231,-205.9775"/>
<polygon fill="#000000" stroke="#000000" points="311.8232,-205.9774 315.3231,-215.9775 318.8232,-205.9775 311.8232,-205.9774"/>
</g>
<!-- PopModule -->
<g id="node12" class="node">
<title>PopModule</title>
<polygon fill="#8dd3c7" stroke="#000000" points="105.8331,-122 102.8331,-126 81.8331,-126 78.8331,-122 24.1669,-122 24.1669,-86 105.8331,-86 105.8331,-122"/>
<text text-anchor="middle" x="65" y="-99.8" font-family="Times,serif" font-size="14.00" fill="#000000">PopModule</text>
</g>
<!-- PopModule&#45;&gt;FormModule -->
<g id="edge11" class="edge">
<title>PopModule&#45;&gt;FormModule</title>
<path fill="none" stroke="#000000" d="M65,-122.308C65,-142.1455 65,-171 65,-171 65,-171 746.0678,-171 746.0678,-171"/>
<polygon fill="#000000" stroke="#000000" points="746.0679,-174.5001 756.0678,-171 746.0678,-167.5001 746.0679,-174.5001"/>
</g>
</g>
</svg>
