<?xml version="1.0" encoding="UTF-8" standalone="no"?>
<!DOCTYPE svg PUBLIC "-//W3C//DTD SVG 1.1//EN"
 "http://www.w3.org/Graphics/SVG/1.1/DTD/svg11.dtd">
<!-- Generated by graphviz version 2.40.1 (20161225.0304)
 -->
<!-- Title: dependencies Pages: 1 -->
<svg width="1981pt" height="284pt"
 viewBox="0.00 0.00 1981.00 284.00" xmlns="http://www.w3.org/2000/svg" xmlns:xlink="http://www.w3.org/1999/xlink">
<g id="graph0" class="graph" transform="scale(1 1) rotate(0) translate(4 280)">
<title>dependencies</title>
<polygon fill="#ffffff" stroke="transparent" points="-4,4 -4,-280 1977,-280 1977,4 -4,4"/>
<text text-anchor="start" x="965.5091" y="-42.4" font-family="sans-serif" font-weight="bold" font-size="14.00" fill="#000000">Legend</text>
<polygon fill="#ffffb3" stroke="transparent" points="752.5,-10 752.5,-30 772.5,-30 772.5,-10 752.5,-10"/>
<text text-anchor="start" x="776.129" y="-15.4" font-family="sans-serif" font-size="14.00" fill="#000000"> &#160;Declarations</text>
<polygon fill="#8dd3c7" stroke="transparent" points="865.5,-10 865.5,-30 885.5,-30 885.5,-10 865.5,-10"/>
<text text-anchor="start" x="889.2251" y="-15.4" font-family="sans-serif" font-size="14.00" fill="#000000"> &#160;Module</text>
<polygon fill="#80b1d3" stroke="transparent" points="951.5,-10 951.5,-30 971.5,-30 971.5,-10 951.5,-10"/>
<text text-anchor="start" x="975.2812" y="-15.4" font-family="sans-serif" font-size="14.00" fill="#000000"> &#160;Bootstrap</text>
<polygon fill="#fdb462" stroke="transparent" points="1048.5,-10 1048.5,-30 1068.5,-30 1068.5,-10 1048.5,-10"/>
<text text-anchor="start" x="1072.1732" y="-15.4" font-family="sans-serif" font-size="14.00" fill="#000000"> &#160;Providers</text>
<polygon fill="#fb8072" stroke="transparent" points="1144.5,-10 1144.5,-30 1164.5,-30 1164.5,-10 1144.5,-10"/>
<text text-anchor="start" x="1168.2258" y="-15.4" font-family="sans-serif" font-size="14.00" fill="#000000"> &#160;Exports</text>
<g id="clust1" class="cluster">
<title>cluster_FormModule</title>
<polygon fill="none" stroke="#000000" stroke-dasharray="1,5" points="8,-70 8,-268 1965,-268 1965,-70 8,-70"/>
</g>
<g id="clust2" class="cluster">
<title>cluster_FormModule_declarations</title>
<polygon fill="none" stroke="#000000" points="939,-78 939,-130 1957,-130 1957,-78 939,-78"/>
</g>
<g id="clust10" class="cluster">
<title>cluster_FormModule_imports</title>
<polygon fill="none" stroke="#000000" points="162,-78 162,-130 931,-130 931,-78 162,-78"/>
</g>
<g id="clust11" class="cluster">
<title>cluster_FormModule_exports</title>
<polygon fill="none" stroke="#000000" points="365,-208 365,-260 1363,-260 1363,-208 365,-208"/>
</g>
<g id="clust13" class="cluster">
<title>cluster_FormModule_providers</title>
<polygon fill="none" stroke="#000000" points="16,-78 16,-130 154,-130 154,-78 16,-78"/>
</g>
<!-- DatetimeComponent -->
<g id="node1" class="node">
<title>DatetimeComponent</title>
<polygon fill="#ffffb3" stroke="#000000" points="1949.1457,-122 1816.8543,-122 1816.8543,-86 1949.1457,-86 1949.1457,-122"/>
<text text-anchor="middle" x="1883" y="-99.8" font-family="Times,serif" font-size="14.00" fill="#000000">DatetimeComponent</text>
</g>
<!-- FormModule -->
<g id="node8" class="node">
<title>FormModule</title>
<polygon fill="#8dd3c7" stroke="#000000" points="912.8837,-187 909.8837,-191 888.8837,-191 885.8837,-187 823.1163,-187 823.1163,-151 912.8837,-151 912.8837,-187"/>
<text text-anchor="middle" x="868" y="-164.8" font-family="Times,serif" font-size="14.00" fill="#000000">FormModule</text>
</g>
<!-- DatetimeComponent&#45;&gt;FormModule -->
<g id="edge1" class="edge">
<title>DatetimeComponent&#45;&gt;FormModule</title>
<path fill="none" stroke="#000000" d="M1883,-122.0267C1883,-142.7672 1883,-174 1883,-174 1883,-174 922.9229,-174 922.9229,-174"/>
<polygon fill="#000000" stroke="#000000" points="922.923,-170.5001 912.9229,-174 922.9229,-177.5001 922.923,-170.5001"/>
</g>
<!-- DefaultInputComponent -->
<g id="node2" class="node">
<title>DefaultInputComponent</title>
<polygon fill="#ffffb3" stroke="#000000" points="1798.3613,-122 1645.6387,-122 1645.6387,-86 1798.3613,-86 1798.3613,-122"/>
<text text-anchor="middle" x="1722" y="-99.8" font-family="Times,serif" font-size="14.00" fill="#000000">DefaultInputComponent</text>
</g>
<!-- DefaultInputComponent&#45;&gt;FormModule -->
<g id="edge2" class="edge">
<title>DefaultInputComponent&#45;&gt;FormModule</title>
<path fill="none" stroke="#000000" d="M1722,-122.308C1722,-142.1455 1722,-171 1722,-171 1722,-171 923.0116,-171 923.0116,-171"/>
<polygon fill="#000000" stroke="#000000" points="923.0117,-167.5001 913.0116,-171 923.0116,-174.5001 923.0117,-167.5001"/>
</g>
<!-- DefaultOutputComponent -->
<g id="node3" class="node">
<title>DefaultOutputComponent</title>
<polygon fill="#ffffb3" stroke="#000000" points="1627.1979,-122 1464.8021,-122 1464.8021,-86 1627.1979,-86 1627.1979,-122"/>
<text text-anchor="middle" x="1546" y="-99.8" font-family="Times,serif" font-size="14.00" fill="#000000">DefaultOutputComponent</text>
</g>
<!-- DefaultOutputComponent&#45;&gt;FormModule -->
<g id="edge3" class="edge">
<title>DefaultOutputComponent&#45;&gt;FormModule</title>
<path fill="none" stroke="#000000" d="M1546,-122.1686C1546,-141.0898 1546,-168 1546,-168 1546,-168 923.0105,-168 923.0105,-168"/>
<polygon fill="#000000" stroke="#000000" points="923.0106,-164.5001 913.0105,-168 923.0105,-171.5001 923.0106,-164.5001"/>
</g>
<!-- FormComponent -->
<g id="node4" class="node">
<title>FormComponent</title>
<polygon fill="#ffffb3" stroke="#000000" points="1446.6667,-122 1335.3333,-122 1335.3333,-86 1446.6667,-86 1446.6667,-122"/>
<text text-anchor="middle" x="1391" y="-99.8" font-family="Times,serif" font-size="14.00" fill="#000000">FormComponent</text>
</g>
<!-- FormComponent&#45;&gt;FormModule -->
<g id="edge4" class="edge">
<title>FormComponent&#45;&gt;FormModule</title>
<path fill="none" stroke="#000000" d="M1345.1197,-122.302C1345.1197,-140.2699 1345.1197,-165 1345.1197,-165 1345.1197,-165 922.8863,-165 922.8863,-165"/>
<polygon fill="#000000" stroke="#000000" points="922.8863,-161.5001 912.8863,-165 922.8862,-168.5001 922.8863,-161.5001"/>
</g>
<!-- MaxItemsPipe -->
<g id="node5" class="node">
<title>MaxItemsPipe</title>
<polygon fill="#ffffb3" stroke="#000000" points="1316.6486,-122 1219.3514,-122 1219.3514,-86 1316.6486,-86 1316.6486,-122"/>
<text text-anchor="middle" x="1268" y="-99.8" font-family="Times,serif" font-size="14.00" fill="#000000">MaxItemsPipe</text>
</g>
<!-- MaxItemsPipe&#45;&gt;FormModule -->
<g id="edge5" class="edge">
<title>MaxItemsPipe&#45;&gt;FormModule</title>
<path fill="none" stroke="#000000" d="M1284.2747,-122.0352C1284.2747,-138.7344 1284.2747,-161 1284.2747,-161 1284.2747,-161 922.9442,-161 922.9442,-161"/>
<polygon fill="#000000" stroke="#000000" points="922.9442,-157.5001 912.9442,-161 922.9442,-164.5001 922.9442,-157.5001"/>
</g>
<!-- ToggleComponent -->
<g id="node6" class="node">
<title>ToggleComponent</title>
<polygon fill="#ffffb3" stroke="#000000" points="1201.4902,-122 1080.5098,-122 1080.5098,-86 1201.4902,-86 1201.4902,-122"/>
<text text-anchor="middle" x="1141" y="-99.8" font-family="Times,serif" font-size="14.00" fill="#000000">ToggleComponent</text>
</g>
<!-- ToggleComponent&#45;&gt;FormModule -->
<g id="edge6" class="edge">
<title>ToggleComponent&#45;&gt;FormModule</title>
<path fill="none" stroke="#000000" d="M1162.1944,-122.2819C1162.1944,-137.9478 1162.1944,-158 1162.1944,-158 1162.1944,-158 923.002,-158 923.002,-158"/>
<polygon fill="#000000" stroke="#000000" points="923.0021,-154.5001 913.002,-158 923.002,-161.5001 923.0021,-154.5001"/>
</g>
<!-- VisibleFieldsPipe -->
<g id="node7" class="node">
<title>VisibleFieldsPipe</title>
<polygon fill="#ffffb3" stroke="#000000" points="1062.5493,-122 947.4507,-122 947.4507,-86 1062.5493,-86 1062.5493,-122"/>
<text text-anchor="middle" x="1005" y="-99.8" font-family="Times,serif" font-size="14.00" fill="#000000">VisibleFieldsPipe</text>
</g>
<!-- VisibleFieldsPipe&#45;&gt;FormModule -->
<g id="edge7" class="edge">
<title>VisibleFieldsPipe&#45;&gt;FormModule</title>
<path fill="none" stroke="#000000" d="M960.8999,-122.1243C960.8999,-136.7832 960.8999,-155 960.8999,-155 960.8999,-155 923.0893,-155 923.0893,-155"/>
<polygon fill="#000000" stroke="#000000" points="923.0893,-151.5001 913.0893,-155 923.0892,-158.5001 923.0893,-151.5001"/>
</g>
<!-- DatetimeComponent  -->
<g id="node16" class="node">
<title>DatetimeComponent </title>
<polygon fill="#fb8072" stroke="#000000" points="1355.1453,-252 1218.8547,-252 1218.8547,-216 1355.1453,-216 1355.1453,-252"/>
<text text-anchor="middle" x="1287" y="-229.8" font-family="Times,serif" font-size="14.00" fill="#000000">DatetimeComponent </text>
</g>
<!-- FormModule&#45;&gt;DatetimeComponent  -->
<g id="edge15" class="edge">
<title>FormModule&#45;&gt;DatetimeComponent </title>
<path fill="none" stroke="#000000" stroke-dasharray="5,2" d="M913.1466,-178C1014.5812,-178 1251.7253,-178 1251.7253,-178 1251.7253,-178 1251.7253,-205.973 1251.7253,-205.973"/>
<polygon fill="#000000" stroke="#000000" points="1248.2254,-205.973 1251.7253,-215.973 1255.2254,-205.973 1248.2254,-205.973"/>
</g>
<!-- FormComponent  -->
<g id="node17" class="node">
<title>FormComponent </title>
<polygon fill="#fb8072" stroke="#000000" points="1200.6663,-252 1085.3337,-252 1085.3337,-216 1200.6663,-216 1200.6663,-252"/>
<text text-anchor="middle" x="1143" y="-229.8" font-family="Times,serif" font-size="14.00" fill="#000000">FormComponent </text>
</g>
<!-- FormModule&#45;&gt;FormComponent  -->
<g id="edge16" class="edge">
<title>FormModule&#45;&gt;FormComponent </title>
<path fill="none" stroke="#000000" stroke-dasharray="5,2" d="M913.1441,-181C986.5808,-181 1123.8056,-181 1123.8056,-181 1123.8056,-181 1123.8056,-205.7604 1123.8056,-205.7604"/>
<polygon fill="#000000" stroke="#000000" points="1120.3057,-205.7604 1123.8056,-215.7604 1127.3057,-205.7604 1120.3057,-205.7604"/>
</g>
<!-- IoModule  -->
<g id="node18" class="node">
<title>IoModule </title>
<polygon fill="#fb8072" stroke="#000000" points="1067.211,-252 992.789,-252 992.789,-216 1067.211,-216 1067.211,-252"/>
<text text-anchor="middle" x="1030" y="-229.8" font-family="Times,serif" font-size="14.00" fill="#000000">IoModule </text>
</g>
<!-- FormModule&#45;&gt;IoModule  -->
<g id="edge17" class="edge">
<title>FormModule&#45;&gt;IoModule </title>
<path fill="none" stroke="#000000" stroke-dasharray="5,2" d="M912.913,-184C960.1511,-184 1027.7095,-184 1027.7095,-184 1027.7095,-184 1027.7095,-205.9489 1027.7095,-205.9489"/>
<polygon fill="#000000" stroke="#000000" points="1024.2096,-205.9488 1027.7095,-215.9489 1031.2096,-205.9489 1024.2096,-205.9488"/>
</g>
<!-- MaxItemsPipe  -->
<g id="node19" class="node">
<title>MaxItemsPipe </title>
<polygon fill="#fb8072" stroke="#000000" points="974.6481,-252 873.3519,-252 873.3519,-216 974.6481,-216 974.6481,-252"/>
<text text-anchor="middle" x="924" y="-229.8" font-family="Times,serif" font-size="14.00" fill="#000000">MaxItemsPipe </text>
</g>
<!-- FormModule&#45;&gt;MaxItemsPipe  -->
<g id="edge18" class="edge">
<title>FormModule&#45;&gt;MaxItemsPipe </title>
<path fill="none" stroke="#000000" stroke-dasharray="5,2" d="M893.1839,-187.1061C893.1839,-187.1061 893.1839,-205.991 893.1839,-205.991"/>
<polygon fill="#000000" stroke="#000000" points="889.684,-205.9909 893.1839,-215.991 896.684,-205.991 889.684,-205.9909"/>
</g>
<!-- PopModule  -->
<g id="node20" class="node">
<title>PopModule </title>
<polygon fill="#fb8072" stroke="#000000" points="855.3326,-252 770.6674,-252 770.6674,-216 855.3326,-216 855.3326,-252"/>
<text text-anchor="middle" x="813" y="-229.8" font-family="Times,serif" font-size="14.00" fill="#000000">PopModule </text>
</g>
<!-- FormModule&#45;&gt;PopModule  -->
<g id="edge19" class="edge">
<title>FormModule&#45;&gt;PopModule </title>
<path fill="none" stroke="#000000" stroke-dasharray="5,2" d="M839.2372,-187.1061C839.2372,-187.1061 839.2372,-205.991 839.2372,-205.991"/>
<polygon fill="#000000" stroke="#000000" points="835.7373,-205.9909 839.2372,-215.991 842.7373,-205.991 835.7373,-205.9909"/>
</g>
<!-- ToggleComponent  -->
<g id="node21" class="node">
<title>ToggleComponent </title>
<polygon fill="#fb8072" stroke="#000000" points="752.4912,-252 627.5088,-252 627.5088,-216 752.4912,-216 752.4912,-252"/>
<text text-anchor="middle" x="690" y="-229.8" font-family="Times,serif" font-size="14.00" fill="#000000">ToggleComponent </text>
</g>
<!-- FormModule&#45;&gt;ToggleComponent  -->
<g id="edge20" class="edge">
<title>FormModule&#45;&gt;ToggleComponent </title>
<path fill="none" stroke="#000000" stroke-dasharray="5,2" d="M822.9319,-184C783.1772,-184 731.5163,-184 731.5163,-184 731.5163,-184 731.5163,-205.9489 731.5163,-205.9489"/>
<polygon fill="#000000" stroke="#000000" points="728.0164,-205.9488 731.5163,-215.9489 735.0164,-205.9489 728.0164,-205.9488"/>
</g>
<!-- UtilityModule  -->
<g id="node22" class="node">
<title>UtilityModule </title>
<polygon fill="#fb8072" stroke="#000000" points="609.6102,-252 510.3898,-252 510.3898,-216 609.6102,-216 609.6102,-252"/>
<text text-anchor="middle" x="560" y="-229.8" font-family="Times,serif" font-size="14.00" fill="#000000">UtilityModule </text>
</g>
<!-- FormModule&#45;&gt;UtilityModule  -->
<g id="edge21" class="edge">
<title>FormModule&#45;&gt;UtilityModule </title>
<path fill="none" stroke="#000000" stroke-dasharray="5,2" d="M823.1142,-181C740.4385,-181 572.4625,-181 572.4625,-181 572.4625,-181 572.4625,-205.7604 572.4625,-205.7604"/>
<polygon fill="#000000" stroke="#000000" points="568.9626,-205.7604 572.4625,-215.7604 575.9626,-205.7604 568.9626,-205.7604"/>
</g>
<!-- VisibleFieldsPipe  -->
<g id="node23" class="node">
<title>VisibleFieldsPipe </title>
<polygon fill="#fb8072" stroke="#000000" points="492.5484,-252 373.4516,-252 373.4516,-216 492.5484,-216 492.5484,-252"/>
<text text-anchor="middle" x="433" y="-229.8" font-family="Times,serif" font-size="14.00" fill="#000000">VisibleFieldsPipe </text>
</g>
<!-- FormModule&#45;&gt;VisibleFieldsPipe  -->
<g id="edge22" class="edge">
<title>FormModule&#45;&gt;VisibleFieldsPipe </title>
<path fill="none" stroke="#000000" stroke-dasharray="5,2" d="M823.0284,-178C711.7448,-178 432.4446,-178 432.4446,-178 432.4446,-178 432.4446,-205.973 432.4446,-205.973"/>
<polygon fill="#000000" stroke="#000000" points="428.9447,-205.973 432.4446,-215.973 435.9447,-205.973 428.9447,-205.973"/>
</g>
<!-- CalendarModule -->
<g id="node9" class="node">
<title>CalendarModule</title>
<polygon fill="#8dd3c7" stroke="#000000" points="923.0814,-122 920.0814,-126 899.0814,-126 896.0814,-122 812.9186,-122 812.9186,-86 923.0814,-86 923.0814,-122"/>
<text text-anchor="middle" x="868" y="-99.8" font-family="Times,serif" font-size="14.00" fill="#000000">CalendarModule</text>
</g>
<!-- CalendarModule&#45;&gt;FormModule -->
<g id="edge8" class="edge">
<title>CalendarModule&#45;&gt;FormModule</title>
<path fill="none" stroke="#000000" d="M868,-122.1061C868,-122.1061 868,-140.991 868,-140.991"/>
<polygon fill="#000000" stroke="#000000" points="864.5001,-140.9909 868,-150.991 871.5001,-140.991 864.5001,-140.9909"/>
</g>
<!-- IconModule -->
<g id="node10" class="node">
<title>IconModule</title>
<polygon fill="#8dd3c7" stroke="#000000" points="795.4261,-122 792.4261,-126 771.4261,-126 768.4261,-122 710.5739,-122 710.5739,-86 795.4261,-86 795.4261,-122"/>
<text text-anchor="middle" x="753" y="-99.8" font-family="Times,serif" font-size="14.00" fill="#000000">IconModule</text>
</g>
<!-- IconModule&#45;&gt;FormModule -->
<g id="edge9" class="edge">
<title>IconModule&#45;&gt;FormModule</title>
<path fill="none" stroke="#000000" d="M782.8982,-122.1243C782.8982,-136.7832 782.8982,-155 782.8982,-155 782.8982,-155 812.9571,-155 812.9571,-155"/>
<polygon fill="#000000" stroke="#000000" points="812.9572,-158.5001 822.9571,-155 812.9571,-151.5001 812.9572,-158.5001"/>
</g>
<!-- IoModule -->
<g id="node11" class="node">
<title>IoModule</title>
<polygon fill="#8dd3c7" stroke="#000000" points="692.7107,-122 689.7107,-126 668.7107,-126 665.7107,-122 621.2893,-122 621.2893,-86 692.7107,-86 692.7107,-122"/>
<text text-anchor="middle" x="657" y="-99.8" font-family="Times,serif" font-size="14.00" fill="#000000">IoModule</text>
</g>
<!-- IoModule&#45;&gt;FormModule -->
<g id="edge10" class="edge">
<title>IoModule&#45;&gt;FormModule</title>
<path fill="none" stroke="#000000" d="M660.18,-122.2819C660.18,-137.9478 660.18,-158 660.18,-158 660.18,-158 812.9062,-158 812.9062,-158"/>
<polygon fill="#000000" stroke="#000000" points="812.9062,-161.5001 822.9062,-158 812.9061,-154.5001 812.9062,-161.5001"/>
</g>
<!-- LoaderModule -->
<g id="node12" class="node">
<title>LoaderModule</title>
<polygon fill="#8dd3c7" stroke="#000000" points="603.6924,-122 600.6924,-126 579.6924,-126 576.6924,-122 504.3076,-122 504.3076,-86 603.6924,-86 603.6924,-122"/>
<text text-anchor="middle" x="554" y="-99.8" font-family="Times,serif" font-size="14.00" fill="#000000">LoaderModule</text>
</g>
<!-- LoaderModule&#45;&gt;FormModule -->
<g id="edge11" class="edge">
<title>LoaderModule&#45;&gt;FormModule</title>
<path fill="none" stroke="#000000" d="M541.3289,-122.0352C541.3289,-138.7344 541.3289,-161 541.3289,-161 541.3289,-161 812.9208,-161 812.9208,-161"/>
<polygon fill="#000000" stroke="#000000" points="812.9208,-164.5001 822.9208,-161 812.9207,-157.5001 812.9208,-164.5001"/>
</g>
<!-- PopModule -->
<g id="node13" class="node">
<title>PopModule</title>
<polygon fill="#8dd3c7" stroke="#000000" points="486.8331,-122 483.8331,-126 462.8331,-126 459.8331,-122 405.1669,-122 405.1669,-86 486.8331,-86 486.8331,-122"/>
<text text-anchor="middle" x="446" y="-99.8" font-family="Times,serif" font-size="14.00" fill="#000000">PopModule</text>
</g>
<!-- PopModule&#45;&gt;FormModule -->
<g id="edge12" class="edge">
<title>PopModule&#45;&gt;FormModule</title>
<path fill="none" stroke="#000000" d="M459.5554,-122.302C459.5554,-140.2699 459.5554,-165 459.5554,-165 459.5554,-165 812.7287,-165 812.7287,-165"/>
<polygon fill="#000000" stroke="#000000" points="812.7287,-168.5001 822.7287,-165 812.7287,-161.5001 812.7287,-168.5001"/>
</g>
<!-- SymbolModule -->
<g id="node14" class="node">
<title>SymbolModule</title>
<polygon fill="#8dd3c7" stroke="#000000" points="387.6137,-122 384.6137,-126 363.6137,-126 360.6137,-122 284.3863,-122 284.3863,-86 387.6137,-86 387.6137,-122"/>
<text text-anchor="middle" x="336" y="-99.8" font-family="Times,serif" font-size="14.00" fill="#000000">SymbolModule</text>
</g>
<!-- SymbolModule&#45;&gt;FormModule -->
<g id="edge13" class="edge">
<title>SymbolModule&#45;&gt;FormModule</title>
<path fill="none" stroke="#000000" d="M380.5163,-122.1686C380.5163,-141.0898 380.5163,-168 380.5163,-168 380.5163,-168 813.0125,-168 813.0125,-168"/>
<polygon fill="#000000" stroke="#000000" points="813.0125,-171.5001 823.0125,-168 813.0125,-164.5001 813.0125,-171.5001"/>
</g>
<!-- UtilityModule -->
<g id="node15" class="node">
<title>UtilityModule</title>
<polygon fill="#8dd3c7" stroke="#000000" points="266.1095,-122 263.1095,-126 242.1095,-126 239.1095,-122 169.8905,-122 169.8905,-86 266.1095,-86 266.1095,-122"/>
<text text-anchor="middle" x="218" y="-99.8" font-family="Times,serif" font-size="14.00" fill="#000000">UtilityModule</text>
</g>
<!-- UtilityModule&#45;&gt;FormModule -->
<g id="edge14" class="edge">
<title>UtilityModule&#45;&gt;FormModule</title>
<path fill="none" stroke="#000000" d="M218,-122.308C218,-142.1455 218,-171 218,-171 218,-171 813.0664,-171 813.0664,-171"/>
<polygon fill="#000000" stroke="#000000" points="813.0664,-174.5001 823.0664,-171 813.0664,-167.5001 813.0664,-174.5001"/>
</g>
<!-- FormService -->
<g id="node24" class="node">
<title>FormService</title>
<ellipse fill="#fdb462" stroke="#000000" cx="85" cy="-104" rx="60.8313" ry="18"/>
<text text-anchor="middle" x="85" y="-99.8" font-family="Times,serif" font-size="14.00" fill="#000000">FormService</text>
</g>
<!-- FormService&#45;&gt;FormModule -->
<g id="edge23" class="edge">
<title>FormService&#45;&gt;FormModule</title>
<path fill="none" stroke="#000000" d="M85,-122.0267C85,-142.7672 85,-174 85,-174 85,-174 813.0902,-174 813.0902,-174"/>
<polygon fill="#000000" stroke="#000000" points="813.0903,-177.5001 823.0902,-174 813.0902,-170.5001 813.0903,-177.5001"/>
</g>
</g>
</svg>
