<?xml version="1.0" encoding="UTF-8" standalone="no"?>
<!DOCTYPE svg PUBLIC "-//W3C//DTD SVG 1.1//EN"
 "http://www.w3.org/Graphics/SVG/1.1/DTD/svg11.dtd">
<!-- Generated by graphviz version 2.40.1 (20161225.0304)
 -->
<!-- Title: dependencies Pages: 1 -->
<svg width="1415pt" height="284pt"
 viewBox="0.00 0.00 1415.00 284.00" xmlns="http://www.w3.org/2000/svg" xmlns:xlink="http://www.w3.org/1999/xlink">
<g id="graph0" class="graph" transform="scale(1 1) rotate(0) translate(4 280)">
<title>dependencies</title>
<polygon fill="#ffffff" stroke="transparent" points="-4,4 -4,-280 1411,-280 1411,4 -4,4"/>
<text text-anchor="start" x="682.5091" y="-42.4" font-family="sans-serif" font-weight="bold" font-size="14.00" fill="#000000">Legend</text>
<polygon fill="#ffffb3" stroke="transparent" points="469.5,-10 469.5,-30 489.5,-30 489.5,-10 469.5,-10"/>
<text text-anchor="start" x="493.129" y="-15.4" font-family="sans-serif" font-size="14.00" fill="#000000"> &#160;Declarations</text>
<polygon fill="#8dd3c7" stroke="transparent" points="582.5,-10 582.5,-30 602.5,-30 602.5,-10 582.5,-10"/>
<text text-anchor="start" x="606.2251" y="-15.4" font-family="sans-serif" font-size="14.00" fill="#000000"> &#160;Module</text>
<polygon fill="#80b1d3" stroke="transparent" points="668.5,-10 668.5,-30 688.5,-30 688.5,-10 668.5,-10"/>
<text text-anchor="start" x="692.2812" y="-15.4" font-family="sans-serif" font-size="14.00" fill="#000000"> &#160;Bootstrap</text>
<polygon fill="#fdb462" stroke="transparent" points="765.5,-10 765.5,-30 785.5,-30 785.5,-10 765.5,-10"/>
<text text-anchor="start" x="789.1732" y="-15.4" font-family="sans-serif" font-size="14.00" fill="#000000"> &#160;Providers</text>
<polygon fill="#fb8072" stroke="transparent" points="861.5,-10 861.5,-30 881.5,-30 881.5,-10 861.5,-10"/>
<text text-anchor="start" x="885.2258" y="-15.4" font-family="sans-serif" font-size="14.00" fill="#000000"> &#160;Exports</text>
<g id="clust1" class="cluster">
<title>cluster_FormModule</title>
<polygon fill="none" stroke="#000000" stroke-dasharray="1,5" points="8,-70 8,-268 1399,-268 1399,-70 8,-70"/>
</g>
<g id="clust2" class="cluster">
<title>cluster_FormModule_declarations</title>
<polygon fill="none" stroke="#000000" points="357,-78 357,-130 1391,-130 1391,-78 357,-78"/>
</g>
<g id="clust10" class="cluster">
<title>cluster_FormModule_imports</title>
<polygon fill="none" stroke="#000000" points="162,-78 162,-130 349,-130 349,-78 162,-78"/>
</g>
<g id="clust11" class="cluster">
<title>cluster_FormModule_exports</title>
<polygon fill="none" stroke="#000000" points="228,-208 228,-260 1124,-260 1124,-208 228,-208"/>
</g>
<g id="clust13" class="cluster">
<title>cluster_FormModule_providers</title>
<polygon fill="none" stroke="#000000" points="16,-78 16,-130 154,-130 154,-78 16,-78"/>
</g>
<!-- FormComponent -->
<g id="node1" class="node">
<title>FormComponent</title>
<polygon fill="#ffffb3" stroke="#000000" points="1382.6667,-122 1271.3333,-122 1271.3333,-86 1382.6667,-86 1382.6667,-122"/>
<text text-anchor="middle" x="1327" y="-99.8" font-family="Times,serif" font-size="14.00" fill="#000000">FormComponent</text>
</g>
<!-- FormModule -->
<g id="node8" class="node">
<title>FormModule</title>
<polygon fill="#8dd3c7" stroke="#000000" points="674.8837,-187 671.8837,-191 650.8837,-191 647.8837,-187 585.1163,-187 585.1163,-151 674.8837,-151 674.8837,-187"/>
<text text-anchor="middle" x="630" y="-164.8" font-family="Times,serif" font-size="14.00" fill="#000000">FormModule</text>
</g>
<!-- FormComponent&#45;&gt;FormModule -->
<g id="edge1" class="edge">
<title>FormComponent&#45;&gt;FormModule</title>
<path fill="none" stroke="#000000" d="M1327,-122.1061C1327,-141.3391 1327,-169 1327,-169 1327,-169 684.9276,-169 684.9276,-169"/>
<polygon fill="#000000" stroke="#000000" points="684.9276,-165.5001 674.9276,-169 684.9275,-172.5001 684.9276,-165.5001"/>
</g>
<!-- DefaultInputComponent -->
<g id="node2" class="node">
<title>DefaultInputComponent</title>
<polygon fill="#ffffb3" stroke="#000000" points="1253.3613,-122 1100.6387,-122 1100.6387,-86 1253.3613,-86 1253.3613,-122"/>
<text text-anchor="middle" x="1177" y="-99.8" font-family="Times,serif" font-size="14.00" fill="#000000">DefaultInputComponent</text>
</g>
<!-- DefaultInputComponent&#45;&gt;FormModule -->
<g id="edge2" class="edge">
<title>DefaultInputComponent&#45;&gt;FormModule</title>
<path fill="none" stroke="#000000" d="M1108.0763,-122.302C1108.0763,-140.2699 1108.0763,-165 1108.0763,-165 1108.0763,-165 684.9763,-165 684.9763,-165"/>
<polygon fill="#000000" stroke="#000000" points="684.9763,-161.5001 674.9763,-165 684.9762,-168.5001 684.9763,-161.5001"/>
</g>
<!-- DefaultOutputComponent -->
<g id="node3" class="node">
<title>DefaultOutputComponent</title>
<polygon fill="#ffffb3" stroke="#000000" points="1082.1979,-122 919.8021,-122 919.8021,-86 1082.1979,-86 1082.1979,-122"/>
<text text-anchor="middle" x="1001" y="-99.8" font-family="Times,serif" font-size="14.00" fill="#000000">DefaultOutputComponent</text>
</g>
<!-- DefaultOutputComponent&#45;&gt;FormModule -->
<g id="edge3" class="edge">
<title>DefaultOutputComponent&#45;&gt;FormModule</title>
<path fill="none" stroke="#000000" d="M951.2106,-122.027C951.2106,-138.3976 951.2106,-160 951.2106,-160 951.2106,-160 685.0012,-160 685.0012,-160"/>
<polygon fill="#000000" stroke="#000000" points="685.0012,-156.5001 675.0012,-160 685.0011,-163.5001 685.0012,-156.5001"/>
</g>
<!-- SelectComponent -->
<g id="node4" class="node">
<title>SelectComponent</title>
<polygon fill="#ffffb3" stroke="#000000" points="901.5409,-122 786.4591,-122 786.4591,-86 901.5409,-86 901.5409,-122"/>
<text text-anchor="middle" x="844" y="-99.8" font-family="Times,serif" font-size="14.00" fill="#000000">SelectComponent</text>
</g>
<!-- SelectComponent&#45;&gt;FormModule -->
<g id="edge4" class="edge">
<title>SelectComponent&#45;&gt;FormModule</title>
<path fill="none" stroke="#000000" d="M815.6513,-122.1871C815.6513,-137.1824 815.6513,-156 815.6513,-156 815.6513,-156 684.941,-156 684.941,-156"/>
<polygon fill="#000000" stroke="#000000" points="684.941,-152.5001 674.941,-156 684.941,-159.5001 684.941,-152.5001"/>
</g>
<!-- DatetimeComponent -->
<g id="node5" class="node">
<title>DatetimeComponent</title>
<polygon fill="#ffffb3" stroke="#000000" points="768.1457,-122 635.8543,-122 635.8543,-86 768.1457,-86 768.1457,-122"/>
<text text-anchor="middle" x="702" y="-99.8" font-family="Times,serif" font-size="14.00" fill="#000000">DatetimeComponent</text>
</g>
<!-- DatetimeComponent&#45;&gt;FormModule -->
<g id="edge5" class="edge">
<title>DatetimeComponent&#45;&gt;FormModule</title>
<path fill="none" stroke="#000000" d="M655.3096,-122.1061C655.3096,-122.1061 655.3096,-140.991 655.3096,-140.991"/>
<polygon fill="#000000" stroke="#000000" points="651.8097,-140.9909 655.3096,-150.991 658.8097,-140.991 651.8097,-140.9909"/>
</g>
<!-- MonthComponent -->
<g id="node6" class="node">
<title>MonthComponent</title>
<polygon fill="#ffffb3" stroke="#000000" points="617.1681,-122 498.8319,-122 498.8319,-86 617.1681,-86 617.1681,-122"/>
<text text-anchor="middle" x="558" y="-99.8" font-family="Times,serif" font-size="14.00" fill="#000000">MonthComponent</text>
</g>
<!-- MonthComponent&#45;&gt;FormModule -->
<g id="edge6" class="edge">
<title>MonthComponent&#45;&gt;FormModule</title>
<path fill="none" stroke="#000000" d="M601.196,-122.1061C601.196,-122.1061 601.196,-140.991 601.196,-140.991"/>
<polygon fill="#000000" stroke="#000000" points="597.6961,-140.9909 601.196,-150.991 604.6961,-140.991 597.6961,-140.9909"/>
</g>
<!-- VisibleFieldsPipe -->
<g id="node7" class="node">
<title>VisibleFieldsPipe</title>
<polygon fill="#ffffb3" stroke="#000000" points="480.5493,-122 365.4507,-122 365.4507,-86 480.5493,-86 480.5493,-122"/>
<text text-anchor="middle" x="423" y="-99.8" font-family="Times,serif" font-size="14.00" fill="#000000">VisibleFieldsPipe</text>
</g>
<!-- VisibleFieldsPipe&#45;&gt;FormModule -->
<g id="edge7" class="edge">
<title>VisibleFieldsPipe&#45;&gt;FormModule</title>
<path fill="none" stroke="#000000" d="M473.179,-122.1871C473.179,-137.1824 473.179,-156 473.179,-156 473.179,-156 575.0614,-156 575.0614,-156"/>
<polygon fill="#000000" stroke="#000000" points="575.0614,-159.5001 585.0614,-156 575.0614,-152.5001 575.0614,-159.5001"/>
</g>
<!-- FormComponent  -->
<g id="node11" class="node">
<title>FormComponent </title>
<polygon fill="#fb8072" stroke="#000000" points="1115.6663,-252 1000.3337,-252 1000.3337,-216 1115.6663,-216 1115.6663,-252"/>
<text text-anchor="middle" x="1058" y="-229.8" font-family="Times,serif" font-size="14.00" fill="#000000">FormComponent </text>
</g>
<!-- FormModule&#45;&gt;FormComponent  -->
<g id="edge10" class="edge">
<title>FormModule&#45;&gt;FormComponent </title>
<path fill="none" stroke="#000000" stroke-dasharray="5,2" d="M675.1882,-174C782.0218,-174 1041.2579,-174 1041.2579,-174 1041.2579,-174 1041.2579,-205.998 1041.2579,-205.998"/>
<polygon fill="#000000" stroke="#000000" points="1037.758,-205.998 1041.2579,-215.998 1044.758,-205.9981 1037.758,-205.998"/>
</g>
<!-- SelectComponent  -->
<g id="node12" class="node">
<title>SelectComponent </title>
<polygon fill="#fb8072" stroke="#000000" points="982.54,-252 863.46,-252 863.46,-216 982.54,-216 982.54,-252"/>
<text text-anchor="middle" x="923" y="-229.8" font-family="Times,serif" font-size="14.00" fill="#000000">SelectComponent </text>
</g>
<!-- FormModule&#45;&gt;SelectComponent  -->
<g id="edge11" class="edge">
<title>FormModule&#45;&gt;SelectComponent </title>
<path fill="none" stroke="#000000" stroke-dasharray="5,2" d="M675.1643,-178C747.8282,-178 882.625,-178 882.625,-178 882.625,-178 882.625,-205.973 882.625,-205.973"/>
<polygon fill="#000000" stroke="#000000" points="879.1251,-205.973 882.625,-215.973 886.1251,-205.973 879.1251,-205.973"/>
</g>
<!-- DatetimeComponent  -->
<g id="node13" class="node">
<title>DatetimeComponent </title>
<polygon fill="#fb8072" stroke="#000000" points="845.1453,-252 708.8547,-252 708.8547,-216 845.1453,-216 845.1453,-252"/>
<text text-anchor="middle" x="777" y="-229.8" font-family="Times,serif" font-size="14.00" fill="#000000">DatetimeComponent </text>
</g>
<!-- FormModule&#45;&gt;DatetimeComponent  -->
<g id="edge12" class="edge">
<title>FormModule&#45;&gt;DatetimeComponent </title>
<path fill="none" stroke="#000000" stroke-dasharray="5,2" d="M675.1231,-183C704.9677,-183 738.625,-183 738.625,-183 738.625,-183 738.625,-205.8757 738.625,-205.8757"/>
<polygon fill="#000000" stroke="#000000" points="735.1251,-205.8757 738.625,-215.8757 742.1251,-205.8757 735.1251,-205.8757"/>
</g>
<!-- MonthComponent  -->
<g id="node14" class="node">
<title>MonthComponent </title>
<polygon fill="#fb8072" stroke="#000000" points="691.1677,-252 568.8323,-252 568.8323,-216 691.1677,-216 691.1677,-252"/>
<text text-anchor="middle" x="630" y="-229.8" font-family="Times,serif" font-size="14.00" fill="#000000">MonthComponent </text>
</g>
<!-- FormModule&#45;&gt;MonthComponent  -->
<g id="edge13" class="edge">
<title>FormModule&#45;&gt;MonthComponent </title>
<path fill="none" stroke="#000000" stroke-dasharray="5,2" d="M630,-187.1061C630,-187.1061 630,-205.991 630,-205.991"/>
<polygon fill="#000000" stroke="#000000" points="626.5001,-205.9909 630,-215.991 633.5001,-205.991 626.5001,-205.9909"/>
</g>
<!-- PopModule  -->
<g id="node15" class="node">
<title>PopModule </title>
<polygon fill="#fb8072" stroke="#000000" points="550.3326,-252 465.6674,-252 465.6674,-216 550.3326,-216 550.3326,-252"/>
<text text-anchor="middle" x="508" y="-229.8" font-family="Times,serif" font-size="14.00" fill="#000000">PopModule </text>
</g>
<!-- FormModule&#45;&gt;PopModule  -->
<g id="edge14" class="edge">
<title>FormModule&#45;&gt;PopModule </title>
<path fill="none" stroke="#000000" stroke-dasharray="5,2" d="M584.9701,-183C556.3067,-183 524.5412,-183 524.5412,-183 524.5412,-183 524.5412,-205.8757 524.5412,-205.8757"/>
<polygon fill="#000000" stroke="#000000" points="521.0413,-205.8757 524.5412,-215.8757 528.0413,-205.8757 521.0413,-205.8757"/>
</g>
<!-- VisibleFieldsPipe  -->
<g id="node16" class="node">
<title>VisibleFieldsPipe </title>
<polygon fill="#fb8072" stroke="#000000" points="447.5484,-252 328.4516,-252 328.4516,-216 447.5484,-216 447.5484,-252"/>
<text text-anchor="middle" x="388" y="-229.8" font-family="Times,serif" font-size="14.00" fill="#000000">VisibleFieldsPipe </text>
</g>
<!-- FormModule&#45;&gt;VisibleFieldsPipe  -->
<g id="edge15" class="edge">
<title>FormModule&#45;&gt;VisibleFieldsPipe </title>
<path fill="none" stroke="#000000" stroke-dasharray="5,2" d="M585.0151,-178C519.713,-178 406.375,-178 406.375,-178 406.375,-178 406.375,-205.973 406.375,-205.973"/>
<polygon fill="#000000" stroke="#000000" points="402.8751,-205.973 406.375,-215.973 409.8751,-205.973 402.8751,-205.973"/>
</g>
<!-- IoModule  -->
<g id="node17" class="node">
<title>IoModule </title>
<polygon fill="#fb8072" stroke="#000000" points="310.211,-252 235.789,-252 235.789,-216 310.211,-216 310.211,-252"/>
<text text-anchor="middle" x="273" y="-229.8" font-family="Times,serif" font-size="14.00" fill="#000000">IoModule </text>
</g>
<!-- FormModule&#45;&gt;IoModule  -->
<g id="edge16" class="edge">
<title>FormModule&#45;&gt;IoModule </title>
<path fill="none" stroke="#000000" stroke-dasharray="5,2" d="M584.8769,-174C491.3184,-174 284.8445,-174 284.8445,-174 284.8445,-174 284.8445,-205.998 284.8445,-205.998"/>
<polygon fill="#000000" stroke="#000000" points="281.3446,-205.998 284.8445,-215.998 288.3446,-205.9981 281.3446,-205.998"/>
</g>
<!-- PopModule -->
<g id="node9" class="node">
<title>PopModule</title>
<polygon fill="#8dd3c7" stroke="#000000" points="340.8331,-122 337.8331,-126 316.8331,-126 313.8331,-122 259.1669,-122 259.1669,-86 340.8331,-86 340.8331,-122"/>
<text text-anchor="middle" x="300" y="-99.8" font-family="Times,serif" font-size="14.00" fill="#000000">PopModule</text>
</g>
<!-- PopModule&#45;&gt;FormModule -->
<g id="edge8" class="edge">
<title>PopModule&#45;&gt;FormModule</title>
<path fill="none" stroke="#000000" d="M334.571,-122.027C334.571,-138.3976 334.571,-160 334.571,-160 334.571,-160 574.8091,-160 574.8091,-160"/>
<polygon fill="#000000" stroke="#000000" points="574.8091,-163.5001 584.8091,-160 574.8091,-156.5001 574.8091,-163.5001"/>
</g>
<!-- IoModule -->
<g id="node10" class="node">
<title>IoModule</title>
<polygon fill="#8dd3c7" stroke="#000000" points="241.7107,-122 238.7107,-126 217.7107,-126 214.7107,-122 170.2893,-122 170.2893,-86 241.7107,-86 241.7107,-122"/>
<text text-anchor="middle" x="206" y="-99.8" font-family="Times,serif" font-size="14.00" fill="#000000">IoModule</text>
</g>
<!-- IoModule&#45;&gt;FormModule -->
<g id="edge9" class="edge">
<title>IoModule&#45;&gt;FormModule</title>
<path fill="none" stroke="#000000" d="M203.0198,-122.302C203.0198,-140.2699 203.0198,-165 203.0198,-165 203.0198,-165 575.1127,-165 575.1127,-165"/>
<polygon fill="#000000" stroke="#000000" points="575.1127,-168.5001 585.1127,-165 575.1126,-161.5001 575.1127,-168.5001"/>
</g>
<!-- FormService -->
<g id="node18" class="node">
<title>FormService</title>
<ellipse fill="#fdb462" stroke="#000000" cx="85" cy="-104" rx="60.8313" ry="18"/>
<text text-anchor="middle" x="85" y="-99.8" font-family="Times,serif" font-size="14.00" fill="#000000">FormService</text>
</g>
<!-- FormService&#45;&gt;FormModule -->
<g id="edge17" class="edge">
<title>FormService&#45;&gt;FormModule</title>
<path fill="none" stroke="#000000" d="M85,-122.1061C85,-141.3391 85,-169 85,-169 85,-169 574.9367,-169 574.9367,-169"/>
<polygon fill="#000000" stroke="#000000" points="574.9367,-172.5001 584.9367,-169 574.9367,-165.5001 574.9367,-172.5001"/>
</g>
</g>
</svg>
