<?xml version="1.0" encoding="UTF-8" standalone="no"?>
<!DOCTYPE svg PUBLIC "-//W3C//DTD SVG 1.1//EN"
 "http://www.w3.org/Graphics/SVG/1.1/DTD/svg11.dtd">
<!-- Generated by graphviz version 2.47.0 (20210316.0004)
 -->
<!-- Title: dependencies Pages: 1 -->
<svg width="2117pt" height="284pt"
 viewBox="0.00 0.00 2117.00 284.00" xmlns="http://www.w3.org/2000/svg" xmlns:xlink="http://www.w3.org/1999/xlink">
<g id="graph0" class="graph" transform="scale(1 1) rotate(0) translate(4 280)">
<title>dependencies</title>
<polygon fill="white" stroke="transparent" points="-4,4 -4,-280 2113,-280 2113,4 -4,4"/>
<text text-anchor="start" x="1033.51" y="-42.4" font-family="sans-serif" font-weight="bold" font-size="14.00">Legend</text>
<polygon fill="#ffffb3" stroke="transparent" points="820.5,-10 820.5,-30 840.5,-30 840.5,-10 820.5,-10"/>
<text text-anchor="start" x="844.13" y="-15.4" font-family="sans-serif" font-size="14.00"> &#160;Declarations</text>
<polygon fill="#8dd3c7" stroke="transparent" points="933.5,-10 933.5,-30 953.5,-30 953.5,-10 933.5,-10"/>
<text text-anchor="start" x="957.23" y="-15.4" font-family="sans-serif" font-size="14.00"> &#160;Module</text>
<polygon fill="#80b1d3" stroke="transparent" points="1019.5,-10 1019.5,-30 1039.5,-30 1039.5,-10 1019.5,-10"/>
<text text-anchor="start" x="1043.28" y="-15.4" font-family="sans-serif" font-size="14.00"> &#160;Bootstrap</text>
<polygon fill="#fdb462" stroke="transparent" points="1116.5,-10 1116.5,-30 1136.5,-30 1136.5,-10 1116.5,-10"/>
<text text-anchor="start" x="1140.17" y="-15.4" font-family="sans-serif" font-size="14.00"> &#160;Providers</text>
<polygon fill="#fb8072" stroke="transparent" points="1212.5,-10 1212.5,-30 1232.5,-30 1232.5,-10 1212.5,-10"/>
<text text-anchor="start" x="1236.23" y="-15.4" font-family="sans-serif" font-size="14.00"> &#160;Exports</text>
<g id="clust1" class="cluster">
<title>cluster_FormModule</title>
<polygon fill="none" stroke="black" stroke-dasharray="1,5" points="8,-70 8,-268 2101,-268 2101,-70 8,-70"/>
</g>
<g id="clust2" class="cluster">
<title>cluster_FormModule_declarations</title>
<polygon fill="none" stroke="black" points="939,-78 939,-130 2093,-130 2093,-78 939,-78"/>
</g>
<g id="clust11" class="cluster">
<title>cluster_FormModule_imports</title>
<polygon fill="none" stroke="black" points="162,-78 162,-130 931,-130 931,-78 162,-78"/>
</g>
<g id="clust14" class="cluster">
<title>cluster_FormModule_providers</title>
<polygon fill="none" stroke="black" points="16,-78 16,-130 154,-130 154,-78 16,-78"/>
</g>
<g id="clust12" class="cluster">
<title>cluster_FormModule_exports</title>
<polygon fill="none" stroke="black" points="433,-208 433,-260 1431,-260 1431,-208 433,-208"/>
</g>
<!-- DatetimeComponent -->
<g id="node1" class="node">
<title>DatetimeComponent</title>
<polygon fill="#ffffb3" stroke="black" points="2085.15,-122 1952.85,-122 1952.85,-86 2085.15,-86 2085.15,-122"/>
<text text-anchor="middle" x="2019" y="-99.8" font-family="Times,serif" font-size="14.00">DatetimeComponent</text>
</g>
<!-- FormModule -->
<g id="node9" class="node">
<title>FormModule</title>
<polygon fill="#8dd3c7" stroke="black" points="980.88,-187 977.88,-191 956.88,-191 953.88,-187 891.12,-187 891.12,-151 980.88,-151 980.88,-187"/>
<text text-anchor="middle" x="936" y="-164.8" font-family="Times,serif" font-size="14.00">FormModule</text>
</g>
<!-- DatetimeComponent&#45;&gt;FormModule -->
<g id="edge1" class="edge">
<title>DatetimeComponent&#45;&gt;FormModule</title>
<path fill="none" stroke="black" d="M2019,-122.03C2019,-142.77 2019,-174 2019,-174 2019,-174 991.16,-174 991.16,-174"/>
<polygon fill="black" stroke="black" points="991.16,-170.5 981.16,-174 991.16,-177.5 991.16,-170.5"/>
</g>
<!-- DefaultInputComponent -->
<g id="node2" class="node">
<title>DefaultInputComponent</title>
<polygon fill="#ffffb3" stroke="black" points="1934.36,-122 1781.64,-122 1781.64,-86 1934.36,-86 1934.36,-122"/>
<text text-anchor="middle" x="1858" y="-99.8" font-family="Times,serif" font-size="14.00">DefaultInputComponent</text>
</g>
<!-- DefaultInputComponent&#45;&gt;FormModule -->
<g id="edge2" class="edge">
<title>DefaultInputComponent&#45;&gt;FormModule</title>
<path fill="none" stroke="black" d="M1858,-122.31C1858,-142.15 1858,-171 1858,-171 1858,-171 991.09,-171 991.09,-171"/>
<polygon fill="black" stroke="black" points="991.09,-167.5 981.09,-171 991.09,-174.5 991.09,-167.5"/>
</g>
<!-- DefaultOutputComponent -->
<g id="node3" class="node">
<title>DefaultOutputComponent</title>
<polygon fill="#ffffb3" stroke="black" points="1763.2,-122 1600.8,-122 1600.8,-86 1763.2,-86 1763.2,-122"/>
<text text-anchor="middle" x="1682" y="-99.8" font-family="Times,serif" font-size="14.00">DefaultOutputComponent</text>
</g>
<!-- DefaultOutputComponent&#45;&gt;FormModule -->
<g id="edge3" class="edge">
<title>DefaultOutputComponent&#45;&gt;FormModule</title>
<path fill="none" stroke="black" d="M1682,-122.17C1682,-141.09 1682,-168 1682,-168 1682,-168 990.99,-168 990.99,-168"/>
<polygon fill="black" stroke="black" points="990.99,-164.5 980.99,-168 990.99,-171.5 990.99,-164.5"/>
</g>
<!-- FormComponent -->
<g id="node4" class="node">
<title>FormComponent</title>
<polygon fill="#ffffb3" stroke="black" points="1582.67,-122 1471.33,-122 1471.33,-86 1582.67,-86 1582.67,-122"/>
<text text-anchor="middle" x="1527" y="-99.8" font-family="Times,serif" font-size="14.00">FormComponent</text>
</g>
<!-- FormComponent&#45;&gt;FormModule -->
<g id="edge4" class="edge">
<title>FormComponent&#45;&gt;FormModule</title>
<path fill="none" stroke="black" d="M1527,-122.3C1527,-140.27 1527,-165 1527,-165 1527,-165 990.91,-165 990.91,-165"/>
<polygon fill="black" stroke="black" points="990.91,-161.5 980.91,-165 990.91,-168.5 990.91,-161.5"/>
</g>
<!-- MaxItemsPipe -->
<g id="node5" class="node">
<title>MaxItemsPipe</title>
<polygon fill="#ffffb3" stroke="black" points="1452.65,-122 1355.35,-122 1355.35,-86 1452.65,-86 1452.65,-122"/>
<text text-anchor="middle" x="1404" y="-99.8" font-family="Times,serif" font-size="14.00">MaxItemsPipe</text>
</g>
<!-- MaxItemsPipe&#45;&gt;FormModule -->
<g id="edge5" class="edge">
<title>MaxItemsPipe&#45;&gt;FormModule</title>
<path fill="none" stroke="black" d="M1389.12,-122.04C1389.12,-138.73 1389.12,-161 1389.12,-161 1389.12,-161 991.1,-161 991.1,-161"/>
<polygon fill="black" stroke="black" points="991.1,-157.5 981.1,-161 991.1,-164.5 991.1,-157.5"/>
</g>
<!-- PeriodComponent -->
<g id="node6" class="node">
<title>PeriodComponent</title>
<polygon fill="#ffffb3" stroke="black" points="1336.88,-122 1219.12,-122 1219.12,-86 1336.88,-86 1336.88,-122"/>
<text text-anchor="middle" x="1278" y="-99.8" font-family="Times,serif" font-size="14.00">PeriodComponent</text>
</g>
<!-- PeriodComponent&#45;&gt;FormModule -->
<g id="edge6" class="edge">
<title>PeriodComponent&#45;&gt;FormModule</title>
<path fill="none" stroke="black" d="M1243.82,-122.28C1243.82,-137.95 1243.82,-158 1243.82,-158 1243.82,-158 991.09,-158 991.09,-158"/>
<polygon fill="black" stroke="black" points="991.09,-154.5 981.09,-158 991.09,-161.5 991.09,-154.5"/>
</g>
<!-- ToggleComponent -->
<g id="node7" class="node">
<title>ToggleComponent</title>
<polygon fill="#ffffb3" stroke="black" points="1201.49,-122 1080.51,-122 1080.51,-86 1201.49,-86 1201.49,-122"/>
<text text-anchor="middle" x="1141" y="-99.8" font-family="Times,serif" font-size="14.00">ToggleComponent</text>
</g>
<!-- ToggleComponent&#45;&gt;FormModule -->
<g id="edge7" class="edge">
<title>ToggleComponent&#45;&gt;FormModule</title>
<path fill="none" stroke="black" d="M1107.93,-122.12C1107.93,-136.78 1107.93,-155 1107.93,-155 1107.93,-155 991.17,-155 991.17,-155"/>
<polygon fill="black" stroke="black" points="991.17,-151.5 981.17,-155 991.17,-158.5 991.17,-151.5"/>
</g>
<!-- VisibleFieldsPipe -->
<g id="node8" class="node">
<title>VisibleFieldsPipe</title>
<polygon fill="#ffffb3" stroke="black" points="1062.55,-122 947.45,-122 947.45,-86 1062.55,-86 1062.55,-122"/>
<text text-anchor="middle" x="1005" y="-99.8" font-family="Times,serif" font-size="14.00">VisibleFieldsPipe</text>
</g>
<!-- VisibleFieldsPipe&#45;&gt;FormModule -->
<g id="edge8" class="edge">
<title>VisibleFieldsPipe&#45;&gt;FormModule</title>
<path fill="none" stroke="black" d="M964.08,-122.11C964.08,-122.11 964.08,-140.99 964.08,-140.99"/>
<polygon fill="black" stroke="black" points="960.58,-140.99 964.08,-150.99 967.58,-140.99 960.58,-140.99"/>
</g>
<!-- DatetimeComponent  -->
<g id="node17" class="node">
<title>DatetimeComponent </title>
<polygon fill="#fb8072" stroke="black" points="1423.15,-252 1286.85,-252 1286.85,-216 1423.15,-216 1423.15,-252"/>
<text text-anchor="middle" x="1355" y="-229.8" font-family="Times,serif" font-size="14.00">DatetimeComponent </text>
</g>
<!-- FormModule&#45;&gt;DatetimeComponent  -->
<g id="edge16" class="edge">
<title>FormModule&#45;&gt;DatetimeComponent </title>
<path fill="none" stroke="black" stroke-dasharray="5,2" d="M980.97,-178C1080.76,-178 1311.93,-178 1311.93,-178 1311.93,-178 1311.93,-205.97 1311.93,-205.97"/>
<polygon fill="black" stroke="black" points="1308.43,-205.97 1311.93,-215.97 1315.43,-205.97 1308.43,-205.97"/>
</g>
<!-- FormComponent  -->
<g id="node18" class="node">
<title>FormComponent </title>
<polygon fill="#fb8072" stroke="black" points="1268.67,-252 1153.33,-252 1153.33,-216 1268.67,-216 1268.67,-252"/>
<text text-anchor="middle" x="1211" y="-229.8" font-family="Times,serif" font-size="14.00">FormComponent </text>
</g>
<!-- FormModule&#45;&gt;FormComponent  -->
<g id="edge17" class="edge">
<title>FormModule&#45;&gt;FormComponent </title>
<path fill="none" stroke="black" stroke-dasharray="5,2" d="M981.13,-181C1051.02,-181 1177.46,-181 1177.46,-181 1177.46,-181 1177.46,-205.76 1177.46,-205.76"/>
<polygon fill="black" stroke="black" points="1173.96,-205.76 1177.46,-215.76 1180.96,-205.76 1173.96,-205.76"/>
</g>
<!-- IoModule  -->
<g id="node19" class="node">
<title>IoModule </title>
<polygon fill="#fb8072" stroke="black" points="1135.21,-252 1060.79,-252 1060.79,-216 1135.21,-216 1135.21,-252"/>
<text text-anchor="middle" x="1098" y="-229.8" font-family="Times,serif" font-size="14.00">IoModule </text>
</g>
<!-- FormModule&#45;&gt;IoModule  -->
<g id="edge18" class="edge">
<title>FormModule&#45;&gt;IoModule </title>
<path fill="none" stroke="black" stroke-dasharray="5,2" d="M981.17,-184C1020.62,-184 1071.64,-184 1071.64,-184 1071.64,-184 1071.64,-205.95 1071.64,-205.95"/>
<polygon fill="black" stroke="black" points="1068.14,-205.95 1071.64,-215.95 1075.14,-205.95 1068.14,-205.95"/>
</g>
<!-- MaxItemsPipe  -->
<g id="node20" class="node">
<title>MaxItemsPipe </title>
<polygon fill="#fb8072" stroke="black" points="1042.65,-252 941.35,-252 941.35,-216 1042.65,-216 1042.65,-252"/>
<text text-anchor="middle" x="992" y="-229.8" font-family="Times,serif" font-size="14.00">MaxItemsPipe </text>
</g>
<!-- FormModule&#45;&gt;MaxItemsPipe  -->
<g id="edge19" class="edge">
<title>FormModule&#45;&gt;MaxItemsPipe </title>
<path fill="none" stroke="black" stroke-dasharray="5,2" d="M961.18,-187.11C961.18,-187.11 961.18,-205.99 961.18,-205.99"/>
<polygon fill="black" stroke="black" points="957.68,-205.99 961.18,-215.99 964.68,-205.99 957.68,-205.99"/>
</g>
<!-- PopModule  -->
<g id="node21" class="node">
<title>PopModule </title>
<polygon fill="#fb8072" stroke="black" points="923.33,-252 838.67,-252 838.67,-216 923.33,-216 923.33,-252"/>
<text text-anchor="middle" x="881" y="-229.8" font-family="Times,serif" font-size="14.00">PopModule </text>
</g>
<!-- FormModule&#45;&gt;PopModule  -->
<g id="edge20" class="edge">
<title>FormModule&#45;&gt;PopModule </title>
<path fill="none" stroke="black" stroke-dasharray="5,2" d="M907.24,-187.11C907.24,-187.11 907.24,-205.99 907.24,-205.99"/>
<polygon fill="black" stroke="black" points="903.74,-205.99 907.24,-215.99 910.74,-205.99 903.74,-205.99"/>
</g>
<!-- ToggleComponent  -->
<g id="node22" class="node">
<title>ToggleComponent </title>
<polygon fill="#fb8072" stroke="black" points="820.49,-252 695.51,-252 695.51,-216 820.49,-216 820.49,-252"/>
<text text-anchor="middle" x="758" y="-229.8" font-family="Times,serif" font-size="14.00">ToggleComponent </text>
</g>
<!-- FormModule&#45;&gt;ToggleComponent  -->
<g id="edge21" class="edge">
<title>FormModule&#45;&gt;ToggleComponent </title>
<path fill="none" stroke="black" stroke-dasharray="5,2" d="M890.86,-184C857.05,-184 816.6,-184 816.6,-184 816.6,-184 816.6,-205.95 816.6,-205.95"/>
<polygon fill="black" stroke="black" points="813.1,-205.95 816.6,-215.95 820.1,-205.95 813.1,-205.95"/>
</g>
<!-- UtilityModule  -->
<g id="node23" class="node">
<title>UtilityModule </title>
<polygon fill="#fb8072" stroke="black" points="677.61,-252 578.39,-252 578.39,-216 677.61,-216 677.61,-252"/>
<text text-anchor="middle" x="628" y="-229.8" font-family="Times,serif" font-size="14.00">UtilityModule </text>
</g>
<!-- FormModule&#45;&gt;UtilityModule  -->
<g id="edge22" class="edge">
<title>FormModule&#45;&gt;UtilityModule </title>
<path fill="none" stroke="black" stroke-dasharray="5,2" d="M890.93,-181C810.28,-181 649.6,-181 649.6,-181 649.6,-181 649.6,-205.76 649.6,-205.76"/>
<polygon fill="black" stroke="black" points="646.1,-205.76 649.6,-215.76 653.1,-205.76 646.1,-205.76"/>
</g>
<!-- VisibleFieldsPipe  -->
<g id="node24" class="node">
<title>VisibleFieldsPipe </title>
<polygon fill="#fb8072" stroke="black" points="560.55,-252 441.45,-252 441.45,-216 560.55,-216 560.55,-252"/>
<text text-anchor="middle" x="501" y="-229.8" font-family="Times,serif" font-size="14.00">VisibleFieldsPipe </text>
</g>
<!-- FormModule&#45;&gt;VisibleFieldsPipe  -->
<g id="edge23" class="edge">
<title>FormModule&#45;&gt;VisibleFieldsPipe </title>
<path fill="none" stroke="black" stroke-dasharray="5,2" d="M890.88,-178C785.58,-178 532.46,-178 532.46,-178 532.46,-178 532.46,-205.97 532.46,-205.97"/>
<polygon fill="black" stroke="black" points="528.96,-205.97 532.46,-215.97 535.96,-205.97 528.96,-205.97"/>
</g>
<!-- CalendarModule -->
<g id="node10" class="node">
<title>CalendarModule</title>
<polygon fill="#8dd3c7" stroke="black" points="923.08,-122 920.08,-126 899.08,-126 896.08,-122 812.92,-122 812.92,-86 923.08,-86 923.08,-122"/>
<text text-anchor="middle" x="868" y="-99.8" font-family="Times,serif" font-size="14.00">CalendarModule</text>
</g>
<!-- CalendarModule&#45;&gt;FormModule -->
<g id="edge9" class="edge">
<title>CalendarModule&#45;&gt;FormModule</title>
<path fill="none" stroke="black" d="M907.05,-122.11C907.05,-122.11 907.05,-140.99 907.05,-140.99"/>
<polygon fill="black" stroke="black" points="903.55,-140.99 907.05,-150.99 910.55,-140.99 903.55,-140.99"/>
</g>
<!-- IconModule -->
<g id="node11" class="node">
<title>IconModule</title>
<polygon fill="#8dd3c7" stroke="black" points="795.43,-122 792.43,-126 771.43,-126 768.43,-122 710.57,-122 710.57,-86 795.43,-86 795.43,-122"/>
<text text-anchor="middle" x="753" y="-99.8" font-family="Times,serif" font-size="14.00">IconModule</text>
</g>
<!-- IconModule&#45;&gt;FormModule -->
<g id="edge10" class="edge">
<title>IconModule&#45;&gt;FormModule</title>
<path fill="none" stroke="black" d="M753,-122.12C753,-136.78 753,-155 753,-155 753,-155 880.76,-155 880.76,-155"/>
<polygon fill="black" stroke="black" points="880.76,-158.5 890.76,-155 880.76,-151.5 880.76,-158.5"/>
</g>
<!-- IoModule -->
<g id="node12" class="node">
<title>IoModule</title>
<polygon fill="#8dd3c7" stroke="black" points="692.71,-122 689.71,-126 668.71,-126 665.71,-122 621.29,-122 621.29,-86 692.71,-86 692.71,-122"/>
<text text-anchor="middle" x="657" y="-99.8" font-family="Times,serif" font-size="14.00">IoModule</text>
</g>
<!-- IoModule&#45;&gt;FormModule -->
<g id="edge11" class="edge">
<title>IoModule&#45;&gt;FormModule</title>
<path fill="none" stroke="black" d="M685.2,-122.28C685.2,-137.95 685.2,-158 685.2,-158 685.2,-158 880.87,-158 880.87,-158"/>
<polygon fill="black" stroke="black" points="880.87,-161.5 890.87,-158 880.87,-154.5 880.87,-161.5"/>
</g>
<!-- LoaderModule -->
<g id="node13" class="node">
<title>LoaderModule</title>
<polygon fill="#8dd3c7" stroke="black" points="603.69,-122 600.69,-126 579.69,-126 576.69,-122 504.31,-122 504.31,-86 603.69,-86 603.69,-122"/>
<text text-anchor="middle" x="554" y="-99.8" font-family="Times,serif" font-size="14.00">LoaderModule</text>
</g>
<!-- LoaderModule&#45;&gt;FormModule -->
<g id="edge12" class="edge">
<title>LoaderModule&#45;&gt;FormModule</title>
<path fill="none" stroke="black" d="M590.9,-122.04C590.9,-138.73 590.9,-161 590.9,-161 590.9,-161 880.88,-161 880.88,-161"/>
<polygon fill="black" stroke="black" points="880.88,-164.5 890.88,-161 880.88,-157.5 880.88,-164.5"/>
</g>
<!-- PopModule -->
<g id="node14" class="node">
<title>PopModule</title>
<polygon fill="#8dd3c7" stroke="black" points="486.83,-122 483.83,-126 462.83,-126 459.83,-122 405.17,-122 405.17,-86 486.83,-86 486.83,-122"/>
<text text-anchor="middle" x="446" y="-99.8" font-family="Times,serif" font-size="14.00">PopModule</text>
</g>
<!-- PopModule&#45;&gt;FormModule -->
<g id="edge13" class="edge">
<title>PopModule&#45;&gt;FormModule</title>
<path fill="none" stroke="black" d="M464.07,-122.3C464.07,-140.27 464.07,-165 464.07,-165 464.07,-165 880.75,-165 880.75,-165"/>
<polygon fill="black" stroke="black" points="880.75,-168.5 890.75,-165 880.75,-161.5 880.75,-168.5"/>
</g>
<!-- SymbolModule -->
<g id="node15" class="node">
<title>SymbolModule</title>
<polygon fill="#8dd3c7" stroke="black" points="387.61,-122 384.61,-126 363.61,-126 360.61,-122 284.39,-122 284.39,-86 387.61,-86 387.61,-122"/>
<text text-anchor="middle" x="336" y="-99.8" font-family="Times,serif" font-size="14.00">SymbolModule</text>
</g>
<!-- SymbolModule&#45;&gt;FormModule -->
<g id="edge14" class="edge">
<title>SymbolModule&#45;&gt;FormModule</title>
<path fill="none" stroke="black" d="M336,-122.17C336,-141.09 336,-168 336,-168 336,-168 880.9,-168 880.9,-168"/>
<polygon fill="black" stroke="black" points="880.9,-171.5 890.9,-168 880.9,-164.5 880.9,-171.5"/>
</g>
<!-- UtilityModule -->
<g id="node16" class="node">
<title>UtilityModule</title>
<polygon fill="#8dd3c7" stroke="black" points="266.11,-122 263.11,-126 242.11,-126 239.11,-122 169.89,-122 169.89,-86 266.11,-86 266.11,-122"/>
<text text-anchor="middle" x="218" y="-99.8" font-family="Times,serif" font-size="14.00">UtilityModule</text>
</g>
<!-- UtilityModule&#45;&gt;FormModule -->
<g id="edge15" class="edge">
<title>UtilityModule&#45;&gt;FormModule</title>
<path fill="none" stroke="black" d="M218,-122.31C218,-142.15 218,-171 218,-171 218,-171 881.09,-171 881.09,-171"/>
<polygon fill="black" stroke="black" points="881.09,-174.5 891.09,-171 881.09,-167.5 881.09,-174.5"/>
</g>
<!-- FormService -->
<g id="node25" class="node">
<title>FormService</title>
<ellipse fill="#fdb462" stroke="black" cx="85" cy="-104" rx="60.83" ry="18"/>
<text text-anchor="middle" x="85" y="-99.8" font-family="Times,serif" font-size="14.00">FormService</text>
</g>
<!-- FormService&#45;&gt;FormModule -->
<g id="edge24" class="edge">
<title>FormService&#45;&gt;FormModule</title>
<path fill="none" stroke="black" d="M85,-122.03C85,-142.77 85,-174 85,-174 85,-174 880.85,-174 880.85,-174"/>
<polygon fill="black" stroke="black" points="880.85,-177.5 890.85,-174 880.85,-170.5 880.85,-177.5"/>
</g>
</g>
</svg>
