<?xml version="1.0" encoding="UTF-8" standalone="no"?>
<!DOCTYPE svg PUBLIC "-//W3C//DTD SVG 1.1//EN"
 "http://www.w3.org/Graphics/SVG/1.1/DTD/svg11.dtd">
<!-- Generated by graphviz version 2.40.1 (20161225.0304)
 -->
<!-- Title: dependencies Pages: 1 -->
<svg width="1512pt" height="284pt"
 viewBox="0.00 0.00 1512.00 284.00" xmlns="http://www.w3.org/2000/svg" xmlns:xlink="http://www.w3.org/1999/xlink">
<g id="graph0" class="graph" transform="scale(1 1) rotate(0) translate(4 280)">
<title>dependencies</title>
<polygon fill="#ffffff" stroke="transparent" points="-4,4 -4,-280 1508,-280 1508,4 -4,4"/>
<text text-anchor="start" x="731.0091" y="-42.4" font-family="sans-serif" font-weight="bold" font-size="14.00" fill="#000000">Legend</text>
<polygon fill="#ffffb3" stroke="transparent" points="518,-10 518,-30 538,-30 538,-10 518,-10"/>
<text text-anchor="start" x="541.629" y="-15.4" font-family="sans-serif" font-size="14.00" fill="#000000"> &#160;Declarations</text>
<polygon fill="#8dd3c7" stroke="transparent" points="631,-10 631,-30 651,-30 651,-10 631,-10"/>
<text text-anchor="start" x="654.7251" y="-15.4" font-family="sans-serif" font-size="14.00" fill="#000000"> &#160;Module</text>
<polygon fill="#80b1d3" stroke="transparent" points="717,-10 717,-30 737,-30 737,-10 717,-10"/>
<text text-anchor="start" x="740.7812" y="-15.4" font-family="sans-serif" font-size="14.00" fill="#000000"> &#160;Bootstrap</text>
<polygon fill="#fdb462" stroke="transparent" points="814,-10 814,-30 834,-30 834,-10 814,-10"/>
<text text-anchor="start" x="837.6732" y="-15.4" font-family="sans-serif" font-size="14.00" fill="#000000"> &#160;Providers</text>
<polygon fill="#fb8072" stroke="transparent" points="910,-10 910,-30 930,-30 930,-10 910,-10"/>
<text text-anchor="start" x="933.7258" y="-15.4" font-family="sans-serif" font-size="14.00" fill="#000000"> &#160;Exports</text>
<g id="clust1" class="cluster">
<title>cluster_FormModule</title>
<polygon fill="none" stroke="#000000" stroke-dasharray="1,5" points="8,-70 8,-268 1496,-268 1496,-70 8,-70"/>
</g>
<g id="clust2" class="cluster">
<title>cluster_FormModule_declarations</title>
<polygon fill="none" stroke="#000000" points="122,-78 122,-130 1488,-130 1488,-78 122,-78"/>
</g>
<g id="clust12" class="cluster">
<title>cluster_FormModule_imports</title>
<polygon fill="none" stroke="#000000" points="16,-78 16,-130 114,-130 114,-78 16,-78"/>
</g>
<g id="clust13" class="cluster">
<title>cluster_FormModule_exports</title>
<polygon fill="none" stroke="#000000" points="273,-208 273,-260 1231,-260 1231,-208 273,-208"/>
</g>
<!-- FormComponent -->
<g id="node1" class="node">
<title>FormComponent</title>
<polygon fill="#ffffb3" stroke="#000000" points="1479.6667,-122 1368.3333,-122 1368.3333,-86 1479.6667,-86 1479.6667,-122"/>
<text text-anchor="middle" x="1424" y="-99.8" font-family="Times,serif" font-size="14.00" fill="#000000">FormComponent</text>
</g>
<!-- FormModule -->
<g id="node10" class="node">
<title>FormModule</title>
<polygon fill="#8dd3c7" stroke="#000000" points="784.8837,-187 781.8837,-191 760.8837,-191 757.8837,-187 695.1163,-187 695.1163,-151 784.8837,-151 784.8837,-187"/>
<text text-anchor="middle" x="740" y="-164.8" font-family="Times,serif" font-size="14.00" fill="#000000">FormModule</text>
</g>
<!-- FormComponent&#45;&gt;FormModule -->
<g id="edge1" class="edge">
<title>FormComponent&#45;&gt;FormModule</title>
<path fill="none" stroke="#000000" d="M1424,-122.1061C1424,-141.3391 1424,-169 1424,-169 1424,-169 795.1437,-169 795.1437,-169"/>
<polygon fill="#000000" stroke="#000000" points="795.1437,-165.5001 785.1437,-169 795.1436,-172.5001 795.1437,-165.5001"/>
</g>
<!-- InputComponent -->
<g id="node2" class="node">
<title>InputComponent</title>
<polygon fill="#ffffb3" stroke="#000000" points="1350.3837,-122 1239.6163,-122 1239.6163,-86 1350.3837,-86 1350.3837,-122"/>
<text text-anchor="middle" x="1295" y="-99.8" font-family="Times,serif" font-size="14.00" fill="#000000">InputComponent</text>
</g>
<!-- InputComponent&#45;&gt;FormModule -->
<g id="edge2" class="edge">
<title>InputComponent&#45;&gt;FormModule</title>
<path fill="none" stroke="#000000" d="M1295,-122.302C1295,-140.2699 1295,-165 1295,-165 1295,-165 794.9479,-165 794.9479,-165"/>
<polygon fill="#000000" stroke="#000000" points="794.9479,-161.5001 784.9479,-165 794.9478,-168.5001 794.9479,-161.5001"/>
</g>
<!-- OutputComponent -->
<g id="node3" class="node">
<title>OutputComponent</title>
<polygon fill="#ffffb3" stroke="#000000" points="1221.2204,-122 1100.7796,-122 1100.7796,-86 1221.2204,-86 1221.2204,-122"/>
<text text-anchor="middle" x="1161" y="-99.8" font-family="Times,serif" font-size="14.00" fill="#000000">OutputComponent</text>
</g>
<!-- OutputComponent&#45;&gt;FormModule -->
<g id="edge3" class="edge">
<title>OutputComponent&#45;&gt;FormModule</title>
<path fill="none" stroke="#000000" d="M1183.2124,-122.027C1183.2124,-138.3976 1183.2124,-160 1183.2124,-160 1183.2124,-160 794.9366,-160 794.9366,-160"/>
<polygon fill="#000000" stroke="#000000" points="794.9367,-156.5001 784.9366,-160 794.9366,-163.5001 794.9367,-156.5001"/>
</g>
<!-- DefaultInputComponent -->
<g id="node4" class="node">
<title>DefaultInputComponent</title>
<polygon fill="#ffffb3" stroke="#000000" points="1082.3613,-122 929.6387,-122 929.6387,-86 1082.3613,-86 1082.3613,-122"/>
<text text-anchor="middle" x="1006" y="-99.8" font-family="Times,serif" font-size="14.00" fill="#000000">DefaultInputComponent</text>
</g>
<!-- DefaultInputComponent&#45;&gt;FormModule -->
<g id="edge4" class="edge">
<title>DefaultInputComponent&#45;&gt;FormModule</title>
<path fill="none" stroke="#000000" d="M943.2148,-122.1871C943.2148,-137.1824 943.2148,-156 943.2148,-156 943.2148,-156 795.0999,-156 795.0999,-156"/>
<polygon fill="#000000" stroke="#000000" points="795.1,-152.5001 785.0999,-156 795.0999,-159.5001 795.1,-152.5001"/>
</g>
<!-- DefaultOutputComponent -->
<g id="node5" class="node">
<title>DefaultOutputComponent</title>
<polygon fill="#ffffb3" stroke="#000000" points="911.1979,-122 748.8021,-122 748.8021,-86 911.1979,-86 911.1979,-122"/>
<text text-anchor="middle" x="830" y="-99.8" font-family="Times,serif" font-size="14.00" fill="#000000">DefaultOutputComponent</text>
</g>
<!-- DefaultOutputComponent&#45;&gt;FormModule -->
<g id="edge5" class="edge">
<title>DefaultOutputComponent&#45;&gt;FormModule</title>
<path fill="none" stroke="#000000" d="M766.9215,-122.1061C766.9215,-122.1061 766.9215,-140.991 766.9215,-140.991"/>
<polygon fill="#000000" stroke="#000000" points="763.4215,-140.9909 766.9215,-150.991 770.4215,-140.991 763.4215,-140.9909"/>
</g>
<!-- DynamicFieldComponent -->
<g id="node6" class="node">
<title>DynamicFieldComponent</title>
<polygon fill="#ffffb3" stroke="#000000" points="730.9284,-122 569.0716,-122 569.0716,-86 730.9284,-86 730.9284,-122"/>
<text text-anchor="middle" x="650" y="-99.8" font-family="Times,serif" font-size="14.00" fill="#000000">DynamicFieldComponent</text>
</g>
<!-- DynamicFieldComponent&#45;&gt;FormModule -->
<g id="edge6" class="edge">
<title>DynamicFieldComponent&#45;&gt;FormModule</title>
<path fill="none" stroke="#000000" d="M712.8861,-122.1061C712.8861,-122.1061 712.8861,-140.991 712.8861,-140.991"/>
<polygon fill="#000000" stroke="#000000" points="709.3861,-140.9909 712.8861,-150.991 716.3861,-140.991 709.3861,-140.9909"/>
</g>
<!-- InputErrorsComponent -->
<g id="node7" class="node">
<title>InputErrorsComponent</title>
<polygon fill="#ffffb3" stroke="#000000" points="550.8627,-122 405.1373,-122 405.1373,-86 550.8627,-86 550.8627,-122"/>
<text text-anchor="middle" x="478" y="-99.8" font-family="Times,serif" font-size="14.00" fill="#000000">InputErrorsComponent</text>
</g>
<!-- InputErrorsComponent&#45;&gt;FormModule -->
<g id="edge7" class="edge">
<title>InputErrorsComponent&#45;&gt;FormModule</title>
<path fill="none" stroke="#000000" d="M535.7649,-122.1871C535.7649,-137.1824 535.7649,-156 535.7649,-156 535.7649,-156 684.9269,-156 684.9269,-156"/>
<polygon fill="#000000" stroke="#000000" points="684.9269,-159.5001 694.9269,-156 684.9269,-152.5001 684.9269,-159.5001"/>
</g>
<!-- FieldHostDirective -->
<g id="node8" class="node">
<title>FieldHostDirective</title>
<polygon fill="#ffffb3" stroke="#000000" points="386.8034,-122 263.1966,-122 263.1966,-86 386.8034,-86 386.8034,-122"/>
<text text-anchor="middle" x="325" y="-99.8" font-family="Times,serif" font-size="14.00" fill="#000000">FieldHostDirective</text>
</g>
<!-- FieldHostDirective&#45;&gt;FormModule -->
<g id="edge8" class="edge">
<title>FieldHostDirective&#45;&gt;FormModule</title>
<path fill="none" stroke="#000000" d="M374.4481,-122.027C374.4481,-138.3976 374.4481,-160 374.4481,-160 374.4481,-160 684.8095,-160 684.8095,-160"/>
<polygon fill="#000000" stroke="#000000" points="684.8096,-163.5001 694.8095,-160 684.8095,-156.5001 684.8096,-163.5001"/>
</g>
<!-- SelectComponent -->
<g id="node9" class="node">
<title>SelectComponent</title>
<polygon fill="#ffffb3" stroke="#000000" points="245.5409,-122 130.4591,-122 130.4591,-86 245.5409,-86 245.5409,-122"/>
<text text-anchor="middle" x="188" y="-99.8" font-family="Times,serif" font-size="14.00" fill="#000000">SelectComponent</text>
</g>
<!-- SelectComponent&#45;&gt;FormModule -->
<g id="edge9" class="edge">
<title>SelectComponent&#45;&gt;FormModule</title>
<path fill="none" stroke="#000000" d="M188,-122.302C188,-140.2699 188,-165 188,-165 188,-165 684.8275,-165 684.8275,-165"/>
<polygon fill="#000000" stroke="#000000" points="684.8276,-168.5001 694.8275,-165 684.8275,-161.5001 684.8276,-168.5001"/>
</g>
<!-- FormComponent  -->
<g id="node12" class="node">
<title>FormComponent </title>
<polygon fill="#fb8072" stroke="#000000" points="1222.6663,-252 1107.3337,-252 1107.3337,-216 1222.6663,-216 1222.6663,-252"/>
<text text-anchor="middle" x="1165" y="-229.8" font-family="Times,serif" font-size="14.00" fill="#000000">FormComponent </text>
</g>
<!-- FormModule&#45;&gt;FormComponent  -->
<g id="edge11" class="edge">
<title>FormModule&#45;&gt;FormComponent </title>
<path fill="none" stroke="#000000" stroke-dasharray="5,2" d="M784.9244,-174C890.453,-174 1145.3146,-174 1145.3146,-174 1145.3146,-174 1145.3146,-205.998 1145.3146,-205.998"/>
<polygon fill="#000000" stroke="#000000" points="1141.8147,-205.998 1145.3146,-215.998 1148.8147,-205.9981 1141.8147,-205.998"/>
</g>
<!-- InputComponent  -->
<g id="node13" class="node">
<title>InputComponent </title>
<polygon fill="#fb8072" stroke="#000000" points="1089.3842,-252 974.6158,-252 974.6158,-216 1089.3842,-216 1089.3842,-252"/>
<text text-anchor="middle" x="1032" y="-229.8" font-family="Times,serif" font-size="14.00" fill="#000000">InputComponent </text>
</g>
<!-- FormModule&#45;&gt;InputComponent  -->
<g id="edge12" class="edge">
<title>FormModule&#45;&gt;InputComponent </title>
<path fill="none" stroke="#000000" stroke-dasharray="5,2" d="M785.0968,-178C866.271,-178 1028.6194,-178 1028.6194,-178 1028.6194,-178 1028.6194,-205.973 1028.6194,-205.973"/>
<polygon fill="#000000" stroke="#000000" points="1025.1195,-205.973 1028.6194,-215.973 1032.1195,-205.973 1025.1195,-205.973"/>
</g>
<!-- OutputComponent  -->
<g id="node14" class="node">
<title>OutputComponent </title>
<polygon fill="#fb8072" stroke="#000000" points="956.7205,-252 833.2795,-252 833.2795,-216 956.7205,-216 956.7205,-252"/>
<text text-anchor="middle" x="895" y="-229.8" font-family="Times,serif" font-size="14.00" fill="#000000">OutputComponent </text>
</g>
<!-- FormModule&#45;&gt;OutputComponent  -->
<g id="edge13" class="edge">
<title>FormModule&#45;&gt;OutputComponent </title>
<path fill="none" stroke="#000000" stroke-dasharray="5,2" d="M785.0985,-183C823.3724,-183 872.1194,-183 872.1194,-183 872.1194,-183 872.1194,-205.8757 872.1194,-205.8757"/>
<polygon fill="#000000" stroke="#000000" points="868.6195,-205.8757 872.1194,-215.8757 875.6195,-205.8757 868.6195,-205.8757"/>
</g>
<!-- InputErrorsComponent  -->
<g id="node15" class="node">
<title>InputErrorsComponent </title>
<polygon fill="#fb8072" stroke="#000000" points="814.863,-252 665.137,-252 665.137,-216 814.863,-216 814.863,-252"/>
<text text-anchor="middle" x="740" y="-229.8" font-family="Times,serif" font-size="14.00" fill="#000000">InputErrorsComponent </text>
</g>
<!-- FormModule&#45;&gt;InputErrorsComponent  -->
<g id="edge14" class="edge">
<title>FormModule&#45;&gt;InputErrorsComponent </title>
<path fill="none" stroke="#000000" stroke-dasharray="5,2" d="M740,-187.1061C740,-187.1061 740,-205.991 740,-205.991"/>
<polygon fill="#000000" stroke="#000000" points="736.5001,-205.9909 740,-215.991 743.5001,-205.991 736.5001,-205.9909"/>
</g>
<!-- FieldHostDirective  -->
<g id="node16" class="node">
<title>FieldHostDirective </title>
<polygon fill="#fb8072" stroke="#000000" points="647.3032,-252 520.6968,-252 520.6968,-216 647.3032,-216 647.3032,-252"/>
<text text-anchor="middle" x="584" y="-229.8" font-family="Times,serif" font-size="14.00" fill="#000000">FieldHostDirective </text>
</g>
<!-- FormModule&#45;&gt;FieldHostDirective  -->
<g id="edge15" class="edge">
<title>FormModule&#45;&gt;FieldHostDirective </title>
<path fill="none" stroke="#000000" stroke-dasharray="5,2" d="M695.0596,-183C656.9198,-183 608.3438,-183 608.3438,-183 608.3438,-183 608.3438,-205.8757 608.3438,-205.8757"/>
<polygon fill="#000000" stroke="#000000" points="604.8439,-205.8757 608.3438,-215.8757 611.8439,-205.8757 604.8439,-205.8757"/>
</g>
<!-- SelectComponent  -->
<g id="node17" class="node">
<title>SelectComponent </title>
<polygon fill="#fb8072" stroke="#000000" points="502.54,-252 383.46,-252 383.46,-216 502.54,-216 502.54,-252"/>
<text text-anchor="middle" x="443" y="-229.8" font-family="Times,serif" font-size="14.00" fill="#000000">SelectComponent </text>
</g>
<!-- FormModule&#45;&gt;SelectComponent  -->
<g id="edge16" class="edge">
<title>FormModule&#45;&gt;SelectComponent </title>
<path fill="none" stroke="#000000" stroke-dasharray="5,2" d="M694.9655,-178C614.3661,-178 453.7944,-178 453.7944,-178 453.7944,-178 453.7944,-205.973 453.7944,-205.973"/>
<polygon fill="#000000" stroke="#000000" points="450.2944,-205.973 453.7944,-215.973 457.2944,-205.973 450.2944,-205.973"/>
</g>
<!-- PopModule  -->
<g id="node18" class="node">
<title>PopModule </title>
<polygon fill="#fb8072" stroke="#000000" points="365.3326,-252 280.6674,-252 280.6674,-216 365.3326,-216 365.3326,-252"/>
<text text-anchor="middle" x="323" y="-229.8" font-family="Times,serif" font-size="14.00" fill="#000000">PopModule </text>
</g>
<!-- FormModule&#45;&gt;PopModule  -->
<g id="edge17" class="edge">
<title>FormModule&#45;&gt;PopModule </title>
<path fill="none" stroke="#000000" stroke-dasharray="5,2" d="M694.9775,-174C587.1505,-174 323,-174 323,-174 323,-174 323,-205.998 323,-205.998"/>
<polygon fill="#000000" stroke="#000000" points="319.5001,-205.998 323,-215.998 326.5001,-205.9981 319.5001,-205.998"/>
</g>
<!-- PopModule -->
<g id="node11" class="node">
<title>PopModule</title>
<polygon fill="#8dd3c7" stroke="#000000" points="105.8331,-122 102.8331,-126 81.8331,-126 78.8331,-122 24.1669,-122 24.1669,-86 105.8331,-86 105.8331,-122"/>
<text text-anchor="middle" x="65" y="-99.8" font-family="Times,serif" font-size="14.00" fill="#000000">PopModule</text>
</g>
<!-- PopModule&#45;&gt;FormModule -->
<g id="edge10" class="edge">
<title>PopModule&#45;&gt;FormModule</title>
<path fill="none" stroke="#000000" d="M65,-122.1061C65,-141.3391 65,-169 65,-169 65,-169 684.9262,-169 684.9262,-169"/>
<polygon fill="#000000" stroke="#000000" points="684.9263,-172.5001 694.9262,-169 684.9262,-165.5001 684.9263,-172.5001"/>
</g>
</g>
</svg>
