<?xml version="1.0" encoding="UTF-8" standalone="no"?>
<!DOCTYPE svg PUBLIC "-//W3C//DTD SVG 1.1//EN"
 "http://www.w3.org/Graphics/SVG/1.1/DTD/svg11.dtd">
<!-- Generated by graphviz version 2.40.1 (20161225.0304)
 -->
<!-- Title: dependencies Pages: 1 -->
<svg width="1650pt" height="284pt"
 viewBox="0.00 0.00 1650.00 284.00" xmlns="http://www.w3.org/2000/svg" xmlns:xlink="http://www.w3.org/1999/xlink">
<g id="graph0" class="graph" transform="scale(1 1) rotate(0) translate(4 280)">
<title>dependencies</title>
<polygon fill="#ffffff" stroke="transparent" points="-4,4 -4,-280 1646,-280 1646,4 -4,4"/>
<text text-anchor="start" x="800.0091" y="-42.4" font-family="sans-serif" font-weight="bold" font-size="14.00" fill="#000000">Legend</text>
<polygon fill="#ffffb3" stroke="transparent" points="587,-10 587,-30 607,-30 607,-10 587,-10"/>
<text text-anchor="start" x="610.629" y="-15.4" font-family="sans-serif" font-size="14.00" fill="#000000"> &#160;Declarations</text>
<polygon fill="#8dd3c7" stroke="transparent" points="700,-10 700,-30 720,-30 720,-10 700,-10"/>
<text text-anchor="start" x="723.7251" y="-15.4" font-family="sans-serif" font-size="14.00" fill="#000000"> &#160;Module</text>
<polygon fill="#80b1d3" stroke="transparent" points="786,-10 786,-30 806,-30 806,-10 786,-10"/>
<text text-anchor="start" x="809.7812" y="-15.4" font-family="sans-serif" font-size="14.00" fill="#000000"> &#160;Bootstrap</text>
<polygon fill="#fdb462" stroke="transparent" points="883,-10 883,-30 903,-30 903,-10 883,-10"/>
<text text-anchor="start" x="906.6732" y="-15.4" font-family="sans-serif" font-size="14.00" fill="#000000"> &#160;Providers</text>
<polygon fill="#fb8072" stroke="transparent" points="979,-10 979,-30 999,-30 999,-10 979,-10"/>
<text text-anchor="start" x="1002.7258" y="-15.4" font-family="sans-serif" font-size="14.00" fill="#000000"> &#160;Exports</text>
<g id="clust1" class="cluster">
<title>cluster_FormModule</title>
<polygon fill="none" stroke="#000000" stroke-dasharray="1,5" points="8,-70 8,-268 1634,-268 1634,-70 8,-70"/>
</g>
<g id="clust2" class="cluster">
<title>cluster_FormModule_declarations</title>
<polygon fill="none" stroke="#000000" points="122,-78 122,-130 1626,-130 1626,-78 122,-78"/>
</g>
<g id="clust13" class="cluster">
<title>cluster_FormModule_imports</title>
<polygon fill="none" stroke="#000000" points="16,-78 16,-130 114,-130 114,-78 16,-78"/>
</g>
<g id="clust14" class="cluster">
<title>cluster_FormModule_exports</title>
<polygon fill="none" stroke="#000000" points="252,-208 252,-260 1359,-260 1359,-208 252,-208"/>
</g>
<!-- FormComponent -->
<g id="node1" class="node">
<title>FormComponent</title>
<polygon fill="#ffffb3" stroke="#000000" points="1617.6667,-122 1506.3333,-122 1506.3333,-86 1617.6667,-86 1617.6667,-122"/>
<text text-anchor="middle" x="1562" y="-99.8" font-family="Times,serif" font-size="14.00" fill="#000000">FormComponent</text>
</g>
<!-- FormModule -->
<g id="node11" class="node">
<title>FormModule</title>
<polygon fill="#8dd3c7" stroke="#000000" points="835.8837,-187 832.8837,-191 811.8837,-191 808.8837,-187 746.1163,-187 746.1163,-151 835.8837,-151 835.8837,-187"/>
<text text-anchor="middle" x="791" y="-164.8" font-family="Times,serif" font-size="14.00" fill="#000000">FormModule</text>
</g>
<!-- FormComponent&#45;&gt;FormModule -->
<g id="edge1" class="edge">
<title>FormComponent&#45;&gt;FormModule</title>
<path fill="none" stroke="#000000" d="M1562,-122.308C1562,-142.1455 1562,-171 1562,-171 1562,-171 846.0676,-171 846.0676,-171"/>
<polygon fill="#000000" stroke="#000000" points="846.0676,-167.5001 836.0676,-171 846.0675,-174.5001 846.0676,-167.5001"/>
</g>
<!-- InputComponent -->
<g id="node2" class="node">
<title>InputComponent</title>
<polygon fill="#ffffb3" stroke="#000000" points="1488.3837,-122 1377.6163,-122 1377.6163,-86 1488.3837,-86 1488.3837,-122"/>
<text text-anchor="middle" x="1433" y="-99.8" font-family="Times,serif" font-size="14.00" fill="#000000">InputComponent</text>
</g>
<!-- InputComponent&#45;&gt;FormModule -->
<g id="edge2" class="edge">
<title>InputComponent&#45;&gt;FormModule</title>
<path fill="none" stroke="#000000" d="M1433,-122.2222C1433,-140.8285 1433,-167 1433,-167 1433,-167 845.889,-167 845.889,-167"/>
<polygon fill="#000000" stroke="#000000" points="845.8891,-163.5001 835.889,-167 845.889,-170.5001 845.8891,-163.5001"/>
</g>
<!-- OutputComponent -->
<g id="node3" class="node">
<title>OutputComponent</title>
<polygon fill="#ffffb3" stroke="#000000" points="1359.2204,-122 1238.7796,-122 1238.7796,-86 1359.2204,-86 1359.2204,-122"/>
<text text-anchor="middle" x="1299" y="-99.8" font-family="Times,serif" font-size="14.00" fill="#000000">OutputComponent</text>
</g>
<!-- OutputComponent&#45;&gt;FormModule -->
<g id="edge3" class="edge">
<title>OutputComponent&#45;&gt;FormModule</title>
<path fill="none" stroke="#000000" d="M1276.121,-122.0225C1276.121,-139.3734 1276.121,-163 1276.121,-163 1276.121,-163 846.2034,-163 846.2034,-163"/>
<polygon fill="#000000" stroke="#000000" points="846.2034,-159.5001 836.2034,-163 846.2033,-166.5001 846.2034,-159.5001"/>
</g>
<!-- DefaultInputComponent -->
<g id="node4" class="node">
<title>DefaultInputComponent</title>
<polygon fill="#ffffb3" stroke="#000000" points="1220.3613,-122 1067.6387,-122 1067.6387,-86 1220.3613,-86 1220.3613,-122"/>
<text text-anchor="middle" x="1144" y="-99.8" font-family="Times,serif" font-size="14.00" fill="#000000">DefaultInputComponent</text>
</g>
<!-- DefaultInputComponent&#45;&gt;FormModule -->
<g id="edge4" class="edge">
<title>DefaultInputComponent&#45;&gt;FormModule</title>
<path fill="none" stroke="#000000" d="M1076.2148,-122.0091C1076.2148,-138.0494 1076.2148,-159 1076.2148,-159 1076.2148,-159 846.1931,-159 846.1931,-159"/>
<polygon fill="#000000" stroke="#000000" points="846.1932,-155.5001 836.1931,-159 846.1931,-162.5001 846.1932,-155.5001"/>
</g>
<!-- DefaultOutputComponent -->
<g id="node5" class="node">
<title>DefaultOutputComponent</title>
<polygon fill="#ffffb3" stroke="#000000" points="1049.1979,-122 886.8021,-122 886.8021,-86 1049.1979,-86 1049.1979,-122"/>
<text text-anchor="middle" x="968" y="-99.8" font-family="Times,serif" font-size="14.00" fill="#000000">DefaultOutputComponent</text>
</g>
<!-- DefaultOutputComponent&#45;&gt;FormModule -->
<g id="edge5" class="edge">
<title>DefaultOutputComponent&#45;&gt;FormModule</title>
<path fill="none" stroke="#000000" d="M914.7912,-122.1243C914.7912,-136.7832 914.7912,-155 914.7912,-155 914.7912,-155 846.0416,-155 846.0416,-155"/>
<polygon fill="#000000" stroke="#000000" points="846.0417,-151.5001 836.0416,-155 846.0416,-158.5001 846.0417,-151.5001"/>
</g>
<!-- DynamicSlotComponent -->
<g id="node6" class="node">
<title>DynamicSlotComponent</title>
<polygon fill="#ffffb3" stroke="#000000" points="868.7133,-122 713.2867,-122 713.2867,-86 868.7133,-86 868.7133,-122"/>
<text text-anchor="middle" x="791" y="-99.8" font-family="Times,serif" font-size="14.00" fill="#000000">DynamicSlotComponent</text>
</g>
<!-- DynamicSlotComponent&#45;&gt;FormModule -->
<g id="edge6" class="edge">
<title>DynamicSlotComponent&#45;&gt;FormModule</title>
<path fill="none" stroke="#000000" d="M791,-122.1061C791,-122.1061 791,-140.991 791,-140.991"/>
<polygon fill="#000000" stroke="#000000" points="787.5001,-140.9909 791,-150.991 794.5001,-140.991 787.5001,-140.9909"/>
</g>
<!-- InputErrorsComponent -->
<g id="node7" class="node">
<title>InputErrorsComponent</title>
<polygon fill="#ffffb3" stroke="#000000" points="694.8627,-122 549.1373,-122 549.1373,-86 694.8627,-86 694.8627,-122"/>
<text text-anchor="middle" x="622" y="-99.8" font-family="Times,serif" font-size="14.00" fill="#000000">InputErrorsComponent</text>
</g>
<!-- InputErrorsComponent&#45;&gt;FormModule -->
<g id="edge7" class="edge">
<title>InputErrorsComponent&#45;&gt;FormModule</title>
<path fill="none" stroke="#000000" d="M674.8186,-122.1243C674.8186,-136.7832 674.8186,-155 674.8186,-155 674.8186,-155 736.0812,-155 736.0812,-155"/>
<polygon fill="#000000" stroke="#000000" points="736.0813,-158.5001 746.0812,-155 736.0812,-151.5001 736.0813,-158.5001"/>
</g>
<!-- SlotHostDirective -->
<g id="node8" class="node">
<title>SlotHostDirective</title>
<polygon fill="#ffffb3" stroke="#000000" points="531.5884,-122 414.4116,-122 414.4116,-86 531.5884,-86 531.5884,-122"/>
<text text-anchor="middle" x="473" y="-99.8" font-family="Times,serif" font-size="14.00" fill="#000000">SlotHostDirective</text>
</g>
<!-- SlotHostDirective&#45;&gt;FormModule -->
<g id="edge8" class="edge">
<title>SlotHostDirective&#45;&gt;FormModule</title>
<path fill="none" stroke="#000000" d="M524.5121,-122.0091C524.5121,-138.0494 524.5121,-159 524.5121,-159 524.5121,-159 736.0953,-159 736.0953,-159"/>
<polygon fill="#000000" stroke="#000000" points="736.0953,-162.5001 746.0953,-159 736.0953,-155.5001 736.0953,-162.5001"/>
</g>
<!-- SelectComponent -->
<g id="node9" class="node">
<title>SelectComponent</title>
<polygon fill="#ffffb3" stroke="#000000" points="396.5409,-122 281.4591,-122 281.4591,-86 396.5409,-86 396.5409,-122"/>
<text text-anchor="middle" x="339" y="-99.8" font-family="Times,serif" font-size="14.00" fill="#000000">SelectComponent</text>
</g>
<!-- SelectComponent&#45;&gt;FormModule -->
<g id="edge9" class="edge">
<title>SelectComponent&#45;&gt;FormModule</title>
<path fill="none" stroke="#000000" d="M379.6523,-122.0225C379.6523,-139.3734 379.6523,-163 379.6523,-163 379.6523,-163 735.8019,-163 735.8019,-163"/>
<polygon fill="#000000" stroke="#000000" points="735.802,-166.5001 745.8019,-163 735.8019,-159.5001 735.802,-166.5001"/>
</g>
<!-- SelectionComponent -->
<g id="node10" class="node">
<title>SelectionComponent</title>
<polygon fill="#ffffb3" stroke="#000000" points="263.9313,-122 130.0687,-122 130.0687,-86 263.9313,-86 263.9313,-122"/>
<text text-anchor="middle" x="197" y="-99.8" font-family="Times,serif" font-size="14.00" fill="#000000">SelectionComponent</text>
</g>
<!-- SelectionComponent&#45;&gt;FormModule -->
<g id="edge10" class="edge">
<title>SelectionComponent&#45;&gt;FormModule</title>
<path fill="none" stroke="#000000" d="M194.9343,-122.2222C194.9343,-140.8285 194.9343,-167 194.9343,-167 194.9343,-167 735.709,-167 735.709,-167"/>
<polygon fill="#000000" stroke="#000000" points="735.709,-170.5001 745.709,-167 735.7089,-163.5001 735.709,-170.5001"/>
</g>
<!-- FormComponent  -->
<g id="node13" class="node">
<title>FormComponent </title>
<polygon fill="#fb8072" stroke="#000000" points="1350.6663,-252 1235.3337,-252 1235.3337,-216 1350.6663,-216 1350.6663,-252"/>
<text text-anchor="middle" x="1293" y="-229.8" font-family="Times,serif" font-size="14.00" fill="#000000">FormComponent </text>
</g>
<!-- FormModule&#45;&gt;FormComponent  -->
<g id="edge12" class="edge">
<title>FormModule&#45;&gt;FormComponent </title>
<path fill="none" stroke="#000000" stroke-dasharray="5,2" d="M835.9875,-175C962.6912,-175 1313.352,-175 1313.352,-175 1313.352,-175 1313.352,-205.9775 1313.352,-205.9775"/>
<polygon fill="#000000" stroke="#000000" points="1309.8521,-205.9774 1313.352,-215.9775 1316.8521,-205.9775 1309.8521,-205.9774"/>
</g>
<!-- InputComponent  -->
<g id="node14" class="node">
<title>InputComponent </title>
<polygon fill="#fb8072" stroke="#000000" points="1217.3842,-252 1102.6158,-252 1102.6158,-216 1217.3842,-216 1217.3842,-252"/>
<text text-anchor="middle" x="1160" y="-229.8" font-family="Times,serif" font-size="14.00" fill="#000000">InputComponent </text>
</g>
<!-- FormModule&#45;&gt;InputComponent  -->
<g id="edge13" class="edge">
<title>FormModule&#45;&gt;InputComponent </title>
<path fill="none" stroke="#000000" stroke-dasharray="5,2" d="M836.2466,-179C934.7803,-179 1160,-179 1160,-179 1160,-179 1160,-205.9909 1160,-205.9909"/>
<polygon fill="#000000" stroke="#000000" points="1156.5001,-205.9909 1160,-215.9909 1163.5001,-205.991 1156.5001,-205.9909"/>
</g>
<!-- OutputComponent  -->
<g id="node15" class="node">
<title>OutputComponent </title>
<polygon fill="#fb8072" stroke="#000000" points="1084.7205,-252 961.2795,-252 961.2795,-216 1084.7205,-216 1084.7205,-252"/>
<text text-anchor="middle" x="1023" y="-229.8" font-family="Times,serif" font-size="14.00" fill="#000000">OutputComponent </text>
</g>
<!-- FormModule&#45;&gt;OutputComponent  -->
<g id="edge14" class="edge">
<title>FormModule&#45;&gt;OutputComponent </title>
<path fill="none" stroke="#000000" stroke-dasharray="5,2" d="M835.8864,-183C898.6731,-183 1005.1194,-183 1005.1194,-183 1005.1194,-183 1005.1194,-205.8757 1005.1194,-205.8757"/>
<polygon fill="#000000" stroke="#000000" points="1001.6195,-205.8757 1005.1194,-215.8757 1008.6195,-205.8757 1001.6195,-205.8757"/>
</g>
<!-- InputErrorsComponent  -->
<g id="node16" class="node">
<title>InputErrorsComponent </title>
<polygon fill="#fb8072" stroke="#000000" points="942.863,-252 793.137,-252 793.137,-216 942.863,-216 942.863,-252"/>
<text text-anchor="middle" x="868" y="-229.8" font-family="Times,serif" font-size="14.00" fill="#000000">InputErrorsComponent </text>
</g>
<!-- FormModule&#45;&gt;InputErrorsComponent  -->
<g id="edge15" class="edge">
<title>FormModule&#45;&gt;InputErrorsComponent </title>
<path fill="none" stroke="#000000" stroke-dasharray="5,2" d="M814.6303,-187.1061C814.6303,-187.1061 814.6303,-205.991 814.6303,-205.991"/>
<polygon fill="#000000" stroke="#000000" points="811.1303,-205.9909 814.6303,-215.991 818.1303,-205.991 811.1303,-205.9909"/>
</g>
<!-- SlotHostDirective  -->
<g id="node17" class="node">
<title>SlotHostDirective </title>
<polygon fill="#fb8072" stroke="#000000" points="775.0891,-252 654.9109,-252 654.9109,-216 775.0891,-216 775.0891,-252"/>
<text text-anchor="middle" x="715" y="-229.8" font-family="Times,serif" font-size="14.00" fill="#000000">SlotHostDirective </text>
</g>
<!-- FormModule&#45;&gt;SlotHostDirective  -->
<g id="edge16" class="edge">
<title>FormModule&#45;&gt;SlotHostDirective </title>
<path fill="none" stroke="#000000" stroke-dasharray="5,2" d="M760.6762,-187.1061C760.6762,-187.1061 760.6762,-205.991 760.6762,-205.991"/>
<polygon fill="#000000" stroke="#000000" points="757.1763,-205.9909 760.6762,-215.991 764.1763,-205.991 757.1763,-205.9909"/>
</g>
<!-- SelectComponent  -->
<g id="node18" class="node">
<title>SelectComponent </title>
<polygon fill="#fb8072" stroke="#000000" points="636.54,-252 517.46,-252 517.46,-216 636.54,-216 636.54,-252"/>
<text text-anchor="middle" x="577" y="-229.8" font-family="Times,serif" font-size="14.00" fill="#000000">SelectComponent </text>
</g>
<!-- FormModule&#45;&gt;SelectComponent  -->
<g id="edge17" class="edge">
<title>FormModule&#45;&gt;SelectComponent </title>
<path fill="none" stroke="#000000" stroke-dasharray="5,2" d="M746.0241,-183C687.5451,-183 592.7944,-183 592.7944,-183 592.7944,-183 592.7944,-205.8757 592.7944,-205.8757"/>
<polygon fill="#000000" stroke="#000000" points="589.2944,-205.8757 592.7944,-215.8757 596.2944,-205.8757 589.2944,-205.8757"/>
</g>
<!-- SelectionComponent  -->
<g id="node19" class="node">
<title>SelectionComponent </title>
<polygon fill="#fb8072" stroke="#000000" points="499.4306,-252 362.5694,-252 362.5694,-216 499.4306,-216 499.4306,-252"/>
<text text-anchor="middle" x="431" y="-229.8" font-family="Times,serif" font-size="14.00" fill="#000000">SelectionComponent </text>
</g>
<!-- FormModule&#45;&gt;SelectionComponent  -->
<g id="edge18" class="edge">
<title>FormModule&#45;&gt;SelectionComponent </title>
<path fill="none" stroke="#000000" stroke-dasharray="5,2" d="M745.95,-179C654.7715,-179 456.9606,-179 456.9606,-179 456.9606,-179 456.9606,-205.9909 456.9606,-205.9909"/>
<polygon fill="#000000" stroke="#000000" points="453.4606,-205.9909 456.9606,-215.9909 460.4606,-205.991 453.4606,-205.9909"/>
</g>
<!-- PopModule  -->
<g id="node20" class="node">
<title>PopModule </title>
<polygon fill="#fb8072" stroke="#000000" points="344.3326,-252 259.6674,-252 259.6674,-216 344.3326,-216 344.3326,-252"/>
<text text-anchor="middle" x="302" y="-229.8" font-family="Times,serif" font-size="14.00" fill="#000000">PopModule </text>
</g>
<!-- FormModule&#45;&gt;PopModule  -->
<g id="edge19" class="edge">
<title>FormModule&#45;&gt;PopModule </title>
<path fill="none" stroke="#000000" stroke-dasharray="5,2" d="M746.0143,-175C626.9787,-175 312.8231,-175 312.8231,-175 312.8231,-175 312.8231,-205.9775 312.8231,-205.9775"/>
<polygon fill="#000000" stroke="#000000" points="309.3232,-205.9774 312.8231,-215.9775 316.3232,-205.9775 309.3232,-205.9774"/>
</g>
<!-- PopModule -->
<g id="node12" class="node">
<title>PopModule</title>
<polygon fill="#8dd3c7" stroke="#000000" points="105.8331,-122 102.8331,-126 81.8331,-126 78.8331,-122 24.1669,-122 24.1669,-86 105.8331,-86 105.8331,-122"/>
<text text-anchor="middle" x="65" y="-99.8" font-family="Times,serif" font-size="14.00" fill="#000000">PopModule</text>
</g>
<!-- PopModule&#45;&gt;FormModule -->
<g id="edge11" class="edge">
<title>PopModule&#45;&gt;FormModule</title>
<path fill="none" stroke="#000000" d="M65,-122.308C65,-142.1455 65,-171 65,-171 65,-171 735.8598,-171 735.8598,-171"/>
<polygon fill="#000000" stroke="#000000" points="735.8598,-174.5001 745.8598,-171 735.8597,-167.5001 735.8598,-174.5001"/>
</g>
</g>
</svg>
