<?xml version="1.0" encoding="UTF-8" standalone="no"?>
<!DOCTYPE svg PUBLIC "-//W3C//DTD SVG 1.1//EN"
 "http://www.w3.org/Graphics/SVG/1.1/DTD/svg11.dtd">
<!-- Generated by graphviz version 2.40.1 (20161225.0304)
 -->
<!-- Title: dependencies Pages: 1 -->
<svg width="2013pt" height="284pt"
 viewBox="0.00 0.00 2013.00 284.00" xmlns="http://www.w3.org/2000/svg" xmlns:xlink="http://www.w3.org/1999/xlink">
<g id="graph0" class="graph" transform="scale(1 1) rotate(0) translate(4 280)">
<title>dependencies</title>
<polygon fill="#ffffff" stroke="transparent" points="-4,4 -4,-280 2009,-280 2009,4 -4,4"/>
<text text-anchor="start" x="981.5091" y="-42.4" font-family="sans-serif" font-weight="bold" font-size="14.00" fill="#000000">Legend</text>
<polygon fill="#ffffb3" stroke="transparent" points="768.5,-10 768.5,-30 788.5,-30 788.5,-10 768.5,-10"/>
<text text-anchor="start" x="792.129" y="-15.4" font-family="sans-serif" font-size="14.00" fill="#000000"> &#160;Declarations</text>
<polygon fill="#8dd3c7" stroke="transparent" points="881.5,-10 881.5,-30 901.5,-30 901.5,-10 881.5,-10"/>
<text text-anchor="start" x="905.2251" y="-15.4" font-family="sans-serif" font-size="14.00" fill="#000000"> &#160;Module</text>
<polygon fill="#80b1d3" stroke="transparent" points="967.5,-10 967.5,-30 987.5,-30 987.5,-10 967.5,-10"/>
<text text-anchor="start" x="991.2812" y="-15.4" font-family="sans-serif" font-size="14.00" fill="#000000"> &#160;Bootstrap</text>
<polygon fill="#fdb462" stroke="transparent" points="1064.5,-10 1064.5,-30 1084.5,-30 1084.5,-10 1064.5,-10"/>
<text text-anchor="start" x="1088.1732" y="-15.4" font-family="sans-serif" font-size="14.00" fill="#000000"> &#160;Providers</text>
<polygon fill="#fb8072" stroke="transparent" points="1160.5,-10 1160.5,-30 1180.5,-30 1180.5,-10 1160.5,-10"/>
<text text-anchor="start" x="1184.2258" y="-15.4" font-family="sans-serif" font-size="14.00" fill="#000000"> &#160;Exports</text>
<g id="clust1" class="cluster">
<title>cluster_FormModule</title>
<polygon fill="none" stroke="#000000" stroke-dasharray="1,5" points="8,-70 8,-268 1997,-268 1997,-70 8,-70"/>
</g>
<g id="clust2" class="cluster">
<title>cluster_FormModule_declarations</title>
<polygon fill="none" stroke="#000000" points="576,-78 576,-130 1989,-130 1989,-78 576,-78"/>
</g>
<g id="clust13" class="cluster">
<title>cluster_FormModule_imports</title>
<polygon fill="none" stroke="#000000" points="162,-78 162,-130 568,-130 568,-78 162,-78"/>
</g>
<g id="clust14" class="cluster">
<title>cluster_FormModule_exports</title>
<polygon fill="none" stroke="#000000" points="293,-208 293,-260 1582,-260 1582,-208 293,-208"/>
</g>
<g id="clust16" class="cluster">
<title>cluster_FormModule_providers</title>
<polygon fill="none" stroke="#000000" points="16,-78 16,-130 154,-130 154,-78 16,-78"/>
</g>
<!-- FormComponent -->
<g id="node1" class="node">
<title>FormComponent</title>
<polygon fill="#ffffb3" stroke="#000000" points="1980.6667,-122 1869.3333,-122 1869.3333,-86 1980.6667,-86 1980.6667,-122"/>
<text text-anchor="middle" x="1925" y="-99.8" font-family="Times,serif" font-size="14.00" fill="#000000">FormComponent</text>
</g>
<!-- FormModule -->
<g id="node11" class="node">
<title>FormModule</title>
<polygon fill="#8dd3c7" stroke="#000000" points="940.8837,-187 937.8837,-191 916.8837,-191 913.8837,-187 851.1163,-187 851.1163,-151 940.8837,-151 940.8837,-187"/>
<text text-anchor="middle" x="896" y="-164.8" font-family="Times,serif" font-size="14.00" fill="#000000">FormModule</text>
</g>
<!-- FormComponent&#45;&gt;FormModule -->
<g id="edge1" class="edge">
<title>FormComponent&#45;&gt;FormModule</title>
<path fill="none" stroke="#000000" d="M1925,-122.2228C1925,-142.3652 1925,-172 1925,-172 1925,-172 951.209,-172 951.209,-172"/>
<polygon fill="#000000" stroke="#000000" points="951.209,-168.5001 941.209,-172 951.209,-175.5001 951.209,-168.5001"/>
</g>
<!-- DefaultInputComponent -->
<g id="node2" class="node">
<title>DefaultInputComponent</title>
<polygon fill="#ffffb3" stroke="#000000" points="1851.3613,-122 1698.6387,-122 1698.6387,-86 1851.3613,-86 1851.3613,-122"/>
<text text-anchor="middle" x="1775" y="-99.8" font-family="Times,serif" font-size="14.00" fill="#000000">DefaultInputComponent</text>
</g>
<!-- DefaultInputComponent&#45;&gt;FormModule -->
<g id="edge2" class="edge">
<title>DefaultInputComponent&#45;&gt;FormModule</title>
<path fill="none" stroke="#000000" d="M1775,-122.1061C1775,-141.3391 1775,-169 1775,-169 1775,-169 951.1026,-169 951.1026,-169"/>
<polygon fill="#000000" stroke="#000000" points="951.1026,-165.5001 941.1026,-169 951.1026,-172.5001 951.1026,-165.5001"/>
</g>
<!-- DefaultOutputComponent -->
<g id="node3" class="node">
<title>DefaultOutputComponent</title>
<polygon fill="#ffffb3" stroke="#000000" points="1680.1979,-122 1517.8021,-122 1517.8021,-86 1680.1979,-86 1680.1979,-122"/>
<text text-anchor="middle" x="1599" y="-99.8" font-family="Times,serif" font-size="14.00" fill="#000000">DefaultOutputComponent</text>
</g>
<!-- DefaultOutputComponent&#45;&gt;FormModule -->
<g id="edge3" class="edge">
<title>DefaultOutputComponent&#45;&gt;FormModule</title>
<path fill="none" stroke="#000000" d="M1545.7421,-122.2667C1545.7421,-140.5552 1545.7421,-166 1545.7421,-166 1545.7421,-166 950.9158,-166 950.9158,-166"/>
<polygon fill="#000000" stroke="#000000" points="950.9158,-162.5001 940.9158,-166 950.9157,-169.5001 950.9158,-162.5001"/>
</g>
<!-- DatetimeComponent -->
<g id="node4" class="node">
<title>DatetimeComponent</title>
<polygon fill="#ffffb3" stroke="#000000" points="1500.1457,-122 1367.8543,-122 1367.8543,-86 1500.1457,-86 1500.1457,-122"/>
<text text-anchor="middle" x="1434" y="-99.8" font-family="Times,serif" font-size="14.00" fill="#000000">DatetimeComponent</text>
</g>
<!-- DatetimeComponent&#45;&gt;FormModule -->
<g id="edge4" class="edge">
<title>DatetimeComponent&#45;&gt;FormModule</title>
<path fill="none" stroke="#000000" d="M1403.875,-122.0225C1403.875,-139.3734 1403.875,-163 1403.875,-163 1403.875,-163 951.0705,-163 951.0705,-163"/>
<polygon fill="#000000" stroke="#000000" points="951.0706,-159.5001 941.0705,-163 951.0705,-166.5001 951.0706,-159.5001"/>
</g>
<!-- DatetimePipe -->
<g id="node5" class="node">
<title>DatetimePipe</title>
<polygon fill="#ffffb3" stroke="#000000" points="1350.2008,-122 1257.7992,-122 1257.7992,-86 1350.2008,-86 1350.2008,-122"/>
<text text-anchor="middle" x="1304" y="-99.8" font-family="Times,serif" font-size="14.00" fill="#000000">DatetimePipe</text>
</g>
<!-- DatetimePipe&#45;&gt;FormModule -->
<g id="edge5" class="edge">
<title>DatetimePipe&#45;&gt;FormModule</title>
<path fill="none" stroke="#000000" d="M1271.875,-122.027C1271.875,-138.3976 1271.875,-160 1271.875,-160 1271.875,-160 950.966,-160 950.966,-160"/>
<polygon fill="#000000" stroke="#000000" points="950.966,-156.5001 940.966,-160 950.9659,-163.5001 950.966,-156.5001"/>
</g>
<!-- MonthComponent -->
<g id="node6" class="node">
<title>MonthComponent</title>
<polygon fill="#ffffb3" stroke="#000000" points="1240.1681,-122 1121.8319,-122 1121.8319,-86 1240.1681,-86 1240.1681,-122"/>
<text text-anchor="middle" x="1181" y="-99.8" font-family="Times,serif" font-size="14.00" fill="#000000">MonthComponent</text>
</g>
<!-- MonthComponent&#45;&gt;FormModule -->
<g id="edge6" class="edge">
<title>MonthComponent&#45;&gt;FormModule</title>
<path fill="none" stroke="#000000" d="M1146.6741,-122.2396C1146.6741,-137.5706 1146.6741,-157 1146.6741,-157 1146.6741,-157 951.105,-157 951.105,-157"/>
<polygon fill="#000000" stroke="#000000" points="951.1051,-153.5001 941.105,-157 951.105,-160.5001 951.1051,-153.5001"/>
</g>
<!-- CalendarComponent -->
<g id="node7" class="node">
<title>CalendarComponent</title>
<polygon fill="#ffffb3" stroke="#000000" points="1103.8641,-122 972.1359,-122 972.1359,-86 1103.8641,-86 1103.8641,-122"/>
<text text-anchor="middle" x="1038" y="-99.8" font-family="Times,serif" font-size="14.00" fill="#000000">CalendarComponent</text>
</g>
<!-- CalendarComponent&#45;&gt;FormModule -->
<g id="edge7" class="edge">
<title>CalendarComponent&#45;&gt;FormModule</title>
<path fill="none" stroke="#000000" d="M995.0759,-122.0511C995.0759,-136.373 995.0759,-154 995.0759,-154 995.0759,-154 950.8998,-154 950.8998,-154"/>
<polygon fill="#000000" stroke="#000000" points="950.8998,-150.5001 940.8998,-154 950.8998,-157.5001 950.8998,-150.5001"/>
</g>
<!-- VisibleFieldsPipe -->
<g id="node8" class="node">
<title>VisibleFieldsPipe</title>
<polygon fill="#ffffb3" stroke="#000000" points="953.5493,-122 838.4507,-122 838.4507,-86 953.5493,-86 953.5493,-122"/>
<text text-anchor="middle" x="896" y="-99.8" font-family="Times,serif" font-size="14.00" fill="#000000">VisibleFieldsPipe</text>
</g>
<!-- VisibleFieldsPipe&#45;&gt;FormModule -->
<g id="edge8" class="edge">
<title>VisibleFieldsPipe&#45;&gt;FormModule</title>
<path fill="none" stroke="#000000" d="M896,-122.1061C896,-122.1061 896,-140.991 896,-140.991"/>
<polygon fill="#000000" stroke="#000000" points="892.5001,-140.9909 896,-150.991 899.5001,-140.991 892.5001,-140.9909"/>
</g>
<!-- MaxItemsPipe -->
<g id="node9" class="node">
<title>MaxItemsPipe</title>
<polygon fill="#ffffb3" stroke="#000000" points="819.6486,-122 722.3514,-122 722.3514,-86 819.6486,-86 819.6486,-122"/>
<text text-anchor="middle" x="771" y="-99.8" font-family="Times,serif" font-size="14.00" fill="#000000">MaxItemsPipe</text>
</g>
<!-- MaxItemsPipe&#45;&gt;FormModule -->
<g id="edge9" class="edge">
<title>MaxItemsPipe&#45;&gt;FormModule</title>
<path fill="none" stroke="#000000" d="M806.2039,-122.0511C806.2039,-136.373 806.2039,-154 806.2039,-154 806.2039,-154 841.102,-154 841.102,-154"/>
<polygon fill="#000000" stroke="#000000" points="841.102,-157.5001 851.102,-154 841.1019,-150.5001 841.102,-157.5001"/>
</g>
<!-- ToggleComponent -->
<g id="node10" class="node">
<title>ToggleComponent</title>
<polygon fill="#ffffb3" stroke="#000000" points="704.4902,-122 583.5098,-122 583.5098,-86 704.4902,-86 704.4902,-122"/>
<text text-anchor="middle" x="644" y="-99.8" font-family="Times,serif" font-size="14.00" fill="#000000">ToggleComponent</text>
</g>
<!-- ToggleComponent&#45;&gt;FormModule -->
<g id="edge10" class="edge">
<title>ToggleComponent&#45;&gt;FormModule</title>
<path fill="none" stroke="#000000" d="M679.9855,-122.2396C679.9855,-137.5706 679.9855,-157 679.9855,-157 679.9855,-157 840.9792,-157 840.9792,-157"/>
<polygon fill="#000000" stroke="#000000" points="840.9792,-160.5001 850.9792,-157 840.9792,-153.5001 840.9792,-160.5001"/>
</g>
<!-- FormComponent  -->
<g id="node16" class="node">
<title>FormComponent </title>
<polygon fill="#fb8072" stroke="#000000" points="1573.6663,-252 1458.3337,-252 1458.3337,-216 1573.6663,-216 1573.6663,-252"/>
<text text-anchor="middle" x="1516" y="-229.8" font-family="Times,serif" font-size="14.00" fill="#000000">FormComponent </text>
</g>
<!-- FormModule&#45;&gt;FormComponent  -->
<g id="edge15" class="edge">
<title>FormModule&#45;&gt;FormComponent </title>
<path fill="none" stroke="#000000" stroke-dasharray="5,2" d="M941.2906,-175C1078.3559,-175 1479.3697,-175 1479.3697,-175 1479.3697,-175 1479.3697,-205.9775 1479.3697,-205.9775"/>
<polygon fill="#000000" stroke="#000000" points="1475.8698,-205.9774 1479.3697,-215.9775 1482.8698,-205.9775 1475.8698,-205.9774"/>
</g>
<!-- DatetimeComponent  -->
<g id="node17" class="node">
<title>DatetimeComponent </title>
<polygon fill="#fb8072" stroke="#000000" points="1440.1453,-252 1303.8547,-252 1303.8547,-216 1440.1453,-216 1440.1453,-252"/>
<text text-anchor="middle" x="1372" y="-229.8" font-family="Times,serif" font-size="14.00" fill="#000000">DatetimeComponent </text>
</g>
<!-- FormModule&#45;&gt;DatetimeComponent  -->
<g id="edge16" class="edge">
<title>FormModule&#45;&gt;DatetimeComponent </title>
<path fill="none" stroke="#000000" stroke-dasharray="5,2" d="M940.9063,-178C1051.2997,-178 1327.0139,-178 1327.0139,-178 1327.0139,-178 1327.0139,-205.973 1327.0139,-205.973"/>
<polygon fill="#000000" stroke="#000000" points="1323.5139,-205.973 1327.0139,-215.973 1330.5139,-205.973 1323.5139,-205.973"/>
</g>
<!-- DatetimePipe  -->
<g id="node18" class="node">
<title>DatetimePipe </title>
<polygon fill="#fb8072" stroke="#000000" points="1285.7011,-252 1190.2989,-252 1190.2989,-216 1285.7011,-216 1285.7011,-252"/>
<text text-anchor="middle" x="1238" y="-229.8" font-family="Times,serif" font-size="14.00" fill="#000000">DatetimePipe </text>
</g>
<!-- FormModule&#45;&gt;DatetimePipe  -->
<g id="edge17" class="edge">
<title>FormModule&#45;&gt;DatetimePipe </title>
<path fill="none" stroke="#000000" stroke-dasharray="5,2" d="M941.0625,-181C1029.0616,-181 1215.2418,-181 1215.2418,-181 1215.2418,-181 1215.2418,-205.7604 1215.2418,-205.7604"/>
<polygon fill="#000000" stroke="#000000" points="1211.7418,-205.7604 1215.2418,-215.7604 1218.7418,-205.7604 1211.7418,-205.7604"/>
</g>
<!-- CalendarComponent  -->
<g id="node19" class="node">
<title>CalendarComponent </title>
<polygon fill="#fb8072" stroke="#000000" points="1171.8645,-252 1036.1355,-252 1036.1355,-216 1171.8645,-216 1171.8645,-252"/>
<text text-anchor="middle" x="1104" y="-229.8" font-family="Times,serif" font-size="14.00" fill="#000000">CalendarComponent </text>
</g>
<!-- FormModule&#45;&gt;CalendarComponent  -->
<g id="edge18" class="edge">
<title>FormModule&#45;&gt;CalendarComponent </title>
<path fill="none" stroke="#000000" stroke-dasharray="5,2" d="M941.2947,-184C992.8872,-184 1070.125,-184 1070.125,-184 1070.125,-184 1070.125,-205.9489 1070.125,-205.9489"/>
<polygon fill="#000000" stroke="#000000" points="1066.6251,-205.9488 1070.125,-215.9489 1073.6251,-205.9489 1066.6251,-205.9488"/>
</g>
<!-- MonthComponent  -->
<g id="node20" class="node">
<title>MonthComponent </title>
<polygon fill="#fb8072" stroke="#000000" points="1018.1677,-252 895.8323,-252 895.8323,-216 1018.1677,-216 1018.1677,-252"/>
<text text-anchor="middle" x="957" y="-229.8" font-family="Times,serif" font-size="14.00" fill="#000000">MonthComponent </text>
</g>
<!-- FormModule&#45;&gt;MonthComponent  -->
<g id="edge19" class="edge">
<title>FormModule&#45;&gt;MonthComponent </title>
<path fill="none" stroke="#000000" stroke-dasharray="5,2" d="M918.429,-187.1061C918.429,-187.1061 918.429,-205.991 918.429,-205.991"/>
<polygon fill="#000000" stroke="#000000" points="914.9291,-205.9909 918.429,-215.991 921.9291,-205.991 914.9291,-205.9909"/>
</g>
<!-- PopModule  -->
<g id="node21" class="node">
<title>PopModule </title>
<polygon fill="#fb8072" stroke="#000000" points="877.3326,-252 792.6674,-252 792.6674,-216 877.3326,-216 877.3326,-252"/>
<text text-anchor="middle" x="835" y="-229.8" font-family="Times,serif" font-size="14.00" fill="#000000">PopModule </text>
</g>
<!-- FormModule&#45;&gt;PopModule  -->
<g id="edge20" class="edge">
<title>FormModule&#45;&gt;PopModule </title>
<path fill="none" stroke="#000000" stroke-dasharray="5,2" d="M864.2372,-187.1061C864.2372,-187.1061 864.2372,-205.991 864.2372,-205.991"/>
<polygon fill="#000000" stroke="#000000" points="860.7373,-205.9909 864.2372,-215.991 867.7373,-205.991 860.7373,-205.9909"/>
</g>
<!-- VisibleFieldsPipe  -->
<g id="node22" class="node">
<title>VisibleFieldsPipe </title>
<polygon fill="#fb8072" stroke="#000000" points="774.5484,-252 655.4516,-252 655.4516,-216 774.5484,-216 774.5484,-252"/>
<text text-anchor="middle" x="715" y="-229.8" font-family="Times,serif" font-size="14.00" fill="#000000">VisibleFieldsPipe </text>
</g>
<!-- FormModule&#45;&gt;VisibleFieldsPipe  -->
<g id="edge21" class="edge">
<title>FormModule&#45;&gt;VisibleFieldsPipe </title>
<path fill="none" stroke="#000000" stroke-dasharray="5,2" d="M850.8979,-184C807.4767,-184 748.3501,-184 748.3501,-184 748.3501,-184 748.3501,-205.9489 748.3501,-205.9489"/>
<polygon fill="#000000" stroke="#000000" points="744.8502,-205.9488 748.3501,-215.9489 751.8502,-205.9489 744.8502,-205.9488"/>
</g>
<!-- MaxItemsPipe  -->
<g id="node23" class="node">
<title>MaxItemsPipe </title>
<polygon fill="#fb8072" stroke="#000000" points="637.6481,-252 536.3519,-252 536.3519,-216 637.6481,-216 637.6481,-252"/>
<text text-anchor="middle" x="587" y="-229.8" font-family="Times,serif" font-size="14.00" fill="#000000">MaxItemsPipe </text>
</g>
<!-- FormModule&#45;&gt;MaxItemsPipe  -->
<g id="edge22" class="edge">
<title>FormModule&#45;&gt;MaxItemsPipe </title>
<path fill="none" stroke="#000000" stroke-dasharray="5,2" d="M851.0828,-181C770.6931,-181 610.5395,-181 610.5395,-181 610.5395,-181 610.5395,-205.7604 610.5395,-205.7604"/>
<polygon fill="#000000" stroke="#000000" points="607.0395,-205.7604 610.5395,-215.7604 614.0395,-205.7604 607.0395,-205.7604"/>
</g>
<!-- IoModule  -->
<g id="node24" class="node">
<title>IoModule </title>
<polygon fill="#fb8072" stroke="#000000" points="518.211,-252 443.789,-252 443.789,-216 518.211,-216 518.211,-252"/>
<text text-anchor="middle" x="481" y="-229.8" font-family="Times,serif" font-size="14.00" fill="#000000">IoModule </text>
</g>
<!-- FormModule&#45;&gt;IoModule  -->
<g id="edge23" class="edge">
<title>FormModule&#45;&gt;IoModule </title>
<path fill="none" stroke="#000000" stroke-dasharray="5,2" d="M850.771,-178C746.5458,-178 498.3445,-178 498.3445,-178 498.3445,-178 498.3445,-205.973 498.3445,-205.973"/>
<polygon fill="#000000" stroke="#000000" points="494.8446,-205.973 498.3445,-215.973 501.8446,-205.973 494.8446,-205.973"/>
</g>
<!-- ToggleComponent  -->
<g id="node25" class="node">
<title>ToggleComponent </title>
<polygon fill="#fb8072" stroke="#000000" points="425.4912,-252 300.5088,-252 300.5088,-216 425.4912,-216 425.4912,-252"/>
<text text-anchor="middle" x="363" y="-229.8" font-family="Times,serif" font-size="14.00" fill="#000000">ToggleComponent </text>
</g>
<!-- FormModule&#45;&gt;ToggleComponent  -->
<g id="edge24" class="edge">
<title>FormModule&#45;&gt;ToggleComponent </title>
<path fill="none" stroke="#000000" stroke-dasharray="5,2" d="M850.9021,-175C729.9251,-175 407.32,-175 407.32,-175 407.32,-175 407.32,-205.9775 407.32,-205.9775"/>
<polygon fill="#000000" stroke="#000000" points="403.82,-205.9774 407.32,-215.9775 410.82,-205.9775 403.82,-205.9774"/>
</g>
<!-- PopModule -->
<g id="node12" class="node">
<title>PopModule</title>
<polygon fill="#8dd3c7" stroke="#000000" points="559.8331,-122 556.8331,-126 535.8331,-126 532.8331,-122 478.1669,-122 478.1669,-86 559.8331,-86 559.8331,-122"/>
<text text-anchor="middle" x="519" y="-99.8" font-family="Times,serif" font-size="14.00" fill="#000000">PopModule</text>
</g>
<!-- PopModule&#45;&gt;FormModule -->
<g id="edge11" class="edge">
<title>PopModule&#45;&gt;FormModule</title>
<path fill="none" stroke="#000000" d="M548.0461,-122.027C548.0461,-138.3976 548.0461,-160 548.0461,-160 548.0461,-160 840.8678,-160 840.8678,-160"/>
<polygon fill="#000000" stroke="#000000" points="840.8679,-163.5001 850.8678,-160 840.8678,-156.5001 840.8679,-163.5001"/>
</g>
<!-- IoModule -->
<g id="node13" class="node">
<title>IoModule</title>
<polygon fill="#8dd3c7" stroke="#000000" points="460.7107,-122 457.7107,-126 436.7107,-126 433.7107,-122 389.2893,-122 389.2893,-86 460.7107,-86 460.7107,-122"/>
<text text-anchor="middle" x="425" y="-99.8" font-family="Times,serif" font-size="14.00" fill="#000000">IoModule</text>
</g>
<!-- IoModule&#45;&gt;FormModule -->
<g id="edge12" class="edge">
<title>IoModule&#45;&gt;FormModule</title>
<path fill="none" stroke="#000000" d="M452.125,-122.0225C452.125,-139.3734 452.125,-163 452.125,-163 452.125,-163 840.9962,-163 840.9962,-163"/>
<polygon fill="#000000" stroke="#000000" points="840.9962,-166.5001 850.9962,-163 840.9961,-159.5001 840.9962,-166.5001"/>
</g>
<!-- LoaderModule -->
<g id="node14" class="node">
<title>LoaderModule</title>
<polygon fill="#8dd3c7" stroke="#000000" points="371.6924,-122 368.6924,-126 347.6924,-126 344.6924,-122 272.3076,-122 272.3076,-86 371.6924,-86 371.6924,-122"/>
<text text-anchor="middle" x="322" y="-99.8" font-family="Times,serif" font-size="14.00" fill="#000000">LoaderModule</text>
</g>
<!-- LoaderModule&#45;&gt;FormModule -->
<g id="edge13" class="edge">
<title>LoaderModule&#45;&gt;FormModule</title>
<path fill="none" stroke="#000000" d="M336.1755,-122.2667C336.1755,-140.5552 336.1755,-166 336.1755,-166 336.1755,-166 840.6614,-166 840.6614,-166"/>
<polygon fill="#000000" stroke="#000000" points="840.6615,-169.5001 850.6614,-166 840.6614,-162.5001 840.6615,-169.5001"/>
</g>
<!-- IconModule -->
<g id="node15" class="node">
<title>IconModule</title>
<polygon fill="#8dd3c7" stroke="#000000" points="254.4261,-122 251.4261,-126 230.4261,-126 227.4261,-122 169.5739,-122 169.5739,-86 254.4261,-86 254.4261,-122"/>
<text text-anchor="middle" x="212" y="-99.8" font-family="Times,serif" font-size="14.00" fill="#000000">IconModule</text>
</g>
<!-- IconModule&#45;&gt;FormModule -->
<g id="edge14" class="edge">
<title>IconModule&#45;&gt;FormModule</title>
<path fill="none" stroke="#000000" d="M212,-122.1061C212,-141.3391 212,-169 212,-169 212,-169 840.8563,-169 840.8563,-169"/>
<polygon fill="#000000" stroke="#000000" points="840.8564,-172.5001 850.8563,-169 840.8563,-165.5001 840.8564,-172.5001"/>
</g>
<!-- FormService -->
<g id="node26" class="node">
<title>FormService</title>
<ellipse fill="#fdb462" stroke="#000000" cx="85" cy="-104" rx="60.8313" ry="18"/>
<text text-anchor="middle" x="85" y="-99.8" font-family="Times,serif" font-size="14.00" fill="#000000">FormService</text>
</g>
<!-- FormService&#45;&gt;FormModule -->
<g id="edge25" class="edge">
<title>FormService&#45;&gt;FormModule</title>
<path fill="none" stroke="#000000" d="M85,-122.2228C85,-142.3652 85,-172 85,-172 85,-172 840.951,-172 840.951,-172"/>
<polygon fill="#000000" stroke="#000000" points="840.9511,-175.5001 850.951,-172 840.951,-168.5001 840.9511,-175.5001"/>
</g>
</g>
</svg>
