<?xml version="1.0" encoding="UTF-8" standalone="no"?>
<!DOCTYPE svg PUBLIC "-//W3C//DTD SVG 1.1//EN"
 "http://www.w3.org/Graphics/SVG/1.1/DTD/svg11.dtd">
<!-- Generated by graphviz version 2.40.1 (20161225.0304)
 -->
<!-- Title: dependencies Pages: 1 -->
<svg width="1867pt" height="396pt"
 viewBox="0.00 0.00 1867.00 395.59" xmlns="http://www.w3.org/2000/svg" xmlns:xlink="http://www.w3.org/1999/xlink">
<g id="graph0" class="graph" transform="scale(1 1) rotate(0) translate(4 391.5901)">
<title>dependencies</title>
<polygon fill="#ffffff" stroke="transparent" points="-4,4 -4,-391.5901 1863,-391.5901 1863,4 -4,4"/>
<text text-anchor="start" x="908.5091" y="-42.4" font-family="sans-serif" font-weight="bold" font-size="14.00" fill="#000000">Legend</text>
<polygon fill="#ffffb3" stroke="transparent" points="695.5,-10 695.5,-30 715.5,-30 715.5,-10 695.5,-10"/>
<text text-anchor="start" x="719.129" y="-15.4" font-family="sans-serif" font-size="14.00" fill="#000000"> &#160;Declarations</text>
<polygon fill="#8dd3c7" stroke="transparent" points="808.5,-10 808.5,-30 828.5,-30 828.5,-10 808.5,-10"/>
<text text-anchor="start" x="832.2251" y="-15.4" font-family="sans-serif" font-size="14.00" fill="#000000"> &#160;Module</text>
<polygon fill="#80b1d3" stroke="transparent" points="894.5,-10 894.5,-30 914.5,-30 914.5,-10 894.5,-10"/>
<text text-anchor="start" x="918.2812" y="-15.4" font-family="sans-serif" font-size="14.00" fill="#000000"> &#160;Bootstrap</text>
<polygon fill="#fdb462" stroke="transparent" points="991.5,-10 991.5,-30 1011.5,-30 1011.5,-10 991.5,-10"/>
<text text-anchor="start" x="1015.1732" y="-15.4" font-family="sans-serif" font-size="14.00" fill="#000000"> &#160;Providers</text>
<polygon fill="#fb8072" stroke="transparent" points="1087.5,-10 1087.5,-30 1107.5,-30 1107.5,-10 1087.5,-10"/>
<text text-anchor="start" x="1111.2258" y="-15.4" font-family="sans-serif" font-size="14.00" fill="#000000"> &#160;Exports</text>
<g id="clust1" class="cluster">
<title>cluster_FormModule</title>
<polygon fill="none" stroke="#000000" stroke-dasharray="1,5" points="8,-70 8,-379.5901 1851,-379.5901 1851,-70 8,-70"/>
</g>
<g id="clust2" class="cluster">
<title>cluster_FormModule_declarations</title>
<polygon fill="none" stroke="#000000" points="825,-189.5901 825,-241.5901 1843,-241.5901 1843,-189.5901 825,-189.5901"/>
</g>
<g id="clust3" class="cluster">
<title>cluster_FormModule_DatetimeComponent_providers</title>
<polygon fill="none" stroke="#000000" points="1645,-78 1645,-176.5901 1843,-176.5901 1843,-78 1645,-78"/>
</g>
<g id="clust10" class="cluster">
<title>cluster_FormModule_imports</title>
<polygon fill="none" stroke="#000000" points="162,-189.5901 162,-241.5901 817,-241.5901 817,-189.5901 162,-189.5901"/>
</g>
<g id="clust11" class="cluster">
<title>cluster_FormModule_exports</title>
<polygon fill="none" stroke="#000000" points="380,-319.5901 380,-371.5901 1261,-371.5901 1261,-319.5901 380,-319.5901"/>
</g>
<g id="clust13" class="cluster">
<title>cluster_FormModule_providers</title>
<polygon fill="none" stroke="#000000" points="16,-189.5901 16,-241.5901 154,-241.5901 154,-189.5901 16,-189.5901"/>
</g>
<!-- DatetimeComponent -->
<g id="node1" class="node">
<title>DatetimeComponent</title>
<polygon fill="#ffffb3" stroke="#000000" points="1835.1457,-233.5901 1702.8543,-233.5901 1702.8543,-197.5901 1835.1457,-197.5901 1835.1457,-233.5901"/>
<text text-anchor="middle" x="1769" y="-211.3901" font-family="Times,serif" font-size="14.00" fill="#000000">DatetimeComponent</text>
</g>
<!-- FormModule -->
<g id="node8" class="node">
<title>FormModule</title>
<polygon fill="#8dd3c7" stroke="#000000" points="866.8837,-298.5901 863.8837,-302.5901 842.8837,-302.5901 839.8837,-298.5901 777.1163,-298.5901 777.1163,-262.5901 866.8837,-262.5901 866.8837,-298.5901"/>
<text text-anchor="middle" x="822" y="-276.3901" font-family="Times,serif" font-size="14.00" fill="#000000">FormModule</text>
</g>
<!-- DatetimeComponent&#45;&gt;FormModule -->
<g id="edge1" class="edge">
<title>DatetimeComponent&#45;&gt;FormModule</title>
<path fill="none" stroke="#000000" d="M1769,-233.719C1769,-254.1625 1769,-284.5901 1769,-284.5901 1769,-284.5901 877.0387,-284.5901 877.0387,-284.5901"/>
<polygon fill="#000000" stroke="#000000" points="877.0387,-281.0902 867.0387,-284.5901 877.0387,-288.0902 877.0387,-281.0902"/>
</g>
<!-- DefaultInputComponent -->
<g id="node2" class="node">
<title>DefaultInputComponent</title>
<polygon fill="#ffffb3" stroke="#000000" points="1684.3613,-233.5901 1531.6387,-233.5901 1531.6387,-197.5901 1684.3613,-197.5901 1684.3613,-233.5901"/>
<text text-anchor="middle" x="1608" y="-211.3901" font-family="Times,serif" font-size="14.00" fill="#000000">DefaultInputComponent</text>
</g>
<!-- DefaultInputComponent&#45;&gt;FormModule -->
<g id="edge3" class="edge">
<title>DefaultInputComponent&#45;&gt;FormModule</title>
<path fill="none" stroke="#000000" d="M1608,-233.6962C1608,-252.9292 1608,-280.5901 1608,-280.5901 1608,-280.5901 877.0818,-280.5901 877.0818,-280.5901"/>
<polygon fill="#000000" stroke="#000000" points="877.0819,-277.0902 867.0818,-280.5901 877.0818,-284.0902 877.0819,-277.0902"/>
</g>
<!-- DefaultOutputComponent -->
<g id="node3" class="node">
<title>DefaultOutputComponent</title>
<polygon fill="#ffffb3" stroke="#000000" points="1513.1979,-233.5901 1350.8021,-233.5901 1350.8021,-197.5901 1513.1979,-197.5901 1513.1979,-233.5901"/>
<text text-anchor="middle" x="1432" y="-211.3901" font-family="Times,serif" font-size="14.00" fill="#000000">DefaultOutputComponent</text>
</g>
<!-- DefaultOutputComponent&#45;&gt;FormModule -->
<g id="edge4" class="edge">
<title>DefaultOutputComponent&#45;&gt;FormModule</title>
<path fill="none" stroke="#000000" d="M1432,-233.8568C1432,-252.1452 1432,-277.5901 1432,-277.5901 1432,-277.5901 877.3508,-277.5901 877.3508,-277.5901"/>
<polygon fill="#000000" stroke="#000000" points="877.3508,-274.0902 867.3508,-277.5901 877.3508,-281.0902 877.3508,-274.0902"/>
</g>
<!-- FormComponent -->
<g id="node4" class="node">
<title>FormComponent</title>
<polygon fill="#ffffb3" stroke="#000000" points="1332.6667,-233.5901 1221.3333,-233.5901 1221.3333,-197.5901 1332.6667,-197.5901 1332.6667,-233.5901"/>
<text text-anchor="middle" x="1277" y="-211.3901" font-family="Times,serif" font-size="14.00" fill="#000000">FormComponent</text>
</g>
<!-- FormComponent&#45;&gt;FormModule -->
<g id="edge5" class="edge">
<title>FormComponent&#45;&gt;FormModule</title>
<path fill="none" stroke="#000000" d="M1237.1197,-233.6237C1237.1197,-250.6497 1237.1197,-273.5901 1237.1197,-273.5901 1237.1197,-273.5901 877.2153,-273.5901 877.2153,-273.5901"/>
<polygon fill="#000000" stroke="#000000" points="877.2154,-270.0902 867.2153,-273.5901 877.2153,-277.0902 877.2154,-270.0902"/>
</g>
<!-- MaxItemsPipe -->
<g id="node5" class="node">
<title>MaxItemsPipe</title>
<polygon fill="#ffffb3" stroke="#000000" points="1202.6486,-233.5901 1105.3514,-233.5901 1105.3514,-197.5901 1202.6486,-197.5901 1202.6486,-233.5901"/>
<text text-anchor="middle" x="1154" y="-211.3901" font-family="Times,serif" font-size="14.00" fill="#000000">MaxItemsPipe</text>
</g>
<!-- MaxItemsPipe&#45;&gt;FormModule -->
<g id="edge6" class="edge">
<title>MaxItemsPipe&#45;&gt;FormModule</title>
<path fill="none" stroke="#000000" d="M1111.0517,-233.5991C1111.0517,-249.6394 1111.0517,-270.5901 1111.0517,-270.5901 1111.0517,-270.5901 877.1643,-270.5901 877.1643,-270.5901"/>
<polygon fill="#000000" stroke="#000000" points="877.1644,-267.0902 867.1643,-270.5901 877.1643,-274.0902 877.1644,-267.0902"/>
</g>
<!-- ToggleComponent -->
<g id="node6" class="node">
<title>ToggleComponent</title>
<polygon fill="#ffffb3" stroke="#000000" points="1087.4902,-233.5901 966.5098,-233.5901 966.5098,-197.5901 1087.4902,-197.5901 1087.4902,-233.5901"/>
<text text-anchor="middle" x="1027" y="-211.3901" font-family="Times,serif" font-size="14.00" fill="#000000">ToggleComponent</text>
</g>
<!-- ToggleComponent&#45;&gt;FormModule -->
<g id="edge7" class="edge">
<title>ToggleComponent&#45;&gt;FormModule</title>
<path fill="none" stroke="#000000" d="M974.9609,-233.7144C974.9609,-248.3732 974.9609,-266.5901 974.9609,-266.5901 974.9609,-266.5901 877.066,-266.5901 877.066,-266.5901"/>
<polygon fill="#000000" stroke="#000000" points="877.066,-263.0902 867.066,-266.5901 877.066,-270.0902 877.066,-263.0902"/>
</g>
<!-- VisibleFieldsPipe -->
<g id="node7" class="node">
<title>VisibleFieldsPipe</title>
<polygon fill="#ffffb3" stroke="#000000" points="948.5493,-233.5901 833.4507,-233.5901 833.4507,-197.5901 948.5493,-197.5901 948.5493,-233.5901"/>
<text text-anchor="middle" x="891" y="-211.3901" font-family="Times,serif" font-size="14.00" fill="#000000">VisibleFieldsPipe</text>
</g>
<!-- VisibleFieldsPipe&#45;&gt;FormModule -->
<g id="edge8" class="edge">
<title>VisibleFieldsPipe&#45;&gt;FormModule</title>
<path fill="none" stroke="#000000" d="M850.0838,-233.6962C850.0838,-233.6962 850.0838,-252.581 850.0838,-252.581"/>
<polygon fill="#000000" stroke="#000000" points="846.5839,-252.581 850.0838,-262.581 853.5839,-252.5811 846.5839,-252.581"/>
</g>
<!-- DatetimeComponent  -->
<g id="node16" class="node">
<title>DatetimeComponent </title>
<polygon fill="#fb8072" stroke="#000000" points="1253.1453,-363.5901 1116.8547,-363.5901 1116.8547,-327.5901 1253.1453,-327.5901 1253.1453,-363.5901"/>
<text text-anchor="middle" x="1185" y="-341.3901" font-family="Times,serif" font-size="14.00" fill="#000000">DatetimeComponent </text>
</g>
<!-- FormModule&#45;&gt;DatetimeComponent  -->
<g id="edge15" class="edge">
<title>FormModule&#45;&gt;DatetimeComponent </title>
<path fill="none" stroke="#000000" stroke-dasharray="5,2" d="M867.2168,-288.5901C959.2849,-288.5901 1159.8757,-288.5901 1159.8757,-288.5901 1159.8757,-288.5901 1159.8757,-317.5549 1159.8757,-317.5549"/>
<polygon fill="#000000" stroke="#000000" points="1156.3758,-317.5549 1159.8757,-327.5549 1163.3758,-317.555 1156.3758,-317.5549"/>
</g>
<!-- FormComponent  -->
<g id="node17" class="node">
<title>FormComponent </title>
<polygon fill="#fb8072" stroke="#000000" points="1098.6663,-363.5901 983.3337,-363.5901 983.3337,-327.5901 1098.6663,-327.5901 1098.6663,-363.5901"/>
<text text-anchor="middle" x="1041" y="-341.3901" font-family="Times,serif" font-size="14.00" fill="#000000">FormComponent </text>
</g>
<!-- FormModule&#45;&gt;FormComponent  -->
<g id="edge16" class="edge">
<title>FormModule&#45;&gt;FormComponent </title>
<path fill="none" stroke="#000000" stroke-dasharray="5,2" d="M867.0077,-291.5901C929.6333,-291.5901 1035.456,-291.5901 1035.456,-291.5901 1035.456,-291.5901 1035.456,-317.3081 1035.456,-317.3081"/>
<polygon fill="#000000" stroke="#000000" points="1031.9561,-317.3081 1035.456,-327.3081 1038.9561,-317.3082 1031.9561,-317.3081"/>
</g>
<!-- IoModule  -->
<g id="node18" class="node">
<title>IoModule </title>
<polygon fill="#fb8072" stroke="#000000" points="965.211,-363.5901 890.789,-363.5901 890.789,-327.5901 965.211,-327.5901 965.211,-363.5901"/>
<text text-anchor="middle" x="928" y="-341.3901" font-family="Times,serif" font-size="14.00" fill="#000000">IoModule </text>
</g>
<!-- FormModule&#45;&gt;IoModule  -->
<g id="edge17" class="edge">
<title>FormModule&#45;&gt;IoModule </title>
<path fill="none" stroke="#000000" stroke-dasharray="5,2" d="M867.1366,-295.5901C892.7382,-295.5901 919.7095,-295.5901 919.7095,-295.5901 919.7095,-295.5901 919.7095,-317.5389 919.7095,-317.5389"/>
<polygon fill="#000000" stroke="#000000" points="916.2096,-317.5389 919.7095,-327.5389 923.2096,-317.539 916.2096,-317.5389"/>
</g>
<!-- MaxItemsPipe  -->
<g id="node19" class="node">
<title>MaxItemsPipe </title>
<polygon fill="#fb8072" stroke="#000000" points="872.6481,-363.5901 771.3519,-363.5901 771.3519,-327.5901 872.6481,-327.5901 872.6481,-363.5901"/>
<text text-anchor="middle" x="822" y="-341.3901" font-family="Times,serif" font-size="14.00" fill="#000000">MaxItemsPipe </text>
</g>
<!-- FormModule&#45;&gt;MaxItemsPipe  -->
<g id="edge18" class="edge">
<title>FormModule&#45;&gt;MaxItemsPipe </title>
<path fill="none" stroke="#000000" stroke-dasharray="5,2" d="M822,-298.6962C822,-298.6962 822,-317.581 822,-317.581"/>
<polygon fill="#000000" stroke="#000000" points="818.5001,-317.581 822,-327.581 825.5001,-317.5811 818.5001,-317.581"/>
</g>
<!-- PopModule  -->
<g id="node20" class="node">
<title>PopModule </title>
<polygon fill="#fb8072" stroke="#000000" points="753.3326,-363.5901 668.6674,-363.5901 668.6674,-327.5901 753.3326,-327.5901 753.3326,-363.5901"/>
<text text-anchor="middle" x="711" y="-341.3901" font-family="Times,serif" font-size="14.00" fill="#000000">PopModule </text>
</g>
<!-- FormModule&#45;&gt;PopModule  -->
<g id="edge19" class="edge">
<title>FormModule&#45;&gt;PopModule </title>
<path fill="none" stroke="#000000" stroke-dasharray="5,2" d="M776.8994,-295.5901C752.0487,-295.5901 726.1878,-295.5901 726.1878,-295.5901 726.1878,-295.5901 726.1878,-317.5389 726.1878,-317.5389"/>
<polygon fill="#000000" stroke="#000000" points="722.6878,-317.5389 726.1878,-327.5389 729.6878,-317.539 722.6878,-317.5389"/>
</g>
<!-- ToggleComponent  -->
<g id="node21" class="node">
<title>ToggleComponent </title>
<polygon fill="#fb8072" stroke="#000000" points="650.4912,-363.5901 525.5088,-363.5901 525.5088,-327.5901 650.4912,-327.5901 650.4912,-363.5901"/>
<text text-anchor="middle" x="588" y="-341.3901" font-family="Times,serif" font-size="14.00" fill="#000000">ToggleComponent </text>
</g>
<!-- FormModule&#45;&gt;ToggleComponent  -->
<g id="edge20" class="edge">
<title>FormModule&#45;&gt;ToggleComponent </title>
<path fill="none" stroke="#000000" stroke-dasharray="5,2" d="M776.961,-291.5901C718.4,-291.5901 623.5163,-291.5901 623.5163,-291.5901 623.5163,-291.5901 623.5163,-317.3081 623.5163,-317.3081"/>
<polygon fill="#000000" stroke="#000000" points="620.0164,-317.3081 623.5163,-327.3081 627.0164,-317.3082 620.0164,-317.3081"/>
</g>
<!-- VisibleFieldsPipe  -->
<g id="node22" class="node">
<title>VisibleFieldsPipe </title>
<polygon fill="#fb8072" stroke="#000000" points="507.5484,-363.5901 388.4516,-363.5901 388.4516,-327.5901 507.5484,-327.5901 507.5484,-363.5901"/>
<text text-anchor="middle" x="448" y="-341.3901" font-family="Times,serif" font-size="14.00" fill="#000000">VisibleFieldsPipe </text>
</g>
<!-- FormModule&#45;&gt;VisibleFieldsPipe  -->
<g id="edge21" class="edge">
<title>FormModule&#45;&gt;VisibleFieldsPipe </title>
<path fill="none" stroke="#000000" stroke-dasharray="5,2" d="M777.0181,-288.5901C688.1279,-288.5901 498.4955,-288.5901 498.4955,-288.5901 498.4955,-288.5901 498.4955,-317.5549 498.4955,-317.5549"/>
<polygon fill="#000000" stroke="#000000" points="494.9955,-317.5549 498.4955,-327.5549 501.9955,-317.555 494.9955,-317.5549"/>
</g>
<!-- {
 &#160;&#160;&#160;: , : (() =&gt; ), : true
} -->
<g id="node9" class="node">
<title>{
 &#160;&#160;&#160;: , : (() =&gt; ), : true
}</title>
<ellipse fill="#fdb462" stroke="#000000" cx="1744" cy="-127.295" rx="91.4557" ry="41.0911"/>
<text text-anchor="middle" x="1744" y="-139.895" font-family="Times,serif" font-size="14.00" fill="#000000">{</text>
<text text-anchor="middle" x="1744" y="-123.095" font-family="Times,serif" font-size="14.00" fill="#000000"> &#160;&#160;&#160;: , : (() =&gt; ), : true</text>
<text text-anchor="middle" x="1744" y="-106.295" font-family="Times,serif" font-size="14.00" fill="#000000">}</text>
</g>
<!-- {
 &#160;&#160;&#160;: , : (() =&gt; ), : true
}&#45;&gt;DatetimeComponent -->
<g id="edge2" class="edge">
<title>{
 &#160;&#160;&#160;: , : (() =&gt; ), : true
}&#45;&gt;DatetimeComponent</title>
<path fill="none" stroke="#000000" d="M1769,-167.0515C1769,-167.0515 1769,-187.4458 1769,-187.4458"/>
<polygon fill="#000000" stroke="#000000" points="1765.5001,-187.4457 1769,-197.4458 1772.5001,-187.4458 1765.5001,-187.4457"/>
</g>
<!-- CalendarModule -->
<g id="node10" class="node">
<title>CalendarModule</title>
<polygon fill="#8dd3c7" stroke="#000000" points="809.0814,-233.5901 806.0814,-237.5901 785.0814,-237.5901 782.0814,-233.5901 698.9186,-233.5901 698.9186,-197.5901 809.0814,-197.5901 809.0814,-233.5901"/>
<text text-anchor="middle" x="754" y="-211.3901" font-family="Times,serif" font-size="14.00" fill="#000000">CalendarModule</text>
</g>
<!-- CalendarModule&#45;&gt;FormModule -->
<g id="edge9" class="edge">
<title>CalendarModule&#45;&gt;FormModule</title>
<path fill="none" stroke="#000000" d="M793.0495,-233.6962C793.0495,-233.6962 793.0495,-252.581 793.0495,-252.581"/>
<polygon fill="#000000" stroke="#000000" points="789.5495,-252.581 793.0495,-262.581 796.5495,-252.5811 789.5495,-252.581"/>
</g>
<!-- IconModule -->
<g id="node11" class="node">
<title>IconModule</title>
<polygon fill="#8dd3c7" stroke="#000000" points="681.4261,-233.5901 678.4261,-237.5901 657.4261,-237.5901 654.4261,-233.5901 596.5739,-233.5901 596.5739,-197.5901 681.4261,-197.5901 681.4261,-233.5901"/>
<text text-anchor="middle" x="639" y="-211.3901" font-family="Times,serif" font-size="14.00" fill="#000000">IconModule</text>
</g>
<!-- IconModule&#45;&gt;FormModule -->
<g id="edge10" class="edge">
<title>IconModule&#45;&gt;FormModule</title>
<path fill="none" stroke="#000000" d="M674.8982,-233.7144C674.8982,-248.3732 674.8982,-266.5901 674.8982,-266.5901 674.8982,-266.5901 767.0653,-266.5901 767.0653,-266.5901"/>
<polygon fill="#000000" stroke="#000000" points="767.0653,-270.0902 777.0653,-266.5901 767.0653,-263.0902 767.0653,-270.0902"/>
</g>
<!-- IoModule -->
<g id="node12" class="node">
<title>IoModule</title>
<polygon fill="#8dd3c7" stroke="#000000" points="578.7107,-233.5901 575.7107,-237.5901 554.7107,-237.5901 551.7107,-233.5901 507.2893,-233.5901 507.2893,-197.5901 578.7107,-197.5901 578.7107,-233.5901"/>
<text text-anchor="middle" x="543" y="-211.3901" font-family="Times,serif" font-size="14.00" fill="#000000">IoModule</text>
</g>
<!-- IoModule&#45;&gt;FormModule -->
<g id="edge11" class="edge">
<title>IoModule&#45;&gt;FormModule</title>
<path fill="none" stroke="#000000" d="M552.18,-233.5991C552.18,-249.6394 552.18,-270.5901 552.18,-270.5901 552.18,-270.5901 766.8382,-270.5901 766.8382,-270.5901"/>
<polygon fill="#000000" stroke="#000000" points="766.8382,-274.0902 776.8382,-270.5901 766.8382,-267.0902 766.8382,-274.0902"/>
</g>
<!-- LoaderModule -->
<g id="node13" class="node">
<title>LoaderModule</title>
<polygon fill="#8dd3c7" stroke="#000000" points="489.6924,-233.5901 486.6924,-237.5901 465.6924,-237.5901 462.6924,-233.5901 390.3076,-233.5901 390.3076,-197.5901 489.6924,-197.5901 489.6924,-233.5901"/>
<text text-anchor="middle" x="440" y="-211.3901" font-family="Times,serif" font-size="14.00" fill="#000000">LoaderModule</text>
</g>
<!-- LoaderModule&#45;&gt;FormModule -->
<g id="edge12" class="edge">
<title>LoaderModule&#45;&gt;FormModule</title>
<path fill="none" stroke="#000000" d="M440,-233.6237C440,-250.6497 440,-273.5901 440,-273.5901 440,-273.5901 767.0564,-273.5901 767.0564,-273.5901"/>
<polygon fill="#000000" stroke="#000000" points="767.0565,-277.0902 777.0564,-273.5901 767.0564,-270.0902 767.0565,-277.0902"/>
</g>
<!-- PopModule -->
<g id="node14" class="node">
<title>PopModule</title>
<polygon fill="#8dd3c7" stroke="#000000" points="372.8331,-233.5901 369.8331,-237.5901 348.8331,-237.5901 345.8331,-233.5901 291.1669,-233.5901 291.1669,-197.5901 372.8331,-197.5901 372.8331,-233.5901"/>
<text text-anchor="middle" x="332" y="-211.3901" font-family="Times,serif" font-size="14.00" fill="#000000">PopModule</text>
</g>
<!-- PopModule&#45;&gt;FormModule -->
<g id="edge13" class="edge">
<title>PopModule&#45;&gt;FormModule</title>
<path fill="none" stroke="#000000" d="M332,-233.8568C332,-252.1452 332,-277.5901 332,-277.5901 332,-277.5901 766.7803,-277.5901 766.7803,-277.5901"/>
<polygon fill="#000000" stroke="#000000" points="766.7803,-281.0902 776.7803,-277.5901 766.7802,-274.0902 766.7803,-281.0902"/>
</g>
<!-- SymbolModule -->
<g id="node15" class="node">
<title>SymbolModule</title>
<polygon fill="#8dd3c7" stroke="#000000" points="273.6137,-233.5901 270.6137,-237.5901 249.6137,-237.5901 246.6137,-233.5901 170.3863,-233.5901 170.3863,-197.5901 273.6137,-197.5901 273.6137,-233.5901"/>
<text text-anchor="middle" x="222" y="-211.3901" font-family="Times,serif" font-size="14.00" fill="#000000">SymbolModule</text>
</g>
<!-- SymbolModule&#45;&gt;FormModule -->
<g id="edge14" class="edge">
<title>SymbolModule&#45;&gt;FormModule</title>
<path fill="none" stroke="#000000" d="M222,-233.6962C222,-252.9292 222,-280.5901 222,-280.5901 222,-280.5901 766.9025,-280.5901 766.9025,-280.5901"/>
<polygon fill="#000000" stroke="#000000" points="766.9025,-284.0902 776.9025,-280.5901 766.9024,-277.0902 766.9025,-284.0902"/>
</g>
<!-- FormService -->
<g id="node23" class="node">
<title>FormService</title>
<ellipse fill="#fdb462" stroke="#000000" cx="85" cy="-215.5901" rx="60.8313" ry="18"/>
<text text-anchor="middle" x="85" y="-211.3901" font-family="Times,serif" font-size="14.00" fill="#000000">FormService</text>
</g>
<!-- FormService&#45;&gt;FormModule -->
<g id="edge22" class="edge">
<title>FormService&#45;&gt;FormModule</title>
<path fill="none" stroke="#000000" d="M85,-233.719C85,-254.1625 85,-284.5901 85,-284.5901 85,-284.5901 767.0068,-284.5901 767.0068,-284.5901"/>
<polygon fill="#000000" stroke="#000000" points="767.0068,-288.0902 777.0068,-284.5901 767.0067,-281.0902 767.0068,-288.0902"/>
</g>
</g>
</svg>
