<?xml version="1.0" encoding="UTF-8" standalone="no"?>
<!DOCTYPE svg PUBLIC "-//W3C//DTD SVG 1.1//EN"
 "http://www.w3.org/Graphics/SVG/1.1/DTD/svg11.dtd">
<!-- Generated by graphviz version 2.40.1 (20161225.0304)
 -->
<!-- Title: dependencies Pages: 1 -->
<svg width="1796pt" height="284pt"
 viewBox="0.00 0.00 1796.00 284.00" xmlns="http://www.w3.org/2000/svg" xmlns:xlink="http://www.w3.org/1999/xlink">
<g id="graph0" class="graph" transform="scale(1 1) rotate(0) translate(4 280)">
<title>dependencies</title>
<polygon fill="#ffffff" stroke="transparent" points="-4,4 -4,-280 1792,-280 1792,4 -4,4"/>
<text text-anchor="start" x="873.0091" y="-42.4" font-family="sans-serif" font-weight="bold" font-size="14.00" fill="#000000">Legend</text>
<polygon fill="#ffffb3" stroke="transparent" points="660,-10 660,-30 680,-30 680,-10 660,-10"/>
<text text-anchor="start" x="683.629" y="-15.4" font-family="sans-serif" font-size="14.00" fill="#000000"> &#160;Declarations</text>
<polygon fill="#8dd3c7" stroke="transparent" points="773,-10 773,-30 793,-30 793,-10 773,-10"/>
<text text-anchor="start" x="796.7251" y="-15.4" font-family="sans-serif" font-size="14.00" fill="#000000"> &#160;Module</text>
<polygon fill="#80b1d3" stroke="transparent" points="859,-10 859,-30 879,-30 879,-10 859,-10"/>
<text text-anchor="start" x="882.7812" y="-15.4" font-family="sans-serif" font-size="14.00" fill="#000000"> &#160;Bootstrap</text>
<polygon fill="#fdb462" stroke="transparent" points="956,-10 956,-30 976,-30 976,-10 956,-10"/>
<text text-anchor="start" x="979.6732" y="-15.4" font-family="sans-serif" font-size="14.00" fill="#000000"> &#160;Providers</text>
<polygon fill="#fb8072" stroke="transparent" points="1052,-10 1052,-30 1072,-30 1072,-10 1052,-10"/>
<text text-anchor="start" x="1075.7258" y="-15.4" font-family="sans-serif" font-size="14.00" fill="#000000"> &#160;Exports</text>
<g id="clust1" class="cluster">
<title>cluster_FormModule</title>
<polygon fill="none" stroke="#000000" stroke-dasharray="1,5" points="8,-70 8,-268 1780,-268 1780,-70 8,-70"/>
</g>
<g id="clust2" class="cluster">
<title>cluster_FormModule_declarations</title>
<polygon fill="none" stroke="#000000" points="268,-78 268,-130 1772,-130 1772,-78 268,-78"/>
</g>
<g id="clust13" class="cluster">
<title>cluster_FormModule_imports</title>
<polygon fill="none" stroke="#000000" points="162,-78 162,-130 260,-130 260,-78 162,-78"/>
</g>
<g id="clust14" class="cluster">
<title>cluster_FormModule_exports</title>
<polygon fill="none" stroke="#000000" points="313,-208 313,-260 1420,-260 1420,-208 313,-208"/>
</g>
<g id="clust16" class="cluster">
<title>cluster_FormModule_providers</title>
<polygon fill="none" stroke="#000000" points="16,-78 16,-130 154,-130 154,-78 16,-78"/>
</g>
<!-- FormComponent -->
<g id="node1" class="node">
<title>FormComponent</title>
<polygon fill="#ffffb3" stroke="#000000" points="1763.6667,-122 1652.3333,-122 1652.3333,-86 1763.6667,-86 1763.6667,-122"/>
<text text-anchor="middle" x="1708" y="-99.8" font-family="Times,serif" font-size="14.00" fill="#000000">FormComponent</text>
</g>
<!-- FormModule -->
<g id="node11" class="node">
<title>FormModule</title>
<polygon fill="#8dd3c7" stroke="#000000" points="896.8837,-187 893.8837,-191 872.8837,-191 869.8837,-187 807.1163,-187 807.1163,-151 896.8837,-151 896.8837,-187"/>
<text text-anchor="middle" x="852" y="-164.8" font-family="Times,serif" font-size="14.00" fill="#000000">FormModule</text>
</g>
<!-- FormComponent&#45;&gt;FormModule -->
<g id="edge1" class="edge">
<title>FormComponent&#45;&gt;FormModule</title>
<path fill="none" stroke="#000000" d="M1708,-122.308C1708,-142.1455 1708,-171 1708,-171 1708,-171 907.117,-171 907.117,-171"/>
<polygon fill="#000000" stroke="#000000" points="907.1171,-167.5001 897.117,-171 907.117,-174.5001 907.1171,-167.5001"/>
</g>
<!-- InputComponent -->
<g id="node2" class="node">
<title>InputComponent</title>
<polygon fill="#ffffb3" stroke="#000000" points="1634.3837,-122 1523.6163,-122 1523.6163,-86 1634.3837,-86 1634.3837,-122"/>
<text text-anchor="middle" x="1579" y="-99.8" font-family="Times,serif" font-size="14.00" fill="#000000">InputComponent</text>
</g>
<!-- InputComponent&#45;&gt;FormModule -->
<g id="edge2" class="edge">
<title>InputComponent&#45;&gt;FormModule</title>
<path fill="none" stroke="#000000" d="M1579,-122.2222C1579,-140.8285 1579,-167 1579,-167 1579,-167 906.9285,-167 906.9285,-167"/>
<polygon fill="#000000" stroke="#000000" points="906.9285,-163.5001 896.9285,-167 906.9284,-170.5001 906.9285,-163.5001"/>
</g>
<!-- OutputComponent -->
<g id="node3" class="node">
<title>OutputComponent</title>
<polygon fill="#ffffb3" stroke="#000000" points="1505.2204,-122 1384.7796,-122 1384.7796,-86 1505.2204,-86 1505.2204,-122"/>
<text text-anchor="middle" x="1445" y="-99.8" font-family="Times,serif" font-size="14.00" fill="#000000">OutputComponent</text>
</g>
<!-- OutputComponent&#45;&gt;FormModule -->
<g id="edge3" class="edge">
<title>OutputComponent&#45;&gt;FormModule</title>
<path fill="none" stroke="#000000" d="M1398.2365,-122.0225C1398.2365,-139.3734 1398.2365,-163 1398.2365,-163 1398.2365,-163 907.1655,-163 907.1655,-163"/>
<polygon fill="#000000" stroke="#000000" points="907.1656,-159.5001 897.1655,-163 907.1655,-166.5001 907.1656,-159.5001"/>
</g>
<!-- DefaultInputComponent -->
<g id="node4" class="node">
<title>DefaultInputComponent</title>
<polygon fill="#ffffb3" stroke="#000000" points="1366.3613,-122 1213.6387,-122 1213.6387,-86 1366.3613,-86 1366.3613,-122"/>
<text text-anchor="middle" x="1290" y="-99.8" font-family="Times,serif" font-size="14.00" fill="#000000">DefaultInputComponent</text>
</g>
<!-- DefaultInputComponent&#45;&gt;FormModule -->
<g id="edge4" class="edge">
<title>DefaultInputComponent&#45;&gt;FormModule</title>
<path fill="none" stroke="#000000" d="M1245.8806,-122.0091C1245.8806,-138.0494 1245.8806,-159 1245.8806,-159 1245.8806,-159 907.1831,-159 907.1831,-159"/>
<polygon fill="#000000" stroke="#000000" points="907.1831,-155.5001 897.1831,-159 907.1831,-162.5001 907.1831,-155.5001"/>
</g>
<!-- DefaultOutputComponent -->
<g id="node5" class="node">
<title>DefaultOutputComponent</title>
<polygon fill="#ffffb3" stroke="#000000" points="1195.1979,-122 1032.8021,-122 1032.8021,-86 1195.1979,-86 1195.1979,-122"/>
<text text-anchor="middle" x="1114" y="-99.8" font-family="Times,serif" font-size="14.00" fill="#000000">DefaultOutputComponent</text>
</g>
<!-- DefaultOutputComponent&#45;&gt;FormModule -->
<g id="edge5" class="edge">
<title>DefaultOutputComponent&#45;&gt;FormModule</title>
<path fill="none" stroke="#000000" d="M1089.3806,-122.1243C1089.3806,-136.7832 1089.3806,-155 1089.3806,-155 1089.3806,-155 906.9285,-155 906.9285,-155"/>
<polygon fill="#000000" stroke="#000000" points="906.9286,-151.5001 896.9285,-155 906.9285,-158.5001 906.9286,-151.5001"/>
</g>
<!-- DynamicSlotComponent -->
<g id="node6" class="node">
<title>DynamicSlotComponent</title>
<polygon fill="#ffffb3" stroke="#000000" points="1014.7133,-122 859.2867,-122 859.2867,-86 1014.7133,-86 1014.7133,-122"/>
<text text-anchor="middle" x="937" y="-99.8" font-family="Times,serif" font-size="14.00" fill="#000000">DynamicSlotComponent</text>
</g>
<!-- DynamicSlotComponent&#45;&gt;FormModule -->
<g id="edge6" class="edge">
<title>DynamicSlotComponent&#45;&gt;FormModule</title>
<path fill="none" stroke="#000000" d="M878.1676,-122.1061C878.1676,-122.1061 878.1676,-140.991 878.1676,-140.991"/>
<polygon fill="#000000" stroke="#000000" points="874.6677,-140.9909 878.1676,-150.991 881.6677,-140.991 874.6677,-140.9909"/>
</g>
<!-- InputErrorsComponent -->
<g id="node7" class="node">
<title>InputErrorsComponent</title>
<polygon fill="#ffffb3" stroke="#000000" points="840.8627,-122 695.1373,-122 695.1373,-86 840.8627,-86 840.8627,-122"/>
<text text-anchor="middle" x="768" y="-99.8" font-family="Times,serif" font-size="14.00" fill="#000000">InputErrorsComponent</text>
</g>
<!-- InputErrorsComponent&#45;&gt;FormModule -->
<g id="edge7" class="edge">
<title>InputErrorsComponent&#45;&gt;FormModule</title>
<path fill="none" stroke="#000000" d="M823.9948,-122.1061C823.9948,-122.1061 823.9948,-140.991 823.9948,-140.991"/>
<polygon fill="#000000" stroke="#000000" points="820.4948,-140.9909 823.9948,-150.991 827.4948,-140.991 820.4948,-140.9909"/>
</g>
<!-- SlotHostDirective -->
<g id="node8" class="node">
<title>SlotHostDirective</title>
<polygon fill="#ffffb3" stroke="#000000" points="677.5884,-122 560.4116,-122 560.4116,-86 677.5884,-86 677.5884,-122"/>
<text text-anchor="middle" x="619" y="-99.8" font-family="Times,serif" font-size="14.00" fill="#000000">SlotHostDirective</text>
</g>
<!-- SlotHostDirective&#45;&gt;FormModule -->
<g id="edge8" class="edge">
<title>SlotHostDirective&#45;&gt;FormModule</title>
<path fill="none" stroke="#000000" d="M628.0121,-122.1243C628.0121,-136.7832 628.0121,-155 628.0121,-155 628.0121,-155 796.9421,-155 796.9421,-155"/>
<polygon fill="#000000" stroke="#000000" points="796.9422,-158.5001 806.9421,-155 796.9421,-151.5001 796.9422,-158.5001"/>
</g>
<!-- SelectComponent -->
<g id="node9" class="node">
<title>SelectComponent</title>
<polygon fill="#ffffb3" stroke="#000000" points="542.5409,-122 427.4591,-122 427.4591,-86 542.5409,-86 542.5409,-122"/>
<text text-anchor="middle" x="485" y="-99.8" font-family="Times,serif" font-size="14.00" fill="#000000">SelectComponent</text>
</g>
<!-- SelectComponent&#45;&gt;FormModule -->
<g id="edge9" class="edge">
<title>SelectComponent&#45;&gt;FormModule</title>
<path fill="none" stroke="#000000" d="M485,-122.0091C485,-138.0494 485,-159 485,-159 485,-159 796.9986,-159 796.9986,-159"/>
<polygon fill="#000000" stroke="#000000" points="796.9986,-162.5001 806.9986,-159 796.9986,-155.5001 796.9986,-162.5001"/>
</g>
<!-- SelectionComponent -->
<g id="node10" class="node">
<title>SelectionComponent</title>
<polygon fill="#ffffb3" stroke="#000000" points="409.9313,-122 276.0687,-122 276.0687,-86 409.9313,-86 409.9313,-122"/>
<text text-anchor="middle" x="343" y="-99.8" font-family="Times,serif" font-size="14.00" fill="#000000">SelectionComponent</text>
</g>
<!-- SelectionComponent&#45;&gt;FormModule -->
<g id="edge10" class="edge">
<title>SelectionComponent&#45;&gt;FormModule</title>
<path fill="none" stroke="#000000" d="M348.8613,-122.0225C348.8613,-139.3734 348.8613,-163 348.8613,-163 348.8613,-163 796.907,-163 796.907,-163"/>
<polygon fill="#000000" stroke="#000000" points="796.907,-166.5001 806.907,-163 796.907,-159.5001 796.907,-166.5001"/>
</g>
<!-- FormComponent  -->
<g id="node13" class="node">
<title>FormComponent </title>
<polygon fill="#fb8072" stroke="#000000" points="1411.6663,-252 1296.3337,-252 1296.3337,-216 1411.6663,-216 1411.6663,-252"/>
<text text-anchor="middle" x="1354" y="-229.8" font-family="Times,serif" font-size="14.00" fill="#000000">FormComponent </text>
</g>
<!-- FormModule&#45;&gt;FormComponent  -->
<g id="edge12" class="edge">
<title>FormModule&#45;&gt;FormComponent </title>
<path fill="none" stroke="#000000" stroke-dasharray="5,2" d="M897.103,-175C1016.4489,-175 1331.4238,-175 1331.4238,-175 1331.4238,-175 1331.4238,-205.9775 1331.4238,-205.9775"/>
<polygon fill="#000000" stroke="#000000" points="1327.9238,-205.9774 1331.4238,-215.9775 1334.9238,-205.9775 1327.9238,-205.9774"/>
</g>
<!-- InputComponent  -->
<g id="node14" class="node">
<title>InputComponent </title>
<polygon fill="#fb8072" stroke="#000000" points="1278.3842,-252 1163.6158,-252 1163.6158,-216 1278.3842,-216 1278.3842,-252"/>
<text text-anchor="middle" x="1221" y="-229.8" font-family="Times,serif" font-size="14.00" fill="#000000">InputComponent </text>
</g>
<!-- FormModule&#45;&gt;InputComponent  -->
<g id="edge13" class="edge">
<title>FormModule&#45;&gt;InputComponent </title>
<path fill="none" stroke="#000000" stroke-dasharray="5,2" d="M897.1872,-179C987.0163,-179 1179.4536,-179 1179.4536,-179 1179.4536,-179 1179.4536,-205.9909 1179.4536,-205.9909"/>
<polygon fill="#000000" stroke="#000000" points="1175.9536,-205.9909 1179.4536,-215.9909 1182.9536,-205.991 1175.9536,-205.9909"/>
</g>
<!-- OutputComponent  -->
<g id="node15" class="node">
<title>OutputComponent </title>
<polygon fill="#fb8072" stroke="#000000" points="1145.7205,-252 1022.2795,-252 1022.2795,-216 1145.7205,-216 1145.7205,-252"/>
<text text-anchor="middle" x="1084" y="-229.8" font-family="Times,serif" font-size="14.00" fill="#000000">OutputComponent </text>
</g>
<!-- FormModule&#45;&gt;OutputComponent  -->
<g id="edge14" class="edge">
<title>FormModule&#45;&gt;OutputComponent </title>
<path fill="none" stroke="#000000" stroke-dasharray="5,2" d="M897.2009,-183C949.2064,-183 1027.5205,-183 1027.5205,-183 1027.5205,-183 1027.5205,-205.8757 1027.5205,-205.8757"/>
<polygon fill="#000000" stroke="#000000" points="1024.0206,-205.8757 1027.5205,-215.8757 1031.0206,-205.8757 1024.0206,-205.8757"/>
</g>
<!-- InputErrorsComponent  -->
<g id="node16" class="node">
<title>InputErrorsComponent </title>
<polygon fill="#fb8072" stroke="#000000" points="1003.863,-252 854.137,-252 854.137,-216 1003.863,-216 1003.863,-252"/>
<text text-anchor="middle" x="929" y="-229.8" font-family="Times,serif" font-size="14.00" fill="#000000">InputErrorsComponent </text>
</g>
<!-- FormModule&#45;&gt;InputErrorsComponent  -->
<g id="edge15" class="edge">
<title>FormModule&#45;&gt;InputErrorsComponent </title>
<path fill="none" stroke="#000000" stroke-dasharray="5,2" d="M875.6303,-187.1061C875.6303,-187.1061 875.6303,-205.991 875.6303,-205.991"/>
<polygon fill="#000000" stroke="#000000" points="872.1303,-205.9909 875.6303,-215.991 879.1303,-205.991 872.1303,-205.9909"/>
</g>
<!-- SlotHostDirective  -->
<g id="node17" class="node">
<title>SlotHostDirective </title>
<polygon fill="#fb8072" stroke="#000000" points="836.0891,-252 715.9109,-252 715.9109,-216 836.0891,-216 836.0891,-252"/>
<text text-anchor="middle" x="776" y="-229.8" font-family="Times,serif" font-size="14.00" fill="#000000">SlotHostDirective </text>
</g>
<!-- FormModule&#45;&gt;SlotHostDirective  -->
<g id="edge16" class="edge">
<title>FormModule&#45;&gt;SlotHostDirective </title>
<path fill="none" stroke="#000000" stroke-dasharray="5,2" d="M821.6762,-187.1061C821.6762,-187.1061 821.6762,-205.991 821.6762,-205.991"/>
<polygon fill="#000000" stroke="#000000" points="818.1763,-205.9909 821.6762,-215.991 825.1763,-205.991 818.1763,-205.9909"/>
</g>
<!-- SelectComponent  -->
<g id="node18" class="node">
<title>SelectComponent </title>
<polygon fill="#fb8072" stroke="#000000" points="697.54,-252 578.46,-252 578.46,-216 697.54,-216 697.54,-252"/>
<text text-anchor="middle" x="638" y="-229.8" font-family="Times,serif" font-size="14.00" fill="#000000">SelectComponent </text>
</g>
<!-- FormModule&#45;&gt;SelectComponent  -->
<g id="edge17" class="edge">
<title>FormModule&#45;&gt;SelectComponent </title>
<path fill="none" stroke="#000000" stroke-dasharray="5,2" d="M806.7235,-183C757.6647,-183 686.3065,-183 686.3065,-183 686.3065,-183 686.3065,-205.8757 686.3065,-205.8757"/>
<polygon fill="#000000" stroke="#000000" points="682.8065,-205.8757 686.3065,-215.8757 689.8065,-205.8757 682.8065,-205.8757"/>
</g>
<!-- SelectionComponent  -->
<g id="node19" class="node">
<title>SelectionComponent </title>
<polygon fill="#fb8072" stroke="#000000" points="560.4306,-252 423.5694,-252 423.5694,-216 560.4306,-216 560.4306,-252"/>
<text text-anchor="middle" x="492" y="-229.8" font-family="Times,serif" font-size="14.00" fill="#000000">SelectionComponent </text>
</g>
<!-- FormModule&#45;&gt;SelectionComponent  -->
<g id="edge18" class="edge">
<title>FormModule&#45;&gt;SelectionComponent </title>
<path fill="none" stroke="#000000" stroke-dasharray="5,2" d="M807.029,-179C723.2311,-179 551.6129,-179 551.6129,-179 551.6129,-179 551.6129,-205.9909 551.6129,-205.9909"/>
<polygon fill="#000000" stroke="#000000" points="548.113,-205.9909 551.6129,-215.9909 555.113,-205.991 548.113,-205.9909"/>
</g>
<!-- PopModule  -->
<g id="node20" class="node">
<title>PopModule </title>
<polygon fill="#fb8072" stroke="#000000" points="405.3326,-252 320.6674,-252 320.6674,-216 405.3326,-216 405.3326,-252"/>
<text text-anchor="middle" x="363" y="-229.8" font-family="Times,serif" font-size="14.00" fill="#000000">PopModule </text>
</g>
<!-- FormModule&#45;&gt;PopModule  -->
<g id="edge19" class="edge">
<title>FormModule&#45;&gt;PopModule </title>
<path fill="none" stroke="#000000" stroke-dasharray="5,2" d="M806.8981,-175C688.3648,-175 377.1387,-175 377.1387,-175 377.1387,-175 377.1387,-205.9775 377.1387,-205.9775"/>
<polygon fill="#000000" stroke="#000000" points="373.6388,-205.9774 377.1387,-215.9775 380.6388,-205.9775 373.6388,-205.9774"/>
</g>
<!-- PopModule -->
<g id="node12" class="node">
<title>PopModule</title>
<polygon fill="#8dd3c7" stroke="#000000" points="251.8331,-122 248.8331,-126 227.8331,-126 224.8331,-122 170.1669,-122 170.1669,-86 251.8331,-86 251.8331,-122"/>
<text text-anchor="middle" x="211" y="-99.8" font-family="Times,serif" font-size="14.00" fill="#000000">PopModule</text>
</g>
<!-- PopModule&#45;&gt;FormModule -->
<g id="edge11" class="edge">
<title>PopModule&#45;&gt;FormModule</title>
<path fill="none" stroke="#000000" d="M211,-122.2222C211,-140.8285 211,-167 211,-167 211,-167 796.9261,-167 796.9261,-167"/>
<polygon fill="#000000" stroke="#000000" points="796.9262,-170.5001 806.9261,-167 796.9261,-163.5001 796.9262,-170.5001"/>
</g>
<!-- FormService -->
<g id="node21" class="node">
<title>FormService</title>
<ellipse fill="#fdb462" stroke="#000000" cx="85" cy="-104" rx="60.8313" ry="18"/>
<text text-anchor="middle" x="85" y="-99.8" font-family="Times,serif" font-size="14.00" fill="#000000">FormService</text>
</g>
<!-- FormService&#45;&gt;FormModule -->
<g id="edge20" class="edge">
<title>FormService&#45;&gt;FormModule</title>
<path fill="none" stroke="#000000" d="M85,-122.308C85,-142.1455 85,-171 85,-171 85,-171 796.8841,-171 796.8841,-171"/>
<polygon fill="#000000" stroke="#000000" points="796.8842,-174.5001 806.8841,-171 796.8841,-167.5001 796.8842,-174.5001"/>
</g>
</g>
</svg>
