<?xml version="1.0" encoding="UTF-8" standalone="no"?>
<!DOCTYPE svg PUBLIC "-//W3C//DTD SVG 1.1//EN"
 "http://www.w3.org/Graphics/SVG/1.1/DTD/svg11.dtd">
<!-- Generated by graphviz version 2.47.0 (20210316.0004)
 -->
<!-- Title: dependencies Pages: 1 -->
<svg width="1981pt" height="284pt"
 viewBox="0.00 0.00 1981.00 284.00" xmlns="http://www.w3.org/2000/svg" xmlns:xlink="http://www.w3.org/1999/xlink">
<g id="graph0" class="graph" transform="scale(1 1) rotate(0) translate(4 280)">
<title>dependencies</title>
<polygon fill="white" stroke="transparent" points="-4,4 -4,-280 1977,-280 1977,4 -4,4"/>
<text text-anchor="start" x="965.51" y="-42.4" font-family="sans-serif" font-weight="bold" font-size="14.00">Legend</text>
<polygon fill="#ffffb3" stroke="transparent" points="752.5,-10 752.5,-30 772.5,-30 772.5,-10 752.5,-10"/>
<text text-anchor="start" x="776.13" y="-15.4" font-family="sans-serif" font-size="14.00"> &#160;Declarations</text>
<polygon fill="#8dd3c7" stroke="transparent" points="865.5,-10 865.5,-30 885.5,-30 885.5,-10 865.5,-10"/>
<text text-anchor="start" x="889.23" y="-15.4" font-family="sans-serif" font-size="14.00"> &#160;Module</text>
<polygon fill="#80b1d3" stroke="transparent" points="951.5,-10 951.5,-30 971.5,-30 971.5,-10 951.5,-10"/>
<text text-anchor="start" x="975.28" y="-15.4" font-family="sans-serif" font-size="14.00"> &#160;Bootstrap</text>
<polygon fill="#fdb462" stroke="transparent" points="1048.5,-10 1048.5,-30 1068.5,-30 1068.5,-10 1048.5,-10"/>
<text text-anchor="start" x="1072.17" y="-15.4" font-family="sans-serif" font-size="14.00"> &#160;Providers</text>
<polygon fill="#fb8072" stroke="transparent" points="1144.5,-10 1144.5,-30 1164.5,-30 1164.5,-10 1144.5,-10"/>
<text text-anchor="start" x="1168.23" y="-15.4" font-family="sans-serif" font-size="14.00"> &#160;Exports</text>
<g id="clust1" class="cluster">
<title>cluster_FormModule</title>
<polygon fill="none" stroke="black" stroke-dasharray="1,5" points="8,-70 8,-268 1965,-268 1965,-70 8,-70"/>
</g>
<g id="clust2" class="cluster">
<title>cluster_FormModule_declarations</title>
<polygon fill="none" stroke="black" points="939,-78 939,-130 1957,-130 1957,-78 939,-78"/>
</g>
<g id="clust11" class="cluster">
<title>cluster_FormModule_exports</title>
<polygon fill="none" stroke="black" points="365,-208 365,-260 1363,-260 1363,-208 365,-208"/>
</g>
<g id="clust10" class="cluster">
<title>cluster_FormModule_imports</title>
<polygon fill="none" stroke="black" points="162,-78 162,-130 931,-130 931,-78 162,-78"/>
</g>
<g id="clust13" class="cluster">
<title>cluster_FormModule_providers</title>
<polygon fill="none" stroke="black" points="16,-78 16,-130 154,-130 154,-78 16,-78"/>
</g>
<!-- DatetimeComponent -->
<g id="node1" class="node">
<title>DatetimeComponent</title>
<polygon fill="#ffffb3" stroke="black" points="1949.15,-122 1816.85,-122 1816.85,-86 1949.15,-86 1949.15,-122"/>
<text text-anchor="middle" x="1883" y="-99.8" font-family="Times,serif" font-size="14.00">DatetimeComponent</text>
</g>
<!-- FormModule -->
<g id="node8" class="node">
<title>FormModule</title>
<polygon fill="#8dd3c7" stroke="black" points="912.88,-187 909.88,-191 888.88,-191 885.88,-187 823.12,-187 823.12,-151 912.88,-151 912.88,-187"/>
<text text-anchor="middle" x="868" y="-164.8" font-family="Times,serif" font-size="14.00">FormModule</text>
</g>
<!-- DatetimeComponent&#45;&gt;FormModule -->
<g id="edge1" class="edge">
<title>DatetimeComponent&#45;&gt;FormModule</title>
<path fill="none" stroke="black" d="M1883,-122.03C1883,-142.77 1883,-174 1883,-174 1883,-174 922.92,-174 922.92,-174"/>
<polygon fill="black" stroke="black" points="922.92,-170.5 912.92,-174 922.92,-177.5 922.92,-170.5"/>
</g>
<!-- DefaultInputComponent -->
<g id="node2" class="node">
<title>DefaultInputComponent</title>
<polygon fill="#ffffb3" stroke="black" points="1798.36,-122 1645.64,-122 1645.64,-86 1798.36,-86 1798.36,-122"/>
<text text-anchor="middle" x="1722" y="-99.8" font-family="Times,serif" font-size="14.00">DefaultInputComponent</text>
</g>
<!-- DefaultInputComponent&#45;&gt;FormModule -->
<g id="edge2" class="edge">
<title>DefaultInputComponent&#45;&gt;FormModule</title>
<path fill="none" stroke="black" d="M1722,-122.31C1722,-142.15 1722,-171 1722,-171 1722,-171 923.01,-171 923.01,-171"/>
<polygon fill="black" stroke="black" points="923.01,-167.5 913.01,-171 923.01,-174.5 923.01,-167.5"/>
</g>
<!-- DefaultOutputComponent -->
<g id="node3" class="node">
<title>DefaultOutputComponent</title>
<polygon fill="#ffffb3" stroke="black" points="1627.2,-122 1464.8,-122 1464.8,-86 1627.2,-86 1627.2,-122"/>
<text text-anchor="middle" x="1546" y="-99.8" font-family="Times,serif" font-size="14.00">DefaultOutputComponent</text>
</g>
<!-- DefaultOutputComponent&#45;&gt;FormModule -->
<g id="edge3" class="edge">
<title>DefaultOutputComponent&#45;&gt;FormModule</title>
<path fill="none" stroke="black" d="M1546,-122.17C1546,-141.09 1546,-168 1546,-168 1546,-168 923.01,-168 923.01,-168"/>
<polygon fill="black" stroke="black" points="923.01,-164.5 913.01,-168 923.01,-171.5 923.01,-164.5"/>
</g>
<!-- FormComponent -->
<g id="node4" class="node">
<title>FormComponent</title>
<polygon fill="#ffffb3" stroke="black" points="1446.67,-122 1335.33,-122 1335.33,-86 1446.67,-86 1446.67,-122"/>
<text text-anchor="middle" x="1391" y="-99.8" font-family="Times,serif" font-size="14.00">FormComponent</text>
</g>
<!-- FormComponent&#45;&gt;FormModule -->
<g id="edge4" class="edge">
<title>FormComponent&#45;&gt;FormModule</title>
<path fill="none" stroke="black" d="M1345.12,-122.3C1345.12,-140.27 1345.12,-165 1345.12,-165 1345.12,-165 922.89,-165 922.89,-165"/>
<polygon fill="black" stroke="black" points="922.89,-161.5 912.89,-165 922.89,-168.5 922.89,-161.5"/>
</g>
<!-- MaxItemsPipe -->
<g id="node5" class="node">
<title>MaxItemsPipe</title>
<polygon fill="#ffffb3" stroke="black" points="1316.65,-122 1219.35,-122 1219.35,-86 1316.65,-86 1316.65,-122"/>
<text text-anchor="middle" x="1268" y="-99.8" font-family="Times,serif" font-size="14.00">MaxItemsPipe</text>
</g>
<!-- MaxItemsPipe&#45;&gt;FormModule -->
<g id="edge5" class="edge">
<title>MaxItemsPipe&#45;&gt;FormModule</title>
<path fill="none" stroke="black" d="M1284.27,-122.04C1284.27,-138.73 1284.27,-161 1284.27,-161 1284.27,-161 922.94,-161 922.94,-161"/>
<polygon fill="black" stroke="black" points="922.94,-157.5 912.94,-161 922.94,-164.5 922.94,-157.5"/>
</g>
<!-- ToggleComponent -->
<g id="node6" class="node">
<title>ToggleComponent</title>
<polygon fill="#ffffb3" stroke="black" points="1201.49,-122 1080.51,-122 1080.51,-86 1201.49,-86 1201.49,-122"/>
<text text-anchor="middle" x="1141" y="-99.8" font-family="Times,serif" font-size="14.00">ToggleComponent</text>
</g>
<!-- ToggleComponent&#45;&gt;FormModule -->
<g id="edge6" class="edge">
<title>ToggleComponent&#45;&gt;FormModule</title>
<path fill="none" stroke="black" d="M1162.19,-122.28C1162.19,-137.95 1162.19,-158 1162.19,-158 1162.19,-158 923,-158 923,-158"/>
<polygon fill="black" stroke="black" points="923,-154.5 913,-158 923,-161.5 923,-154.5"/>
</g>
<!-- VisibleFieldsPipe -->
<g id="node7" class="node">
<title>VisibleFieldsPipe</title>
<polygon fill="#ffffb3" stroke="black" points="1062.55,-122 947.45,-122 947.45,-86 1062.55,-86 1062.55,-122"/>
<text text-anchor="middle" x="1005" y="-99.8" font-family="Times,serif" font-size="14.00">VisibleFieldsPipe</text>
</g>
<!-- VisibleFieldsPipe&#45;&gt;FormModule -->
<g id="edge7" class="edge">
<title>VisibleFieldsPipe&#45;&gt;FormModule</title>
<path fill="none" stroke="black" d="M960.9,-122.12C960.9,-136.78 960.9,-155 960.9,-155 960.9,-155 923.09,-155 923.09,-155"/>
<polygon fill="black" stroke="black" points="923.09,-151.5 913.09,-155 923.09,-158.5 923.09,-151.5"/>
</g>
<!-- DatetimeComponent  -->
<g id="node16" class="node">
<title>DatetimeComponent </title>
<polygon fill="#fb8072" stroke="black" points="1355.15,-252 1218.85,-252 1218.85,-216 1355.15,-216 1355.15,-252"/>
<text text-anchor="middle" x="1287" y="-229.8" font-family="Times,serif" font-size="14.00">DatetimeComponent </text>
</g>
<!-- FormModule&#45;&gt;DatetimeComponent  -->
<g id="edge15" class="edge">
<title>FormModule&#45;&gt;DatetimeComponent </title>
<path fill="none" stroke="black" stroke-dasharray="5,2" d="M913.15,-178C1014.58,-178 1251.73,-178 1251.73,-178 1251.73,-178 1251.73,-205.97 1251.73,-205.97"/>
<polygon fill="black" stroke="black" points="1248.23,-205.97 1251.73,-215.97 1255.23,-205.97 1248.23,-205.97"/>
</g>
<!-- FormComponent  -->
<g id="node17" class="node">
<title>FormComponent </title>
<polygon fill="#fb8072" stroke="black" points="1200.67,-252 1085.33,-252 1085.33,-216 1200.67,-216 1200.67,-252"/>
<text text-anchor="middle" x="1143" y="-229.8" font-family="Times,serif" font-size="14.00">FormComponent </text>
</g>
<!-- FormModule&#45;&gt;FormComponent  -->
<g id="edge16" class="edge">
<title>FormModule&#45;&gt;FormComponent </title>
<path fill="none" stroke="black" stroke-dasharray="5,2" d="M913.14,-181C986.58,-181 1123.81,-181 1123.81,-181 1123.81,-181 1123.81,-205.76 1123.81,-205.76"/>
<polygon fill="black" stroke="black" points="1120.31,-205.76 1123.81,-215.76 1127.31,-205.76 1120.31,-205.76"/>
</g>
<!-- IoModule  -->
<g id="node18" class="node">
<title>IoModule </title>
<polygon fill="#fb8072" stroke="black" points="1067.21,-252 992.79,-252 992.79,-216 1067.21,-216 1067.21,-252"/>
<text text-anchor="middle" x="1030" y="-229.8" font-family="Times,serif" font-size="14.00">IoModule </text>
</g>
<!-- FormModule&#45;&gt;IoModule  -->
<g id="edge17" class="edge">
<title>FormModule&#45;&gt;IoModule </title>
<path fill="none" stroke="black" stroke-dasharray="5,2" d="M912.91,-184C960.15,-184 1027.71,-184 1027.71,-184 1027.71,-184 1027.71,-205.95 1027.71,-205.95"/>
<polygon fill="black" stroke="black" points="1024.21,-205.95 1027.71,-215.95 1031.21,-205.95 1024.21,-205.95"/>
</g>
<!-- MaxItemsPipe  -->
<g id="node19" class="node">
<title>MaxItemsPipe </title>
<polygon fill="#fb8072" stroke="black" points="974.65,-252 873.35,-252 873.35,-216 974.65,-216 974.65,-252"/>
<text text-anchor="middle" x="924" y="-229.8" font-family="Times,serif" font-size="14.00">MaxItemsPipe </text>
</g>
<!-- FormModule&#45;&gt;MaxItemsPipe  -->
<g id="edge18" class="edge">
<title>FormModule&#45;&gt;MaxItemsPipe </title>
<path fill="none" stroke="black" stroke-dasharray="5,2" d="M893.18,-187.11C893.18,-187.11 893.18,-205.99 893.18,-205.99"/>
<polygon fill="black" stroke="black" points="889.68,-205.99 893.18,-215.99 896.68,-205.99 889.68,-205.99"/>
</g>
<!-- PopModule  -->
<g id="node20" class="node">
<title>PopModule </title>
<polygon fill="#fb8072" stroke="black" points="855.33,-252 770.67,-252 770.67,-216 855.33,-216 855.33,-252"/>
<text text-anchor="middle" x="813" y="-229.8" font-family="Times,serif" font-size="14.00">PopModule </text>
</g>
<!-- FormModule&#45;&gt;PopModule  -->
<g id="edge19" class="edge">
<title>FormModule&#45;&gt;PopModule </title>
<path fill="none" stroke="black" stroke-dasharray="5,2" d="M839.24,-187.11C839.24,-187.11 839.24,-205.99 839.24,-205.99"/>
<polygon fill="black" stroke="black" points="835.74,-205.99 839.24,-215.99 842.74,-205.99 835.74,-205.99"/>
</g>
<!-- ToggleComponent  -->
<g id="node21" class="node">
<title>ToggleComponent </title>
<polygon fill="#fb8072" stroke="black" points="752.49,-252 627.51,-252 627.51,-216 752.49,-216 752.49,-252"/>
<text text-anchor="middle" x="690" y="-229.8" font-family="Times,serif" font-size="14.00">ToggleComponent </text>
</g>
<!-- FormModule&#45;&gt;ToggleComponent  -->
<g id="edge20" class="edge">
<title>FormModule&#45;&gt;ToggleComponent </title>
<path fill="none" stroke="black" stroke-dasharray="5,2" d="M822.93,-184C783.18,-184 731.52,-184 731.52,-184 731.52,-184 731.52,-205.95 731.52,-205.95"/>
<polygon fill="black" stroke="black" points="728.02,-205.95 731.52,-215.95 735.02,-205.95 728.02,-205.95"/>
</g>
<!-- UtilityModule  -->
<g id="node22" class="node">
<title>UtilityModule </title>
<polygon fill="#fb8072" stroke="black" points="609.61,-252 510.39,-252 510.39,-216 609.61,-216 609.61,-252"/>
<text text-anchor="middle" x="560" y="-229.8" font-family="Times,serif" font-size="14.00">UtilityModule </text>
</g>
<!-- FormModule&#45;&gt;UtilityModule  -->
<g id="edge21" class="edge">
<title>FormModule&#45;&gt;UtilityModule </title>
<path fill="none" stroke="black" stroke-dasharray="5,2" d="M823.11,-181C740.44,-181 572.46,-181 572.46,-181 572.46,-181 572.46,-205.76 572.46,-205.76"/>
<polygon fill="black" stroke="black" points="568.96,-205.76 572.46,-215.76 575.96,-205.76 568.96,-205.76"/>
</g>
<!-- VisibleFieldsPipe  -->
<g id="node23" class="node">
<title>VisibleFieldsPipe </title>
<polygon fill="#fb8072" stroke="black" points="492.55,-252 373.45,-252 373.45,-216 492.55,-216 492.55,-252"/>
<text text-anchor="middle" x="433" y="-229.8" font-family="Times,serif" font-size="14.00">VisibleFieldsPipe </text>
</g>
<!-- FormModule&#45;&gt;VisibleFieldsPipe  -->
<g id="edge22" class="edge">
<title>FormModule&#45;&gt;VisibleFieldsPipe </title>
<path fill="none" stroke="black" stroke-dasharray="5,2" d="M823.03,-178C711.74,-178 432.44,-178 432.44,-178 432.44,-178 432.44,-205.97 432.44,-205.97"/>
<polygon fill="black" stroke="black" points="428.94,-205.97 432.44,-215.97 435.94,-205.97 428.94,-205.97"/>
</g>
<!-- CalendarModule -->
<g id="node9" class="node">
<title>CalendarModule</title>
<polygon fill="#8dd3c7" stroke="black" points="923.08,-122 920.08,-126 899.08,-126 896.08,-122 812.92,-122 812.92,-86 923.08,-86 923.08,-122"/>
<text text-anchor="middle" x="868" y="-99.8" font-family="Times,serif" font-size="14.00">CalendarModule</text>
</g>
<!-- CalendarModule&#45;&gt;FormModule -->
<g id="edge8" class="edge">
<title>CalendarModule&#45;&gt;FormModule</title>
<path fill="none" stroke="black" d="M868,-122.11C868,-122.11 868,-140.99 868,-140.99"/>
<polygon fill="black" stroke="black" points="864.5,-140.99 868,-150.99 871.5,-140.99 864.5,-140.99"/>
</g>
<!-- IconModule -->
<g id="node10" class="node">
<title>IconModule</title>
<polygon fill="#8dd3c7" stroke="black" points="795.43,-122 792.43,-126 771.43,-126 768.43,-122 710.57,-122 710.57,-86 795.43,-86 795.43,-122"/>
<text text-anchor="middle" x="753" y="-99.8" font-family="Times,serif" font-size="14.00">IconModule</text>
</g>
<!-- IconModule&#45;&gt;FormModule -->
<g id="edge9" class="edge">
<title>IconModule&#45;&gt;FormModule</title>
<path fill="none" stroke="black" d="M782.9,-122.12C782.9,-136.78 782.9,-155 782.9,-155 782.9,-155 812.96,-155 812.96,-155"/>
<polygon fill="black" stroke="black" points="812.96,-158.5 822.96,-155 812.96,-151.5 812.96,-158.5"/>
</g>
<!-- IoModule -->
<g id="node11" class="node">
<title>IoModule</title>
<polygon fill="#8dd3c7" stroke="black" points="692.71,-122 689.71,-126 668.71,-126 665.71,-122 621.29,-122 621.29,-86 692.71,-86 692.71,-122"/>
<text text-anchor="middle" x="657" y="-99.8" font-family="Times,serif" font-size="14.00">IoModule</text>
</g>
<!-- IoModule&#45;&gt;FormModule -->
<g id="edge10" class="edge">
<title>IoModule&#45;&gt;FormModule</title>
<path fill="none" stroke="black" d="M660.18,-122.28C660.18,-137.95 660.18,-158 660.18,-158 660.18,-158 812.91,-158 812.91,-158"/>
<polygon fill="black" stroke="black" points="812.91,-161.5 822.91,-158 812.91,-154.5 812.91,-161.5"/>
</g>
<!-- LoaderModule -->
<g id="node12" class="node">
<title>LoaderModule</title>
<polygon fill="#8dd3c7" stroke="black" points="603.69,-122 600.69,-126 579.69,-126 576.69,-122 504.31,-122 504.31,-86 603.69,-86 603.69,-122"/>
<text text-anchor="middle" x="554" y="-99.8" font-family="Times,serif" font-size="14.00">LoaderModule</text>
</g>
<!-- LoaderModule&#45;&gt;FormModule -->
<g id="edge11" class="edge">
<title>LoaderModule&#45;&gt;FormModule</title>
<path fill="none" stroke="black" d="M541.33,-122.04C541.33,-138.73 541.33,-161 541.33,-161 541.33,-161 812.92,-161 812.92,-161"/>
<polygon fill="black" stroke="black" points="812.92,-164.5 822.92,-161 812.92,-157.5 812.92,-164.5"/>
</g>
<!-- PopModule -->
<g id="node13" class="node">
<title>PopModule</title>
<polygon fill="#8dd3c7" stroke="black" points="486.83,-122 483.83,-126 462.83,-126 459.83,-122 405.17,-122 405.17,-86 486.83,-86 486.83,-122"/>
<text text-anchor="middle" x="446" y="-99.8" font-family="Times,serif" font-size="14.00">PopModule</text>
</g>
<!-- PopModule&#45;&gt;FormModule -->
<g id="edge12" class="edge">
<title>PopModule&#45;&gt;FormModule</title>
<path fill="none" stroke="black" d="M459.56,-122.3C459.56,-140.27 459.56,-165 459.56,-165 459.56,-165 812.73,-165 812.73,-165"/>
<polygon fill="black" stroke="black" points="812.73,-168.5 822.73,-165 812.73,-161.5 812.73,-168.5"/>
</g>
<!-- SymbolModule -->
<g id="node14" class="node">
<title>SymbolModule</title>
<polygon fill="#8dd3c7" stroke="black" points="387.61,-122 384.61,-126 363.61,-126 360.61,-122 284.39,-122 284.39,-86 387.61,-86 387.61,-122"/>
<text text-anchor="middle" x="336" y="-99.8" font-family="Times,serif" font-size="14.00">SymbolModule</text>
</g>
<!-- SymbolModule&#45;&gt;FormModule -->
<g id="edge13" class="edge">
<title>SymbolModule&#45;&gt;FormModule</title>
<path fill="none" stroke="black" d="M380.52,-122.17C380.52,-141.09 380.52,-168 380.52,-168 380.52,-168 813.01,-168 813.01,-168"/>
<polygon fill="black" stroke="black" points="813.01,-171.5 823.01,-168 813.01,-164.5 813.01,-171.5"/>
</g>
<!-- UtilityModule -->
<g id="node15" class="node">
<title>UtilityModule</title>
<polygon fill="#8dd3c7" stroke="black" points="266.11,-122 263.11,-126 242.11,-126 239.11,-122 169.89,-122 169.89,-86 266.11,-86 266.11,-122"/>
<text text-anchor="middle" x="218" y="-99.8" font-family="Times,serif" font-size="14.00">UtilityModule</text>
</g>
<!-- UtilityModule&#45;&gt;FormModule -->
<g id="edge14" class="edge">
<title>UtilityModule&#45;&gt;FormModule</title>
<path fill="none" stroke="black" d="M218,-122.31C218,-142.15 218,-171 218,-171 218,-171 813.07,-171 813.07,-171"/>
<polygon fill="black" stroke="black" points="813.07,-174.5 823.07,-171 813.07,-167.5 813.07,-174.5"/>
</g>
<!-- FormService -->
<g id="node24" class="node">
<title>FormService</title>
<ellipse fill="#fdb462" stroke="black" cx="85" cy="-104" rx="60.83" ry="18"/>
<text text-anchor="middle" x="85" y="-99.8" font-family="Times,serif" font-size="14.00">FormService</text>
</g>
<!-- FormService&#45;&gt;FormModule -->
<g id="edge23" class="edge">
<title>FormService&#45;&gt;FormModule</title>
<path fill="none" stroke="black" d="M85,-122.03C85,-142.77 85,-174 85,-174 85,-174 813.09,-174 813.09,-174"/>
<polygon fill="black" stroke="black" points="813.09,-177.5 823.09,-174 813.09,-170.5 813.09,-177.5"/>
</g>
</g>
</svg>
