<?xml version="1.0" encoding="UTF-8" standalone="no"?>
<!DOCTYPE svg PUBLIC "-//W3C//DTD SVG 1.1//EN"
 "http://www.w3.org/Graphics/SVG/1.1/DTD/svg11.dtd">
<!-- Generated by graphviz version 2.40.1 (20161225.0304)
 -->
<!-- Title: dependencies Pages: 1 -->
<svg width="1897pt" height="284pt"
 viewBox="0.00 0.00 1897.00 284.00" xmlns="http://www.w3.org/2000/svg" xmlns:xlink="http://www.w3.org/1999/xlink">
<g id="graph0" class="graph" transform="scale(1 1) rotate(0) translate(4 280)">
<title>dependencies</title>
<polygon fill="#ffffff" stroke="transparent" points="-4,4 -4,-280 1893,-280 1893,4 -4,4"/>
<text text-anchor="start" x="923.5091" y="-42.4" font-family="sans-serif" font-weight="bold" font-size="14.00" fill="#000000">Legend</text>
<polygon fill="#ffffb3" stroke="transparent" points="710.5,-10 710.5,-30 730.5,-30 730.5,-10 710.5,-10"/>
<text text-anchor="start" x="734.129" y="-15.4" font-family="sans-serif" font-size="14.00" fill="#000000"> &#160;Declarations</text>
<polygon fill="#8dd3c7" stroke="transparent" points="823.5,-10 823.5,-30 843.5,-30 843.5,-10 823.5,-10"/>
<text text-anchor="start" x="847.2251" y="-15.4" font-family="sans-serif" font-size="14.00" fill="#000000"> &#160;Module</text>
<polygon fill="#80b1d3" stroke="transparent" points="909.5,-10 909.5,-30 929.5,-30 929.5,-10 909.5,-10"/>
<text text-anchor="start" x="933.2812" y="-15.4" font-family="sans-serif" font-size="14.00" fill="#000000"> &#160;Bootstrap</text>
<polygon fill="#fdb462" stroke="transparent" points="1006.5,-10 1006.5,-30 1026.5,-30 1026.5,-10 1006.5,-10"/>
<text text-anchor="start" x="1030.1732" y="-15.4" font-family="sans-serif" font-size="14.00" fill="#000000"> &#160;Providers</text>
<polygon fill="#fb8072" stroke="transparent" points="1102.5,-10 1102.5,-30 1122.5,-30 1122.5,-10 1102.5,-10"/>
<text text-anchor="start" x="1126.2258" y="-15.4" font-family="sans-serif" font-size="14.00" fill="#000000"> &#160;Exports</text>
<g id="clust1" class="cluster">
<title>cluster_FormModule</title>
<polygon fill="none" stroke="#000000" stroke-dasharray="1,5" points="8,-70 8,-268 1881,-268 1881,-70 8,-70"/>
</g>
<g id="clust2" class="cluster">
<title>cluster_FormModule_declarations</title>
<polygon fill="none" stroke="#000000" points="576,-78 576,-130 1873,-130 1873,-78 576,-78"/>
</g>
<g id="clust12" class="cluster">
<title>cluster_FormModule_imports</title>
<polygon fill="none" stroke="#000000" points="162,-78 162,-130 568,-130 568,-78 162,-78"/>
</g>
<g id="clust13" class="cluster">
<title>cluster_FormModule_exports</title>
<polygon fill="none" stroke="#000000" points="306,-208 306,-260 1476,-260 1476,-208 306,-208"/>
</g>
<g id="clust15" class="cluster">
<title>cluster_FormModule_providers</title>
<polygon fill="none" stroke="#000000" points="16,-78 16,-130 154,-130 154,-78 16,-78"/>
</g>
<!-- FormComponent -->
<g id="node1" class="node">
<title>FormComponent</title>
<polygon fill="#ffffb3" stroke="#000000" points="1864.6667,-122 1753.3333,-122 1753.3333,-86 1864.6667,-86 1864.6667,-122"/>
<text text-anchor="middle" x="1809" y="-99.8" font-family="Times,serif" font-size="14.00" fill="#000000">FormComponent</text>
</g>
<!-- FormModule -->
<g id="node10" class="node">
<title>FormModule</title>
<polygon fill="#8dd3c7" stroke="#000000" points="895.8837,-187 892.8837,-191 871.8837,-191 868.8837,-187 806.1163,-187 806.1163,-151 895.8837,-151 895.8837,-187"/>
<text text-anchor="middle" x="851" y="-164.8" font-family="Times,serif" font-size="14.00" fill="#000000">FormModule</text>
</g>
<!-- FormComponent&#45;&gt;FormModule -->
<g id="edge1" class="edge">
<title>FormComponent&#45;&gt;FormModule</title>
<path fill="none" stroke="#000000" d="M1809,-122.308C1809,-142.1455 1809,-171 1809,-171 1809,-171 905.9214,-171 905.9214,-171"/>
<polygon fill="#000000" stroke="#000000" points="905.9214,-167.5001 895.9214,-171 905.9214,-174.5001 905.9214,-167.5001"/>
</g>
<!-- DefaultInputComponent -->
<g id="node2" class="node">
<title>DefaultInputComponent</title>
<polygon fill="#ffffb3" stroke="#000000" points="1735.3613,-122 1582.6387,-122 1582.6387,-86 1735.3613,-86 1735.3613,-122"/>
<text text-anchor="middle" x="1659" y="-99.8" font-family="Times,serif" font-size="14.00" fill="#000000">DefaultInputComponent</text>
</g>
<!-- DefaultInputComponent&#45;&gt;FormModule -->
<g id="edge2" class="edge">
<title>DefaultInputComponent&#45;&gt;FormModule</title>
<path fill="none" stroke="#000000" d="M1659,-122.1686C1659,-141.0898 1659,-168 1659,-168 1659,-168 906.1729,-168 906.1729,-168"/>
<polygon fill="#000000" stroke="#000000" points="906.173,-164.5001 896.1729,-168 906.1729,-171.5001 906.173,-164.5001"/>
</g>
<!-- DefaultOutputComponent -->
<g id="node3" class="node">
<title>DefaultOutputComponent</title>
<polygon fill="#ffffb3" stroke="#000000" points="1564.1979,-122 1401.8021,-122 1401.8021,-86 1564.1979,-86 1564.1979,-122"/>
<text text-anchor="middle" x="1483" y="-99.8" font-family="Times,serif" font-size="14.00" fill="#000000">DefaultOutputComponent</text>
</g>
<!-- DefaultOutputComponent&#45;&gt;FormModule -->
<g id="edge3" class="edge">
<title>DefaultOutputComponent&#45;&gt;FormModule</title>
<path fill="none" stroke="#000000" d="M1434.7421,-122.302C1434.7421,-140.2699 1434.7421,-165 1434.7421,-165 1434.7421,-165 906.3195,-165 906.3195,-165"/>
<polygon fill="#000000" stroke="#000000" points="906.3196,-161.5001 896.3195,-165 906.3195,-168.5001 906.3196,-161.5001"/>
</g>
<!-- DatetimeComponent -->
<g id="node4" class="node">
<title>DatetimeComponent</title>
<polygon fill="#ffffb3" stroke="#000000" points="1384.1457,-122 1251.8543,-122 1251.8543,-86 1384.1457,-86 1384.1457,-122"/>
<text text-anchor="middle" x="1318" y="-99.8" font-family="Times,serif" font-size="14.00" fill="#000000">DatetimeComponent</text>
</g>
<!-- DatetimeComponent&#45;&gt;FormModule -->
<g id="edge4" class="edge">
<title>DatetimeComponent&#45;&gt;FormModule</title>
<path fill="none" stroke="#000000" d="M1292.875,-122.0352C1292.875,-138.7344 1292.875,-161 1292.875,-161 1292.875,-161 906.2118,-161 906.2118,-161"/>
<polygon fill="#000000" stroke="#000000" points="906.2118,-157.5001 896.2118,-161 906.2118,-164.5001 906.2118,-157.5001"/>
</g>
<!-- DatetimePipe -->
<g id="node5" class="node">
<title>DatetimePipe</title>
<polygon fill="#ffffb3" stroke="#000000" points="1234.2008,-122 1141.7992,-122 1141.7992,-86 1234.2008,-86 1234.2008,-122"/>
<text text-anchor="middle" x="1188" y="-99.8" font-family="Times,serif" font-size="14.00" fill="#000000">DatetimePipe</text>
</g>
<!-- DatetimePipe&#45;&gt;FormModule -->
<g id="edge5" class="edge">
<title>DatetimePipe&#45;&gt;FormModule</title>
<path fill="none" stroke="#000000" d="M1160.875,-122.2819C1160.875,-137.9478 1160.875,-158 1160.875,-158 1160.875,-158 906.0585,-158 906.0585,-158"/>
<polygon fill="#000000" stroke="#000000" points="906.0585,-154.5001 896.0585,-158 906.0585,-161.5001 906.0585,-154.5001"/>
</g>
<!-- MonthComponent -->
<g id="node6" class="node">
<title>MonthComponent</title>
<polygon fill="#ffffb3" stroke="#000000" points="1124.1681,-122 1005.8319,-122 1005.8319,-86 1124.1681,-86 1124.1681,-122"/>
<text text-anchor="middle" x="1065" y="-99.8" font-family="Times,serif" font-size="14.00" fill="#000000">MonthComponent</text>
</g>
<!-- MonthComponent&#45;&gt;FormModule -->
<g id="edge6" class="edge">
<title>MonthComponent&#45;&gt;FormModule</title>
<path fill="none" stroke="#000000" d="M1035.6741,-122.1243C1035.6741,-136.7832 1035.6741,-155 1035.6741,-155 1035.6741,-155 906.1764,-155 906.1764,-155"/>
<polygon fill="#000000" stroke="#000000" points="906.1764,-151.5001 896.1764,-155 906.1763,-158.5001 906.1764,-151.5001"/>
</g>
<!-- CalendarComponent -->
<g id="node7" class="node">
<title>CalendarComponent</title>
<polygon fill="#ffffb3" stroke="#000000" points="987.8641,-122 856.1359,-122 856.1359,-86 987.8641,-86 987.8641,-122"/>
<text text-anchor="middle" x="922" y="-99.8" font-family="Times,serif" font-size="14.00" fill="#000000">CalendarComponent</text>
</g>
<!-- CalendarComponent&#45;&gt;FormModule -->
<g id="edge7" class="edge">
<title>CalendarComponent&#45;&gt;FormModule</title>
<path fill="none" stroke="#000000" d="M876.0049,-122.1061C876.0049,-122.1061 876.0049,-140.991 876.0049,-140.991"/>
<polygon fill="#000000" stroke="#000000" points="872.505,-140.9909 876.0049,-150.991 879.505,-140.991 872.505,-140.9909"/>
</g>
<!-- VisibleFieldsPipe -->
<g id="node8" class="node">
<title>VisibleFieldsPipe</title>
<polygon fill="#ffffb3" stroke="#000000" points="837.5493,-122 722.4507,-122 722.4507,-86 837.5493,-86 837.5493,-122"/>
<text text-anchor="middle" x="780" y="-99.8" font-family="Times,serif" font-size="14.00" fill="#000000">VisibleFieldsPipe</text>
</g>
<!-- VisibleFieldsPipe&#45;&gt;FormModule -->
<g id="edge8" class="edge">
<title>VisibleFieldsPipe&#45;&gt;FormModule</title>
<path fill="none" stroke="#000000" d="M821.9162,-122.1061C821.9162,-122.1061 821.9162,-140.991 821.9162,-140.991"/>
<polygon fill="#000000" stroke="#000000" points="818.4163,-140.9909 821.9162,-150.991 825.4163,-140.991 818.4163,-140.9909"/>
</g>
<!-- ToggleComponent -->
<g id="node9" class="node">
<title>ToggleComponent</title>
<polygon fill="#ffffb3" stroke="#000000" points="704.4902,-122 583.5098,-122 583.5098,-86 704.4902,-86 704.4902,-122"/>
<text text-anchor="middle" x="644" y="-99.8" font-family="Times,serif" font-size="14.00" fill="#000000">ToggleComponent</text>
</g>
<!-- ToggleComponent&#45;&gt;FormModule -->
<g id="edge9" class="edge">
<title>ToggleComponent&#45;&gt;FormModule</title>
<path fill="none" stroke="#000000" d="M695.5395,-122.1243C695.5395,-136.7832 695.5395,-155 695.5395,-155 695.5395,-155 796.0344,-155 796.0344,-155"/>
<polygon fill="#000000" stroke="#000000" points="796.0344,-158.5001 806.0344,-155 796.0343,-151.5001 796.0344,-158.5001"/>
</g>
<!-- FormComponent  -->
<g id="node15" class="node">
<title>FormComponent </title>
<polygon fill="#fb8072" stroke="#000000" points="1467.6663,-252 1352.3337,-252 1352.3337,-216 1467.6663,-216 1467.6663,-252"/>
<text text-anchor="middle" x="1410" y="-229.8" font-family="Times,serif" font-size="14.00" fill="#000000">FormComponent </text>
</g>
<!-- FormModule&#45;&gt;FormComponent  -->
<g id="edge14" class="edge">
<title>FormModule&#45;&gt;FormComponent </title>
<path fill="none" stroke="#000000" stroke-dasharray="5,2" d="M896.0081,-174C1021.881,-174 1368.3697,-174 1368.3697,-174 1368.3697,-174 1368.3697,-205.998 1368.3697,-205.998"/>
<polygon fill="#000000" stroke="#000000" points="1364.8698,-205.998 1368.3697,-215.998 1371.8698,-205.9981 1364.8698,-205.998"/>
</g>
<!-- DatetimeComponent  -->
<g id="node16" class="node">
<title>DatetimeComponent </title>
<polygon fill="#fb8072" stroke="#000000" points="1334.1453,-252 1197.8547,-252 1197.8547,-216 1334.1453,-216 1334.1453,-252"/>
<text text-anchor="middle" x="1266" y="-229.8" font-family="Times,serif" font-size="14.00" fill="#000000">DatetimeComponent </text>
</g>
<!-- FormModule&#45;&gt;DatetimeComponent  -->
<g id="edge15" class="edge">
<title>FormModule&#45;&gt;DatetimeComponent </title>
<path fill="none" stroke="#000000" stroke-dasharray="5,2" d="M896.124,-178C993.7837,-178 1216.0139,-178 1216.0139,-178 1216.0139,-178 1216.0139,-205.973 1216.0139,-205.973"/>
<polygon fill="#000000" stroke="#000000" points="1212.5139,-205.973 1216.0139,-215.973 1219.5139,-205.973 1212.5139,-205.973"/>
</g>
<!-- DatetimePipe  -->
<g id="node17" class="node">
<title>DatetimePipe </title>
<polygon fill="#fb8072" stroke="#000000" points="1179.7011,-252 1084.2989,-252 1084.2989,-216 1179.7011,-216 1179.7011,-252"/>
<text text-anchor="middle" x="1132" y="-229.8" font-family="Times,serif" font-size="14.00" fill="#000000">DatetimePipe </text>
</g>
<!-- FormModule&#45;&gt;DatetimePipe  -->
<g id="edge16" class="edge">
<title>FormModule&#45;&gt;DatetimePipe </title>
<path fill="none" stroke="#000000" stroke-dasharray="5,2" d="M895.9827,-181C968.7543,-181 1104.2418,-181 1104.2418,-181 1104.2418,-181 1104.2418,-205.7604 1104.2418,-205.7604"/>
<polygon fill="#000000" stroke="#000000" points="1100.7418,-205.7604 1104.2418,-215.7604 1107.7418,-205.7604 1100.7418,-205.7604"/>
</g>
<!-- CalendarComponent  -->
<g id="node18" class="node">
<title>CalendarComponent </title>
<polygon fill="#fb8072" stroke="#000000" points="1065.8645,-252 930.1355,-252 930.1355,-216 1065.8645,-216 1065.8645,-252"/>
<text text-anchor="middle" x="998" y="-229.8" font-family="Times,serif" font-size="14.00" fill="#000000">CalendarComponent </text>
</g>
<!-- FormModule&#45;&gt;CalendarComponent  -->
<g id="edge17" class="edge">
<title>FormModule&#45;&gt;CalendarComponent </title>
<path fill="none" stroke="#000000" stroke-dasharray="5,2" d="M895.9154,-184C925.6226,-184 959.125,-184 959.125,-184 959.125,-184 959.125,-205.9489 959.125,-205.9489"/>
<polygon fill="#000000" stroke="#000000" points="955.6251,-205.9488 959.125,-215.9489 962.6251,-205.9489 955.6251,-205.9488"/>
</g>
<!-- MonthComponent  -->
<g id="node19" class="node">
<title>MonthComponent </title>
<polygon fill="#fb8072" stroke="#000000" points="912.1677,-252 789.8323,-252 789.8323,-216 912.1677,-216 912.1677,-252"/>
<text text-anchor="middle" x="851" y="-229.8" font-family="Times,serif" font-size="14.00" fill="#000000">MonthComponent </text>
</g>
<!-- FormModule&#45;&gt;MonthComponent  -->
<g id="edge18" class="edge">
<title>FormModule&#45;&gt;MonthComponent </title>
<path fill="none" stroke="#000000" stroke-dasharray="5,2" d="M851,-187.1061C851,-187.1061 851,-205.991 851,-205.991"/>
<polygon fill="#000000" stroke="#000000" points="847.5001,-205.9909 851,-215.991 854.5001,-205.991 847.5001,-205.9909"/>
</g>
<!-- PopModule  -->
<g id="node20" class="node">
<title>PopModule </title>
<polygon fill="#fb8072" stroke="#000000" points="771.3326,-252 686.6674,-252 686.6674,-216 771.3326,-216 771.3326,-252"/>
<text text-anchor="middle" x="729" y="-229.8" font-family="Times,serif" font-size="14.00" fill="#000000">PopModule </text>
</g>
<!-- FormModule&#45;&gt;PopModule  -->
<g id="edge19" class="edge">
<title>FormModule&#45;&gt;PopModule </title>
<path fill="none" stroke="#000000" stroke-dasharray="5,2" d="M805.9115,-184C777.7559,-184 746.821,-184 746.821,-184 746.821,-184 746.821,-205.9489 746.821,-205.9489"/>
<polygon fill="#000000" stroke="#000000" points="743.3211,-205.9488 746.821,-215.9489 750.3211,-205.9489 743.3211,-205.9488"/>
</g>
<!-- VisibleFieldsPipe  -->
<g id="node21" class="node">
<title>VisibleFieldsPipe </title>
<polygon fill="#fb8072" stroke="#000000" points="668.5484,-252 549.4516,-252 549.4516,-216 668.5484,-216 668.5484,-252"/>
<text text-anchor="middle" x="609" y="-229.8" font-family="Times,serif" font-size="14.00" fill="#000000">VisibleFieldsPipe </text>
</g>
<!-- FormModule&#45;&gt;VisibleFieldsPipe  -->
<g id="edge20" class="edge">
<title>FormModule&#45;&gt;VisibleFieldsPipe </title>
<path fill="none" stroke="#000000" stroke-dasharray="5,2" d="M806.0116,-181C740.3551,-181 626.0146,-181 626.0146,-181 626.0146,-181 626.0146,-205.7604 626.0146,-205.7604"/>
<polygon fill="#000000" stroke="#000000" points="622.5146,-205.7604 626.0146,-215.7604 629.5146,-205.7604 622.5146,-205.7604"/>
</g>
<!-- IoModule  -->
<g id="node22" class="node">
<title>IoModule </title>
<polygon fill="#fb8072" stroke="#000000" points="531.211,-252 456.789,-252 456.789,-216 531.211,-216 531.211,-252"/>
<text text-anchor="middle" x="494" y="-229.8" font-family="Times,serif" font-size="14.00" fill="#000000">IoModule </text>
</g>
<!-- FormModule&#45;&gt;IoModule  -->
<g id="edge21" class="edge">
<title>FormModule&#45;&gt;IoModule </title>
<path fill="none" stroke="#000000" stroke-dasharray="5,2" d="M806.1011,-178C712.4399,-178 504.8445,-178 504.8445,-178 504.8445,-178 504.8445,-205.973 504.8445,-205.973"/>
<polygon fill="#000000" stroke="#000000" points="501.3446,-205.973 504.8445,-215.973 508.3446,-205.973 501.3446,-205.973"/>
</g>
<!-- ToggleComponent  -->
<g id="node23" class="node">
<title>ToggleComponent </title>
<polygon fill="#fb8072" stroke="#000000" points="438.4912,-252 313.5088,-252 313.5088,-216 438.4912,-216 438.4912,-252"/>
<text text-anchor="middle" x="376" y="-229.8" font-family="Times,serif" font-size="14.00" fill="#000000">ToggleComponent </text>
</g>
<!-- FormModule&#45;&gt;ToggleComponent  -->
<g id="edge22" class="edge">
<title>FormModule&#45;&gt;ToggleComponent </title>
<path fill="none" stroke="#000000" stroke-dasharray="5,2" d="M805.8607,-174C694.1619,-174 413.82,-174 413.82,-174 413.82,-174 413.82,-205.998 413.82,-205.998"/>
<polygon fill="#000000" stroke="#000000" points="410.32,-205.998 413.82,-215.998 417.32,-205.9981 410.32,-205.998"/>
</g>
<!-- PopModule -->
<g id="node11" class="node">
<title>PopModule</title>
<polygon fill="#8dd3c7" stroke="#000000" points="559.8331,-122 556.8331,-126 535.8331,-126 532.8331,-122 478.1669,-122 478.1669,-86 559.8331,-86 559.8331,-122"/>
<text text-anchor="middle" x="519" y="-99.8" font-family="Times,serif" font-size="14.00" fill="#000000">PopModule</text>
</g>
<!-- PopModule&#45;&gt;FormModule -->
<g id="edge10" class="edge">
<title>PopModule&#45;&gt;FormModule</title>
<path fill="none" stroke="#000000" d="M554.571,-122.2819C554.571,-137.9478 554.571,-158 554.571,-158 554.571,-158 795.9788,-158 795.9788,-158"/>
<polygon fill="#000000" stroke="#000000" points="795.9789,-161.5001 805.9788,-158 795.9788,-154.5001 795.9789,-161.5001"/>
</g>
<!-- IoModule -->
<g id="node12" class="node">
<title>IoModule</title>
<polygon fill="#8dd3c7" stroke="#000000" points="460.7107,-122 457.7107,-126 436.7107,-126 433.7107,-122 389.2893,-122 389.2893,-86 460.7107,-86 460.7107,-122"/>
<text text-anchor="middle" x="425" y="-99.8" font-family="Times,serif" font-size="14.00" fill="#000000">IoModule</text>
</g>
<!-- IoModule&#45;&gt;FormModule -->
<g id="edge11" class="edge">
<title>IoModule&#45;&gt;FormModule</title>
<path fill="none" stroke="#000000" d="M447.445,-122.0352C447.445,-138.7344 447.445,-161 447.445,-161 447.445,-161 795.8818,-161 795.8818,-161"/>
<polygon fill="#000000" stroke="#000000" points="795.8818,-164.5001 805.8818,-161 795.8817,-157.5001 795.8818,-164.5001"/>
</g>
<!-- LoaderModule -->
<g id="node13" class="node">
<title>LoaderModule</title>
<polygon fill="#8dd3c7" stroke="#000000" points="371.6924,-122 368.6924,-126 347.6924,-126 344.6924,-122 272.3076,-122 272.3076,-86 371.6924,-86 371.6924,-122"/>
<text text-anchor="middle" x="322" y="-99.8" font-family="Times,serif" font-size="14.00" fill="#000000">LoaderModule</text>
</g>
<!-- LoaderModule&#45;&gt;FormModule -->
<g id="edge12" class="edge">
<title>LoaderModule&#45;&gt;FormModule</title>
<path fill="none" stroke="#000000" d="M342.6755,-122.302C342.6755,-140.2699 342.6755,-165 342.6755,-165 342.6755,-165 795.8896,-165 795.8896,-165"/>
<polygon fill="#000000" stroke="#000000" points="795.8896,-168.5001 805.8896,-165 795.8896,-161.5001 795.8896,-168.5001"/>
</g>
<!-- IconModule -->
<g id="node14" class="node">
<title>IconModule</title>
<polygon fill="#8dd3c7" stroke="#000000" points="254.4261,-122 251.4261,-126 230.4261,-126 227.4261,-122 169.5739,-122 169.5739,-86 254.4261,-86 254.4261,-122"/>
<text text-anchor="middle" x="212" y="-99.8" font-family="Times,serif" font-size="14.00" fill="#000000">IconModule</text>
</g>
<!-- IconModule&#45;&gt;FormModule -->
<g id="edge13" class="edge">
<title>IconModule&#45;&gt;FormModule</title>
<path fill="none" stroke="#000000" d="M212,-122.1686C212,-141.0898 212,-168 212,-168 212,-168 796.0668,-168 796.0668,-168"/>
<polygon fill="#000000" stroke="#000000" points="796.0668,-171.5001 806.0668,-168 796.0667,-164.5001 796.0668,-171.5001"/>
</g>
<!-- FormService -->
<g id="node24" class="node">
<title>FormService</title>
<ellipse fill="#fdb462" stroke="#000000" cx="85" cy="-104" rx="60.8313" ry="18"/>
<text text-anchor="middle" x="85" y="-99.8" font-family="Times,serif" font-size="14.00" fill="#000000">FormService</text>
</g>
<!-- FormService&#45;&gt;FormModule -->
<g id="edge23" class="edge">
<title>FormService&#45;&gt;FormModule</title>
<path fill="none" stroke="#000000" d="M85,-122.308C85,-142.1455 85,-171 85,-171 85,-171 795.943,-171 795.943,-171"/>
<polygon fill="#000000" stroke="#000000" points="795.943,-174.5001 805.943,-171 795.9429,-167.5001 795.943,-174.5001"/>
</g>
</g>
</svg>
