<?xml version="1.0" encoding="UTF-8" standalone="no"?>
<!DOCTYPE svg PUBLIC "-//W3C//DTD SVG 1.1//EN"
 "http://www.w3.org/Graphics/SVG/1.1/DTD/svg11.dtd">
<!-- Generated by graphviz version 2.47.0 (20210316.0004)
 -->
<!-- Title: dependencies Pages: 1 -->
<svg width="504pt" height="284pt"
 viewBox="0.00 0.00 504.00 284.00" xmlns="http://www.w3.org/2000/svg" xmlns:xlink="http://www.w3.org/1999/xlink">
<g id="graph0" class="graph" transform="scale(1 1) rotate(0) translate(4 280)">
<title>dependencies</title>
<polygon fill="white" stroke="transparent" points="-4,4 -4,-280 500,-280 500,4 -4,4"/>
<text text-anchor="start" x="227.01" y="-42.4" font-family="sans-serif" font-weight="bold" font-size="14.00">Legend</text>
<polygon fill="#ffffb3" stroke="transparent" points="14,-10 14,-30 34,-30 34,-10 14,-10"/>
<text text-anchor="start" x="37.63" y="-15.4" font-family="sans-serif" font-size="14.00"> &#160;Declarations</text>
<polygon fill="#8dd3c7" stroke="transparent" points="127,-10 127,-30 147,-30 147,-10 127,-10"/>
<text text-anchor="start" x="150.73" y="-15.4" font-family="sans-serif" font-size="14.00"> &#160;Module</text>
<polygon fill="#80b1d3" stroke="transparent" points="213,-10 213,-30 233,-30 233,-10 213,-10"/>
<text text-anchor="start" x="236.78" y="-15.4" font-family="sans-serif" font-size="14.00"> &#160;Bootstrap</text>
<polygon fill="#fdb462" stroke="transparent" points="310,-10 310,-30 330,-30 330,-10 310,-10"/>
<text text-anchor="start" x="333.67" y="-15.4" font-family="sans-serif" font-size="14.00"> &#160;Providers</text>
<polygon fill="#fb8072" stroke="transparent" points="406,-10 406,-30 426,-30 426,-10 406,-10"/>
<text text-anchor="start" x="429.73" y="-15.4" font-family="sans-serif" font-size="14.00"> &#160;Exports</text>
<g id="clust1" class="cluster">
<title>cluster_IconModule</title>
<polygon fill="none" stroke="black" stroke-dasharray="1,5" points="110,-70 110,-268 386,-268 386,-70 110,-70"/>
</g>
<g id="clust2" class="cluster">
<title>cluster_IconModule_declarations</title>
<polygon fill="none" stroke="black" points="256,-78 256,-130 378,-130 378,-78 256,-78"/>
</g>
<g id="clust5" class="cluster">
<title>cluster_IconModule_exports</title>
<polygon fill="none" stroke="black" points="186,-208 186,-260 312,-260 312,-208 186,-208"/>
</g>
<g id="clust7" class="cluster">
<title>cluster_IconModule_providers</title>
<polygon fill="none" stroke="black" points="118,-78 118,-130 248,-130 248,-78 118,-78"/>
</g>
<!-- IconComponent -->
<g id="node1" class="node">
<title>IconComponent</title>
<polygon fill="#ffffb3" stroke="black" points="370.21,-122 263.79,-122 263.79,-86 370.21,-86 370.21,-122"/>
<text text-anchor="middle" x="317" y="-99.8" font-family="Times,serif" font-size="14.00">IconComponent</text>
</g>
<!-- IconModule -->
<g id="node2" class="node">
<title>IconModule</title>
<polygon fill="#8dd3c7" stroke="black" points="291.43,-187 288.43,-191 267.43,-191 264.43,-187 206.57,-187 206.57,-151 291.43,-151 291.43,-187"/>
<text text-anchor="middle" x="249" y="-164.8" font-family="Times,serif" font-size="14.00">IconModule</text>
</g>
<!-- IconComponent&#45;&gt;IconModule -->
<g id="edge1" class="edge">
<title>IconComponent&#45;&gt;IconModule</title>
<path fill="none" stroke="black" d="M277.55,-122.11C277.55,-122.11 277.55,-140.99 277.55,-140.99"/>
<polygon fill="black" stroke="black" points="274.05,-140.99 277.55,-150.99 281.05,-140.99 274.05,-140.99"/>
</g>
<!-- IconComponent  -->
<g id="node3" class="node">
<title>IconComponent </title>
<polygon fill="#fb8072" stroke="black" points="303.71,-252 194.29,-252 194.29,-216 303.71,-216 303.71,-252"/>
<text text-anchor="middle" x="249" y="-229.8" font-family="Times,serif" font-size="14.00">IconComponent </text>
</g>
<!-- IconModule&#45;&gt;IconComponent  -->
<g id="edge2" class="edge">
<title>IconModule&#45;&gt;IconComponent </title>
<path fill="none" stroke="black" stroke-dasharray="5,2" d="M249,-187.11C249,-187.11 249,-205.99 249,-205.99"/>
<polygon fill="black" stroke="black" points="245.5,-205.99 249,-215.99 252.5,-205.99 245.5,-205.99"/>
</g>
<!-- IconService -->
<g id="node4" class="node">
<title>IconService</title>
<ellipse fill="#fdb462" stroke="black" cx="183" cy="-104" rx="57.3" ry="18"/>
<text text-anchor="middle" x="183" y="-99.8" font-family="Times,serif" font-size="14.00">IconService</text>
</g>
<!-- IconService&#45;&gt;IconModule -->
<g id="edge3" class="edge">
<title>IconService&#45;&gt;IconModule</title>
<path fill="none" stroke="black" d="M223.47,-116.84C223.47,-116.84 223.47,-140.52 223.47,-140.52"/>
<polygon fill="black" stroke="black" points="219.97,-140.52 223.47,-150.52 226.97,-140.52 219.97,-140.52"/>
</g>
</g>
</svg>
