<?xml version="1.0" encoding="UTF-8" standalone="no"?>
<!DOCTYPE svg PUBLIC "-//W3C//DTD SVG 1.1//EN"
 "http://www.w3.org/Graphics/SVG/1.1/DTD/svg11.dtd">
<!-- Generated by graphviz version 2.40.1 (20161225.0304)
 -->
<!-- Title: dependencies Pages: 1 -->
<svg width="504pt" height="284pt"
 viewBox="0.00 0.00 504.00 284.00" xmlns="http://www.w3.org/2000/svg" xmlns:xlink="http://www.w3.org/1999/xlink">
<g id="graph0" class="graph" transform="scale(1 1) rotate(0) translate(4 280)">
<title>dependencies</title>
<polygon fill="#ffffff" stroke="transparent" points="-4,4 -4,-280 500,-280 500,4 -4,4"/>
<text text-anchor="start" x="227.0091" y="-42.4" font-family="sans-serif" font-weight="bold" font-size="14.00" fill="#000000">Legend</text>
<polygon fill="#ffffb3" stroke="transparent" points="14,-10 14,-30 34,-30 34,-10 14,-10"/>
<text text-anchor="start" x="37.629" y="-15.4" font-family="sans-serif" font-size="14.00" fill="#000000"> &#160;Declarations</text>
<polygon fill="#8dd3c7" stroke="transparent" points="127,-10 127,-30 147,-30 147,-10 127,-10"/>
<text text-anchor="start" x="150.7251" y="-15.4" font-family="sans-serif" font-size="14.00" fill="#000000"> &#160;Module</text>
<polygon fill="#80b1d3" stroke="transparent" points="213,-10 213,-30 233,-30 233,-10 213,-10"/>
<text text-anchor="start" x="236.7812" y="-15.4" font-family="sans-serif" font-size="14.00" fill="#000000"> &#160;Bootstrap</text>
<polygon fill="#fdb462" stroke="transparent" points="310,-10 310,-30 330,-30 330,-10 310,-10"/>
<text text-anchor="start" x="333.6732" y="-15.4" font-family="sans-serif" font-size="14.00" fill="#000000"> &#160;Providers</text>
<polygon fill="#fb8072" stroke="transparent" points="406,-10 406,-30 426,-30 426,-10 406,-10"/>
<text text-anchor="start" x="429.7258" y="-15.4" font-family="sans-serif" font-size="14.00" fill="#000000"> &#160;Exports</text>
<g id="clust1" class="cluster">
<title>cluster_IconModule</title>
<polygon fill="none" stroke="#000000" stroke-dasharray="1,5" points="110,-70 110,-268 386,-268 386,-70 110,-70"/>
</g>
<g id="clust2" class="cluster">
<title>cluster_IconModule_declarations</title>
<polygon fill="none" stroke="#000000" points="256,-78 256,-130 378,-130 378,-78 256,-78"/>
</g>
<g id="clust5" class="cluster">
<title>cluster_IconModule_exports</title>
<polygon fill="none" stroke="#000000" points="186,-208 186,-260 312,-260 312,-208 186,-208"/>
</g>
<g id="clust7" class="cluster">
<title>cluster_IconModule_providers</title>
<polygon fill="none" stroke="#000000" points="118,-78 118,-130 248,-130 248,-78 118,-78"/>
</g>
<!-- IconComponent -->
<g id="node1" class="node">
<title>IconComponent</title>
<polygon fill="#ffffb3" stroke="#000000" points="370.2078,-122 263.7922,-122 263.7922,-86 370.2078,-86 370.2078,-122"/>
<text text-anchor="middle" x="317" y="-99.8" font-family="Times,serif" font-size="14.00" fill="#000000">IconComponent</text>
</g>
<!-- IconModule -->
<g id="node2" class="node">
<title>IconModule</title>
<polygon fill="#8dd3c7" stroke="#000000" points="291.4261,-187 288.4261,-191 267.4261,-191 264.4261,-187 206.5739,-187 206.5739,-151 291.4261,-151 291.4261,-187"/>
<text text-anchor="middle" x="249" y="-164.8" font-family="Times,serif" font-size="14.00" fill="#000000">IconModule</text>
</g>
<!-- IconComponent&#45;&gt;IconModule -->
<g id="edge1" class="edge">
<title>IconComponent&#45;&gt;IconModule</title>
<path fill="none" stroke="#000000" d="M277.5544,-122.1061C277.5544,-122.1061 277.5544,-140.991 277.5544,-140.991"/>
<polygon fill="#000000" stroke="#000000" points="274.0544,-140.9909 277.5544,-150.991 281.0544,-140.991 274.0544,-140.9909"/>
</g>
<!-- IconComponent  -->
<g id="node3" class="node">
<title>IconComponent </title>
<polygon fill="#fb8072" stroke="#000000" points="303.708,-252 194.292,-252 194.292,-216 303.708,-216 303.708,-252"/>
<text text-anchor="middle" x="249" y="-229.8" font-family="Times,serif" font-size="14.00" fill="#000000">IconComponent </text>
</g>
<!-- IconModule&#45;&gt;IconComponent  -->
<g id="edge2" class="edge">
<title>IconModule&#45;&gt;IconComponent </title>
<path fill="none" stroke="#000000" stroke-dasharray="5,2" d="M249,-187.1061C249,-187.1061 249,-205.991 249,-205.991"/>
<polygon fill="#000000" stroke="#000000" points="245.5001,-205.9909 249,-215.991 252.5001,-205.991 245.5001,-205.9909"/>
</g>
<!-- IconService -->
<g id="node4" class="node">
<title>IconService</title>
<ellipse fill="#fdb462" stroke="#000000" cx="183" cy="-104" rx="57.3011" ry="18"/>
<text text-anchor="middle" x="183" y="-99.8" font-family="Times,serif" font-size="14.00" fill="#000000">IconService</text>
</g>
<!-- IconService&#45;&gt;IconModule -->
<g id="edge3" class="edge">
<title>IconService&#45;&gt;IconModule</title>
<path fill="none" stroke="#000000" d="M223.4689,-116.8419C223.4689,-116.8419 223.4689,-140.5231 223.4689,-140.5231"/>
<polygon fill="#000000" stroke="#000000" points="219.969,-140.523 223.4689,-150.5231 226.969,-140.5231 219.969,-140.523"/>
</g>
</g>
</svg>
