<?xml version="1.0" encoding="UTF-8" standalone="no"?>
<!DOCTYPE svg PUBLIC "-//W3C//DTD SVG 1.1//EN"
 "http://www.w3.org/Graphics/SVG/1.1/DTD/svg11.dtd">
<!-- Generated by graphviz version 2.40.1 (20161225.0304)
 -->
<!-- Title: dependencies Pages: 1 -->
<svg width="1673pt" height="355pt"
 viewBox="0.00 0.00 1673.00 355.00" xmlns="http://www.w3.org/2000/svg" xmlns:xlink="http://www.w3.org/1999/xlink">
<g id="graph0" class="graph" transform="scale(1 1) rotate(0) translate(4 351)">
<title>dependencies</title>
<polygon fill="#ffffff" stroke="transparent" points="-4,4 -4,-351 1669,-351 1669,4 -4,4"/>
<text text-anchor="start" x="811.5091" y="-42.4" font-family="sans-serif" font-weight="bold" font-size="14.00" fill="#000000">Legend</text>
<polygon fill="#ffffb3" stroke="transparent" points="598.5,-10 598.5,-30 618.5,-30 618.5,-10 598.5,-10"/>
<text text-anchor="start" x="622.129" y="-15.4" font-family="sans-serif" font-size="14.00" fill="#000000"> &#160;Declarations</text>
<polygon fill="#8dd3c7" stroke="transparent" points="711.5,-10 711.5,-30 731.5,-30 731.5,-10 711.5,-10"/>
<text text-anchor="start" x="735.2251" y="-15.4" font-family="sans-serif" font-size="14.00" fill="#000000"> &#160;Module</text>
<polygon fill="#80b1d3" stroke="transparent" points="797.5,-10 797.5,-30 817.5,-30 817.5,-10 797.5,-10"/>
<text text-anchor="start" x="821.2812" y="-15.4" font-family="sans-serif" font-size="14.00" fill="#000000"> &#160;Bootstrap</text>
<polygon fill="#fdb462" stroke="transparent" points="894.5,-10 894.5,-30 914.5,-30 914.5,-10 894.5,-10"/>
<text text-anchor="start" x="918.1732" y="-15.4" font-family="sans-serif" font-size="14.00" fill="#000000"> &#160;Providers</text>
<polygon fill="#fb8072" stroke="transparent" points="990.5,-10 990.5,-30 1010.5,-30 1010.5,-10 990.5,-10"/>
<text text-anchor="start" x="1014.2258" y="-15.4" font-family="sans-serif" font-size="14.00" fill="#000000"> &#160;Exports</text>
<g id="clust1" class="cluster">
<title>cluster_DataModule</title>
<polygon fill="none" stroke="#000000" stroke-dasharray="1,5" points="8,-70 8,-339 260,-339 260,-70 8,-70"/>
</g>
<g id="clust3" class="cluster">
<title>cluster_DataModule_imports</title>
<polygon fill="none" stroke="#000000" points="16,-78 16,-195 252,-195 252,-78 16,-78"/>
</g>
<g id="clust4" class="cluster">
<title>cluster_DataModule_exports</title>
<polygon fill="none" stroke="#000000" points="74,-279 74,-331 228,-331 228,-279 74,-279"/>
</g>
<g id="clust7" class="cluster">
<title>cluster_UiModule</title>
<polygon fill="none" stroke="#000000" stroke-dasharray="1,5" points="268,-203 268,-271 1657,-271 1657,-203 268,-203"/>
</g>
<g id="clust10" class="cluster">
<title>cluster_UiModule_exports</title>
<polygon fill="none" stroke="#000000" points="276,-211 276,-263 1649,-263 1649,-211 276,-211"/>
</g>
<!-- BrowserModule -->
<g id="node1" class="node">
<title>BrowserModule</title>
<polygon fill="#8dd3c7" stroke="#000000" points="130.4734,-122 127.4734,-126 106.4734,-126 103.4734,-122 23.5266,-122 23.5266,-86 130.4734,-86 130.4734,-122"/>
<text text-anchor="middle" x="77" y="-99.8" font-family="Times,serif" font-size="14.00" fill="#000000">BrowserModule</text>
</g>
<!-- UiModule -->
<g id="node3" class="node">
<title>UiModule</title>
<polygon fill="#8dd3c7" stroke="#000000" points="243.5484,-187 240.5484,-191 219.5484,-191 216.5484,-187 170.4516,-187 170.4516,-151 243.5484,-151 243.5484,-187"/>
<text text-anchor="middle" x="207" y="-164.8" font-family="Times,serif" font-size="14.00" fill="#000000">UiModule</text>
</g>
<!-- BrowserModule&#45;&gt;UiModule -->
<g id="edge5" class="edge">
<title>BrowserModule&#45;&gt;UiModule</title>
<path fill="none" stroke="#000000" d="M122.9951,-122.1061C122.9951,-141.3391 122.9951,-169 122.9951,-169 122.9951,-169 160.3986,-169 160.3986,-169"/>
<polygon fill="#000000" stroke="#000000" points="160.3986,-172.5001 170.3986,-169 160.3986,-165.5001 160.3986,-172.5001"/>
</g>
<!-- DataModule -->
<g id="node4" class="node">
<title>DataModule</title>
<polygon fill="#8dd3c7" stroke="#000000" points="193.9762,-255 190.9762,-259 169.9762,-259 166.9762,-255 108.0238,-255 108.0238,-219 193.9762,-219 193.9762,-255"/>
<text text-anchor="middle" x="151" y="-232.8" font-family="Times,serif" font-size="14.00" fill="#000000">DataModule</text>
</g>
<!-- BrowserModule&#45;&gt;DataModule -->
<g id="edge1" class="edge">
<title>BrowserModule&#45;&gt;DataModule</title>
<path fill="none" stroke="#000000" d="M115.5035,-122.2142C115.5035,-122.2142 115.5035,-208.579 115.5035,-208.579"/>
<polygon fill="#000000" stroke="#000000" points="112.0036,-208.5789 115.5035,-218.579 119.0036,-208.579 112.0036,-208.5789"/>
</g>
<!-- FormsModule -->
<g id="node2" class="node">
<title>FormsModule</title>
<polygon fill="#8dd3c7" stroke="#000000" points="243.8288,-122 240.8288,-126 219.8288,-126 216.8288,-122 148.1712,-122 148.1712,-86 243.8288,-86 243.8288,-122"/>
<text text-anchor="middle" x="196" y="-99.8" font-family="Times,serif" font-size="14.00" fill="#000000">FormsModule</text>
</g>
<!-- FormsModule&#45;&gt;UiModule -->
<g id="edge6" class="edge">
<title>FormsModule&#45;&gt;UiModule</title>
<path fill="none" stroke="#000000" d="M206.9453,-122.1061C206.9453,-122.1061 206.9453,-140.991 206.9453,-140.991"/>
<polygon fill="#000000" stroke="#000000" points="203.4454,-140.9909 206.9453,-150.991 210.4454,-140.991 203.4454,-140.9909"/>
</g>
<!-- FormsModule&#45;&gt;DataModule -->
<g id="edge2" class="edge">
<title>FormsModule&#45;&gt;DataModule</title>
<path fill="none" stroke="#000000" d="M159.2812,-122.2142C159.2812,-122.2142 159.2812,-208.579 159.2812,-208.579"/>
<polygon fill="#000000" stroke="#000000" points="155.7813,-208.5789 159.2812,-218.579 162.7813,-208.579 155.7813,-208.5789"/>
</g>
<!-- UiModule&#45;&gt;DataModule -->
<g id="edge3" class="edge">
<title>UiModule&#45;&gt;DataModule</title>
<path fill="none" stroke="#000000" d="M182.1073,-187.2228C182.1073,-187.2228 182.1073,-208.7269 182.1073,-208.7269"/>
<polygon fill="#000000" stroke="#000000" points="178.6074,-208.7269 182.1073,-218.7269 185.6074,-208.727 178.6074,-208.7269"/>
</g>
<!-- ListComponent  -->
<g id="node6" class="node">
<title>ListComponent </title>
<polygon fill="#fb8072" stroke="#000000" points="1377.1115,-255 1270.8885,-255 1270.8885,-219 1377.1115,-219 1377.1115,-255"/>
<text text-anchor="middle" x="1324" y="-232.8" font-family="Times,serif" font-size="14.00" fill="#000000">ListComponent </text>
</g>
<!-- UiModule&#45;&gt;ListComponent  -->
<g id="edge7" class="edge">
<title>UiModule&#45;&gt;ListComponent </title>
<path fill="none" stroke="#000000" stroke-dasharray="5,2" d="M243.8464,-162C437.0094,-162 1324,-162 1324,-162 1324,-162 1324,-208.8446 1324,-208.8446"/>
<polygon fill="#000000" stroke="#000000" points="1320.5001,-208.8446 1324,-218.8446 1327.5001,-208.8446 1320.5001,-208.8446"/>
</g>
<!-- PaginationComponent  -->
<g id="node7" class="node">
<title>PaginationComponent </title>
<polygon fill="#fb8072" stroke="#000000" points="1252.2163,-255 1107.7837,-255 1107.7837,-219 1252.2163,-219 1252.2163,-255"/>
<text text-anchor="middle" x="1180" y="-232.8" font-family="Times,serif" font-size="14.00" fill="#000000">PaginationComponent </text>
</g>
<!-- UiModule&#45;&gt;PaginationComponent  -->
<g id="edge8" class="edge">
<title>UiModule&#45;&gt;PaginationComponent </title>
<path fill="none" stroke="#000000" stroke-dasharray="5,2" d="M243.6602,-166C420.8457,-166 1180,-166 1180,-166 1180,-166 1180,-208.7157 1180,-208.7157"/>
<polygon fill="#000000" stroke="#000000" points="1176.5001,-208.7157 1180,-218.7157 1183.5001,-208.7158 1176.5001,-208.7157"/>
</g>
<!-- TabsComponent  -->
<g id="node8" class="node">
<title>TabsComponent </title>
<polygon fill="#fb8072" stroke="#000000" points="1090.0442,-255 977.9558,-255 977.9558,-219 1090.0442,-219 1090.0442,-255"/>
<text text-anchor="middle" x="1034" y="-232.8" font-family="Times,serif" font-size="14.00" fill="#000000">TabsComponent </text>
</g>
<!-- UiModule&#45;&gt;TabsComponent  -->
<g id="edge9" class="edge">
<title>UiModule&#45;&gt;TabsComponent </title>
<path fill="none" stroke="#000000" stroke-dasharray="5,2" d="M243.6022,-169C403.6516,-169 1034,-169 1034,-169 1034,-169 1034,-208.7772 1034,-208.7772"/>
<polygon fill="#000000" stroke="#000000" points="1030.5001,-208.7772 1034,-218.7772 1037.5001,-208.7773 1030.5001,-208.7772"/>
</g>
<!-- TabComponent  -->
<g id="node9" class="node">
<title>TabComponent </title>
<polygon fill="#fb8072" stroke="#000000" points="960.1003,-255 853.8997,-255 853.8997,-219 960.1003,-219 960.1003,-255"/>
<text text-anchor="middle" x="907" y="-232.8" font-family="Times,serif" font-size="14.00" fill="#000000">TabComponent </text>
</g>
<!-- UiModule&#45;&gt;TabComponent  -->
<g id="edge10" class="edge">
<title>UiModule&#45;&gt;TabComponent </title>
<path fill="none" stroke="#000000" stroke-dasharray="5,2" d="M243.6495,-173C387.6797,-173 907,-173 907,-173 907,-173 907,-208.8314 907,-208.8314"/>
<polygon fill="#000000" stroke="#000000" points="903.5001,-208.8313 907,-218.8314 910.5001,-208.8314 903.5001,-208.8313"/>
</g>
<!-- MockupComponent  -->
<g id="node10" class="node">
<title>MockupComponent </title>
<polygon fill="#fb8072" stroke="#000000" points="835.9925,-255 704.0075,-255 704.0075,-219 835.9925,-219 835.9925,-255"/>
<text text-anchor="middle" x="770" y="-232.8" font-family="Times,serif" font-size="14.00" fill="#000000">MockupComponent </text>
</g>
<!-- UiModule&#45;&gt;MockupComponent  -->
<g id="edge11" class="edge">
<title>UiModule&#45;&gt;MockupComponent </title>
<path fill="none" stroke="#000000" stroke-dasharray="5,2" d="M243.94,-177C369.1924,-177 770,-177 770,-177 770,-177 770,-208.998 770,-208.998"/>
<polygon fill="#000000" stroke="#000000" points="766.5001,-208.998 770,-218.998 773.5001,-208.9981 766.5001,-208.998"/>
</g>
<!-- FilterComponent  -->
<g id="node11" class="node">
<title>FilterComponent </title>
<polygon fill="#fb8072" stroke="#000000" points="686.6621,-255 571.3379,-255 571.3379,-219 686.6621,-219 686.6621,-255"/>
<text text-anchor="middle" x="629" y="-232.8" font-family="Times,serif" font-size="14.00" fill="#000000">FilterComponent </text>
</g>
<!-- UiModule&#45;&gt;FilterComponent  -->
<g id="edge12" class="edge">
<title>UiModule&#45;&gt;FilterComponent </title>
<path fill="none" stroke="#000000" stroke-dasharray="5,2" d="M243.7115,-180C346.3815,-180 629,-180 629,-180 629,-180 629,-208.9648 629,-208.9648"/>
<polygon fill="#000000" stroke="#000000" points="625.5001,-208.9648 629,-218.9648 632.5001,-208.9649 625.5001,-208.9648"/>
</g>
<!-- FieldComponent  -->
<g id="node12" class="node">
<title>FieldComponent </title>
<polygon fill="#fb8072" stroke="#000000" points="553.6115,-255 440.3885,-255 440.3885,-219 553.6115,-219 553.6115,-255"/>
<text text-anchor="middle" x="497" y="-232.8" font-family="Times,serif" font-size="14.00" fill="#000000">FieldComponent </text>
</g>
<!-- UiModule&#45;&gt;FieldComponent  -->
<g id="edge13" class="edge">
<title>UiModule&#45;&gt;FieldComponent </title>
<path fill="none" stroke="#000000" stroke-dasharray="5,2" d="M243.7287,-184C321.7636,-184 497,-184 497,-184 497,-184 497,-208.7604 497,-208.7604"/>
<polygon fill="#000000" stroke="#000000" points="493.5001,-208.7604 497,-218.7604 500.5001,-208.7604 493.5001,-208.7604"/>
</g>
<!-- ListItemsComponent  -->
<g id="node13" class="node">
<title>ListItemsComponent </title>
<polygon fill="#fb8072" stroke="#000000" points="421.7121,-255 284.2879,-255 284.2879,-219 421.7121,-219 421.7121,-255"/>
<text text-anchor="middle" x="353" y="-232.8" font-family="Times,serif" font-size="14.00" fill="#000000">ListItemsComponent </text>
</g>
<!-- UiModule&#45;&gt;ListItemsComponent  -->
<g id="edge14" class="edge">
<title>UiModule&#45;&gt;ListItemsComponent </title>
<path fill="none" stroke="#000000" stroke-dasharray="5,2" d="M231.8154,-187.2228C231.8154,-207.3652 231.8154,-237 231.8154,-237 231.8154,-237 274.2639,-237 274.2639,-237"/>
<polygon fill="#000000" stroke="#000000" points="274.2639,-240.5001 284.2639,-237 274.2639,-233.5001 274.2639,-240.5001"/>
</g>
<!-- ListHeaderComponent  -->
<g id="node14" class="node">
<title>ListHeaderComponent </title>
<polygon fill="#fb8072" stroke="#000000" points="1640.5218,-255 1493.4782,-255 1493.4782,-219 1640.5218,-219 1640.5218,-255"/>
<text text-anchor="middle" x="1567" y="-232.8" font-family="Times,serif" font-size="14.00" fill="#000000">ListHeaderComponent </text>
</g>
<!-- UiModule&#45;&gt;ListHeaderComponent  -->
<g id="edge15" class="edge">
<title>UiModule&#45;&gt;ListHeaderComponent </title>
<path fill="none" stroke="#000000" stroke-dasharray="5,2" d="M243.7286,-155C460.8531,-155 1567,-155 1567,-155 1567,-155 1567,-208.8015 1567,-208.8015"/>
<polygon fill="#000000" stroke="#000000" points="1563.5001,-208.8015 1567,-218.8015 1570.5001,-208.8016 1563.5001,-208.8015"/>
</g>
<!-- GroupPipe  -->
<g id="node15" class="node">
<title>GroupPipe </title>
<polygon fill="#fb8072" stroke="#000000" points="1475.1552,-255 1394.8448,-255 1394.8448,-219 1475.1552,-219 1475.1552,-255"/>
<text text-anchor="middle" x="1435" y="-232.8" font-family="Times,serif" font-size="14.00" fill="#000000">GroupPipe </text>
</g>
<!-- UiModule&#45;&gt;GroupPipe  -->
<g id="edge16" class="edge">
<title>UiModule&#45;&gt;GroupPipe </title>
<path fill="none" stroke="#000000" stroke-dasharray="5,2" d="M243.7516,-159C448.0758,-159 1435,-159 1435,-159 1435,-159 1435,-208.9092 1435,-208.9092"/>
<polygon fill="#000000" stroke="#000000" points="1431.5001,-208.9091 1435,-218.9092 1438.5001,-208.9092 1431.5001,-208.9091"/>
</g>
<!-- EntryListComponent  -->
<g id="node5" class="node">
<title>EntryListComponent </title>
<polygon fill="#fb8072" stroke="#000000" points="219.7149,-323 82.2851,-323 82.2851,-287 219.7149,-287 219.7149,-323"/>
<text text-anchor="middle" x="151" y="-300.8" font-family="Times,serif" font-size="14.00" fill="#000000">EntryListComponent </text>
</g>
<!-- DataModule&#45;&gt;EntryListComponent  -->
<g id="edge4" class="edge">
<title>DataModule&#45;&gt;EntryListComponent </title>
<path fill="none" stroke="#000000" stroke-dasharray="5,2" d="M151,-255.2228C151,-255.2228 151,-276.7269 151,-276.7269"/>
<polygon fill="#000000" stroke="#000000" points="147.5001,-276.7269 151,-286.7269 154.5001,-276.727 147.5001,-276.7269"/>
</g>
</g>
</svg>
