<?xml version="1.0" encoding="UTF-8" standalone="no"?>
<!DOCTYPE svg PUBLIC "-//W3C//DTD SVG 1.1//EN"
 "http://www.w3.org/Graphics/SVG/1.1/DTD/svg11.dtd">
<!-- Generated by graphviz version 2.40.1 (20161225.0304)
 -->
<!-- Title: dependencies Pages: 1 -->
<svg width="2665pt" height="355pt"
 viewBox="0.00 0.00 2665.00 355.00" xmlns="http://www.w3.org/2000/svg" xmlns:xlink="http://www.w3.org/1999/xlink">
<g id="graph0" class="graph" transform="scale(1 1) rotate(0) translate(4 351)">
<title>dependencies</title>
<polygon fill="#ffffff" stroke="transparent" points="-4,4 -4,-351 2661,-351 2661,4 -4,4"/>
<text text-anchor="start" x="1307.5091" y="-42.4" font-family="sans-serif" font-weight="bold" font-size="14.00" fill="#000000">Legend</text>
<polygon fill="#ffffb3" stroke="transparent" points="1094.5,-10 1094.5,-30 1114.5,-30 1114.5,-10 1094.5,-10"/>
<text text-anchor="start" x="1118.129" y="-15.4" font-family="sans-serif" font-size="14.00" fill="#000000"> &#160;Declarations</text>
<polygon fill="#8dd3c7" stroke="transparent" points="1207.5,-10 1207.5,-30 1227.5,-30 1227.5,-10 1207.5,-10"/>
<text text-anchor="start" x="1231.2251" y="-15.4" font-family="sans-serif" font-size="14.00" fill="#000000"> &#160;Module</text>
<polygon fill="#80b1d3" stroke="transparent" points="1293.5,-10 1293.5,-30 1313.5,-30 1313.5,-10 1293.5,-10"/>
<text text-anchor="start" x="1317.2812" y="-15.4" font-family="sans-serif" font-size="14.00" fill="#000000"> &#160;Bootstrap</text>
<polygon fill="#fdb462" stroke="transparent" points="1390.5,-10 1390.5,-30 1410.5,-30 1410.5,-10 1390.5,-10"/>
<text text-anchor="start" x="1414.1732" y="-15.4" font-family="sans-serif" font-size="14.00" fill="#000000"> &#160;Providers</text>
<polygon fill="#fb8072" stroke="transparent" points="1486.5,-10 1486.5,-30 1506.5,-30 1506.5,-10 1486.5,-10"/>
<text text-anchor="start" x="1510.2258" y="-15.4" font-family="sans-serif" font-size="14.00" fill="#000000"> &#160;Exports</text>
<g id="clust1" class="cluster">
<title>cluster_DataModule</title>
<polygon fill="none" stroke="#000000" stroke-dasharray="1,5" points="8,-70 8,-339 618,-339 618,-70 8,-70"/>
</g>
<g id="clust3" class="cluster">
<title>cluster_DataModule_imports</title>
<polygon fill="none" stroke="#000000" points="374,-78 374,-195 610,-195 610,-78 374,-78"/>
</g>
<g id="clust4" class="cluster">
<title>cluster_DataModule_exports</title>
<polygon fill="none" stroke="#000000" points="16,-279 16,-331 610,-331 610,-279 16,-279"/>
</g>
<g id="clust7" class="cluster">
<title>cluster_UiModule</title>
<polygon fill="none" stroke="#000000" stroke-dasharray="1,5" points="626,-203 626,-271 2649,-271 2649,-203 626,-203"/>
</g>
<g id="clust9" class="cluster">
<title>cluster_UiModule_imports</title>
<polygon fill="none" stroke="#000000" points="2481,-211 2481,-263 2641,-263 2641,-211 2481,-211"/>
</g>
<g id="clust10" class="cluster">
<title>cluster_UiModule_exports</title>
<polygon fill="none" stroke="#000000" points="634,-211 634,-263 2473,-263 2473,-211 634,-211"/>
</g>
<!-- BrowserModule -->
<g id="node1" class="node">
<title>BrowserModule</title>
<polygon fill="#8dd3c7" stroke="#000000" points="488.4734,-122 485.4734,-126 464.4734,-126 461.4734,-122 381.5266,-122 381.5266,-86 488.4734,-86 488.4734,-122"/>
<text text-anchor="middle" x="435" y="-99.8" font-family="Times,serif" font-size="14.00" fill="#000000">BrowserModule</text>
</g>
<!-- UiModule -->
<g id="node3" class="node">
<title>UiModule</title>
<polygon fill="#8dd3c7" stroke="#000000" points="601.5484,-187 598.5484,-191 577.5484,-191 574.5484,-187 528.4516,-187 528.4516,-151 601.5484,-151 601.5484,-187"/>
<text text-anchor="middle" x="565" y="-164.8" font-family="Times,serif" font-size="14.00" fill="#000000">UiModule</text>
</g>
<!-- BrowserModule&#45;&gt;UiModule -->
<g id="edge8" class="edge">
<title>BrowserModule&#45;&gt;UiModule</title>
<path fill="none" stroke="#000000" d="M483.2374,-122.1061C483.2374,-141.3391 483.2374,-169 483.2374,-169 483.2374,-169 518.4233,-169 518.4233,-169"/>
<polygon fill="#000000" stroke="#000000" points="518.4233,-172.5001 528.4233,-169 518.4233,-165.5001 518.4233,-172.5001"/>
</g>
<!-- DataModule -->
<g id="node4" class="node">
<title>DataModule</title>
<polygon fill="#8dd3c7" stroke="#000000" points="477.9762,-255 474.9762,-259 453.9762,-259 450.9762,-255 392.0238,-255 392.0238,-219 477.9762,-219 477.9762,-255"/>
<text text-anchor="middle" x="435" y="-232.8" font-family="Times,serif" font-size="14.00" fill="#000000">DataModule</text>
</g>
<!-- BrowserModule&#45;&gt;DataModule -->
<g id="edge1" class="edge">
<title>BrowserModule&#45;&gt;DataModule</title>
<path fill="none" stroke="#000000" d="M435,-122.2142C435,-122.2142 435,-208.579 435,-208.579"/>
<polygon fill="#000000" stroke="#000000" points="431.5001,-208.5789 435,-218.579 438.5001,-208.579 431.5001,-208.5789"/>
</g>
<!-- FormsModule -->
<g id="node2" class="node">
<title>FormsModule</title>
<polygon fill="#8dd3c7" stroke="#000000" points="601.8288,-122 598.8288,-126 577.8288,-126 574.8288,-122 506.1712,-122 506.1712,-86 601.8288,-86 601.8288,-122"/>
<text text-anchor="middle" x="554" y="-99.8" font-family="Times,serif" font-size="14.00" fill="#000000">FormsModule</text>
</g>
<!-- FormsModule&#45;&gt;UiModule -->
<g id="edge9" class="edge">
<title>FormsModule&#45;&gt;UiModule</title>
<path fill="none" stroke="#000000" d="M564.9453,-122.1061C564.9453,-122.1061 564.9453,-140.991 564.9453,-140.991"/>
<polygon fill="#000000" stroke="#000000" points="561.4454,-140.9909 564.9453,-150.991 568.4454,-140.991 561.4454,-140.9909"/>
</g>
<!-- FormsModule&#45;&gt;DataModule -->
<g id="edge2" class="edge">
<title>FormsModule&#45;&gt;DataModule</title>
<path fill="none" stroke="#000000" d="M517.2812,-122.0307C517.2812,-156.4218 517.2812,-228 517.2812,-228 517.2812,-228 488.0684,-228 488.0684,-228"/>
<polygon fill="#000000" stroke="#000000" points="488.0685,-224.5001 478.0684,-228 488.0684,-231.5001 488.0685,-224.5001"/>
</g>
<!-- UiModule&#45;&gt;DataModule -->
<g id="edge3" class="edge">
<title>UiModule&#45;&gt;DataModule</title>
<path fill="none" stroke="#000000" d="M552.7422,-187.2479C552.7422,-210.0179 552.7422,-246 552.7422,-246 552.7422,-246 488.1743,-246 488.1743,-246"/>
<polygon fill="#000000" stroke="#000000" points="488.1743,-242.5001 478.1743,-246 488.1742,-249.5001 488.1743,-242.5001"/>
</g>
<!-- ReactiveFormsModule  -->
<g id="node10" class="node">
<title>ReactiveFormsModule </title>
<polygon fill="#fb8072" stroke="#000000" points="1900.8045,-255 1753.1955,-255 1753.1955,-219 1900.8045,-219 1900.8045,-255"/>
<text text-anchor="middle" x="1827" y="-232.8" font-family="Times,serif" font-size="14.00" fill="#000000">ReactiveFormsModule </text>
</g>
<!-- UiModule&#45;&gt;ReactiveFormsModule  -->
<g id="edge11" class="edge">
<title>UiModule&#45;&gt;ReactiveFormsModule </title>
<path fill="none" stroke="#000000" stroke-dasharray="5,2" d="M601.7463,-167C809.4332,-167 1827,-167 1827,-167 1827,-167 1827,-208.9733 1827,-208.9733"/>
<polygon fill="#000000" stroke="#000000" points="1823.5001,-208.9732 1827,-218.9733 1830.5001,-208.9733 1823.5001,-208.9732"/>
</g>
<!-- ListComponent  -->
<g id="node11" class="node">
<title>ListComponent </title>
<polygon fill="#fb8072" stroke="#000000" points="1735.1115,-255 1628.8885,-255 1628.8885,-219 1735.1115,-219 1735.1115,-255"/>
<text text-anchor="middle" x="1682" y="-232.8" font-family="Times,serif" font-size="14.00" fill="#000000">ListComponent </text>
</g>
<!-- UiModule&#45;&gt;ListComponent  -->
<g id="edge12" class="edge">
<title>UiModule&#45;&gt;ListComponent </title>
<path fill="none" stroke="#000000" stroke-dasharray="5,2" d="M601.8464,-169C795.0094,-169 1682,-169 1682,-169 1682,-169 1682,-208.7772 1682,-208.7772"/>
<polygon fill="#000000" stroke="#000000" points="1678.5001,-208.7772 1682,-218.7772 1685.5001,-208.7773 1678.5001,-208.7772"/>
</g>
<!-- PaginationComponent  -->
<g id="node12" class="node">
<title>PaginationComponent </title>
<polygon fill="#fb8072" stroke="#000000" points="1610.2163,-255 1465.7837,-255 1465.7837,-219 1610.2163,-219 1610.2163,-255"/>
<text text-anchor="middle" x="1538" y="-232.8" font-family="Times,serif" font-size="14.00" fill="#000000">PaginationComponent </text>
</g>
<!-- UiModule&#45;&gt;PaginationComponent  -->
<g id="edge13" class="edge">
<title>UiModule&#45;&gt;PaginationComponent </title>
<path fill="none" stroke="#000000" stroke-dasharray="5,2" d="M601.6602,-172C778.8457,-172 1538,-172 1538,-172 1538,-172 1538,-208.8939 1538,-208.8939"/>
<polygon fill="#000000" stroke="#000000" points="1534.5001,-208.8938 1538,-218.8939 1541.5001,-208.8939 1534.5001,-208.8938"/>
</g>
<!-- TabsComponent  -->
<g id="node13" class="node">
<title>TabsComponent </title>
<polygon fill="#fb8072" stroke="#000000" points="1448.0442,-255 1335.9558,-255 1335.9558,-219 1448.0442,-219 1448.0442,-255"/>
<text text-anchor="middle" x="1392" y="-232.8" font-family="Times,serif" font-size="14.00" fill="#000000">TabsComponent </text>
</g>
<!-- UiModule&#45;&gt;TabsComponent  -->
<g id="edge14" class="edge">
<title>UiModule&#45;&gt;TabsComponent </title>
<path fill="none" stroke="#000000" stroke-dasharray="5,2" d="M601.6022,-175C761.6516,-175 1392,-175 1392,-175 1392,-175 1392,-208.7333 1392,-208.7333"/>
<polygon fill="#000000" stroke="#000000" points="1388.5001,-208.7333 1392,-218.7333 1395.5001,-208.7333 1388.5001,-208.7333"/>
</g>
<!-- TabComponent  -->
<g id="node14" class="node">
<title>TabComponent </title>
<polygon fill="#fb8072" stroke="#000000" points="1318.1003,-255 1211.8997,-255 1211.8997,-219 1318.1003,-219 1318.1003,-255"/>
<text text-anchor="middle" x="1265" y="-232.8" font-family="Times,serif" font-size="14.00" fill="#000000">TabComponent </text>
</g>
<!-- UiModule&#45;&gt;TabComponent  -->
<g id="edge15" class="edge">
<title>UiModule&#45;&gt;TabComponent </title>
<path fill="none" stroke="#000000" stroke-dasharray="5,2" d="M601.6495,-177C745.6797,-177 1265,-177 1265,-177 1265,-177 1265,-208.998 1265,-208.998"/>
<polygon fill="#000000" stroke="#000000" points="1261.5001,-208.998 1265,-218.998 1268.5001,-208.9981 1261.5001,-208.998"/>
</g>
<!-- MockupComponent  -->
<g id="node15" class="node">
<title>MockupComponent </title>
<polygon fill="#fb8072" stroke="#000000" points="1193.9925,-255 1062.0075,-255 1062.0075,-219 1193.9925,-219 1193.9925,-255"/>
<text text-anchor="middle" x="1128" y="-232.8" font-family="Times,serif" font-size="14.00" fill="#000000">MockupComponent </text>
</g>
<!-- UiModule&#45;&gt;MockupComponent  -->
<g id="edge16" class="edge">
<title>UiModule&#45;&gt;MockupComponent </title>
<path fill="none" stroke="#000000" stroke-dasharray="5,2" d="M601.94,-180C727.1924,-180 1128,-180 1128,-180 1128,-180 1128,-208.9648 1128,-208.9648"/>
<polygon fill="#000000" stroke="#000000" points="1124.5001,-208.9648 1128,-218.9648 1131.5001,-208.9649 1124.5001,-208.9648"/>
</g>
<!-- FilterComponent  -->
<g id="node16" class="node">
<title>FilterComponent </title>
<polygon fill="#fb8072" stroke="#000000" points="1044.6621,-255 929.3379,-255 929.3379,-219 1044.6621,-219 1044.6621,-255"/>
<text text-anchor="middle" x="987" y="-232.8" font-family="Times,serif" font-size="14.00" fill="#000000">FilterComponent </text>
</g>
<!-- UiModule&#45;&gt;FilterComponent  -->
<g id="edge17" class="edge">
<title>UiModule&#45;&gt;FilterComponent </title>
<path fill="none" stroke="#000000" stroke-dasharray="5,2" d="M601.7115,-182C704.3815,-182 987,-182 987,-182 987,-182 987,-208.9909 987,-208.9909"/>
<polygon fill="#000000" stroke="#000000" points="983.5001,-208.9909 987,-218.9909 990.5001,-208.991 983.5001,-208.9909"/>
</g>
<!-- FieldComponent  -->
<g id="node17" class="node">
<title>FieldComponent </title>
<polygon fill="#fb8072" stroke="#000000" points="911.6115,-255 798.3885,-255 798.3885,-219 911.6115,-219 911.6115,-255"/>
<text text-anchor="middle" x="855" y="-232.8" font-family="Times,serif" font-size="14.00" fill="#000000">FieldComponent </text>
</g>
<!-- UiModule&#45;&gt;FieldComponent  -->
<g id="edge18" class="edge">
<title>UiModule&#45;&gt;FieldComponent </title>
<path fill="none" stroke="#000000" stroke-dasharray="5,2" d="M601.7287,-185C679.7636,-185 855,-185 855,-185 855,-185 855,-208.8129 855,-208.8129"/>
<polygon fill="#000000" stroke="#000000" points="851.5001,-208.8129 855,-218.8129 858.5001,-208.813 851.5001,-208.8129"/>
</g>
<!-- ListItemsComponent  -->
<g id="node18" class="node">
<title>ListItemsComponent </title>
<polygon fill="#fb8072" stroke="#000000" points="779.7121,-255 642.2879,-255 642.2879,-219 779.7121,-219 779.7121,-255"/>
<text text-anchor="middle" x="711" y="-232.8" font-family="Times,serif" font-size="14.00" fill="#000000">ListItemsComponent </text>
</g>
<!-- UiModule&#45;&gt;ListItemsComponent  -->
<g id="edge19" class="edge">
<title>UiModule&#45;&gt;ListItemsComponent </title>
<path fill="none" stroke="#000000" stroke-dasharray="5,2" d="M577.2578,-187.2228C577.2578,-207.3652 577.2578,-237 577.2578,-237 577.2578,-237 632.1701,-237 632.1701,-237"/>
<polygon fill="#000000" stroke="#000000" points="632.1701,-240.5001 642.1701,-237 632.17,-233.5001 632.1701,-240.5001"/>
</g>
<!-- ListHeaderComponent  -->
<g id="node19" class="node">
<title>ListHeaderComponent </title>
<polygon fill="#fb8072" stroke="#000000" points="2464.5218,-255 2317.4782,-255 2317.4782,-219 2464.5218,-219 2464.5218,-255"/>
<text text-anchor="middle" x="2391" y="-232.8" font-family="Times,serif" font-size="14.00" fill="#000000">ListHeaderComponent </text>
</g>
<!-- UiModule&#45;&gt;ListHeaderComponent  -->
<g id="edge20" class="edge">
<title>UiModule&#45;&gt;ListHeaderComponent </title>
<path fill="none" stroke="#000000" stroke-dasharray="5,2" d="M601.8877,-157C860.4645,-157 2391,-157 2391,-157 2391,-157 2391,-208.8468 2391,-208.8468"/>
<polygon fill="#000000" stroke="#000000" points="2387.5001,-208.8467 2391,-218.8468 2394.5001,-208.8468 2387.5001,-208.8467"/>
</g>
<!-- GroupPipe  -->
<g id="node20" class="node">
<title>GroupPipe </title>
<polygon fill="#fb8072" stroke="#000000" points="2299.1552,-255 2218.8448,-255 2218.8448,-219 2299.1552,-219 2299.1552,-255"/>
<text text-anchor="middle" x="2259" y="-232.8" font-family="Times,serif" font-size="14.00" fill="#000000">GroupPipe </text>
</g>
<!-- UiModule&#45;&gt;GroupPipe  -->
<g id="edge21" class="edge">
<title>UiModule&#45;&gt;GroupPipe </title>
<path fill="none" stroke="#000000" stroke-dasharray="5,2" d="M601.5602,-159C848.1784,-159 2259,-159 2259,-159 2259,-159 2259,-208.9092 2259,-208.9092"/>
<polygon fill="#000000" stroke="#000000" points="2255.5001,-208.9091 2259,-218.9092 2262.5001,-208.9092 2255.5001,-208.9091"/>
</g>
<!-- FormComponent  -->
<g id="node21" class="node">
<title>FormComponent </title>
<polygon fill="#fb8072" stroke="#000000" points="2200.6663,-255 2085.3337,-255 2085.3337,-219 2200.6663,-219 2200.6663,-255"/>
<text text-anchor="middle" x="2143" y="-232.8" font-family="Times,serif" font-size="14.00" fill="#000000">FormComponent </text>
</g>
<!-- UiModule&#45;&gt;FormComponent  -->
<g id="edge22" class="edge">
<title>UiModule&#45;&gt;FormComponent </title>
<path fill="none" stroke="#000000" stroke-dasharray="5,2" d="M601.6834,-162C838.613,-162 2143,-162 2143,-162 2143,-162 2143,-208.8446 2143,-208.8446"/>
<polygon fill="#000000" stroke="#000000" points="2139.5001,-208.8446 2143,-218.8446 2146.5001,-208.8446 2139.5001,-208.8446"/>
</g>
<!-- FieldErrorsComponent  -->
<g id="node22" class="node">
<title>FieldErrorsComponent </title>
<polygon fill="#fb8072" stroke="#000000" points="2067.0904,-255 1918.9096,-255 1918.9096,-219 2067.0904,-219 2067.0904,-255"/>
<text text-anchor="middle" x="1993" y="-232.8" font-family="Times,serif" font-size="14.00" fill="#000000">FieldErrorsComponent </text>
</g>
<!-- UiModule&#45;&gt;FieldErrorsComponent  -->
<g id="edge23" class="edge">
<title>UiModule&#45;&gt;FieldErrorsComponent </title>
<path fill="none" stroke="#000000" stroke-dasharray="5,2" d="M601.7341,-164C825.2489,-164 1993,-164 1993,-164 1993,-164 1993,-208.9551 1993,-208.9551"/>
<polygon fill="#000000" stroke="#000000" points="1989.5001,-208.955 1993,-218.9551 1996.5001,-208.9551 1989.5001,-208.955"/>
</g>
<!-- EntryListComponent  -->
<g id="node5" class="node">
<title>EntryListComponent </title>
<polygon fill="#fb8072" stroke="#000000" points="601.7149,-323 464.2851,-323 464.2851,-287 601.7149,-287 601.7149,-323"/>
<text text-anchor="middle" x="533" y="-300.8" font-family="Times,serif" font-size="14.00" fill="#000000">EntryListComponent </text>
</g>
<!-- DataModule&#45;&gt;EntryListComponent  -->
<g id="edge4" class="edge">
<title>DataModule&#45;&gt;EntryListComponent </title>
<path fill="none" stroke="#000000" stroke-dasharray="5,2" d="M471.0654,-255.2228C471.0654,-255.2228 471.0654,-276.7269 471.0654,-276.7269"/>
<polygon fill="#000000" stroke="#000000" points="467.5655,-276.7269 471.0654,-286.7269 474.5655,-276.727 467.5655,-276.7269"/>
</g>
<!-- EntryComponent  -->
<g id="node6" class="node">
<title>EntryComponent </title>
<polygon fill="#fb8072" stroke="#000000" points="445.9362,-323 330.0638,-323 330.0638,-287 445.9362,-287 445.9362,-323"/>
<text text-anchor="middle" x="388" y="-300.8" font-family="Times,serif" font-size="14.00" fill="#000000">EntryComponent </text>
</g>
<!-- DataModule&#45;&gt;EntryComponent  -->
<g id="edge5" class="edge">
<title>DataModule&#45;&gt;EntryComponent </title>
<path fill="none" stroke="#000000" stroke-dasharray="5,2" d="M418.99,-255.2228C418.99,-255.2228 418.99,-276.7269 418.99,-276.7269"/>
<polygon fill="#000000" stroke="#000000" points="415.4901,-276.7269 418.99,-286.7269 422.4901,-276.727 415.4901,-276.7269"/>
</g>
<!-- EntriesComponent  -->
<g id="node7" class="node">
<title>EntriesComponent </title>
<polygon fill="#fb8072" stroke="#000000" points="312.487,-323 187.513,-323 187.513,-287 312.487,-287 312.487,-323"/>
<text text-anchor="middle" x="250" y="-300.8" font-family="Times,serif" font-size="14.00" fill="#000000">EntriesComponent </text>
</g>
<!-- DataModule&#45;&gt;EntriesComponent  -->
<g id="edge6" class="edge">
<title>DataModule&#45;&gt;EntriesComponent </title>
<path fill="none" stroke="#000000" stroke-dasharray="5,2" d="M391.6257,-243C336.9453,-243 250,-243 250,-243 250,-243 250,-276.7333 250,-276.7333"/>
<polygon fill="#000000" stroke="#000000" points="246.5001,-276.7333 250,-286.7333 253.5001,-276.7333 246.5001,-276.7333"/>
</g>
<!-- EntryFormComponent  -->
<g id="node8" class="node">
<title>EntryFormComponent </title>
<polygon fill="#fb8072" stroke="#000000" points="170.2702,-323 23.7298,-323 23.7298,-287 170.2702,-287 170.2702,-323"/>
<text text-anchor="middle" x="97" y="-300.8" font-family="Times,serif" font-size="14.00" fill="#000000">EntryFormComponent </text>
</g>
<!-- DataModule&#45;&gt;EntryFormComponent  -->
<g id="edge7" class="edge">
<title>DataModule&#45;&gt;EntryFormComponent </title>
<path fill="none" stroke="#000000" stroke-dasharray="5,2" d="M391.8488,-231C300.7282,-231 97,-231 97,-231 97,-231 97,-276.7079 97,-276.7079"/>
<polygon fill="#000000" stroke="#000000" points="93.5001,-276.7078 97,-286.7079 100.5001,-276.7079 93.5001,-276.7078"/>
</g>
<!-- ReactiveFormsModule -->
<g id="node9" class="node">
<title>ReactiveFormsModule</title>
<polygon fill="#8dd3c7" stroke="#000000" points="2633.3047,-255 2630.3047,-259 2609.3047,-259 2606.3047,-255 2488.6953,-255 2488.6953,-219 2633.3047,-219 2633.3047,-255"/>
<text text-anchor="middle" x="2561" y="-232.8" font-family="Times,serif" font-size="14.00" fill="#000000">ReactiveFormsModule</text>
</g>
<!-- ReactiveFormsModule&#45;&gt;UiModule -->
<g id="edge10" class="edge">
<title>ReactiveFormsModule&#45;&gt;UiModule</title>
<path fill="none" stroke="#000000" d="M2561,-218.9902C2561,-194.5793 2561,-154 2561,-154 2561,-154 611.7802,-154 611.7802,-154"/>
<polygon fill="#000000" stroke="#000000" points="611.7802,-150.5001 601.7802,-154 611.7801,-157.5001 611.7802,-150.5001"/>
</g>
</g>
</svg>
