<?xml version="1.0" encoding="UTF-8" standalone="no"?>
<!DOCTYPE svg PUBLIC "-//W3C//DTD SVG 1.1//EN"
 "http://www.w3.org/Graphics/SVG/1.1/DTD/svg11.dtd">
<!-- Generated by graphviz version 2.40.1 (20161225.0304)
 -->
<!-- Title: dependencies Pages: 1 -->
<svg width="4335pt" height="355pt"
 viewBox="0.00 0.00 4335.00 355.00" xmlns="http://www.w3.org/2000/svg" xmlns:xlink="http://www.w3.org/1999/xlink">
<g id="graph0" class="graph" transform="scale(1 1) rotate(0) translate(4 351)">
<title>dependencies</title>
<polygon fill="#ffffff" stroke="transparent" points="-4,4 -4,-351 4331,-351 4331,4 -4,4"/>
<text text-anchor="start" x="2142.5091" y="-42.4" font-family="sans-serif" font-weight="bold" font-size="14.00" fill="#000000">Legend</text>
<polygon fill="#ffffb3" stroke="transparent" points="1929.5,-10 1929.5,-30 1949.5,-30 1949.5,-10 1929.5,-10"/>
<text text-anchor="start" x="1953.129" y="-15.4" font-family="sans-serif" font-size="14.00" fill="#000000"> &#160;Declarations</text>
<polygon fill="#8dd3c7" stroke="transparent" points="2042.5,-10 2042.5,-30 2062.5,-30 2062.5,-10 2042.5,-10"/>
<text text-anchor="start" x="2066.2251" y="-15.4" font-family="sans-serif" font-size="14.00" fill="#000000"> &#160;Module</text>
<polygon fill="#80b1d3" stroke="transparent" points="2128.5,-10 2128.5,-30 2148.5,-30 2148.5,-10 2128.5,-10"/>
<text text-anchor="start" x="2152.2812" y="-15.4" font-family="sans-serif" font-size="14.00" fill="#000000"> &#160;Bootstrap</text>
<polygon fill="#fdb462" stroke="transparent" points="2225.5,-10 2225.5,-30 2245.5,-30 2245.5,-10 2225.5,-10"/>
<text text-anchor="start" x="2249.1732" y="-15.4" font-family="sans-serif" font-size="14.00" fill="#000000"> &#160;Providers</text>
<polygon fill="#fb8072" stroke="transparent" points="2321.5,-10 2321.5,-30 2341.5,-30 2341.5,-10 2321.5,-10"/>
<text text-anchor="start" x="2345.2258" y="-15.4" font-family="sans-serif" font-size="14.00" fill="#000000"> &#160;Exports</text>
<g id="clust1" class="cluster">
<title>cluster_AuthModule</title>
<polygon fill="none" stroke="#000000" stroke-dasharray="1,5" points="3166,-70 3166,-339 3896,-339 3896,-70 3166,-70"/>
</g>
<g id="clust3" class="cluster">
<title>cluster_AuthModule_imports</title>
<polygon fill="none" stroke="#000000" points="3174,-78 3174,-195 3735,-195 3735,-78 3174,-78"/>
</g>
<g id="clust4" class="cluster">
<title>cluster_AuthModule_exports</title>
<polygon fill="none" stroke="#000000" points="3174,-279 3174,-331 3888,-331 3888,-279 3174,-279"/>
</g>
<g id="clust7" class="cluster">
<title>cluster_DataModule</title>
<polygon fill="none" stroke="#000000" stroke-dasharray="1,5" points="8,-70 8,-271 618,-271 618,-70 8,-70"/>
</g>
<g id="clust9" class="cluster">
<title>cluster_DataModule_imports</title>
<polygon fill="none" stroke="#000000" points="491,-78 491,-130 603,-130 603,-78 491,-78"/>
</g>
<g id="clust10" class="cluster">
<title>cluster_DataModule_exports</title>
<polygon fill="none" stroke="#000000" points="16,-211 16,-263 610,-263 610,-211 16,-211"/>
</g>
<g id="clust13" class="cluster">
<title>cluster_UiModule</title>
<polygon fill="none" stroke="#000000" stroke-dasharray="1,5" points="626,-203 626,-271 3158,-271 3158,-203 626,-203"/>
</g>
<g id="clust16" class="cluster">
<title>cluster_UiModule_exports</title>
<polygon fill="none" stroke="#000000" points="634,-211 634,-263 3150,-263 3150,-211 634,-211"/>
</g>
<g id="clust19" class="cluster">
<title>cluster_VcModule</title>
<polygon fill="none" stroke="#000000" stroke-dasharray="1,5" points="3904,-143 3904,-271 4319,-271 4319,-143 3904,-143"/>
</g>
<g id="clust22" class="cluster">
<title>cluster_VcModule_exports</title>
<polygon fill="none" stroke="#000000" points="3912,-211 3912,-263 4311,-263 4311,-211 3912,-211"/>
</g>
<!-- CookieModule.forRoot() -->
<g id="node1" class="node">
<title>CookieModule.forRoot()</title>
<polygon fill="#8dd3c7" stroke="#000000" points="3727.3616,-122 3724.3616,-126 3703.3616,-126 3700.3616,-122 3570.6384,-122 3570.6384,-86 3727.3616,-86 3727.3616,-122"/>
<text text-anchor="middle" x="3649" y="-99.8" font-family="Times,serif" font-size="14.00" fill="#000000">CookieModule.forRoot()</text>
</g>
<!-- AuthModule -->
<g id="node6" class="node">
<title>AuthModule</title>
<polygon fill="#8dd3c7" stroke="#000000" points="3481.5482,-255 3478.5482,-259 3457.5482,-259 3454.5482,-255 3394.4518,-255 3394.4518,-219 3481.5482,-219 3481.5482,-255"/>
<text text-anchor="middle" x="3438" y="-232.8" font-family="Times,serif" font-size="14.00" fill="#000000">AuthModule</text>
</g>
<!-- CookieModule.forRoot()&#45;&gt;AuthModule -->
<g id="edge1" class="edge">
<title>CookieModule.forRoot()&#45;&gt;AuthModule</title>
<path fill="none" stroke="#000000" d="M3630.4232,-122.0307C3630.4232,-156.4218 3630.4232,-228 3630.4232,-228 3630.4232,-228 3491.6638,-228 3491.6638,-228"/>
<polygon fill="#000000" stroke="#000000" points="3491.6638,-224.5001 3481.6638,-228 3491.6638,-231.5001 3491.6638,-224.5001"/>
</g>
<!-- BrowserModule -->
<g id="node2" class="node">
<title>BrowserModule</title>
<polygon fill="#8dd3c7" stroke="#000000" points="3288.4734,-122 3285.4734,-126 3264.4734,-126 3261.4734,-122 3181.5266,-122 3181.5266,-86 3288.4734,-86 3288.4734,-122"/>
<text text-anchor="middle" x="3235" y="-99.8" font-family="Times,serif" font-size="14.00" fill="#000000">BrowserModule</text>
</g>
<!-- UiModule -->
<g id="node5" class="node">
<title>UiModule</title>
<polygon fill="#8dd3c7" stroke="#000000" points="3255.5484,-187 3252.5484,-191 3231.5484,-191 3228.5484,-187 3182.4516,-187 3182.4516,-151 3255.5484,-151 3255.5484,-187"/>
<text text-anchor="middle" x="3219" y="-164.8" font-family="Times,serif" font-size="14.00" fill="#000000">UiModule</text>
</g>
<!-- BrowserModule&#45;&gt;UiModule -->
<g id="edge17" class="edge">
<title>BrowserModule&#45;&gt;UiModule</title>
<path fill="none" stroke="#000000" d="M3237.3868,-122.1061C3237.3868,-122.1061 3237.3868,-140.991 3237.3868,-140.991"/>
<polygon fill="#000000" stroke="#000000" points="3233.8868,-140.9909 3237.3868,-150.991 3240.8868,-140.991 3233.8868,-140.9909"/>
</g>
<!-- BrowserModule&#45;&gt;AuthModule -->
<g id="edge2" class="edge">
<title>BrowserModule&#45;&gt;AuthModule</title>
<path fill="none" stroke="#000000" d="M3266.6779,-122.0307C3266.6779,-156.4218 3266.6779,-228 3266.6779,-228 3266.6779,-228 3384.3249,-228 3384.3249,-228"/>
<polygon fill="#000000" stroke="#000000" points="3384.325,-231.5001 3394.3249,-228 3384.3249,-224.5001 3384.325,-231.5001"/>
</g>
<!-- DataModule -->
<g id="node12" class="node">
<title>DataModule</title>
<polygon fill="#8dd3c7" stroke="#000000" points="582.9762,-187 579.9762,-191 558.9762,-191 555.9762,-187 497.0238,-187 497.0238,-151 582.9762,-151 582.9762,-187"/>
<text text-anchor="middle" x="540" y="-164.8" font-family="Times,serif" font-size="14.00" fill="#000000">DataModule</text>
</g>
<!-- BrowserModule&#45;&gt;DataModule -->
<g id="edge10" class="edge">
<title>BrowserModule&#45;&gt;DataModule</title>
<path fill="none" stroke="#000000" d="M3181.4617,-104C3066.3047,-104 2805.4181,-104 2805.4181,-104 2805.4181,-104 2805.4181,-153 2805.4181,-153 2805.4181,-153 593.2318,-153 593.2318,-153"/>
<polygon fill="#000000" stroke="#000000" points="593.2319,-149.5001 583.2318,-153 593.2318,-156.5001 593.2319,-149.5001"/>
</g>
<!-- VcModule -->
<g id="node35" class="node">
<title>VcModule</title>
<polygon fill="#8dd3c7" stroke="#000000" points="4072.8711,-187 4069.8711,-191 4048.8711,-191 4045.8711,-187 3997.1289,-187 3997.1289,-151 4072.8711,-151 4072.8711,-187"/>
<text text-anchor="middle" x="4035" y="-164.8" font-family="Times,serif" font-size="14.00" fill="#000000">VcModule</text>
</g>
<!-- BrowserModule&#45;&gt;VcModule -->
<g id="edge38" class="edge">
<title>BrowserModule&#45;&gt;VcModule</title>
<path fill="none" stroke="#000000" d="M3277.5823,-122.1061C3277.5823,-141.3391 3277.5823,-169 3277.5823,-169 3277.5823,-169 3986.9205,-169 3986.9205,-169"/>
<polygon fill="#000000" stroke="#000000" points="3986.9205,-172.5001 3996.9205,-169 3986.9204,-165.5001 3986.9205,-172.5001"/>
</g>
<!-- ReactiveFormsModule -->
<g id="node3" class="node">
<title>ReactiveFormsModule</title>
<polygon fill="#8dd3c7" stroke="#000000" points="3451.3047,-122 3448.3047,-126 3427.3047,-126 3424.3047,-122 3306.6953,-122 3306.6953,-86 3451.3047,-86 3451.3047,-122"/>
<text text-anchor="middle" x="3379" y="-99.8" font-family="Times,serif" font-size="14.00" fill="#000000">ReactiveFormsModule</text>
</g>
<!-- ReactiveFormsModule&#45;&gt;UiModule -->
<g id="edge19" class="edge">
<title>ReactiveFormsModule&#45;&gt;UiModule</title>
<path fill="none" stroke="#000000" d="M3328.6704,-122.027C3328.6704,-138.3976 3328.6704,-160 3328.6704,-160 3328.6704,-160 3265.8237,-160 3265.8237,-160"/>
<polygon fill="#000000" stroke="#000000" points="3265.8238,-156.5001 3255.8237,-160 3265.8237,-163.5001 3265.8238,-156.5001"/>
</g>
<!-- ReactiveFormsModule&#45;&gt;AuthModule -->
<g id="edge3" class="edge">
<title>ReactiveFormsModule&#45;&gt;AuthModule</title>
<path fill="none" stroke="#000000" d="M3432.177,-122.2142C3432.177,-122.2142 3432.177,-208.579 3432.177,-208.579"/>
<polygon fill="#000000" stroke="#000000" points="3428.6771,-208.5789 3432.177,-218.579 3435.6771,-208.579 3428.6771,-208.5789"/>
</g>
<!-- HttpModule -->
<g id="node4" class="node">
<title>HttpModule</title>
<polygon fill="#8dd3c7" stroke="#000000" points="3553.4387,-122 3550.4387,-126 3529.4387,-126 3526.4387,-122 3468.5613,-122 3468.5613,-86 3553.4387,-86 3553.4387,-122"/>
<text text-anchor="middle" x="3511" y="-99.8" font-family="Times,serif" font-size="14.00" fill="#000000">HttpModule</text>
</g>
<!-- HttpModule&#45;&gt;AuthModule -->
<g id="edge4" class="edge">
<title>HttpModule&#45;&gt;AuthModule</title>
<path fill="none" stroke="#000000" d="M3475.2774,-122.2142C3475.2774,-122.2142 3475.2774,-208.579 3475.2774,-208.579"/>
<polygon fill="#000000" stroke="#000000" points="3471.7774,-208.5789 3475.2774,-218.579 3478.7774,-208.579 3471.7774,-208.5789"/>
</g>
<!-- UiModule&#45;&gt;AuthModule -->
<g id="edge5" class="edge">
<title>UiModule&#45;&gt;AuthModule</title>
<path fill="none" stroke="#000000" d="M3255.985,-178C3312.3308,-178 3413.2017,-178 3413.2017,-178 3413.2017,-178 3413.2017,-208.9775 3413.2017,-208.9775"/>
<polygon fill="#000000" stroke="#000000" points="3409.7018,-208.9774 3413.2017,-218.9775 3416.7018,-208.9775 3409.7018,-208.9774"/>
</g>
<!-- UiModule&#45;&gt;DataModule -->
<g id="edge12" class="edge">
<title>UiModule&#45;&gt;DataModule</title>
<path fill="none" stroke="#000000" d="M3200.6133,-150.8408C3200.6133,-145.9567 3200.6133,-142 3200.6133,-142 3200.6133,-142 555.104,-142 555.104,-142 555.104,-142 555.104,-142.8841 555.104,-142.8841"/>
<polygon fill="#000000" stroke="#000000" points="551.6042,-140.8408 555.104,-150.8408 558.6042,-140.8409 551.6042,-140.8408"/>
</g>
<!-- ReactiveFormsModule  -->
<g id="node17" class="node">
<title>ReactiveFormsModule </title>
<polygon fill="#fb8072" stroke="#000000" points="2306.8045,-255 2159.1955,-255 2159.1955,-219 2306.8045,-219 2306.8045,-255"/>
<text text-anchor="middle" x="2233" y="-232.8" font-family="Times,serif" font-size="14.00" fill="#000000">ReactiveFormsModule </text>
</g>
<!-- UiModule&#45;&gt;ReactiveFormsModule  -->
<g id="edge20" class="edge">
<title>UiModule&#45;&gt;ReactiveFormsModule </title>
<path fill="none" stroke="#000000" stroke-dasharray="5,2" d="M3182.4433,-176C3003.9992,-176 2233,-176 2233,-176 2233,-176 2233,-208.698 2233,-208.698"/>
<polygon fill="#000000" stroke="#000000" points="2229.5001,-208.698 2233,-218.698 2236.5001,-208.698 2229.5001,-208.698"/>
</g>
<!-- ListComponent  -->
<g id="node18" class="node">
<title>ListComponent </title>
<polygon fill="#fb8072" stroke="#000000" points="2141.1115,-255 2034.8885,-255 2034.8885,-219 2141.1115,-219 2141.1115,-255"/>
<text text-anchor="middle" x="2088" y="-232.8" font-family="Times,serif" font-size="14.00" fill="#000000">ListComponent </text>
</g>
<!-- UiModule&#45;&gt;ListComponent  -->
<g id="edge21" class="edge">
<title>UiModule&#45;&gt;ListComponent </title>
<path fill="none" stroke="#000000" stroke-dasharray="5,2" d="M3182.3322,-174C2988.0773,-174 2088,-174 2088,-174 2088,-174 2088,-208.7778 2088,-208.7778"/>
<polygon fill="#000000" stroke="#000000" points="2084.5001,-208.7778 2088,-218.7778 2091.5001,-208.7778 2084.5001,-208.7778"/>
</g>
<!-- PaginationComponent  -->
<g id="node19" class="node">
<title>PaginationComponent </title>
<polygon fill="#fb8072" stroke="#000000" points="2016.2163,-255 1871.7837,-255 1871.7837,-219 2016.2163,-219 2016.2163,-255"/>
<text text-anchor="middle" x="1944" y="-232.8" font-family="Times,serif" font-size="14.00" fill="#000000">PaginationComponent </text>
</g>
<!-- UiModule&#45;&gt;PaginationComponent  -->
<g id="edge22" class="edge">
<title>UiModule&#45;&gt;PaginationComponent </title>
<path fill="none" stroke="#000000" stroke-dasharray="5,2" d="M3182.2168,-172C2973.1672,-172 1944,-172 1944,-172 1944,-172 1944,-208.8939 1944,-208.8939"/>
<polygon fill="#000000" stroke="#000000" points="1940.5001,-208.8938 1944,-218.8939 1947.5001,-208.8939 1940.5001,-208.8938"/>
</g>
<!-- TabsComponent  -->
<g id="node20" class="node">
<title>TabsComponent </title>
<polygon fill="#fb8072" stroke="#000000" points="1854.0442,-255 1741.9558,-255 1741.9558,-219 1854.0442,-219 1854.0442,-255"/>
<text text-anchor="middle" x="1798" y="-232.8" font-family="Times,serif" font-size="14.00" fill="#000000">TabsComponent </text>
</g>
<!-- UiModule&#45;&gt;TabsComponent  -->
<g id="edge23" class="edge">
<title>UiModule&#45;&gt;TabsComponent </title>
<path fill="none" stroke="#000000" stroke-dasharray="5,2" d="M3182.446,-170C2960.0268,-170 1798,-170 1798,-170 1798,-170 1798,-208.692 1798,-208.692"/>
<polygon fill="#000000" stroke="#000000" points="1794.5001,-208.6919 1798,-218.692 1801.5001,-208.692 1794.5001,-208.6919"/>
</g>
<!-- TabComponent  -->
<g id="node21" class="node">
<title>TabComponent </title>
<polygon fill="#fb8072" stroke="#000000" points="1724.1003,-255 1617.8997,-255 1617.8997,-219 1724.1003,-219 1724.1003,-255"/>
<text text-anchor="middle" x="1671" y="-232.8" font-family="Times,serif" font-size="14.00" fill="#000000">TabComponent </text>
</g>
<!-- UiModule&#45;&gt;TabComponent  -->
<g id="edge24" class="edge">
<title>UiModule&#45;&gt;TabComponent </title>
<path fill="none" stroke="#000000" stroke-dasharray="5,2" d="M3182.2614,-169C2947.8414,-169 1671,-169 1671,-169 1671,-169 1671,-208.7772 1671,-208.7772"/>
<polygon fill="#000000" stroke="#000000" points="1667.5001,-208.7772 1671,-218.7772 1674.5001,-208.7773 1667.5001,-208.7772"/>
</g>
<!-- MockupComponent  -->
<g id="node22" class="node">
<title>MockupComponent </title>
<polygon fill="#fb8072" stroke="#000000" points="1599.9925,-255 1468.0075,-255 1468.0075,-219 1599.9925,-219 1599.9925,-255"/>
<text text-anchor="middle" x="1534" y="-232.8" font-family="Times,serif" font-size="14.00" fill="#000000">MockupComponent </text>
</g>
<!-- UiModule&#45;&gt;MockupComponent  -->
<g id="edge25" class="edge">
<title>UiModule&#45;&gt;MockupComponent </title>
<path fill="none" stroke="#000000" stroke-dasharray="5,2" d="M3182.2393,-167C2935.8248,-167 1534,-167 1534,-167 1534,-167 1534,-208.9733 1534,-208.9733"/>
<polygon fill="#000000" stroke="#000000" points="1530.5001,-208.9732 1534,-218.9733 1537.5001,-208.9733 1530.5001,-208.9732"/>
</g>
<!-- FilterComponent  -->
<g id="node23" class="node">
<title>FilterComponent </title>
<polygon fill="#fb8072" stroke="#000000" points="1450.6621,-255 1335.3379,-255 1335.3379,-219 1450.6621,-219 1450.6621,-255"/>
<text text-anchor="middle" x="1393" y="-232.8" font-family="Times,serif" font-size="14.00" fill="#000000">FilterComponent </text>
</g>
<!-- UiModule&#45;&gt;FilterComponent  -->
<g id="edge26" class="edge">
<title>UiModule&#45;&gt;FilterComponent </title>
<path fill="none" stroke="#000000" stroke-dasharray="5,2" d="M3182.1123,-165C2923.5355,-165 1393,-165 1393,-165 1393,-165 1393,-208.8314 1393,-208.8314"/>
<polygon fill="#000000" stroke="#000000" points="1389.5001,-208.8313 1393,-218.8314 1396.5001,-208.8314 1389.5001,-208.8313"/>
</g>
<!-- InputComponent  -->
<g id="node24" class="node">
<title>InputComponent </title>
<polygon fill="#fb8072" stroke="#000000" points="1317.3842,-255 1202.6158,-255 1202.6158,-219 1317.3842,-219 1317.3842,-255"/>
<text text-anchor="middle" x="1260" y="-232.8" font-family="Times,serif" font-size="14.00" fill="#000000">InputComponent </text>
</g>
<!-- UiModule&#45;&gt;InputComponent  -->
<g id="edge27" class="edge">
<title>UiModule&#45;&gt;InputComponent </title>
<path fill="none" stroke="#000000" stroke-dasharray="5,2" d="M3182.0467,-163C2912.5405,-163 1260,-163 1260,-163 1260,-163 1260,-208.7079 1260,-208.7079"/>
<polygon fill="#000000" stroke="#000000" points="1256.5001,-208.7078 1260,-218.7079 1263.5001,-208.7079 1256.5001,-208.7078"/>
</g>
<!-- OutputComponent  -->
<g id="node25" class="node">
<title>OutputComponent </title>
<polygon fill="#fb8072" stroke="#000000" points="1184.7205,-255 1061.2795,-255 1061.2795,-219 1184.7205,-219 1184.7205,-255"/>
<text text-anchor="middle" x="1123" y="-232.8" font-family="Times,serif" font-size="14.00" fill="#000000">OutputComponent </text>
</g>
<!-- UiModule&#45;&gt;OutputComponent  -->
<g id="edge28" class="edge">
<title>UiModule&#45;&gt;OutputComponent </title>
<path fill="none" stroke="#000000" stroke-dasharray="5,2" d="M3182.1765,-161C2902.4065,-161 1123,-161 1123,-161 1123,-161 1123,-208.9891 1123,-208.9891"/>
<polygon fill="#000000" stroke="#000000" points="1119.5001,-208.989 1123,-218.9891 1126.5001,-208.9891 1119.5001,-208.989"/>
</g>
<!-- ListItemsComponent  -->
<g id="node26" class="node">
<title>ListItemsComponent </title>
<polygon fill="#fb8072" stroke="#000000" points="1042.7121,-255 905.2879,-255 905.2879,-219 1042.7121,-219 1042.7121,-255"/>
<text text-anchor="middle" x="974" y="-232.8" font-family="Times,serif" font-size="14.00" fill="#000000">ListItemsComponent </text>
</g>
<!-- UiModule&#45;&gt;ListItemsComponent  -->
<g id="edge29" class="edge">
<title>UiModule&#45;&gt;ListItemsComponent </title>
<path fill="none" stroke="#000000" stroke-dasharray="5,2" d="M3182.3684,-159C2892.04,-159 974,-159 974,-159 974,-159 974,-208.9092 974,-208.9092"/>
<polygon fill="#000000" stroke="#000000" points="970.5001,-208.9091 974,-218.9092 977.5001,-208.9092 970.5001,-208.9091"/>
</g>
<!-- ListHeaderComponent  -->
<g id="node27" class="node">
<title>ListHeaderComponent </title>
<polygon fill="#fb8072" stroke="#000000" points="887.5218,-255 740.4782,-255 740.4782,-219 887.5218,-219 887.5218,-255"/>
<text text-anchor="middle" x="814" y="-232.8" font-family="Times,serif" font-size="14.00" fill="#000000">ListHeaderComponent </text>
</g>
<!-- UiModule&#45;&gt;ListHeaderComponent  -->
<g id="edge30" class="edge">
<title>UiModule&#45;&gt;ListHeaderComponent </title>
<path fill="none" stroke="#000000" stroke-dasharray="5,2" d="M3182.1856,-157C2879.6065,-157 814,-157 814,-157 814,-157 814,-208.8468 814,-208.8468"/>
<polygon fill="#000000" stroke="#000000" points="810.5001,-208.8467 814,-218.8468 817.5001,-208.8468 810.5001,-208.8467"/>
</g>
<!-- GroupPipe  -->
<g id="node28" class="node">
<title>GroupPipe </title>
<polygon fill="#fb8072" stroke="#000000" points="722.1552,-255 641.8448,-255 641.8448,-219 722.1552,-219 722.1552,-255"/>
<text text-anchor="middle" x="682" y="-232.8" font-family="Times,serif" font-size="14.00" fill="#000000">GroupPipe </text>
</g>
<!-- UiModule&#45;&gt;GroupPipe  -->
<g id="edge31" class="edge">
<title>UiModule&#45;&gt;GroupPipe </title>
<path fill="none" stroke="#000000" stroke-dasharray="5,2" d="M3182.1582,-155C2870.1727,-155 682,-155 682,-155 682,-155 682,-208.8015 682,-208.8015"/>
<polygon fill="#000000" stroke="#000000" points="678.5001,-208.8015 682,-218.8015 685.5001,-208.8016 678.5001,-208.8015"/>
</g>
<!-- FormComponent  -->
<g id="node29" class="node">
<title>FormComponent </title>
<polygon fill="#fb8072" stroke="#000000" points="3141.6663,-255 3026.3337,-255 3026.3337,-219 3141.6663,-219 3141.6663,-255"/>
<text text-anchor="middle" x="3084" y="-232.8" font-family="Times,serif" font-size="14.00" fill="#000000">FormComponent </text>
</g>
<!-- UiModule&#45;&gt;FormComponent  -->
<g id="edge32" class="edge">
<title>UiModule&#45;&gt;FormComponent </title>
<path fill="none" stroke="#000000" stroke-dasharray="5,2" d="M3219.0959,-187.2479C3219.0959,-210.0179 3219.0959,-246 3219.0959,-246 3219.0959,-246 3151.6847,-246 3151.6847,-246"/>
<polygon fill="#000000" stroke="#000000" points="3151.6847,-242.5001 3141.6847,-246 3151.6847,-249.5001 3151.6847,-242.5001"/>
</g>
<!-- PopComponent  -->
<g id="node30" class="node">
<title>PopComponent </title>
<polygon fill="#fb8072" stroke="#000000" points="3008.1157,-255 2901.8843,-255 2901.8843,-219 3008.1157,-219 3008.1157,-255"/>
<text text-anchor="middle" x="2955" y="-232.8" font-family="Times,serif" font-size="14.00" fill="#000000">PopComponent </text>
</g>
<!-- UiModule&#45;&gt;PopComponent  -->
<g id="edge33" class="edge">
<title>UiModule&#45;&gt;PopComponent </title>
<path fill="none" stroke="#000000" stroke-dasharray="5,2" d="M3182.2919,-186C3109.752,-186 2955,-186 2955,-186 2955,-186 2955,-208.8757 2955,-208.8757"/>
<polygon fill="#000000" stroke="#000000" points="2951.5001,-208.8757 2955,-218.8757 2958.5001,-208.8757 2951.5001,-208.8757"/>
</g>
<!-- MenuComponent  -->
<g id="node31" class="node">
<title>MenuComponent </title>
<polygon fill="#fb8072" stroke="#000000" points="2883.9926,-255 2766.0074,-255 2766.0074,-219 2883.9926,-219 2883.9926,-255"/>
<text text-anchor="middle" x="2825" y="-232.8" font-family="Times,serif" font-size="14.00" fill="#000000">MenuComponent </text>
</g>
<!-- UiModule&#45;&gt;MenuComponent  -->
<g id="edge34" class="edge">
<title>UiModule&#45;&gt;MenuComponent </title>
<path fill="none" stroke="#000000" stroke-dasharray="5,2" d="M3182.4175,-184C3088.2042,-184 2844.5819,-184 2844.5819,-184 2844.5819,-184 2844.5819,-208.7604 2844.5819,-208.7604"/>
<polygon fill="#000000" stroke="#000000" points="2841.082,-208.7604 2844.5819,-218.7604 2848.082,-208.7604 2841.082,-208.7604"/>
</g>
<!-- SelectComponent  -->
<g id="node32" class="node">
<title>SelectComponent </title>
<polygon fill="#fb8072" stroke="#000000" points="2748.54,-255 2629.46,-255 2629.46,-219 2748.54,-219 2748.54,-255"/>
<text text-anchor="middle" x="2689" y="-232.8" font-family="Times,serif" font-size="14.00" fill="#000000">SelectComponent </text>
</g>
<!-- UiModule&#45;&gt;SelectComponent  -->
<g id="edge35" class="edge">
<title>UiModule&#45;&gt;SelectComponent </title>
<path fill="none" stroke="#000000" stroke-dasharray="5,2" d="M3182.1522,-182C3061.96,-182 2689,-182 2689,-182 2689,-182 2689,-208.9909 2689,-208.9909"/>
<polygon fill="#000000" stroke="#000000" points="2685.5001,-208.9909 2689,-218.9909 2692.5001,-208.991 2685.5001,-208.9909"/>
</g>
<!-- LoginComponent  -->
<g id="node33" class="node">
<title>LoginComponent </title>
<polygon fill="#fb8072" stroke="#000000" points="2611.2759,-255 2492.7241,-255 2492.7241,-219 2611.2759,-219 2611.2759,-255"/>
<text text-anchor="middle" x="2552" y="-232.8" font-family="Times,serif" font-size="14.00" fill="#000000">LoginComponent </text>
</g>
<!-- UiModule&#45;&gt;LoginComponent  -->
<g id="edge36" class="edge">
<title>UiModule&#45;&gt;LoginComponent </title>
<path fill="none" stroke="#000000" stroke-dasharray="5,2" d="M3182.1891,-180C3042.3599,-180 2552,-180 2552,-180 2552,-180 2552,-208.9648 2552,-208.9648"/>
<polygon fill="#000000" stroke="#000000" points="2548.5001,-208.9648 2552,-218.9648 2555.5001,-208.9649 2548.5001,-208.9648"/>
</g>
<!-- InputErrorsComponent  -->
<g id="node34" class="node">
<title>InputErrorsComponent </title>
<polygon fill="#fb8072" stroke="#000000" points="2474.863,-255 2325.137,-255 2325.137,-219 2474.863,-219 2474.863,-255"/>
<text text-anchor="middle" x="2400" y="-232.8" font-family="Times,serif" font-size="14.00" fill="#000000">InputErrorsComponent </text>
</g>
<!-- UiModule&#45;&gt;InputErrorsComponent  -->
<g id="edge37" class="edge">
<title>UiModule&#45;&gt;InputErrorsComponent </title>
<path fill="none" stroke="#000000" stroke-dasharray="5,2" d="M3182.2182,-178C3022.8549,-178 2400,-178 2400,-178 2400,-178 2400,-208.9775 2400,-208.9775"/>
<polygon fill="#000000" stroke="#000000" points="2396.5001,-208.9774 2400,-218.9775 2403.5001,-208.9775 2396.5001,-208.9774"/>
</g>
<!-- ValidationOnBlurDirective  -->
<g id="node7" class="node">
<title>ValidationOnBlurDirective </title>
<polygon fill="#fb8072" stroke="#000000" points="3880.1757,-323 3707.8243,-323 3707.8243,-287 3880.1757,-287 3880.1757,-323"/>
<text text-anchor="middle" x="3794" y="-300.8" font-family="Times,serif" font-size="14.00" fill="#000000">ValidationOnBlurDirective </text>
</g>
<!-- AuthModule&#45;&gt;ValidationOnBlurDirective  -->
<g id="edge6" class="edge">
<title>AuthModule&#45;&gt;ValidationOnBlurDirective </title>
<path fill="none" stroke="#000000" stroke-dasharray="5,2" d="M3481.6596,-237C3560.2469,-237 3717.4215,-237 3717.4215,-237 3717.4215,-237 3717.4215,-276.7772 3717.4215,-276.7772"/>
<polygon fill="#000000" stroke="#000000" points="3713.9215,-276.7772 3717.4215,-286.7772 3720.9215,-276.7773 3713.9215,-276.7772"/>
</g>
<!-- PublicLoginComponent  -->
<g id="node8" class="node">
<title>PublicLoginComponent </title>
<polygon fill="#fb8072" stroke="#000000" points="3690.054,-323 3535.946,-323 3535.946,-287 3690.054,-287 3690.054,-323"/>
<text text-anchor="middle" x="3613" y="-300.8" font-family="Times,serif" font-size="14.00" fill="#000000">PublicLoginComponent </text>
</g>
<!-- AuthModule&#45;&gt;PublicLoginComponent  -->
<g id="edge7" class="edge">
<title>AuthModule&#45;&gt;PublicLoginComponent </title>
<path fill="none" stroke="#000000" stroke-dasharray="5,2" d="M3481.6642,-246C3511.1021,-246 3544.5959,-246 3544.5959,-246 3544.5959,-246 3544.5959,-276.9775 3544.5959,-276.9775"/>
<polygon fill="#000000" stroke="#000000" points="3541.096,-276.9774 3544.5959,-286.9775 3548.096,-276.9775 3541.096,-276.9774"/>
</g>
<!-- PublicSignupComponent  -->
<g id="node9" class="node">
<title>PublicSignupComponent </title>
<polygon fill="#fb8072" stroke="#000000" points="3518.2843,-323 3357.7157,-323 3357.7157,-287 3518.2843,-287 3518.2843,-323"/>
<text text-anchor="middle" x="3438" y="-300.8" font-family="Times,serif" font-size="14.00" fill="#000000">PublicSignupComponent </text>
</g>
<!-- AuthModule&#45;&gt;PublicSignupComponent  -->
<g id="edge8" class="edge">
<title>AuthModule&#45;&gt;PublicSignupComponent </title>
<path fill="none" stroke="#000000" stroke-dasharray="5,2" d="M3438,-255.2228C3438,-255.2228 3438,-276.7269 3438,-276.7269"/>
<polygon fill="#000000" stroke="#000000" points="3434.5001,-276.7269 3438,-286.7269 3441.5001,-276.727 3434.5001,-276.7269"/>
</g>
<!-- AdminLoginComponent  -->
<g id="node10" class="node">
<title>AdminLoginComponent </title>
<polygon fill="#fb8072" stroke="#000000" points="3339.6635,-323 3182.3365,-323 3182.3365,-287 3339.6635,-287 3339.6635,-323"/>
<text text-anchor="middle" x="3261" y="-300.8" font-family="Times,serif" font-size="14.00" fill="#000000">AdminLoginComponent </text>
</g>
<!-- AuthModule&#45;&gt;AdminLoginComponent  -->
<g id="edge9" class="edge">
<title>AuthModule&#45;&gt;AdminLoginComponent </title>
<path fill="none" stroke="#000000" stroke-dasharray="5,2" d="M3394.2501,-237C3359.8703,-237 3317.7591,-237 3317.7591,-237 3317.7591,-237 3317.7591,-276.7772 3317.7591,-276.7772"/>
<polygon fill="#000000" stroke="#000000" points="3314.2592,-276.7772 3317.7591,-286.7772 3321.2592,-276.7773 3314.2592,-276.7772"/>
</g>
<!-- FormsModule -->
<g id="node11" class="node">
<title>FormsModule</title>
<polygon fill="#8dd3c7" stroke="#000000" points="594.8288,-122 591.8288,-126 570.8288,-126 567.8288,-122 499.1712,-122 499.1712,-86 594.8288,-86 594.8288,-122"/>
<text text-anchor="middle" x="547" y="-99.8" font-family="Times,serif" font-size="14.00" fill="#000000">FormsModule</text>
</g>
<!-- FormsModule&#45;&gt;UiModule -->
<g id="edge18" class="edge">
<title>FormsModule&#45;&gt;UiModule</title>
<path fill="none" stroke="#000000" d="M588.8261,-122.207C588.8261,-127.5549 588.8261,-132 588.8261,-132 588.8261,-132 3219,-132 3219,-132 3219,-132 3219,-140.9336 3219,-140.9336"/>
<polygon fill="#000000" stroke="#000000" points="3215.5001,-140.9335 3219,-150.9336 3222.5001,-140.9336 3215.5001,-140.9335"/>
</g>
<!-- FormsModule&#45;&gt;DataModule -->
<g id="edge11" class="edge">
<title>FormsModule&#45;&gt;DataModule</title>
<path fill="none" stroke="#000000" d="M527.22,-122.1061C527.22,-122.1061 527.22,-140.991 527.22,-140.991"/>
<polygon fill="#000000" stroke="#000000" points="523.7201,-140.9909 527.22,-150.991 530.7201,-140.991 523.7201,-140.9909"/>
</g>
<!-- EntryListComponent  -->
<g id="node13" class="node">
<title>EntryListComponent </title>
<polygon fill="#fb8072" stroke="#000000" points="295.7149,-255 158.2851,-255 158.2851,-219 295.7149,-219 295.7149,-255"/>
<text text-anchor="middle" x="227" y="-232.8" font-family="Times,serif" font-size="14.00" fill="#000000">EntryListComponent </text>
</g>
<!-- DataModule&#45;&gt;EntryListComponent  -->
<g id="edge13" class="edge">
<title>DataModule&#45;&gt;EntryListComponent </title>
<path fill="none" stroke="#000000" stroke-dasharray="5,2" d="M496.8073,-169C410.9432,-169 227,-169 227,-169 227,-169 227,-208.7772 227,-208.7772"/>
<polygon fill="#000000" stroke="#000000" points="223.5001,-208.7772 227,-218.7772 230.5001,-208.7773 223.5001,-208.7772"/>
</g>
<!-- EntryComponent  -->
<g id="node14" class="node">
<title>EntryComponent </title>
<polygon fill="#fb8072" stroke="#000000" points="139.9362,-255 24.0638,-255 24.0638,-219 139.9362,-219 139.9362,-255"/>
<text text-anchor="middle" x="82" y="-232.8" font-family="Times,serif" font-size="14.00" fill="#000000">EntryComponent </text>
</g>
<!-- DataModule&#45;&gt;EntryComponent  -->
<g id="edge14" class="edge">
<title>DataModule&#45;&gt;EntryComponent </title>
<path fill="none" stroke="#000000" stroke-dasharray="5,2" d="M496.9125,-160C382.8997,-160 82,-160 82,-160 82,-160 82,-208.7521 82,-208.7521"/>
<polygon fill="#000000" stroke="#000000" points="78.5001,-208.752 82,-218.7521 85.5001,-208.7521 78.5001,-208.752"/>
</g>
<!-- EntriesComponent  -->
<g id="node15" class="node">
<title>EntriesComponent </title>
<polygon fill="#fb8072" stroke="#000000" points="602.487,-255 477.513,-255 477.513,-219 602.487,-219 602.487,-255"/>
<text text-anchor="middle" x="540" y="-232.8" font-family="Times,serif" font-size="14.00" fill="#000000">EntriesComponent </text>
</g>
<!-- DataModule&#45;&gt;EntriesComponent  -->
<g id="edge15" class="edge">
<title>DataModule&#45;&gt;EntriesComponent </title>
<path fill="none" stroke="#000000" stroke-dasharray="5,2" d="M540,-187.2228C540,-187.2228 540,-208.7269 540,-208.7269"/>
<polygon fill="#000000" stroke="#000000" points="536.5001,-208.7269 540,-218.7269 543.5001,-208.727 536.5001,-208.7269"/>
</g>
<!-- EntryFormComponent  -->
<g id="node16" class="node">
<title>EntryFormComponent </title>
<polygon fill="#fb8072" stroke="#000000" points="460.2702,-255 313.7298,-255 313.7298,-219 460.2702,-219 460.2702,-255"/>
<text text-anchor="middle" x="387" y="-232.8" font-family="Times,serif" font-size="14.00" fill="#000000">EntryFormComponent </text>
</g>
<!-- DataModule&#45;&gt;EntryFormComponent  -->
<g id="edge16" class="edge">
<title>DataModule&#45;&gt;EntryFormComponent </title>
<path fill="none" stroke="#000000" stroke-dasharray="5,2" d="M496.9738,-178C451.7202,-178 387,-178 387,-178 387,-178 387,-208.9775 387,-208.9775"/>
<polygon fill="#000000" stroke="#000000" points="383.5001,-208.9774 387,-218.9775 390.5001,-208.9775 383.5001,-208.9774"/>
</g>
<!-- EditorComponent  -->
<g id="node36" class="node">
<title>EditorComponent </title>
<polygon fill="#fb8072" stroke="#000000" points="4302.8269,-255 4183.1731,-255 4183.1731,-219 4302.8269,-219 4302.8269,-255"/>
<text text-anchor="middle" x="4243" y="-232.8" font-family="Times,serif" font-size="14.00" fill="#000000">EditorComponent </text>
</g>
<!-- VcModule&#45;&gt;EditorComponent  -->
<g id="edge39" class="edge">
<title>VcModule&#45;&gt;EditorComponent </title>
<path fill="none" stroke="#000000" stroke-dasharray="5,2" d="M4073.1504,-169C4133.1982,-169 4243,-169 4243,-169 4243,-169 4243,-208.7772 4243,-208.7772"/>
<polygon fill="#000000" stroke="#000000" points="4239.5001,-208.7772 4243,-218.7772 4246.5001,-208.7773 4239.5001,-208.7772"/>
</g>
<!-- ToolbarComponent  -->
<g id="node37" class="node">
<title>ToolbarComponent </title>
<polygon fill="#fb8072" stroke="#000000" points="4165.6509,-255 4036.3491,-255 4036.3491,-219 4165.6509,-219 4165.6509,-255"/>
<text text-anchor="middle" x="4101" y="-232.8" font-family="Times,serif" font-size="14.00" fill="#000000">ToolbarComponent </text>
</g>
<!-- VcModule&#45;&gt;ToolbarComponent  -->
<g id="edge40" class="edge">
<title>VcModule&#45;&gt;ToolbarComponent </title>
<path fill="none" stroke="#000000" stroke-dasharray="5,2" d="M4054.6801,-187.2228C4054.6801,-187.2228 4054.6801,-208.7269 4054.6801,-208.7269"/>
<polygon fill="#000000" stroke="#000000" points="4051.1801,-208.7269 4054.6801,-218.7269 4058.1801,-208.727 4051.1801,-208.7269"/>
</g>
<!-- SafeHtmlPipe  -->
<g id="node38" class="node">
<title>SafeHtmlPipe </title>
<polygon fill="#fb8072" stroke="#000000" points="4018.0386,-255 3919.9614,-255 3919.9614,-219 4018.0386,-219 4018.0386,-255"/>
<text text-anchor="middle" x="3969" y="-232.8" font-family="Times,serif" font-size="14.00" fill="#000000">SafeHtmlPipe </text>
</g>
<!-- VcModule&#45;&gt;SafeHtmlPipe  -->
<g id="edge41" class="edge">
<title>VcModule&#45;&gt;SafeHtmlPipe </title>
<path fill="none" stroke="#000000" stroke-dasharray="5,2" d="M4007.5419,-187.2228C4007.5419,-187.2228 4007.5419,-208.7269 4007.5419,-208.7269"/>
<polygon fill="#000000" stroke="#000000" points="4004.042,-208.7269 4007.5419,-218.7269 4011.042,-208.727 4004.042,-208.7269"/>
</g>
</g>
</svg>
