<?xml version="1.0" encoding="UTF-8" standalone="no"?>
<!DOCTYPE svg PUBLIC "-//W3C//DTD SVG 1.1//EN"
 "http://www.w3.org/Graphics/SVG/1.1/DTD/svg11.dtd">
<!-- Generated by graphviz version 2.40.1 (20161225.0304)
 -->
<!-- Title: dependencies Pages: 1 -->
<svg width="4335pt" height="355pt"
 viewBox="0.00 0.00 4335.00 355.00" xmlns="http://www.w3.org/2000/svg" xmlns:xlink="http://www.w3.org/1999/xlink">
<g id="graph0" class="graph" transform="scale(1 1) rotate(0) translate(4 351)">
<title>dependencies</title>
<polygon fill="#ffffff" stroke="transparent" points="-4,4 -4,-351 4331,-351 4331,4 -4,4"/>
<text text-anchor="start" x="2142.5091" y="-42.4" font-family="sans-serif" font-weight="bold" font-size="14.00" fill="#000000">Legend</text>
<polygon fill="#ffffb3" stroke="transparent" points="1929.5,-10 1929.5,-30 1949.5,-30 1949.5,-10 1929.5,-10"/>
<text text-anchor="start" x="1953.129" y="-15.4" font-family="sans-serif" font-size="14.00" fill="#000000"> &#160;Declarations</text>
<polygon fill="#8dd3c7" stroke="transparent" points="2042.5,-10 2042.5,-30 2062.5,-30 2062.5,-10 2042.5,-10"/>
<text text-anchor="start" x="2066.2251" y="-15.4" font-family="sans-serif" font-size="14.00" fill="#000000"> &#160;Module</text>
<polygon fill="#80b1d3" stroke="transparent" points="2128.5,-10 2128.5,-30 2148.5,-30 2148.5,-10 2128.5,-10"/>
<text text-anchor="start" x="2152.2812" y="-15.4" font-family="sans-serif" font-size="14.00" fill="#000000"> &#160;Bootstrap</text>
<polygon fill="#fdb462" stroke="transparent" points="2225.5,-10 2225.5,-30 2245.5,-30 2245.5,-10 2225.5,-10"/>
<text text-anchor="start" x="2249.1732" y="-15.4" font-family="sans-serif" font-size="14.00" fill="#000000"> &#160;Providers</text>
<polygon fill="#fb8072" stroke="transparent" points="2321.5,-10 2321.5,-30 2341.5,-30 2341.5,-10 2321.5,-10"/>
<text text-anchor="start" x="2345.2258" y="-15.4" font-family="sans-serif" font-size="14.00" fill="#000000"> &#160;Exports</text>
<g id="clust1" class="cluster">
<title>cluster_AuthModule</title>
<polygon fill="none" stroke="#000000" stroke-dasharray="1,5" points="8,-70 8,-271 906,-271 906,-70 8,-70"/>
</g>
<g id="clust3" class="cluster">
<title>cluster_AuthModule_imports</title>
<polygon fill="none" stroke="#000000" points="337,-78 337,-130 898,-130 898,-78 337,-78"/>
</g>
<g id="clust4" class="cluster">
<title>cluster_AuthModule_exports</title>
<polygon fill="none" stroke="#000000" points="16,-211 16,-263 898,-263 898,-211 16,-211"/>
</g>
<g id="clust7" class="cluster">
<title>cluster_DataModule</title>
<polygon fill="none" stroke="#000000" stroke-dasharray="1,5" points="914,-70 914,-339 1524,-339 1524,-70 914,-70"/>
</g>
<g id="clust9" class="cluster">
<title>cluster_DataModule_imports</title>
<polygon fill="none" stroke="#000000" points="1404,-78 1404,-195 1516,-195 1516,-78 1404,-78"/>
</g>
<g id="clust10" class="cluster">
<title>cluster_DataModule_exports</title>
<polygon fill="none" stroke="#000000" points="922,-279 922,-331 1516,-331 1516,-279 922,-279"/>
</g>
<g id="clust13" class="cluster">
<title>cluster_UiModule</title>
<polygon fill="none" stroke="#000000" stroke-dasharray="1,5" points="1532,-203 1532,-271 3896,-271 3896,-203 1532,-203"/>
</g>
<g id="clust16" class="cluster">
<title>cluster_UiModule_exports</title>
<polygon fill="none" stroke="#000000" points="1540,-211 1540,-263 3888,-263 3888,-211 1540,-211"/>
</g>
<g id="clust19" class="cluster">
<title>cluster_VcModule</title>
<polygon fill="none" stroke="#000000" stroke-dasharray="1,5" points="3904,-143 3904,-271 4319,-271 4319,-143 3904,-143"/>
</g>
<g id="clust22" class="cluster">
<title>cluster_VcModule_exports</title>
<polygon fill="none" stroke="#000000" points="3912,-211 3912,-263 4311,-263 4311,-211 3912,-211"/>
</g>
<!-- CookieModule.forRoot() -->
<g id="node1" class="node">
<title>CookieModule.forRoot()</title>
<polygon fill="#8dd3c7" stroke="#000000" points="603.3616,-122 600.3616,-126 579.3616,-126 576.3616,-122 446.6384,-122 446.6384,-86 603.3616,-86 603.3616,-122"/>
<text text-anchor="middle" x="525" y="-99.8" font-family="Times,serif" font-size="14.00" fill="#000000">CookieModule.forRoot()</text>
</g>
<!-- AuthModule -->
<g id="node5" class="node">
<title>AuthModule</title>
<polygon fill="#8dd3c7" stroke="#000000" points="568.5482,-187 565.5482,-191 544.5482,-191 541.5482,-187 481.4518,-187 481.4518,-151 568.5482,-151 568.5482,-187"/>
<text text-anchor="middle" x="525" y="-164.8" font-family="Times,serif" font-size="14.00" fill="#000000">AuthModule</text>
</g>
<!-- CookieModule.forRoot()&#45;&gt;AuthModule -->
<g id="edge1" class="edge">
<title>CookieModule.forRoot()&#45;&gt;AuthModule</title>
<path fill="none" stroke="#000000" d="M525,-122.1061C525,-122.1061 525,-140.991 525,-140.991"/>
<polygon fill="#000000" stroke="#000000" points="521.5001,-140.9909 525,-150.991 528.5001,-140.991 521.5001,-140.9909"/>
</g>
<!-- BrowserModule -->
<g id="node2" class="node">
<title>BrowserModule</title>
<polygon fill="#8dd3c7" stroke="#000000" points="890.4734,-122 887.4734,-126 866.4734,-126 863.4734,-122 783.5266,-122 783.5266,-86 890.4734,-86 890.4734,-122"/>
<text text-anchor="middle" x="837" y="-99.8" font-family="Times,serif" font-size="14.00" fill="#000000">BrowserModule</text>
</g>
<!-- BrowserModule&#45;&gt;AuthModule -->
<g id="edge2" class="edge">
<title>BrowserModule&#45;&gt;AuthModule</title>
<path fill="none" stroke="#000000" d="M836.8276,-122.2843C836.8276,-143.3211 836.8276,-175 836.8276,-175 836.8276,-175 578.6866,-175 578.6866,-175"/>
<polygon fill="#000000" stroke="#000000" points="578.6867,-171.5001 568.6866,-175 578.6866,-178.5001 578.6867,-171.5001"/>
</g>
<!-- UiModule -->
<g id="node12" class="node">
<title>UiModule</title>
<polygon fill="#8dd3c7" stroke="#000000" points="1507.5484,-187 1504.5484,-191 1483.5484,-191 1480.5484,-187 1434.4516,-187 1434.4516,-151 1507.5484,-151 1507.5484,-187"/>
<text text-anchor="middle" x="1471" y="-164.8" font-family="Times,serif" font-size="14.00" fill="#000000">UiModule</text>
</g>
<!-- BrowserModule&#45;&gt;UiModule -->
<g id="edge17" class="edge">
<title>BrowserModule&#45;&gt;UiModule</title>
<path fill="none" stroke="#000000" d="M863.4848,-122.2396C863.4848,-137.5706 863.4848,-157 863.4848,-157 863.4848,-157 1424.3653,-157 1424.3653,-157"/>
<polygon fill="#000000" stroke="#000000" points="1424.3654,-160.5001 1434.3653,-157 1424.3653,-153.5001 1424.3654,-160.5001"/>
</g>
<!-- DataModule -->
<g id="node13" class="node">
<title>DataModule</title>
<polygon fill="#8dd3c7" stroke="#000000" points="1336.9762,-255 1333.9762,-259 1312.9762,-259 1309.9762,-255 1251.0238,-255 1251.0238,-219 1336.9762,-219 1336.9762,-255"/>
<text text-anchor="middle" x="1294" y="-232.8" font-family="Times,serif" font-size="14.00" fill="#000000">DataModule</text>
</g>
<!-- BrowserModule&#45;&gt;DataModule -->
<g id="edge10" class="edge">
<title>BrowserModule&#45;&gt;DataModule</title>
<path fill="none" stroke="#000000" d="M890.7676,-104C1011.5718,-104 1294,-104 1294,-104 1294,-104 1294,-208.7858 1294,-208.7858"/>
<polygon fill="#000000" stroke="#000000" points="1290.5001,-208.7858 1294,-218.7858 1297.5001,-208.7858 1290.5001,-208.7858"/>
</g>
<!-- VcModule -->
<g id="node35" class="node">
<title>VcModule</title>
<polygon fill="#8dd3c7" stroke="#000000" points="4093.8711,-187 4090.8711,-191 4069.8711,-191 4066.8711,-187 4018.1289,-187 4018.1289,-151 4093.8711,-151 4093.8711,-187"/>
<text text-anchor="middle" x="4056" y="-164.8" font-family="Times,serif" font-size="14.00" fill="#000000">VcModule</text>
</g>
<!-- BrowserModule&#45;&gt;VcModule -->
<g id="edge37" class="edge">
<title>BrowserModule&#45;&gt;VcModule</title>
<path fill="none" stroke="#000000" d="M810.1705,-122.0449C810.1705,-129.749 810.1705,-137 810.1705,-137 810.1705,-137 4056,-137 4056,-137 4056,-137 4056,-140.7566 4056,-140.7566"/>
<polygon fill="#000000" stroke="#000000" points="4052.5001,-140.7566 4056,-150.7566 4059.5001,-140.7566 4052.5001,-140.7566"/>
</g>
<!-- ReactiveFormsModule -->
<g id="node3" class="node">
<title>ReactiveFormsModule</title>
<polygon fill="#8dd3c7" stroke="#000000" points="765.3047,-122 762.3047,-126 741.3047,-126 738.3047,-122 620.6953,-122 620.6953,-86 765.3047,-86 765.3047,-122"/>
<text text-anchor="middle" x="693" y="-99.8" font-family="Times,serif" font-size="14.00" fill="#000000">ReactiveFormsModule</text>
</g>
<!-- ReactiveFormsModule&#45;&gt;AuthModule -->
<g id="edge3" class="edge">
<title>ReactiveFormsModule&#45;&gt;AuthModule</title>
<path fill="none" stroke="#000000" d="M666.2148,-122.1061C666.2148,-141.3391 666.2148,-169 666.2148,-169 666.2148,-169 578.9071,-169 578.9071,-169"/>
<polygon fill="#000000" stroke="#000000" points="578.9072,-165.5001 568.9071,-169 578.9071,-172.5001 578.9072,-165.5001"/>
</g>
<!-- ReactiveFormsModule&#45;&gt;UiModule -->
<g id="edge19" class="edge">
<title>ReactiveFormsModule&#45;&gt;UiModule</title>
<path fill="none" stroke="#000000" d="M753.3875,-122.0225C753.3875,-139.3734 753.3875,-163 753.3875,-163 753.3875,-163 1424.4269,-163 1424.4269,-163"/>
<polygon fill="#000000" stroke="#000000" points="1424.4269,-166.5001 1434.4269,-163 1424.4269,-159.5001 1424.4269,-166.5001"/>
</g>
<!-- HttpModule -->
<g id="node4" class="node">
<title>HttpModule</title>
<polygon fill="#8dd3c7" stroke="#000000" points="429.4387,-122 426.4387,-126 405.4387,-126 402.4387,-122 344.5613,-122 344.5613,-86 429.4387,-86 429.4387,-122"/>
<text text-anchor="middle" x="387" y="-99.8" font-family="Times,serif" font-size="14.00" fill="#000000">HttpModule</text>
</g>
<!-- HttpModule&#45;&gt;AuthModule -->
<g id="edge4" class="edge">
<title>HttpModule&#45;&gt;AuthModule</title>
<path fill="none" stroke="#000000" d="M396.4406,-122.027C396.4406,-138.3976 396.4406,-160 396.4406,-160 396.4406,-160 471.1167,-160 471.1167,-160"/>
<polygon fill="#000000" stroke="#000000" points="471.1167,-163.5001 481.1167,-160 471.1167,-156.5001 471.1167,-163.5001"/>
</g>
<!-- ValidationOnBlurDirective  -->
<g id="node6" class="node">
<title>ValidationOnBlurDirective </title>
<polygon fill="#fb8072" stroke="#000000" points="536.1757,-255 363.8243,-255 363.8243,-219 536.1757,-219 536.1757,-255"/>
<text text-anchor="middle" x="450" y="-232.8" font-family="Times,serif" font-size="14.00" fill="#000000">ValidationOnBlurDirective </text>
</g>
<!-- AuthModule&#45;&gt;ValidationOnBlurDirective  -->
<g id="edge5" class="edge">
<title>AuthModule&#45;&gt;ValidationOnBlurDirective </title>
<path fill="none" stroke="#000000" stroke-dasharray="5,2" d="M508.7821,-187.2228C508.7821,-187.2228 508.7821,-208.7269 508.7821,-208.7269"/>
<polygon fill="#000000" stroke="#000000" points="505.2822,-208.7269 508.7821,-218.7269 512.2822,-208.727 505.2822,-208.7269"/>
</g>
<!-- InputErrorsComponent  -->
<g id="node7" class="node">
<title>InputErrorsComponent </title>
<polygon fill="#fb8072" stroke="#000000" points="345.863,-255 196.137,-255 196.137,-219 345.863,-219 345.863,-255"/>
<text text-anchor="middle" x="271" y="-232.8" font-family="Times,serif" font-size="14.00" fill="#000000">InputErrorsComponent </text>
</g>
<!-- AuthModule&#45;&gt;InputErrorsComponent  -->
<g id="edge6" class="edge">
<title>AuthModule&#45;&gt;InputErrorsComponent </title>
<path fill="none" stroke="#000000" stroke-dasharray="5,2" d="M481.2585,-178C408.5075,-178 270.55,-178 270.55,-178 270.55,-178 270.55,-208.9775 270.55,-208.9775"/>
<polygon fill="#000000" stroke="#000000" points="267.05,-208.9774 270.55,-218.9775 274.05,-208.9775 267.05,-208.9774"/>
</g>
<!-- PublicLoginComponent  -->
<g id="node8" class="node">
<title>PublicLoginComponent </title>
<polygon fill="#fb8072" stroke="#000000" points="178.054,-255 23.946,-255 23.946,-219 178.054,-219 178.054,-255"/>
<text text-anchor="middle" x="101" y="-232.8" font-family="Times,serif" font-size="14.00" fill="#000000">PublicLoginComponent </text>
</g>
<!-- AuthModule&#45;&gt;PublicLoginComponent  -->
<g id="edge7" class="edge">
<title>AuthModule&#45;&gt;PublicLoginComponent </title>
<path fill="none" stroke="#000000" stroke-dasharray="5,2" d="M481.2215,-169C372.8903,-169 101,-169 101,-169 101,-169 101,-208.7772 101,-208.7772"/>
<polygon fill="#000000" stroke="#000000" points="97.5001,-208.7772 101,-218.7772 104.5001,-208.7773 97.5001,-208.7772"/>
</g>
<!-- PublicSignupComponent  -->
<g id="node9" class="node">
<title>PublicSignupComponent </title>
<polygon fill="#fb8072" stroke="#000000" points="890.2843,-255 729.7157,-255 729.7157,-219 890.2843,-219 890.2843,-255"/>
<text text-anchor="middle" x="810" y="-232.8" font-family="Times,serif" font-size="14.00" fill="#000000">PublicSignupComponent </text>
</g>
<!-- AuthModule&#45;&gt;PublicSignupComponent  -->
<g id="edge8" class="edge">
<title>AuthModule&#45;&gt;PublicSignupComponent </title>
<path fill="none" stroke="#000000" stroke-dasharray="5,2" d="M568.5763,-181C631.8336,-181 741.6227,-181 741.6227,-181 741.6227,-181 741.6227,-208.973 741.6227,-208.973"/>
<polygon fill="#000000" stroke="#000000" points="738.1228,-208.973 741.6227,-218.973 745.1228,-208.973 738.1228,-208.973"/>
</g>
<!-- AdminLoginComponent  -->
<g id="node10" class="node">
<title>AdminLoginComponent </title>
<polygon fill="#fb8072" stroke="#000000" points="711.6635,-255 554.3365,-255 554.3365,-219 711.6635,-219 711.6635,-255"/>
<text text-anchor="middle" x="633" y="-232.8" font-family="Times,serif" font-size="14.00" fill="#000000">AdminLoginComponent </text>
</g>
<!-- AuthModule&#45;&gt;AdminLoginComponent  -->
<g id="edge9" class="edge">
<title>AuthModule&#45;&gt;AdminLoginComponent </title>
<path fill="none" stroke="#000000" stroke-dasharray="5,2" d="M561.5959,-187.2228C561.5959,-187.2228 561.5959,-208.7269 561.5959,-208.7269"/>
<polygon fill="#000000" stroke="#000000" points="558.096,-208.7269 561.5959,-218.7269 565.096,-208.727 558.096,-208.7269"/>
</g>
<!-- FormsModule -->
<g id="node11" class="node">
<title>FormsModule</title>
<polygon fill="#8dd3c7" stroke="#000000" points="1507.8288,-122 1504.8288,-126 1483.8288,-126 1480.8288,-122 1412.1712,-122 1412.1712,-86 1507.8288,-86 1507.8288,-122"/>
<text text-anchor="middle" x="1460" y="-99.8" font-family="Times,serif" font-size="14.00" fill="#000000">FormsModule</text>
</g>
<!-- FormsModule&#45;&gt;UiModule -->
<g id="edge18" class="edge">
<title>FormsModule&#45;&gt;UiModule</title>
<path fill="none" stroke="#000000" d="M1470.9453,-122.1061C1470.9453,-122.1061 1470.9453,-140.991 1470.9453,-140.991"/>
<polygon fill="#000000" stroke="#000000" points="1467.4454,-140.9909 1470.9453,-150.991 1474.4454,-140.991 1467.4454,-140.9909"/>
</g>
<!-- FormsModule&#45;&gt;DataModule -->
<g id="edge11" class="edge">
<title>FormsModule&#45;&gt;DataModule</title>
<path fill="none" stroke="#000000" d="M1423.2812,-122.1491C1423.2812,-156.3636 1423.2812,-227 1423.2812,-227 1423.2812,-227 1347.0488,-227 1347.0488,-227"/>
<polygon fill="#000000" stroke="#000000" points="1347.0488,-223.5001 1337.0488,-227 1347.0487,-230.5001 1347.0488,-223.5001"/>
</g>
<!-- UiModule&#45;&gt;DataModule -->
<g id="edge12" class="edge">
<title>UiModule&#45;&gt;DataModule</title>
<path fill="none" stroke="#000000" d="M1458.7422,-187.1061C1458.7422,-206.3391 1458.7422,-234 1458.7422,-234 1458.7422,-234 1347.2841,-234 1347.2841,-234"/>
<polygon fill="#000000" stroke="#000000" points="1347.2841,-230.5001 1337.2841,-234 1347.284,-237.5001 1347.2841,-230.5001"/>
</g>
<!-- ReactiveFormsModule  -->
<g id="node18" class="node">
<title>ReactiveFormsModule </title>
<polygon fill="#fb8072" stroke="#000000" points="3743.8045,-255 3596.1955,-255 3596.1955,-219 3743.8045,-219 3743.8045,-255"/>
<text text-anchor="middle" x="3670" y="-232.8" font-family="Times,serif" font-size="14.00" fill="#000000">ReactiveFormsModule </text>
</g>
<!-- UiModule&#45;&gt;ReactiveFormsModule  -->
<g id="edge20" class="edge">
<title>UiModule&#45;&gt;ReactiveFormsModule </title>
<path fill="none" stroke="#000000" stroke-dasharray="5,2" d="M1507.7878,-156C1795.2283,-156 3670,-156 3670,-156 3670,-156 3670,-208.6198 3670,-208.6198"/>
<polygon fill="#000000" stroke="#000000" points="3666.5001,-208.6198 3670,-218.6198 3673.5001,-208.6199 3666.5001,-208.6198"/>
</g>
<!-- ListComponent  -->
<g id="node19" class="node">
<title>ListComponent </title>
<polygon fill="#fb8072" stroke="#000000" points="3578.1115,-255 3471.8885,-255 3471.8885,-219 3578.1115,-219 3578.1115,-255"/>
<text text-anchor="middle" x="3525" y="-232.8" font-family="Times,serif" font-size="14.00" fill="#000000">ListComponent </text>
</g>
<!-- UiModule&#45;&gt;ListComponent  -->
<g id="edge21" class="edge">
<title>UiModule&#45;&gt;ListComponent </title>
<path fill="none" stroke="#000000" stroke-dasharray="5,2" d="M1507.9623,-158C1784.9439,-158 3525,-158 3525,-158 3525,-158 3525,-208.6772 3525,-208.6772"/>
<polygon fill="#000000" stroke="#000000" points="3521.5001,-208.6772 3525,-218.6772 3528.5001,-208.6773 3521.5001,-208.6772"/>
</g>
<!-- PaginationComponent  -->
<g id="node20" class="node">
<title>PaginationComponent </title>
<polygon fill="#fb8072" stroke="#000000" points="3453.2163,-255 3308.7837,-255 3308.7837,-219 3453.2163,-219 3453.2163,-255"/>
<text text-anchor="middle" x="3381" y="-232.8" font-family="Times,serif" font-size="14.00" fill="#000000">PaginationComponent </text>
</g>
<!-- UiModule&#45;&gt;PaginationComponent  -->
<g id="edge22" class="edge">
<title>UiModule&#45;&gt;PaginationComponent </title>
<path fill="none" stroke="#000000" stroke-dasharray="5,2" d="M1507.8718,-160C1773.2185,-160 3381,-160 3381,-160 3381,-160 3381,-208.7521 3381,-208.7521"/>
<polygon fill="#000000" stroke="#000000" points="3377.5001,-208.752 3381,-218.7521 3384.5001,-208.7521 3377.5001,-208.752"/>
</g>
<!-- TabsComponent  -->
<g id="node21" class="node">
<title>TabsComponent </title>
<polygon fill="#fb8072" stroke="#000000" points="3291.0442,-255 3178.9558,-255 3178.9558,-219 3291.0442,-219 3291.0442,-255"/>
<text text-anchor="middle" x="3235" y="-232.8" font-family="Times,serif" font-size="14.00" fill="#000000">TabsComponent </text>
</g>
<!-- UiModule&#45;&gt;TabsComponent  -->
<g id="edge23" class="edge">
<title>UiModule&#45;&gt;TabsComponent </title>
<path fill="none" stroke="#000000" stroke-dasharray="5,2" d="M1507.8436,-162C1761.1599,-162 3235,-162 3235,-162 3235,-162 3235,-208.8446 3235,-208.8446"/>
<polygon fill="#000000" stroke="#000000" points="3231.5001,-208.8446 3235,-218.8446 3238.5001,-208.8446 3231.5001,-208.8446"/>
</g>
<!-- TabComponent  -->
<g id="node22" class="node">
<title>TabComponent </title>
<polygon fill="#fb8072" stroke="#000000" points="3161.1003,-255 3054.8997,-255 3054.8997,-219 3161.1003,-219 3161.1003,-255"/>
<text text-anchor="middle" x="3108" y="-232.8" font-family="Times,serif" font-size="14.00" fill="#000000">TabComponent </text>
</g>
<!-- UiModule&#45;&gt;TabComponent  -->
<g id="edge24" class="edge">
<title>UiModule&#45;&gt;TabComponent </title>
<path fill="none" stroke="#000000" stroke-dasharray="5,2" d="M1507.8756,-164C1750.4793,-164 3108,-164 3108,-164 3108,-164 3108,-208.9551 3108,-208.9551"/>
<polygon fill="#000000" stroke="#000000" points="3104.5001,-208.955 3108,-218.9551 3111.5001,-208.9551 3104.5001,-208.955"/>
</g>
<!-- MockupComponent  -->
<g id="node23" class="node">
<title>MockupComponent </title>
<polygon fill="#fb8072" stroke="#000000" points="3036.9925,-255 2905.0075,-255 2905.0075,-219 3036.9925,-219 3036.9925,-255"/>
<text text-anchor="middle" x="2971" y="-232.8" font-family="Times,serif" font-size="14.00" fill="#000000">MockupComponent </text>
</g>
<!-- UiModule&#45;&gt;MockupComponent  -->
<g id="edge25" class="edge">
<title>UiModule&#45;&gt;MockupComponent </title>
<path fill="none" stroke="#000000" stroke-dasharray="5,2" d="M1507.7064,-166C1737.7385,-166 2971,-166 2971,-166 2971,-166 2971,-208.7157 2971,-208.7157"/>
<polygon fill="#000000" stroke="#000000" points="2967.5001,-208.7157 2971,-218.7157 2974.5001,-208.7158 2967.5001,-208.7157"/>
</g>
<!-- FilterComponent  -->
<g id="node24" class="node">
<title>FilterComponent </title>
<polygon fill="#fb8072" stroke="#000000" points="2887.6621,-255 2772.3379,-255 2772.3379,-219 2887.6621,-219 2887.6621,-255"/>
<text text-anchor="middle" x="2830" y="-232.8" font-family="Times,serif" font-size="14.00" fill="#000000">FilterComponent </text>
</g>
<!-- UiModule&#45;&gt;FilterComponent  -->
<g id="edge26" class="edge">
<title>UiModule&#45;&gt;FilterComponent </title>
<path fill="none" stroke="#000000" stroke-dasharray="5,2" d="M1507.7016,-168C1724.6665,-168 2830,-168 2830,-168 2830,-168 2830,-208.8711 2830,-208.8711"/>
<polygon fill="#000000" stroke="#000000" points="2826.5001,-208.871 2830,-218.8711 2833.5001,-208.8711 2826.5001,-208.871"/>
</g>
<!-- InputComponent  -->
<g id="node25" class="node">
<title>InputComponent </title>
<polygon fill="#fb8072" stroke="#000000" points="2754.3842,-255 2639.6158,-255 2639.6158,-219 2754.3842,-219 2754.3842,-255"/>
<text text-anchor="middle" x="2697" y="-232.8" font-family="Times,serif" font-size="14.00" fill="#000000">InputComponent </text>
</g>
<!-- UiModule&#45;&gt;InputComponent  -->
<g id="edge27" class="edge">
<title>UiModule&#45;&gt;InputComponent </title>
<path fill="none" stroke="#000000" stroke-dasharray="5,2" d="M1507.6917,-171C1711.6831,-171 2697,-171 2697,-171 2697,-171 2697,-208.9652 2697,-208.9652"/>
<polygon fill="#000000" stroke="#000000" points="2693.5001,-208.9652 2697,-218.9652 2700.5001,-208.9652 2693.5001,-208.9652"/>
</g>
<!-- OutputComponent  -->
<g id="node26" class="node">
<title>OutputComponent </title>
<polygon fill="#fb8072" stroke="#000000" points="2621.7205,-255 2498.2795,-255 2498.2795,-219 2621.7205,-219 2621.7205,-255"/>
<text text-anchor="middle" x="2560" y="-232.8" font-family="Times,serif" font-size="14.00" fill="#000000">OutputComponent </text>
</g>
<!-- UiModule&#45;&gt;OutputComponent  -->
<g id="edge28" class="edge">
<title>UiModule&#45;&gt;OutputComponent </title>
<path fill="none" stroke="#000000" stroke-dasharray="5,2" d="M1507.857,-173C1698.0844,-173 2560,-173 2560,-173 2560,-173 2560,-208.8314 2560,-208.8314"/>
<polygon fill="#000000" stroke="#000000" points="2556.5001,-208.8313 2560,-218.8314 2563.5001,-208.8314 2556.5001,-208.8313"/>
</g>
<!-- ListItemsComponent  -->
<g id="node27" class="node">
<title>ListItemsComponent </title>
<polygon fill="#fb8072" stroke="#000000" points="2479.7121,-255 2342.2879,-255 2342.2879,-219 2479.7121,-219 2479.7121,-255"/>
<text text-anchor="middle" x="2411" y="-232.8" font-family="Times,serif" font-size="14.00" fill="#000000">ListItemsComponent </text>
</g>
<!-- UiModule&#45;&gt;ListItemsComponent  -->
<g id="edge29" class="edge">
<title>UiModule&#45;&gt;ListItemsComponent </title>
<path fill="none" stroke="#000000" stroke-dasharray="5,2" d="M1507.5606,-175C1680.8327,-175 2411,-175 2411,-175 2411,-175 2411,-208.7333 2411,-208.7333"/>
<polygon fill="#000000" stroke="#000000" points="2407.5001,-208.7333 2411,-218.7333 2414.5001,-208.7333 2407.5001,-208.7333"/>
</g>
<!-- ListHeaderComponent  -->
<g id="node28" class="node">
<title>ListHeaderComponent </title>
<polygon fill="#fb8072" stroke="#000000" points="2324.5218,-255 2177.4782,-255 2177.4782,-219 2324.5218,-219 2324.5218,-255"/>
<text text-anchor="middle" x="2251" y="-232.8" font-family="Times,serif" font-size="14.00" fill="#000000">ListHeaderComponent </text>
</g>
<!-- UiModule&#45;&gt;ListHeaderComponent  -->
<g id="edge30" class="edge">
<title>UiModule&#45;&gt;ListHeaderComponent </title>
<path fill="none" stroke="#000000" stroke-dasharray="5,2" d="M1507.5748,-177C1661.7838,-177 2251,-177 2251,-177 2251,-177 2251,-208.998 2251,-208.998"/>
<polygon fill="#000000" stroke="#000000" points="2247.5001,-208.998 2251,-218.998 2254.5001,-208.9981 2247.5001,-208.998"/>
</g>
<!-- GroupPipe  -->
<g id="node29" class="node">
<title>GroupPipe </title>
<polygon fill="#fb8072" stroke="#000000" points="2159.1552,-255 2078.8448,-255 2078.8448,-219 2159.1552,-219 2159.1552,-255"/>
<text text-anchor="middle" x="2119" y="-232.8" font-family="Times,serif" font-size="14.00" fill="#000000">GroupPipe </text>
</g>
<!-- UiModule&#45;&gt;GroupPipe  -->
<g id="edge31" class="edge">
<title>UiModule&#45;&gt;GroupPipe </title>
<path fill="none" stroke="#000000" stroke-dasharray="5,2" d="M1507.6959,-179C1644.7762,-179 2119,-179 2119,-179 2119,-179 2119,-208.9664 2119,-208.9664"/>
<polygon fill="#000000" stroke="#000000" points="2115.5001,-208.9663 2119,-218.9664 2122.5001,-208.9664 2115.5001,-208.9663"/>
</g>
<!-- FormComponent  -->
<g id="node30" class="node">
<title>FormComponent </title>
<polygon fill="#fb8072" stroke="#000000" points="2060.6663,-255 1945.3337,-255 1945.3337,-219 2060.6663,-219 2060.6663,-255"/>
<text text-anchor="middle" x="2003" y="-232.8" font-family="Times,serif" font-size="14.00" fill="#000000">FormComponent </text>
</g>
<!-- UiModule&#45;&gt;FormComponent  -->
<g id="edge32" class="edge">
<title>UiModule&#45;&gt;FormComponent </title>
<path fill="none" stroke="#000000" stroke-dasharray="5,2" d="M1507.5665,-181C1627.7604,-181 2003,-181 2003,-181 2003,-181 2003,-208.973 2003,-208.973"/>
<polygon fill="#000000" stroke="#000000" points="1999.5001,-208.973 2003,-218.973 2006.5001,-208.973 1999.5001,-208.973"/>
</g>
<!-- PopComponent  -->
<g id="node31" class="node">
<title>PopComponent </title>
<polygon fill="#fb8072" stroke="#000000" points="1927.1157,-255 1820.8843,-255 1820.8843,-219 1927.1157,-219 1927.1157,-255"/>
<text text-anchor="middle" x="1874" y="-232.8" font-family="Times,serif" font-size="14.00" fill="#000000">PopComponent </text>
</g>
<!-- UiModule&#45;&gt;PopComponent  -->
<g id="edge33" class="edge">
<title>UiModule&#45;&gt;PopComponent </title>
<path fill="none" stroke="#000000" stroke-dasharray="5,2" d="M1507.8319,-183C1607.3171,-183 1874,-183 1874,-183 1874,-183 1874,-208.7181 1874,-208.7181"/>
<polygon fill="#000000" stroke="#000000" points="1870.5001,-208.718 1874,-218.7181 1877.5001,-208.7181 1870.5001,-208.718"/>
</g>
<!-- MenuComponent  -->
<g id="node32" class="node">
<title>MenuComponent </title>
<polygon fill="#fb8072" stroke="#000000" points="1802.9926,-255 1685.0074,-255 1685.0074,-219 1802.9926,-219 1802.9926,-255"/>
<text text-anchor="middle" x="1744" y="-232.8" font-family="Times,serif" font-size="14.00" fill="#000000">MenuComponent </text>
</g>
<!-- UiModule&#45;&gt;MenuComponent  -->
<g id="edge34" class="edge">
<title>UiModule&#45;&gt;MenuComponent </title>
<path fill="none" stroke="#000000" stroke-dasharray="5,2" d="M1507.818,-185C1582.3353,-185 1744,-185 1744,-185 1744,-185 1744,-208.8129 1744,-208.8129"/>
<polygon fill="#000000" stroke="#000000" points="1740.5001,-208.8129 1744,-218.8129 1747.5001,-208.813 1740.5001,-208.8129"/>
</g>
<!-- SelectComponent  -->
<g id="node33" class="node">
<title>SelectComponent </title>
<polygon fill="#fb8072" stroke="#000000" points="1667.54,-255 1548.46,-255 1548.46,-219 1667.54,-219 1667.54,-255"/>
<text text-anchor="middle" x="1608" y="-232.8" font-family="Times,serif" font-size="14.00" fill="#000000">SelectComponent </text>
</g>
<!-- UiModule&#45;&gt;SelectComponent  -->
<g id="edge35" class="edge">
<title>UiModule&#45;&gt;SelectComponent </title>
<path fill="none" stroke="#000000" stroke-dasharray="5,2" d="M1483.2578,-187.3228C1483.2578,-210.6602 1483.2578,-248 1483.2578,-248 1483.2578,-248 1538.1865,-248 1538.1865,-248"/>
<polygon fill="#000000" stroke="#000000" points="1538.1865,-251.5001 1548.1865,-248 1538.1864,-244.5001 1538.1865,-251.5001"/>
</g>
<!-- LoginComponent  -->
<g id="node34" class="node">
<title>LoginComponent </title>
<polygon fill="#fb8072" stroke="#000000" points="3880.2759,-255 3761.7241,-255 3761.7241,-219 3880.2759,-219 3880.2759,-255"/>
<text text-anchor="middle" x="3821" y="-232.8" font-family="Times,serif" font-size="14.00" fill="#000000">LoginComponent </text>
</g>
<!-- UiModule&#45;&gt;LoginComponent  -->
<g id="edge36" class="edge">
<title>UiModule&#45;&gt;LoginComponent </title>
<path fill="none" stroke="#000000" stroke-dasharray="5,2" d="M1507.9129,-154C1806.8833,-154 3821,-154 3821,-154 3821,-154 3821,-208.9902 3821,-208.9902"/>
<polygon fill="#000000" stroke="#000000" points="3817.5001,-208.9902 3821,-218.9902 3824.5001,-208.9903 3817.5001,-208.9902"/>
</g>
<!-- EntryListComponent  -->
<g id="node14" class="node">
<title>EntryListComponent </title>
<polygon fill="#fb8072" stroke="#000000" points="1507.7149,-323 1370.2851,-323 1370.2851,-287 1507.7149,-287 1507.7149,-323"/>
<text text-anchor="middle" x="1439" y="-300.8" font-family="Times,serif" font-size="14.00" fill="#000000">EntryListComponent </text>
</g>
<!-- DataModule&#45;&gt;EntryListComponent  -->
<g id="edge13" class="edge">
<title>DataModule&#45;&gt;EntryListComponent </title>
<path fill="none" stroke="#000000" stroke-dasharray="5,2" d="M1337.2169,-241C1363.1871,-241 1391.2393,-241 1391.2393,-241 1391.2393,-241 1391.2393,-276.8314 1391.2393,-276.8314"/>
<polygon fill="#000000" stroke="#000000" points="1387.7394,-276.8313 1391.2393,-286.8314 1394.7394,-276.8314 1387.7394,-276.8313"/>
</g>
<!-- EntryComponent  -->
<g id="node15" class="node">
<title>EntryComponent </title>
<polygon fill="#fb8072" stroke="#000000" points="1351.9362,-323 1236.0638,-323 1236.0638,-287 1351.9362,-287 1351.9362,-323"/>
<text text-anchor="middle" x="1294" y="-300.8" font-family="Times,serif" font-size="14.00" fill="#000000">EntryComponent </text>
</g>
<!-- DataModule&#45;&gt;EntryComponent  -->
<g id="edge14" class="edge">
<title>DataModule&#45;&gt;EntryComponent </title>
<path fill="none" stroke="#000000" stroke-dasharray="5,2" d="M1294,-255.2228C1294,-255.2228 1294,-276.7269 1294,-276.7269"/>
<polygon fill="#000000" stroke="#000000" points="1290.5001,-276.7269 1294,-286.7269 1297.5001,-276.727 1290.5001,-276.7269"/>
</g>
<!-- EntriesComponent  -->
<g id="node16" class="node">
<title>EntriesComponent </title>
<polygon fill="#fb8072" stroke="#000000" points="1218.487,-323 1093.513,-323 1093.513,-287 1218.487,-287 1218.487,-323"/>
<text text-anchor="middle" x="1156" y="-300.8" font-family="Times,serif" font-size="14.00" fill="#000000">EntriesComponent </text>
</g>
<!-- DataModule&#45;&gt;EntriesComponent  -->
<g id="edge15" class="edge">
<title>DataModule&#45;&gt;EntriesComponent </title>
<path fill="none" stroke="#000000" stroke-dasharray="5,2" d="M1250.7146,-243C1210.2437,-243 1156,-243 1156,-243 1156,-243 1156,-276.7333 1156,-276.7333"/>
<polygon fill="#000000" stroke="#000000" points="1152.5001,-276.7333 1156,-286.7333 1159.5001,-276.7333 1152.5001,-276.7333"/>
</g>
<!-- EntryFormComponent  -->
<g id="node17" class="node">
<title>EntryFormComponent </title>
<polygon fill="#fb8072" stroke="#000000" points="1076.2702,-323 929.7298,-323 929.7298,-287 1076.2702,-287 1076.2702,-323"/>
<text text-anchor="middle" x="1003" y="-300.8" font-family="Times,serif" font-size="14.00" fill="#000000">EntryFormComponent </text>
</g>
<!-- DataModule&#45;&gt;EntryFormComponent  -->
<g id="edge16" class="edge">
<title>DataModule&#45;&gt;EntryFormComponent </title>
<path fill="none" stroke="#000000" stroke-dasharray="5,2" d="M1250.7486,-231C1169.685,-231 1003,-231 1003,-231 1003,-231 1003,-276.7079 1003,-276.7079"/>
<polygon fill="#000000" stroke="#000000" points="999.5001,-276.7078 1003,-286.7079 1006.5001,-276.7079 999.5001,-276.7078"/>
</g>
<!-- EditorComponent  -->
<g id="node36" class="node">
<title>EditorComponent </title>
<polygon fill="#fb8072" stroke="#000000" points="4186.8269,-255 4067.1731,-255 4067.1731,-219 4186.8269,-219 4186.8269,-255"/>
<text text-anchor="middle" x="4127" y="-232.8" font-family="Times,serif" font-size="14.00" fill="#000000">EditorComponent </text>
</g>
<!-- VcModule&#45;&gt;EditorComponent  -->
<g id="edge38" class="edge">
<title>VcModule&#45;&gt;EditorComponent </title>
<path fill="none" stroke="#000000" stroke-dasharray="5,2" d="M4080.5111,-187.2228C4080.5111,-187.2228 4080.5111,-208.7269 4080.5111,-208.7269"/>
<polygon fill="#000000" stroke="#000000" points="4077.0111,-208.7269 4080.5111,-218.7269 4084.0111,-208.727 4077.0111,-208.7269"/>
</g>
<!-- ToolbarComponent  -->
<g id="node37" class="node">
<title>ToolbarComponent </title>
<polygon fill="#fb8072" stroke="#000000" points="4049.6509,-255 3920.3491,-255 3920.3491,-219 4049.6509,-219 4049.6509,-255"/>
<text text-anchor="middle" x="3985" y="-232.8" font-family="Times,serif" font-size="14.00" fill="#000000">ToolbarComponent </text>
</g>
<!-- VcModule&#45;&gt;ToolbarComponent  -->
<g id="edge39" class="edge">
<title>VcModule&#45;&gt;ToolbarComponent </title>
<path fill="none" stroke="#000000" stroke-dasharray="5,2" d="M4033.82,-187.2228C4033.82,-187.2228 4033.82,-208.7269 4033.82,-208.7269"/>
<polygon fill="#000000" stroke="#000000" points="4030.32,-208.7269 4033.82,-218.7269 4037.32,-208.727 4030.32,-208.7269"/>
</g>
<!-- SafeHtmlPipe  -->
<g id="node38" class="node">
<title>SafeHtmlPipe </title>
<polygon fill="#fb8072" stroke="#000000" points="4303.0386,-255 4204.9614,-255 4204.9614,-219 4303.0386,-219 4303.0386,-255"/>
<text text-anchor="middle" x="4254" y="-232.8" font-family="Times,serif" font-size="14.00" fill="#000000">SafeHtmlPipe </text>
</g>
<!-- VcModule&#45;&gt;SafeHtmlPipe  -->
<g id="edge40" class="edge">
<title>VcModule&#45;&gt;SafeHtmlPipe </title>
<path fill="none" stroke="#000000" stroke-dasharray="5,2" d="M4094.1764,-169C4151.7129,-169 4254,-169 4254,-169 4254,-169 4254,-208.7772 4254,-208.7772"/>
<polygon fill="#000000" stroke="#000000" points="4250.5001,-208.7772 4254,-218.7772 4257.5001,-208.7773 4250.5001,-208.7772"/>
</g>
</g>
</svg>
