<?xml version="1.0" encoding="UTF-8" standalone="no"?>
<!DOCTYPE svg PUBLIC "-//W3C//DTD SVG 1.1//EN"
 "http://www.w3.org/Graphics/SVG/1.1/DTD/svg11.dtd">
<!-- Generated by graphviz version 2.40.1 (20161225.0304)
 -->
<!-- Title: dependencies Pages: 1 -->
<svg width="2307pt" height="355pt"
 viewBox="0.00 0.00 2307.00 355.00" xmlns="http://www.w3.org/2000/svg" xmlns:xlink="http://www.w3.org/1999/xlink">
<g id="graph0" class="graph" transform="scale(1 1) rotate(0) translate(4 351)">
<title>dependencies</title>
<polygon fill="#ffffff" stroke="transparent" points="-4,4 -4,-351 2303,-351 2303,4 -4,4"/>
<text text-anchor="start" x="1128.5091" y="-42.4" font-family="sans-serif" font-weight="bold" font-size="14.00" fill="#000000">Legend</text>
<polygon fill="#ffffb3" stroke="transparent" points="915.5,-10 915.5,-30 935.5,-30 935.5,-10 915.5,-10"/>
<text text-anchor="start" x="939.129" y="-15.4" font-family="sans-serif" font-size="14.00" fill="#000000"> &#160;Declarations</text>
<polygon fill="#8dd3c7" stroke="transparent" points="1028.5,-10 1028.5,-30 1048.5,-30 1048.5,-10 1028.5,-10"/>
<text text-anchor="start" x="1052.2251" y="-15.4" font-family="sans-serif" font-size="14.00" fill="#000000"> &#160;Module</text>
<polygon fill="#80b1d3" stroke="transparent" points="1114.5,-10 1114.5,-30 1134.5,-30 1134.5,-10 1114.5,-10"/>
<text text-anchor="start" x="1138.2812" y="-15.4" font-family="sans-serif" font-size="14.00" fill="#000000"> &#160;Bootstrap</text>
<polygon fill="#fdb462" stroke="transparent" points="1211.5,-10 1211.5,-30 1231.5,-30 1231.5,-10 1211.5,-10"/>
<text text-anchor="start" x="1235.1732" y="-15.4" font-family="sans-serif" font-size="14.00" fill="#000000"> &#160;Providers</text>
<polygon fill="#fb8072" stroke="transparent" points="1307.5,-10 1307.5,-30 1327.5,-30 1327.5,-10 1307.5,-10"/>
<text text-anchor="start" x="1331.2258" y="-15.4" font-family="sans-serif" font-size="14.00" fill="#000000"> &#160;Exports</text>
<g id="clust1" class="cluster">
<title>cluster_DataModule</title>
<polygon fill="none" stroke="#000000" stroke-dasharray="1,5" points="8,-70 8,-339 260,-339 260,-70 8,-70"/>
</g>
<g id="clust3" class="cluster">
<title>cluster_DataModule_imports</title>
<polygon fill="none" stroke="#000000" points="16,-78 16,-195 252,-195 252,-78 16,-78"/>
</g>
<g id="clust4" class="cluster">
<title>cluster_DataModule_exports</title>
<polygon fill="none" stroke="#000000" points="74,-279 74,-331 228,-331 228,-279 74,-279"/>
</g>
<g id="clust7" class="cluster">
<title>cluster_UiModule</title>
<polygon fill="none" stroke="#000000" stroke-dasharray="1,5" points="268,-203 268,-271 2291,-271 2291,-203 268,-203"/>
</g>
<g id="clust9" class="cluster">
<title>cluster_UiModule_imports</title>
<polygon fill="none" stroke="#000000" points="2123,-211 2123,-263 2283,-263 2283,-211 2123,-211"/>
</g>
<g id="clust10" class="cluster">
<title>cluster_UiModule_exports</title>
<polygon fill="none" stroke="#000000" points="276,-211 276,-263 2115,-263 2115,-211 276,-211"/>
</g>
<!-- BrowserModule -->
<g id="node1" class="node">
<title>BrowserModule</title>
<polygon fill="#8dd3c7" stroke="#000000" points="130.4734,-122 127.4734,-126 106.4734,-126 103.4734,-122 23.5266,-122 23.5266,-86 130.4734,-86 130.4734,-122"/>
<text text-anchor="middle" x="77" y="-99.8" font-family="Times,serif" font-size="14.00" fill="#000000">BrowserModule</text>
</g>
<!-- UiModule -->
<g id="node3" class="node">
<title>UiModule</title>
<polygon fill="#8dd3c7" stroke="#000000" points="243.5484,-187 240.5484,-191 219.5484,-191 216.5484,-187 170.4516,-187 170.4516,-151 243.5484,-151 243.5484,-187"/>
<text text-anchor="middle" x="207" y="-164.8" font-family="Times,serif" font-size="14.00" fill="#000000">UiModule</text>
</g>
<!-- BrowserModule&#45;&gt;UiModule -->
<g id="edge5" class="edge">
<title>BrowserModule&#45;&gt;UiModule</title>
<path fill="none" stroke="#000000" d="M122.9951,-122.1061C122.9951,-141.3391 122.9951,-169 122.9951,-169 122.9951,-169 160.3986,-169 160.3986,-169"/>
<polygon fill="#000000" stroke="#000000" points="160.3986,-172.5001 170.3986,-169 160.3986,-165.5001 160.3986,-172.5001"/>
</g>
<!-- DataModule -->
<g id="node4" class="node">
<title>DataModule</title>
<polygon fill="#8dd3c7" stroke="#000000" points="193.9762,-255 190.9762,-259 169.9762,-259 166.9762,-255 108.0238,-255 108.0238,-219 193.9762,-219 193.9762,-255"/>
<text text-anchor="middle" x="151" y="-232.8" font-family="Times,serif" font-size="14.00" fill="#000000">DataModule</text>
</g>
<!-- BrowserModule&#45;&gt;DataModule -->
<g id="edge1" class="edge">
<title>BrowserModule&#45;&gt;DataModule</title>
<path fill="none" stroke="#000000" d="M115.5035,-122.2142C115.5035,-122.2142 115.5035,-208.579 115.5035,-208.579"/>
<polygon fill="#000000" stroke="#000000" points="112.0036,-208.5789 115.5035,-218.579 119.0036,-208.579 112.0036,-208.5789"/>
</g>
<!-- FormsModule -->
<g id="node2" class="node">
<title>FormsModule</title>
<polygon fill="#8dd3c7" stroke="#000000" points="243.8288,-122 240.8288,-126 219.8288,-126 216.8288,-122 148.1712,-122 148.1712,-86 243.8288,-86 243.8288,-122"/>
<text text-anchor="middle" x="196" y="-99.8" font-family="Times,serif" font-size="14.00" fill="#000000">FormsModule</text>
</g>
<!-- FormsModule&#45;&gt;UiModule -->
<g id="edge6" class="edge">
<title>FormsModule&#45;&gt;UiModule</title>
<path fill="none" stroke="#000000" d="M206.9453,-122.1061C206.9453,-122.1061 206.9453,-140.991 206.9453,-140.991"/>
<polygon fill="#000000" stroke="#000000" points="203.4454,-140.9909 206.9453,-150.991 210.4454,-140.991 203.4454,-140.9909"/>
</g>
<!-- FormsModule&#45;&gt;DataModule -->
<g id="edge2" class="edge">
<title>FormsModule&#45;&gt;DataModule</title>
<path fill="none" stroke="#000000" d="M159.2812,-122.2142C159.2812,-122.2142 159.2812,-208.579 159.2812,-208.579"/>
<polygon fill="#000000" stroke="#000000" points="155.7813,-208.5789 159.2812,-218.579 162.7813,-208.579 155.7813,-208.5789"/>
</g>
<!-- UiModule&#45;&gt;DataModule -->
<g id="edge3" class="edge">
<title>UiModule&#45;&gt;DataModule</title>
<path fill="none" stroke="#000000" d="M182.1073,-187.2228C182.1073,-187.2228 182.1073,-208.7269 182.1073,-208.7269"/>
<polygon fill="#000000" stroke="#000000" points="178.6074,-208.7269 182.1073,-218.7269 185.6074,-208.727 178.6074,-208.7269"/>
</g>
<!-- ReactiveFormsModule  -->
<g id="node7" class="node">
<title>ReactiveFormsModule </title>
<polygon fill="#fb8072" stroke="#000000" points="1542.8045,-255 1395.1955,-255 1395.1955,-219 1542.8045,-219 1542.8045,-255"/>
<text text-anchor="middle" x="1469" y="-232.8" font-family="Times,serif" font-size="14.00" fill="#000000">ReactiveFormsModule </text>
</g>
<!-- UiModule&#45;&gt;ReactiveFormsModule  -->
<g id="edge8" class="edge">
<title>UiModule&#45;&gt;ReactiveFormsModule </title>
<path fill="none" stroke="#000000" stroke-dasharray="5,2" d="M243.7463,-167C451.4332,-167 1469,-167 1469,-167 1469,-167 1469,-208.9733 1469,-208.9733"/>
<polygon fill="#000000" stroke="#000000" points="1465.5001,-208.9732 1469,-218.9733 1472.5001,-208.9733 1465.5001,-208.9732"/>
</g>
<!-- ListComponent  -->
<g id="node8" class="node">
<title>ListComponent </title>
<polygon fill="#fb8072" stroke="#000000" points="1377.1115,-255 1270.8885,-255 1270.8885,-219 1377.1115,-219 1377.1115,-255"/>
<text text-anchor="middle" x="1324" y="-232.8" font-family="Times,serif" font-size="14.00" fill="#000000">ListComponent </text>
</g>
<!-- UiModule&#45;&gt;ListComponent  -->
<g id="edge9" class="edge">
<title>UiModule&#45;&gt;ListComponent </title>
<path fill="none" stroke="#000000" stroke-dasharray="5,2" d="M243.8464,-169C437.0094,-169 1324,-169 1324,-169 1324,-169 1324,-208.7772 1324,-208.7772"/>
<polygon fill="#000000" stroke="#000000" points="1320.5001,-208.7772 1324,-218.7772 1327.5001,-208.7773 1320.5001,-208.7772"/>
</g>
<!-- PaginationComponent  -->
<g id="node9" class="node">
<title>PaginationComponent </title>
<polygon fill="#fb8072" stroke="#000000" points="1252.2163,-255 1107.7837,-255 1107.7837,-219 1252.2163,-219 1252.2163,-255"/>
<text text-anchor="middle" x="1180" y="-232.8" font-family="Times,serif" font-size="14.00" fill="#000000">PaginationComponent </text>
</g>
<!-- UiModule&#45;&gt;PaginationComponent  -->
<g id="edge10" class="edge">
<title>UiModule&#45;&gt;PaginationComponent </title>
<path fill="none" stroke="#000000" stroke-dasharray="5,2" d="M243.6602,-172C420.8457,-172 1180,-172 1180,-172 1180,-172 1180,-208.8939 1180,-208.8939"/>
<polygon fill="#000000" stroke="#000000" points="1176.5001,-208.8938 1180,-218.8939 1183.5001,-208.8939 1176.5001,-208.8938"/>
</g>
<!-- TabsComponent  -->
<g id="node10" class="node">
<title>TabsComponent </title>
<polygon fill="#fb8072" stroke="#000000" points="1090.0442,-255 977.9558,-255 977.9558,-219 1090.0442,-219 1090.0442,-255"/>
<text text-anchor="middle" x="1034" y="-232.8" font-family="Times,serif" font-size="14.00" fill="#000000">TabsComponent </text>
</g>
<!-- UiModule&#45;&gt;TabsComponent  -->
<g id="edge11" class="edge">
<title>UiModule&#45;&gt;TabsComponent </title>
<path fill="none" stroke="#000000" stroke-dasharray="5,2" d="M243.6022,-175C403.6516,-175 1034,-175 1034,-175 1034,-175 1034,-208.7333 1034,-208.7333"/>
<polygon fill="#000000" stroke="#000000" points="1030.5001,-208.7333 1034,-218.7333 1037.5001,-208.7333 1030.5001,-208.7333"/>
</g>
<!-- TabComponent  -->
<g id="node11" class="node">
<title>TabComponent </title>
<polygon fill="#fb8072" stroke="#000000" points="960.1003,-255 853.8997,-255 853.8997,-219 960.1003,-219 960.1003,-255"/>
<text text-anchor="middle" x="907" y="-232.8" font-family="Times,serif" font-size="14.00" fill="#000000">TabComponent </text>
</g>
<!-- UiModule&#45;&gt;TabComponent  -->
<g id="edge12" class="edge">
<title>UiModule&#45;&gt;TabComponent </title>
<path fill="none" stroke="#000000" stroke-dasharray="5,2" d="M243.6495,-177C387.6797,-177 907,-177 907,-177 907,-177 907,-208.998 907,-208.998"/>
<polygon fill="#000000" stroke="#000000" points="903.5001,-208.998 907,-218.998 910.5001,-208.9981 903.5001,-208.998"/>
</g>
<!-- MockupComponent  -->
<g id="node12" class="node">
<title>MockupComponent </title>
<polygon fill="#fb8072" stroke="#000000" points="835.9925,-255 704.0075,-255 704.0075,-219 835.9925,-219 835.9925,-255"/>
<text text-anchor="middle" x="770" y="-232.8" font-family="Times,serif" font-size="14.00" fill="#000000">MockupComponent </text>
</g>
<!-- UiModule&#45;&gt;MockupComponent  -->
<g id="edge13" class="edge">
<title>UiModule&#45;&gt;MockupComponent </title>
<path fill="none" stroke="#000000" stroke-dasharray="5,2" d="M243.94,-180C369.1924,-180 770,-180 770,-180 770,-180 770,-208.9648 770,-208.9648"/>
<polygon fill="#000000" stroke="#000000" points="766.5001,-208.9648 770,-218.9648 773.5001,-208.9649 766.5001,-208.9648"/>
</g>
<!-- FilterComponent  -->
<g id="node13" class="node">
<title>FilterComponent </title>
<polygon fill="#fb8072" stroke="#000000" points="686.6621,-255 571.3379,-255 571.3379,-219 686.6621,-219 686.6621,-255"/>
<text text-anchor="middle" x="629" y="-232.8" font-family="Times,serif" font-size="14.00" fill="#000000">FilterComponent </text>
</g>
<!-- UiModule&#45;&gt;FilterComponent  -->
<g id="edge14" class="edge">
<title>UiModule&#45;&gt;FilterComponent </title>
<path fill="none" stroke="#000000" stroke-dasharray="5,2" d="M243.7115,-182C346.3815,-182 629,-182 629,-182 629,-182 629,-208.9909 629,-208.9909"/>
<polygon fill="#000000" stroke="#000000" points="625.5001,-208.9909 629,-218.9909 632.5001,-208.991 625.5001,-208.9909"/>
</g>
<!-- FieldComponent  -->
<g id="node14" class="node">
<title>FieldComponent </title>
<polygon fill="#fb8072" stroke="#000000" points="553.6115,-255 440.3885,-255 440.3885,-219 553.6115,-219 553.6115,-255"/>
<text text-anchor="middle" x="497" y="-232.8" font-family="Times,serif" font-size="14.00" fill="#000000">FieldComponent </text>
</g>
<!-- UiModule&#45;&gt;FieldComponent  -->
<g id="edge15" class="edge">
<title>UiModule&#45;&gt;FieldComponent </title>
<path fill="none" stroke="#000000" stroke-dasharray="5,2" d="M243.7287,-185C321.7636,-185 497,-185 497,-185 497,-185 497,-208.8129 497,-208.8129"/>
<polygon fill="#000000" stroke="#000000" points="493.5001,-208.8129 497,-218.8129 500.5001,-208.813 493.5001,-208.8129"/>
</g>
<!-- ListItemsComponent  -->
<g id="node15" class="node">
<title>ListItemsComponent </title>
<polygon fill="#fb8072" stroke="#000000" points="421.7121,-255 284.2879,-255 284.2879,-219 421.7121,-219 421.7121,-255"/>
<text text-anchor="middle" x="353" y="-232.8" font-family="Times,serif" font-size="14.00" fill="#000000">ListItemsComponent </text>
</g>
<!-- UiModule&#45;&gt;ListItemsComponent  -->
<g id="edge16" class="edge">
<title>UiModule&#45;&gt;ListItemsComponent </title>
<path fill="none" stroke="#000000" stroke-dasharray="5,2" d="M231.8154,-187.2228C231.8154,-207.3652 231.8154,-237 231.8154,-237 231.8154,-237 274.2639,-237 274.2639,-237"/>
<polygon fill="#000000" stroke="#000000" points="274.2639,-240.5001 284.2639,-237 274.2639,-233.5001 274.2639,-240.5001"/>
</g>
<!-- ListHeaderComponent  -->
<g id="node16" class="node">
<title>ListHeaderComponent </title>
<polygon fill="#fb8072" stroke="#000000" points="2106.5218,-255 1959.4782,-255 1959.4782,-219 2106.5218,-219 2106.5218,-255"/>
<text text-anchor="middle" x="2033" y="-232.8" font-family="Times,serif" font-size="14.00" fill="#000000">ListHeaderComponent </text>
</g>
<!-- UiModule&#45;&gt;ListHeaderComponent  -->
<g id="edge17" class="edge">
<title>UiModule&#45;&gt;ListHeaderComponent </title>
<path fill="none" stroke="#000000" stroke-dasharray="5,2" d="M243.8877,-157C502.4645,-157 2033,-157 2033,-157 2033,-157 2033,-208.8468 2033,-208.8468"/>
<polygon fill="#000000" stroke="#000000" points="2029.5001,-208.8467 2033,-218.8468 2036.5001,-208.8468 2029.5001,-208.8467"/>
</g>
<!-- GroupPipe  -->
<g id="node17" class="node">
<title>GroupPipe </title>
<polygon fill="#fb8072" stroke="#000000" points="1941.1552,-255 1860.8448,-255 1860.8448,-219 1941.1552,-219 1941.1552,-255"/>
<text text-anchor="middle" x="1901" y="-232.8" font-family="Times,serif" font-size="14.00" fill="#000000">GroupPipe </text>
</g>
<!-- UiModule&#45;&gt;GroupPipe  -->
<g id="edge18" class="edge">
<title>UiModule&#45;&gt;GroupPipe </title>
<path fill="none" stroke="#000000" stroke-dasharray="5,2" d="M243.5602,-159C490.1784,-159 1901,-159 1901,-159 1901,-159 1901,-208.9092 1901,-208.9092"/>
<polygon fill="#000000" stroke="#000000" points="1897.5001,-208.9091 1901,-218.9092 1904.5001,-208.9092 1897.5001,-208.9091"/>
</g>
<!-- FormComponent  -->
<g id="node18" class="node">
<title>FormComponent </title>
<polygon fill="#fb8072" stroke="#000000" points="1842.6663,-255 1727.3337,-255 1727.3337,-219 1842.6663,-219 1842.6663,-255"/>
<text text-anchor="middle" x="1785" y="-232.8" font-family="Times,serif" font-size="14.00" fill="#000000">FormComponent </text>
</g>
<!-- UiModule&#45;&gt;FormComponent  -->
<g id="edge19" class="edge">
<title>UiModule&#45;&gt;FormComponent </title>
<path fill="none" stroke="#000000" stroke-dasharray="5,2" d="M243.6834,-162C480.613,-162 1785,-162 1785,-162 1785,-162 1785,-208.8446 1785,-208.8446"/>
<polygon fill="#000000" stroke="#000000" points="1781.5001,-208.8446 1785,-218.8446 1788.5001,-208.8446 1781.5001,-208.8446"/>
</g>
<!-- FieldErrorsComponent  -->
<g id="node19" class="node">
<title>FieldErrorsComponent </title>
<polygon fill="#fb8072" stroke="#000000" points="1709.0904,-255 1560.9096,-255 1560.9096,-219 1709.0904,-219 1709.0904,-255"/>
<text text-anchor="middle" x="1635" y="-232.8" font-family="Times,serif" font-size="14.00" fill="#000000">FieldErrorsComponent </text>
</g>
<!-- UiModule&#45;&gt;FieldErrorsComponent  -->
<g id="edge20" class="edge">
<title>UiModule&#45;&gt;FieldErrorsComponent </title>
<path fill="none" stroke="#000000" stroke-dasharray="5,2" d="M243.7341,-164C467.2489,-164 1635,-164 1635,-164 1635,-164 1635,-208.9551 1635,-208.9551"/>
<polygon fill="#000000" stroke="#000000" points="1631.5001,-208.955 1635,-218.9551 1638.5001,-208.9551 1631.5001,-208.955"/>
</g>
<!-- EntryListComponent  -->
<g id="node5" class="node">
<title>EntryListComponent </title>
<polygon fill="#fb8072" stroke="#000000" points="219.7149,-323 82.2851,-323 82.2851,-287 219.7149,-287 219.7149,-323"/>
<text text-anchor="middle" x="151" y="-300.8" font-family="Times,serif" font-size="14.00" fill="#000000">EntryListComponent </text>
</g>
<!-- DataModule&#45;&gt;EntryListComponent  -->
<g id="edge4" class="edge">
<title>DataModule&#45;&gt;EntryListComponent </title>
<path fill="none" stroke="#000000" stroke-dasharray="5,2" d="M151,-255.2228C151,-255.2228 151,-276.7269 151,-276.7269"/>
<polygon fill="#000000" stroke="#000000" points="147.5001,-276.7269 151,-286.7269 154.5001,-276.727 147.5001,-276.7269"/>
</g>
<!-- ReactiveFormsModule -->
<g id="node6" class="node">
<title>ReactiveFormsModule</title>
<polygon fill="#8dd3c7" stroke="#000000" points="2275.3047,-255 2272.3047,-259 2251.3047,-259 2248.3047,-255 2130.6953,-255 2130.6953,-219 2275.3047,-219 2275.3047,-255"/>
<text text-anchor="middle" x="2203" y="-232.8" font-family="Times,serif" font-size="14.00" fill="#000000">ReactiveFormsModule</text>
</g>
<!-- ReactiveFormsModule&#45;&gt;UiModule -->
<g id="edge7" class="edge">
<title>ReactiveFormsModule&#45;&gt;UiModule</title>
<path fill="none" stroke="#000000" d="M2203,-218.9902C2203,-194.5793 2203,-154 2203,-154 2203,-154 253.7802,-154 253.7802,-154"/>
<polygon fill="#000000" stroke="#000000" points="253.7802,-150.5001 243.7802,-154 253.7801,-157.5001 253.7802,-150.5001"/>
</g>
</g>
</svg>
