<?xml version="1.0" encoding="UTF-8" standalone="no"?>
<!DOCTYPE svg PUBLIC "-//W3C//DTD SVG 1.1//EN"
 "http://www.w3.org/Graphics/SVG/1.1/DTD/svg11.dtd">
<!-- Generated by graphviz version 2.40.1 (20161225.0304)
 -->
<!-- Title: dependencies Pages: 1 -->
<svg width="2258pt" height="284pt"
 viewBox="0.00 0.00 2258.00 284.00" xmlns="http://www.w3.org/2000/svg" xmlns:xlink="http://www.w3.org/1999/xlink">
<g id="graph0" class="graph" transform="scale(1 1) rotate(0) translate(4 280)">
<title>dependencies</title>
<polygon fill="#ffffff" stroke="transparent" points="-4,4 -4,-280 2254,-280 2254,4 -4,4"/>
<text text-anchor="start" x="1104.0091" y="-42.4" font-family="sans-serif" font-weight="bold" font-size="14.00" fill="#000000">Legend</text>
<polygon fill="#ffffb3" stroke="transparent" points="891,-10 891,-30 911,-30 911,-10 891,-10"/>
<text text-anchor="start" x="914.629" y="-15.4" font-family="sans-serif" font-size="14.00" fill="#000000"> &#160;Declarations</text>
<polygon fill="#8dd3c7" stroke="transparent" points="1004,-10 1004,-30 1024,-30 1024,-10 1004,-10"/>
<text text-anchor="start" x="1027.7251" y="-15.4" font-family="sans-serif" font-size="14.00" fill="#000000"> &#160;Module</text>
<polygon fill="#80b1d3" stroke="transparent" points="1090,-10 1090,-30 1110,-30 1110,-10 1090,-10"/>
<text text-anchor="start" x="1113.7812" y="-15.4" font-family="sans-serif" font-size="14.00" fill="#000000"> &#160;Bootstrap</text>
<polygon fill="#fdb462" stroke="transparent" points="1187,-10 1187,-30 1207,-30 1207,-10 1187,-10"/>
<text text-anchor="start" x="1210.6732" y="-15.4" font-family="sans-serif" font-size="14.00" fill="#000000"> &#160;Providers</text>
<polygon fill="#fb8072" stroke="transparent" points="1283,-10 1283,-30 1303,-30 1303,-10 1283,-10"/>
<text text-anchor="start" x="1306.7258" y="-15.4" font-family="sans-serif" font-size="14.00" fill="#000000"> &#160;Exports</text>
<g id="clust1" class="cluster">
<title>cluster_ResourceModule</title>
<polygon fill="none" stroke="#000000" stroke-dasharray="1,5" points="8,-70 8,-268 2242,-268 2242,-70 8,-70"/>
</g>
<g id="clust2" class="cluster">
<title>cluster_ResourceModule_declarations</title>
<polygon fill="none" stroke="#000000" points="555,-78 555,-130 2234,-130 2234,-78 555,-78"/>
</g>
<g id="clust12" class="cluster">
<title>cluster_ResourceModule_imports</title>
<polygon fill="none" stroke="#000000" points="358,-78 358,-130 547,-130 547,-78 358,-78"/>
</g>
<g id="clust13" class="cluster">
<title>cluster_ResourceModule_exports</title>
<polygon fill="none" stroke="#000000" points="159,-208 159,-260 2069,-260 2069,-208 159,-208"/>
</g>
<g id="clust15" class="cluster">
<title>cluster_ResourceModule_providers</title>
<polygon fill="none" stroke="#000000" points="16,-78 16,-130 350,-130 350,-78 16,-78"/>
</g>
<!-- ApiActionbarComponent -->
<g id="node1" class="node">
<title>ApiActionbarComponent</title>
<polygon fill="#ffffb3" stroke="#000000" points="2226.3075,-122 2067.6925,-122 2067.6925,-86 2226.3075,-86 2226.3075,-122"/>
<text text-anchor="middle" x="2147" y="-99.8" font-family="Times,serif" font-size="14.00" fill="#000000">ApiActionbarComponent</text>
</g>
<!-- ResourceModule -->
<g id="node10" class="node">
<title>ResourceModule</title>
<polygon fill="#8dd3c7" stroke="#000000" points="1065.636,-187 1062.636,-191 1041.636,-191 1038.636,-187 954.364,-187 954.364,-151 1065.636,-151 1065.636,-187"/>
<text text-anchor="middle" x="1010" y="-164.8" font-family="Times,serif" font-size="14.00" fill="#000000">ResourceModule</text>
</g>
<!-- ApiActionbarComponent&#45;&gt;ResourceModule -->
<g id="edge1" class="edge">
<title>ApiActionbarComponent&#45;&gt;ResourceModule</title>
<path fill="none" stroke="#000000" d="M2147,-122.1061C2147,-141.3391 2147,-169 2147,-169 2147,-169 1075.9962,-169 1075.9962,-169"/>
<polygon fill="#000000" stroke="#000000" points="1075.9962,-165.5001 1065.9962,-169 1075.9962,-172.5001 1075.9962,-165.5001"/>
</g>
<!-- ResourceActionbarComponent -->
<g id="node2" class="node">
<title>ResourceActionbarComponent</title>
<polygon fill="#ffffb3" stroke="#000000" points="2049.896,-122 1860.104,-122 1860.104,-86 2049.896,-86 2049.896,-122"/>
<text text-anchor="middle" x="1955" y="-99.8" font-family="Times,serif" font-size="14.00" fill="#000000">ResourceActionbarComponent</text>
</g>
<!-- ResourceActionbarComponent&#45;&gt;ResourceModule -->
<g id="edge2" class="edge">
<title>ResourceActionbarComponent&#45;&gt;ResourceModule</title>
<path fill="none" stroke="#000000" d="M1870.875,-122.2667C1870.875,-140.5552 1870.875,-166 1870.875,-166 1870.875,-166 1075.8211,-166 1075.8211,-166"/>
<polygon fill="#000000" stroke="#000000" points="1075.8211,-162.5001 1065.8211,-166 1075.8211,-169.5001 1075.8211,-162.5001"/>
</g>
<!-- ResourceCrudComponent -->
<g id="node3" class="node">
<title>ResourceCrudComponent</title>
<polygon fill="#ffffb3" stroke="#000000" points="1842.9157,-122 1681.0843,-122 1681.0843,-86 1842.9157,-86 1842.9157,-122"/>
<text text-anchor="middle" x="1762" y="-99.8" font-family="Times,serif" font-size="14.00" fill="#000000">ResourceCrudComponent</text>
</g>
<!-- ResourceCrudComponent&#45;&gt;ResourceModule -->
<g id="edge3" class="edge">
<title>ResourceCrudComponent&#45;&gt;ResourceModule</title>
<path fill="none" stroke="#000000" d="M1684.9223,-122.0225C1684.9223,-139.3734 1684.9223,-163 1684.9223,-163 1684.9223,-163 1075.8059,-163 1075.8059,-163"/>
<polygon fill="#000000" stroke="#000000" points="1075.806,-159.5001 1065.8059,-163 1075.8059,-166.5001 1075.806,-159.5001"/>
</g>
<!-- ResourceDeletePopComponent -->
<g id="node4" class="node">
<title>ResourceDeletePopComponent</title>
<polygon fill="#ffffb3" stroke="#000000" points="1662.7324,-122 1471.2676,-122 1471.2676,-86 1662.7324,-86 1662.7324,-122"/>
<text text-anchor="middle" x="1567" y="-99.8" font-family="Times,serif" font-size="14.00" fill="#000000">ResourceDeletePopComponent</text>
</g>
<!-- ResourceDeletePopComponent&#45;&gt;ResourceModule -->
<g id="edge4" class="edge">
<title>ResourceDeletePopComponent&#45;&gt;ResourceModule</title>
<path fill="none" stroke="#000000" d="M1479.375,-122.027C1479.375,-138.3976 1479.375,-160 1479.375,-160 1479.375,-160 1075.6867,-160 1075.6867,-160"/>
<polygon fill="#000000" stroke="#000000" points="1075.6867,-156.5001 1065.6867,-160 1075.6866,-163.5001 1075.6867,-156.5001"/>
</g>
<!-- ResourceFormComponent -->
<g id="node5" class="node">
<title>ResourceFormComponent</title>
<polygon fill="#ffffb3" stroke="#000000" points="1452.752,-122 1289.248,-122 1289.248,-86 1452.752,-86 1452.752,-122"/>
<text text-anchor="middle" x="1371" y="-99.8" font-family="Times,serif" font-size="14.00" fill="#000000">ResourceFormComponent</text>
</g>
<!-- ResourceFormComponent&#45;&gt;ResourceModule -->
<g id="edge5" class="edge">
<title>ResourceFormComponent&#45;&gt;ResourceModule</title>
<path fill="none" stroke="#000000" d="M1399.3786,-122.2396C1399.3786,-137.5706 1399.3786,-157 1399.3786,-157 1399.3786,-157 1075.7885,-157 1075.7885,-157"/>
<polygon fill="#000000" stroke="#000000" points="1075.7885,-153.5001 1065.7885,-157 1075.7884,-160.5001 1075.7885,-153.5001"/>
</g>
<!-- ResourceListComponent -->
<g id="node6" class="node">
<title>ResourceListComponent</title>
<polygon fill="#ffffb3" stroke="#000000" points="1271.6965,-122 1116.3035,-122 1116.3035,-86 1271.6965,-86 1271.6965,-122"/>
<text text-anchor="middle" x="1194" y="-99.8" font-family="Times,serif" font-size="14.00" fill="#000000">ResourceListComponent</text>
</g>
<!-- ResourceListComponent&#45;&gt;ResourceModule -->
<g id="edge6" class="edge">
<title>ResourceListComponent&#45;&gt;ResourceModule</title>
<path fill="none" stroke="#000000" d="M1194,-122.0511C1194,-136.373 1194,-154 1194,-154 1194,-154 1075.7054,-154 1075.7054,-154"/>
<polygon fill="#000000" stroke="#000000" points="1075.7054,-150.5001 1065.7054,-154 1075.7054,-157.5001 1075.7054,-150.5001"/>
</g>
<!-- ResourceListPopComponent -->
<g id="node7" class="node">
<title>ResourceListPopComponent</title>
<polygon fill="#ffffb3" stroke="#000000" points="1098.479,-122 921.521,-122 921.521,-86 1098.479,-86 1098.479,-122"/>
<text text-anchor="middle" x="1010" y="-99.8" font-family="Times,serif" font-size="14.00" fill="#000000">ResourceListPopComponent</text>
</g>
<!-- ResourceListPopComponent&#45;&gt;ResourceModule -->
<g id="edge7" class="edge">
<title>ResourceListPopComponent&#45;&gt;ResourceModule</title>
<path fill="none" stroke="#000000" d="M1010,-122.1061C1010,-122.1061 1010,-140.991 1010,-140.991"/>
<polygon fill="#000000" stroke="#000000" points="1006.5001,-140.9909 1010,-150.991 1013.5001,-140.991 1006.5001,-140.9909"/>
</g>
<!-- ResourcePopComponent -->
<g id="node8" class="node">
<title>ResourcePopComponent</title>
<polygon fill="#ffffb3" stroke="#000000" points="903.7007,-122 748.2993,-122 748.2993,-86 903.7007,-86 903.7007,-122"/>
<text text-anchor="middle" x="826" y="-99.8" font-family="Times,serif" font-size="14.00" fill="#000000">ResourcePopComponent</text>
</g>
<!-- ResourcePopComponent&#45;&gt;ResourceModule -->
<g id="edge8" class="edge">
<title>ResourcePopComponent&#45;&gt;ResourceModule</title>
<path fill="none" stroke="#000000" d="M826,-122.0511C826,-136.373 826,-154 826,-154 826,-154 944.2946,-154 944.2946,-154"/>
<polygon fill="#000000" stroke="#000000" points="944.2946,-157.5001 954.2946,-154 944.2946,-150.5001 944.2946,-157.5001"/>
</g>
<!-- ResourceSelectComponent -->
<g id="node9" class="node">
<title>ResourceSelectComponent</title>
<polygon fill="#ffffb3" stroke="#000000" points="730.626,-122 563.374,-122 563.374,-86 730.626,-86 730.626,-122"/>
<text text-anchor="middle" x="647" y="-99.8" font-family="Times,serif" font-size="14.00" fill="#000000">ResourceSelectComponent</text>
</g>
<!-- ResourceSelectComponent&#45;&gt;ResourceModule -->
<g id="edge9" class="edge">
<title>ResourceSelectComponent&#45;&gt;ResourceModule</title>
<path fill="none" stroke="#000000" d="M722.0816,-122.2396C722.0816,-137.5706 722.0816,-157 722.0816,-157 722.0816,-157 944.145,-157 944.145,-157"/>
<polygon fill="#000000" stroke="#000000" points="944.1451,-160.5001 954.145,-157 944.145,-153.5001 944.1451,-160.5001"/>
</g>
<!-- ApiActionbarComponent  -->
<g id="node13" class="node">
<title>ApiActionbarComponent </title>
<polygon fill="#fb8072" stroke="#000000" points="2060.8073,-252 1899.1927,-252 1899.1927,-216 2060.8073,-216 2060.8073,-252"/>
<text text-anchor="middle" x="1980" y="-229.8" font-family="Times,serif" font-size="14.00" fill="#000000">ApiActionbarComponent </text>
</g>
<!-- ResourceModule&#45;&gt;ApiActionbarComponent  -->
<g id="edge12" class="edge">
<title>ResourceModule&#45;&gt;ApiActionbarComponent </title>
<path fill="none" stroke="#000000" stroke-dasharray="5,2" d="M1065.6658,-172C1271.0404,-172 1974.3971,-172 1974.3971,-172 1974.3971,-172 1974.3971,-205.7333 1974.3971,-205.7333"/>
<polygon fill="#000000" stroke="#000000" points="1970.8972,-205.7333 1974.3971,-215.7333 1977.8972,-205.7333 1970.8972,-205.7333"/>
</g>
<!-- ResourceActionbarComponent  -->
<g id="node14" class="node">
<title>ResourceActionbarComponent </title>
<polygon fill="#fb8072" stroke="#000000" points="1881.3956,-252 1688.6044,-252 1688.6044,-216 1881.3956,-216 1881.3956,-252"/>
<text text-anchor="middle" x="1785" y="-229.8" font-family="Times,serif" font-size="14.00" fill="#000000">ResourceActionbarComponent </text>
</g>
<!-- ResourceModule&#45;&gt;ResourceActionbarComponent  -->
<g id="edge13" class="edge">
<title>ResourceModule&#45;&gt;ResourceActionbarComponent </title>
<path fill="none" stroke="#000000" stroke-dasharray="5,2" d="M1065.8701,-175C1240.6819,-175 1765.6299,-175 1765.6299,-175 1765.6299,-175 1765.6299,-205.9775 1765.6299,-205.9775"/>
<polygon fill="#000000" stroke="#000000" points="1762.13,-205.9774 1765.6299,-215.9775 1769.13,-205.9775 1762.13,-205.9774"/>
</g>
<!-- ResourceCrudComponent  -->
<g id="node15" class="node">
<title>ResourceCrudComponent </title>
<polygon fill="#fb8072" stroke="#000000" points="1670.4152,-252 1505.5848,-252 1505.5848,-216 1670.4152,-216 1670.4152,-252"/>
<text text-anchor="middle" x="1588" y="-229.8" font-family="Times,serif" font-size="14.00" fill="#000000">ResourceCrudComponent </text>
</g>
<!-- ResourceModule&#45;&gt;ResourceCrudComponent  -->
<g id="edge14" class="edge">
<title>ResourceModule&#45;&gt;ResourceCrudComponent </title>
<path fill="none" stroke="#000000" stroke-dasharray="5,2" d="M1065.8405,-178C1210.1348,-178 1584.2043,-178 1584.2043,-178 1584.2043,-178 1584.2043,-205.973 1584.2043,-205.973"/>
<polygon fill="#000000" stroke="#000000" points="1580.7043,-205.973 1584.2043,-215.973 1587.7043,-205.973 1580.7043,-205.973"/>
</g>
<!-- ResourceDeletePopComponent  -->
<g id="node16" class="node">
<title>ResourceDeletePopComponent </title>
<polygon fill="#fb8072" stroke="#000000" points="1487.7323,-252 1292.2677,-252 1292.2677,-216 1487.7323,-216 1487.7323,-252"/>
<text text-anchor="middle" x="1390" y="-229.8" font-family="Times,serif" font-size="14.00" fill="#000000">ResourceDeletePopComponent </text>
</g>
<!-- ResourceModule&#45;&gt;ResourceDeletePopComponent  -->
<g id="edge15" class="edge">
<title>ResourceModule&#45;&gt;ResourceDeletePopComponent </title>
<path fill="none" stroke="#000000" stroke-dasharray="5,2" d="M1065.841,-181C1161.3502,-181 1345.8812,-181 1345.8812,-181 1345.8812,-181 1345.8812,-205.7604 1345.8812,-205.7604"/>
<polygon fill="#000000" stroke="#000000" points="1342.3813,-205.7604 1345.8812,-215.7604 1349.3813,-205.7604 1342.3813,-205.7604"/>
</g>
<!-- ResourceFormComponent  -->
<g id="node17" class="node">
<title>ResourceFormComponent </title>
<polygon fill="#fb8072" stroke="#000000" points="1274.752,-252 1107.248,-252 1107.248,-216 1274.752,-216 1274.752,-252"/>
<text text-anchor="middle" x="1191" y="-229.8" font-family="Times,serif" font-size="14.00" fill="#000000">ResourceFormComponent </text>
</g>
<!-- ResourceModule&#45;&gt;ResourceFormComponent  -->
<g id="edge16" class="edge">
<title>ResourceModule&#45;&gt;ResourceFormComponent </title>
<path fill="none" stroke="#000000" stroke-dasharray="5,2" d="M1065.7138,-184C1089.5005,-184 1111.888,-184 1111.888,-184 1111.888,-184 1111.888,-205.9489 1111.888,-205.9489"/>
<polygon fill="#000000" stroke="#000000" points="1108.388,-205.9488 1111.888,-215.9489 1115.388,-205.9489 1108.388,-205.9488"/>
</g>
<!-- ResourceListComponent  -->
<g id="node18" class="node">
<title>ResourceListComponent </title>
<polygon fill="#fb8072" stroke="#000000" points="1089.1967,-252 930.8033,-252 930.8033,-216 1089.1967,-216 1089.1967,-252"/>
<text text-anchor="middle" x="1010" y="-229.8" font-family="Times,serif" font-size="14.00" fill="#000000">ResourceListComponent </text>
</g>
<!-- ResourceModule&#45;&gt;ResourceListComponent  -->
<g id="edge17" class="edge">
<title>ResourceModule&#45;&gt;ResourceListComponent </title>
<path fill="none" stroke="#000000" stroke-dasharray="5,2" d="M1010,-187.1061C1010,-187.1061 1010,-205.991 1010,-205.991"/>
<polygon fill="#000000" stroke="#000000" points="1006.5001,-205.9909 1010,-215.991 1013.5001,-205.991 1006.5001,-205.9909"/>
</g>
<!-- ResourceListPopComponent  -->
<g id="node19" class="node">
<title>ResourceListPopComponent </title>
<polygon fill="#fb8072" stroke="#000000" points="912.4796,-252 731.5204,-252 731.5204,-216 912.4796,-216 912.4796,-252"/>
<text text-anchor="middle" x="822" y="-229.8" font-family="Times,serif" font-size="14.00" fill="#000000">ResourceListPopComponent </text>
</g>
<!-- ResourceModule&#45;&gt;ResourceListPopComponent  -->
<g id="edge18" class="edge">
<title>ResourceModule&#45;&gt;ResourceListPopComponent </title>
<path fill="none" stroke="#000000" stroke-dasharray="5,2" d="M954.1812,-184C930.3496,-184 907.9199,-184 907.9199,-184 907.9199,-184 907.9199,-205.9489 907.9199,-205.9489"/>
<polygon fill="#000000" stroke="#000000" points="904.42,-205.9488 907.9199,-215.9489 911.42,-205.9489 904.42,-205.9488"/>
</g>
<!-- ResourcePopComponent  -->
<g id="node20" class="node">
<title>ResourcePopComponent </title>
<polygon fill="#fb8072" stroke="#000000" points="713.2009,-252 554.7991,-252 554.7991,-216 713.2009,-216 713.2009,-252"/>
<text text-anchor="middle" x="634" y="-229.8" font-family="Times,serif" font-size="14.00" fill="#000000">ResourcePopComponent </text>
</g>
<!-- ResourceModule&#45;&gt;ResourcePopComponent  -->
<g id="edge19" class="edge">
<title>ResourceModule&#45;&gt;ResourcePopComponent </title>
<path fill="none" stroke="#000000" stroke-dasharray="5,2" d="M954.3481,-181C850.6475,-181 638.2688,-181 638.2688,-181 638.2688,-181 638.2688,-205.7604 638.2688,-205.7604"/>
<polygon fill="#000000" stroke="#000000" points="634.7688,-205.7604 638.2688,-215.7604 641.7688,-205.7604 634.7688,-205.7604"/>
</g>
<!-- ResourceSelectComponent  -->
<g id="node21" class="node">
<title>ResourceSelectComponent </title>
<polygon fill="#fb8072" stroke="#000000" points="536.6256,-252 365.3744,-252 365.3744,-216 536.6256,-216 536.6256,-252"/>
<text text-anchor="middle" x="451" y="-229.8" font-family="Times,serif" font-size="14.00" fill="#000000">ResourceSelectComponent </text>
</g>
<!-- ResourceModule&#45;&gt;ResourceSelectComponent  -->
<g id="edge20" class="edge">
<title>ResourceModule&#45;&gt;ResourceSelectComponent </title>
<path fill="none" stroke="#000000" stroke-dasharray="5,2" d="M954.1796,-178C818.7411,-178 483.7435,-178 483.7435,-178 483.7435,-178 483.7435,-205.973 483.7435,-205.973"/>
<polygon fill="#000000" stroke="#000000" points="480.2436,-205.973 483.7435,-215.973 487.2436,-205.973 480.2436,-205.973"/>
</g>
<!-- SdkModule  -->
<g id="node22" class="node">
<title>SdkModule </title>
<polygon fill="#fb8072" stroke="#000000" points="347.3326,-252 262.6674,-252 262.6674,-216 347.3326,-216 347.3326,-252"/>
<text text-anchor="middle" x="305" y="-229.8" font-family="Times,serif" font-size="14.00" fill="#000000">SdkModule </text>
</g>
<!-- ResourceModule&#45;&gt;SdkModule  -->
<g id="edge21" class="edge">
<title>ResourceModule&#45;&gt;SdkModule </title>
<path fill="none" stroke="#000000" stroke-dasharray="5,2" d="M954.3311,-175C789.502,-175 315.3868,-175 315.3868,-175 315.3868,-175 315.3868,-205.9775 315.3868,-205.9775"/>
<polygon fill="#000000" stroke="#000000" points="311.8869,-205.9774 315.3868,-215.9775 318.8869,-205.9775 311.8869,-205.9774"/>
</g>
<!-- UiModule  -->
<g id="node23" class="node">
<title>UiModule </title>
<polygon fill="#fb8072" stroke="#000000" points="244.547,-252 167.453,-252 167.453,-216 244.547,-216 244.547,-252"/>
<text text-anchor="middle" x="206" y="-229.8" font-family="Times,serif" font-size="14.00" fill="#000000">UiModule </text>
</g>
<!-- ResourceModule&#45;&gt;UiModule  -->
<g id="edge22" class="edge">
<title>ResourceModule&#45;&gt;UiModule </title>
<path fill="none" stroke="#000000" stroke-dasharray="5,2" d="M954.0893,-172C773.7928,-172 219.3676,-172 219.3676,-172 219.3676,-172 219.3676,-205.7333 219.3676,-205.7333"/>
<polygon fill="#000000" stroke="#000000" points="215.8675,-205.7333 219.3676,-215.7333 222.8675,-205.7333 215.8675,-205.7333"/>
</g>
<!-- SdkModule -->
<g id="node11" class="node">
<title>SdkModule</title>
<polygon fill="#8dd3c7" stroke="#000000" points="538.8331,-122 535.8331,-126 514.8331,-126 511.8331,-122 457.1669,-122 457.1669,-86 538.8331,-86 538.8331,-122"/>
<text text-anchor="middle" x="498" y="-99.8" font-family="Times,serif" font-size="14.00" fill="#000000">SdkModule</text>
</g>
<!-- SdkModule&#45;&gt;ResourceModule -->
<g id="edge10" class="edge">
<title>SdkModule&#45;&gt;ResourceModule</title>
<path fill="none" stroke="#000000" d="M510.1531,-122.027C510.1531,-138.3976 510.1531,-160 510.1531,-160 510.1531,-160 944.1162,-160 944.1162,-160"/>
<polygon fill="#000000" stroke="#000000" points="944.1162,-163.5001 954.1162,-160 944.1161,-156.5001 944.1162,-163.5001"/>
</g>
<!-- UiModule -->
<g id="node12" class="node">
<title>UiModule</title>
<polygon fill="#8dd3c7" stroke="#000000" points="439.5484,-122 436.5484,-126 415.5484,-126 412.5484,-122 366.4516,-122 366.4516,-86 439.5484,-86 439.5484,-122"/>
<text text-anchor="middle" x="403" y="-99.8" font-family="Times,serif" font-size="14.00" fill="#000000">UiModule</text>
</g>
<!-- UiModule&#45;&gt;ResourceModule -->
<g id="edge11" class="edge">
<title>UiModule&#45;&gt;ResourceModule</title>
<path fill="none" stroke="#000000" d="M403,-122.0225C403,-139.3734 403,-163 403,-163 403,-163 944.2536,-163 944.2536,-163"/>
<polygon fill="#000000" stroke="#000000" points="944.2536,-166.5001 954.2536,-163 944.2535,-159.5001 944.2536,-166.5001"/>
</g>
<!-- ResourceConfig -->
<g id="node24" class="node">
<title>ResourceConfig</title>
<ellipse fill="#fdb462" stroke="#000000" cx="268" cy="-104" rx="73.5772" ry="18"/>
<text text-anchor="middle" x="268" y="-99.8" font-family="Times,serif" font-size="14.00" fill="#000000">ResourceConfig</text>
</g>
<!-- ResourceConfig&#45;&gt;ResourceModule -->
<g id="edge23" class="edge">
<title>ResourceConfig&#45;&gt;ResourceModule</title>
<path fill="none" stroke="#000000" d="M288.9853,-121.2705C288.9853,-139.6158 288.9853,-166 288.9853,-166 288.9853,-166 944.3221,-166 944.3221,-166"/>
<polygon fill="#000000" stroke="#000000" points="944.3221,-169.5001 954.3221,-166 944.3221,-162.5001 944.3221,-169.5001"/>
</g>
<!-- ResourceService -->
<g id="node25" class="node">
<title>ResourceService</title>
<ellipse fill="#fdb462" stroke="#000000" cx="100" cy="-104" rx="75.8393" ry="18"/>
<text text-anchor="middle" x="100" y="-99.8" font-family="Times,serif" font-size="14.00" fill="#000000">ResourceService</text>
</g>
<!-- ResourceService&#45;&gt;ResourceModule -->
<g id="edge24" class="edge">
<title>ResourceService&#45;&gt;ResourceModule</title>
<path fill="none" stroke="#000000" d="M171.698,-109.9985C171.698,-126.0898 171.698,-169 171.698,-169 171.698,-169 944.3475,-169 944.3475,-169"/>
<polygon fill="#000000" stroke="#000000" points="944.3475,-172.5001 954.3475,-169 944.3474,-165.5001 944.3475,-172.5001"/>
</g>
</g>
</svg>
