<?xml version="1.0" encoding="UTF-8" standalone="no"?>
<!DOCTYPE svg PUBLIC "-//W3C//DTD SVG 1.1//EN"
 "http://www.w3.org/Graphics/SVG/1.1/DTD/svg11.dtd">
<!-- Generated by graphviz version 2.40.1 (20161225.0304)
 -->
<!-- Title: dependencies Pages: 1 -->
<svg width="2082pt" height="284pt"
 viewBox="0.00 0.00 2082.00 284.00" xmlns="http://www.w3.org/2000/svg" xmlns:xlink="http://www.w3.org/1999/xlink">
<g id="graph0" class="graph" transform="scale(1 1) rotate(0) translate(4 280)">
<title>dependencies</title>
<polygon fill="#ffffff" stroke="transparent" points="-4,4 -4,-280 2078,-280 2078,4 -4,4"/>
<text text-anchor="start" x="1016.0091" y="-42.4" font-family="sans-serif" font-weight="bold" font-size="14.00" fill="#000000">Legend</text>
<polygon fill="#ffffb3" stroke="transparent" points="803,-10 803,-30 823,-30 823,-10 803,-10"/>
<text text-anchor="start" x="826.629" y="-15.4" font-family="sans-serif" font-size="14.00" fill="#000000"> &#160;Declarations</text>
<polygon fill="#8dd3c7" stroke="transparent" points="916,-10 916,-30 936,-30 936,-10 916,-10"/>
<text text-anchor="start" x="939.7251" y="-15.4" font-family="sans-serif" font-size="14.00" fill="#000000"> &#160;Module</text>
<polygon fill="#80b1d3" stroke="transparent" points="1002,-10 1002,-30 1022,-30 1022,-10 1002,-10"/>
<text text-anchor="start" x="1025.7812" y="-15.4" font-family="sans-serif" font-size="14.00" fill="#000000"> &#160;Bootstrap</text>
<polygon fill="#fdb462" stroke="transparent" points="1099,-10 1099,-30 1119,-30 1119,-10 1099,-10"/>
<text text-anchor="start" x="1122.6732" y="-15.4" font-family="sans-serif" font-size="14.00" fill="#000000"> &#160;Providers</text>
<polygon fill="#fb8072" stroke="transparent" points="1195,-10 1195,-30 1215,-30 1215,-10 1195,-10"/>
<text text-anchor="start" x="1218.7258" y="-15.4" font-family="sans-serif" font-size="14.00" fill="#000000"> &#160;Exports</text>
<g id="clust1" class="cluster">
<title>cluster_ResourceModule</title>
<polygon fill="none" stroke="#000000" stroke-dasharray="1,5" points="8,-70 8,-268 2066,-268 2066,-70 8,-70"/>
</g>
<g id="clust2" class="cluster">
<title>cluster_ResourceModule_declarations</title>
<polygon fill="none" stroke="#000000" points="555,-78 555,-130 2058,-130 2058,-78 555,-78"/>
</g>
<g id="clust11" class="cluster">
<title>cluster_ResourceModule_imports</title>
<polygon fill="none" stroke="#000000" points="358,-78 358,-130 547,-130 547,-78 358,-78"/>
</g>
<g id="clust12" class="cluster">
<title>cluster_ResourceModule_exports</title>
<polygon fill="none" stroke="#000000" points="151,-208 151,-260 1881,-260 1881,-208 151,-208"/>
</g>
<g id="clust14" class="cluster">
<title>cluster_ResourceModule_providers</title>
<polygon fill="none" stroke="#000000" points="16,-78 16,-130 350,-130 350,-78 16,-78"/>
</g>
<!-- ResourceActionbarComponent -->
<g id="node1" class="node">
<title>ResourceActionbarComponent</title>
<polygon fill="#ffffb3" stroke="#000000" points="2049.896,-122 1860.104,-122 1860.104,-86 2049.896,-86 2049.896,-122"/>
<text text-anchor="middle" x="1955" y="-99.8" font-family="Times,serif" font-size="14.00" fill="#000000">ResourceActionbarComponent</text>
</g>
<!-- ResourceModule -->
<g id="node9" class="node">
<title>ResourceModule</title>
<polygon fill="#8dd3c7" stroke="#000000" points="963.636,-187 960.636,-191 939.636,-191 936.636,-187 852.364,-187 852.364,-151 963.636,-151 963.636,-187"/>
<text text-anchor="middle" x="908" y="-164.8" font-family="Times,serif" font-size="14.00" fill="#000000">ResourceModule</text>
</g>
<!-- ResourceActionbarComponent&#45;&gt;ResourceModule -->
<g id="edge1" class="edge">
<title>ResourceActionbarComponent&#45;&gt;ResourceModule</title>
<path fill="none" stroke="#000000" d="M1866.875,-122.1061C1866.875,-141.3391 1866.875,-169 1866.875,-169 1866.875,-169 973.6978,-169 973.6978,-169"/>
<polygon fill="#000000" stroke="#000000" points="973.6978,-165.5001 963.6978,-169 973.6977,-172.5001 973.6978,-165.5001"/>
</g>
<!-- ResourceCrudComponent -->
<g id="node2" class="node">
<title>ResourceCrudComponent</title>
<polygon fill="#ffffb3" stroke="#000000" points="1842.9157,-122 1681.0843,-122 1681.0843,-86 1842.9157,-86 1842.9157,-122"/>
<text text-anchor="middle" x="1762" y="-99.8" font-family="Times,serif" font-size="14.00" fill="#000000">ResourceCrudComponent</text>
</g>
<!-- ResourceCrudComponent&#45;&gt;ResourceModule -->
<g id="edge2" class="edge">
<title>ResourceCrudComponent&#45;&gt;ResourceModule</title>
<path fill="none" stroke="#000000" d="M1788.9025,-122.2667C1788.9025,-140.5552 1788.9025,-166 1788.9025,-166 1788.9025,-166 973.7727,-166 973.7727,-166"/>
<polygon fill="#000000" stroke="#000000" points="973.7727,-162.5001 963.7727,-166 973.7727,-169.5001 973.7727,-162.5001"/>
</g>
<!-- ResourceDeletePopComponent -->
<g id="node3" class="node">
<title>ResourceDeletePopComponent</title>
<polygon fill="#ffffb3" stroke="#000000" points="1662.7324,-122 1471.2676,-122 1471.2676,-86 1662.7324,-86 1662.7324,-122"/>
<text text-anchor="middle" x="1567" y="-99.8" font-family="Times,serif" font-size="14.00" fill="#000000">ResourceDeletePopComponent</text>
</g>
<!-- ResourceDeletePopComponent&#45;&gt;ResourceModule -->
<g id="edge3" class="edge">
<title>ResourceDeletePopComponent&#45;&gt;ResourceModule</title>
<path fill="none" stroke="#000000" d="M1475.375,-122.0336C1475.375,-139.0597 1475.375,-162 1475.375,-162 1475.375,-162 973.6949,-162 973.6949,-162"/>
<polygon fill="#000000" stroke="#000000" points="973.6949,-158.5001 963.6949,-162 973.6948,-165.5001 973.6949,-158.5001"/>
</g>
<!-- ResourceFormComponent -->
<g id="node4" class="node">
<title>ResourceFormComponent</title>
<polygon fill="#ffffb3" stroke="#000000" points="1452.752,-122 1289.248,-122 1289.248,-86 1452.752,-86 1452.752,-122"/>
<text text-anchor="middle" x="1371" y="-99.8" font-family="Times,serif" font-size="14.00" fill="#000000">ResourceFormComponent</text>
</g>
<!-- ResourceFormComponent&#45;&gt;ResourceModule -->
<g id="edge4" class="edge">
<title>ResourceFormComponent&#45;&gt;ResourceModule</title>
<path fill="none" stroke="#000000" d="M1398.292,-122.0091C1398.292,-138.0494 1398.292,-159 1398.292,-159 1398.292,-159 973.7654,-159 973.7654,-159"/>
<polygon fill="#000000" stroke="#000000" points="973.7654,-155.5001 963.7654,-159 973.7653,-162.5001 973.7654,-155.5001"/>
</g>
<!-- ResourceListComponent -->
<g id="node5" class="node">
<title>ResourceListComponent</title>
<polygon fill="#ffffb3" stroke="#000000" points="1271.6965,-122 1116.3035,-122 1116.3035,-86 1271.6965,-86 1271.6965,-122"/>
<text text-anchor="middle" x="1194" y="-99.8" font-family="Times,serif" font-size="14.00" fill="#000000">ResourceListComponent</text>
</g>
<!-- ResourceListComponent&#45;&gt;ResourceModule -->
<g id="edge5" class="edge">
<title>ResourceListComponent&#45;&gt;ResourceModule</title>
<path fill="none" stroke="#000000" d="M1191.5139,-122.1243C1191.5139,-136.7832 1191.5139,-155 1191.5139,-155 1191.5139,-155 973.6749,-155 973.6749,-155"/>
<polygon fill="#000000" stroke="#000000" points="973.675,-151.5001 963.6749,-155 973.6749,-158.5001 973.675,-151.5001"/>
</g>
<!-- ResourceListPopComponent -->
<g id="node6" class="node">
<title>ResourceListPopComponent</title>
<polygon fill="#ffffb3" stroke="#000000" points="1098.479,-122 921.521,-122 921.521,-86 1098.479,-86 1098.479,-122"/>
<text text-anchor="middle" x="1010" y="-99.8" font-family="Times,serif" font-size="14.00" fill="#000000">ResourceListPopComponent</text>
</g>
<!-- ResourceListPopComponent&#45;&gt;ResourceModule -->
<g id="edge6" class="edge">
<title>ResourceListPopComponent&#45;&gt;ResourceModule</title>
<path fill="none" stroke="#000000" d="M942.6641,-122.1061C942.6641,-122.1061 942.6641,-140.991 942.6641,-140.991"/>
<polygon fill="#000000" stroke="#000000" points="939.1642,-140.9909 942.6641,-150.991 946.1642,-140.991 939.1642,-140.9909"/>
</g>
<!-- ResourcePopComponent -->
<g id="node7" class="node">
<title>ResourcePopComponent</title>
<polygon fill="#ffffb3" stroke="#000000" points="903.7007,-122 748.2993,-122 748.2993,-86 903.7007,-86 903.7007,-122"/>
<text text-anchor="middle" x="826" y="-99.8" font-family="Times,serif" font-size="14.00" fill="#000000">ResourcePopComponent</text>
</g>
<!-- ResourcePopComponent&#45;&gt;ResourceModule -->
<g id="edge7" class="edge">
<title>ResourcePopComponent&#45;&gt;ResourceModule</title>
<path fill="none" stroke="#000000" d="M877.8913,-122.1061C877.8913,-122.1061 877.8913,-140.991 877.8913,-140.991"/>
<polygon fill="#000000" stroke="#000000" points="874.3914,-140.9909 877.8913,-150.991 881.3914,-140.991 874.3914,-140.9909"/>
</g>
<!-- ResourceSelectComponent -->
<g id="node8" class="node">
<title>ResourceSelectComponent</title>
<polygon fill="#ffffb3" stroke="#000000" points="730.626,-122 563.374,-122 563.374,-86 730.626,-86 730.626,-122"/>
<text text-anchor="middle" x="647" y="-99.8" font-family="Times,serif" font-size="14.00" fill="#000000">ResourceSelectComponent</text>
</g>
<!-- ResourceSelectComponent&#45;&gt;ResourceModule -->
<g id="edge8" class="edge">
<title>ResourceSelectComponent&#45;&gt;ResourceModule</title>
<path fill="none" stroke="#000000" d="M727.2867,-122.1243C727.2867,-136.7832 727.2867,-155 727.2867,-155 727.2867,-155 842.3055,-155 842.3055,-155"/>
<polygon fill="#000000" stroke="#000000" points="842.3055,-158.5001 852.3055,-155 842.3054,-151.5001 842.3055,-158.5001"/>
</g>
<!-- ResourceActionbarComponent  -->
<g id="node12" class="node">
<title>ResourceActionbarComponent </title>
<polygon fill="#fb8072" stroke="#000000" points="1873.3956,-252 1680.6044,-252 1680.6044,-216 1873.3956,-216 1873.3956,-252"/>
<text text-anchor="middle" x="1777" y="-229.8" font-family="Times,serif" font-size="14.00" fill="#000000">ResourceActionbarComponent </text>
</g>
<!-- ResourceModule&#45;&gt;ResourceActionbarComponent  -->
<g id="edge11" class="edge">
<title>ResourceModule&#45;&gt;ResourceActionbarComponent </title>
<path fill="none" stroke="#000000" stroke-dasharray="5,2" d="M963.8756,-173C1149.6778,-173 1735.0975,-173 1735.0975,-173 1735.0975,-173 1735.0975,-205.698 1735.0975,-205.698"/>
<polygon fill="#000000" stroke="#000000" points="1731.5976,-205.698 1735.0975,-215.698 1738.5976,-205.698 1731.5976,-205.698"/>
</g>
<!-- ResourceCrudComponent  -->
<g id="node13" class="node">
<title>ResourceCrudComponent </title>
<polygon fill="#fb8072" stroke="#000000" points="1662.4152,-252 1497.5848,-252 1497.5848,-216 1662.4152,-216 1662.4152,-252"/>
<text text-anchor="middle" x="1580" y="-229.8" font-family="Times,serif" font-size="14.00" fill="#000000">ResourceCrudComponent </text>
</g>
<!-- ResourceModule&#45;&gt;ResourceCrudComponent  -->
<g id="edge12" class="edge">
<title>ResourceModule&#45;&gt;ResourceCrudComponent </title>
<path fill="none" stroke="#000000" stroke-dasharray="5,2" d="M963.8511,-177C1125.1071,-177 1580,-177 1580,-177 1580,-177 1580,-205.9648 1580,-205.9648"/>
<polygon fill="#000000" stroke="#000000" points="1576.5001,-205.9648 1580,-215.9648 1583.5001,-205.9649 1576.5001,-205.9648"/>
</g>
<!-- ResourceDeletePopComponent  -->
<g id="node14" class="node">
<title>ResourceDeletePopComponent </title>
<polygon fill="#fb8072" stroke="#000000" points="1479.7323,-252 1284.2677,-252 1284.2677,-216 1479.7323,-216 1479.7323,-252"/>
<text text-anchor="middle" x="1382" y="-229.8" font-family="Times,serif" font-size="14.00" fill="#000000">ResourceDeletePopComponent </text>
</g>
<!-- ResourceModule&#45;&gt;ResourceDeletePopComponent  -->
<g id="edge13" class="edge">
<title>ResourceModule&#45;&gt;ResourceDeletePopComponent </title>
<path fill="none" stroke="#000000" stroke-dasharray="5,2" d="M964.0692,-180C1081.747,-180 1343.708,-180 1343.708,-180 1343.708,-180 1343.708,-205.7181 1343.708,-205.7181"/>
<polygon fill="#000000" stroke="#000000" points="1340.2081,-205.718 1343.708,-215.7181 1347.2081,-205.7181 1340.2081,-205.718"/>
</g>
<!-- ResourceFormComponent  -->
<g id="node15" class="node">
<title>ResourceFormComponent </title>
<polygon fill="#fb8072" stroke="#000000" points="1266.752,-252 1099.248,-252 1099.248,-216 1266.752,-216 1266.752,-252"/>
<text text-anchor="middle" x="1183" y="-229.8" font-family="Times,serif" font-size="14.00" fill="#000000">ResourceFormComponent </text>
</g>
<!-- ResourceModule&#45;&gt;ResourceFormComponent  -->
<g id="edge14" class="edge">
<title>ResourceModule&#45;&gt;ResourceFormComponent </title>
<path fill="none" stroke="#000000" stroke-dasharray="5,2" d="M963.6799,-184C1022.8252,-184 1107.888,-184 1107.888,-184 1107.888,-184 1107.888,-205.9489 1107.888,-205.9489"/>
<polygon fill="#000000" stroke="#000000" points="1104.388,-205.9488 1107.888,-215.9489 1111.388,-205.9489 1104.388,-205.9488"/>
</g>
<!-- ResourceListComponent  -->
<g id="node16" class="node">
<title>ResourceListComponent </title>
<polygon fill="#fb8072" stroke="#000000" points="1081.1967,-252 922.8033,-252 922.8033,-216 1081.1967,-216 1081.1967,-252"/>
<text text-anchor="middle" x="1002" y="-229.8" font-family="Times,serif" font-size="14.00" fill="#000000">ResourceListComponent </text>
</g>
<!-- ResourceModule&#45;&gt;ResourceListComponent  -->
<g id="edge15" class="edge">
<title>ResourceModule&#45;&gt;ResourceListComponent </title>
<path fill="none" stroke="#000000" stroke-dasharray="5,2" d="M943.2348,-187.1061C943.2348,-187.1061 943.2348,-205.991 943.2348,-205.991"/>
<polygon fill="#000000" stroke="#000000" points="939.7348,-205.9909 943.2348,-215.991 946.7348,-205.991 939.7348,-205.9909"/>
</g>
<!-- ResourceListPopComponent  -->
<g id="node17" class="node">
<title>ResourceListPopComponent </title>
<polygon fill="#fb8072" stroke="#000000" points="904.4796,-252 723.5204,-252 723.5204,-216 904.4796,-216 904.4796,-252"/>
<text text-anchor="middle" x="814" y="-229.8" font-family="Times,serif" font-size="14.00" fill="#000000">ResourceListPopComponent </text>
</g>
<!-- ResourceModule&#45;&gt;ResourceListPopComponent  -->
<g id="edge16" class="edge">
<title>ResourceModule&#45;&gt;ResourceListPopComponent </title>
<path fill="none" stroke="#000000" stroke-dasharray="5,2" d="M878.2109,-187.1061C878.2109,-187.1061 878.2109,-205.991 878.2109,-205.991"/>
<polygon fill="#000000" stroke="#000000" points="874.711,-205.9909 878.2109,-215.991 881.711,-205.991 874.711,-205.9909"/>
</g>
<!-- ResourcePopComponent  -->
<g id="node18" class="node">
<title>ResourcePopComponent </title>
<polygon fill="#fb8072" stroke="#000000" points="705.2009,-252 546.7991,-252 546.7991,-216 705.2009,-216 705.2009,-252"/>
<text text-anchor="middle" x="626" y="-229.8" font-family="Times,serif" font-size="14.00" fill="#000000">ResourcePopComponent </text>
</g>
<!-- ResourceModule&#45;&gt;ResourcePopComponent  -->
<g id="edge17" class="edge">
<title>ResourceModule&#45;&gt;ResourcePopComponent </title>
<path fill="none" stroke="#000000" stroke-dasharray="5,2" d="M852.2765,-184C772.2415,-184 634.2688,-184 634.2688,-184 634.2688,-184 634.2688,-205.9489 634.2688,-205.9489"/>
<polygon fill="#000000" stroke="#000000" points="630.7688,-205.9488 634.2688,-215.9489 637.7688,-205.9489 630.7688,-205.9488"/>
</g>
<!-- ResourceSelectComponent  -->
<g id="node19" class="node">
<title>ResourceSelectComponent </title>
<polygon fill="#fb8072" stroke="#000000" points="528.6256,-252 357.3744,-252 357.3744,-216 528.6256,-216 528.6256,-252"/>
<text text-anchor="middle" x="443" y="-229.8" font-family="Times,serif" font-size="14.00" fill="#000000">ResourceSelectComponent </text>
</g>
<!-- ResourceModule&#45;&gt;ResourceSelectComponent  -->
<g id="edge18" class="edge">
<title>ResourceModule&#45;&gt;ResourceSelectComponent </title>
<path fill="none" stroke="#000000" stroke-dasharray="5,2" d="M852.0243,-180C738.7329,-180 492.9483,-180 492.9483,-180 492.9483,-180 492.9483,-205.7181 492.9483,-205.7181"/>
<polygon fill="#000000" stroke="#000000" points="489.4484,-205.718 492.9483,-215.7181 496.4484,-205.7181 489.4484,-205.718"/>
</g>
<!-- SdkModule  -->
<g id="node20" class="node">
<title>SdkModule </title>
<polygon fill="#fb8072" stroke="#000000" points="339.3326,-252 254.6674,-252 254.6674,-216 339.3326,-216 339.3326,-252"/>
<text text-anchor="middle" x="297" y="-229.8" font-family="Times,serif" font-size="14.00" fill="#000000">SdkModule </text>
</g>
<!-- ResourceModule&#45;&gt;SdkModule  -->
<g id="edge19" class="edge">
<title>ResourceModule&#45;&gt;SdkModule </title>
<path fill="none" stroke="#000000" stroke-dasharray="5,2" d="M852.117,-177C703.741,-177 311.1387,-177 311.1387,-177 311.1387,-177 311.1387,-205.9648 311.1387,-205.9648"/>
<polygon fill="#000000" stroke="#000000" points="307.6388,-205.9648 311.1387,-215.9648 314.6388,-205.9649 307.6388,-205.9648"/>
</g>
<!-- UiModule  -->
<g id="node21" class="node">
<title>UiModule </title>
<polygon fill="#fb8072" stroke="#000000" points="236.547,-252 159.453,-252 159.453,-216 236.547,-216 236.547,-252"/>
<text text-anchor="middle" x="198" y="-229.8" font-family="Times,serif" font-size="14.00" fill="#000000">UiModule </text>
</g>
<!-- ResourceModule&#45;&gt;UiModule  -->
<g id="edge20" class="edge">
<title>ResourceModule&#45;&gt;UiModule </title>
<path fill="none" stroke="#000000" stroke-dasharray="5,2" d="M852.1981,-173C687.5721,-173 215.3676,-173 215.3676,-173 215.3676,-173 215.3676,-205.698 215.3676,-205.698"/>
<polygon fill="#000000" stroke="#000000" points="211.8675,-205.698 215.3676,-215.698 218.8675,-205.698 211.8675,-205.698"/>
</g>
<!-- SdkModule -->
<g id="node10" class="node">
<title>SdkModule</title>
<polygon fill="#8dd3c7" stroke="#000000" points="538.8331,-122 535.8331,-126 514.8331,-126 511.8331,-122 457.1669,-122 457.1669,-86 538.8331,-86 538.8331,-122"/>
<text text-anchor="middle" x="498" y="-99.8" font-family="Times,serif" font-size="14.00" fill="#000000">SdkModule</text>
</g>
<!-- SdkModule&#45;&gt;ResourceModule -->
<g id="edge9" class="edge">
<title>SdkModule&#45;&gt;ResourceModule</title>
<path fill="none" stroke="#000000" d="M533.6145,-122.0091C533.6145,-138.0494 533.6145,-159 533.6145,-159 533.6145,-159 842.355,-159 842.355,-159"/>
<polygon fill="#000000" stroke="#000000" points="842.355,-162.5001 852.355,-159 842.3549,-155.5001 842.355,-162.5001"/>
</g>
<!-- UiModule -->
<g id="node11" class="node">
<title>UiModule</title>
<polygon fill="#8dd3c7" stroke="#000000" points="439.5484,-122 436.5484,-126 415.5484,-126 412.5484,-122 366.4516,-122 366.4516,-86 439.5484,-86 439.5484,-122"/>
<text text-anchor="middle" x="403" y="-99.8" font-family="Times,serif" font-size="14.00" fill="#000000">UiModule</text>
</g>
<!-- UiModule&#45;&gt;ResourceModule -->
<g id="edge10" class="edge">
<title>UiModule&#45;&gt;ResourceModule</title>
<path fill="none" stroke="#000000" d="M403,-122.0336C403,-139.0597 403,-162 403,-162 403,-162 842.0267,-162 842.0267,-162"/>
<polygon fill="#000000" stroke="#000000" points="842.0267,-165.5001 852.0267,-162 842.0266,-158.5001 842.0267,-165.5001"/>
</g>
<!-- ResourceConfig -->
<g id="node22" class="node">
<title>ResourceConfig</title>
<ellipse fill="#fdb462" stroke="#000000" cx="268" cy="-104" rx="73.5772" ry="18"/>
<text text-anchor="middle" x="268" y="-99.8" font-family="Times,serif" font-size="14.00" fill="#000000">ResourceConfig</text>
</g>
<!-- ResourceConfig&#45;&gt;ResourceModule -->
<g id="edge21" class="edge">
<title>ResourceConfig&#45;&gt;ResourceModule</title>
<path fill="none" stroke="#000000" d="M282.8613,-121.933C282.8613,-140.2439 282.8613,-166 282.8613,-166 282.8613,-166 842.2483,-166 842.2483,-166"/>
<polygon fill="#000000" stroke="#000000" points="842.2483,-169.5001 852.2483,-166 842.2483,-162.5001 842.2483,-169.5001"/>
</g>
<!-- ResourceService -->
<g id="node23" class="node">
<title>ResourceService</title>
<ellipse fill="#fdb462" stroke="#000000" cx="100" cy="-104" rx="75.8393" ry="18"/>
<text text-anchor="middle" x="100" y="-99.8" font-family="Times,serif" font-size="14.00" fill="#000000">ResourceService</text>
</g>
<!-- ResourceService&#45;&gt;ResourceModule -->
<g id="edge22" class="edge">
<title>ResourceService&#45;&gt;ResourceModule</title>
<path fill="none" stroke="#000000" d="M167.698,-112.2323C167.698,-129.7229 167.698,-169 167.698,-169 167.698,-169 842.357,-169 842.357,-169"/>
<polygon fill="#000000" stroke="#000000" points="842.3571,-172.5001 852.357,-169 842.357,-165.5001 842.3571,-172.5001"/>
</g>
</g>
</svg>
