<?xml version="1.0" encoding="UTF-8" standalone="no"?>
<!DOCTYPE svg PUBLIC "-//W3C//DTD SVG 1.1//EN"
 "http://www.w3.org/Graphics/SVG/1.1/DTD/svg11.dtd">
<!-- Generated by graphviz version 2.40.1 (20161225.0304)
 -->
<!-- Title: dependencies Pages: 1 -->
<svg width="1875pt" height="284pt"
 viewBox="0.00 0.00 1875.00 284.00" xmlns="http://www.w3.org/2000/svg" xmlns:xlink="http://www.w3.org/1999/xlink">
<g id="graph0" class="graph" transform="scale(1 1) rotate(0) translate(4 280)">
<title>dependencies</title>
<polygon fill="#ffffff" stroke="transparent" points="-4,4 -4,-280 1871,-280 1871,4 -4,4"/>
<text text-anchor="start" x="912.5091" y="-42.4" font-family="sans-serif" font-weight="bold" font-size="14.00" fill="#000000">Legend</text>
<polygon fill="#ffffb3" stroke="transparent" points="699.5,-10 699.5,-30 719.5,-30 719.5,-10 699.5,-10"/>
<text text-anchor="start" x="723.129" y="-15.4" font-family="sans-serif" font-size="14.00" fill="#000000"> &#160;Declarations</text>
<polygon fill="#8dd3c7" stroke="transparent" points="812.5,-10 812.5,-30 832.5,-30 832.5,-10 812.5,-10"/>
<text text-anchor="start" x="836.2251" y="-15.4" font-family="sans-serif" font-size="14.00" fill="#000000"> &#160;Module</text>
<polygon fill="#80b1d3" stroke="transparent" points="898.5,-10 898.5,-30 918.5,-30 918.5,-10 898.5,-10"/>
<text text-anchor="start" x="922.2812" y="-15.4" font-family="sans-serif" font-size="14.00" fill="#000000"> &#160;Bootstrap</text>
<polygon fill="#fdb462" stroke="transparent" points="995.5,-10 995.5,-30 1015.5,-30 1015.5,-10 995.5,-10"/>
<text text-anchor="start" x="1019.1732" y="-15.4" font-family="sans-serif" font-size="14.00" fill="#000000"> &#160;Providers</text>
<polygon fill="#fb8072" stroke="transparent" points="1091.5,-10 1091.5,-30 1111.5,-30 1111.5,-10 1091.5,-10"/>
<text text-anchor="start" x="1115.2258" y="-15.4" font-family="sans-serif" font-size="14.00" fill="#000000"> &#160;Exports</text>
<g id="clust1" class="cluster">
<title>cluster_ResourceModule</title>
<polygon fill="none" stroke="#000000" stroke-dasharray="1,5" points="8,-70 8,-268 1859,-268 1859,-70 8,-70"/>
</g>
<g id="clust2" class="cluster">
<title>cluster_ResourceModule_declarations</title>
<polygon fill="none" stroke="#000000" points="555,-78 555,-130 1851,-130 1851,-78 555,-78"/>
</g>
<g id="clust10" class="cluster">
<title>cluster_ResourceModule_imports</title>
<polygon fill="none" stroke="#000000" points="358,-78 358,-130 547,-130 547,-78 358,-78"/>
</g>
<g id="clust11" class="cluster">
<title>cluster_ResourceModule_exports</title>
<polygon fill="none" stroke="#000000" points="163,-208 163,-260 1682,-260 1682,-208 163,-208"/>
</g>
<g id="clust13" class="cluster">
<title>cluster_ResourceModule_providers</title>
<polygon fill="none" stroke="#000000" points="16,-78 16,-130 350,-130 350,-78 16,-78"/>
</g>
<!-- ResourceCrudComponent -->
<g id="node1" class="node">
<title>ResourceCrudComponent</title>
<polygon fill="#ffffb3" stroke="#000000" points="1842.9157,-122 1681.0843,-122 1681.0843,-86 1842.9157,-86 1842.9157,-122"/>
<text text-anchor="middle" x="1762" y="-99.8" font-family="Times,serif" font-size="14.00" fill="#000000">ResourceCrudComponent</text>
</g>
<!-- ResourceModule -->
<g id="node8" class="node">
<title>ResourceModule</title>
<polygon fill="#8dd3c7" stroke="#000000" points="881.636,-187 878.636,-191 857.636,-191 854.636,-187 770.364,-187 770.364,-151 881.636,-151 881.636,-187"/>
<text text-anchor="middle" x="826" y="-164.8" font-family="Times,serif" font-size="14.00" fill="#000000">ResourceModule</text>
</g>
<!-- ResourceCrudComponent&#45;&gt;ResourceModule -->
<g id="edge1" class="edge">
<title>ResourceCrudComponent&#45;&gt;ResourceModule</title>
<path fill="none" stroke="#000000" d="M1762,-122.1061C1762,-141.3391 1762,-169 1762,-169 1762,-169 891.748,-169 891.748,-169"/>
<polygon fill="#000000" stroke="#000000" points="891.748,-165.5001 881.748,-169 891.748,-172.5001 891.748,-165.5001"/>
</g>
<!-- ResourceDeletePopComponent -->
<g id="node2" class="node">
<title>ResourceDeletePopComponent</title>
<polygon fill="#ffffb3" stroke="#000000" points="1662.7324,-122 1471.2676,-122 1471.2676,-86 1662.7324,-86 1662.7324,-122"/>
<text text-anchor="middle" x="1567" y="-99.8" font-family="Times,serif" font-size="14.00" fill="#000000">ResourceDeletePopComponent</text>
</g>
<!-- ResourceDeletePopComponent&#45;&gt;ResourceModule -->
<g id="edge2" class="edge">
<title>ResourceDeletePopComponent&#45;&gt;ResourceModule</title>
<path fill="none" stroke="#000000" d="M1481.375,-122.2667C1481.375,-140.5552 1481.375,-166 1481.375,-166 1481.375,-166 891.8769,-166 891.8769,-166"/>
<polygon fill="#000000" stroke="#000000" points="891.8769,-162.5001 881.8769,-166 891.8769,-169.5001 891.8769,-162.5001"/>
</g>
<!-- ResourceFormComponent -->
<g id="node3" class="node">
<title>ResourceFormComponent</title>
<polygon fill="#ffffb3" stroke="#000000" points="1452.752,-122 1289.248,-122 1289.248,-86 1452.752,-86 1452.752,-122"/>
<text text-anchor="middle" x="1371" y="-99.8" font-family="Times,serif" font-size="14.00" fill="#000000">ResourceFormComponent</text>
</g>
<!-- ResourceFormComponent&#45;&gt;ResourceModule -->
<g id="edge3" class="edge">
<title>ResourceFormComponent&#45;&gt;ResourceModule</title>
<path fill="none" stroke="#000000" d="M1292.754,-122.0336C1292.754,-139.0597 1292.754,-162 1292.754,-162 1292.754,-162 891.8378,-162 891.8378,-162"/>
<polygon fill="#000000" stroke="#000000" points="891.8379,-158.5001 881.8378,-162 891.8378,-165.5001 891.8379,-158.5001"/>
</g>
<!-- ResourceListComponent -->
<g id="node4" class="node">
<title>ResourceListComponent</title>
<polygon fill="#ffffb3" stroke="#000000" points="1271.6965,-122 1116.3035,-122 1116.3035,-86 1271.6965,-86 1271.6965,-122"/>
<text text-anchor="middle" x="1194" y="-99.8" font-family="Times,serif" font-size="14.00" fill="#000000">ResourceListComponent</text>
</g>
<!-- ResourceListComponent&#45;&gt;ResourceModule -->
<g id="edge4" class="edge">
<title>ResourceListComponent&#45;&gt;ResourceModule</title>
<path fill="none" stroke="#000000" d="M1219.8661,-122.0091C1219.8661,-138.0494 1219.8661,-159 1219.8661,-159 1219.8661,-159 892.0131,-159 892.0131,-159"/>
<polygon fill="#000000" stroke="#000000" points="892.0132,-155.5001 882.0131,-159 892.0131,-162.5001 892.0132,-155.5001"/>
</g>
<!-- ResourceListPopComponent -->
<g id="node5" class="node">
<title>ResourceListPopComponent</title>
<polygon fill="#ffffb3" stroke="#000000" points="1098.479,-122 921.521,-122 921.521,-86 1098.479,-86 1098.479,-122"/>
<text text-anchor="middle" x="1010" y="-99.8" font-family="Times,serif" font-size="14.00" fill="#000000">ResourceListPopComponent</text>
</g>
<!-- ResourceListPopComponent&#45;&gt;ResourceModule -->
<g id="edge5" class="edge">
<title>ResourceListPopComponent&#45;&gt;ResourceModule</title>
<path fill="none" stroke="#000000" d="M928.0812,-122.1243C928.0812,-136.7832 928.0812,-155 928.0812,-155 928.0812,-155 891.8194,-155 891.8194,-155"/>
<polygon fill="#000000" stroke="#000000" points="891.8194,-151.5001 881.8194,-155 891.8194,-158.5001 891.8194,-151.5001"/>
</g>
<!-- ResourcePopComponent -->
<g id="node6" class="node">
<title>ResourcePopComponent</title>
<polygon fill="#ffffb3" stroke="#000000" points="903.7007,-122 748.2993,-122 748.2993,-86 903.7007,-86 903.7007,-122"/>
<text text-anchor="middle" x="826" y="-99.8" font-family="Times,serif" font-size="14.00" fill="#000000">ResourcePopComponent</text>
</g>
<!-- ResourcePopComponent&#45;&gt;ResourceModule -->
<g id="edge6" class="edge">
<title>ResourcePopComponent&#45;&gt;ResourceModule</title>
<path fill="none" stroke="#000000" d="M826,-122.1061C826,-122.1061 826,-140.991 826,-140.991"/>
<polygon fill="#000000" stroke="#000000" points="822.5001,-140.9909 826,-150.991 829.5001,-140.991 822.5001,-140.9909"/>
</g>
<!-- ResourceSelectComponent -->
<g id="node7" class="node">
<title>ResourceSelectComponent</title>
<polygon fill="#ffffb3" stroke="#000000" points="730.626,-122 563.374,-122 563.374,-86 730.626,-86 730.626,-122"/>
<text text-anchor="middle" x="647" y="-99.8" font-family="Times,serif" font-size="14.00" fill="#000000">ResourceSelectComponent</text>
</g>
<!-- ResourceSelectComponent&#45;&gt;ResourceModule -->
<g id="edge7" class="edge">
<title>ResourceSelectComponent&#45;&gt;ResourceModule</title>
<path fill="none" stroke="#000000" d="M724.0816,-122.1243C724.0816,-136.7832 724.0816,-155 724.0816,-155 724.0816,-155 760.2696,-155 760.2696,-155"/>
<polygon fill="#000000" stroke="#000000" points="760.2696,-158.5001 770.2696,-155 760.2695,-151.5001 760.2696,-158.5001"/>
</g>
<!-- ResourceCrudComponent  -->
<g id="node11" class="node">
<title>ResourceCrudComponent </title>
<polygon fill="#fb8072" stroke="#000000" points="1674.4152,-252 1509.5848,-252 1509.5848,-216 1674.4152,-216 1674.4152,-252"/>
<text text-anchor="middle" x="1592" y="-229.8" font-family="Times,serif" font-size="14.00" fill="#000000">ResourceCrudComponent </text>
</g>
<!-- ResourceModule&#45;&gt;ResourceCrudComponent  -->
<g id="edge10" class="edge">
<title>ResourceModule&#45;&gt;ResourceCrudComponent </title>
<path fill="none" stroke="#000000" stroke-dasharray="5,2" d="M881.8996,-173C1057.4594,-173 1586.2043,-173 1586.2043,-173 1586.2043,-173 1586.2043,-205.698 1586.2043,-205.698"/>
<polygon fill="#000000" stroke="#000000" points="1582.7043,-205.698 1586.2043,-215.698 1589.7043,-205.698 1582.7043,-205.698"/>
</g>
<!-- ResourceDeletePopComponent  -->
<g id="node12" class="node">
<title>ResourceDeletePopComponent </title>
<polygon fill="#fb8072" stroke="#000000" points="1491.7323,-252 1296.2677,-252 1296.2677,-216 1491.7323,-216 1491.7323,-252"/>
<text text-anchor="middle" x="1394" y="-229.8" font-family="Times,serif" font-size="14.00" fill="#000000">ResourceDeletePopComponent </text>
</g>
<!-- ResourceModule&#45;&gt;ResourceDeletePopComponent  -->
<g id="edge11" class="edge">
<title>ResourceModule&#45;&gt;ResourceDeletePopComponent </title>
<path fill="none" stroke="#000000" stroke-dasharray="5,2" d="M881.8795,-177C1021.5324,-177 1374.6299,-177 1374.6299,-177 1374.6299,-177 1374.6299,-205.9648 1374.6299,-205.9648"/>
<polygon fill="#000000" stroke="#000000" points="1371.13,-205.9648 1374.6299,-215.9648 1378.13,-205.9649 1371.13,-205.9648"/>
</g>
<!-- ResourceFormComponent  -->
<g id="node13" class="node">
<title>ResourceFormComponent </title>
<polygon fill="#fb8072" stroke="#000000" points="1278.752,-252 1111.248,-252 1111.248,-216 1278.752,-216 1278.752,-252"/>
<text text-anchor="middle" x="1195" y="-229.8" font-family="Times,serif" font-size="14.00" fill="#000000">ResourceFormComponent </text>
</g>
<!-- ResourceModule&#45;&gt;ResourceFormComponent  -->
<g id="edge12" class="edge">
<title>ResourceModule&#45;&gt;ResourceFormComponent </title>
<path fill="none" stroke="#000000" stroke-dasharray="5,2" d="M881.7312,-180C978.6789,-180 1168.1339,-180 1168.1339,-180 1168.1339,-180 1168.1339,-205.7181 1168.1339,-205.7181"/>
<polygon fill="#000000" stroke="#000000" points="1164.634,-205.718 1168.1339,-215.7181 1171.634,-205.7181 1164.634,-205.718"/>
</g>
<!-- ResourceListComponent  -->
<g id="node14" class="node">
<title>ResourceListComponent </title>
<polygon fill="#fb8072" stroke="#000000" points="1093.1967,-252 934.8033,-252 934.8033,-216 1093.1967,-216 1093.1967,-252"/>
<text text-anchor="middle" x="1014" y="-229.8" font-family="Times,serif" font-size="14.00" fill="#000000">ResourceListComponent </text>
</g>
<!-- ResourceModule&#45;&gt;ResourceListComponent  -->
<g id="edge13" class="edge">
<title>ResourceModule&#45;&gt;ResourceListComponent </title>
<path fill="none" stroke="#000000" stroke-dasharray="5,2" d="M881.6431,-184C937.0798,-184 1014,-184 1014,-184 1014,-184 1014,-205.9489 1014,-205.9489"/>
<polygon fill="#000000" stroke="#000000" points="1010.5001,-205.9488 1014,-215.9489 1017.5001,-205.9489 1010.5001,-205.9488"/>
</g>
<!-- ResourceListPopComponent  -->
<g id="node15" class="node">
<title>ResourceListPopComponent </title>
<polygon fill="#fb8072" stroke="#000000" points="916.4796,-252 735.5204,-252 735.5204,-216 916.4796,-216 916.4796,-252"/>
<text text-anchor="middle" x="826" y="-229.8" font-family="Times,serif" font-size="14.00" fill="#000000">ResourceListPopComponent </text>
</g>
<!-- ResourceModule&#45;&gt;ResourceListPopComponent  -->
<g id="edge14" class="edge">
<title>ResourceModule&#45;&gt;ResourceListPopComponent </title>
<path fill="none" stroke="#000000" stroke-dasharray="5,2" d="M826,-187.1061C826,-187.1061 826,-205.991 826,-205.991"/>
<polygon fill="#000000" stroke="#000000" points="822.5001,-205.9909 826,-215.991 829.5001,-205.991 822.5001,-205.9909"/>
</g>
<!-- ResourcePopComponent  -->
<g id="node16" class="node">
<title>ResourcePopComponent </title>
<polygon fill="#fb8072" stroke="#000000" points="717.2009,-252 558.7991,-252 558.7991,-216 717.2009,-216 717.2009,-252"/>
<text text-anchor="middle" x="638" y="-229.8" font-family="Times,serif" font-size="14.00" fill="#000000">ResourcePopComponent </text>
</g>
<!-- ResourceModule&#45;&gt;ResourcePopComponent  -->
<g id="edge15" class="edge">
<title>ResourceModule&#45;&gt;ResourcePopComponent </title>
<path fill="none" stroke="#000000" stroke-dasharray="5,2" d="M770.2745,-184C715.5662,-184 640.2688,-184 640.2688,-184 640.2688,-184 640.2688,-205.9489 640.2688,-205.9489"/>
<polygon fill="#000000" stroke="#000000" points="636.7688,-205.9488 640.2688,-215.9489 643.7688,-205.9489 636.7688,-205.9488"/>
</g>
<!-- ResourceSelectComponent  -->
<g id="node17" class="node">
<title>ResourceSelectComponent </title>
<polygon fill="#fb8072" stroke="#000000" points="540.6256,-252 369.3744,-252 369.3744,-216 540.6256,-216 540.6256,-252"/>
<text text-anchor="middle" x="455" y="-229.8" font-family="Times,serif" font-size="14.00" fill="#000000">ResourceSelectComponent </text>
</g>
<!-- ResourceModule&#45;&gt;ResourceSelectComponent  -->
<g id="edge16" class="edge">
<title>ResourceModule&#45;&gt;ResourceSelectComponent </title>
<path fill="none" stroke="#000000" stroke-dasharray="5,2" d="M770.3631,-180C673.5793,-180 484.4446,-180 484.4446,-180 484.4446,-180 484.4446,-205.7181 484.4446,-205.7181"/>
<polygon fill="#000000" stroke="#000000" points="480.9447,-205.718 484.4446,-215.7181 487.9447,-205.7181 480.9447,-205.718"/>
</g>
<!-- SdkModule  -->
<g id="node18" class="node">
<title>SdkModule </title>
<polygon fill="#fb8072" stroke="#000000" points="351.3326,-252 266.6674,-252 266.6674,-216 351.3326,-216 351.3326,-252"/>
<text text-anchor="middle" x="309" y="-229.8" font-family="Times,serif" font-size="14.00" fill="#000000">SdkModule </text>
</g>
<!-- ResourceModule&#45;&gt;SdkModule  -->
<g id="edge17" class="edge">
<title>ResourceModule&#45;&gt;SdkModule </title>
<path fill="none" stroke="#000000" stroke-dasharray="5,2" d="M770.0688,-177C643.6089,-177 346.6022,-177 346.6022,-177 346.6022,-177 346.6022,-205.9648 346.6022,-205.9648"/>
<polygon fill="#000000" stroke="#000000" points="343.1023,-205.9648 346.6022,-215.9648 350.1023,-205.9649 343.1023,-205.9648"/>
</g>
<!-- UiModule  -->
<g id="node19" class="node">
<title>UiModule </title>
<polygon fill="#fb8072" stroke="#000000" points="248.547,-252 171.453,-252 171.453,-216 248.547,-216 248.547,-252"/>
<text text-anchor="middle" x="210" y="-229.8" font-family="Times,serif" font-size="14.00" fill="#000000">UiModule </text>
</g>
<!-- ResourceModule&#45;&gt;UiModule  -->
<g id="edge18" class="edge">
<title>ResourceModule&#45;&gt;UiModule </title>
<path fill="none" stroke="#000000" stroke-dasharray="5,2" d="M770.2014,-173C620.5195,-173 221.3676,-173 221.3676,-173 221.3676,-173 221.3676,-205.698 221.3676,-205.698"/>
<polygon fill="#000000" stroke="#000000" points="217.8675,-205.698 221.3676,-215.698 224.8675,-205.698 217.8675,-205.698"/>
</g>
<!-- SdkModule -->
<g id="node9" class="node">
<title>SdkModule</title>
<polygon fill="#8dd3c7" stroke="#000000" points="538.8331,-122 535.8331,-126 514.8331,-126 511.8331,-122 457.1669,-122 457.1669,-86 538.8331,-86 538.8331,-122"/>
<text text-anchor="middle" x="498" y="-99.8" font-family="Times,serif" font-size="14.00" fill="#000000">SdkModule</text>
</g>
<!-- SdkModule&#45;&gt;ResourceModule -->
<g id="edge8" class="edge">
<title>SdkModule&#45;&gt;ResourceModule</title>
<path fill="none" stroke="#000000" d="M511.5554,-122.0091C511.5554,-138.0494 511.5554,-159 511.5554,-159 511.5554,-159 760.1459,-159 760.1459,-159"/>
<polygon fill="#000000" stroke="#000000" points="760.146,-162.5001 770.1459,-159 760.1459,-155.5001 760.146,-162.5001"/>
</g>
<!-- UiModule -->
<g id="node10" class="node">
<title>UiModule</title>
<polygon fill="#8dd3c7" stroke="#000000" points="439.5484,-122 436.5484,-126 415.5484,-126 412.5484,-122 366.4516,-122 366.4516,-86 439.5484,-86 439.5484,-122"/>
<text text-anchor="middle" x="403" y="-99.8" font-family="Times,serif" font-size="14.00" fill="#000000">UiModule</text>
</g>
<!-- UiModule&#45;&gt;ResourceModule -->
<g id="edge9" class="edge">
<title>UiModule&#45;&gt;ResourceModule</title>
<path fill="none" stroke="#000000" d="M404.6054,-122.0336C404.6054,-139.0597 404.6054,-162 404.6054,-162 404.6054,-162 760.042,-162 760.042,-162"/>
<polygon fill="#000000" stroke="#000000" points="760.0421,-165.5001 770.042,-162 760.042,-158.5001 760.0421,-165.5001"/>
</g>
<!-- ResourceConfig -->
<g id="node20" class="node">
<title>ResourceConfig</title>
<ellipse fill="#fdb462" stroke="#000000" cx="268" cy="-104" rx="73.5772" ry="18"/>
<text text-anchor="middle" x="268" y="-99.8" font-family="Times,serif" font-size="14.00" fill="#000000">ResourceConfig</text>
</g>
<!-- ResourceConfig&#45;&gt;ResourceModule -->
<g id="edge19" class="edge">
<title>ResourceConfig&#45;&gt;ResourceModule</title>
<path fill="none" stroke="#000000" d="M304.186,-119.9665C304.186,-138.3367 304.186,-166 304.186,-166 304.186,-166 760.1568,-166 760.1568,-166"/>
<polygon fill="#000000" stroke="#000000" points="760.1568,-169.5001 770.1568,-166 760.1567,-162.5001 760.1568,-169.5001"/>
</g>
<!-- ResourceService -->
<g id="node21" class="node">
<title>ResourceService</title>
<ellipse fill="#fdb462" stroke="#000000" cx="100" cy="-104" rx="75.8393" ry="18"/>
<text text-anchor="middle" x="100" y="-99.8" font-family="Times,serif" font-size="14.00" fill="#000000">ResourceService</text>
</g>
<!-- ResourceService&#45;&gt;ResourceModule -->
<g id="edge20" class="edge">
<title>ResourceService&#45;&gt;ResourceModule</title>
<path fill="none" stroke="#000000" d="M97.7785,-122.1061C97.7785,-141.3391 97.7785,-169 97.7785,-169 97.7785,-169 760.0669,-169 760.0669,-169"/>
<polygon fill="#000000" stroke="#000000" points="760.0669,-172.5001 770.0669,-169 760.0668,-165.5001 760.0669,-172.5001"/>
</g>
</g>
</svg>
