<?xml version="1.0" encoding="UTF-8" standalone="no"?>
<!DOCTYPE svg PUBLIC "-//W3C//DTD SVG 1.1//EN"
 "http://www.w3.org/Graphics/SVG/1.1/DTD/svg11.dtd">
<!-- Generated by graphviz version 2.40.1 (20161225.0304)
 -->
<!-- Title: dependencies Pages: 1 -->
<svg width="1680pt" height="284pt"
 viewBox="0.00 0.00 1680.00 284.00" xmlns="http://www.w3.org/2000/svg" xmlns:xlink="http://www.w3.org/1999/xlink">
<g id="graph0" class="graph" transform="scale(1 1) rotate(0) translate(4 280)">
<title>dependencies</title>
<polygon fill="#ffffff" stroke="transparent" points="-4,4 -4,-280 1676,-280 1676,4 -4,4"/>
<text text-anchor="start" x="815.0091" y="-42.4" font-family="sans-serif" font-weight="bold" font-size="14.00" fill="#000000">Legend</text>
<polygon fill="#ffffb3" stroke="transparent" points="602,-10 602,-30 622,-30 622,-10 602,-10"/>
<text text-anchor="start" x="625.629" y="-15.4" font-family="sans-serif" font-size="14.00" fill="#000000"> &#160;Declarations</text>
<polygon fill="#8dd3c7" stroke="transparent" points="715,-10 715,-30 735,-30 735,-10 715,-10"/>
<text text-anchor="start" x="738.7251" y="-15.4" font-family="sans-serif" font-size="14.00" fill="#000000"> &#160;Module</text>
<polygon fill="#80b1d3" stroke="transparent" points="801,-10 801,-30 821,-30 821,-10 801,-10"/>
<text text-anchor="start" x="824.7812" y="-15.4" font-family="sans-serif" font-size="14.00" fill="#000000"> &#160;Bootstrap</text>
<polygon fill="#fdb462" stroke="transparent" points="898,-10 898,-30 918,-30 918,-10 898,-10"/>
<text text-anchor="start" x="921.6732" y="-15.4" font-family="sans-serif" font-size="14.00" fill="#000000"> &#160;Providers</text>
<polygon fill="#fb8072" stroke="transparent" points="994,-10 994,-30 1014,-30 1014,-10 994,-10"/>
<text text-anchor="start" x="1017.7258" y="-15.4" font-family="sans-serif" font-size="14.00" fill="#000000"> &#160;Exports</text>
<g id="clust1" class="cluster">
<title>cluster_ResourceModule</title>
<polygon fill="none" stroke="#000000" stroke-dasharray="1,5" points="8,-70 8,-268 1664,-268 1664,-70 8,-70"/>
</g>
<g id="clust2" class="cluster">
<title>cluster_ResourceModule_declarations</title>
<polygon fill="none" stroke="#000000" points="555,-78 555,-130 1656,-130 1656,-78 555,-78"/>
</g>
<g id="clust9" class="cluster">
<title>cluster_ResourceModule_imports</title>
<polygon fill="none" stroke="#000000" points="358,-78 358,-130 547,-130 547,-78 358,-78"/>
</g>
<g id="clust10" class="cluster">
<title>cluster_ResourceModule_exports</title>
<polygon fill="none" stroke="#000000" points="166,-208 166,-260 1486,-260 1486,-208 166,-208"/>
</g>
<g id="clust12" class="cluster">
<title>cluster_ResourceModule_providers</title>
<polygon fill="none" stroke="#000000" points="16,-78 16,-130 350,-130 350,-78 16,-78"/>
</g>
<!-- ResourceCrudComponent -->
<g id="node1" class="node">
<title>ResourceCrudComponent</title>
<polygon fill="#ffffb3" stroke="#000000" points="1647.9157,-122 1486.0843,-122 1486.0843,-86 1647.9157,-86 1647.9157,-122"/>
<text text-anchor="middle" x="1567" y="-99.8" font-family="Times,serif" font-size="14.00" fill="#000000">ResourceCrudComponent</text>
</g>
<!-- ResourceModule -->
<g id="node7" class="node">
<title>ResourceModule</title>
<polygon fill="#8dd3c7" stroke="#000000" points="784.636,-187 781.636,-191 760.636,-191 757.636,-187 673.364,-187 673.364,-151 784.636,-151 784.636,-187"/>
<text text-anchor="middle" x="729" y="-164.8" font-family="Times,serif" font-size="14.00" fill="#000000">ResourceModule</text>
</g>
<!-- ResourceCrudComponent&#45;&gt;ResourceModule -->
<g id="edge1" class="edge">
<title>ResourceCrudComponent&#45;&gt;ResourceModule</title>
<path fill="none" stroke="#000000" d="M1567,-122.1061C1567,-141.3391 1567,-169 1567,-169 1567,-169 794.9582,-169 794.9582,-169"/>
<polygon fill="#000000" stroke="#000000" points="794.9583,-165.5001 784.9582,-169 794.9582,-172.5001 794.9583,-165.5001"/>
</g>
<!-- ResourceDeletePopComponent -->
<g id="node2" class="node">
<title>ResourceDeletePopComponent</title>
<polygon fill="#ffffb3" stroke="#000000" points="1467.7324,-122 1276.2676,-122 1276.2676,-86 1467.7324,-86 1467.7324,-122"/>
<text text-anchor="middle" x="1372" y="-99.8" font-family="Times,serif" font-size="14.00" fill="#000000">ResourceDeletePopComponent</text>
</g>
<!-- ResourceDeletePopComponent&#45;&gt;ResourceModule -->
<g id="edge2" class="edge">
<title>ResourceDeletePopComponent&#45;&gt;ResourceModule</title>
<path fill="none" stroke="#000000" d="M1285.875,-122.302C1285.875,-140.2699 1285.875,-165 1285.875,-165 1285.875,-165 794.6879,-165 794.6879,-165"/>
<polygon fill="#000000" stroke="#000000" points="794.6879,-161.5001 784.6879,-165 794.6878,-168.5001 794.6879,-161.5001"/>
</g>
<!-- ResourceFormComponent -->
<g id="node3" class="node">
<title>ResourceFormComponent</title>
<polygon fill="#ffffb3" stroke="#000000" points="1257.752,-122 1094.248,-122 1094.248,-86 1257.752,-86 1257.752,-122"/>
<text text-anchor="middle" x="1176" y="-99.8" font-family="Times,serif" font-size="14.00" fill="#000000">ResourceFormComponent</text>
</g>
<!-- ResourceFormComponent&#45;&gt;ResourceModule -->
<g id="edge3" class="edge">
<title>ResourceFormComponent&#45;&gt;ResourceModule</title>
<path fill="none" stroke="#000000" d="M1205.3786,-122.027C1205.3786,-138.3976 1205.3786,-160 1205.3786,-160 1205.3786,-160 795.0475,-160 795.0475,-160"/>
<polygon fill="#000000" stroke="#000000" points="795.0475,-156.5001 785.0475,-160 795.0475,-163.5001 795.0475,-156.5001"/>
</g>
<!-- ResourceListComponent -->
<g id="node4" class="node">
<title>ResourceListComponent</title>
<polygon fill="#ffffb3" stroke="#000000" points="1076.6965,-122 921.3035,-122 921.3035,-86 1076.6965,-86 1076.6965,-122"/>
<text text-anchor="middle" x="999" y="-99.8" font-family="Times,serif" font-size="14.00" fill="#000000">ResourceListComponent</text>
</g>
<!-- ResourceListComponent&#45;&gt;ResourceModule -->
<g id="edge4" class="edge">
<title>ResourceListComponent&#45;&gt;ResourceModule</title>
<path fill="none" stroke="#000000" d="M1024.8661,-122.1871C1024.8661,-137.1824 1024.8661,-156 1024.8661,-156 1024.8661,-156 794.6501,-156 794.6501,-156"/>
<polygon fill="#000000" stroke="#000000" points="794.6502,-152.5001 784.6501,-156 794.6501,-159.5001 794.6502,-152.5001"/>
</g>
<!-- ResourcePopComponent -->
<g id="node5" class="node">
<title>ResourcePopComponent</title>
<polygon fill="#ffffb3" stroke="#000000" points="903.7007,-122 748.2993,-122 748.2993,-86 903.7007,-86 903.7007,-122"/>
<text text-anchor="middle" x="826" y="-99.8" font-family="Times,serif" font-size="14.00" fill="#000000">ResourcePopComponent</text>
</g>
<!-- ResourcePopComponent&#45;&gt;ResourceModule -->
<g id="edge5" class="edge">
<title>ResourcePopComponent&#45;&gt;ResourceModule</title>
<path fill="none" stroke="#000000" d="M766.6087,-122.1061C766.6087,-122.1061 766.6087,-140.991 766.6087,-140.991"/>
<polygon fill="#000000" stroke="#000000" points="763.1088,-140.9909 766.6087,-150.991 770.1088,-140.991 763.1088,-140.9909"/>
</g>
<!-- ResourceSelectComponent -->
<g id="node6" class="node">
<title>ResourceSelectComponent</title>
<polygon fill="#ffffb3" stroke="#000000" points="730.626,-122 563.374,-122 563.374,-86 730.626,-86 730.626,-122"/>
<text text-anchor="middle" x="647" y="-99.8" font-family="Times,serif" font-size="14.00" fill="#000000">ResourceSelectComponent</text>
</g>
<!-- ResourceSelectComponent&#45;&gt;ResourceModule -->
<g id="edge6" class="edge">
<title>ResourceSelectComponent&#45;&gt;ResourceModule</title>
<path fill="none" stroke="#000000" d="M701.9976,-122.1061C701.9976,-122.1061 701.9976,-140.991 701.9976,-140.991"/>
<polygon fill="#000000" stroke="#000000" points="698.4976,-140.9909 701.9976,-150.991 705.4976,-140.991 698.4976,-140.9909"/>
</g>
<!-- ResourceCrudComponent  -->
<g id="node10" class="node">
<title>ResourceCrudComponent </title>
<polygon fill="#fb8072" stroke="#000000" points="1478.4152,-252 1313.5848,-252 1313.5848,-216 1478.4152,-216 1478.4152,-252"/>
<text text-anchor="middle" x="1396" y="-229.8" font-family="Times,serif" font-size="14.00" fill="#000000">ResourceCrudComponent </text>
</g>
<!-- ResourceModule&#45;&gt;ResourceCrudComponent  -->
<g id="edge9" class="edge">
<title>ResourceModule&#45;&gt;ResourceCrudComponent </title>
<path fill="none" stroke="#000000" stroke-dasharray="5,2" d="M784.8463,-174C944.3743,-174 1390.7043,-174 1390.7043,-174 1390.7043,-174 1390.7043,-205.998 1390.7043,-205.998"/>
<polygon fill="#000000" stroke="#000000" points="1387.2043,-205.998 1390.7043,-215.998 1394.2043,-205.9981 1387.2043,-205.998"/>
</g>
<!-- ResourceDeletePopComponent  -->
<g id="node11" class="node">
<title>ResourceDeletePopComponent </title>
<polygon fill="#fb8072" stroke="#000000" points="1295.7323,-252 1100.2677,-252 1100.2677,-216 1295.7323,-216 1295.7323,-252"/>
<text text-anchor="middle" x="1198" y="-229.8" font-family="Times,serif" font-size="14.00" fill="#000000">ResourceDeletePopComponent </text>
</g>
<!-- ResourceModule&#45;&gt;ResourceDeletePopComponent  -->
<g id="edge10" class="edge">
<title>ResourceModule&#45;&gt;ResourceDeletePopComponent </title>
<path fill="none" stroke="#000000" stroke-dasharray="5,2" d="M784.851,-178C899.953,-178 1152.8812,-178 1152.8812,-178 1152.8812,-178 1152.8812,-205.973 1152.8812,-205.973"/>
<polygon fill="#000000" stroke="#000000" points="1149.3813,-205.973 1152.8812,-215.973 1156.3813,-205.973 1149.3813,-205.973"/>
</g>
<!-- ResourceFormComponent  -->
<g id="node12" class="node">
<title>ResourceFormComponent </title>
<polygon fill="#fb8072" stroke="#000000" points="1082.752,-252 915.248,-252 915.248,-216 1082.752,-216 1082.752,-252"/>
<text text-anchor="middle" x="999" y="-229.8" font-family="Times,serif" font-size="14.00" fill="#000000">ResourceFormComponent </text>
</g>
<!-- ResourceModule&#45;&gt;ResourceFormComponent  -->
<g id="edge11" class="edge">
<title>ResourceModule&#45;&gt;ResourceFormComponent </title>
<path fill="none" stroke="#000000" stroke-dasharray="5,2" d="M784.7032,-183C856.757,-183 973.1339,-183 973.1339,-183 973.1339,-183 973.1339,-205.8757 973.1339,-205.8757"/>
<polygon fill="#000000" stroke="#000000" points="969.634,-205.8757 973.1339,-215.8757 976.634,-205.8757 969.634,-205.8757"/>
</g>
<!-- ResourceListComponent  -->
<g id="node13" class="node">
<title>ResourceListComponent </title>
<polygon fill="#fb8072" stroke="#000000" points="897.1967,-252 738.8033,-252 738.8033,-216 897.1967,-216 897.1967,-252"/>
<text text-anchor="middle" x="818" y="-229.8" font-family="Times,serif" font-size="14.00" fill="#000000">ResourceListComponent </text>
</g>
<!-- ResourceModule&#45;&gt;ResourceListComponent  -->
<g id="edge12" class="edge">
<title>ResourceModule&#45;&gt;ResourceListComponent </title>
<path fill="none" stroke="#000000" stroke-dasharray="5,2" d="M761.7348,-187.1061C761.7348,-187.1061 761.7348,-205.991 761.7348,-205.991"/>
<polygon fill="#000000" stroke="#000000" points="758.2348,-205.9909 761.7348,-215.991 765.2348,-205.991 758.2348,-205.9909"/>
</g>
<!-- ResourcePopComponent  -->
<g id="node14" class="node">
<title>ResourcePopComponent </title>
<polygon fill="#fb8072" stroke="#000000" points="720.2009,-252 561.7991,-252 561.7991,-216 720.2009,-216 720.2009,-252"/>
<text text-anchor="middle" x="641" y="-229.8" font-family="Times,serif" font-size="14.00" fill="#000000">ResourcePopComponent </text>
</g>
<!-- ResourceModule&#45;&gt;ResourcePopComponent  -->
<g id="edge13" class="edge">
<title>ResourceModule&#45;&gt;ResourcePopComponent </title>
<path fill="none" stroke="#000000" stroke-dasharray="5,2" d="M696.7663,-187.1061C696.7663,-187.1061 696.7663,-205.991 696.7663,-205.991"/>
<polygon fill="#000000" stroke="#000000" points="693.2664,-205.9909 696.7663,-215.991 700.2664,-205.991 693.2664,-205.9909"/>
</g>
<!-- ResourceSelectComponent  -->
<g id="node15" class="node">
<title>ResourceSelectComponent </title>
<polygon fill="#fb8072" stroke="#000000" points="543.6256,-252 372.3744,-252 372.3744,-216 543.6256,-216 543.6256,-252"/>
<text text-anchor="middle" x="458" y="-229.8" font-family="Times,serif" font-size="14.00" fill="#000000">ResourceSelectComponent </text>
</g>
<!-- ResourceModule&#45;&gt;ResourceSelectComponent  -->
<g id="edge14" class="edge">
<title>ResourceModule&#45;&gt;ResourceSelectComponent </title>
<path fill="none" stroke="#000000" stroke-dasharray="5,2" d="M673.2006,-183C601.0225,-183 484.4446,-183 484.4446,-183 484.4446,-183 484.4446,-205.8757 484.4446,-205.8757"/>
<polygon fill="#000000" stroke="#000000" points="480.9447,-205.8757 484.4446,-215.8757 487.9447,-205.8757 480.9447,-205.8757"/>
</g>
<!-- SdkModule  -->
<g id="node16" class="node">
<title>SdkModule </title>
<polygon fill="#fb8072" stroke="#000000" points="354.3326,-252 269.6674,-252 269.6674,-216 354.3326,-216 354.3326,-252"/>
<text text-anchor="middle" x="312" y="-229.8" font-family="Times,serif" font-size="14.00" fill="#000000">SdkModule </text>
</g>
<!-- ResourceModule&#45;&gt;SdkModule  -->
<g id="edge15" class="edge">
<title>ResourceModule&#45;&gt;SdkModule </title>
<path fill="none" stroke="#000000" stroke-dasharray="5,2" d="M673.2063,-178C567.4083,-178 348.1022,-178 348.1022,-178 348.1022,-178 348.1022,-205.973 348.1022,-205.973"/>
<polygon fill="#000000" stroke="#000000" points="344.6023,-205.973 348.1022,-215.973 351.6023,-205.973 344.6023,-205.973"/>
</g>
<!-- UiModule  -->
<g id="node17" class="node">
<title>UiModule </title>
<polygon fill="#fb8072" stroke="#000000" points="251.547,-252 174.453,-252 174.453,-216 251.547,-216 251.547,-252"/>
<text text-anchor="middle" x="213" y="-229.8" font-family="Times,serif" font-size="14.00" fill="#000000">UiModule </text>
</g>
<!-- ResourceModule&#45;&gt;UiModule  -->
<g id="edge16" class="edge">
<title>ResourceModule&#45;&gt;UiModule </title>
<path fill="none" stroke="#000000" stroke-dasharray="5,2" d="M672.9011,-174C541.1234,-174 222.8676,-174 222.8676,-174 222.8676,-174 222.8676,-205.998 222.8676,-205.998"/>
<polygon fill="#000000" stroke="#000000" points="219.3677,-205.998 222.8676,-215.998 226.3677,-205.9981 219.3677,-205.998"/>
</g>
<!-- SdkModule -->
<g id="node8" class="node">
<title>SdkModule</title>
<polygon fill="#8dd3c7" stroke="#000000" points="538.8331,-122 535.8331,-126 514.8331,-126 511.8331,-122 457.1669,-122 457.1669,-86 538.8331,-86 538.8331,-122"/>
<text text-anchor="middle" x="498" y="-99.8" font-family="Times,serif" font-size="14.00" fill="#000000">SdkModule</text>
</g>
<!-- SdkModule&#45;&gt;ResourceModule -->
<g id="edge7" class="edge">
<title>SdkModule&#45;&gt;ResourceModule</title>
<path fill="none" stroke="#000000" d="M511.5554,-122.1871C511.5554,-137.1824 511.5554,-156 511.5554,-156 511.5554,-156 663.285,-156 663.285,-156"/>
<polygon fill="#000000" stroke="#000000" points="663.285,-159.5001 673.285,-156 663.2849,-152.5001 663.285,-159.5001"/>
</g>
<!-- UiModule -->
<g id="node9" class="node">
<title>UiModule</title>
<polygon fill="#8dd3c7" stroke="#000000" points="439.5484,-122 436.5484,-126 415.5484,-126 412.5484,-122 366.4516,-122 366.4516,-86 439.5484,-86 439.5484,-122"/>
<text text-anchor="middle" x="403" y="-99.8" font-family="Times,serif" font-size="14.00" fill="#000000">UiModule</text>
</g>
<!-- UiModule&#45;&gt;ResourceModule -->
<g id="edge8" class="edge">
<title>UiModule&#45;&gt;ResourceModule</title>
<path fill="none" stroke="#000000" d="M406.1054,-122.027C406.1054,-138.3976 406.1054,-160 406.1054,-160 406.1054,-160 663.1247,-160 663.1247,-160"/>
<polygon fill="#000000" stroke="#000000" points="663.1247,-163.5001 673.1247,-160 663.1246,-156.5001 663.1247,-163.5001"/>
</g>
<!-- ResourceConfig -->
<g id="node18" class="node">
<title>ResourceConfig</title>
<ellipse fill="#fdb462" stroke="#000000" cx="268" cy="-104" rx="73.5772" ry="18"/>
<text text-anchor="middle" x="268" y="-99.8" font-family="Times,serif" font-size="14.00" fill="#000000">ResourceConfig</text>
</g>
<!-- ResourceConfig&#45;&gt;ResourceModule -->
<g id="edge17" class="edge">
<title>ResourceConfig&#45;&gt;ResourceModule</title>
<path fill="none" stroke="#000000" d="M305.686,-119.709C305.686,-137.7829 305.686,-165 305.686,-165 305.686,-165 663.2238,-165 663.2238,-165"/>
<polygon fill="#000000" stroke="#000000" points="663.2238,-168.5001 673.2238,-165 663.2238,-161.5001 663.2238,-168.5001"/>
</g>
<!-- ResourceService -->
<g id="node19" class="node">
<title>ResourceService</title>
<ellipse fill="#fdb462" stroke="#000000" cx="100" cy="-104" rx="75.8393" ry="18"/>
<text text-anchor="middle" x="100" y="-99.8" font-family="Times,serif" font-size="14.00" fill="#000000">ResourceService</text>
</g>
<!-- ResourceService&#45;&gt;ResourceModule -->
<g id="edge18" class="edge">
<title>ResourceService&#45;&gt;ResourceModule</title>
<path fill="none" stroke="#000000" d="M99.2785,-122.1061C99.2785,-141.3391 99.2785,-169 99.2785,-169 99.2785,-169 663.1164,-169 663.1164,-169"/>
<polygon fill="#000000" stroke="#000000" points="663.1164,-172.5001 673.1164,-169 663.1164,-165.5001 663.1164,-172.5001"/>
</g>
</g>
</svg>
