<?xml version="1.0" encoding="UTF-8" standalone="no"?>
<!DOCTYPE svg PUBLIC "-//W3C//DTD SVG 1.1//EN"
 "http://www.w3.org/Graphics/SVG/1.1/DTD/svg11.dtd">
<!-- Generated by graphviz version 2.40.1 (20161225.0304)
 -->
<!-- Title: dependencies Pages: 1 -->
<svg width="1680pt" height="284pt"
 viewBox="0.00 0.00 1680.00 284.00" xmlns="http://www.w3.org/2000/svg" xmlns:xlink="http://www.w3.org/1999/xlink">
<g id="graph0" class="graph" transform="scale(1 1) rotate(0) translate(4 280)">
<title>dependencies</title>
<polygon fill="#ffffff" stroke="transparent" points="-4,4 -4,-280 1676,-280 1676,4 -4,4"/>
<text text-anchor="start" x="815.0091" y="-42.4" font-family="sans-serif" font-weight="bold" font-size="14.00" fill="#000000">Legend</text>
<polygon fill="#ffffb3" stroke="transparent" points="602,-10 602,-30 622,-30 622,-10 602,-10"/>
<text text-anchor="start" x="625.629" y="-15.4" font-family="sans-serif" font-size="14.00" fill="#000000"> &#160;Declarations</text>
<polygon fill="#8dd3c7" stroke="transparent" points="715,-10 715,-30 735,-30 735,-10 715,-10"/>
<text text-anchor="start" x="738.7251" y="-15.4" font-family="sans-serif" font-size="14.00" fill="#000000"> &#160;Module</text>
<polygon fill="#80b1d3" stroke="transparent" points="801,-10 801,-30 821,-30 821,-10 801,-10"/>
<text text-anchor="start" x="824.7812" y="-15.4" font-family="sans-serif" font-size="14.00" fill="#000000"> &#160;Bootstrap</text>
<polygon fill="#fdb462" stroke="transparent" points="898,-10 898,-30 918,-30 918,-10 898,-10"/>
<text text-anchor="start" x="921.6732" y="-15.4" font-family="sans-serif" font-size="14.00" fill="#000000"> &#160;Providers</text>
<polygon fill="#fb8072" stroke="transparent" points="994,-10 994,-30 1014,-30 1014,-10 994,-10"/>
<text text-anchor="start" x="1017.7258" y="-15.4" font-family="sans-serif" font-size="14.00" fill="#000000"> &#160;Exports</text>
<g id="clust1" class="cluster">
<title>cluster_ResourceModule</title>
<polygon fill="none" stroke="#000000" stroke-dasharray="1,5" points="8,-70 8,-268 1664,-268 1664,-70 8,-70"/>
</g>
<g id="clust2" class="cluster">
<title>cluster_ResourceModule_declarations</title>
<polygon fill="none" stroke="#000000" points="555,-78 555,-130 1656,-130 1656,-78 555,-78"/>
</g>
<g id="clust9" class="cluster">
<title>cluster_ResourceModule_imports</title>
<polygon fill="none" stroke="#000000" points="358,-78 358,-130 547,-130 547,-78 358,-78"/>
</g>
<g id="clust10" class="cluster">
<title>cluster_ResourceModule_exports</title>
<polygon fill="none" stroke="#000000" points="94,-208 94,-260 1415,-260 1415,-208 94,-208"/>
</g>
<g id="clust12" class="cluster">
<title>cluster_ResourceModule_providers</title>
<polygon fill="none" stroke="#000000" points="16,-78 16,-130 350,-130 350,-78 16,-78"/>
</g>
<!-- ResourceListComponent -->
<g id="node1" class="node">
<title>ResourceListComponent</title>
<polygon fill="#ffffb3" stroke="#000000" points="1647.6965,-122 1492.3035,-122 1492.3035,-86 1647.6965,-86 1647.6965,-122"/>
<text text-anchor="middle" x="1570" y="-99.8" font-family="Times,serif" font-size="14.00" fill="#000000">ResourceListComponent</text>
</g>
<!-- ResourceModule -->
<g id="node7" class="node">
<title>ResourceModule</title>
<polygon fill="#8dd3c7" stroke="#000000" points="861.636,-187 858.636,-191 837.636,-191 834.636,-187 750.364,-187 750.364,-151 861.636,-151 861.636,-187"/>
<text text-anchor="middle" x="806" y="-164.8" font-family="Times,serif" font-size="14.00" fill="#000000">ResourceModule</text>
</g>
<!-- ResourceListComponent&#45;&gt;ResourceModule -->
<g id="edge1" class="edge">
<title>ResourceListComponent&#45;&gt;ResourceModule</title>
<path fill="none" stroke="#000000" d="M1570,-122.1061C1570,-141.3391 1570,-169 1570,-169 1570,-169 871.8692,-169 871.8692,-169"/>
<polygon fill="#000000" stroke="#000000" points="871.8692,-165.5001 861.8692,-169 871.8692,-172.5001 871.8692,-165.5001"/>
</g>
<!-- ResourceFormComponent -->
<g id="node2" class="node">
<title>ResourceFormComponent</title>
<polygon fill="#ffffb3" stroke="#000000" points="1474.752,-122 1311.248,-122 1311.248,-86 1474.752,-86 1474.752,-122"/>
<text text-anchor="middle" x="1393" y="-99.8" font-family="Times,serif" font-size="14.00" fill="#000000">ResourceFormComponent</text>
</g>
<!-- ResourceFormComponent&#45;&gt;ResourceModule -->
<g id="edge2" class="edge">
<title>ResourceFormComponent&#45;&gt;ResourceModule</title>
<path fill="none" stroke="#000000" d="M1320.4464,-122.302C1320.4464,-140.2699 1320.4464,-165 1320.4464,-165 1320.4464,-165 872.0341,-165 872.0341,-165"/>
<polygon fill="#000000" stroke="#000000" points="872.0341,-161.5001 862.0341,-165 872.0341,-168.5001 872.0341,-161.5001"/>
</g>
<!-- ResourcePopComponent -->
<g id="node3" class="node">
<title>ResourcePopComponent</title>
<polygon fill="#ffffb3" stroke="#000000" points="1293.7007,-122 1138.2993,-122 1138.2993,-86 1293.7007,-86 1293.7007,-122"/>
<text text-anchor="middle" x="1216" y="-99.8" font-family="Times,serif" font-size="14.00" fill="#000000">ResourcePopComponent</text>
</g>
<!-- ResourcePopComponent&#45;&gt;ResourceModule -->
<g id="edge3" class="edge">
<title>ResourcePopComponent&#45;&gt;ResourceModule</title>
<path fill="none" stroke="#000000" d="M1173.374,-122.027C1173.374,-138.3976 1173.374,-160 1173.374,-160 1173.374,-160 871.7962,-160 871.7962,-160"/>
<polygon fill="#000000" stroke="#000000" points="871.7962,-156.5001 861.7962,-160 871.7962,-163.5001 871.7962,-156.5001"/>
</g>
<!-- ResourceCrudComponent -->
<g id="node4" class="node">
<title>ResourceCrudComponent</title>
<polygon fill="#ffffb3" stroke="#000000" points="1120.9157,-122 959.0843,-122 959.0843,-86 1120.9157,-86 1120.9157,-122"/>
<text text-anchor="middle" x="1040" y="-99.8" font-family="Times,serif" font-size="14.00" fill="#000000">ResourceCrudComponent</text>
</g>
<!-- ResourceCrudComponent&#45;&gt;ResourceModule -->
<g id="edge4" class="edge">
<title>ResourceCrudComponent&#45;&gt;ResourceModule</title>
<path fill="none" stroke="#000000" d="M995.4592,-122.1871C995.4592,-137.1824 995.4592,-156 995.4592,-156 995.4592,-156 871.8193,-156 871.8193,-156"/>
<polygon fill="#000000" stroke="#000000" points="871.8193,-152.5001 861.8193,-156 871.8192,-159.5001 871.8193,-152.5001"/>
</g>
<!-- ResourceDeletePopComponent -->
<g id="node5" class="node">
<title>ResourceDeletePopComponent</title>
<polygon fill="#ffffb3" stroke="#000000" points="940.7324,-122 749.2676,-122 749.2676,-86 940.7324,-86 940.7324,-122"/>
<text text-anchor="middle" x="845" y="-99.8" font-family="Times,serif" font-size="14.00" fill="#000000">ResourceDeletePopComponent</text>
</g>
<!-- ResourceDeletePopComponent&#45;&gt;ResourceModule -->
<g id="edge5" class="edge">
<title>ResourceDeletePopComponent&#45;&gt;ResourceModule</title>
<path fill="none" stroke="#000000" d="M806,-122.1061C806,-122.1061 806,-140.991 806,-140.991"/>
<polygon fill="#000000" stroke="#000000" points="802.5001,-140.9909 806,-150.991 809.5001,-140.991 802.5001,-140.9909"/>
</g>
<!-- ResourceSelectComponent -->
<g id="node6" class="node">
<title>ResourceSelectComponent</title>
<polygon fill="#ffffb3" stroke="#000000" points="730.626,-122 563.374,-122 563.374,-86 730.626,-86 730.626,-122"/>
<text text-anchor="middle" x="647" y="-99.8" font-family="Times,serif" font-size="14.00" fill="#000000">ResourceSelectComponent</text>
</g>
<!-- ResourceSelectComponent&#45;&gt;ResourceModule -->
<g id="edge6" class="edge">
<title>ResourceSelectComponent&#45;&gt;ResourceModule</title>
<path fill="none" stroke="#000000" d="M709.2313,-122.1243C709.2313,-136.7832 709.2313,-155 709.2313,-155 709.2313,-155 740.2699,-155 740.2699,-155"/>
<polygon fill="#000000" stroke="#000000" points="740.2699,-158.5001 750.2699,-155 740.2699,-151.5001 740.2699,-158.5001"/>
</g>
<!-- UiModule  -->
<g id="node10" class="node">
<title>UiModule </title>
<polygon fill="#fb8072" stroke="#000000" points="1406.547,-252 1329.453,-252 1329.453,-216 1406.547,-216 1406.547,-252"/>
<text text-anchor="middle" x="1368" y="-229.8" font-family="Times,serif" font-size="14.00" fill="#000000">UiModule </text>
</g>
<!-- ResourceModule&#45;&gt;UiModule  -->
<g id="edge9" class="edge">
<title>ResourceModule&#45;&gt;UiModule </title>
<path fill="none" stroke="#000000" stroke-dasharray="5,2" d="M861.6828,-174C1003.6509,-174 1368,-174 1368,-174 1368,-174 1368,-205.998 1368,-205.998"/>
<polygon fill="#000000" stroke="#000000" points="1364.5001,-205.998 1368,-215.998 1371.5001,-205.9981 1364.5001,-205.998"/>
</g>
<!-- SdkModule  -->
<g id="node11" class="node">
<title>SdkModule </title>
<polygon fill="#fb8072" stroke="#000000" points="1311.3326,-252 1226.6674,-252 1226.6674,-216 1311.3326,-216 1311.3326,-252"/>
<text text-anchor="middle" x="1269" y="-229.8" font-family="Times,serif" font-size="14.00" fill="#000000">SdkModule </text>
</g>
<!-- ResourceModule&#45;&gt;SdkModule  -->
<g id="edge10" class="edge">
<title>ResourceModule&#45;&gt;SdkModule </title>
<path fill="none" stroke="#000000" stroke-dasharray="5,2" d="M861.6806,-178C982.9363,-178 1260.0921,-178 1260.0921,-178 1260.0921,-178 1260.0921,-205.973 1260.0921,-205.973"/>
<polygon fill="#000000" stroke="#000000" points="1256.5921,-205.973 1260.0921,-215.973 1263.5921,-205.973 1256.5921,-205.973"/>
</g>
<!-- ResourceListComponent  -->
<g id="node12" class="node">
<title>ResourceListComponent </title>
<polygon fill="#fb8072" stroke="#000000" points="1208.1967,-252 1049.8033,-252 1049.8033,-216 1208.1967,-216 1208.1967,-252"/>
<text text-anchor="middle" x="1129" y="-229.8" font-family="Times,serif" font-size="14.00" fill="#000000">ResourceListComponent </text>
</g>
<!-- ResourceModule&#45;&gt;ResourceListComponent  -->
<g id="edge11" class="edge">
<title>ResourceModule&#45;&gt;ResourceListComponent </title>
<path fill="none" stroke="#000000" stroke-dasharray="5,2" d="M861.8252,-183C943.2969,-183 1085.1797,-183 1085.1797,-183 1085.1797,-183 1085.1797,-205.8757 1085.1797,-205.8757"/>
<polygon fill="#000000" stroke="#000000" points="1081.6798,-205.8757 1085.1797,-215.8757 1088.6798,-205.8757 1081.6798,-205.8757"/>
</g>
<!-- ResourceFormComponent  -->
<g id="node13" class="node">
<title>ResourceFormComponent </title>
<polygon fill="#fb8072" stroke="#000000" points="1031.752,-252 864.248,-252 864.248,-216 1031.752,-216 1031.752,-252"/>
<text text-anchor="middle" x="948" y="-229.8" font-family="Times,serif" font-size="14.00" fill="#000000">ResourceFormComponent </text>
</g>
<!-- ResourceModule&#45;&gt;ResourceFormComponent  -->
<g id="edge12" class="edge">
<title>ResourceModule&#45;&gt;ResourceFormComponent </title>
<path fill="none" stroke="#000000" stroke-dasharray="5,2" d="M854.084,-187.1061C854.084,-206.3391 854.084,-234 854.084,-234 854.084,-234 855.0891,-234 855.0891,-234"/>
<polygon fill="#000000" stroke="#000000" points="854.1347,-237.5001 864.1347,-234 854.1346,-230.5001 854.1347,-237.5001"/>
</g>
<!-- ResourcePopComponent  -->
<g id="node14" class="node">
<title>ResourcePopComponent </title>
<polygon fill="#fb8072" stroke="#000000" points="846.2009,-252 687.7991,-252 687.7991,-216 846.2009,-216 846.2009,-252"/>
<text text-anchor="middle" x="767" y="-229.8" font-family="Times,serif" font-size="14.00" fill="#000000">ResourcePopComponent </text>
</g>
<!-- ResourceModule&#45;&gt;ResourcePopComponent  -->
<g id="edge13" class="edge">
<title>ResourceModule&#45;&gt;ResourcePopComponent </title>
<path fill="none" stroke="#000000" stroke-dasharray="5,2" d="M798.2663,-187.1061C798.2663,-187.1061 798.2663,-205.991 798.2663,-205.991"/>
<polygon fill="#000000" stroke="#000000" points="794.7664,-205.9909 798.2663,-215.991 801.7664,-205.991 794.7664,-205.9909"/>
</g>
<!-- ResourceCrudComponent  -->
<g id="node15" class="node">
<title>ResourceCrudComponent </title>
<polygon fill="#fb8072" stroke="#000000" points="669.4152,-252 504.5848,-252 504.5848,-216 669.4152,-216 669.4152,-252"/>
<text text-anchor="middle" x="587" y="-229.8" font-family="Times,serif" font-size="14.00" fill="#000000">ResourceCrudComponent </text>
</g>
<!-- ResourceModule&#45;&gt;ResourceCrudComponent  -->
<g id="edge14" class="edge">
<title>ResourceModule&#45;&gt;ResourceCrudComponent </title>
<path fill="none" stroke="#000000" stroke-dasharray="5,2" d="M750.1164,-183C694.1662,-183 616.3224,-183 616.3224,-183 616.3224,-183 616.3224,-205.8757 616.3224,-205.8757"/>
<polygon fill="#000000" stroke="#000000" points="612.8225,-205.8757 616.3224,-215.8757 619.8225,-205.8757 612.8225,-205.8757"/>
</g>
<!-- ResourceDeletePopComponent  -->
<g id="node16" class="node">
<title>ResourceDeletePopComponent </title>
<polygon fill="#fb8072" stroke="#000000" points="486.7323,-252 291.2677,-252 291.2677,-216 486.7323,-216 486.7323,-252"/>
<text text-anchor="middle" x="389" y="-229.8" font-family="Times,serif" font-size="14.00" fill="#000000">ResourceDeletePopComponent </text>
</g>
<!-- ResourceModule&#45;&gt;ResourceDeletePopComponent  -->
<g id="edge15" class="edge">
<title>ResourceModule&#45;&gt;ResourceDeletePopComponent </title>
<path fill="none" stroke="#000000" stroke-dasharray="5,2" d="M750.0066,-179C655.8337,-179 475.9213,-179 475.9213,-179 475.9213,-179 475.9213,-205.9909 475.9213,-205.9909"/>
<polygon fill="#000000" stroke="#000000" points="472.4214,-205.9909 475.9213,-215.9909 479.4214,-205.991 472.4214,-205.9909"/>
</g>
<!-- ResourceSelectComponent  -->
<g id="node17" class="node">
<title>ResourceSelectComponent </title>
<polygon fill="#fb8072" stroke="#000000" points="273.6256,-252 102.3744,-252 102.3744,-216 273.6256,-216 273.6256,-252"/>
<text text-anchor="middle" x="188" y="-229.8" font-family="Times,serif" font-size="14.00" fill="#000000">ResourceSelectComponent </text>
</g>
<!-- ResourceModule&#45;&gt;ResourceSelectComponent  -->
<g id="edge16" class="edge">
<title>ResourceModule&#45;&gt;ResourceSelectComponent </title>
<path fill="none" stroke="#000000" stroke-dasharray="5,2" d="M750.162,-175C605.8742,-175 231.8216,-175 231.8216,-175 231.8216,-175 231.8216,-205.9775 231.8216,-205.9775"/>
<polygon fill="#000000" stroke="#000000" points="228.3215,-205.9775 231.8216,-215.9775 235.3215,-205.9774 228.3215,-205.9775"/>
</g>
<!-- UiModule -->
<g id="node8" class="node">
<title>UiModule</title>
<polygon fill="#8dd3c7" stroke="#000000" points="538.5484,-122 535.5484,-126 514.5484,-126 511.5484,-122 465.4516,-122 465.4516,-86 538.5484,-86 538.5484,-122"/>
<text text-anchor="middle" x="502" y="-99.8" font-family="Times,serif" font-size="14.00" fill="#000000">UiModule</text>
</g>
<!-- UiModule&#45;&gt;ResourceModule -->
<g id="edge7" class="edge">
<title>UiModule&#45;&gt;ResourceModule</title>
<path fill="none" stroke="#000000" d="M521.658,-122.0091C521.658,-138.0494 521.658,-159 521.658,-159 521.658,-159 740.1624,-159 740.1624,-159"/>
<polygon fill="#000000" stroke="#000000" points="740.1625,-162.5001 750.1624,-159 740.1624,-155.5001 740.1625,-162.5001"/>
</g>
<!-- SdkModule -->
<g id="node9" class="node">
<title>SdkModule</title>
<polygon fill="#8dd3c7" stroke="#000000" points="447.8331,-122 444.8331,-126 423.8331,-126 420.8331,-122 366.1669,-122 366.1669,-86 447.8331,-86 447.8331,-122"/>
<text text-anchor="middle" x="407" y="-99.8" font-family="Times,serif" font-size="14.00" fill="#000000">SdkModule</text>
</g>
<!-- SdkModule&#45;&gt;ResourceModule -->
<g id="edge8" class="edge">
<title>SdkModule&#45;&gt;ResourceModule</title>
<path fill="none" stroke="#000000" d="M407,-122.0225C407,-139.3734 407,-163 407,-163 407,-163 740.1006,-163 740.1006,-163"/>
<polygon fill="#000000" stroke="#000000" points="740.1007,-166.5001 750.1006,-163 740.1006,-159.5001 740.1007,-166.5001"/>
</g>
<!-- ResourceService -->
<g id="node18" class="node">
<title>ResourceService</title>
<ellipse fill="#fdb462" stroke="#000000" cx="266" cy="-104" rx="75.8393" ry="18"/>
<text text-anchor="middle" x="266" y="-99.8" font-family="Times,serif" font-size="14.00" fill="#000000">ResourceService</text>
</g>
<!-- ResourceService&#45;&gt;ResourceModule -->
<g id="edge17" class="edge">
<title>ResourceService&#45;&gt;ResourceModule</title>
<path fill="none" stroke="#000000" d="M316.6517,-117.6701C316.6517,-136.1989 316.6517,-167 316.6517,-167 316.6517,-167 740.342,-167 740.342,-167"/>
<polygon fill="#000000" stroke="#000000" points="740.342,-170.5001 750.342,-167 740.3419,-163.5001 740.342,-170.5001"/>
</g>
<!-- ResourceConfig -->
<g id="node19" class="node">
<title>ResourceConfig</title>
<ellipse fill="#fdb462" stroke="#000000" cx="98" cy="-104" rx="73.5772" ry="18"/>
<text text-anchor="middle" x="98" y="-99.8" font-family="Times,serif" font-size="14.00" fill="#000000">ResourceConfig</text>
</g>
<!-- ResourceConfig&#45;&gt;ResourceModule -->
<g id="edge18" class="edge">
<title>ResourceConfig&#45;&gt;ResourceModule</title>
<path fill="none" stroke="#000000" d="M137.1127,-119.5396C137.1127,-139.332 137.1127,-171 137.1127,-171 137.1127,-171 740.1215,-171 740.1215,-171"/>
<polygon fill="#000000" stroke="#000000" points="740.1216,-174.5001 750.1215,-171 740.1215,-167.5001 740.1216,-174.5001"/>
</g>
</g>
</svg>
