<?xml version="1.0" encoding="UTF-8" standalone="no"?>
<!DOCTYPE svg PUBLIC "-//W3C//DTD SVG 1.1//EN"
 "http://www.w3.org/Graphics/SVG/1.1/DTD/svg11.dtd">
<!-- Generated by graphviz version 2.40.1 (20161225.0304)
 -->
<!-- Title: dependencies Pages: 1 -->
<svg width="504pt" height="284pt"
 viewBox="0.00 0.00 504.00 284.00" xmlns="http://www.w3.org/2000/svg" xmlns:xlink="http://www.w3.org/1999/xlink">
<g id="graph0" class="graph" transform="scale(1 1) rotate(0) translate(4 280)">
<title>dependencies</title>
<polygon fill="#ffffff" stroke="transparent" points="-4,4 -4,-280 500,-280 500,4 -4,4"/>
<text text-anchor="start" x="227.0091" y="-42.4" font-family="sans-serif" font-weight="bold" font-size="14.00" fill="#000000">Legend</text>
<polygon fill="#ffffb3" stroke="transparent" points="14,-10 14,-30 34,-30 34,-10 14,-10"/>
<text text-anchor="start" x="37.629" y="-15.4" font-family="sans-serif" font-size="14.00" fill="#000000"> &#160;Declarations</text>
<polygon fill="#8dd3c7" stroke="transparent" points="127,-10 127,-30 147,-30 147,-10 127,-10"/>
<text text-anchor="start" x="150.7251" y="-15.4" font-family="sans-serif" font-size="14.00" fill="#000000"> &#160;Module</text>
<polygon fill="#80b1d3" stroke="transparent" points="213,-10 213,-30 233,-30 233,-10 213,-10"/>
<text text-anchor="start" x="236.7812" y="-15.4" font-family="sans-serif" font-size="14.00" fill="#000000"> &#160;Bootstrap</text>
<polygon fill="#fdb462" stroke="transparent" points="310,-10 310,-30 330,-30 330,-10 310,-10"/>
<text text-anchor="start" x="333.6732" y="-15.4" font-family="sans-serif" font-size="14.00" fill="#000000"> &#160;Providers</text>
<polygon fill="#fb8072" stroke="transparent" points="406,-10 406,-30 426,-30 426,-10 406,-10"/>
<text text-anchor="start" x="429.7258" y="-15.4" font-family="sans-serif" font-size="14.00" fill="#000000"> &#160;Exports</text>
<g id="clust1" class="cluster">
<title>cluster_TinymceModule</title>
<polygon fill="none" stroke="#000000" stroke-dasharray="1,5" points="9.5,-70 9.5,-268 486.5,-268 486.5,-70 9.5,-70"/>
</g>
<g id="clust2" class="cluster">
<title>cluster_TinymceModule_declarations</title>
<polygon fill="none" stroke="#000000" points="330.5,-78 330.5,-130 478.5,-130 478.5,-78 330.5,-78"/>
</g>
<g id="clust4" class="cluster">
<title>cluster_TinymceModule_imports</title>
<polygon fill="none" stroke="#000000" points="17.5,-78 17.5,-130 322.5,-130 322.5,-78 17.5,-78"/>
</g>
<g id="clust5" class="cluster">
<title>cluster_TinymceModule_exports</title>
<polygon fill="none" stroke="#000000" points="144.5,-208 144.5,-260 294.5,-260 294.5,-208 144.5,-208"/>
</g>
<!-- TinymceComponent -->
<g id="node1" class="node">
<title>TinymceComponent</title>
<polygon fill="#ffffb3" stroke="#000000" points="470.0954,-122 338.9046,-122 338.9046,-86 470.0954,-86 470.0954,-122"/>
<text text-anchor="middle" x="404.5" y="-99.8" font-family="Times,serif" font-size="14.00" fill="#000000">TinymceComponent</text>
</g>
<!-- TinymceModule -->
<g id="node2" class="node">
<title>TinymceModule</title>
<polygon fill="#8dd3c7" stroke="#000000" points="274.3132,-187 271.3132,-191 250.3132,-191 247.3132,-187 164.6868,-187 164.6868,-151 274.3132,-151 274.3132,-187"/>
<text text-anchor="middle" x="219.5" y="-164.8" font-family="Times,serif" font-size="14.00" fill="#000000">TinymceModule</text>
</g>
<!-- TinymceComponent&#45;&gt;TinymceModule -->
<g id="edge1" class="edge">
<title>TinymceComponent&#45;&gt;TinymceModule</title>
<path fill="none" stroke="#000000" d="M404.5,-122.1061C404.5,-141.3391 404.5,-169 404.5,-169 404.5,-169 284.2552,-169 284.2552,-169"/>
<polygon fill="#000000" stroke="#000000" points="284.2552,-165.5001 274.2552,-169 284.2552,-172.5001 284.2552,-165.5001"/>
</g>
<!-- TinymceComponent  -->
<g id="node6" class="node">
<title>TinymceComponent </title>
<polygon fill="#fb8072" stroke="#000000" points="286.596,-252 152.404,-252 152.404,-216 286.596,-216 286.596,-252"/>
<text text-anchor="middle" x="219.5" y="-229.8" font-family="Times,serif" font-size="14.00" fill="#000000">TinymceComponent </text>
</g>
<!-- TinymceModule&#45;&gt;TinymceComponent  -->
<g id="edge5" class="edge">
<title>TinymceModule&#45;&gt;TinymceComponent </title>
<path fill="none" stroke="#000000" stroke-dasharray="5,2" d="M219.5,-187.1061C219.5,-187.1061 219.5,-205.991 219.5,-205.991"/>
<polygon fill="#000000" stroke="#000000" points="216.0001,-205.9909 219.5,-215.991 223.0001,-205.991 216.0001,-205.9909"/>
</g>
<!-- FilesModule -->
<g id="node3" class="node">
<title>FilesModule</title>
<polygon fill="#8dd3c7" stroke="#000000" points="314.7731,-122 311.7731,-126 290.7731,-126 287.7731,-122 228.2269,-122 228.2269,-86 314.7731,-86 314.7731,-122"/>
<text text-anchor="middle" x="271.5" y="-99.8" font-family="Times,serif" font-size="14.00" fill="#000000">FilesModule</text>
</g>
<!-- FilesModule&#45;&gt;TinymceModule -->
<g id="edge2" class="edge">
<title>FilesModule&#45;&gt;TinymceModule</title>
<path fill="none" stroke="#000000" d="M251.135,-122.1061C251.135,-122.1061 251.135,-140.991 251.135,-140.991"/>
<polygon fill="#000000" stroke="#000000" points="247.6351,-140.9909 251.135,-150.991 254.6351,-140.991 247.6351,-140.9909"/>
</g>
<!-- IconModule -->
<g id="node4" class="node">
<title>IconModule</title>
<polygon fill="#8dd3c7" stroke="#000000" points="209.9261,-122 206.9261,-126 185.9261,-126 182.9261,-122 125.0739,-122 125.0739,-86 209.9261,-86 209.9261,-122"/>
<text text-anchor="middle" x="167.5" y="-99.8" font-family="Times,serif" font-size="14.00" fill="#000000">IconModule</text>
</g>
<!-- IconModule&#45;&gt;TinymceModule -->
<g id="edge3" class="edge">
<title>IconModule&#45;&gt;TinymceModule</title>
<path fill="none" stroke="#000000" d="M187.2781,-122.1061C187.2781,-122.1061 187.2781,-140.991 187.2781,-140.991"/>
<polygon fill="#000000" stroke="#000000" points="183.7781,-140.9909 187.2781,-150.991 190.7781,-140.991 183.7781,-140.9909"/>
</g>
<!-- PopModule -->
<g id="node5" class="node">
<title>PopModule</title>
<polygon fill="#8dd3c7" stroke="#000000" points="107.3331,-122 104.3331,-126 83.3331,-126 80.3331,-122 25.6669,-122 25.6669,-86 107.3331,-86 107.3331,-122"/>
<text text-anchor="middle" x="66.5" y="-99.8" font-family="Times,serif" font-size="14.00" fill="#000000">PopModule</text>
</g>
<!-- PopModule&#45;&gt;TinymceModule -->
<g id="edge4" class="edge">
<title>PopModule&#45;&gt;TinymceModule</title>
<path fill="none" stroke="#000000" d="M66.5,-122.1061C66.5,-141.3391 66.5,-169 66.5,-169 66.5,-169 154.6956,-169 154.6956,-169"/>
<polygon fill="#000000" stroke="#000000" points="154.6957,-172.5001 164.6956,-169 154.6956,-165.5001 154.6957,-172.5001"/>
</g>
</g>
</svg>
