<?xml version="1.0" encoding="UTF-8" standalone="no"?>
<!DOCTYPE svg PUBLIC "-//W3C//DTD SVG 1.1//EN"
 "http://www.w3.org/Graphics/SVG/1.1/DTD/svg11.dtd">
<!-- Generated by graphviz version 2.47.0 (20210316.0004)
 -->
<!-- Title: dependencies Pages: 1 -->
<svg width="888pt" height="396pt"
 viewBox="0.00 0.00 888.00 395.59" xmlns="http://www.w3.org/2000/svg" xmlns:xlink="http://www.w3.org/1999/xlink">
<g id="graph0" class="graph" transform="scale(1 1) rotate(0) translate(4 391.59)">
<title>dependencies</title>
<polygon fill="white" stroke="transparent" points="-4,4 -4,-391.59 884,-391.59 884,4 -4,4"/>
<text text-anchor="start" x="419.01" y="-42.4" font-family="sans-serif" font-weight="bold" font-size="14.00">Legend</text>
<polygon fill="#ffffb3" stroke="transparent" points="206,-10 206,-30 226,-30 226,-10 206,-10"/>
<text text-anchor="start" x="229.63" y="-15.4" font-family="sans-serif" font-size="14.00"> &#160;Declarations</text>
<polygon fill="#8dd3c7" stroke="transparent" points="319,-10 319,-30 339,-30 339,-10 319,-10"/>
<text text-anchor="start" x="342.73" y="-15.4" font-family="sans-serif" font-size="14.00"> &#160;Module</text>
<polygon fill="#80b1d3" stroke="transparent" points="405,-10 405,-30 425,-30 425,-10 405,-10"/>
<text text-anchor="start" x="428.78" y="-15.4" font-family="sans-serif" font-size="14.00"> &#160;Bootstrap</text>
<polygon fill="#fdb462" stroke="transparent" points="502,-10 502,-30 522,-30 522,-10 502,-10"/>
<text text-anchor="start" x="525.67" y="-15.4" font-family="sans-serif" font-size="14.00"> &#160;Providers</text>
<polygon fill="#fb8072" stroke="transparent" points="598,-10 598,-30 618,-30 618,-10 598,-10"/>
<text text-anchor="start" x="621.73" y="-15.4" font-family="sans-serif" font-size="14.00"> &#160;Exports</text>
<g id="clust1" class="cluster">
<title>cluster_SelectModule</title>
<polygon fill="none" stroke="black" stroke-dasharray="1,5" points="8,-70 8,-379.59 872,-379.59 872,-70 8,-70"/>
</g>
<g id="clust5" class="cluster">
<title>cluster_SelectModule_imports</title>
<polygon fill="none" stroke="black" points="649,-189.59 649,-241.59 864,-241.59 864,-189.59 649,-189.59"/>
</g>
<g id="clust2" class="cluster">
<title>cluster_SelectModule_declarations</title>
<polygon fill="none" stroke="black" points="354,-189.59 354,-241.59 641,-241.59 641,-189.59 354,-189.59"/>
</g>
<g id="clust6" class="cluster">
<title>cluster_SelectModule_exports</title>
<polygon fill="none" stroke="black" points="421,-319.59 421,-371.59 818,-371.59 818,-319.59 421,-319.59"/>
</g>
<g id="clust4" class="cluster">
<title>cluster_SelectModule_SelectComponent_providers</title>
<polygon fill="none" stroke="black" points="16,-78 16,-176.59 864,-176.59 864,-78 16,-78"/>
</g>
<!-- ActionbarComponent -->
<g id="node1" class="node">
<title>ActionbarComponent</title>
<polygon fill="#ffffb3" stroke="black" points="632.81,-233.59 495.19,-233.59 495.19,-197.59 632.81,-197.59 632.81,-233.59"/>
<text text-anchor="middle" x="564" y="-211.39" font-family="Times,serif" font-size="14.00">ActionbarComponent</text>
</g>
<!-- SelectModule -->
<g id="node3" class="node">
<title>SelectModule</title>
<polygon fill="#8dd3c7" stroke="black" points="655.76,-298.59 652.76,-302.59 631.76,-302.59 628.76,-298.59 562.24,-298.59 562.24,-262.59 655.76,-262.59 655.76,-298.59"/>
<text text-anchor="middle" x="609" y="-276.39" font-family="Times,serif" font-size="14.00">SelectModule</text>
</g>
<!-- ActionbarComponent&#45;&gt;SelectModule -->
<g id="edge1" class="edge">
<title>ActionbarComponent&#45;&gt;SelectModule</title>
<path fill="none" stroke="black" d="M597.39,-233.7C597.39,-233.7 597.39,-252.58 597.39,-252.58"/>
<polygon fill="black" stroke="black" points="593.89,-252.58 597.39,-262.58 600.89,-252.58 593.89,-252.58"/>
</g>
<!-- SelectComponent -->
<g id="node2" class="node">
<title>SelectComponent</title>
<polygon fill="#ffffb3" stroke="black" points="477.54,-233.59 362.46,-233.59 362.46,-197.59 477.54,-197.59 477.54,-233.59"/>
<text text-anchor="middle" x="420" y="-211.39" font-family="Times,serif" font-size="14.00">SelectComponent</text>
</g>
<!-- SelectComponent&#45;&gt;SelectModule -->
<g id="edge2" class="edge">
<title>SelectComponent&#45;&gt;SelectModule</title>
<path fill="none" stroke="black" d="M453.62,-233.61C453.62,-250.96 453.62,-274.59 453.62,-274.59 453.62,-274.59 551.96,-274.59 551.96,-274.59"/>
<polygon fill="black" stroke="black" points="551.96,-278.09 561.96,-274.59 551.96,-271.09 551.96,-278.09"/>
</g>
<!-- ActionbarComponent  -->
<g id="node7" class="node">
<title>ActionbarComponent </title>
<polygon fill="#fb8072" stroke="black" points="810.31,-363.59 669.69,-363.59 669.69,-327.59 810.31,-327.59 810.31,-363.59"/>
<text text-anchor="middle" x="740" y="-341.39" font-family="Times,serif" font-size="14.00">ActionbarComponent </text>
</g>
<!-- SelectModule&#45;&gt;ActionbarComponent  -->
<g id="edge6" class="edge">
<title>SelectModule&#45;&gt;ActionbarComponent </title>
<path fill="none" stroke="black" stroke-dasharray="5,2" d="M655.87,-289.59C683.5,-289.59 713.1,-289.59 713.1,-289.59 713.1,-289.59 713.1,-317.56 713.1,-317.56"/>
<polygon fill="black" stroke="black" points="709.6,-317.56 713.1,-327.56 716.6,-317.56 709.6,-317.56"/>
</g>
<!-- ListModule  -->
<g id="node8" class="node">
<title>ListModule </title>
<polygon fill="#fb8072" stroke="black" points="651.33,-363.59 566.67,-363.59 566.67,-327.59 651.33,-327.59 651.33,-363.59"/>
<text text-anchor="middle" x="609" y="-341.39" font-family="Times,serif" font-size="14.00">ListModule </text>
</g>
<!-- SelectModule&#45;&gt;ListModule  -->
<g id="edge7" class="edge">
<title>SelectModule&#45;&gt;ListModule </title>
<path fill="none" stroke="black" stroke-dasharray="5,2" d="M609,-298.7C609,-298.7 609,-317.58 609,-317.58"/>
<polygon fill="black" stroke="black" points="605.5,-317.58 609,-327.58 612.5,-317.58 605.5,-317.58"/>
</g>
<!-- SelectComponent  -->
<g id="node9" class="node">
<title>SelectComponent </title>
<polygon fill="#fb8072" stroke="black" points="548.54,-363.59 429.46,-363.59 429.46,-327.59 548.54,-327.59 548.54,-363.59"/>
<text text-anchor="middle" x="489" y="-341.39" font-family="Times,serif" font-size="14.00">SelectComponent </text>
</g>
<!-- SelectModule&#45;&gt;SelectComponent  -->
<g id="edge8" class="edge">
<title>SelectModule&#45;&gt;SelectComponent </title>
<path fill="none" stroke="black" stroke-dasharray="5,2" d="M562.15,-286.59C541.54,-286.59 521.93,-286.59 521.93,-286.59 521.93,-286.59 521.93,-317.57 521.93,-317.57"/>
<polygon fill="black" stroke="black" points="518.43,-317.57 521.93,-327.57 525.43,-317.57 518.43,-317.57"/>
</g>
<!-- {
 &#160;&#160;&#160;provide: NG_VALUE_ACCESSOR, useExisting: forwardRef(() =&gt; SelectComponent), multi: true,
} -->
<g id="node4" class="node">
<title>{
 &#160;&#160;&#160;provide: NG_VALUE_ACCESSOR, useExisting: forwardRef(() =&gt; SelectComponent), multi: true,
}</title>
<ellipse fill="#fdb462" stroke="black" cx="440" cy="-127.3" rx="416.35" ry="41.09"/>
<text text-anchor="middle" x="440" y="-139.9" font-family="Times,serif" font-size="14.00">{</text>
<text text-anchor="middle" x="440" y="-123.1" font-family="Times,serif" font-size="14.00"> &#160;&#160;&#160;provide: NG_VALUE_ACCESSOR, useExisting: forwardRef(() =&gt; SelectComponent), multi: true,</text>
<text text-anchor="middle" x="440" y="-106.3" font-family="Times,serif" font-size="14.00">}</text>
</g>
<!-- {
 &#160;&#160;&#160;provide: NG_VALUE_ACCESSOR, useExisting: forwardRef(() =&gt; SelectComponent), multi: true,
}&#45;&gt;SelectComponent -->
<g id="edge3" class="edge">
<title>{
 &#160;&#160;&#160;provide: NG_VALUE_ACCESSOR, useExisting: forwardRef(() =&gt; SelectComponent), multi: true,
}&#45;&gt;SelectComponent</title>
<path fill="none" stroke="black" d="M420,-168.6C420,-168.6 420,-187.26 420,-187.26"/>
<polygon fill="black" stroke="black" points="416.5,-187.26 420,-197.26 423.5,-187.26 416.5,-187.26"/>
</g>
<!-- ListModule -->
<g id="node5" class="node">
<title>ListModule</title>
<polygon fill="#8dd3c7" stroke="black" points="855.83,-233.59 852.83,-237.59 831.83,-237.59 828.83,-233.59 774.17,-233.59 774.17,-197.59 855.83,-197.59 855.83,-233.59"/>
<text text-anchor="middle" x="815" y="-211.39" font-family="Times,serif" font-size="14.00">ListModule</text>
</g>
<!-- ListModule&#45;&gt;SelectModule -->
<g id="edge4" class="edge">
<title>ListModule&#45;&gt;SelectModule</title>
<path fill="none" stroke="black" d="M792.37,-233.7C792.37,-252.93 792.37,-280.59 792.37,-280.59 792.37,-280.59 666.22,-280.59 666.22,-280.59"/>
<polygon fill="black" stroke="black" points="666.22,-277.09 656.22,-280.59 666.22,-284.09 666.22,-277.09"/>
</g>
<!-- LoaderModule -->
<g id="node6" class="node">
<title>LoaderModule</title>
<polygon fill="#8dd3c7" stroke="black" points="756.69,-233.59 753.69,-237.59 732.69,-237.59 729.69,-233.59 657.31,-233.59 657.31,-197.59 756.69,-197.59 756.69,-233.59"/>
<text text-anchor="middle" x="707" y="-211.39" font-family="Times,serif" font-size="14.00">LoaderModule</text>
</g>
<!-- LoaderModule&#45;&gt;SelectModule -->
<g id="edge5" class="edge">
<title>LoaderModule&#45;&gt;SelectModule</title>
<path fill="none" stroke="black" d="M663.5,-233.62C663.5,-249.99 663.5,-271.59 663.5,-271.59 663.5,-271.59 662.74,-271.59 662.74,-271.59"/>
<polygon fill="black" stroke="black" points="665.92,-268.09 655.92,-271.59 665.92,-275.09 665.92,-268.09"/>
</g>
</g>
</svg>
