<?xml version="1.0" encoding="UTF-8" standalone="no"?>
<!DOCTYPE svg PUBLIC "-//W3C//DTD SVG 1.1//EN"
 "http://www.w3.org/Graphics/SVG/1.1/DTD/svg11.dtd">
<!-- Generated by graphviz version 2.40.1 (20161225.0304)
 -->
<!-- Title: dependencies Pages: 1 -->
<svg width="504pt" height="284pt"
 viewBox="0.00 0.00 504.00 284.00" xmlns="http://www.w3.org/2000/svg" xmlns:xlink="http://www.w3.org/1999/xlink">
<g id="graph0" class="graph" transform="scale(1 1) rotate(0) translate(4 280)">
<title>dependencies</title>
<polygon fill="#ffffff" stroke="transparent" points="-4,4 -4,-280 500,-280 500,4 -4,4"/>
<text text-anchor="start" x="227.0091" y="-42.4" font-family="sans-serif" font-weight="bold" font-size="14.00" fill="#000000">Legend</text>
<polygon fill="#ffffb3" stroke="transparent" points="14,-10 14,-30 34,-30 34,-10 14,-10"/>
<text text-anchor="start" x="37.629" y="-15.4" font-family="sans-serif" font-size="14.00" fill="#000000"> &#160;Declarations</text>
<polygon fill="#8dd3c7" stroke="transparent" points="127,-10 127,-30 147,-30 147,-10 127,-10"/>
<text text-anchor="start" x="150.7251" y="-15.4" font-family="sans-serif" font-size="14.00" fill="#000000"> &#160;Module</text>
<polygon fill="#80b1d3" stroke="transparent" points="213,-10 213,-30 233,-30 233,-10 213,-10"/>
<text text-anchor="start" x="236.7812" y="-15.4" font-family="sans-serif" font-size="14.00" fill="#000000"> &#160;Bootstrap</text>
<polygon fill="#fdb462" stroke="transparent" points="310,-10 310,-30 330,-30 330,-10 310,-10"/>
<text text-anchor="start" x="333.6732" y="-15.4" font-family="sans-serif" font-size="14.00" fill="#000000"> &#160;Providers</text>
<polygon fill="#fb8072" stroke="transparent" points="406,-10 406,-30 426,-30 426,-10 406,-10"/>
<text text-anchor="start" x="429.7258" y="-15.4" font-family="sans-serif" font-size="14.00" fill="#000000"> &#160;Exports</text>
<g id="clust1" class="cluster">
<title>cluster_SelectModule</title>
<polygon fill="none" stroke="#000000" stroke-dasharray="1,5" points="121,-70 121,-268 375,-268 375,-70 121,-70"/>
</g>
<g id="clust2" class="cluster">
<title>cluster_SelectModule_declarations</title>
<polygon fill="none" stroke="#000000" points="235,-78 235,-130 367,-130 367,-78 235,-78"/>
</g>
<g id="clust4" class="cluster">
<title>cluster_SelectModule_imports</title>
<polygon fill="none" stroke="#000000" points="129,-78 129,-130 227,-130 227,-78 129,-78"/>
</g>
<g id="clust5" class="cluster">
<title>cluster_SelectModule_exports</title>
<polygon fill="none" stroke="#000000" points="129,-208 129,-260 367,-260 367,-208 129,-208"/>
</g>
<!-- SelectComponent -->
<g id="node1" class="node">
<title>SelectComponent</title>
<polygon fill="#ffffb3" stroke="#000000" points="358.5409,-122 243.4591,-122 243.4591,-86 358.5409,-86 358.5409,-122"/>
<text text-anchor="middle" x="301" y="-99.8" font-family="Times,serif" font-size="14.00" fill="#000000">SelectComponent</text>
</g>
<!-- SelectModule -->
<g id="node2" class="node">
<title>SelectModule</title>
<polygon fill="#8dd3c7" stroke="#000000" points="295.7577,-187 292.7577,-191 271.7577,-191 268.7577,-187 202.2423,-187 202.2423,-151 295.7577,-151 295.7577,-187"/>
<text text-anchor="middle" x="249" y="-164.8" font-family="Times,serif" font-size="14.00" fill="#000000">SelectModule</text>
</g>
<!-- SelectComponent&#45;&gt;SelectModule -->
<g id="edge1" class="edge">
<title>SelectComponent&#45;&gt;SelectModule</title>
<path fill="none" stroke="#000000" d="M269.5544,-122.1061C269.5544,-122.1061 269.5544,-140.991 269.5544,-140.991"/>
<polygon fill="#000000" stroke="#000000" points="266.0544,-140.9909 269.5544,-150.991 273.0544,-140.991 266.0544,-140.9909"/>
</g>
<!-- ListModule  -->
<g id="node4" class="node">
<title>ListModule </title>
<polygon fill="#fb8072" stroke="#000000" points="359.3284,-252 274.6716,-252 274.6716,-216 359.3284,-216 359.3284,-252"/>
<text text-anchor="middle" x="317" y="-229.8" font-family="Times,serif" font-size="14.00" fill="#000000">ListModule </text>
</g>
<!-- SelectModule&#45;&gt;ListModule  -->
<g id="edge3" class="edge">
<title>SelectModule&#45;&gt;ListModule </title>
<path fill="none" stroke="#000000" stroke-dasharray="5,2" d="M285.2323,-187.1061C285.2323,-187.1061 285.2323,-205.991 285.2323,-205.991"/>
<polygon fill="#000000" stroke="#000000" points="281.7324,-205.9909 285.2323,-215.991 288.7324,-205.991 281.7324,-205.9909"/>
</g>
<!-- SelectComponent  -->
<g id="node5" class="node">
<title>SelectComponent </title>
<polygon fill="#fb8072" stroke="#000000" points="256.54,-252 137.46,-252 137.46,-216 256.54,-216 256.54,-252"/>
<text text-anchor="middle" x="197" y="-229.8" font-family="Times,serif" font-size="14.00" fill="#000000">SelectComponent </text>
</g>
<!-- SelectModule&#45;&gt;SelectComponent  -->
<g id="edge4" class="edge">
<title>SelectModule&#45;&gt;SelectComponent </title>
<path fill="none" stroke="#000000" stroke-dasharray="5,2" d="M229.3207,-187.1061C229.3207,-187.1061 229.3207,-205.991 229.3207,-205.991"/>
<polygon fill="#000000" stroke="#000000" points="225.8207,-205.9909 229.3207,-215.991 232.8207,-205.991 225.8207,-205.9909"/>
</g>
<!-- ListModule -->
<g id="node3" class="node">
<title>ListModule</title>
<polygon fill="#8dd3c7" stroke="#000000" points="218.8289,-122 215.8289,-126 194.8289,-126 191.8289,-122 137.1711,-122 137.1711,-86 218.8289,-86 218.8289,-122"/>
<text text-anchor="middle" x="178" y="-99.8" font-family="Times,serif" font-size="14.00" fill="#000000">ListModule</text>
</g>
<!-- ListModule&#45;&gt;SelectModule -->
<g id="edge2" class="edge">
<title>ListModule&#45;&gt;SelectModule</title>
<path fill="none" stroke="#000000" d="M210.3927,-122.1061C210.3927,-122.1061 210.3927,-140.991 210.3927,-140.991"/>
<polygon fill="#000000" stroke="#000000" points="206.8928,-140.9909 210.3927,-150.991 213.8928,-140.991 206.8928,-140.9909"/>
</g>
</g>
</svg>
