<?xml version="1.0" encoding="UTF-8" standalone="no"?>
<!DOCTYPE svg PUBLIC "-//W3C//DTD SVG 1.1//EN"
 "http://www.w3.org/Graphics/SVG/1.1/DTD/svg11.dtd">
<!-- Generated by graphviz version 2.40.1 (20161225.0304)
 -->
<!-- Title: dependencies Pages: 1 -->
<svg width="550pt" height="396pt"
 viewBox="0.00 0.00 550.00 395.59" xmlns="http://www.w3.org/2000/svg" xmlns:xlink="http://www.w3.org/1999/xlink">
<g id="graph0" class="graph" transform="scale(1 1) rotate(0) translate(4 391.5901)">
<title>dependencies</title>
<polygon fill="#ffffff" stroke="transparent" points="-4,4 -4,-391.5901 546,-391.5901 546,4 -4,4"/>
<text text-anchor="start" x="250.0091" y="-42.4" font-family="sans-serif" font-weight="bold" font-size="14.00" fill="#000000">Legend</text>
<polygon fill="#ffffb3" stroke="transparent" points="37,-10 37,-30 57,-30 57,-10 37,-10"/>
<text text-anchor="start" x="60.629" y="-15.4" font-family="sans-serif" font-size="14.00" fill="#000000"> &#160;Declarations</text>
<polygon fill="#8dd3c7" stroke="transparent" points="150,-10 150,-30 170,-30 170,-10 150,-10"/>
<text text-anchor="start" x="173.7251" y="-15.4" font-family="sans-serif" font-size="14.00" fill="#000000"> &#160;Module</text>
<polygon fill="#80b1d3" stroke="transparent" points="236,-10 236,-30 256,-30 256,-10 236,-10"/>
<text text-anchor="start" x="259.7812" y="-15.4" font-family="sans-serif" font-size="14.00" fill="#000000"> &#160;Bootstrap</text>
<polygon fill="#fdb462" stroke="transparent" points="333,-10 333,-30 353,-30 353,-10 333,-10"/>
<text text-anchor="start" x="356.6732" y="-15.4" font-family="sans-serif" font-size="14.00" fill="#000000"> &#160;Providers</text>
<polygon fill="#fb8072" stroke="transparent" points="429,-10 429,-30 449,-30 449,-10 429,-10"/>
<text text-anchor="start" x="452.7258" y="-15.4" font-family="sans-serif" font-size="14.00" fill="#000000"> &#160;Exports</text>
<g id="clust1" class="cluster">
<title>cluster_SelectModule</title>
<polygon fill="none" stroke="#000000" stroke-dasharray="1,5" points="8,-70 8,-379.5901 534,-379.5901 534,-70 8,-70"/>
</g>
<g id="clust2" class="cluster">
<title>cluster_SelectModule_declarations</title>
<polygon fill="none" stroke="#000000" points="239,-189.5901 239,-241.5901 526,-241.5901 526,-189.5901 239,-189.5901"/>
</g>
<g id="clust4" class="cluster">
<title>cluster_SelectModule_SelectComponent_providers</title>
<polygon fill="none" stroke="#000000" points="206,-78 206,-176.5901 404,-176.5901 404,-78 206,-78"/>
</g>
<g id="clust5" class="cluster">
<title>cluster_SelectModule_imports</title>
<polygon fill="none" stroke="#000000" points="16,-189.5901 16,-241.5901 231,-241.5901 231,-189.5901 16,-189.5901"/>
</g>
<g id="clust6" class="cluster">
<title>cluster_SelectModule_exports</title>
<polygon fill="none" stroke="#000000" points="66,-319.5901 66,-371.5901 463,-371.5901 463,-319.5901 66,-319.5901"/>
</g>
<!-- ActionbarComponent -->
<g id="node1" class="node">
<title>ActionbarComponent</title>
<polygon fill="#ffffb3" stroke="#000000" points="517.8104,-233.5901 380.1896,-233.5901 380.1896,-197.5901 517.8104,-197.5901 517.8104,-233.5901"/>
<text text-anchor="middle" x="449" y="-211.3901" font-family="Times,serif" font-size="14.00" fill="#000000">ActionbarComponent</text>
</g>
<!-- SelectModule -->
<g id="node3" class="node">
<title>SelectModule</title>
<polygon fill="#8dd3c7" stroke="#000000" points="300.7577,-298.5901 297.7577,-302.5901 276.7577,-302.5901 273.7577,-298.5901 207.2423,-298.5901 207.2423,-262.5901 300.7577,-262.5901 300.7577,-298.5901"/>
<text text-anchor="middle" x="254" y="-276.3901" font-family="Times,serif" font-size="14.00" fill="#000000">SelectModule</text>
</g>
<!-- ActionbarComponent&#45;&gt;SelectModule -->
<g id="edge1" class="edge">
<title>ActionbarComponent&#45;&gt;SelectModule</title>
<path fill="none" stroke="#000000" d="M417.875,-233.6126C417.875,-250.9634 417.875,-274.5901 417.875,-274.5901 417.875,-274.5901 310.96,-274.5901 310.96,-274.5901"/>
<polygon fill="#000000" stroke="#000000" points="310.96,-271.0902 300.96,-274.5901 310.96,-278.0902 310.96,-271.0902"/>
</g>
<!-- SelectComponent -->
<g id="node2" class="node">
<title>SelectComponent</title>
<polygon fill="#ffffb3" stroke="#000000" points="362.5409,-233.5901 247.4591,-233.5901 247.4591,-197.5901 362.5409,-197.5901 362.5409,-233.5901"/>
<text text-anchor="middle" x="305" y="-211.3901" font-family="Times,serif" font-size="14.00" fill="#000000">SelectComponent</text>
</g>
<!-- SelectComponent&#45;&gt;SelectModule -->
<g id="edge2" class="edge">
<title>SelectComponent&#45;&gt;SelectModule</title>
<path fill="none" stroke="#000000" d="M274.0544,-233.6962C274.0544,-233.6962 274.0544,-252.581 274.0544,-252.581"/>
<polygon fill="#000000" stroke="#000000" points="270.5544,-252.581 274.0544,-262.581 277.5544,-252.5811 270.5544,-252.581"/>
</g>
<!-- ActionbarComponent  -->
<g id="node7" class="node">
<title>ActionbarComponent </title>
<polygon fill="#fb8072" stroke="#000000" points="455.3101,-363.5901 314.6899,-363.5901 314.6899,-327.5901 455.3101,-327.5901 455.3101,-363.5901"/>
<text text-anchor="middle" x="385" y="-341.3901" font-family="Times,serif" font-size="14.00" fill="#000000">ActionbarComponent </text>
</g>
<!-- SelectModule&#45;&gt;ActionbarComponent  -->
<g id="edge6" class="edge">
<title>SelectModule&#45;&gt;ActionbarComponent </title>
<path fill="none" stroke="#000000" stroke-dasharray="5,2" d="M300.7996,-286.5901C320.3843,-286.5901 338.6825,-286.5901 338.6825,-286.5901 338.6825,-286.5901 338.6825,-317.5675 338.6825,-317.5675"/>
<polygon fill="#000000" stroke="#000000" points="335.1826,-317.5675 338.6825,-327.5675 342.1826,-317.5676 335.1826,-317.5675"/>
</g>
<!-- ListModule  -->
<g id="node8" class="node">
<title>ListModule </title>
<polygon fill="#fb8072" stroke="#000000" points="296.3284,-363.5901 211.6716,-363.5901 211.6716,-327.5901 296.3284,-327.5901 296.3284,-363.5901"/>
<text text-anchor="middle" x="254" y="-341.3901" font-family="Times,serif" font-size="14.00" fill="#000000">ListModule </text>
</g>
<!-- SelectModule&#45;&gt;ListModule  -->
<g id="edge7" class="edge">
<title>SelectModule&#45;&gt;ListModule </title>
<path fill="none" stroke="#000000" stroke-dasharray="5,2" d="M254,-298.6962C254,-298.6962 254,-317.581 254,-317.581"/>
<polygon fill="#000000" stroke="#000000" points="250.5001,-317.581 254,-327.581 257.5001,-317.5811 250.5001,-317.581"/>
</g>
<!-- SelectComponent  -->
<g id="node9" class="node">
<title>SelectComponent </title>
<polygon fill="#fb8072" stroke="#000000" points="193.54,-363.5901 74.46,-363.5901 74.46,-327.5901 193.54,-327.5901 193.54,-363.5901"/>
<text text-anchor="middle" x="134" y="-341.3901" font-family="Times,serif" font-size="14.00" fill="#000000">SelectComponent </text>
</g>
<!-- SelectModule&#45;&gt;SelectComponent  -->
<g id="edge8" class="edge">
<title>SelectModule&#45;&gt;SelectComponent </title>
<path fill="none" stroke="#000000" stroke-dasharray="5,2" d="M207.1667,-286.5901C186.7685,-286.5901 167.4279,-286.5901 167.4279,-286.5901 167.4279,-286.5901 167.4279,-317.5675 167.4279,-317.5675"/>
<polygon fill="#000000" stroke="#000000" points="163.928,-317.5675 167.4279,-327.5675 170.928,-317.5676 163.928,-317.5675"/>
</g>
<!-- {
 &#160;&#160;&#160;: , : (() =&gt; ), : true
} -->
<g id="node4" class="node">
<title>{
 &#160;&#160;&#160;: , : (() =&gt; ), : true
}</title>
<ellipse fill="#fdb462" stroke="#000000" cx="305" cy="-127.295" rx="91.4557" ry="41.0911"/>
<text text-anchor="middle" x="305" y="-139.895" font-family="Times,serif" font-size="14.00" fill="#000000">{</text>
<text text-anchor="middle" x="305" y="-123.095" font-family="Times,serif" font-size="14.00" fill="#000000"> &#160;&#160;&#160;: , : (() =&gt; ), : true</text>
<text text-anchor="middle" x="305" y="-106.295" font-family="Times,serif" font-size="14.00" fill="#000000">}</text>
</g>
<!-- {
 &#160;&#160;&#160;: , : (() =&gt; ), : true
}&#45;&gt;SelectComponent -->
<g id="edge3" class="edge">
<title>{
 &#160;&#160;&#160;: , : (() =&gt; ), : true
}&#45;&gt;SelectComponent</title>
<path fill="none" stroke="#000000" d="M305,-168.5989C305,-168.5989 305,-187.2551 305,-187.2551"/>
<polygon fill="#000000" stroke="#000000" points="301.5001,-187.255 305,-197.2551 308.5001,-187.2551 301.5001,-187.255"/>
</g>
<!-- ListModule -->
<g id="node5" class="node">
<title>ListModule</title>
<polygon fill="#8dd3c7" stroke="#000000" points="222.8289,-233.5901 219.8289,-237.5901 198.8289,-237.5901 195.8289,-233.5901 141.1711,-233.5901 141.1711,-197.5901 222.8289,-197.5901 222.8289,-233.5901"/>
<text text-anchor="middle" x="182" y="-211.3901" font-family="Times,serif" font-size="14.00" fill="#000000">ListModule</text>
</g>
<!-- ListModule&#45;&gt;SelectModule -->
<g id="edge4" class="edge">
<title>ListModule&#45;&gt;SelectModule</title>
<path fill="none" stroke="#000000" d="M214.8927,-233.6962C214.8927,-233.6962 214.8927,-252.581 214.8927,-252.581"/>
<polygon fill="#000000" stroke="#000000" points="211.3928,-252.581 214.8927,-262.581 218.3928,-252.5811 211.3928,-252.581"/>
</g>
<!-- LoaderModule -->
<g id="node6" class="node">
<title>LoaderModule</title>
<polygon fill="#8dd3c7" stroke="#000000" points="123.6924,-233.5901 120.6924,-237.5901 99.6924,-237.5901 96.6924,-233.5901 24.3076,-233.5901 24.3076,-197.5901 123.6924,-197.5901 123.6924,-233.5901"/>
<text text-anchor="middle" x="74" y="-211.3901" font-family="Times,serif" font-size="14.00" fill="#000000">LoaderModule</text>
</g>
<!-- LoaderModule&#45;&gt;SelectModule -->
<g id="edge5" class="edge">
<title>LoaderModule&#45;&gt;SelectModule</title>
<path fill="none" stroke="#000000" d="M99.0381,-233.6126C99.0381,-250.9634 99.0381,-274.5901 99.0381,-274.5901 99.0381,-274.5901 197.0858,-274.5901 197.0858,-274.5901"/>
<polygon fill="#000000" stroke="#000000" points="197.0858,-278.0902 207.0858,-274.5901 197.0857,-271.0902 197.0858,-278.0902"/>
</g>
</g>
</svg>
