<?xml version="1.0" encoding="UTF-8" standalone="no"?>
<!DOCTYPE svg PUBLIC "-//W3C//DTD SVG 1.1//EN"
 "http://www.w3.org/Graphics/SVG/1.1/DTD/svg11.dtd">
<!-- Generated by graphviz version 2.40.1 (20161225.0304)
 -->
<!-- Title: dependencies Pages: 1 -->
<svg width="888pt" height="396pt"
 viewBox="0.00 0.00 888.00 395.59" xmlns="http://www.w3.org/2000/svg" xmlns:xlink="http://www.w3.org/1999/xlink">
<g id="graph0" class="graph" transform="scale(1 1) rotate(0) translate(4 391.5901)">
<title>dependencies</title>
<polygon fill="#ffffff" stroke="transparent" points="-4,4 -4,-391.5901 884,-391.5901 884,4 -4,4"/>
<text text-anchor="start" x="419.0091" y="-42.4" font-family="sans-serif" font-weight="bold" font-size="14.00" fill="#000000">Legend</text>
<polygon fill="#ffffb3" stroke="transparent" points="206,-10 206,-30 226,-30 226,-10 206,-10"/>
<text text-anchor="start" x="229.629" y="-15.4" font-family="sans-serif" font-size="14.00" fill="#000000"> &#160;Declarations</text>
<polygon fill="#8dd3c7" stroke="transparent" points="319,-10 319,-30 339,-30 339,-10 319,-10"/>
<text text-anchor="start" x="342.7251" y="-15.4" font-family="sans-serif" font-size="14.00" fill="#000000"> &#160;Module</text>
<polygon fill="#80b1d3" stroke="transparent" points="405,-10 405,-30 425,-30 425,-10 405,-10"/>
<text text-anchor="start" x="428.7812" y="-15.4" font-family="sans-serif" font-size="14.00" fill="#000000"> &#160;Bootstrap</text>
<polygon fill="#fdb462" stroke="transparent" points="502,-10 502,-30 522,-30 522,-10 502,-10"/>
<text text-anchor="start" x="525.6732" y="-15.4" font-family="sans-serif" font-size="14.00" fill="#000000"> &#160;Providers</text>
<polygon fill="#fb8072" stroke="transparent" points="598,-10 598,-30 618,-30 618,-10 598,-10"/>
<text text-anchor="start" x="621.7258" y="-15.4" font-family="sans-serif" font-size="14.00" fill="#000000"> &#160;Exports</text>
<g id="clust1" class="cluster">
<title>cluster_SelectModule</title>
<polygon fill="none" stroke="#000000" stroke-dasharray="1,5" points="8,-70 8,-379.5901 872,-379.5901 872,-70 8,-70"/>
</g>
<g id="clust2" class="cluster">
<title>cluster_SelectModule_declarations</title>
<polygon fill="none" stroke="#000000" points="374,-189.5901 374,-241.5901 661,-241.5901 661,-189.5901 374,-189.5901"/>
</g>
<g id="clust4" class="cluster">
<title>cluster_SelectModule_SelectComponent_providers</title>
<polygon fill="none" stroke="#000000" points="16,-78 16,-176.5901 864,-176.5901 864,-78 16,-78"/>
</g>
<g id="clust5" class="cluster">
<title>cluster_SelectModule_imports</title>
<polygon fill="none" stroke="#000000" points="151,-189.5901 151,-241.5901 366,-241.5901 366,-189.5901 151,-189.5901"/>
</g>
<g id="clust6" class="cluster">
<title>cluster_SelectModule_exports</title>
<polygon fill="none" stroke="#000000" points="190,-319.5901 190,-371.5901 587,-371.5901 587,-319.5901 190,-319.5901"/>
</g>
<!-- ActionbarComponent -->
<g id="node1" class="node">
<title>ActionbarComponent</title>
<polygon fill="#ffffb3" stroke="#000000" points="652.8104,-233.5901 515.1896,-233.5901 515.1896,-197.5901 652.8104,-197.5901 652.8104,-233.5901"/>
<text text-anchor="middle" x="584" y="-211.3901" font-family="Times,serif" font-size="14.00" fill="#000000">ActionbarComponent</text>
</g>
<!-- SelectModule -->
<g id="node3" class="node">
<title>SelectModule</title>
<polygon fill="#8dd3c7" stroke="#000000" points="424.7577,-298.5901 421.7577,-302.5901 400.7577,-302.5901 397.7577,-298.5901 331.2423,-298.5901 331.2423,-262.5901 424.7577,-262.5901 424.7577,-298.5901"/>
<text text-anchor="middle" x="378" y="-276.3901" font-family="Times,serif" font-size="14.00" fill="#000000">SelectModule</text>
</g>
<!-- ActionbarComponent&#45;&gt;SelectModule -->
<g id="edge1" class="edge">
<title>ActionbarComponent&#45;&gt;SelectModule</title>
<path fill="none" stroke="#000000" d="M547.375,-233.6126C547.375,-250.9634 547.375,-274.5901 547.375,-274.5901 547.375,-274.5901 435.1804,-274.5901 435.1804,-274.5901"/>
<polygon fill="#000000" stroke="#000000" points="435.1804,-271.0902 425.1804,-274.5901 435.1803,-278.0902 435.1804,-271.0902"/>
</g>
<!-- SelectComponent -->
<g id="node2" class="node">
<title>SelectComponent</title>
<polygon fill="#ffffb3" stroke="#000000" points="497.5409,-233.5901 382.4591,-233.5901 382.4591,-197.5901 497.5409,-197.5901 497.5409,-233.5901"/>
<text text-anchor="middle" x="440" y="-211.3901" font-family="Times,serif" font-size="14.00" fill="#000000">SelectComponent</text>
</g>
<!-- SelectComponent&#45;&gt;SelectModule -->
<g id="edge2" class="edge">
<title>SelectComponent&#45;&gt;SelectModule</title>
<path fill="none" stroke="#000000" d="M403.5544,-233.6962C403.5544,-233.6962 403.5544,-252.581 403.5544,-252.581"/>
<polygon fill="#000000" stroke="#000000" points="400.0544,-252.581 403.5544,-262.581 407.0544,-252.5811 400.0544,-252.581"/>
</g>
<!-- ActionbarComponent  -->
<g id="node7" class="node">
<title>ActionbarComponent </title>
<polygon fill="#fb8072" stroke="#000000" points="579.3101,-363.5901 438.6899,-363.5901 438.6899,-327.5901 579.3101,-327.5901 579.3101,-363.5901"/>
<text text-anchor="middle" x="509" y="-341.3901" font-family="Times,serif" font-size="14.00" fill="#000000">ActionbarComponent </text>
</g>
<!-- SelectModule&#45;&gt;ActionbarComponent  -->
<g id="edge6" class="edge">
<title>SelectModule&#45;&gt;ActionbarComponent </title>
<path fill="none" stroke="#000000" stroke-dasharray="5,2" d="M424.9402,-286.5901C446.853,-286.5901 468.1825,-286.5901 468.1825,-286.5901 468.1825,-286.5901 468.1825,-317.5675 468.1825,-317.5675"/>
<polygon fill="#000000" stroke="#000000" points="464.6826,-317.5675 468.1825,-327.5675 471.6826,-317.5676 464.6826,-317.5675"/>
</g>
<!-- ListModule  -->
<g id="node8" class="node">
<title>ListModule </title>
<polygon fill="#fb8072" stroke="#000000" points="420.3284,-363.5901 335.6716,-363.5901 335.6716,-327.5901 420.3284,-327.5901 420.3284,-363.5901"/>
<text text-anchor="middle" x="378" y="-341.3901" font-family="Times,serif" font-size="14.00" fill="#000000">ListModule </text>
</g>
<!-- SelectModule&#45;&gt;ListModule  -->
<g id="edge7" class="edge">
<title>SelectModule&#45;&gt;ListModule </title>
<path fill="none" stroke="#000000" stroke-dasharray="5,2" d="M378,-298.6962C378,-298.6962 378,-317.581 378,-317.581"/>
<polygon fill="#000000" stroke="#000000" points="374.5001,-317.581 378,-327.581 381.5001,-317.5811 374.5001,-317.581"/>
</g>
<!-- SelectComponent  -->
<g id="node9" class="node">
<title>SelectComponent </title>
<polygon fill="#fb8072" stroke="#000000" points="317.54,-363.5901 198.46,-363.5901 198.46,-327.5901 317.54,-327.5901 317.54,-363.5901"/>
<text text-anchor="middle" x="258" y="-341.3901" font-family="Times,serif" font-size="14.00" fill="#000000">SelectComponent </text>
</g>
<!-- SelectModule&#45;&gt;SelectComponent  -->
<g id="edge8" class="edge">
<title>SelectModule&#45;&gt;SelectComponent </title>
<path fill="none" stroke="#000000" stroke-dasharray="5,2" d="M330.8401,-286.5901C313.0048,-286.5901 296.928,-286.5901 296.928,-286.5901 296.928,-286.5901 296.928,-317.5675 296.928,-317.5675"/>
<polygon fill="#000000" stroke="#000000" points="293.428,-317.5675 296.928,-327.5675 300.428,-317.5676 293.428,-317.5675"/>
</g>
<!-- {
 &#160;&#160;&#160;provide: NG_VALUE_ACCESSOR, useExisting: forwardRef(() =&gt; SelectComponent), multi: true,
} -->
<g id="node4" class="node">
<title>{
 &#160;&#160;&#160;provide: NG_VALUE_ACCESSOR, useExisting: forwardRef(() =&gt; SelectComponent), multi: true,
}</title>
<ellipse fill="#fdb462" stroke="#000000" cx="440" cy="-127.295" rx="416.3488" ry="41.0911"/>
<text text-anchor="middle" x="440" y="-139.895" font-family="Times,serif" font-size="14.00" fill="#000000">{</text>
<text text-anchor="middle" x="440" y="-123.095" font-family="Times,serif" font-size="14.00" fill="#000000"> &#160;&#160;&#160;provide: NG_VALUE_ACCESSOR, useExisting: forwardRef(() =&gt; SelectComponent), multi: true,</text>
<text text-anchor="middle" x="440" y="-106.295" font-family="Times,serif" font-size="14.00" fill="#000000">}</text>
</g>
<!-- {
 &#160;&#160;&#160;provide: NG_VALUE_ACCESSOR, useExisting: forwardRef(() =&gt; SelectComponent), multi: true,
}&#45;&gt;SelectComponent -->
<g id="edge3" class="edge">
<title>{
 &#160;&#160;&#160;provide: NG_VALUE_ACCESSOR, useExisting: forwardRef(() =&gt; SelectComponent), multi: true,
}&#45;&gt;SelectComponent</title>
<path fill="none" stroke="#000000" d="M440,-168.5989C440,-168.5989 440,-187.2551 440,-187.2551"/>
<polygon fill="#000000" stroke="#000000" points="436.5001,-187.255 440,-197.2551 443.5001,-187.2551 436.5001,-187.255"/>
</g>
<!-- ListModule -->
<g id="node5" class="node">
<title>ListModule</title>
<polygon fill="#8dd3c7" stroke="#000000" points="357.8289,-233.5901 354.8289,-237.5901 333.8289,-237.5901 330.8289,-233.5901 276.1711,-233.5901 276.1711,-197.5901 357.8289,-197.5901 357.8289,-233.5901"/>
<text text-anchor="middle" x="317" y="-211.3901" font-family="Times,serif" font-size="14.00" fill="#000000">ListModule</text>
</g>
<!-- ListModule&#45;&gt;SelectModule -->
<g id="edge4" class="edge">
<title>ListModule&#45;&gt;SelectModule</title>
<path fill="none" stroke="#000000" d="M344.3927,-233.6962C344.3927,-233.6962 344.3927,-252.581 344.3927,-252.581"/>
<polygon fill="#000000" stroke="#000000" points="340.8928,-252.581 344.3927,-262.581 347.8928,-252.5811 340.8928,-252.581"/>
</g>
<!-- LoaderModule -->
<g id="node6" class="node">
<title>LoaderModule</title>
<polygon fill="#8dd3c7" stroke="#000000" points="258.6924,-233.5901 255.6924,-237.5901 234.6924,-237.5901 231.6924,-233.5901 159.3076,-233.5901 159.3076,-197.5901 258.6924,-197.5901 258.6924,-233.5901"/>
<text text-anchor="middle" x="209" y="-211.3901" font-family="Times,serif" font-size="14.00" fill="#000000">LoaderModule</text>
</g>
<!-- LoaderModule&#45;&gt;SelectModule -->
<g id="edge5" class="edge">
<title>LoaderModule&#45;&gt;SelectModule</title>
<path fill="none" stroke="#000000" d="M228.5381,-233.6126C228.5381,-250.9634 228.5381,-274.5901 228.5381,-274.5901 228.5381,-274.5901 321.1194,-274.5901 321.1194,-274.5901"/>
<polygon fill="#000000" stroke="#000000" points="321.1194,-278.0902 331.1194,-274.5901 321.1193,-271.0902 321.1194,-278.0902"/>
</g>
</g>
</svg>
