<?xml version="1.0" encoding="UTF-8" standalone="no"?>
<!DOCTYPE svg PUBLIC "-//W3C//DTD SVG 1.1//EN"
 "http://www.w3.org/Graphics/SVG/1.1/DTD/svg11.dtd">
<!-- Generated by graphviz version 2.40.1 (20161225.0304)
 -->
<!-- Title: dependencies Pages: 1 -->
<svg width="550pt" height="284pt"
 viewBox="0.00 0.00 550.00 284.00" xmlns="http://www.w3.org/2000/svg" xmlns:xlink="http://www.w3.org/1999/xlink">
<g id="graph0" class="graph" transform="scale(1 1) rotate(0) translate(4 280)">
<title>dependencies</title>
<polygon fill="#ffffff" stroke="transparent" points="-4,4 -4,-280 546,-280 546,4 -4,4"/>
<text text-anchor="start" x="250.0091" y="-42.4" font-family="sans-serif" font-weight="bold" font-size="14.00" fill="#000000">Legend</text>
<polygon fill="#ffffb3" stroke="transparent" points="37,-10 37,-30 57,-30 57,-10 37,-10"/>
<text text-anchor="start" x="60.629" y="-15.4" font-family="sans-serif" font-size="14.00" fill="#000000"> &#160;Declarations</text>
<polygon fill="#8dd3c7" stroke="transparent" points="150,-10 150,-30 170,-30 170,-10 150,-10"/>
<text text-anchor="start" x="173.7251" y="-15.4" font-family="sans-serif" font-size="14.00" fill="#000000"> &#160;Module</text>
<polygon fill="#80b1d3" stroke="transparent" points="236,-10 236,-30 256,-30 256,-10 236,-10"/>
<text text-anchor="start" x="259.7812" y="-15.4" font-family="sans-serif" font-size="14.00" fill="#000000"> &#160;Bootstrap</text>
<polygon fill="#fdb462" stroke="transparent" points="333,-10 333,-30 353,-30 353,-10 333,-10"/>
<text text-anchor="start" x="356.6732" y="-15.4" font-family="sans-serif" font-size="14.00" fill="#000000"> &#160;Providers</text>
<polygon fill="#fb8072" stroke="transparent" points="429,-10 429,-30 449,-30 449,-10 429,-10"/>
<text text-anchor="start" x="452.7258" y="-15.4" font-family="sans-serif" font-size="14.00" fill="#000000"> &#160;Exports</text>
<g id="clust1" class="cluster">
<title>cluster_SelectModule</title>
<polygon fill="none" stroke="#000000" stroke-dasharray="1,5" points="8,-70 8,-268 534,-268 534,-70 8,-70"/>
</g>
<g id="clust2" class="cluster">
<title>cluster_SelectModule_declarations</title>
<polygon fill="none" stroke="#000000" points="239,-78 239,-130 526,-130 526,-78 239,-78"/>
</g>
<g id="clust5" class="cluster">
<title>cluster_SelectModule_imports</title>
<polygon fill="none" stroke="#000000" points="16,-78 16,-130 231,-130 231,-78 16,-78"/>
</g>
<g id="clust6" class="cluster">
<title>cluster_SelectModule_exports</title>
<polygon fill="none" stroke="#000000" points="66,-208 66,-260 463,-260 463,-208 66,-208"/>
</g>
<!-- ActionbarComponent -->
<g id="node1" class="node">
<title>ActionbarComponent</title>
<polygon fill="#ffffb3" stroke="#000000" points="517.8104,-122 380.1896,-122 380.1896,-86 517.8104,-86 517.8104,-122"/>
<text text-anchor="middle" x="449" y="-99.8" font-family="Times,serif" font-size="14.00" fill="#000000">ActionbarComponent</text>
</g>
<!-- SelectModule -->
<g id="node3" class="node">
<title>SelectModule</title>
<polygon fill="#8dd3c7" stroke="#000000" points="300.7577,-187 297.7577,-191 276.7577,-191 273.7577,-187 207.2423,-187 207.2423,-151 300.7577,-151 300.7577,-187"/>
<text text-anchor="middle" x="254" y="-164.8" font-family="Times,serif" font-size="14.00" fill="#000000">SelectModule</text>
</g>
<!-- ActionbarComponent&#45;&gt;SelectModule -->
<g id="edge1" class="edge">
<title>ActionbarComponent&#45;&gt;SelectModule</title>
<path fill="none" stroke="#000000" d="M417.875,-122.0225C417.875,-139.3734 417.875,-163 417.875,-163 417.875,-163 310.96,-163 310.96,-163"/>
<polygon fill="#000000" stroke="#000000" points="310.96,-159.5001 300.96,-163 310.96,-166.5001 310.96,-159.5001"/>
</g>
<!-- SelectComponent -->
<g id="node2" class="node">
<title>SelectComponent</title>
<polygon fill="#ffffb3" stroke="#000000" points="362.5409,-122 247.4591,-122 247.4591,-86 362.5409,-86 362.5409,-122"/>
<text text-anchor="middle" x="305" y="-99.8" font-family="Times,serif" font-size="14.00" fill="#000000">SelectComponent</text>
</g>
<!-- SelectComponent&#45;&gt;SelectModule -->
<g id="edge2" class="edge">
<title>SelectComponent&#45;&gt;SelectModule</title>
<path fill="none" stroke="#000000" d="M274.0544,-122.1061C274.0544,-122.1061 274.0544,-140.991 274.0544,-140.991"/>
<polygon fill="#000000" stroke="#000000" points="270.5544,-140.9909 274.0544,-150.991 277.5544,-140.991 270.5544,-140.9909"/>
</g>
<!-- ActionbarComponent  -->
<g id="node6" class="node">
<title>ActionbarComponent </title>
<polygon fill="#fb8072" stroke="#000000" points="455.3101,-252 314.6899,-252 314.6899,-216 455.3101,-216 455.3101,-252"/>
<text text-anchor="middle" x="385" y="-229.8" font-family="Times,serif" font-size="14.00" fill="#000000">ActionbarComponent </text>
</g>
<!-- SelectModule&#45;&gt;ActionbarComponent  -->
<g id="edge5" class="edge">
<title>SelectModule&#45;&gt;ActionbarComponent </title>
<path fill="none" stroke="#000000" stroke-dasharray="5,2" d="M300.7996,-175C320.3843,-175 338.6825,-175 338.6825,-175 338.6825,-175 338.6825,-205.9775 338.6825,-205.9775"/>
<polygon fill="#000000" stroke="#000000" points="335.1826,-205.9774 338.6825,-215.9775 342.1826,-205.9775 335.1826,-205.9774"/>
</g>
<!-- ListModule  -->
<g id="node7" class="node">
<title>ListModule </title>
<polygon fill="#fb8072" stroke="#000000" points="296.3284,-252 211.6716,-252 211.6716,-216 296.3284,-216 296.3284,-252"/>
<text text-anchor="middle" x="254" y="-229.8" font-family="Times,serif" font-size="14.00" fill="#000000">ListModule </text>
</g>
<!-- SelectModule&#45;&gt;ListModule  -->
<g id="edge6" class="edge">
<title>SelectModule&#45;&gt;ListModule </title>
<path fill="none" stroke="#000000" stroke-dasharray="5,2" d="M254,-187.1061C254,-187.1061 254,-205.991 254,-205.991"/>
<polygon fill="#000000" stroke="#000000" points="250.5001,-205.9909 254,-215.991 257.5001,-205.991 250.5001,-205.9909"/>
</g>
<!-- SelectComponent  -->
<g id="node8" class="node">
<title>SelectComponent </title>
<polygon fill="#fb8072" stroke="#000000" points="193.54,-252 74.46,-252 74.46,-216 193.54,-216 193.54,-252"/>
<text text-anchor="middle" x="134" y="-229.8" font-family="Times,serif" font-size="14.00" fill="#000000">SelectComponent </text>
</g>
<!-- SelectModule&#45;&gt;SelectComponent  -->
<g id="edge7" class="edge">
<title>SelectModule&#45;&gt;SelectComponent </title>
<path fill="none" stroke="#000000" stroke-dasharray="5,2" d="M207.1667,-175C186.7685,-175 167.4279,-175 167.4279,-175 167.4279,-175 167.4279,-205.9775 167.4279,-205.9775"/>
<polygon fill="#000000" stroke="#000000" points="163.928,-205.9774 167.4279,-215.9775 170.928,-205.9775 163.928,-205.9774"/>
</g>
<!-- ListModule -->
<g id="node4" class="node">
<title>ListModule</title>
<polygon fill="#8dd3c7" stroke="#000000" points="222.8289,-122 219.8289,-126 198.8289,-126 195.8289,-122 141.1711,-122 141.1711,-86 222.8289,-86 222.8289,-122"/>
<text text-anchor="middle" x="182" y="-99.8" font-family="Times,serif" font-size="14.00" fill="#000000">ListModule</text>
</g>
<!-- ListModule&#45;&gt;SelectModule -->
<g id="edge3" class="edge">
<title>ListModule&#45;&gt;SelectModule</title>
<path fill="none" stroke="#000000" d="M214.8927,-122.1061C214.8927,-122.1061 214.8927,-140.991 214.8927,-140.991"/>
<polygon fill="#000000" stroke="#000000" points="211.3928,-140.9909 214.8927,-150.991 218.3928,-140.991 211.3928,-140.9909"/>
</g>
<!-- LoaderModule -->
<g id="node5" class="node">
<title>LoaderModule</title>
<polygon fill="#8dd3c7" stroke="#000000" points="123.6924,-122 120.6924,-126 99.6924,-126 96.6924,-122 24.3076,-122 24.3076,-86 123.6924,-86 123.6924,-122"/>
<text text-anchor="middle" x="74" y="-99.8" font-family="Times,serif" font-size="14.00" fill="#000000">LoaderModule</text>
</g>
<!-- LoaderModule&#45;&gt;SelectModule -->
<g id="edge4" class="edge">
<title>LoaderModule&#45;&gt;SelectModule</title>
<path fill="none" stroke="#000000" d="M99.0381,-122.0225C99.0381,-139.3734 99.0381,-163 99.0381,-163 99.0381,-163 197.0858,-163 197.0858,-163"/>
<polygon fill="#000000" stroke="#000000" points="197.0858,-166.5001 207.0858,-163 197.0857,-159.5001 197.0858,-166.5001"/>
</g>
</g>
</svg>
