<?xml version="1.0" encoding="UTF-8" standalone="no"?>
<!DOCTYPE svg PUBLIC "-//W3C//DTD SVG 1.1//EN"
 "http://www.w3.org/Graphics/SVG/1.1/DTD/svg11.dtd">
<!-- Generated by graphviz version 2.40.1 (20161225.0304)
 -->
<!-- Title: dependencies Pages: 1 -->
<svg width="504pt" height="396pt"
 viewBox="0.00 0.00 504.00 395.59" xmlns="http://www.w3.org/2000/svg" xmlns:xlink="http://www.w3.org/1999/xlink">
<g id="graph0" class="graph" transform="scale(1 1) rotate(0) translate(4 391.5901)">
<title>dependencies</title>
<polygon fill="#ffffff" stroke="transparent" points="-4,4 -4,-391.5901 500,-391.5901 500,4 -4,4"/>
<text text-anchor="start" x="227.0091" y="-42.4" font-family="sans-serif" font-weight="bold" font-size="14.00" fill="#000000">Legend</text>
<polygon fill="#ffffb3" stroke="transparent" points="14,-10 14,-30 34,-30 34,-10 14,-10"/>
<text text-anchor="start" x="37.629" y="-15.4" font-family="sans-serif" font-size="14.00" fill="#000000"> &#160;Declarations</text>
<polygon fill="#8dd3c7" stroke="transparent" points="127,-10 127,-30 147,-30 147,-10 127,-10"/>
<text text-anchor="start" x="150.7251" y="-15.4" font-family="sans-serif" font-size="14.00" fill="#000000"> &#160;Module</text>
<polygon fill="#80b1d3" stroke="transparent" points="213,-10 213,-30 233,-30 233,-10 213,-10"/>
<text text-anchor="start" x="236.7812" y="-15.4" font-family="sans-serif" font-size="14.00" fill="#000000"> &#160;Bootstrap</text>
<polygon fill="#fdb462" stroke="transparent" points="310,-10 310,-30 330,-30 330,-10 310,-10"/>
<text text-anchor="start" x="333.6732" y="-15.4" font-family="sans-serif" font-size="14.00" fill="#000000"> &#160;Providers</text>
<polygon fill="#fb8072" stroke="transparent" points="406,-10 406,-30 426,-30 426,-10 406,-10"/>
<text text-anchor="start" x="429.7258" y="-15.4" font-family="sans-serif" font-size="14.00" fill="#000000"> &#160;Exports</text>
<g id="clust1" class="cluster">
<title>cluster_SelectModule</title>
<polygon fill="none" stroke="#000000" stroke-dasharray="1,5" points="121,-70 121,-379.5901 375,-379.5901 375,-70 121,-70"/>
</g>
<g id="clust2" class="cluster">
<title>cluster_SelectModule_declarations</title>
<polygon fill="none" stroke="#000000" points="235,-189.5901 235,-241.5901 367,-241.5901 367,-189.5901 235,-189.5901"/>
</g>
<g id="clust3" class="cluster">
<title>cluster_SelectModule_SelectComponent_providers</title>
<polygon fill="none" stroke="#000000" points="169,-78 169,-176.5901 367,-176.5901 367,-78 169,-78"/>
</g>
<g id="clust4" class="cluster">
<title>cluster_SelectModule_imports</title>
<polygon fill="none" stroke="#000000" points="129,-189.5901 129,-241.5901 227,-241.5901 227,-189.5901 129,-189.5901"/>
</g>
<g id="clust5" class="cluster">
<title>cluster_SelectModule_exports</title>
<polygon fill="none" stroke="#000000" points="129,-319.5901 129,-371.5901 367,-371.5901 367,-319.5901 129,-319.5901"/>
</g>
<!-- SelectComponent -->
<g id="node1" class="node">
<title>SelectComponent</title>
<polygon fill="#ffffb3" stroke="#000000" points="358.5409,-233.5901 243.4591,-233.5901 243.4591,-197.5901 358.5409,-197.5901 358.5409,-233.5901"/>
<text text-anchor="middle" x="301" y="-211.3901" font-family="Times,serif" font-size="14.00" fill="#000000">SelectComponent</text>
</g>
<!-- SelectModule -->
<g id="node2" class="node">
<title>SelectModule</title>
<polygon fill="#8dd3c7" stroke="#000000" points="295.7577,-298.5901 292.7577,-302.5901 271.7577,-302.5901 268.7577,-298.5901 202.2423,-298.5901 202.2423,-262.5901 295.7577,-262.5901 295.7577,-298.5901"/>
<text text-anchor="middle" x="249" y="-276.3901" font-family="Times,serif" font-size="14.00" fill="#000000">SelectModule</text>
</g>
<!-- SelectComponent&#45;&gt;SelectModule -->
<g id="edge1" class="edge">
<title>SelectComponent&#45;&gt;SelectModule</title>
<path fill="none" stroke="#000000" d="M269.5544,-233.6962C269.5544,-233.6962 269.5544,-252.581 269.5544,-252.581"/>
<polygon fill="#000000" stroke="#000000" points="266.0544,-252.581 269.5544,-262.581 273.0544,-252.5811 266.0544,-252.581"/>
</g>
<!-- ListModule  -->
<g id="node5" class="node">
<title>ListModule </title>
<polygon fill="#fb8072" stroke="#000000" points="359.3284,-363.5901 274.6716,-363.5901 274.6716,-327.5901 359.3284,-327.5901 359.3284,-363.5901"/>
<text text-anchor="middle" x="317" y="-341.3901" font-family="Times,serif" font-size="14.00" fill="#000000">ListModule </text>
</g>
<!-- SelectModule&#45;&gt;ListModule  -->
<g id="edge4" class="edge">
<title>SelectModule&#45;&gt;ListModule </title>
<path fill="none" stroke="#000000" stroke-dasharray="5,2" d="M285.2323,-298.6962C285.2323,-298.6962 285.2323,-317.581 285.2323,-317.581"/>
<polygon fill="#000000" stroke="#000000" points="281.7324,-317.581 285.2323,-327.581 288.7324,-317.5811 281.7324,-317.581"/>
</g>
<!-- SelectComponent  -->
<g id="node6" class="node">
<title>SelectComponent </title>
<polygon fill="#fb8072" stroke="#000000" points="256.54,-363.5901 137.46,-363.5901 137.46,-327.5901 256.54,-327.5901 256.54,-363.5901"/>
<text text-anchor="middle" x="197" y="-341.3901" font-family="Times,serif" font-size="14.00" fill="#000000">SelectComponent </text>
</g>
<!-- SelectModule&#45;&gt;SelectComponent  -->
<g id="edge5" class="edge">
<title>SelectModule&#45;&gt;SelectComponent </title>
<path fill="none" stroke="#000000" stroke-dasharray="5,2" d="M229.3207,-298.6962C229.3207,-298.6962 229.3207,-317.581 229.3207,-317.581"/>
<polygon fill="#000000" stroke="#000000" points="225.8207,-317.581 229.3207,-327.581 232.8207,-317.5811 225.8207,-317.581"/>
</g>
<!-- {
 &#160;&#160;&#160;: , : (() =&gt; ), : true
} -->
<g id="node3" class="node">
<title>{
 &#160;&#160;&#160;: , : (() =&gt; ), : true
}</title>
<ellipse fill="#fdb462" stroke="#000000" cx="268" cy="-127.295" rx="91.4557" ry="41.0911"/>
<text text-anchor="middle" x="268" y="-139.895" font-family="Times,serif" font-size="14.00" fill="#000000">{</text>
<text text-anchor="middle" x="268" y="-123.095" font-family="Times,serif" font-size="14.00" fill="#000000"> &#160;&#160;&#160;: , : (() =&gt; ), : true</text>
<text text-anchor="middle" x="268" y="-106.295" font-family="Times,serif" font-size="14.00" fill="#000000">}</text>
</g>
<!-- {
 &#160;&#160;&#160;: , : (() =&gt; ), : true
}&#45;&gt;SelectComponent -->
<g id="edge2" class="edge">
<title>{
 &#160;&#160;&#160;: , : (() =&gt; ), : true
}&#45;&gt;SelectComponent</title>
<path fill="none" stroke="#000000" d="M301,-166.0225C301,-166.0225 301,-187.4408 301,-187.4408"/>
<polygon fill="#000000" stroke="#000000" points="297.5001,-187.4407 301,-197.4408 304.5001,-187.4408 297.5001,-187.4407"/>
</g>
<!-- ListModule -->
<g id="node4" class="node">
<title>ListModule</title>
<polygon fill="#8dd3c7" stroke="#000000" points="218.8289,-233.5901 215.8289,-237.5901 194.8289,-237.5901 191.8289,-233.5901 137.1711,-233.5901 137.1711,-197.5901 218.8289,-197.5901 218.8289,-233.5901"/>
<text text-anchor="middle" x="178" y="-211.3901" font-family="Times,serif" font-size="14.00" fill="#000000">ListModule</text>
</g>
<!-- ListModule&#45;&gt;SelectModule -->
<g id="edge3" class="edge">
<title>ListModule&#45;&gt;SelectModule</title>
<path fill="none" stroke="#000000" d="M210.3927,-233.6962C210.3927,-233.6962 210.3927,-252.581 210.3927,-252.581"/>
<polygon fill="#000000" stroke="#000000" points="206.8928,-252.581 210.3927,-262.581 213.8928,-252.5811 206.8928,-252.581"/>
</g>
</g>
</svg>
