<?xml version="1.0" encoding="UTF-8" standalone="no"?>
<!DOCTYPE svg PUBLIC "-//W3C//DTD SVG 1.1//EN"
 "http://www.w3.org/Graphics/SVG/1.1/DTD/svg11.dtd">
<!-- Generated by graphviz version 2.47.0 (20210316.0004)
 -->
<!-- Title: dependencies Pages: 1 -->
<svg width="1273pt" height="396pt"
 viewBox="0.00 0.00 1273.00 395.59" xmlns="http://www.w3.org/2000/svg" xmlns:xlink="http://www.w3.org/1999/xlink">
<g id="graph0" class="graph" transform="scale(1 1) rotate(0) translate(4 391.59)">
<title>dependencies</title>
<polygon fill="white" stroke="transparent" points="-4,4 -4,-391.59 1269,-391.59 1269,4 -4,4"/>
<text text-anchor="start" x="611.51" y="-42.4" font-family="sans-serif" font-weight="bold" font-size="14.00">Legend</text>
<polygon fill="#ffffb3" stroke="transparent" points="398.5,-10 398.5,-30 418.5,-30 418.5,-10 398.5,-10"/>
<text text-anchor="start" x="422.13" y="-15.4" font-family="sans-serif" font-size="14.00"> &#160;Declarations</text>
<polygon fill="#8dd3c7" stroke="transparent" points="511.5,-10 511.5,-30 531.5,-30 531.5,-10 511.5,-10"/>
<text text-anchor="start" x="535.23" y="-15.4" font-family="sans-serif" font-size="14.00"> &#160;Module</text>
<polygon fill="#80b1d3" stroke="transparent" points="597.5,-10 597.5,-30 617.5,-30 617.5,-10 597.5,-10"/>
<text text-anchor="start" x="621.28" y="-15.4" font-family="sans-serif" font-size="14.00"> &#160;Bootstrap</text>
<polygon fill="#fdb462" stroke="transparent" points="694.5,-10 694.5,-30 714.5,-30 714.5,-10 694.5,-10"/>
<text text-anchor="start" x="718.17" y="-15.4" font-family="sans-serif" font-size="14.00"> &#160;Providers</text>
<polygon fill="#fb8072" stroke="transparent" points="790.5,-10 790.5,-30 810.5,-30 810.5,-10 790.5,-10"/>
<text text-anchor="start" x="814.23" y="-15.4" font-family="sans-serif" font-size="14.00"> &#160;Exports</text>
<g id="clust1" class="cluster">
<title>cluster_SelectModule</title>
<polygon fill="none" stroke="black" stroke-dasharray="1,5" points="8,-70 8,-379.59 1257,-379.59 1257,-70 8,-70"/>
</g>
<g id="clust6" class="cluster">
<title>cluster_SelectModule_exports</title>
<polygon fill="none" stroke="black" points="72,-319.59 72,-371.59 469,-371.59 469,-319.59 72,-319.59"/>
</g>
<g id="clust4" class="cluster">
<title>cluster_SelectModule_SelectComponent_providers</title>
<polygon fill="none" stroke="black" points="401,-78 401,-241.59 1249,-241.59 1249,-78 401,-78"/>
</g>
<g id="clust2" class="cluster">
<title>cluster_SelectModule_declarations</title>
<polygon fill="none" stroke="black" points="239,-189.59 239,-241.59 393,-241.59 393,-189.59 239,-189.59"/>
</g>
<g id="clust5" class="cluster">
<title>cluster_SelectModule_imports</title>
<polygon fill="none" stroke="black" points="16,-189.59 16,-241.59 231,-241.59 231,-189.59 16,-189.59"/>
</g>
<!-- ActionbarComponent -->
<g id="node1" class="node">
<title>ActionbarComponent</title>
<polygon fill="#ffffb3" stroke="black" points="384.81,-233.59 247.19,-233.59 247.19,-197.59 384.81,-197.59 384.81,-233.59"/>
<text text-anchor="middle" x="316" y="-211.39" font-family="Times,serif" font-size="14.00">ActionbarComponent</text>
</g>
<!-- SelectModule -->
<g id="node3" class="node">
<title>SelectModule</title>
<polygon fill="#8dd3c7" stroke="black" points="306.76,-298.59 303.76,-302.59 282.76,-302.59 279.76,-298.59 213.24,-298.59 213.24,-262.59 306.76,-262.59 306.76,-298.59"/>
<text text-anchor="middle" x="260" y="-276.39" font-family="Times,serif" font-size="14.00">SelectModule</text>
</g>
<!-- ActionbarComponent&#45;&gt;SelectModule -->
<g id="edge1" class="edge">
<title>ActionbarComponent&#45;&gt;SelectModule</title>
<path fill="none" stroke="black" d="M277.11,-233.7C277.11,-233.7 277.11,-252.58 277.11,-252.58"/>
<polygon fill="black" stroke="black" points="273.61,-252.58 277.11,-262.58 280.61,-252.58 273.61,-252.58"/>
</g>
<!-- SelectComponent -->
<g id="node2" class="node">
<title>SelectComponent</title>
<polygon fill="#ffffb3" stroke="black" points="703.54,-233.59 588.46,-233.59 588.46,-197.59 703.54,-197.59 703.54,-233.59"/>
<text text-anchor="middle" x="646" y="-211.39" font-family="Times,serif" font-size="14.00">SelectComponent</text>
</g>
<!-- SelectComponent&#45;&gt;SelectModule -->
<g id="edge2" class="edge">
<title>SelectComponent&#45;&gt;SelectModule</title>
<path fill="none" stroke="black" d="M646,-233.61C646,-250.96 646,-274.59 646,-274.59 646,-274.59 316.95,-274.59 316.95,-274.59"/>
<polygon fill="black" stroke="black" points="316.95,-271.09 306.95,-274.59 316.95,-278.09 316.95,-271.09"/>
</g>
<!-- ActionbarComponent  -->
<g id="node7" class="node">
<title>ActionbarComponent </title>
<polygon fill="#fb8072" stroke="black" points="461.31,-363.59 320.69,-363.59 320.69,-327.59 461.31,-327.59 461.31,-363.59"/>
<text text-anchor="middle" x="391" y="-341.39" font-family="Times,serif" font-size="14.00">ActionbarComponent </text>
</g>
<!-- SelectModule&#45;&gt;ActionbarComponent  -->
<g id="edge6" class="edge">
<title>SelectModule&#45;&gt;ActionbarComponent </title>
<path fill="none" stroke="black" stroke-dasharray="5,2" d="M306.86,-286.59C329.83,-286.59 352.62,-286.59 352.62,-286.59 352.62,-286.59 352.62,-317.57 352.62,-317.57"/>
<polygon fill="black" stroke="black" points="349.13,-317.57 352.62,-327.57 356.13,-317.57 349.13,-317.57"/>
</g>
<!-- ListModule  -->
<g id="node8" class="node">
<title>ListModule </title>
<polygon fill="#fb8072" stroke="black" points="302.33,-363.59 217.67,-363.59 217.67,-327.59 302.33,-327.59 302.33,-363.59"/>
<text text-anchor="middle" x="260" y="-341.39" font-family="Times,serif" font-size="14.00">ListModule </text>
</g>
<!-- SelectModule&#45;&gt;ListModule  -->
<g id="edge7" class="edge">
<title>SelectModule&#45;&gt;ListModule </title>
<path fill="none" stroke="black" stroke-dasharray="5,2" d="M260,-298.7C260,-298.7 260,-317.58 260,-317.58"/>
<polygon fill="black" stroke="black" points="256.5,-317.58 260,-327.58 263.5,-317.58 256.5,-317.58"/>
</g>
<!-- SelectComponent  -->
<g id="node9" class="node">
<title>SelectComponent </title>
<polygon fill="#fb8072" stroke="black" points="199.54,-363.59 80.46,-363.59 80.46,-327.59 199.54,-327.59 199.54,-363.59"/>
<text text-anchor="middle" x="140" y="-341.39" font-family="Times,serif" font-size="14.00">SelectComponent </text>
</g>
<!-- SelectModule&#45;&gt;SelectComponent  -->
<g id="edge8" class="edge">
<title>SelectModule&#45;&gt;SelectComponent </title>
<path fill="none" stroke="black" stroke-dasharray="5,2" d="M213.12,-286.59C191.44,-286.59 170.43,-286.59 170.43,-286.59 170.43,-286.59 170.43,-317.57 170.43,-317.57"/>
<polygon fill="black" stroke="black" points="166.93,-317.57 170.43,-327.57 173.93,-317.57 166.93,-317.57"/>
</g>
<!-- {
 &#160;&#160;&#160;provide: NG_VALUE_ACCESSOR, useExisting: forwardRef(() =&gt; SelectComponent), multi: true,
} -->
<g id="node4" class="node">
<title>{
 &#160;&#160;&#160;provide: NG_VALUE_ACCESSOR, useExisting: forwardRef(() =&gt; SelectComponent), multi: true,
}</title>
<ellipse fill="#fdb462" stroke="black" cx="825" cy="-127.3" rx="416.35" ry="41.09"/>
<text text-anchor="middle" x="825" y="-139.9" font-family="Times,serif" font-size="14.00">{</text>
<text text-anchor="middle" x="825" y="-123.1" font-family="Times,serif" font-size="14.00"> &#160;&#160;&#160;provide: NG_VALUE_ACCESSOR, useExisting: forwardRef(() =&gt; SelectComponent), multi: true,</text>
<text text-anchor="middle" x="825" y="-106.3" font-family="Times,serif" font-size="14.00">}</text>
</g>
<!-- {
 &#160;&#160;&#160;provide: NG_VALUE_ACCESSOR, useExisting: forwardRef(() =&gt; SelectComponent), multi: true,
}&#45;&gt;SelectComponent -->
<g id="edge3" class="edge">
<title>{
 &#160;&#160;&#160;provide: NG_VALUE_ACCESSOR, useExisting: forwardRef(() =&gt; SelectComponent), multi: true,
}&#45;&gt;SelectComponent</title>
<path fill="none" stroke="black" d="M646,-164.74C646,-164.74 646,-187.34 646,-187.34"/>
<polygon fill="black" stroke="black" points="642.5,-187.34 646,-197.34 649.5,-187.34 642.5,-187.34"/>
</g>
<!-- ListModule -->
<g id="node5" class="node">
<title>ListModule</title>
<polygon fill="#8dd3c7" stroke="black" points="222.83,-233.59 219.83,-237.59 198.83,-237.59 195.83,-233.59 141.17,-233.59 141.17,-197.59 222.83,-197.59 222.83,-233.59"/>
<text text-anchor="middle" x="182" y="-211.39" font-family="Times,serif" font-size="14.00">ListModule</text>
</g>
<!-- ListModule&#45;&gt;SelectModule -->
<g id="edge4" class="edge">
<title>ListModule&#45;&gt;SelectModule</title>
<path fill="none" stroke="black" d="M217.89,-233.7C217.89,-233.7 217.89,-252.58 217.89,-252.58"/>
<polygon fill="black" stroke="black" points="214.39,-252.58 217.89,-262.58 221.39,-252.58 214.39,-252.58"/>
</g>
<!-- LoaderModule -->
<g id="node6" class="node">
<title>LoaderModule</title>
<polygon fill="#8dd3c7" stroke="black" points="123.69,-233.59 120.69,-237.59 99.69,-237.59 96.69,-233.59 24.31,-233.59 24.31,-197.59 123.69,-197.59 123.69,-233.59"/>
<text text-anchor="middle" x="74" y="-211.39" font-family="Times,serif" font-size="14.00">LoaderModule</text>
</g>
<!-- LoaderModule&#45;&gt;SelectModule -->
<g id="edge5" class="edge">
<title>LoaderModule&#45;&gt;SelectModule</title>
<path fill="none" stroke="black" d="M102.04,-233.61C102.04,-250.96 102.04,-274.59 102.04,-274.59 102.04,-274.59 203.03,-274.59 203.03,-274.59"/>
<polygon fill="black" stroke="black" points="203.03,-278.09 213.03,-274.59 203.03,-271.09 203.03,-278.09"/>
</g>
</g>
</svg>
