<?xml version="1.0" encoding="UTF-8" standalone="no"?>
<!DOCTYPE svg PUBLIC "-//W3C//DTD SVG 1.1//EN"
 "http://www.w3.org/Graphics/SVG/1.1/DTD/svg11.dtd">
<!-- Generated by graphviz version 2.47.0 (20210316.0004)
 -->
<!-- Title: dependencies Pages: 1 -->
<svg width="1273pt" height="396pt"
 viewBox="0.00 0.00 1273.00 395.59" xmlns="http://www.w3.org/2000/svg" xmlns:xlink="http://www.w3.org/1999/xlink">
<g id="graph0" class="graph" transform="scale(1 1) rotate(0) translate(4 391.59)">
<title>dependencies</title>
<polygon fill="white" stroke="transparent" points="-4,4 -4,-391.59 1269,-391.59 1269,4 -4,4"/>
<text text-anchor="start" x="611.51" y="-42.4" font-family="sans-serif" font-weight="bold" font-size="14.00">Legend</text>
<polygon fill="#ffffb3" stroke="transparent" points="398.5,-10 398.5,-30 418.5,-30 418.5,-10 398.5,-10"/>
<text text-anchor="start" x="422.13" y="-15.4" font-family="sans-serif" font-size="14.00"> &#160;Declarations</text>
<polygon fill="#8dd3c7" stroke="transparent" points="511.5,-10 511.5,-30 531.5,-30 531.5,-10 511.5,-10"/>
<text text-anchor="start" x="535.23" y="-15.4" font-family="sans-serif" font-size="14.00"> &#160;Module</text>
<polygon fill="#80b1d3" stroke="transparent" points="597.5,-10 597.5,-30 617.5,-30 617.5,-10 597.5,-10"/>
<text text-anchor="start" x="621.28" y="-15.4" font-family="sans-serif" font-size="14.00"> &#160;Bootstrap</text>
<polygon fill="#fdb462" stroke="transparent" points="694.5,-10 694.5,-30 714.5,-30 714.5,-10 694.5,-10"/>
<text text-anchor="start" x="718.17" y="-15.4" font-family="sans-serif" font-size="14.00"> &#160;Providers</text>
<polygon fill="#fb8072" stroke="transparent" points="790.5,-10 790.5,-30 810.5,-30 810.5,-10 790.5,-10"/>
<text text-anchor="start" x="814.23" y="-15.4" font-family="sans-serif" font-size="14.00"> &#160;Exports</text>
<g id="clust1" class="cluster">
<title>cluster_SelectModule</title>
<polygon fill="none" stroke="black" stroke-dasharray="1,5" points="8,-70 8,-379.59 1257,-379.59 1257,-70 8,-70"/>
</g>
<g id="clust6" class="cluster">
<title>cluster_SelectModule_exports</title>
<polygon fill="none" stroke="black" points="102,-319.59 102,-371.59 499,-371.59 499,-319.59 102,-319.59"/>
</g>
<g id="clust4" class="cluster">
<title>cluster_SelectModule_SelectComponent_providers</title>
<polygon fill="none" stroke="black" points="401,-78 401,-241.59 1249,-241.59 1249,-78 401,-78"/>
</g>
<g id="clust5" class="cluster">
<title>cluster_SelectModule_imports</title>
<polygon fill="none" stroke="black" points="178,-189.59 178,-241.59 393,-241.59 393,-189.59 178,-189.59"/>
</g>
<g id="clust2" class="cluster">
<title>cluster_SelectModule_declarations</title>
<polygon fill="none" stroke="black" points="16,-189.59 16,-241.59 170,-241.59 170,-189.59 16,-189.59"/>
</g>
<!-- ActionbarComponent -->
<g id="node1" class="node">
<title>ActionbarComponent</title>
<polygon fill="#ffffb3" stroke="black" points="161.81,-233.59 24.19,-233.59 24.19,-197.59 161.81,-197.59 161.81,-233.59"/>
<text text-anchor="middle" x="93" y="-211.39" font-family="Times,serif" font-size="14.00">ActionbarComponent</text>
</g>
<!-- SelectModule -->
<g id="node3" class="node">
<title>SelectModule</title>
<polygon fill="#8dd3c7" stroke="black" points="336.76,-298.59 333.76,-302.59 312.76,-302.59 309.76,-298.59 243.24,-298.59 243.24,-262.59 336.76,-262.59 336.76,-298.59"/>
<text text-anchor="middle" x="290" y="-276.39" font-family="Times,serif" font-size="14.00">SelectModule</text>
</g>
<!-- ActionbarComponent&#45;&gt;SelectModule -->
<g id="edge1" class="edge">
<title>ActionbarComponent&#45;&gt;SelectModule</title>
<path fill="none" stroke="black" d="M136.07,-233.61C136.07,-250.96 136.07,-274.59 136.07,-274.59 136.07,-274.59 232.98,-274.59 232.98,-274.59"/>
<polygon fill="black" stroke="black" points="232.98,-278.09 242.98,-274.59 232.98,-271.09 232.98,-278.09"/>
</g>
<!-- SelectComponent -->
<g id="node2" class="node">
<title>SelectComponent</title>
<polygon fill="#ffffb3" stroke="black" points="703.54,-233.59 588.46,-233.59 588.46,-197.59 703.54,-197.59 703.54,-233.59"/>
<text text-anchor="middle" x="646" y="-211.39" font-family="Times,serif" font-size="14.00">SelectComponent</text>
</g>
<!-- SelectComponent&#45;&gt;SelectModule -->
<g id="edge2" class="edge">
<title>SelectComponent&#45;&gt;SelectModule</title>
<path fill="none" stroke="black" d="M646,-233.61C646,-250.96 646,-274.59 646,-274.59 646,-274.59 346.91,-274.59 346.91,-274.59"/>
<polygon fill="black" stroke="black" points="346.91,-271.09 336.91,-274.59 346.91,-278.09 346.91,-271.09"/>
</g>
<!-- ActionbarComponent  -->
<g id="node7" class="node">
<title>ActionbarComponent </title>
<polygon fill="#fb8072" stroke="black" points="491.31,-363.59 350.69,-363.59 350.69,-327.59 491.31,-327.59 491.31,-363.59"/>
<text text-anchor="middle" x="421" y="-341.39" font-family="Times,serif" font-size="14.00">ActionbarComponent </text>
</g>
<!-- SelectModule&#45;&gt;ActionbarComponent  -->
<g id="edge6" class="edge">
<title>SelectModule&#45;&gt;ActionbarComponent </title>
<path fill="none" stroke="black" stroke-dasharray="5,2" d="M336.95,-286.59C353.3,-286.59 367.63,-286.59 367.63,-286.59 367.63,-286.59 367.63,-317.57 367.63,-317.57"/>
<polygon fill="black" stroke="black" points="364.13,-317.57 367.63,-327.57 371.13,-317.57 364.13,-317.57"/>
</g>
<!-- ListModule  -->
<g id="node8" class="node">
<title>ListModule </title>
<polygon fill="#fb8072" stroke="black" points="332.33,-363.59 247.67,-363.59 247.67,-327.59 332.33,-327.59 332.33,-363.59"/>
<text text-anchor="middle" x="290" y="-341.39" font-family="Times,serif" font-size="14.00">ListModule </text>
</g>
<!-- SelectModule&#45;&gt;ListModule  -->
<g id="edge7" class="edge">
<title>SelectModule&#45;&gt;ListModule </title>
<path fill="none" stroke="black" stroke-dasharray="5,2" d="M290,-298.7C290,-298.7 290,-317.58 290,-317.58"/>
<polygon fill="black" stroke="black" points="286.5,-317.58 290,-327.58 293.5,-317.58 286.5,-317.58"/>
</g>
<!-- SelectComponent  -->
<g id="node9" class="node">
<title>SelectComponent </title>
<polygon fill="#fb8072" stroke="black" points="229.54,-363.59 110.46,-363.59 110.46,-327.59 229.54,-327.59 229.54,-363.59"/>
<text text-anchor="middle" x="170" y="-341.39" font-family="Times,serif" font-size="14.00">SelectComponent </text>
</g>
<!-- SelectModule&#45;&gt;SelectComponent  -->
<g id="edge8" class="edge">
<title>SelectModule&#45;&gt;SelectComponent </title>
<path fill="none" stroke="black" stroke-dasharray="5,2" d="M243.23,-286.59C224.81,-286.59 207.96,-286.59 207.96,-286.59 207.96,-286.59 207.96,-317.57 207.96,-317.57"/>
<polygon fill="black" stroke="black" points="204.46,-317.57 207.96,-327.57 211.46,-317.57 204.46,-317.57"/>
</g>
<!-- {
 &#160;&#160;&#160;provide: NG_VALUE_ACCESSOR, useExisting: forwardRef(() =&gt; SelectComponent), multi: true,
} -->
<g id="node4" class="node">
<title>{
 &#160;&#160;&#160;provide: NG_VALUE_ACCESSOR, useExisting: forwardRef(() =&gt; SelectComponent), multi: true,
}</title>
<ellipse fill="#fdb462" stroke="black" cx="825" cy="-127.3" rx="416.35" ry="41.09"/>
<text text-anchor="middle" x="825" y="-139.9" font-family="Times,serif" font-size="14.00">{</text>
<text text-anchor="middle" x="825" y="-123.1" font-family="Times,serif" font-size="14.00"> &#160;&#160;&#160;provide: NG_VALUE_ACCESSOR, useExisting: forwardRef(() =&gt; SelectComponent), multi: true,</text>
<text text-anchor="middle" x="825" y="-106.3" font-family="Times,serif" font-size="14.00">}</text>
</g>
<!-- {
 &#160;&#160;&#160;provide: NG_VALUE_ACCESSOR, useExisting: forwardRef(() =&gt; SelectComponent), multi: true,
}&#45;&gt;SelectComponent -->
<g id="edge3" class="edge">
<title>{
 &#160;&#160;&#160;provide: NG_VALUE_ACCESSOR, useExisting: forwardRef(() =&gt; SelectComponent), multi: true,
}&#45;&gt;SelectComponent</title>
<path fill="none" stroke="black" d="M646,-164.74C646,-164.74 646,-187.34 646,-187.34"/>
<polygon fill="black" stroke="black" points="642.5,-187.34 646,-197.34 649.5,-187.34 642.5,-187.34"/>
</g>
<!-- ListModule -->
<g id="node5" class="node">
<title>ListModule</title>
<polygon fill="#8dd3c7" stroke="black" points="384.83,-233.59 381.83,-237.59 360.83,-237.59 357.83,-233.59 303.17,-233.59 303.17,-197.59 384.83,-197.59 384.83,-233.59"/>
<text text-anchor="middle" x="344" y="-211.39" font-family="Times,serif" font-size="14.00">ListModule</text>
</g>
<!-- ListModule&#45;&gt;SelectModule -->
<g id="edge4" class="edge">
<title>ListModule&#45;&gt;SelectModule</title>
<path fill="none" stroke="black" d="M320.11,-233.7C320.11,-233.7 320.11,-252.58 320.11,-252.58"/>
<polygon fill="black" stroke="black" points="316.61,-252.58 320.11,-262.58 323.61,-252.58 316.61,-252.58"/>
</g>
<!-- LoaderModule -->
<g id="node6" class="node">
<title>LoaderModule</title>
<polygon fill="#8dd3c7" stroke="black" points="285.69,-233.59 282.69,-237.59 261.69,-237.59 258.69,-233.59 186.31,-233.59 186.31,-197.59 285.69,-197.59 285.69,-233.59"/>
<text text-anchor="middle" x="236" y="-211.39" font-family="Times,serif" font-size="14.00">LoaderModule</text>
</g>
<!-- LoaderModule&#45;&gt;SelectModule -->
<g id="edge5" class="edge">
<title>LoaderModule&#45;&gt;SelectModule</title>
<path fill="none" stroke="black" d="M264.36,-233.7C264.36,-233.7 264.36,-252.58 264.36,-252.58"/>
<polygon fill="black" stroke="black" points="260.86,-252.58 264.36,-262.58 267.86,-252.58 260.86,-252.58"/>
</g>
</g>
</svg>
