<?xml version="1.0" encoding="UTF-8" standalone="no"?>
<!DOCTYPE svg PUBLIC "-//W3C//DTD SVG 1.1//EN"
 "http://www.w3.org/Graphics/SVG/1.1/DTD/svg11.dtd">
<!-- Generated by graphviz version 2.47.0 (20210316.0004)
 -->
<!-- Title: dependencies Pages: 1 -->
<svg width="1273pt" height="396pt"
 viewBox="0.00 0.00 1273.00 395.59" xmlns="http://www.w3.org/2000/svg" xmlns:xlink="http://www.w3.org/1999/xlink">
<g id="graph0" class="graph" transform="scale(1 1) rotate(0) translate(4 391.59)">
<title>dependencies</title>
<polygon fill="white" stroke="transparent" points="-4,4 -4,-391.59 1269,-391.59 1269,4 -4,4"/>
<text text-anchor="start" x="611.51" y="-42.4" font-family="sans-serif" font-weight="bold" font-size="14.00">Legend</text>
<polygon fill="#ffffb3" stroke="transparent" points="398.5,-10 398.5,-30 418.5,-30 418.5,-10 398.5,-10"/>
<text text-anchor="start" x="422.13" y="-15.4" font-family="sans-serif" font-size="14.00"> &#160;Declarations</text>
<polygon fill="#8dd3c7" stroke="transparent" points="511.5,-10 511.5,-30 531.5,-30 531.5,-10 511.5,-10"/>
<text text-anchor="start" x="535.23" y="-15.4" font-family="sans-serif" font-size="14.00"> &#160;Module</text>
<polygon fill="#80b1d3" stroke="transparent" points="597.5,-10 597.5,-30 617.5,-30 617.5,-10 597.5,-10"/>
<text text-anchor="start" x="621.28" y="-15.4" font-family="sans-serif" font-size="14.00"> &#160;Bootstrap</text>
<polygon fill="#fdb462" stroke="transparent" points="694.5,-10 694.5,-30 714.5,-30 714.5,-10 694.5,-10"/>
<text text-anchor="start" x="718.17" y="-15.4" font-family="sans-serif" font-size="14.00"> &#160;Providers</text>
<polygon fill="#fb8072" stroke="transparent" points="790.5,-10 790.5,-30 810.5,-30 810.5,-10 790.5,-10"/>
<text text-anchor="start" x="814.23" y="-15.4" font-family="sans-serif" font-size="14.00"> &#160;Exports</text>
<g id="clust1" class="cluster">
<title>cluster_SelectModule</title>
<polygon fill="none" stroke="black" stroke-dasharray="1,5" points="8,-70 8,-379.59 1257,-379.59 1257,-70 8,-70"/>
</g>
<g id="clust6" class="cluster">
<title>cluster_SelectModule_exports</title>
<polygon fill="none" stroke="black" points="742,-319.59 742,-371.59 1139,-371.59 1139,-319.59 742,-319.59"/>
</g>
<g id="clust5" class="cluster">
<title>cluster_SelectModule_imports</title>
<polygon fill="none" stroke="black" points="1034,-189.59 1034,-241.59 1249,-241.59 1249,-189.59 1034,-189.59"/>
</g>
<g id="clust4" class="cluster">
<title>cluster_SelectModule_SelectComponent_providers</title>
<polygon fill="none" stroke="black" points="178,-78 178,-241.59 1026,-241.59 1026,-78 178,-78"/>
</g>
<g id="clust2" class="cluster">
<title>cluster_SelectModule_declarations</title>
<polygon fill="none" stroke="black" points="16,-189.59 16,-241.59 170,-241.59 170,-189.59 16,-189.59"/>
</g>
<!-- ActionbarComponent -->
<g id="node1" class="node">
<title>ActionbarComponent</title>
<polygon fill="#ffffb3" stroke="black" points="161.81,-233.59 24.19,-233.59 24.19,-197.59 161.81,-197.59 161.81,-233.59"/>
<text text-anchor="middle" x="93" y="-211.39" font-family="Times,serif" font-size="14.00">ActionbarComponent</text>
</g>
<!-- SelectModule -->
<g id="node3" class="node">
<title>SelectModule</title>
<polygon fill="#8dd3c7" stroke="black" points="976.76,-298.59 973.76,-302.59 952.76,-302.59 949.76,-298.59 883.24,-298.59 883.24,-262.59 976.76,-262.59 976.76,-298.59"/>
<text text-anchor="middle" x="930" y="-276.39" font-family="Times,serif" font-size="14.00">SelectModule</text>
</g>
<!-- ActionbarComponent&#45;&gt;SelectModule -->
<g id="edge1" class="edge">
<title>ActionbarComponent&#45;&gt;SelectModule</title>
<path fill="none" stroke="black" d="M93,-233.7C93,-252.93 93,-280.59 93,-280.59 93,-280.59 873.21,-280.59 873.21,-280.59"/>
<polygon fill="black" stroke="black" points="873.21,-284.09 883.21,-280.59 873.21,-277.09 873.21,-284.09"/>
</g>
<!-- SelectComponent -->
<g id="node2" class="node">
<title>SelectComponent</title>
<polygon fill="#ffffb3" stroke="black" points="768.54,-233.59 653.46,-233.59 653.46,-197.59 768.54,-197.59 768.54,-233.59"/>
<text text-anchor="middle" x="711" y="-211.39" font-family="Times,serif" font-size="14.00">SelectComponent</text>
</g>
<!-- SelectComponent&#45;&gt;SelectModule -->
<g id="edge2" class="edge">
<title>SelectComponent&#45;&gt;SelectModule</title>
<path fill="none" stroke="black" d="M759.62,-233.62C759.62,-249.99 759.62,-271.59 759.62,-271.59 759.62,-271.59 872.99,-271.59 872.99,-271.59"/>
<polygon fill="black" stroke="black" points="872.99,-275.09 882.99,-271.59 872.99,-268.09 872.99,-275.09"/>
</g>
<!-- ActionbarComponent  -->
<g id="node7" class="node">
<title>ActionbarComponent </title>
<polygon fill="#fb8072" stroke="black" points="1131.31,-363.59 990.69,-363.59 990.69,-327.59 1131.31,-327.59 1131.31,-363.59"/>
<text text-anchor="middle" x="1061" y="-341.39" font-family="Times,serif" font-size="14.00">ActionbarComponent </text>
</g>
<!-- SelectModule&#45;&gt;ActionbarComponent  -->
<g id="edge6" class="edge">
<title>SelectModule&#45;&gt;ActionbarComponent </title>
<path fill="none" stroke="black" stroke-dasharray="5,2" d="M977.11,-289.59C991.87,-289.59 1004.38,-289.59 1004.38,-289.59 1004.38,-289.59 1004.38,-317.56 1004.38,-317.56"/>
<polygon fill="black" stroke="black" points="1000.88,-317.56 1004.38,-327.56 1007.88,-317.56 1000.88,-317.56"/>
</g>
<!-- ListModule  -->
<g id="node8" class="node">
<title>ListModule </title>
<polygon fill="#fb8072" stroke="black" points="972.33,-363.59 887.67,-363.59 887.67,-327.59 972.33,-327.59 972.33,-363.59"/>
<text text-anchor="middle" x="930" y="-341.39" font-family="Times,serif" font-size="14.00">ListModule </text>
</g>
<!-- SelectModule&#45;&gt;ListModule  -->
<g id="edge7" class="edge">
<title>SelectModule&#45;&gt;ListModule </title>
<path fill="none" stroke="black" stroke-dasharray="5,2" d="M930,-298.7C930,-298.7 930,-317.58 930,-317.58"/>
<polygon fill="black" stroke="black" points="926.5,-317.58 930,-327.58 933.5,-317.58 926.5,-317.58"/>
</g>
<!-- SelectComponent  -->
<g id="node9" class="node">
<title>SelectComponent </title>
<polygon fill="#fb8072" stroke="black" points="869.54,-363.59 750.46,-363.59 750.46,-327.59 869.54,-327.59 869.54,-363.59"/>
<text text-anchor="middle" x="810" y="-341.39" font-family="Times,serif" font-size="14.00">SelectComponent </text>
</g>
<!-- SelectModule&#45;&gt;SelectComponent  -->
<g id="edge8" class="edge">
<title>SelectModule&#45;&gt;SelectComponent </title>
<path fill="none" stroke="black" stroke-dasharray="5,2" d="M882.99,-289.59C852.77,-289.59 819.14,-289.59 819.14,-289.59 819.14,-289.59 819.14,-317.56 819.14,-317.56"/>
<polygon fill="black" stroke="black" points="815.65,-317.56 819.14,-327.56 822.65,-317.56 815.65,-317.56"/>
</g>
<!-- {
 &#160;&#160;&#160;provide: NG_VALUE_ACCESSOR, useExisting: forwardRef(() =&gt; SelectComponent), multi: true,
} -->
<g id="node4" class="node">
<title>{
 &#160;&#160;&#160;provide: NG_VALUE_ACCESSOR, useExisting: forwardRef(() =&gt; SelectComponent), multi: true,
}</title>
<ellipse fill="#fdb462" stroke="black" cx="602" cy="-127.3" rx="416.35" ry="41.09"/>
<text text-anchor="middle" x="602" y="-139.9" font-family="Times,serif" font-size="14.00">{</text>
<text text-anchor="middle" x="602" y="-123.1" font-family="Times,serif" font-size="14.00"> &#160;&#160;&#160;provide: NG_VALUE_ACCESSOR, useExisting: forwardRef(() =&gt; SelectComponent), multi: true,</text>
<text text-anchor="middle" x="602" y="-106.3" font-family="Times,serif" font-size="14.00">}</text>
</g>
<!-- {
 &#160;&#160;&#160;provide: NG_VALUE_ACCESSOR, useExisting: forwardRef(() =&gt; SelectComponent), multi: true,
}&#45;&gt;SelectComponent -->
<g id="edge3" class="edge">
<title>{
 &#160;&#160;&#160;provide: NG_VALUE_ACCESSOR, useExisting: forwardRef(() =&gt; SelectComponent), multi: true,
}&#45;&gt;SelectComponent</title>
<path fill="none" stroke="black" d="M711,-167.31C711,-167.31 711,-187.56 711,-187.56"/>
<polygon fill="black" stroke="black" points="707.5,-187.56 711,-197.56 714.5,-187.56 707.5,-187.56"/>
</g>
<!-- ListModule -->
<g id="node5" class="node">
<title>ListModule</title>
<polygon fill="#8dd3c7" stroke="black" points="1240.83,-233.59 1237.83,-237.59 1216.83,-237.59 1213.83,-233.59 1159.17,-233.59 1159.17,-197.59 1240.83,-197.59 1240.83,-233.59"/>
<text text-anchor="middle" x="1200" y="-211.39" font-family="Times,serif" font-size="14.00">ListModule</text>
</g>
<!-- ListModule&#45;&gt;SelectModule -->
<g id="edge4" class="edge">
<title>ListModule&#45;&gt;SelectModule</title>
<path fill="none" stroke="black" d="M1200,-233.7C1200,-252.93 1200,-280.59 1200,-280.59 1200,-280.59 987.03,-280.59 987.03,-280.59"/>
<polygon fill="black" stroke="black" points="987.03,-277.09 977.03,-280.59 987.03,-284.09 987.03,-277.09"/>
</g>
<!-- LoaderModule -->
<g id="node6" class="node">
<title>LoaderModule</title>
<polygon fill="#8dd3c7" stroke="black" points="1141.69,-233.59 1138.69,-237.59 1117.69,-237.59 1114.69,-233.59 1042.31,-233.59 1042.31,-197.59 1141.69,-197.59 1141.69,-233.59"/>
<text text-anchor="middle" x="1092" y="-211.39" font-family="Times,serif" font-size="14.00">LoaderModule</text>
</g>
<!-- LoaderModule&#45;&gt;SelectModule -->
<g id="edge5" class="edge">
<title>LoaderModule&#45;&gt;SelectModule</title>
<path fill="none" stroke="black" d="M1086.9,-233.62C1086.9,-249.99 1086.9,-271.59 1086.9,-271.59 1086.9,-271.59 987.08,-271.59 987.08,-271.59"/>
<polygon fill="black" stroke="black" points="987.08,-268.09 977.08,-271.59 987.08,-275.09 987.08,-268.09"/>
</g>
</g>
</svg>
