<?xml version="1.0" encoding="UTF-8" standalone="no"?>
<!DOCTYPE svg PUBLIC "-//W3C//DTD SVG 1.1//EN"
 "http://www.w3.org/Graphics/SVG/1.1/DTD/svg11.dtd">
<!-- Generated by graphviz version 2.40.1 (20161225.0304)
 -->
<!-- Title: dependencies Pages: 1 -->
<svg width="558pt" height="349pt"
 viewBox="0.00 0.00 558.00 349.00" xmlns="http://www.w3.org/2000/svg" xmlns:xlink="http://www.w3.org/1999/xlink">
<g id="graph0" class="graph" transform="scale(1 1) rotate(0) translate(4 345)">
<title>dependencies</title>
<polygon fill="#ffffff" stroke="transparent" points="-4,4 -4,-345 554,-345 554,4 -4,4"/>
<text text-anchor="start" x="254.0091" y="-42.4" font-family="sans-serif" font-weight="bold" font-size="14.00" fill="#000000">Legend</text>
<polygon fill="#ffffb3" stroke="transparent" points="41,-10 41,-30 61,-30 61,-10 41,-10"/>
<text text-anchor="start" x="64.629" y="-15.4" font-family="sans-serif" font-size="14.00" fill="#000000"> &#160;Declarations</text>
<polygon fill="#8dd3c7" stroke="transparent" points="154,-10 154,-30 174,-30 174,-10 154,-10"/>
<text text-anchor="start" x="177.7251" y="-15.4" font-family="sans-serif" font-size="14.00" fill="#000000"> &#160;Module</text>
<polygon fill="#80b1d3" stroke="transparent" points="240,-10 240,-30 260,-30 260,-10 240,-10"/>
<text text-anchor="start" x="263.7812" y="-15.4" font-family="sans-serif" font-size="14.00" fill="#000000"> &#160;Bootstrap</text>
<polygon fill="#fdb462" stroke="transparent" points="337,-10 337,-30 357,-30 357,-10 337,-10"/>
<text text-anchor="start" x="360.6732" y="-15.4" font-family="sans-serif" font-size="14.00" fill="#000000"> &#160;Providers</text>
<polygon fill="#fb8072" stroke="transparent" points="433,-10 433,-30 453,-30 453,-10 433,-10"/>
<text text-anchor="start" x="456.7258" y="-15.4" font-family="sans-serif" font-size="14.00" fill="#000000"> &#160;Exports</text>
<g id="clust1" class="cluster">
<title>cluster_SelectModule</title>
<polygon fill="none" stroke="#000000" stroke-dasharray="1,5" points="8,-70 8,-333 542,-333 542,-70 8,-70"/>
</g>
<g id="clust2" class="cluster">
<title>cluster_SelectModule_declarations</title>
<polygon fill="none" stroke="#000000" points="209,-143 209,-195 341,-195 341,-143 209,-143"/>
</g>
<g id="clust3" class="cluster">
<title>cluster_SelectModule_SelectComponent_providers</title>
<polygon fill="none" stroke="#000000" points="16,-78 16,-130 534,-130 534,-78 16,-78"/>
</g>
<g id="clust4" class="cluster">
<title>cluster_SelectModule_imports</title>
<polygon fill="none" stroke="#000000" points="103,-143 103,-195 201,-195 201,-143 103,-143"/>
</g>
<g id="clust5" class="cluster">
<title>cluster_SelectModule_exports</title>
<polygon fill="none" stroke="#000000" points="85,-273 85,-325 323,-325 323,-273 85,-273"/>
</g>
<!-- SelectComponent -->
<g id="node1" class="node">
<title>SelectComponent</title>
<polygon fill="#ffffb3" stroke="#000000" points="332.5409,-187 217.4591,-187 217.4591,-151 332.5409,-151 332.5409,-187"/>
<text text-anchor="middle" x="275" y="-164.8" font-family="Times,serif" font-size="14.00" fill="#000000">SelectComponent</text>
</g>
<!-- SelectModule -->
<g id="node2" class="node">
<title>SelectModule</title>
<polygon fill="#8dd3c7" stroke="#000000" points="259.7577,-252 256.7577,-256 235.7577,-256 232.7577,-252 166.2423,-252 166.2423,-216 259.7577,-216 259.7577,-252"/>
<text text-anchor="middle" x="213" y="-229.8" font-family="Times,serif" font-size="14.00" fill="#000000">SelectModule</text>
</g>
<!-- SelectComponent&#45;&gt;SelectModule -->
<g id="edge1" class="edge">
<title>SelectComponent&#45;&gt;SelectModule</title>
<path fill="none" stroke="#000000" d="M238.5544,-187.1061C238.5544,-187.1061 238.5544,-205.991 238.5544,-205.991"/>
<polygon fill="#000000" stroke="#000000" points="235.0544,-205.9909 238.5544,-215.991 242.0544,-205.991 235.0544,-205.9909"/>
</g>
<!-- ListModule  -->
<g id="node5" class="node">
<title>ListModule </title>
<polygon fill="#fb8072" stroke="#000000" points="315.3284,-317 230.6716,-317 230.6716,-281 315.3284,-281 315.3284,-317"/>
<text text-anchor="middle" x="273" y="-294.8" font-family="Times,serif" font-size="14.00" fill="#000000">ListModule </text>
</g>
<!-- SelectModule&#45;&gt;ListModule  -->
<g id="edge4" class="edge">
<title>SelectModule&#45;&gt;ListModule </title>
<path fill="none" stroke="#000000" stroke-dasharray="5,2" d="M245.2323,-252.1061C245.2323,-252.1061 245.2323,-270.991 245.2323,-270.991"/>
<polygon fill="#000000" stroke="#000000" points="241.7324,-270.9909 245.2323,-280.991 248.7324,-270.991 241.7324,-270.9909"/>
</g>
<!-- SelectComponent  -->
<g id="node6" class="node">
<title>SelectComponent </title>
<polygon fill="#fb8072" stroke="#000000" points="212.54,-317 93.46,-317 93.46,-281 212.54,-281 212.54,-317"/>
<text text-anchor="middle" x="153" y="-294.8" font-family="Times,serif" font-size="14.00" fill="#000000">SelectComponent </text>
</g>
<!-- SelectModule&#45;&gt;SelectComponent  -->
<g id="edge5" class="edge">
<title>SelectModule&#45;&gt;SelectComponent </title>
<path fill="none" stroke="#000000" stroke-dasharray="5,2" d="M189.3207,-252.1061C189.3207,-252.1061 189.3207,-270.991 189.3207,-270.991"/>
<polygon fill="#000000" stroke="#000000" points="185.8207,-270.9909 189.3207,-280.991 192.8207,-270.991 185.8207,-270.9909"/>
</g>
<!-- { provide: NG_VALUE_ACCESSOR, useExisting: , multi: &#160;} -->
<g id="node3" class="node">
<title>{ provide: NG_VALUE_ACCESSOR, useExisting: , multi: &#160;}</title>
<ellipse fill="#fdb462" stroke="#000000" cx="275" cy="-104" rx="251.4985" ry="18"/>
<text text-anchor="middle" x="275" y="-99.8" font-family="Times,serif" font-size="14.00" fill="#000000">{ provide: NG_VALUE_ACCESSOR, useExisting: , multi: &#160;}</text>
</g>
<!-- { provide: NG_VALUE_ACCESSOR, useExisting: , multi: &#160;}&#45;&gt;SelectComponent -->
<g id="edge2" class="edge">
<title>{ provide: NG_VALUE_ACCESSOR, useExisting: , multi: &#160;}&#45;&gt;SelectComponent</title>
<path fill="none" stroke="#000000" d="M275,-122.1061C275,-122.1061 275,-140.991 275,-140.991"/>
<polygon fill="#000000" stroke="#000000" points="271.5001,-140.9909 275,-150.991 278.5001,-140.991 271.5001,-140.9909"/>
</g>
<!-- ListModule -->
<g id="node4" class="node">
<title>ListModule</title>
<polygon fill="#8dd3c7" stroke="#000000" points="192.8289,-187 189.8289,-191 168.8289,-191 165.8289,-187 111.1711,-187 111.1711,-151 192.8289,-151 192.8289,-187"/>
<text text-anchor="middle" x="152" y="-164.8" font-family="Times,serif" font-size="14.00" fill="#000000">ListModule</text>
</g>
<!-- ListModule&#45;&gt;SelectModule -->
<g id="edge3" class="edge">
<title>ListModule&#45;&gt;SelectModule</title>
<path fill="none" stroke="#000000" d="M179.3927,-187.1061C179.3927,-187.1061 179.3927,-205.991 179.3927,-205.991"/>
<polygon fill="#000000" stroke="#000000" points="175.8928,-205.9909 179.3927,-215.991 182.8928,-205.991 175.8928,-205.9909"/>
</g>
</g>
</svg>
