<?xml version="1.0" encoding="UTF-8" standalone="no"?>
<!DOCTYPE svg PUBLIC "-//W3C//DTD SVG 1.1//EN"
 "http://www.w3.org/Graphics/SVG/1.1/DTD/svg11.dtd">
<!-- Generated by graphviz version 2.47.0 (20210316.0004)
 -->
<!-- Title: dependencies Pages: 1 -->
<svg width="550pt" height="284pt"
 viewBox="0.00 0.00 550.00 284.00" xmlns="http://www.w3.org/2000/svg" xmlns:xlink="http://www.w3.org/1999/xlink">
<g id="graph0" class="graph" transform="scale(1 1) rotate(0) translate(4 280)">
<title>dependencies</title>
<polygon fill="white" stroke="transparent" points="-4,4 -4,-280 546,-280 546,4 -4,4"/>
<text text-anchor="start" x="250.01" y="-42.4" font-family="sans-serif" font-weight="bold" font-size="14.00">Legend</text>
<polygon fill="#ffffb3" stroke="transparent" points="37,-10 37,-30 57,-30 57,-10 37,-10"/>
<text text-anchor="start" x="60.63" y="-15.4" font-family="sans-serif" font-size="14.00"> &#160;Declarations</text>
<polygon fill="#8dd3c7" stroke="transparent" points="150,-10 150,-30 170,-30 170,-10 150,-10"/>
<text text-anchor="start" x="173.73" y="-15.4" font-family="sans-serif" font-size="14.00"> &#160;Module</text>
<polygon fill="#80b1d3" stroke="transparent" points="236,-10 236,-30 256,-30 256,-10 236,-10"/>
<text text-anchor="start" x="259.78" y="-15.4" font-family="sans-serif" font-size="14.00"> &#160;Bootstrap</text>
<polygon fill="#fdb462" stroke="transparent" points="333,-10 333,-30 353,-30 353,-10 333,-10"/>
<text text-anchor="start" x="356.67" y="-15.4" font-family="sans-serif" font-size="14.00"> &#160;Providers</text>
<polygon fill="#fb8072" stroke="transparent" points="429,-10 429,-30 449,-30 449,-10 429,-10"/>
<text text-anchor="start" x="452.73" y="-15.4" font-family="sans-serif" font-size="14.00"> &#160;Exports</text>
<g id="clust1" class="cluster">
<title>cluster_SelectModule</title>
<polygon fill="none" stroke="black" stroke-dasharray="1,5" points="8,-70 8,-268 534,-268 534,-70 8,-70"/>
</g>
<g id="clust2" class="cluster">
<title>cluster_SelectModule_declarations</title>
<polygon fill="none" stroke="black" points="239,-78 239,-130 526,-130 526,-78 239,-78"/>
</g>
<g id="clust5" class="cluster">
<title>cluster_SelectModule_imports</title>
<polygon fill="none" stroke="black" points="16,-78 16,-130 231,-130 231,-78 16,-78"/>
</g>
<g id="clust6" class="cluster">
<title>cluster_SelectModule_exports</title>
<polygon fill="none" stroke="black" points="66,-208 66,-260 463,-260 463,-208 66,-208"/>
</g>
<!-- ActionbarComponent -->
<g id="node1" class="node">
<title>ActionbarComponent</title>
<polygon fill="#ffffb3" stroke="black" points="517.81,-122 380.19,-122 380.19,-86 517.81,-86 517.81,-122"/>
<text text-anchor="middle" x="449" y="-99.8" font-family="Times,serif" font-size="14.00">ActionbarComponent</text>
</g>
<!-- SelectModule -->
<g id="node3" class="node">
<title>SelectModule</title>
<polygon fill="#8dd3c7" stroke="black" points="300.76,-187 297.76,-191 276.76,-191 273.76,-187 207.24,-187 207.24,-151 300.76,-151 300.76,-187"/>
<text text-anchor="middle" x="254" y="-164.8" font-family="Times,serif" font-size="14.00">SelectModule</text>
</g>
<!-- ActionbarComponent&#45;&gt;SelectModule -->
<g id="edge1" class="edge">
<title>ActionbarComponent&#45;&gt;SelectModule</title>
<path fill="none" stroke="black" d="M417.88,-122.02C417.88,-139.37 417.88,-163 417.88,-163 417.88,-163 310.96,-163 310.96,-163"/>
<polygon fill="black" stroke="black" points="310.96,-159.5 300.96,-163 310.96,-166.5 310.96,-159.5"/>
</g>
<!-- SelectComponent -->
<g id="node2" class="node">
<title>SelectComponent</title>
<polygon fill="#ffffb3" stroke="black" points="362.54,-122 247.46,-122 247.46,-86 362.54,-86 362.54,-122"/>
<text text-anchor="middle" x="305" y="-99.8" font-family="Times,serif" font-size="14.00">SelectComponent</text>
</g>
<!-- SelectComponent&#45;&gt;SelectModule -->
<g id="edge2" class="edge">
<title>SelectComponent&#45;&gt;SelectModule</title>
<path fill="none" stroke="black" d="M274.05,-122.11C274.05,-122.11 274.05,-140.99 274.05,-140.99"/>
<polygon fill="black" stroke="black" points="270.55,-140.99 274.05,-150.99 277.55,-140.99 270.55,-140.99"/>
</g>
<!-- ActionbarComponent  -->
<g id="node6" class="node">
<title>ActionbarComponent </title>
<polygon fill="#fb8072" stroke="black" points="455.31,-252 314.69,-252 314.69,-216 455.31,-216 455.31,-252"/>
<text text-anchor="middle" x="385" y="-229.8" font-family="Times,serif" font-size="14.00">ActionbarComponent </text>
</g>
<!-- SelectModule&#45;&gt;ActionbarComponent  -->
<g id="edge5" class="edge">
<title>SelectModule&#45;&gt;ActionbarComponent </title>
<path fill="none" stroke="black" stroke-dasharray="5,2" d="M300.8,-175C320.38,-175 338.68,-175 338.68,-175 338.68,-175 338.68,-205.98 338.68,-205.98"/>
<polygon fill="black" stroke="black" points="335.18,-205.98 338.68,-215.98 342.18,-205.98 335.18,-205.98"/>
</g>
<!-- ListModule  -->
<g id="node7" class="node">
<title>ListModule </title>
<polygon fill="#fb8072" stroke="black" points="296.33,-252 211.67,-252 211.67,-216 296.33,-216 296.33,-252"/>
<text text-anchor="middle" x="254" y="-229.8" font-family="Times,serif" font-size="14.00">ListModule </text>
</g>
<!-- SelectModule&#45;&gt;ListModule  -->
<g id="edge6" class="edge">
<title>SelectModule&#45;&gt;ListModule </title>
<path fill="none" stroke="black" stroke-dasharray="5,2" d="M254,-187.11C254,-187.11 254,-205.99 254,-205.99"/>
<polygon fill="black" stroke="black" points="250.5,-205.99 254,-215.99 257.5,-205.99 250.5,-205.99"/>
</g>
<!-- SelectComponent  -->
<g id="node8" class="node">
<title>SelectComponent </title>
<polygon fill="#fb8072" stroke="black" points="193.54,-252 74.46,-252 74.46,-216 193.54,-216 193.54,-252"/>
<text text-anchor="middle" x="134" y="-229.8" font-family="Times,serif" font-size="14.00">SelectComponent </text>
</g>
<!-- SelectModule&#45;&gt;SelectComponent  -->
<g id="edge7" class="edge">
<title>SelectModule&#45;&gt;SelectComponent </title>
<path fill="none" stroke="black" stroke-dasharray="5,2" d="M207.17,-175C186.77,-175 167.43,-175 167.43,-175 167.43,-175 167.43,-205.98 167.43,-205.98"/>
<polygon fill="black" stroke="black" points="163.93,-205.98 167.43,-215.98 170.93,-205.98 163.93,-205.98"/>
</g>
<!-- ListModule -->
<g id="node4" class="node">
<title>ListModule</title>
<polygon fill="#8dd3c7" stroke="black" points="222.83,-122 219.83,-126 198.83,-126 195.83,-122 141.17,-122 141.17,-86 222.83,-86 222.83,-122"/>
<text text-anchor="middle" x="182" y="-99.8" font-family="Times,serif" font-size="14.00">ListModule</text>
</g>
<!-- ListModule&#45;&gt;SelectModule -->
<g id="edge3" class="edge">
<title>ListModule&#45;&gt;SelectModule</title>
<path fill="none" stroke="black" d="M214.89,-122.11C214.89,-122.11 214.89,-140.99 214.89,-140.99"/>
<polygon fill="black" stroke="black" points="211.39,-140.99 214.89,-150.99 218.39,-140.99 211.39,-140.99"/>
</g>
<!-- LoaderModule -->
<g id="node5" class="node">
<title>LoaderModule</title>
<polygon fill="#8dd3c7" stroke="black" points="123.69,-122 120.69,-126 99.69,-126 96.69,-122 24.31,-122 24.31,-86 123.69,-86 123.69,-122"/>
<text text-anchor="middle" x="74" y="-99.8" font-family="Times,serif" font-size="14.00">LoaderModule</text>
</g>
<!-- LoaderModule&#45;&gt;SelectModule -->
<g id="edge4" class="edge">
<title>LoaderModule&#45;&gt;SelectModule</title>
<path fill="none" stroke="black" d="M99.04,-122.02C99.04,-139.37 99.04,-163 99.04,-163 99.04,-163 197.09,-163 197.09,-163"/>
<polygon fill="black" stroke="black" points="197.09,-166.5 207.09,-163 197.09,-159.5 197.09,-166.5"/>
</g>
</g>
</svg>
