<?xml version="1.0" encoding="UTF-8" standalone="no"?>
<!DOCTYPE svg PUBLIC "-//W3C//DTD SVG 1.1//EN"
 "http://www.w3.org/Graphics/SVG/1.1/DTD/svg11.dtd">
<!-- Generated by graphviz version 2.40.1 (20161225.0304)
 -->
<!-- Title: dependencies Pages: 1 -->
<svg width="1706pt" height="284pt"
 viewBox="0.00 0.00 1706.00 284.00" xmlns="http://www.w3.org/2000/svg" xmlns:xlink="http://www.w3.org/1999/xlink">
<g id="graph0" class="graph" transform="scale(1 1) rotate(0) translate(4 280)">
<title>dependencies</title>
<polygon fill="#ffffff" stroke="transparent" points="-4,4 -4,-280 1702,-280 1702,4 -4,4"/>
<text text-anchor="start" x="828.0091" y="-42.4" font-family="sans-serif" font-weight="bold" font-size="14.00" fill="#000000">Legend</text>
<polygon fill="#ffffb3" stroke="transparent" points="615,-10 615,-30 635,-30 635,-10 615,-10"/>
<text text-anchor="start" x="638.629" y="-15.4" font-family="sans-serif" font-size="14.00" fill="#000000"> &#160;Declarations</text>
<polygon fill="#8dd3c7" stroke="transparent" points="728,-10 728,-30 748,-30 748,-10 728,-10"/>
<text text-anchor="start" x="751.7251" y="-15.4" font-family="sans-serif" font-size="14.00" fill="#000000"> &#160;Module</text>
<polygon fill="#80b1d3" stroke="transparent" points="814,-10 814,-30 834,-30 834,-10 814,-10"/>
<text text-anchor="start" x="837.7812" y="-15.4" font-family="sans-serif" font-size="14.00" fill="#000000"> &#160;Bootstrap</text>
<polygon fill="#fdb462" stroke="transparent" points="911,-10 911,-30 931,-30 931,-10 911,-10"/>
<text text-anchor="start" x="934.6732" y="-15.4" font-family="sans-serif" font-size="14.00" fill="#000000"> &#160;Providers</text>
<polygon fill="#fb8072" stroke="transparent" points="1007,-10 1007,-30 1027,-30 1027,-10 1007,-10"/>
<text text-anchor="start" x="1030.7258" y="-15.4" font-family="sans-serif" font-size="14.00" fill="#000000"> &#160;Exports</text>
<g id="clust1" class="cluster">
<title>cluster_FilesModule</title>
<polygon fill="none" stroke="#000000" stroke-dasharray="1,5" points="8,-70 8,-268 1690,-268 1690,-70 8,-70"/>
</g>
<g id="clust2" class="cluster">
<title>cluster_FilesModule_declarations</title>
<polygon fill="none" stroke="#000000" points="476,-78 476,-130 1682,-130 1682,-78 476,-78"/>
</g>
<g id="clust11" class="cluster">
<title>cluster_FilesModule_imports</title>
<polygon fill="none" stroke="#000000" points="150,-78 150,-130 468,-130 468,-78 150,-78"/>
</g>
<g id="clust12" class="cluster">
<title>cluster_FilesModule_exports</title>
<polygon fill="none" stroke="#000000" points="125,-208 125,-260 1462,-260 1462,-208 125,-208"/>
</g>
<g id="clust14" class="cluster">
<title>cluster_FilesModule_providers</title>
<polygon fill="none" stroke="#000000" points="16,-78 16,-130 142,-130 142,-78 16,-78"/>
</g>
<!-- AssetDirective -->
<g id="node1" class="node">
<title>AssetDirective</title>
<polygon fill="#ffffb3" stroke="#000000" points="1673.684,-122 1574.316,-122 1574.316,-86 1673.684,-86 1673.684,-122"/>
<text text-anchor="middle" x="1624" y="-99.8" font-family="Times,serif" font-size="14.00" fill="#000000">AssetDirective</text>
</g>
<!-- FilesModule -->
<g id="node9" class="node">
<title>FilesModule</title>
<polygon fill="#8dd3c7" stroke="#000000" points="784.2731,-187 781.2731,-191 760.2731,-191 757.2731,-187 697.7269,-187 697.7269,-151 784.2731,-151 784.2731,-187"/>
<text text-anchor="middle" x="741" y="-164.8" font-family="Times,serif" font-size="14.00" fill="#000000">FilesModule</text>
</g>
<!-- AssetDirective&#45;&gt;FilesModule -->
<g id="edge1" class="edge">
<title>AssetDirective&#45;&gt;FilesModule</title>
<path fill="none" stroke="#000000" d="M1624,-122.1061C1624,-141.3391 1624,-169 1624,-169 1624,-169 794.4869,-169 794.4869,-169"/>
<polygon fill="#000000" stroke="#000000" points="794.487,-165.5001 784.4869,-169 794.4869,-172.5001 794.487,-165.5001"/>
</g>
<!-- AssetListComponent -->
<g id="node2" class="node">
<title>AssetListComponent</title>
<polygon fill="#ffffb3" stroke="#000000" points="1556.212,-122 1421.788,-122 1421.788,-86 1556.212,-86 1556.212,-122"/>
<text text-anchor="middle" x="1489" y="-99.8" font-family="Times,serif" font-size="14.00" fill="#000000">AssetListComponent</text>
</g>
<!-- AssetListComponent&#45;&gt;FilesModule -->
<g id="edge2" class="edge">
<title>AssetListComponent&#45;&gt;FilesModule</title>
<path fill="none" stroke="#000000" d="M1438.118,-122.2667C1438.118,-140.5552 1438.118,-166 1438.118,-166 1438.118,-166 794.3445,-166 794.3445,-166"/>
<polygon fill="#000000" stroke="#000000" points="794.3445,-162.5001 784.3445,-166 794.3444,-169.5001 794.3445,-162.5001"/>
</g>
<!-- AssetListPopComponent -->
<g id="node3" class="node">
<title>AssetListPopComponent</title>
<polygon fill="#ffffb3" stroke="#000000" points="1403.9944,-122 1248.0056,-122 1248.0056,-86 1403.9944,-86 1403.9944,-122"/>
<text text-anchor="middle" x="1326" y="-99.8" font-family="Times,serif" font-size="14.00" fill="#000000">AssetListPopComponent</text>
</g>
<!-- AssetListPopComponent&#45;&gt;FilesModule -->
<g id="edge3" class="edge">
<title>AssetListPopComponent&#45;&gt;FilesModule</title>
<path fill="none" stroke="#000000" d="M1290.9293,-122.0336C1290.9293,-139.0597 1290.9293,-162 1290.9293,-162 1290.9293,-162 794.6117,-162 794.6117,-162"/>
<polygon fill="#000000" stroke="#000000" points="794.6117,-158.5001 784.6117,-162 794.6117,-165.5001 794.6117,-158.5001"/>
</g>
<!-- AssetSelectComponent -->
<g id="node4" class="node">
<title>AssetSelectComponent</title>
<polygon fill="#ffffb3" stroke="#000000" points="1230.1414,-122 1083.8586,-122 1083.8586,-86 1230.1414,-86 1230.1414,-122"/>
<text text-anchor="middle" x="1157" y="-99.8" font-family="Times,serif" font-size="14.00" fill="#000000">AssetSelectComponent</text>
</g>
<!-- AssetSelectComponent&#45;&gt;FilesModule -->
<g id="edge4" class="edge">
<title>AssetSelectComponent&#45;&gt;FilesModule</title>
<path fill="none" stroke="#000000" d="M1130.7134,-122.0091C1130.7134,-138.0494 1130.7134,-159 1130.7134,-159 1130.7134,-159 794.5707,-159 794.5707,-159"/>
<polygon fill="#000000" stroke="#000000" points="794.5707,-155.5001 784.5707,-159 794.5707,-162.5001 794.5707,-155.5001"/>
</g>
<!-- AssetgroupSelectComponent -->
<g id="node5" class="node">
<title>AssetgroupSelectComponent</title>
<polygon fill="#ffffb3" stroke="#000000" points="1065.8019,-122 886.1981,-122 886.1981,-86 1065.8019,-86 1065.8019,-122"/>
<text text-anchor="middle" x="976" y="-99.8" font-family="Times,serif" font-size="14.00" fill="#000000">AssetgroupSelectComponent</text>
</g>
<!-- AssetgroupSelectComponent&#45;&gt;FilesModule -->
<g id="edge5" class="edge">
<title>AssetgroupSelectComponent&#45;&gt;FilesModule</title>
<path fill="none" stroke="#000000" d="M943.2099,-122.1243C943.2099,-136.7832 943.2099,-155 943.2099,-155 943.2099,-155 794.3791,-155 794.3791,-155"/>
<polygon fill="#000000" stroke="#000000" points="794.3791,-151.5001 784.3791,-155 794.3791,-158.5001 794.3791,-151.5001"/>
</g>
<!-- DropzoneDirective -->
<g id="node6" class="node">
<title>DropzoneDirective</title>
<polygon fill="#ffffb3" stroke="#000000" points="868.7795,-122 745.2205,-122 745.2205,-86 868.7795,-86 868.7795,-122"/>
<text text-anchor="middle" x="807" y="-99.8" font-family="Times,serif" font-size="14.00" fill="#000000">DropzoneDirective</text>
</g>
<!-- DropzoneDirective&#45;&gt;FilesModule -->
<g id="edge6" class="edge">
<title>DropzoneDirective&#45;&gt;FilesModule</title>
<path fill="none" stroke="#000000" d="M764.8734,-122.1061C764.8734,-122.1061 764.8734,-140.991 764.8734,-140.991"/>
<polygon fill="#000000" stroke="#000000" points="761.3735,-140.9909 764.8734,-150.991 768.3735,-140.991 761.3735,-140.9909"/>
</g>
<!-- ImageDirective -->
<g id="node7" class="node">
<title>ImageDirective</title>
<polygon fill="#ffffb3" stroke="#000000" points="727.5632,-122 624.4368,-122 624.4368,-86 727.5632,-86 727.5632,-122"/>
<text text-anchor="middle" x="676" y="-99.8" font-family="Times,serif" font-size="14.00" fill="#000000">ImageDirective</text>
</g>
<!-- ImageDirective&#45;&gt;FilesModule -->
<g id="edge7" class="edge">
<title>ImageDirective&#45;&gt;FilesModule</title>
<path fill="none" stroke="#000000" d="M712.5726,-122.1061C712.5726,-122.1061 712.5726,-140.991 712.5726,-140.991"/>
<polygon fill="#000000" stroke="#000000" points="709.0727,-140.9909 712.5726,-150.991 716.0727,-140.991 709.0727,-140.9909"/>
</g>
<!-- UploadComponent -->
<g id="node8" class="node">
<title>UploadComponent</title>
<polygon fill="#ffffb3" stroke="#000000" points="606.045,-122 483.955,-122 483.955,-86 606.045,-86 606.045,-122"/>
<text text-anchor="middle" x="545" y="-99.8" font-family="Times,serif" font-size="14.00" fill="#000000">UploadComponent</text>
</g>
<!-- UploadComponent&#45;&gt;FilesModule -->
<g id="edge8" class="edge">
<title>UploadComponent&#45;&gt;FilesModule</title>
<path fill="none" stroke="#000000" d="M555.4413,-122.1243C555.4413,-136.7832 555.4413,-155 555.4413,-155 555.4413,-155 687.4947,-155 687.4947,-155"/>
<polygon fill="#000000" stroke="#000000" points="687.4948,-158.5001 697.4947,-155 687.4947,-151.5001 687.4948,-158.5001"/>
</g>
<!-- AssetDirective  -->
<g id="node13" class="node">
<title>AssetDirective </title>
<polygon fill="#fb8072" stroke="#000000" points="1454.1843,-252 1351.8157,-252 1351.8157,-216 1454.1843,-216 1454.1843,-252"/>
<text text-anchor="middle" x="1403" y="-229.8" font-family="Times,serif" font-size="14.00" fill="#000000">AssetDirective </text>
</g>
<!-- FilesModule&#45;&gt;AssetDirective  -->
<g id="edge12" class="edge">
<title>FilesModule&#45;&gt;AssetDirective </title>
<path fill="none" stroke="#000000" stroke-dasharray="5,2" d="M784.7717,-173C928.6492,-173 1377.8277,-173 1377.8277,-173 1377.8277,-173 1377.8277,-205.698 1377.8277,-205.698"/>
<polygon fill="#000000" stroke="#000000" points="1374.3277,-205.698 1377.8277,-215.698 1381.3277,-205.698 1374.3277,-205.698"/>
</g>
<!-- AssetListComponent  -->
<g id="node14" class="node">
<title>AssetListComponent </title>
<polygon fill="#fb8072" stroke="#000000" points="1333.7121,-252 1196.2879,-252 1196.2879,-216 1333.7121,-216 1333.7121,-252"/>
<text text-anchor="middle" x="1265" y="-229.8" font-family="Times,serif" font-size="14.00" fill="#000000">AssetListComponent </text>
</g>
<!-- FilesModule&#45;&gt;AssetListComponent  -->
<g id="edge13" class="edge">
<title>FilesModule&#45;&gt;AssetListComponent </title>
<path fill="none" stroke="#000000" stroke-dasharray="5,2" d="M784.58,-177C901.4852,-177 1213.2323,-177 1213.2323,-177 1213.2323,-177 1213.2323,-205.9648 1213.2323,-205.9648"/>
<polygon fill="#000000" stroke="#000000" points="1209.7324,-205.9648 1213.2323,-215.9648 1216.7324,-205.9649 1209.7324,-205.9648"/>
</g>
<!-- AssetListPopComponent  -->
<g id="node15" class="node">
<title>AssetListPopComponent </title>
<polygon fill="#fb8072" stroke="#000000" points="1177.9952,-252 1018.0048,-252 1018.0048,-216 1177.9952,-216 1177.9952,-252"/>
<text text-anchor="middle" x="1098" y="-229.8" font-family="Times,serif" font-size="14.00" fill="#000000">AssetListPopComponent </text>
</g>
<!-- FilesModule&#45;&gt;AssetListPopComponent  -->
<g id="edge14" class="edge">
<title>FilesModule&#45;&gt;AssetListPopComponent </title>
<path fill="none" stroke="#000000" stroke-dasharray="5,2" d="M784.4396,-180C867.7824,-180 1041.9518,-180 1041.9518,-180 1041.9518,-180 1041.9518,-205.7181 1041.9518,-205.7181"/>
<polygon fill="#000000" stroke="#000000" points="1038.4519,-205.718 1041.9518,-215.7181 1045.4519,-205.7181 1038.4519,-205.718"/>
</g>
<!-- AssetSelectComponent  -->
<g id="node16" class="node">
<title>AssetSelectComponent </title>
<polygon fill="#fb8072" stroke="#000000" points="1000.1411,-252 849.8589,-252 849.8589,-216 1000.1411,-216 1000.1411,-252"/>
<text text-anchor="middle" x="925" y="-229.8" font-family="Times,serif" font-size="14.00" fill="#000000">AssetSelectComponent </text>
</g>
<!-- FilesModule&#45;&gt;AssetSelectComponent  -->
<g id="edge15" class="edge">
<title>FilesModule&#45;&gt;AssetSelectComponent </title>
<path fill="none" stroke="#000000" stroke-dasharray="5,2" d="M784.3731,-184C818.1315,-184 859.2846,-184 859.2846,-184 859.2846,-184 859.2846,-205.9489 859.2846,-205.9489"/>
<polygon fill="#000000" stroke="#000000" points="855.7846,-205.9488 859.2846,-215.9489 862.7846,-205.9489 855.7846,-205.9488"/>
</g>
<!-- AssetgroupSelectComponent  -->
<g id="node17" class="node">
<title>AssetgroupSelectComponent </title>
<polygon fill="#fb8072" stroke="#000000" points="832.3017,-252 649.6983,-252 649.6983,-216 832.3017,-216 832.3017,-252"/>
<text text-anchor="middle" x="741" y="-229.8" font-family="Times,serif" font-size="14.00" fill="#000000">AssetgroupSelectComponent </text>
</g>
<!-- FilesModule&#45;&gt;AssetgroupSelectComponent  -->
<g id="edge16" class="edge">
<title>FilesModule&#45;&gt;AssetgroupSelectComponent </title>
<path fill="none" stroke="#000000" stroke-dasharray="5,2" d="M741,-187.1061C741,-187.1061 741,-205.991 741,-205.991"/>
<polygon fill="#000000" stroke="#000000" points="737.5001,-205.9909 741,-215.991 744.5001,-205.991 737.5001,-205.9909"/>
</g>
<!-- DropzoneDirective  -->
<g id="node18" class="node">
<title>DropzoneDirective </title>
<polygon fill="#fb8072" stroke="#000000" points="631.2794,-252 504.7206,-252 504.7206,-216 631.2794,-216 631.2794,-252"/>
<text text-anchor="middle" x="568" y="-229.8" font-family="Times,serif" font-size="14.00" fill="#000000">DropzoneDirective </text>
</g>
<!-- FilesModule&#45;&gt;DropzoneDirective  -->
<g id="edge17" class="edge">
<title>FilesModule&#45;&gt;DropzoneDirective </title>
<path fill="none" stroke="#000000" stroke-dasharray="5,2" d="M697.4134,-184C661.1285,-184 615.3702,-184 615.3702,-184 615.3702,-184 615.3702,-205.9489 615.3702,-205.9489"/>
<polygon fill="#000000" stroke="#000000" points="611.8703,-205.9488 615.3702,-215.9489 618.8703,-205.9489 611.8703,-205.9488"/>
</g>
<!-- ImageDirective  -->
<g id="node19" class="node">
<title>ImageDirective </title>
<polygon fill="#fb8072" stroke="#000000" points="486.0641,-252 379.9359,-252 379.9359,-216 486.0641,-216 486.0641,-252"/>
<text text-anchor="middle" x="433" y="-229.8" font-family="Times,serif" font-size="14.00" fill="#000000">ImageDirective </text>
</g>
<!-- FilesModule&#45;&gt;ImageDirective  -->
<g id="edge18" class="edge">
<title>FilesModule&#45;&gt;ImageDirective </title>
<path fill="none" stroke="#000000" stroke-dasharray="5,2" d="M697.4448,-180C621.2476,-180 471.7728,-180 471.7728,-180 471.7728,-180 471.7728,-205.7181 471.7728,-205.7181"/>
<polygon fill="#000000" stroke="#000000" points="468.2729,-205.718 471.7728,-215.7181 475.2729,-205.7181 468.2729,-205.718"/>
</g>
<!-- SdkModule  -->
<g id="node20" class="node">
<title>SdkModule </title>
<polygon fill="#fb8072" stroke="#000000" points="361.3326,-252 276.6674,-252 276.6674,-216 361.3326,-216 361.3326,-252"/>
<text text-anchor="middle" x="319" y="-229.8" font-family="Times,serif" font-size="14.00" fill="#000000">SdkModule </text>
</g>
<!-- FilesModule&#45;&gt;SdkModule  -->
<g id="edge19" class="edge">
<title>FilesModule&#45;&gt;SdkModule </title>
<path fill="none" stroke="#000000" stroke-dasharray="5,2" d="M697.4486,-177C596.4473,-177 354.7993,-177 354.7993,-177 354.7993,-177 354.7993,-205.9648 354.7993,-205.9648"/>
<polygon fill="#000000" stroke="#000000" points="351.2993,-205.9648 354.7993,-215.9648 358.2993,-205.9649 351.2993,-205.9648"/>
</g>
<!-- UploadComponent  -->
<g id="node21" class="node">
<title>UploadComponent </title>
<polygon fill="#fb8072" stroke="#000000" points="259.0442,-252 132.9558,-252 132.9558,-216 259.0442,-216 259.0442,-252"/>
<text text-anchor="middle" x="196" y="-229.8" font-family="Times,serif" font-size="14.00" fill="#000000">UploadComponent </text>
</g>
<!-- FilesModule&#45;&gt;UploadComponent  -->
<g id="edge20" class="edge">
<title>FilesModule&#45;&gt;UploadComponent </title>
<path fill="none" stroke="#000000" stroke-dasharray="5,2" d="M697.3694,-173C577.8784,-173 254.178,-173 254.178,-173 254.178,-173 254.178,-205.698 254.178,-205.698"/>
<polygon fill="#000000" stroke="#000000" points="250.678,-205.698 254.178,-215.698 257.678,-205.698 250.678,-205.698"/>
</g>
<!-- ResourceModule -->
<g id="node10" class="node">
<title>ResourceModule</title>
<polygon fill="#8dd3c7" stroke="#000000" points="459.636,-122 456.636,-126 435.636,-126 432.636,-122 348.364,-122 348.364,-86 459.636,-86 459.636,-122"/>
<text text-anchor="middle" x="404" y="-99.8" font-family="Times,serif" font-size="14.00" fill="#000000">ResourceModule</text>
</g>
<!-- ResourceModule&#45;&gt;FilesModule -->
<g id="edge9" class="edge">
<title>ResourceModule&#45;&gt;FilesModule</title>
<path fill="none" stroke="#000000" d="M419.7681,-122.0091C419.7681,-138.0494 419.7681,-159 419.7681,-159 419.7681,-159 687.6772,-159 687.6772,-159"/>
<polygon fill="#000000" stroke="#000000" points="687.6773,-162.5001 697.6772,-159 687.6772,-155.5001 687.6773,-162.5001"/>
</g>
<!-- SdkModule -->
<g id="node11" class="node">
<title>SdkModule</title>
<polygon fill="#8dd3c7" stroke="#000000" points="330.8331,-122 327.8331,-126 306.8331,-126 303.8331,-122 249.1669,-122 249.1669,-86 330.8331,-86 330.8331,-122"/>
<text text-anchor="middle" x="290" y="-99.8" font-family="Times,serif" font-size="14.00" fill="#000000">SdkModule</text>
</g>
<!-- SdkModule&#45;&gt;FilesModule -->
<g id="edge10" class="edge">
<title>SdkModule&#45;&gt;FilesModule</title>
<path fill="none" stroke="#000000" d="M303.625,-122.0336C303.625,-139.0597 303.625,-162 303.625,-162 303.625,-162 687.4638,-162 687.4638,-162"/>
<polygon fill="#000000" stroke="#000000" points="687.4638,-165.5001 697.4638,-162 687.4638,-158.5001 687.4638,-165.5001"/>
</g>
<!-- UiModule -->
<g id="node12" class="node">
<title>UiModule</title>
<polygon fill="#8dd3c7" stroke="#000000" points="231.5484,-122 228.5484,-126 207.5484,-126 204.5484,-122 158.4516,-122 158.4516,-86 231.5484,-86 231.5484,-122"/>
<text text-anchor="middle" x="195" y="-99.8" font-family="Times,serif" font-size="14.00" fill="#000000">UiModule</text>
</g>
<!-- UiModule&#45;&gt;FilesModule -->
<g id="edge11" class="edge">
<title>UiModule&#45;&gt;FilesModule</title>
<path fill="none" stroke="#000000" d="M195,-122.2667C195,-140.5552 195,-166 195,-166 195,-166 687.6999,-166 687.6999,-166"/>
<polygon fill="#000000" stroke="#000000" points="687.6999,-169.5001 697.6999,-166 687.6999,-162.5001 687.6999,-169.5001"/>
</g>
<!-- FileService -->
<g id="node22" class="node">
<title>FileService</title>
<ellipse fill="#fdb462" stroke="#000000" cx="79" cy="-104" rx="55.0285" ry="18"/>
<text text-anchor="middle" x="79" y="-99.8" font-family="Times,serif" font-size="14.00" fill="#000000">FileService</text>
</g>
<!-- FileService&#45;&gt;FilesModule -->
<g id="edge21" class="edge">
<title>FileService&#45;&gt;FilesModule</title>
<path fill="none" stroke="#000000" d="M78.4818,-122.1061C78.4818,-141.3391 78.4818,-169 78.4818,-169 78.4818,-169 687.5303,-169 687.5303,-169"/>
<polygon fill="#000000" stroke="#000000" points="687.5304,-172.5001 697.5303,-169 687.5303,-165.5001 687.5304,-172.5001"/>
</g>
</g>
</svg>
