<?xml version="1.0" encoding="UTF-8" standalone="no"?>
<!DOCTYPE svg PUBLIC "-//W3C//DTD SVG 1.1//EN"
 "http://www.w3.org/Graphics/SVG/1.1/DTD/svg11.dtd">
<!-- Generated by graphviz version 2.40.1 (20161225.0304)
 -->
<!-- Title: dependencies Pages: 1 -->
<svg width="1006pt" height="284pt"
 viewBox="0.00 0.00 1006.00 284.00" xmlns="http://www.w3.org/2000/svg" xmlns:xlink="http://www.w3.org/1999/xlink">
<g id="graph0" class="graph" transform="scale(1 1) rotate(0) translate(4 280)">
<title>dependencies</title>
<polygon fill="#ffffff" stroke="transparent" points="-4,4 -4,-280 1002,-280 1002,4 -4,4"/>
<text text-anchor="start" x="478.0091" y="-42.4" font-family="sans-serif" font-weight="bold" font-size="14.00" fill="#000000">Legend</text>
<polygon fill="#ffffb3" stroke="transparent" points="265,-10 265,-30 285,-30 285,-10 265,-10"/>
<text text-anchor="start" x="288.629" y="-15.4" font-family="sans-serif" font-size="14.00" fill="#000000"> &#160;Declarations</text>
<polygon fill="#8dd3c7" stroke="transparent" points="378,-10 378,-30 398,-30 398,-10 378,-10"/>
<text text-anchor="start" x="401.7251" y="-15.4" font-family="sans-serif" font-size="14.00" fill="#000000"> &#160;Module</text>
<polygon fill="#80b1d3" stroke="transparent" points="464,-10 464,-30 484,-30 484,-10 464,-10"/>
<text text-anchor="start" x="487.7812" y="-15.4" font-family="sans-serif" font-size="14.00" fill="#000000"> &#160;Bootstrap</text>
<polygon fill="#fdb462" stroke="transparent" points="561,-10 561,-30 581,-30 581,-10 561,-10"/>
<text text-anchor="start" x="584.6732" y="-15.4" font-family="sans-serif" font-size="14.00" fill="#000000"> &#160;Providers</text>
<polygon fill="#fb8072" stroke="transparent" points="657,-10 657,-30 677,-30 677,-10 657,-10"/>
<text text-anchor="start" x="680.7258" y="-15.4" font-family="sans-serif" font-size="14.00" fill="#000000"> &#160;Exports</text>
<g id="clust1" class="cluster">
<title>cluster_FilesModule</title>
<polygon fill="none" stroke="#000000" stroke-dasharray="1,5" points="8,-70 8,-268 990,-268 990,-70 8,-70"/>
</g>
<g id="clust2" class="cluster">
<title>cluster_FilesModule_declarations</title>
<polygon fill="none" stroke="#000000" points="352,-78 352,-130 982,-130 982,-78 352,-78"/>
</g>
<g id="clust7" class="cluster">
<title>cluster_FilesModule_imports</title>
<polygon fill="none" stroke="#000000" points="150,-78 150,-130 344,-130 344,-78 150,-78"/>
</g>
<g id="clust8" class="cluster">
<title>cluster_FilesModule_exports</title>
<polygon fill="none" stroke="#000000" points="108,-208 108,-260 752,-260 752,-208 108,-208"/>
</g>
<g id="clust10" class="cluster">
<title>cluster_FilesModule_providers</title>
<polygon fill="none" stroke="#000000" points="16,-78 16,-130 142,-130 142,-78 16,-78"/>
</g>
<!-- AssetListComponent -->
<g id="node1" class="node">
<title>AssetListComponent</title>
<polygon fill="#ffffb3" stroke="#000000" points="974.212,-122 839.788,-122 839.788,-86 974.212,-86 974.212,-122"/>
<text text-anchor="middle" x="907" y="-99.8" font-family="Times,serif" font-size="14.00" fill="#000000">AssetListComponent</text>
</g>
<!-- FilesModule -->
<g id="node5" class="node">
<title>FilesModule</title>
<polygon fill="#8dd3c7" stroke="#000000" points="474.2731,-187 471.2731,-191 450.2731,-191 447.2731,-187 387.7269,-187 387.7269,-151 474.2731,-151 474.2731,-187"/>
<text text-anchor="middle" x="431" y="-164.8" font-family="Times,serif" font-size="14.00" fill="#000000">FilesModule</text>
</g>
<!-- AssetListComponent&#45;&gt;FilesModule -->
<g id="edge1" class="edge">
<title>AssetListComponent&#45;&gt;FilesModule</title>
<path fill="none" stroke="#000000" d="M907,-122.1289C907,-142.5724 907,-173 907,-173 907,-173 484.5037,-173 484.5037,-173"/>
<polygon fill="#000000" stroke="#000000" points="484.5037,-169.5001 474.5037,-173 484.5037,-176.5001 484.5037,-169.5001"/>
</g>
<!-- AssetSelectComponent -->
<g id="node2" class="node">
<title>AssetSelectComponent</title>
<polygon fill="#ffffb3" stroke="#000000" points="822.1414,-122 675.8586,-122 675.8586,-86 822.1414,-86 822.1414,-122"/>
<text text-anchor="middle" x="749" y="-99.8" font-family="Times,serif" font-size="14.00" fill="#000000">AssetSelectComponent</text>
</g>
<!-- AssetSelectComponent&#45;&gt;FilesModule -->
<g id="edge2" class="edge">
<title>AssetSelectComponent&#45;&gt;FilesModule</title>
<path fill="none" stroke="#000000" d="M709.7677,-122.2667C709.7677,-140.5552 709.7677,-166 709.7677,-166 709.7677,-166 484.5575,-166 484.5575,-166"/>
<polygon fill="#000000" stroke="#000000" points="484.5575,-162.5001 474.5575,-166 484.5574,-169.5001 484.5575,-162.5001"/>
</g>
<!-- FileSelectComponent -->
<g id="node3" class="node">
<title>FileSelectComponent</title>
<polygon fill="#ffffb3" stroke="#000000" points="657.8188,-122 520.1812,-122 520.1812,-86 657.8188,-86 657.8188,-122"/>
<text text-anchor="middle" x="589" y="-99.8" font-family="Times,serif" font-size="14.00" fill="#000000">FileSelectComponent</text>
</g>
<!-- FileSelectComponent&#45;&gt;FilesModule -->
<g id="edge3" class="edge">
<title>FileSelectComponent&#45;&gt;FilesModule</title>
<path fill="none" stroke="#000000" d="M554.2057,-122.0091C554.2057,-138.0494 554.2057,-159 554.2057,-159 554.2057,-159 484.4377,-159 484.4377,-159"/>
<polygon fill="#000000" stroke="#000000" points="484.4377,-155.5001 474.4377,-159 484.4377,-162.5001 484.4377,-155.5001"/>
</g>
<!-- AssetInputComponent -->
<g id="node4" class="node">
<title>AssetInputComponent</title>
<polygon fill="#ffffb3" stroke="#000000" points="501.9846,-122 360.0154,-122 360.0154,-86 501.9846,-86 501.9846,-122"/>
<text text-anchor="middle" x="431" y="-99.8" font-family="Times,serif" font-size="14.00" fill="#000000">AssetInputComponent</text>
</g>
<!-- AssetInputComponent&#45;&gt;FilesModule -->
<g id="edge4" class="edge">
<title>AssetInputComponent&#45;&gt;FilesModule</title>
<path fill="none" stroke="#000000" d="M431,-122.1061C431,-122.1061 431,-140.991 431,-140.991"/>
<polygon fill="#000000" stroke="#000000" points="427.5001,-140.9909 431,-150.991 434.5001,-140.991 427.5001,-140.9909"/>
</g>
<!-- AssetListComponent  -->
<g id="node8" class="node">
<title>AssetListComponent </title>
<polygon fill="#fb8072" stroke="#000000" points="743.7121,-252 606.2879,-252 606.2879,-216 743.7121,-216 743.7121,-252"/>
<text text-anchor="middle" x="675" y="-229.8" font-family="Times,serif" font-size="14.00" fill="#000000">AssetListComponent </text>
</g>
<!-- FilesModule&#45;&gt;AssetListComponent  -->
<g id="edge7" class="edge">
<title>FilesModule&#45;&gt;AssetListComponent </title>
<path fill="none" stroke="#000000" stroke-dasharray="5,2" d="M474.5927,-180C533.6795,-180 631.9017,-180 631.9017,-180 631.9017,-180 631.9017,-205.7181 631.9017,-205.7181"/>
<polygon fill="#000000" stroke="#000000" points="628.4017,-205.718 631.9017,-215.7181 635.4017,-205.7181 628.4017,-205.718"/>
</g>
<!-- AssetSelectComponent  -->
<g id="node9" class="node">
<title>AssetSelectComponent </title>
<polygon fill="#fb8072" stroke="#000000" points="588.1411,-252 437.8589,-252 437.8589,-216 588.1411,-216 588.1411,-252"/>
<text text-anchor="middle" x="513" y="-229.8" font-family="Times,serif" font-size="14.00" fill="#000000">AssetSelectComponent </text>
</g>
<!-- FilesModule&#45;&gt;AssetSelectComponent  -->
<g id="edge8" class="edge">
<title>FilesModule&#45;&gt;AssetSelectComponent </title>
<path fill="none" stroke="#000000" stroke-dasharray="5,2" d="M456.158,-187.1061C456.158,-187.1061 456.158,-205.991 456.158,-205.991"/>
<polygon fill="#000000" stroke="#000000" points="452.658,-205.9909 456.158,-215.991 459.658,-205.991 452.658,-205.9909"/>
</g>
<!-- FileSelectComponent  -->
<g id="node10" class="node">
<title>FileSelectComponent </title>
<polygon fill="#fb8072" stroke="#000000" points="420.3185,-252 279.6815,-252 279.6815,-216 420.3185,-216 420.3185,-252"/>
<text text-anchor="middle" x="350" y="-229.8" font-family="Times,serif" font-size="14.00" fill="#000000">FileSelectComponent </text>
</g>
<!-- FilesModule&#45;&gt;FileSelectComponent  -->
<g id="edge9" class="edge">
<title>FilesModule&#45;&gt;FileSelectComponent </title>
<path fill="none" stroke="#000000" stroke-dasharray="5,2" d="M404.0114,-187.1061C404.0114,-187.1061 404.0114,-205.991 404.0114,-205.991"/>
<polygon fill="#000000" stroke="#000000" points="400.5115,-205.9909 404.0114,-215.991 407.5115,-205.991 400.5115,-205.9909"/>
</g>
<!-- AssetInputComponent  -->
<g id="node11" class="node">
<title>AssetInputComponent </title>
<polygon fill="#fb8072" stroke="#000000" points="261.9854,-252 116.0146,-252 116.0146,-216 261.9854,-216 261.9854,-252"/>
<text text-anchor="middle" x="189" y="-229.8" font-family="Times,serif" font-size="14.00" fill="#000000">AssetInputComponent </text>
</g>
<!-- FilesModule&#45;&gt;AssetInputComponent  -->
<g id="edge10" class="edge">
<title>FilesModule&#45;&gt;AssetInputComponent </title>
<path fill="none" stroke="#000000" stroke-dasharray="5,2" d="M387.4233,-180C334.6868,-180 252.8652,-180 252.8652,-180 252.8652,-180 252.8652,-205.7181 252.8652,-205.7181"/>
<polygon fill="#000000" stroke="#000000" points="249.3653,-205.718 252.8652,-215.7181 256.3653,-205.7181 249.3653,-205.718"/>
</g>
<!-- UiModule -->
<g id="node6" class="node">
<title>UiModule</title>
<polygon fill="#8dd3c7" stroke="#000000" points="335.5484,-122 332.5484,-126 311.5484,-126 308.5484,-122 262.4516,-122 262.4516,-86 335.5484,-86 335.5484,-122"/>
<text text-anchor="middle" x="299" y="-99.8" font-family="Times,serif" font-size="14.00" fill="#000000">UiModule</text>
</g>
<!-- UiModule&#45;&gt;FilesModule -->
<g id="edge5" class="edge">
<title>UiModule&#45;&gt;FilesModule</title>
<path fill="none" stroke="#000000" d="M307.6822,-122.0091C307.6822,-138.0494 307.6822,-159 307.6822,-159 307.6822,-159 377.5227,-159 377.5227,-159"/>
<polygon fill="#000000" stroke="#000000" points="377.5228,-162.5001 387.5227,-159 377.5227,-155.5001 377.5228,-162.5001"/>
</g>
<!-- DataModule -->
<g id="node7" class="node">
<title>DataModule</title>
<polygon fill="#8dd3c7" stroke="#000000" points="243.9762,-122 240.9762,-126 219.9762,-126 216.9762,-122 158.0238,-122 158.0238,-86 243.9762,-86 243.9762,-122"/>
<text text-anchor="middle" x="201" y="-99.8" font-family="Times,serif" font-size="14.00" fill="#000000">DataModule</text>
</g>
<!-- DataModule&#45;&gt;FilesModule -->
<g id="edge6" class="edge">
<title>DataModule&#45;&gt;FilesModule</title>
<path fill="none" stroke="#000000" d="M201,-122.2667C201,-140.5552 201,-166 201,-166 201,-166 377.4684,-166 377.4684,-166"/>
<polygon fill="#000000" stroke="#000000" points="377.4684,-169.5001 387.4684,-166 377.4683,-162.5001 377.4684,-169.5001"/>
</g>
<!-- FileService -->
<g id="node12" class="node">
<title>FileService</title>
<ellipse fill="#fdb462" stroke="#000000" cx="79" cy="-104" rx="55.0285" ry="18"/>
<text text-anchor="middle" x="79" y="-99.8" font-family="Times,serif" font-size="14.00" fill="#000000">FileService</text>
</g>
<!-- FileService&#45;&gt;FilesModule -->
<g id="edge11" class="edge">
<title>FileService&#45;&gt;FilesModule</title>
<path fill="none" stroke="#000000" d="M125.136,-113.886C125.136,-132.9651 125.136,-173 125.136,-173 125.136,-173 377.502,-173 377.502,-173"/>
<polygon fill="#000000" stroke="#000000" points="377.502,-176.5001 387.502,-173 377.5019,-169.5001 377.502,-176.5001"/>
</g>
</g>
</svg>
