<?xml version="1.0" encoding="UTF-8" standalone="no"?>
<!DOCTYPE svg PUBLIC "-//W3C//DTD SVG 1.1//EN"
 "http://www.w3.org/Graphics/SVG/1.1/DTD/svg11.dtd">
<!-- Generated by graphviz version 2.40.1 (20161225.0304)
 -->
<!-- Title: dependencies Pages: 1 -->
<svg width="1357pt" height="284pt"
 viewBox="0.00 0.00 1357.00 284.00" xmlns="http://www.w3.org/2000/svg" xmlns:xlink="http://www.w3.org/1999/xlink">
<g id="graph0" class="graph" transform="scale(1 1) rotate(0) translate(4 280)">
<title>dependencies</title>
<polygon fill="#ffffff" stroke="transparent" points="-4,4 -4,-280 1353,-280 1353,4 -4,4"/>
<text text-anchor="start" x="653.5091" y="-42.4" font-family="sans-serif" font-weight="bold" font-size="14.00" fill="#000000">Legend</text>
<polygon fill="#ffffb3" stroke="transparent" points="440.5,-10 440.5,-30 460.5,-30 460.5,-10 440.5,-10"/>
<text text-anchor="start" x="464.129" y="-15.4" font-family="sans-serif" font-size="14.00" fill="#000000"> &#160;Declarations</text>
<polygon fill="#8dd3c7" stroke="transparent" points="553.5,-10 553.5,-30 573.5,-30 573.5,-10 553.5,-10"/>
<text text-anchor="start" x="577.2251" y="-15.4" font-family="sans-serif" font-size="14.00" fill="#000000"> &#160;Module</text>
<polygon fill="#80b1d3" stroke="transparent" points="639.5,-10 639.5,-30 659.5,-30 659.5,-10 639.5,-10"/>
<text text-anchor="start" x="663.2812" y="-15.4" font-family="sans-serif" font-size="14.00" fill="#000000"> &#160;Bootstrap</text>
<polygon fill="#fdb462" stroke="transparent" points="736.5,-10 736.5,-30 756.5,-30 756.5,-10 736.5,-10"/>
<text text-anchor="start" x="760.1732" y="-15.4" font-family="sans-serif" font-size="14.00" fill="#000000"> &#160;Providers</text>
<polygon fill="#fb8072" stroke="transparent" points="832.5,-10 832.5,-30 852.5,-30 852.5,-10 832.5,-10"/>
<text text-anchor="start" x="856.2258" y="-15.4" font-family="sans-serif" font-size="14.00" fill="#000000"> &#160;Exports</text>
<g id="clust1" class="cluster">
<title>cluster_FilesModule</title>
<polygon fill="none" stroke="#000000" stroke-dasharray="1,5" points="8,-70 8,-268 1341,-268 1341,-70 8,-70"/>
</g>
<g id="clust2" class="cluster">
<title>cluster_FilesModule_declarations</title>
<polygon fill="none" stroke="#000000" points="476,-78 476,-130 1333,-130 1333,-78 476,-78"/>
</g>
<g id="clust9" class="cluster">
<title>cluster_FilesModule_imports</title>
<polygon fill="none" stroke="#000000" points="150,-78 150,-130 468,-130 468,-78 150,-78"/>
</g>
<g id="clust10" class="cluster">
<title>cluster_FilesModule_exports</title>
<polygon fill="none" stroke="#000000" points="167,-208 167,-260 1147,-260 1147,-208 167,-208"/>
</g>
<g id="clust12" class="cluster">
<title>cluster_FilesModule_providers</title>
<polygon fill="none" stroke="#000000" points="16,-78 16,-130 142,-130 142,-78 16,-78"/>
</g>
<!-- AssetDirective -->
<g id="node1" class="node">
<title>AssetDirective</title>
<polygon fill="#ffffb3" stroke="#000000" points="1324.684,-122 1225.316,-122 1225.316,-86 1324.684,-86 1324.684,-122"/>
<text text-anchor="middle" x="1275" y="-99.8" font-family="Times,serif" font-size="14.00" fill="#000000">AssetDirective</text>
</g>
<!-- FilesModule -->
<g id="node7" class="node">
<title>FilesModule</title>
<polygon fill="#8dd3c7" stroke="#000000" points="653.2731,-187 650.2731,-191 629.2731,-191 626.2731,-187 566.7269,-187 566.7269,-151 653.2731,-151 653.2731,-187"/>
<text text-anchor="middle" x="610" y="-164.8" font-family="Times,serif" font-size="14.00" fill="#000000">FilesModule</text>
</g>
<!-- AssetDirective&#45;&gt;FilesModule -->
<g id="edge1" class="edge">
<title>AssetDirective&#45;&gt;FilesModule</title>
<path fill="none" stroke="#000000" d="M1275,-122.1061C1275,-141.3391 1275,-169 1275,-169 1275,-169 663.376,-169 663.376,-169"/>
<polygon fill="#000000" stroke="#000000" points="663.376,-165.5001 653.376,-169 663.376,-172.5001 663.376,-165.5001"/>
</g>
<!-- AssetListPopComponent -->
<g id="node2" class="node">
<title>AssetListPopComponent</title>
<polygon fill="#ffffb3" stroke="#000000" points="1206.9944,-122 1051.0056,-122 1051.0056,-86 1206.9944,-86 1206.9944,-122"/>
<text text-anchor="middle" x="1129" y="-99.8" font-family="Times,serif" font-size="14.00" fill="#000000">AssetListPopComponent</text>
</g>
<!-- AssetListPopComponent&#45;&gt;FilesModule -->
<g id="edge2" class="edge">
<title>AssetListPopComponent&#45;&gt;FilesModule</title>
<path fill="none" stroke="#000000" d="M1095.1723,-122.302C1095.1723,-140.2699 1095.1723,-165 1095.1723,-165 1095.1723,-165 663.4828,-165 663.4828,-165"/>
<polygon fill="#000000" stroke="#000000" points="663.4828,-161.5001 653.4828,-165 663.4828,-168.5001 663.4828,-161.5001"/>
</g>
<!-- AssetSelectComponent -->
<g id="node3" class="node">
<title>AssetSelectComponent</title>
<polygon fill="#ffffb3" stroke="#000000" points="1033.1414,-122 886.8586,-122 886.8586,-86 1033.1414,-86 1033.1414,-122"/>
<text text-anchor="middle" x="960" y="-99.8" font-family="Times,serif" font-size="14.00" fill="#000000">AssetSelectComponent</text>
</g>
<!-- AssetSelectComponent&#45;&gt;FilesModule -->
<g id="edge3" class="edge">
<title>AssetSelectComponent&#45;&gt;FilesModule</title>
<path fill="none" stroke="#000000" d="M952.7134,-122.027C952.7134,-138.3976 952.7134,-160 952.7134,-160 952.7134,-160 663.4049,-160 663.4049,-160"/>
<polygon fill="#000000" stroke="#000000" points="663.4049,-156.5001 653.4049,-160 663.4048,-163.5001 663.4049,-156.5001"/>
</g>
<!-- DropzoneDirective -->
<g id="node4" class="node">
<title>DropzoneDirective</title>
<polygon fill="#ffffb3" stroke="#000000" points="868.7795,-122 745.2205,-122 745.2205,-86 868.7795,-86 868.7795,-122"/>
<text text-anchor="middle" x="807" y="-99.8" font-family="Times,serif" font-size="14.00" fill="#000000">DropzoneDirective</text>
</g>
<!-- DropzoneDirective&#45;&gt;FilesModule -->
<g id="edge4" class="edge">
<title>DropzoneDirective&#45;&gt;FilesModule</title>
<path fill="none" stroke="#000000" d="M793.2155,-122.1871C793.2155,-137.1824 793.2155,-156 793.2155,-156 793.2155,-156 663.4195,-156 663.4195,-156"/>
<polygon fill="#000000" stroke="#000000" points="663.4195,-152.5001 653.4195,-156 663.4195,-159.5001 663.4195,-152.5001"/>
</g>
<!-- ImageDirective -->
<g id="node5" class="node">
<title>ImageDirective</title>
<polygon fill="#ffffb3" stroke="#000000" points="727.5632,-122 624.4368,-122 624.4368,-86 727.5632,-86 727.5632,-122"/>
<text text-anchor="middle" x="676" y="-99.8" font-family="Times,serif" font-size="14.00" fill="#000000">ImageDirective</text>
</g>
<!-- ImageDirective&#45;&gt;FilesModule -->
<g id="edge5" class="edge">
<title>ImageDirective&#45;&gt;FilesModule</title>
<path fill="none" stroke="#000000" d="M638.9274,-122.1061C638.9274,-122.1061 638.9274,-140.991 638.9274,-140.991"/>
<polygon fill="#000000" stroke="#000000" points="635.4275,-140.9909 638.9274,-150.991 642.4275,-140.991 635.4275,-140.9909"/>
</g>
<!-- UploadComponent -->
<g id="node6" class="node">
<title>UploadComponent</title>
<polygon fill="#ffffb3" stroke="#000000" points="606.045,-122 483.955,-122 483.955,-86 606.045,-86 606.045,-122"/>
<text text-anchor="middle" x="545" y="-99.8" font-family="Times,serif" font-size="14.00" fill="#000000">UploadComponent</text>
</g>
<!-- UploadComponent&#45;&gt;FilesModule -->
<g id="edge6" class="edge">
<title>UploadComponent&#45;&gt;FilesModule</title>
<path fill="none" stroke="#000000" d="M586.4429,-122.1061C586.4429,-122.1061 586.4429,-140.991 586.4429,-140.991"/>
<polygon fill="#000000" stroke="#000000" points="582.9429,-140.9909 586.4429,-150.991 589.9429,-140.991 582.9429,-140.9909"/>
</g>
<!-- AssetDirective  -->
<g id="node11" class="node">
<title>AssetDirective </title>
<polygon fill="#fb8072" stroke="#000000" points="1139.1843,-252 1036.8157,-252 1036.8157,-216 1139.1843,-216 1139.1843,-252"/>
<text text-anchor="middle" x="1088" y="-229.8" font-family="Times,serif" font-size="14.00" fill="#000000">AssetDirective </text>
</g>
<!-- FilesModule&#45;&gt;AssetDirective  -->
<g id="edge10" class="edge">
<title>FilesModule&#45;&gt;AssetDirective </title>
<path fill="none" stroke="#000000" stroke-dasharray="5,2" d="M653.5836,-174C763.5971,-174 1043.8305,-174 1043.8305,-174 1043.8305,-174 1043.8305,-205.998 1043.8305,-205.998"/>
<polygon fill="#000000" stroke="#000000" points="1040.3305,-205.998 1043.8305,-215.998 1047.3305,-205.9981 1040.3305,-205.998"/>
</g>
<!-- AssetListPopComponent  -->
<g id="node12" class="node">
<title>AssetListPopComponent </title>
<polygon fill="#fb8072" stroke="#000000" points="1018.9952,-252 859.0048,-252 859.0048,-216 1018.9952,-216 1018.9952,-252"/>
<text text-anchor="middle" x="939" y="-229.8" font-family="Times,serif" font-size="14.00" fill="#000000">AssetListPopComponent </text>
</g>
<!-- FilesModule&#45;&gt;AssetListPopComponent  -->
<g id="edge11" class="edge">
<title>FilesModule&#45;&gt;AssetListPopComponent </title>
<path fill="none" stroke="#000000" stroke-dasharray="5,2" d="M653.3664,-178C725.8964,-178 863.9462,-178 863.9462,-178 863.9462,-178 863.9462,-205.973 863.9462,-205.973"/>
<polygon fill="#000000" stroke="#000000" points="860.4463,-205.973 863.9462,-215.973 867.4463,-205.973 860.4463,-205.973"/>
</g>
<!-- AssetSelectComponent  -->
<g id="node13" class="node">
<title>AssetSelectComponent </title>
<polygon fill="#fb8072" stroke="#000000" points="841.1411,-252 690.8589,-252 690.8589,-216 841.1411,-216 841.1411,-252"/>
<text text-anchor="middle" x="766" y="-229.8" font-family="Times,serif" font-size="14.00" fill="#000000">AssetSelectComponent </text>
</g>
<!-- FilesModule&#45;&gt;AssetSelectComponent  -->
<g id="edge12" class="edge">
<title>FilesModule&#45;&gt;AssetSelectComponent </title>
<path fill="none" stroke="#000000" stroke-dasharray="5,2" d="M653.524,-183C680.186,-183 709.2306,-183 709.2306,-183 709.2306,-183 709.2306,-205.8757 709.2306,-205.8757"/>
<polygon fill="#000000" stroke="#000000" points="705.7306,-205.8757 709.2306,-215.8757 712.7306,-205.8757 705.7306,-205.8757"/>
</g>
<!-- DropzoneDirective  -->
<g id="node14" class="node">
<title>DropzoneDirective </title>
<polygon fill="#fb8072" stroke="#000000" points="673.2794,-252 546.7206,-252 546.7206,-216 673.2794,-216 673.2794,-252"/>
<text text-anchor="middle" x="610" y="-229.8" font-family="Times,serif" font-size="14.00" fill="#000000">DropzoneDirective </text>
</g>
<!-- FilesModule&#45;&gt;DropzoneDirective  -->
<g id="edge13" class="edge">
<title>FilesModule&#45;&gt;DropzoneDirective </title>
<path fill="none" stroke="#000000" stroke-dasharray="5,2" d="M610,-187.1061C610,-187.1061 610,-205.991 610,-205.991"/>
<polygon fill="#000000" stroke="#000000" points="606.5001,-205.9909 610,-215.991 613.5001,-205.991 606.5001,-205.9909"/>
</g>
<!-- ImageDirective  -->
<g id="node15" class="node">
<title>ImageDirective </title>
<polygon fill="#fb8072" stroke="#000000" points="528.0641,-252 421.9359,-252 421.9359,-216 528.0641,-216 528.0641,-252"/>
<text text-anchor="middle" x="475" y="-229.8" font-family="Times,serif" font-size="14.00" fill="#000000">ImageDirective </text>
</g>
<!-- FilesModule&#45;&gt;ImageDirective  -->
<g id="edge14" class="edge">
<title>FilesModule&#45;&gt;ImageDirective </title>
<path fill="none" stroke="#000000" stroke-dasharray="5,2" d="M566.4992,-183C538.0018,-183 506.0048,-183 506.0048,-183 506.0048,-183 506.0048,-205.8757 506.0048,-205.8757"/>
<polygon fill="#000000" stroke="#000000" points="502.5048,-205.8757 506.0048,-215.8757 509.5048,-205.8757 502.5048,-205.8757"/>
</g>
<!-- SdkModule  -->
<g id="node16" class="node">
<title>SdkModule </title>
<polygon fill="#fb8072" stroke="#000000" points="403.3326,-252 318.6674,-252 318.6674,-216 403.3326,-216 403.3326,-252"/>
<text text-anchor="middle" x="361" y="-229.8" font-family="Times,serif" font-size="14.00" fill="#000000">SdkModule </text>
</g>
<!-- FilesModule&#45;&gt;SdkModule  -->
<g id="edge15" class="edge">
<title>FilesModule&#45;&gt;SdkModule </title>
<path fill="none" stroke="#000000" stroke-dasharray="5,2" d="M566.4975,-178C498.7684,-178 375.7993,-178 375.7993,-178 375.7993,-178 375.7993,-205.973 375.7993,-205.973"/>
<polygon fill="#000000" stroke="#000000" points="372.2993,-205.973 375.7993,-215.973 379.2993,-205.973 372.2993,-205.973"/>
</g>
<!-- UploadComponent  -->
<g id="node17" class="node">
<title>UploadComponent </title>
<polygon fill="#fb8072" stroke="#000000" points="301.0442,-252 174.9558,-252 174.9558,-216 301.0442,-216 301.0442,-252"/>
<text text-anchor="middle" x="238" y="-229.8" font-family="Times,serif" font-size="14.00" fill="#000000">UploadComponent </text>
</g>
<!-- FilesModule&#45;&gt;UploadComponent  -->
<g id="edge16" class="edge">
<title>FilesModule&#45;&gt;UploadComponent </title>
<path fill="none" stroke="#000000" stroke-dasharray="5,2" d="M566.5711,-174C475.9765,-174 275.178,-174 275.178,-174 275.178,-174 275.178,-205.998 275.178,-205.998"/>
<polygon fill="#000000" stroke="#000000" points="271.678,-205.998 275.178,-215.998 278.678,-205.9981 271.678,-205.998"/>
</g>
<!-- ResourceModule -->
<g id="node8" class="node">
<title>ResourceModule</title>
<polygon fill="#8dd3c7" stroke="#000000" points="459.636,-122 456.636,-126 435.636,-126 432.636,-122 348.364,-122 348.364,-86 459.636,-86 459.636,-122"/>
<text text-anchor="middle" x="404" y="-99.8" font-family="Times,serif" font-size="14.00" fill="#000000">ResourceModule</text>
</g>
<!-- ResourceModule&#45;&gt;FilesModule -->
<g id="edge7" class="edge">
<title>ResourceModule&#45;&gt;FilesModule</title>
<path fill="none" stroke="#000000" d="M440.7681,-122.1871C440.7681,-137.1824 440.7681,-156 440.7681,-156 440.7681,-156 556.4186,-156 556.4186,-156"/>
<polygon fill="#000000" stroke="#000000" points="556.4186,-159.5001 566.4186,-156 556.4185,-152.5001 556.4186,-159.5001"/>
</g>
<!-- SdkModule -->
<g id="node9" class="node">
<title>SdkModule</title>
<polygon fill="#8dd3c7" stroke="#000000" points="330.8331,-122 327.8331,-126 306.8331,-126 303.8331,-122 249.1669,-122 249.1669,-86 330.8331,-86 330.8331,-122"/>
<text text-anchor="middle" x="290" y="-99.8" font-family="Times,serif" font-size="14.00" fill="#000000">SdkModule</text>
</g>
<!-- SdkModule&#45;&gt;FilesModule -->
<g id="edge8" class="edge">
<title>SdkModule&#45;&gt;FilesModule</title>
<path fill="none" stroke="#000000" d="M324.625,-122.027C324.625,-138.3976 324.625,-160 324.625,-160 324.625,-160 556.6577,-160 556.6577,-160"/>
<polygon fill="#000000" stroke="#000000" points="556.6577,-163.5001 566.6577,-160 556.6576,-156.5001 556.6577,-163.5001"/>
</g>
<!-- UiModule -->
<g id="node10" class="node">
<title>UiModule</title>
<polygon fill="#8dd3c7" stroke="#000000" points="231.5484,-122 228.5484,-126 207.5484,-126 204.5484,-122 158.4516,-122 158.4516,-86 231.5484,-86 231.5484,-122"/>
<text text-anchor="middle" x="195" y="-99.8" font-family="Times,serif" font-size="14.00" fill="#000000">UiModule</text>
</g>
<!-- UiModule&#45;&gt;FilesModule -->
<g id="edge9" class="edge">
<title>UiModule&#45;&gt;FilesModule</title>
<path fill="none" stroke="#000000" d="M203.3757,-122.302C203.3757,-140.2699 203.3757,-165 203.3757,-165 203.3757,-165 556.4841,-165 556.4841,-165"/>
<polygon fill="#000000" stroke="#000000" points="556.4841,-168.5001 566.4841,-165 556.484,-161.5001 556.4841,-168.5001"/>
</g>
<!-- FileService -->
<g id="node18" class="node">
<title>FileService</title>
<ellipse fill="#fdb462" stroke="#000000" cx="79" cy="-104" rx="55.0285" ry="18"/>
<text text-anchor="middle" x="79" y="-99.8" font-family="Times,serif" font-size="14.00" fill="#000000">FileService</text>
</g>
<!-- FileService&#45;&gt;FilesModule -->
<g id="edge17" class="edge">
<title>FileService&#45;&gt;FilesModule</title>
<path fill="none" stroke="#000000" d="M79,-122.1061C79,-141.3391 79,-169 79,-169 79,-169 556.546,-169 556.546,-169"/>
<polygon fill="#000000" stroke="#000000" points="556.5461,-172.5001 566.546,-169 556.546,-165.5001 556.5461,-172.5001"/>
</g>
</g>
</svg>
