<?xml version="1.0" encoding="UTF-8" standalone="no"?>
<!DOCTYPE svg PUBLIC "-//W3C//DTD SVG 1.1//EN"
 "http://www.w3.org/Graphics/SVG/1.1/DTD/svg11.dtd">
<!-- Generated by graphviz version 2.40.1 (20161225.0304)
 -->
<!-- Title: dependencies Pages: 1 -->
<svg width="990pt" height="284pt"
 viewBox="0.00 0.00 990.00 284.00" xmlns="http://www.w3.org/2000/svg" xmlns:xlink="http://www.w3.org/1999/xlink">
<g id="graph0" class="graph" transform="scale(1 1) rotate(0) translate(4 280)">
<title>dependencies</title>
<polygon fill="#ffffff" stroke="transparent" points="-4,4 -4,-280 986,-280 986,4 -4,4"/>
<text text-anchor="start" x="470.0091" y="-42.4" font-family="sans-serif" font-weight="bold" font-size="14.00" fill="#000000">Legend</text>
<polygon fill="#ffffb3" stroke="transparent" points="257,-10 257,-30 277,-30 277,-10 257,-10"/>
<text text-anchor="start" x="280.629" y="-15.4" font-family="sans-serif" font-size="14.00" fill="#000000"> &#160;Declarations</text>
<polygon fill="#8dd3c7" stroke="transparent" points="370,-10 370,-30 390,-30 390,-10 370,-10"/>
<text text-anchor="start" x="393.7251" y="-15.4" font-family="sans-serif" font-size="14.00" fill="#000000"> &#160;Module</text>
<polygon fill="#80b1d3" stroke="transparent" points="456,-10 456,-30 476,-30 476,-10 456,-10"/>
<text text-anchor="start" x="479.7812" y="-15.4" font-family="sans-serif" font-size="14.00" fill="#000000"> &#160;Bootstrap</text>
<polygon fill="#fdb462" stroke="transparent" points="553,-10 553,-30 573,-30 573,-10 553,-10"/>
<text text-anchor="start" x="576.6732" y="-15.4" font-family="sans-serif" font-size="14.00" fill="#000000"> &#160;Providers</text>
<polygon fill="#fb8072" stroke="transparent" points="649,-10 649,-30 669,-30 669,-10 649,-10"/>
<text text-anchor="start" x="672.7258" y="-15.4" font-family="sans-serif" font-size="14.00" fill="#000000"> &#160;Exports</text>
<g id="clust1" class="cluster">
<title>cluster_FilesModule</title>
<polygon fill="none" stroke="#000000" stroke-dasharray="1,5" points="8,-70 8,-268 974,-268 974,-70 8,-70"/>
</g>
<g id="clust2" class="cluster">
<title>cluster_FilesModule_declarations</title>
<polygon fill="none" stroke="#000000" points="352,-78 352,-130 966,-130 966,-78 352,-78"/>
</g>
<g id="clust7" class="cluster">
<title>cluster_FilesModule_imports</title>
<polygon fill="none" stroke="#000000" points="150,-78 150,-130 344,-130 344,-78 150,-78"/>
</g>
<g id="clust8" class="cluster">
<title>cluster_FilesModule_exports</title>
<polygon fill="none" stroke="#000000" points="113,-208 113,-260 743,-260 743,-208 113,-208"/>
</g>
<g id="clust10" class="cluster">
<title>cluster_FilesModule_providers</title>
<polygon fill="none" stroke="#000000" points="16,-78 16,-130 142,-130 142,-78 16,-78"/>
</g>
<!-- AssetListComponent -->
<g id="node1" class="node">
<title>AssetListComponent</title>
<polygon fill="#ffffb3" stroke="#000000" points="958.212,-122 823.788,-122 823.788,-86 958.212,-86 958.212,-122"/>
<text text-anchor="middle" x="891" y="-99.8" font-family="Times,serif" font-size="14.00" fill="#000000">AssetListComponent</text>
</g>
<!-- FilesModule -->
<g id="node5" class="node">
<title>FilesModule</title>
<polygon fill="#8dd3c7" stroke="#000000" points="464.2731,-187 461.2731,-191 440.2731,-191 437.2731,-187 377.7269,-187 377.7269,-151 464.2731,-151 464.2731,-187"/>
<text text-anchor="middle" x="421" y="-164.8" font-family="Times,serif" font-size="14.00" fill="#000000">FilesModule</text>
</g>
<!-- AssetListComponent&#45;&gt;FilesModule -->
<g id="edge1" class="edge">
<title>AssetListComponent&#45;&gt;FilesModule</title>
<path fill="none" stroke="#000000" d="M891,-122.1289C891,-142.5724 891,-173 891,-173 891,-173 474.374,-173 474.374,-173"/>
<polygon fill="#000000" stroke="#000000" points="474.3741,-169.5001 464.374,-173 474.374,-176.5001 474.3741,-169.5001"/>
</g>
<!-- AssetSelectComponent -->
<g id="node2" class="node">
<title>AssetSelectComponent</title>
<polygon fill="#ffffb3" stroke="#000000" points="806.1414,-122 659.8586,-122 659.8586,-86 806.1414,-86 806.1414,-122"/>
<text text-anchor="middle" x="733" y="-99.8" font-family="Times,serif" font-size="14.00" fill="#000000">AssetSelectComponent</text>
</g>
<!-- AssetSelectComponent&#45;&gt;FilesModule -->
<g id="edge2" class="edge">
<title>AssetSelectComponent&#45;&gt;FilesModule</title>
<path fill="none" stroke="#000000" d="M697.2677,-122.2667C697.2677,-140.5552 697.2677,-166 697.2677,-166 697.2677,-166 474.4707,-166 474.4707,-166"/>
<polygon fill="#000000" stroke="#000000" points="474.4708,-162.5001 464.4707,-166 474.4707,-169.5001 474.4708,-162.5001"/>
</g>
<!-- AssetInputComponent -->
<g id="node3" class="node">
<title>AssetInputComponent</title>
<polygon fill="#ffffb3" stroke="#000000" points="641.9846,-122 500.0154,-122 500.0154,-86 641.9846,-86 641.9846,-122"/>
<text text-anchor="middle" x="571" y="-99.8" font-family="Times,serif" font-size="14.00" fill="#000000">AssetInputComponent</text>
</g>
<!-- AssetInputComponent&#45;&gt;FilesModule -->
<g id="edge3" class="edge">
<title>AssetInputComponent&#45;&gt;FilesModule</title>
<path fill="none" stroke="#000000" d="M539.5391,-122.0091C539.5391,-138.0494 539.5391,-159 539.5391,-159 539.5391,-159 474.4665,-159 474.4665,-159"/>
<polygon fill="#000000" stroke="#000000" points="474.4665,-155.5001 464.4665,-159 474.4665,-162.5001 474.4665,-155.5001"/>
</g>
<!-- UploadComponent -->
<g id="node4" class="node">
<title>UploadComponent</title>
<polygon fill="#ffffb3" stroke="#000000" points="482.045,-122 359.955,-122 359.955,-86 482.045,-86 482.045,-122"/>
<text text-anchor="middle" x="421" y="-99.8" font-family="Times,serif" font-size="14.00" fill="#000000">UploadComponent</text>
</g>
<!-- UploadComponent&#45;&gt;FilesModule -->
<g id="edge4" class="edge">
<title>UploadComponent&#45;&gt;FilesModule</title>
<path fill="none" stroke="#000000" d="M421,-122.1061C421,-122.1061 421,-140.991 421,-140.991"/>
<polygon fill="#000000" stroke="#000000" points="417.5001,-140.9909 421,-150.991 424.5001,-140.991 417.5001,-140.9909"/>
</g>
<!-- AssetListComponent  -->
<g id="node8" class="node">
<title>AssetListComponent </title>
<polygon fill="#fb8072" stroke="#000000" points="734.7121,-252 597.2879,-252 597.2879,-216 734.7121,-216 734.7121,-252"/>
<text text-anchor="middle" x="666" y="-229.8" font-family="Times,serif" font-size="14.00" fill="#000000">AssetListComponent </text>
</g>
<!-- FilesModule&#45;&gt;AssetListComponent  -->
<g id="edge7" class="edge">
<title>FilesModule&#45;&gt;AssetListComponent </title>
<path fill="none" stroke="#000000" stroke-dasharray="5,2" d="M464.5766,-180C523.0284,-180 619.5682,-180 619.5682,-180 619.5682,-180 619.5682,-205.7181 619.5682,-205.7181"/>
<polygon fill="#000000" stroke="#000000" points="616.0683,-205.718 619.5682,-215.7181 623.0683,-205.7181 616.0683,-205.718"/>
</g>
<!-- AssetSelectComponent  -->
<g id="node9" class="node">
<title>AssetSelectComponent </title>
<polygon fill="#fb8072" stroke="#000000" points="579.1411,-252 428.8589,-252 428.8589,-216 579.1411,-216 579.1411,-252"/>
<text text-anchor="middle" x="504" y="-229.8" font-family="Times,serif" font-size="14.00" fill="#000000">AssetSelectComponent </text>
</g>
<!-- FilesModule&#45;&gt;AssetSelectComponent  -->
<g id="edge8" class="edge">
<title>FilesModule&#45;&gt;AssetSelectComponent </title>
<path fill="none" stroke="#000000" stroke-dasharray="5,2" d="M446.658,-187.1061C446.658,-187.1061 446.658,-205.991 446.658,-205.991"/>
<polygon fill="#000000" stroke="#000000" points="443.158,-205.9909 446.658,-215.991 450.158,-205.991 443.158,-205.9909"/>
</g>
<!-- AssetInputComponent  -->
<g id="node10" class="node">
<title>AssetInputComponent </title>
<polygon fill="#fb8072" stroke="#000000" points="410.9854,-252 265.0146,-252 265.0146,-216 410.9854,-216 410.9854,-252"/>
<text text-anchor="middle" x="338" y="-229.8" font-family="Times,serif" font-size="14.00" fill="#000000">AssetInputComponent </text>
</g>
<!-- FilesModule&#45;&gt;AssetInputComponent  -->
<g id="edge9" class="edge">
<title>FilesModule&#45;&gt;AssetInputComponent </title>
<path fill="none" stroke="#000000" stroke-dasharray="5,2" d="M394.178,-187.1061C394.178,-187.1061 394.178,-205.991 394.178,-205.991"/>
<polygon fill="#000000" stroke="#000000" points="390.678,-205.9909 394.178,-215.991 397.678,-205.991 390.678,-205.9909"/>
</g>
<!-- UploadComponent  -->
<g id="node11" class="node">
<title>UploadComponent </title>
<polygon fill="#fb8072" stroke="#000000" points="247.0442,-252 120.9558,-252 120.9558,-216 247.0442,-216 247.0442,-252"/>
<text text-anchor="middle" x="184" y="-229.8" font-family="Times,serif" font-size="14.00" fill="#000000">UploadComponent </text>
</g>
<!-- FilesModule&#45;&gt;UploadComponent  -->
<g id="edge10" class="edge">
<title>FilesModule&#45;&gt;UploadComponent </title>
<path fill="none" stroke="#000000" stroke-dasharray="5,2" d="M377.4736,-180C309.7073,-180 186.6706,-180 186.6706,-180 186.6706,-180 186.6706,-205.7181 186.6706,-205.7181"/>
<polygon fill="#000000" stroke="#000000" points="183.1707,-205.718 186.6706,-215.7181 190.1707,-205.7181 183.1707,-205.718"/>
</g>
<!-- UiModule -->
<g id="node6" class="node">
<title>UiModule</title>
<polygon fill="#8dd3c7" stroke="#000000" points="335.5484,-122 332.5484,-126 311.5484,-126 308.5484,-122 262.4516,-122 262.4516,-86 335.5484,-86 335.5484,-122"/>
<text text-anchor="middle" x="299" y="-99.8" font-family="Times,serif" font-size="14.00" fill="#000000">UiModule</text>
</g>
<!-- UiModule&#45;&gt;FilesModule -->
<g id="edge5" class="edge">
<title>UiModule&#45;&gt;FilesModule</title>
<path fill="none" stroke="#000000" d="M300.5156,-122.0091C300.5156,-138.0494 300.5156,-159 300.5156,-159 300.5156,-159 367.5024,-159 367.5024,-159"/>
<polygon fill="#000000" stroke="#000000" points="367.5024,-162.5001 377.5024,-159 367.5023,-155.5001 367.5024,-162.5001"/>
</g>
<!-- DataModule -->
<g id="node7" class="node">
<title>DataModule</title>
<polygon fill="#8dd3c7" stroke="#000000" points="243.9762,-122 240.9762,-126 219.9762,-126 216.9762,-122 158.0238,-122 158.0238,-86 243.9762,-86 243.9762,-122"/>
<text text-anchor="middle" x="201" y="-99.8" font-family="Times,serif" font-size="14.00" fill="#000000">DataModule</text>
</g>
<!-- DataModule&#45;&gt;FilesModule -->
<g id="edge6" class="edge">
<title>DataModule&#45;&gt;FilesModule</title>
<path fill="none" stroke="#000000" d="M215.3294,-122.2667C215.3294,-140.5552 215.3294,-166 215.3294,-166 215.3294,-166 367.6339,-166 367.6339,-166"/>
<polygon fill="#000000" stroke="#000000" points="367.6339,-169.5001 377.6339,-166 367.6338,-162.5001 367.6339,-169.5001"/>
</g>
<!-- FileService -->
<g id="node12" class="node">
<title>FileService</title>
<ellipse fill="#fdb462" stroke="#000000" cx="79" cy="-104" rx="55.0285" ry="18"/>
<text text-anchor="middle" x="79" y="-99.8" font-family="Times,serif" font-size="14.00" fill="#000000">FileService</text>
</g>
<!-- FileService&#45;&gt;FilesModule -->
<g id="edge11" class="edge">
<title>FileService&#45;&gt;FilesModule</title>
<path fill="none" stroke="#000000" d="M127.4961,-112.7389C127.4961,-131.3058 127.4961,-173 127.4961,-173 127.4961,-173 367.6925,-173 367.6925,-173"/>
<polygon fill="#000000" stroke="#000000" points="367.6925,-176.5001 377.6925,-173 367.6924,-169.5001 367.6925,-176.5001"/>
</g>
</g>
</svg>
