<?xml version="1.0" encoding="UTF-8" standalone="no"?>
<!DOCTYPE svg PUBLIC "-//W3C//DTD SVG 1.1//EN"
 "http://www.w3.org/Graphics/SVG/1.1/DTD/svg11.dtd">
<!-- Generated by graphviz version 2.40.1 (20161225.0304)
 -->
<!-- Title: dependencies Pages: 1 -->
<svg width="850pt" height="284pt"
 viewBox="0.00 0.00 850.00 284.00" xmlns="http://www.w3.org/2000/svg" xmlns:xlink="http://www.w3.org/1999/xlink">
<g id="graph0" class="graph" transform="scale(1 1) rotate(0) translate(4 280)">
<title>dependencies</title>
<polygon fill="#ffffff" stroke="transparent" points="-4,4 -4,-280 846,-280 846,4 -4,4"/>
<text text-anchor="start" x="400.0091" y="-42.4" font-family="sans-serif" font-weight="bold" font-size="14.00" fill="#000000">Legend</text>
<polygon fill="#ffffb3" stroke="transparent" points="187,-10 187,-30 207,-30 207,-10 187,-10"/>
<text text-anchor="start" x="210.629" y="-15.4" font-family="sans-serif" font-size="14.00" fill="#000000"> &#160;Declarations</text>
<polygon fill="#8dd3c7" stroke="transparent" points="300,-10 300,-30 320,-30 320,-10 300,-10"/>
<text text-anchor="start" x="323.7251" y="-15.4" font-family="sans-serif" font-size="14.00" fill="#000000"> &#160;Module</text>
<polygon fill="#80b1d3" stroke="transparent" points="386,-10 386,-30 406,-30 406,-10 386,-10"/>
<text text-anchor="start" x="409.7812" y="-15.4" font-family="sans-serif" font-size="14.00" fill="#000000"> &#160;Bootstrap</text>
<polygon fill="#fdb462" stroke="transparent" points="483,-10 483,-30 503,-30 503,-10 483,-10"/>
<text text-anchor="start" x="506.6732" y="-15.4" font-family="sans-serif" font-size="14.00" fill="#000000"> &#160;Providers</text>
<polygon fill="#fb8072" stroke="transparent" points="579,-10 579,-30 599,-30 599,-10 579,-10"/>
<text text-anchor="start" x="602.7258" y="-15.4" font-family="sans-serif" font-size="14.00" fill="#000000"> &#160;Exports</text>
<g id="clust1" class="cluster">
<title>cluster_FilesModule</title>
<polygon fill="none" stroke="#000000" stroke-dasharray="1,5" points="8,-70 8,-268 834,-268 834,-70 8,-70"/>
</g>
<g id="clust2" class="cluster">
<title>cluster_FilesModule_declarations</title>
<polygon fill="none" stroke="#000000" points="352,-78 352,-130 826,-130 826,-78 352,-78"/>
</g>
<g id="clust6" class="cluster">
<title>cluster_FilesModule_imports</title>
<polygon fill="none" stroke="#000000" points="150,-78 150,-130 344,-130 344,-78 150,-78"/>
</g>
<g id="clust7" class="cluster">
<title>cluster_FilesModule_exports</title>
<polygon fill="none" stroke="#000000" points="118,-208 118,-260 604,-260 604,-208 118,-208"/>
</g>
<g id="clust9" class="cluster">
<title>cluster_FilesModule_providers</title>
<polygon fill="none" stroke="#000000" points="16,-78 16,-130 142,-130 142,-78 16,-78"/>
</g>
<!-- AssetListComponent -->
<g id="node1" class="node">
<title>AssetListComponent</title>
<polygon fill="#ffffb3" stroke="#000000" points="818.212,-122 683.788,-122 683.788,-86 818.212,-86 818.212,-122"/>
<text text-anchor="middle" x="751" y="-99.8" font-family="Times,serif" font-size="14.00" fill="#000000">AssetListComponent</text>
</g>
<!-- FilesModule -->
<g id="node4" class="node">
<title>FilesModule</title>
<polygon fill="#8dd3c7" stroke="#000000" points="408.2731,-187 405.2731,-191 384.2731,-191 381.2731,-187 321.7269,-187 321.7269,-151 408.2731,-151 408.2731,-187"/>
<text text-anchor="middle" x="365" y="-164.8" font-family="Times,serif" font-size="14.00" fill="#000000">FilesModule</text>
</g>
<!-- AssetListComponent&#45;&gt;FilesModule -->
<g id="edge1" class="edge">
<title>AssetListComponent&#45;&gt;FilesModule</title>
<path fill="none" stroke="#000000" d="M751,-122.1061C751,-141.3391 751,-169 751,-169 751,-169 418.5288,-169 418.5288,-169"/>
<polygon fill="#000000" stroke="#000000" points="418.5288,-165.5001 408.5288,-169 418.5287,-172.5001 418.5288,-165.5001"/>
</g>
<!-- AssetSelectComponent -->
<g id="node2" class="node">
<title>AssetSelectComponent</title>
<polygon fill="#ffffb3" stroke="#000000" points="666.1414,-122 519.8586,-122 519.8586,-86 666.1414,-86 666.1414,-122"/>
<text text-anchor="middle" x="593" y="-99.8" font-family="Times,serif" font-size="14.00" fill="#000000">AssetSelectComponent</text>
</g>
<!-- AssetSelectComponent&#45;&gt;FilesModule -->
<g id="edge2" class="edge">
<title>AssetSelectComponent&#45;&gt;FilesModule</title>
<path fill="none" stroke="#000000" d="M557.7677,-122.027C557.7677,-138.3976 557.7677,-160 557.7677,-160 557.7677,-160 418.742,-160 418.742,-160"/>
<polygon fill="#000000" stroke="#000000" points="418.742,-156.5001 408.742,-160 418.7419,-163.5001 418.742,-156.5001"/>
</g>
<!-- AssetInputComponent -->
<g id="node3" class="node">
<title>AssetInputComponent</title>
<polygon fill="#ffffb3" stroke="#000000" points="501.9846,-122 360.0154,-122 360.0154,-86 501.9846,-86 501.9846,-122"/>
<text text-anchor="middle" x="431" y="-99.8" font-family="Times,serif" font-size="14.00" fill="#000000">AssetInputComponent</text>
</g>
<!-- AssetInputComponent&#45;&gt;FilesModule -->
<g id="edge3" class="edge">
<title>AssetInputComponent&#45;&gt;FilesModule</title>
<path fill="none" stroke="#000000" d="M384.1971,-122.1061C384.1971,-122.1061 384.1971,-140.991 384.1971,-140.991"/>
<polygon fill="#000000" stroke="#000000" points="380.6971,-140.9909 384.1971,-150.991 387.6971,-140.991 380.6971,-140.9909"/>
</g>
<!-- AssetListComponent  -->
<g id="node7" class="node">
<title>AssetListComponent </title>
<polygon fill="#fb8072" stroke="#000000" points="595.7121,-252 458.2879,-252 458.2879,-216 595.7121,-216 595.7121,-252"/>
<text text-anchor="middle" x="527" y="-229.8" font-family="Times,serif" font-size="14.00" fill="#000000">AssetListComponent </text>
</g>
<!-- FilesModule&#45;&gt;AssetListComponent  -->
<g id="edge6" class="edge">
<title>FilesModule&#45;&gt;AssetListComponent </title>
<path fill="none" stroke="#000000" stroke-dasharray="5,2" d="M408.5024,-178C441.0877,-178 480.0682,-178 480.0682,-178 480.0682,-178 480.0682,-205.973 480.0682,-205.973"/>
<polygon fill="#000000" stroke="#000000" points="476.5683,-205.973 480.0682,-215.973 483.5683,-205.973 476.5683,-205.973"/>
</g>
<!-- AssetSelectComponent  -->
<g id="node8" class="node">
<title>AssetSelectComponent </title>
<polygon fill="#fb8072" stroke="#000000" points="440.1411,-252 289.8589,-252 289.8589,-216 440.1411,-216 440.1411,-252"/>
<text text-anchor="middle" x="365" y="-229.8" font-family="Times,serif" font-size="14.00" fill="#000000">AssetSelectComponent </text>
</g>
<!-- FilesModule&#45;&gt;AssetSelectComponent  -->
<g id="edge7" class="edge">
<title>FilesModule&#45;&gt;AssetSelectComponent </title>
<path fill="none" stroke="#000000" stroke-dasharray="5,2" d="M365,-187.1061C365,-187.1061 365,-205.991 365,-205.991"/>
<polygon fill="#000000" stroke="#000000" points="361.5001,-205.9909 365,-215.991 368.5001,-205.991 361.5001,-205.9909"/>
</g>
<!-- AssetInputComponent  -->
<g id="node9" class="node">
<title>AssetInputComponent </title>
<polygon fill="#fb8072" stroke="#000000" points="271.9854,-252 126.0146,-252 126.0146,-216 271.9854,-216 271.9854,-252"/>
<text text-anchor="middle" x="199" y="-229.8" font-family="Times,serif" font-size="14.00" fill="#000000">AssetInputComponent </text>
</g>
<!-- FilesModule&#45;&gt;AssetInputComponent  -->
<g id="edge8" class="edge">
<title>FilesModule&#45;&gt;AssetInputComponent </title>
<path fill="none" stroke="#000000" stroke-dasharray="5,2" d="M321.7236,-178C295.4666,-178 266.9844,-178 266.9844,-178 266.9844,-178 266.9844,-205.973 266.9844,-205.973"/>
<polygon fill="#000000" stroke="#000000" points="263.4845,-205.973 266.9844,-215.973 270.4845,-205.973 263.4845,-205.973"/>
</g>
<!-- UiModule -->
<g id="node5" class="node">
<title>UiModule</title>
<polygon fill="#8dd3c7" stroke="#000000" points="335.5484,-122 332.5484,-126 311.5484,-126 308.5484,-122 262.4516,-122 262.4516,-86 335.5484,-86 335.5484,-122"/>
<text text-anchor="middle" x="299" y="-99.8" font-family="Times,serif" font-size="14.00" fill="#000000">UiModule</text>
</g>
<!-- UiModule&#45;&gt;FilesModule -->
<g id="edge4" class="edge">
<title>UiModule&#45;&gt;FilesModule</title>
<path fill="none" stroke="#000000" d="M328.6936,-122.1061C328.6936,-122.1061 328.6936,-140.991 328.6936,-140.991"/>
<polygon fill="#000000" stroke="#000000" points="325.1936,-140.9909 328.6936,-150.991 332.1936,-140.991 325.1936,-140.9909"/>
</g>
<!-- DataModule -->
<g id="node6" class="node">
<title>DataModule</title>
<polygon fill="#8dd3c7" stroke="#000000" points="243.9762,-122 240.9762,-126 219.9762,-126 216.9762,-122 158.0238,-122 158.0238,-86 243.9762,-86 243.9762,-122"/>
<text text-anchor="middle" x="201" y="-99.8" font-family="Times,serif" font-size="14.00" fill="#000000">DataModule</text>
</g>
<!-- DataModule&#45;&gt;FilesModule -->
<g id="edge5" class="edge">
<title>DataModule&#45;&gt;FilesModule</title>
<path fill="none" stroke="#000000" d="M201,-122.027C201,-138.3976 201,-160 201,-160 201,-160 311.4816,-160 311.4816,-160"/>
<polygon fill="#000000" stroke="#000000" points="311.4816,-163.5001 321.4816,-160 311.4815,-156.5001 311.4816,-163.5001"/>
</g>
<!-- FileService -->
<g id="node10" class="node">
<title>FileService</title>
<ellipse fill="#fdb462" stroke="#000000" cx="79" cy="-104" rx="55.0285" ry="18"/>
<text text-anchor="middle" x="79" y="-99.8" font-family="Times,serif" font-size="14.00" fill="#000000">FileService</text>
</g>
<!-- FileService&#45;&gt;FilesModule -->
<g id="edge9" class="edge">
<title>FileService&#45;&gt;FilesModule</title>
<path fill="none" stroke="#000000" d="M130.136,-110.9561C130.136,-127.7244 130.136,-169 130.136,-169 130.136,-169 311.6486,-169 311.6486,-169"/>
<polygon fill="#000000" stroke="#000000" points="311.6486,-172.5001 321.6486,-169 311.6486,-165.5001 311.6486,-172.5001"/>
</g>
</g>
</svg>
