<?xml version="1.0" encoding="UTF-8" standalone="no"?>
<!DOCTYPE svg PUBLIC "-//W3C//DTD SVG 1.1//EN"
 "http://www.w3.org/Graphics/SVG/1.1/DTD/svg11.dtd">
<!-- Generated by graphviz version 2.40.1 (20161225.0304)
 -->
<!-- Title: dependencies Pages: 1 -->
<svg width="1367pt" height="284pt"
 viewBox="0.00 0.00 1367.00 284.00" xmlns="http://www.w3.org/2000/svg" xmlns:xlink="http://www.w3.org/1999/xlink">
<g id="graph0" class="graph" transform="scale(1 1) rotate(0) translate(4 280)">
<title>dependencies</title>
<polygon fill="#ffffff" stroke="transparent" points="-4,4 -4,-280 1363,-280 1363,4 -4,4"/>
<text text-anchor="start" x="658.5091" y="-42.4" font-family="sans-serif" font-weight="bold" font-size="14.00" fill="#000000">Legend</text>
<polygon fill="#ffffb3" stroke="transparent" points="445.5,-10 445.5,-30 465.5,-30 465.5,-10 445.5,-10"/>
<text text-anchor="start" x="469.129" y="-15.4" font-family="sans-serif" font-size="14.00" fill="#000000"> &#160;Declarations</text>
<polygon fill="#8dd3c7" stroke="transparent" points="558.5,-10 558.5,-30 578.5,-30 578.5,-10 558.5,-10"/>
<text text-anchor="start" x="582.2251" y="-15.4" font-family="sans-serif" font-size="14.00" fill="#000000"> &#160;Module</text>
<polygon fill="#80b1d3" stroke="transparent" points="644.5,-10 644.5,-30 664.5,-30 664.5,-10 644.5,-10"/>
<text text-anchor="start" x="668.2812" y="-15.4" font-family="sans-serif" font-size="14.00" fill="#000000"> &#160;Bootstrap</text>
<polygon fill="#fdb462" stroke="transparent" points="741.5,-10 741.5,-30 761.5,-30 761.5,-10 741.5,-10"/>
<text text-anchor="start" x="765.1732" y="-15.4" font-family="sans-serif" font-size="14.00" fill="#000000"> &#160;Providers</text>
<polygon fill="#fb8072" stroke="transparent" points="837.5,-10 837.5,-30 857.5,-30 857.5,-10 837.5,-10"/>
<text text-anchor="start" x="861.2258" y="-15.4" font-family="sans-serif" font-size="14.00" fill="#000000"> &#160;Exports</text>
<g id="clust1" class="cluster">
<title>cluster_FilesModule</title>
<polygon fill="none" stroke="#000000" stroke-dasharray="1,5" points="8,-70 8,-268 1351,-268 1351,-70 8,-70"/>
</g>
<g id="clust2" class="cluster">
<title>cluster_FilesModule_declarations</title>
<polygon fill="none" stroke="#000000" points="476,-78 476,-130 1343,-130 1343,-78 476,-78"/>
</g>
<g id="clust9" class="cluster">
<title>cluster_FilesModule_imports</title>
<polygon fill="none" stroke="#000000" points="150,-78 150,-130 468,-130 468,-78 150,-78"/>
</g>
<g id="clust10" class="cluster">
<title>cluster_FilesModule_exports</title>
<polygon fill="none" stroke="#000000" points="180,-208 180,-260 1171,-260 1171,-208 180,-208"/>
</g>
<g id="clust12" class="cluster">
<title>cluster_FilesModule_providers</title>
<polygon fill="none" stroke="#000000" points="16,-78 16,-130 142,-130 142,-78 16,-78"/>
</g>
<!-- AssetListComponent -->
<g id="node1" class="node">
<title>AssetListComponent</title>
<polygon fill="#ffffb3" stroke="#000000" points="1335.212,-122 1200.788,-122 1200.788,-86 1335.212,-86 1335.212,-122"/>
<text text-anchor="middle" x="1268" y="-99.8" font-family="Times,serif" font-size="14.00" fill="#000000">AssetListComponent</text>
</g>
<!-- FilesModule -->
<g id="node7" class="node">
<title>FilesModule</title>
<polygon fill="#8dd3c7" stroke="#000000" points="653.2731,-187 650.2731,-191 629.2731,-191 626.2731,-187 566.7269,-187 566.7269,-151 653.2731,-151 653.2731,-187"/>
<text text-anchor="middle" x="610" y="-164.8" font-family="Times,serif" font-size="14.00" fill="#000000">FilesModule</text>
</g>
<!-- AssetListComponent&#45;&gt;FilesModule -->
<g id="edge1" class="edge">
<title>AssetListComponent&#45;&gt;FilesModule</title>
<path fill="none" stroke="#000000" d="M1268,-122.1061C1268,-141.3391 1268,-169 1268,-169 1268,-169 663.4277,-169 663.4277,-169"/>
<polygon fill="#000000" stroke="#000000" points="663.4277,-165.5001 653.4277,-169 663.4277,-172.5001 663.4277,-165.5001"/>
</g>
<!-- AssetListPopComponent -->
<g id="node2" class="node">
<title>AssetListPopComponent</title>
<polygon fill="#ffffb3" stroke="#000000" points="1182.9944,-122 1027.0056,-122 1027.0056,-86 1182.9944,-86 1182.9944,-122"/>
<text text-anchor="middle" x="1105" y="-99.8" font-family="Times,serif" font-size="14.00" fill="#000000">AssetListPopComponent</text>
</g>
<!-- AssetListPopComponent&#45;&gt;FilesModule -->
<g id="edge2" class="edge">
<title>AssetListPopComponent&#45;&gt;FilesModule</title>
<path fill="none" stroke="#000000" d="M1072.2872,-122.302C1072.2872,-140.2699 1072.2872,-165 1072.2872,-165 1072.2872,-165 663.4909,-165 663.4909,-165"/>
<polygon fill="#000000" stroke="#000000" points="663.4909,-161.5001 653.4909,-165 663.4908,-168.5001 663.4909,-161.5001"/>
</g>
<!-- AssetSelectComponent -->
<g id="node3" class="node">
<title>AssetSelectComponent</title>
<polygon fill="#ffffb3" stroke="#000000" points="1009.1414,-122 862.8586,-122 862.8586,-86 1009.1414,-86 1009.1414,-122"/>
<text text-anchor="middle" x="936" y="-99.8" font-family="Times,serif" font-size="14.00" fill="#000000">AssetSelectComponent</text>
</g>
<!-- AssetSelectComponent&#45;&gt;FilesModule -->
<g id="edge3" class="edge">
<title>AssetSelectComponent&#45;&gt;FilesModule</title>
<path fill="none" stroke="#000000" d="M934.7134,-122.027C934.7134,-138.3976 934.7134,-160 934.7134,-160 934.7134,-160 663.4554,-160 663.4554,-160"/>
<polygon fill="#000000" stroke="#000000" points="663.4554,-156.5001 653.4554,-160 663.4553,-163.5001 663.4554,-156.5001"/>
</g>
<!-- AssetDirective -->
<g id="node4" class="node">
<title>AssetDirective</title>
<polygon fill="#ffffb3" stroke="#000000" points="844.684,-122 745.316,-122 745.316,-86 844.684,-86 844.684,-122"/>
<text text-anchor="middle" x="795" y="-99.8" font-family="Times,serif" font-size="14.00" fill="#000000">AssetDirective</text>
</g>
<!-- AssetDirective&#45;&gt;FilesModule -->
<g id="edge4" class="edge">
<title>AssetDirective&#45;&gt;FilesModule</title>
<path fill="none" stroke="#000000" d="M787.2393,-122.1871C787.2393,-137.1824 787.2393,-156 787.2393,-156 787.2393,-156 663.3576,-156 663.3576,-156"/>
<polygon fill="#000000" stroke="#000000" points="663.3576,-152.5001 653.3576,-156 663.3576,-159.5001 663.3576,-152.5001"/>
</g>
<!-- ImageDirective -->
<g id="node5" class="node">
<title>ImageDirective</title>
<polygon fill="#ffffb3" stroke="#000000" points="727.5632,-122 624.4368,-122 624.4368,-86 727.5632,-86 727.5632,-122"/>
<text text-anchor="middle" x="676" y="-99.8" font-family="Times,serif" font-size="14.00" fill="#000000">ImageDirective</text>
</g>
<!-- ImageDirective&#45;&gt;FilesModule -->
<g id="edge5" class="edge">
<title>ImageDirective&#45;&gt;FilesModule</title>
<path fill="none" stroke="#000000" d="M638.9274,-122.1061C638.9274,-122.1061 638.9274,-140.991 638.9274,-140.991"/>
<polygon fill="#000000" stroke="#000000" points="635.4275,-140.9909 638.9274,-150.991 642.4275,-140.991 635.4275,-140.9909"/>
</g>
<!-- UploadComponent -->
<g id="node6" class="node">
<title>UploadComponent</title>
<polygon fill="#ffffb3" stroke="#000000" points="606.045,-122 483.955,-122 483.955,-86 606.045,-86 606.045,-122"/>
<text text-anchor="middle" x="545" y="-99.8" font-family="Times,serif" font-size="14.00" fill="#000000">UploadComponent</text>
</g>
<!-- UploadComponent&#45;&gt;FilesModule -->
<g id="edge6" class="edge">
<title>UploadComponent&#45;&gt;FilesModule</title>
<path fill="none" stroke="#000000" d="M586.4429,-122.1061C586.4429,-122.1061 586.4429,-140.991 586.4429,-140.991"/>
<polygon fill="#000000" stroke="#000000" points="582.9429,-140.9909 586.4429,-150.991 589.9429,-140.991 582.9429,-140.9909"/>
</g>
<!-- AssetListComponent  -->
<g id="node11" class="node">
<title>AssetListComponent </title>
<polygon fill="#fb8072" stroke="#000000" points="1162.7121,-252 1025.2879,-252 1025.2879,-216 1162.7121,-216 1162.7121,-252"/>
<text text-anchor="middle" x="1094" y="-229.8" font-family="Times,serif" font-size="14.00" fill="#000000">AssetListComponent </text>
</g>
<!-- FilesModule&#45;&gt;AssetListComponent  -->
<g id="edge10" class="edge">
<title>FilesModule&#45;&gt;AssetListComponent </title>
<path fill="none" stroke="#000000" stroke-dasharray="5,2" d="M653.2753,-174C776.0203,-174 1117.5715,-174 1117.5715,-174 1117.5715,-174 1117.5715,-205.998 1117.5715,-205.998"/>
<polygon fill="#000000" stroke="#000000" points="1114.0716,-205.998 1117.5715,-215.998 1121.0716,-205.9981 1114.0716,-205.998"/>
</g>
<!-- AssetListPopComponent  -->
<g id="node12" class="node">
<title>AssetListPopComponent </title>
<polygon fill="#fb8072" stroke="#000000" points="1006.9952,-252 847.0048,-252 847.0048,-216 1006.9952,-216 1006.9952,-252"/>
<text text-anchor="middle" x="927" y="-229.8" font-family="Times,serif" font-size="14.00" fill="#000000">AssetListPopComponent </text>
</g>
<!-- FilesModule&#45;&gt;AssetListPopComponent  -->
<g id="edge11" class="edge">
<title>FilesModule&#45;&gt;AssetListPopComponent </title>
<path fill="none" stroke="#000000" stroke-dasharray="5,2" d="M653.5128,-178C723.9063,-178 854.9662,-178 854.9662,-178 854.9662,-178 854.9662,-205.973 854.9662,-205.973"/>
<polygon fill="#000000" stroke="#000000" points="851.4662,-205.973 854.9662,-215.973 858.4662,-205.973 851.4662,-205.973"/>
</g>
<!-- AssetSelectComponent  -->
<g id="node13" class="node">
<title>AssetSelectComponent </title>
<polygon fill="#fb8072" stroke="#000000" points="829.1411,-252 678.8589,-252 678.8589,-216 829.1411,-216 829.1411,-252"/>
<text text-anchor="middle" x="754" y="-229.8" font-family="Times,serif" font-size="14.00" fill="#000000">AssetSelectComponent </text>
</g>
<!-- FilesModule&#45;&gt;AssetSelectComponent  -->
<g id="edge12" class="edge">
<title>FilesModule&#45;&gt;AssetSelectComponent </title>
<path fill="none" stroke="#000000" stroke-dasharray="5,2" d="M653.34,-183C677.6866,-183 703.2306,-183 703.2306,-183 703.2306,-183 703.2306,-205.8757 703.2306,-205.8757"/>
<polygon fill="#000000" stroke="#000000" points="699.7306,-205.8757 703.2306,-215.8757 706.7306,-205.8757 699.7306,-205.8757"/>
</g>
<!-- AssetDirective  -->
<g id="node14" class="node">
<title>AssetDirective </title>
<polygon fill="#fb8072" stroke="#000000" points="661.1843,-252 558.8157,-252 558.8157,-216 661.1843,-216 661.1843,-252"/>
<text text-anchor="middle" x="610" y="-229.8" font-family="Times,serif" font-size="14.00" fill="#000000">AssetDirective </text>
</g>
<!-- FilesModule&#45;&gt;AssetDirective  -->
<g id="edge13" class="edge">
<title>FilesModule&#45;&gt;AssetDirective </title>
<path fill="none" stroke="#000000" stroke-dasharray="5,2" d="M610,-187.1061C610,-187.1061 610,-205.991 610,-205.991"/>
<polygon fill="#000000" stroke="#000000" points="606.5001,-205.9909 610,-215.991 613.5001,-205.991 606.5001,-205.9909"/>
</g>
<!-- ImageDirective  -->
<g id="node15" class="node">
<title>ImageDirective </title>
<polygon fill="#fb8072" stroke="#000000" points="540.0641,-252 433.9359,-252 433.9359,-216 540.0641,-216 540.0641,-252"/>
<text text-anchor="middle" x="487" y="-229.8" font-family="Times,serif" font-size="14.00" fill="#000000">ImageDirective </text>
</g>
<!-- FilesModule&#45;&gt;ImageDirective  -->
<g id="edge14" class="edge">
<title>FilesModule&#45;&gt;ImageDirective </title>
<path fill="none" stroke="#000000" stroke-dasharray="5,2" d="M566.4472,-183C540.2751,-183 512.0048,-183 512.0048,-183 512.0048,-183 512.0048,-205.8757 512.0048,-205.8757"/>
<polygon fill="#000000" stroke="#000000" points="508.5048,-205.8757 512.0048,-215.8757 515.5048,-205.8757 508.5048,-205.8757"/>
</g>
<!-- UploadComponent  -->
<g id="node16" class="node">
<title>UploadComponent </title>
<polygon fill="#fb8072" stroke="#000000" points="416.0442,-252 289.9558,-252 289.9558,-216 416.0442,-216 416.0442,-252"/>
<text text-anchor="middle" x="353" y="-229.8" font-family="Times,serif" font-size="14.00" fill="#000000">UploadComponent </text>
</g>
<!-- FilesModule&#45;&gt;UploadComponent  -->
<g id="edge15" class="edge">
<title>FilesModule&#45;&gt;UploadComponent </title>
<path fill="none" stroke="#000000" stroke-dasharray="5,2" d="M566.7208,-178C505.5398,-178 401.1243,-178 401.1243,-178 401.1243,-178 401.1243,-205.973 401.1243,-205.973"/>
<polygon fill="#000000" stroke="#000000" points="397.6244,-205.973 401.1243,-215.973 404.6244,-205.973 397.6244,-205.973"/>
</g>
<!-- SdkModule  -->
<g id="node17" class="node">
<title>SdkModule </title>
<polygon fill="#fb8072" stroke="#000000" points="272.3326,-252 187.6674,-252 187.6674,-216 272.3326,-216 272.3326,-252"/>
<text text-anchor="middle" x="230" y="-229.8" font-family="Times,serif" font-size="14.00" fill="#000000">SdkModule </text>
</g>
<!-- FilesModule&#45;&gt;SdkModule  -->
<g id="edge16" class="edge">
<title>FilesModule&#45;&gt;SdkModule </title>
<path fill="none" stroke="#000000" stroke-dasharray="5,2" d="M566.3887,-174C469.017,-174 242.4064,-174 242.4064,-174 242.4064,-174 242.4064,-205.998 242.4064,-205.998"/>
<polygon fill="#000000" stroke="#000000" points="238.9063,-205.9981 242.4064,-215.998 245.9063,-205.998 238.9063,-205.9981"/>
</g>
<!-- UiModule -->
<g id="node8" class="node">
<title>UiModule</title>
<polygon fill="#8dd3c7" stroke="#000000" points="459.5484,-122 456.5484,-126 435.5484,-126 432.5484,-122 386.4516,-122 386.4516,-86 459.5484,-86 459.5484,-122"/>
<text text-anchor="middle" x="423" y="-99.8" font-family="Times,serif" font-size="14.00" fill="#000000">UiModule</text>
</g>
<!-- UiModule&#45;&gt;FilesModule -->
<g id="edge7" class="edge">
<title>UiModule&#45;&gt;FilesModule</title>
<path fill="none" stroke="#000000" d="M446.746,-122.1871C446.746,-137.1824 446.746,-156 446.746,-156 446.746,-156 556.6795,-156 556.6795,-156"/>
<polygon fill="#000000" stroke="#000000" points="556.6796,-159.5001 566.6795,-156 556.6795,-152.5001 556.6796,-159.5001"/>
</g>
<!-- SdkModule -->
<g id="node9" class="node">
<title>SdkModule</title>
<polygon fill="#8dd3c7" stroke="#000000" points="368.8331,-122 365.8331,-126 344.8331,-126 341.8331,-122 287.1669,-122 287.1669,-86 368.8331,-86 368.8331,-122"/>
<text text-anchor="middle" x="328" y="-99.8" font-family="Times,serif" font-size="14.00" fill="#000000">SdkModule</text>
</g>
<!-- SdkModule&#45;&gt;FilesModule -->
<g id="edge8" class="edge">
<title>SdkModule&#45;&gt;FilesModule</title>
<path fill="none" stroke="#000000" d="M329.3221,-122.027C329.3221,-138.3976 329.3221,-160 329.3221,-160 329.3221,-160 556.452,-160 556.452,-160"/>
<polygon fill="#000000" stroke="#000000" points="556.4521,-163.5001 566.452,-160 556.452,-156.5001 556.4521,-163.5001"/>
</g>
<!-- ResourceModule -->
<g id="node10" class="node">
<title>ResourceModule</title>
<polygon fill="#8dd3c7" stroke="#000000" points="269.636,-122 266.636,-126 245.636,-126 242.636,-122 158.364,-122 158.364,-86 269.636,-86 269.636,-122"/>
<text text-anchor="middle" x="214" y="-99.8" font-family="Times,serif" font-size="14.00" fill="#000000">ResourceModule</text>
</g>
<!-- ResourceModule&#45;&gt;FilesModule -->
<g id="edge9" class="edge">
<title>ResourceModule&#45;&gt;FilesModule</title>
<path fill="none" stroke="#000000" d="M214.9951,-122.302C214.9951,-140.2699 214.9951,-165 214.9951,-165 214.9951,-165 556.5976,-165 556.5976,-165"/>
<polygon fill="#000000" stroke="#000000" points="556.5977,-168.5001 566.5976,-165 556.5976,-161.5001 556.5977,-168.5001"/>
</g>
<!-- FileService -->
<g id="node18" class="node">
<title>FileService</title>
<ellipse fill="#fdb462" stroke="#000000" cx="79" cy="-104" rx="55.0285" ry="18"/>
<text text-anchor="middle" x="79" y="-99.8" font-family="Times,serif" font-size="14.00" fill="#000000">FileService</text>
</g>
<!-- FileService&#45;&gt;FilesModule -->
<g id="edge17" class="edge">
<title>FileService&#45;&gt;FilesModule</title>
<path fill="none" stroke="#000000" d="M79,-122.1061C79,-141.3391 79,-169 79,-169 79,-169 556.546,-169 556.546,-169"/>
<polygon fill="#000000" stroke="#000000" points="556.5461,-172.5001 566.546,-169 556.546,-165.5001 556.5461,-172.5001"/>
</g>
</g>
</svg>
