<?xml version="1.0" encoding="UTF-8" standalone="no"?>
<!DOCTYPE svg PUBLIC "-//W3C//DTD SVG 1.1//EN"
 "http://www.w3.org/Graphics/SVG/1.1/DTD/svg11.dtd">
<!-- Generated by graphviz version 2.40.1 (20161225.0304)
 -->
<!-- Title: dependencies Pages: 1 -->
<svg width="1356pt" height="284pt"
 viewBox="0.00 0.00 1356.00 284.00" xmlns="http://www.w3.org/2000/svg" xmlns:xlink="http://www.w3.org/1999/xlink">
<g id="graph0" class="graph" transform="scale(1 1) rotate(0) translate(4 280)">
<title>dependencies</title>
<polygon fill="#ffffff" stroke="transparent" points="-4,4 -4,-280 1352,-280 1352,4 -4,4"/>
<text text-anchor="start" x="653.0091" y="-42.4" font-family="sans-serif" font-weight="bold" font-size="14.00" fill="#000000">Legend</text>
<polygon fill="#ffffb3" stroke="transparent" points="440,-10 440,-30 460,-30 460,-10 440,-10"/>
<text text-anchor="start" x="463.629" y="-15.4" font-family="sans-serif" font-size="14.00" fill="#000000"> &#160;Declarations</text>
<polygon fill="#8dd3c7" stroke="transparent" points="553,-10 553,-30 573,-30 573,-10 553,-10"/>
<text text-anchor="start" x="576.7251" y="-15.4" font-family="sans-serif" font-size="14.00" fill="#000000"> &#160;Module</text>
<polygon fill="#80b1d3" stroke="transparent" points="639,-10 639,-30 659,-30 659,-10 639,-10"/>
<text text-anchor="start" x="662.7812" y="-15.4" font-family="sans-serif" font-size="14.00" fill="#000000"> &#160;Bootstrap</text>
<polygon fill="#fdb462" stroke="transparent" points="736,-10 736,-30 756,-30 756,-10 736,-10"/>
<text text-anchor="start" x="759.6732" y="-15.4" font-family="sans-serif" font-size="14.00" fill="#000000"> &#160;Providers</text>
<polygon fill="#fb8072" stroke="transparent" points="832,-10 832,-30 852,-30 852,-10 832,-10"/>
<text text-anchor="start" x="855.7258" y="-15.4" font-family="sans-serif" font-size="14.00" fill="#000000"> &#160;Exports</text>
<g id="clust1" class="cluster">
<title>cluster_FilesModule</title>
<polygon fill="none" stroke="#000000" stroke-dasharray="1,5" points="8,-70 8,-268 1340,-268 1340,-70 8,-70"/>
</g>
<g id="clust2" class="cluster">
<title>cluster_FilesModule_declarations</title>
<polygon fill="none" stroke="#000000" points="476,-78 476,-130 1332,-130 1332,-78 476,-78"/>
</g>
<g id="clust9" class="cluster">
<title>cluster_FilesModule_imports</title>
<polygon fill="none" stroke="#000000" points="150,-78 150,-130 468,-130 468,-78 150,-78"/>
</g>
<g id="clust10" class="cluster">
<title>cluster_FilesModule_exports</title>
<polygon fill="none" stroke="#000000" points="168,-208 168,-260 1148,-260 1148,-208 168,-208"/>
</g>
<g id="clust12" class="cluster">
<title>cluster_FilesModule_providers</title>
<polygon fill="none" stroke="#000000" points="16,-78 16,-130 142,-130 142,-78 16,-78"/>
</g>
<!-- AssetListPopComponent -->
<g id="node1" class="node">
<title>AssetListPopComponent</title>
<polygon fill="#ffffb3" stroke="#000000" points="1323.9944,-122 1168.0056,-122 1168.0056,-86 1323.9944,-86 1323.9944,-122"/>
<text text-anchor="middle" x="1246" y="-99.8" font-family="Times,serif" font-size="14.00" fill="#000000">AssetListPopComponent</text>
</g>
<!-- FilesModule -->
<g id="node7" class="node">
<title>FilesModule</title>
<polygon fill="#8dd3c7" stroke="#000000" points="653.2731,-187 650.2731,-191 629.2731,-191 626.2731,-187 566.7269,-187 566.7269,-151 653.2731,-151 653.2731,-187"/>
<text text-anchor="middle" x="610" y="-164.8" font-family="Times,serif" font-size="14.00" fill="#000000">FilesModule</text>
</g>
<!-- AssetListPopComponent&#45;&gt;FilesModule -->
<g id="edge1" class="edge">
<title>AssetListPopComponent&#45;&gt;FilesModule</title>
<path fill="none" stroke="#000000" d="M1246,-122.1061C1246,-141.3391 1246,-169 1246,-169 1246,-169 663.7149,-169 663.7149,-169"/>
<polygon fill="#000000" stroke="#000000" points="663.7149,-165.5001 653.7149,-169 663.7148,-172.5001 663.7149,-165.5001"/>
</g>
<!-- AssetSelectComponent -->
<g id="node2" class="node">
<title>AssetSelectComponent</title>
<polygon fill="#ffffb3" stroke="#000000" points="1150.1414,-122 1003.8586,-122 1003.8586,-86 1150.1414,-86 1150.1414,-122"/>
<text text-anchor="middle" x="1077" y="-99.8" font-family="Times,serif" font-size="14.00" fill="#000000">AssetSelectComponent</text>
</g>
<!-- AssetSelectComponent&#45;&gt;FilesModule -->
<g id="edge2" class="edge">
<title>AssetSelectComponent&#45;&gt;FilesModule</title>
<path fill="none" stroke="#000000" d="M1071.7134,-122.302C1071.7134,-140.2699 1071.7134,-165 1071.7134,-165 1071.7134,-165 663.4369,-165 663.4369,-165"/>
<polygon fill="#000000" stroke="#000000" points="663.4369,-161.5001 653.4369,-165 663.4368,-168.5001 663.4369,-161.5001"/>
</g>
<!-- AssetDirective -->
<g id="node3" class="node">
<title>AssetDirective</title>
<polygon fill="#ffffb3" stroke="#000000" points="985.684,-122 886.316,-122 886.316,-86 985.684,-86 985.684,-122"/>
<text text-anchor="middle" x="936" y="-99.8" font-family="Times,serif" font-size="14.00" fill="#000000">AssetDirective</text>
</g>
<!-- AssetDirective&#45;&gt;FilesModule -->
<g id="edge3" class="edge">
<title>AssetDirective&#45;&gt;FilesModule</title>
<path fill="none" stroke="#000000" d="M924.2393,-122.027C924.2393,-138.3976 924.2393,-160 924.2393,-160 924.2393,-160 663.3637,-160 663.3637,-160"/>
<polygon fill="#000000" stroke="#000000" points="663.3637,-156.5001 653.3637,-160 663.3637,-163.5001 663.3637,-156.5001"/>
</g>
<!-- DropzoneDirective -->
<g id="node4" class="node">
<title>DropzoneDirective</title>
<polygon fill="#ffffb3" stroke="#000000" points="868.7795,-122 745.2205,-122 745.2205,-86 868.7795,-86 868.7795,-122"/>
<text text-anchor="middle" x="807" y="-99.8" font-family="Times,serif" font-size="14.00" fill="#000000">DropzoneDirective</text>
</g>
<!-- DropzoneDirective&#45;&gt;FilesModule -->
<g id="edge4" class="edge">
<title>DropzoneDirective&#45;&gt;FilesModule</title>
<path fill="none" stroke="#000000" d="M769.8512,-122.1871C769.8512,-137.1824 769.8512,-156 769.8512,-156 769.8512,-156 663.68,-156 663.68,-156"/>
<polygon fill="#000000" stroke="#000000" points="663.6801,-152.5001 653.68,-156 663.68,-159.5001 663.6801,-152.5001"/>
</g>
<!-- ImageDirective -->
<g id="node5" class="node">
<title>ImageDirective</title>
<polygon fill="#ffffb3" stroke="#000000" points="727.5632,-122 624.4368,-122 624.4368,-86 727.5632,-86 727.5632,-122"/>
<text text-anchor="middle" x="676" y="-99.8" font-family="Times,serif" font-size="14.00" fill="#000000">ImageDirective</text>
</g>
<!-- ImageDirective&#45;&gt;FilesModule -->
<g id="edge5" class="edge">
<title>ImageDirective&#45;&gt;FilesModule</title>
<path fill="none" stroke="#000000" d="M638.9274,-122.1061C638.9274,-122.1061 638.9274,-140.991 638.9274,-140.991"/>
<polygon fill="#000000" stroke="#000000" points="635.4275,-140.9909 638.9274,-150.991 642.4275,-140.991 635.4275,-140.9909"/>
</g>
<!-- UploadComponent -->
<g id="node6" class="node">
<title>UploadComponent</title>
<polygon fill="#ffffb3" stroke="#000000" points="606.045,-122 483.955,-122 483.955,-86 606.045,-86 606.045,-122"/>
<text text-anchor="middle" x="545" y="-99.8" font-family="Times,serif" font-size="14.00" fill="#000000">UploadComponent</text>
</g>
<!-- UploadComponent&#45;&gt;FilesModule -->
<g id="edge6" class="edge">
<title>UploadComponent&#45;&gt;FilesModule</title>
<path fill="none" stroke="#000000" d="M586.4429,-122.1061C586.4429,-122.1061 586.4429,-140.991 586.4429,-140.991"/>
<polygon fill="#000000" stroke="#000000" points="582.9429,-140.9909 586.4429,-150.991 589.9429,-140.991 582.9429,-140.9909"/>
</g>
<!-- AssetListPopComponent  -->
<g id="node11" class="node">
<title>AssetListPopComponent </title>
<polygon fill="#fb8072" stroke="#000000" points="1139.9952,-252 980.0048,-252 980.0048,-216 1139.9952,-216 1139.9952,-252"/>
<text text-anchor="middle" x="1060" y="-229.8" font-family="Times,serif" font-size="14.00" fill="#000000">AssetListPopComponent </text>
</g>
<!-- FilesModule&#45;&gt;AssetListPopComponent  -->
<g id="edge10" class="edge">
<title>FilesModule&#45;&gt;AssetListPopComponent </title>
<path fill="none" stroke="#000000" stroke-dasharray="5,2" d="M653.3749,-174C753.9669,-174 994.6357,-174 994.6357,-174 994.6357,-174 994.6357,-205.998 994.6357,-205.998"/>
<polygon fill="#000000" stroke="#000000" points="991.1358,-205.998 994.6357,-215.998 998.1358,-205.9981 991.1358,-205.998"/>
</g>
<!-- AssetSelectComponent  -->
<g id="node12" class="node">
<title>AssetSelectComponent </title>
<polygon fill="#fb8072" stroke="#000000" points="962.1411,-252 811.8589,-252 811.8589,-216 962.1411,-216 962.1411,-252"/>
<text text-anchor="middle" x="887" y="-229.8" font-family="Times,serif" font-size="14.00" fill="#000000">AssetSelectComponent </text>
</g>
<!-- FilesModule&#45;&gt;AssetSelectComponent  -->
<g id="edge11" class="edge">
<title>FilesModule&#45;&gt;AssetSelectComponent </title>
<path fill="none" stroke="#000000" stroke-dasharray="5,2" d="M653.3148,-178C720.0226,-178 840.2846,-178 840.2846,-178 840.2846,-178 840.2846,-205.973 840.2846,-205.973"/>
<polygon fill="#000000" stroke="#000000" points="836.7846,-205.973 840.2846,-215.973 843.7846,-205.973 836.7846,-205.973"/>
</g>
<!-- AssetDirective  -->
<g id="node13" class="node">
<title>AssetDirective </title>
<polygon fill="#fb8072" stroke="#000000" points="794.1843,-252 691.8157,-252 691.8157,-216 794.1843,-216 794.1843,-252"/>
<text text-anchor="middle" x="743" y="-229.8" font-family="Times,serif" font-size="14.00" fill="#000000">AssetDirective </text>
</g>
<!-- FilesModule&#45;&gt;AssetDirective  -->
<g id="edge12" class="edge">
<title>FilesModule&#45;&gt;AssetDirective </title>
<path fill="none" stroke="#000000" stroke-dasharray="5,2" d="M653.394,-183C680.2328,-183 709.5948,-183 709.5948,-183 709.5948,-183 709.5948,-205.8757 709.5948,-205.8757"/>
<polygon fill="#000000" stroke="#000000" points="706.0949,-205.8757 709.5948,-215.8757 713.0949,-205.8757 706.0949,-205.8757"/>
</g>
<!-- DropzoneDirective  -->
<g id="node14" class="node">
<title>DropzoneDirective </title>
<polygon fill="#fb8072" stroke="#000000" points="673.2794,-252 546.7206,-252 546.7206,-216 673.2794,-216 673.2794,-252"/>
<text text-anchor="middle" x="610" y="-229.8" font-family="Times,serif" font-size="14.00" fill="#000000">DropzoneDirective </text>
</g>
<!-- FilesModule&#45;&gt;DropzoneDirective  -->
<g id="edge13" class="edge">
<title>FilesModule&#45;&gt;DropzoneDirective </title>
<path fill="none" stroke="#000000" stroke-dasharray="5,2" d="M610,-187.1061C610,-187.1061 610,-205.991 610,-205.991"/>
<polygon fill="#000000" stroke="#000000" points="606.5001,-205.9909 610,-215.991 613.5001,-205.991 606.5001,-205.9909"/>
</g>
<!-- ImageDirective  -->
<g id="node15" class="node">
<title>ImageDirective </title>
<polygon fill="#fb8072" stroke="#000000" points="528.0641,-252 421.9359,-252 421.9359,-216 528.0641,-216 528.0641,-252"/>
<text text-anchor="middle" x="475" y="-229.8" font-family="Times,serif" font-size="14.00" fill="#000000">ImageDirective </text>
</g>
<!-- FilesModule&#45;&gt;ImageDirective  -->
<g id="edge14" class="edge">
<title>FilesModule&#45;&gt;ImageDirective </title>
<path fill="none" stroke="#000000" stroke-dasharray="5,2" d="M566.4992,-183C538.0018,-183 506.0048,-183 506.0048,-183 506.0048,-183 506.0048,-205.8757 506.0048,-205.8757"/>
<polygon fill="#000000" stroke="#000000" points="502.5048,-205.8757 506.0048,-215.8757 509.5048,-205.8757 502.5048,-205.8757"/>
</g>
<!-- UploadComponent  -->
<g id="node16" class="node">
<title>UploadComponent </title>
<polygon fill="#fb8072" stroke="#000000" points="404.0442,-252 277.9558,-252 277.9558,-216 404.0442,-216 404.0442,-252"/>
<text text-anchor="middle" x="341" y="-229.8" font-family="Times,serif" font-size="14.00" fill="#000000">UploadComponent </text>
</g>
<!-- FilesModule&#45;&gt;UploadComponent  -->
<g id="edge15" class="edge">
<title>FilesModule&#45;&gt;UploadComponent </title>
<path fill="none" stroke="#000000" stroke-dasharray="5,2" d="M566.5167,-178C503.7294,-178 395.1243,-178 395.1243,-178 395.1243,-178 395.1243,-205.973 395.1243,-205.973"/>
<polygon fill="#000000" stroke="#000000" points="391.6244,-205.973 395.1243,-215.973 398.6244,-205.973 391.6244,-205.973"/>
</g>
<!-- SdkModule  -->
<g id="node17" class="node">
<title>SdkModule </title>
<polygon fill="#fb8072" stroke="#000000" points="260.3326,-252 175.6674,-252 175.6674,-216 260.3326,-216 260.3326,-252"/>
<text text-anchor="middle" x="218" y="-229.8" font-family="Times,serif" font-size="14.00" fill="#000000">SdkModule </text>
</g>
<!-- FilesModule&#45;&gt;SdkModule  -->
<g id="edge16" class="edge">
<title>FilesModule&#45;&gt;SdkModule </title>
<path fill="none" stroke="#000000" stroke-dasharray="5,2" d="M566.5514,-174C464.4894,-174 218,-174 218,-174 218,-174 218,-205.998 218,-205.998"/>
<polygon fill="#000000" stroke="#000000" points="214.5001,-205.998 218,-215.998 221.5001,-205.9981 214.5001,-205.998"/>
</g>
<!-- UiModule -->
<g id="node8" class="node">
<title>UiModule</title>
<polygon fill="#8dd3c7" stroke="#000000" points="459.5484,-122 456.5484,-126 435.5484,-126 432.5484,-122 386.4516,-122 386.4516,-86 459.5484,-86 459.5484,-122"/>
<text text-anchor="middle" x="423" y="-99.8" font-family="Times,serif" font-size="14.00" fill="#000000">UiModule</text>
</g>
<!-- UiModule&#45;&gt;FilesModule -->
<g id="edge7" class="edge">
<title>UiModule&#45;&gt;FilesModule</title>
<path fill="none" stroke="#000000" d="M440.746,-122.1871C440.746,-137.1824 440.746,-156 440.746,-156 440.746,-156 556.4129,-156 556.4129,-156"/>
<polygon fill="#000000" stroke="#000000" points="556.4129,-159.5001 566.4129,-156 556.4128,-152.5001 556.4129,-159.5001"/>
</g>
<!-- SdkModule -->
<g id="node9" class="node">
<title>SdkModule</title>
<polygon fill="#8dd3c7" stroke="#000000" points="368.8331,-122 365.8331,-126 344.8331,-126 341.8331,-122 287.1669,-122 287.1669,-86 368.8331,-86 368.8331,-122"/>
<text text-anchor="middle" x="328" y="-99.8" font-family="Times,serif" font-size="14.00" fill="#000000">SdkModule</text>
</g>
<!-- SdkModule&#45;&gt;FilesModule -->
<g id="edge8" class="edge">
<title>SdkModule&#45;&gt;FilesModule</title>
<path fill="none" stroke="#000000" d="M328,-122.027C328,-138.3976 328,-160 328,-160 328,-160 556.5555,-160 556.5555,-160"/>
<polygon fill="#000000" stroke="#000000" points="556.5555,-163.5001 566.5555,-160 556.5555,-156.5001 556.5555,-163.5001"/>
</g>
<!-- ResourceModule -->
<g id="node10" class="node">
<title>ResourceModule</title>
<polygon fill="#8dd3c7" stroke="#000000" points="269.636,-122 266.636,-126 245.636,-126 242.636,-122 158.364,-122 158.364,-86 269.636,-86 269.636,-122"/>
<text text-anchor="middle" x="214" y="-99.8" font-family="Times,serif" font-size="14.00" fill="#000000">ResourceModule</text>
</g>
<!-- ResourceModule&#45;&gt;FilesModule -->
<g id="edge9" class="edge">
<title>ResourceModule&#45;&gt;FilesModule</title>
<path fill="none" stroke="#000000" d="M265.1169,-122.302C265.1169,-140.2699 265.1169,-165 265.1169,-165 265.1169,-165 556.6695,-165 556.6695,-165"/>
<polygon fill="#000000" stroke="#000000" points="556.6696,-168.5001 566.6695,-165 556.6695,-161.5001 556.6696,-168.5001"/>
</g>
<!-- FileService -->
<g id="node18" class="node">
<title>FileService</title>
<ellipse fill="#fdb462" stroke="#000000" cx="79" cy="-104" rx="55.0285" ry="18"/>
<text text-anchor="middle" x="79" y="-99.8" font-family="Times,serif" font-size="14.00" fill="#000000">FileService</text>
</g>
<!-- FileService&#45;&gt;FilesModule -->
<g id="edge17" class="edge">
<title>FileService&#45;&gt;FilesModule</title>
<path fill="none" stroke="#000000" d="M79,-122.1061C79,-141.3391 79,-169 79,-169 79,-169 556.546,-169 556.546,-169"/>
<polygon fill="#000000" stroke="#000000" points="556.5461,-172.5001 566.546,-169 556.546,-165.5001 556.5461,-172.5001"/>
</g>
</g>
</svg>
