<?xml version="1.0" encoding="UTF-8" standalone="no"?>
<!DOCTYPE svg PUBLIC "-//W3C//DTD SVG 1.1//EN"
 "http://www.w3.org/Graphics/SVG/1.1/DTD/svg11.dtd">
<!-- Generated by graphviz version 2.47.0 (20210316.0004)
 -->
<!-- Title: dependencies Pages: 1 -->
<svg width="2227pt" height="284pt"
 viewBox="0.00 0.00 2227.00 284.00" xmlns="http://www.w3.org/2000/svg" xmlns:xlink="http://www.w3.org/1999/xlink">
<g id="graph0" class="graph" transform="scale(1 1) rotate(0) translate(4 280)">
<title>dependencies</title>
<polygon fill="white" stroke="transparent" points="-4,4 -4,-280 2223,-280 2223,4 -4,4"/>
<text text-anchor="start" x="1088.51" y="-42.4" font-family="sans-serif" font-weight="bold" font-size="14.00">Legend</text>
<polygon fill="#ffffb3" stroke="transparent" points="875.5,-10 875.5,-30 895.5,-30 895.5,-10 875.5,-10"/>
<text text-anchor="start" x="899.13" y="-15.4" font-family="sans-serif" font-size="14.00"> &#160;Declarations</text>
<polygon fill="#8dd3c7" stroke="transparent" points="988.5,-10 988.5,-30 1008.5,-30 1008.5,-10 988.5,-10"/>
<text text-anchor="start" x="1012.23" y="-15.4" font-family="sans-serif" font-size="14.00"> &#160;Module</text>
<polygon fill="#80b1d3" stroke="transparent" points="1074.5,-10 1074.5,-30 1094.5,-30 1094.5,-10 1074.5,-10"/>
<text text-anchor="start" x="1098.28" y="-15.4" font-family="sans-serif" font-size="14.00"> &#160;Bootstrap</text>
<polygon fill="#fdb462" stroke="transparent" points="1171.5,-10 1171.5,-30 1191.5,-30 1191.5,-10 1171.5,-10"/>
<text text-anchor="start" x="1195.17" y="-15.4" font-family="sans-serif" font-size="14.00"> &#160;Providers</text>
<polygon fill="#fb8072" stroke="transparent" points="1267.5,-10 1267.5,-30 1287.5,-30 1287.5,-10 1267.5,-10"/>
<text text-anchor="start" x="1291.23" y="-15.4" font-family="sans-serif" font-size="14.00"> &#160;Exports</text>
<g id="clust1" class="cluster">
<title>cluster_FilesModule</title>
<polygon fill="none" stroke="black" stroke-dasharray="1,5" points="8,-70 8,-268 2211,-268 2211,-70 8,-70"/>
</g>
<g id="clust17" class="cluster">
<title>cluster_FilesModule_providers</title>
<polygon fill="none" stroke="black" points="2077,-78 2077,-130 2203,-130 2203,-78 2077,-78"/>
</g>
<g id="clust2" class="cluster">
<title>cluster_FilesModule_declarations</title>
<polygon fill="none" stroke="black" points="342,-78 342,-130 2069,-130 2069,-78 342,-78"/>
</g>
<g id="clust15" class="cluster">
<title>cluster_FilesModule_exports</title>
<polygon fill="none" stroke="black" points="158,-208 158,-260 2025,-260 2025,-208 158,-208"/>
</g>
<g id="clust14" class="cluster">
<title>cluster_FilesModule_imports</title>
<polygon fill="none" stroke="black" points="16,-78 16,-130 334,-130 334,-78 16,-78"/>
</g>
<!-- AssetDirective -->
<g id="node1" class="node">
<title>AssetDirective</title>
<polygon fill="#ffffb3" stroke="black" points="2060.68,-122 1961.32,-122 1961.32,-86 2060.68,-86 2060.68,-122"/>
<text text-anchor="middle" x="2011" y="-99.8" font-family="Times,serif" font-size="14.00">AssetDirective</text>
</g>
<!-- FilesModule -->
<g id="node12" class="node">
<title>FilesModule</title>
<polygon fill="#8dd3c7" stroke="black" points="1106.27,-187 1103.27,-191 1082.27,-191 1079.27,-187 1019.73,-187 1019.73,-151 1106.27,-151 1106.27,-187"/>
<text text-anchor="middle" x="1063" y="-164.8" font-family="Times,serif" font-size="14.00">FilesModule</text>
</g>
<!-- AssetDirective&#45;&gt;FilesModule -->
<g id="edge1" class="edge">
<title>AssetDirective&#45;&gt;FilesModule</title>
<path fill="none" stroke="black" d="M1989.38,-122.17C1989.38,-141.09 1989.38,-168 1989.38,-168 1989.38,-168 1116.44,-168 1116.44,-168"/>
<polygon fill="black" stroke="black" points="1116.44,-164.5 1106.44,-168 1116.44,-171.5 1116.44,-164.5"/>
</g>
<!-- AssetListComponent -->
<g id="node2" class="node">
<title>AssetListComponent</title>
<polygon fill="#ffffb3" stroke="black" points="1943.21,-122 1808.79,-122 1808.79,-86 1943.21,-86 1943.21,-122"/>
<text text-anchor="middle" x="1876" y="-99.8" font-family="Times,serif" font-size="14.00">AssetListComponent</text>
</g>
<!-- AssetListComponent&#45;&gt;FilesModule -->
<g id="edge2" class="edge">
<title>AssetListComponent&#45;&gt;FilesModule</title>
<path fill="none" stroke="black" d="M1852.88,-122.3C1852.88,-140.27 1852.88,-165 1852.88,-165 1852.88,-165 1116.31,-165 1116.31,-165"/>
<polygon fill="black" stroke="black" points="1116.31,-161.5 1106.31,-165 1116.31,-168.5 1116.31,-161.5"/>
</g>
<!-- AssetListPopComponent -->
<g id="node3" class="node">
<title>AssetListPopComponent</title>
<polygon fill="#ffffb3" stroke="black" points="1790.99,-122 1635.01,-122 1635.01,-86 1790.99,-86 1790.99,-122"/>
<text text-anchor="middle" x="1713" y="-99.8" font-family="Times,serif" font-size="14.00">AssetListPopComponent</text>
</g>
<!-- AssetListPopComponent&#45;&gt;FilesModule -->
<g id="edge3" class="edge">
<title>AssetListPopComponent&#45;&gt;FilesModule</title>
<path fill="none" stroke="black" d="M1687.88,-122.02C1687.88,-139.37 1687.88,-163 1687.88,-163 1687.88,-163 1116.44,-163 1116.44,-163"/>
<polygon fill="black" stroke="black" points="1116.44,-159.5 1106.44,-163 1116.44,-166.5 1116.44,-159.5"/>
</g>
<!-- AssetSelectComponent -->
<g id="node4" class="node">
<title>AssetSelectComponent</title>
<polygon fill="#ffffb3" stroke="black" points="1617.14,-122 1470.86,-122 1470.86,-86 1617.14,-86 1617.14,-122"/>
<text text-anchor="middle" x="1544" y="-99.8" font-family="Times,serif" font-size="14.00">AssetSelectComponent</text>
</g>
<!-- AssetSelectComponent&#45;&gt;FilesModule -->
<g id="edge4" class="edge">
<title>AssetSelectComponent&#45;&gt;FilesModule</title>
<path fill="none" stroke="black" d="M1516.88,-122.03C1516.88,-138.4 1516.88,-160 1516.88,-160 1516.88,-160 1116.52,-160 1116.52,-160"/>
<polygon fill="black" stroke="black" points="1116.52,-156.5 1106.52,-160 1116.52,-163.5 1116.52,-156.5"/>
</g>
<!-- AssetgroupSelectComponent -->
<g id="node5" class="node">
<title>AssetgroupSelectComponent</title>
<polygon fill="#ffffb3" stroke="black" points="1452.8,-122 1273.2,-122 1273.2,-86 1452.8,-86 1452.8,-122"/>
<text text-anchor="middle" x="1363" y="-99.8" font-family="Times,serif" font-size="14.00">AssetgroupSelectComponent</text>
</g>
<!-- AssetgroupSelectComponent&#45;&gt;FilesModule -->
<g id="edge5" class="edge">
<title>AssetgroupSelectComponent&#45;&gt;FilesModule</title>
<path fill="none" stroke="black" d="M1334.38,-122.24C1334.38,-137.57 1334.38,-157 1334.38,-157 1334.38,-157 1116.3,-157 1116.3,-157"/>
<polygon fill="black" stroke="black" points="1116.3,-153.5 1106.3,-157 1116.3,-160.5 1116.3,-153.5"/>
</g>
<!-- DropzoneDirective -->
<g id="node6" class="node">
<title>DropzoneDirective</title>
<polygon fill="#ffffb3" stroke="black" points="1255.78,-122 1132.22,-122 1132.22,-86 1255.78,-86 1255.78,-122"/>
<text text-anchor="middle" x="1194" y="-99.8" font-family="Times,serif" font-size="14.00">DropzoneDirective</text>
</g>
<!-- DropzoneDirective&#45;&gt;FilesModule -->
<g id="edge6" class="edge">
<title>DropzoneDirective&#45;&gt;FilesModule</title>
<path fill="none" stroke="black" d="M1163.38,-122.05C1163.38,-136.37 1163.38,-154 1163.38,-154 1163.38,-154 1116.44,-154 1116.44,-154"/>
<polygon fill="black" stroke="black" points="1116.44,-150.5 1106.44,-154 1116.44,-157.5 1116.44,-150.5"/>
</g>
<!-- ImageDirective -->
<g id="node7" class="node">
<title>ImageDirective</title>
<polygon fill="#ffffb3" stroke="black" points="1114.56,-122 1011.44,-122 1011.44,-86 1114.56,-86 1114.56,-122"/>
<text text-anchor="middle" x="1063" y="-99.8" font-family="Times,serif" font-size="14.00">ImageDirective</text>
</g>
<!-- ImageDirective&#45;&gt;FilesModule -->
<g id="edge7" class="edge">
<title>ImageDirective&#45;&gt;FilesModule</title>
<path fill="none" stroke="black" d="M1063,-122.11C1063,-122.11 1063,-140.99 1063,-140.99"/>
<polygon fill="black" stroke="black" points="1059.5,-140.99 1063,-150.99 1066.5,-140.99 1059.5,-140.99"/>
</g>
<!-- ImageSelectPopComponent -->
<g id="node8" class="node">
<title>ImageSelectPopComponent</title>
<polygon fill="#ffffb3" stroke="black" points="993.3,-122 820.7,-122 820.7,-86 993.3,-86 993.3,-122"/>
<text text-anchor="middle" x="907" y="-99.8" font-family="Times,serif" font-size="14.00">ImageSelectPopComponent</text>
</g>
<!-- ImageSelectPopComponent&#45;&gt;FilesModule -->
<g id="edge8" class="edge">
<title>ImageSelectPopComponent&#45;&gt;FilesModule</title>
<path fill="none" stroke="black" d="M967.93,-122.05C967.93,-136.37 967.93,-154 967.93,-154 967.93,-154 1009.64,-154 1009.64,-154"/>
<polygon fill="black" stroke="black" points="1009.64,-157.5 1019.64,-154 1009.64,-150.5 1009.64,-157.5"/>
</g>
<!-- TagSelectComponent -->
<g id="node9" class="node">
<title>TagSelectComponent</title>
<polygon fill="#ffffb3" stroke="black" points="802.81,-122 665.19,-122 665.19,-86 802.81,-86 802.81,-122"/>
<text text-anchor="middle" x="734" y="-99.8" font-family="Times,serif" font-size="14.00">TagSelectComponent</text>
</g>
<!-- TagSelectComponent&#45;&gt;FilesModule -->
<g id="edge9" class="edge">
<title>TagSelectComponent&#45;&gt;FilesModule</title>
<path fill="none" stroke="black" d="M775.88,-122.24C775.88,-137.57 775.88,-157 775.88,-157 775.88,-157 1009.7,-157 1009.7,-157"/>
<polygon fill="black" stroke="black" points="1009.7,-160.5 1019.7,-157 1009.7,-153.5 1009.7,-160.5"/>
</g>
<!-- UploadComponent -->
<g id="node10" class="node">
<title>UploadComponent</title>
<polygon fill="#ffffb3" stroke="black" points="647.05,-122 524.95,-122 524.95,-86 647.05,-86 647.05,-122"/>
<text text-anchor="middle" x="586" y="-99.8" font-family="Times,serif" font-size="14.00">UploadComponent</text>
</g>
<!-- UploadComponent&#45;&gt;FilesModule -->
<g id="edge10" class="edge">
<title>UploadComponent&#45;&gt;FilesModule</title>
<path fill="none" stroke="black" d="M637.49,-122.03C637.49,-138.4 637.49,-160 637.49,-160 637.49,-160 1009.46,-160 1009.46,-160"/>
<polygon fill="black" stroke="black" points="1009.46,-163.5 1019.46,-160 1009.46,-156.5 1009.46,-163.5"/>
</g>
<!-- UploadSelectComponent -->
<g id="node11" class="node">
<title>UploadSelectComponent</title>
<polygon fill="#ffffb3" stroke="black" points="506.25,-122 349.75,-122 349.75,-86 506.25,-86 506.25,-122"/>
<text text-anchor="middle" x="428" y="-99.8" font-family="Times,serif" font-size="14.00">UploadSelectComponent</text>
</g>
<!-- UploadSelectComponent&#45;&gt;FilesModule -->
<g id="edge11" class="edge">
<title>UploadSelectComponent&#45;&gt;FilesModule</title>
<path fill="none" stroke="black" d="M496.99,-122.02C496.99,-139.37 496.99,-163 496.99,-163 496.99,-163 1009.53,-163 1009.53,-163"/>
<polygon fill="black" stroke="black" points="1009.53,-166.5 1019.53,-163 1009.53,-159.5 1009.53,-166.5"/>
</g>
<!-- AssetDirective  -->
<g id="node16" class="node">
<title>AssetDirective </title>
<polygon fill="#fb8072" stroke="black" points="2017.18,-252 1914.82,-252 1914.82,-216 2017.18,-216 2017.18,-252"/>
<text text-anchor="middle" x="1966" y="-229.8" font-family="Times,serif" font-size="14.00">AssetDirective </text>
</g>
<!-- FilesModule&#45;&gt;AssetDirective  -->
<g id="edge15" class="edge">
<title>FilesModule&#45;&gt;AssetDirective </title>
<path fill="none" stroke="black" stroke-dasharray="5,2" d="M1106.53,-174C1282.12,-174 1928.88,-174 1928.88,-174 1928.88,-174 1928.88,-206 1928.88,-206"/>
<polygon fill="black" stroke="black" points="1925.38,-206 1928.88,-216 1932.38,-206 1925.38,-206"/>
</g>
<!-- AssetListComponent  -->
<g id="node17" class="node">
<title>AssetListComponent </title>
<polygon fill="#fb8072" stroke="black" points="1896.71,-252 1759.29,-252 1759.29,-216 1896.71,-216 1896.71,-252"/>
<text text-anchor="middle" x="1828" y="-229.8" font-family="Times,serif" font-size="14.00">AssetListComponent </text>
</g>
<!-- FilesModule&#45;&gt;AssetListComponent  -->
<g id="edge16" class="edge">
<title>FilesModule&#45;&gt;AssetListComponent </title>
<path fill="none" stroke="black" stroke-dasharray="5,2" d="M1106.47,-176C1261.07,-176 1775.07,-176 1775.07,-176 1775.07,-176 1775.07,-205.97 1775.07,-205.97"/>
<polygon fill="black" stroke="black" points="1771.57,-205.97 1775.07,-215.97 1778.57,-205.97 1771.57,-205.97"/>
</g>
<!-- AssetListPopComponent  -->
<g id="node18" class="node">
<title>AssetListPopComponent </title>
<polygon fill="#fb8072" stroke="black" points="1741,-252 1581,-252 1581,-216 1741,-216 1741,-252"/>
<text text-anchor="middle" x="1661" y="-229.8" font-family="Times,serif" font-size="14.00">AssetListPopComponent </text>
</g>
<!-- FilesModule&#45;&gt;AssetListPopComponent  -->
<g id="edge17" class="edge">
<title>FilesModule&#45;&gt;AssetListPopComponent </title>
<path fill="none" stroke="black" stroke-dasharray="5,2" d="M1106.43,-179C1234.1,-179 1599.29,-179 1599.29,-179 1599.29,-179 1599.29,-205.99 1599.29,-205.99"/>
<polygon fill="black" stroke="black" points="1595.79,-205.99 1599.29,-215.99 1602.79,-205.99 1595.79,-205.99"/>
</g>
<!-- AssetSelectComponent  -->
<g id="node19" class="node">
<title>AssetSelectComponent </title>
<polygon fill="#fb8072" stroke="black" points="1563.14,-252 1412.86,-252 1412.86,-216 1563.14,-216 1563.14,-252"/>
<text text-anchor="middle" x="1488" y="-229.8" font-family="Times,serif" font-size="14.00">AssetSelectComponent </text>
</g>
<!-- FilesModule&#45;&gt;AssetSelectComponent  -->
<g id="edge18" class="edge">
<title>FilesModule&#45;&gt;AssetSelectComponent </title>
<path fill="none" stroke="black" stroke-dasharray="5,2" d="M1106.51,-182C1204.26,-182 1432.79,-182 1432.79,-182 1432.79,-182 1432.79,-205.81 1432.79,-205.81"/>
<polygon fill="black" stroke="black" points="1429.29,-205.81 1432.79,-215.81 1436.29,-205.81 1429.29,-205.81"/>
</g>
<!-- AssetgroupSelectComponent  -->
<g id="node20" class="node">
<title>AssetgroupSelectComponent </title>
<polygon fill="#fb8072" stroke="black" points="1395.3,-252 1212.7,-252 1212.7,-216 1395.3,-216 1395.3,-252"/>
<text text-anchor="middle" x="1304" y="-229.8" font-family="Times,serif" font-size="14.00">AssetgroupSelectComponent </text>
</g>
<!-- FilesModule&#45;&gt;AssetgroupSelectComponent  -->
<g id="edge19" class="edge">
<title>FilesModule&#45;&gt;AssetgroupSelectComponent </title>
<path fill="none" stroke="black" stroke-dasharray="5,2" d="M1106.62,-185C1157.32,-185 1234.12,-185 1234.12,-185 1234.12,-185 1234.12,-205.75 1234.12,-205.75"/>
<polygon fill="black" stroke="black" points="1230.62,-205.75 1234.12,-215.75 1237.62,-205.75 1230.62,-205.75"/>
</g>
<!-- DropzoneDirective  -->
<g id="node21" class="node">
<title>DropzoneDirective </title>
<polygon fill="#fb8072" stroke="black" points="1194.28,-252 1067.72,-252 1067.72,-216 1194.28,-216 1194.28,-252"/>
<text text-anchor="middle" x="1131" y="-229.8" font-family="Times,serif" font-size="14.00">DropzoneDirective </text>
</g>
<!-- FilesModule&#45;&gt;DropzoneDirective  -->
<g id="edge20" class="edge">
<title>FilesModule&#45;&gt;DropzoneDirective </title>
<path fill="none" stroke="black" stroke-dasharray="5,2" d="M1087,-187.11C1087,-187.11 1087,-205.99 1087,-205.99"/>
<polygon fill="black" stroke="black" points="1083.5,-205.99 1087,-215.99 1090.5,-205.99 1083.5,-205.99"/>
</g>
<!-- ImageDirective  -->
<g id="node22" class="node">
<title>ImageDirective </title>
<polygon fill="#fb8072" stroke="black" points="1049.06,-252 942.94,-252 942.94,-216 1049.06,-216 1049.06,-252"/>
<text text-anchor="middle" x="996" y="-229.8" font-family="Times,serif" font-size="14.00">ImageDirective </text>
</g>
<!-- FilesModule&#45;&gt;ImageDirective  -->
<g id="edge21" class="edge">
<title>FilesModule&#45;&gt;ImageDirective </title>
<path fill="none" stroke="black" stroke-dasharray="5,2" d="M1034.45,-187.11C1034.45,-187.11 1034.45,-205.99 1034.45,-205.99"/>
<polygon fill="black" stroke="black" points="1030.95,-205.99 1034.45,-215.99 1037.95,-205.99 1030.95,-205.99"/>
</g>
<!-- ImageSelectPopComponent  -->
<g id="node23" class="node">
<title>ImageSelectPopComponent </title>
<polygon fill="#fb8072" stroke="black" points="924.8,-252 749.2,-252 749.2,-216 924.8,-216 924.8,-252"/>
<text text-anchor="middle" x="837" y="-229.8" font-family="Times,serif" font-size="14.00">ImageSelectPopComponent </text>
</g>
<!-- FilesModule&#45;&gt;ImageSelectPopComponent  -->
<g id="edge22" class="edge">
<title>FilesModule&#45;&gt;ImageSelectPopComponent </title>
<path fill="none" stroke="black" stroke-dasharray="5,2" d="M1019.38,-185C963.25,-185 872.88,-185 872.88,-185 872.88,-185 872.88,-205.75 872.88,-205.75"/>
<polygon fill="black" stroke="black" points="869.38,-205.75 872.88,-215.75 876.38,-205.75 869.38,-205.75"/>
</g>
<!-- SdkModule  -->
<g id="node24" class="node">
<title>SdkModule </title>
<polygon fill="#fb8072" stroke="black" points="731.33,-252 646.67,-252 646.67,-216 731.33,-216 731.33,-252"/>
<text text-anchor="middle" x="689" y="-229.8" font-family="Times,serif" font-size="14.00">SdkModule </text>
</g>
<!-- FilesModule&#45;&gt;SdkModule  -->
<g id="edge23" class="edge">
<title>FilesModule&#45;&gt;SdkModule </title>
<path fill="none" stroke="black" stroke-dasharray="5,2" d="M1019.38,-182C922.6,-182 698.38,-182 698.38,-182 698.38,-182 698.38,-205.81 698.38,-205.81"/>
<polygon fill="black" stroke="black" points="694.88,-205.81 698.38,-215.81 701.88,-205.81 694.88,-205.81"/>
</g>
<!-- TagSelectComponent  -->
<g id="node25" class="node">
<title>TagSelectComponent </title>
<polygon fill="#fb8072" stroke="black" points="628.31,-252 487.69,-252 487.69,-216 628.31,-216 628.31,-252"/>
<text text-anchor="middle" x="558" y="-229.8" font-family="Times,serif" font-size="14.00">TagSelectComponent </text>
</g>
<!-- FilesModule&#45;&gt;TagSelectComponent  -->
<g id="edge24" class="edge">
<title>FilesModule&#45;&gt;TagSelectComponent </title>
<path fill="none" stroke="black" stroke-dasharray="5,2" d="M1019.4,-179C900.01,-179 576.57,-179 576.57,-179 576.57,-179 576.57,-205.99 576.57,-205.99"/>
<polygon fill="black" stroke="black" points="573.07,-205.99 576.57,-215.99 580.07,-205.99 573.07,-205.99"/>
</g>
<!-- UploadComponent  -->
<g id="node26" class="node">
<title>UploadComponent </title>
<polygon fill="#fb8072" stroke="black" points="470.04,-252 343.96,-252 343.96,-216 470.04,-216 470.04,-252"/>
<text text-anchor="middle" x="407" y="-229.8" font-family="Times,serif" font-size="14.00">UploadComponent </text>
</g>
<!-- FilesModule&#45;&gt;UploadComponent  -->
<g id="edge25" class="edge">
<title>FilesModule&#45;&gt;UploadComponent </title>
<path fill="none" stroke="black" stroke-dasharray="5,2" d="M1019.64,-176C873.75,-176 409.82,-176 409.82,-176 409.82,-176 409.82,-205.97 409.82,-205.97"/>
<polygon fill="black" stroke="black" points="406.32,-205.97 409.82,-215.97 413.32,-205.97 406.32,-205.97"/>
</g>
<!-- UploadSelectComponent  -->
<g id="node27" class="node">
<title>UploadSelectComponent </title>
<polygon fill="#fb8072" stroke="black" points="326.25,-252 165.75,-252 165.75,-216 326.25,-216 326.25,-252"/>
<text text-anchor="middle" x="246" y="-229.8" font-family="Times,serif" font-size="14.00">UploadSelectComponent </text>
</g>
<!-- FilesModule&#45;&gt;UploadSelectComponent  -->
<g id="edge26" class="edge">
<title>FilesModule&#45;&gt;UploadSelectComponent </title>
<path fill="none" stroke="black" stroke-dasharray="5,2" d="M1019.65,-174C851.47,-174 251.39,-174 251.39,-174 251.39,-174 251.39,-206 251.39,-206"/>
<polygon fill="black" stroke="black" points="247.89,-206 251.39,-216 254.89,-206 247.89,-206"/>
</g>
<!-- ResourceModule -->
<g id="node13" class="node">
<title>ResourceModule</title>
<polygon fill="#8dd3c7" stroke="black" points="325.64,-122 322.64,-126 301.64,-126 298.64,-122 214.36,-122 214.36,-86 325.64,-86 325.64,-122"/>
<text text-anchor="middle" x="270" y="-99.8" font-family="Times,serif" font-size="14.00">ResourceModule</text>
</g>
<!-- ResourceModule&#45;&gt;FilesModule -->
<g id="edge12" class="edge">
<title>ResourceModule&#45;&gt;FilesModule</title>
<path fill="none" stroke="black" d="M288.61,-122.3C288.61,-140.27 288.61,-165 288.61,-165 288.61,-165 1009.71,-165 1009.71,-165"/>
<polygon fill="black" stroke="black" points="1009.71,-168.5 1019.71,-165 1009.71,-161.5 1009.71,-168.5"/>
</g>
<!-- SdkModule -->
<g id="node14" class="node">
<title>SdkModule</title>
<polygon fill="#8dd3c7" stroke="black" points="196.83,-122 193.83,-126 172.83,-126 169.83,-122 115.17,-122 115.17,-86 196.83,-86 196.83,-122"/>
<text text-anchor="middle" x="156" y="-99.8" font-family="Times,serif" font-size="14.00">SdkModule</text>
</g>
<!-- SdkModule&#45;&gt;FilesModule -->
<g id="edge13" class="edge">
<title>SdkModule&#45;&gt;FilesModule</title>
<path fill="none" stroke="black" d="M181.27,-122.17C181.27,-141.09 181.27,-168 181.27,-168 181.27,-168 1009.58,-168 1009.58,-168"/>
<polygon fill="black" stroke="black" points="1009.58,-171.5 1019.58,-168 1009.58,-164.5 1009.58,-171.5"/>
</g>
<!-- UiModule -->
<g id="node15" class="node">
<title>UiModule</title>
<polygon fill="#8dd3c7" stroke="black" points="97.55,-122 94.55,-126 73.55,-126 70.55,-122 24.45,-122 24.45,-86 97.55,-86 97.55,-122"/>
<text text-anchor="middle" x="61" y="-99.8" font-family="Times,serif" font-size="14.00">UiModule</text>
</g>
<!-- UiModule&#45;&gt;FilesModule -->
<g id="edge14" class="edge">
<title>UiModule&#45;&gt;FilesModule</title>
<path fill="none" stroke="black" d="M61,-122.31C61,-142.15 61,-171 61,-171 61,-171 1009.62,-171 1009.62,-171"/>
<polygon fill="black" stroke="black" points="1009.62,-174.5 1019.62,-171 1009.62,-167.5 1009.62,-174.5"/>
</g>
<!-- FileService -->
<g id="node28" class="node">
<title>FileService</title>
<ellipse fill="#fdb462" stroke="black" cx="2140" cy="-104" rx="55.03" ry="18"/>
<text text-anchor="middle" x="2140" y="-99.8" font-family="Times,serif" font-size="14.00">FileService</text>
</g>
<!-- FileService&#45;&gt;FilesModule -->
<g id="edge27" class="edge">
<title>FileService&#45;&gt;FilesModule</title>
<path fill="none" stroke="black" d="M2140,-122.31C2140,-142.15 2140,-171 2140,-171 2140,-171 1116.55,-171 1116.55,-171"/>
<polygon fill="black" stroke="black" points="1116.55,-167.5 1106.55,-171 1116.55,-174.5 1116.55,-167.5"/>
</g>
</g>
</svg>
