<?xml version="1.0" encoding="UTF-8" standalone="no"?>
<!DOCTYPE svg PUBLIC "-//W3C//DTD SVG 1.1//EN"
 "http://www.w3.org/Graphics/SVG/1.1/DTD/svg11.dtd">
<!-- Generated by graphviz version 2.40.1 (20161225.0304)
 -->
<!-- Title: dependencies Pages: 1 -->
<svg width="504pt" height="284pt"
 viewBox="0.00 0.00 504.00 284.00" xmlns="http://www.w3.org/2000/svg" xmlns:xlink="http://www.w3.org/1999/xlink">
<g id="graph0" class="graph" transform="scale(1 1) rotate(0) translate(4 280)">
<title>dependencies</title>
<polygon fill="#ffffff" stroke="transparent" points="-4,4 -4,-280 500,-280 500,4 -4,4"/>
<text text-anchor="start" x="227.0091" y="-42.4" font-family="sans-serif" font-weight="bold" font-size="14.00" fill="#000000">Legend</text>
<polygon fill="#ffffb3" stroke="transparent" points="14,-10 14,-30 34,-30 34,-10 14,-10"/>
<text text-anchor="start" x="37.629" y="-15.4" font-family="sans-serif" font-size="14.00" fill="#000000"> &#160;Declarations</text>
<polygon fill="#8dd3c7" stroke="transparent" points="127,-10 127,-30 147,-30 147,-10 127,-10"/>
<text text-anchor="start" x="150.7251" y="-15.4" font-family="sans-serif" font-size="14.00" fill="#000000"> &#160;Module</text>
<polygon fill="#80b1d3" stroke="transparent" points="213,-10 213,-30 233,-30 233,-10 213,-10"/>
<text text-anchor="start" x="236.7812" y="-15.4" font-family="sans-serif" font-size="14.00" fill="#000000"> &#160;Bootstrap</text>
<polygon fill="#fdb462" stroke="transparent" points="310,-10 310,-30 330,-30 330,-10 310,-10"/>
<text text-anchor="start" x="333.6732" y="-15.4" font-family="sans-serif" font-size="14.00" fill="#000000"> &#160;Providers</text>
<polygon fill="#fb8072" stroke="transparent" points="406,-10 406,-30 426,-30 426,-10 406,-10"/>
<text text-anchor="start" x="429.7258" y="-15.4" font-family="sans-serif" font-size="14.00" fill="#000000"> &#160;Exports</text>
<g id="clust1" class="cluster">
<title>cluster_FilesModule</title>
<polygon fill="none" stroke="#000000" stroke-dasharray="1,5" points="64,-70 64,-268 432,-268 432,-70 64,-70"/>
</g>
<g id="clust2" class="cluster">
<title>cluster_FilesModule_declarations</title>
<polygon fill="none" stroke="#000000" points="274,-78 274,-130 424,-130 424,-78 274,-78"/>
</g>
<g id="clust4" class="cluster">
<title>cluster_FilesModule_imports</title>
<polygon fill="none" stroke="#000000" points="72,-78 72,-130 266,-130 266,-78 72,-78"/>
</g>
<g id="clust5" class="cluster">
<title>cluster_FilesModule_exports</title>
<polygon fill="none" stroke="#000000" points="144,-208 144,-260 298,-260 298,-208 144,-208"/>
</g>
<!-- AssetListComponent -->
<g id="node1" class="node">
<title>AssetListComponent</title>
<polygon fill="#ffffb3" stroke="#000000" points="416.212,-122 281.788,-122 281.788,-86 416.212,-86 416.212,-122"/>
<text text-anchor="middle" x="349" y="-99.8" font-family="Times,serif" font-size="14.00" fill="#000000">AssetListComponent</text>
</g>
<!-- FilesModule -->
<g id="node2" class="node">
<title>FilesModule</title>
<polygon fill="#8dd3c7" stroke="#000000" points="264.2731,-187 261.2731,-191 240.2731,-191 237.2731,-187 177.7269,-187 177.7269,-151 264.2731,-151 264.2731,-187"/>
<text text-anchor="middle" x="221" y="-164.8" font-family="Times,serif" font-size="14.00" fill="#000000">FilesModule</text>
</g>
<!-- AssetListComponent&#45;&gt;FilesModule -->
<g id="edge1" class="edge">
<title>AssetListComponent&#45;&gt;FilesModule</title>
<path fill="none" stroke="#000000" d="M285.875,-122.1061C285.875,-141.3391 285.875,-169 285.875,-169 285.875,-169 274.6325,-169 274.6325,-169"/>
<polygon fill="#000000" stroke="#000000" points="274.6325,-165.5001 264.6325,-169 274.6325,-172.5001 274.6325,-165.5001"/>
</g>
<!-- AssetListComponent  -->
<g id="node5" class="node">
<title>AssetListComponent </title>
<polygon fill="#fb8072" stroke="#000000" points="289.7121,-252 152.2879,-252 152.2879,-216 289.7121,-216 289.7121,-252"/>
<text text-anchor="middle" x="221" y="-229.8" font-family="Times,serif" font-size="14.00" fill="#000000">AssetListComponent </text>
</g>
<!-- FilesModule&#45;&gt;AssetListComponent  -->
<g id="edge4" class="edge">
<title>FilesModule&#45;&gt;AssetListComponent </title>
<path fill="none" stroke="#000000" stroke-dasharray="5,2" d="M221,-187.1061C221,-187.1061 221,-205.991 221,-205.991"/>
<polygon fill="#000000" stroke="#000000" points="217.5001,-205.9909 221,-215.991 224.5001,-205.991 217.5001,-205.9909"/>
</g>
<!-- UiModule -->
<g id="node3" class="node">
<title>UiModule</title>
<polygon fill="#8dd3c7" stroke="#000000" points="257.5484,-122 254.5484,-126 233.5484,-126 230.5484,-122 184.4516,-122 184.4516,-86 257.5484,-86 257.5484,-122"/>
<text text-anchor="middle" x="221" y="-99.8" font-family="Times,serif" font-size="14.00" fill="#000000">UiModule</text>
</g>
<!-- UiModule&#45;&gt;FilesModule -->
<g id="edge2" class="edge">
<title>UiModule&#45;&gt;FilesModule</title>
<path fill="none" stroke="#000000" d="M221,-122.1061C221,-122.1061 221,-140.991 221,-140.991"/>
<polygon fill="#000000" stroke="#000000" points="217.5001,-140.9909 221,-150.991 224.5001,-140.991 217.5001,-140.9909"/>
</g>
<!-- DataModule -->
<g id="node4" class="node">
<title>DataModule</title>
<polygon fill="#8dd3c7" stroke="#000000" points="165.9762,-122 162.9762,-126 141.9762,-126 138.9762,-122 80.0238,-122 80.0238,-86 165.9762,-86 165.9762,-122"/>
<text text-anchor="middle" x="123" y="-99.8" font-family="Times,serif" font-size="14.00" fill="#000000">DataModule</text>
</g>
<!-- DataModule&#45;&gt;FilesModule -->
<g id="edge3" class="edge">
<title>DataModule&#45;&gt;FilesModule</title>
<path fill="none" stroke="#000000" d="M159.0661,-122.1061C159.0661,-141.3391 159.0661,-169 159.0661,-169 159.0661,-169 167.6483,-169 167.6483,-169"/>
<polygon fill="#000000" stroke="#000000" points="167.6483,-172.5001 177.6483,-169 167.6483,-165.5001 167.6483,-172.5001"/>
</g>
</g>
</svg>
