<?xml version="1.0" encoding="UTF-8" standalone="no"?>
<!DOCTYPE svg PUBLIC "-//W3C//DTD SVG 1.1//EN"
 "http://www.w3.org/Graphics/SVG/1.1/DTD/svg11.dtd">
<!-- Generated by graphviz version 2.40.1 (20161225.0304)
 -->
<!-- Title: dependencies Pages: 1 -->
<svg width="1238pt" height="284pt"
 viewBox="0.00 0.00 1238.00 284.00" xmlns="http://www.w3.org/2000/svg" xmlns:xlink="http://www.w3.org/1999/xlink">
<g id="graph0" class="graph" transform="scale(1 1) rotate(0) translate(4 280)">
<title>dependencies</title>
<polygon fill="#ffffff" stroke="transparent" points="-4,4 -4,-280 1234,-280 1234,4 -4,4"/>
<text text-anchor="start" x="594.0091" y="-42.4" font-family="sans-serif" font-weight="bold" font-size="14.00" fill="#000000">Legend</text>
<polygon fill="#ffffb3" stroke="transparent" points="381,-10 381,-30 401,-30 401,-10 381,-10"/>
<text text-anchor="start" x="404.629" y="-15.4" font-family="sans-serif" font-size="14.00" fill="#000000"> &#160;Declarations</text>
<polygon fill="#8dd3c7" stroke="transparent" points="494,-10 494,-30 514,-30 514,-10 494,-10"/>
<text text-anchor="start" x="517.7251" y="-15.4" font-family="sans-serif" font-size="14.00" fill="#000000"> &#160;Module</text>
<polygon fill="#80b1d3" stroke="transparent" points="580,-10 580,-30 600,-30 600,-10 580,-10"/>
<text text-anchor="start" x="603.7812" y="-15.4" font-family="sans-serif" font-size="14.00" fill="#000000"> &#160;Bootstrap</text>
<polygon fill="#fdb462" stroke="transparent" points="677,-10 677,-30 697,-30 697,-10 677,-10"/>
<text text-anchor="start" x="700.6732" y="-15.4" font-family="sans-serif" font-size="14.00" fill="#000000"> &#160;Providers</text>
<polygon fill="#fb8072" stroke="transparent" points="773,-10 773,-30 793,-30 793,-10 773,-10"/>
<text text-anchor="start" x="796.7258" y="-15.4" font-family="sans-serif" font-size="14.00" fill="#000000"> &#160;Exports</text>
<g id="clust1" class="cluster">
<title>cluster_FilesModule</title>
<polygon fill="none" stroke="#000000" stroke-dasharray="1,5" points="8,-70 8,-268 1222,-268 1222,-70 8,-70"/>
</g>
<g id="clust2" class="cluster">
<title>cluster_FilesModule_declarations</title>
<polygon fill="none" stroke="#000000" points="347,-78 347,-130 1214,-130 1214,-78 347,-78"/>
</g>
<g id="clust9" class="cluster">
<title>cluster_FilesModule_imports</title>
<polygon fill="none" stroke="#000000" points="150,-78 150,-130 339,-130 339,-78 150,-78"/>
</g>
<g id="clust10" class="cluster">
<title>cluster_FilesModule_exports</title>
<polygon fill="none" stroke="#000000" points="117,-208 117,-260 1108,-260 1108,-208 117,-208"/>
</g>
<g id="clust12" class="cluster">
<title>cluster_FilesModule_providers</title>
<polygon fill="none" stroke="#000000" points="16,-78 16,-130 142,-130 142,-78 16,-78"/>
</g>
<!-- AssetListComponent -->
<g id="node1" class="node">
<title>AssetListComponent</title>
<polygon fill="#ffffb3" stroke="#000000" points="1206.212,-122 1071.788,-122 1071.788,-86 1206.212,-86 1206.212,-122"/>
<text text-anchor="middle" x="1139" y="-99.8" font-family="Times,serif" font-size="14.00" fill="#000000">AssetListComponent</text>
</g>
<!-- FilesModule -->
<g id="node7" class="node">
<title>FilesModule</title>
<polygon fill="#8dd3c7" stroke="#000000" points="590.2731,-187 587.2731,-191 566.2731,-191 563.2731,-187 503.7269,-187 503.7269,-151 590.2731,-151 590.2731,-187"/>
<text text-anchor="middle" x="547" y="-164.8" font-family="Times,serif" font-size="14.00" fill="#000000">FilesModule</text>
</g>
<!-- AssetListComponent&#45;&gt;FilesModule -->
<g id="edge1" class="edge">
<title>AssetListComponent&#45;&gt;FilesModule</title>
<path fill="none" stroke="#000000" d="M1085.875,-122.1061C1085.875,-141.3391 1085.875,-169 1085.875,-169 1085.875,-169 600.6419,-169 600.6419,-169"/>
<polygon fill="#000000" stroke="#000000" points="600.642,-165.5001 590.6419,-169 600.6419,-172.5001 600.642,-165.5001"/>
</g>
<!-- AssetListPopComponent -->
<g id="node2" class="node">
<title>AssetListPopComponent</title>
<polygon fill="#ffffb3" stroke="#000000" points="1053.9944,-122 898.0056,-122 898.0056,-86 1053.9944,-86 1053.9944,-122"/>
<text text-anchor="middle" x="976" y="-99.8" font-family="Times,serif" font-size="14.00" fill="#000000">AssetListPopComponent</text>
</g>
<!-- AssetListPopComponent&#45;&gt;FilesModule -->
<g id="edge2" class="edge">
<title>AssetListPopComponent&#45;&gt;FilesModule</title>
<path fill="none" stroke="#000000" d="M920.875,-122.302C920.875,-140.2699 920.875,-165 920.875,-165 920.875,-165 600.6199,-165 600.6199,-165"/>
<polygon fill="#000000" stroke="#000000" points="600.62,-161.5001 590.6199,-165 600.6199,-168.5001 600.62,-161.5001"/>
</g>
<!-- AssetSelectComponent -->
<g id="node3" class="node">
<title>AssetSelectComponent</title>
<polygon fill="#ffffb3" stroke="#000000" points="880.1414,-122 733.8586,-122 733.8586,-86 880.1414,-86 880.1414,-122"/>
<text text-anchor="middle" x="807" y="-99.8" font-family="Times,serif" font-size="14.00" fill="#000000">AssetSelectComponent</text>
</g>
<!-- AssetSelectComponent&#45;&gt;FilesModule -->
<g id="edge3" class="edge">
<title>AssetSelectComponent&#45;&gt;FilesModule</title>
<path fill="none" stroke="#000000" d="M749.875,-122.027C749.875,-138.3976 749.875,-160 749.875,-160 749.875,-160 600.5218,-160 600.5218,-160"/>
<polygon fill="#000000" stroke="#000000" points="600.5218,-156.5001 590.5218,-160 600.5217,-163.5001 600.5218,-156.5001"/>
</g>
<!-- AssetDirective -->
<g id="node4" class="node">
<title>AssetDirective</title>
<polygon fill="#ffffb3" stroke="#000000" points="715.684,-122 616.316,-122 616.316,-86 715.684,-86 715.684,-122"/>
<text text-anchor="middle" x="666" y="-99.8" font-family="Times,serif" font-size="14.00" fill="#000000">AssetDirective</text>
</g>
<!-- AssetDirective&#45;&gt;FilesModule -->
<g id="edge4" class="edge">
<title>AssetDirective&#45;&gt;FilesModule</title>
<path fill="none" stroke="#000000" d="M682.5306,-122.1871C682.5306,-137.1824 682.5306,-156 682.5306,-156 682.5306,-156 600.6288,-156 600.6288,-156"/>
<polygon fill="#000000" stroke="#000000" points="600.6288,-152.5001 590.6288,-156 600.6287,-159.5001 600.6288,-152.5001"/>
</g>
<!-- ImageDirective -->
<g id="node5" class="node">
<title>ImageDirective</title>
<polygon fill="#ffffb3" stroke="#000000" points="598.5632,-122 495.4368,-122 495.4368,-86 598.5632,-86 598.5632,-122"/>
<text text-anchor="middle" x="547" y="-99.8" font-family="Times,serif" font-size="14.00" fill="#000000">ImageDirective</text>
</g>
<!-- ImageDirective&#45;&gt;FilesModule -->
<g id="edge5" class="edge">
<title>ImageDirective&#45;&gt;FilesModule</title>
<path fill="none" stroke="#000000" d="M547,-122.1061C547,-122.1061 547,-140.991 547,-140.991"/>
<polygon fill="#000000" stroke="#000000" points="543.5001,-140.9909 547,-150.991 550.5001,-140.991 543.5001,-140.9909"/>
</g>
<!-- UploadComponent -->
<g id="node6" class="node">
<title>UploadComponent</title>
<polygon fill="#ffffb3" stroke="#000000" points="477.045,-122 354.955,-122 354.955,-86 477.045,-86 477.045,-122"/>
<text text-anchor="middle" x="416" y="-99.8" font-family="Times,serif" font-size="14.00" fill="#000000">UploadComponent</text>
</g>
<!-- UploadComponent&#45;&gt;FilesModule -->
<g id="edge6" class="edge">
<title>UploadComponent&#45;&gt;FilesModule</title>
<path fill="none" stroke="#000000" d="M406.2363,-122.1871C406.2363,-137.1824 406.2363,-156 406.2363,-156 406.2363,-156 493.6177,-156 493.6177,-156"/>
<polygon fill="#000000" stroke="#000000" points="493.6177,-159.5001 503.6177,-156 493.6176,-152.5001 493.6177,-159.5001"/>
</g>
<!-- AssetListComponent  -->
<g id="node10" class="node">
<title>AssetListComponent </title>
<polygon fill="#fb8072" stroke="#000000" points="1099.7121,-252 962.2879,-252 962.2879,-216 1099.7121,-216 1099.7121,-252"/>
<text text-anchor="middle" x="1031" y="-229.8" font-family="Times,serif" font-size="14.00" fill="#000000">AssetListComponent </text>
</g>
<!-- FilesModule&#45;&gt;AssetListComponent  -->
<g id="edge9" class="edge">
<title>FilesModule&#45;&gt;AssetListComponent </title>
<path fill="none" stroke="#000000" stroke-dasharray="5,2" d="M590.3764,-174C705.1536,-174 1008.0707,-174 1008.0707,-174 1008.0707,-174 1008.0707,-205.998 1008.0707,-205.998"/>
<polygon fill="#000000" stroke="#000000" points="1004.5707,-205.998 1008.0707,-215.998 1011.5707,-205.9981 1004.5707,-205.998"/>
</g>
<!-- AssetListPopComponent  -->
<g id="node11" class="node">
<title>AssetListPopComponent </title>
<polygon fill="#fb8072" stroke="#000000" points="943.9952,-252 784.0048,-252 784.0048,-216 943.9952,-216 943.9952,-252"/>
<text text-anchor="middle" x="864" y="-229.8" font-family="Times,serif" font-size="14.00" fill="#000000">AssetListPopComponent </text>
</g>
<!-- FilesModule&#45;&gt;AssetListPopComponent  -->
<g id="edge10" class="edge">
<title>FilesModule&#45;&gt;AssetListPopComponent </title>
<path fill="none" stroke="#000000" stroke-dasharray="5,2" d="M590.3289,-178C670.137,-178 832.2867,-178 832.2867,-178 832.2867,-178 832.2867,-205.973 832.2867,-205.973"/>
<polygon fill="#000000" stroke="#000000" points="828.7867,-205.973 832.2867,-215.973 835.7867,-205.973 828.7867,-205.973"/>
</g>
<!-- AssetSelectComponent  -->
<g id="node12" class="node">
<title>AssetSelectComponent </title>
<polygon fill="#fb8072" stroke="#000000" points="766.1411,-252 615.8589,-252 615.8589,-216 766.1411,-216 766.1411,-252"/>
<text text-anchor="middle" x="691" y="-229.8" font-family="Times,serif" font-size="14.00" fill="#000000">AssetSelectComponent </text>
</g>
<!-- FilesModule&#45;&gt;AssetSelectComponent  -->
<g id="edge11" class="edge">
<title>FilesModule&#45;&gt;AssetSelectComponent </title>
<path fill="none" stroke="#000000" stroke-dasharray="5,2" d="M590.4562,-183C618.3843,-183 649.4694,-183 649.4694,-183 649.4694,-183 649.4694,-205.8757 649.4694,-205.8757"/>
<polygon fill="#000000" stroke="#000000" points="645.9695,-205.8757 649.4694,-215.8757 652.9695,-205.8757 645.9695,-205.8757"/>
</g>
<!-- AssetDirective  -->
<g id="node13" class="node">
<title>AssetDirective </title>
<polygon fill="#fb8072" stroke="#000000" points="598.1843,-252 495.8157,-252 495.8157,-216 598.1843,-216 598.1843,-252"/>
<text text-anchor="middle" x="547" y="-229.8" font-family="Times,serif" font-size="14.00" fill="#000000">AssetDirective </text>
</g>
<!-- FilesModule&#45;&gt;AssetDirective  -->
<g id="edge12" class="edge">
<title>FilesModule&#45;&gt;AssetDirective </title>
<path fill="none" stroke="#000000" stroke-dasharray="5,2" d="M547,-187.1061C547,-187.1061 547,-205.991 547,-205.991"/>
<polygon fill="#000000" stroke="#000000" points="543.5001,-205.9909 547,-215.991 550.5001,-205.991 543.5001,-205.9909"/>
</g>
<!-- ImageDirective  -->
<g id="node14" class="node">
<title>ImageDirective </title>
<polygon fill="#fb8072" stroke="#000000" points="477.0641,-252 370.9359,-252 370.9359,-216 477.0641,-216 477.0641,-252"/>
<text text-anchor="middle" x="424" y="-229.8" font-family="Times,serif" font-size="14.00" fill="#000000">ImageDirective </text>
</g>
<!-- FilesModule&#45;&gt;ImageDirective  -->
<g id="edge13" class="edge">
<title>FilesModule&#45;&gt;ImageDirective </title>
<path fill="none" stroke="#000000" stroke-dasharray="5,2" d="M503.5849,-183C474.5937,-183 441.7542,-183 441.7542,-183 441.7542,-183 441.7542,-205.8757 441.7542,-205.8757"/>
<polygon fill="#000000" stroke="#000000" points="438.2543,-205.8757 441.7542,-215.8757 445.2543,-205.8757 438.2543,-205.8757"/>
</g>
<!-- UploadComponent  -->
<g id="node15" class="node">
<title>UploadComponent </title>
<polygon fill="#fb8072" stroke="#000000" points="353.0442,-252 226.9558,-252 226.9558,-216 353.0442,-216 353.0442,-252"/>
<text text-anchor="middle" x="290" y="-229.8" font-family="Times,serif" font-size="14.00" fill="#000000">UploadComponent </text>
</g>
<!-- FilesModule&#45;&gt;UploadComponent  -->
<g id="edge14" class="edge">
<title>FilesModule&#45;&gt;UploadComponent </title>
<path fill="none" stroke="#000000" stroke-dasharray="5,2" d="M503.5031,-178C443.2972,-178 341.8978,-178 341.8978,-178 341.8978,-178 341.8978,-205.973 341.8978,-205.973"/>
<polygon fill="#000000" stroke="#000000" points="338.3979,-205.973 341.8978,-215.973 345.3979,-205.973 338.3979,-205.973"/>
</g>
<!-- SdkModule  -->
<g id="node16" class="node">
<title>SdkModule </title>
<polygon fill="#fb8072" stroke="#000000" points="209.3326,-252 124.6674,-252 124.6674,-216 209.3326,-216 209.3326,-252"/>
<text text-anchor="middle" x="167" y="-229.8" font-family="Times,serif" font-size="14.00" fill="#000000">SdkModule </text>
</g>
<!-- FilesModule&#45;&gt;SdkModule  -->
<g id="edge15" class="edge">
<title>FilesModule&#45;&gt;SdkModule </title>
<path fill="none" stroke="#000000" stroke-dasharray="5,2" d="M503.5593,-174C407.1743,-174 183.875,-174 183.875,-174 183.875,-174 183.875,-205.998 183.875,-205.998"/>
<polygon fill="#000000" stroke="#000000" points="180.3751,-205.998 183.875,-215.998 187.3751,-205.9981 180.3751,-205.998"/>
</g>
<!-- UiModule -->
<g id="node8" class="node">
<title>UiModule</title>
<polygon fill="#8dd3c7" stroke="#000000" points="330.5484,-122 327.5484,-126 306.5484,-126 303.5484,-122 257.4516,-122 257.4516,-86 330.5484,-86 330.5484,-122"/>
<text text-anchor="middle" x="294" y="-99.8" font-family="Times,serif" font-size="14.00" fill="#000000">UiModule</text>
</g>
<!-- UiModule&#45;&gt;FilesModule -->
<g id="edge7" class="edge">
<title>UiModule&#45;&gt;FilesModule</title>
<path fill="none" stroke="#000000" d="M294,-122.027C294,-138.3976 294,-160 294,-160 294,-160 493.5077,-160 493.5077,-160"/>
<polygon fill="#000000" stroke="#000000" points="493.5078,-163.5001 503.5077,-160 493.5077,-156.5001 493.5078,-163.5001"/>
</g>
<!-- SdkModule -->
<g id="node9" class="node">
<title>SdkModule</title>
<polygon fill="#8dd3c7" stroke="#000000" points="239.8331,-122 236.8331,-126 215.8331,-126 212.8331,-122 158.1669,-122 158.1669,-86 239.8331,-86 239.8331,-122"/>
<text text-anchor="middle" x="199" y="-99.8" font-family="Times,serif" font-size="14.00" fill="#000000">SdkModule</text>
</g>
<!-- SdkModule&#45;&gt;FilesModule -->
<g id="edge8" class="edge">
<title>SdkModule&#45;&gt;FilesModule</title>
<path fill="none" stroke="#000000" d="M233.3221,-122.302C233.3221,-140.2699 233.3221,-165 233.3221,-165 233.3221,-165 493.7138,-165 493.7138,-165"/>
<polygon fill="#000000" stroke="#000000" points="493.7138,-168.5001 503.7138,-165 493.7137,-161.5001 493.7138,-168.5001"/>
</g>
<!-- FileService -->
<g id="node17" class="node">
<title>FileService</title>
<ellipse fill="#fdb462" stroke="#000000" cx="79" cy="-104" rx="55.0285" ry="18"/>
<text text-anchor="middle" x="79" y="-99.8" font-family="Times,serif" font-size="14.00" fill="#000000">FileService</text>
</g>
<!-- FileService&#45;&gt;FilesModule -->
<g id="edge16" class="edge">
<title>FileService&#45;&gt;FilesModule</title>
<path fill="none" stroke="#000000" d="M129.299,-111.4563C129.299,-128.5297 129.299,-169 129.299,-169 129.299,-169 493.4808,-169 493.4808,-169"/>
<polygon fill="#000000" stroke="#000000" points="493.4808,-172.5001 503.4808,-169 493.4807,-165.5001 493.4808,-172.5001"/>
</g>
</g>
</svg>
