<?xml version="1.0" encoding="UTF-8" standalone="no"?>
<!DOCTYPE svg PUBLIC "-//W3C//DTD SVG 1.1//EN"
 "http://www.w3.org/Graphics/SVG/1.1/DTD/svg11.dtd">
<!-- Generated by graphviz version 2.40.1 (20161225.0304)
 -->
<!-- Title: dependencies Pages: 1 -->
<svg width="1100pt" height="284pt"
 viewBox="0.00 0.00 1100.00 284.00" xmlns="http://www.w3.org/2000/svg" xmlns:xlink="http://www.w3.org/1999/xlink">
<g id="graph0" class="graph" transform="scale(1 1) rotate(0) translate(4 280)">
<title>dependencies</title>
<polygon fill="#ffffff" stroke="transparent" points="-4,4 -4,-280 1096,-280 1096,4 -4,4"/>
<text text-anchor="start" x="525.0091" y="-42.4" font-family="sans-serif" font-weight="bold" font-size="14.00" fill="#000000">Legend</text>
<polygon fill="#ffffb3" stroke="transparent" points="312,-10 312,-30 332,-30 332,-10 312,-10"/>
<text text-anchor="start" x="335.629" y="-15.4" font-family="sans-serif" font-size="14.00" fill="#000000"> &#160;Declarations</text>
<polygon fill="#8dd3c7" stroke="transparent" points="425,-10 425,-30 445,-30 445,-10 425,-10"/>
<text text-anchor="start" x="448.7251" y="-15.4" font-family="sans-serif" font-size="14.00" fill="#000000"> &#160;Module</text>
<polygon fill="#80b1d3" stroke="transparent" points="511,-10 511,-30 531,-30 531,-10 511,-10"/>
<text text-anchor="start" x="534.7812" y="-15.4" font-family="sans-serif" font-size="14.00" fill="#000000"> &#160;Bootstrap</text>
<polygon fill="#fdb462" stroke="transparent" points="608,-10 608,-30 628,-30 628,-10 608,-10"/>
<text text-anchor="start" x="631.6732" y="-15.4" font-family="sans-serif" font-size="14.00" fill="#000000"> &#160;Providers</text>
<polygon fill="#fb8072" stroke="transparent" points="704,-10 704,-30 724,-30 724,-10 704,-10"/>
<text text-anchor="start" x="727.7258" y="-15.4" font-family="sans-serif" font-size="14.00" fill="#000000"> &#160;Exports</text>
<g id="clust1" class="cluster">
<title>cluster_FilesModule</title>
<polygon fill="none" stroke="#000000" stroke-dasharray="1,5" points="8,-70 8,-268 1084,-268 1084,-70 8,-70"/>
</g>
<g id="clust2" class="cluster">
<title>cluster_FilesModule_declarations</title>
<polygon fill="none" stroke="#000000" points="347,-78 347,-130 1076,-130 1076,-78 347,-78"/>
</g>
<g id="clust8" class="cluster">
<title>cluster_FilesModule_imports</title>
<polygon fill="none" stroke="#000000" points="150,-78 150,-130 339,-130 339,-78 150,-78"/>
</g>
<g id="clust9" class="cluster">
<title>cluster_FilesModule_exports</title>
<polygon fill="none" stroke="#000000" points="98,-208 98,-260 947,-260 947,-208 98,-208"/>
</g>
<g id="clust11" class="cluster">
<title>cluster_FilesModule_providers</title>
<polygon fill="none" stroke="#000000" points="16,-78 16,-130 142,-130 142,-78 16,-78"/>
</g>
<!-- AssetListComponent -->
<g id="node1" class="node">
<title>AssetListComponent</title>
<polygon fill="#ffffb3" stroke="#000000" points="1068.212,-122 933.788,-122 933.788,-86 1068.212,-86 1068.212,-122"/>
<text text-anchor="middle" x="1001" y="-99.8" font-family="Times,serif" font-size="14.00" fill="#000000">AssetListComponent</text>
</g>
<!-- FilesModule -->
<g id="node6" class="node">
<title>FilesModule</title>
<polygon fill="#8dd3c7" stroke="#000000" points="518.2731,-187 515.2731,-191 494.2731,-191 491.2731,-187 431.7269,-187 431.7269,-151 518.2731,-151 518.2731,-187"/>
<text text-anchor="middle" x="475" y="-164.8" font-family="Times,serif" font-size="14.00" fill="#000000">FilesModule</text>
</g>
<!-- AssetListComponent&#45;&gt;FilesModule -->
<g id="edge1" class="edge">
<title>AssetListComponent&#45;&gt;FilesModule</title>
<path fill="none" stroke="#000000" d="M1003.4809,-122.1061C1003.4809,-141.3391 1003.4809,-169 1003.4809,-169 1003.4809,-169 528.6974,-169 528.6974,-169"/>
<polygon fill="#000000" stroke="#000000" points="528.6975,-165.5001 518.6974,-169 528.6974,-172.5001 528.6975,-165.5001"/>
</g>
<!-- AssetSelectComponent -->
<g id="node2" class="node">
<title>AssetSelectComponent</title>
<polygon fill="#ffffb3" stroke="#000000" points="916.1414,-122 769.8586,-122 769.8586,-86 916.1414,-86 916.1414,-122"/>
<text text-anchor="middle" x="843" y="-99.8" font-family="Times,serif" font-size="14.00" fill="#000000">AssetSelectComponent</text>
</g>
<!-- AssetSelectComponent&#45;&gt;FilesModule -->
<g id="edge2" class="edge">
<title>AssetSelectComponent&#45;&gt;FilesModule</title>
<path fill="none" stroke="#000000" d="M776.375,-122.0225C776.375,-139.3734 776.375,-163 776.375,-163 776.375,-163 528.5007,-163 528.5007,-163"/>
<polygon fill="#000000" stroke="#000000" points="528.5007,-159.5001 518.5007,-163 528.5006,-166.5001 528.5007,-159.5001"/>
</g>
<!-- PublicAssetDirective -->
<g id="node3" class="node">
<title>PublicAssetDirective</title>
<polygon fill="#ffffb3" stroke="#000000" points="751.4622,-122 616.5378,-122 616.5378,-86 751.4622,-86 751.4622,-122"/>
<text text-anchor="middle" x="684" y="-99.8" font-family="Times,serif" font-size="14.00" fill="#000000">PublicAssetDirective</text>
</g>
<!-- PublicAssetDirective&#45;&gt;FilesModule -->
<g id="edge3" class="edge">
<title>PublicAssetDirective&#45;&gt;FilesModule</title>
<path fill="none" stroke="#000000" d="M624.7242,-122.2396C624.7242,-137.5706 624.7242,-157 624.7242,-157 624.7242,-157 528.3064,-157 528.3064,-157"/>
<polygon fill="#000000" stroke="#000000" points="528.3065,-153.5001 518.3064,-157 528.3064,-160.5001 528.3065,-153.5001"/>
</g>
<!-- ImageDirective -->
<g id="node4" class="node">
<title>ImageDirective</title>
<polygon fill="#ffffb3" stroke="#000000" points="598.5632,-122 495.4368,-122 495.4368,-86 598.5632,-86 598.5632,-122"/>
<text text-anchor="middle" x="547" y="-99.8" font-family="Times,serif" font-size="14.00" fill="#000000">ImageDirective</text>
</g>
<!-- ImageDirective&#45;&gt;FilesModule -->
<g id="edge4" class="edge">
<title>ImageDirective&#45;&gt;FilesModule</title>
<path fill="none" stroke="#000000" d="M506.9274,-122.1061C506.9274,-122.1061 506.9274,-140.991 506.9274,-140.991"/>
<polygon fill="#000000" stroke="#000000" points="503.4275,-140.9909 506.9274,-150.991 510.4275,-140.991 503.4275,-140.9909"/>
</g>
<!-- UploadComponent -->
<g id="node5" class="node">
<title>UploadComponent</title>
<polygon fill="#ffffb3" stroke="#000000" points="477.045,-122 354.955,-122 354.955,-86 477.045,-86 477.045,-122"/>
<text text-anchor="middle" x="416" y="-99.8" font-family="Times,serif" font-size="14.00" fill="#000000">UploadComponent</text>
</g>
<!-- UploadComponent&#45;&gt;FilesModule -->
<g id="edge5" class="edge">
<title>UploadComponent&#45;&gt;FilesModule</title>
<path fill="none" stroke="#000000" d="M454.4429,-122.1061C454.4429,-122.1061 454.4429,-140.991 454.4429,-140.991"/>
<polygon fill="#000000" stroke="#000000" points="450.9429,-140.9909 454.4429,-150.991 457.9429,-140.991 450.9429,-140.9909"/>
</g>
<!-- AssetListComponent  -->
<g id="node9" class="node">
<title>AssetListComponent </title>
<polygon fill="#fb8072" stroke="#000000" points="938.7121,-252 801.2879,-252 801.2879,-216 938.7121,-216 938.7121,-252"/>
<text text-anchor="middle" x="870" y="-229.8" font-family="Times,serif" font-size="14.00" fill="#000000">AssetListComponent </text>
</g>
<!-- FilesModule&#45;&gt;AssetListComponent  -->
<g id="edge8" class="edge">
<title>FilesModule&#45;&gt;AssetListComponent </title>
<path fill="none" stroke="#000000" stroke-dasharray="5,2" d="M518.6454,-175C619.2213,-175 858.7323,-175 858.7323,-175 858.7323,-175 858.7323,-205.9775 858.7323,-205.9775"/>
<polygon fill="#000000" stroke="#000000" points="855.2324,-205.9774 858.7323,-215.9775 862.2324,-205.9775 855.2324,-205.9774"/>
</g>
<!-- AssetSelectComponent  -->
<g id="node10" class="node">
<title>AssetSelectComponent </title>
<polygon fill="#fb8072" stroke="#000000" points="783.1411,-252 632.8589,-252 632.8589,-216 783.1411,-216 783.1411,-252"/>
<text text-anchor="middle" x="708" y="-229.8" font-family="Times,serif" font-size="14.00" fill="#000000">AssetSelectComponent </text>
</g>
<!-- FilesModule&#45;&gt;AssetSelectComponent  -->
<g id="edge9" class="edge">
<title>FilesModule&#45;&gt;AssetSelectComponent </title>
<path fill="none" stroke="#000000" stroke-dasharray="5,2" d="M518.4327,-181C581.8187,-181 692.2053,-181 692.2053,-181 692.2053,-181 692.2053,-205.7604 692.2053,-205.7604"/>
<polygon fill="#000000" stroke="#000000" points="688.7054,-205.7604 692.2053,-215.7604 695.7054,-205.7604 688.7054,-205.7604"/>
</g>
<!-- PublicAssetDirective  -->
<g id="node11" class="node">
<title>PublicAssetDirective </title>
<polygon fill="#fb8072" stroke="#000000" points="615.463,-252 476.537,-252 476.537,-216 615.463,-216 615.463,-252"/>
<text text-anchor="middle" x="546" y="-229.8" font-family="Times,serif" font-size="14.00" fill="#000000">PublicAssetDirective </text>
</g>
<!-- FilesModule&#45;&gt;PublicAssetDirective  -->
<g id="edge10" class="edge">
<title>FilesModule&#45;&gt;PublicAssetDirective </title>
<path fill="none" stroke="#000000" stroke-dasharray="5,2" d="M497.5777,-187.1061C497.5777,-187.1061 497.5777,-205.991 497.5777,-205.991"/>
<polygon fill="#000000" stroke="#000000" points="494.0777,-205.9909 497.5777,-215.991 501.0777,-205.991 494.0777,-205.9909"/>
</g>
<!-- ImageDirective  -->
<g id="node12" class="node">
<title>ImageDirective </title>
<polygon fill="#fb8072" stroke="#000000" points="458.0641,-252 351.9359,-252 351.9359,-216 458.0641,-216 458.0641,-252"/>
<text text-anchor="middle" x="405" y="-229.8" font-family="Times,serif" font-size="14.00" fill="#000000">ImageDirective </text>
</g>
<!-- FilesModule&#45;&gt;ImageDirective  -->
<g id="edge11" class="edge">
<title>FilesModule&#45;&gt;ImageDirective </title>
<path fill="none" stroke="#000000" stroke-dasharray="5,2" d="M444.9476,-187.1061C444.9476,-187.1061 444.9476,-205.991 444.9476,-205.991"/>
<polygon fill="#000000" stroke="#000000" points="441.4477,-205.9909 444.9476,-215.991 448.4477,-205.991 441.4477,-205.9909"/>
</g>
<!-- UploadComponent  -->
<g id="node13" class="node">
<title>UploadComponent </title>
<polygon fill="#fb8072" stroke="#000000" points="334.0442,-252 207.9558,-252 207.9558,-216 334.0442,-216 334.0442,-252"/>
<text text-anchor="middle" x="271" y="-229.8" font-family="Times,serif" font-size="14.00" fill="#000000">UploadComponent </text>
</g>
<!-- FilesModule&#45;&gt;UploadComponent  -->
<g id="edge12" class="edge">
<title>FilesModule&#45;&gt;UploadComponent </title>
<path fill="none" stroke="#000000" stroke-dasharray="5,2" d="M431.6292,-181C374.6503,-181 281.7422,-181 281.7422,-181 281.7422,-181 281.7422,-205.7604 281.7422,-205.7604"/>
<polygon fill="#000000" stroke="#000000" points="278.2423,-205.7604 281.7422,-215.7604 285.2423,-205.7604 278.2423,-205.7604"/>
</g>
<!-- SdkModule  -->
<g id="node14" class="node">
<title>SdkModule </title>
<polygon fill="#fb8072" stroke="#000000" points="190.3326,-252 105.6674,-252 105.6674,-216 190.3326,-216 190.3326,-252"/>
<text text-anchor="middle" x="148" y="-229.8" font-family="Times,serif" font-size="14.00" fill="#000000">SdkModule </text>
</g>
<!-- FilesModule&#45;&gt;SdkModule  -->
<g id="edge13" class="edge">
<title>FilesModule&#45;&gt;SdkModule </title>
<path fill="none" stroke="#000000" stroke-dasharray="5,2" d="M431.6076,-175C348.3553,-175 174.375,-175 174.375,-175 174.375,-175 174.375,-205.9775 174.375,-205.9775"/>
<polygon fill="#000000" stroke="#000000" points="170.8751,-205.9774 174.375,-215.9775 177.8751,-205.9775 170.8751,-205.9774"/>
</g>
<!-- UiModule -->
<g id="node7" class="node">
<title>UiModule</title>
<polygon fill="#8dd3c7" stroke="#000000" points="330.5484,-122 327.5484,-126 306.5484,-126 303.5484,-122 257.4516,-122 257.4516,-86 330.5484,-86 330.5484,-122"/>
<text text-anchor="middle" x="294" y="-99.8" font-family="Times,serif" font-size="14.00" fill="#000000">UiModule</text>
</g>
<!-- UiModule&#45;&gt;FilesModule -->
<g id="edge6" class="edge">
<title>UiModule&#45;&gt;FilesModule</title>
<path fill="none" stroke="#000000" d="M306.2578,-122.2396C306.2578,-137.5706 306.2578,-157 306.2578,-157 306.2578,-157 421.5447,-157 421.5447,-157"/>
<polygon fill="#000000" stroke="#000000" points="421.5447,-160.5001 431.5447,-157 421.5447,-153.5001 421.5447,-160.5001"/>
</g>
<!-- SdkModule -->
<g id="node8" class="node">
<title>SdkModule</title>
<polygon fill="#8dd3c7" stroke="#000000" points="239.8331,-122 236.8331,-126 215.8331,-126 212.8331,-122 158.1669,-122 158.1669,-86 239.8331,-86 239.8331,-122"/>
<text text-anchor="middle" x="199" y="-99.8" font-family="Times,serif" font-size="14.00" fill="#000000">SdkModule</text>
</g>
<!-- SdkModule&#45;&gt;FilesModule -->
<g id="edge7" class="edge">
<title>SdkModule&#45;&gt;FilesModule</title>
<path fill="none" stroke="#000000" d="M223.8221,-122.0225C223.8221,-139.3734 223.8221,-163 223.8221,-163 223.8221,-163 421.5349,-163 421.5349,-163"/>
<polygon fill="#000000" stroke="#000000" points="421.5349,-166.5001 431.5349,-163 421.5349,-159.5001 421.5349,-166.5001"/>
</g>
<!-- FileService -->
<g id="node15" class="node">
<title>FileService</title>
<ellipse fill="#fdb462" stroke="#000000" cx="79" cy="-104" rx="55.0285" ry="18"/>
<text text-anchor="middle" x="79" y="-99.8" font-family="Times,serif" font-size="14.00" fill="#000000">FileService</text>
</g>
<!-- FileService&#45;&gt;FilesModule -->
<g id="edge14" class="edge">
<title>FileService&#45;&gt;FilesModule</title>
<path fill="none" stroke="#000000" d="M119.799,-116.226C119.799,-135.0549 119.799,-169 119.799,-169 119.799,-169 421.4454,-169 421.4454,-169"/>
<polygon fill="#000000" stroke="#000000" points="421.4454,-172.5001 431.4454,-169 421.4454,-165.5001 421.4454,-172.5001"/>
</g>
</g>
</svg>
