<?xml version="1.0" encoding="UTF-8" standalone="no"?>
<!DOCTYPE svg PUBLIC "-//W3C//DTD SVG 1.1//EN"
 "http://www.w3.org/Graphics/SVG/1.1/DTD/svg11.dtd">
<!-- Generated by graphviz version 2.40.1 (20161225.0304)
 -->
<!-- Title: dependencies Pages: 1 -->
<svg width="2071pt" height="284pt"
 viewBox="0.00 0.00 2071.00 284.00" xmlns="http://www.w3.org/2000/svg" xmlns:xlink="http://www.w3.org/1999/xlink">
<g id="graph0" class="graph" transform="scale(1 1) rotate(0) translate(4 280)">
<title>dependencies</title>
<polygon fill="#ffffff" stroke="transparent" points="-4,4 -4,-280 2067,-280 2067,4 -4,4"/>
<text text-anchor="start" x="1010.5091" y="-42.4" font-family="sans-serif" font-weight="bold" font-size="14.00" fill="#000000">Legend</text>
<polygon fill="#ffffb3" stroke="transparent" points="797.5,-10 797.5,-30 817.5,-30 817.5,-10 797.5,-10"/>
<text text-anchor="start" x="821.129" y="-15.4" font-family="sans-serif" font-size="14.00" fill="#000000"> &#160;Declarations</text>
<polygon fill="#8dd3c7" stroke="transparent" points="910.5,-10 910.5,-30 930.5,-30 930.5,-10 910.5,-10"/>
<text text-anchor="start" x="934.2251" y="-15.4" font-family="sans-serif" font-size="14.00" fill="#000000"> &#160;Module</text>
<polygon fill="#80b1d3" stroke="transparent" points="996.5,-10 996.5,-30 1016.5,-30 1016.5,-10 996.5,-10"/>
<text text-anchor="start" x="1020.2812" y="-15.4" font-family="sans-serif" font-size="14.00" fill="#000000"> &#160;Bootstrap</text>
<polygon fill="#fdb462" stroke="transparent" points="1093.5,-10 1093.5,-30 1113.5,-30 1113.5,-10 1093.5,-10"/>
<text text-anchor="start" x="1117.1732" y="-15.4" font-family="sans-serif" font-size="14.00" fill="#000000"> &#160;Providers</text>
<polygon fill="#fb8072" stroke="transparent" points="1189.5,-10 1189.5,-30 1209.5,-30 1209.5,-10 1189.5,-10"/>
<text text-anchor="start" x="1213.2258" y="-15.4" font-family="sans-serif" font-size="14.00" fill="#000000"> &#160;Exports</text>
<g id="clust1" class="cluster">
<title>cluster_FilesModule</title>
<polygon fill="none" stroke="#000000" stroke-dasharray="1,5" points="8,-70 8,-268 2055,-268 2055,-70 8,-70"/>
</g>
<g id="clust2" class="cluster">
<title>cluster_FilesModule_declarations</title>
<polygon fill="none" stroke="#000000" points="476,-78 476,-130 2047,-130 2047,-78 476,-78"/>
</g>
<g id="clust13" class="cluster">
<title>cluster_FilesModule_imports</title>
<polygon fill="none" stroke="#000000" points="150,-78 150,-130 468,-130 468,-78 150,-78"/>
</g>
<g id="clust14" class="cluster">
<title>cluster_FilesModule_exports</title>
<polygon fill="none" stroke="#000000" points="149,-208 149,-260 1857,-260 1857,-208 149,-208"/>
</g>
<g id="clust16" class="cluster">
<title>cluster_FilesModule_providers</title>
<polygon fill="none" stroke="#000000" points="16,-78 16,-130 142,-130 142,-78 16,-78"/>
</g>
<!-- AssetDirective -->
<g id="node1" class="node">
<title>AssetDirective</title>
<polygon fill="#ffffb3" stroke="#000000" points="2038.684,-122 1939.316,-122 1939.316,-86 2038.684,-86 2038.684,-122"/>
<text text-anchor="middle" x="1989" y="-99.8" font-family="Times,serif" font-size="14.00" fill="#000000">AssetDirective</text>
</g>
<!-- FilesModule -->
<g id="node11" class="node">
<title>FilesModule</title>
<polygon fill="#8dd3c7" stroke="#000000" points="1006.2731,-187 1003.2731,-191 982.2731,-191 979.2731,-187 919.7269,-187 919.7269,-151 1006.2731,-151 1006.2731,-187"/>
<text text-anchor="middle" x="963" y="-164.8" font-family="Times,serif" font-size="14.00" fill="#000000">FilesModule</text>
</g>
<!-- AssetDirective&#45;&gt;FilesModule -->
<g id="edge1" class="edge">
<title>AssetDirective&#45;&gt;FilesModule</title>
<path fill="none" stroke="#000000" d="M1989,-122.1061C1989,-141.3391 1989,-169 1989,-169 1989,-169 1016.4306,-169 1016.4306,-169"/>
<polygon fill="#000000" stroke="#000000" points="1016.4306,-165.5001 1006.4306,-169 1016.4306,-172.5001 1016.4306,-165.5001"/>
</g>
<!-- AssetListComponent -->
<g id="node2" class="node">
<title>AssetListComponent</title>
<polygon fill="#ffffb3" stroke="#000000" points="1921.212,-122 1786.788,-122 1786.788,-86 1921.212,-86 1921.212,-122"/>
<text text-anchor="middle" x="1854" y="-99.8" font-family="Times,serif" font-size="14.00" fill="#000000">AssetListComponent</text>
</g>
<!-- AssetListComponent&#45;&gt;FilesModule -->
<g id="edge2" class="edge">
<title>AssetListComponent&#45;&gt;FilesModule</title>
<path fill="none" stroke="#000000" d="M1818.118,-122.2667C1818.118,-140.5552 1818.118,-166 1818.118,-166 1818.118,-166 1016.2858,-166 1016.2858,-166"/>
<polygon fill="#000000" stroke="#000000" points="1016.2858,-162.5001 1006.2858,-166 1016.2858,-169.5001 1016.2858,-162.5001"/>
</g>
<!-- AssetListPopComponent -->
<g id="node3" class="node">
<title>AssetListPopComponent</title>
<polygon fill="#ffffb3" stroke="#000000" points="1768.9944,-122 1613.0056,-122 1613.0056,-86 1768.9944,-86 1768.9944,-122"/>
<text text-anchor="middle" x="1691" y="-99.8" font-family="Times,serif" font-size="14.00" fill="#000000">AssetListPopComponent</text>
</g>
<!-- AssetListPopComponent&#45;&gt;FilesModule -->
<g id="edge3" class="edge">
<title>AssetListPopComponent&#45;&gt;FilesModule</title>
<path fill="none" stroke="#000000" d="M1670.9293,-122.0225C1670.9293,-139.3734 1670.9293,-163 1670.9293,-163 1670.9293,-163 1016.4838,-163 1016.4838,-163"/>
<polygon fill="#000000" stroke="#000000" points="1016.4839,-159.5001 1006.4838,-163 1016.4838,-166.5001 1016.4839,-159.5001"/>
</g>
<!-- AssetSelectComponent -->
<g id="node4" class="node">
<title>AssetSelectComponent</title>
<polygon fill="#ffffb3" stroke="#000000" points="1595.1414,-122 1448.8586,-122 1448.8586,-86 1595.1414,-86 1595.1414,-122"/>
<text text-anchor="middle" x="1522" y="-99.8" font-family="Times,serif" font-size="14.00" fill="#000000">AssetSelectComponent</text>
</g>
<!-- AssetSelectComponent&#45;&gt;FilesModule -->
<g id="edge4" class="edge">
<title>AssetSelectComponent&#45;&gt;FilesModule</title>
<path fill="none" stroke="#000000" d="M1510.7134,-122.027C1510.7134,-138.3976 1510.7134,-160 1510.7134,-160 1510.7134,-160 1016.436,-160 1016.436,-160"/>
<polygon fill="#000000" stroke="#000000" points="1016.436,-156.5001 1006.436,-160 1016.4359,-163.5001 1016.436,-156.5001"/>
</g>
<!-- AssetgroupSelectComponent -->
<g id="node5" class="node">
<title>AssetgroupSelectComponent</title>
<polygon fill="#ffffb3" stroke="#000000" points="1430.8019,-122 1251.1981,-122 1251.1981,-86 1430.8019,-86 1430.8019,-122"/>
<text text-anchor="middle" x="1341" y="-99.8" font-family="Times,serif" font-size="14.00" fill="#000000">AssetgroupSelectComponent</text>
</g>
<!-- AssetgroupSelectComponent&#45;&gt;FilesModule -->
<g id="edge5" class="edge">
<title>AssetgroupSelectComponent&#45;&gt;FilesModule</title>
<path fill="none" stroke="#000000" d="M1299.2563,-122.2396C1299.2563,-137.5706 1299.2563,-157 1299.2563,-157 1299.2563,-157 1016.6149,-157 1016.6149,-157"/>
<polygon fill="#000000" stroke="#000000" points="1016.6149,-153.5001 1006.6149,-157 1016.6149,-160.5001 1016.6149,-153.5001"/>
</g>
<!-- DropzoneDirective -->
<g id="node6" class="node">
<title>DropzoneDirective</title>
<polygon fill="#ffffb3" stroke="#000000" points="1233.7795,-122 1110.2205,-122 1110.2205,-86 1233.7795,-86 1233.7795,-122"/>
<text text-anchor="middle" x="1172" y="-99.8" font-family="Times,serif" font-size="14.00" fill="#000000">DropzoneDirective</text>
</g>
<!-- DropzoneDirective&#45;&gt;FilesModule -->
<g id="edge6" class="edge">
<title>DropzoneDirective&#45;&gt;FilesModule</title>
<path fill="none" stroke="#000000" d="M1168.8806,-122.0511C1168.8806,-136.373 1168.8806,-154 1168.8806,-154 1168.8806,-154 1016.4104,-154 1016.4104,-154"/>
<polygon fill="#000000" stroke="#000000" points="1016.4104,-150.5001 1006.4104,-154 1016.4104,-157.5001 1016.4104,-150.5001"/>
</g>
<!-- ImageDirective -->
<g id="node7" class="node">
<title>ImageDirective</title>
<polygon fill="#ffffb3" stroke="#000000" points="1092.5632,-122 989.4368,-122 989.4368,-86 1092.5632,-86 1092.5632,-122"/>
<text text-anchor="middle" x="1041" y="-99.8" font-family="Times,serif" font-size="14.00" fill="#000000">ImageDirective</text>
</g>
<!-- ImageDirective&#45;&gt;FilesModule -->
<g id="edge7" class="edge">
<title>ImageDirective&#45;&gt;FilesModule</title>
<path fill="none" stroke="#000000" d="M997.9274,-122.1061C997.9274,-122.1061 997.9274,-140.991 997.9274,-140.991"/>
<polygon fill="#000000" stroke="#000000" points="994.4275,-140.9909 997.9274,-150.991 1001.4275,-140.991 994.4275,-140.9909"/>
</g>
<!-- ImageSelectPopComponent -->
<g id="node8" class="node">
<title>ImageSelectPopComponent</title>
<polygon fill="#ffffb3" stroke="#000000" points="971.3033,-122 798.6967,-122 798.6967,-86 971.3033,-86 971.3033,-122"/>
<text text-anchor="middle" x="885" y="-99.8" font-family="Times,serif" font-size="14.00" fill="#000000">ImageSelectPopComponent</text>
</g>
<!-- ImageSelectPopComponent&#45;&gt;FilesModule -->
<g id="edge8" class="edge">
<title>ImageSelectPopComponent&#45;&gt;FilesModule</title>
<path fill="none" stroke="#000000" d="M945.3826,-122.1061C945.3826,-122.1061 945.3826,-140.991 945.3826,-140.991"/>
<polygon fill="#000000" stroke="#000000" points="941.8826,-140.9909 945.3826,-150.991 948.8826,-140.991 941.8826,-140.9909"/>
</g>
<!-- UploadComponent -->
<g id="node9" class="node">
<title>UploadComponent</title>
<polygon fill="#ffffb3" stroke="#000000" points="781.045,-122 658.955,-122 658.955,-86 781.045,-86 781.045,-122"/>
<text text-anchor="middle" x="720" y="-99.8" font-family="Times,serif" font-size="14.00" fill="#000000">UploadComponent</text>
</g>
<!-- UploadComponent&#45;&gt;FilesModule -->
<g id="edge9" class="edge">
<title>UploadComponent&#45;&gt;FilesModule</title>
<path fill="none" stroke="#000000" d="M765.81,-122.0511C765.81,-136.373 765.81,-154 765.81,-154 765.81,-154 909.7258,-154 909.7258,-154"/>
<polygon fill="#000000" stroke="#000000" points="909.7258,-157.5001 919.7258,-154 909.7258,-150.5001 909.7258,-157.5001"/>
</g>
<!-- UploadSelectComponent -->
<g id="node10" class="node">
<title>UploadSelectComponent</title>
<polygon fill="#ffffb3" stroke="#000000" points="640.252,-122 483.748,-122 483.748,-86 640.252,-86 640.252,-122"/>
<text text-anchor="middle" x="562" y="-99.8" font-family="Times,serif" font-size="14.00" fill="#000000">UploadSelectComponent</text>
</g>
<!-- UploadSelectComponent&#45;&gt;FilesModule -->
<g id="edge10" class="edge">
<title>UploadSelectComponent&#45;&gt;FilesModule</title>
<path fill="none" stroke="#000000" d="M610.7372,-122.2396C610.7372,-137.5706 610.7372,-157 610.7372,-157 610.7372,-157 909.4524,-157 909.4524,-157"/>
<polygon fill="#000000" stroke="#000000" points="909.4524,-160.5001 919.4524,-157 909.4523,-153.5001 909.4524,-160.5001"/>
</g>
<!-- AssetDirective  -->
<g id="node15" class="node">
<title>AssetDirective </title>
<polygon fill="#fb8072" stroke="#000000" points="1849.1843,-252 1746.8157,-252 1746.8157,-216 1849.1843,-216 1849.1843,-252"/>
<text text-anchor="middle" x="1798" y="-229.8" font-family="Times,serif" font-size="14.00" fill="#000000">AssetDirective </text>
</g>
<!-- FilesModule&#45;&gt;AssetDirective  -->
<g id="edge14" class="edge">
<title>FilesModule&#45;&gt;AssetDirective </title>
<path fill="none" stroke="#000000" stroke-dasharray="5,2" d="M1006.2978,-172C1172.1606,-172 1757.8277,-172 1757.8277,-172 1757.8277,-172 1757.8277,-205.7333 1757.8277,-205.7333"/>
<polygon fill="#000000" stroke="#000000" points="1754.3277,-205.7333 1757.8277,-215.7333 1761.3277,-205.7333 1754.3277,-205.7333"/>
</g>
<!-- AssetListComponent  -->
<g id="node16" class="node">
<title>AssetListComponent </title>
<polygon fill="#fb8072" stroke="#000000" points="1728.7121,-252 1591.2879,-252 1591.2879,-216 1728.7121,-216 1728.7121,-252"/>
<text text-anchor="middle" x="1660" y="-229.8" font-family="Times,serif" font-size="14.00" fill="#000000">AssetListComponent </text>
</g>
<!-- FilesModule&#45;&gt;AssetListComponent  -->
<g id="edge15" class="edge">
<title>FilesModule&#45;&gt;AssetListComponent </title>
<path fill="none" stroke="#000000" stroke-dasharray="5,2" d="M1006.3145,-175C1150.3473,-175 1604.1617,-175 1604.1617,-175 1604.1617,-175 1604.1617,-205.9775 1604.1617,-205.9775"/>
<polygon fill="#000000" stroke="#000000" points="1600.6617,-205.9774 1604.1617,-215.9775 1607.6617,-205.9775 1600.6617,-205.9774"/>
</g>
<!-- AssetListPopComponent  -->
<g id="node17" class="node">
<title>AssetListPopComponent </title>
<polygon fill="#fb8072" stroke="#000000" points="1572.9952,-252 1413.0048,-252 1413.0048,-216 1572.9952,-216 1572.9952,-252"/>
<text text-anchor="middle" x="1493" y="-229.8" font-family="Times,serif" font-size="14.00" fill="#000000">AssetListPopComponent </text>
</g>
<!-- FilesModule&#45;&gt;AssetListPopComponent  -->
<g id="edge16" class="edge">
<title>FilesModule&#45;&gt;AssetListPopComponent </title>
<path fill="none" stroke="#000000" stroke-dasharray="5,2" d="M1006.5908,-178C1121.1529,-178 1421.9518,-178 1421.9518,-178 1421.9518,-178 1421.9518,-205.973 1421.9518,-205.973"/>
<polygon fill="#000000" stroke="#000000" points="1418.4519,-205.973 1421.9518,-215.973 1425.4519,-205.973 1418.4519,-205.973"/>
</g>
<!-- AssetSelectComponent  -->
<g id="node18" class="node">
<title>AssetSelectComponent </title>
<polygon fill="#fb8072" stroke="#000000" points="1395.1411,-252 1244.8589,-252 1244.8589,-216 1395.1411,-216 1395.1411,-252"/>
<text text-anchor="middle" x="1320" y="-229.8" font-family="Times,serif" font-size="14.00" fill="#000000">AssetSelectComponent </text>
</g>
<!-- FilesModule&#45;&gt;AssetSelectComponent  -->
<g id="edge17" class="edge">
<title>FilesModule&#45;&gt;AssetSelectComponent </title>
<path fill="none" stroke="#000000" stroke-dasharray="5,2" d="M1006.3217,-181C1106.7902,-181 1347.1634,-181 1347.1634,-181 1347.1634,-181 1347.1634,-205.7604 1347.1634,-205.7604"/>
<polygon fill="#000000" stroke="#000000" points="1343.6635,-205.7604 1347.1634,-215.7604 1350.6635,-205.7604 1343.6635,-205.7604"/>
</g>
<!-- AssetgroupSelectComponent  -->
<g id="node19" class="node">
<title>AssetgroupSelectComponent </title>
<polygon fill="#fb8072" stroke="#000000" points="1227.3017,-252 1044.6983,-252 1044.6983,-216 1227.3017,-216 1227.3017,-252"/>
<text text-anchor="middle" x="1136" y="-229.8" font-family="Times,serif" font-size="14.00" fill="#000000">AssetgroupSelectComponent </text>
</g>
<!-- FilesModule&#45;&gt;AssetgroupSelectComponent  -->
<g id="edge18" class="edge">
<title>FilesModule&#45;&gt;AssetgroupSelectComponent </title>
<path fill="none" stroke="#000000" stroke-dasharray="5,2" d="M1006.547,-184C1035.6261,-184 1068.5654,-184 1068.5654,-184 1068.5654,-184 1068.5654,-205.9489 1068.5654,-205.9489"/>
<polygon fill="#000000" stroke="#000000" points="1065.0655,-205.9488 1068.5654,-215.9489 1072.0655,-205.9489 1065.0655,-205.9488"/>
</g>
<!-- DropzoneDirective  -->
<g id="node20" class="node">
<title>DropzoneDirective </title>
<polygon fill="#fb8072" stroke="#000000" points="1026.2794,-252 899.7206,-252 899.7206,-216 1026.2794,-216 1026.2794,-252"/>
<text text-anchor="middle" x="963" y="-229.8" font-family="Times,serif" font-size="14.00" fill="#000000">DropzoneDirective </text>
</g>
<!-- FilesModule&#45;&gt;DropzoneDirective  -->
<g id="edge19" class="edge">
<title>FilesModule&#45;&gt;DropzoneDirective </title>
<path fill="none" stroke="#000000" stroke-dasharray="5,2" d="M963,-187.1061C963,-187.1061 963,-205.991 963,-205.991"/>
<polygon fill="#000000" stroke="#000000" points="959.5001,-205.9909 963,-215.991 966.5001,-205.991 959.5001,-205.9909"/>
</g>
<!-- ImageDirective  -->
<g id="node21" class="node">
<title>ImageDirective </title>
<polygon fill="#fb8072" stroke="#000000" points="881.0641,-252 774.9359,-252 774.9359,-216 881.0641,-216 881.0641,-252"/>
<text text-anchor="middle" x="828" y="-229.8" font-family="Times,serif" font-size="14.00" fill="#000000">ImageDirective </text>
</g>
<!-- FilesModule&#45;&gt;ImageDirective  -->
<g id="edge20" class="edge">
<title>FilesModule&#45;&gt;ImageDirective </title>
<path fill="none" stroke="#000000" stroke-dasharray="5,2" d="M919.6577,-184C884.264,-184 840.0651,-184 840.0651,-184 840.0651,-184 840.0651,-205.9489 840.0651,-205.9489"/>
<polygon fill="#000000" stroke="#000000" points="836.5651,-205.9488 840.0651,-215.9489 843.5651,-205.9489 836.5651,-205.9488"/>
</g>
<!-- ImageSelectPopComponent  -->
<g id="node22" class="node">
<title>ImageSelectPopComponent </title>
<polygon fill="#fb8072" stroke="#000000" points="756.8031,-252 581.1969,-252 581.1969,-216 756.8031,-216 756.8031,-252"/>
<text text-anchor="middle" x="669" y="-229.8" font-family="Times,serif" font-size="14.00" fill="#000000">ImageSelectPopComponent </text>
</g>
<!-- FilesModule&#45;&gt;ImageSelectPopComponent  -->
<g id="edge21" class="edge">
<title>FilesModule&#45;&gt;ImageSelectPopComponent </title>
<path fill="none" stroke="#000000" stroke-dasharray="5,2" d="M919.7113,-181C846.9058,-181 707.8147,-181 707.8147,-181 707.8147,-181 707.8147,-205.7604 707.8147,-205.7604"/>
<polygon fill="#000000" stroke="#000000" points="704.3148,-205.7604 707.8147,-215.7604 711.3148,-205.7604 704.3148,-205.7604"/>
</g>
<!-- SdkModule  -->
<g id="node23" class="node">
<title>SdkModule </title>
<polygon fill="#fb8072" stroke="#000000" points="563.3326,-252 478.6674,-252 478.6674,-216 563.3326,-216 563.3326,-252"/>
<text text-anchor="middle" x="521" y="-229.8" font-family="Times,serif" font-size="14.00" fill="#000000">SdkModule </text>
</g>
<!-- FilesModule&#45;&gt;SdkModule  -->
<g id="edge22" class="edge">
<title>FilesModule&#45;&gt;SdkModule </title>
<path fill="none" stroke="#000000" stroke-dasharray="5,2" d="M919.6582,-178C808.7841,-178 523.5202,-178 523.5202,-178 523.5202,-178 523.5202,-205.973 523.5202,-205.973"/>
<polygon fill="#000000" stroke="#000000" points="520.0202,-205.973 523.5202,-215.973 527.0202,-205.973 520.0202,-205.973"/>
</g>
<!-- UploadComponent  -->
<g id="node24" class="node">
<title>UploadComponent </title>
<polygon fill="#fb8072" stroke="#000000" points="461.0442,-252 334.9558,-252 334.9558,-216 461.0442,-216 461.0442,-252"/>
<text text-anchor="middle" x="398" y="-229.8" font-family="Times,serif" font-size="14.00" fill="#000000">UploadComponent </text>
</g>
<!-- FilesModule&#45;&gt;UploadComponent  -->
<g id="edge23" class="edge">
<title>FilesModule&#45;&gt;UploadComponent </title>
<path fill="none" stroke="#000000" stroke-dasharray="5,2" d="M919.5857,-175C785.2568,-175 385.3941,-175 385.3941,-175 385.3941,-175 385.3941,-205.9775 385.3941,-205.9775"/>
<polygon fill="#000000" stroke="#000000" points="381.8942,-205.9774 385.3941,-215.9775 388.8942,-205.9775 381.8942,-205.9774"/>
</g>
<!-- UploadSelectComponent  -->
<g id="node25" class="node">
<title>UploadSelectComponent </title>
<polygon fill="#fb8072" stroke="#000000" points="317.252,-252 156.748,-252 156.748,-216 317.252,-216 317.252,-252"/>
<text text-anchor="middle" x="237" y="-229.8" font-family="Times,serif" font-size="14.00" fill="#000000">UploadSelectComponent </text>
</g>
<!-- FilesModule&#45;&gt;UploadSelectComponent  -->
<g id="edge24" class="edge">
<title>FilesModule&#45;&gt;UploadSelectComponent </title>
<path fill="none" stroke="#000000" stroke-dasharray="5,2" d="M919.7028,-172C769.9724,-172 283.2298,-172 283.2298,-172 283.2298,-172 283.2298,-205.7333 283.2298,-205.7333"/>
<polygon fill="#000000" stroke="#000000" points="279.7298,-205.7333 283.2299,-215.7333 286.7298,-205.7333 279.7298,-205.7333"/>
</g>
<!-- ResourceModule -->
<g id="node12" class="node">
<title>ResourceModule</title>
<polygon fill="#8dd3c7" stroke="#000000" points="459.636,-122 456.636,-126 435.636,-126 432.636,-122 348.364,-122 348.364,-86 459.636,-86 459.636,-122"/>
<text text-anchor="middle" x="404" y="-99.8" font-family="Times,serif" font-size="14.00" fill="#000000">ResourceModule</text>
</g>
<!-- ResourceModule&#45;&gt;FilesModule -->
<g id="edge11" class="edge">
<title>ResourceModule&#45;&gt;FilesModule</title>
<path fill="none" stroke="#000000" d="M422.6059,-122.027C422.6059,-138.3976 422.6059,-160 422.6059,-160 422.6059,-160 909.6908,-160 909.6908,-160"/>
<polygon fill="#000000" stroke="#000000" points="909.6908,-163.5001 919.6908,-160 909.6907,-156.5001 909.6908,-163.5001"/>
</g>
<!-- SdkModule -->
<g id="node13" class="node">
<title>SdkModule</title>
<polygon fill="#8dd3c7" stroke="#000000" points="330.8331,-122 327.8331,-126 306.8331,-126 303.8331,-122 249.1669,-122 249.1669,-86 330.8331,-86 330.8331,-122"/>
<text text-anchor="middle" x="290" y="-99.8" font-family="Times,serif" font-size="14.00" fill="#000000">SdkModule</text>
</g>
<!-- SdkModule&#45;&gt;FilesModule -->
<g id="edge12" class="edge">
<title>SdkModule&#45;&gt;FilesModule</title>
<path fill="none" stroke="#000000" d="M323.8961,-122.0225C323.8961,-139.3734 323.8961,-163 323.8961,-163 323.8961,-163 909.5742,-163 909.5742,-163"/>
<polygon fill="#000000" stroke="#000000" points="909.5743,-166.5001 919.5742,-163 909.5742,-159.5001 909.5743,-166.5001"/>
</g>
<!-- UiModule -->
<g id="node14" class="node">
<title>UiModule</title>
<polygon fill="#8dd3c7" stroke="#000000" points="231.5484,-122 228.5484,-126 207.5484,-126 204.5484,-122 158.4516,-122 158.4516,-86 231.5484,-86 231.5484,-122"/>
<text text-anchor="middle" x="195" y="-99.8" font-family="Times,serif" font-size="14.00" fill="#000000">UiModule</text>
</g>
<!-- UiModule&#45;&gt;FilesModule -->
<g id="edge13" class="edge">
<title>UiModule&#45;&gt;FilesModule</title>
<path fill="none" stroke="#000000" d="M195,-122.2667C195,-140.5552 195,-166 195,-166 195,-166 909.5085,-166 909.5085,-166"/>
<polygon fill="#000000" stroke="#000000" points="909.5085,-169.5001 919.5085,-166 909.5085,-162.5001 909.5085,-169.5001"/>
</g>
<!-- FileService -->
<g id="node26" class="node">
<title>FileService</title>
<ellipse fill="#fdb462" stroke="#000000" cx="79" cy="-104" rx="55.0285" ry="18"/>
<text text-anchor="middle" x="79" y="-99.8" font-family="Times,serif" font-size="14.00" fill="#000000">FileService</text>
</g>
<!-- FileService&#45;&gt;FilesModule -->
<g id="edge25" class="edge">
<title>FileService&#45;&gt;FilesModule</title>
<path fill="none" stroke="#000000" d="M79,-122.1061C79,-141.3391 79,-169 79,-169 79,-169 909.4638,-169 909.4638,-169"/>
<polygon fill="#000000" stroke="#000000" points="909.4639,-172.5001 919.4638,-169 909.4638,-165.5001 909.4639,-172.5001"/>
</g>
</g>
</svg>
