<?xml version="1.0" encoding="UTF-8" standalone="no"?>
<!DOCTYPE svg PUBLIC "-//W3C//DTD SVG 1.1//EN"
 "http://www.w3.org/Graphics/SVG/1.1/DTD/svg11.dtd">
<!-- Generated by graphviz version 2.47.0 (20210316.0004)
 -->
<!-- Title: dependencies Pages: 1 -->
<svg width="2227pt" height="284pt"
 viewBox="0.00 0.00 2227.00 284.00" xmlns="http://www.w3.org/2000/svg" xmlns:xlink="http://www.w3.org/1999/xlink">
<g id="graph0" class="graph" transform="scale(1 1) rotate(0) translate(4 280)">
<title>dependencies</title>
<polygon fill="white" stroke="transparent" points="-4,4 -4,-280 2223,-280 2223,4 -4,4"/>
<text text-anchor="start" x="1088.51" y="-42.4" font-family="sans-serif" font-weight="bold" font-size="14.00">Legend</text>
<polygon fill="#ffffb3" stroke="transparent" points="875.5,-10 875.5,-30 895.5,-30 895.5,-10 875.5,-10"/>
<text text-anchor="start" x="899.13" y="-15.4" font-family="sans-serif" font-size="14.00"> &#160;Declarations</text>
<polygon fill="#8dd3c7" stroke="transparent" points="988.5,-10 988.5,-30 1008.5,-30 1008.5,-10 988.5,-10"/>
<text text-anchor="start" x="1012.23" y="-15.4" font-family="sans-serif" font-size="14.00"> &#160;Module</text>
<polygon fill="#80b1d3" stroke="transparent" points="1074.5,-10 1074.5,-30 1094.5,-30 1094.5,-10 1074.5,-10"/>
<text text-anchor="start" x="1098.28" y="-15.4" font-family="sans-serif" font-size="14.00"> &#160;Bootstrap</text>
<polygon fill="#fdb462" stroke="transparent" points="1171.5,-10 1171.5,-30 1191.5,-30 1191.5,-10 1171.5,-10"/>
<text text-anchor="start" x="1195.17" y="-15.4" font-family="sans-serif" font-size="14.00"> &#160;Providers</text>
<polygon fill="#fb8072" stroke="transparent" points="1267.5,-10 1267.5,-30 1287.5,-30 1287.5,-10 1267.5,-10"/>
<text text-anchor="start" x="1291.23" y="-15.4" font-family="sans-serif" font-size="14.00"> &#160;Exports</text>
<g id="clust1" class="cluster">
<title>cluster_FilesModule</title>
<polygon fill="none" stroke="black" stroke-dasharray="1,5" points="8,-70 8,-268 2211,-268 2211,-70 8,-70"/>
</g>
<g id="clust2" class="cluster">
<title>cluster_FilesModule_declarations</title>
<polygon fill="none" stroke="black" points="476,-78 476,-130 2203,-130 2203,-78 476,-78"/>
</g>
<g id="clust14" class="cluster">
<title>cluster_FilesModule_imports</title>
<polygon fill="none" stroke="black" points="150,-78 150,-130 468,-130 468,-78 150,-78"/>
</g>
<g id="clust17" class="cluster">
<title>cluster_FilesModule_providers</title>
<polygon fill="none" stroke="black" points="16,-78 16,-130 142,-130 142,-78 16,-78"/>
</g>
<g id="clust15" class="cluster">
<title>cluster_FilesModule_exports</title>
<polygon fill="none" stroke="black" points="136,-208 136,-260 2003,-260 2003,-208 136,-208"/>
</g>
<!-- AssetDirective -->
<g id="node1" class="node">
<title>AssetDirective</title>
<polygon fill="#ffffb3" stroke="black" points="2194.68,-122 2095.32,-122 2095.32,-86 2194.68,-86 2194.68,-122"/>
<text text-anchor="middle" x="2145" y="-99.8" font-family="Times,serif" font-size="14.00">AssetDirective</text>
</g>
<!-- FilesModule -->
<g id="node12" class="node">
<title>FilesModule</title>
<polygon fill="#8dd3c7" stroke="black" points="1084.27,-187 1081.27,-191 1060.27,-191 1057.27,-187 997.73,-187 997.73,-151 1084.27,-151 1084.27,-187"/>
<text text-anchor="middle" x="1041" y="-164.8" font-family="Times,serif" font-size="14.00">FilesModule</text>
</g>
<!-- AssetDirective&#45;&gt;FilesModule -->
<g id="edge1" class="edge">
<title>AssetDirective&#45;&gt;FilesModule</title>
<path fill="none" stroke="black" d="M2145,-122.31C2145,-142.15 2145,-171 2145,-171 2145,-171 1094.28,-171 1094.28,-171"/>
<polygon fill="black" stroke="black" points="1094.28,-167.5 1084.28,-171 1094.28,-174.5 1094.28,-167.5"/>
</g>
<!-- AssetListComponent -->
<g id="node2" class="node">
<title>AssetListComponent</title>
<polygon fill="#ffffb3" stroke="black" points="2077.21,-122 1942.79,-122 1942.79,-86 2077.21,-86 2077.21,-122"/>
<text text-anchor="middle" x="2010" y="-99.8" font-family="Times,serif" font-size="14.00">AssetListComponent</text>
</g>
<!-- AssetListComponent&#45;&gt;FilesModule -->
<g id="edge2" class="edge">
<title>AssetListComponent&#45;&gt;FilesModule</title>
<path fill="none" stroke="black" d="M1969.12,-122.17C1969.12,-141.09 1969.12,-168 1969.12,-168 1969.12,-168 1094.52,-168 1094.52,-168"/>
<polygon fill="black" stroke="black" points="1094.52,-164.5 1084.52,-168 1094.52,-171.5 1094.52,-164.5"/>
</g>
<!-- AssetListPopComponent -->
<g id="node3" class="node">
<title>AssetListPopComponent</title>
<polygon fill="#ffffb3" stroke="black" points="1924.99,-122 1769.01,-122 1769.01,-86 1924.99,-86 1924.99,-122"/>
<text text-anchor="middle" x="1847" y="-99.8" font-family="Times,serif" font-size="14.00">AssetListPopComponent</text>
</g>
<!-- AssetListPopComponent&#45;&gt;FilesModule -->
<g id="edge3" class="edge">
<title>AssetListPopComponent&#45;&gt;FilesModule</title>
<path fill="none" stroke="black" d="M1821.93,-122.3C1821.93,-140.27 1821.93,-165 1821.93,-165 1821.93,-165 1094.38,-165 1094.38,-165"/>
<polygon fill="black" stroke="black" points="1094.38,-161.5 1084.38,-165 1094.38,-168.5 1094.38,-161.5"/>
</g>
<!-- AssetSelectComponent -->
<g id="node4" class="node">
<title>AssetSelectComponent</title>
<polygon fill="#ffffb3" stroke="black" points="1751.14,-122 1604.86,-122 1604.86,-86 1751.14,-86 1751.14,-122"/>
<text text-anchor="middle" x="1678" y="-99.8" font-family="Times,serif" font-size="14.00">AssetSelectComponent</text>
</g>
<!-- AssetSelectComponent&#45;&gt;FilesModule -->
<g id="edge4" class="edge">
<title>AssetSelectComponent&#45;&gt;FilesModule</title>
<path fill="none" stroke="black" d="M1661.71,-122.02C1661.71,-139.37 1661.71,-163 1661.71,-163 1661.71,-163 1094.65,-163 1094.65,-163"/>
<polygon fill="black" stroke="black" points="1094.65,-159.5 1084.65,-163 1094.65,-166.5 1094.65,-159.5"/>
</g>
<!-- AssetgroupSelectComponent -->
<g id="node5" class="node">
<title>AssetgroupSelectComponent</title>
<polygon fill="#ffffb3" stroke="black" points="1586.8,-122 1407.2,-122 1407.2,-86 1586.8,-86 1586.8,-122"/>
<text text-anchor="middle" x="1497" y="-99.8" font-family="Times,serif" font-size="14.00">AssetgroupSelectComponent</text>
</g>
<!-- AssetgroupSelectComponent&#45;&gt;FilesModule -->
<g id="edge5" class="edge">
<title>AssetgroupSelectComponent&#45;&gt;FilesModule</title>
<path fill="none" stroke="black" d="M1474.21,-122.03C1474.21,-138.4 1474.21,-160 1474.21,-160 1474.21,-160 1094.52,-160 1094.52,-160"/>
<polygon fill="black" stroke="black" points="1094.52,-156.5 1084.52,-160 1094.52,-163.5 1094.52,-156.5"/>
</g>
<!-- DropzoneDirective -->
<g id="node6" class="node">
<title>DropzoneDirective</title>
<polygon fill="#ffffb3" stroke="black" points="1389.78,-122 1266.22,-122 1266.22,-86 1389.78,-86 1389.78,-122"/>
<text text-anchor="middle" x="1328" y="-99.8" font-family="Times,serif" font-size="14.00">DropzoneDirective</text>
</g>
<!-- DropzoneDirective&#45;&gt;FilesModule -->
<g id="edge6" class="edge">
<title>DropzoneDirective&#45;&gt;FilesModule</title>
<path fill="none" stroke="black" d="M1319.88,-122.24C1319.88,-137.57 1319.88,-157 1319.88,-157 1319.88,-157 1094.58,-157 1094.58,-157"/>
<polygon fill="black" stroke="black" points="1094.58,-153.5 1084.58,-157 1094.58,-160.5 1094.58,-153.5"/>
</g>
<!-- ImageDirective -->
<g id="node7" class="node">
<title>ImageDirective</title>
<polygon fill="#ffffb3" stroke="black" points="1248.56,-122 1145.44,-122 1145.44,-86 1248.56,-86 1248.56,-122"/>
<text text-anchor="middle" x="1197" y="-99.8" font-family="Times,serif" font-size="14.00">ImageDirective</text>
</g>
<!-- ImageDirective&#45;&gt;FilesModule -->
<g id="edge7" class="edge">
<title>ImageDirective&#45;&gt;FilesModule</title>
<path fill="none" stroke="black" d="M1158.93,-122.05C1158.93,-136.37 1158.93,-154 1158.93,-154 1158.93,-154 1094.58,-154 1094.58,-154"/>
<polygon fill="black" stroke="black" points="1094.58,-150.5 1084.58,-154 1094.58,-157.5 1094.58,-150.5"/>
</g>
<!-- ImageSelectPopComponent -->
<g id="node8" class="node">
<title>ImageSelectPopComponent</title>
<polygon fill="#ffffb3" stroke="black" points="1127.3,-122 954.7,-122 954.7,-86 1127.3,-86 1127.3,-122"/>
<text text-anchor="middle" x="1041" y="-99.8" font-family="Times,serif" font-size="14.00">ImageSelectPopComponent</text>
</g>
<!-- ImageSelectPopComponent&#45;&gt;FilesModule -->
<g id="edge8" class="edge">
<title>ImageSelectPopComponent&#45;&gt;FilesModule</title>
<path fill="none" stroke="black" d="M1041,-122.11C1041,-122.11 1041,-140.99 1041,-140.99"/>
<polygon fill="black" stroke="black" points="1037.5,-140.99 1041,-150.99 1044.5,-140.99 1037.5,-140.99"/>
</g>
<!-- TagSelectComponent -->
<g id="node9" class="node">
<title>TagSelectComponent</title>
<polygon fill="#ffffb3" stroke="black" points="936.81,-122 799.19,-122 799.19,-86 936.81,-86 936.81,-122"/>
<text text-anchor="middle" x="868" y="-99.8" font-family="Times,serif" font-size="14.00">TagSelectComponent</text>
</g>
<!-- TagSelectComponent&#45;&gt;FilesModule -->
<g id="edge9" class="edge">
<title>TagSelectComponent&#45;&gt;FilesModule</title>
<path fill="none" stroke="black" d="M928.69,-122.05C928.69,-136.37 928.69,-154 928.69,-154 928.69,-154 987.58,-154 987.58,-154"/>
<polygon fill="black" stroke="black" points="987.58,-157.5 997.58,-154 987.58,-150.5 987.58,-157.5"/>
</g>
<!-- UploadComponent -->
<g id="node10" class="node">
<title>UploadComponent</title>
<polygon fill="#ffffb3" stroke="black" points="781.05,-122 658.95,-122 658.95,-86 781.05,-86 781.05,-122"/>
<text text-anchor="middle" x="720" y="-99.8" font-family="Times,serif" font-size="14.00">UploadComponent</text>
</g>
<!-- UploadComponent&#45;&gt;FilesModule -->
<g id="edge10" class="edge">
<title>UploadComponent&#45;&gt;FilesModule</title>
<path fill="none" stroke="black" d="M754.19,-122.24C754.19,-137.57 754.19,-157 754.19,-157 754.19,-157 987.44,-157 987.44,-157"/>
<polygon fill="black" stroke="black" points="987.44,-160.5 997.44,-157 987.44,-153.5 987.44,-160.5"/>
</g>
<!-- UploadSelectComponent -->
<g id="node11" class="node">
<title>UploadSelectComponent</title>
<polygon fill="#ffffb3" stroke="black" points="640.25,-122 483.75,-122 483.75,-86 640.25,-86 640.25,-122"/>
<text text-anchor="middle" x="562" y="-99.8" font-family="Times,serif" font-size="14.00">UploadSelectComponent</text>
</g>
<!-- UploadSelectComponent&#45;&gt;FilesModule -->
<g id="edge11" class="edge">
<title>UploadSelectComponent&#45;&gt;FilesModule</title>
<path fill="none" stroke="black" d="M632.48,-122.03C632.48,-138.4 632.48,-160 632.48,-160 632.48,-160 987.67,-160 987.67,-160"/>
<polygon fill="black" stroke="black" points="987.67,-163.5 997.67,-160 987.67,-156.5 987.67,-163.5"/>
</g>
<!-- AssetDirective  -->
<g id="node16" class="node">
<title>AssetDirective </title>
<polygon fill="#fb8072" stroke="black" points="1995.18,-252 1892.82,-252 1892.82,-216 1995.18,-216 1995.18,-252"/>
<text text-anchor="middle" x="1944" y="-229.8" font-family="Times,serif" font-size="14.00">AssetDirective </text>
</g>
<!-- FilesModule&#45;&gt;AssetDirective  -->
<g id="edge15" class="edge">
<title>FilesModule&#45;&gt;AssetDirective </title>
<path fill="none" stroke="black" stroke-dasharray="5,2" d="M1084.33,-174C1259.88,-174 1908.83,-174 1908.83,-174 1908.83,-174 1908.83,-206 1908.83,-206"/>
<polygon fill="black" stroke="black" points="1905.33,-206 1908.83,-216 1912.33,-206 1905.33,-206"/>
</g>
<!-- AssetListComponent  -->
<g id="node17" class="node">
<title>AssetListComponent </title>
<polygon fill="#fb8072" stroke="black" points="1874.71,-252 1737.29,-252 1737.29,-216 1874.71,-216 1874.71,-252"/>
<text text-anchor="middle" x="1806" y="-229.8" font-family="Times,serif" font-size="14.00">AssetListComponent </text>
</g>
<!-- FilesModule&#45;&gt;AssetListComponent  -->
<g id="edge16" class="edge">
<title>FilesModule&#45;&gt;AssetListComponent </title>
<path fill="none" stroke="black" stroke-dasharray="5,2" d="M1084.46,-176C1237.78,-176 1744.23,-176 1744.23,-176 1744.23,-176 1744.23,-205.97 1744.23,-205.97"/>
<polygon fill="black" stroke="black" points="1740.73,-205.97 1744.23,-215.97 1747.73,-205.97 1740.73,-205.97"/>
</g>
<!-- AssetListPopComponent  -->
<g id="node18" class="node">
<title>AssetListPopComponent </title>
<polygon fill="#fb8072" stroke="black" points="1719,-252 1559,-252 1559,-216 1719,-216 1719,-252"/>
<text text-anchor="middle" x="1639" y="-229.8" font-family="Times,serif" font-size="14.00">AssetListPopComponent </text>
</g>
<!-- FilesModule&#45;&gt;AssetListPopComponent  -->
<g id="edge17" class="edge">
<title>FilesModule&#45;&gt;AssetListPopComponent </title>
<path fill="none" stroke="black" stroke-dasharray="5,2" d="M1084.53,-179C1211.58,-179 1572.95,-179 1572.95,-179 1572.95,-179 1572.95,-205.99 1572.95,-205.99"/>
<polygon fill="black" stroke="black" points="1569.45,-205.99 1572.95,-215.99 1576.45,-205.99 1569.45,-205.99"/>
</g>
<!-- AssetSelectComponent  -->
<g id="node19" class="node">
<title>AssetSelectComponent </title>
<polygon fill="#fb8072" stroke="black" points="1541.14,-252 1390.86,-252 1390.86,-216 1541.14,-216 1541.14,-252"/>
<text text-anchor="middle" x="1466" y="-229.8" font-family="Times,serif" font-size="14.00">AssetSelectComponent </text>
</g>
<!-- FilesModule&#45;&gt;AssetSelectComponent  -->
<g id="edge18" class="edge">
<title>FilesModule&#45;&gt;AssetSelectComponent </title>
<path fill="none" stroke="black" stroke-dasharray="5,2" d="M1084.56,-182C1180,-182 1399.14,-182 1399.14,-182 1399.14,-182 1399.14,-205.81 1399.14,-205.81"/>
<polygon fill="black" stroke="black" points="1395.64,-205.81 1399.14,-215.81 1402.64,-205.81 1395.64,-205.81"/>
</g>
<!-- AssetgroupSelectComponent  -->
<g id="node20" class="node">
<title>AssetgroupSelectComponent </title>
<polygon fill="#fb8072" stroke="black" points="1373.3,-252 1190.7,-252 1190.7,-216 1373.3,-216 1373.3,-252"/>
<text text-anchor="middle" x="1282" y="-229.8" font-family="Times,serif" font-size="14.00">AssetgroupSelectComponent </text>
</g>
<!-- FilesModule&#45;&gt;AssetgroupSelectComponent  -->
<g id="edge19" class="edge">
<title>FilesModule&#45;&gt;AssetgroupSelectComponent </title>
<path fill="none" stroke="black" stroke-dasharray="5,2" d="M1084.68,-185C1137.55,-185 1219.57,-185 1219.57,-185 1219.57,-185 1219.57,-205.75 1219.57,-205.75"/>
<polygon fill="black" stroke="black" points="1216.07,-205.75 1219.57,-215.75 1223.07,-205.75 1216.07,-205.75"/>
</g>
<!-- DropzoneDirective  -->
<g id="node21" class="node">
<title>DropzoneDirective </title>
<polygon fill="#fb8072" stroke="black" points="1172.28,-252 1045.72,-252 1045.72,-216 1172.28,-216 1172.28,-252"/>
<text text-anchor="middle" x="1109" y="-229.8" font-family="Times,serif" font-size="14.00">DropzoneDirective </text>
</g>
<!-- FilesModule&#45;&gt;DropzoneDirective  -->
<g id="edge20" class="edge">
<title>FilesModule&#45;&gt;DropzoneDirective </title>
<path fill="none" stroke="black" stroke-dasharray="5,2" d="M1065,-187.11C1065,-187.11 1065,-205.99 1065,-205.99"/>
<polygon fill="black" stroke="black" points="1061.5,-205.99 1065,-215.99 1068.5,-205.99 1061.5,-205.99"/>
</g>
<!-- ImageDirective  -->
<g id="node22" class="node">
<title>ImageDirective </title>
<polygon fill="#fb8072" stroke="black" points="1027.06,-252 920.94,-252 920.94,-216 1027.06,-216 1027.06,-252"/>
<text text-anchor="middle" x="974" y="-229.8" font-family="Times,serif" font-size="14.00">ImageDirective </text>
</g>
<!-- FilesModule&#45;&gt;ImageDirective  -->
<g id="edge21" class="edge">
<title>FilesModule&#45;&gt;ImageDirective </title>
<path fill="none" stroke="black" stroke-dasharray="5,2" d="M1012.45,-187.11C1012.45,-187.11 1012.45,-205.99 1012.45,-205.99"/>
<polygon fill="black" stroke="black" points="1008.95,-205.99 1012.45,-215.99 1015.95,-205.99 1008.95,-205.99"/>
</g>
<!-- ImageSelectPopComponent  -->
<g id="node23" class="node">
<title>ImageSelectPopComponent </title>
<polygon fill="#fb8072" stroke="black" points="902.8,-252 727.2,-252 727.2,-216 902.8,-216 902.8,-252"/>
<text text-anchor="middle" x="815" y="-229.8" font-family="Times,serif" font-size="14.00">ImageSelectPopComponent </text>
</g>
<!-- FilesModule&#45;&gt;ImageSelectPopComponent  -->
<g id="edge22" class="edge">
<title>FilesModule&#45;&gt;ImageSelectPopComponent </title>
<path fill="none" stroke="black" stroke-dasharray="5,2" d="M997.44,-185C941.38,-185 851.12,-185 851.12,-185 851.12,-185 851.12,-205.75 851.12,-205.75"/>
<polygon fill="black" stroke="black" points="847.62,-205.75 851.12,-215.75 854.62,-205.75 847.62,-205.75"/>
</g>
<!-- SdkModule  -->
<g id="node24" class="node">
<title>SdkModule </title>
<polygon fill="#fb8072" stroke="black" points="709.33,-252 624.67,-252 624.67,-216 709.33,-216 709.33,-252"/>
<text text-anchor="middle" x="667" y="-229.8" font-family="Times,serif" font-size="14.00">SdkModule </text>
</g>
<!-- FilesModule&#45;&gt;SdkModule  -->
<g id="edge23" class="edge">
<title>FilesModule&#45;&gt;SdkModule </title>
<path fill="none" stroke="black" stroke-dasharray="5,2" d="M997.59,-182C902.47,-182 684.07,-182 684.07,-182 684.07,-182 684.07,-205.81 684.07,-205.81"/>
<polygon fill="black" stroke="black" points="680.57,-205.81 684.07,-215.81 687.57,-205.81 680.57,-205.81"/>
</g>
<!-- TagSelectComponent  -->
<g id="node25" class="node">
<title>TagSelectComponent </title>
<polygon fill="#fb8072" stroke="black" points="606.31,-252 465.69,-252 465.69,-216 606.31,-216 606.31,-252"/>
<text text-anchor="middle" x="536" y="-229.8" font-family="Times,serif" font-size="14.00">TagSelectComponent </text>
</g>
<!-- FilesModule&#45;&gt;TagSelectComponent  -->
<g id="edge24" class="edge">
<title>FilesModule&#45;&gt;TagSelectComponent </title>
<path fill="none" stroke="black" stroke-dasharray="5,2" d="M997.42,-179C876.39,-179 545.01,-179 545.01,-179 545.01,-179 545.01,-205.99 545.01,-205.99"/>
<polygon fill="black" stroke="black" points="541.51,-205.99 545.01,-215.99 548.51,-205.99 541.51,-205.99"/>
</g>
<!-- UploadComponent  -->
<g id="node26" class="node">
<title>UploadComponent </title>
<polygon fill="#fb8072" stroke="black" points="448.04,-252 321.96,-252 321.96,-216 448.04,-216 448.04,-252"/>
<text text-anchor="middle" x="385" y="-229.8" font-family="Times,serif" font-size="14.00">UploadComponent </text>
</g>
<!-- FilesModule&#45;&gt;UploadComponent  -->
<g id="edge25" class="edge">
<title>FilesModule&#45;&gt;UploadComponent </title>
<path fill="none" stroke="black" stroke-dasharray="5,2" d="M997.57,-176C853.15,-176 398.1,-176 398.1,-176 398.1,-176 398.1,-205.97 398.1,-205.97"/>
<polygon fill="black" stroke="black" points="394.6,-205.97 398.1,-215.97 401.6,-205.97 394.6,-205.97"/>
</g>
<!-- UploadSelectComponent  -->
<g id="node27" class="node">
<title>UploadSelectComponent </title>
<polygon fill="#fb8072" stroke="black" points="304.25,-252 143.75,-252 143.75,-216 304.25,-216 304.25,-252"/>
<text text-anchor="middle" x="224" y="-229.8" font-family="Times,serif" font-size="14.00">UploadSelectComponent </text>
</g>
<!-- FilesModule&#45;&gt;UploadSelectComponent  -->
<g id="edge26" class="edge">
<title>FilesModule&#45;&gt;UploadSelectComponent </title>
<path fill="none" stroke="black" stroke-dasharray="5,2" d="M997.72,-174C836.04,-174 276.73,-174 276.73,-174 276.73,-174 276.73,-206 276.73,-206"/>
<polygon fill="black" stroke="black" points="273.23,-206 276.73,-216 280.23,-206 273.23,-206"/>
</g>
<!-- ResourceModule -->
<g id="node13" class="node">
<title>ResourceModule</title>
<polygon fill="#8dd3c7" stroke="black" points="459.64,-122 456.64,-126 435.64,-126 432.64,-122 348.36,-122 348.36,-86 459.64,-86 459.64,-122"/>
<text text-anchor="middle" x="404" y="-99.8" font-family="Times,serif" font-size="14.00">ResourceModule</text>
</g>
<!-- ResourceModule&#45;&gt;FilesModule -->
<g id="edge12" class="edge">
<title>ResourceModule&#45;&gt;FilesModule</title>
<path fill="none" stroke="black" d="M453.92,-122.02C453.92,-139.37 453.92,-163 453.92,-163 453.92,-163 987.35,-163 987.35,-163"/>
<polygon fill="black" stroke="black" points="987.35,-166.5 997.35,-163 987.35,-159.5 987.35,-166.5"/>
</g>
<!-- SdkModule -->
<g id="node14" class="node">
<title>SdkModule</title>
<polygon fill="#8dd3c7" stroke="black" points="330.83,-122 327.83,-126 306.83,-126 303.83,-122 249.17,-122 249.17,-86 330.83,-86 330.83,-122"/>
<text text-anchor="middle" x="290" y="-99.8" font-family="Times,serif" font-size="14.00">SdkModule</text>
</g>
<!-- SdkModule&#45;&gt;FilesModule -->
<g id="edge13" class="edge">
<title>SdkModule&#45;&gt;FilesModule</title>
<path fill="none" stroke="black" d="M326.32,-122.3C326.32,-140.27 326.32,-165 326.32,-165 326.32,-165 987.64,-165 987.64,-165"/>
<polygon fill="black" stroke="black" points="987.64,-168.5 997.64,-165 987.64,-161.5 987.64,-168.5"/>
</g>
<!-- UiModule -->
<g id="node15" class="node">
<title>UiModule</title>
<polygon fill="#8dd3c7" stroke="black" points="231.55,-122 228.55,-126 207.55,-126 204.55,-122 158.45,-122 158.45,-86 231.55,-86 231.55,-122"/>
<text text-anchor="middle" x="195" y="-99.8" font-family="Times,serif" font-size="14.00">UiModule</text>
</g>
<!-- UiModule&#45;&gt;FilesModule -->
<g id="edge14" class="edge">
<title>UiModule&#45;&gt;FilesModule</title>
<path fill="none" stroke="black" d="M195,-122.17C195,-141.09 195,-168 195,-168 195,-168 987.59,-168 987.59,-168"/>
<polygon fill="black" stroke="black" points="987.59,-171.5 997.59,-168 987.59,-164.5 987.59,-171.5"/>
</g>
<!-- FileService -->
<g id="node28" class="node">
<title>FileService</title>
<ellipse fill="#fdb462" stroke="black" cx="79" cy="-104" rx="55.03" ry="18"/>
<text text-anchor="middle" x="79" y="-99.8" font-family="Times,serif" font-size="14.00">FileService</text>
</g>
<!-- FileService&#45;&gt;FilesModule -->
<g id="edge27" class="edge">
<title>FileService&#45;&gt;FilesModule</title>
<path fill="none" stroke="black" d="M79,-122.31C79,-142.15 79,-171 79,-171 79,-171 987.48,-171 987.48,-171"/>
<polygon fill="black" stroke="black" points="987.48,-174.5 997.48,-171 987.48,-167.5 987.48,-174.5"/>
</g>
</g>
</svg>
