<?xml version="1.0" encoding="UTF-8" standalone="no"?>
<!DOCTYPE svg PUBLIC "-//W3C//DTD SVG 1.1//EN"
 "http://www.w3.org/Graphics/SVG/1.1/DTD/svg11.dtd">
<!-- Generated by graphviz version 2.40.1 (20161225.0304)
 -->
<!-- Title: dependencies Pages: 1 -->
<svg width="985pt" height="284pt"
 viewBox="0.00 0.00 985.00 284.00" xmlns="http://www.w3.org/2000/svg" xmlns:xlink="http://www.w3.org/1999/xlink">
<g id="graph0" class="graph" transform="scale(1 1) rotate(0) translate(4 280)">
<title>dependencies</title>
<polygon fill="#ffffff" stroke="transparent" points="-4,4 -4,-280 981,-280 981,4 -4,4"/>
<text text-anchor="start" x="467.5091" y="-42.4" font-family="sans-serif" font-weight="bold" font-size="14.00" fill="#000000">Legend</text>
<polygon fill="#ffffb3" stroke="transparent" points="254.5,-10 254.5,-30 274.5,-30 274.5,-10 254.5,-10"/>
<text text-anchor="start" x="278.129" y="-15.4" font-family="sans-serif" font-size="14.00" fill="#000000"> &#160;Declarations</text>
<polygon fill="#8dd3c7" stroke="transparent" points="367.5,-10 367.5,-30 387.5,-30 387.5,-10 367.5,-10"/>
<text text-anchor="start" x="391.2251" y="-15.4" font-family="sans-serif" font-size="14.00" fill="#000000"> &#160;Module</text>
<polygon fill="#80b1d3" stroke="transparent" points="453.5,-10 453.5,-30 473.5,-30 473.5,-10 453.5,-10"/>
<text text-anchor="start" x="477.2812" y="-15.4" font-family="sans-serif" font-size="14.00" fill="#000000"> &#160;Bootstrap</text>
<polygon fill="#fdb462" stroke="transparent" points="550.5,-10 550.5,-30 570.5,-30 570.5,-10 550.5,-10"/>
<text text-anchor="start" x="574.1732" y="-15.4" font-family="sans-serif" font-size="14.00" fill="#000000"> &#160;Providers</text>
<polygon fill="#fb8072" stroke="transparent" points="646.5,-10 646.5,-30 666.5,-30 666.5,-10 646.5,-10"/>
<text text-anchor="start" x="670.2258" y="-15.4" font-family="sans-serif" font-size="14.00" fill="#000000"> &#160;Exports</text>
<g id="clust1" class="cluster">
<title>cluster_FilesModule</title>
<polygon fill="none" stroke="#000000" stroke-dasharray="1,5" points="8,-70 8,-268 969,-268 969,-70 8,-70"/>
</g>
<g id="clust2" class="cluster">
<title>cluster_FilesModule_declarations</title>
<polygon fill="none" stroke="#000000" points="347,-78 347,-130 961,-130 961,-78 347,-78"/>
</g>
<g id="clust7" class="cluster">
<title>cluster_FilesModule_imports</title>
<polygon fill="none" stroke="#000000" points="150,-78 150,-130 339,-130 339,-78 150,-78"/>
</g>
<g id="clust8" class="cluster">
<title>cluster_FilesModule_exports</title>
<polygon fill="none" stroke="#000000" points="89,-208 89,-260 821,-260 821,-208 89,-208"/>
</g>
<g id="clust10" class="cluster">
<title>cluster_FilesModule_providers</title>
<polygon fill="none" stroke="#000000" points="16,-78 16,-130 142,-130 142,-78 16,-78"/>
</g>
<!-- AssetListComponent -->
<g id="node1" class="node">
<title>AssetListComponent</title>
<polygon fill="#ffffb3" stroke="#000000" points="953.212,-122 818.788,-122 818.788,-86 953.212,-86 953.212,-122"/>
<text text-anchor="middle" x="886" y="-99.8" font-family="Times,serif" font-size="14.00" fill="#000000">AssetListComponent</text>
</g>
<!-- FilesModule -->
<g id="node5" class="node">
<title>FilesModule</title>
<polygon fill="#8dd3c7" stroke="#000000" points="459.2731,-187 456.2731,-191 435.2731,-191 432.2731,-187 372.7269,-187 372.7269,-151 459.2731,-151 459.2731,-187"/>
<text text-anchor="middle" x="416" y="-164.8" font-family="Times,serif" font-size="14.00" fill="#000000">FilesModule</text>
</g>
<!-- AssetListComponent&#45;&gt;FilesModule -->
<g id="edge1" class="edge">
<title>AssetListComponent&#45;&gt;FilesModule</title>
<path fill="none" stroke="#000000" d="M886,-122.1061C886,-141.3391 886,-169 886,-169 886,-169 469.374,-169 469.374,-169"/>
<polygon fill="#000000" stroke="#000000" points="469.3741,-165.5001 459.374,-169 469.374,-172.5001 469.3741,-165.5001"/>
</g>
<!-- AssetSelectComponent -->
<g id="node2" class="node">
<title>AssetSelectComponent</title>
<polygon fill="#ffffb3" stroke="#000000" points="801.1414,-122 654.8586,-122 654.8586,-86 801.1414,-86 801.1414,-122"/>
<text text-anchor="middle" x="728" y="-99.8" font-family="Times,serif" font-size="14.00" fill="#000000">AssetSelectComponent</text>
</g>
<!-- AssetSelectComponent&#45;&gt;FilesModule -->
<g id="edge2" class="edge">
<title>AssetSelectComponent&#45;&gt;FilesModule</title>
<path fill="none" stroke="#000000" d="M666.1073,-122.0225C666.1073,-139.3734 666.1073,-163 666.1073,-163 666.1073,-163 469.2798,-163 469.2798,-163"/>
<polygon fill="#000000" stroke="#000000" points="469.2799,-159.5001 459.2798,-163 469.2798,-166.5001 469.2799,-159.5001"/>
</g>
<!-- AssetInputComponent -->
<g id="node3" class="node">
<title>AssetInputComponent</title>
<polygon fill="#ffffb3" stroke="#000000" points="636.9846,-122 495.0154,-122 495.0154,-86 636.9846,-86 636.9846,-122"/>
<text text-anchor="middle" x="566" y="-99.8" font-family="Times,serif" font-size="14.00" fill="#000000">AssetInputComponent</text>
</g>
<!-- AssetInputComponent&#45;&gt;FilesModule -->
<g id="edge3" class="edge">
<title>AssetInputComponent&#45;&gt;FilesModule</title>
<path fill="none" stroke="#000000" d="M500.9686,-122.2396C500.9686,-137.5706 500.9686,-157 500.9686,-157 500.9686,-157 469.4799,-157 469.4799,-157"/>
<polygon fill="#000000" stroke="#000000" points="469.48,-153.5001 459.4799,-157 469.4799,-160.5001 469.48,-153.5001"/>
</g>
<!-- UploadComponent -->
<g id="node4" class="node">
<title>UploadComponent</title>
<polygon fill="#ffffb3" stroke="#000000" points="477.045,-122 354.955,-122 354.955,-86 477.045,-86 477.045,-122"/>
<text text-anchor="middle" x="416" y="-99.8" font-family="Times,serif" font-size="14.00" fill="#000000">UploadComponent</text>
</g>
<!-- UploadComponent&#45;&gt;FilesModule -->
<g id="edge4" class="edge">
<title>UploadComponent&#45;&gt;FilesModule</title>
<path fill="none" stroke="#000000" d="M416,-122.1061C416,-122.1061 416,-140.991 416,-140.991"/>
<polygon fill="#000000" stroke="#000000" points="412.5001,-140.9909 416,-150.991 419.5001,-140.991 412.5001,-140.9909"/>
</g>
<!-- AssetListComponent  -->
<g id="node8" class="node">
<title>AssetListComponent </title>
<polygon fill="#fb8072" stroke="#000000" points="812.7121,-252 675.2879,-252 675.2879,-216 812.7121,-216 812.7121,-252"/>
<text text-anchor="middle" x="744" y="-229.8" font-family="Times,serif" font-size="14.00" fill="#000000">AssetListComponent </text>
</g>
<!-- FilesModule&#45;&gt;AssetListComponent  -->
<g id="edge7" class="edge">
<title>FilesModule&#45;&gt;AssetListComponent </title>
<path fill="none" stroke="#000000" stroke-dasharray="5,2" d="M459.4577,-175C547.4133,-175 738.2323,-175 738.2323,-175 738.2323,-175 738.2323,-205.9775 738.2323,-205.9775"/>
<polygon fill="#000000" stroke="#000000" points="734.7324,-205.9774 738.2323,-215.9775 741.7324,-205.9775 734.7324,-205.9774"/>
</g>
<!-- AssetSelectComponent  -->
<g id="node9" class="node">
<title>AssetSelectComponent </title>
<polygon fill="#fb8072" stroke="#000000" points="657.1411,-252 506.8589,-252 506.8589,-216 657.1411,-216 657.1411,-252"/>
<text text-anchor="middle" x="582" y="-229.8" font-family="Times,serif" font-size="14.00" fill="#000000">AssetSelectComponent </text>
</g>
<!-- FilesModule&#45;&gt;AssetSelectComponent  -->
<g id="edge8" class="edge">
<title>FilesModule&#45;&gt;AssetSelectComponent </title>
<path fill="none" stroke="#000000" stroke-dasharray="5,2" d="M459.4438,-181C505.5914,-181 571.9609,-181 571.9609,-181 571.9609,-181 571.9609,-205.7604 571.9609,-205.7604"/>
<polygon fill="#000000" stroke="#000000" points="568.461,-205.7604 571.9609,-215.7604 575.461,-205.7604 568.461,-205.7604"/>
</g>
<!-- AssetInputComponent  -->
<g id="node10" class="node">
<title>AssetInputComponent </title>
<polygon fill="#fb8072" stroke="#000000" points="488.9854,-252 343.0146,-252 343.0146,-216 488.9854,-216 488.9854,-252"/>
<text text-anchor="middle" x="416" y="-229.8" font-family="Times,serif" font-size="14.00" fill="#000000">AssetInputComponent </text>
</g>
<!-- FilesModule&#45;&gt;AssetInputComponent  -->
<g id="edge9" class="edge">
<title>FilesModule&#45;&gt;AssetInputComponent </title>
<path fill="none" stroke="#000000" stroke-dasharray="5,2" d="M416,-187.1061C416,-187.1061 416,-205.991 416,-205.991"/>
<polygon fill="#000000" stroke="#000000" points="412.5001,-205.9909 416,-215.991 419.5001,-205.991 412.5001,-205.9909"/>
</g>
<!-- UploadComponent  -->
<g id="node11" class="node">
<title>UploadComponent </title>
<polygon fill="#fb8072" stroke="#000000" points="325.0442,-252 198.9558,-252 198.9558,-216 325.0442,-216 325.0442,-252"/>
<text text-anchor="middle" x="262" y="-229.8" font-family="Times,serif" font-size="14.00" fill="#000000">UploadComponent </text>
</g>
<!-- FilesModule&#45;&gt;UploadComponent  -->
<g id="edge10" class="edge">
<title>FilesModule&#45;&gt;UploadComponent </title>
<path fill="none" stroke="#000000" stroke-dasharray="5,2" d="M372.539,-181C332.6864,-181 279.825,-181 279.825,-181 279.825,-181 279.825,-205.7604 279.825,-205.7604"/>
<polygon fill="#000000" stroke="#000000" points="276.3251,-205.7604 279.825,-215.7604 283.3251,-205.7604 276.3251,-205.7604"/>
</g>
<!-- SdkModule  -->
<g id="node12" class="node">
<title>SdkModule </title>
<polygon fill="#fb8072" stroke="#000000" points="181.3326,-252 96.6674,-252 96.6674,-216 181.3326,-216 181.3326,-252"/>
<text text-anchor="middle" x="139" y="-229.8" font-family="Times,serif" font-size="14.00" fill="#000000">SdkModule </text>
</g>
<!-- FilesModule&#45;&gt;SdkModule  -->
<g id="edge11" class="edge">
<title>FilesModule&#45;&gt;SdkModule </title>
<path fill="none" stroke="#000000" stroke-dasharray="5,2" d="M372.5643,-175C301.9067,-175 169.875,-175 169.875,-175 169.875,-175 169.875,-205.9775 169.875,-205.9775"/>
<polygon fill="#000000" stroke="#000000" points="166.3751,-205.9774 169.875,-215.9775 173.3751,-205.9775 166.3751,-205.9774"/>
</g>
<!-- UiModule -->
<g id="node6" class="node">
<title>UiModule</title>
<polygon fill="#8dd3c7" stroke="#000000" points="330.5484,-122 327.5484,-126 306.5484,-126 303.5484,-122 257.4516,-122 257.4516,-86 330.5484,-86 330.5484,-122"/>
<text text-anchor="middle" x="294" y="-99.8" font-family="Times,serif" font-size="14.00" fill="#000000">UiModule</text>
</g>
<!-- UiModule&#45;&gt;FilesModule -->
<g id="edge5" class="edge">
<title>UiModule&#45;&gt;FilesModule</title>
<path fill="none" stroke="#000000" d="M302.4236,-122.2396C302.4236,-137.5706 302.4236,-157 302.4236,-157 302.4236,-157 362.4132,-157 362.4132,-157"/>
<polygon fill="#000000" stroke="#000000" points="362.4132,-160.5001 372.4132,-157 362.4132,-153.5001 362.4132,-160.5001"/>
</g>
<!-- SdkModule -->
<g id="node7" class="node">
<title>SdkModule</title>
<polygon fill="#8dd3c7" stroke="#000000" points="239.8331,-122 236.8331,-126 215.8331,-126 212.8331,-122 158.1669,-122 158.1669,-86 239.8331,-86 239.8331,-122"/>
<text text-anchor="middle" x="199" y="-99.8" font-family="Times,serif" font-size="14.00" fill="#000000">SdkModule</text>
</g>
<!-- SdkModule&#45;&gt;FilesModule -->
<g id="edge6" class="edge">
<title>SdkModule&#45;&gt;FilesModule</title>
<path fill="none" stroke="#000000" d="M219.3221,-122.0225C219.3221,-139.3734 219.3221,-163 219.3221,-163 219.3221,-163 362.3508,-163 362.3508,-163"/>
<polygon fill="#000000" stroke="#000000" points="362.3508,-166.5001 372.3508,-163 362.3508,-159.5001 362.3508,-166.5001"/>
</g>
<!-- FileService -->
<g id="node13" class="node">
<title>FileService</title>
<ellipse fill="#fdb462" stroke="#000000" cx="79" cy="-104" rx="55.0285" ry="18"/>
<text text-anchor="middle" x="79" y="-99.8" font-family="Times,serif" font-size="14.00" fill="#000000">FileService</text>
</g>
<!-- FileService&#45;&gt;FilesModule -->
<g id="edge12" class="edge">
<title>FileService&#45;&gt;FilesModule</title>
<path fill="none" stroke="#000000" d="M115.299,-117.7848C115.299,-136.865 115.299,-169 115.299,-169 115.299,-169 362.5966,-169 362.5966,-169"/>
<polygon fill="#000000" stroke="#000000" points="362.5967,-172.5001 372.5966,-169 362.5966,-165.5001 362.5967,-172.5001"/>
</g>
</g>
</svg>
