<?xml version="1.0" encoding="UTF-8" standalone="no"?>
<!DOCTYPE svg PUBLIC "-//W3C//DTD SVG 1.1//EN"
 "http://www.w3.org/Graphics/SVG/1.1/DTD/svg11.dtd">
<!-- Generated by graphviz version 2.40.1 (20161225.0304)
 -->
<!-- Title: dependencies Pages: 1 -->
<svg width="1215pt" height="284pt"
 viewBox="0.00 0.00 1215.00 284.00" xmlns="http://www.w3.org/2000/svg" xmlns:xlink="http://www.w3.org/1999/xlink">
<g id="graph0" class="graph" transform="scale(1 1) rotate(0) translate(4 280)">
<title>dependencies</title>
<polygon fill="#ffffff" stroke="transparent" points="-4,4 -4,-280 1211,-280 1211,4 -4,4"/>
<text text-anchor="start" x="582.5091" y="-42.4" font-family="sans-serif" font-weight="bold" font-size="14.00" fill="#000000">Legend</text>
<polygon fill="#ffffb3" stroke="transparent" points="369.5,-10 369.5,-30 389.5,-30 389.5,-10 369.5,-10"/>
<text text-anchor="start" x="393.129" y="-15.4" font-family="sans-serif" font-size="14.00" fill="#000000"> &#160;Declarations</text>
<polygon fill="#8dd3c7" stroke="transparent" points="482.5,-10 482.5,-30 502.5,-30 502.5,-10 482.5,-10"/>
<text text-anchor="start" x="506.2251" y="-15.4" font-family="sans-serif" font-size="14.00" fill="#000000"> &#160;Module</text>
<polygon fill="#80b1d3" stroke="transparent" points="568.5,-10 568.5,-30 588.5,-30 588.5,-10 568.5,-10"/>
<text text-anchor="start" x="592.2812" y="-15.4" font-family="sans-serif" font-size="14.00" fill="#000000"> &#160;Bootstrap</text>
<polygon fill="#fdb462" stroke="transparent" points="665.5,-10 665.5,-30 685.5,-30 685.5,-10 665.5,-10"/>
<text text-anchor="start" x="689.1732" y="-15.4" font-family="sans-serif" font-size="14.00" fill="#000000"> &#160;Providers</text>
<polygon fill="#fb8072" stroke="transparent" points="761.5,-10 761.5,-30 781.5,-30 781.5,-10 761.5,-10"/>
<text text-anchor="start" x="785.2258" y="-15.4" font-family="sans-serif" font-size="14.00" fill="#000000"> &#160;Exports</text>
<g id="clust1" class="cluster">
<title>cluster_FilesModule</title>
<polygon fill="none" stroke="#000000" stroke-dasharray="1,5" points="8,-70 8,-268 1199,-268 1199,-70 8,-70"/>
</g>
<g id="clust2" class="cluster">
<title>cluster_FilesModule_declarations</title>
<polygon fill="none" stroke="#000000" points="476,-78 476,-130 1191,-130 1191,-78 476,-78"/>
</g>
<g id="clust8" class="cluster">
<title>cluster_FilesModule_imports</title>
<polygon fill="none" stroke="#000000" points="150,-78 150,-130 468,-130 468,-78 150,-78"/>
</g>
<g id="clust9" class="cluster">
<title>cluster_FilesModule_exports</title>
<polygon fill="none" stroke="#000000" points="177,-208 177,-260 1012,-260 1012,-208 177,-208"/>
</g>
<g id="clust11" class="cluster">
<title>cluster_FilesModule_providers</title>
<polygon fill="none" stroke="#000000" points="16,-78 16,-130 142,-130 142,-78 16,-78"/>
</g>
<!-- AssetListPopComponent -->
<g id="node1" class="node">
<title>AssetListPopComponent</title>
<polygon fill="#ffffb3" stroke="#000000" points="1182.9944,-122 1027.0056,-122 1027.0056,-86 1182.9944,-86 1182.9944,-122"/>
<text text-anchor="middle" x="1105" y="-99.8" font-family="Times,serif" font-size="14.00" fill="#000000">AssetListPopComponent</text>
</g>
<!-- FilesModule -->
<g id="node6" class="node">
<title>FilesModule</title>
<polygon fill="#8dd3c7" stroke="#000000" points="588.2731,-187 585.2731,-191 564.2731,-191 561.2731,-187 501.7269,-187 501.7269,-151 588.2731,-151 588.2731,-187"/>
<text text-anchor="middle" x="545" y="-164.8" font-family="Times,serif" font-size="14.00" fill="#000000">FilesModule</text>
</g>
<!-- AssetListPopComponent&#45;&gt;FilesModule -->
<g id="edge1" class="edge">
<title>AssetListPopComponent&#45;&gt;FilesModule</title>
<path fill="none" stroke="#000000" d="M1105,-122.2228C1105,-142.3652 1105,-172 1105,-172 1105,-172 598.4763,-172 598.4763,-172"/>
<polygon fill="#000000" stroke="#000000" points="598.4763,-168.5001 588.4763,-172 598.4762,-175.5001 598.4763,-168.5001"/>
</g>
<!-- AssetSelectComponent -->
<g id="node2" class="node">
<title>AssetSelectComponent</title>
<polygon fill="#ffffb3" stroke="#000000" points="1009.1414,-122 862.8586,-122 862.8586,-86 1009.1414,-86 1009.1414,-122"/>
<text text-anchor="middle" x="936" y="-99.8" font-family="Times,serif" font-size="14.00" fill="#000000">AssetSelectComponent</text>
</g>
<!-- AssetSelectComponent&#45;&gt;FilesModule -->
<g id="edge2" class="edge">
<title>AssetSelectComponent&#45;&gt;FilesModule</title>
<path fill="none" stroke="#000000" d="M933.2134,-122.2222C933.2134,-140.8285 933.2134,-167 933.2134,-167 933.2134,-167 598.403,-167 598.403,-167"/>
<polygon fill="#000000" stroke="#000000" points="598.403,-163.5001 588.403,-167 598.403,-170.5001 598.403,-163.5001"/>
</g>
<!-- AssetDirective -->
<g id="node3" class="node">
<title>AssetDirective</title>
<polygon fill="#ffffb3" stroke="#000000" points="844.684,-122 745.316,-122 745.316,-86 844.684,-86 844.684,-122"/>
<text text-anchor="middle" x="795" y="-99.8" font-family="Times,serif" font-size="14.00" fill="#000000">AssetDirective</text>
</g>
<!-- AssetDirective&#45;&gt;FilesModule -->
<g id="edge3" class="edge">
<title>AssetDirective&#45;&gt;FilesModule</title>
<path fill="none" stroke="#000000" d="M785.7393,-122.0336C785.7393,-139.0597 785.7393,-162 785.7393,-162 785.7393,-162 598.3174,-162 598.3174,-162"/>
<polygon fill="#000000" stroke="#000000" points="598.3174,-158.5001 588.3174,-162 598.3174,-165.5001 598.3174,-158.5001"/>
</g>
<!-- ImageDirective -->
<g id="node4" class="node">
<title>ImageDirective</title>
<polygon fill="#ffffb3" stroke="#000000" points="727.5632,-122 624.4368,-122 624.4368,-86 727.5632,-86 727.5632,-122"/>
<text text-anchor="middle" x="676" y="-99.8" font-family="Times,serif" font-size="14.00" fill="#000000">ImageDirective</text>
</g>
<!-- ImageDirective&#45;&gt;FilesModule -->
<g id="edge4" class="edge">
<title>ImageDirective&#45;&gt;FilesModule</title>
<path fill="none" stroke="#000000" d="M641.4052,-122.2396C641.4052,-137.5706 641.4052,-157 641.4052,-157 641.4052,-157 598.4082,-157 598.4082,-157"/>
<polygon fill="#000000" stroke="#000000" points="598.4082,-153.5001 588.4082,-157 598.4082,-160.5001 598.4082,-153.5001"/>
</g>
<!-- UploadComponent -->
<g id="node5" class="node">
<title>UploadComponent</title>
<polygon fill="#ffffb3" stroke="#000000" points="606.045,-122 483.955,-122 483.955,-86 606.045,-86 606.045,-122"/>
<text text-anchor="middle" x="545" y="-99.8" font-family="Times,serif" font-size="14.00" fill="#000000">UploadComponent</text>
</g>
<!-- UploadComponent&#45;&gt;FilesModule -->
<g id="edge5" class="edge">
<title>UploadComponent&#45;&gt;FilesModule</title>
<path fill="none" stroke="#000000" d="M545,-122.1061C545,-122.1061 545,-140.991 545,-140.991"/>
<polygon fill="#000000" stroke="#000000" points="541.5001,-140.9909 545,-150.991 548.5001,-140.991 541.5001,-140.9909"/>
</g>
<!-- AssetListPopComponent  -->
<g id="node10" class="node">
<title>AssetListPopComponent </title>
<polygon fill="#fb8072" stroke="#000000" points="1003.9952,-252 844.0048,-252 844.0048,-216 1003.9952,-216 1003.9952,-252"/>
<text text-anchor="middle" x="924" y="-229.8" font-family="Times,serif" font-size="14.00" fill="#000000">AssetListPopComponent </text>
</g>
<!-- FilesModule&#45;&gt;AssetListPopComponent  -->
<g id="edge9" class="edge">
<title>FilesModule&#45;&gt;AssetListPopComponent </title>
<path fill="none" stroke="#000000" stroke-dasharray="5,2" d="M588.5654,-177C673.641,-177 853.6357,-177 853.6357,-177 853.6357,-177 853.6357,-205.9648 853.6357,-205.9648"/>
<polygon fill="#000000" stroke="#000000" points="850.1358,-205.9648 853.6357,-215.9648 857.1358,-205.9649 850.1358,-205.9648"/>
</g>
<!-- AssetSelectComponent  -->
<g id="node11" class="node">
<title>AssetSelectComponent </title>
<polygon fill="#fb8072" stroke="#000000" points="826.1411,-252 675.8589,-252 675.8589,-216 826.1411,-216 826.1411,-252"/>
<text text-anchor="middle" x="751" y="-229.8" font-family="Times,serif" font-size="14.00" fill="#000000">AssetSelectComponent </text>
</g>
<!-- FilesModule&#45;&gt;AssetSelectComponent  -->
<g id="edge10" class="edge">
<title>FilesModule&#45;&gt;AssetSelectComponent </title>
<path fill="none" stroke="#000000" stroke-dasharray="5,2" d="M588.6582,-182C635.0335,-182 701.7306,-182 701.7306,-182 701.7306,-182 701.7306,-205.8129 701.7306,-205.8129"/>
<polygon fill="#000000" stroke="#000000" points="698.2306,-205.8129 701.7306,-215.8129 705.2306,-205.813 698.2306,-205.8129"/>
</g>
<!-- AssetDirective  -->
<g id="node12" class="node">
<title>AssetDirective </title>
<polygon fill="#fb8072" stroke="#000000" points="658.1843,-252 555.8157,-252 555.8157,-216 658.1843,-216 658.1843,-252"/>
<text text-anchor="middle" x="607" y="-229.8" font-family="Times,serif" font-size="14.00" fill="#000000">AssetDirective </text>
</g>
<!-- FilesModule&#45;&gt;AssetDirective  -->
<g id="edge11" class="edge">
<title>FilesModule&#45;&gt;AssetDirective </title>
<path fill="none" stroke="#000000" stroke-dasharray="5,2" d="M572.0223,-187.1061C572.0223,-187.1061 572.0223,-205.991 572.0223,-205.991"/>
<polygon fill="#000000" stroke="#000000" points="568.5223,-205.9909 572.0223,-215.991 575.5223,-205.991 568.5223,-205.9909"/>
</g>
<!-- ImageDirective  -->
<g id="node13" class="node">
<title>ImageDirective </title>
<polygon fill="#fb8072" stroke="#000000" points="537.0641,-252 430.9359,-252 430.9359,-216 537.0641,-216 537.0641,-252"/>
<text text-anchor="middle" x="484" y="-229.8" font-family="Times,serif" font-size="14.00" fill="#000000">ImageDirective </text>
</g>
<!-- FilesModule&#45;&gt;ImageDirective  -->
<g id="edge12" class="edge">
<title>FilesModule&#45;&gt;ImageDirective </title>
<path fill="none" stroke="#000000" stroke-dasharray="5,2" d="M519.4476,-187.1061C519.4476,-187.1061 519.4476,-205.991 519.4476,-205.991"/>
<polygon fill="#000000" stroke="#000000" points="515.9477,-205.9909 519.4476,-215.991 522.9477,-205.991 515.9477,-205.9909"/>
</g>
<!-- UploadComponent  -->
<g id="node14" class="node">
<title>UploadComponent </title>
<polygon fill="#fb8072" stroke="#000000" points="413.0442,-252 286.9558,-252 286.9558,-216 413.0442,-216 413.0442,-252"/>
<text text-anchor="middle" x="350" y="-229.8" font-family="Times,serif" font-size="14.00" fill="#000000">UploadComponent </text>
</g>
<!-- FilesModule&#45;&gt;UploadComponent  -->
<g id="edge13" class="edge">
<title>FilesModule&#45;&gt;UploadComponent </title>
<path fill="none" stroke="#000000" stroke-dasharray="5,2" d="M501.3825,-182C458.5612,-182 399.6243,-182 399.6243,-182 399.6243,-182 399.6243,-205.8129 399.6243,-205.8129"/>
<polygon fill="#000000" stroke="#000000" points="396.1244,-205.8129 399.6243,-215.8129 403.1244,-205.813 396.1244,-205.8129"/>
</g>
<!-- SdkModule  -->
<g id="node15" class="node">
<title>SdkModule </title>
<polygon fill="#fb8072" stroke="#000000" points="269.3326,-252 184.6674,-252 184.6674,-216 269.3326,-216 269.3326,-252"/>
<text text-anchor="middle" x="227" y="-229.8" font-family="Times,serif" font-size="14.00" fill="#000000">SdkModule </text>
</g>
<!-- FilesModule&#45;&gt;SdkModule  -->
<g id="edge14" class="edge">
<title>FilesModule&#45;&gt;SdkModule </title>
<path fill="none" stroke="#000000" stroke-dasharray="5,2" d="M501.4641,-177C417.4437,-177 241.1387,-177 241.1387,-177 241.1387,-177 241.1387,-205.9648 241.1387,-205.9648"/>
<polygon fill="#000000" stroke="#000000" points="237.6388,-205.9648 241.1387,-215.9648 244.6388,-205.9649 237.6388,-205.9648"/>
</g>
<!-- UiModule -->
<g id="node7" class="node">
<title>UiModule</title>
<polygon fill="#8dd3c7" stroke="#000000" points="459.5484,-122 456.5484,-126 435.5484,-126 432.5484,-122 386.4516,-122 386.4516,-86 459.5484,-86 459.5484,-122"/>
<text text-anchor="middle" x="423" y="-99.8" font-family="Times,serif" font-size="14.00" fill="#000000">UiModule</text>
</g>
<!-- UiModule&#45;&gt;FilesModule -->
<g id="edge6" class="edge">
<title>UiModule&#45;&gt;FilesModule</title>
<path fill="none" stroke="#000000" d="M445.246,-122.2396C445.246,-137.5706 445.246,-157 445.246,-157 445.246,-157 491.5366,-157 491.5366,-157"/>
<polygon fill="#000000" stroke="#000000" points="491.5366,-160.5001 501.5366,-157 491.5366,-153.5001 491.5366,-160.5001"/>
</g>
<!-- SdkModule -->
<g id="node8" class="node">
<title>SdkModule</title>
<polygon fill="#8dd3c7" stroke="#000000" points="368.8331,-122 365.8331,-126 344.8331,-126 341.8331,-122 287.1669,-122 287.1669,-86 368.8331,-86 368.8331,-122"/>
<text text-anchor="middle" x="328" y="-99.8" font-family="Times,serif" font-size="14.00" fill="#000000">SdkModule</text>
</g>
<!-- SdkModule&#45;&gt;FilesModule -->
<g id="edge7" class="edge">
<title>SdkModule&#45;&gt;FilesModule</title>
<path fill="none" stroke="#000000" d="M328,-122.0336C328,-139.0597 328,-162 328,-162 328,-162 491.6084,-162 491.6084,-162"/>
<polygon fill="#000000" stroke="#000000" points="491.6084,-165.5001 501.6084,-162 491.6083,-158.5001 491.6084,-165.5001"/>
</g>
<!-- ResourceModule -->
<g id="node9" class="node">
<title>ResourceModule</title>
<polygon fill="#8dd3c7" stroke="#000000" points="269.636,-122 266.636,-126 245.636,-126 242.636,-122 158.364,-122 158.364,-86 269.636,-86 269.636,-122"/>
<text text-anchor="middle" x="214" y="-99.8" font-family="Times,serif" font-size="14.00" fill="#000000">ResourceModule</text>
</g>
<!-- ResourceModule&#45;&gt;FilesModule -->
<g id="edge8" class="edge">
<title>ResourceModule&#45;&gt;FilesModule</title>
<path fill="none" stroke="#000000" d="M212.8613,-122.2222C212.8613,-140.8285 212.8613,-167 212.8613,-167 212.8613,-167 491.5787,-167 491.5787,-167"/>
<polygon fill="#000000" stroke="#000000" points="491.5787,-170.5001 501.5787,-167 491.5786,-163.5001 491.5787,-170.5001"/>
</g>
<!-- FileService -->
<g id="node16" class="node">
<title>FileService</title>
<ellipse fill="#fdb462" stroke="#000000" cx="79" cy="-104" rx="55.0285" ry="18"/>
<text text-anchor="middle" x="79" y="-99.8" font-family="Times,serif" font-size="14.00" fill="#000000">FileService</text>
</g>
<!-- FileService&#45;&gt;FilesModule -->
<g id="edge15" class="edge">
<title>FileService&#45;&gt;FilesModule</title>
<path fill="none" stroke="#000000" d="M79,-122.2228C79,-142.3652 79,-172 79,-172 79,-172 491.5783,-172 491.5783,-172"/>
<polygon fill="#000000" stroke="#000000" points="491.5783,-175.5001 501.5783,-172 491.5783,-168.5001 491.5783,-175.5001"/>
</g>
</g>
</svg>
