<?xml version="1.0" encoding="UTF-8" standalone="no"?>
<!DOCTYPE svg PUBLIC "-//W3C//DTD SVG 1.1//EN"
 "http://www.w3.org/Graphics/SVG/1.1/DTD/svg11.dtd">
<!-- Generated by graphviz version 2.40.1 (20161225.0304)
 -->
<!-- Title: dependencies Pages: 1 -->
<svg width="1554pt" height="284pt"
 viewBox="0.00 0.00 1554.00 284.00" xmlns="http://www.w3.org/2000/svg" xmlns:xlink="http://www.w3.org/1999/xlink">
<g id="graph0" class="graph" transform="scale(1 1) rotate(0) translate(4 280)">
<title>dependencies</title>
<polygon fill="#ffffff" stroke="transparent" points="-4,4 -4,-280 1550,-280 1550,4 -4,4"/>
<text text-anchor="start" x="752.0091" y="-42.4" font-family="sans-serif" font-weight="bold" font-size="14.00" fill="#000000">Legend</text>
<polygon fill="#ffffb3" stroke="transparent" points="539,-10 539,-30 559,-30 559,-10 539,-10"/>
<text text-anchor="start" x="562.629" y="-15.4" font-family="sans-serif" font-size="14.00" fill="#000000"> &#160;Declarations</text>
<polygon fill="#8dd3c7" stroke="transparent" points="652,-10 652,-30 672,-30 672,-10 652,-10"/>
<text text-anchor="start" x="675.7251" y="-15.4" font-family="sans-serif" font-size="14.00" fill="#000000"> &#160;Module</text>
<polygon fill="#80b1d3" stroke="transparent" points="738,-10 738,-30 758,-30 758,-10 738,-10"/>
<text text-anchor="start" x="761.7812" y="-15.4" font-family="sans-serif" font-size="14.00" fill="#000000"> &#160;Bootstrap</text>
<polygon fill="#fdb462" stroke="transparent" points="835,-10 835,-30 855,-30 855,-10 835,-10"/>
<text text-anchor="start" x="858.6732" y="-15.4" font-family="sans-serif" font-size="14.00" fill="#000000"> &#160;Providers</text>
<polygon fill="#fb8072" stroke="transparent" points="931,-10 931,-30 951,-30 951,-10 931,-10"/>
<text text-anchor="start" x="954.7258" y="-15.4" font-family="sans-serif" font-size="14.00" fill="#000000"> &#160;Exports</text>
<g id="clust1" class="cluster">
<title>cluster_FilesModule</title>
<polygon fill="none" stroke="#000000" stroke-dasharray="1,5" points="8,-70 8,-268 1538,-268 1538,-70 8,-70"/>
</g>
<g id="clust2" class="cluster">
<title>cluster_FilesModule_declarations</title>
<polygon fill="none" stroke="#000000" points="476,-78 476,-130 1530,-130 1530,-78 476,-78"/>
</g>
<g id="clust10" class="cluster">
<title>cluster_FilesModule_imports</title>
<polygon fill="none" stroke="#000000" points="150,-78 150,-130 468,-130 468,-78 150,-78"/>
</g>
<g id="clust11" class="cluster">
<title>cluster_FilesModule_exports</title>
<polygon fill="none" stroke="#000000" points="147,-208 147,-260 1328,-260 1328,-208 147,-208"/>
</g>
<g id="clust13" class="cluster">
<title>cluster_FilesModule_providers</title>
<polygon fill="none" stroke="#000000" points="16,-78 16,-130 142,-130 142,-78 16,-78"/>
</g>
<!-- AssetDirective -->
<g id="node1" class="node">
<title>AssetDirective</title>
<polygon fill="#ffffb3" stroke="#000000" points="1521.684,-122 1422.316,-122 1422.316,-86 1521.684,-86 1521.684,-122"/>
<text text-anchor="middle" x="1472" y="-99.8" font-family="Times,serif" font-size="14.00" fill="#000000">AssetDirective</text>
</g>
<!-- FilesModule -->
<g id="node8" class="node">
<title>FilesModule</title>
<polygon fill="#8dd3c7" stroke="#000000" points="719.2731,-187 716.2731,-191 695.2731,-191 692.2731,-187 632.7269,-187 632.7269,-151 719.2731,-151 719.2731,-187"/>
<text text-anchor="middle" x="676" y="-164.8" font-family="Times,serif" font-size="14.00" fill="#000000">FilesModule</text>
</g>
<!-- AssetDirective&#45;&gt;FilesModule -->
<g id="edge1" class="edge">
<title>AssetDirective&#45;&gt;FilesModule</title>
<path fill="none" stroke="#000000" d="M1472,-122.308C1472,-142.1455 1472,-171 1472,-171 1472,-171 729.3617,-171 729.3617,-171"/>
<polygon fill="#000000" stroke="#000000" points="729.3617,-167.5001 719.3617,-171 729.3617,-174.5001 729.3617,-167.5001"/>
</g>
<!-- AssetListPopComponent -->
<g id="node2" class="node">
<title>AssetListPopComponent</title>
<polygon fill="#ffffb3" stroke="#000000" points="1403.9944,-122 1248.0056,-122 1248.0056,-86 1403.9944,-86 1403.9944,-122"/>
<text text-anchor="middle" x="1326" y="-99.8" font-family="Times,serif" font-size="14.00" fill="#000000">AssetListPopComponent</text>
</g>
<!-- AssetListPopComponent&#45;&gt;FilesModule -->
<g id="edge2" class="edge">
<title>AssetListPopComponent&#45;&gt;FilesModule</title>
<path fill="none" stroke="#000000" d="M1284.1723,-122.2222C1284.1723,-140.8285 1284.1723,-167 1284.1723,-167 1284.1723,-167 729.7383,-167 729.7383,-167"/>
<polygon fill="#000000" stroke="#000000" points="729.7383,-163.5001 719.7383,-167 729.7382,-170.5001 729.7383,-163.5001"/>
</g>
<!-- AssetSelectComponent -->
<g id="node3" class="node">
<title>AssetSelectComponent</title>
<polygon fill="#ffffb3" stroke="#000000" points="1230.1414,-122 1083.8586,-122 1083.8586,-86 1230.1414,-86 1230.1414,-122"/>
<text text-anchor="middle" x="1157" y="-99.8" font-family="Times,serif" font-size="14.00" fill="#000000">AssetSelectComponent</text>
</g>
<!-- AssetSelectComponent&#45;&gt;FilesModule -->
<g id="edge3" class="edge">
<title>AssetSelectComponent&#45;&gt;FilesModule</title>
<path fill="none" stroke="#000000" d="M1141.7134,-122.0225C1141.7134,-139.3734 1141.7134,-163 1141.7134,-163 1141.7134,-163 729.395,-163 729.395,-163"/>
<polygon fill="#000000" stroke="#000000" points="729.395,-159.5001 719.395,-163 729.3949,-166.5001 729.395,-159.5001"/>
</g>
<!-- AssetgroupSelectComponent -->
<g id="node4" class="node">
<title>AssetgroupSelectComponent</title>
<polygon fill="#ffffb3" stroke="#000000" points="1065.8019,-122 886.1981,-122 886.1981,-86 1065.8019,-86 1065.8019,-122"/>
<text text-anchor="middle" x="976" y="-99.8" font-family="Times,serif" font-size="14.00" fill="#000000">AssetgroupSelectComponent</text>
</g>
<!-- AssetgroupSelectComponent&#45;&gt;FilesModule -->
<g id="edge4" class="edge">
<title>AssetgroupSelectComponent&#45;&gt;FilesModule</title>
<path fill="none" stroke="#000000" d="M954.2099,-122.0091C954.2099,-138.0494 954.2099,-159 954.2099,-159 954.2099,-159 729.4703,-159 729.4703,-159"/>
<polygon fill="#000000" stroke="#000000" points="729.4703,-155.5001 719.4703,-159 729.4703,-162.5001 729.4703,-155.5001"/>
</g>
<!-- DropzoneDirective -->
<g id="node5" class="node">
<title>DropzoneDirective</title>
<polygon fill="#ffffb3" stroke="#000000" points="868.7795,-122 745.2205,-122 745.2205,-86 868.7795,-86 868.7795,-122"/>
<text text-anchor="middle" x="807" y="-99.8" font-family="Times,serif" font-size="14.00" fill="#000000">DropzoneDirective</text>
</g>
<!-- DropzoneDirective&#45;&gt;FilesModule -->
<g id="edge5" class="edge">
<title>DropzoneDirective&#45;&gt;FilesModule</title>
<path fill="none" stroke="#000000" d="M799.8806,-122.1243C799.8806,-136.7832 799.8806,-155 799.8806,-155 799.8806,-155 729.3274,-155 729.3274,-155"/>
<polygon fill="#000000" stroke="#000000" points="729.3275,-151.5001 719.3274,-155 729.3274,-158.5001 729.3275,-151.5001"/>
</g>
<!-- ImageDirective -->
<g id="node6" class="node">
<title>ImageDirective</title>
<polygon fill="#ffffb3" stroke="#000000" points="727.5632,-122 624.4368,-122 624.4368,-86 727.5632,-86 727.5632,-122"/>
<text text-anchor="middle" x="676" y="-99.8" font-family="Times,serif" font-size="14.00" fill="#000000">ImageDirective</text>
</g>
<!-- ImageDirective&#45;&gt;FilesModule -->
<g id="edge6" class="edge">
<title>ImageDirective&#45;&gt;FilesModule</title>
<path fill="none" stroke="#000000" d="M676,-122.1061C676,-122.1061 676,-140.991 676,-140.991"/>
<polygon fill="#000000" stroke="#000000" points="672.5001,-140.9909 676,-150.991 679.5001,-140.991 672.5001,-140.9909"/>
</g>
<!-- UploadComponent -->
<g id="node7" class="node">
<title>UploadComponent</title>
<polygon fill="#ffffb3" stroke="#000000" points="606.045,-122 483.955,-122 483.955,-86 606.045,-86 606.045,-122"/>
<text text-anchor="middle" x="545" y="-99.8" font-family="Times,serif" font-size="14.00" fill="#000000">UploadComponent</text>
</g>
<!-- UploadComponent&#45;&gt;FilesModule -->
<g id="edge7" class="edge">
<title>UploadComponent&#45;&gt;FilesModule</title>
<path fill="none" stroke="#000000" d="M566.4413,-122.1243C566.4413,-136.7832 566.4413,-155 566.4413,-155 566.4413,-155 622.6995,-155 622.6995,-155"/>
<polygon fill="#000000" stroke="#000000" points="622.6995,-158.5001 632.6995,-155 622.6994,-151.5001 622.6995,-158.5001"/>
</g>
<!-- AssetDirective  -->
<g id="node12" class="node">
<title>AssetDirective </title>
<polygon fill="#fb8072" stroke="#000000" points="1320.1843,-252 1217.8157,-252 1217.8157,-216 1320.1843,-216 1320.1843,-252"/>
<text text-anchor="middle" x="1269" y="-229.8" font-family="Times,serif" font-size="14.00" fill="#000000">AssetDirective </text>
</g>
<!-- FilesModule&#45;&gt;AssetDirective  -->
<g id="edge11" class="edge">
<title>FilesModule&#45;&gt;AssetDirective </title>
<path fill="none" stroke="#000000" stroke-dasharray="5,2" d="M719.4578,-175C849.069,-175 1223.9893,-175 1223.9893,-175 1223.9893,-175 1223.9893,-205.9775 1223.9893,-205.9775"/>
<polygon fill="#000000" stroke="#000000" points="1220.4894,-205.9774 1223.9893,-215.9775 1227.4894,-205.9775 1220.4894,-205.9774"/>
</g>
<!-- AssetListPopComponent  -->
<g id="node13" class="node">
<title>AssetListPopComponent </title>
<polygon fill="#fb8072" stroke="#000000" points="1199.9952,-252 1040.0048,-252 1040.0048,-216 1199.9952,-216 1199.9952,-252"/>
<text text-anchor="middle" x="1120" y="-229.8" font-family="Times,serif" font-size="14.00" fill="#000000">AssetListPopComponent </text>
</g>
<!-- FilesModule&#45;&gt;AssetListPopComponent  -->
<g id="edge12" class="edge">
<title>FilesModule&#45;&gt;AssetListPopComponent </title>
<path fill="none" stroke="#000000" stroke-dasharray="5,2" d="M719.6094,-179C818.8348,-179 1052.9518,-179 1052.9518,-179 1052.9518,-179 1052.9518,-205.9909 1052.9518,-205.9909"/>
<polygon fill="#000000" stroke="#000000" points="1049.4519,-205.9909 1052.9518,-215.9909 1056.4519,-205.991 1049.4519,-205.9909"/>
</g>
<!-- AssetSelectComponent  -->
<g id="node14" class="node">
<title>AssetSelectComponent </title>
<polygon fill="#fb8072" stroke="#000000" points="1022.1411,-252 871.8589,-252 871.8589,-216 1022.1411,-216 1022.1411,-252"/>
<text text-anchor="middle" x="947" y="-229.8" font-family="Times,serif" font-size="14.00" fill="#000000">AssetSelectComponent </text>
</g>
<!-- FilesModule&#45;&gt;AssetSelectComponent  -->
<g id="edge13" class="edge">
<title>FilesModule&#45;&gt;AssetSelectComponent </title>
<path fill="none" stroke="#000000" stroke-dasharray="5,2" d="M719.5785,-183C779.2675,-183 879.1394,-183 879.1394,-183 879.1394,-183 879.1394,-205.8757 879.1394,-205.8757"/>
<polygon fill="#000000" stroke="#000000" points="875.6394,-205.8757 879.1394,-215.8757 882.6394,-205.8757 875.6394,-205.8757"/>
</g>
<!-- AssetgroupSelectComponent  -->
<g id="node15" class="node">
<title>AssetgroupSelectComponent </title>
<polygon fill="#fb8072" stroke="#000000" points="854.3017,-252 671.6983,-252 671.6983,-216 854.3017,-216 854.3017,-252"/>
<text text-anchor="middle" x="763" y="-229.8" font-family="Times,serif" font-size="14.00" fill="#000000">AssetgroupSelectComponent </text>
</g>
<!-- FilesModule&#45;&gt;AssetgroupSelectComponent  -->
<g id="edge14" class="edge">
<title>FilesModule&#45;&gt;AssetgroupSelectComponent </title>
<path fill="none" stroke="#000000" stroke-dasharray="5,2" d="M695.4928,-187.1061C695.4928,-187.1061 695.4928,-205.991 695.4928,-205.991"/>
<polygon fill="#000000" stroke="#000000" points="691.9929,-205.9909 695.4928,-215.991 698.9929,-205.991 691.9929,-205.9909"/>
</g>
<!-- DropzoneDirective  -->
<g id="node16" class="node">
<title>DropzoneDirective </title>
<polygon fill="#fb8072" stroke="#000000" points="653.2794,-252 526.7206,-252 526.7206,-216 653.2794,-216 653.2794,-252"/>
<text text-anchor="middle" x="590" y="-229.8" font-family="Times,serif" font-size="14.00" fill="#000000">DropzoneDirective </text>
</g>
<!-- FilesModule&#45;&gt;DropzoneDirective  -->
<g id="edge15" class="edge">
<title>FilesModule&#45;&gt;DropzoneDirective </title>
<path fill="none" stroke="#000000" stroke-dasharray="5,2" d="M643.0016,-187.1061C643.0016,-187.1061 643.0016,-205.991 643.0016,-205.991"/>
<polygon fill="#000000" stroke="#000000" points="639.5017,-205.9909 643.0016,-215.991 646.5017,-205.991 639.5017,-205.9909"/>
</g>
<!-- ImageDirective  -->
<g id="node17" class="node">
<title>ImageDirective </title>
<polygon fill="#fb8072" stroke="#000000" points="508.0641,-252 401.9359,-252 401.9359,-216 508.0641,-216 508.0641,-252"/>
<text text-anchor="middle" x="455" y="-229.8" font-family="Times,serif" font-size="14.00" fill="#000000">ImageDirective </text>
</g>
<!-- FilesModule&#45;&gt;ImageDirective  -->
<g id="edge16" class="edge">
<title>FilesModule&#45;&gt;ImageDirective </title>
<path fill="none" stroke="#000000" stroke-dasharray="5,2" d="M632.4282,-183C579.1581,-183 496.0048,-183 496.0048,-183 496.0048,-183 496.0048,-205.8757 496.0048,-205.8757"/>
<polygon fill="#000000" stroke="#000000" points="492.5048,-205.8757 496.0048,-215.8757 499.5048,-205.8757 492.5048,-205.8757"/>
</g>
<!-- SdkModule  -->
<g id="node18" class="node">
<title>SdkModule </title>
<polygon fill="#fb8072" stroke="#000000" points="383.3326,-252 298.6674,-252 298.6674,-216 383.3326,-216 383.3326,-252"/>
<text text-anchor="middle" x="341" y="-229.8" font-family="Times,serif" font-size="14.00" fill="#000000">SdkModule </text>
</g>
<!-- FilesModule&#45;&gt;SdkModule  -->
<g id="edge17" class="edge">
<title>FilesModule&#45;&gt;SdkModule </title>
<path fill="none" stroke="#000000" stroke-dasharray="5,2" d="M632.5413,-179C547.1697,-179 365.7993,-179 365.7993,-179 365.7993,-179 365.7993,-205.9909 365.7993,-205.9909"/>
<polygon fill="#000000" stroke="#000000" points="362.2993,-205.9909 365.7993,-215.9909 369.2993,-205.991 362.2993,-205.9909"/>
</g>
<!-- UploadComponent  -->
<g id="node19" class="node">
<title>UploadComponent </title>
<polygon fill="#fb8072" stroke="#000000" points="281.0442,-252 154.9558,-252 154.9558,-216 281.0442,-216 281.0442,-252"/>
<text text-anchor="middle" x="218" y="-229.8" font-family="Times,serif" font-size="14.00" fill="#000000">UploadComponent </text>
</g>
<!-- FilesModule&#45;&gt;UploadComponent  -->
<g id="edge18" class="edge">
<title>FilesModule&#45;&gt;UploadComponent </title>
<path fill="none" stroke="#000000" stroke-dasharray="5,2" d="M632.4238,-175C526.6938,-175 265.178,-175 265.178,-175 265.178,-175 265.178,-205.9775 265.178,-205.9775"/>
<polygon fill="#000000" stroke="#000000" points="261.678,-205.9774 265.178,-215.9775 268.678,-205.9775 261.678,-205.9774"/>
</g>
<!-- ResourceModule -->
<g id="node9" class="node">
<title>ResourceModule</title>
<polygon fill="#8dd3c7" stroke="#000000" points="459.636,-122 456.636,-126 435.636,-126 432.636,-122 348.364,-122 348.364,-86 459.636,-86 459.636,-122"/>
<text text-anchor="middle" x="404" y="-99.8" font-family="Times,serif" font-size="14.00" fill="#000000">ResourceModule</text>
</g>
<!-- ResourceModule&#45;&gt;FilesModule -->
<g id="edge8" class="edge">
<title>ResourceModule&#45;&gt;FilesModule</title>
<path fill="none" stroke="#000000" d="M430.7681,-122.0091C430.7681,-138.0494 430.7681,-159 430.7681,-159 430.7681,-159 622.722,-159 622.722,-159"/>
<polygon fill="#000000" stroke="#000000" points="622.722,-162.5001 632.722,-159 622.7219,-155.5001 622.722,-162.5001"/>
</g>
<!-- SdkModule -->
<g id="node10" class="node">
<title>SdkModule</title>
<polygon fill="#8dd3c7" stroke="#000000" points="330.8331,-122 327.8331,-126 306.8331,-126 303.8331,-122 249.1669,-122 249.1669,-86 330.8331,-86 330.8331,-122"/>
<text text-anchor="middle" x="290" y="-99.8" font-family="Times,serif" font-size="14.00" fill="#000000">SdkModule</text>
</g>
<!-- SdkModule&#45;&gt;FilesModule -->
<g id="edge9" class="edge">
<title>SdkModule&#45;&gt;FilesModule</title>
<path fill="none" stroke="#000000" d="M314.625,-122.0225C314.625,-139.3734 314.625,-163 314.625,-163 314.625,-163 622.4097,-163 622.4097,-163"/>
<polygon fill="#000000" stroke="#000000" points="622.4098,-166.5001 632.4097,-163 622.4097,-159.5001 622.4098,-166.5001"/>
</g>
<!-- UiModule -->
<g id="node11" class="node">
<title>UiModule</title>
<polygon fill="#8dd3c7" stroke="#000000" points="231.5484,-122 228.5484,-126 207.5484,-126 204.5484,-122 158.4516,-122 158.4516,-86 231.5484,-86 231.5484,-122"/>
<text text-anchor="middle" x="195" y="-99.8" font-family="Times,serif" font-size="14.00" fill="#000000">UiModule</text>
</g>
<!-- UiModule&#45;&gt;FilesModule -->
<g id="edge10" class="edge">
<title>UiModule&#45;&gt;FilesModule</title>
<path fill="none" stroke="#000000" d="M195,-122.2222C195,-140.8285 195,-167 195,-167 195,-167 622.4661,-167 622.4661,-167"/>
<polygon fill="#000000" stroke="#000000" points="622.4661,-170.5001 632.4661,-167 622.4661,-163.5001 622.4661,-170.5001"/>
</g>
<!-- FileService -->
<g id="node20" class="node">
<title>FileService</title>
<ellipse fill="#fdb462" stroke="#000000" cx="79" cy="-104" rx="55.0285" ry="18"/>
<text text-anchor="middle" x="79" y="-99.8" font-family="Times,serif" font-size="14.00" fill="#000000">FileService</text>
</g>
<!-- FileService&#45;&gt;FilesModule -->
<g id="edge19" class="edge">
<title>FileService&#45;&gt;FilesModule</title>
<path fill="none" stroke="#000000" d="M79,-122.308C79,-142.1455 79,-171 79,-171 79,-171 622.5843,-171 622.5843,-171"/>
<polygon fill="#000000" stroke="#000000" points="622.5844,-174.5001 632.5843,-171 622.5843,-167.5001 622.5844,-174.5001"/>
</g>
</g>
</svg>
