<?xml version="1.0" encoding="UTF-8" standalone="no"?>
<!DOCTYPE svg PUBLIC "-//W3C//DTD SVG 1.1//EN"
 "http://www.w3.org/Graphics/SVG/1.1/DTD/svg11.dtd">
<!-- Generated by graphviz version 2.40.1 (20161225.0304)
 -->
<!-- Title: dependencies Pages: 1 -->
<svg width="826pt" height="284pt"
 viewBox="0.00 0.00 826.00 284.00" xmlns="http://www.w3.org/2000/svg" xmlns:xlink="http://www.w3.org/1999/xlink">
<g id="graph0" class="graph" transform="scale(1 1) rotate(0) translate(4 280)">
<title>dependencies</title>
<polygon fill="#ffffff" stroke="transparent" points="-4,4 -4,-280 822,-280 822,4 -4,4"/>
<text text-anchor="start" x="388.0091" y="-42.4" font-family="sans-serif" font-weight="bold" font-size="14.00" fill="#000000">Legend</text>
<polygon fill="#ffffb3" stroke="transparent" points="175,-10 175,-30 195,-30 195,-10 175,-10"/>
<text text-anchor="start" x="198.629" y="-15.4" font-family="sans-serif" font-size="14.00" fill="#000000"> &#160;Declarations</text>
<polygon fill="#8dd3c7" stroke="transparent" points="288,-10 288,-30 308,-30 308,-10 288,-10"/>
<text text-anchor="start" x="311.7251" y="-15.4" font-family="sans-serif" font-size="14.00" fill="#000000"> &#160;Module</text>
<polygon fill="#80b1d3" stroke="transparent" points="374,-10 374,-30 394,-30 394,-10 374,-10"/>
<text text-anchor="start" x="397.7812" y="-15.4" font-family="sans-serif" font-size="14.00" fill="#000000"> &#160;Bootstrap</text>
<polygon fill="#fdb462" stroke="transparent" points="471,-10 471,-30 491,-30 491,-10 471,-10"/>
<text text-anchor="start" x="494.6732" y="-15.4" font-family="sans-serif" font-size="14.00" fill="#000000"> &#160;Providers</text>
<polygon fill="#fb8072" stroke="transparent" points="567,-10 567,-30 587,-30 587,-10 567,-10"/>
<text text-anchor="start" x="590.7258" y="-15.4" font-family="sans-serif" font-size="14.00" fill="#000000"> &#160;Exports</text>
<g id="clust1" class="cluster">
<title>cluster_FilesModule</title>
<polygon fill="none" stroke="#000000" stroke-dasharray="1,5" points="8,-70 8,-268 810,-268 810,-70 8,-70"/>
</g>
<g id="clust2" class="cluster">
<title>cluster_FilesModule_declarations</title>
<polygon fill="none" stroke="#000000" points="347,-78 347,-130 802,-130 802,-78 347,-78"/>
</g>
<g id="clust6" class="cluster">
<title>cluster_FilesModule_imports</title>
<polygon fill="none" stroke="#000000" points="150,-78 150,-130 339,-130 339,-78 150,-78"/>
</g>
<g id="clust7" class="cluster">
<title>cluster_FilesModule_exports</title>
<polygon fill="none" stroke="#000000" points="99,-208 99,-260 667,-260 667,-208 99,-208"/>
</g>
<g id="clust9" class="cluster">
<title>cluster_FilesModule_providers</title>
<polygon fill="none" stroke="#000000" points="16,-78 16,-130 142,-130 142,-78 16,-78"/>
</g>
<!-- AssetListComponent -->
<g id="node1" class="node">
<title>AssetListComponent</title>
<polygon fill="#ffffb3" stroke="#000000" points="794.212,-122 659.788,-122 659.788,-86 794.212,-86 794.212,-122"/>
<text text-anchor="middle" x="727" y="-99.8" font-family="Times,serif" font-size="14.00" fill="#000000">AssetListComponent</text>
</g>
<!-- FilesModule -->
<g id="node4" class="node">
<title>FilesModule</title>
<polygon fill="#8dd3c7" stroke="#000000" points="393.2731,-187 390.2731,-191 369.2731,-191 366.2731,-187 306.7269,-187 306.7269,-151 393.2731,-151 393.2731,-187"/>
<text text-anchor="middle" x="350" y="-164.8" font-family="Times,serif" font-size="14.00" fill="#000000">FilesModule</text>
</g>
<!-- AssetListComponent&#45;&gt;FilesModule -->
<g id="edge1" class="edge">
<title>AssetListComponent&#45;&gt;FilesModule</title>
<path fill="none" stroke="#000000" d="M727,-122.1061C727,-141.3391 727,-169 727,-169 727,-169 403.615,-169 403.615,-169"/>
<polygon fill="#000000" stroke="#000000" points="403.615,-165.5001 393.615,-169 403.615,-172.5001 403.615,-165.5001"/>
</g>
<!-- AssetSelectComponent -->
<g id="node2" class="node">
<title>AssetSelectComponent</title>
<polygon fill="#ffffb3" stroke="#000000" points="642.1414,-122 495.8586,-122 495.8586,-86 642.1414,-86 642.1414,-122"/>
<text text-anchor="middle" x="569" y="-99.8" font-family="Times,serif" font-size="14.00" fill="#000000">AssetSelectComponent</text>
</g>
<!-- AssetSelectComponent&#45;&gt;FilesModule -->
<g id="edge2" class="edge">
<title>AssetSelectComponent&#45;&gt;FilesModule</title>
<path fill="none" stroke="#000000" d="M499.375,-122.027C499.375,-138.3976 499.375,-160 499.375,-160 499.375,-160 403.607,-160 403.607,-160"/>
<polygon fill="#000000" stroke="#000000" points="403.607,-156.5001 393.607,-160 403.607,-163.5001 403.607,-156.5001"/>
</g>
<!-- UploadComponent -->
<g id="node3" class="node">
<title>UploadComponent</title>
<polygon fill="#ffffb3" stroke="#000000" points="477.045,-122 354.955,-122 354.955,-86 477.045,-86 477.045,-122"/>
<text text-anchor="middle" x="416" y="-99.8" font-family="Times,serif" font-size="14.00" fill="#000000">UploadComponent</text>
</g>
<!-- UploadComponent&#45;&gt;FilesModule -->
<g id="edge3" class="edge">
<title>UploadComponent&#45;&gt;FilesModule</title>
<path fill="none" stroke="#000000" d="M374.0572,-122.1061C374.0572,-122.1061 374.0572,-140.991 374.0572,-140.991"/>
<polygon fill="#000000" stroke="#000000" points="370.5572,-140.9909 374.0572,-150.991 377.5572,-140.991 370.5572,-140.9909"/>
</g>
<!-- AssetListComponent  -->
<g id="node7" class="node">
<title>AssetListComponent </title>
<polygon fill="#fb8072" stroke="#000000" points="658.7121,-252 521.2879,-252 521.2879,-216 658.7121,-216 658.7121,-252"/>
<text text-anchor="middle" x="590" y="-229.8" font-family="Times,serif" font-size="14.00" fill="#000000">AssetListComponent </text>
</g>
<!-- FilesModule&#45;&gt;AssetListComponent  -->
<g id="edge6" class="edge">
<title>FilesModule&#45;&gt;AssetListComponent </title>
<path fill="none" stroke="#000000" stroke-dasharray="5,2" d="M393.3152,-178C460.387,-178 581.7323,-178 581.7323,-178 581.7323,-178 581.7323,-205.973 581.7323,-205.973"/>
<polygon fill="#000000" stroke="#000000" points="578.2324,-205.973 581.7323,-215.973 585.2324,-205.973 578.2324,-205.973"/>
</g>
<!-- AssetSelectComponent  -->
<g id="node8" class="node">
<title>AssetSelectComponent </title>
<polygon fill="#fb8072" stroke="#000000" points="503.1411,-252 352.8589,-252 352.8589,-216 503.1411,-216 503.1411,-252"/>
<text text-anchor="middle" x="428" y="-229.8" font-family="Times,serif" font-size="14.00" fill="#000000">AssetSelectComponent </text>
</g>
<!-- FilesModule&#45;&gt;AssetSelectComponent  -->
<g id="edge7" class="edge">
<title>FilesModule&#45;&gt;AssetSelectComponent </title>
<path fill="none" stroke="#000000" stroke-dasharray="5,2" d="M373.158,-187.1061C373.158,-187.1061 373.158,-205.991 373.158,-205.991"/>
<polygon fill="#000000" stroke="#000000" points="369.658,-205.9909 373.158,-215.991 376.658,-205.991 369.658,-205.9909"/>
</g>
<!-- UploadComponent  -->
<g id="node9" class="node">
<title>UploadComponent </title>
<polygon fill="#fb8072" stroke="#000000" points="335.0442,-252 208.9558,-252 208.9558,-216 335.0442,-216 335.0442,-252"/>
<text text-anchor="middle" x="272" y="-229.8" font-family="Times,serif" font-size="14.00" fill="#000000">UploadComponent </text>
</g>
<!-- FilesModule&#45;&gt;UploadComponent  -->
<g id="edge8" class="edge">
<title>FilesModule&#45;&gt;UploadComponent </title>
<path fill="none" stroke="#000000" stroke-dasharray="5,2" d="M320.8179,-187.1061C320.8179,-187.1061 320.8179,-205.991 320.8179,-205.991"/>
<polygon fill="#000000" stroke="#000000" points="317.3179,-205.9909 320.8179,-215.991 324.3179,-205.991 317.3179,-205.9909"/>
</g>
<!-- SdkModule  -->
<g id="node10" class="node">
<title>SdkModule </title>
<polygon fill="#fb8072" stroke="#000000" points="191.3326,-252 106.6674,-252 106.6674,-216 191.3326,-216 191.3326,-252"/>
<text text-anchor="middle" x="149" y="-229.8" font-family="Times,serif" font-size="14.00" fill="#000000">SdkModule </text>
</g>
<!-- FilesModule&#45;&gt;SdkModule  -->
<g id="edge9" class="edge">
<title>FilesModule&#45;&gt;SdkModule </title>
<path fill="none" stroke="#000000" stroke-dasharray="5,2" d="M306.7107,-178C254.8511,-178 174.875,-178 174.875,-178 174.875,-178 174.875,-205.973 174.875,-205.973"/>
<polygon fill="#000000" stroke="#000000" points="171.3751,-205.973 174.875,-215.973 178.3751,-205.973 171.3751,-205.973"/>
</g>
<!-- UiModule -->
<g id="node5" class="node">
<title>UiModule</title>
<polygon fill="#8dd3c7" stroke="#000000" points="330.5484,-122 327.5484,-126 306.5484,-126 303.5484,-122 257.4516,-122 257.4516,-86 330.5484,-86 330.5484,-122"/>
<text text-anchor="middle" x="294" y="-99.8" font-family="Times,serif" font-size="14.00" fill="#000000">UiModule</text>
</g>
<!-- UiModule&#45;&gt;FilesModule -->
<g id="edge4" class="edge">
<title>UiModule&#45;&gt;FilesModule</title>
<path fill="none" stroke="#000000" d="M318.6936,-122.1061C318.6936,-122.1061 318.6936,-140.991 318.6936,-140.991"/>
<polygon fill="#000000" stroke="#000000" points="315.1936,-140.9909 318.6936,-150.991 322.1936,-140.991 315.1936,-140.9909"/>
</g>
<!-- SdkModule -->
<g id="node6" class="node">
<title>SdkModule</title>
<polygon fill="#8dd3c7" stroke="#000000" points="239.8331,-122 236.8331,-126 215.8331,-126 212.8331,-122 158.1669,-122 158.1669,-86 239.8331,-86 239.8331,-122"/>
<text text-anchor="middle" x="199" y="-99.8" font-family="Times,serif" font-size="14.00" fill="#000000">SdkModule</text>
</g>
<!-- SdkModule&#45;&gt;FilesModule -->
<g id="edge5" class="edge">
<title>SdkModule&#45;&gt;FilesModule</title>
<path fill="none" stroke="#000000" d="M224.3221,-122.027C224.3221,-138.3976 224.3221,-160 224.3221,-160 224.3221,-160 296.3967,-160 296.3967,-160"/>
<polygon fill="#000000" stroke="#000000" points="296.3967,-163.5001 306.3967,-160 296.3966,-156.5001 296.3967,-163.5001"/>
</g>
<!-- FileService -->
<g id="node11" class="node">
<title>FileService</title>
<ellipse fill="#fdb462" stroke="#000000" cx="79" cy="-104" rx="55.0285" ry="18"/>
<text text-anchor="middle" x="79" y="-99.8" font-family="Times,serif" font-size="14.00" fill="#000000">FileService</text>
</g>
<!-- FileService&#45;&gt;FilesModule -->
<g id="edge10" class="edge">
<title>FileService&#45;&gt;FilesModule</title>
<path fill="none" stroke="#000000" d="M120.299,-115.922C120.299,-134.687 120.299,-169 120.299,-169 120.299,-169 296.525,-169 296.525,-169"/>
<polygon fill="#000000" stroke="#000000" points="296.525,-172.5001 306.525,-169 296.5249,-165.5001 296.525,-172.5001"/>
</g>
</g>
</svg>
