<?xml version="1.0" encoding="UTF-8" standalone="no"?>
<!DOCTYPE svg PUBLIC "-//W3C//DTD SVG 1.1//EN"
 "http://www.w3.org/Graphics/SVG/1.1/DTD/svg11.dtd">
<!-- Generated by graphviz version 2.40.1 (20161225.0304)
 -->
<!-- Title: dependencies Pages: 1 -->
<svg width="1881pt" height="284pt"
 viewBox="0.00 0.00 1881.00 284.00" xmlns="http://www.w3.org/2000/svg" xmlns:xlink="http://www.w3.org/1999/xlink">
<g id="graph0" class="graph" transform="scale(1 1) rotate(0) translate(4 280)">
<title>dependencies</title>
<polygon fill="#ffffff" stroke="transparent" points="-4,4 -4,-280 1877,-280 1877,4 -4,4"/>
<text text-anchor="start" x="915.5091" y="-42.4" font-family="sans-serif" font-weight="bold" font-size="14.00" fill="#000000">Legend</text>
<polygon fill="#ffffb3" stroke="transparent" points="702.5,-10 702.5,-30 722.5,-30 722.5,-10 702.5,-10"/>
<text text-anchor="start" x="726.129" y="-15.4" font-family="sans-serif" font-size="14.00" fill="#000000"> &#160;Declarations</text>
<polygon fill="#8dd3c7" stroke="transparent" points="815.5,-10 815.5,-30 835.5,-30 835.5,-10 815.5,-10"/>
<text text-anchor="start" x="839.2251" y="-15.4" font-family="sans-serif" font-size="14.00" fill="#000000"> &#160;Module</text>
<polygon fill="#80b1d3" stroke="transparent" points="901.5,-10 901.5,-30 921.5,-30 921.5,-10 901.5,-10"/>
<text text-anchor="start" x="925.2812" y="-15.4" font-family="sans-serif" font-size="14.00" fill="#000000"> &#160;Bootstrap</text>
<polygon fill="#fdb462" stroke="transparent" points="998.5,-10 998.5,-30 1018.5,-30 1018.5,-10 998.5,-10"/>
<text text-anchor="start" x="1022.1732" y="-15.4" font-family="sans-serif" font-size="14.00" fill="#000000"> &#160;Providers</text>
<polygon fill="#fb8072" stroke="transparent" points="1094.5,-10 1094.5,-30 1114.5,-30 1114.5,-10 1094.5,-10"/>
<text text-anchor="start" x="1118.2258" y="-15.4" font-family="sans-serif" font-size="14.00" fill="#000000"> &#160;Exports</text>
<g id="clust1" class="cluster">
<title>cluster_FilesModule</title>
<polygon fill="none" stroke="#000000" stroke-dasharray="1,5" points="8,-70 8,-268 1865,-268 1865,-70 8,-70"/>
</g>
<g id="clust2" class="cluster">
<title>cluster_FilesModule_declarations</title>
<polygon fill="none" stroke="#000000" points="476,-78 476,-130 1857,-130 1857,-78 476,-78"/>
</g>
<g id="clust12" class="cluster">
<title>cluster_FilesModule_imports</title>
<polygon fill="none" stroke="#000000" points="150,-78 150,-130 468,-130 468,-78 150,-78"/>
</g>
<g id="clust13" class="cluster">
<title>cluster_FilesModule_exports</title>
<polygon fill="none" stroke="#000000" points="144,-208 144,-260 1659,-260 1659,-208 144,-208"/>
</g>
<g id="clust15" class="cluster">
<title>cluster_FilesModule_providers</title>
<polygon fill="none" stroke="#000000" points="16,-78 16,-130 142,-130 142,-78 16,-78"/>
</g>
<!-- AssetDirective -->
<g id="node1" class="node">
<title>AssetDirective</title>
<polygon fill="#ffffb3" stroke="#000000" points="1848.684,-122 1749.316,-122 1749.316,-86 1848.684,-86 1848.684,-122"/>
<text text-anchor="middle" x="1799" y="-99.8" font-family="Times,serif" font-size="14.00" fill="#000000">AssetDirective</text>
</g>
<!-- FilesModule -->
<g id="node10" class="node">
<title>FilesModule</title>
<polygon fill="#8dd3c7" stroke="#000000" points="894.2731,-187 891.2731,-191 870.2731,-191 867.2731,-187 807.7269,-187 807.7269,-151 894.2731,-151 894.2731,-187"/>
<text text-anchor="middle" x="851" y="-164.8" font-family="Times,serif" font-size="14.00" fill="#000000">FilesModule</text>
</g>
<!-- AssetDirective&#45;&gt;FilesModule -->
<g id="edge1" class="edge">
<title>AssetDirective&#45;&gt;FilesModule</title>
<path fill="none" stroke="#000000" d="M1799,-122.308C1799,-142.1455 1799,-171 1799,-171 1799,-171 904.5094,-171 904.5094,-171"/>
<polygon fill="#000000" stroke="#000000" points="904.5094,-167.5001 894.5094,-171 904.5093,-174.5001 904.5094,-167.5001"/>
</g>
<!-- AssetListComponent -->
<g id="node2" class="node">
<title>AssetListComponent</title>
<polygon fill="#ffffb3" stroke="#000000" points="1731.212,-122 1596.788,-122 1596.788,-86 1731.212,-86 1731.212,-122"/>
<text text-anchor="middle" x="1664" y="-99.8" font-family="Times,serif" font-size="14.00" fill="#000000">AssetListComponent</text>
</g>
<!-- AssetListComponent&#45;&gt;FilesModule -->
<g id="edge2" class="edge">
<title>AssetListComponent&#45;&gt;FilesModule</title>
<path fill="none" stroke="#000000" d="M1624.118,-122.1686C1624.118,-141.0898 1624.118,-168 1624.118,-168 1624.118,-168 904.5017,-168 904.5017,-168"/>
<polygon fill="#000000" stroke="#000000" points="904.5017,-164.5001 894.5017,-168 904.5016,-171.5001 904.5017,-164.5001"/>
</g>
<!-- AssetListPopComponent -->
<g id="node3" class="node">
<title>AssetListPopComponent</title>
<polygon fill="#ffffb3" stroke="#000000" points="1578.9944,-122 1423.0056,-122 1423.0056,-86 1578.9944,-86 1578.9944,-122"/>
<text text-anchor="middle" x="1501" y="-99.8" font-family="Times,serif" font-size="14.00" fill="#000000">AssetListPopComponent</text>
</g>
<!-- AssetListPopComponent&#45;&gt;FilesModule -->
<g id="edge3" class="edge">
<title>AssetListPopComponent&#45;&gt;FilesModule</title>
<path fill="none" stroke="#000000" d="M1476.9293,-122.302C1476.9293,-140.2699 1476.9293,-165 1476.9293,-165 1476.9293,-165 904.5172,-165 904.5172,-165"/>
<polygon fill="#000000" stroke="#000000" points="904.5172,-161.5001 894.5172,-165 904.5171,-168.5001 904.5172,-161.5001"/>
</g>
<!-- AssetSelectComponent -->
<g id="node4" class="node">
<title>AssetSelectComponent</title>
<polygon fill="#ffffb3" stroke="#000000" points="1405.1414,-122 1258.8586,-122 1258.8586,-86 1405.1414,-86 1405.1414,-122"/>
<text text-anchor="middle" x="1332" y="-99.8" font-family="Times,serif" font-size="14.00" fill="#000000">AssetSelectComponent</text>
</g>
<!-- AssetSelectComponent&#45;&gt;FilesModule -->
<g id="edge4" class="edge">
<title>AssetSelectComponent&#45;&gt;FilesModule</title>
<path fill="none" stroke="#000000" d="M1316.7134,-122.0352C1316.7134,-138.7344 1316.7134,-161 1316.7134,-161 1316.7134,-161 904.395,-161 904.395,-161"/>
<polygon fill="#000000" stroke="#000000" points="904.395,-157.5001 894.395,-161 904.3949,-164.5001 904.395,-157.5001"/>
</g>
<!-- AssetgroupSelectComponent -->
<g id="node5" class="node">
<title>AssetgroupSelectComponent</title>
<polygon fill="#ffffb3" stroke="#000000" points="1240.8019,-122 1061.1981,-122 1061.1981,-86 1240.8019,-86 1240.8019,-122"/>
<text text-anchor="middle" x="1151" y="-99.8" font-family="Times,serif" font-size="14.00" fill="#000000">AssetgroupSelectComponent</text>
</g>
<!-- AssetgroupSelectComponent&#45;&gt;FilesModule -->
<g id="edge5" class="edge">
<title>AssetgroupSelectComponent&#45;&gt;FilesModule</title>
<path fill="none" stroke="#000000" d="M1129.2099,-122.2819C1129.2099,-137.9478 1129.2099,-158 1129.2099,-158 1129.2099,-158 904.4703,-158 904.4703,-158"/>
<polygon fill="#000000" stroke="#000000" points="904.4703,-154.5001 894.4703,-158 904.4703,-161.5001 904.4703,-154.5001"/>
</g>
<!-- DropzoneDirective -->
<g id="node6" class="node">
<title>DropzoneDirective</title>
<polygon fill="#ffffb3" stroke="#000000" points="1043.7795,-122 920.2205,-122 920.2205,-86 1043.7795,-86 1043.7795,-122"/>
<text text-anchor="middle" x="982" y="-99.8" font-family="Times,serif" font-size="14.00" fill="#000000">DropzoneDirective</text>
</g>
<!-- DropzoneDirective&#45;&gt;FilesModule -->
<g id="edge6" class="edge">
<title>DropzoneDirective&#45;&gt;FilesModule</title>
<path fill="none" stroke="#000000" d="M974.8806,-122.1243C974.8806,-136.7832 974.8806,-155 974.8806,-155 974.8806,-155 904.3274,-155 904.3274,-155"/>
<polygon fill="#000000" stroke="#000000" points="904.3275,-151.5001 894.3274,-155 904.3274,-158.5001 904.3275,-151.5001"/>
</g>
<!-- ImageDirective -->
<g id="node7" class="node">
<title>ImageDirective</title>
<polygon fill="#ffffb3" stroke="#000000" points="902.5632,-122 799.4368,-122 799.4368,-86 902.5632,-86 902.5632,-122"/>
<text text-anchor="middle" x="851" y="-99.8" font-family="Times,serif" font-size="14.00" fill="#000000">ImageDirective</text>
</g>
<!-- ImageDirective&#45;&gt;FilesModule -->
<g id="edge7" class="edge">
<title>ImageDirective&#45;&gt;FilesModule</title>
<path fill="none" stroke="#000000" d="M851,-122.1061C851,-122.1061 851,-140.991 851,-140.991"/>
<polygon fill="#000000" stroke="#000000" points="847.5001,-140.9909 851,-150.991 854.5001,-140.991 847.5001,-140.9909"/>
</g>
<!-- UploadComponent -->
<g id="node8" class="node">
<title>UploadComponent</title>
<polygon fill="#ffffb3" stroke="#000000" points="781.045,-122 658.955,-122 658.955,-86 781.045,-86 781.045,-122"/>
<text text-anchor="middle" x="720" y="-99.8" font-family="Times,serif" font-size="14.00" fill="#000000">UploadComponent</text>
</g>
<!-- UploadComponent&#45;&gt;FilesModule -->
<g id="edge8" class="edge">
<title>UploadComponent&#45;&gt;FilesModule</title>
<path fill="none" stroke="#000000" d="M741.4413,-122.1243C741.4413,-136.7832 741.4413,-155 741.4413,-155 741.4413,-155 797.6995,-155 797.6995,-155"/>
<polygon fill="#000000" stroke="#000000" points="797.6995,-158.5001 807.6995,-155 797.6994,-151.5001 797.6995,-158.5001"/>
</g>
<!-- UploadSelectComponent -->
<g id="node9" class="node">
<title>UploadSelectComponent</title>
<polygon fill="#ffffb3" stroke="#000000" points="640.252,-122 483.748,-122 483.748,-86 640.252,-86 640.252,-122"/>
<text text-anchor="middle" x="562" y="-99.8" font-family="Times,serif" font-size="14.00" fill="#000000">UploadSelectComponent</text>
</g>
<!-- UploadSelectComponent&#45;&gt;FilesModule -->
<g id="edge9" class="edge">
<title>UploadSelectComponent&#45;&gt;FilesModule</title>
<path fill="none" stroke="#000000" d="M608.5472,-122.2819C608.5472,-137.9478 608.5472,-158 608.5472,-158 608.5472,-158 797.6543,-158 797.6543,-158"/>
<polygon fill="#000000" stroke="#000000" points="797.6543,-161.5001 807.6543,-158 797.6543,-154.5001 797.6543,-161.5001"/>
</g>
<!-- AssetDirective  -->
<g id="node14" class="node">
<title>AssetDirective </title>
<polygon fill="#fb8072" stroke="#000000" points="1651.1843,-252 1548.8157,-252 1548.8157,-216 1651.1843,-216 1651.1843,-252"/>
<text text-anchor="middle" x="1600" y="-229.8" font-family="Times,serif" font-size="14.00" fill="#000000">AssetDirective </text>
</g>
<!-- FilesModule&#45;&gt;AssetDirective  -->
<g id="edge13" class="edge">
<title>FilesModule&#45;&gt;AssetDirective </title>
<path fill="none" stroke="#000000" stroke-dasharray="5,2" d="M894.5175,-174C1049.2829,-174 1563.8277,-174 1563.8277,-174 1563.8277,-174 1563.8277,-205.998 1563.8277,-205.998"/>
<polygon fill="#000000" stroke="#000000" points="1560.3277,-205.998 1563.8277,-215.998 1567.3277,-205.9981 1560.3277,-205.998"/>
</g>
<!-- AssetListComponent  -->
<g id="node15" class="node">
<title>AssetListComponent </title>
<polygon fill="#fb8072" stroke="#000000" points="1530.7121,-252 1393.2879,-252 1393.2879,-216 1530.7121,-216 1530.7121,-252"/>
<text text-anchor="middle" x="1462" y="-229.8" font-family="Times,serif" font-size="14.00" fill="#000000">AssetListComponent </text>
</g>
<!-- FilesModule&#45;&gt;AssetListComponent  -->
<g id="edge14" class="edge">
<title>FilesModule&#45;&gt;AssetListComponent </title>
<path fill="none" stroke="#000000" stroke-dasharray="5,2" d="M894.4771,-178C1024.1457,-178 1399.2323,-178 1399.2323,-178 1399.2323,-178 1399.2323,-205.973 1399.2323,-205.973"/>
<polygon fill="#000000" stroke="#000000" points="1395.7324,-205.973 1399.2323,-215.973 1402.7324,-205.973 1395.7324,-205.973"/>
</g>
<!-- AssetListPopComponent  -->
<g id="node16" class="node">
<title>AssetListPopComponent </title>
<polygon fill="#fb8072" stroke="#000000" points="1374.9952,-252 1215.0048,-252 1215.0048,-216 1374.9952,-216 1374.9952,-252"/>
<text text-anchor="middle" x="1295" y="-229.8" font-family="Times,serif" font-size="14.00" fill="#000000">AssetListPopComponent </text>
</g>
<!-- FilesModule&#45;&gt;AssetListPopComponent  -->
<g id="edge15" class="edge">
<title>FilesModule&#45;&gt;AssetListPopComponent </title>
<path fill="none" stroke="#000000" stroke-dasharray="5,2" d="M894.6094,-181C993.8348,-181 1227.9518,-181 1227.9518,-181 1227.9518,-181 1227.9518,-205.7604 1227.9518,-205.7604"/>
<polygon fill="#000000" stroke="#000000" points="1224.4519,-205.7604 1227.9518,-215.7604 1231.4519,-205.7604 1224.4519,-205.7604"/>
</g>
<!-- AssetSelectComponent  -->
<g id="node17" class="node">
<title>AssetSelectComponent </title>
<polygon fill="#fb8072" stroke="#000000" points="1197.1411,-252 1046.8589,-252 1046.8589,-216 1197.1411,-216 1197.1411,-252"/>
<text text-anchor="middle" x="1122" y="-229.8" font-family="Times,serif" font-size="14.00" fill="#000000">AssetSelectComponent </text>
</g>
<!-- FilesModule&#45;&gt;AssetSelectComponent  -->
<g id="edge16" class="edge">
<title>FilesModule&#45;&gt;AssetSelectComponent </title>
<path fill="none" stroke="#000000" stroke-dasharray="5,2" d="M894.5785,-184C954.2675,-184 1054.1394,-184 1054.1394,-184 1054.1394,-184 1054.1394,-205.9489 1054.1394,-205.9489"/>
<polygon fill="#000000" stroke="#000000" points="1050.6394,-205.9488 1054.1394,-215.9489 1057.6394,-205.9489 1050.6394,-205.9488"/>
</g>
<!-- AssetgroupSelectComponent  -->
<g id="node18" class="node">
<title>AssetgroupSelectComponent </title>
<polygon fill="#fb8072" stroke="#000000" points="1029.3017,-252 846.6983,-252 846.6983,-216 1029.3017,-216 1029.3017,-252"/>
<text text-anchor="middle" x="938" y="-229.8" font-family="Times,serif" font-size="14.00" fill="#000000">AssetgroupSelectComponent </text>
</g>
<!-- FilesModule&#45;&gt;AssetgroupSelectComponent  -->
<g id="edge17" class="edge">
<title>FilesModule&#45;&gt;AssetgroupSelectComponent </title>
<path fill="none" stroke="#000000" stroke-dasharray="5,2" d="M870.4928,-187.1061C870.4928,-187.1061 870.4928,-205.991 870.4928,-205.991"/>
<polygon fill="#000000" stroke="#000000" points="866.9929,-205.9909 870.4928,-215.991 873.9929,-205.991 866.9929,-205.9909"/>
</g>
<!-- DropzoneDirective  -->
<g id="node19" class="node">
<title>DropzoneDirective </title>
<polygon fill="#fb8072" stroke="#000000" points="828.2794,-252 701.7206,-252 701.7206,-216 828.2794,-216 828.2794,-252"/>
<text text-anchor="middle" x="765" y="-229.8" font-family="Times,serif" font-size="14.00" fill="#000000">DropzoneDirective </text>
</g>
<!-- FilesModule&#45;&gt;DropzoneDirective  -->
<g id="edge18" class="edge">
<title>FilesModule&#45;&gt;DropzoneDirective </title>
<path fill="none" stroke="#000000" stroke-dasharray="5,2" d="M818.0016,-187.1061C818.0016,-187.1061 818.0016,-205.991 818.0016,-205.991"/>
<polygon fill="#000000" stroke="#000000" points="814.5017,-205.9909 818.0016,-215.991 821.5017,-205.991 814.5017,-205.9909"/>
</g>
<!-- ImageDirective  -->
<g id="node20" class="node">
<title>ImageDirective </title>
<polygon fill="#fb8072" stroke="#000000" points="683.0641,-252 576.9359,-252 576.9359,-216 683.0641,-216 683.0641,-252"/>
<text text-anchor="middle" x="630" y="-229.8" font-family="Times,serif" font-size="14.00" fill="#000000">ImageDirective </text>
</g>
<!-- FilesModule&#45;&gt;ImageDirective  -->
<g id="edge19" class="edge">
<title>FilesModule&#45;&gt;ImageDirective </title>
<path fill="none" stroke="#000000" stroke-dasharray="5,2" d="M807.4282,-184C754.1581,-184 671.0048,-184 671.0048,-184 671.0048,-184 671.0048,-205.9489 671.0048,-205.9489"/>
<polygon fill="#000000" stroke="#000000" points="667.5048,-205.9488 671.0048,-215.9489 674.5048,-205.9489 667.5048,-205.9488"/>
</g>
<!-- SdkModule  -->
<g id="node21" class="node">
<title>SdkModule </title>
<polygon fill="#fb8072" stroke="#000000" points="558.3326,-252 473.6674,-252 473.6674,-216 558.3326,-216 558.3326,-252"/>
<text text-anchor="middle" x="516" y="-229.8" font-family="Times,serif" font-size="14.00" fill="#000000">SdkModule </text>
</g>
<!-- FilesModule&#45;&gt;SdkModule  -->
<g id="edge20" class="edge">
<title>FilesModule&#45;&gt;SdkModule </title>
<path fill="none" stroke="#000000" stroke-dasharray="5,2" d="M807.5216,-181C717.9178,-181 521.0202,-181 521.0202,-181 521.0202,-181 521.0202,-205.7604 521.0202,-205.7604"/>
<polygon fill="#000000" stroke="#000000" points="517.5202,-205.7604 521.0202,-215.7604 524.5202,-205.7604 517.5202,-205.7604"/>
</g>
<!-- UploadComponent  -->
<g id="node22" class="node">
<title>UploadComponent </title>
<polygon fill="#fb8072" stroke="#000000" points="456.0442,-252 329.9558,-252 329.9558,-216 456.0442,-216 456.0442,-252"/>
<text text-anchor="middle" x="393" y="-229.8" font-family="Times,serif" font-size="14.00" fill="#000000">UploadComponent </text>
</g>
<!-- FilesModule&#45;&gt;UploadComponent  -->
<g id="edge21" class="edge">
<title>FilesModule&#45;&gt;UploadComponent </title>
<path fill="none" stroke="#000000" stroke-dasharray="5,2" d="M807.4971,-178C691.5963,-178 384.1289,-178 384.1289,-178 384.1289,-178 384.1289,-205.973 384.1289,-205.973"/>
<polygon fill="#000000" stroke="#000000" points="380.629,-205.973 384.1289,-215.973 387.629,-205.973 380.629,-205.973"/>
</g>
<!-- UploadSelectComponent  -->
<g id="node23" class="node">
<title>UploadSelectComponent </title>
<polygon fill="#fb8072" stroke="#000000" points="312.252,-252 151.748,-252 151.748,-216 312.252,-216 312.252,-252"/>
<text text-anchor="middle" x="232" y="-229.8" font-family="Times,serif" font-size="14.00" fill="#000000">UploadSelectComponent </text>
</g>
<!-- FilesModule&#45;&gt;UploadSelectComponent  -->
<g id="edge22" class="edge">
<title>FilesModule&#45;&gt;UploadSelectComponent </title>
<path fill="none" stroke="#000000" stroke-dasharray="5,2" d="M807.669,-174C674.588,-174 280.7298,-174 280.7298,-174 280.7298,-174 280.7298,-205.998 280.7298,-205.998"/>
<polygon fill="#000000" stroke="#000000" points="277.2298,-205.9981 280.7299,-215.998 284.2298,-205.998 277.2298,-205.9981"/>
</g>
<!-- ResourceModule -->
<g id="node11" class="node">
<title>ResourceModule</title>
<polygon fill="#8dd3c7" stroke="#000000" points="459.636,-122 456.636,-126 435.636,-126 432.636,-122 348.364,-122 348.364,-86 459.636,-86 459.636,-122"/>
<text text-anchor="middle" x="404" y="-99.8" font-family="Times,serif" font-size="14.00" fill="#000000">ResourceModule</text>
</g>
<!-- ResourceModule&#45;&gt;FilesModule -->
<g id="edge10" class="edge">
<title>ResourceModule&#45;&gt;FilesModule</title>
<path fill="none" stroke="#000000" d="M420.0755,-122.0352C420.0755,-138.7344 420.0755,-161 420.0755,-161 420.0755,-161 797.7083,-161 797.7083,-161"/>
<polygon fill="#000000" stroke="#000000" points="797.7083,-164.5001 807.7083,-161 797.7083,-157.5001 797.7083,-164.5001"/>
</g>
<!-- SdkModule -->
<g id="node12" class="node">
<title>SdkModule</title>
<polygon fill="#8dd3c7" stroke="#000000" points="330.8331,-122 327.8331,-126 306.8331,-126 303.8331,-122 249.1669,-122 249.1669,-86 330.8331,-86 330.8331,-122"/>
<text text-anchor="middle" x="290" y="-99.8" font-family="Times,serif" font-size="14.00" fill="#000000">SdkModule</text>
</g>
<!-- SdkModule&#45;&gt;FilesModule -->
<g id="edge11" class="edge">
<title>SdkModule&#45;&gt;FilesModule</title>
<path fill="none" stroke="#000000" d="M321.0519,-122.302C321.0519,-140.2699 321.0519,-165 321.0519,-165 321.0519,-165 797.6321,-165 797.6321,-165"/>
<polygon fill="#000000" stroke="#000000" points="797.6322,-168.5001 807.6321,-165 797.6321,-161.5001 797.6322,-168.5001"/>
</g>
<!-- UiModule -->
<g id="node13" class="node">
<title>UiModule</title>
<polygon fill="#8dd3c7" stroke="#000000" points="231.5484,-122 228.5484,-126 207.5484,-126 204.5484,-122 158.4516,-122 158.4516,-86 231.5484,-86 231.5484,-122"/>
<text text-anchor="middle" x="195" y="-99.8" font-family="Times,serif" font-size="14.00" fill="#000000">UiModule</text>
</g>
<!-- UiModule&#45;&gt;FilesModule -->
<g id="edge12" class="edge">
<title>UiModule&#45;&gt;FilesModule</title>
<path fill="none" stroke="#000000" d="M195,-122.1686C195,-141.0898 195,-168 195,-168 195,-168 797.7043,-168 797.7043,-168"/>
<polygon fill="#000000" stroke="#000000" points="797.7043,-171.5001 807.7043,-168 797.7043,-164.5001 797.7043,-171.5001"/>
</g>
<!-- FileService -->
<g id="node24" class="node">
<title>FileService</title>
<ellipse fill="#fdb462" stroke="#000000" cx="79" cy="-104" rx="55.0285" ry="18"/>
<text text-anchor="middle" x="79" y="-99.8" font-family="Times,serif" font-size="14.00" fill="#000000">FileService</text>
</g>
<!-- FileService&#45;&gt;FilesModule -->
<g id="edge23" class="edge">
<title>FileService&#45;&gt;FilesModule</title>
<path fill="none" stroke="#000000" d="M79,-122.308C79,-142.1455 79,-171 79,-171 79,-171 797.5612,-171 797.5612,-171"/>
<polygon fill="#000000" stroke="#000000" points="797.5613,-174.5001 807.5612,-171 797.5612,-167.5001 797.5613,-174.5001"/>
</g>
</g>
</svg>
