<?xml version="1.0" encoding="UTF-8" standalone="no"?>
<!DOCTYPE svg PUBLIC "-//W3C//DTD SVG 1.1//EN"
 "http://www.w3.org/Graphics/SVG/1.1/DTD/svg11.dtd">
<!-- Generated by graphviz version 2.47.0 (20210316.0004)
 -->
<!-- Title: dependencies Pages: 1 -->
<svg width="504pt" height="284pt"
 viewBox="0.00 0.00 504.00 284.00" xmlns="http://www.w3.org/2000/svg" xmlns:xlink="http://www.w3.org/1999/xlink">
<g id="graph0" class="graph" transform="scale(1 1) rotate(0) translate(4 280)">
<title>dependencies</title>
<polygon fill="white" stroke="transparent" points="-4,4 -4,-280 500,-280 500,4 -4,4"/>
<text text-anchor="start" x="227.01" y="-42.4" font-family="sans-serif" font-weight="bold" font-size="14.00">Legend</text>
<polygon fill="#ffffb3" stroke="transparent" points="14,-10 14,-30 34,-30 34,-10 14,-10"/>
<text text-anchor="start" x="37.63" y="-15.4" font-family="sans-serif" font-size="14.00"> &#160;Declarations</text>
<polygon fill="#8dd3c7" stroke="transparent" points="127,-10 127,-30 147,-30 147,-10 127,-10"/>
<text text-anchor="start" x="150.73" y="-15.4" font-family="sans-serif" font-size="14.00"> &#160;Module</text>
<polygon fill="#80b1d3" stroke="transparent" points="213,-10 213,-30 233,-30 233,-10 213,-10"/>
<text text-anchor="start" x="236.78" y="-15.4" font-family="sans-serif" font-size="14.00"> &#160;Bootstrap</text>
<polygon fill="#fdb462" stroke="transparent" points="310,-10 310,-30 330,-30 330,-10 310,-10"/>
<text text-anchor="start" x="333.67" y="-15.4" font-family="sans-serif" font-size="14.00"> &#160;Providers</text>
<polygon fill="#fb8072" stroke="transparent" points="406,-10 406,-30 426,-30 426,-10 406,-10"/>
<text text-anchor="start" x="429.73" y="-15.4" font-family="sans-serif" font-size="14.00"> &#160;Exports</text>
<g id="clust1" class="cluster">
<title>cluster_SymbolModule</title>
<polygon fill="none" stroke="black" stroke-dasharray="1,5" points="108,-70 108,-268 388,-268 388,-70 108,-70"/>
</g>
<g id="clust5" class="cluster">
<title>cluster_SymbolModule_exports</title>
<polygon fill="none" stroke="black" points="209,-208 209,-260 313,-260 313,-208 209,-208"/>
</g>
<g id="clust2" class="cluster">
<title>cluster_SymbolModule_declarations</title>
<polygon fill="none" stroke="black" points="280,-78 280,-130 380,-130 380,-78 280,-78"/>
</g>
<g id="clust7" class="cluster">
<title>cluster_SymbolModule_providers</title>
<polygon fill="none" stroke="black" points="116,-78 116,-130 272,-130 272,-78 116,-78"/>
</g>
<!-- SymbolPipe -->
<g id="node1" class="node">
<title>SymbolPipe</title>
<polygon fill="#ffffb3" stroke="black" points="372.45,-122 287.55,-122 287.55,-86 372.45,-86 372.45,-122"/>
<text text-anchor="middle" x="330" y="-99.8" font-family="Times,serif" font-size="14.00">SymbolPipe</text>
</g>
<!-- SymbolModule -->
<g id="node2" class="node">
<title>SymbolModule</title>
<polygon fill="#8dd3c7" stroke="black" points="312.61,-187 309.61,-191 288.61,-191 285.61,-187 209.39,-187 209.39,-151 312.61,-151 312.61,-187"/>
<text text-anchor="middle" x="261" y="-164.8" font-family="Times,serif" font-size="14.00">SymbolModule</text>
</g>
<!-- SymbolPipe&#45;&gt;SymbolModule -->
<g id="edge1" class="edge">
<title>SymbolPipe&#45;&gt;SymbolModule</title>
<path fill="none" stroke="black" d="M300.17,-122.11C300.17,-122.11 300.17,-140.99 300.17,-140.99"/>
<polygon fill="black" stroke="black" points="296.67,-140.99 300.17,-150.99 303.67,-140.99 296.67,-140.99"/>
</g>
<!-- SymbolPipe  -->
<g id="node3" class="node">
<title>SymbolPipe </title>
<polygon fill="#fb8072" stroke="black" points="304.95,-252 217.05,-252 217.05,-216 304.95,-216 304.95,-252"/>
<text text-anchor="middle" x="261" y="-229.8" font-family="Times,serif" font-size="14.00">SymbolPipe </text>
</g>
<!-- SymbolModule&#45;&gt;SymbolPipe  -->
<g id="edge2" class="edge">
<title>SymbolModule&#45;&gt;SymbolPipe </title>
<path fill="none" stroke="black" stroke-dasharray="5,2" d="M261,-187.11C261,-187.11 261,-205.99 261,-205.99"/>
<polygon fill="black" stroke="black" points="257.5,-205.99 261,-215.99 264.5,-205.99 257.5,-205.99"/>
</g>
<!-- SymbolService -->
<g id="node4" class="node">
<title>SymbolService</title>
<ellipse fill="#fdb462" stroke="black" cx="194" cy="-104" rx="70.08" ry="18"/>
<text text-anchor="middle" x="194" y="-99.8" font-family="Times,serif" font-size="14.00">SymbolService</text>
</g>
<!-- SymbolService&#45;&gt;SymbolModule -->
<g id="edge3" class="edge">
<title>SymbolService&#45;&gt;SymbolModule</title>
<path fill="none" stroke="black" d="M236.74,-118.43C236.74,-118.43 236.74,-140.89 236.74,-140.89"/>
<polygon fill="black" stroke="black" points="233.24,-140.89 236.74,-150.89 240.24,-140.89 233.24,-140.89"/>
</g>
</g>
</svg>
