<?xml version="1.0" encoding="UTF-8" standalone="no"?>
<!DOCTYPE svg PUBLIC "-//W3C//DTD SVG 1.1//EN"
 "http://www.w3.org/Graphics/SVG/1.1/DTD/svg11.dtd">
<!-- Generated by graphviz version 2.40.1 (20161225.0304)
 -->
<!-- Title: dependencies Pages: 1 -->
<svg width="504pt" height="284pt"
 viewBox="0.00 0.00 504.00 284.00" xmlns="http://www.w3.org/2000/svg" xmlns:xlink="http://www.w3.org/1999/xlink">
<g id="graph0" class="graph" transform="scale(1 1) rotate(0) translate(4 280)">
<title>dependencies</title>
<polygon fill="#ffffff" stroke="transparent" points="-4,4 -4,-280 500,-280 500,4 -4,4"/>
<text text-anchor="start" x="227.0091" y="-42.4" font-family="sans-serif" font-weight="bold" font-size="14.00" fill="#000000">Legend</text>
<polygon fill="#ffffb3" stroke="transparent" points="14,-10 14,-30 34,-30 34,-10 14,-10"/>
<text text-anchor="start" x="37.629" y="-15.4" font-family="sans-serif" font-size="14.00" fill="#000000"> &#160;Declarations</text>
<polygon fill="#8dd3c7" stroke="transparent" points="127,-10 127,-30 147,-30 147,-10 127,-10"/>
<text text-anchor="start" x="150.7251" y="-15.4" font-family="sans-serif" font-size="14.00" fill="#000000"> &#160;Module</text>
<polygon fill="#80b1d3" stroke="transparent" points="213,-10 213,-30 233,-30 233,-10 213,-10"/>
<text text-anchor="start" x="236.7812" y="-15.4" font-family="sans-serif" font-size="14.00" fill="#000000"> &#160;Bootstrap</text>
<polygon fill="#fdb462" stroke="transparent" points="310,-10 310,-30 330,-30 330,-10 310,-10"/>
<text text-anchor="start" x="333.6732" y="-15.4" font-family="sans-serif" font-size="14.00" fill="#000000"> &#160;Providers</text>
<polygon fill="#fb8072" stroke="transparent" points="406,-10 406,-30 426,-30 426,-10 406,-10"/>
<text text-anchor="start" x="429.7258" y="-15.4" font-family="sans-serif" font-size="14.00" fill="#000000"> &#160;Exports</text>
<g id="clust1" class="cluster">
<title>cluster_SymbolModule</title>
<polygon fill="none" stroke="#000000" stroke-dasharray="1,5" points="108,-70 108,-268 388,-268 388,-70 108,-70"/>
</g>
<g id="clust2" class="cluster">
<title>cluster_SymbolModule_declarations</title>
<polygon fill="none" stroke="#000000" points="280,-78 280,-130 380,-130 380,-78 280,-78"/>
</g>
<g id="clust5" class="cluster">
<title>cluster_SymbolModule_exports</title>
<polygon fill="none" stroke="#000000" points="209,-208 209,-260 313,-260 313,-208 209,-208"/>
</g>
<g id="clust7" class="cluster">
<title>cluster_SymbolModule_providers</title>
<polygon fill="none" stroke="#000000" points="116,-78 116,-130 272,-130 272,-78 116,-78"/>
</g>
<!-- SymbolPipe -->
<g id="node1" class="node">
<title>SymbolPipe</title>
<polygon fill="#ffffb3" stroke="#000000" points="372.4528,-122 287.5472,-122 287.5472,-86 372.4528,-86 372.4528,-122"/>
<text text-anchor="middle" x="330" y="-99.8" font-family="Times,serif" font-size="14.00" fill="#000000">SymbolPipe</text>
</g>
<!-- SymbolModule -->
<g id="node2" class="node">
<title>SymbolModule</title>
<polygon fill="#8dd3c7" stroke="#000000" points="312.6137,-187 309.6137,-191 288.6137,-191 285.6137,-187 209.3863,-187 209.3863,-151 312.6137,-151 312.6137,-187"/>
<text text-anchor="middle" x="261" y="-164.8" font-family="Times,serif" font-size="14.00" fill="#000000">SymbolModule</text>
</g>
<!-- SymbolPipe&#45;&gt;SymbolModule -->
<g id="edge1" class="edge">
<title>SymbolPipe&#45;&gt;SymbolModule</title>
<path fill="none" stroke="#000000" d="M300.1655,-122.1061C300.1655,-122.1061 300.1655,-140.991 300.1655,-140.991"/>
<polygon fill="#000000" stroke="#000000" points="296.6656,-140.9909 300.1655,-150.991 303.6656,-140.991 296.6656,-140.9909"/>
</g>
<!-- SymbolPipe  -->
<g id="node3" class="node">
<title>SymbolPipe </title>
<polygon fill="#fb8072" stroke="#000000" points="304.9516,-252 217.0484,-252 217.0484,-216 304.9516,-216 304.9516,-252"/>
<text text-anchor="middle" x="261" y="-229.8" font-family="Times,serif" font-size="14.00" fill="#000000">SymbolPipe </text>
</g>
<!-- SymbolModule&#45;&gt;SymbolPipe  -->
<g id="edge2" class="edge">
<title>SymbolModule&#45;&gt;SymbolPipe </title>
<path fill="none" stroke="#000000" stroke-dasharray="5,2" d="M261,-187.1061C261,-187.1061 261,-205.991 261,-205.991"/>
<polygon fill="#000000" stroke="#000000" points="257.5001,-205.9909 261,-215.991 264.5001,-205.991 257.5001,-205.9909"/>
</g>
<!-- SymbolService -->
<g id="node4" class="node">
<title>SymbolService</title>
<ellipse fill="#fdb462" stroke="#000000" cx="194" cy="-104" rx="70.0828" ry="18"/>
<text text-anchor="middle" x="194" y="-99.8" font-family="Times,serif" font-size="14.00" fill="#000000">SymbolService</text>
</g>
<!-- SymbolService&#45;&gt;SymbolModule -->
<g id="edge3" class="edge">
<title>SymbolService&#45;&gt;SymbolModule</title>
<path fill="none" stroke="#000000" d="M236.7423,-118.4256C236.7423,-118.4256 236.7423,-140.8939 236.7423,-140.8939"/>
<polygon fill="#000000" stroke="#000000" points="233.2424,-140.8938 236.7423,-150.8939 240.2424,-140.8939 233.2424,-140.8938"/>
</g>
</g>
</svg>
