<?xml version="1.0" encoding="UTF-8" standalone="no"?>
<!DOCTYPE svg PUBLIC "-//W3C//DTD SVG 1.1//EN"
 "http://www.w3.org/Graphics/SVG/1.1/DTD/svg11.dtd">
<!-- Generated by graphviz version 2.40.1 (20161225.0304)
 -->
<!-- Title: dependencies Pages: 1 -->
<svg width="760pt" height="284pt"
 viewBox="0.00 0.00 760.00 284.00" xmlns="http://www.w3.org/2000/svg" xmlns:xlink="http://www.w3.org/1999/xlink">
<g id="graph0" class="graph" transform="scale(1 1) rotate(0) translate(4 280)">
<title>dependencies</title>
<polygon fill="#ffffff" stroke="transparent" points="-4,4 -4,-280 756,-280 756,4 -4,4"/>
<text text-anchor="start" x="355.0091" y="-42.4" font-family="sans-serif" font-weight="bold" font-size="14.00" fill="#000000">Legend</text>
<polygon fill="#ffffb3" stroke="transparent" points="142,-10 142,-30 162,-30 162,-10 142,-10"/>
<text text-anchor="start" x="165.629" y="-15.4" font-family="sans-serif" font-size="14.00" fill="#000000"> &#160;Declarations</text>
<polygon fill="#8dd3c7" stroke="transparent" points="255,-10 255,-30 275,-30 275,-10 255,-10"/>
<text text-anchor="start" x="278.7251" y="-15.4" font-family="sans-serif" font-size="14.00" fill="#000000"> &#160;Module</text>
<polygon fill="#80b1d3" stroke="transparent" points="341,-10 341,-30 361,-30 361,-10 341,-10"/>
<text text-anchor="start" x="364.7812" y="-15.4" font-family="sans-serif" font-size="14.00" fill="#000000"> &#160;Bootstrap</text>
<polygon fill="#fdb462" stroke="transparent" points="438,-10 438,-30 458,-30 458,-10 438,-10"/>
<text text-anchor="start" x="461.6732" y="-15.4" font-family="sans-serif" font-size="14.00" fill="#000000"> &#160;Providers</text>
<polygon fill="#fb8072" stroke="transparent" points="534,-10 534,-30 554,-30 554,-10 534,-10"/>
<text text-anchor="start" x="557.7258" y="-15.4" font-family="sans-serif" font-size="14.00" fill="#000000"> &#160;Exports</text>
<g id="clust1" class="cluster">
<title>cluster_CalendarModule</title>
<polygon fill="none" stroke="#000000" stroke-dasharray="1,5" points="8,-70 8,-268 744,-268 744,-70 8,-70"/>
</g>
<g id="clust2" class="cluster">
<title>cluster_CalendarModule_declarations</title>
<polygon fill="none" stroke="#000000" points="26,-78 26,-130 727,-130 727,-78 26,-78"/>
</g>
<g id="clust9" class="cluster">
<title>cluster_CalendarModule_exports</title>
<polygon fill="none" stroke="#000000" points="16,-208 16,-260 736,-260 736,-208 16,-208"/>
</g>
<!-- CalendarComponent -->
<g id="node1" class="node">
<title>CalendarComponent</title>
<polygon fill="#ffffb3" stroke="#000000" points="718.8641,-122 587.1359,-122 587.1359,-86 718.8641,-86 718.8641,-122"/>
<text text-anchor="middle" x="653" y="-99.8" font-family="Times,serif" font-size="14.00" fill="#000000">CalendarComponent</text>
</g>
<!-- CalendarModule -->
<g id="node6" class="node">
<title>CalendarModule</title>
<polygon fill="#8dd3c7" stroke="#000000" points="421.0814,-187 418.0814,-191 397.0814,-191 394.0814,-187 310.9186,-187 310.9186,-151 421.0814,-151 421.0814,-187"/>
<text text-anchor="middle" x="366" y="-164.8" font-family="Times,serif" font-size="14.00" fill="#000000">CalendarModule</text>
</g>
<!-- CalendarComponent&#45;&gt;CalendarModule -->
<g id="edge1" class="edge">
<title>CalendarComponent&#45;&gt;CalendarModule</title>
<path fill="none" stroke="#000000" d="M676.7273,-122.0225C676.7273,-139.3734 676.7273,-163 676.7273,-163 676.7273,-163 431.1938,-163 431.1938,-163"/>
<polygon fill="#000000" stroke="#000000" points="431.1938,-159.5001 421.1938,-163 431.1937,-166.5001 431.1938,-159.5001"/>
</g>
<!-- DaterangeComponent -->
<g id="node2" class="node">
<title>DaterangeComponent</title>
<polygon fill="#ffffb3" stroke="#000000" points="569.3487,-122 430.6513,-122 430.6513,-86 569.3487,-86 569.3487,-122"/>
<text text-anchor="middle" x="500" y="-99.8" font-family="Times,serif" font-size="14.00" fill="#000000">DaterangeComponent</text>
</g>
<!-- DaterangeComponent&#45;&gt;CalendarModule -->
<g id="edge2" class="edge">
<title>DaterangeComponent&#45;&gt;CalendarModule</title>
<path fill="none" stroke="#000000" d="M430.3472,-104C422.1158,-104 416.5705,-104 416.5705,-104 416.5705,-104 416.5705,-140.8939 416.5705,-140.8939"/>
<polygon fill="#000000" stroke="#000000" points="413.0706,-140.8938 416.5705,-150.8939 420.0706,-140.8939 413.0706,-140.8938"/>
</g>
<!-- DatetimePipe -->
<g id="node3" class="node">
<title>DatetimePipe</title>
<polygon fill="#ffffb3" stroke="#000000" points="412.2008,-122 319.7992,-122 319.7992,-86 412.2008,-86 412.2008,-122"/>
<text text-anchor="middle" x="366" y="-99.8" font-family="Times,serif" font-size="14.00" fill="#000000">DatetimePipe</text>
</g>
<!-- DatetimePipe&#45;&gt;CalendarModule -->
<g id="edge3" class="edge">
<title>DatetimePipe&#45;&gt;CalendarModule</title>
<path fill="none" stroke="#000000" d="M366,-122.1061C366,-122.1061 366,-140.991 366,-140.991"/>
<polygon fill="#000000" stroke="#000000" points="362.5001,-140.9909 366,-150.991 369.5001,-140.991 362.5001,-140.9909"/>
</g>
<!-- HeatmapComponent -->
<g id="node4" class="node">
<title>HeatmapComponent</title>
<polygon fill="#ffffb3" stroke="#000000" points="301.8641,-122 170.1359,-122 170.1359,-86 301.8641,-86 301.8641,-122"/>
<text text-anchor="middle" x="236" y="-99.8" font-family="Times,serif" font-size="14.00" fill="#000000">HeatmapComponent</text>
</g>
<!-- HeatmapComponent&#45;&gt;CalendarModule -->
<g id="edge4" class="edge">
<title>HeatmapComponent&#45;&gt;CalendarModule</title>
<path fill="none" stroke="#000000" d="M301.9554,-104C309.9888,-104 315.4295,-104 315.4295,-104 315.4295,-104 315.4295,-140.8939 315.4295,-140.8939"/>
<polygon fill="#000000" stroke="#000000" points="311.9296,-140.8938 315.4295,-150.8939 318.9296,-140.8939 311.9296,-140.8938"/>
</g>
<!-- MonthComponent -->
<g id="node5" class="node">
<title>MonthComponent</title>
<polygon fill="#ffffb3" stroke="#000000" points="152.1681,-122 33.8319,-122 33.8319,-86 152.1681,-86 152.1681,-122"/>
<text text-anchor="middle" x="93" y="-99.8" font-family="Times,serif" font-size="14.00" fill="#000000">MonthComponent</text>
</g>
<!-- MonthComponent&#45;&gt;CalendarModule -->
<g id="edge5" class="edge">
<title>MonthComponent&#45;&gt;CalendarModule</title>
<path fill="none" stroke="#000000" d="M108.6113,-122.0225C108.6113,-139.3734 108.6113,-163 108.6113,-163 108.6113,-163 300.7837,-163 300.7837,-163"/>
<polygon fill="#000000" stroke="#000000" points="300.7837,-166.5001 310.7837,-163 300.7836,-159.5001 300.7837,-166.5001"/>
</g>
<!-- CalendarComponent  -->
<g id="node7" class="node">
<title>CalendarComponent </title>
<polygon fill="#fb8072" stroke="#000000" points="727.8645,-252 592.1355,-252 592.1355,-216 727.8645,-216 727.8645,-252"/>
<text text-anchor="middle" x="660" y="-229.8" font-family="Times,serif" font-size="14.00" fill="#000000">CalendarComponent </text>
</g>
<!-- CalendarModule&#45;&gt;CalendarComponent  -->
<g id="edge6" class="edge">
<title>CalendarModule&#45;&gt;CalendarComponent </title>
<path fill="none" stroke="#000000" stroke-dasharray="5,2" d="M421.3125,-175C499.919,-175 634.5227,-175 634.5227,-175 634.5227,-175 634.5227,-205.9775 634.5227,-205.9775"/>
<polygon fill="#000000" stroke="#000000" points="631.0228,-205.9774 634.5227,-215.9775 638.0228,-205.9775 631.0228,-205.9774"/>
</g>
<!-- DaterangeComponent  -->
<g id="node8" class="node">
<title>DaterangeComponent </title>
<polygon fill="#fb8072" stroke="#000000" points="574.349,-252 431.651,-252 431.651,-216 574.349,-216 574.349,-252"/>
<text text-anchor="middle" x="503" y="-229.8" font-family="Times,serif" font-size="14.00" fill="#000000">DaterangeComponent </text>
</g>
<!-- CalendarModule&#45;&gt;DaterangeComponent  -->
<g id="edge7" class="edge">
<title>CalendarModule&#45;&gt;DaterangeComponent </title>
<path fill="none" stroke="#000000" stroke-dasharray="5,2" d="M417.4455,-187.1061C417.4455,-206.3391 417.4455,-234 417.4455,-234 417.4455,-234 421.5731,-234 421.5731,-234"/>
<polygon fill="#000000" stroke="#000000" points="421.5731,-237.5001 431.5731,-234 421.5731,-230.5001 421.5731,-237.5001"/>
</g>
<!-- DatetimePipe  -->
<g id="node9" class="node">
<title>DatetimePipe </title>
<polygon fill="#fb8072" stroke="#000000" points="413.7011,-252 318.2989,-252 318.2989,-216 413.7011,-216 413.7011,-252"/>
<text text-anchor="middle" x="366" y="-229.8" font-family="Times,serif" font-size="14.00" fill="#000000">DatetimePipe </text>
</g>
<!-- CalendarModule&#45;&gt;DatetimePipe  -->
<g id="edge8" class="edge">
<title>CalendarModule&#45;&gt;DatetimePipe </title>
<path fill="none" stroke="#000000" stroke-dasharray="5,2" d="M366,-187.1061C366,-187.1061 366,-205.991 366,-205.991"/>
<polygon fill="#000000" stroke="#000000" points="362.5001,-205.9909 366,-215.991 369.5001,-205.991 362.5001,-205.9909"/>
</g>
<!-- HeatmapComponent  -->
<g id="node10" class="node">
<title>HeatmapComponent </title>
<polygon fill="#fb8072" stroke="#000000" points="299.8645,-252 164.1355,-252 164.1355,-216 299.8645,-216 299.8645,-252"/>
<text text-anchor="middle" x="232" y="-229.8" font-family="Times,serif" font-size="14.00" fill="#000000">HeatmapComponent </text>
</g>
<!-- CalendarModule&#45;&gt;HeatmapComponent  -->
<g id="edge9" class="edge">
<title>CalendarModule&#45;&gt;HeatmapComponent </title>
<path fill="none" stroke="#000000" stroke-dasharray="5,2" d="M314.5545,-187.1061C314.5545,-206.3391 314.5545,-234 314.5545,-234 314.5545,-234 309.7954,-234 309.7954,-234"/>
<polygon fill="#000000" stroke="#000000" points="309.7954,-230.5001 299.7954,-234 309.7954,-237.5001 309.7954,-230.5001"/>
</g>
<!-- MonthComponent  -->
<g id="node11" class="node">
<title>MonthComponent </title>
<polygon fill="#fb8072" stroke="#000000" points="146.1677,-252 23.8323,-252 23.8323,-216 146.1677,-216 146.1677,-252"/>
<text text-anchor="middle" x="85" y="-229.8" font-family="Times,serif" font-size="14.00" fill="#000000">MonthComponent </text>
</g>
<!-- CalendarModule&#45;&gt;MonthComponent  -->
<g id="edge10" class="edge">
<title>CalendarModule&#45;&gt;MonthComponent </title>
<path fill="none" stroke="#000000" stroke-dasharray="5,2" d="M310.8847,-175C225.5412,-175 71.1387,-175 71.1387,-175 71.1387,-175 71.1387,-205.9775 71.1387,-205.9775"/>
<polygon fill="#000000" stroke="#000000" points="67.6388,-205.9774 71.1387,-215.9775 74.6388,-205.9775 67.6388,-205.9774"/>
</g>
</g>
</svg>
