<?xml version="1.0" encoding="UTF-8" standalone="no"?>
<!DOCTYPE svg PUBLIC "-//W3C//DTD SVG 1.1//EN"
 "http://www.w3.org/Graphics/SVG/1.1/DTD/svg11.dtd">
<!-- Generated by graphviz version 2.47.0 (20210316.0004)
 -->
<!-- Title: dependencies Pages: 1 -->
<svg width="760pt" height="284pt"
 viewBox="0.00 0.00 760.00 284.00" xmlns="http://www.w3.org/2000/svg" xmlns:xlink="http://www.w3.org/1999/xlink">
<g id="graph0" class="graph" transform="scale(1 1) rotate(0) translate(4 280)">
<title>dependencies</title>
<polygon fill="white" stroke="transparent" points="-4,4 -4,-280 756,-280 756,4 -4,4"/>
<text text-anchor="start" x="355.01" y="-42.4" font-family="sans-serif" font-weight="bold" font-size="14.00">Legend</text>
<polygon fill="#ffffb3" stroke="transparent" points="142,-10 142,-30 162,-30 162,-10 142,-10"/>
<text text-anchor="start" x="165.63" y="-15.4" font-family="sans-serif" font-size="14.00"> &#160;Declarations</text>
<polygon fill="#8dd3c7" stroke="transparent" points="255,-10 255,-30 275,-30 275,-10 255,-10"/>
<text text-anchor="start" x="278.73" y="-15.4" font-family="sans-serif" font-size="14.00"> &#160;Module</text>
<polygon fill="#80b1d3" stroke="transparent" points="341,-10 341,-30 361,-30 361,-10 341,-10"/>
<text text-anchor="start" x="364.78" y="-15.4" font-family="sans-serif" font-size="14.00"> &#160;Bootstrap</text>
<polygon fill="#fdb462" stroke="transparent" points="438,-10 438,-30 458,-30 458,-10 438,-10"/>
<text text-anchor="start" x="461.67" y="-15.4" font-family="sans-serif" font-size="14.00"> &#160;Providers</text>
<polygon fill="#fb8072" stroke="transparent" points="534,-10 534,-30 554,-30 554,-10 534,-10"/>
<text text-anchor="start" x="557.73" y="-15.4" font-family="sans-serif" font-size="14.00"> &#160;Exports</text>
<g id="clust1" class="cluster">
<title>cluster_CalendarModule</title>
<polygon fill="none" stroke="black" stroke-dasharray="1,5" points="8,-70 8,-268 744,-268 744,-70 8,-70"/>
</g>
<g id="clust9" class="cluster">
<title>cluster_CalendarModule_exports</title>
<polygon fill="none" stroke="black" points="16,-208 16,-260 736,-260 736,-208 16,-208"/>
</g>
<g id="clust2" class="cluster">
<title>cluster_CalendarModule_declarations</title>
<polygon fill="none" stroke="black" points="26,-78 26,-130 727,-130 727,-78 26,-78"/>
</g>
<!-- CalendarComponent -->
<g id="node1" class="node">
<title>CalendarComponent</title>
<polygon fill="#ffffb3" stroke="black" points="718.86,-122 587.14,-122 587.14,-86 718.86,-86 718.86,-122"/>
<text text-anchor="middle" x="653" y="-99.8" font-family="Times,serif" font-size="14.00">CalendarComponent</text>
</g>
<!-- CalendarModule -->
<g id="node6" class="node">
<title>CalendarModule</title>
<polygon fill="#8dd3c7" stroke="black" points="421.08,-187 418.08,-191 397.08,-191 394.08,-187 310.92,-187 310.92,-151 421.08,-151 421.08,-187"/>
<text text-anchor="middle" x="366" y="-164.8" font-family="Times,serif" font-size="14.00">CalendarModule</text>
</g>
<!-- CalendarComponent&#45;&gt;CalendarModule -->
<g id="edge1" class="edge">
<title>CalendarComponent&#45;&gt;CalendarModule</title>
<path fill="none" stroke="black" d="M676.73,-122.02C676.73,-139.37 676.73,-163 676.73,-163 676.73,-163 431.19,-163 431.19,-163"/>
<polygon fill="black" stroke="black" points="431.19,-159.5 421.19,-163 431.19,-166.5 431.19,-159.5"/>
</g>
<!-- DaterangeComponent -->
<g id="node2" class="node">
<title>DaterangeComponent</title>
<polygon fill="#ffffb3" stroke="black" points="569.35,-122 430.65,-122 430.65,-86 569.35,-86 569.35,-122"/>
<text text-anchor="middle" x="500" y="-99.8" font-family="Times,serif" font-size="14.00">DaterangeComponent</text>
</g>
<!-- DaterangeComponent&#45;&gt;CalendarModule -->
<g id="edge2" class="edge">
<title>DaterangeComponent&#45;&gt;CalendarModule</title>
<path fill="none" stroke="black" d="M430.35,-104C422.12,-104 416.57,-104 416.57,-104 416.57,-104 416.57,-140.89 416.57,-140.89"/>
<polygon fill="black" stroke="black" points="413.07,-140.89 416.57,-150.89 420.07,-140.89 413.07,-140.89"/>
</g>
<!-- DatetimePipe -->
<g id="node3" class="node">
<title>DatetimePipe</title>
<polygon fill="#ffffb3" stroke="black" points="412.2,-122 319.8,-122 319.8,-86 412.2,-86 412.2,-122"/>
<text text-anchor="middle" x="366" y="-99.8" font-family="Times,serif" font-size="14.00">DatetimePipe</text>
</g>
<!-- DatetimePipe&#45;&gt;CalendarModule -->
<g id="edge3" class="edge">
<title>DatetimePipe&#45;&gt;CalendarModule</title>
<path fill="none" stroke="black" d="M366,-122.11C366,-122.11 366,-140.99 366,-140.99"/>
<polygon fill="black" stroke="black" points="362.5,-140.99 366,-150.99 369.5,-140.99 362.5,-140.99"/>
</g>
<!-- HeatmapComponent -->
<g id="node4" class="node">
<title>HeatmapComponent</title>
<polygon fill="#ffffb3" stroke="black" points="301.86,-122 170.14,-122 170.14,-86 301.86,-86 301.86,-122"/>
<text text-anchor="middle" x="236" y="-99.8" font-family="Times,serif" font-size="14.00">HeatmapComponent</text>
</g>
<!-- HeatmapComponent&#45;&gt;CalendarModule -->
<g id="edge4" class="edge">
<title>HeatmapComponent&#45;&gt;CalendarModule</title>
<path fill="none" stroke="black" d="M301.96,-104C309.99,-104 315.43,-104 315.43,-104 315.43,-104 315.43,-140.89 315.43,-140.89"/>
<polygon fill="black" stroke="black" points="311.93,-140.89 315.43,-150.89 318.93,-140.89 311.93,-140.89"/>
</g>
<!-- MonthComponent -->
<g id="node5" class="node">
<title>MonthComponent</title>
<polygon fill="#ffffb3" stroke="black" points="152.17,-122 33.83,-122 33.83,-86 152.17,-86 152.17,-122"/>
<text text-anchor="middle" x="93" y="-99.8" font-family="Times,serif" font-size="14.00">MonthComponent</text>
</g>
<!-- MonthComponent&#45;&gt;CalendarModule -->
<g id="edge5" class="edge">
<title>MonthComponent&#45;&gt;CalendarModule</title>
<path fill="none" stroke="black" d="M108.61,-122.02C108.61,-139.37 108.61,-163 108.61,-163 108.61,-163 300.78,-163 300.78,-163"/>
<polygon fill="black" stroke="black" points="300.78,-166.5 310.78,-163 300.78,-159.5 300.78,-166.5"/>
</g>
<!-- CalendarComponent  -->
<g id="node7" class="node">
<title>CalendarComponent </title>
<polygon fill="#fb8072" stroke="black" points="727.86,-252 592.14,-252 592.14,-216 727.86,-216 727.86,-252"/>
<text text-anchor="middle" x="660" y="-229.8" font-family="Times,serif" font-size="14.00">CalendarComponent </text>
</g>
<!-- CalendarModule&#45;&gt;CalendarComponent  -->
<g id="edge6" class="edge">
<title>CalendarModule&#45;&gt;CalendarComponent </title>
<path fill="none" stroke="black" stroke-dasharray="5,2" d="M421.31,-175C499.92,-175 634.52,-175 634.52,-175 634.52,-175 634.52,-205.98 634.52,-205.98"/>
<polygon fill="black" stroke="black" points="631.02,-205.98 634.52,-215.98 638.02,-205.98 631.02,-205.98"/>
</g>
<!-- DaterangeComponent  -->
<g id="node8" class="node">
<title>DaterangeComponent </title>
<polygon fill="#fb8072" stroke="black" points="574.35,-252 431.65,-252 431.65,-216 574.35,-216 574.35,-252"/>
<text text-anchor="middle" x="503" y="-229.8" font-family="Times,serif" font-size="14.00">DaterangeComponent </text>
</g>
<!-- CalendarModule&#45;&gt;DaterangeComponent  -->
<g id="edge7" class="edge">
<title>CalendarModule&#45;&gt;DaterangeComponent </title>
<path fill="none" stroke="black" stroke-dasharray="5,2" d="M417.45,-187.11C417.45,-206.34 417.45,-234 417.45,-234 417.45,-234 421.57,-234 421.57,-234"/>
<polygon fill="black" stroke="black" points="421.57,-237.5 431.57,-234 421.57,-230.5 421.57,-237.5"/>
</g>
<!-- DatetimePipe  -->
<g id="node9" class="node">
<title>DatetimePipe </title>
<polygon fill="#fb8072" stroke="black" points="413.7,-252 318.3,-252 318.3,-216 413.7,-216 413.7,-252"/>
<text text-anchor="middle" x="366" y="-229.8" font-family="Times,serif" font-size="14.00">DatetimePipe </text>
</g>
<!-- CalendarModule&#45;&gt;DatetimePipe  -->
<g id="edge8" class="edge">
<title>CalendarModule&#45;&gt;DatetimePipe </title>
<path fill="none" stroke="black" stroke-dasharray="5,2" d="M366,-187.11C366,-187.11 366,-205.99 366,-205.99"/>
<polygon fill="black" stroke="black" points="362.5,-205.99 366,-215.99 369.5,-205.99 362.5,-205.99"/>
</g>
<!-- HeatmapComponent  -->
<g id="node10" class="node">
<title>HeatmapComponent </title>
<polygon fill="#fb8072" stroke="black" points="299.86,-252 164.14,-252 164.14,-216 299.86,-216 299.86,-252"/>
<text text-anchor="middle" x="232" y="-229.8" font-family="Times,serif" font-size="14.00">HeatmapComponent </text>
</g>
<!-- CalendarModule&#45;&gt;HeatmapComponent  -->
<g id="edge9" class="edge">
<title>CalendarModule&#45;&gt;HeatmapComponent </title>
<path fill="none" stroke="black" stroke-dasharray="5,2" d="M314.55,-187.11C314.55,-206.34 314.55,-234 314.55,-234 314.55,-234 309.8,-234 309.8,-234"/>
<polygon fill="black" stroke="black" points="309.8,-230.5 299.8,-234 309.8,-237.5 309.8,-230.5"/>
</g>
<!-- MonthComponent  -->
<g id="node11" class="node">
<title>MonthComponent </title>
<polygon fill="#fb8072" stroke="black" points="146.17,-252 23.83,-252 23.83,-216 146.17,-216 146.17,-252"/>
<text text-anchor="middle" x="85" y="-229.8" font-family="Times,serif" font-size="14.00">MonthComponent </text>
</g>
<!-- CalendarModule&#45;&gt;MonthComponent  -->
<g id="edge10" class="edge">
<title>CalendarModule&#45;&gt;MonthComponent </title>
<path fill="none" stroke="black" stroke-dasharray="5,2" d="M310.88,-175C225.54,-175 71.14,-175 71.14,-175 71.14,-175 71.14,-205.98 71.14,-205.98"/>
<polygon fill="black" stroke="black" points="67.64,-205.98 71.14,-215.98 74.64,-205.98 67.64,-205.98"/>
</g>
</g>
</svg>
