<?xml version="1.0" encoding="UTF-8" standalone="no"?>
<!DOCTYPE svg PUBLIC "-//W3C//DTD SVG 1.1//EN"
 "http://www.w3.org/Graphics/SVG/1.1/DTD/svg11.dtd">
<!-- Generated by graphviz version 2.47.0 (20210316.0004)
 -->
<!-- Title: dependencies Pages: 1 -->
<svg width="1598pt" height="396pt"
 viewBox="0.00 0.00 1598.00 395.59" xmlns="http://www.w3.org/2000/svg" xmlns:xlink="http://www.w3.org/1999/xlink">
<g id="graph0" class="graph" transform="scale(1 1) rotate(0) translate(4 391.59)">
<title>dependencies</title>
<polygon fill="white" stroke="transparent" points="-4,4 -4,-391.59 1594,-391.59 1594,4 -4,4"/>
<text text-anchor="start" x="774.01" y="-42.4" font-family="sans-serif" font-weight="bold" font-size="14.00">Legend</text>
<polygon fill="#ffffb3" stroke="transparent" points="561,-10 561,-30 581,-30 581,-10 561,-10"/>
<text text-anchor="start" x="584.63" y="-15.4" font-family="sans-serif" font-size="14.00"> &#160;Declarations</text>
<polygon fill="#8dd3c7" stroke="transparent" points="674,-10 674,-30 694,-30 694,-10 674,-10"/>
<text text-anchor="start" x="697.73" y="-15.4" font-family="sans-serif" font-size="14.00"> &#160;Module</text>
<polygon fill="#80b1d3" stroke="transparent" points="760,-10 760,-30 780,-30 780,-10 760,-10"/>
<text text-anchor="start" x="783.78" y="-15.4" font-family="sans-serif" font-size="14.00"> &#160;Bootstrap</text>
<polygon fill="#fdb462" stroke="transparent" points="857,-10 857,-30 877,-30 877,-10 857,-10"/>
<text text-anchor="start" x="880.67" y="-15.4" font-family="sans-serif" font-size="14.00"> &#160;Providers</text>
<polygon fill="#fb8072" stroke="transparent" points="953,-10 953,-30 973,-30 973,-10 953,-10"/>
<text text-anchor="start" x="976.73" y="-15.4" font-family="sans-serif" font-size="14.00"> &#160;Exports</text>
<g id="clust1" class="cluster">
<title>cluster_LocationModule</title>
<polygon fill="none" stroke="black" stroke-dasharray="1,5" points="8,-70 8,-379.59 1582,-379.59 1582,-70 8,-70"/>
</g>
<g id="clust6" class="cluster">
<title>cluster_LocationModule_imports</title>
<polygon fill="none" stroke="black" points="1484,-189.59 1484,-241.59 1574,-241.59 1574,-189.59 1484,-189.59"/>
</g>
<g id="clust9" class="cluster">
<title>cluster_LocationModule_providers</title>
<polygon fill="none" stroke="black" points="1312,-189.59 1312,-241.59 1476,-241.59 1476,-189.59 1312,-189.59"/>
</g>
<g id="clust4" class="cluster">
<title>cluster_LocationModule_LocationPickerComponent_providers</title>
<polygon fill="none" stroke="black" points="384,-78 384,-241.59 1304,-241.59 1304,-78 384,-78"/>
</g>
<g id="clust7" class="cluster">
<title>cluster_LocationModule_exports</title>
<polygon fill="none" stroke="black" points="560,-319.59 560,-371.59 1115,-371.59 1115,-319.59 560,-319.59"/>
</g>
<g id="clust2" class="cluster">
<title>cluster_LocationModule_declarations</title>
<polygon fill="none" stroke="black" points="16,-189.59 16,-241.59 376,-241.59 376,-189.59 16,-189.59"/>
</g>
<!-- LocationMapComponent -->
<g id="node1" class="node">
<title>LocationMapComponent</title>
<polygon fill="#ffffb3" stroke="black" points="368.25,-233.59 211.75,-233.59 211.75,-197.59 368.25,-197.59 368.25,-233.59"/>
<text text-anchor="middle" x="290" y="-211.39" font-family="Times,serif" font-size="14.00">LocationMapComponent</text>
</g>
<!-- LocationModule -->
<g id="node4" class="node">
<title>LocationModule</title>
<polygon fill="#8dd3c7" stroke="black" points="898.81,-298.59 895.81,-302.59 874.81,-302.59 871.81,-298.59 789.19,-298.59 789.19,-262.59 898.81,-262.59 898.81,-298.59"/>
<text text-anchor="middle" x="844" y="-276.39" font-family="Times,serif" font-size="14.00">LocationModule</text>
</g>
<!-- LocationMapComponent&#45;&gt;LocationModule -->
<g id="edge1" class="edge">
<title>LocationMapComponent&#45;&gt;LocationModule</title>
<path fill="none" stroke="black" d="M290,-233.62C290,-249.99 290,-271.59 290,-271.59 290,-271.59 779.11,-271.59 779.11,-271.59"/>
<polygon fill="black" stroke="black" points="779.11,-275.09 789.11,-271.59 779.11,-268.09 779.11,-275.09"/>
</g>
<!-- LocationPickerComponent -->
<g id="node2" class="node">
<title>LocationPickerComponent</title>
<polygon fill="#ffffb3" stroke="black" points="927.36,-233.59 760.64,-233.59 760.64,-197.59 927.36,-197.59 927.36,-233.59"/>
<text text-anchor="middle" x="844" y="-211.39" font-family="Times,serif" font-size="14.00">LocationPickerComponent</text>
</g>
<!-- LocationPickerComponent&#45;&gt;LocationModule -->
<g id="edge2" class="edge">
<title>LocationPickerComponent&#45;&gt;LocationModule</title>
<path fill="none" stroke="black" d="M844,-233.7C844,-233.7 844,-252.58 844,-252.58"/>
<polygon fill="black" stroke="black" points="840.5,-252.58 844,-262.58 847.5,-252.58 840.5,-252.58"/>
</g>
<!-- LocationSearchComponent -->
<g id="node3" class="node">
<title>LocationSearchComponent</title>
<polygon fill="#ffffb3" stroke="black" points="193.68,-233.59 24.32,-233.59 24.32,-197.59 193.68,-197.59 193.68,-233.59"/>
<text text-anchor="middle" x="109" y="-211.39" font-family="Times,serif" font-size="14.00">LocationSearchComponent</text>
</g>
<!-- LocationSearchComponent&#45;&gt;LocationModule -->
<g id="edge4" class="edge">
<title>LocationSearchComponent&#45;&gt;LocationModule</title>
<path fill="none" stroke="black" d="M109,-233.7C109,-252.93 109,-280.59 109,-280.59 109,-280.59 779.06,-280.59 779.06,-280.59"/>
<polygon fill="black" stroke="black" points="779.06,-284.09 789.06,-280.59 779.06,-277.09 779.06,-284.09"/>
</g>
<!-- LocationMapComponent  -->
<g id="node7" class="node">
<title>LocationMapComponent </title>
<polygon fill="#fb8072" stroke="black" points="1107.25,-363.59 946.75,-363.59 946.75,-327.59 1107.25,-327.59 1107.25,-363.59"/>
<text text-anchor="middle" x="1027" y="-341.39" font-family="Times,serif" font-size="14.00">LocationMapComponent </text>
</g>
<!-- LocationModule&#45;&gt;LocationMapComponent  -->
<g id="edge6" class="edge">
<title>LocationModule&#45;&gt;LocationMapComponent </title>
<path fill="none" stroke="black" stroke-dasharray="5,2" d="M898.91,-289.59C952.81,-289.59 1027,-289.59 1027,-289.59 1027,-289.59 1027,-317.56 1027,-317.56"/>
<polygon fill="black" stroke="black" points="1023.5,-317.56 1027,-327.56 1030.5,-317.56 1023.5,-317.56"/>
</g>
<!-- LocationPickerComponent  -->
<g id="node8" class="node">
<title>LocationPickerComponent </title>
<polygon fill="#fb8072" stroke="black" points="929.36,-363.59 758.64,-363.59 758.64,-327.59 929.36,-327.59 929.36,-363.59"/>
<text text-anchor="middle" x="844" y="-341.39" font-family="Times,serif" font-size="14.00">LocationPickerComponent </text>
</g>
<!-- LocationModule&#45;&gt;LocationPickerComponent  -->
<g id="edge7" class="edge">
<title>LocationModule&#45;&gt;LocationPickerComponent </title>
<path fill="none" stroke="black" stroke-dasharray="5,2" d="M844,-298.7C844,-298.7 844,-317.58 844,-317.58"/>
<polygon fill="black" stroke="black" points="840.5,-317.58 844,-327.58 847.5,-317.58 840.5,-317.58"/>
</g>
<!-- LocationSearchComponent  -->
<g id="node9" class="node">
<title>LocationSearchComponent </title>
<polygon fill="#fb8072" stroke="black" points="740.18,-363.59 567.82,-363.59 567.82,-327.59 740.18,-327.59 740.18,-363.59"/>
<text text-anchor="middle" x="654" y="-341.39" font-family="Times,serif" font-size="14.00">LocationSearchComponent </text>
</g>
<!-- LocationModule&#45;&gt;LocationSearchComponent  -->
<g id="edge8" class="edge">
<title>LocationModule&#45;&gt;LocationSearchComponent </title>
<path fill="none" stroke="black" stroke-dasharray="5,2" d="M789.3,-289.59C733.17,-289.59 654,-289.59 654,-289.59 654,-289.59 654,-317.56 654,-317.56"/>
<polygon fill="black" stroke="black" points="650.5,-317.56 654,-327.56 657.5,-317.56 650.5,-317.56"/>
</g>
<!-- {
 &#160;&#160;&#160;provide: NG_VALUE_ACCESSOR, useExisting: forwardRef(() =&gt; LocationPickerComponent), multi: true,
} -->
<g id="node5" class="node">
<title>{
 &#160;&#160;&#160;provide: NG_VALUE_ACCESSOR, useExisting: forwardRef(() =&gt; LocationPickerComponent), multi: true,
}</title>
<ellipse fill="#fdb462" stroke="black" cx="844" cy="-127.3" rx="452.42" ry="41.09"/>
<text text-anchor="middle" x="844" y="-139.9" font-family="Times,serif" font-size="14.00">{</text>
<text text-anchor="middle" x="844" y="-123.1" font-family="Times,serif" font-size="14.00"> &#160;&#160;&#160;provide: NG_VALUE_ACCESSOR, useExisting: forwardRef(() =&gt; LocationPickerComponent), multi: true,</text>
<text text-anchor="middle" x="844" y="-106.3" font-family="Times,serif" font-size="14.00">}</text>
</g>
<!-- {
 &#160;&#160;&#160;provide: NG_VALUE_ACCESSOR, useExisting: forwardRef(() =&gt; LocationPickerComponent), multi: true,
}&#45;&gt;LocationPickerComponent -->
<g id="edge3" class="edge">
<title>{
 &#160;&#160;&#160;provide: NG_VALUE_ACCESSOR, useExisting: forwardRef(() =&gt; LocationPickerComponent), multi: true,
}&#45;&gt;LocationPickerComponent</title>
<path fill="none" stroke="black" d="M844,-168.6C844,-168.6 844,-187.26 844,-187.26"/>
<polygon fill="black" stroke="black" points="840.5,-187.26 844,-197.26 847.5,-187.26 840.5,-187.26"/>
</g>
<!-- UiModule -->
<g id="node6" class="node">
<title>UiModule</title>
<polygon fill="#8dd3c7" stroke="black" points="1565.55,-233.59 1562.55,-237.59 1541.55,-237.59 1538.55,-233.59 1492.45,-233.59 1492.45,-197.59 1565.55,-197.59 1565.55,-233.59"/>
<text text-anchor="middle" x="1529" y="-211.39" font-family="Times,serif" font-size="14.00">UiModule</text>
</g>
<!-- UiModule&#45;&gt;LocationModule -->
<g id="edge5" class="edge">
<title>UiModule&#45;&gt;LocationModule</title>
<path fill="none" stroke="black" d="M1529,-233.7C1529,-252.93 1529,-280.59 1529,-280.59 1529,-280.59 908.9,-280.59 908.9,-280.59"/>
<polygon fill="black" stroke="black" points="908.9,-277.09 898.9,-280.59 908.9,-284.09 908.9,-277.09"/>
</g>
<!-- GeocodeService -->
<g id="node10" class="node">
<title>GeocodeService</title>
<ellipse fill="#fdb462" stroke="black" cx="1394" cy="-215.59" rx="74.12" ry="18"/>
<text text-anchor="middle" x="1394" y="-211.39" font-family="Times,serif" font-size="14.00">GeocodeService</text>
</g>
<!-- GeocodeService&#45;&gt;LocationModule -->
<g id="edge9" class="edge">
<title>GeocodeService&#45;&gt;LocationModule</title>
<path fill="none" stroke="black" d="M1394,-233.62C1394,-249.99 1394,-271.59 1394,-271.59 1394,-271.59 908.75,-271.59 908.75,-271.59"/>
<polygon fill="black" stroke="black" points="908.75,-268.09 898.75,-271.59 908.75,-275.09 908.75,-268.09"/>
</g>
</g>
</svg>
