<?xml version="1.0" encoding="UTF-8" standalone="no"?>
<!DOCTYPE svg PUBLIC "-//W3C//DTD SVG 1.1//EN"
 "http://www.w3.org/Graphics/SVG/1.1/DTD/svg11.dtd">
<!-- Generated by graphviz version 2.40.1 (20161225.0304)
 -->
<!-- Title: dependencies Pages: 1 -->
<svg width="855pt" height="284pt"
 viewBox="0.00 0.00 855.00 284.00" xmlns="http://www.w3.org/2000/svg" xmlns:xlink="http://www.w3.org/1999/xlink">
<g id="graph0" class="graph" transform="scale(1 1) rotate(0) translate(4 280)">
<title>dependencies</title>
<polygon fill="#ffffff" stroke="transparent" points="-4,4 -4,-280 851,-280 851,4 -4,4"/>
<text text-anchor="start" x="402.5091" y="-42.4" font-family="sans-serif" font-weight="bold" font-size="14.00" fill="#000000">Legend</text>
<polygon fill="#ffffb3" stroke="transparent" points="189.5,-10 189.5,-30 209.5,-30 209.5,-10 189.5,-10"/>
<text text-anchor="start" x="213.129" y="-15.4" font-family="sans-serif" font-size="14.00" fill="#000000"> &#160;Declarations</text>
<polygon fill="#8dd3c7" stroke="transparent" points="302.5,-10 302.5,-30 322.5,-30 322.5,-10 302.5,-10"/>
<text text-anchor="start" x="326.2251" y="-15.4" font-family="sans-serif" font-size="14.00" fill="#000000"> &#160;Module</text>
<polygon fill="#80b1d3" stroke="transparent" points="388.5,-10 388.5,-30 408.5,-30 408.5,-10 388.5,-10"/>
<text text-anchor="start" x="412.2812" y="-15.4" font-family="sans-serif" font-size="14.00" fill="#000000"> &#160;Bootstrap</text>
<polygon fill="#fdb462" stroke="transparent" points="485.5,-10 485.5,-30 505.5,-30 505.5,-10 485.5,-10"/>
<text text-anchor="start" x="509.1732" y="-15.4" font-family="sans-serif" font-size="14.00" fill="#000000"> &#160;Providers</text>
<polygon fill="#fb8072" stroke="transparent" points="581.5,-10 581.5,-30 601.5,-30 601.5,-10 581.5,-10"/>
<text text-anchor="start" x="605.2258" y="-15.4" font-family="sans-serif" font-size="14.00" fill="#000000"> &#160;Exports</text>
<g id="clust1" class="cluster">
<title>cluster_LocationModule</title>
<polygon fill="none" stroke="#000000" stroke-dasharray="1,5" points="8,-70 8,-268 839,-268 839,-70 8,-70"/>
</g>
<g id="clust2" class="cluster">
<title>cluster_LocationModule_declarations</title>
<polygon fill="none" stroke="#000000" points="286,-78 286,-130 831,-130 831,-78 286,-78"/>
</g>
<g id="clust6" class="cluster">
<title>cluster_LocationModule_imports</title>
<polygon fill="none" stroke="#000000" points="188,-78 188,-130 278,-130 278,-78 188,-78"/>
</g>
<g id="clust7" class="cluster">
<title>cluster_LocationModule_exports</title>
<polygon fill="none" stroke="#000000" points="95,-208 95,-260 650,-260 650,-208 95,-208"/>
</g>
<g id="clust9" class="cluster">
<title>cluster_LocationModule_providers</title>
<polygon fill="none" stroke="#000000" points="16,-78 16,-130 180,-130 180,-78 16,-78"/>
</g>
<!-- LocationMapComponent -->
<g id="node1" class="node">
<title>LocationMapComponent</title>
<polygon fill="#ffffb3" stroke="#000000" points="823.2548,-122 666.7452,-122 666.7452,-86 823.2548,-86 823.2548,-122"/>
<text text-anchor="middle" x="745" y="-99.8" font-family="Times,serif" font-size="14.00" fill="#000000">LocationMapComponent</text>
</g>
<!-- LocationModule -->
<g id="node4" class="node">
<title>LocationModule</title>
<polygon fill="#8dd3c7" stroke="#000000" points="433.8132,-187 430.8132,-191 409.8132,-191 406.8132,-187 324.1868,-187 324.1868,-151 433.8132,-151 433.8132,-187"/>
<text text-anchor="middle" x="379" y="-164.8" font-family="Times,serif" font-size="14.00" fill="#000000">LocationModule</text>
</g>
<!-- LocationMapComponent&#45;&gt;LocationModule -->
<g id="edge1" class="edge">
<title>LocationMapComponent&#45;&gt;LocationModule</title>
<path fill="none" stroke="#000000" d="M745,-122.1061C745,-141.3391 745,-169 745,-169 745,-169 443.7939,-169 443.7939,-169"/>
<polygon fill="#000000" stroke="#000000" points="443.7939,-165.5001 433.7939,-169 443.7939,-172.5001 443.7939,-165.5001"/>
</g>
<!-- LocationPickerComponent -->
<g id="node2" class="node">
<title>LocationPickerComponent</title>
<polygon fill="#ffffb3" stroke="#000000" points="648.3585,-122 481.6415,-122 481.6415,-86 648.3585,-86 648.3585,-122"/>
<text text-anchor="middle" x="565" y="-99.8" font-family="Times,serif" font-size="14.00" fill="#000000">LocationPickerComponent</text>
</g>
<!-- LocationPickerComponent&#45;&gt;LocationModule -->
<g id="edge2" class="edge">
<title>LocationPickerComponent&#45;&gt;LocationModule</title>
<path fill="none" stroke="#000000" d="M535.2909,-122.027C535.2909,-138.3976 535.2909,-160 535.2909,-160 535.2909,-160 443.663,-160 443.663,-160"/>
<polygon fill="#000000" stroke="#000000" points="443.663,-156.5001 433.663,-160 443.6629,-163.5001 443.663,-156.5001"/>
</g>
<!-- LocationSearchComponent -->
<g id="node3" class="node">
<title>LocationSearchComponent</title>
<polygon fill="#ffffb3" stroke="#000000" points="463.6825,-122 294.3175,-122 294.3175,-86 463.6825,-86 463.6825,-122"/>
<text text-anchor="middle" x="379" y="-99.8" font-family="Times,serif" font-size="14.00" fill="#000000">LocationSearchComponent</text>
</g>
<!-- LocationSearchComponent&#45;&gt;LocationModule -->
<g id="edge3" class="edge">
<title>LocationSearchComponent&#45;&gt;LocationModule</title>
<path fill="none" stroke="#000000" d="M379,-122.1061C379,-122.1061 379,-140.991 379,-140.991"/>
<polygon fill="#000000" stroke="#000000" points="375.5001,-140.9909 379,-150.991 382.5001,-140.991 375.5001,-140.9909"/>
</g>
<!-- LocationMapComponent  -->
<g id="node6" class="node">
<title>LocationMapComponent </title>
<polygon fill="#fb8072" stroke="#000000" points="642.2548,-252 481.7452,-252 481.7452,-216 642.2548,-216 642.2548,-252"/>
<text text-anchor="middle" x="562" y="-229.8" font-family="Times,serif" font-size="14.00" fill="#000000">LocationMapComponent </text>
</g>
<!-- LocationModule&#45;&gt;LocationMapComponent  -->
<g id="edge5" class="edge">
<title>LocationModule&#45;&gt;LocationMapComponent </title>
<path fill="none" stroke="#000000" stroke-dasharray="5,2" d="M433.8247,-178C495.9596,-178 588.7091,-178 588.7091,-178 588.7091,-178 588.7091,-205.973 588.7091,-205.973"/>
<polygon fill="#000000" stroke="#000000" points="585.2092,-205.973 588.7091,-215.973 592.2092,-205.973 585.2092,-205.973"/>
</g>
<!-- LocationPickerComponent  -->
<g id="node7" class="node">
<title>LocationPickerComponent </title>
<polygon fill="#fb8072" stroke="#000000" points="464.3588,-252 293.6412,-252 293.6412,-216 464.3588,-216 464.3588,-252"/>
<text text-anchor="middle" x="379" y="-229.8" font-family="Times,serif" font-size="14.00" fill="#000000">LocationPickerComponent </text>
</g>
<!-- LocationModule&#45;&gt;LocationPickerComponent  -->
<g id="edge6" class="edge">
<title>LocationModule&#45;&gt;LocationPickerComponent </title>
<path fill="none" stroke="#000000" stroke-dasharray="5,2" d="M379,-187.1061C379,-187.1061 379,-205.991 379,-205.991"/>
<polygon fill="#000000" stroke="#000000" points="375.5001,-205.9909 379,-215.991 382.5001,-205.991 375.5001,-205.9909"/>
</g>
<!-- LocationSearchComponent  -->
<g id="node8" class="node">
<title>LocationSearchComponent </title>
<polygon fill="#fb8072" stroke="#000000" points="275.1827,-252 102.8173,-252 102.8173,-216 275.1827,-216 275.1827,-252"/>
<text text-anchor="middle" x="189" y="-229.8" font-family="Times,serif" font-size="14.00" fill="#000000">LocationSearchComponent </text>
</g>
<!-- LocationModule&#45;&gt;LocationSearchComponent  -->
<g id="edge7" class="edge">
<title>LocationModule&#45;&gt;LocationSearchComponent </title>
<path fill="none" stroke="#000000" stroke-dasharray="5,2" d="M324.0932,-178C278.3846,-178 220.7422,-178 220.7422,-178 220.7422,-178 220.7422,-205.973 220.7422,-205.973"/>
<polygon fill="#000000" stroke="#000000" points="217.2423,-205.973 220.7422,-215.973 224.2423,-205.973 217.2423,-205.973"/>
</g>
<!-- UiModule -->
<g id="node5" class="node">
<title>UiModule</title>
<polygon fill="#8dd3c7" stroke="#000000" points="269.5484,-122 266.5484,-126 245.5484,-126 242.5484,-122 196.4516,-122 196.4516,-86 269.5484,-86 269.5484,-122"/>
<text text-anchor="middle" x="233" y="-99.8" font-family="Times,serif" font-size="14.00" fill="#000000">UiModule</text>
</g>
<!-- UiModule&#45;&gt;LocationModule -->
<g id="edge4" class="edge">
<title>UiModule&#45;&gt;LocationModule</title>
<path fill="none" stroke="#000000" d="M245.2578,-122.027C245.2578,-138.3976 245.2578,-160 245.2578,-160 245.2578,-160 314.2161,-160 314.2161,-160"/>
<polygon fill="#000000" stroke="#000000" points="314.2161,-163.5001 324.2161,-160 314.216,-156.5001 314.2161,-163.5001"/>
</g>
<!-- GeocodeService -->
<g id="node9" class="node">
<title>GeocodeService</title>
<ellipse fill="#fdb462" stroke="#000000" cx="98" cy="-104" rx="74.1181" ry="18"/>
<text text-anchor="middle" x="98" y="-99.8" font-family="Times,serif" font-size="14.00" fill="#000000">GeocodeService</text>
</g>
<!-- GeocodeService&#45;&gt;LocationModule -->
<g id="edge8" class="edge">
<title>GeocodeService&#45;&gt;LocationModule</title>
<path fill="none" stroke="#000000" d="M137.4838,-119.4041C137.4838,-138.6255 137.4838,-169 137.4838,-169 137.4838,-169 314.1962,-169 314.1962,-169"/>
<polygon fill="#000000" stroke="#000000" points="314.1963,-172.5001 324.1962,-169 314.1962,-165.5001 314.1963,-172.5001"/>
</g>
</g>
</svg>
