<?xml version="1.0" encoding="UTF-8" standalone="no"?>
<!DOCTYPE svg PUBLIC "-//W3C//DTD SVG 1.1//EN"
 "http://www.w3.org/Graphics/SVG/1.1/DTD/svg11.dtd">
<!-- Generated by graphviz version 2.47.0 (20210316.0004)
 -->
<!-- Title: dependencies Pages: 1 -->
<svg width="960pt" height="396pt"
 viewBox="0.00 0.00 960.00 395.59" xmlns="http://www.w3.org/2000/svg" xmlns:xlink="http://www.w3.org/1999/xlink">
<g id="graph0" class="graph" transform="scale(1 1) rotate(0) translate(4 391.59)">
<title>dependencies</title>
<polygon fill="white" stroke="transparent" points="-4,4 -4,-391.59 956,-391.59 956,4 -4,4"/>
<text text-anchor="start" x="455.01" y="-42.4" font-family="sans-serif" font-weight="bold" font-size="14.00">Legend</text>
<polygon fill="#ffffb3" stroke="transparent" points="242,-10 242,-30 262,-30 262,-10 242,-10"/>
<text text-anchor="start" x="265.63" y="-15.4" font-family="sans-serif" font-size="14.00"> &#160;Declarations</text>
<polygon fill="#8dd3c7" stroke="transparent" points="355,-10 355,-30 375,-30 375,-10 355,-10"/>
<text text-anchor="start" x="378.73" y="-15.4" font-family="sans-serif" font-size="14.00"> &#160;Module</text>
<polygon fill="#80b1d3" stroke="transparent" points="441,-10 441,-30 461,-30 461,-10 441,-10"/>
<text text-anchor="start" x="464.78" y="-15.4" font-family="sans-serif" font-size="14.00"> &#160;Bootstrap</text>
<polygon fill="#fdb462" stroke="transparent" points="538,-10 538,-30 558,-30 558,-10 538,-10"/>
<text text-anchor="start" x="561.67" y="-15.4" font-family="sans-serif" font-size="14.00"> &#160;Providers</text>
<polygon fill="#fb8072" stroke="transparent" points="634,-10 634,-30 654,-30 654,-10 634,-10"/>
<text text-anchor="start" x="657.73" y="-15.4" font-family="sans-serif" font-size="14.00"> &#160;Exports</text>
<g id="clust1" class="cluster">
<title>cluster_LocationModule</title>
<polygon fill="none" stroke="black" stroke-dasharray="1,5" points="8,-70 8,-379.59 944,-379.59 944,-70 8,-70"/>
</g>
<g id="clust6" class="cluster">
<title>cluster_LocationModule_imports</title>
<polygon fill="none" stroke="black" points="846,-189.59 846,-241.59 936,-241.59 936,-189.59 846,-189.59"/>
</g>
<g id="clust7" class="cluster">
<title>cluster_LocationModule_exports</title>
<polygon fill="none" stroke="black" points="296,-319.59 296,-371.59 851,-371.59 851,-319.59 296,-319.59"/>
</g>
<g id="clust2" class="cluster">
<title>cluster_LocationModule_declarations</title>
<polygon fill="none" stroke="black" points="121,-189.59 121,-241.59 666,-241.59 666,-189.59 121,-189.59"/>
</g>
<g id="clust9" class="cluster">
<title>cluster_LocationModule_providers</title>
<polygon fill="none" stroke="black" points="674,-189.59 674,-241.59 838,-241.59 838,-189.59 674,-189.59"/>
</g>
<g id="clust4" class="cluster">
<title>cluster_LocationModule_LocationPickerComponent_providers</title>
<polygon fill="none" stroke="black" points="16,-78 16,-176.59 936,-176.59 936,-78 16,-78"/>
</g>
<!-- LocationMapComponent -->
<g id="node1" class="node">
<title>LocationMapComponent</title>
<polygon fill="#ffffb3" stroke="black" points="658.25,-233.59 501.75,-233.59 501.75,-197.59 658.25,-197.59 658.25,-233.59"/>
<text text-anchor="middle" x="580" y="-211.39" font-family="Times,serif" font-size="14.00">LocationMapComponent</text>
</g>
<!-- LocationModule -->
<g id="node4" class="node">
<title>LocationModule</title>
<polygon fill="#8dd3c7" stroke="black" points="634.81,-298.59 631.81,-302.59 610.81,-302.59 607.81,-298.59 525.19,-298.59 525.19,-262.59 634.81,-262.59 634.81,-298.59"/>
<text text-anchor="middle" x="580" y="-276.39" font-family="Times,serif" font-size="14.00">LocationModule</text>
</g>
<!-- LocationMapComponent&#45;&gt;LocationModule -->
<g id="edge1" class="edge">
<title>LocationMapComponent&#45;&gt;LocationModule</title>
<path fill="none" stroke="black" d="M580,-233.7C580,-233.7 580,-252.58 580,-252.58"/>
<polygon fill="black" stroke="black" points="576.5,-252.58 580,-262.58 583.5,-252.58 576.5,-252.58"/>
</g>
<!-- LocationPickerComponent -->
<g id="node2" class="node">
<title>LocationPickerComponent</title>
<polygon fill="#ffffb3" stroke="black" points="483.36,-233.59 316.64,-233.59 316.64,-197.59 483.36,-197.59 483.36,-233.59"/>
<text text-anchor="middle" x="400" y="-211.39" font-family="Times,serif" font-size="14.00">LocationPickerComponent</text>
</g>
<!-- LocationPickerComponent&#45;&gt;LocationModule -->
<g id="edge2" class="edge">
<title>LocationPickerComponent&#45;&gt;LocationModule</title>
<path fill="none" stroke="black" d="M479.89,-233.62C479.89,-249.99 479.89,-271.59 479.89,-271.59 479.89,-271.59 515.26,-271.59 515.26,-271.59"/>
<polygon fill="black" stroke="black" points="515.26,-275.09 525.26,-271.59 515.26,-268.09 515.26,-275.09"/>
</g>
<!-- LocationSearchComponent -->
<g id="node3" class="node">
<title>LocationSearchComponent</title>
<polygon fill="#ffffb3" stroke="black" points="298.68,-233.59 129.32,-233.59 129.32,-197.59 298.68,-197.59 298.68,-233.59"/>
<text text-anchor="middle" x="214" y="-211.39" font-family="Times,serif" font-size="14.00">LocationSearchComponent</text>
</g>
<!-- LocationSearchComponent&#45;&gt;LocationModule -->
<g id="edge4" class="edge">
<title>LocationSearchComponent&#45;&gt;LocationModule</title>
<path fill="none" stroke="black" d="M214,-233.7C214,-252.93 214,-280.59 214,-280.59 214,-280.59 515.21,-280.59 515.21,-280.59"/>
<polygon fill="black" stroke="black" points="515.21,-284.09 525.21,-280.59 515.21,-277.09 515.21,-284.09"/>
</g>
<!-- LocationMapComponent  -->
<g id="node7" class="node">
<title>LocationMapComponent </title>
<polygon fill="#fb8072" stroke="black" points="843.25,-363.59 682.75,-363.59 682.75,-327.59 843.25,-327.59 843.25,-363.59"/>
<text text-anchor="middle" x="763" y="-341.39" font-family="Times,serif" font-size="14.00">LocationMapComponent </text>
</g>
<!-- LocationModule&#45;&gt;LocationMapComponent  -->
<g id="edge6" class="edge">
<title>LocationModule&#45;&gt;LocationMapComponent </title>
<path fill="none" stroke="black" stroke-dasharray="5,2" d="M634.88,-289.59C678.43,-289.59 732.02,-289.59 732.02,-289.59 732.02,-289.59 732.02,-317.56 732.02,-317.56"/>
<polygon fill="black" stroke="black" points="728.52,-317.56 732.02,-327.56 735.52,-317.56 728.52,-317.56"/>
</g>
<!-- LocationPickerComponent  -->
<g id="node8" class="node">
<title>LocationPickerComponent </title>
<polygon fill="#fb8072" stroke="black" points="665.36,-363.59 494.64,-363.59 494.64,-327.59 665.36,-327.59 665.36,-363.59"/>
<text text-anchor="middle" x="580" y="-341.39" font-family="Times,serif" font-size="14.00">LocationPickerComponent </text>
</g>
<!-- LocationModule&#45;&gt;LocationPickerComponent  -->
<g id="edge7" class="edge">
<title>LocationModule&#45;&gt;LocationPickerComponent </title>
<path fill="none" stroke="black" stroke-dasharray="5,2" d="M580,-298.7C580,-298.7 580,-317.58 580,-317.58"/>
<polygon fill="black" stroke="black" points="576.5,-317.58 580,-327.58 583.5,-317.58 576.5,-317.58"/>
</g>
<!-- LocationSearchComponent  -->
<g id="node9" class="node">
<title>LocationSearchComponent </title>
<polygon fill="#fb8072" stroke="black" points="476.18,-363.59 303.82,-363.59 303.82,-327.59 476.18,-327.59 476.18,-363.59"/>
<text text-anchor="middle" x="390" y="-341.39" font-family="Times,serif" font-size="14.00">LocationSearchComponent </text>
</g>
<!-- LocationModule&#45;&gt;LocationSearchComponent  -->
<g id="edge8" class="edge">
<title>LocationModule&#45;&gt;LocationSearchComponent </title>
<path fill="none" stroke="black" stroke-dasharray="5,2" d="M524.93,-289.59C470.87,-289.59 396.46,-289.59 396.46,-289.59 396.46,-289.59 396.46,-317.56 396.46,-317.56"/>
<polygon fill="black" stroke="black" points="392.96,-317.56 396.46,-327.56 399.96,-317.56 392.96,-317.56"/>
</g>
<!-- {
 &#160;&#160;&#160;provide: NG_VALUE_ACCESSOR, useExisting: forwardRef(() =&gt; LocationPickerComponent), multi: true,
} -->
<g id="node5" class="node">
<title>{
 &#160;&#160;&#160;provide: NG_VALUE_ACCESSOR, useExisting: forwardRef(() =&gt; LocationPickerComponent), multi: true,
}</title>
<ellipse fill="#fdb462" stroke="black" cx="476" cy="-127.3" rx="452.42" ry="41.09"/>
<text text-anchor="middle" x="476" y="-139.9" font-family="Times,serif" font-size="14.00">{</text>
<text text-anchor="middle" x="476" y="-123.1" font-family="Times,serif" font-size="14.00"> &#160;&#160;&#160;provide: NG_VALUE_ACCESSOR, useExisting: forwardRef(() =&gt; LocationPickerComponent), multi: true,</text>
<text text-anchor="middle" x="476" y="-106.3" font-family="Times,serif" font-size="14.00">}</text>
</g>
<!-- {
 &#160;&#160;&#160;provide: NG_VALUE_ACCESSOR, useExisting: forwardRef(() =&gt; LocationPickerComponent), multi: true,
}&#45;&gt;LocationPickerComponent -->
<g id="edge3" class="edge">
<title>{
 &#160;&#160;&#160;provide: NG_VALUE_ACCESSOR, useExisting: forwardRef(() =&gt; LocationPickerComponent), multi: true,
}&#45;&gt;LocationPickerComponent</title>
<path fill="none" stroke="black" d="M400,-168.08C400,-168.08 400,-187.46 400,-187.46"/>
<polygon fill="black" stroke="black" points="396.5,-187.46 400,-197.46 403.5,-187.46 396.5,-187.46"/>
</g>
<!-- UiModule -->
<g id="node6" class="node">
<title>UiModule</title>
<polygon fill="#8dd3c7" stroke="black" points="927.55,-233.59 924.55,-237.59 903.55,-237.59 900.55,-233.59 854.45,-233.59 854.45,-197.59 927.55,-197.59 927.55,-233.59"/>
<text text-anchor="middle" x="891" y="-211.39" font-family="Times,serif" font-size="14.00">UiModule</text>
</g>
<!-- UiModule&#45;&gt;LocationModule -->
<g id="edge5" class="edge">
<title>UiModule&#45;&gt;LocationModule</title>
<path fill="none" stroke="black" d="M891,-233.7C891,-252.93 891,-280.59 891,-280.59 891,-280.59 644.88,-280.59 644.88,-280.59"/>
<polygon fill="black" stroke="black" points="644.88,-277.09 634.88,-280.59 644.88,-284.09 644.88,-277.09"/>
</g>
<!-- GeocodeService -->
<g id="node10" class="node">
<title>GeocodeService</title>
<ellipse fill="#fdb462" stroke="black" cx="756" cy="-215.59" rx="74.12" ry="18"/>
<text text-anchor="middle" x="756" y="-211.39" font-family="Times,serif" font-size="14.00">GeocodeService</text>
</g>
<!-- GeocodeService&#45;&gt;LocationModule -->
<g id="edge9" class="edge">
<title>GeocodeService&#45;&gt;LocationModule</title>
<path fill="none" stroke="black" d="M781.16,-232.7C781.16,-249.16 781.16,-271.59 781.16,-271.59 781.16,-271.59 644.7,-271.59 644.7,-271.59"/>
<polygon fill="black" stroke="black" points="644.7,-268.09 634.7,-271.59 644.7,-275.09 644.7,-268.09"/>
</g>
</g>
</svg>
