<?xml version="1.0" encoding="UTF-8" standalone="no"?>
<!DOCTYPE svg PUBLIC "-//W3C//DTD SVG 1.1//EN"
 "http://www.w3.org/Graphics/SVG/1.1/DTD/svg11.dtd">
<!-- Generated by graphviz version 2.47.0 (20210316.0004)
 -->
<!-- Title: dependencies Pages: 1 -->
<svg width="960pt" height="396pt"
 viewBox="0.00 0.00 960.00 395.59" xmlns="http://www.w3.org/2000/svg" xmlns:xlink="http://www.w3.org/1999/xlink">
<g id="graph0" class="graph" transform="scale(1 1) rotate(0) translate(4 391.59)">
<title>dependencies</title>
<polygon fill="white" stroke="transparent" points="-4,4 -4,-391.59 956,-391.59 956,4 -4,4"/>
<text text-anchor="start" x="455.01" y="-42.4" font-family="sans-serif" font-weight="bold" font-size="14.00">Legend</text>
<polygon fill="#ffffb3" stroke="transparent" points="242,-10 242,-30 262,-30 262,-10 242,-10"/>
<text text-anchor="start" x="265.63" y="-15.4" font-family="sans-serif" font-size="14.00"> &#160;Declarations</text>
<polygon fill="#8dd3c7" stroke="transparent" points="355,-10 355,-30 375,-30 375,-10 355,-10"/>
<text text-anchor="start" x="378.73" y="-15.4" font-family="sans-serif" font-size="14.00"> &#160;Module</text>
<polygon fill="#80b1d3" stroke="transparent" points="441,-10 441,-30 461,-30 461,-10 441,-10"/>
<text text-anchor="start" x="464.78" y="-15.4" font-family="sans-serif" font-size="14.00"> &#160;Bootstrap</text>
<polygon fill="#fdb462" stroke="transparent" points="538,-10 538,-30 558,-30 558,-10 538,-10"/>
<text text-anchor="start" x="561.67" y="-15.4" font-family="sans-serif" font-size="14.00"> &#160;Providers</text>
<polygon fill="#fb8072" stroke="transparent" points="634,-10 634,-30 654,-30 654,-10 634,-10"/>
<text text-anchor="start" x="657.73" y="-15.4" font-family="sans-serif" font-size="14.00"> &#160;Exports</text>
<g id="clust1" class="cluster">
<title>cluster_LocationModule</title>
<polygon fill="none" stroke="black" stroke-dasharray="1,5" points="8,-70 8,-379.59 944,-379.59 944,-70 8,-70"/>
</g>
<g id="clust2" class="cluster">
<title>cluster_LocationModule_declarations</title>
<polygon fill="none" stroke="black" points="197,-189.59 197,-241.59 742,-241.59 742,-189.59 197,-189.59"/>
</g>
<g id="clust6" class="cluster">
<title>cluster_LocationModule_imports</title>
<polygon fill="none" stroke="black" points="750,-189.59 750,-241.59 840,-241.59 840,-189.59 750,-189.59"/>
</g>
<g id="clust7" class="cluster">
<title>cluster_LocationModule_exports</title>
<polygon fill="none" stroke="black" points="192,-319.59 192,-371.59 747,-371.59 747,-319.59 192,-319.59"/>
</g>
<g id="clust4" class="cluster">
<title>cluster_LocationModule_LocationPickerComponent_providers</title>
<polygon fill="none" stroke="black" points="16,-78 16,-176.59 936,-176.59 936,-78 16,-78"/>
</g>
<g id="clust9" class="cluster">
<title>cluster_LocationModule_providers</title>
<polygon fill="none" stroke="black" points="25,-189.59 25,-241.59 189,-241.59 189,-189.59 25,-189.59"/>
</g>
<!-- LocationMapComponent -->
<g id="node1" class="node">
<title>LocationMapComponent</title>
<polygon fill="#ffffb3" stroke="black" points="734.25,-233.59 577.75,-233.59 577.75,-197.59 734.25,-197.59 734.25,-233.59"/>
<text text-anchor="middle" x="656" y="-211.39" font-family="Times,serif" font-size="14.00">LocationMapComponent</text>
</g>
<!-- LocationModule -->
<g id="node4" class="node">
<title>LocationModule</title>
<polygon fill="#8dd3c7" stroke="black" points="530.81,-298.59 527.81,-302.59 506.81,-302.59 503.81,-298.59 421.19,-298.59 421.19,-262.59 530.81,-262.59 530.81,-298.59"/>
<text text-anchor="middle" x="476" y="-276.39" font-family="Times,serif" font-size="14.00">LocationModule</text>
</g>
<!-- LocationMapComponent&#45;&gt;LocationModule -->
<g id="edge1" class="edge">
<title>LocationMapComponent&#45;&gt;LocationModule</title>
<path fill="none" stroke="black" d="M682.54,-233.62C682.54,-249.99 682.54,-271.59 682.54,-271.59 682.54,-271.59 540.81,-271.59 540.81,-271.59"/>
<polygon fill="black" stroke="black" points="540.81,-268.09 530.81,-271.59 540.81,-275.09 540.81,-268.09"/>
</g>
<!-- LocationPickerComponent -->
<g id="node2" class="node">
<title>LocationPickerComponent</title>
<polygon fill="#ffffb3" stroke="black" points="559.36,-233.59 392.64,-233.59 392.64,-197.59 559.36,-197.59 559.36,-233.59"/>
<text text-anchor="middle" x="476" y="-211.39" font-family="Times,serif" font-size="14.00">LocationPickerComponent</text>
</g>
<!-- LocationPickerComponent&#45;&gt;LocationModule -->
<g id="edge2" class="edge">
<title>LocationPickerComponent&#45;&gt;LocationModule</title>
<path fill="none" stroke="black" d="M476,-233.7C476,-233.7 476,-252.58 476,-252.58"/>
<polygon fill="black" stroke="black" points="472.5,-252.58 476,-262.58 479.5,-252.58 472.5,-252.58"/>
</g>
<!-- LocationSearchComponent -->
<g id="node3" class="node">
<title>LocationSearchComponent</title>
<polygon fill="#ffffb3" stroke="black" points="374.68,-233.59 205.32,-233.59 205.32,-197.59 374.68,-197.59 374.68,-233.59"/>
<text text-anchor="middle" x="290" y="-211.39" font-family="Times,serif" font-size="14.00">LocationSearchComponent</text>
</g>
<!-- LocationSearchComponent&#45;&gt;LocationModule -->
<g id="edge4" class="edge">
<title>LocationSearchComponent&#45;&gt;LocationModule</title>
<path fill="none" stroke="black" d="M316.7,-233.62C316.7,-249.99 316.7,-271.59 316.7,-271.59 316.7,-271.59 411.18,-271.59 411.18,-271.59"/>
<polygon fill="black" stroke="black" points="411.18,-275.09 421.18,-271.59 411.18,-268.09 411.18,-275.09"/>
</g>
<!-- LocationMapComponent  -->
<g id="node7" class="node">
<title>LocationMapComponent </title>
<polygon fill="#fb8072" stroke="black" points="739.25,-363.59 578.75,-363.59 578.75,-327.59 739.25,-327.59 739.25,-363.59"/>
<text text-anchor="middle" x="659" y="-341.39" font-family="Times,serif" font-size="14.00">LocationMapComponent </text>
</g>
<!-- LocationModule&#45;&gt;LocationMapComponent  -->
<g id="edge6" class="edge">
<title>LocationModule&#45;&gt;LocationMapComponent </title>
<path fill="none" stroke="black" stroke-dasharray="5,2" d="M530.98,-289.59C575.45,-289.59 630.71,-289.59 630.71,-289.59 630.71,-289.59 630.71,-317.56 630.71,-317.56"/>
<polygon fill="black" stroke="black" points="627.21,-317.56 630.71,-327.56 634.21,-317.56 627.21,-317.56"/>
</g>
<!-- LocationPickerComponent  -->
<g id="node8" class="node">
<title>LocationPickerComponent </title>
<polygon fill="#fb8072" stroke="black" points="561.36,-363.59 390.64,-363.59 390.64,-327.59 561.36,-327.59 561.36,-363.59"/>
<text text-anchor="middle" x="476" y="-341.39" font-family="Times,serif" font-size="14.00">LocationPickerComponent </text>
</g>
<!-- LocationModule&#45;&gt;LocationPickerComponent  -->
<g id="edge7" class="edge">
<title>LocationModule&#45;&gt;LocationPickerComponent </title>
<path fill="none" stroke="black" stroke-dasharray="5,2" d="M476,-298.7C476,-298.7 476,-317.58 476,-317.58"/>
<polygon fill="black" stroke="black" points="472.5,-317.58 476,-327.58 479.5,-317.58 472.5,-317.58"/>
</g>
<!-- LocationSearchComponent  -->
<g id="node9" class="node">
<title>LocationSearchComponent </title>
<polygon fill="#fb8072" stroke="black" points="372.18,-363.59 199.82,-363.59 199.82,-327.59 372.18,-327.59 372.18,-363.59"/>
<text text-anchor="middle" x="286" y="-341.39" font-family="Times,serif" font-size="14.00">LocationSearchComponent </text>
</g>
<!-- LocationModule&#45;&gt;LocationSearchComponent  -->
<g id="edge8" class="edge">
<title>LocationModule&#45;&gt;LocationSearchComponent </title>
<path fill="none" stroke="black" stroke-dasharray="5,2" d="M421.2,-289.59C357.52,-289.59 261.05,-289.59 261.05,-289.59 261.05,-289.59 261.05,-317.56 261.05,-317.56"/>
<polygon fill="black" stroke="black" points="257.55,-317.56 261.05,-327.56 264.55,-317.56 257.55,-317.56"/>
</g>
<!-- {
 &#160;&#160;&#160;provide: NG_VALUE_ACCESSOR, useExisting: forwardRef(() =&gt; LocationPickerComponent), multi: true,
} -->
<g id="node5" class="node">
<title>{
 &#160;&#160;&#160;provide: NG_VALUE_ACCESSOR, useExisting: forwardRef(() =&gt; LocationPickerComponent), multi: true,
}</title>
<ellipse fill="#fdb462" stroke="black" cx="476" cy="-127.3" rx="452.42" ry="41.09"/>
<text text-anchor="middle" x="476" y="-139.9" font-family="Times,serif" font-size="14.00">{</text>
<text text-anchor="middle" x="476" y="-123.1" font-family="Times,serif" font-size="14.00"> &#160;&#160;&#160;provide: NG_VALUE_ACCESSOR, useExisting: forwardRef(() =&gt; LocationPickerComponent), multi: true,</text>
<text text-anchor="middle" x="476" y="-106.3" font-family="Times,serif" font-size="14.00">}</text>
</g>
<!-- {
 &#160;&#160;&#160;provide: NG_VALUE_ACCESSOR, useExisting: forwardRef(() =&gt; LocationPickerComponent), multi: true,
}&#45;&gt;LocationPickerComponent -->
<g id="edge3" class="edge">
<title>{
 &#160;&#160;&#160;provide: NG_VALUE_ACCESSOR, useExisting: forwardRef(() =&gt; LocationPickerComponent), multi: true,
}&#45;&gt;LocationPickerComponent</title>
<path fill="none" stroke="black" d="M476,-168.6C476,-168.6 476,-187.26 476,-187.26"/>
<polygon fill="black" stroke="black" points="472.5,-187.26 476,-197.26 479.5,-187.26 472.5,-187.26"/>
</g>
<!-- UiModule -->
<g id="node6" class="node">
<title>UiModule</title>
<polygon fill="#8dd3c7" stroke="black" points="831.55,-233.59 828.55,-237.59 807.55,-237.59 804.55,-233.59 758.45,-233.59 758.45,-197.59 831.55,-197.59 831.55,-233.59"/>
<text text-anchor="middle" x="795" y="-211.39" font-family="Times,serif" font-size="14.00">UiModule</text>
</g>
<!-- UiModule&#45;&gt;LocationModule -->
<g id="edge5" class="edge">
<title>UiModule&#45;&gt;LocationModule</title>
<path fill="none" stroke="black" d="M795,-233.7C795,-252.93 795,-280.59 795,-280.59 795,-280.59 540.84,-280.59 540.84,-280.59"/>
<polygon fill="black" stroke="black" points="540.84,-277.09 530.84,-280.59 540.84,-284.09 540.84,-277.09"/>
</g>
<!-- GeocodeService -->
<g id="node10" class="node">
<title>GeocodeService</title>
<ellipse fill="#fdb462" stroke="black" cx="107" cy="-215.59" rx="74.12" ry="18"/>
<text text-anchor="middle" x="107" y="-211.39" font-family="Times,serif" font-size="14.00">GeocodeService</text>
</g>
<!-- GeocodeService&#45;&gt;LocationModule -->
<g id="edge9" class="edge">
<title>GeocodeService&#45;&gt;LocationModule</title>
<path fill="none" stroke="black" d="M107,-233.7C107,-252.93 107,-280.59 107,-280.59 107,-280.59 411.16,-280.59 411.16,-280.59"/>
<polygon fill="black" stroke="black" points="411.16,-284.09 421.16,-280.59 411.16,-277.09 411.16,-284.09"/>
</g>
</g>
</svg>
