<?xml version="1.0" encoding="UTF-8" standalone="no"?>
<!DOCTYPE svg PUBLIC "-//W3C//DTD SVG 1.1//EN"
 "http://www.w3.org/Graphics/SVG/1.1/DTD/svg11.dtd">
<!-- Generated by graphviz version 2.47.0 (20210316.0004)
 -->
<!-- Title: dependencies Pages: 1 -->
<svg width="1598pt" height="396pt"
 viewBox="0.00 0.00 1598.00 395.59" xmlns="http://www.w3.org/2000/svg" xmlns:xlink="http://www.w3.org/1999/xlink">
<g id="graph0" class="graph" transform="scale(1 1) rotate(0) translate(4 391.59)">
<title>dependencies</title>
<polygon fill="white" stroke="transparent" points="-4,4 -4,-391.59 1594,-391.59 1594,4 -4,4"/>
<text text-anchor="start" x="774.01" y="-42.4" font-family="sans-serif" font-weight="bold" font-size="14.00">Legend</text>
<polygon fill="#ffffb3" stroke="transparent" points="561,-10 561,-30 581,-30 581,-10 561,-10"/>
<text text-anchor="start" x="584.63" y="-15.4" font-family="sans-serif" font-size="14.00"> &#160;Declarations</text>
<polygon fill="#8dd3c7" stroke="transparent" points="674,-10 674,-30 694,-30 694,-10 674,-10"/>
<text text-anchor="start" x="697.73" y="-15.4" font-family="sans-serif" font-size="14.00"> &#160;Module</text>
<polygon fill="#80b1d3" stroke="transparent" points="760,-10 760,-30 780,-30 780,-10 760,-10"/>
<text text-anchor="start" x="783.78" y="-15.4" font-family="sans-serif" font-size="14.00"> &#160;Bootstrap</text>
<polygon fill="#fdb462" stroke="transparent" points="857,-10 857,-30 877,-30 877,-10 857,-10"/>
<text text-anchor="start" x="880.67" y="-15.4" font-family="sans-serif" font-size="14.00"> &#160;Providers</text>
<polygon fill="#fb8072" stroke="transparent" points="953,-10 953,-30 973,-30 973,-10 953,-10"/>
<text text-anchor="start" x="976.73" y="-15.4" font-family="sans-serif" font-size="14.00"> &#160;Exports</text>
<g id="clust1" class="cluster">
<title>cluster_LocationModule</title>
<polygon fill="none" stroke="black" stroke-dasharray="1,5" points="8,-70 8,-379.59 1582,-379.59 1582,-70 8,-70"/>
</g>
<g id="clust6" class="cluster">
<title>cluster_LocationModule_imports</title>
<polygon fill="none" stroke="black" points="1484,-189.59 1484,-241.59 1574,-241.59 1574,-189.59 1484,-189.59"/>
</g>
<g id="clust4" class="cluster">
<title>cluster_LocationModule_LocationPickerComponent_providers</title>
<polygon fill="none" stroke="black" points="556,-78 556,-241.59 1476,-241.59 1476,-78 556,-78"/>
</g>
<g id="clust2" class="cluster">
<title>cluster_LocationModule_declarations</title>
<polygon fill="none" stroke="black" points="188,-189.59 188,-241.59 548,-241.59 548,-189.59 188,-189.59"/>
</g>
<g id="clust7" class="cluster">
<title>cluster_LocationModule_exports</title>
<polygon fill="none" stroke="black" points="178,-319.59 178,-371.59 733,-371.59 733,-319.59 178,-319.59"/>
</g>
<g id="clust9" class="cluster">
<title>cluster_LocationModule_providers</title>
<polygon fill="none" stroke="black" points="16,-189.59 16,-241.59 180,-241.59 180,-189.59 16,-189.59"/>
</g>
<!-- LocationMapComponent -->
<g id="node1" class="node">
<title>LocationMapComponent</title>
<polygon fill="#ffffb3" stroke="black" points="540.25,-233.59 383.75,-233.59 383.75,-197.59 540.25,-197.59 540.25,-233.59"/>
<text text-anchor="middle" x="462" y="-211.39" font-family="Times,serif" font-size="14.00">LocationMapComponent</text>
</g>
<!-- LocationModule -->
<g id="node4" class="node">
<title>LocationModule</title>
<polygon fill="#8dd3c7" stroke="black" points="516.81,-298.59 513.81,-302.59 492.81,-302.59 489.81,-298.59 407.19,-298.59 407.19,-262.59 516.81,-262.59 516.81,-298.59"/>
<text text-anchor="middle" x="462" y="-276.39" font-family="Times,serif" font-size="14.00">LocationModule</text>
</g>
<!-- LocationMapComponent&#45;&gt;LocationModule -->
<g id="edge1" class="edge">
<title>LocationMapComponent&#45;&gt;LocationModule</title>
<path fill="none" stroke="black" d="M462,-233.7C462,-233.7 462,-252.58 462,-252.58"/>
<polygon fill="black" stroke="black" points="458.5,-252.58 462,-262.58 465.5,-252.58 458.5,-252.58"/>
</g>
<!-- LocationPickerComponent -->
<g id="node2" class="node">
<title>LocationPickerComponent</title>
<polygon fill="#ffffb3" stroke="black" points="914.36,-233.59 747.64,-233.59 747.64,-197.59 914.36,-197.59 914.36,-233.59"/>
<text text-anchor="middle" x="831" y="-211.39" font-family="Times,serif" font-size="14.00">LocationPickerComponent</text>
</g>
<!-- LocationPickerComponent&#45;&gt;LocationModule -->
<g id="edge2" class="edge">
<title>LocationPickerComponent&#45;&gt;LocationModule</title>
<path fill="none" stroke="black" d="M831,-233.62C831,-249.99 831,-271.59 831,-271.59 831,-271.59 526.84,-271.59 526.84,-271.59"/>
<polygon fill="black" stroke="black" points="526.84,-268.09 516.84,-271.59 526.84,-275.09 526.84,-268.09"/>
</g>
<!-- LocationSearchComponent -->
<g id="node3" class="node">
<title>LocationSearchComponent</title>
<polygon fill="#ffffb3" stroke="black" points="365.68,-233.59 196.32,-233.59 196.32,-197.59 365.68,-197.59 365.68,-233.59"/>
<text text-anchor="middle" x="281" y="-211.39" font-family="Times,serif" font-size="14.00">LocationSearchComponent</text>
</g>
<!-- LocationSearchComponent&#45;&gt;LocationModule -->
<g id="edge4" class="edge">
<title>LocationSearchComponent&#45;&gt;LocationModule</title>
<path fill="none" stroke="black" d="M361.97,-233.62C361.97,-249.99 361.97,-271.59 361.97,-271.59 361.97,-271.59 397.3,-271.59 397.3,-271.59"/>
<polygon fill="black" stroke="black" points="397.3,-275.09 407.3,-271.59 397.3,-268.09 397.3,-275.09"/>
</g>
<!-- LocationMapComponent  -->
<g id="node7" class="node">
<title>LocationMapComponent </title>
<polygon fill="#fb8072" stroke="black" points="725.25,-363.59 564.75,-363.59 564.75,-327.59 725.25,-327.59 725.25,-363.59"/>
<text text-anchor="middle" x="645" y="-341.39" font-family="Times,serif" font-size="14.00">LocationMapComponent </text>
</g>
<!-- LocationModule&#45;&gt;LocationMapComponent  -->
<g id="edge6" class="edge">
<title>LocationModule&#45;&gt;LocationMapComponent </title>
<path fill="none" stroke="black" stroke-dasharray="5,2" d="M516.91,-289.59C570.81,-289.59 645,-289.59 645,-289.59 645,-289.59 645,-317.56 645,-317.56"/>
<polygon fill="black" stroke="black" points="641.5,-317.56 645,-327.56 648.5,-317.56 641.5,-317.56"/>
</g>
<!-- LocationPickerComponent  -->
<g id="node8" class="node">
<title>LocationPickerComponent </title>
<polygon fill="#fb8072" stroke="black" points="547.36,-363.59 376.64,-363.59 376.64,-327.59 547.36,-327.59 547.36,-363.59"/>
<text text-anchor="middle" x="462" y="-341.39" font-family="Times,serif" font-size="14.00">LocationPickerComponent </text>
</g>
<!-- LocationModule&#45;&gt;LocationPickerComponent  -->
<g id="edge7" class="edge">
<title>LocationModule&#45;&gt;LocationPickerComponent </title>
<path fill="none" stroke="black" stroke-dasharray="5,2" d="M462,-298.7C462,-298.7 462,-317.58 462,-317.58"/>
<polygon fill="black" stroke="black" points="458.5,-317.58 462,-327.58 465.5,-317.58 458.5,-317.58"/>
</g>
<!-- LocationSearchComponent  -->
<g id="node9" class="node">
<title>LocationSearchComponent </title>
<polygon fill="#fb8072" stroke="black" points="358.18,-363.59 185.82,-363.59 185.82,-327.59 358.18,-327.59 358.18,-363.59"/>
<text text-anchor="middle" x="272" y="-341.39" font-family="Times,serif" font-size="14.00">LocationSearchComponent </text>
</g>
<!-- LocationModule&#45;&gt;LocationSearchComponent  -->
<g id="edge8" class="edge">
<title>LocationModule&#45;&gt;LocationSearchComponent </title>
<path fill="none" stroke="black" stroke-dasharray="5,2" d="M407.11,-289.59C352.68,-289.59 277.38,-289.59 277.38,-289.59 277.38,-289.59 277.38,-317.56 277.38,-317.56"/>
<polygon fill="black" stroke="black" points="273.88,-317.56 277.38,-327.56 280.88,-317.56 273.88,-317.56"/>
</g>
<!-- {
 &#160;&#160;&#160;provide: NG_VALUE_ACCESSOR, useExisting: forwardRef(() =&gt; LocationPickerComponent), multi: true,
} -->
<g id="node5" class="node">
<title>{
 &#160;&#160;&#160;provide: NG_VALUE_ACCESSOR, useExisting: forwardRef(() =&gt; LocationPickerComponent), multi: true,
}</title>
<ellipse fill="#fdb462" stroke="black" cx="1016" cy="-127.3" rx="452.42" ry="41.09"/>
<text text-anchor="middle" x="1016" y="-139.9" font-family="Times,serif" font-size="14.00">{</text>
<text text-anchor="middle" x="1016" y="-123.1" font-family="Times,serif" font-size="14.00"> &#160;&#160;&#160;provide: NG_VALUE_ACCESSOR, useExisting: forwardRef(() =&gt; LocationPickerComponent), multi: true,</text>
<text text-anchor="middle" x="1016" y="-106.3" font-family="Times,serif" font-size="14.00">}</text>
</g>
<!-- {
 &#160;&#160;&#160;provide: NG_VALUE_ACCESSOR, useExisting: forwardRef(() =&gt; LocationPickerComponent), multi: true,
}&#45;&gt;LocationPickerComponent -->
<g id="edge3" class="edge">
<title>{
 &#160;&#160;&#160;provide: NG_VALUE_ACCESSOR, useExisting: forwardRef(() =&gt; LocationPickerComponent), multi: true,
}&#45;&gt;LocationPickerComponent</title>
<path fill="none" stroke="black" d="M831,-165C831,-165 831,-187.45 831,-187.45"/>
<polygon fill="black" stroke="black" points="827.5,-187.45 831,-197.45 834.5,-187.45 827.5,-187.45"/>
</g>
<!-- UiModule -->
<g id="node6" class="node">
<title>UiModule</title>
<polygon fill="#8dd3c7" stroke="black" points="1565.55,-233.59 1562.55,-237.59 1541.55,-237.59 1538.55,-233.59 1492.45,-233.59 1492.45,-197.59 1565.55,-197.59 1565.55,-233.59"/>
<text text-anchor="middle" x="1529" y="-211.39" font-family="Times,serif" font-size="14.00">UiModule</text>
</g>
<!-- UiModule&#45;&gt;LocationModule -->
<g id="edge5" class="edge">
<title>UiModule&#45;&gt;LocationModule</title>
<path fill="none" stroke="black" d="M1529,-233.7C1529,-252.93 1529,-280.59 1529,-280.59 1529,-280.59 526.75,-280.59 526.75,-280.59"/>
<polygon fill="black" stroke="black" points="526.75,-277.09 516.75,-280.59 526.75,-284.09 526.75,-277.09"/>
</g>
<!-- GeocodeService -->
<g id="node10" class="node">
<title>GeocodeService</title>
<ellipse fill="#fdb462" stroke="black" cx="98" cy="-215.59" rx="74.12" ry="18"/>
<text text-anchor="middle" x="98" y="-211.39" font-family="Times,serif" font-size="14.00">GeocodeService</text>
</g>
<!-- GeocodeService&#45;&gt;LocationModule -->
<g id="edge9" class="edge">
<title>GeocodeService&#45;&gt;LocationModule</title>
<path fill="none" stroke="black" d="M98,-233.7C98,-252.93 98,-280.59 98,-280.59 98,-280.59 397.11,-280.59 397.11,-280.59"/>
<polygon fill="black" stroke="black" points="397.11,-284.09 407.11,-280.59 397.11,-277.09 397.11,-284.09"/>
</g>
</g>
</svg>
