<?xml version="1.0" encoding="UTF-8" standalone="no"?>
<!DOCTYPE svg PUBLIC "-//W3C//DTD SVG 1.1//EN"
 "http://www.w3.org/Graphics/SVG/1.1/DTD/svg11.dtd">
<!-- Generated by graphviz version 2.40.1 (20161225.0304)
 -->
<!-- Title: dependencies Pages: 1 -->
<svg width="854pt" height="284pt"
 viewBox="0.00 0.00 854.00 284.00" xmlns="http://www.w3.org/2000/svg" xmlns:xlink="http://www.w3.org/1999/xlink">
<g id="graph0" class="graph" transform="scale(1 1) rotate(0) translate(4 280)">
<title>dependencies</title>
<polygon fill="#ffffff" stroke="transparent" points="-4,4 -4,-280 850,-280 850,4 -4,4"/>
<text text-anchor="start" x="402.0091" y="-42.4" font-family="sans-serif" font-weight="bold" font-size="14.00" fill="#000000">Legend</text>
<polygon fill="#ffffb3" stroke="transparent" points="189,-10 189,-30 209,-30 209,-10 189,-10"/>
<text text-anchor="start" x="212.629" y="-15.4" font-family="sans-serif" font-size="14.00" fill="#000000"> &#160;Declarations</text>
<polygon fill="#8dd3c7" stroke="transparent" points="302,-10 302,-30 322,-30 322,-10 302,-10"/>
<text text-anchor="start" x="325.7251" y="-15.4" font-family="sans-serif" font-size="14.00" fill="#000000"> &#160;Module</text>
<polygon fill="#80b1d3" stroke="transparent" points="388,-10 388,-30 408,-30 408,-10 388,-10"/>
<text text-anchor="start" x="411.7812" y="-15.4" font-family="sans-serif" font-size="14.00" fill="#000000"> &#160;Bootstrap</text>
<polygon fill="#fdb462" stroke="transparent" points="485,-10 485,-30 505,-30 505,-10 485,-10"/>
<text text-anchor="start" x="508.6732" y="-15.4" font-family="sans-serif" font-size="14.00" fill="#000000"> &#160;Providers</text>
<polygon fill="#fb8072" stroke="transparent" points="581,-10 581,-30 601,-30 601,-10 581,-10"/>
<text text-anchor="start" x="604.7258" y="-15.4" font-family="sans-serif" font-size="14.00" fill="#000000"> &#160;Exports</text>
<g id="clust1" class="cluster">
<title>cluster_LocationModule</title>
<polygon fill="none" stroke="#000000" stroke-dasharray="1,5" points="8,-70 8,-268 838,-268 838,-70 8,-70"/>
</g>
<g id="clust2" class="cluster">
<title>cluster_LocationModule_declarations</title>
<polygon fill="none" stroke="#000000" points="286,-78 286,-130 830,-130 830,-78 286,-78"/>
</g>
<g id="clust6" class="cluster">
<title>cluster_LocationModule_imports</title>
<polygon fill="none" stroke="#000000" points="188,-78 188,-130 278,-130 278,-78 188,-78"/>
</g>
<g id="clust7" class="cluster">
<title>cluster_LocationModule_exports</title>
<polygon fill="none" stroke="#000000" points="94,-208 94,-260 649,-260 649,-208 94,-208"/>
</g>
<g id="clust9" class="cluster">
<title>cluster_LocationModule_providers</title>
<polygon fill="none" stroke="#000000" points="16,-78 16,-130 180,-130 180,-78 16,-78"/>
</g>
<!-- LocationMapComponent -->
<g id="node1" class="node">
<title>LocationMapComponent</title>
<polygon fill="#ffffb3" stroke="#000000" points="822.2548,-122 665.7452,-122 665.7452,-86 822.2548,-86 822.2548,-122"/>
<text text-anchor="middle" x="744" y="-99.8" font-family="Times,serif" font-size="14.00" fill="#000000">LocationMapComponent</text>
</g>
<!-- LocationModule -->
<g id="node4" class="node">
<title>LocationModule</title>
<polygon fill="#8dd3c7" stroke="#000000" points="431.8132,-187 428.8132,-191 407.8132,-191 404.8132,-187 322.1868,-187 322.1868,-151 431.8132,-151 431.8132,-187"/>
<text text-anchor="middle" x="377" y="-164.8" font-family="Times,serif" font-size="14.00" fill="#000000">LocationModule</text>
</g>
<!-- LocationMapComponent&#45;&gt;LocationModule -->
<g id="edge1" class="edge">
<title>LocationMapComponent&#45;&gt;LocationModule</title>
<path fill="none" stroke="#000000" d="M744,-122.1061C744,-141.3391 744,-169 744,-169 744,-169 441.9436,-169 441.9436,-169"/>
<polygon fill="#000000" stroke="#000000" points="441.9436,-165.5001 431.9436,-169 441.9436,-172.5001 441.9436,-165.5001"/>
</g>
<!-- LocationSearchComponent -->
<g id="node2" class="node">
<title>LocationSearchComponent</title>
<polygon fill="#ffffb3" stroke="#000000" points="647.6825,-122 478.3175,-122 478.3175,-86 647.6825,-86 647.6825,-122"/>
<text text-anchor="middle" x="563" y="-99.8" font-family="Times,serif" font-size="14.00" fill="#000000">LocationSearchComponent</text>
</g>
<!-- LocationSearchComponent&#45;&gt;LocationModule -->
<g id="edge2" class="edge">
<title>LocationSearchComponent&#45;&gt;LocationModule</title>
<path fill="none" stroke="#000000" d="M534.2909,-122.027C534.2909,-138.3976 534.2909,-160 534.2909,-160 534.2909,-160 442.0127,-160 442.0127,-160"/>
<polygon fill="#000000" stroke="#000000" points="442.0128,-156.5001 432.0127,-160 442.0127,-163.5001 442.0128,-156.5001"/>
</g>
<!-- LocationPickerComponent -->
<g id="node3" class="node">
<title>LocationPickerComponent</title>
<polygon fill="#ffffb3" stroke="#000000" points="460.3585,-122 293.6415,-122 293.6415,-86 460.3585,-86 460.3585,-122"/>
<text text-anchor="middle" x="377" y="-99.8" font-family="Times,serif" font-size="14.00" fill="#000000">LocationPickerComponent</text>
</g>
<!-- LocationPickerComponent&#45;&gt;LocationModule -->
<g id="edge3" class="edge">
<title>LocationPickerComponent&#45;&gt;LocationModule</title>
<path fill="none" stroke="#000000" d="M377,-122.1061C377,-122.1061 377,-140.991 377,-140.991"/>
<polygon fill="#000000" stroke="#000000" points="373.5001,-140.9909 377,-150.991 380.5001,-140.991 373.5001,-140.9909"/>
</g>
<!-- LocationMapComponent  -->
<g id="node6" class="node">
<title>LocationMapComponent </title>
<polygon fill="#fb8072" stroke="#000000" points="641.2548,-252 480.7452,-252 480.7452,-216 641.2548,-216 641.2548,-252"/>
<text text-anchor="middle" x="561" y="-229.8" font-family="Times,serif" font-size="14.00" fill="#000000">LocationMapComponent </text>
</g>
<!-- LocationModule&#45;&gt;LocationMapComponent  -->
<g id="edge5" class="edge">
<title>LocationModule&#45;&gt;LocationMapComponent </title>
<path fill="none" stroke="#000000" stroke-dasharray="5,2" d="M431.8113,-178C494.2434,-178 587.7091,-178 587.7091,-178 587.7091,-178 587.7091,-205.973 587.7091,-205.973"/>
<polygon fill="#000000" stroke="#000000" points="584.2092,-205.973 587.7091,-215.973 591.2092,-205.973 584.2092,-205.973"/>
</g>
<!-- LocationSearchComponent  -->
<g id="node7" class="node">
<title>LocationSearchComponent </title>
<polygon fill="#fb8072" stroke="#000000" points="463.1827,-252 290.8173,-252 290.8173,-216 463.1827,-216 463.1827,-252"/>
<text text-anchor="middle" x="377" y="-229.8" font-family="Times,serif" font-size="14.00" fill="#000000">LocationSearchComponent </text>
</g>
<!-- LocationModule&#45;&gt;LocationSearchComponent  -->
<g id="edge6" class="edge">
<title>LocationModule&#45;&gt;LocationSearchComponent </title>
<path fill="none" stroke="#000000" stroke-dasharray="5,2" d="M377,-187.1061C377,-187.1061 377,-205.991 377,-205.991"/>
<polygon fill="#000000" stroke="#000000" points="373.5001,-205.9909 377,-215.991 380.5001,-205.991 373.5001,-205.9909"/>
</g>
<!-- LocationPickerComponent  -->
<g id="node8" class="node">
<title>LocationPickerComponent </title>
<polygon fill="#fb8072" stroke="#000000" points="272.3588,-252 101.6412,-252 101.6412,-216 272.3588,-216 272.3588,-252"/>
<text text-anchor="middle" x="187" y="-229.8" font-family="Times,serif" font-size="14.00" fill="#000000">LocationPickerComponent </text>
</g>
<!-- LocationModule&#45;&gt;LocationPickerComponent  -->
<g id="edge7" class="edge">
<title>LocationModule&#45;&gt;LocationPickerComponent </title>
<path fill="none" stroke="#000000" stroke-dasharray="5,2" d="M321.9093,-178C276.9218,-178 220.7422,-178 220.7422,-178 220.7422,-178 220.7422,-205.973 220.7422,-205.973"/>
<polygon fill="#000000" stroke="#000000" points="217.2423,-205.973 220.7422,-215.973 224.2423,-205.973 217.2423,-205.973"/>
</g>
<!-- UiModule -->
<g id="node5" class="node">
<title>UiModule</title>
<polygon fill="#8dd3c7" stroke="#000000" points="269.5484,-122 266.5484,-126 245.5484,-126 242.5484,-122 196.4516,-122 196.4516,-86 269.5484,-86 269.5484,-122"/>
<text text-anchor="middle" x="233" y="-99.8" font-family="Times,serif" font-size="14.00" fill="#000000">UiModule</text>
</g>
<!-- UiModule&#45;&gt;LocationModule -->
<g id="edge4" class="edge">
<title>UiModule&#45;&gt;LocationModule</title>
<path fill="none" stroke="#000000" d="M245.2578,-122.027C245.2578,-138.3976 245.2578,-160 245.2578,-160 245.2578,-160 312.274,-160 312.274,-160"/>
<polygon fill="#000000" stroke="#000000" points="312.274,-163.5001 322.274,-160 312.2739,-156.5001 312.274,-163.5001"/>
</g>
<!-- GeocodeService -->
<g id="node9" class="node">
<title>GeocodeService</title>
<ellipse fill="#fdb462" stroke="#000000" cx="98" cy="-104" rx="74.1181" ry="18"/>
<text text-anchor="middle" x="98" y="-99.8" font-family="Times,serif" font-size="14.00" fill="#000000">GeocodeService</text>
</g>
<!-- GeocodeService&#45;&gt;LocationModule -->
<g id="edge8" class="edge">
<title>GeocodeService&#45;&gt;LocationModule</title>
<path fill="none" stroke="#000000" d="M137.0648,-119.4041C137.0648,-138.6255 137.0648,-169 137.0648,-169 137.0648,-169 312.2548,-169 312.2548,-169"/>
<polygon fill="#000000" stroke="#000000" points="312.2548,-172.5001 322.2548,-169 312.2547,-165.5001 312.2548,-172.5001"/>
</g>
</g>
</svg>
