<?xml version="1.0" encoding="UTF-8" standalone="no"?>
<!DOCTYPE svg PUBLIC "-//W3C//DTD SVG 1.1//EN"
 "http://www.w3.org/Graphics/SVG/1.1/DTD/svg11.dtd">
<!-- Generated by graphviz version 2.47.0 (20210316.0004)
 -->
<!-- Title: dependencies Pages: 1 -->
<svg width="1598pt" height="396pt"
 viewBox="0.00 0.00 1598.00 395.59" xmlns="http://www.w3.org/2000/svg" xmlns:xlink="http://www.w3.org/1999/xlink">
<g id="graph0" class="graph" transform="scale(1 1) rotate(0) translate(4 391.59)">
<title>dependencies</title>
<polygon fill="white" stroke="transparent" points="-4,4 -4,-391.59 1594,-391.59 1594,4 -4,4"/>
<text text-anchor="start" x="774.01" y="-42.4" font-family="sans-serif" font-weight="bold" font-size="14.00">Legend</text>
<polygon fill="#ffffb3" stroke="transparent" points="561,-10 561,-30 581,-30 581,-10 561,-10"/>
<text text-anchor="start" x="584.63" y="-15.4" font-family="sans-serif" font-size="14.00"> &#160;Declarations</text>
<polygon fill="#8dd3c7" stroke="transparent" points="674,-10 674,-30 694,-30 694,-10 674,-10"/>
<text text-anchor="start" x="697.73" y="-15.4" font-family="sans-serif" font-size="14.00"> &#160;Module</text>
<polygon fill="#80b1d3" stroke="transparent" points="760,-10 760,-30 780,-30 780,-10 760,-10"/>
<text text-anchor="start" x="783.78" y="-15.4" font-family="sans-serif" font-size="14.00"> &#160;Bootstrap</text>
<polygon fill="#fdb462" stroke="transparent" points="857,-10 857,-30 877,-30 877,-10 857,-10"/>
<text text-anchor="start" x="880.67" y="-15.4" font-family="sans-serif" font-size="14.00"> &#160;Providers</text>
<polygon fill="#fb8072" stroke="transparent" points="953,-10 953,-30 973,-30 973,-10 953,-10"/>
<text text-anchor="start" x="976.73" y="-15.4" font-family="sans-serif" font-size="14.00"> &#160;Exports</text>
<g id="clust1" class="cluster">
<title>cluster_LocationModule</title>
<polygon fill="none" stroke="black" stroke-dasharray="1,5" points="8,-70 8,-379.59 1582,-379.59 1582,-70 8,-70"/>
</g>
<g id="clust4" class="cluster">
<title>cluster_LocationModule_LocationPickerComponent_providers</title>
<polygon fill="none" stroke="black" points="654,-78 654,-241.59 1574,-241.59 1574,-78 654,-78"/>
</g>
<g id="clust2" class="cluster">
<title>cluster_LocationModule_declarations</title>
<polygon fill="none" stroke="black" points="286,-189.59 286,-241.59 646,-241.59 646,-189.59 286,-189.59"/>
</g>
<g id="clust7" class="cluster">
<title>cluster_LocationModule_exports</title>
<polygon fill="none" stroke="black" points="95,-319.59 95,-371.59 650,-371.59 650,-319.59 95,-319.59"/>
</g>
<g id="clust6" class="cluster">
<title>cluster_LocationModule_imports</title>
<polygon fill="none" stroke="black" points="188,-189.59 188,-241.59 278,-241.59 278,-189.59 188,-189.59"/>
</g>
<g id="clust9" class="cluster">
<title>cluster_LocationModule_providers</title>
<polygon fill="none" stroke="black" points="16,-189.59 16,-241.59 180,-241.59 180,-189.59 16,-189.59"/>
</g>
<!-- LocationMapComponent -->
<g id="node1" class="node">
<title>LocationMapComponent</title>
<polygon fill="#ffffb3" stroke="black" points="638.25,-233.59 481.75,-233.59 481.75,-197.59 638.25,-197.59 638.25,-233.59"/>
<text text-anchor="middle" x="560" y="-211.39" font-family="Times,serif" font-size="14.00">LocationMapComponent</text>
</g>
<!-- LocationModule -->
<g id="node4" class="node">
<title>LocationModule</title>
<polygon fill="#8dd3c7" stroke="black" points="433.81,-298.59 430.81,-302.59 409.81,-302.59 406.81,-298.59 324.19,-298.59 324.19,-262.59 433.81,-262.59 433.81,-298.59"/>
<text text-anchor="middle" x="379" y="-276.39" font-family="Times,serif" font-size="14.00">LocationModule</text>
</g>
<!-- LocationMapComponent&#45;&gt;LocationModule -->
<g id="edge1" class="edge">
<title>LocationMapComponent&#45;&gt;LocationModule</title>
<path fill="none" stroke="black" d="M586.21,-233.62C586.21,-249.99 586.21,-271.59 586.21,-271.59 586.21,-271.59 443.71,-271.59 443.71,-271.59"/>
<polygon fill="black" stroke="black" points="443.71,-268.09 433.71,-271.59 443.71,-275.09 443.71,-268.09"/>
</g>
<!-- LocationPickerComponent -->
<g id="node2" class="node">
<title>LocationPickerComponent</title>
<polygon fill="#ffffb3" stroke="black" points="1012.36,-233.59 845.64,-233.59 845.64,-197.59 1012.36,-197.59 1012.36,-233.59"/>
<text text-anchor="middle" x="929" y="-211.39" font-family="Times,serif" font-size="14.00">LocationPickerComponent</text>
</g>
<!-- LocationPickerComponent&#45;&gt;LocationModule -->
<g id="edge2" class="edge">
<title>LocationPickerComponent&#45;&gt;LocationModule</title>
<path fill="none" stroke="black" d="M929,-233.7C929,-252.93 929,-280.59 929,-280.59 929,-280.59 443.75,-280.59 443.75,-280.59"/>
<polygon fill="black" stroke="black" points="443.75,-277.09 433.75,-280.59 443.75,-284.09 443.75,-277.09"/>
</g>
<!-- LocationSearchComponent -->
<g id="node3" class="node">
<title>LocationSearchComponent</title>
<polygon fill="#ffffb3" stroke="black" points="463.68,-233.59 294.32,-233.59 294.32,-197.59 463.68,-197.59 463.68,-233.59"/>
<text text-anchor="middle" x="379" y="-211.39" font-family="Times,serif" font-size="14.00">LocationSearchComponent</text>
</g>
<!-- LocationSearchComponent&#45;&gt;LocationModule -->
<g id="edge4" class="edge">
<title>LocationSearchComponent&#45;&gt;LocationModule</title>
<path fill="none" stroke="black" d="M379,-233.7C379,-233.7 379,-252.58 379,-252.58"/>
<polygon fill="black" stroke="black" points="375.5,-252.58 379,-262.58 382.5,-252.58 375.5,-252.58"/>
</g>
<!-- LocationMapComponent  -->
<g id="node7" class="node">
<title>LocationMapComponent </title>
<polygon fill="#fb8072" stroke="black" points="642.25,-363.59 481.75,-363.59 481.75,-327.59 642.25,-327.59 642.25,-363.59"/>
<text text-anchor="middle" x="562" y="-341.39" font-family="Times,serif" font-size="14.00">LocationMapComponent </text>
</g>
<!-- LocationModule&#45;&gt;LocationMapComponent  -->
<g id="edge6" class="edge">
<title>LocationModule&#45;&gt;LocationMapComponent </title>
<path fill="none" stroke="black" stroke-dasharray="5,2" d="M433.66,-289.59C478.3,-289.59 534.04,-289.59 534.04,-289.59 534.04,-289.59 534.04,-317.56 534.04,-317.56"/>
<polygon fill="black" stroke="black" points="530.54,-317.56 534.04,-327.56 537.54,-317.56 530.54,-317.56"/>
</g>
<!-- LocationPickerComponent  -->
<g id="node8" class="node">
<title>LocationPickerComponent </title>
<polygon fill="#fb8072" stroke="black" points="464.36,-363.59 293.64,-363.59 293.64,-327.59 464.36,-327.59 464.36,-363.59"/>
<text text-anchor="middle" x="379" y="-341.39" font-family="Times,serif" font-size="14.00">LocationPickerComponent </text>
</g>
<!-- LocationModule&#45;&gt;LocationPickerComponent  -->
<g id="edge7" class="edge">
<title>LocationModule&#45;&gt;LocationPickerComponent </title>
<path fill="none" stroke="black" stroke-dasharray="5,2" d="M379,-298.7C379,-298.7 379,-317.58 379,-317.58"/>
<polygon fill="black" stroke="black" points="375.5,-317.58 379,-327.58 382.5,-317.58 375.5,-317.58"/>
</g>
<!-- LocationSearchComponent  -->
<g id="node9" class="node">
<title>LocationSearchComponent </title>
<polygon fill="#fb8072" stroke="black" points="275.18,-363.59 102.82,-363.59 102.82,-327.59 275.18,-327.59 275.18,-363.59"/>
<text text-anchor="middle" x="189" y="-341.39" font-family="Times,serif" font-size="14.00">LocationSearchComponent </text>
</g>
<!-- LocationModule&#45;&gt;LocationSearchComponent  -->
<g id="edge8" class="edge">
<title>LocationModule&#45;&gt;LocationSearchComponent </title>
<path fill="none" stroke="black" stroke-dasharray="5,2" d="M324.09,-289.59C278.38,-289.59 220.74,-289.59 220.74,-289.59 220.74,-289.59 220.74,-317.56 220.74,-317.56"/>
<polygon fill="black" stroke="black" points="217.24,-317.56 220.74,-327.56 224.24,-317.56 217.24,-317.56"/>
</g>
<!-- {
 &#160;&#160;&#160;provide: NG_VALUE_ACCESSOR, useExisting: forwardRef(() =&gt; LocationPickerComponent), multi: true,
} -->
<g id="node5" class="node">
<title>{
 &#160;&#160;&#160;provide: NG_VALUE_ACCESSOR, useExisting: forwardRef(() =&gt; LocationPickerComponent), multi: true,
}</title>
<ellipse fill="#fdb462" stroke="black" cx="1114" cy="-127.3" rx="452.42" ry="41.09"/>
<text text-anchor="middle" x="1114" y="-139.9" font-family="Times,serif" font-size="14.00">{</text>
<text text-anchor="middle" x="1114" y="-123.1" font-family="Times,serif" font-size="14.00"> &#160;&#160;&#160;provide: NG_VALUE_ACCESSOR, useExisting: forwardRef(() =&gt; LocationPickerComponent), multi: true,</text>
<text text-anchor="middle" x="1114" y="-106.3" font-family="Times,serif" font-size="14.00">}</text>
</g>
<!-- {
 &#160;&#160;&#160;provide: NG_VALUE_ACCESSOR, useExisting: forwardRef(() =&gt; LocationPickerComponent), multi: true,
}&#45;&gt;LocationPickerComponent -->
<g id="edge3" class="edge">
<title>{
 &#160;&#160;&#160;provide: NG_VALUE_ACCESSOR, useExisting: forwardRef(() =&gt; LocationPickerComponent), multi: true,
}&#45;&gt;LocationPickerComponent</title>
<path fill="none" stroke="black" d="M929,-165C929,-165 929,-187.45 929,-187.45"/>
<polygon fill="black" stroke="black" points="925.5,-187.45 929,-197.45 932.5,-187.45 925.5,-187.45"/>
</g>
<!-- UiModule -->
<g id="node6" class="node">
<title>UiModule</title>
<polygon fill="#8dd3c7" stroke="black" points="269.55,-233.59 266.55,-237.59 245.55,-237.59 242.55,-233.59 196.45,-233.59 196.45,-197.59 269.55,-197.59 269.55,-233.59"/>
<text text-anchor="middle" x="233" y="-211.39" font-family="Times,serif" font-size="14.00">UiModule</text>
</g>
<!-- UiModule&#45;&gt;LocationModule -->
<g id="edge5" class="edge">
<title>UiModule&#45;&gt;LocationModule</title>
<path fill="none" stroke="black" d="M245.26,-233.62C245.26,-249.99 245.26,-271.59 245.26,-271.59 245.26,-271.59 314.22,-271.59 314.22,-271.59"/>
<polygon fill="black" stroke="black" points="314.22,-275.09 324.22,-271.59 314.22,-268.09 314.22,-275.09"/>
</g>
<!-- GeocodeService -->
<g id="node10" class="node">
<title>GeocodeService</title>
<ellipse fill="#fdb462" stroke="black" cx="98" cy="-215.59" rx="74.12" ry="18"/>
<text text-anchor="middle" x="98" y="-211.39" font-family="Times,serif" font-size="14.00">GeocodeService</text>
</g>
<!-- GeocodeService&#45;&gt;LocationModule -->
<g id="edge9" class="edge">
<title>GeocodeService&#45;&gt;LocationModule</title>
<path fill="none" stroke="black" d="M137.48,-230.99C137.48,-250.22 137.48,-280.59 137.48,-280.59 137.48,-280.59 314.2,-280.59 314.2,-280.59"/>
<polygon fill="black" stroke="black" points="314.2,-284.09 324.2,-280.59 314.2,-277.09 314.2,-284.09"/>
</g>
</g>
</svg>
