<?xml version="1.0" encoding="UTF-8" standalone="no"?>
<!DOCTYPE svg PUBLIC "-//W3C//DTD SVG 1.1//EN"
 "http://www.w3.org/Graphics/SVG/1.1/DTD/svg11.dtd">
<!-- Generated by graphviz version 2.40.1 (20161225.0304)
 -->
<!-- Title: dependencies Pages: 1 -->
<svg width="504pt" height="284pt"
 viewBox="0.00 0.00 504.00 284.00" xmlns="http://www.w3.org/2000/svg" xmlns:xlink="http://www.w3.org/1999/xlink">
<g id="graph0" class="graph" transform="scale(1 1) rotate(0) translate(4 280)">
<title>dependencies</title>
<polygon fill="#ffffff" stroke="transparent" points="-4,4 -4,-280 500,-280 500,4 -4,4"/>
<text text-anchor="start" x="227.0091" y="-42.4" font-family="sans-serif" font-weight="bold" font-size="14.00" fill="#000000">Legend</text>
<polygon fill="#ffffb3" stroke="transparent" points="14,-10 14,-30 34,-30 34,-10 14,-10"/>
<text text-anchor="start" x="37.629" y="-15.4" font-family="sans-serif" font-size="14.00" fill="#000000"> &#160;Declarations</text>
<polygon fill="#8dd3c7" stroke="transparent" points="127,-10 127,-30 147,-30 147,-10 127,-10"/>
<text text-anchor="start" x="150.7251" y="-15.4" font-family="sans-serif" font-size="14.00" fill="#000000"> &#160;Module</text>
<polygon fill="#80b1d3" stroke="transparent" points="213,-10 213,-30 233,-30 233,-10 213,-10"/>
<text text-anchor="start" x="236.7812" y="-15.4" font-family="sans-serif" font-size="14.00" fill="#000000"> &#160;Bootstrap</text>
<polygon fill="#fdb462" stroke="transparent" points="310,-10 310,-30 330,-30 330,-10 310,-10"/>
<text text-anchor="start" x="333.6732" y="-15.4" font-family="sans-serif" font-size="14.00" fill="#000000"> &#160;Providers</text>
<polygon fill="#fb8072" stroke="transparent" points="406,-10 406,-30 426,-30 426,-10 406,-10"/>
<text text-anchor="start" x="429.7258" y="-15.4" font-family="sans-serif" font-size="14.00" fill="#000000"> &#160;Exports</text>
<g id="clust1" class="cluster">
<title>cluster_AppModule</title>
<polygon fill="none" stroke="#000000" stroke-dasharray="1,5" points="73,-70 73,-268 423,-268 423,-70 73,-70"/>
</g>
<g id="clust2" class="cluster">
<title>cluster_AppModule_declarations</title>
<polygon fill="none" stroke="#000000" points="283,-78 283,-130 415,-130 415,-78 283,-78"/>
</g>
<g id="clust4" class="cluster">
<title>cluster_AppModule_imports</title>
<polygon fill="none" stroke="#000000" points="81,-78 81,-130 275,-130 275,-78 81,-78"/>
</g>
<g id="clust6" class="cluster">
<title>cluster_AppModule_bootstrap</title>
<polygon fill="none" stroke="#000000" points="162,-208 162,-260 298,-260 298,-208 162,-208"/>
</g>
<!-- DemoComponent -->
<g id="node1" class="node">
<title>DemoComponent</title>
<polygon fill="#ffffb3" stroke="#000000" points="406.5451,-122 291.4549,-122 291.4549,-86 406.5451,-86 406.5451,-122"/>
<text text-anchor="middle" x="349" y="-99.8" font-family="Times,serif" font-size="14.00" fill="#000000">DemoComponent</text>
</g>
<!-- AppModule -->
<g id="node2" class="node">
<title>AppModule</title>
<polygon fill="#8dd3c7" stroke="#000000" points="271.6571,-187 268.6571,-191 247.6571,-191 244.6571,-187 188.3429,-187 188.3429,-151 271.6571,-151 271.6571,-187"/>
<text text-anchor="middle" x="230" y="-164.8" font-family="Times,serif" font-size="14.00" fill="#000000">AppModule</text>
</g>
<!-- DemoComponent&#45;&gt;AppModule -->
<g id="edge1" class="edge">
<title>DemoComponent&#45;&gt;AppModule</title>
<path fill="none" stroke="#000000" d="M349,-122.1061C349,-141.3391 349,-169 349,-169 349,-169 281.9549,-169 281.9549,-169"/>
<polygon fill="#000000" stroke="#000000" points="281.955,-165.5001 271.9549,-169 281.9549,-172.5001 281.955,-165.5001"/>
</g>
<!-- DemoComponent  -->
<g id="node5" class="node">
<title>DemoComponent </title>
<polygon fill="#80b1d3" stroke="#000000" points="289.5442,-252 170.4558,-252 170.4558,-216 289.5442,-216 289.5442,-252"/>
<text text-anchor="middle" x="230" y="-229.8" font-family="Times,serif" font-size="14.00" fill="#000000">DemoComponent </text>
</g>
<!-- AppModule&#45;&gt;DemoComponent  -->
<g id="edge4" class="edge">
<title>AppModule&#45;&gt;DemoComponent </title>
<path fill="none" stroke="#000000" stroke-dasharray="1,5" d="M230,-187.1061C230,-187.1061 230,-205.991 230,-205.991"/>
<polygon fill="#000000" stroke="#000000" points="226.5001,-205.9909 230,-215.991 233.5001,-205.991 226.5001,-205.9909"/>
</g>
<!-- UiModule -->
<g id="node3" class="node">
<title>UiModule</title>
<polygon fill="#8dd3c7" stroke="#000000" points="266.5484,-122 263.5484,-126 242.5484,-126 239.5484,-122 193.4516,-122 193.4516,-86 266.5484,-86 266.5484,-122"/>
<text text-anchor="middle" x="230" y="-99.8" font-family="Times,serif" font-size="14.00" fill="#000000">UiModule</text>
</g>
<!-- UiModule&#45;&gt;AppModule -->
<g id="edge2" class="edge">
<title>UiModule&#45;&gt;AppModule</title>
<path fill="none" stroke="#000000" d="M230,-122.1061C230,-122.1061 230,-140.991 230,-140.991"/>
<polygon fill="#000000" stroke="#000000" points="226.5001,-140.9909 230,-150.991 233.5001,-140.991 226.5001,-140.9909"/>
</g>
<!-- DataModule -->
<g id="node4" class="node">
<title>DataModule</title>
<polygon fill="#8dd3c7" stroke="#000000" points="174.9762,-122 171.9762,-126 150.9762,-126 147.9762,-122 89.0238,-122 89.0238,-86 174.9762,-86 174.9762,-122"/>
<text text-anchor="middle" x="132" y="-99.8" font-family="Times,serif" font-size="14.00" fill="#000000">DataModule</text>
</g>
<!-- DataModule&#45;&gt;AppModule -->
<g id="edge3" class="edge">
<title>DataModule&#45;&gt;AppModule</title>
<path fill="none" stroke="#000000" d="M129.7449,-122.1061C129.7449,-141.3391 129.7449,-169 129.7449,-169 129.7449,-169 178.0637,-169 178.0637,-169"/>
<polygon fill="#000000" stroke="#000000" points="178.0637,-172.5001 188.0637,-169 178.0637,-165.5001 178.0637,-172.5001"/>
</g>
</g>
</svg>
