<?xml version="1.0" encoding="UTF-8" standalone="no"?>
<!DOCTYPE svg PUBLIC "-//W3C//DTD SVG 1.1//EN"
 "http://www.w3.org/Graphics/SVG/1.1/DTD/svg11.dtd">
<!-- Generated by graphviz version 2.47.0 (20210316.0004)
 -->
<!-- Title: dependencies Pages: 1 -->
<svg width="504pt" height="284pt"
 viewBox="0.00 0.00 504.00 284.00" xmlns="http://www.w3.org/2000/svg" xmlns:xlink="http://www.w3.org/1999/xlink">
<g id="graph0" class="graph" transform="scale(1 1) rotate(0) translate(4 280)">
<title>dependencies</title>
<polygon fill="white" stroke="transparent" points="-4,4 -4,-280 500,-280 500,4 -4,4"/>
<text text-anchor="start" x="227.01" y="-42.4" font-family="sans-serif" font-weight="bold" font-size="14.00">Legend</text>
<polygon fill="#ffffb3" stroke="transparent" points="14,-10 14,-30 34,-30 34,-10 14,-10"/>
<text text-anchor="start" x="37.63" y="-15.4" font-family="sans-serif" font-size="14.00"> &#160;Declarations</text>
<polygon fill="#8dd3c7" stroke="transparent" points="127,-10 127,-30 147,-30 147,-10 127,-10"/>
<text text-anchor="start" x="150.73" y="-15.4" font-family="sans-serif" font-size="14.00"> &#160;Module</text>
<polygon fill="#80b1d3" stroke="transparent" points="213,-10 213,-30 233,-30 233,-10 213,-10"/>
<text text-anchor="start" x="236.78" y="-15.4" font-family="sans-serif" font-size="14.00"> &#160;Bootstrap</text>
<polygon fill="#fdb462" stroke="transparent" points="310,-10 310,-30 330,-30 330,-10 310,-10"/>
<text text-anchor="start" x="333.67" y="-15.4" font-family="sans-serif" font-size="14.00"> &#160;Providers</text>
<polygon fill="#fb8072" stroke="transparent" points="406,-10 406,-30 426,-30 426,-10 406,-10"/>
<text text-anchor="start" x="429.73" y="-15.4" font-family="sans-serif" font-size="14.00"> &#160;Exports</text>
<g id="clust1" class="cluster">
<title>cluster_LoaderModule</title>
<polygon fill="none" stroke="black" stroke-dasharray="1,5" points="93,-70 93,-268 403,-268 403,-70 93,-70"/>
</g>
<g id="clust5" class="cluster">
<title>cluster_LoaderModule_exports</title>
<polygon fill="none" stroke="black" points="175,-208 175,-260 315,-260 315,-208 175,-208"/>
</g>
<g id="clust7" class="cluster">
<title>cluster_LoaderModule_providers</title>
<polygon fill="none" stroke="black" points="245,-78 245,-130 395,-130 395,-78 245,-78"/>
</g>
<g id="clust2" class="cluster">
<title>cluster_LoaderModule_declarations</title>
<polygon fill="none" stroke="black" points="101,-78 101,-130 237,-130 237,-78 101,-78"/>
</g>
<!-- LoaderComponent -->
<g id="node1" class="node">
<title>LoaderComponent</title>
<polygon fill="#ffffb3" stroke="black" points="229.47,-122 108.53,-122 108.53,-86 229.47,-86 229.47,-122"/>
<text text-anchor="middle" x="169" y="-99.8" font-family="Times,serif" font-size="14.00">LoaderComponent</text>
</g>
<!-- LoaderModule -->
<g id="node2" class="node">
<title>LoaderModule</title>
<polygon fill="#8dd3c7" stroke="black" points="294.69,-187 291.69,-191 270.69,-191 267.69,-187 195.31,-187 195.31,-151 294.69,-151 294.69,-187"/>
<text text-anchor="middle" x="245" y="-164.8" font-family="Times,serif" font-size="14.00">LoaderModule</text>
</g>
<!-- LoaderComponent&#45;&gt;LoaderModule -->
<g id="edge1" class="edge">
<title>LoaderComponent&#45;&gt;LoaderModule</title>
<path fill="none" stroke="black" d="M212.45,-122.11C212.45,-122.11 212.45,-140.99 212.45,-140.99"/>
<polygon fill="black" stroke="black" points="208.95,-140.99 212.45,-150.99 215.95,-140.99 208.95,-140.99"/>
</g>
<!-- LoaderComponent  -->
<g id="node3" class="node">
<title>LoaderComponent </title>
<polygon fill="#fb8072" stroke="black" points="307.48,-252 182.52,-252 182.52,-216 307.48,-216 307.48,-252"/>
<text text-anchor="middle" x="245" y="-229.8" font-family="Times,serif" font-size="14.00">LoaderComponent </text>
</g>
<!-- LoaderModule&#45;&gt;LoaderComponent  -->
<g id="edge2" class="edge">
<title>LoaderModule&#45;&gt;LoaderComponent </title>
<path fill="none" stroke="black" stroke-dasharray="5,2" d="M245,-187.11C245,-187.11 245,-205.99 245,-205.99"/>
<polygon fill="black" stroke="black" points="241.5,-205.99 245,-215.99 248.5,-205.99 241.5,-205.99"/>
</g>
<!-- LoaderService -->
<g id="node4" class="node">
<title>LoaderService</title>
<ellipse fill="#fdb462" stroke="black" cx="320" cy="-104" rx="67.17" ry="18"/>
<text text-anchor="middle" x="320" y="-99.8" font-family="Times,serif" font-size="14.00">LoaderService</text>
</g>
<!-- LoaderService&#45;&gt;LoaderModule -->
<g id="edge3" class="edge">
<title>LoaderService&#45;&gt;LoaderModule</title>
<path fill="none" stroke="black" d="M273.63,-117.15C273.63,-117.15 273.63,-140.69 273.63,-140.69"/>
<polygon fill="black" stroke="black" points="270.13,-140.69 273.63,-150.69 277.13,-140.69 270.13,-140.69"/>
</g>
</g>
</svg>
