<?xml version="1.0" encoding="UTF-8" standalone="no"?>
<!DOCTYPE svg PUBLIC "-//W3C//DTD SVG 1.1//EN"
 "http://www.w3.org/Graphics/SVG/1.1/DTD/svg11.dtd">
<!-- Generated by graphviz version 2.47.0 (20210316.0004)
 -->
<!-- Title: dependencies Pages: 1 -->
<svg width="504pt" height="284pt"
 viewBox="0.00 0.00 504.00 284.00" xmlns="http://www.w3.org/2000/svg" xmlns:xlink="http://www.w3.org/1999/xlink">
<g id="graph0" class="graph" transform="scale(1 1) rotate(0) translate(4 280)">
<title>dependencies</title>
<polygon fill="white" stroke="transparent" points="-4,4 -4,-280 500,-280 500,4 -4,4"/>
<text text-anchor="start" x="227.01" y="-42.4" font-family="sans-serif" font-weight="bold" font-size="14.00">Legend</text>
<polygon fill="#ffffb3" stroke="transparent" points="14,-10 14,-30 34,-30 34,-10 14,-10"/>
<text text-anchor="start" x="37.63" y="-15.4" font-family="sans-serif" font-size="14.00"> &#160;Declarations</text>
<polygon fill="#8dd3c7" stroke="transparent" points="127,-10 127,-30 147,-30 147,-10 127,-10"/>
<text text-anchor="start" x="150.73" y="-15.4" font-family="sans-serif" font-size="14.00"> &#160;Module</text>
<polygon fill="#80b1d3" stroke="transparent" points="213,-10 213,-30 233,-30 233,-10 213,-10"/>
<text text-anchor="start" x="236.78" y="-15.4" font-family="sans-serif" font-size="14.00"> &#160;Bootstrap</text>
<polygon fill="#fdb462" stroke="transparent" points="310,-10 310,-30 330,-30 330,-10 310,-10"/>
<text text-anchor="start" x="333.67" y="-15.4" font-family="sans-serif" font-size="14.00"> &#160;Providers</text>
<polygon fill="#fb8072" stroke="transparent" points="406,-10 406,-30 426,-30 426,-10 406,-10"/>
<text text-anchor="start" x="429.73" y="-15.4" font-family="sans-serif" font-size="14.00"> &#160;Exports</text>
<g id="clust1" class="cluster">
<title>cluster_LoaderModule</title>
<polygon fill="none" stroke="black" stroke-dasharray="1,5" points="93,-70 93,-268 403,-268 403,-70 93,-70"/>
</g>
<g id="clust5" class="cluster">
<title>cluster_LoaderModule_exports</title>
<polygon fill="none" stroke="black" points="180,-208 180,-260 320,-260 320,-208 180,-208"/>
</g>
<g id="clust2" class="cluster">
<title>cluster_LoaderModule_declarations</title>
<polygon fill="none" stroke="black" points="259,-78 259,-130 395,-130 395,-78 259,-78"/>
</g>
<g id="clust7" class="cluster">
<title>cluster_LoaderModule_providers</title>
<polygon fill="none" stroke="black" points="101,-78 101,-130 251,-130 251,-78 101,-78"/>
</g>
<!-- LoaderComponent -->
<g id="node1" class="node">
<title>LoaderComponent</title>
<polygon fill="#ffffb3" stroke="black" points="387.47,-122 266.53,-122 266.53,-86 387.47,-86 387.47,-122"/>
<text text-anchor="middle" x="327" y="-99.8" font-family="Times,serif" font-size="14.00">LoaderComponent</text>
</g>
<!-- LoaderModule -->
<g id="node2" class="node">
<title>LoaderModule</title>
<polygon fill="#8dd3c7" stroke="black" points="299.69,-187 296.69,-191 275.69,-191 272.69,-187 200.31,-187 200.31,-151 299.69,-151 299.69,-187"/>
<text text-anchor="middle" x="250" y="-164.8" font-family="Times,serif" font-size="14.00">LoaderModule</text>
</g>
<!-- LoaderComponent&#45;&gt;LoaderModule -->
<g id="edge1" class="edge">
<title>LoaderComponent&#45;&gt;LoaderModule</title>
<path fill="none" stroke="black" d="M283.05,-122.11C283.05,-122.11 283.05,-140.99 283.05,-140.99"/>
<polygon fill="black" stroke="black" points="279.55,-140.99 283.05,-150.99 286.55,-140.99 279.55,-140.99"/>
</g>
<!-- LoaderComponent  -->
<g id="node3" class="node">
<title>LoaderComponent </title>
<polygon fill="#fb8072" stroke="black" points="312.48,-252 187.52,-252 187.52,-216 312.48,-216 312.48,-252"/>
<text text-anchor="middle" x="250" y="-229.8" font-family="Times,serif" font-size="14.00">LoaderComponent </text>
</g>
<!-- LoaderModule&#45;&gt;LoaderComponent  -->
<g id="edge2" class="edge">
<title>LoaderModule&#45;&gt;LoaderComponent </title>
<path fill="none" stroke="black" stroke-dasharray="5,2" d="M250,-187.11C250,-187.11 250,-205.99 250,-205.99"/>
<polygon fill="black" stroke="black" points="246.5,-205.99 250,-215.99 253.5,-205.99 246.5,-205.99"/>
</g>
<!-- LoaderService -->
<g id="node4" class="node">
<title>LoaderService</title>
<ellipse fill="#fdb462" stroke="black" cx="176" cy="-104" rx="67.17" ry="18"/>
<text text-anchor="middle" x="176" y="-99.8" font-family="Times,serif" font-size="14.00">LoaderService</text>
</g>
<!-- LoaderService&#45;&gt;LoaderModule -->
<g id="edge3" class="edge">
<title>LoaderService&#45;&gt;LoaderModule</title>
<path fill="none" stroke="black" d="M221.87,-117.47C221.87,-117.47 221.87,-140.86 221.87,-140.86"/>
<polygon fill="black" stroke="black" points="218.37,-140.86 221.87,-150.86 225.37,-140.86 218.37,-140.86"/>
</g>
</g>
</svg>
