<?xml version="1.0" encoding="UTF-8" standalone="no"?>
<!DOCTYPE svg PUBLIC "-//W3C//DTD SVG 1.1//EN"
 "http://www.w3.org/Graphics/SVG/1.1/DTD/svg11.dtd">
<!-- Generated by graphviz version 2.40.1 (20161225.0304)
 -->
<!-- Title: dependencies Pages: 1 -->
<svg width="1065pt" height="284pt"
 viewBox="0.00 0.00 1065.00 284.00" xmlns="http://www.w3.org/2000/svg" xmlns:xlink="http://www.w3.org/1999/xlink">
<g id="graph0" class="graph" transform="scale(1 1) rotate(0) translate(4 280)">
<title>dependencies</title>
<polygon fill="#ffffff" stroke="transparent" points="-4,4 -4,-280 1061,-280 1061,4 -4,4"/>
<text text-anchor="start" x="507.5091" y="-42.4" font-family="sans-serif" font-weight="bold" font-size="14.00" fill="#000000">Legend</text>
<polygon fill="#ffffb3" stroke="transparent" points="294.5,-10 294.5,-30 314.5,-30 314.5,-10 294.5,-10"/>
<text text-anchor="start" x="318.129" y="-15.4" font-family="sans-serif" font-size="14.00" fill="#000000"> &#160;Declarations</text>
<polygon fill="#8dd3c7" stroke="transparent" points="407.5,-10 407.5,-30 427.5,-30 427.5,-10 407.5,-10"/>
<text text-anchor="start" x="431.2251" y="-15.4" font-family="sans-serif" font-size="14.00" fill="#000000"> &#160;Module</text>
<polygon fill="#80b1d3" stroke="transparent" points="493.5,-10 493.5,-30 513.5,-30 513.5,-10 493.5,-10"/>
<text text-anchor="start" x="517.2812" y="-15.4" font-family="sans-serif" font-size="14.00" fill="#000000"> &#160;Bootstrap</text>
<polygon fill="#fdb462" stroke="transparent" points="590.5,-10 590.5,-30 610.5,-30 610.5,-10 590.5,-10"/>
<text text-anchor="start" x="614.1732" y="-15.4" font-family="sans-serif" font-size="14.00" fill="#000000"> &#160;Providers</text>
<polygon fill="#fb8072" stroke="transparent" points="686.5,-10 686.5,-30 706.5,-30 706.5,-10 686.5,-10"/>
<text text-anchor="start" x="710.2258" y="-15.4" font-family="sans-serif" font-size="14.00" fill="#000000"> &#160;Exports</text>
<g id="clust1" class="cluster">
<title>cluster_ListModule</title>
<polygon fill="none" stroke="#000000" stroke-dasharray="1,5" points="8,-70 8,-268 1049,-268 1049,-70 8,-70"/>
</g>
<g id="clust2" class="cluster">
<title>cluster_ListModule_declarations</title>
<polygon fill="none" stroke="#000000" points="354,-78 354,-130 1041,-130 1041,-78 354,-78"/>
</g>
<g id="clust8" class="cluster">
<title>cluster_ListModule_imports</title>
<polygon fill="none" stroke="#000000" points="16,-78 16,-130 346,-130 346,-78 16,-78"/>
</g>
<g id="clust9" class="cluster">
<title>cluster_ListModule_exports</title>
<polygon fill="none" stroke="#000000" points="64,-208 64,-260 879,-260 879,-208 64,-208"/>
</g>
<!-- GroupPipe -->
<g id="node1" class="node">
<title>GroupPipe</title>
<polygon fill="#ffffb3" stroke="#000000" points="1033.1558,-122 956.8442,-122 956.8442,-86 1033.1558,-86 1033.1558,-122"/>
<text text-anchor="middle" x="995" y="-99.8" font-family="Times,serif" font-size="14.00" fill="#000000">GroupPipe</text>
</g>
<!-- ListModule -->
<g id="node6" class="node">
<title>ListModule</title>
<polygon fill="#8dd3c7" stroke="#000000" points="551.8289,-187 548.8289,-191 527.8289,-191 524.8289,-187 470.1711,-187 470.1711,-151 551.8289,-151 551.8289,-187"/>
<text text-anchor="middle" x="511" y="-164.8" font-family="Times,serif" font-size="14.00" fill="#000000">ListModule</text>
</g>
<!-- GroupPipe&#45;&gt;ListModule -->
<g id="edge1" class="edge">
<title>GroupPipe&#45;&gt;ListModule</title>
<path fill="none" stroke="#000000" d="M995,-122.1061C995,-141.3391 995,-169 995,-169 995,-169 561.8484,-169 561.8484,-169"/>
<polygon fill="#000000" stroke="#000000" points="561.8485,-165.5001 551.8484,-169 561.8484,-172.5001 561.8485,-165.5001"/>
</g>
<!-- ListComponent -->
<g id="node2" class="node">
<title>ListComponent</title>
<polygon fill="#ffffb3" stroke="#000000" points="938.6109,-122 835.3891,-122 835.3891,-86 938.6109,-86 938.6109,-122"/>
<text text-anchor="middle" x="887" y="-99.8" font-family="Times,serif" font-size="14.00" fill="#000000">ListComponent</text>
</g>
<!-- ListComponent&#45;&gt;ListModule -->
<g id="edge2" class="edge">
<title>ListComponent&#45;&gt;ListModule</title>
<path fill="none" stroke="#000000" d="M853.0682,-122.0225C853.0682,-139.3734 853.0682,-163 853.0682,-163 853.0682,-163 561.9216,-163 561.9216,-163"/>
<polygon fill="#000000" stroke="#000000" points="561.9217,-159.5001 551.9216,-163 561.9216,-166.5001 561.9217,-159.5001"/>
</g>
<!-- ListHeaderComponent -->
<g id="node3" class="node">
<title>ListHeaderComponent</title>
<polygon fill="#ffffb3" stroke="#000000" points="817.5226,-122 674.4774,-122 674.4774,-86 817.5226,-86 817.5226,-122"/>
<text text-anchor="middle" x="746" y="-99.8" font-family="Times,serif" font-size="14.00" fill="#000000">ListHeaderComponent</text>
</g>
<!-- ListHeaderComponent&#45;&gt;ListModule -->
<g id="edge3" class="edge">
<title>ListHeaderComponent&#45;&gt;ListModule</title>
<path fill="none" stroke="#000000" d="M705.6408,-122.2396C705.6408,-137.5706 705.6408,-157 705.6408,-157 705.6408,-157 561.8031,-157 561.8031,-157"/>
<polygon fill="#000000" stroke="#000000" points="561.8031,-153.5001 551.8031,-157 561.8031,-160.5001 561.8031,-153.5001"/>
</g>
<!-- ListItemsComponent -->
<g id="node4" class="node">
<title>ListItemsComponent</title>
<polygon fill="#ffffb3" stroke="#000000" points="656.212,-122 521.788,-122 521.788,-86 656.212,-86 656.212,-122"/>
<text text-anchor="middle" x="589" y="-99.8" font-family="Times,serif" font-size="14.00" fill="#000000">ListItemsComponent</text>
</g>
<!-- ListItemsComponent&#45;&gt;ListModule -->
<g id="edge4" class="edge">
<title>ListItemsComponent&#45;&gt;ListModule</title>
<path fill="none" stroke="#000000" d="M536.7791,-122.1061C536.7791,-122.1061 536.7791,-140.991 536.7791,-140.991"/>
<polygon fill="#000000" stroke="#000000" points="533.2792,-140.9909 536.7791,-150.991 540.2792,-140.991 533.2792,-140.9909"/>
</g>
<!-- PaginationComponent -->
<g id="node5" class="node">
<title>PaginationComponent</title>
<polygon fill="#ffffb3" stroke="#000000" points="503.7162,-122 362.2838,-122 362.2838,-86 503.7162,-86 503.7162,-122"/>
<text text-anchor="middle" x="433" y="-99.8" font-family="Times,serif" font-size="14.00" fill="#000000">PaginationComponent</text>
</g>
<!-- PaginationComponent&#45;&gt;ListModule -->
<g id="edge5" class="edge">
<title>PaginationComponent&#45;&gt;ListModule</title>
<path fill="none" stroke="#000000" d="M486.972,-122.1061C486.972,-122.1061 486.972,-140.991 486.972,-140.991"/>
<polygon fill="#000000" stroke="#000000" points="483.472,-140.9909 486.972,-150.991 490.472,-140.991 483.472,-140.9909"/>
</g>
<!-- FormModule  -->
<g id="node10" class="node">
<title>FormModule </title>
<polygon fill="#fb8072" stroke="#000000" points="870.8844,-252 777.1156,-252 777.1156,-216 870.8844,-216 870.8844,-252"/>
<text text-anchor="middle" x="824" y="-229.8" font-family="Times,serif" font-size="14.00" fill="#000000">FormModule </text>
</g>
<!-- ListModule&#45;&gt;FormModule  -->
<g id="edge9" class="edge">
<title>ListModule&#45;&gt;FormModule </title>
<path fill="none" stroke="#000000" stroke-dasharray="5,2" d="M551.7491,-175C630.8562,-175 797.5346,-175 797.5346,-175 797.5346,-175 797.5346,-205.9775 797.5346,-205.9775"/>
<polygon fill="#000000" stroke="#000000" points="794.0346,-205.9774 797.5346,-215.9775 801.0346,-205.9775 794.0346,-205.9774"/>
</g>
<!-- GroupPipe  -->
<g id="node11" class="node">
<title>GroupPipe </title>
<polygon fill="#fb8072" stroke="#000000" points="759.1552,-252 678.8448,-252 678.8448,-216 759.1552,-216 759.1552,-252"/>
<text text-anchor="middle" x="719" y="-229.8" font-family="Times,serif" font-size="14.00" fill="#000000">GroupPipe </text>
</g>
<!-- ListModule&#45;&gt;GroupPipe  -->
<g id="edge10" class="edge">
<title>ListModule&#45;&gt;GroupPipe </title>
<path fill="none" stroke="#000000" stroke-dasharray="5,2" d="M551.8586,-181C615.8191,-181 732.3592,-181 732.3592,-181 732.3592,-181 732.3592,-205.7604 732.3592,-205.7604"/>
<polygon fill="#000000" stroke="#000000" points="728.8593,-205.7604 732.3592,-215.7604 735.8593,-205.7604 728.8593,-205.7604"/>
</g>
<!-- ListComponent  -->
<g id="node12" class="node">
<title>ListComponent </title>
<polygon fill="#fb8072" stroke="#000000" points="661.1115,-252 554.8885,-252 554.8885,-216 661.1115,-216 661.1115,-252"/>
<text text-anchor="middle" x="608" y="-229.8" font-family="Times,serif" font-size="14.00" fill="#000000">ListComponent </text>
</g>
<!-- ListModule&#45;&gt;ListComponent  -->
<g id="edge11" class="edge">
<title>ListModule&#45;&gt;ListComponent </title>
<path fill="none" stroke="#000000" stroke-dasharray="5,2" d="M544.0875,-187.1061C544.0875,-206.3391 544.0875,-234 544.0875,-234 544.0875,-234 545.1429,-234 545.1429,-234"/>
<polygon fill="#000000" stroke="#000000" points="544.6414,-237.5001 554.6413,-234 544.6413,-230.5001 544.6414,-237.5001"/>
</g>
<!-- ListHeaderComponent  -->
<g id="node13" class="node">
<title>ListHeaderComponent </title>
<polygon fill="#fb8072" stroke="#000000" points="536.5218,-252 389.4782,-252 389.4782,-216 536.5218,-216 536.5218,-252"/>
<text text-anchor="middle" x="463" y="-229.8" font-family="Times,serif" font-size="14.00" fill="#000000">ListHeaderComponent </text>
</g>
<!-- ListModule&#45;&gt;ListHeaderComponent  -->
<g id="edge12" class="edge">
<title>ListModule&#45;&gt;ListHeaderComponent </title>
<path fill="none" stroke="#000000" stroke-dasharray="5,2" d="M503.4234,-187.1061C503.4234,-187.1061 503.4234,-205.991 503.4234,-205.991"/>
<polygon fill="#000000" stroke="#000000" points="499.9235,-205.9909 503.4234,-215.991 506.9235,-205.991 499.9235,-205.9909"/>
</g>
<!-- ListItemsComponent  -->
<g id="node14" class="node">
<title>ListItemsComponent </title>
<polygon fill="#fb8072" stroke="#000000" points="371.7121,-252 234.2879,-252 234.2879,-216 371.7121,-216 371.7121,-252"/>
<text text-anchor="middle" x="303" y="-229.8" font-family="Times,serif" font-size="14.00" fill="#000000">ListItemsComponent </text>
</g>
<!-- ListModule&#45;&gt;ListItemsComponent  -->
<g id="edge13" class="edge">
<title>ListModule&#45;&gt;ListItemsComponent </title>
<path fill="none" stroke="#000000" stroke-dasharray="5,2" d="M470.1557,-181C427.6197,-181 367.124,-181 367.124,-181 367.124,-181 367.124,-205.7604 367.124,-205.7604"/>
<polygon fill="#000000" stroke="#000000" points="363.624,-205.7604 367.124,-215.7604 370.624,-205.7604 363.624,-205.7604"/>
</g>
<!-- PaginationComponent  -->
<g id="node15" class="node">
<title>PaginationComponent </title>
<polygon fill="#fb8072" stroke="#000000" points="216.2163,-252 71.7837,-252 71.7837,-216 216.2163,-216 216.2163,-252"/>
<text text-anchor="middle" x="144" y="-229.8" font-family="Times,serif" font-size="14.00" fill="#000000">PaginationComponent </text>
</g>
<!-- ListModule&#45;&gt;PaginationComponent  -->
<g id="edge14" class="edge">
<title>ListModule&#45;&gt;PaginationComponent </title>
<path fill="none" stroke="#000000" stroke-dasharray="5,2" d="M470.2135,-175C381.9412,-175 181.0727,-175 181.0727,-175 181.0727,-175 181.0727,-205.9775 181.0727,-205.9775"/>
<polygon fill="#000000" stroke="#000000" points="177.5728,-205.9774 181.0727,-215.9775 184.5728,-205.9775 177.5728,-205.9774"/>
</g>
<!-- FormModule -->
<g id="node7" class="node">
<title>FormModule</title>
<polygon fill="#8dd3c7" stroke="#000000" points="337.8837,-122 334.8837,-126 313.8837,-126 310.8837,-122 248.1163,-122 248.1163,-86 337.8837,-86 337.8837,-122"/>
<text text-anchor="middle" x="293" y="-99.8" font-family="Times,serif" font-size="14.00" fill="#000000">FormModule</text>
</g>
<!-- FormModule&#45;&gt;ListModule -->
<g id="edge6" class="edge">
<title>FormModule&#45;&gt;ListModule</title>
<path fill="none" stroke="#000000" d="M293,-122.2396C293,-137.5706 293,-157 293,-157 293,-157 460.2516,-157 460.2516,-157"/>
<polygon fill="#000000" stroke="#000000" points="460.2516,-160.5001 470.2516,-157 460.2516,-153.5001 460.2516,-160.5001"/>
</g>
<!-- IconModule -->
<g id="node8" class="node">
<title>IconModule</title>
<polygon fill="#8dd3c7" stroke="#000000" points="230.4261,-122 227.4261,-126 206.4261,-126 203.4261,-122 145.5739,-122 145.5739,-86 230.4261,-86 230.4261,-122"/>
<text text-anchor="middle" x="188" y="-99.8" font-family="Times,serif" font-size="14.00" fill="#000000">IconModule</text>
</g>
<!-- IconModule&#45;&gt;ListModule -->
<g id="edge7" class="edge">
<title>IconModule&#45;&gt;ListModule</title>
<path fill="none" stroke="#000000" d="M223.2853,-122.0225C223.2853,-139.3734 223.2853,-163 223.2853,-163 223.2853,-163 460.083,-163 460.083,-163"/>
<polygon fill="#000000" stroke="#000000" points="460.0831,-166.5001 470.083,-163 460.083,-159.5001 460.0831,-166.5001"/>
</g>
<!-- SymbolModule -->
<g id="node9" class="node">
<title>SymbolModule</title>
<polygon fill="#8dd3c7" stroke="#000000" points="127.6137,-122 124.6137,-126 103.6137,-126 100.6137,-122 24.3863,-122 24.3863,-86 127.6137,-86 127.6137,-122"/>
<text text-anchor="middle" x="76" y="-99.8" font-family="Times,serif" font-size="14.00" fill="#000000">SymbolModule</text>
</g>
<!-- SymbolModule&#45;&gt;ListModule -->
<g id="edge8" class="edge">
<title>SymbolModule&#45;&gt;ListModule</title>
<path fill="none" stroke="#000000" d="M99.5994,-122.1061C99.5994,-141.3391 99.5994,-169 99.5994,-169 99.5994,-169 460.0493,-169 460.0493,-169"/>
<polygon fill="#000000" stroke="#000000" points="460.0493,-172.5001 470.0493,-169 460.0492,-165.5001 460.0493,-172.5001"/>
</g>
</g>
</svg>
