<?xml version="1.0" encoding="UTF-8" standalone="no"?>
<!DOCTYPE svg PUBLIC "-//W3C//DTD SVG 1.1//EN"
 "http://www.w3.org/Graphics/SVG/1.1/DTD/svg11.dtd">
<!-- Generated by graphviz version 2.40.1 (20161225.0304)
 -->
<!-- Title: dependencies Pages: 1 -->
<svg width="1334pt" height="284pt"
 viewBox="0.00 0.00 1334.00 284.00" xmlns="http://www.w3.org/2000/svg" xmlns:xlink="http://www.w3.org/1999/xlink">
<g id="graph0" class="graph" transform="scale(1 1) rotate(0) translate(4 280)">
<title>dependencies</title>
<polygon fill="#ffffff" stroke="transparent" points="-4,4 -4,-280 1330,-280 1330,4 -4,4"/>
<text text-anchor="start" x="642.0091" y="-42.4" font-family="sans-serif" font-weight="bold" font-size="14.00" fill="#000000">Legend</text>
<polygon fill="#ffffb3" stroke="transparent" points="429,-10 429,-30 449,-30 449,-10 429,-10"/>
<text text-anchor="start" x="452.629" y="-15.4" font-family="sans-serif" font-size="14.00" fill="#000000"> &#160;Declarations</text>
<polygon fill="#8dd3c7" stroke="transparent" points="542,-10 542,-30 562,-30 562,-10 542,-10"/>
<text text-anchor="start" x="565.7251" y="-15.4" font-family="sans-serif" font-size="14.00" fill="#000000"> &#160;Module</text>
<polygon fill="#80b1d3" stroke="transparent" points="628,-10 628,-30 648,-30 648,-10 628,-10"/>
<text text-anchor="start" x="651.7812" y="-15.4" font-family="sans-serif" font-size="14.00" fill="#000000"> &#160;Bootstrap</text>
<polygon fill="#fdb462" stroke="transparent" points="725,-10 725,-30 745,-30 745,-10 725,-10"/>
<text text-anchor="start" x="748.6732" y="-15.4" font-family="sans-serif" font-size="14.00" fill="#000000"> &#160;Providers</text>
<polygon fill="#fb8072" stroke="transparent" points="821,-10 821,-30 841,-30 841,-10 821,-10"/>
<text text-anchor="start" x="844.7258" y="-15.4" font-family="sans-serif" font-size="14.00" fill="#000000"> &#160;Exports</text>
<g id="clust1" class="cluster">
<title>cluster_ListModule</title>
<polygon fill="none" stroke="#000000" stroke-dasharray="1,5" points="8,-70 8,-268 1318,-268 1318,-70 8,-70"/>
</g>
<g id="clust2" class="cluster">
<title>cluster_ListModule_declarations</title>
<polygon fill="none" stroke="#000000" points="468,-78 468,-130 1310,-130 1310,-78 468,-78"/>
</g>
<g id="clust9" class="cluster">
<title>cluster_ListModule_imports</title>
<polygon fill="none" stroke="#000000" points="16,-78 16,-130 460,-130 460,-78 16,-78"/>
</g>
<g id="clust10" class="cluster">
<title>cluster_ListModule_exports</title>
<polygon fill="none" stroke="#000000" points="80,-208 80,-260 1054,-260 1054,-208 80,-208"/>
</g>
<!-- GroupPipe -->
<g id="node1" class="node">
<title>GroupPipe</title>
<polygon fill="#ffffb3" stroke="#000000" points="1302.1558,-122 1225.8442,-122 1225.8442,-86 1302.1558,-86 1302.1558,-122"/>
<text text-anchor="middle" x="1264" y="-99.8" font-family="Times,serif" font-size="14.00" fill="#000000">GroupPipe</text>
</g>
<!-- ListModule -->
<g id="node7" class="node">
<title>ListModule</title>
<polygon fill="#8dd3c7" stroke="#000000" points="678.8289,-187 675.8289,-191 654.8289,-191 651.8289,-187 597.1711,-187 597.1711,-151 678.8289,-151 678.8289,-187"/>
<text text-anchor="middle" x="638" y="-164.8" font-family="Times,serif" font-size="14.00" fill="#000000">ListModule</text>
</g>
<!-- GroupPipe&#45;&gt;ListModule -->
<g id="edge1" class="edge">
<title>GroupPipe&#45;&gt;ListModule</title>
<path fill="none" stroke="#000000" d="M1264,-122.1061C1264,-141.3391 1264,-169 1264,-169 1264,-169 689.0736,-169 689.0736,-169"/>
<polygon fill="#000000" stroke="#000000" points="689.0736,-165.5001 679.0736,-169 689.0736,-172.5001 689.0736,-165.5001"/>
</g>
<!-- ListComponent -->
<g id="node2" class="node">
<title>ListComponent</title>
<polygon fill="#ffffb3" stroke="#000000" points="1207.6109,-122 1104.3891,-122 1104.3891,-86 1207.6109,-86 1207.6109,-122"/>
<text text-anchor="middle" x="1156" y="-99.8" font-family="Times,serif" font-size="14.00" fill="#000000">ListComponent</text>
</g>
<!-- ListComponent&#45;&gt;ListModule -->
<g id="edge2" class="edge">
<title>ListComponent&#45;&gt;ListModule</title>
<path fill="none" stroke="#000000" d="M1156,-122.302C1156,-140.2699 1156,-165 1156,-165 1156,-165 689.0796,-165 689.0796,-165"/>
<polygon fill="#000000" stroke="#000000" points="689.0796,-161.5001 679.0796,-165 689.0795,-168.5001 689.0796,-161.5001"/>
</g>
<!-- ListHeaderComponent -->
<g id="node3" class="node">
<title>ListHeaderComponent</title>
<polygon fill="#ffffb3" stroke="#000000" points="1086.5226,-122 943.4774,-122 943.4774,-86 1086.5226,-86 1086.5226,-122"/>
<text text-anchor="middle" x="1015" y="-99.8" font-family="Times,serif" font-size="14.00" fill="#000000">ListHeaderComponent</text>
</g>
<!-- ListHeaderComponent&#45;&gt;ListModule -->
<g id="edge3" class="edge">
<title>ListHeaderComponent&#45;&gt;ListModule</title>
<path fill="none" stroke="#000000" d="M947.7737,-122.027C947.7737,-138.3976 947.7737,-160 947.7737,-160 947.7737,-160 688.816,-160 688.816,-160"/>
<polygon fill="#000000" stroke="#000000" points="688.8161,-156.5001 678.816,-160 688.816,-163.5001 688.8161,-156.5001"/>
</g>
<!-- ListItemsComponent -->
<g id="node4" class="node">
<title>ListItemsComponent</title>
<polygon fill="#ffffb3" stroke="#000000" points="925.212,-122 790.788,-122 790.788,-86 925.212,-86 925.212,-122"/>
<text text-anchor="middle" x="858" y="-99.8" font-family="Times,serif" font-size="14.00" fill="#000000">ListItemsComponent</text>
</g>
<!-- ListItemsComponent&#45;&gt;ListModule -->
<g id="edge4" class="edge">
<title>ListItemsComponent&#45;&gt;ListModule</title>
<path fill="none" stroke="#000000" d="M813.5998,-122.1871C813.5998,-137.1824 813.5998,-156 813.5998,-156 813.5998,-156 688.7275,-156 688.7275,-156"/>
<polygon fill="#000000" stroke="#000000" points="688.7275,-152.5001 678.7275,-156 688.7274,-159.5001 688.7275,-152.5001"/>
</g>
<!-- PaginationComponent -->
<g id="node5" class="node">
<title>PaginationComponent</title>
<polygon fill="#ffffb3" stroke="#000000" points="772.7162,-122 631.2838,-122 631.2838,-86 772.7162,-86 772.7162,-122"/>
<text text-anchor="middle" x="702" y="-99.8" font-family="Times,serif" font-size="14.00" fill="#000000">PaginationComponent</text>
</g>
<!-- PaginationComponent&#45;&gt;ListModule -->
<g id="edge5" class="edge">
<title>PaginationComponent&#45;&gt;ListModule</title>
<path fill="none" stroke="#000000" d="M655.0281,-122.1061C655.0281,-122.1061 655.0281,-140.991 655.0281,-140.991"/>
<polygon fill="#000000" stroke="#000000" points="651.5281,-140.9909 655.0281,-150.991 658.5281,-140.991 651.5281,-140.9909"/>
</g>
<!-- SearchbarComponent -->
<g id="node6" class="node">
<title>SearchbarComponent</title>
<polygon fill="#ffffb3" stroke="#000000" points="613.7949,-122 476.2051,-122 476.2051,-86 613.7949,-86 613.7949,-122"/>
<text text-anchor="middle" x="545" y="-99.8" font-family="Times,serif" font-size="14.00" fill="#000000">SearchbarComponent</text>
</g>
<!-- SearchbarComponent&#45;&gt;ListModule -->
<g id="edge6" class="edge">
<title>SearchbarComponent&#45;&gt;ListModule</title>
<path fill="none" stroke="#000000" d="M605.4916,-122.1061C605.4916,-122.1061 605.4916,-140.991 605.4916,-140.991"/>
<polygon fill="#000000" stroke="#000000" points="601.9917,-140.9909 605.4916,-150.991 608.9917,-140.991 601.9917,-140.9909"/>
</g>
<!-- FormModule  -->
<g id="node12" class="node">
<title>FormModule </title>
<polygon fill="#fb8072" stroke="#000000" points="1045.8844,-252 952.1156,-252 952.1156,-216 1045.8844,-216 1045.8844,-252"/>
<text text-anchor="middle" x="999" y="-229.8" font-family="Times,serif" font-size="14.00" fill="#000000">FormModule </text>
</g>
<!-- ListModule&#45;&gt;FormModule  -->
<g id="edge11" class="edge">
<title>ListModule&#45;&gt;FormModule </title>
<path fill="none" stroke="#000000" stroke-dasharray="5,2" d="M678.7096,-174C773.1202,-174 999,-174 999,-174 999,-174 999,-205.998 999,-205.998"/>
<polygon fill="#000000" stroke="#000000" points="995.5001,-205.998 999,-215.998 1002.5001,-205.9981 995.5001,-205.998"/>
</g>
<!-- GroupPipe  -->
<g id="node13" class="node">
<title>GroupPipe </title>
<polygon fill="#fb8072" stroke="#000000" points="934.1552,-252 853.8448,-252 853.8448,-216 934.1552,-216 934.1552,-252"/>
<text text-anchor="middle" x="894" y="-229.8" font-family="Times,serif" font-size="14.00" fill="#000000">GroupPipe </text>
</g>
<!-- ListModule&#45;&gt;GroupPipe  -->
<g id="edge12" class="edge">
<title>ListModule&#45;&gt;GroupPipe </title>
<path fill="none" stroke="#000000" stroke-dasharray="5,2" d="M678.6896,-178C749.8736,-178 889.5142,-178 889.5142,-178 889.5142,-178 889.5142,-205.973 889.5142,-205.973"/>
<polygon fill="#000000" stroke="#000000" points="886.0143,-205.973 889.5142,-215.973 893.0143,-205.973 886.0143,-205.973"/>
</g>
<!-- ListComponent  -->
<g id="node14" class="node">
<title>ListComponent </title>
<polygon fill="#fb8072" stroke="#000000" points="836.1115,-252 729.8885,-252 729.8885,-216 836.1115,-216 836.1115,-252"/>
<text text-anchor="middle" x="783" y="-229.8" font-family="Times,serif" font-size="14.00" fill="#000000">ListComponent </text>
</g>
<!-- ListModule&#45;&gt;ListComponent  -->
<g id="edge13" class="edge">
<title>ListModule&#45;&gt;ListComponent </title>
<path fill="none" stroke="#000000" stroke-dasharray="5,2" d="M678.8502,-183C711.261,-183 751.1513,-183 751.1513,-183 751.1513,-183 751.1513,-205.8757 751.1513,-205.8757"/>
<polygon fill="#000000" stroke="#000000" points="747.6514,-205.8757 751.1513,-215.8757 754.6514,-205.8757 747.6514,-205.8757"/>
</g>
<!-- ListHeaderComponent  -->
<g id="node15" class="node">
<title>ListHeaderComponent </title>
<polygon fill="#fb8072" stroke="#000000" points="711.5218,-252 564.4782,-252 564.4782,-216 711.5218,-216 711.5218,-252"/>
<text text-anchor="middle" x="638" y="-229.8" font-family="Times,serif" font-size="14.00" fill="#000000">ListHeaderComponent </text>
</g>
<!-- ListModule&#45;&gt;ListHeaderComponent  -->
<g id="edge14" class="edge">
<title>ListModule&#45;&gt;ListHeaderComponent </title>
<path fill="none" stroke="#000000" stroke-dasharray="5,2" d="M638,-187.1061C638,-187.1061 638,-205.991 638,-205.991"/>
<polygon fill="#000000" stroke="#000000" points="634.5001,-205.9909 638,-215.991 641.5001,-205.991 634.5001,-205.9909"/>
</g>
<!-- ListItemsComponent  -->
<g id="node16" class="node">
<title>ListItemsComponent </title>
<polygon fill="#fb8072" stroke="#000000" points="546.7121,-252 409.2879,-252 409.2879,-216 546.7121,-216 546.7121,-252"/>
<text text-anchor="middle" x="478" y="-229.8" font-family="Times,serif" font-size="14.00" fill="#000000">ListItemsComponent </text>
</g>
<!-- ListModule&#45;&gt;ListItemsComponent  -->
<g id="edge15" class="edge">
<title>ListModule&#45;&gt;ListItemsComponent </title>
<path fill="none" stroke="#000000" stroke-dasharray="5,2" d="M597.3119,-183C560.3624,-183 511.6043,-183 511.6043,-183 511.6043,-183 511.6043,-205.8757 511.6043,-205.8757"/>
<polygon fill="#000000" stroke="#000000" points="508.1044,-205.8757 511.6043,-215.8757 515.1044,-205.8757 508.1044,-205.8757"/>
</g>
<!-- PaginationComponent  -->
<g id="node17" class="node">
<title>PaginationComponent </title>
<polygon fill="#fb8072" stroke="#000000" points="391.2163,-252 246.7837,-252 246.7837,-216 391.2163,-216 391.2163,-252"/>
<text text-anchor="middle" x="319" y="-229.8" font-family="Times,serif" font-size="14.00" fill="#000000">PaginationComponent </text>
</g>
<!-- ListModule&#45;&gt;PaginationComponent  -->
<g id="edge16" class="edge">
<title>ListModule&#45;&gt;PaginationComponent </title>
<path fill="none" stroke="#000000" stroke-dasharray="5,2" d="M597.1731,-178C523.6848,-178 376.7081,-178 376.7081,-178 376.7081,-178 376.7081,-205.973 376.7081,-205.973"/>
<polygon fill="#000000" stroke="#000000" points="373.2082,-205.973 376.7081,-215.973 380.2082,-205.973 373.2082,-205.973"/>
</g>
<!-- SearchbarComponent  -->
<g id="node18" class="node">
<title>SearchbarComponent </title>
<polygon fill="#fb8072" stroke="#000000" points="228.2947,-252 87.7053,-252 87.7053,-216 228.2947,-216 228.2947,-252"/>
<text text-anchor="middle" x="158" y="-229.8" font-family="Times,serif" font-size="14.00" fill="#000000">SearchbarComponent </text>
</g>
<!-- ListModule&#45;&gt;SearchbarComponent  -->
<g id="edge17" class="edge">
<title>ListModule&#45;&gt;SearchbarComponent </title>
<path fill="none" stroke="#000000" stroke-dasharray="5,2" d="M597.259,-174C485.682,-174 183.4203,-174 183.4203,-174 183.4203,-174 183.4203,-205.998 183.4203,-205.998"/>
<polygon fill="#000000" stroke="#000000" points="179.9203,-205.998 183.4203,-215.998 186.9203,-205.9981 179.9203,-205.998"/>
</g>
<!-- FormModule -->
<g id="node8" class="node">
<title>FormModule</title>
<polygon fill="#8dd3c7" stroke="#000000" points="451.8837,-122 448.8837,-126 427.8837,-126 424.8837,-122 362.1163,-122 362.1163,-86 451.8837,-86 451.8837,-122"/>
<text text-anchor="middle" x="407" y="-99.8" font-family="Times,serif" font-size="14.00" fill="#000000">FormModule</text>
</g>
<!-- FormModule&#45;&gt;ListModule -->
<g id="edge7" class="edge">
<title>FormModule&#45;&gt;ListModule</title>
<path fill="none" stroke="#000000" d="M430.543,-122.1871C430.543,-137.1824 430.543,-156 430.543,-156 430.543,-156 587.0132,-156 587.0132,-156"/>
<polygon fill="#000000" stroke="#000000" points="587.0132,-159.5001 597.0132,-156 587.0131,-152.5001 587.0132,-159.5001"/>
</g>
<!-- IconModule -->
<g id="node9" class="node">
<title>IconModule</title>
<polygon fill="#8dd3c7" stroke="#000000" points="344.4261,-122 341.4261,-126 320.4261,-126 317.4261,-122 259.5739,-122 259.5739,-86 344.4261,-86 344.4261,-122"/>
<text text-anchor="middle" x="302" y="-99.8" font-family="Times,serif" font-size="14.00" fill="#000000">IconModule</text>
</g>
<!-- IconModule&#45;&gt;ListModule -->
<g id="edge8" class="edge">
<title>IconModule&#45;&gt;ListModule</title>
<path fill="none" stroke="#000000" d="M302,-122.027C302,-138.3976 302,-160 302,-160 302,-160 587.1357,-160 587.1357,-160"/>
<polygon fill="#000000" stroke="#000000" points="587.1358,-163.5001 597.1357,-160 587.1357,-156.5001 587.1358,-163.5001"/>
</g>
<!-- SymbolModule -->
<g id="node10" class="node">
<title>SymbolModule</title>
<polygon fill="#8dd3c7" stroke="#000000" points="241.6137,-122 238.6137,-126 217.6137,-126 214.6137,-122 138.3863,-122 138.3863,-86 241.6137,-86 241.6137,-122"/>
<text text-anchor="middle" x="190" y="-99.8" font-family="Times,serif" font-size="14.00" fill="#000000">SymbolModule</text>
</g>
<!-- SymbolModule&#45;&gt;ListModule -->
<g id="edge9" class="edge">
<title>SymbolModule&#45;&gt;ListModule</title>
<path fill="none" stroke="#000000" d="M234.9771,-122.302C234.9771,-140.2699 234.9771,-165 234.9771,-165 234.9771,-165 587.1381,-165 587.1381,-165"/>
<polygon fill="#000000" stroke="#000000" points="587.1381,-168.5001 597.1381,-165 587.1381,-161.5001 587.1381,-168.5001"/>
</g>
<!-- UtilityModule -->
<g id="node11" class="node">
<title>UtilityModule</title>
<polygon fill="#8dd3c7" stroke="#000000" points="120.1095,-122 117.1095,-126 96.1095,-126 93.1095,-122 23.8905,-122 23.8905,-86 120.1095,-86 120.1095,-122"/>
<text text-anchor="middle" x="72" y="-99.8" font-family="Times,serif" font-size="14.00" fill="#000000">UtilityModule</text>
</g>
<!-- UtilityModule&#45;&gt;ListModule -->
<g id="edge10" class="edge">
<title>UtilityModule&#45;&gt;ListModule</title>
<path fill="none" stroke="#000000" d="M103.8287,-122.1061C103.8287,-141.3391 103.8287,-169 103.8287,-169 103.8287,-169 586.9714,-169 586.9714,-169"/>
<polygon fill="#000000" stroke="#000000" points="586.9715,-172.5001 596.9714,-169 586.9714,-165.5001 586.9715,-172.5001"/>
</g>
</g>
</svg>
