<?xml version="1.0" encoding="UTF-8" standalone="no"?>
<!DOCTYPE svg PUBLIC "-//W3C//DTD SVG 1.1//EN"
 "http://www.w3.org/Graphics/SVG/1.1/DTD/svg11.dtd">
<!-- Generated by graphviz version 2.47.0 (20210316.0004)
 -->
<!-- Title: dependencies Pages: 1 -->
<svg width="1522pt" height="284pt"
 viewBox="0.00 0.00 1522.00 284.00" xmlns="http://www.w3.org/2000/svg" xmlns:xlink="http://www.w3.org/1999/xlink">
<g id="graph0" class="graph" transform="scale(1 1) rotate(0) translate(4 280)">
<title>dependencies</title>
<polygon fill="white" stroke="transparent" points="-4,4 -4,-280 1518,-280 1518,4 -4,4"/>
<text text-anchor="start" x="736.01" y="-42.4" font-family="sans-serif" font-weight="bold" font-size="14.00">Legend</text>
<polygon fill="#ffffb3" stroke="transparent" points="523,-10 523,-30 543,-30 543,-10 523,-10"/>
<text text-anchor="start" x="546.63" y="-15.4" font-family="sans-serif" font-size="14.00"> &#160;Declarations</text>
<polygon fill="#8dd3c7" stroke="transparent" points="636,-10 636,-30 656,-30 656,-10 636,-10"/>
<text text-anchor="start" x="659.73" y="-15.4" font-family="sans-serif" font-size="14.00"> &#160;Module</text>
<polygon fill="#80b1d3" stroke="transparent" points="722,-10 722,-30 742,-30 742,-10 722,-10"/>
<text text-anchor="start" x="745.78" y="-15.4" font-family="sans-serif" font-size="14.00"> &#160;Bootstrap</text>
<polygon fill="#fdb462" stroke="transparent" points="819,-10 819,-30 839,-30 839,-10 819,-10"/>
<text text-anchor="start" x="842.67" y="-15.4" font-family="sans-serif" font-size="14.00"> &#160;Providers</text>
<polygon fill="#fb8072" stroke="transparent" points="915,-10 915,-30 935,-30 935,-10 915,-10"/>
<text text-anchor="start" x="938.73" y="-15.4" font-family="sans-serif" font-size="14.00"> &#160;Exports</text>
<g id="clust1" class="cluster">
<title>cluster_ListModule</title>
<polygon fill="none" stroke="black" stroke-dasharray="1,5" points="8,-70 8,-268 1506,-268 1506,-70 8,-70"/>
</g>
<g id="clust9" class="cluster">
<title>cluster_ListModule_imports</title>
<polygon fill="none" stroke="black" points="1054,-78 1054,-130 1498,-130 1498,-78 1054,-78"/>
</g>
<g id="clust2" class="cluster">
<title>cluster_ListModule_declarations</title>
<polygon fill="none" stroke="black" points="204,-78 204,-130 1046,-130 1046,-78 204,-78"/>
</g>
<g id="clust12" class="cluster">
<title>cluster_ListModule_providers</title>
<polygon fill="none" stroke="black" points="16,-78 16,-130 196,-130 196,-78 16,-78"/>
</g>
<g id="clust10" class="cluster">
<title>cluster_ListModule_exports</title>
<polygon fill="none" stroke="black" points="334,-208 334,-260 1308,-260 1308,-208 334,-208"/>
</g>
<!-- GroupPipe -->
<g id="node1" class="node">
<title>GroupPipe</title>
<polygon fill="#ffffb3" stroke="black" points="1038.16,-122 961.84,-122 961.84,-86 1038.16,-86 1038.16,-122"/>
<text text-anchor="middle" x="1000" y="-99.8" font-family="Times,serif" font-size="14.00">GroupPipe</text>
</g>
<!-- ListModule -->
<g id="node7" class="node">
<title>ListModule</title>
<polygon fill="#8dd3c7" stroke="black" points="932.83,-187 929.83,-191 908.83,-191 905.83,-187 851.17,-187 851.17,-151 932.83,-151 932.83,-187"/>
<text text-anchor="middle" x="892" y="-164.8" font-family="Times,serif" font-size="14.00">ListModule</text>
</g>
<!-- GroupPipe&#45;&gt;ListModule -->
<g id="edge1" class="edge">
<title>GroupPipe&#45;&gt;ListModule</title>
<path fill="none" stroke="black" d="M974.6,-122.12C974.6,-136.78 974.6,-155 974.6,-155 974.6,-155 942.82,-155 942.82,-155"/>
<polygon fill="black" stroke="black" points="942.82,-151.5 932.82,-155 942.82,-158.5 942.82,-151.5"/>
</g>
<!-- ListComponent -->
<g id="node2" class="node">
<title>ListComponent</title>
<polygon fill="#ffffb3" stroke="black" points="943.61,-122 840.39,-122 840.39,-86 943.61,-86 943.61,-122"/>
<text text-anchor="middle" x="892" y="-99.8" font-family="Times,serif" font-size="14.00">ListComponent</text>
</g>
<!-- ListComponent&#45;&gt;ListModule -->
<g id="edge2" class="edge">
<title>ListComponent&#45;&gt;ListModule</title>
<path fill="none" stroke="black" d="M892,-122.11C892,-122.11 892,-140.99 892,-140.99"/>
<polygon fill="black" stroke="black" points="888.5,-140.99 892,-150.99 895.5,-140.99 888.5,-140.99"/>
</g>
<!-- ListHeaderComponent -->
<g id="node3" class="node">
<title>ListHeaderComponent</title>
<polygon fill="#ffffb3" stroke="black" points="822.52,-122 679.48,-122 679.48,-86 822.52,-86 822.52,-122"/>
<text text-anchor="middle" x="751" y="-99.8" font-family="Times,serif" font-size="14.00">ListHeaderComponent</text>
</g>
<!-- ListHeaderComponent&#45;&gt;ListModule -->
<g id="edge3" class="edge">
<title>ListHeaderComponent&#45;&gt;ListModule</title>
<path fill="none" stroke="black" d="M809.67,-122.12C809.67,-136.78 809.67,-155 809.67,-155 809.67,-155 841.32,-155 841.32,-155"/>
<polygon fill="black" stroke="black" points="841.32,-158.5 851.32,-155 841.32,-151.5 841.32,-158.5"/>
</g>
<!-- ListItemsComponent -->
<g id="node4" class="node">
<title>ListItemsComponent</title>
<polygon fill="#ffffb3" stroke="black" points="661.21,-122 526.79,-122 526.79,-86 661.21,-86 661.21,-122"/>
<text text-anchor="middle" x="594" y="-99.8" font-family="Times,serif" font-size="14.00">ListItemsComponent</text>
</g>
<!-- ListItemsComponent&#45;&gt;ListModule -->
<g id="edge4" class="edge">
<title>ListItemsComponent&#45;&gt;ListModule</title>
<path fill="none" stroke="black" d="M653.23,-122.01C653.23,-138.05 653.23,-159 653.23,-159 653.23,-159 841.23,-159 841.23,-159"/>
<polygon fill="black" stroke="black" points="841.23,-162.5 851.23,-159 841.23,-155.5 841.23,-162.5"/>
</g>
<!-- PaginationComponent -->
<g id="node5" class="node">
<title>PaginationComponent</title>
<polygon fill="#ffffb3" stroke="black" points="508.72,-122 367.28,-122 367.28,-86 508.72,-86 508.72,-122"/>
<text text-anchor="middle" x="438" y="-99.8" font-family="Times,serif" font-size="14.00">PaginationComponent</text>
</g>
<!-- PaginationComponent&#45;&gt;ListModule -->
<g id="edge5" class="edge">
<title>PaginationComponent&#45;&gt;ListModule</title>
<path fill="none" stroke="black" d="M504.62,-122.02C504.62,-139.37 504.62,-163 504.62,-163 504.62,-163 841.28,-163 841.28,-163"/>
<polygon fill="black" stroke="black" points="841.28,-166.5 851.28,-163 841.28,-159.5 841.28,-166.5"/>
</g>
<!-- SearchbarComponent -->
<g id="node6" class="node">
<title>SearchbarComponent</title>
<polygon fill="#ffffb3" stroke="black" points="349.79,-122 212.21,-122 212.21,-86 349.79,-86 349.79,-122"/>
<text text-anchor="middle" x="281" y="-99.8" font-family="Times,serif" font-size="14.00">SearchbarComponent</text>
</g>
<!-- SearchbarComponent&#45;&gt;ListModule -->
<g id="edge6" class="edge">
<title>SearchbarComponent&#45;&gt;ListModule</title>
<path fill="none" stroke="black" d="M345.62,-122.22C345.62,-140.83 345.62,-167 345.62,-167 345.62,-167 840.93,-167 840.93,-167"/>
<polygon fill="black" stroke="black" points="840.93,-170.5 850.93,-167 840.93,-163.5 840.93,-170.5"/>
</g>
<!-- FormModule  -->
<g id="node12" class="node">
<title>FormModule </title>
<polygon fill="#fb8072" stroke="black" points="1299.88,-252 1206.12,-252 1206.12,-216 1299.88,-216 1299.88,-252"/>
<text text-anchor="middle" x="1253" y="-229.8" font-family="Times,serif" font-size="14.00">FormModule </text>
</g>
<!-- ListModule&#45;&gt;FormModule  -->
<g id="edge11" class="edge">
<title>ListModule&#45;&gt;FormModule </title>
<path fill="none" stroke="black" stroke-dasharray="5,2" d="M932.94,-175C1025.52,-175 1242.93,-175 1242.93,-175 1242.93,-175 1242.93,-205.98 1242.93,-205.98"/>
<polygon fill="black" stroke="black" points="1239.43,-205.98 1242.93,-215.98 1246.43,-205.98 1239.43,-205.98"/>
</g>
<!-- GroupPipe  -->
<g id="node13" class="node">
<title>GroupPipe </title>
<polygon fill="#fb8072" stroke="black" points="1188.16,-252 1107.84,-252 1107.84,-216 1188.16,-216 1188.16,-252"/>
<text text-anchor="middle" x="1148" y="-229.8" font-family="Times,serif" font-size="14.00">GroupPipe </text>
</g>
<!-- ListModule&#45;&gt;GroupPipe  -->
<g id="edge12" class="edge">
<title>ListModule&#45;&gt;GroupPipe </title>
<path fill="none" stroke="black" stroke-dasharray="5,2" d="M932.88,-179C1001.64,-179 1132.99,-179 1132.99,-179 1132.99,-179 1132.99,-205.99 1132.99,-205.99"/>
<polygon fill="black" stroke="black" points="1129.49,-205.99 1132.99,-215.99 1136.49,-205.99 1129.49,-205.99"/>
</g>
<!-- ListComponent  -->
<g id="node14" class="node">
<title>ListComponent </title>
<polygon fill="#fb8072" stroke="black" points="1090.11,-252 983.89,-252 983.89,-216 1090.11,-216 1090.11,-252"/>
<text text-anchor="middle" x="1037" y="-229.8" font-family="Times,serif" font-size="14.00">ListComponent </text>
</g>
<!-- ListModule&#45;&gt;ListComponent  -->
<g id="edge13" class="edge">
<title>ListModule&#45;&gt;ListComponent </title>
<path fill="none" stroke="black" stroke-dasharray="5,2" d="M932.96,-183C967.38,-183 1011.01,-183 1011.01,-183 1011.01,-183 1011.01,-205.88 1011.01,-205.88"/>
<polygon fill="black" stroke="black" points="1007.51,-205.88 1011.01,-215.88 1014.51,-205.88 1007.51,-205.88"/>
</g>
<!-- ListHeaderComponent  -->
<g id="node15" class="node">
<title>ListHeaderComponent </title>
<polygon fill="#fb8072" stroke="black" points="965.52,-252 818.48,-252 818.48,-216 965.52,-216 965.52,-252"/>
<text text-anchor="middle" x="892" y="-229.8" font-family="Times,serif" font-size="14.00">ListHeaderComponent </text>
</g>
<!-- ListModule&#45;&gt;ListHeaderComponent  -->
<g id="edge14" class="edge">
<title>ListModule&#45;&gt;ListHeaderComponent </title>
<path fill="none" stroke="black" stroke-dasharray="5,2" d="M892,-187.11C892,-187.11 892,-205.99 892,-205.99"/>
<polygon fill="black" stroke="black" points="888.5,-205.99 892,-215.99 895.5,-205.99 888.5,-205.99"/>
</g>
<!-- ListItemsComponent  -->
<g id="node16" class="node">
<title>ListItemsComponent </title>
<polygon fill="#fb8072" stroke="black" points="800.71,-252 663.29,-252 663.29,-216 800.71,-216 800.71,-252"/>
<text text-anchor="middle" x="732" y="-229.8" font-family="Times,serif" font-size="14.00">ListItemsComponent </text>
</g>
<!-- ListModule&#45;&gt;ListItemsComponent  -->
<g id="edge15" class="edge">
<title>ListModule&#45;&gt;ListItemsComponent </title>
<path fill="none" stroke="black" stroke-dasharray="5,2" d="M851.28,-183C806.27,-183 740.05,-183 740.05,-183 740.05,-183 740.05,-205.88 740.05,-205.88"/>
<polygon fill="black" stroke="black" points="736.55,-205.88 740.05,-215.88 743.55,-205.88 736.55,-205.88"/>
</g>
<!-- PaginationComponent  -->
<g id="node17" class="node">
<title>PaginationComponent </title>
<polygon fill="#fb8072" stroke="black" points="645.22,-252 500.78,-252 500.78,-216 645.22,-216 645.22,-252"/>
<text text-anchor="middle" x="573" y="-229.8" font-family="Times,serif" font-size="14.00">PaginationComponent </text>
</g>
<!-- ListModule&#45;&gt;PaginationComponent  -->
<g id="edge16" class="edge">
<title>ListModule&#45;&gt;PaginationComponent </title>
<path fill="none" stroke="black" stroke-dasharray="5,2" d="M851.07,-179C767.72,-179 586.13,-179 586.13,-179 586.13,-179 586.13,-205.99 586.13,-205.99"/>
<polygon fill="black" stroke="black" points="582.63,-205.99 586.13,-215.99 589.63,-205.99 582.63,-205.99"/>
</g>
<!-- SearchbarComponent  -->
<g id="node18" class="node">
<title>SearchbarComponent </title>
<polygon fill="#fb8072" stroke="black" points="482.29,-252 341.71,-252 341.71,-216 482.29,-216 482.29,-252"/>
<text text-anchor="middle" x="412" y="-229.8" font-family="Times,serif" font-size="14.00">SearchbarComponent </text>
</g>
<!-- ListModule&#45;&gt;SearchbarComponent  -->
<g id="edge17" class="edge">
<title>ListModule&#45;&gt;SearchbarComponent </title>
<path fill="none" stroke="black" stroke-dasharray="5,2" d="M850.96,-175C736.97,-175 424.89,-175 424.89,-175 424.89,-175 424.89,-205.98 424.89,-205.98"/>
<polygon fill="black" stroke="black" points="421.39,-205.98 424.89,-215.98 428.39,-205.98 421.39,-205.98"/>
</g>
<!-- FormModule -->
<g id="node8" class="node">
<title>FormModule</title>
<polygon fill="#8dd3c7" stroke="black" points="1489.88,-122 1486.88,-126 1465.88,-126 1462.88,-122 1400.12,-122 1400.12,-86 1489.88,-86 1489.88,-122"/>
<text text-anchor="middle" x="1445" y="-99.8" font-family="Times,serif" font-size="14.00">FormModule</text>
</g>
<!-- FormModule&#45;&gt;ListModule -->
<g id="edge7" class="edge">
<title>FormModule&#45;&gt;ListModule</title>
<path fill="none" stroke="black" d="M1445,-122.31C1445,-142.15 1445,-171 1445,-171 1445,-171 943.11,-171 943.11,-171"/>
<polygon fill="black" stroke="black" points="943.11,-167.5 933.11,-171 943.11,-174.5 943.11,-167.5"/>
</g>
<!-- IconModule -->
<g id="node9" class="node">
<title>IconModule</title>
<polygon fill="#8dd3c7" stroke="black" points="1382.43,-122 1379.43,-126 1358.43,-126 1355.43,-122 1297.57,-122 1297.57,-86 1382.43,-86 1382.43,-122"/>
<text text-anchor="middle" x="1340" y="-99.8" font-family="Times,serif" font-size="14.00">IconModule</text>
</g>
<!-- IconModule&#45;&gt;ListModule -->
<g id="edge8" class="edge">
<title>IconModule&#45;&gt;ListModule</title>
<path fill="none" stroke="black" d="M1340.95,-122.22C1340.95,-140.83 1340.95,-167 1340.95,-167 1340.95,-167 943.03,-167 943.03,-167"/>
<polygon fill="black" stroke="black" points="943.03,-163.5 933.03,-167 943.03,-170.5 943.03,-163.5"/>
</g>
<!-- SymbolModule -->
<g id="node10" class="node">
<title>SymbolModule</title>
<polygon fill="#8dd3c7" stroke="black" points="1279.61,-122 1276.61,-126 1255.61,-126 1252.61,-122 1176.39,-122 1176.39,-86 1279.61,-86 1279.61,-122"/>
<text text-anchor="middle" x="1228" y="-99.8" font-family="Times,serif" font-size="14.00">SymbolModule</text>
</g>
<!-- SymbolModule&#45;&gt;ListModule -->
<g id="edge9" class="edge">
<title>SymbolModule&#45;&gt;ListModule</title>
<path fill="none" stroke="black" d="M1182.26,-122.02C1182.26,-139.37 1182.26,-163 1182.26,-163 1182.26,-163 942.67,-163 942.67,-163"/>
<polygon fill="black" stroke="black" points="942.67,-159.5 932.67,-163 942.67,-166.5 942.67,-159.5"/>
</g>
<!-- UtilityModule -->
<g id="node11" class="node">
<title>UtilityModule</title>
<polygon fill="#8dd3c7" stroke="black" points="1158.11,-122 1155.11,-126 1134.11,-126 1131.11,-122 1061.89,-122 1061.89,-86 1158.11,-86 1158.11,-122"/>
<text text-anchor="middle" x="1110" y="-99.8" font-family="Times,serif" font-size="14.00">UtilityModule</text>
</g>
<!-- UtilityModule&#45;&gt;ListModule -->
<g id="edge10" class="edge">
<title>UtilityModule&#45;&gt;ListModule</title>
<path fill="none" stroke="black" d="M1076.13,-122.01C1076.13,-138.05 1076.13,-159 1076.13,-159 1076.13,-159 942.86,-159 942.86,-159"/>
<polygon fill="black" stroke="black" points="942.86,-155.5 932.86,-159 942.86,-162.5 942.86,-155.5"/>
</g>
<!-- ListConfigService -->
<g id="node19" class="node">
<title>ListConfigService</title>
<ellipse fill="#fdb462" stroke="black" cx="106" cy="-104" rx="81.68" ry="18"/>
<text text-anchor="middle" x="106" y="-99.8" font-family="Times,serif" font-size="14.00">ListConfigService</text>
</g>
<!-- ListConfigService&#45;&gt;ListModule -->
<g id="edge18" class="edge">
<title>ListConfigService&#45;&gt;ListModule</title>
<path fill="none" stroke="black" d="M106,-122.31C106,-142.15 106,-171 106,-171 106,-171 841.12,-171 841.12,-171"/>
<polygon fill="black" stroke="black" points="841.12,-174.5 851.12,-171 841.12,-167.5 841.12,-174.5"/>
</g>
</g>
</svg>
