<?xml version="1.0" encoding="UTF-8" standalone="no"?>
<!DOCTYPE svg PUBLIC "-//W3C//DTD SVG 1.1//EN"
 "http://www.w3.org/Graphics/SVG/1.1/DTD/svg11.dtd">
<!-- Generated by graphviz version 2.40.1 (20161225.0304)
 -->
<!-- Title: dependencies Pages: 1 -->
<svg width="855pt" height="284pt"
 viewBox="0.00 0.00 855.00 284.00" xmlns="http://www.w3.org/2000/svg" xmlns:xlink="http://www.w3.org/1999/xlink">
<g id="graph0" class="graph" transform="scale(1 1) rotate(0) translate(4 280)">
<title>dependencies</title>
<polygon fill="#ffffff" stroke="transparent" points="-4,4 -4,-280 851,-280 851,4 -4,4"/>
<text text-anchor="start" x="402.5091" y="-42.4" font-family="sans-serif" font-weight="bold" font-size="14.00" fill="#000000">Legend</text>
<polygon fill="#ffffb3" stroke="transparent" points="189.5,-10 189.5,-30 209.5,-30 209.5,-10 189.5,-10"/>
<text text-anchor="start" x="213.129" y="-15.4" font-family="sans-serif" font-size="14.00" fill="#000000"> &#160;Declarations</text>
<polygon fill="#8dd3c7" stroke="transparent" points="302.5,-10 302.5,-30 322.5,-30 322.5,-10 302.5,-10"/>
<text text-anchor="start" x="326.2251" y="-15.4" font-family="sans-serif" font-size="14.00" fill="#000000"> &#160;Module</text>
<polygon fill="#80b1d3" stroke="transparent" points="388.5,-10 388.5,-30 408.5,-30 408.5,-10 388.5,-10"/>
<text text-anchor="start" x="412.2812" y="-15.4" font-family="sans-serif" font-size="14.00" fill="#000000"> &#160;Bootstrap</text>
<polygon fill="#fdb462" stroke="transparent" points="485.5,-10 485.5,-30 505.5,-30 505.5,-10 485.5,-10"/>
<text text-anchor="start" x="509.1732" y="-15.4" font-family="sans-serif" font-size="14.00" fill="#000000"> &#160;Providers</text>
<polygon fill="#fb8072" stroke="transparent" points="581.5,-10 581.5,-30 601.5,-30 601.5,-10 581.5,-10"/>
<text text-anchor="start" x="605.2258" y="-15.4" font-family="sans-serif" font-size="14.00" fill="#000000"> &#160;Exports</text>
<g id="clust1" class="cluster">
<title>cluster_ListModule</title>
<polygon fill="none" stroke="#000000" stroke-dasharray="1,5" points="8,-70 8,-268 839,-268 839,-70 8,-70"/>
</g>
<g id="clust2" class="cluster">
<title>cluster_ListModule_declarations</title>
<polygon fill="none" stroke="#000000" points="138,-78 138,-130 825,-130 825,-78 138,-78"/>
</g>
<g id="clust8" class="cluster">
<title>cluster_ListModule_imports</title>
<polygon fill="none" stroke="#000000" points="24,-78 24,-130 130,-130 130,-78 24,-78"/>
</g>
<g id="clust9" class="cluster">
<title>cluster_ListModule_exports</title>
<polygon fill="none" stroke="#000000" points="16,-208 16,-260 831,-260 831,-208 16,-208"/>
</g>
<!-- ListComponent -->
<g id="node1" class="node">
<title>ListComponent</title>
<polygon fill="#ffffb3" stroke="#000000" points="816.6109,-122 713.3891,-122 713.3891,-86 816.6109,-86 816.6109,-122"/>
<text text-anchor="middle" x="765" y="-99.8" font-family="Times,serif" font-size="14.00" fill="#000000">ListComponent</text>
</g>
<!-- ListModule -->
<g id="node6" class="node">
<title>ListModule</title>
<polygon fill="#8dd3c7" stroke="#000000" points="352.8289,-187 349.8289,-191 328.8289,-191 325.8289,-187 271.1711,-187 271.1711,-151 352.8289,-151 352.8289,-187"/>
<text text-anchor="middle" x="312" y="-164.8" font-family="Times,serif" font-size="14.00" fill="#000000">ListModule</text>
</g>
<!-- ListComponent&#45;&gt;ListModule -->
<g id="edge1" class="edge">
<title>ListComponent&#45;&gt;ListModule</title>
<path fill="none" stroke="#000000" d="M783.2685,-122.2222C783.2685,-140.8285 783.2685,-167 783.2685,-167 783.2685,-167 362.9976,-167 362.9976,-167"/>
<polygon fill="#000000" stroke="#000000" points="362.9976,-163.5001 352.9976,-167 362.9975,-170.5001 362.9976,-163.5001"/>
</g>
<!-- ListItemsComponent -->
<g id="node2" class="node">
<title>ListItemsComponent</title>
<polygon fill="#ffffb3" stroke="#000000" points="695.212,-122 560.788,-122 560.788,-86 695.212,-86 695.212,-122"/>
<text text-anchor="middle" x="628" y="-99.8" font-family="Times,serif" font-size="14.00" fill="#000000">ListItemsComponent</text>
</g>
<!-- ListItemsComponent&#45;&gt;ListModule -->
<g id="edge2" class="edge">
<title>ListItemsComponent&#45;&gt;ListModule</title>
<path fill="none" stroke="#000000" d="M650.452,-122.0336C650.452,-139.0597 650.452,-162 650.452,-162 650.452,-162 362.8252,-162 362.8252,-162"/>
<polygon fill="#000000" stroke="#000000" points="362.8253,-158.5001 352.8252,-162 362.8252,-165.5001 362.8253,-158.5001"/>
</g>
<!-- ListHeaderComponent -->
<g id="node3" class="node">
<title>ListHeaderComponent</title>
<polygon fill="#ffffb3" stroke="#000000" points="542.5226,-122 399.4774,-122 399.4774,-86 542.5226,-86 542.5226,-122"/>
<text text-anchor="middle" x="471" y="-99.8" font-family="Times,serif" font-size="14.00" fill="#000000">ListHeaderComponent</text>
</g>
<!-- ListHeaderComponent&#45;&gt;ListModule -->
<g id="edge3" class="edge">
<title>ListHeaderComponent&#45;&gt;ListModule</title>
<path fill="none" stroke="#000000" d="M447.0797,-122.2396C447.0797,-137.5706 447.0797,-157 447.0797,-157 447.0797,-157 362.8949,-157 362.8949,-157"/>
<polygon fill="#000000" stroke="#000000" points="362.895,-153.5001 352.8949,-157 362.8949,-160.5001 362.895,-153.5001"/>
</g>
<!-- PaginationComponent -->
<g id="node4" class="node">
<title>PaginationComponent</title>
<polygon fill="#ffffb3" stroke="#000000" points="381.7162,-122 240.2838,-122 240.2838,-86 381.7162,-86 381.7162,-122"/>
<text text-anchor="middle" x="311" y="-99.8" font-family="Times,serif" font-size="14.00" fill="#000000">PaginationComponent</text>
</g>
<!-- PaginationComponent&#45;&gt;ListModule -->
<g id="edge4" class="edge">
<title>PaginationComponent&#45;&gt;ListModule</title>
<path fill="none" stroke="#000000" d="M312,-122.1061C312,-122.1061 312,-140.991 312,-140.991"/>
<polygon fill="#000000" stroke="#000000" points="308.5001,-140.9909 312,-150.991 315.5001,-140.991 308.5001,-140.9909"/>
</g>
<!-- GroupPipe -->
<g id="node5" class="node">
<title>GroupPipe</title>
<polygon fill="#ffffb3" stroke="#000000" points="222.1558,-122 145.8442,-122 145.8442,-86 222.1558,-86 222.1558,-122"/>
<text text-anchor="middle" x="184" y="-99.8" font-family="Times,serif" font-size="14.00" fill="#000000">GroupPipe</text>
</g>
<!-- GroupPipe&#45;&gt;ListModule -->
<g id="edge5" class="edge">
<title>GroupPipe&#45;&gt;ListModule</title>
<path fill="none" stroke="#000000" d="M192.6092,-122.0091C192.6092,-138.0494 192.6092,-159 192.6092,-159 192.6092,-159 261.2464,-159 261.2464,-159"/>
<polygon fill="#000000" stroke="#000000" points="261.2464,-162.5001 271.2464,-159 261.2463,-155.5001 261.2464,-162.5001"/>
</g>
<!-- ListComponent  -->
<g id="node8" class="node">
<title>ListComponent </title>
<polygon fill="#fb8072" stroke="#000000" points="823.1115,-252 716.8885,-252 716.8885,-216 823.1115,-216 823.1115,-252"/>
<text text-anchor="middle" x="770" y="-229.8" font-family="Times,serif" font-size="14.00" fill="#000000">ListComponent </text>
</g>
<!-- ListModule&#45;&gt;ListComponent  -->
<g id="edge7" class="edge">
<title>ListModule&#45;&gt;ListComponent </title>
<path fill="none" stroke="#000000" stroke-dasharray="5,2" d="M352.8109,-172C461.5399,-172 749.9815,-172 749.9815,-172 749.9815,-172 749.9815,-205.7333 749.9815,-205.7333"/>
<polygon fill="#000000" stroke="#000000" points="746.4816,-205.7333 749.9815,-215.7333 753.4816,-205.7333 746.4816,-205.7333"/>
</g>
<!-- ListItemsComponent  -->
<g id="node9" class="node">
<title>ListItemsComponent </title>
<polygon fill="#fb8072" stroke="#000000" points="698.7121,-252 561.2879,-252 561.2879,-216 698.7121,-216 698.7121,-252"/>
<text text-anchor="middle" x="630" y="-229.8" font-family="Times,serif" font-size="14.00" fill="#000000">ListItemsComponent </text>
</g>
<!-- ListModule&#45;&gt;ListItemsComponent  -->
<g id="edge8" class="edge">
<title>ListModule&#45;&gt;ListItemsComponent </title>
<path fill="none" stroke="#000000" stroke-dasharray="5,2" d="M352.8514,-177C433.579,-177 605.798,-177 605.798,-177 605.798,-177 605.798,-205.9648 605.798,-205.9648"/>
<polygon fill="#000000" stroke="#000000" points="602.2981,-205.9648 605.798,-215.9648 609.2981,-205.9649 602.2981,-205.9648"/>
</g>
<!-- ListHeaderComponent  -->
<g id="node10" class="node">
<title>ListHeaderComponent </title>
<polygon fill="#fb8072" stroke="#000000" points="543.5218,-252 396.4782,-252 396.4782,-216 543.5218,-216 543.5218,-252"/>
<text text-anchor="middle" x="470" y="-229.8" font-family="Times,serif" font-size="14.00" fill="#000000">ListHeaderComponent </text>
</g>
<!-- ListModule&#45;&gt;ListHeaderComponent  -->
<g id="edge9" class="edge">
<title>ListModule&#45;&gt;ListHeaderComponent </title>
<path fill="none" stroke="#000000" stroke-dasharray="5,2" d="M353.0509,-182C406.9819,-182 494.9203,-182 494.9203,-182 494.9203,-182 494.9203,-205.8129 494.9203,-205.8129"/>
<polygon fill="#000000" stroke="#000000" points="491.4204,-205.8129 494.9203,-215.8129 498.4204,-205.813 491.4204,-205.8129"/>
</g>
<!-- PaginationComponent  -->
<g id="node11" class="node">
<title>PaginationComponent </title>
<polygon fill="#fb8072" stroke="#000000" points="378.2163,-252 233.7837,-252 233.7837,-216 378.2163,-216 378.2163,-252"/>
<text text-anchor="middle" x="306" y="-229.8" font-family="Times,serif" font-size="14.00" fill="#000000">PaginationComponent </text>
</g>
<!-- ListModule&#45;&gt;PaginationComponent  -->
<g id="edge10" class="edge">
<title>ListModule&#45;&gt;PaginationComponent </title>
<path fill="none" stroke="#000000" stroke-dasharray="5,2" d="M312,-187.1061C312,-187.1061 312,-205.991 312,-205.991"/>
<polygon fill="#000000" stroke="#000000" points="308.5001,-205.9909 312,-215.991 315.5001,-205.991 308.5001,-205.9909"/>
</g>
<!-- GroupPipe  -->
<g id="node12" class="node">
<title>GroupPipe </title>
<polygon fill="#fb8072" stroke="#000000" points="216.1552,-252 135.8448,-252 135.8448,-216 216.1552,-216 216.1552,-252"/>
<text text-anchor="middle" x="176" y="-229.8" font-family="Times,serif" font-size="14.00" fill="#000000">GroupPipe </text>
</g>
<!-- ListModule&#45;&gt;GroupPipe  -->
<g id="edge11" class="edge">
<title>ListModule&#45;&gt;GroupPipe </title>
<path fill="none" stroke="#000000" stroke-dasharray="5,2" d="M271.0623,-180C228.8477,-180 169.1408,-180 169.1408,-180 169.1408,-180 169.1408,-205.7181 169.1408,-205.7181"/>
<polygon fill="#000000" stroke="#000000" points="165.6409,-205.718 169.1408,-215.7181 172.6409,-205.7181 165.6409,-205.718"/>
</g>
<!-- FormModule  -->
<g id="node13" class="node">
<title>FormModule </title>
<polygon fill="#fb8072" stroke="#000000" points="117.8844,-252 24.1156,-252 24.1156,-216 117.8844,-216 117.8844,-252"/>
<text text-anchor="middle" x="71" y="-229.8" font-family="Times,serif" font-size="14.00" fill="#000000">FormModule </text>
</g>
<!-- ListModule&#45;&gt;FormModule  -->
<g id="edge12" class="edge">
<title>ListModule&#45;&gt;FormModule </title>
<path fill="none" stroke="#000000" stroke-dasharray="5,2" d="M271.3293,-173C200.1784,-173 60.6027,-173 60.6027,-173 60.6027,-173 60.6027,-205.698 60.6027,-205.698"/>
<polygon fill="#000000" stroke="#000000" points="57.1028,-205.698 60.6027,-215.698 64.1028,-205.698 57.1028,-205.698"/>
</g>
<!-- FormModule -->
<g id="node7" class="node">
<title>FormModule</title>
<polygon fill="#8dd3c7" stroke="#000000" points="121.8837,-122 118.8837,-126 97.8837,-126 94.8837,-122 32.1163,-122 32.1163,-86 121.8837,-86 121.8837,-122"/>
<text text-anchor="middle" x="77" y="-99.8" font-family="Times,serif" font-size="14.00" fill="#000000">FormModule</text>
</g>
<!-- FormModule&#45;&gt;ListModule -->
<g id="edge6" class="edge">
<title>FormModule&#45;&gt;ListModule</title>
<path fill="none" stroke="#000000" d="M89.1473,-122.2667C89.1473,-140.5552 89.1473,-166 89.1473,-166 89.1473,-166 261.1254,-166 261.1254,-166"/>
<polygon fill="#000000" stroke="#000000" points="261.1254,-169.5001 271.1254,-166 261.1253,-162.5001 261.1254,-169.5001"/>
</g>
</g>
</svg>
