<?xml version="1.0" encoding="UTF-8" standalone="no"?>
<!DOCTYPE svg PUBLIC "-//W3C//DTD SVG 1.1//EN"
 "http://www.w3.org/Graphics/SVG/1.1/DTD/svg11.dtd">
<!-- Generated by graphviz version 2.40.1 (20161225.0304)
 -->
<!-- Title: dependencies Pages: 1 -->
<svg width="943pt" height="284pt"
 viewBox="0.00 0.00 943.00 284.00" xmlns="http://www.w3.org/2000/svg" xmlns:xlink="http://www.w3.org/1999/xlink">
<g id="graph0" class="graph" transform="scale(1 1) rotate(0) translate(4 280)">
<title>dependencies</title>
<polygon fill="#ffffff" stroke="transparent" points="-4,4 -4,-280 939,-280 939,4 -4,4"/>
<text text-anchor="start" x="446.5091" y="-42.4" font-family="sans-serif" font-weight="bold" font-size="14.00" fill="#000000">Legend</text>
<polygon fill="#ffffb3" stroke="transparent" points="233.5,-10 233.5,-30 253.5,-30 253.5,-10 233.5,-10"/>
<text text-anchor="start" x="257.129" y="-15.4" font-family="sans-serif" font-size="14.00" fill="#000000"> &#160;Declarations</text>
<polygon fill="#8dd3c7" stroke="transparent" points="346.5,-10 346.5,-30 366.5,-30 366.5,-10 346.5,-10"/>
<text text-anchor="start" x="370.2251" y="-15.4" font-family="sans-serif" font-size="14.00" fill="#000000"> &#160;Module</text>
<polygon fill="#80b1d3" stroke="transparent" points="432.5,-10 432.5,-30 452.5,-30 452.5,-10 432.5,-10"/>
<text text-anchor="start" x="456.2812" y="-15.4" font-family="sans-serif" font-size="14.00" fill="#000000"> &#160;Bootstrap</text>
<polygon fill="#fdb462" stroke="transparent" points="529.5,-10 529.5,-30 549.5,-30 549.5,-10 529.5,-10"/>
<text text-anchor="start" x="553.1732" y="-15.4" font-family="sans-serif" font-size="14.00" fill="#000000"> &#160;Providers</text>
<polygon fill="#fb8072" stroke="transparent" points="625.5,-10 625.5,-30 645.5,-30 645.5,-10 625.5,-10"/>
<text text-anchor="start" x="649.2258" y="-15.4" font-family="sans-serif" font-size="14.00" fill="#000000"> &#160;Exports</text>
<g id="clust1" class="cluster">
<title>cluster_ListModule</title>
<polygon fill="none" stroke="#000000" stroke-dasharray="1,5" points="8,-70 8,-268 927,-268 927,-70 8,-70"/>
</g>
<g id="clust2" class="cluster">
<title>cluster_ListModule_declarations</title>
<polygon fill="none" stroke="#000000" points="232,-78 232,-130 919,-130 919,-78 232,-78"/>
</g>
<g id="clust8" class="cluster">
<title>cluster_ListModule_imports</title>
<polygon fill="none" stroke="#000000" points="16,-78 16,-130 224,-130 224,-78 16,-78"/>
</g>
<g id="clust9" class="cluster">
<title>cluster_ListModule_exports</title>
<polygon fill="none" stroke="#000000" points="60,-208 60,-260 875,-260 875,-208 60,-208"/>
</g>
<!-- ListComponent -->
<g id="node1" class="node">
<title>ListComponent</title>
<polygon fill="#ffffb3" stroke="#000000" points="910.6109,-122 807.3891,-122 807.3891,-86 910.6109,-86 910.6109,-122"/>
<text text-anchor="middle" x="859" y="-99.8" font-family="Times,serif" font-size="14.00" fill="#000000">ListComponent</text>
</g>
<!-- ListModule -->
<g id="node6" class="node">
<title>ListModule</title>
<polygon fill="#8dd3c7" stroke="#000000" points="445.8289,-187 442.8289,-191 421.8289,-191 418.8289,-187 364.1711,-187 364.1711,-151 445.8289,-151 445.8289,-187"/>
<text text-anchor="middle" x="405" y="-164.8" font-family="Times,serif" font-size="14.00" fill="#000000">ListModule</text>
</g>
<!-- ListComponent&#45;&gt;ListModule -->
<g id="edge1" class="edge">
<title>ListComponent&#45;&gt;ListModule</title>
<path fill="none" stroke="#000000" d="M837.375,-122.1061C837.375,-141.3391 837.375,-169 837.375,-169 837.375,-169 455.6768,-169 455.6768,-169"/>
<polygon fill="#000000" stroke="#000000" points="455.6768,-165.5001 445.6768,-169 455.6768,-172.5001 455.6768,-165.5001"/>
</g>
<!-- ListItemsComponent -->
<g id="node2" class="node">
<title>ListItemsComponent</title>
<polygon fill="#ffffb3" stroke="#000000" points="789.212,-122 654.788,-122 654.788,-86 789.212,-86 789.212,-122"/>
<text text-anchor="middle" x="722" y="-99.8" font-family="Times,serif" font-size="14.00" fill="#000000">ListItemsComponent</text>
</g>
<!-- ListItemsComponent&#45;&gt;ListModule -->
<g id="edge2" class="edge">
<title>ListItemsComponent&#45;&gt;ListModule</title>
<path fill="none" stroke="#000000" d="M698.875,-122.0225C698.875,-139.3734 698.875,-163 698.875,-163 698.875,-163 455.8621,-163 455.8621,-163"/>
<polygon fill="#000000" stroke="#000000" points="455.8621,-159.5001 445.8621,-163 455.862,-166.5001 455.8621,-159.5001"/>
</g>
<!-- ListHeaderComponent -->
<g id="node3" class="node">
<title>ListHeaderComponent</title>
<polygon fill="#ffffb3" stroke="#000000" points="636.5226,-122 493.4774,-122 493.4774,-86 636.5226,-86 636.5226,-122"/>
<text text-anchor="middle" x="565" y="-99.8" font-family="Times,serif" font-size="14.00" fill="#000000">ListHeaderComponent</text>
</g>
<!-- ListHeaderComponent&#45;&gt;ListModule -->
<g id="edge3" class="edge">
<title>ListHeaderComponent&#45;&gt;ListModule</title>
<path fill="none" stroke="#000000" d="M540.375,-122.2396C540.375,-137.5706 540.375,-157 540.375,-157 540.375,-157 455.9843,-157 455.9843,-157"/>
<polygon fill="#000000" stroke="#000000" points="455.9844,-153.5001 445.9843,-157 455.9843,-160.5001 455.9844,-153.5001"/>
</g>
<!-- PaginationComponent -->
<g id="node4" class="node">
<title>PaginationComponent</title>
<polygon fill="#ffffb3" stroke="#000000" points="475.7162,-122 334.2838,-122 334.2838,-86 475.7162,-86 475.7162,-122"/>
<text text-anchor="middle" x="405" y="-99.8" font-family="Times,serif" font-size="14.00" fill="#000000">PaginationComponent</text>
</g>
<!-- PaginationComponent&#45;&gt;ListModule -->
<g id="edge4" class="edge">
<title>PaginationComponent&#45;&gt;ListModule</title>
<path fill="none" stroke="#000000" d="M405,-122.1061C405,-122.1061 405,-140.991 405,-140.991"/>
<polygon fill="#000000" stroke="#000000" points="401.5001,-140.9909 405,-150.991 408.5001,-140.991 401.5001,-140.9909"/>
</g>
<!-- GroupPipe -->
<g id="node5" class="node">
<title>GroupPipe</title>
<polygon fill="#ffffb3" stroke="#000000" points="316.1558,-122 239.8442,-122 239.8442,-86 316.1558,-86 316.1558,-122"/>
<text text-anchor="middle" x="278" y="-99.8" font-family="Times,serif" font-size="14.00" fill="#000000">GroupPipe</text>
</g>
<!-- GroupPipe&#45;&gt;ListModule -->
<g id="edge5" class="edge">
<title>GroupPipe&#45;&gt;ListModule</title>
<path fill="none" stroke="#000000" d="M296.9847,-122.2396C296.9847,-137.5706 296.9847,-157 296.9847,-157 296.9847,-157 354.1641,-157 354.1641,-157"/>
<polygon fill="#000000" stroke="#000000" points="354.1641,-160.5001 364.1641,-157 354.164,-153.5001 354.1641,-160.5001"/>
</g>
<!-- ListComponent  -->
<g id="node9" class="node">
<title>ListComponent </title>
<polygon fill="#fb8072" stroke="#000000" points="867.1115,-252 760.8885,-252 760.8885,-216 867.1115,-216 867.1115,-252"/>
<text text-anchor="middle" x="814" y="-229.8" font-family="Times,serif" font-size="14.00" fill="#000000">ListComponent </text>
</g>
<!-- ListModule&#45;&gt;ListComponent  -->
<g id="edge8" class="edge">
<title>ListModule&#45;&gt;ListComponent </title>
<path fill="none" stroke="#000000" stroke-dasharray="5,2" d="M445.9991,-175C542.3072,-175 774.9003,-175 774.9003,-175 774.9003,-175 774.9003,-205.9775 774.9003,-205.9775"/>
<polygon fill="#000000" stroke="#000000" points="771.4003,-205.9774 774.9003,-215.9775 778.4003,-205.9775 771.4003,-205.9774"/>
</g>
<!-- ListItemsComponent  -->
<g id="node10" class="node">
<title>ListItemsComponent </title>
<polygon fill="#fb8072" stroke="#000000" points="742.7121,-252 605.2879,-252 605.2879,-216 742.7121,-216 742.7121,-252"/>
<text text-anchor="middle" x="674" y="-229.8" font-family="Times,serif" font-size="14.00" fill="#000000">ListItemsComponent </text>
</g>
<!-- ListModule&#45;&gt;ListItemsComponent  -->
<g id="edge9" class="edge">
<title>ListModule&#45;&gt;ListItemsComponent </title>
<path fill="none" stroke="#000000" stroke-dasharray="5,2" d="M445.8729,-181C508.4798,-181 620.9525,-181 620.9525,-181 620.9525,-181 620.9525,-205.7604 620.9525,-205.7604"/>
<polygon fill="#000000" stroke="#000000" points="617.4526,-205.7604 620.9525,-215.7604 624.4526,-205.7604 617.4526,-205.7604"/>
</g>
<!-- ListHeaderComponent  -->
<g id="node11" class="node">
<title>ListHeaderComponent </title>
<polygon fill="#fb8072" stroke="#000000" points="587.5218,-252 440.4782,-252 440.4782,-216 587.5218,-216 587.5218,-252"/>
<text text-anchor="middle" x="514" y="-229.8" font-family="Times,serif" font-size="14.00" fill="#000000">ListHeaderComponent </text>
</g>
<!-- ListModule&#45;&gt;ListHeaderComponent  -->
<g id="edge10" class="edge">
<title>ListModule&#45;&gt;ListHeaderComponent </title>
<path fill="none" stroke="#000000" stroke-dasharray="5,2" d="M431.4236,-187.1061C431.4236,-206.3391 431.4236,-234 431.4236,-234 431.4236,-234 432.3073,-234 432.3073,-234"/>
<polygon fill="#000000" stroke="#000000" points="430.2607,-237.5001 440.2607,-234 430.2606,-230.5001 430.2607,-237.5001"/>
</g>
<!-- PaginationComponent  -->
<g id="node12" class="node">
<title>PaginationComponent </title>
<polygon fill="#fb8072" stroke="#000000" points="422.2163,-252 277.7837,-252 277.7837,-216 422.2163,-216 422.2163,-252"/>
<text text-anchor="middle" x="350" y="-229.8" font-family="Times,serif" font-size="14.00" fill="#000000">PaginationComponent </text>
</g>
<!-- ListModule&#45;&gt;PaginationComponent  -->
<g id="edge11" class="edge">
<title>ListModule&#45;&gt;PaginationComponent </title>
<path fill="none" stroke="#000000" stroke-dasharray="5,2" d="M393.347,-187.1061C393.347,-187.1061 393.347,-205.991 393.347,-205.991"/>
<polygon fill="#000000" stroke="#000000" points="389.847,-205.9909 393.347,-215.991 396.847,-205.991 389.847,-205.9909"/>
</g>
<!-- GroupPipe  -->
<g id="node13" class="node">
<title>GroupPipe </title>
<polygon fill="#fb8072" stroke="#000000" points="260.1552,-252 179.8448,-252 179.8448,-216 260.1552,-216 260.1552,-252"/>
<text text-anchor="middle" x="220" y="-229.8" font-family="Times,serif" font-size="14.00" fill="#000000">GroupPipe </text>
</g>
<!-- ListModule&#45;&gt;GroupPipe  -->
<g id="edge12" class="edge">
<title>ListModule&#45;&gt;GroupPipe </title>
<path fill="none" stroke="#000000" stroke-dasharray="5,2" d="M364.2427,-181C318.2819,-181 249.875,-181 249.875,-181 249.875,-181 249.875,-205.7604 249.875,-205.7604"/>
<polygon fill="#000000" stroke="#000000" points="246.3751,-205.7604 249.875,-215.7604 253.3751,-205.7604 246.3751,-205.7604"/>
</g>
<!-- FormModule  -->
<g id="node14" class="node">
<title>FormModule </title>
<polygon fill="#fb8072" stroke="#000000" points="161.8844,-252 68.1156,-252 68.1156,-216 161.8844,-216 161.8844,-252"/>
<text text-anchor="middle" x="115" y="-229.8" font-family="Times,serif" font-size="14.00" fill="#000000">FormModule </text>
</g>
<!-- ListModule&#45;&gt;FormModule  -->
<g id="edge13" class="edge">
<title>ListModule&#45;&gt;FormModule </title>
<path fill="none" stroke="#000000" stroke-dasharray="5,2" d="M364.1992,-175C290.7578,-175 143.875,-175 143.875,-175 143.875,-175 143.875,-205.9775 143.875,-205.9775"/>
<polygon fill="#000000" stroke="#000000" points="140.3751,-205.9774 143.875,-215.9775 147.3751,-205.9775 140.3751,-205.9774"/>
</g>
<!-- FormModule -->
<g id="node7" class="node">
<title>FormModule</title>
<polygon fill="#8dd3c7" stroke="#000000" points="215.8837,-122 212.8837,-126 191.8837,-126 188.8837,-122 126.1163,-122 126.1163,-86 215.8837,-86 215.8837,-122"/>
<text text-anchor="middle" x="171" y="-99.8" font-family="Times,serif" font-size="14.00" fill="#000000">FormModule</text>
</g>
<!-- FormModule&#45;&gt;ListModule -->
<g id="edge6" class="edge">
<title>FormModule&#45;&gt;ListModule</title>
<path fill="none" stroke="#000000" d="M197.9322,-122.0225C197.9322,-139.3734 197.9322,-163 197.9322,-163 197.9322,-163 354.0901,-163 354.0901,-163"/>
<polygon fill="#000000" stroke="#000000" points="354.0901,-166.5001 364.0901,-163 354.09,-159.5001 354.0901,-166.5001"/>
</g>
<!-- IconModule -->
<g id="node8" class="node">
<title>IconModule</title>
<polygon fill="#8dd3c7" stroke="#000000" points="108.4261,-122 105.4261,-126 84.4261,-126 81.4261,-122 23.5739,-122 23.5739,-86 108.4261,-86 108.4261,-122"/>
<text text-anchor="middle" x="66" y="-99.8" font-family="Times,serif" font-size="14.00" fill="#000000">IconModule</text>
</g>
<!-- IconModule&#45;&gt;ListModule -->
<g id="edge7" class="edge">
<title>IconModule&#45;&gt;ListModule</title>
<path fill="none" stroke="#000000" d="M88.2604,-122.1061C88.2604,-141.3391 88.2604,-169 88.2604,-169 88.2604,-169 354.2403,-169 354.2403,-169"/>
<polygon fill="#000000" stroke="#000000" points="354.2403,-172.5001 364.2403,-169 354.2402,-165.5001 354.2403,-172.5001"/>
</g>
</g>
</svg>
