<?xml version="1.0" encoding="UTF-8" standalone="no"?>
<!DOCTYPE svg PUBLIC "-//W3C//DTD SVG 1.1//EN"
 "http://www.w3.org/Graphics/SVG/1.1/DTD/svg11.dtd">
<!-- Generated by graphviz version 2.40.1 (20161225.0304)
 -->
<!-- Title: dependencies Pages: 1 -->
<svg width="1065pt" height="284pt"
 viewBox="0.00 0.00 1065.00 284.00" xmlns="http://www.w3.org/2000/svg" xmlns:xlink="http://www.w3.org/1999/xlink">
<g id="graph0" class="graph" transform="scale(1 1) rotate(0) translate(4 280)">
<title>dependencies</title>
<polygon fill="#ffffff" stroke="transparent" points="-4,4 -4,-280 1061,-280 1061,4 -4,4"/>
<text text-anchor="start" x="507.5091" y="-42.4" font-family="sans-serif" font-weight="bold" font-size="14.00" fill="#000000">Legend</text>
<polygon fill="#ffffb3" stroke="transparent" points="294.5,-10 294.5,-30 314.5,-30 314.5,-10 294.5,-10"/>
<text text-anchor="start" x="318.129" y="-15.4" font-family="sans-serif" font-size="14.00" fill="#000000"> &#160;Declarations</text>
<polygon fill="#8dd3c7" stroke="transparent" points="407.5,-10 407.5,-30 427.5,-30 427.5,-10 407.5,-10"/>
<text text-anchor="start" x="431.2251" y="-15.4" font-family="sans-serif" font-size="14.00" fill="#000000"> &#160;Module</text>
<polygon fill="#80b1d3" stroke="transparent" points="493.5,-10 493.5,-30 513.5,-30 513.5,-10 493.5,-10"/>
<text text-anchor="start" x="517.2812" y="-15.4" font-family="sans-serif" font-size="14.00" fill="#000000"> &#160;Bootstrap</text>
<polygon fill="#fdb462" stroke="transparent" points="590.5,-10 590.5,-30 610.5,-30 610.5,-10 590.5,-10"/>
<text text-anchor="start" x="614.1732" y="-15.4" font-family="sans-serif" font-size="14.00" fill="#000000"> &#160;Providers</text>
<polygon fill="#fb8072" stroke="transparent" points="686.5,-10 686.5,-30 706.5,-30 706.5,-10 686.5,-10"/>
<text text-anchor="start" x="710.2258" y="-15.4" font-family="sans-serif" font-size="14.00" fill="#000000"> &#160;Exports</text>
<g id="clust1" class="cluster">
<title>cluster_ListModule</title>
<polygon fill="none" stroke="#000000" stroke-dasharray="1,5" points="8,-70 8,-268 1049,-268 1049,-70 8,-70"/>
</g>
<g id="clust2" class="cluster">
<title>cluster_ListModule_declarations</title>
<polygon fill="none" stroke="#000000" points="354,-78 354,-130 1041,-130 1041,-78 354,-78"/>
</g>
<g id="clust8" class="cluster">
<title>cluster_ListModule_imports</title>
<polygon fill="none" stroke="#000000" points="16,-78 16,-130 346,-130 346,-78 16,-78"/>
</g>
<g id="clust9" class="cluster">
<title>cluster_ListModule_exports</title>
<polygon fill="none" stroke="#000000" points="92,-208 92,-260 907,-260 907,-208 92,-208"/>
</g>
<!-- ListComponent -->
<g id="node1" class="node">
<title>ListComponent</title>
<polygon fill="#ffffb3" stroke="#000000" points="1032.6109,-122 929.3891,-122 929.3891,-86 1032.6109,-86 1032.6109,-122"/>
<text text-anchor="middle" x="981" y="-99.8" font-family="Times,serif" font-size="14.00" fill="#000000">ListComponent</text>
</g>
<!-- ListModule -->
<g id="node6" class="node">
<title>ListModule</title>
<polygon fill="#8dd3c7" stroke="#000000" points="498.8289,-187 495.8289,-191 474.8289,-191 471.8289,-187 417.1711,-187 417.1711,-151 498.8289,-151 498.8289,-187"/>
<text text-anchor="middle" x="458" y="-164.8" font-family="Times,serif" font-size="14.00" fill="#000000">ListModule</text>
</g>
<!-- ListComponent&#45;&gt;ListModule -->
<g id="edge1" class="edge">
<title>ListComponent&#45;&gt;ListModule</title>
<path fill="none" stroke="#000000" d="M981,-122.1061C981,-141.3391 981,-169 981,-169 981,-169 509.0389,-169 509.0389,-169"/>
<polygon fill="#000000" stroke="#000000" points="509.039,-165.5001 499.0389,-169 509.0389,-172.5001 509.039,-165.5001"/>
</g>
<!-- ListItemsComponent -->
<g id="node2" class="node">
<title>ListItemsComponent</title>
<polygon fill="#ffffb3" stroke="#000000" points="911.212,-122 776.788,-122 776.788,-86 911.212,-86 911.212,-122"/>
<text text-anchor="middle" x="844" y="-99.8" font-family="Times,serif" font-size="14.00" fill="#000000">ListItemsComponent</text>
</g>
<!-- ListItemsComponent&#45;&gt;ListModule -->
<g id="edge2" class="edge">
<title>ListItemsComponent&#45;&gt;ListModule</title>
<path fill="none" stroke="#000000" d="M784.7944,-122.0225C784.7944,-139.3734 784.7944,-163 784.7944,-163 784.7944,-163 508.728,-163 508.728,-163"/>
<polygon fill="#000000" stroke="#000000" points="508.728,-159.5001 498.728,-163 508.7279,-166.5001 508.728,-159.5001"/>
</g>
<!-- ListHeaderComponent -->
<g id="node3" class="node">
<title>ListHeaderComponent</title>
<polygon fill="#ffffb3" stroke="#000000" points="758.5226,-122 615.4774,-122 615.4774,-86 758.5226,-86 758.5226,-122"/>
<text text-anchor="middle" x="687" y="-99.8" font-family="Times,serif" font-size="14.00" fill="#000000">ListHeaderComponent</text>
</g>
<!-- ListHeaderComponent&#45;&gt;ListModule -->
<g id="edge3" class="edge">
<title>ListHeaderComponent&#45;&gt;ListModule</title>
<path fill="none" stroke="#000000" d="M628.3275,-122.2396C628.3275,-137.5706 628.3275,-157 628.3275,-157 628.3275,-157 508.7977,-157 508.7977,-157"/>
<polygon fill="#000000" stroke="#000000" points="508.7977,-153.5001 498.7977,-157 508.7976,-160.5001 508.7977,-153.5001"/>
</g>
<!-- PaginationComponent -->
<g id="node4" class="node">
<title>PaginationComponent</title>
<polygon fill="#ffffb3" stroke="#000000" points="597.7162,-122 456.2838,-122 456.2838,-86 597.7162,-86 597.7162,-122"/>
<text text-anchor="middle" x="527" y="-99.8" font-family="Times,serif" font-size="14.00" fill="#000000">PaginationComponent</text>
</g>
<!-- PaginationComponent&#45;&gt;ListModule -->
<g id="edge4" class="edge">
<title>PaginationComponent&#45;&gt;ListModule</title>
<path fill="none" stroke="#000000" d="M477.5281,-122.1061C477.5281,-122.1061 477.5281,-140.991 477.5281,-140.991"/>
<polygon fill="#000000" stroke="#000000" points="474.0281,-140.9909 477.5281,-150.991 481.0281,-140.991 474.0281,-140.9909"/>
</g>
<!-- GroupPipe -->
<g id="node5" class="node">
<title>GroupPipe</title>
<polygon fill="#ffffb3" stroke="#000000" points="438.1558,-122 361.8442,-122 361.8442,-86 438.1558,-86 438.1558,-122"/>
<text text-anchor="middle" x="400" y="-99.8" font-family="Times,serif" font-size="14.00" fill="#000000">GroupPipe</text>
</g>
<!-- GroupPipe&#45;&gt;ListModule -->
<g id="edge5" class="edge">
<title>GroupPipe&#45;&gt;ListModule</title>
<path fill="none" stroke="#000000" d="M427.8317,-122.1061C427.8317,-122.1061 427.8317,-140.991 427.8317,-140.991"/>
<polygon fill="#000000" stroke="#000000" points="424.3318,-140.9909 427.8317,-150.991 431.3318,-140.991 424.3318,-140.9909"/>
</g>
<!-- ListComponent  -->
<g id="node10" class="node">
<title>ListComponent </title>
<polygon fill="#fb8072" stroke="#000000" points="899.1115,-252 792.8885,-252 792.8885,-216 899.1115,-216 899.1115,-252"/>
<text text-anchor="middle" x="846" y="-229.8" font-family="Times,serif" font-size="14.00" fill="#000000">ListComponent </text>
</g>
<!-- ListModule&#45;&gt;ListComponent  -->
<g id="edge9" class="edge">
<title>ListModule&#45;&gt;ListComponent </title>
<path fill="none" stroke="#000000" stroke-dasharray="5,2" d="M498.7895,-175C598.407,-175 846,-175 846,-175 846,-175 846,-205.9775 846,-205.9775"/>
<polygon fill="#000000" stroke="#000000" points="842.5001,-205.9774 846,-215.9775 849.5001,-205.9775 842.5001,-205.9774"/>
</g>
<!-- ListItemsComponent  -->
<g id="node11" class="node">
<title>ListItemsComponent </title>
<polygon fill="#fb8072" stroke="#000000" points="774.7121,-252 637.2879,-252 637.2879,-216 774.7121,-216 774.7121,-252"/>
<text text-anchor="middle" x="706" y="-229.8" font-family="Times,serif" font-size="14.00" fill="#000000">ListItemsComponent </text>
</g>
<!-- ListModule&#45;&gt;ListItemsComponent  -->
<g id="edge10" class="edge">
<title>ListModule&#45;&gt;ListItemsComponent </title>
<path fill="none" stroke="#000000" stroke-dasharray="5,2" d="M498.7047,-181C567.1642,-181 697.9525,-181 697.9525,-181 697.9525,-181 697.9525,-205.7604 697.9525,-205.7604"/>
<polygon fill="#000000" stroke="#000000" points="694.4526,-205.7604 697.9525,-215.7604 701.4526,-205.7604 694.4526,-205.7604"/>
</g>
<!-- ListHeaderComponent  -->
<g id="node12" class="node">
<title>ListHeaderComponent </title>
<polygon fill="#fb8072" stroke="#000000" points="619.5218,-252 472.4782,-252 472.4782,-216 619.5218,-216 619.5218,-252"/>
<text text-anchor="middle" x="546" y="-229.8" font-family="Times,serif" font-size="14.00" fill="#000000">ListHeaderComponent </text>
</g>
<!-- ListModule&#45;&gt;ListHeaderComponent  -->
<g id="edge11" class="edge">
<title>ListModule&#45;&gt;ListHeaderComponent </title>
<path fill="none" stroke="#000000" stroke-dasharray="5,2" d="M485.5766,-187.1061C485.5766,-187.1061 485.5766,-205.991 485.5766,-205.991"/>
<polygon fill="#000000" stroke="#000000" points="482.0767,-205.9909 485.5766,-215.991 489.0767,-205.991 482.0767,-205.9909"/>
</g>
<!-- PaginationComponent  -->
<g id="node13" class="node">
<title>PaginationComponent </title>
<polygon fill="#fb8072" stroke="#000000" points="454.2163,-252 309.7837,-252 309.7837,-216 454.2163,-216 454.2163,-252"/>
<text text-anchor="middle" x="382" y="-229.8" font-family="Times,serif" font-size="14.00" fill="#000000">PaginationComponent </text>
</g>
<!-- ListModule&#45;&gt;PaginationComponent  -->
<g id="edge12" class="edge">
<title>ListModule&#45;&gt;PaginationComponent </title>
<path fill="none" stroke="#000000" stroke-dasharray="5,2" d="M435.847,-187.1061C435.847,-187.1061 435.847,-205.991 435.847,-205.991"/>
<polygon fill="#000000" stroke="#000000" points="432.347,-205.9909 435.847,-215.991 439.347,-205.991 432.347,-205.9909"/>
</g>
<!-- GroupPipe  -->
<g id="node14" class="node">
<title>GroupPipe </title>
<polygon fill="#fb8072" stroke="#000000" points="292.1552,-252 211.8448,-252 211.8448,-216 292.1552,-216 292.1552,-252"/>
<text text-anchor="middle" x="252" y="-229.8" font-family="Times,serif" font-size="14.00" fill="#000000">GroupPipe </text>
</g>
<!-- ListModule&#45;&gt;GroupPipe  -->
<g id="edge13" class="edge">
<title>ListModule&#45;&gt;GroupPipe </title>
<path fill="none" stroke="#000000" stroke-dasharray="5,2" d="M417.2215,-181C361.9492,-181 270.0679,-181 270.0679,-181 270.0679,-181 270.0679,-205.7604 270.0679,-205.7604"/>
<polygon fill="#000000" stroke="#000000" points="266.5679,-205.7604 270.0679,-215.7604 273.5679,-205.7604 266.5679,-205.7604"/>
</g>
<!-- FormModule  -->
<g id="node15" class="node">
<title>FormModule </title>
<polygon fill="#fb8072" stroke="#000000" points="193.8844,-252 100.1156,-252 100.1156,-216 193.8844,-216 193.8844,-252"/>
<text text-anchor="middle" x="147" y="-229.8" font-family="Times,serif" font-size="14.00" fill="#000000">FormModule </text>
</g>
<!-- ListModule&#45;&gt;FormModule  -->
<g id="edge14" class="edge">
<title>ListModule&#45;&gt;FormModule </title>
<path fill="none" stroke="#000000" stroke-dasharray="5,2" d="M417.3107,-175C337.8516,-175 169.7396,-175 169.7396,-175 169.7396,-175 169.7396,-205.9775 169.7396,-205.9775"/>
<polygon fill="#000000" stroke="#000000" points="166.2397,-205.9774 169.7396,-215.9775 173.2397,-205.9775 166.2397,-205.9774"/>
</g>
<!-- FormModule -->
<g id="node7" class="node">
<title>FormModule</title>
<polygon fill="#8dd3c7" stroke="#000000" points="337.8837,-122 334.8837,-126 313.8837,-126 310.8837,-122 248.1163,-122 248.1163,-86 337.8837,-86 337.8837,-122"/>
<text text-anchor="middle" x="293" y="-99.8" font-family="Times,serif" font-size="14.00" fill="#000000">FormModule</text>
</g>
<!-- FormModule&#45;&gt;ListModule -->
<g id="edge6" class="edge">
<title>FormModule&#45;&gt;ListModule</title>
<path fill="none" stroke="#000000" d="M323.7919,-122.2396C323.7919,-137.5706 323.7919,-157 323.7919,-157 323.7919,-157 407.0039,-157 407.0039,-157"/>
<polygon fill="#000000" stroke="#000000" points="407.0039,-160.5001 417.0039,-157 407.0039,-153.5001 407.0039,-160.5001"/>
</g>
<!-- IconModule -->
<g id="node8" class="node">
<title>IconModule</title>
<polygon fill="#8dd3c7" stroke="#000000" points="230.4261,-122 227.4261,-126 206.4261,-126 203.4261,-122 145.5739,-122 145.5739,-86 230.4261,-86 230.4261,-122"/>
<text text-anchor="middle" x="188" y="-99.8" font-family="Times,serif" font-size="14.00" fill="#000000">IconModule</text>
</g>
<!-- IconModule&#45;&gt;ListModule -->
<g id="edge7" class="edge">
<title>IconModule&#45;&gt;ListModule</title>
<path fill="none" stroke="#000000" d="M221.0675,-122.0225C221.0675,-139.3734 221.0675,-163 221.0675,-163 221.0675,-163 407.2699,-163 407.2699,-163"/>
<polygon fill="#000000" stroke="#000000" points="407.2699,-166.5001 417.2699,-163 407.2698,-159.5001 407.2699,-166.5001"/>
</g>
<!-- SymbolModule -->
<g id="node9" class="node">
<title>SymbolModule</title>
<polygon fill="#8dd3c7" stroke="#000000" points="127.6137,-122 124.6137,-126 103.6137,-126 100.6137,-122 24.3863,-122 24.3863,-86 127.6137,-86 127.6137,-122"/>
<text text-anchor="middle" x="76" y="-99.8" font-family="Times,serif" font-size="14.00" fill="#000000">SymbolModule</text>
</g>
<!-- SymbolModule&#45;&gt;ListModule -->
<g id="edge8" class="edge">
<title>SymbolModule&#45;&gt;ListModule</title>
<path fill="none" stroke="#000000" d="M113.9325,-122.1061C113.9325,-141.3391 113.9325,-169 113.9325,-169 113.9325,-169 407.1798,-169 407.1798,-169"/>
<polygon fill="#000000" stroke="#000000" points="407.1798,-172.5001 417.1798,-169 407.1798,-165.5001 407.1798,-172.5001"/>
</g>
</g>
</svg>
