<?xml version="1.0" encoding="UTF-8" standalone="no"?>
<!DOCTYPE svg PUBLIC "-//W3C//DTD SVG 1.1//EN"
 "http://www.w3.org/Graphics/SVG/1.1/DTD/svg11.dtd">
<!-- Generated by graphviz version 2.47.0 (20210316.0004)
 -->
<!-- Title: dependencies Pages: 1 -->
<svg width="1522pt" height="284pt"
 viewBox="0.00 0.00 1522.00 284.00" xmlns="http://www.w3.org/2000/svg" xmlns:xlink="http://www.w3.org/1999/xlink">
<g id="graph0" class="graph" transform="scale(1 1) rotate(0) translate(4 280)">
<title>dependencies</title>
<polygon fill="white" stroke="transparent" points="-4,4 -4,-280 1518,-280 1518,4 -4,4"/>
<text text-anchor="start" x="736.01" y="-42.4" font-family="sans-serif" font-weight="bold" font-size="14.00">Legend</text>
<polygon fill="#ffffb3" stroke="transparent" points="523,-10 523,-30 543,-30 543,-10 523,-10"/>
<text text-anchor="start" x="546.63" y="-15.4" font-family="sans-serif" font-size="14.00"> &#160;Declarations</text>
<polygon fill="#8dd3c7" stroke="transparent" points="636,-10 636,-30 656,-30 656,-10 636,-10"/>
<text text-anchor="start" x="659.73" y="-15.4" font-family="sans-serif" font-size="14.00"> &#160;Module</text>
<polygon fill="#80b1d3" stroke="transparent" points="722,-10 722,-30 742,-30 742,-10 722,-10"/>
<text text-anchor="start" x="745.78" y="-15.4" font-family="sans-serif" font-size="14.00"> &#160;Bootstrap</text>
<polygon fill="#fdb462" stroke="transparent" points="819,-10 819,-30 839,-30 839,-10 819,-10"/>
<text text-anchor="start" x="842.67" y="-15.4" font-family="sans-serif" font-size="14.00"> &#160;Providers</text>
<polygon fill="#fb8072" stroke="transparent" points="915,-10 915,-30 935,-30 935,-10 915,-10"/>
<text text-anchor="start" x="938.73" y="-15.4" font-family="sans-serif" font-size="14.00"> &#160;Exports</text>
<g id="clust1" class="cluster">
<title>cluster_ListModule</title>
<polygon fill="none" stroke="black" stroke-dasharray="1,5" points="8,-70 8,-268 1506,-268 1506,-70 8,-70"/>
</g>
<g id="clust12" class="cluster">
<title>cluster_ListModule_providers</title>
<polygon fill="none" stroke="black" points="1318,-78 1318,-130 1498,-130 1498,-78 1318,-78"/>
</g>
<g id="clust2" class="cluster">
<title>cluster_ListModule_declarations</title>
<polygon fill="none" stroke="black" points="468,-78 468,-130 1310,-130 1310,-78 468,-78"/>
</g>
<g id="clust9" class="cluster">
<title>cluster_ListModule_imports</title>
<polygon fill="none" stroke="black" points="16,-78 16,-130 460,-130 460,-78 16,-78"/>
</g>
<g id="clust10" class="cluster">
<title>cluster_ListModule_exports</title>
<polygon fill="none" stroke="black" points="144,-208 144,-260 1118,-260 1118,-208 144,-208"/>
</g>
<!-- GroupPipe -->
<g id="node1" class="node">
<title>GroupPipe</title>
<polygon fill="#ffffb3" stroke="black" points="1302.16,-122 1225.84,-122 1225.84,-86 1302.16,-86 1302.16,-122"/>
<text text-anchor="middle" x="1264" y="-99.8" font-family="Times,serif" font-size="14.00">GroupPipe</text>
</g>
<!-- ListModule -->
<g id="node7" class="node">
<title>ListModule</title>
<polygon fill="#8dd3c7" stroke="black" points="742.83,-187 739.83,-191 718.83,-191 715.83,-187 661.17,-187 661.17,-151 742.83,-151 742.83,-187"/>
<text text-anchor="middle" x="702" y="-164.8" font-family="Times,serif" font-size="14.00">ListModule</text>
</g>
<!-- GroupPipe&#45;&gt;ListModule -->
<g id="edge1" class="edge">
<title>GroupPipe&#45;&gt;ListModule</title>
<path fill="none" stroke="black" d="M1264,-122.22C1264,-140.83 1264,-167 1264,-167 1264,-167 752.87,-167 752.87,-167"/>
<polygon fill="black" stroke="black" points="752.87,-163.5 742.87,-167 752.87,-170.5 752.87,-163.5"/>
</g>
<!-- ListComponent -->
<g id="node2" class="node">
<title>ListComponent</title>
<polygon fill="#ffffb3" stroke="black" points="1207.61,-122 1104.39,-122 1104.39,-86 1207.61,-86 1207.61,-122"/>
<text text-anchor="middle" x="1156" y="-99.8" font-family="Times,serif" font-size="14.00">ListComponent</text>
</g>
<!-- ListComponent&#45;&gt;ListModule -->
<g id="edge2" class="edge">
<title>ListComponent&#45;&gt;ListModule</title>
<path fill="none" stroke="black" d="M1158.62,-122.02C1158.62,-139.37 1158.62,-163 1158.62,-163 1158.62,-163 752.92,-163 752.92,-163"/>
<polygon fill="black" stroke="black" points="752.92,-159.5 742.92,-163 752.92,-166.5 752.92,-159.5"/>
</g>
<!-- ListHeaderComponent -->
<g id="node3" class="node">
<title>ListHeaderComponent</title>
<polygon fill="#ffffb3" stroke="black" points="1086.52,-122 943.48,-122 943.48,-86 1086.52,-86 1086.52,-122"/>
<text text-anchor="middle" x="1015" y="-99.8" font-family="Times,serif" font-size="14.00">ListHeaderComponent</text>
</g>
<!-- ListHeaderComponent&#45;&gt;ListModule -->
<g id="edge3" class="edge">
<title>ListHeaderComponent&#45;&gt;ListModule</title>
<path fill="none" stroke="black" d="M970.66,-122.01C970.66,-138.05 970.66,-159 970.66,-159 970.66,-159 752.8,-159 752.8,-159"/>
<polygon fill="black" stroke="black" points="752.8,-155.5 742.8,-159 752.8,-162.5 752.8,-155.5"/>
</g>
<!-- ListItemsComponent -->
<g id="node4" class="node">
<title>ListItemsComponent</title>
<polygon fill="#ffffb3" stroke="black" points="925.21,-122 790.79,-122 790.79,-86 925.21,-86 925.21,-122"/>
<text text-anchor="middle" x="858" y="-99.8" font-family="Times,serif" font-size="14.00">ListItemsComponent</text>
</g>
<!-- ListItemsComponent&#45;&gt;ListModule -->
<g id="edge4" class="edge">
<title>ListItemsComponent&#45;&gt;ListModule</title>
<path fill="none" stroke="black" d="M829.23,-122.12C829.23,-136.78 829.23,-155 829.23,-155 829.23,-155 752.96,-155 752.96,-155"/>
<polygon fill="black" stroke="black" points="752.96,-151.5 742.96,-155 752.96,-158.5 752.96,-151.5"/>
</g>
<!-- PaginationComponent -->
<g id="node5" class="node">
<title>PaginationComponent</title>
<polygon fill="#ffffb3" stroke="black" points="772.72,-122 631.28,-122 631.28,-86 772.72,-86 772.72,-122"/>
<text text-anchor="middle" x="702" y="-99.8" font-family="Times,serif" font-size="14.00">PaginationComponent</text>
</g>
<!-- PaginationComponent&#45;&gt;ListModule -->
<g id="edge5" class="edge">
<title>PaginationComponent&#45;&gt;ListModule</title>
<path fill="none" stroke="black" d="M702,-122.11C702,-122.11 702,-140.99 702,-140.99"/>
<polygon fill="black" stroke="black" points="698.5,-140.99 702,-150.99 705.5,-140.99 698.5,-140.99"/>
</g>
<!-- SearchbarComponent -->
<g id="node6" class="node">
<title>SearchbarComponent</title>
<polygon fill="#ffffb3" stroke="black" points="613.79,-122 476.21,-122 476.21,-86 613.79,-86 613.79,-122"/>
<text text-anchor="middle" x="545" y="-99.8" font-family="Times,serif" font-size="14.00">SearchbarComponent</text>
</g>
<!-- SearchbarComponent&#45;&gt;ListModule -->
<g id="edge6" class="edge">
<title>SearchbarComponent&#45;&gt;ListModule</title>
<path fill="none" stroke="black" d="M566.02,-122.12C566.02,-136.78 566.02,-155 566.02,-155 566.02,-155 651.2,-155 651.2,-155"/>
<polygon fill="black" stroke="black" points="651.2,-158.5 661.2,-155 651.2,-151.5 651.2,-158.5"/>
</g>
<!-- FormModule  -->
<g id="node12" class="node">
<title>FormModule </title>
<polygon fill="#fb8072" stroke="black" points="1109.88,-252 1016.12,-252 1016.12,-216 1109.88,-216 1109.88,-252"/>
<text text-anchor="middle" x="1063" y="-229.8" font-family="Times,serif" font-size="14.00">FormModule </text>
</g>
<!-- ListModule&#45;&gt;FormModule  -->
<g id="edge11" class="edge">
<title>ListModule&#45;&gt;FormModule </title>
<path fill="none" stroke="black" stroke-dasharray="5,2" d="M742.78,-175C834.98,-175 1051.53,-175 1051.53,-175 1051.53,-175 1051.53,-205.98 1051.53,-205.98"/>
<polygon fill="black" stroke="black" points="1048.03,-205.98 1051.53,-215.98 1055.03,-205.98 1048.03,-205.98"/>
</g>
<!-- GroupPipe  -->
<g id="node13" class="node">
<title>GroupPipe </title>
<polygon fill="#fb8072" stroke="black" points="998.16,-252 917.84,-252 917.84,-216 998.16,-216 998.16,-252"/>
<text text-anchor="middle" x="958" y="-229.8" font-family="Times,serif" font-size="14.00">GroupPipe </text>
</g>
<!-- ListModule&#45;&gt;GroupPipe  -->
<g id="edge12" class="edge">
<title>ListModule&#45;&gt;GroupPipe </title>
<path fill="none" stroke="black" stroke-dasharray="5,2" d="M742.77,-179C806.26,-179 921.51,-179 921.51,-179 921.51,-179 921.51,-205.99 921.51,-205.99"/>
<polygon fill="black" stroke="black" points="918.01,-205.99 921.51,-215.99 925.01,-205.99 918.01,-205.99"/>
</g>
<!-- ListComponent  -->
<g id="node14" class="node">
<title>ListComponent </title>
<polygon fill="#fb8072" stroke="black" points="900.11,-252 793.89,-252 793.89,-216 900.11,-216 900.11,-252"/>
<text text-anchor="middle" x="847" y="-229.8" font-family="Times,serif" font-size="14.00">ListComponent </text>
</g>
<!-- ListModule&#45;&gt;ListComponent  -->
<g id="edge13" class="edge">
<title>ListModule&#45;&gt;ListComponent </title>
<path fill="none" stroke="black" stroke-dasharray="5,2" d="M743.07,-183C791.29,-183 864.77,-183 864.77,-183 864.77,-183 864.77,-205.88 864.77,-205.88"/>
<polygon fill="black" stroke="black" points="861.27,-205.88 864.77,-215.88 868.27,-205.88 861.27,-205.88"/>
</g>
<!-- ListHeaderComponent  -->
<g id="node15" class="node">
<title>ListHeaderComponent </title>
<polygon fill="#fb8072" stroke="black" points="775.52,-252 628.48,-252 628.48,-216 775.52,-216 775.52,-252"/>
<text text-anchor="middle" x="702" y="-229.8" font-family="Times,serif" font-size="14.00">ListHeaderComponent </text>
</g>
<!-- ListModule&#45;&gt;ListHeaderComponent  -->
<g id="edge14" class="edge">
<title>ListModule&#45;&gt;ListHeaderComponent </title>
<path fill="none" stroke="black" stroke-dasharray="5,2" d="M702,-187.11C702,-187.11 702,-205.99 702,-205.99"/>
<polygon fill="black" stroke="black" points="698.5,-205.99 702,-215.99 705.5,-205.99 698.5,-205.99"/>
</g>
<!-- ListItemsComponent  -->
<g id="node16" class="node">
<title>ListItemsComponent </title>
<polygon fill="#fb8072" stroke="black" points="610.71,-252 473.29,-252 473.29,-216 610.71,-216 610.71,-252"/>
<text text-anchor="middle" x="542" y="-229.8" font-family="Times,serif" font-size="14.00">ListItemsComponent </text>
</g>
<!-- ListModule&#45;&gt;ListItemsComponent  -->
<g id="edge15" class="edge">
<title>ListModule&#45;&gt;ListItemsComponent </title>
<path fill="none" stroke="black" stroke-dasharray="5,2" d="M660.97,-183C607.62,-183 521.19,-183 521.19,-183 521.19,-183 521.19,-205.88 521.19,-205.88"/>
<polygon fill="black" stroke="black" points="517.69,-205.88 521.19,-215.88 524.69,-205.88 517.69,-205.88"/>
</g>
<!-- PaginationComponent  -->
<g id="node17" class="node">
<title>PaginationComponent </title>
<polygon fill="#fb8072" stroke="black" points="455.22,-252 310.78,-252 310.78,-216 455.22,-216 455.22,-252"/>
<text text-anchor="middle" x="383" y="-229.8" font-family="Times,serif" font-size="14.00">PaginationComponent </text>
</g>
<!-- ListModule&#45;&gt;PaginationComponent  -->
<g id="edge16" class="edge">
<title>ListModule&#45;&gt;PaginationComponent </title>
<path fill="none" stroke="black" stroke-dasharray="5,2" d="M661.16,-179C576.98,-179 392.02,-179 392.02,-179 392.02,-179 392.02,-205.99 392.02,-205.99"/>
<polygon fill="black" stroke="black" points="388.52,-205.99 392.02,-215.99 395.52,-205.99 388.52,-205.99"/>
</g>
<!-- SearchbarComponent  -->
<g id="node18" class="node">
<title>SearchbarComponent </title>
<polygon fill="#fb8072" stroke="black" points="292.29,-252 151.71,-252 151.71,-216 292.29,-216 292.29,-252"/>
<text text-anchor="middle" x="222" y="-229.8" font-family="Times,serif" font-size="14.00">SearchbarComponent </text>
</g>
<!-- ListModule&#45;&gt;SearchbarComponent  -->
<g id="edge17" class="edge">
<title>ListModule&#45;&gt;SearchbarComponent </title>
<path fill="none" stroke="black" stroke-dasharray="5,2" d="M661.16,-175C554.56,-175 276.09,-175 276.09,-175 276.09,-175 276.09,-205.98 276.09,-205.98"/>
<polygon fill="black" stroke="black" points="272.59,-205.98 276.09,-215.98 279.59,-205.98 272.59,-205.98"/>
</g>
<!-- FormModule -->
<g id="node8" class="node">
<title>FormModule</title>
<polygon fill="#8dd3c7" stroke="black" points="451.88,-122 448.88,-126 427.88,-126 424.88,-122 362.12,-122 362.12,-86 451.88,-86 451.88,-122"/>
<text text-anchor="middle" x="407" y="-99.8" font-family="Times,serif" font-size="14.00">FormModule</text>
</g>
<!-- FormModule&#45;&gt;ListModule -->
<g id="edge7" class="edge">
<title>FormModule&#45;&gt;ListModule</title>
<path fill="none" stroke="black" d="M421.98,-122.01C421.98,-138.05 421.98,-159 421.98,-159 421.98,-159 651.28,-159 651.28,-159"/>
<polygon fill="black" stroke="black" points="651.28,-162.5 661.28,-159 651.28,-155.5 651.28,-162.5"/>
</g>
<!-- IconModule -->
<g id="node9" class="node">
<title>IconModule</title>
<polygon fill="#8dd3c7" stroke="black" points="344.43,-122 341.43,-126 320.43,-126 317.43,-122 259.57,-122 259.57,-86 344.43,-86 344.43,-122"/>
<text text-anchor="middle" x="302" y="-99.8" font-family="Times,serif" font-size="14.00">IconModule</text>
</g>
<!-- IconModule&#45;&gt;ListModule -->
<g id="edge8" class="edge">
<title>IconModule&#45;&gt;ListModule</title>
<path fill="none" stroke="black" d="M327.43,-122.02C327.43,-139.37 327.43,-163 327.43,-163 327.43,-163 651.2,-163 651.2,-163"/>
<polygon fill="black" stroke="black" points="651.2,-166.5 661.2,-163 651.2,-159.5 651.2,-166.5"/>
</g>
<!-- SymbolModule -->
<g id="node10" class="node">
<title>SymbolModule</title>
<polygon fill="#8dd3c7" stroke="black" points="241.61,-122 238.61,-126 217.61,-126 214.61,-122 138.39,-122 138.39,-86 241.61,-86 241.61,-122"/>
<text text-anchor="middle" x="190" y="-99.8" font-family="Times,serif" font-size="14.00">SymbolModule</text>
</g>
<!-- SymbolModule&#45;&gt;ListModule -->
<g id="edge9" class="edge">
<title>SymbolModule&#45;&gt;ListModule</title>
<path fill="none" stroke="black" d="M196.58,-122.22C196.58,-140.83 196.58,-167 196.58,-167 196.58,-167 651.07,-167 651.07,-167"/>
<polygon fill="black" stroke="black" points="651.07,-170.5 661.07,-167 651.07,-163.5 651.07,-170.5"/>
</g>
<!-- UtilityModule -->
<g id="node11" class="node">
<title>UtilityModule</title>
<polygon fill="#8dd3c7" stroke="black" points="120.11,-122 117.11,-126 96.11,-126 93.11,-122 23.89,-122 23.89,-86 120.11,-86 120.11,-122"/>
<text text-anchor="middle" x="72" y="-99.8" font-family="Times,serif" font-size="14.00">UtilityModule</text>
</g>
<!-- UtilityModule&#45;&gt;ListModule -->
<g id="edge10" class="edge">
<title>UtilityModule&#45;&gt;ListModule</title>
<path fill="none" stroke="black" d="M72,-122.31C72,-142.15 72,-171 72,-171 72,-171 651.15,-171 651.15,-171"/>
<polygon fill="black" stroke="black" points="651.15,-174.5 661.15,-171 651.15,-167.5 651.15,-174.5"/>
</g>
<!-- ListConfigService -->
<g id="node19" class="node">
<title>ListConfigService</title>
<ellipse fill="#fdb462" stroke="black" cx="1408" cy="-104" rx="81.68" ry="18"/>
<text text-anchor="middle" x="1408" y="-99.8" font-family="Times,serif" font-size="14.00">ListConfigService</text>
</g>
<!-- ListConfigService&#45;&gt;ListModule -->
<g id="edge18" class="edge">
<title>ListConfigService&#45;&gt;ListModule</title>
<path fill="none" stroke="black" d="M1408,-122.31C1408,-142.15 1408,-171 1408,-171 1408,-171 752.75,-171 752.75,-171"/>
<polygon fill="black" stroke="black" points="752.75,-167.5 742.75,-171 752.75,-174.5 752.75,-167.5"/>
</g>
</g>
</svg>
