<?xml version="1.0" encoding="UTF-8" standalone="no"?>
<!DOCTYPE svg PUBLIC "-//W3C//DTD SVG 1.1//EN"
 "http://www.w3.org/Graphics/SVG/1.1/DTD/svg11.dtd">
<!-- Generated by graphviz version 2.40.1 (20161225.0304)
 -->
<!-- Title: dependencies Pages: 1 -->
<svg width="504pt" height="284pt"
 viewBox="0.00 0.00 504.00 284.00" xmlns="http://www.w3.org/2000/svg" xmlns:xlink="http://www.w3.org/1999/xlink">
<g id="graph0" class="graph" transform="scale(1 1) rotate(0) translate(4 280)">
<title>dependencies</title>
<polygon fill="#ffffff" stroke="transparent" points="-4,4 -4,-280 500,-280 500,4 -4,4"/>
<text text-anchor="start" x="227.0091" y="-42.4" font-family="sans-serif" font-weight="bold" font-size="14.00" fill="#000000">Legend</text>
<polygon fill="#ffffb3" stroke="transparent" points="14,-10 14,-30 34,-30 34,-10 14,-10"/>
<text text-anchor="start" x="37.629" y="-15.4" font-family="sans-serif" font-size="14.00" fill="#000000"> &#160;Declarations</text>
<polygon fill="#8dd3c7" stroke="transparent" points="127,-10 127,-30 147,-30 147,-10 127,-10"/>
<text text-anchor="start" x="150.7251" y="-15.4" font-family="sans-serif" font-size="14.00" fill="#000000"> &#160;Module</text>
<polygon fill="#80b1d3" stroke="transparent" points="213,-10 213,-30 233,-30 233,-10 213,-10"/>
<text text-anchor="start" x="236.7812" y="-15.4" font-family="sans-serif" font-size="14.00" fill="#000000"> &#160;Bootstrap</text>
<polygon fill="#fdb462" stroke="transparent" points="310,-10 310,-30 330,-30 330,-10 310,-10"/>
<text text-anchor="start" x="333.6732" y="-15.4" font-family="sans-serif" font-size="14.00" fill="#000000"> &#160;Providers</text>
<polygon fill="#fb8072" stroke="transparent" points="406,-10 406,-30 426,-30 426,-10 406,-10"/>
<text text-anchor="start" x="429.7258" y="-15.4" font-family="sans-serif" font-size="14.00" fill="#000000"> &#160;Exports</text>
<g id="clust1" class="cluster">
<title>cluster_InteractionModule</title>
<polygon fill="none" stroke="#000000" stroke-dasharray="1,5" points="99,-70 99,-268 397,-268 397,-70 99,-70"/>
</g>
<g id="clust2" class="cluster">
<title>cluster_InteractionModule_declarations</title>
<polygon fill="none" stroke="#000000" points="231,-78 231,-130 389,-130 389,-78 231,-78"/>
</g>
<g id="clust4" class="cluster">
<title>cluster_InteractionModule_imports</title>
<polygon fill="none" stroke="#000000" points="107,-78 107,-130 223,-130 223,-78 107,-78"/>
</g>
<g id="clust5" class="cluster">
<title>cluster_InteractionModule_exports</title>
<polygon fill="none" stroke="#000000" points="167,-208 167,-260 329,-260 329,-208 167,-208"/>
</g>
<!-- InteractionComponent -->
<g id="node1" class="node">
<title>InteractionComponent</title>
<polygon fill="#ffffb3" stroke="#000000" points="380.9692,-122 239.0308,-122 239.0308,-86 380.9692,-86 380.9692,-122"/>
<text text-anchor="middle" x="310" y="-99.8" font-family="Times,serif" font-size="14.00" fill="#000000">InteractionComponent</text>
</g>
<!-- InteractionModule -->
<g id="node2" class="node">
<title>InteractionModule</title>
<polygon fill="#8dd3c7" stroke="#000000" points="308.1867,-187 305.1867,-191 284.1867,-191 281.1867,-187 187.8133,-187 187.8133,-151 308.1867,-151 308.1867,-187"/>
<text text-anchor="middle" x="248" y="-164.8" font-family="Times,serif" font-size="14.00" fill="#000000">InteractionModule</text>
</g>
<!-- InteractionComponent&#45;&gt;InteractionModule -->
<g id="edge1" class="edge">
<title>InteractionComponent&#45;&gt;InteractionModule</title>
<path fill="none" stroke="#000000" d="M273.5544,-122.1061C273.5544,-122.1061 273.5544,-140.991 273.5544,-140.991"/>
<polygon fill="#000000" stroke="#000000" points="270.0544,-140.9909 273.5544,-150.991 277.0544,-140.991 270.0544,-140.9909"/>
</g>
<!-- InteractionComponent  -->
<g id="node4" class="node">
<title>InteractionComponent </title>
<polygon fill="#fb8072" stroke="#000000" points="320.97,-252 175.03,-252 175.03,-216 320.97,-216 320.97,-252"/>
<text text-anchor="middle" x="248" y="-229.8" font-family="Times,serif" font-size="14.00" fill="#000000">InteractionComponent </text>
</g>
<!-- InteractionModule&#45;&gt;InteractionComponent  -->
<g id="edge3" class="edge">
<title>InteractionModule&#45;&gt;InteractionComponent </title>
<path fill="none" stroke="#000000" stroke-dasharray="5,2" d="M248,-187.1061C248,-187.1061 248,-205.991 248,-205.991"/>
<polygon fill="#000000" stroke="#000000" points="244.5001,-205.9909 248,-215.991 251.5001,-205.991 244.5001,-205.9909"/>
</g>
<!-- LoaderModule -->
<g id="node3" class="node">
<title>LoaderModule</title>
<polygon fill="#8dd3c7" stroke="#000000" points="214.6924,-122 211.6924,-126 190.6924,-126 187.6924,-122 115.3076,-122 115.3076,-86 214.6924,-86 214.6924,-122"/>
<text text-anchor="middle" x="165" y="-99.8" font-family="Times,serif" font-size="14.00" fill="#000000">LoaderModule</text>
</g>
<!-- LoaderModule&#45;&gt;InteractionModule -->
<g id="edge2" class="edge">
<title>LoaderModule&#45;&gt;InteractionModule</title>
<path fill="none" stroke="#000000" d="M201.2514,-122.1061C201.2514,-122.1061 201.2514,-140.991 201.2514,-140.991"/>
<polygon fill="#000000" stroke="#000000" points="197.7515,-140.9909 201.2514,-150.991 204.7515,-140.991 197.7515,-140.9909"/>
</g>
</g>
</svg>
