<?xml version="1.0" encoding="UTF-8" standalone="no"?>
<!DOCTYPE svg PUBLIC "-//W3C//DTD SVG 1.1//EN"
 "http://www.w3.org/Graphics/SVG/1.1/DTD/svg11.dtd">
<!-- Generated by graphviz version 2.40.1 (20161225.0304)
 -->
<!-- Title: dependencies Pages: 1 -->
<svg width="1092pt" height="284pt"
 viewBox="0.00 0.00 1092.00 284.00" xmlns="http://www.w3.org/2000/svg" xmlns:xlink="http://www.w3.org/1999/xlink">
<g id="graph0" class="graph" transform="scale(1 1) rotate(0) translate(4 280)">
<title>dependencies</title>
<polygon fill="#ffffff" stroke="transparent" points="-4,4 -4,-280 1088,-280 1088,4 -4,4"/>
<text text-anchor="start" x="521.0091" y="-42.4" font-family="sans-serif" font-weight="bold" font-size="14.00" fill="#000000">Legend</text>
<polygon fill="#ffffb3" stroke="transparent" points="308,-10 308,-30 328,-30 328,-10 308,-10"/>
<text text-anchor="start" x="331.629" y="-15.4" font-family="sans-serif" font-size="14.00" fill="#000000"> &#160;Declarations</text>
<polygon fill="#8dd3c7" stroke="transparent" points="421,-10 421,-30 441,-30 441,-10 421,-10"/>
<text text-anchor="start" x="444.7251" y="-15.4" font-family="sans-serif" font-size="14.00" fill="#000000"> &#160;Module</text>
<polygon fill="#80b1d3" stroke="transparent" points="507,-10 507,-30 527,-30 527,-10 507,-10"/>
<text text-anchor="start" x="530.7812" y="-15.4" font-family="sans-serif" font-size="14.00" fill="#000000"> &#160;Bootstrap</text>
<polygon fill="#fdb462" stroke="transparent" points="604,-10 604,-30 624,-30 624,-10 604,-10"/>
<text text-anchor="start" x="627.6732" y="-15.4" font-family="sans-serif" font-size="14.00" fill="#000000"> &#160;Providers</text>
<polygon fill="#fb8072" stroke="transparent" points="700,-10 700,-30 720,-30 720,-10 700,-10"/>
<text text-anchor="start" x="723.7258" y="-15.4" font-family="sans-serif" font-size="14.00" fill="#000000"> &#160;Exports</text>
<g id="clust1" class="cluster">
<title>cluster_UiModule</title>
<polygon fill="none" stroke="#000000" stroke-dasharray="1,5" points="8,-70 8,-268 1076,-268 1076,-70 8,-70"/>
</g>
<g id="clust3" class="cluster">
<title>cluster_UiModule_imports</title>
<polygon fill="none" stroke="#000000" points="34,-78 34,-130 1057,-130 1057,-78 34,-78"/>
</g>
<g id="clust4" class="cluster">
<title>cluster_UiModule_exports</title>
<polygon fill="none" stroke="#000000" points="16,-208 16,-260 1068,-260 1068,-208 16,-208"/>
</g>
<!-- UtilityModule -->
<g id="node1" class="node">
<title>UtilityModule</title>
<polygon fill="#8dd3c7" stroke="#000000" points="1049.1095,-122 1046.1095,-126 1025.1095,-126 1022.1095,-122 952.8905,-122 952.8905,-86 1049.1095,-86 1049.1095,-122"/>
<text text-anchor="middle" x="1001" y="-99.8" font-family="Times,serif" font-size="14.00" fill="#000000">UtilityModule</text>
</g>
<!-- UiModule -->
<g id="node10" class="node">
<title>UiModule</title>
<polygon fill="#8dd3c7" stroke="#000000" points="559.5484,-187 556.5484,-191 535.5484,-191 532.5484,-187 486.4516,-187 486.4516,-151 559.5484,-151 559.5484,-187"/>
<text text-anchor="middle" x="523" y="-164.8" font-family="Times,serif" font-size="14.00" fill="#000000">UiModule</text>
</g>
<!-- UtilityModule&#45;&gt;UiModule -->
<g id="edge1" class="edge">
<title>UtilityModule&#45;&gt;UiModule</title>
<path fill="none" stroke="#000000" d="M956.5703,-122.2222C956.5703,-140.8285 956.5703,-167 956.5703,-167 956.5703,-167 569.5923,-167 569.5923,-167"/>
<polygon fill="#000000" stroke="#000000" points="569.5923,-163.5001 559.5923,-167 569.5923,-170.5001 569.5923,-163.5001"/>
</g>
<!-- NotificationsModule -->
<g id="node2" class="node">
<title>NotificationsModule</title>
<polygon fill="#8dd3c7" stroke="#000000" points="935.1443,-122 932.1443,-126 911.1443,-126 908.1443,-122 802.8557,-122 802.8557,-86 935.1443,-86 935.1443,-122"/>
<text text-anchor="middle" x="869" y="-99.8" font-family="Times,serif" font-size="14.00" fill="#000000">NotificationsModule</text>
</g>
<!-- NotificationsModule&#45;&gt;UiModule -->
<g id="edge2" class="edge">
<title>NotificationsModule&#45;&gt;UiModule</title>
<path fill="none" stroke="#000000" d="M821.375,-122.0225C821.375,-139.3734 821.375,-163 821.375,-163 821.375,-163 569.5866,-163 569.5866,-163"/>
<polygon fill="#000000" stroke="#000000" points="569.5867,-159.5001 559.5866,-163 569.5866,-166.5001 569.5867,-159.5001"/>
</g>
<!-- PopModule -->
<g id="node3" class="node">
<title>PopModule</title>
<polygon fill="#8dd3c7" stroke="#000000" points="784.8331,-122 781.8331,-126 760.8331,-126 757.8331,-122 703.1669,-122 703.1669,-86 784.8331,-86 784.8331,-122"/>
<text text-anchor="middle" x="744" y="-99.8" font-family="Times,serif" font-size="14.00" fill="#000000">PopModule</text>
</g>
<!-- PopModule&#45;&gt;UiModule -->
<g id="edge3" class="edge">
<title>PopModule&#45;&gt;UiModule</title>
<path fill="none" stroke="#000000" d="M757.7535,-122.0091C757.7535,-138.0494 757.7535,-159 757.7535,-159 757.7535,-159 569.6802,-159 569.6802,-159"/>
<polygon fill="#000000" stroke="#000000" points="569.6803,-155.5001 559.6802,-159 569.6802,-162.5001 569.6803,-155.5001"/>
</g>
<!-- LoaderModule -->
<g id="node4" class="node">
<title>LoaderModule</title>
<polygon fill="#8dd3c7" stroke="#000000" points="685.6924,-122 682.6924,-126 661.6924,-126 658.6924,-122 586.3076,-122 586.3076,-86 685.6924,-86 685.6924,-122"/>
<text text-anchor="middle" x="636" y="-99.8" font-family="Times,serif" font-size="14.00" fill="#000000">LoaderModule</text>
</g>
<!-- LoaderModule&#45;&gt;UiModule -->
<g id="edge4" class="edge">
<title>LoaderModule&#45;&gt;UiModule</title>
<path fill="none" stroke="#000000" d="M619.468,-122.1243C619.468,-136.7832 619.468,-155 619.468,-155 619.468,-155 569.7456,-155 569.7456,-155"/>
<polygon fill="#000000" stroke="#000000" points="569.7456,-151.5001 559.7456,-155 569.7456,-158.5001 569.7456,-151.5001"/>
</g>
<!-- FormModule -->
<g id="node5" class="node">
<title>FormModule</title>
<polygon fill="#8dd3c7" stroke="#000000" points="567.8837,-122 564.8837,-126 543.8837,-126 540.8837,-122 478.1163,-122 478.1163,-86 567.8837,-86 567.8837,-122"/>
<text text-anchor="middle" x="523" y="-99.8" font-family="Times,serif" font-size="14.00" fill="#000000">FormModule</text>
</g>
<!-- FormModule&#45;&gt;UiModule -->
<g id="edge5" class="edge">
<title>FormModule&#45;&gt;UiModule</title>
<path fill="none" stroke="#000000" d="M523,-122.1061C523,-122.1061 523,-140.991 523,-140.991"/>
<polygon fill="#000000" stroke="#000000" points="519.5001,-140.9909 523,-150.991 526.5001,-140.991 519.5001,-140.9909"/>
</g>
<!-- ListModule -->
<g id="node6" class="node">
<title>ListModule</title>
<polygon fill="#8dd3c7" stroke="#000000" points="459.8289,-122 456.8289,-126 435.8289,-126 432.8289,-122 378.1711,-122 378.1711,-86 459.8289,-86 459.8289,-122"/>
<text text-anchor="middle" x="419" y="-99.8" font-family="Times,serif" font-size="14.00" fill="#000000">ListModule</text>
</g>
<!-- ListModule&#45;&gt;UiModule -->
<g id="edge6" class="edge">
<title>ListModule&#45;&gt;UiModule</title>
<path fill="none" stroke="#000000" d="M432.5547,-122.1243C432.5547,-136.7832 432.5547,-155 432.5547,-155 432.5547,-155 476.2124,-155 476.2124,-155"/>
<polygon fill="#000000" stroke="#000000" points="476.2125,-158.5001 486.2124,-155 476.2124,-151.5001 476.2125,-158.5001"/>
</g>
<!-- SelectModule -->
<g id="node7" class="node">
<title>SelectModule</title>
<polygon fill="#8dd3c7" stroke="#000000" points="359.7577,-122 356.7577,-126 335.7577,-126 332.7577,-122 266.2423,-122 266.2423,-86 359.7577,-86 359.7577,-122"/>
<text text-anchor="middle" x="313" y="-99.8" font-family="Times,serif" font-size="14.00" fill="#000000">SelectModule</text>
</g>
<!-- SelectModule&#45;&gt;UiModule -->
<g id="edge7" class="edge">
<title>SelectModule&#45;&gt;UiModule</title>
<path fill="none" stroke="#000000" d="M355.7537,-122.0091C355.7537,-138.0494 355.7537,-159 355.7537,-159 355.7537,-159 476.2971,-159 476.2971,-159"/>
<polygon fill="#000000" stroke="#000000" points="476.2971,-162.5001 486.2971,-159 476.2971,-155.5001 476.2971,-162.5001"/>
</g>
<!-- IconModule -->
<g id="node8" class="node">
<title>IconModule</title>
<polygon fill="#8dd3c7" stroke="#000000" points="248.4261,-122 245.4261,-126 224.4261,-126 221.4261,-122 163.5739,-122 163.5739,-86 248.4261,-86 248.4261,-122"/>
<text text-anchor="middle" x="206" y="-99.8" font-family="Times,serif" font-size="14.00" fill="#000000">IconModule</text>
</g>
<!-- IconModule&#45;&gt;UiModule -->
<g id="edge8" class="edge">
<title>IconModule&#45;&gt;UiModule</title>
<path fill="none" stroke="#000000" d="M242.0875,-122.0225C242.0875,-139.3734 242.0875,-163 242.0875,-163 242.0875,-163 476.2756,-163 476.2756,-163"/>
<polygon fill="#000000" stroke="#000000" points="476.2756,-166.5001 486.2756,-163 476.2756,-159.5001 476.2756,-166.5001"/>
</g>
<!-- SymbolModule -->
<g id="node9" class="node">
<title>SymbolModule</title>
<polygon fill="#8dd3c7" stroke="#000000" points="145.6137,-122 142.6137,-126 121.6137,-126 118.6137,-122 42.3863,-122 42.3863,-86 145.6137,-86 145.6137,-122"/>
<text text-anchor="middle" x="94" y="-99.8" font-family="Times,serif" font-size="14.00" fill="#000000">SymbolModule</text>
</g>
<!-- SymbolModule&#45;&gt;UiModule -->
<g id="edge9" class="edge">
<title>SymbolModule&#45;&gt;UiModule</title>
<path fill="none" stroke="#000000" d="M137.9318,-122.2222C137.9318,-140.8285 137.9318,-167 137.9318,-167 137.9318,-167 476.4266,-167 476.4266,-167"/>
<polygon fill="#000000" stroke="#000000" points="476.4266,-170.5001 486.4266,-167 476.4265,-163.5001 476.4266,-170.5001"/>
</g>
<!-- UtilityModule  -->
<g id="node11" class="node">
<title>UtilityModule </title>
<polygon fill="#fb8072" stroke="#000000" points="1059.6102,-252 960.3898,-252 960.3898,-216 1059.6102,-216 1059.6102,-252"/>
<text text-anchor="middle" x="1010" y="-229.8" font-family="Times,serif" font-size="14.00" fill="#000000">UtilityModule </text>
</g>
<!-- UiModule&#45;&gt;UtilityModule  -->
<g id="edge10" class="edge">
<title>UiModule&#45;&gt;UtilityModule </title>
<path fill="none" stroke="#000000" stroke-dasharray="5,2" d="M559.5955,-171C671.9898,-171 1004.625,-171 1004.625,-171 1004.625,-171 1004.625,-205.7778 1004.625,-205.7778"/>
<polygon fill="#000000" stroke="#000000" points="1001.1251,-205.7778 1004.625,-215.7778 1008.1251,-205.7778 1001.1251,-205.7778"/>
</g>
<!-- PopModule  -->
<g id="node12" class="node">
<title>PopModule </title>
<polygon fill="#fb8072" stroke="#000000" points="942.3326,-252 857.6674,-252 857.6674,-216 942.3326,-216 942.3326,-252"/>
<text text-anchor="middle" x="900" y="-229.8" font-family="Times,serif" font-size="14.00" fill="#000000">PopModule </text>
</g>
<!-- UiModule&#45;&gt;PopModule  -->
<g id="edge11" class="edge">
<title>UiModule&#45;&gt;PopModule </title>
<path fill="none" stroke="#000000" stroke-dasharray="5,2" d="M559.8301,-175C654.0466,-175 896.4529,-175 896.4529,-175 896.4529,-175 896.4529,-205.9775 896.4529,-205.9775"/>
<polygon fill="#000000" stroke="#000000" points="892.9529,-205.9774 896.4529,-215.9775 899.9529,-205.9775 892.9529,-205.9774"/>
</g>
<!-- NotificationsModule  -->
<g id="node13" class="node">
<title>NotificationsModule </title>
<polygon fill="#fb8072" stroke="#000000" points="840.1439,-252 703.8561,-252 703.8561,-216 840.1439,-216 840.1439,-252"/>
<text text-anchor="middle" x="772" y="-229.8" font-family="Times,serif" font-size="14.00" fill="#000000">NotificationsModule </text>
</g>
<!-- UiModule&#45;&gt;NotificationsModule  -->
<g id="edge12" class="edge">
<title>UiModule&#45;&gt;NotificationsModule </title>
<path fill="none" stroke="#000000" stroke-dasharray="5,2" d="M559.6793,-179C619.3463,-179 730.8408,-179 730.8408,-179 730.8408,-179 730.8408,-205.9909 730.8408,-205.9909"/>
<polygon fill="#000000" stroke="#000000" points="727.3409,-205.9909 730.8408,-215.9909 734.3409,-205.991 727.3409,-205.9909"/>
</g>
<!-- LoaderModule  -->
<g id="node14" class="node">
<title>LoaderModule </title>
<polygon fill="#fb8072" stroke="#000000" points="686.1927,-252 583.8073,-252 583.8073,-216 686.1927,-216 686.1927,-252"/>
<text text-anchor="middle" x="635" y="-229.8" font-family="Times,serif" font-size="14.00" fill="#000000">LoaderModule </text>
</g>
<!-- UiModule&#45;&gt;LoaderModule  -->
<g id="edge13" class="edge">
<title>UiModule&#45;&gt;LoaderModule </title>
<path fill="none" stroke="#000000" stroke-dasharray="5,2" d="M559.7722,-183C598.0675,-183 652.532,-183 652.532,-183 652.532,-183 652.532,-205.8757 652.532,-205.8757"/>
<polygon fill="#000000" stroke="#000000" points="649.0321,-205.8757 652.532,-215.8757 656.0321,-205.8757 649.0321,-205.8757"/>
</g>
<!-- ListModule  -->
<g id="node15" class="node">
<title>ListModule </title>
<polygon fill="#fb8072" stroke="#000000" points="565.3284,-252 480.6716,-252 480.6716,-216 565.3284,-216 565.3284,-252"/>
<text text-anchor="middle" x="523" y="-229.8" font-family="Times,serif" font-size="14.00" fill="#000000">ListModule </text>
</g>
<!-- UiModule&#45;&gt;ListModule  -->
<g id="edge14" class="edge">
<title>UiModule&#45;&gt;ListModule </title>
<path fill="none" stroke="#000000" stroke-dasharray="5,2" d="M523,-187.1061C523,-187.1061 523,-205.991 523,-205.991"/>
<polygon fill="#000000" stroke="#000000" points="519.5001,-205.9909 523,-215.991 526.5001,-205.991 519.5001,-205.9909"/>
</g>
<!-- FormModule  -->
<g id="node16" class="node">
<title>FormModule </title>
<polygon fill="#fb8072" stroke="#000000" points="462.8844,-252 369.1156,-252 369.1156,-216 462.8844,-216 462.8844,-252"/>
<text text-anchor="middle" x="416" y="-229.8" font-family="Times,serif" font-size="14.00" fill="#000000">FormModule </text>
</g>
<!-- UiModule&#45;&gt;FormModule  -->
<g id="edge15" class="edge">
<title>UiModule&#45;&gt;FormModule </title>
<path fill="none" stroke="#000000" stroke-dasharray="5,2" d="M486.4493,-183C451.9409,-183 405.4453,-183 405.4453,-183 405.4453,-183 405.4453,-205.8757 405.4453,-205.8757"/>
<polygon fill="#000000" stroke="#000000" points="401.9454,-205.8757 405.4453,-215.8757 408.9454,-205.8757 401.9454,-205.8757"/>
</g>
<!-- SelectModule  -->
<g id="node17" class="node">
<title>SelectModule </title>
<polygon fill="#fb8072" stroke="#000000" points="351.7577,-252 254.2423,-252 254.2423,-216 351.7577,-216 351.7577,-252"/>
<text text-anchor="middle" x="303" y="-229.8" font-family="Times,serif" font-size="14.00" fill="#000000">SelectModule </text>
</g>
<!-- UiModule&#45;&gt;SelectModule  -->
<g id="edge16" class="edge">
<title>UiModule&#45;&gt;SelectModule </title>
<path fill="none" stroke="#000000" stroke-dasharray="5,2" d="M486.1906,-179C424.9691,-179 308.875,-179 308.875,-179 308.875,-179 308.875,-205.9909 308.875,-205.9909"/>
<polygon fill="#000000" stroke="#000000" points="305.3751,-205.9909 308.875,-215.9909 312.3751,-205.991 305.3751,-205.9909"/>
</g>
<!-- IconModule  -->
<g id="node18" class="node">
<title>IconModule </title>
<polygon fill="#fb8072" stroke="#000000" points="235.925,-252 148.075,-252 148.075,-216 235.925,-216 235.925,-252"/>
<text text-anchor="middle" x="192" y="-229.8" font-family="Times,serif" font-size="14.00" fill="#000000">IconModule </text>
</g>
<!-- UiModule&#45;&gt;IconModule  -->
<g id="edge17" class="edge">
<title>UiModule&#45;&gt;IconModule </title>
<path fill="none" stroke="#000000" stroke-dasharray="5,2" d="M486.248,-175C401.5573,-175 199.875,-175 199.875,-175 199.875,-175 199.875,-205.9775 199.875,-205.9775"/>
<polygon fill="#000000" stroke="#000000" points="196.3751,-205.9774 199.875,-215.9775 203.3751,-205.9775 196.3751,-205.9774"/>
</g>
<!-- SymbolModule  -->
<g id="node19" class="node">
<title>SymbolModule </title>
<polygon fill="#fb8072" stroke="#000000" points="130.1143,-252 23.8857,-252 23.8857,-216 130.1143,-216 130.1143,-252"/>
<text text-anchor="middle" x="77" y="-229.8" font-family="Times,serif" font-size="14.00" fill="#000000">SymbolModule </text>
</g>
<!-- UiModule&#45;&gt;SymbolModule  -->
<g id="edge18" class="edge">
<title>UiModule&#45;&gt;SymbolModule </title>
<path fill="none" stroke="#000000" stroke-dasharray="5,2" d="M486.1499,-171C380.8854,-171 86.375,-171 86.375,-171 86.375,-171 86.375,-205.7778 86.375,-205.7778"/>
<polygon fill="#000000" stroke="#000000" points="82.8751,-205.7778 86.375,-215.7778 89.8751,-205.7778 82.8751,-205.7778"/>
</g>
</g>
</svg>
