<?xml version="1.0" encoding="UTF-8" standalone="no"?>
<!DOCTYPE svg PUBLIC "-//W3C//DTD SVG 1.1//EN"
 "http://www.w3.org/Graphics/SVG/1.1/DTD/svg11.dtd">
<!-- Generated by graphviz version 2.40.1 (20161225.0304)
 -->
<!-- Title: dependencies Pages: 1 -->
<svg width="1305pt" height="284pt"
 viewBox="0.00 0.00 1305.00 284.00" xmlns="http://www.w3.org/2000/svg" xmlns:xlink="http://www.w3.org/1999/xlink">
<g id="graph0" class="graph" transform="scale(1 1) rotate(0) translate(4 280)">
<title>dependencies</title>
<polygon fill="#ffffff" stroke="transparent" points="-4,4 -4,-280 1301,-280 1301,4 -4,4"/>
<text text-anchor="start" x="627.5091" y="-42.4" font-family="sans-serif" font-weight="bold" font-size="14.00" fill="#000000">Legend</text>
<polygon fill="#ffffb3" stroke="transparent" points="414.5,-10 414.5,-30 434.5,-30 434.5,-10 414.5,-10"/>
<text text-anchor="start" x="438.129" y="-15.4" font-family="sans-serif" font-size="14.00" fill="#000000"> &#160;Declarations</text>
<polygon fill="#8dd3c7" stroke="transparent" points="527.5,-10 527.5,-30 547.5,-30 547.5,-10 527.5,-10"/>
<text text-anchor="start" x="551.2251" y="-15.4" font-family="sans-serif" font-size="14.00" fill="#000000"> &#160;Module</text>
<polygon fill="#80b1d3" stroke="transparent" points="613.5,-10 613.5,-30 633.5,-30 633.5,-10 613.5,-10"/>
<text text-anchor="start" x="637.2812" y="-15.4" font-family="sans-serif" font-size="14.00" fill="#000000"> &#160;Bootstrap</text>
<polygon fill="#fdb462" stroke="transparent" points="710.5,-10 710.5,-30 730.5,-30 730.5,-10 710.5,-10"/>
<text text-anchor="start" x="734.1732" y="-15.4" font-family="sans-serif" font-size="14.00" fill="#000000"> &#160;Providers</text>
<polygon fill="#fb8072" stroke="transparent" points="806.5,-10 806.5,-30 826.5,-30 826.5,-10 806.5,-10"/>
<text text-anchor="start" x="830.2258" y="-15.4" font-family="sans-serif" font-size="14.00" fill="#000000"> &#160;Exports</text>
<g id="clust1" class="cluster">
<title>cluster_UiModule</title>
<polygon fill="none" stroke="#000000" stroke-dasharray="1,5" points="8,-70 8,-268 1289,-268 1289,-70 8,-70"/>
</g>
<g id="clust2" class="cluster">
<title>cluster_UiModule_declarations</title>
<polygon fill="none" stroke="#000000" points="611,-78 611,-130 1267,-130 1267,-78 611,-78"/>
</g>
<g id="clust8" class="cluster">
<title>cluster_UiModule_imports</title>
<polygon fill="none" stroke="#000000" points="30,-78 30,-130 603,-130 603,-78 30,-78"/>
</g>
<g id="clust9" class="cluster">
<title>cluster_UiModule_exports</title>
<polygon fill="none" stroke="#000000" points="16,-208 16,-260 1281,-260 1281,-208 16,-208"/>
</g>
<!-- TabsComponent -->
<g id="node1" class="node">
<title>TabsComponent</title>
<polygon fill="#ffffb3" stroke="#000000" points="1259.0452,-122 1150.9548,-122 1150.9548,-86 1259.0452,-86 1259.0452,-122"/>
<text text-anchor="middle" x="1205" y="-99.8" font-family="Times,serif" font-size="14.00" fill="#000000">TabsComponent</text>
</g>
<!-- UiModule -->
<g id="node6" class="node">
<title>UiModule</title>
<polygon fill="#8dd3c7" stroke="#000000" points="651.5484,-187 648.5484,-191 627.5484,-191 624.5484,-187 578.4516,-187 578.4516,-151 651.5484,-151 651.5484,-187"/>
<text text-anchor="middle" x="615" y="-164.8" font-family="Times,serif" font-size="14.00" fill="#000000">UiModule</text>
</g>
<!-- TabsComponent&#45;&gt;UiModule -->
<g id="edge1" class="edge">
<title>TabsComponent&#45;&gt;UiModule</title>
<path fill="none" stroke="#000000" d="M1155.8529,-122.2222C1155.8529,-140.8285 1155.8529,-167 1155.8529,-167 1155.8529,-167 661.7498,-167 661.7498,-167"/>
<polygon fill="#000000" stroke="#000000" points="661.7498,-163.5001 651.7498,-167 661.7498,-170.5001 661.7498,-163.5001"/>
</g>
<!-- TabComponent -->
<g id="node2" class="node">
<title>TabComponent</title>
<polygon fill="#ffffb3" stroke="#000000" points="1132.5996,-122 1029.4004,-122 1029.4004,-86 1132.5996,-86 1132.5996,-122"/>
<text text-anchor="middle" x="1081" y="-99.8" font-family="Times,serif" font-size="14.00" fill="#000000">TabComponent</text>
</g>
<!-- TabComponent&#45;&gt;UiModule -->
<g id="edge2" class="edge">
<title>TabComponent&#45;&gt;UiModule</title>
<path fill="none" stroke="#000000" d="M1033.0752,-122.0225C1033.0752,-139.3734 1033.0752,-163 1033.0752,-163 1033.0752,-163 661.735,-163 661.735,-163"/>
<polygon fill="#000000" stroke="#000000" points="661.735,-159.5001 651.735,-163 661.7349,-166.5001 661.735,-159.5001"/>
</g>
<!-- MockupComponent -->
<g id="node3" class="node">
<title>MockupComponent</title>
<polygon fill="#ffffb3" stroke="#000000" points="1010.9916,-122 883.0084,-122 883.0084,-86 1010.9916,-86 1010.9916,-122"/>
<text text-anchor="middle" x="947" y="-99.8" font-family="Times,serif" font-size="14.00" fill="#000000">MockupComponent</text>
</g>
<!-- MockupComponent&#45;&gt;UiModule -->
<g id="edge3" class="edge">
<title>MockupComponent&#45;&gt;UiModule</title>
<path fill="none" stroke="#000000" d="M969.7486,-122.0091C969.7486,-138.0494 969.7486,-159 969.7486,-159 969.7486,-159 661.6282,-159 661.6282,-159"/>
<polygon fill="#000000" stroke="#000000" points="661.6282,-155.5001 651.6282,-159 661.6281,-162.5001 661.6282,-155.5001"/>
</g>
<!-- MenuComponent -->
<g id="node4" class="node">
<title>MenuComponent</title>
<polygon fill="#ffffb3" stroke="#000000" points="864.9916,-122 751.0084,-122 751.0084,-86 864.9916,-86 864.9916,-122"/>
<text text-anchor="middle" x="808" y="-99.8" font-family="Times,serif" font-size="14.00" fill="#000000">MenuComponent</text>
</g>
<!-- MenuComponent&#45;&gt;UiModule -->
<g id="edge4" class="edge">
<title>MenuComponent&#45;&gt;UiModule</title>
<path fill="none" stroke="#000000" d="M827.4153,-122.1243C827.4153,-136.7832 827.4153,-155 827.4153,-155 827.4153,-155 661.9999,-155 661.9999,-155"/>
<polygon fill="#000000" stroke="#000000" points="662,-151.5001 651.9999,-155 661.9999,-158.5001 662,-151.5001"/>
</g>
<!-- LoginComponent -->
<g id="node5" class="node">
<title>LoginComponent</title>
<polygon fill="#ffffb3" stroke="#000000" points="733.2758,-122 618.7242,-122 618.7242,-86 733.2758,-86 733.2758,-122"/>
<text text-anchor="middle" x="676" y="-99.8" font-family="Times,serif" font-size="14.00" fill="#000000">LoginComponent</text>
</g>
<!-- LoginComponent&#45;&gt;UiModule -->
<g id="edge5" class="edge">
<title>LoginComponent&#45;&gt;UiModule</title>
<path fill="none" stroke="#000000" d="M635.1929,-122.1061C635.1929,-122.1061 635.1929,-140.991 635.1929,-140.991"/>
<polygon fill="#000000" stroke="#000000" points="631.6929,-140.9909 635.1929,-150.991 638.6929,-140.991 631.6929,-140.9909"/>
</g>
<!-- TabsComponent  -->
<g id="node12" class="node">
<title>TabsComponent </title>
<polygon fill="#fb8072" stroke="#000000" points="1273.0442,-252 1160.9558,-252 1160.9558,-216 1273.0442,-216 1273.0442,-252"/>
<text text-anchor="middle" x="1217" y="-229.8" font-family="Times,serif" font-size="14.00" fill="#000000">TabsComponent </text>
</g>
<!-- UiModule&#45;&gt;TabsComponent  -->
<g id="edge11" class="edge">
<title>UiModule&#45;&gt;TabsComponent </title>
<path fill="none" stroke="#000000" stroke-dasharray="5,2" d="M651.7786,-171C781.5293,-171 1210.125,-171 1210.125,-171 1210.125,-171 1210.125,-205.7778 1210.125,-205.7778"/>
<polygon fill="#000000" stroke="#000000" points="1206.6251,-205.7778 1210.125,-215.7778 1213.6251,-205.7778 1206.6251,-205.7778"/>
</g>
<!-- TabComponent  -->
<g id="node13" class="node">
<title>TabComponent </title>
<polygon fill="#fb8072" stroke="#000000" points="1143.1003,-252 1036.8997,-252 1036.8997,-216 1143.1003,-216 1143.1003,-252"/>
<text text-anchor="middle" x="1090" y="-229.8" font-family="Times,serif" font-size="14.00" fill="#000000">TabComponent </text>
</g>
<!-- UiModule&#45;&gt;TabComponent  -->
<g id="edge12" class="edge">
<title>UiModule&#45;&gt;TabComponent </title>
<path fill="none" stroke="#000000" stroke-dasharray="5,2" d="M651.8507,-175C762.5604,-175 1084.625,-175 1084.625,-175 1084.625,-175 1084.625,-205.9775 1084.625,-205.9775"/>
<polygon fill="#000000" stroke="#000000" points="1081.1251,-205.9774 1084.625,-215.9775 1088.1251,-205.9775 1081.1251,-205.9774"/>
</g>
<!-- MockupComponent  -->
<g id="node14" class="node">
<title>MockupComponent </title>
<polygon fill="#fb8072" stroke="#000000" points="1018.9925,-252 887.0075,-252 887.0075,-216 1018.9925,-216 1018.9925,-252"/>
<text text-anchor="middle" x="953" y="-229.8" font-family="Times,serif" font-size="14.00" fill="#000000">MockupComponent </text>
</g>
<!-- UiModule&#45;&gt;MockupComponent  -->
<g id="edge13" class="edge">
<title>UiModule&#45;&gt;MockupComponent </title>
<path fill="none" stroke="#000000" stroke-dasharray="5,2" d="M651.5762,-179C734.2744,-179 928.5014,-179 928.5014,-179 928.5014,-179 928.5014,-205.9909 928.5014,-205.9909"/>
<polygon fill="#000000" stroke="#000000" points="925.0015,-205.9909 928.5014,-215.9909 932.0015,-205.991 925.0015,-205.9909"/>
</g>
<!-- MenuComponent  -->
<g id="node15" class="node">
<title>MenuComponent </title>
<polygon fill="#fb8072" stroke="#000000" points="869.9926,-252 752.0074,-252 752.0074,-216 869.9926,-216 869.9926,-252"/>
<text text-anchor="middle" x="811" y="-229.8" font-family="Times,serif" font-size="14.00" fill="#000000">MenuComponent </text>
</g>
<!-- UiModule&#45;&gt;MenuComponent  -->
<g id="edge14" class="edge">
<title>UiModule&#45;&gt;MenuComponent </title>
<path fill="none" stroke="#000000" stroke-dasharray="5,2" d="M651.6511,-183C702.9182,-183 789.8347,-183 789.8347,-183 789.8347,-183 789.8347,-205.8757 789.8347,-205.8757"/>
<polygon fill="#000000" stroke="#000000" points="786.3348,-205.8757 789.8347,-215.8757 793.3348,-205.8757 786.3348,-205.8757"/>
</g>
<!-- LoginComponent  -->
<g id="node16" class="node">
<title>LoginComponent </title>
<polygon fill="#fb8072" stroke="#000000" points="734.2759,-252 615.7241,-252 615.7241,-216 734.2759,-216 734.2759,-252"/>
<text text-anchor="middle" x="675" y="-229.8" font-family="Times,serif" font-size="14.00" fill="#000000">LoginComponent </text>
</g>
<!-- UiModule&#45;&gt;LoginComponent  -->
<g id="edge15" class="edge">
<title>UiModule&#45;&gt;LoginComponent </title>
<path fill="none" stroke="#000000" stroke-dasharray="5,2" d="M633.8179,-187.1061C633.8179,-187.1061 633.8179,-205.991 633.8179,-205.991"/>
<polygon fill="#000000" stroke="#000000" points="630.3179,-205.9909 633.8179,-215.991 637.3179,-205.991 630.3179,-205.9909"/>
</g>
<!-- PopModule  -->
<g id="node17" class="node">
<title>PopModule </title>
<polygon fill="#fb8072" stroke="#000000" points="597.3326,-252 512.6674,-252 512.6674,-216 597.3326,-216 597.3326,-252"/>
<text text-anchor="middle" x="555" y="-229.8" font-family="Times,serif" font-size="14.00" fill="#000000">PopModule </text>
</g>
<!-- UiModule&#45;&gt;PopModule  -->
<g id="edge16" class="edge">
<title>UiModule&#45;&gt;PopModule </title>
<path fill="none" stroke="#000000" stroke-dasharray="5,2" d="M587.8213,-187.1061C587.8213,-187.1061 587.8213,-205.991 587.8213,-205.991"/>
<polygon fill="#000000" stroke="#000000" points="584.3214,-205.9909 587.8213,-215.991 591.3214,-205.991 584.3214,-205.9909"/>
</g>
<!-- NotificationsModule  -->
<g id="node18" class="node">
<title>NotificationsModule </title>
<polygon fill="#fb8072" stroke="#000000" points="495.1439,-252 358.8561,-252 358.8561,-216 495.1439,-216 495.1439,-252"/>
<text text-anchor="middle" x="427" y="-229.8" font-family="Times,serif" font-size="14.00" fill="#000000">NotificationsModule </text>
</g>
<!-- UiModule&#45;&gt;NotificationsModule  -->
<g id="edge17" class="edge">
<title>UiModule&#45;&gt;NotificationsModule </title>
<path fill="none" stroke="#000000" stroke-dasharray="5,2" d="M578.1626,-183C537.8486,-183 478.875,-183 478.875,-183 478.875,-183 478.875,-205.8757 478.875,-205.8757"/>
<polygon fill="#000000" stroke="#000000" points="475.3751,-205.8757 478.875,-215.8757 482.3751,-205.8757 475.3751,-205.8757"/>
</g>
<!-- LoaderModule  -->
<g id="node19" class="node">
<title>LoaderModule </title>
<polygon fill="#fb8072" stroke="#000000" points="341.1927,-252 238.8073,-252 238.8073,-216 341.1927,-216 341.1927,-252"/>
<text text-anchor="middle" x="290" y="-229.8" font-family="Times,serif" font-size="14.00" fill="#000000">LoaderModule </text>
</g>
<!-- UiModule&#45;&gt;LoaderModule  -->
<g id="edge18" class="edge">
<title>UiModule&#45;&gt;LoaderModule </title>
<path fill="none" stroke="#000000" stroke-dasharray="5,2" d="M578.2992,-179C490.9694,-179 278.0513,-179 278.0513,-179 278.0513,-179 278.0513,-205.9909 278.0513,-205.9909"/>
<polygon fill="#000000" stroke="#000000" points="274.5514,-205.9909 278.0513,-215.9909 281.5514,-205.991 274.5514,-205.9909"/>
</g>
<!-- ListModule  -->
<g id="node20" class="node">
<title>ListModule </title>
<polygon fill="#fb8072" stroke="#000000" points="220.3284,-252 135.6716,-252 135.6716,-216 220.3284,-216 220.3284,-252"/>
<text text-anchor="middle" x="178" y="-229.8" font-family="Times,serif" font-size="14.00" fill="#000000">ListModule </text>
</g>
<!-- UiModule&#45;&gt;ListModule  -->
<g id="edge19" class="edge">
<title>UiModule&#45;&gt;ListModule </title>
<path fill="none" stroke="#000000" stroke-dasharray="5,2" d="M578.2226,-175C473.1657,-175 179.2362,-175 179.2362,-175 179.2362,-175 179.2362,-205.9775 179.2362,-205.9775"/>
<polygon fill="#000000" stroke="#000000" points="175.7362,-205.9774 179.2362,-215.9775 182.7362,-205.9775 175.7362,-205.9774"/>
</g>
<!-- FormModule  -->
<g id="node21" class="node">
<title>FormModule </title>
<polygon fill="#fb8072" stroke="#000000" points="117.8844,-252 24.1156,-252 24.1156,-216 117.8844,-216 117.8844,-252"/>
<text text-anchor="middle" x="71" y="-229.8" font-family="Times,serif" font-size="14.00" fill="#000000">FormModule </text>
</g>
<!-- UiModule&#45;&gt;FormModule  -->
<g id="edge20" class="edge">
<title>UiModule&#45;&gt;FormModule </title>
<path fill="none" stroke="#000000" stroke-dasharray="5,2" d="M578.0447,-171C454.6803,-171 64.7879,-171 64.7879,-171 64.7879,-171 64.7879,-205.7778 64.7879,-205.7778"/>
<polygon fill="#000000" stroke="#000000" points="61.288,-205.7778 64.7879,-215.7778 68.288,-205.7778 61.288,-205.7778"/>
</g>
<!-- NotificationsModule -->
<g id="node7" class="node">
<title>NotificationsModule</title>
<polygon fill="#8dd3c7" stroke="#000000" points="595.1443,-122 592.1443,-126 571.1443,-126 568.1443,-122 462.8557,-122 462.8557,-86 595.1443,-86 595.1443,-122"/>
<text text-anchor="middle" x="529" y="-99.8" font-family="Times,serif" font-size="14.00" fill="#000000">NotificationsModule</text>
</g>
<!-- NotificationsModule&#45;&gt;UiModule -->
<g id="edge6" class="edge">
<title>NotificationsModule&#45;&gt;UiModule</title>
<path fill="none" stroke="#000000" d="M586.7742,-122.1061C586.7742,-122.1061 586.7742,-140.991 586.7742,-140.991"/>
<polygon fill="#000000" stroke="#000000" points="583.2743,-140.9909 586.7742,-150.991 590.2743,-140.991 583.2743,-140.9909"/>
</g>
<!-- PopModule -->
<g id="node8" class="node">
<title>PopModule</title>
<polygon fill="#8dd3c7" stroke="#000000" points="444.8331,-122 441.8331,-126 420.8331,-126 417.8331,-122 363.1669,-122 363.1669,-86 444.8331,-86 444.8331,-122"/>
<text text-anchor="middle" x="404" y="-99.8" font-family="Times,serif" font-size="14.00" fill="#000000">PopModule</text>
</g>
<!-- PopModule&#45;&gt;UiModule -->
<g id="edge7" class="edge">
<title>PopModule&#45;&gt;UiModule</title>
<path fill="none" stroke="#000000" d="M404,-122.1243C404,-136.7832 404,-155 404,-155 404,-155 568.2466,-155 568.2466,-155"/>
<polygon fill="#000000" stroke="#000000" points="568.2466,-158.5001 578.2466,-155 568.2466,-151.5001 568.2466,-158.5001"/>
</g>
<!-- LoaderModule -->
<g id="node9" class="node">
<title>LoaderModule</title>
<polygon fill="#8dd3c7" stroke="#000000" points="345.6924,-122 342.6924,-126 321.6924,-126 318.6924,-122 246.3076,-122 246.3076,-86 345.6924,-86 345.6924,-122"/>
<text text-anchor="middle" x="296" y="-99.8" font-family="Times,serif" font-size="14.00" fill="#000000">LoaderModule</text>
</g>
<!-- LoaderModule&#45;&gt;UiModule -->
<g id="edge8" class="edge">
<title>LoaderModule&#45;&gt;UiModule</title>
<path fill="none" stroke="#000000" d="M309.6987,-122.0091C309.6987,-138.0494 309.6987,-159 309.6987,-159 309.6987,-159 568.1735,-159 568.1735,-159"/>
<polygon fill="#000000" stroke="#000000" points="568.1736,-162.5001 578.1735,-159 568.1735,-155.5001 568.1736,-162.5001"/>
</g>
<!-- FormModule -->
<g id="node10" class="node">
<title>FormModule</title>
<polygon fill="#8dd3c7" stroke="#000000" points="227.8837,-122 224.8837,-126 203.8837,-126 200.8837,-122 138.1163,-122 138.1163,-86 227.8837,-86 227.8837,-122"/>
<text text-anchor="middle" x="183" y="-99.8" font-family="Times,serif" font-size="14.00" fill="#000000">FormModule</text>
</g>
<!-- FormModule&#45;&gt;UiModule -->
<g id="edge9" class="edge">
<title>FormModule&#45;&gt;UiModule</title>
<path fill="none" stroke="#000000" d="M224.178,-122.0225C224.178,-139.3734 224.178,-163 224.178,-163 224.178,-163 568.2324,-163 568.2324,-163"/>
<polygon fill="#000000" stroke="#000000" points="568.2324,-166.5001 578.2324,-163 568.2324,-159.5001 568.2324,-166.5001"/>
</g>
<!-- ListModule -->
<g id="node11" class="node">
<title>ListModule</title>
<polygon fill="#8dd3c7" stroke="#000000" points="119.8289,-122 116.8289,-126 95.8289,-126 92.8289,-122 38.1711,-122 38.1711,-86 119.8289,-86 119.8289,-122"/>
<text text-anchor="middle" x="79" y="-99.8" font-family="Times,serif" font-size="14.00" fill="#000000">ListModule</text>
</g>
<!-- ListModule&#45;&gt;UiModule -->
<g id="edge10" class="edge">
<title>ListModule&#45;&gt;UiModule</title>
<path fill="none" stroke="#000000" d="M91.2398,-122.2222C91.2398,-140.8285 91.2398,-167 91.2398,-167 91.2398,-167 568.1702,-167 568.1702,-167"/>
<polygon fill="#000000" stroke="#000000" points="568.1702,-170.5001 578.1702,-167 568.1702,-163.5001 568.1702,-170.5001"/>
</g>
</g>
</svg>
