<?xml version="1.0" encoding="UTF-8" standalone="no"?>
<!DOCTYPE svg PUBLIC "-//W3C//DTD SVG 1.1//EN"
 "http://www.w3.org/Graphics/SVG/1.1/DTD/svg11.dtd">
<!-- Generated by graphviz version 2.40.1 (20161225.0304)
 -->
<!-- Title: dependencies Pages: 1 -->
<svg width="747pt" height="284pt"
 viewBox="0.00 0.00 747.00 284.00" xmlns="http://www.w3.org/2000/svg" xmlns:xlink="http://www.w3.org/1999/xlink">
<g id="graph0" class="graph" transform="scale(1 1) rotate(0) translate(4 280)">
<title>dependencies</title>
<polygon fill="#ffffff" stroke="transparent" points="-4,4 -4,-280 743,-280 743,4 -4,4"/>
<text text-anchor="start" x="348.5091" y="-42.4" font-family="sans-serif" font-weight="bold" font-size="14.00" fill="#000000">Legend</text>
<polygon fill="#ffffb3" stroke="transparent" points="135.5,-10 135.5,-30 155.5,-30 155.5,-10 135.5,-10"/>
<text text-anchor="start" x="159.129" y="-15.4" font-family="sans-serif" font-size="14.00" fill="#000000"> &#160;Declarations</text>
<polygon fill="#8dd3c7" stroke="transparent" points="248.5,-10 248.5,-30 268.5,-30 268.5,-10 248.5,-10"/>
<text text-anchor="start" x="272.2251" y="-15.4" font-family="sans-serif" font-size="14.00" fill="#000000"> &#160;Module</text>
<polygon fill="#80b1d3" stroke="transparent" points="334.5,-10 334.5,-30 354.5,-30 354.5,-10 334.5,-10"/>
<text text-anchor="start" x="358.2812" y="-15.4" font-family="sans-serif" font-size="14.00" fill="#000000"> &#160;Bootstrap</text>
<polygon fill="#fdb462" stroke="transparent" points="431.5,-10 431.5,-30 451.5,-30 451.5,-10 431.5,-10"/>
<text text-anchor="start" x="455.1732" y="-15.4" font-family="sans-serif" font-size="14.00" fill="#000000"> &#160;Providers</text>
<polygon fill="#fb8072" stroke="transparent" points="527.5,-10 527.5,-30 547.5,-30 547.5,-10 527.5,-10"/>
<text text-anchor="start" x="551.2258" y="-15.4" font-family="sans-serif" font-size="14.00" fill="#000000"> &#160;Exports</text>
<g id="clust1" class="cluster">
<title>cluster_UiModule</title>
<polygon fill="none" stroke="#000000" stroke-dasharray="1,5" points="8,-70 8,-268 731,-268 731,-70 8,-70"/>
</g>
<g id="clust3" class="cluster">
<title>cluster_UiModule_imports</title>
<polygon fill="none" stroke="#000000" points="28,-78 28,-130 715,-130 715,-78 28,-78"/>
</g>
<g id="clust4" class="cluster">
<title>cluster_UiModule_exports</title>
<polygon fill="none" stroke="#000000" points="16,-208 16,-260 723,-260 723,-208 16,-208"/>
</g>
<!-- UtilityModule -->
<g id="node1" class="node">
<title>UtilityModule</title>
<polygon fill="#8dd3c7" stroke="#000000" points="707.1095,-122 704.1095,-126 683.1095,-126 680.1095,-122 610.8905,-122 610.8905,-86 707.1095,-86 707.1095,-122"/>
<text text-anchor="middle" x="659" y="-99.8" font-family="Times,serif" font-size="14.00" fill="#000000">UtilityModule</text>
</g>
<!-- UiModule -->
<g id="node7" class="node">
<title>UiModule</title>
<polygon fill="#8dd3c7" stroke="#000000" points="334.5484,-187 331.5484,-191 310.5484,-191 307.5484,-187 261.4516,-187 261.4516,-151 334.5484,-151 334.5484,-187"/>
<text text-anchor="middle" x="298" y="-164.8" font-family="Times,serif" font-size="14.00" fill="#000000">UiModule</text>
</g>
<!-- UtilityModule&#45;&gt;UiModule -->
<g id="edge1" class="edge">
<title>UtilityModule&#45;&gt;UiModule</title>
<path fill="none" stroke="#000000" d="M676.4349,-122.2222C676.4349,-140.8285 676.4349,-167 676.4349,-167 676.4349,-167 344.6298,-167 344.6298,-167"/>
<polygon fill="#000000" stroke="#000000" points="344.6298,-163.5001 334.6298,-167 344.6297,-170.5001 344.6298,-163.5001"/>
</g>
<!-- NotificationsModule -->
<g id="node2" class="node">
<title>NotificationsModule</title>
<polygon fill="#8dd3c7" stroke="#000000" points="593.1443,-122 590.1443,-126 569.1443,-126 566.1443,-122 460.8557,-122 460.8557,-86 593.1443,-86 593.1443,-122"/>
<text text-anchor="middle" x="527" y="-99.8" font-family="Times,serif" font-size="14.00" fill="#000000">NotificationsModule</text>
</g>
<!-- NotificationsModule&#45;&gt;UiModule -->
<g id="edge2" class="edge">
<title>NotificationsModule&#45;&gt;UiModule</title>
<path fill="none" stroke="#000000" d="M477.875,-122.0336C477.875,-139.0597 477.875,-162 477.875,-162 477.875,-162 344.8344,-162 344.8344,-162"/>
<polygon fill="#000000" stroke="#000000" points="344.8345,-158.5001 334.8344,-162 344.8344,-165.5001 344.8345,-158.5001"/>
</g>
<!-- PopModule -->
<g id="node3" class="node">
<title>PopModule</title>
<polygon fill="#8dd3c7" stroke="#000000" points="442.8331,-122 439.8331,-126 418.8331,-126 415.8331,-122 361.1669,-122 361.1669,-86 442.8331,-86 442.8331,-122"/>
<text text-anchor="middle" x="402" y="-99.8" font-family="Times,serif" font-size="14.00" fill="#000000">PopModule</text>
</g>
<!-- PopModule&#45;&gt;UiModule -->
<g id="edge3" class="edge">
<title>PopModule&#45;&gt;UiModule</title>
<path fill="none" stroke="#000000" d="M415.5554,-122.2396C415.5554,-137.5706 415.5554,-157 415.5554,-157 415.5554,-157 344.5509,-157 344.5509,-157"/>
<polygon fill="#000000" stroke="#000000" points="344.5509,-153.5001 334.5509,-157 344.5508,-160.5001 344.5509,-153.5001"/>
</g>
<!-- LoaderModule -->
<g id="node4" class="node">
<title>LoaderModule</title>
<polygon fill="#8dd3c7" stroke="#000000" points="343.6924,-122 340.6924,-126 319.6924,-126 316.6924,-122 244.3076,-122 244.3076,-86 343.6924,-86 343.6924,-122"/>
<text text-anchor="middle" x="294" y="-99.8" font-family="Times,serif" font-size="14.00" fill="#000000">LoaderModule</text>
</g>
<!-- LoaderModule&#45;&gt;UiModule -->
<g id="edge4" class="edge">
<title>LoaderModule&#45;&gt;UiModule</title>
<path fill="none" stroke="#000000" d="M298,-122.1061C298,-122.1061 298,-140.991 298,-140.991"/>
<polygon fill="#000000" stroke="#000000" points="294.5001,-140.9909 298,-150.991 301.5001,-140.991 294.5001,-140.9909"/>
</g>
<!-- FormModule -->
<g id="node5" class="node">
<title>FormModule</title>
<polygon fill="#8dd3c7" stroke="#000000" points="225.8837,-122 222.8837,-126 201.8837,-126 198.8837,-122 136.1163,-122 136.1163,-86 225.8837,-86 225.8837,-122"/>
<text text-anchor="middle" x="181" y="-99.8" font-family="Times,serif" font-size="14.00" fill="#000000">FormModule</text>
</g>
<!-- FormModule&#45;&gt;UiModule -->
<g id="edge5" class="edge">
<title>FormModule&#45;&gt;UiModule</title>
<path fill="none" stroke="#000000" d="M192.2955,-122.0091C192.2955,-138.0494 192.2955,-159 192.2955,-159 192.2955,-159 251.3263,-159 251.3263,-159"/>
<polygon fill="#000000" stroke="#000000" points="251.3264,-162.5001 261.3263,-159 251.3263,-155.5001 251.3264,-162.5001"/>
</g>
<!-- ListModule -->
<g id="node6" class="node">
<title>ListModule</title>
<polygon fill="#8dd3c7" stroke="#000000" points="117.8289,-122 114.8289,-126 93.8289,-126 90.8289,-122 36.1711,-122 36.1711,-86 117.8289,-86 117.8289,-122"/>
<text text-anchor="middle" x="77" y="-99.8" font-family="Times,serif" font-size="14.00" fill="#000000">ListModule</text>
</g>
<!-- ListModule&#45;&gt;UiModule -->
<g id="edge6" class="edge">
<title>ListModule&#45;&gt;UiModule</title>
<path fill="none" stroke="#000000" d="M90.5547,-122.2667C90.5547,-140.5552 90.5547,-166 90.5547,-166 90.5547,-166 251.3905,-166 251.3905,-166"/>
<polygon fill="#000000" stroke="#000000" points="251.3905,-169.5001 261.3905,-166 251.3904,-162.5001 251.3905,-169.5001"/>
</g>
<!-- UtilityModule  -->
<g id="node8" class="node">
<title>UtilityModule </title>
<polygon fill="#fb8072" stroke="#000000" points="714.6102,-252 615.3898,-252 615.3898,-216 714.6102,-216 714.6102,-252"/>
<text text-anchor="middle" x="665" y="-229.8" font-family="Times,serif" font-size="14.00" fill="#000000">UtilityModule </text>
</g>
<!-- UiModule&#45;&gt;UtilityModule  -->
<g id="edge7" class="edge">
<title>UiModule&#45;&gt;UtilityModule </title>
<path fill="none" stroke="#000000" stroke-dasharray="5,2" d="M334.5649,-172C423.8651,-172 645.8151,-172 645.8151,-172 645.8151,-172 645.8151,-205.7333 645.8151,-205.7333"/>
<polygon fill="#000000" stroke="#000000" points="642.3152,-205.7333 645.8151,-215.7333 649.3152,-205.7333 642.3152,-205.7333"/>
</g>
<!-- PopModule  -->
<g id="node9" class="node">
<title>PopModule </title>
<polygon fill="#fb8072" stroke="#000000" points="597.3326,-252 512.6674,-252 512.6674,-216 597.3326,-216 597.3326,-252"/>
<text text-anchor="middle" x="555" y="-229.8" font-family="Times,serif" font-size="14.00" fill="#000000">PopModule </text>
</g>
<!-- UiModule&#45;&gt;PopModule  -->
<g id="edge8" class="edge">
<title>UiModule&#45;&gt;PopModule </title>
<path fill="none" stroke="#000000" stroke-dasharray="5,2" d="M334.8,-177C405.4043,-177 552.9529,-177 552.9529,-177 552.9529,-177 552.9529,-205.9648 552.9529,-205.9648"/>
<polygon fill="#000000" stroke="#000000" points="549.4529,-205.9648 552.9529,-215.9648 556.4529,-205.9649 549.4529,-205.9648"/>
</g>
<!-- NotificationsModule  -->
<g id="node10" class="node">
<title>NotificationsModule </title>
<polygon fill="#fb8072" stroke="#000000" points="495.1439,-252 358.8561,-252 358.8561,-216 495.1439,-216 495.1439,-252"/>
<text text-anchor="middle" x="427" y="-229.8" font-family="Times,serif" font-size="14.00" fill="#000000">NotificationsModule </text>
</g>
<!-- UiModule&#45;&gt;NotificationsModule  -->
<g id="edge9" class="edge">
<title>UiModule&#45;&gt;NotificationsModule </title>
<path fill="none" stroke="#000000" stroke-dasharray="5,2" d="M334.7873,-182C359.8274,-182 388.4446,-182 388.4446,-182 388.4446,-182 388.4446,-205.8129 388.4446,-205.8129"/>
<polygon fill="#000000" stroke="#000000" points="384.9447,-205.8129 388.4446,-215.8129 391.9447,-205.813 384.9447,-205.8129"/>
</g>
<!-- LoaderModule  -->
<g id="node11" class="node">
<title>LoaderModule </title>
<polygon fill="#fb8072" stroke="#000000" points="341.1927,-252 238.8073,-252 238.8073,-216 341.1927,-216 341.1927,-252"/>
<text text-anchor="middle" x="290" y="-229.8" font-family="Times,serif" font-size="14.00" fill="#000000">LoaderModule </text>
</g>
<!-- UiModule&#45;&gt;LoaderModule  -->
<g id="edge10" class="edge">
<title>UiModule&#45;&gt;LoaderModule </title>
<path fill="none" stroke="#000000" stroke-dasharray="5,2" d="M298,-187.1061C298,-187.1061 298,-205.991 298,-205.991"/>
<polygon fill="#000000" stroke="#000000" points="294.5001,-205.9909 298,-215.991 301.5001,-205.991 294.5001,-205.9909"/>
</g>
<!-- ListModule  -->
<g id="node12" class="node">
<title>ListModule </title>
<polygon fill="#fb8072" stroke="#000000" points="220.3284,-252 135.6716,-252 135.6716,-216 220.3284,-216 220.3284,-252"/>
<text text-anchor="middle" x="178" y="-229.8" font-family="Times,serif" font-size="14.00" fill="#000000">ListModule </text>
</g>
<!-- UiModule&#45;&gt;ListModule  -->
<g id="edge11" class="edge">
<title>UiModule&#45;&gt;ListModule </title>
<path fill="none" stroke="#000000" stroke-dasharray="5,2" d="M261.4322,-180C221.8097,-180 164.1768,-180 164.1768,-180 164.1768,-180 164.1768,-205.7181 164.1768,-205.7181"/>
<polygon fill="#000000" stroke="#000000" points="160.6769,-205.718 164.1768,-215.7181 167.6769,-205.7181 160.6769,-205.718"/>
</g>
<!-- FormModule  -->
<g id="node13" class="node">
<title>FormModule </title>
<polygon fill="#fb8072" stroke="#000000" points="117.8844,-252 24.1156,-252 24.1156,-216 117.8844,-216 117.8844,-252"/>
<text text-anchor="middle" x="71" y="-229.8" font-family="Times,serif" font-size="14.00" fill="#000000">FormModule </text>
</g>
<!-- UiModule&#45;&gt;FormModule  -->
<g id="edge12" class="edge">
<title>UiModule&#45;&gt;FormModule </title>
<path fill="none" stroke="#000000" stroke-dasharray="5,2" d="M261.3508,-173C195.3823,-173 63.4453,-173 63.4453,-173 63.4453,-173 63.4453,-205.698 63.4453,-205.698"/>
<polygon fill="#000000" stroke="#000000" points="59.9454,-205.698 63.4453,-215.698 66.9454,-205.698 59.9454,-205.698"/>
</g>
</g>
</svg>
