<?xml version="1.0" encoding="UTF-8" standalone="no"?>
<!DOCTYPE svg PUBLIC "-//W3C//DTD SVG 1.1//EN"
 "http://www.w3.org/Graphics/SVG/1.1/DTD/svg11.dtd">
<!-- Generated by graphviz version 2.40.1 (20161225.0304)
 -->
<!-- Title: dependencies Pages: 1 -->
<svg width="1003pt" height="284pt"
 viewBox="0.00 0.00 1003.00 284.00" xmlns="http://www.w3.org/2000/svg" xmlns:xlink="http://www.w3.org/1999/xlink">
<g id="graph0" class="graph" transform="scale(1 1) rotate(0) translate(4 280)">
<title>dependencies</title>
<polygon fill="#ffffff" stroke="transparent" points="-4,4 -4,-280 999,-280 999,4 -4,4"/>
<text text-anchor="start" x="476.5091" y="-42.4" font-family="sans-serif" font-weight="bold" font-size="14.00" fill="#000000">Legend</text>
<polygon fill="#ffffb3" stroke="transparent" points="263.5,-10 263.5,-30 283.5,-30 283.5,-10 263.5,-10"/>
<text text-anchor="start" x="287.129" y="-15.4" font-family="sans-serif" font-size="14.00" fill="#000000"> &#160;Declarations</text>
<polygon fill="#8dd3c7" stroke="transparent" points="376.5,-10 376.5,-30 396.5,-30 396.5,-10 376.5,-10"/>
<text text-anchor="start" x="400.2251" y="-15.4" font-family="sans-serif" font-size="14.00" fill="#000000"> &#160;Module</text>
<polygon fill="#80b1d3" stroke="transparent" points="462.5,-10 462.5,-30 482.5,-30 482.5,-10 462.5,-10"/>
<text text-anchor="start" x="486.2812" y="-15.4" font-family="sans-serif" font-size="14.00" fill="#000000"> &#160;Bootstrap</text>
<polygon fill="#fdb462" stroke="transparent" points="559.5,-10 559.5,-30 579.5,-30 579.5,-10 559.5,-10"/>
<text text-anchor="start" x="583.1732" y="-15.4" font-family="sans-serif" font-size="14.00" fill="#000000"> &#160;Providers</text>
<polygon fill="#fb8072" stroke="transparent" points="655.5,-10 655.5,-30 675.5,-30 675.5,-10 655.5,-10"/>
<text text-anchor="start" x="679.2258" y="-15.4" font-family="sans-serif" font-size="14.00" fill="#000000"> &#160;Exports</text>
<g id="clust1" class="cluster">
<title>cluster_UiModule</title>
<polygon fill="none" stroke="#000000" stroke-dasharray="1,5" points="8,-70 8,-268 987,-268 987,-70 8,-70"/>
</g>
<g id="clust3" class="cluster">
<title>cluster_UiModule_imports</title>
<polygon fill="none" stroke="#000000" points="33,-78 33,-130 970,-130 970,-78 33,-78"/>
</g>
<g id="clust4" class="cluster">
<title>cluster_UiModule_exports</title>
<polygon fill="none" stroke="#000000" points="16,-208 16,-260 979,-260 979,-208 16,-208"/>
</g>
<!-- UtilityModule -->
<g id="node1" class="node">
<title>UtilityModule</title>
<polygon fill="#8dd3c7" stroke="#000000" points="962.1095,-122 959.1095,-126 938.1095,-126 935.1095,-122 865.8905,-122 865.8905,-86 962.1095,-86 962.1095,-122"/>
<text text-anchor="middle" x="914" y="-99.8" font-family="Times,serif" font-size="14.00" fill="#000000">UtilityModule</text>
</g>
<!-- UiModule -->
<g id="node9" class="node">
<title>UiModule</title>
<polygon fill="#8dd3c7" stroke="#000000" points="479.5484,-187 476.5484,-191 455.5484,-191 452.5484,-187 406.4516,-187 406.4516,-151 479.5484,-151 479.5484,-187"/>
<text text-anchor="middle" x="443" y="-164.8" font-family="Times,serif" font-size="14.00" fill="#000000">UiModule</text>
</g>
<!-- UtilityModule&#45;&gt;UiModule -->
<g id="edge1" class="edge">
<title>UtilityModule&#45;&gt;UiModule</title>
<path fill="none" stroke="#000000" d="M931.7682,-122.2222C931.7682,-140.8285 931.7682,-167 931.7682,-167 931.7682,-167 489.7371,-167 489.7371,-167"/>
<polygon fill="#000000" stroke="#000000" points="489.7371,-163.5001 479.7371,-167 489.737,-170.5001 489.7371,-163.5001"/>
</g>
<!-- NotificationsModule -->
<g id="node2" class="node">
<title>NotificationsModule</title>
<polygon fill="#8dd3c7" stroke="#000000" points="848.1443,-122 845.1443,-126 824.1443,-126 821.1443,-122 715.8557,-122 715.8557,-86 848.1443,-86 848.1443,-122"/>
<text text-anchor="middle" x="782" y="-99.8" font-family="Times,serif" font-size="14.00" fill="#000000">NotificationsModule</text>
</g>
<!-- NotificationsModule&#45;&gt;UiModule -->
<g id="edge2" class="edge">
<title>NotificationsModule&#45;&gt;UiModule</title>
<path fill="none" stroke="#000000" d="M733.375,-122.0225C733.375,-139.3734 733.375,-163 733.375,-163 733.375,-163 489.7762,-163 489.7762,-163"/>
<polygon fill="#000000" stroke="#000000" points="489.7762,-159.5001 479.7762,-163 489.7762,-166.5001 489.7762,-159.5001"/>
</g>
<!-- PopModule -->
<g id="node3" class="node">
<title>PopModule</title>
<polygon fill="#8dd3c7" stroke="#000000" points="697.8331,-122 694.8331,-126 673.8331,-126 670.8331,-122 616.1669,-122 616.1669,-86 697.8331,-86 697.8331,-122"/>
<text text-anchor="middle" x="657" y="-99.8" font-family="Times,serif" font-size="14.00" fill="#000000">PopModule</text>
</g>
<!-- PopModule&#45;&gt;UiModule -->
<g id="edge3" class="edge">
<title>PopModule&#45;&gt;UiModule</title>
<path fill="none" stroke="#000000" d="M670.5554,-122.0091C670.5554,-138.0494 670.5554,-159 670.5554,-159 670.5554,-159 489.5607,-159 489.5607,-159"/>
<polygon fill="#000000" stroke="#000000" points="489.5607,-155.5001 479.5607,-159 489.5607,-162.5001 489.5607,-155.5001"/>
</g>
<!-- LoaderModule -->
<g id="node4" class="node">
<title>LoaderModule</title>
<polygon fill="#8dd3c7" stroke="#000000" points="598.6924,-122 595.6924,-126 574.6924,-126 571.6924,-122 499.3076,-122 499.3076,-86 598.6924,-86 598.6924,-122"/>
<text text-anchor="middle" x="549" y="-99.8" font-family="Times,serif" font-size="14.00" fill="#000000">LoaderModule</text>
</g>
<!-- LoaderModule&#45;&gt;UiModule -->
<g id="edge4" class="edge">
<title>LoaderModule&#45;&gt;UiModule</title>
<path fill="none" stroke="#000000" d="M532.0513,-122.1243C532.0513,-136.7832 532.0513,-155 532.0513,-155 532.0513,-155 489.7347,-155 489.7347,-155"/>
<polygon fill="#000000" stroke="#000000" points="489.7347,-151.5001 479.7347,-155 489.7347,-158.5001 489.7347,-151.5001"/>
</g>
<!-- FormModule -->
<g id="node5" class="node">
<title>FormModule</title>
<polygon fill="#8dd3c7" stroke="#000000" points="480.8837,-122 477.8837,-126 456.8837,-126 453.8837,-122 391.1163,-122 391.1163,-86 480.8837,-86 480.8837,-122"/>
<text text-anchor="middle" x="436" y="-99.8" font-family="Times,serif" font-size="14.00" fill="#000000">FormModule</text>
</g>
<!-- FormModule&#45;&gt;UiModule -->
<g id="edge5" class="edge">
<title>FormModule&#45;&gt;UiModule</title>
<path fill="none" stroke="#000000" d="M443,-122.1061C443,-122.1061 443,-140.991 443,-140.991"/>
<polygon fill="#000000" stroke="#000000" points="439.5001,-140.9909 443,-150.991 446.5001,-140.991 439.5001,-140.9909"/>
</g>
<!-- ListModule -->
<g id="node6" class="node">
<title>ListModule</title>
<polygon fill="#8dd3c7" stroke="#000000" points="372.8289,-122 369.8289,-126 348.8289,-126 345.8289,-122 291.1711,-122 291.1711,-86 372.8289,-86 372.8289,-122"/>
<text text-anchor="middle" x="332" y="-99.8" font-family="Times,serif" font-size="14.00" fill="#000000">ListModule</text>
</g>
<!-- ListModule&#45;&gt;UiModule -->
<g id="edge6" class="edge">
<title>ListModule&#45;&gt;UiModule</title>
<path fill="none" stroke="#000000" d="M345.5547,-122.2396C345.5547,-137.5706 345.5547,-157 345.5547,-157 345.5547,-157 396.4377,-157 396.4377,-157"/>
<polygon fill="#000000" stroke="#000000" points="396.4378,-160.5001 406.4377,-157 396.4377,-153.5001 396.4378,-160.5001"/>
</g>
<!-- SelectModule -->
<g id="node7" class="node">
<title>SelectModule</title>
<polygon fill="#8dd3c7" stroke="#000000" points="272.7577,-122 269.7577,-126 248.7577,-126 245.7577,-122 179.2423,-122 179.2423,-86 272.7577,-86 272.7577,-122"/>
<text text-anchor="middle" x="226" y="-99.8" font-family="Times,serif" font-size="14.00" fill="#000000">SelectModule</text>
</g>
<!-- SelectModule&#45;&gt;UiModule -->
<g id="edge7" class="edge">
<title>SelectModule&#45;&gt;UiModule</title>
<path fill="none" stroke="#000000" d="M267.7537,-122.0336C267.7537,-139.0597 267.7537,-162 267.7537,-162 267.7537,-162 396.2626,-162 396.2626,-162"/>
<polygon fill="#000000" stroke="#000000" points="396.2627,-165.5001 406.2626,-162 396.2626,-158.5001 396.2627,-165.5001"/>
</g>
<!-- InteractionModule -->
<g id="node8" class="node">
<title>InteractionModule</title>
<polygon fill="#8dd3c7" stroke="#000000" points="161.1867,-122 158.1867,-126 137.1867,-126 134.1867,-122 40.8133,-122 40.8133,-86 161.1867,-86 161.1867,-122"/>
<text text-anchor="middle" x="101" y="-99.8" font-family="Times,serif" font-size="14.00" fill="#000000">InteractionModule</text>
</g>
<!-- InteractionModule&#45;&gt;UiModule -->
<g id="edge8" class="edge">
<title>InteractionModule&#45;&gt;UiModule</title>
<path fill="none" stroke="#000000" d="M154.4683,-122.2222C154.4683,-140.8285 154.4683,-167 154.4683,-167 154.4683,-167 396.1642,-167 396.1642,-167"/>
<polygon fill="#000000" stroke="#000000" points="396.1642,-170.5001 406.1642,-167 396.1642,-163.5001 396.1642,-170.5001"/>
</g>
<!-- UtilityModule  -->
<g id="node10" class="node">
<title>UtilityModule </title>
<polygon fill="#fb8072" stroke="#000000" points="970.6102,-252 871.3898,-252 871.3898,-216 970.6102,-216 970.6102,-252"/>
<text text-anchor="middle" x="921" y="-229.8" font-family="Times,serif" font-size="14.00" fill="#000000">UtilityModule </text>
</g>
<!-- UiModule&#45;&gt;UtilityModule  -->
<g id="edge9" class="edge">
<title>UiModule&#45;&gt;UtilityModule </title>
<path fill="none" stroke="#000000" stroke-dasharray="5,2" d="M479.7445,-171C588.5405,-171 901.4818,-171 901.4818,-171 901.4818,-171 901.4818,-205.7778 901.4818,-205.7778"/>
<polygon fill="#000000" stroke="#000000" points="897.9819,-205.7778 901.4818,-215.7778 904.9819,-205.7778 897.9819,-205.7778"/>
</g>
<!-- PopModule  -->
<g id="node11" class="node">
<title>PopModule </title>
<polygon fill="#fb8072" stroke="#000000" points="853.3326,-252 768.6674,-252 768.6674,-216 853.3326,-216 853.3326,-252"/>
<text text-anchor="middle" x="811" y="-229.8" font-family="Times,serif" font-size="14.00" fill="#000000">PopModule </text>
</g>
<!-- UiModule&#45;&gt;PopModule  -->
<g id="edge10" class="edge">
<title>UiModule&#45;&gt;PopModule </title>
<path fill="none" stroke="#000000" stroke-dasharray="5,2" d="M479.7143,-175C572.3881,-175 808.4529,-175 808.4529,-175 808.4529,-175 808.4529,-205.9775 808.4529,-205.9775"/>
<polygon fill="#000000" stroke="#000000" points="804.9529,-205.9774 808.4529,-215.9775 811.9529,-205.9775 804.9529,-205.9774"/>
</g>
<!-- NotificationsModule  -->
<g id="node12" class="node">
<title>NotificationsModule </title>
<polygon fill="#fb8072" stroke="#000000" points="751.1439,-252 614.8561,-252 614.8561,-216 751.1439,-216 751.1439,-252"/>
<text text-anchor="middle" x="683" y="-229.8" font-family="Times,serif" font-size="14.00" fill="#000000">NotificationsModule </text>
</g>
<!-- UiModule&#45;&gt;NotificationsModule  -->
<g id="edge11" class="edge">
<title>UiModule&#45;&gt;NotificationsModule </title>
<path fill="none" stroke="#000000" stroke-dasharray="5,2" d="M479.7646,-179C537.6313,-179 643.4446,-179 643.4446,-179 643.4446,-179 643.4446,-205.9909 643.4446,-205.9909"/>
<polygon fill="#000000" stroke="#000000" points="639.9447,-205.9909 643.4446,-215.9909 646.9447,-205.991 639.9447,-205.9909"/>
</g>
<!-- LoaderModule  -->
<g id="node13" class="node">
<title>LoaderModule </title>
<polygon fill="#fb8072" stroke="#000000" points="597.1927,-252 494.8073,-252 494.8073,-216 597.1927,-216 597.1927,-252"/>
<text text-anchor="middle" x="546" y="-229.8" font-family="Times,serif" font-size="14.00" fill="#000000">LoaderModule </text>
</g>
<!-- UiModule&#45;&gt;LoaderModule  -->
<g id="edge12" class="edge">
<title>UiModule&#45;&gt;LoaderModule </title>
<path fill="none" stroke="#000000" stroke-dasharray="5,2" d="M479.8439,-183C515.663,-183 564.6987,-183 564.6987,-183 564.6987,-183 564.6987,-205.8757 564.6987,-205.8757"/>
<polygon fill="#000000" stroke="#000000" points="561.1988,-205.8757 564.6987,-215.8757 568.1988,-205.8757 561.1988,-205.8757"/>
</g>
<!-- ListModule  -->
<g id="node14" class="node">
<title>ListModule </title>
<polygon fill="#fb8072" stroke="#000000" points="476.3284,-252 391.6716,-252 391.6716,-216 476.3284,-216 476.3284,-252"/>
<text text-anchor="middle" x="434" y="-229.8" font-family="Times,serif" font-size="14.00" fill="#000000">ListModule </text>
</g>
<!-- UiModule&#45;&gt;ListModule  -->
<g id="edge13" class="edge">
<title>UiModule&#45;&gt;ListModule </title>
<path fill="none" stroke="#000000" stroke-dasharray="5,2" d="M441.3203,-187.1061C441.3203,-187.1061 441.3203,-205.991 441.3203,-205.991"/>
<polygon fill="#000000" stroke="#000000" points="437.8204,-205.9909 441.3203,-215.991 444.8204,-205.991 437.8204,-205.9909"/>
</g>
<!-- FormModule  -->
<g id="node15" class="node">
<title>FormModule </title>
<polygon fill="#fb8072" stroke="#000000" points="373.8844,-252 280.1156,-252 280.1156,-216 373.8844,-216 373.8844,-252"/>
<text text-anchor="middle" x="327" y="-229.8" font-family="Times,serif" font-size="14.00" fill="#000000">FormModule </text>
</g>
<!-- UiModule&#45;&gt;FormModule  -->
<g id="edge14" class="edge">
<title>UiModule&#45;&gt;FormModule </title>
<path fill="none" stroke="#000000" stroke-dasharray="5,2" d="M406.3032,-182C369.5626,-182 318.4453,-182 318.4453,-182 318.4453,-182 318.4453,-205.8129 318.4453,-205.8129"/>
<polygon fill="#000000" stroke="#000000" points="314.9454,-205.8129 318.4453,-215.8129 321.9454,-205.813 314.9454,-205.8129"/>
</g>
<!-- SelectModule  -->
<g id="node16" class="node">
<title>SelectModule </title>
<polygon fill="#fb8072" stroke="#000000" points="262.7577,-252 165.2423,-252 165.2423,-216 262.7577,-216 262.7577,-252"/>
<text text-anchor="middle" x="214" y="-229.8" font-family="Times,serif" font-size="14.00" fill="#000000">SelectModule </text>
</g>
<!-- UiModule&#45;&gt;SelectModule  -->
<g id="edge15" class="edge">
<title>UiModule&#45;&gt;SelectModule </title>
<path fill="none" stroke="#000000" stroke-dasharray="5,2" d="M406.3206,-177C343.2308,-177 220.875,-177 220.875,-177 220.875,-177 220.875,-205.9648 220.875,-205.9648"/>
<polygon fill="#000000" stroke="#000000" points="217.3751,-205.9648 220.875,-215.9648 224.3751,-205.9649 217.3751,-205.9648"/>
</g>
<!-- InteractionModule  -->
<g id="node17" class="node">
<title>InteractionModule </title>
<polygon fill="#fb8072" stroke="#000000" points="147.687,-252 24.313,-252 24.313,-216 147.687,-216 147.687,-252"/>
<text text-anchor="middle" x="86" y="-229.8" font-family="Times,serif" font-size="14.00" fill="#000000">InteractionModule </text>
</g>
<!-- UiModule&#45;&gt;InteractionModule  -->
<g id="edge16" class="edge">
<title>UiModule&#45;&gt;InteractionModule </title>
<path fill="none" stroke="#000000" stroke-dasharray="5,2" d="M406.3499,-172C316.8418,-172 94.375,-172 94.375,-172 94.375,-172 94.375,-205.7333 94.375,-205.7333"/>
<polygon fill="#000000" stroke="#000000" points="90.8751,-205.7333 94.375,-215.7333 97.8751,-205.7333 90.8751,-205.7333"/>
</g>
</g>
</svg>
