<?xml version="1.0" encoding="UTF-8" standalone="no"?>
<!DOCTYPE svg PUBLIC "-//W3C//DTD SVG 1.1//EN"
 "http://www.w3.org/Graphics/SVG/1.1/DTD/svg11.dtd">
<!-- Generated by graphviz version 2.40.1 (20161225.0304)
 -->
<!-- Title: dependencies Pages: 1 -->
<svg width="3409pt" height="284pt"
 viewBox="0.00 0.00 3409.00 284.00" xmlns="http://www.w3.org/2000/svg" xmlns:xlink="http://www.w3.org/1999/xlink">
<g id="graph0" class="graph" transform="scale(1 1) rotate(0) translate(4 280)">
<title>dependencies</title>
<polygon fill="#ffffff" stroke="transparent" points="-4,4 -4,-280 3405,-280 3405,4 -4,4"/>
<text text-anchor="start" x="1679.5091" y="-42.4" font-family="sans-serif" font-weight="bold" font-size="14.00" fill="#000000">Legend</text>
<polygon fill="#ffffb3" stroke="transparent" points="1466.5,-10 1466.5,-30 1486.5,-30 1486.5,-10 1466.5,-10"/>
<text text-anchor="start" x="1490.129" y="-15.4" font-family="sans-serif" font-size="14.00" fill="#000000"> &#160;Declarations</text>
<polygon fill="#8dd3c7" stroke="transparent" points="1579.5,-10 1579.5,-30 1599.5,-30 1599.5,-10 1579.5,-10"/>
<text text-anchor="start" x="1603.2251" y="-15.4" font-family="sans-serif" font-size="14.00" fill="#000000"> &#160;Module</text>
<polygon fill="#80b1d3" stroke="transparent" points="1665.5,-10 1665.5,-30 1685.5,-30 1685.5,-10 1665.5,-10"/>
<text text-anchor="start" x="1689.2812" y="-15.4" font-family="sans-serif" font-size="14.00" fill="#000000"> &#160;Bootstrap</text>
<polygon fill="#fdb462" stroke="transparent" points="1762.5,-10 1762.5,-30 1782.5,-30 1782.5,-10 1762.5,-10"/>
<text text-anchor="start" x="1786.1732" y="-15.4" font-family="sans-serif" font-size="14.00" fill="#000000"> &#160;Providers</text>
<polygon fill="#fb8072" stroke="transparent" points="1858.5,-10 1858.5,-30 1878.5,-30 1878.5,-10 1858.5,-10"/>
<text text-anchor="start" x="1882.2258" y="-15.4" font-family="sans-serif" font-size="14.00" fill="#000000"> &#160;Exports</text>
<g id="clust1" class="cluster">
<title>cluster_UiModule</title>
<polygon fill="none" stroke="#000000" stroke-dasharray="1,5" points="8,-70 8,-268 3393,-268 3393,-70 8,-70"/>
</g>
<g id="clust2" class="cluster">
<title>cluster_UiModule_declarations</title>
<polygon fill="none" stroke="#000000" points="422,-78 422,-130 3385,-130 3385,-78 422,-78"/>
</g>
<g id="clust24" class="cluster">
<title>cluster_UiModule_imports</title>
<polygon fill="none" stroke="#000000" points="16,-78 16,-130 414,-130 414,-78 16,-78"/>
</g>
<g id="clust25" class="cluster">
<title>cluster_UiModule_exports</title>
<polygon fill="none" stroke="#000000" points="594,-208 594,-260 2942,-260 2942,-208 594,-208"/>
</g>
<!-- ListComponent -->
<g id="node1" class="node">
<title>ListComponent</title>
<polygon fill="#ffffb3" stroke="#000000" points="3376.6109,-122 3273.3891,-122 3273.3891,-86 3376.6109,-86 3376.6109,-122"/>
<text text-anchor="middle" x="3325" y="-99.8" font-family="Times,serif" font-size="14.00" fill="#000000">ListComponent</text>
</g>
<!-- UiModule -->
<g id="node22" class="node">
<title>UiModule</title>
<polygon fill="#8dd3c7" stroke="#000000" points="1786.5484,-187 1783.5484,-191 1762.5484,-191 1759.5484,-187 1713.4516,-187 1713.4516,-151 1786.5484,-151 1786.5484,-187"/>
<text text-anchor="middle" x="1750" y="-164.8" font-family="Times,serif" font-size="14.00" fill="#000000">UiModule</text>
</g>
<!-- ListComponent&#45;&gt;UiModule -->
<g id="edge1" class="edge">
<title>ListComponent&#45;&gt;UiModule</title>
<path fill="none" stroke="#000000" d="M3325,-122.308C3325,-142.1455 3325,-171 3325,-171 3325,-171 1796.6136,-171 1796.6136,-171"/>
<polygon fill="#000000" stroke="#000000" points="1796.6137,-167.5001 1786.6136,-171 1796.6136,-174.5001 1796.6137,-167.5001"/>
</g>
<!-- PaginationComponent -->
<g id="node2" class="node">
<title>PaginationComponent</title>
<polygon fill="#ffffb3" stroke="#000000" points="3255.7162,-122 3114.2838,-122 3114.2838,-86 3255.7162,-86 3255.7162,-122"/>
<text text-anchor="middle" x="3185" y="-99.8" font-family="Times,serif" font-size="14.00" fill="#000000">PaginationComponent</text>
</g>
<!-- PaginationComponent&#45;&gt;UiModule -->
<g id="edge2" class="edge">
<title>PaginationComponent&#45;&gt;UiModule</title>
<path fill="none" stroke="#000000" d="M3185,-122.1061C3185,-141.3391 3185,-169 3185,-169 3185,-169 1796.5512,-169 1796.5512,-169"/>
<polygon fill="#000000" stroke="#000000" points="1796.5512,-165.5001 1786.5512,-169 1796.5511,-172.5001 1796.5512,-165.5001"/>
</g>
<!-- TabsComponent -->
<g id="node3" class="node">
<title>TabsComponent</title>
<polygon fill="#ffffb3" stroke="#000000" points="3096.0452,-122 2987.9548,-122 2987.9548,-86 3096.0452,-86 3096.0452,-122"/>
<text text-anchor="middle" x="3042" y="-99.8" font-family="Times,serif" font-size="14.00" fill="#000000">TabsComponent</text>
</g>
<!-- TabsComponent&#45;&gt;UiModule -->
<g id="edge3" class="edge">
<title>TabsComponent&#45;&gt;UiModule</title>
<path fill="none" stroke="#000000" d="M3042,-122.1686C3042,-141.0898 3042,-168 3042,-168 3042,-168 1796.5859,-168 1796.5859,-168"/>
<polygon fill="#000000" stroke="#000000" points="1796.5859,-164.5001 1786.5859,-168 1796.5858,-171.5001 1796.5859,-164.5001"/>
</g>
<!-- TabComponent -->
<g id="node4" class="node">
<title>TabComponent</title>
<polygon fill="#ffffb3" stroke="#000000" points="2969.5996,-122 2866.4004,-122 2866.4004,-86 2969.5996,-86 2969.5996,-122"/>
<text text-anchor="middle" x="2918" y="-99.8" font-family="Times,serif" font-size="14.00" fill="#000000">TabComponent</text>
</g>
<!-- TabComponent&#45;&gt;UiModule -->
<g id="edge4" class="edge">
<title>TabComponent&#45;&gt;UiModule</title>
<path fill="none" stroke="#000000" d="M2900.1762,-122.2667C2900.1762,-140.5552 2900.1762,-166 2900.1762,-166 2900.1762,-166 1796.6433,-166 1796.6433,-166"/>
<polygon fill="#000000" stroke="#000000" points="1796.6433,-162.5001 1786.6433,-166 1796.6433,-169.5001 1796.6433,-162.5001"/>
</g>
<!-- MockupComponent -->
<g id="node5" class="node">
<title>MockupComponent</title>
<polygon fill="#ffffb3" stroke="#000000" points="2847.9916,-122 2720.0084,-122 2720.0084,-86 2847.9916,-86 2847.9916,-122"/>
<text text-anchor="middle" x="2784" y="-99.8" font-family="Times,serif" font-size="14.00" fill="#000000">MockupComponent</text>
</g>
<!-- MockupComponent&#45;&gt;UiModule -->
<g id="edge5" class="edge">
<title>MockupComponent&#45;&gt;UiModule</title>
<path fill="none" stroke="#000000" d="M2744.1548,-122.002C2744.1548,-139.6754 2744.1548,-164 2744.1548,-164 2744.1548,-164 1796.5615,-164 1796.5615,-164"/>
<polygon fill="#000000" stroke="#000000" points="1796.5616,-160.5001 1786.5615,-164 1796.5615,-167.5001 1796.5616,-160.5001"/>
</g>
<!-- FilterComponent -->
<g id="node6" class="node">
<title>FilterComponent</title>
<polygon fill="#ffffb3" stroke="#000000" points="2701.6625,-122 2590.3375,-122 2590.3375,-86 2701.6625,-86 2701.6625,-122"/>
<text text-anchor="middle" x="2646" y="-99.8" font-family="Times,serif" font-size="14.00" fill="#000000">FilterComponent</text>
</g>
<!-- FilterComponent&#45;&gt;UiModule -->
<g id="edge6" class="edge">
<title>FilterComponent&#45;&gt;UiModule</title>
<path fill="none" stroke="#000000" d="M2616.7635,-122.0336C2616.7635,-139.0597 2616.7635,-162 2616.7635,-162 2616.7635,-162 1796.6901,-162 1796.6901,-162"/>
<polygon fill="#000000" stroke="#000000" points="1796.6902,-158.5001 1786.6901,-162 1796.6901,-165.5001 1796.6902,-158.5001"/>
</g>
<!-- InputComponent -->
<g id="node7" class="node">
<title>InputComponent</title>
<polygon fill="#ffffb3" stroke="#000000" points="2572.3837,-122 2461.6163,-122 2461.6163,-86 2572.3837,-86 2572.3837,-122"/>
<text text-anchor="middle" x="2517" y="-99.8" font-family="Times,serif" font-size="14.00" fill="#000000">InputComponent</text>
</g>
<!-- InputComponent&#45;&gt;UiModule -->
<g id="edge7" class="edge">
<title>InputComponent&#45;&gt;UiModule</title>
<path fill="none" stroke="#000000" d="M2471.2901,-122.027C2471.2901,-138.3976 2471.2901,-160 2471.2901,-160 2471.2901,-160 1796.7605,-160 1796.7605,-160"/>
<polygon fill="#000000" stroke="#000000" points="1796.7606,-156.5001 1786.7605,-160 1796.7605,-163.5001 1796.7606,-156.5001"/>
</g>
<!-- OutputComponent -->
<g id="node8" class="node">
<title>OutputComponent</title>
<polygon fill="#ffffb3" stroke="#000000" points="2443.2204,-122 2322.7796,-122 2322.7796,-86 2443.2204,-86 2443.2204,-122"/>
<text text-anchor="middle" x="2383" y="-99.8" font-family="Times,serif" font-size="14.00" fill="#000000">OutputComponent</text>
</g>
<!-- OutputComponent&#45;&gt;UiModule -->
<g id="edge8" class="edge">
<title>OutputComponent&#45;&gt;UiModule</title>
<path fill="none" stroke="#000000" d="M2337.0949,-122.0091C2337.0949,-138.0494 2337.0949,-159 2337.0949,-159 2337.0949,-159 1796.7254,-159 1796.7254,-159"/>
<polygon fill="#000000" stroke="#000000" points="1796.7254,-155.5001 1786.7254,-159 1796.7254,-162.5001 1796.7254,-155.5001"/>
</g>
<!-- ListItemsComponent -->
<g id="node9" class="node">
<title>ListItemsComponent</title>
<polygon fill="#ffffb3" stroke="#000000" points="2305.212,-122 2170.788,-122 2170.788,-86 2305.212,-86 2305.212,-122"/>
<text text-anchor="middle" x="2238" y="-99.8" font-family="Times,serif" font-size="14.00" fill="#000000">ListItemsComponent</text>
</g>
<!-- ListItemsComponent&#45;&gt;UiModule -->
<g id="edge9" class="edge">
<title>ListItemsComponent&#45;&gt;UiModule</title>
<path fill="none" stroke="#000000" d="M2198.82,-122.2396C2198.82,-137.5706 2198.82,-157 2198.82,-157 2198.82,-157 1796.7288,-157 1796.7288,-157"/>
<polygon fill="#000000" stroke="#000000" points="1796.7289,-153.5001 1786.7288,-157 1796.7288,-160.5001 1796.7289,-153.5001"/>
</g>
<!-- ListHeaderComponent -->
<g id="node10" class="node">
<title>ListHeaderComponent</title>
<polygon fill="#ffffb3" stroke="#000000" points="2152.5226,-122 2009.4774,-122 2009.4774,-86 2152.5226,-86 2152.5226,-122"/>
<text text-anchor="middle" x="2081" y="-99.8" font-family="Times,serif" font-size="14.00" fill="#000000">ListHeaderComponent</text>
</g>
<!-- ListHeaderComponent&#45;&gt;UiModule -->
<g id="edge10" class="edge">
<title>ListHeaderComponent&#45;&gt;UiModule</title>
<path fill="none" stroke="#000000" d="M2043.4101,-122.1243C2043.4101,-136.7832 2043.4101,-155 2043.4101,-155 2043.4101,-155 1796.5673,-155 1796.5673,-155"/>
<polygon fill="#000000" stroke="#000000" points="1796.5674,-151.5001 1786.5673,-155 1796.5673,-158.5001 1796.5674,-151.5001"/>
</g>
<!-- GroupPipe -->
<g id="node11" class="node">
<title>GroupPipe</title>
<polygon fill="#ffffb3" stroke="#000000" points="1991.1558,-122 1914.8442,-122 1914.8442,-86 1991.1558,-86 1991.1558,-122"/>
<text text-anchor="middle" x="1953" y="-99.8" font-family="Times,serif" font-size="14.00" fill="#000000">GroupPipe</text>
</g>
<!-- GroupPipe&#45;&gt;UiModule -->
<g id="edge11" class="edge">
<title>GroupPipe&#45;&gt;UiModule</title>
<path fill="none" stroke="#000000" d="M1929.4322,-122.2458C1929.4322,-136.1772 1929.4322,-153 1929.4322,-153 1929.4322,-153 1796.7438,-153 1796.7438,-153"/>
<polygon fill="#000000" stroke="#000000" points="1796.7438,-149.5001 1786.7438,-153 1796.7437,-156.5001 1796.7438,-149.5001"/>
</g>
<!-- InputErrorsComponent -->
<g id="node12" class="node">
<title>InputErrorsComponent</title>
<polygon fill="#ffffb3" stroke="#000000" points="1896.8627,-122 1751.1373,-122 1751.1373,-86 1896.8627,-86 1896.8627,-122"/>
<text text-anchor="middle" x="1824" y="-99.8" font-family="Times,serif" font-size="14.00" fill="#000000">InputErrorsComponent</text>
</g>
<!-- InputErrorsComponent&#45;&gt;UiModule -->
<g id="edge12" class="edge">
<title>InputErrorsComponent&#45;&gt;UiModule</title>
<path fill="none" stroke="#000000" d="M1768.9211,-122.1061C1768.9211,-122.1061 1768.9211,-140.991 1768.9211,-140.991"/>
<polygon fill="#000000" stroke="#000000" points="1765.4212,-140.9909 1768.9211,-150.991 1772.4212,-140.991 1765.4212,-140.9909"/>
</g>
<!-- FormComponent -->
<g id="node13" class="node">
<title>FormComponent</title>
<polygon fill="#ffffb3" stroke="#000000" points="1732.6667,-122 1621.3333,-122 1621.3333,-86 1732.6667,-86 1732.6667,-122"/>
<text text-anchor="middle" x="1677" y="-99.8" font-family="Times,serif" font-size="14.00" fill="#000000">FormComponent</text>
</g>
<!-- FormComponent&#45;&gt;UiModule -->
<g id="edge13" class="edge">
<title>FormComponent&#45;&gt;UiModule</title>
<path fill="none" stroke="#000000" d="M1723.0298,-122.1061C1723.0298,-122.1061 1723.0298,-140.991 1723.0298,-140.991"/>
<polygon fill="#000000" stroke="#000000" points="1719.5299,-140.9909 1723.0298,-150.991 1726.5299,-140.991 1719.5299,-140.9909"/>
</g>
<!-- PopComponent -->
<g id="node14" class="node">
<title>PopComponent</title>
<polygon fill="#ffffb3" stroke="#000000" points="1603.6151,-122 1500.3849,-122 1500.3849,-86 1603.6151,-86 1603.6151,-122"/>
<text text-anchor="middle" x="1552" y="-99.8" font-family="Times,serif" font-size="14.00" fill="#000000">PopComponent</text>
</g>
<!-- PopComponent&#45;&gt;UiModule -->
<g id="edge14" class="edge">
<title>PopComponent&#45;&gt;UiModule</title>
<path fill="none" stroke="#000000" d="M1567.8508,-122.2458C1567.8508,-136.1772 1567.8508,-153 1567.8508,-153 1567.8508,-153 1703.1394,-153 1703.1394,-153"/>
<polygon fill="#000000" stroke="#000000" points="1703.1394,-156.5001 1713.1394,-153 1703.1394,-149.5001 1703.1394,-156.5001"/>
</g>
<!-- MenuComponent -->
<g id="node15" class="node">
<title>MenuComponent</title>
<polygon fill="#ffffb3" stroke="#000000" points="1481.9916,-122 1368.0084,-122 1368.0084,-86 1481.9916,-86 1481.9916,-122"/>
<text text-anchor="middle" x="1425" y="-99.8" font-family="Times,serif" font-size="14.00" fill="#000000">MenuComponent</text>
</g>
<!-- MenuComponent&#45;&gt;UiModule -->
<g id="edge15" class="edge">
<title>MenuComponent&#45;&gt;UiModule</title>
<path fill="none" stroke="#000000" d="M1425,-122.1243C1425,-136.7832 1425,-155 1425,-155 1425,-155 1703.3501,-155 1703.3501,-155"/>
<polygon fill="#000000" stroke="#000000" points="1703.3502,-158.5001 1713.3501,-155 1703.3501,-151.5001 1703.3502,-158.5001"/>
</g>
<!-- SelectComponent -->
<g id="node16" class="node">
<title>SelectComponent</title>
<polygon fill="#ffffb3" stroke="#000000" points="1349.5409,-122 1234.4591,-122 1234.4591,-86 1349.5409,-86 1349.5409,-122"/>
<text text-anchor="middle" x="1292" y="-99.8" font-family="Times,serif" font-size="14.00" fill="#000000">SelectComponent</text>
</g>
<!-- SelectComponent&#45;&gt;UiModule -->
<g id="edge16" class="edge">
<title>SelectComponent&#45;&gt;UiModule</title>
<path fill="none" stroke="#000000" d="M1295.6408,-122.2396C1295.6408,-137.5706 1295.6408,-157 1295.6408,-157 1295.6408,-157 1703.2028,-157 1703.2028,-157"/>
<polygon fill="#000000" stroke="#000000" points="1703.2028,-160.5001 1713.2028,-157 1703.2027,-153.5001 1703.2028,-160.5001"/>
</g>
<!-- LoginComponent -->
<g id="node17" class="node">
<title>LoginComponent</title>
<polygon fill="#ffffb3" stroke="#000000" points="1216.2758,-122 1101.7242,-122 1101.7242,-86 1216.2758,-86 1216.2758,-122"/>
<text text-anchor="middle" x="1159" y="-99.8" font-family="Times,serif" font-size="14.00" fill="#000000">LoginComponent</text>
</g>
<!-- LoginComponent&#45;&gt;UiModule -->
<g id="edge17" class="edge">
<title>LoginComponent&#45;&gt;UiModule</title>
<path fill="none" stroke="#000000" d="M1175.9023,-122.0091C1175.9023,-138.0494 1175.9023,-159 1175.9023,-159 1175.9023,-159 1703.2143,-159 1703.2143,-159"/>
<polygon fill="#000000" stroke="#000000" points="1703.2143,-162.5001 1713.2143,-159 1703.2142,-155.5001 1703.2143,-162.5001"/>
</g>
<!-- FieldHostDirective -->
<g id="node18" class="node">
<title>FieldHostDirective</title>
<polygon fill="#ffffb3" stroke="#000000" points="1083.8034,-122 960.1966,-122 960.1966,-86 1083.8034,-86 1083.8034,-122"/>
<text text-anchor="middle" x="1022" y="-99.8" font-family="Times,serif" font-size="14.00" fill="#000000">FieldHostDirective</text>
</g>
<!-- FieldHostDirective&#45;&gt;UiModule -->
<g id="edge18" class="edge">
<title>FieldHostDirective&#45;&gt;UiModule</title>
<path fill="none" stroke="#000000" d="M1047.172,-122.027C1047.172,-138.3976 1047.172,-160 1047.172,-160 1047.172,-160 1703.2025,-160 1703.2025,-160"/>
<polygon fill="#000000" stroke="#000000" points="1703.2025,-163.5001 1713.2025,-160 1703.2024,-156.5001 1703.2025,-163.5001"/>
</g>
<!-- DynamicFieldComponent -->
<g id="node19" class="node">
<title>DynamicFieldComponent</title>
<polygon fill="#ffffb3" stroke="#000000" points="942.9284,-122 781.0716,-122 781.0716,-86 942.9284,-86 942.9284,-122"/>
<text text-anchor="middle" x="862" y="-99.8" font-family="Times,serif" font-size="14.00" fill="#000000">DynamicFieldComponent</text>
</g>
<!-- DynamicFieldComponent&#45;&gt;UiModule -->
<g id="edge19" class="edge">
<title>DynamicFieldComponent&#45;&gt;UiModule</title>
<path fill="none" stroke="#000000" d="M908.9841,-122.0336C908.9841,-139.0597 908.9841,-162 908.9841,-162 908.9841,-162 1703.3218,-162 1703.3218,-162"/>
<polygon fill="#000000" stroke="#000000" points="1703.3218,-165.5001 1713.3218,-162 1703.3218,-158.5001 1703.3218,-165.5001"/>
</g>
<!-- DefaultInputComponent -->
<g id="node20" class="node">
<title>DefaultInputComponent</title>
<polygon fill="#ffffb3" stroke="#000000" points="763.3613,-122 610.6387,-122 610.6387,-86 763.3613,-86 763.3613,-122"/>
<text text-anchor="middle" x="687" y="-99.8" font-family="Times,serif" font-size="14.00" fill="#000000">DefaultInputComponent</text>
</g>
<!-- DefaultInputComponent&#45;&gt;UiModule -->
<g id="edge20" class="edge">
<title>DefaultInputComponent&#45;&gt;UiModule</title>
<path fill="none" stroke="#000000" d="M750.9553,-122.002C750.9553,-139.6754 750.9553,-164 750.9553,-164 750.9553,-164 1703.2586,-164 1703.2586,-164"/>
<polygon fill="#000000" stroke="#000000" points="1703.2587,-167.5001 1713.2586,-164 1703.2586,-160.5001 1703.2587,-167.5001"/>
</g>
<!-- DefaultOutputComponent -->
<g id="node21" class="node">
<title>DefaultOutputComponent</title>
<polygon fill="#ffffb3" stroke="#000000" points="592.1979,-122 429.8021,-122 429.8021,-86 592.1979,-86 592.1979,-122"/>
<text text-anchor="middle" x="511" y="-99.8" font-family="Times,serif" font-size="14.00" fill="#000000">DefaultOutputComponent</text>
</g>
<!-- DefaultOutputComponent&#45;&gt;UiModule -->
<g id="edge21" class="edge">
<title>DefaultOutputComponent&#45;&gt;UiModule</title>
<path fill="none" stroke="#000000" d="M511,-122.2667C511,-140.5552 511,-166 511,-166 511,-166 1703.2553,-166 1703.2553,-166"/>
<polygon fill="#000000" stroke="#000000" points="1703.2554,-169.5001 1713.2553,-166 1703.2553,-162.5001 1703.2554,-169.5001"/>
</g>
<!-- ReactiveFormsModule  -->
<g id="node26" class="node">
<title>ReactiveFormsModule </title>
<polygon fill="#fb8072" stroke="#000000" points="2933.8045,-252 2786.1955,-252 2786.1955,-216 2933.8045,-216 2933.8045,-252"/>
<text text-anchor="middle" x="2860" y="-229.8" font-family="Times,serif" font-size="14.00" fill="#000000">ReactiveFormsModule </text>
</g>
<!-- UiModule&#45;&gt;ReactiveFormsModule  -->
<g id="edge25" class="edge">
<title>UiModule&#45;&gt;ReactiveFormsModule </title>
<path fill="none" stroke="#000000" stroke-dasharray="5,2" d="M1786.7302,-173C1974.3597,-173 2817.0468,-173 2817.0468,-173 2817.0468,-173 2817.0468,-205.698 2817.0468,-205.698"/>
<polygon fill="#000000" stroke="#000000" points="2813.5469,-205.698 2817.0468,-215.698 2820.5469,-205.698 2813.5469,-205.698"/>
</g>
<!-- ListComponent  -->
<g id="node27" class="node">
<title>ListComponent </title>
<polygon fill="#fb8072" stroke="#000000" points="2768.1115,-252 2661.8885,-252 2661.8885,-216 2768.1115,-216 2768.1115,-252"/>
<text text-anchor="middle" x="2715" y="-229.8" font-family="Times,serif" font-size="14.00" fill="#000000">ListComponent </text>
</g>
<!-- UiModule&#45;&gt;ListComponent  -->
<g id="edge26" class="edge">
<title>UiModule&#45;&gt;ListComponent </title>
<path fill="none" stroke="#000000" stroke-dasharray="5,2" d="M1786.8132,-175C1959.597,-175 2681.7628,-175 2681.7628,-175 2681.7628,-175 2681.7628,-205.9775 2681.7628,-205.9775"/>
<polygon fill="#000000" stroke="#000000" points="2678.2629,-205.9774 2681.7628,-215.9775 2685.2629,-205.9775 2678.2629,-205.9774"/>
</g>
<!-- PaginationComponent  -->
<g id="node28" class="node">
<title>PaginationComponent </title>
<polygon fill="#fb8072" stroke="#000000" points="2643.2163,-252 2498.7837,-252 2498.7837,-216 2643.2163,-216 2643.2163,-252"/>
<text text-anchor="middle" x="2571" y="-229.8" font-family="Times,serif" font-size="14.00" fill="#000000">PaginationComponent </text>
</g>
<!-- UiModule&#45;&gt;PaginationComponent  -->
<g id="edge27" class="edge">
<title>UiModule&#45;&gt;PaginationComponent </title>
<path fill="none" stroke="#000000" stroke-dasharray="5,2" d="M1786.5734,-177C1941.4724,-177 2535.5419,-177 2535.5419,-177 2535.5419,-177 2535.5419,-205.9648 2535.5419,-205.9648"/>
<polygon fill="#000000" stroke="#000000" points="2532.042,-205.9648 2535.5419,-215.9648 2539.042,-205.9649 2532.042,-205.9648"/>
</g>
<!-- TabsComponent  -->
<g id="node29" class="node">
<title>TabsComponent </title>
<polygon fill="#fb8072" stroke="#000000" points="2481.0442,-252 2368.9558,-252 2368.9558,-216 2481.0442,-216 2481.0442,-252"/>
<text text-anchor="middle" x="2425" y="-229.8" font-family="Times,serif" font-size="14.00" fill="#000000">TabsComponent </text>
</g>
<!-- UiModule&#45;&gt;TabsComponent  -->
<g id="edge28" class="edge">
<title>UiModule&#45;&gt;TabsComponent </title>
<path fill="none" stroke="#000000" stroke-dasharray="5,2" d="M1786.6775,-178C1924.8367,-178 2406.044,-178 2406.044,-178 2406.044,-178 2406.044,-205.973 2406.044,-205.973"/>
<polygon fill="#000000" stroke="#000000" points="2402.5441,-205.973 2406.044,-215.973 2409.5441,-205.973 2402.5441,-205.973"/>
</g>
<!-- TabComponent  -->
<g id="node30" class="node">
<title>TabComponent </title>
<polygon fill="#fb8072" stroke="#000000" points="2351.1003,-252 2244.8997,-252 2244.8997,-216 2351.1003,-216 2351.1003,-252"/>
<text text-anchor="middle" x="2298" y="-229.8" font-family="Times,serif" font-size="14.00" fill="#000000">TabComponent </text>
</g>
<!-- UiModule&#45;&gt;TabComponent  -->
<g id="edge29" class="edge">
<title>UiModule&#45;&gt;TabComponent </title>
<path fill="none" stroke="#000000" stroke-dasharray="5,2" d="M1786.9102,-180C1906.3892,-180 2274.9031,-180 2274.9031,-180 2274.9031,-180 2274.9031,-205.7181 2274.9031,-205.7181"/>
<polygon fill="#000000" stroke="#000000" points="2271.4031,-205.718 2274.9031,-215.7181 2278.4031,-205.7181 2271.4031,-205.718"/>
</g>
<!-- MockupComponent  -->
<g id="node31" class="node">
<title>MockupComponent </title>
<polygon fill="#fb8072" stroke="#000000" points="2226.9925,-252 2095.0075,-252 2095.0075,-216 2226.9925,-216 2226.9925,-252"/>
<text text-anchor="middle" x="2161" y="-229.8" font-family="Times,serif" font-size="14.00" fill="#000000">MockupComponent </text>
</g>
<!-- UiModule&#45;&gt;MockupComponent  -->
<g id="edge30" class="edge">
<title>UiModule&#45;&gt;MockupComponent </title>
<path fill="none" stroke="#000000" stroke-dasharray="5,2" d="M1786.8849,-182C1881.2413,-182 2124.0076,-182 2124.0076,-182 2124.0076,-182 2124.0076,-205.8129 2124.0076,-205.8129"/>
<polygon fill="#000000" stroke="#000000" points="2120.5076,-205.8129 2124.0076,-215.8129 2127.5076,-205.813 2120.5076,-205.8129"/>
</g>
<!-- FilterComponent  -->
<g id="node32" class="node">
<title>FilterComponent </title>
<polygon fill="#fb8072" stroke="#000000" points="2077.6621,-252 1962.3379,-252 1962.3379,-216 2077.6621,-216 2077.6621,-252"/>
<text text-anchor="middle" x="2020" y="-229.8" font-family="Times,serif" font-size="14.00" fill="#000000">FilterComponent </text>
</g>
<!-- UiModule&#45;&gt;FilterComponent  -->
<g id="edge31" class="edge">
<title>UiModule&#45;&gt;FilterComponent </title>
<path fill="none" stroke="#000000" stroke-dasharray="5,2" d="M1786.7033,-184C1850.9133,-184 1976.8733,-184 1976.8733,-184 1976.8733,-184 1976.8733,-205.9489 1976.8733,-205.9489"/>
<polygon fill="#000000" stroke="#000000" points="1973.3733,-205.9488 1976.8733,-215.9489 1980.3733,-205.9489 1973.3733,-205.9488"/>
</g>
<!-- InputComponent  -->
<g id="node33" class="node">
<title>InputComponent </title>
<polygon fill="#fb8072" stroke="#000000" points="1944.3842,-252 1829.6158,-252 1829.6158,-216 1944.3842,-216 1944.3842,-252"/>
<text text-anchor="middle" x="1887" y="-229.8" font-family="Times,serif" font-size="14.00" fill="#000000">InputComponent </text>
</g>
<!-- UiModule&#45;&gt;InputComponent  -->
<g id="edge32" class="edge">
<title>UiModule&#45;&gt;InputComponent </title>
<path fill="none" stroke="#000000" stroke-dasharray="5,2" d="M1786.8079,-186C1819.9111,-186 1863.3698,-186 1863.3698,-186 1863.3698,-186 1863.3698,-205.8533 1863.3698,-205.8533"/>
<polygon fill="#000000" stroke="#000000" points="1859.8698,-205.8532 1863.3698,-215.8533 1866.8698,-205.8533 1859.8698,-205.8532"/>
</g>
<!-- OutputComponent  -->
<g id="node34" class="node">
<title>OutputComponent </title>
<polygon fill="#fb8072" stroke="#000000" points="1811.7205,-252 1688.2795,-252 1688.2795,-216 1811.7205,-216 1811.7205,-252"/>
<text text-anchor="middle" x="1750" y="-229.8" font-family="Times,serif" font-size="14.00" fill="#000000">OutputComponent </text>
</g>
<!-- UiModule&#45;&gt;OutputComponent  -->
<g id="edge33" class="edge">
<title>UiModule&#45;&gt;OutputComponent </title>
<path fill="none" stroke="#000000" stroke-dasharray="5,2" d="M1750,-187.1061C1750,-187.1061 1750,-205.991 1750,-205.991"/>
<polygon fill="#000000" stroke="#000000" points="1746.5001,-205.9909 1750,-215.991 1753.5001,-205.991 1746.5001,-205.9909"/>
</g>
<!-- ListItemsComponent  -->
<g id="node35" class="node">
<title>ListItemsComponent </title>
<polygon fill="#fb8072" stroke="#000000" points="1669.7121,-252 1532.2879,-252 1532.2879,-216 1669.7121,-216 1669.7121,-252"/>
<text text-anchor="middle" x="1601" y="-229.8" font-family="Times,serif" font-size="14.00" fill="#000000">ListItemsComponent </text>
</g>
<!-- UiModule&#45;&gt;ListItemsComponent  -->
<g id="edge34" class="edge">
<title>UiModule&#45;&gt;ListItemsComponent </title>
<path fill="none" stroke="#000000" stroke-dasharray="5,2" d="M1713.1612,-186C1683.0783,-186 1645.5114,-186 1645.5114,-186 1645.5114,-186 1645.5114,-205.8533 1645.5114,-205.8533"/>
<polygon fill="#000000" stroke="#000000" points="1642.0115,-205.8532 1645.5114,-215.8533 1649.0115,-205.8533 1642.0115,-205.8532"/>
</g>
<!-- ListHeaderComponent  -->
<g id="node36" class="node">
<title>ListHeaderComponent </title>
<polygon fill="#fb8072" stroke="#000000" points="1514.5218,-252 1367.4782,-252 1367.4782,-216 1514.5218,-216 1514.5218,-252"/>
<text text-anchor="middle" x="1441" y="-229.8" font-family="Times,serif" font-size="14.00" fill="#000000">ListHeaderComponent </text>
</g>
<!-- UiModule&#45;&gt;ListHeaderComponent  -->
<g id="edge35" class="edge">
<title>UiModule&#45;&gt;ListHeaderComponent </title>
<path fill="none" stroke="#000000" stroke-dasharray="5,2" d="M1713.4292,-184C1645.6781,-184 1507.4767,-184 1507.4767,-184 1507.4767,-184 1507.4767,-205.9489 1507.4767,-205.9489"/>
<polygon fill="#000000" stroke="#000000" points="1503.9768,-205.9488 1507.4767,-215.9489 1510.9768,-205.9489 1503.9768,-205.9488"/>
</g>
<!-- GroupPipe  -->
<g id="node37" class="node">
<title>GroupPipe </title>
<polygon fill="#fb8072" stroke="#000000" points="1349.1552,-252 1268.8448,-252 1268.8448,-216 1349.1552,-216 1349.1552,-252"/>
<text text-anchor="middle" x="1309" y="-229.8" font-family="Times,serif" font-size="14.00" fill="#000000">GroupPipe </text>
</g>
<!-- UiModule&#45;&gt;GroupPipe  -->
<g id="edge36" class="edge">
<title>UiModule&#45;&gt;GroupPipe </title>
<path fill="none" stroke="#000000" stroke-dasharray="5,2" d="M1713.1695,-182C1609.4393,-182 1322.3592,-182 1322.3592,-182 1322.3592,-182 1322.3592,-205.8129 1322.3592,-205.8129"/>
<polygon fill="#000000" stroke="#000000" points="1318.8593,-205.8129 1322.3592,-215.8129 1325.8593,-205.813 1318.8593,-205.8129"/>
</g>
<!-- FormComponent  -->
<g id="node38" class="node">
<title>FormComponent </title>
<polygon fill="#fb8072" stroke="#000000" points="1250.6663,-252 1135.3337,-252 1135.3337,-216 1250.6663,-216 1250.6663,-252"/>
<text text-anchor="middle" x="1193" y="-229.8" font-family="Times,serif" font-size="14.00" fill="#000000">FormComponent </text>
</g>
<!-- UiModule&#45;&gt;FormComponent  -->
<g id="edge37" class="edge">
<title>UiModule&#45;&gt;FormComponent </title>
<path fill="none" stroke="#000000" stroke-dasharray="5,2" d="M1713.0863,-180C1596.2803,-180 1242.4066,-180 1242.4066,-180 1242.4066,-180 1242.4066,-205.7181 1242.4066,-205.7181"/>
<polygon fill="#000000" stroke="#000000" points="1238.9066,-205.718 1242.4066,-215.7181 1245.9066,-205.7181 1238.9066,-205.718"/>
</g>
<!-- PopComponent  -->
<g id="node39" class="node">
<title>PopComponent </title>
<polygon fill="#fb8072" stroke="#000000" points="1117.1157,-252 1010.8843,-252 1010.8843,-216 1117.1157,-216 1117.1157,-252"/>
<text text-anchor="middle" x="1064" y="-229.8" font-family="Times,serif" font-size="14.00" fill="#000000">PopComponent </text>
</g>
<!-- UiModule&#45;&gt;PopComponent  -->
<g id="edge38" class="edge">
<title>UiModule&#45;&gt;PopComponent </title>
<path fill="none" stroke="#000000" stroke-dasharray="5,2" d="M1713.2612,-178C1577.1547,-178 1109.4599,-178 1109.4599,-178 1109.4599,-178 1109.4599,-205.973 1109.4599,-205.973"/>
<polygon fill="#000000" stroke="#000000" points="1105.9599,-205.973 1109.4599,-215.973 1112.9599,-205.973 1105.9599,-205.973"/>
</g>
<!-- MenuComponent  -->
<g id="node40" class="node">
<title>MenuComponent </title>
<polygon fill="#fb8072" stroke="#000000" points="992.9926,-252 875.0074,-252 875.0074,-216 992.9926,-216 992.9926,-252"/>
<text text-anchor="middle" x="934" y="-229.8" font-family="Times,serif" font-size="14.00" fill="#000000">MenuComponent </text>
</g>
<!-- UiModule&#45;&gt;MenuComponent  -->
<g id="edge39" class="edge">
<title>UiModule&#45;&gt;MenuComponent </title>
<path fill="none" stroke="#000000" stroke-dasharray="5,2" d="M1713.2151,-177C1559.5054,-177 976.5472,-177 976.5472,-177 976.5472,-177 976.5472,-205.9648 976.5472,-205.9648"/>
<polygon fill="#000000" stroke="#000000" points="973.0472,-205.9648 976.5472,-215.9648 980.0472,-205.9649 973.0472,-205.9648"/>
</g>
<!-- SelectComponent  -->
<g id="node41" class="node">
<title>SelectComponent </title>
<polygon fill="#fb8072" stroke="#000000" points="857.54,-252 738.46,-252 738.46,-216 857.54,-216 857.54,-252"/>
<text text-anchor="middle" x="798" y="-229.8" font-family="Times,serif" font-size="14.00" fill="#000000">SelectComponent </text>
</g>
<!-- UiModule&#45;&gt;SelectComponent  -->
<g id="edge40" class="edge">
<title>UiModule&#45;&gt;SelectComponent </title>
<path fill="none" stroke="#000000" stroke-dasharray="5,2" d="M1713.2329,-175C1540.6653,-175 819.4031,-175 819.4031,-175 819.4031,-175 819.4031,-205.9775 819.4031,-205.9775"/>
<polygon fill="#000000" stroke="#000000" points="815.9031,-205.9774 819.4031,-215.9775 822.9031,-205.9775 815.9031,-205.9774"/>
</g>
<!-- LoginComponent  -->
<g id="node42" class="node">
<title>LoginComponent </title>
<polygon fill="#fb8072" stroke="#000000" points="720.2759,-252 601.7241,-252 601.7241,-216 720.2759,-216 720.2759,-252"/>
<text text-anchor="middle" x="661" y="-229.8" font-family="Times,serif" font-size="14.00" fill="#000000">LoginComponent </text>
</g>
<!-- UiModule&#45;&gt;LoginComponent  -->
<g id="edge41" class="edge">
<title>UiModule&#45;&gt;LoginComponent </title>
<path fill="none" stroke="#000000" stroke-dasharray="5,2" d="M1713.2904,-173C1523.8234,-173 665.3536,-173 665.3536,-173 665.3536,-173 665.3536,-205.698 665.3536,-205.698"/>
<polygon fill="#000000" stroke="#000000" points="661.8535,-205.698 665.3536,-215.698 668.8535,-205.698 661.8535,-205.698"/>
</g>
<!-- BrowserModule -->
<g id="node23" class="node">
<title>BrowserModule</title>
<polygon fill="#8dd3c7" stroke="#000000" points="406.4734,-122 403.4734,-126 382.4734,-126 379.4734,-122 299.5266,-122 299.5266,-86 406.4734,-86 406.4734,-122"/>
<text text-anchor="middle" x="353" y="-99.8" font-family="Times,serif" font-size="14.00" fill="#000000">BrowserModule</text>
</g>
<!-- BrowserModule&#45;&gt;UiModule -->
<g id="edge22" class="edge">
<title>BrowserModule&#45;&gt;UiModule</title>
<path fill="none" stroke="#000000" d="M353,-122.1686C353,-141.0898 353,-168 353,-168 353,-168 1703.3517,-168 1703.3517,-168"/>
<polygon fill="#000000" stroke="#000000" points="1703.3517,-171.5001 1713.3517,-168 1703.3517,-164.5001 1703.3517,-171.5001"/>
</g>
<!-- FormsModule -->
<g id="node24" class="node">
<title>FormsModule</title>
<polygon fill="#8dd3c7" stroke="#000000" points="281.8288,-122 278.8288,-126 257.8288,-126 254.8288,-122 186.1712,-122 186.1712,-86 281.8288,-86 281.8288,-122"/>
<text text-anchor="middle" x="234" y="-99.8" font-family="Times,serif" font-size="14.00" fill="#000000">FormsModule</text>
</g>
<!-- FormsModule&#45;&gt;UiModule -->
<g id="edge23" class="edge">
<title>FormsModule&#45;&gt;UiModule</title>
<path fill="none" stroke="#000000" d="M234,-122.1061C234,-141.3391 234,-169 234,-169 234,-169 1703.2768,-169 1703.2768,-169"/>
<polygon fill="#000000" stroke="#000000" points="1703.2768,-172.5001 1713.2768,-169 1703.2768,-165.5001 1703.2768,-172.5001"/>
</g>
<!-- ReactiveFormsModule -->
<g id="node25" class="node">
<title>ReactiveFormsModule</title>
<polygon fill="#8dd3c7" stroke="#000000" points="168.3047,-122 165.3047,-126 144.3047,-126 141.3047,-122 23.6953,-122 23.6953,-86 168.3047,-86 168.3047,-122"/>
<text text-anchor="middle" x="96" y="-99.8" font-family="Times,serif" font-size="14.00" fill="#000000">ReactiveFormsModule</text>
</g>
<!-- ReactiveFormsModule&#45;&gt;UiModule -->
<g id="edge24" class="edge">
<title>ReactiveFormsModule&#45;&gt;UiModule</title>
<path fill="none" stroke="#000000" d="M96,-122.308C96,-142.1455 96,-171 96,-171 96,-171 1703.1348,-171 1703.1348,-171"/>
<polygon fill="#000000" stroke="#000000" points="1703.1349,-174.5001 1713.1348,-171 1703.1348,-167.5001 1703.1349,-174.5001"/>
</g>
</g>
</svg>
