<?xml version="1.0" encoding="UTF-8" standalone="no"?>
<!DOCTYPE svg PUBLIC "-//W3C//DTD SVG 1.1//EN"
 "http://www.w3.org/Graphics/SVG/1.1/DTD/svg11.dtd">
<!-- Generated by graphviz version 2.40.1 (20161225.0304)
 -->
<!-- Title: dependencies Pages: 1 -->
<svg width="1753pt" height="284pt"
 viewBox="0.00 0.00 1753.00 284.00" xmlns="http://www.w3.org/2000/svg" xmlns:xlink="http://www.w3.org/1999/xlink">
<g id="graph0" class="graph" transform="scale(1 1) rotate(0) translate(4 280)">
<title>dependencies</title>
<polygon fill="#ffffff" stroke="transparent" points="-4,4 -4,-280 1749,-280 1749,4 -4,4"/>
<text text-anchor="start" x="851.5091" y="-42.4" font-family="sans-serif" font-weight="bold" font-size="14.00" fill="#000000">Legend</text>
<polygon fill="#ffffb3" stroke="transparent" points="638.5,-10 638.5,-30 658.5,-30 658.5,-10 638.5,-10"/>
<text text-anchor="start" x="662.129" y="-15.4" font-family="sans-serif" font-size="14.00" fill="#000000"> &#160;Declarations</text>
<polygon fill="#8dd3c7" stroke="transparent" points="751.5,-10 751.5,-30 771.5,-30 771.5,-10 751.5,-10"/>
<text text-anchor="start" x="775.2251" y="-15.4" font-family="sans-serif" font-size="14.00" fill="#000000"> &#160;Module</text>
<polygon fill="#80b1d3" stroke="transparent" points="837.5,-10 837.5,-30 857.5,-30 857.5,-10 837.5,-10"/>
<text text-anchor="start" x="861.2812" y="-15.4" font-family="sans-serif" font-size="14.00" fill="#000000"> &#160;Bootstrap</text>
<polygon fill="#fdb462" stroke="transparent" points="934.5,-10 934.5,-30 954.5,-30 954.5,-10 934.5,-10"/>
<text text-anchor="start" x="958.1732" y="-15.4" font-family="sans-serif" font-size="14.00" fill="#000000"> &#160;Providers</text>
<polygon fill="#fb8072" stroke="transparent" points="1030.5,-10 1030.5,-30 1050.5,-30 1050.5,-10 1030.5,-10"/>
<text text-anchor="start" x="1054.2258" y="-15.4" font-family="sans-serif" font-size="14.00" fill="#000000"> &#160;Exports</text>
<g id="clust1" class="cluster">
<title>cluster_UiModule</title>
<polygon fill="none" stroke="#000000" stroke-dasharray="1,5" points="8,-70 8,-268 1737,-268 1737,-70 8,-70"/>
</g>
<g id="clust2" class="cluster">
<title>cluster_UiModule_declarations</title>
<polygon fill="none" stroke="#000000" points="260,-78 260,-130 1729,-130 1729,-78 260,-78"/>
</g>
<g id="clust14" class="cluster">
<title>cluster_UiModule_imports</title>
<polygon fill="none" stroke="#000000" points="16,-78 16,-130 252,-130 252,-78 16,-78"/>
</g>
<g id="clust15" class="cluster">
<title>cluster_UiModule_exports</title>
<polygon fill="none" stroke="#000000" points="111,-208 111,-260 1617,-260 1617,-208 111,-208"/>
</g>
<!-- ListComponent -->
<g id="node1" class="node">
<title>ListComponent</title>
<polygon fill="#ffffb3" stroke="#000000" points="1720.6109,-122 1617.3891,-122 1617.3891,-86 1720.6109,-86 1720.6109,-122"/>
<text text-anchor="middle" x="1669" y="-99.8" font-family="Times,serif" font-size="14.00" fill="#000000">ListComponent</text>
</g>
<!-- UiModule -->
<g id="node12" class="node">
<title>UiModule</title>
<polygon fill="#8dd3c7" stroke="#000000" points="897.5484,-187 894.5484,-191 873.5484,-191 870.5484,-187 824.4516,-187 824.4516,-151 897.5484,-151 897.5484,-187"/>
<text text-anchor="middle" x="861" y="-164.8" font-family="Times,serif" font-size="14.00" fill="#000000">UiModule</text>
</g>
<!-- ListComponent&#45;&gt;UiModule -->
<g id="edge1" class="edge">
<title>ListComponent&#45;&gt;UiModule</title>
<path fill="none" stroke="#000000" d="M1669,-122.1061C1669,-141.3391 1669,-169 1669,-169 1669,-169 907.5523,-169 907.5523,-169"/>
<polygon fill="#000000" stroke="#000000" points="907.5523,-165.5001 897.5523,-169 907.5523,-172.5001 907.5523,-165.5001"/>
</g>
<!-- PaginationComponent -->
<g id="node2" class="node">
<title>PaginationComponent</title>
<polygon fill="#ffffb3" stroke="#000000" points="1599.7162,-122 1458.2838,-122 1458.2838,-86 1599.7162,-86 1599.7162,-122"/>
<text text-anchor="middle" x="1529" y="-99.8" font-family="Times,serif" font-size="14.00" fill="#000000">PaginationComponent</text>
</g>
<!-- PaginationComponent&#45;&gt;UiModule -->
<g id="edge2" class="edge">
<title>PaginationComponent&#45;&gt;UiModule</title>
<path fill="none" stroke="#000000" d="M1471.375,-122.2667C1471.375,-140.5552 1471.375,-166 1471.375,-166 1471.375,-166 907.8071,-166 907.8071,-166"/>
<polygon fill="#000000" stroke="#000000" points="907.8072,-162.5001 897.8071,-166 907.8071,-169.5001 907.8072,-162.5001"/>
</g>
<!-- TabsComponent -->
<g id="node3" class="node">
<title>TabsComponent</title>
<polygon fill="#ffffb3" stroke="#000000" points="1440.0452,-122 1331.9548,-122 1331.9548,-86 1440.0452,-86 1440.0452,-122"/>
<text text-anchor="middle" x="1386" y="-99.8" font-family="Times,serif" font-size="14.00" fill="#000000">TabsComponent</text>
</g>
<!-- TabsComponent&#45;&gt;UiModule -->
<g id="edge3" class="edge">
<title>TabsComponent&#45;&gt;UiModule</title>
<path fill="none" stroke="#000000" d="M1335.685,-122.0225C1335.685,-139.3734 1335.685,-163 1335.685,-163 1335.685,-163 907.8527,-163 907.8527,-163"/>
<polygon fill="#000000" stroke="#000000" points="907.8528,-159.5001 897.8527,-163 907.8527,-166.5001 907.8528,-159.5001"/>
</g>
<!-- TabComponent -->
<g id="node4" class="node">
<title>TabComponent</title>
<polygon fill="#ffffb3" stroke="#000000" points="1313.5996,-122 1210.4004,-122 1210.4004,-86 1313.5996,-86 1313.5996,-122"/>
<text text-anchor="middle" x="1262" y="-99.8" font-family="Times,serif" font-size="14.00" fill="#000000">TabComponent</text>
</g>
<!-- TabComponent&#45;&gt;UiModule -->
<g id="edge4" class="edge">
<title>TabComponent&#45;&gt;UiModule</title>
<path fill="none" stroke="#000000" d="M1279.1833,-122.027C1279.1833,-138.3976 1279.1833,-160 1279.1833,-160 1279.1833,-160 907.7445,-160 907.7445,-160"/>
<polygon fill="#000000" stroke="#000000" points="907.7445,-156.5001 897.7445,-160 907.7444,-163.5001 907.7445,-156.5001"/>
</g>
<!-- MockupComponent -->
<g id="node5" class="node">
<title>MockupComponent</title>
<polygon fill="#ffffb3" stroke="#000000" points="1191.9916,-122 1064.0084,-122 1064.0084,-86 1191.9916,-86 1191.9916,-122"/>
<text text-anchor="middle" x="1128" y="-99.8" font-family="Times,serif" font-size="14.00" fill="#000000">MockupComponent</text>
</g>
<!-- MockupComponent&#45;&gt;UiModule -->
<g id="edge5" class="edge">
<title>MockupComponent&#45;&gt;UiModule</title>
<path fill="none" stroke="#000000" d="M1076.723,-122.2396C1076.723,-137.5706 1076.723,-157 1076.723,-157 1076.723,-157 907.5945,-157 907.5945,-157"/>
<polygon fill="#000000" stroke="#000000" points="907.5945,-153.5001 897.5945,-157 907.5944,-160.5001 907.5945,-153.5001"/>
</g>
<!-- FilterComponent -->
<g id="node6" class="node">
<title>FilterComponent</title>
<polygon fill="#ffffb3" stroke="#000000" points="1045.6625,-122 934.3375,-122 934.3375,-86 1045.6625,-86 1045.6625,-122"/>
<text text-anchor="middle" x="990" y="-99.8" font-family="Times,serif" font-size="14.00" fill="#000000">FilterComponent</text>
</g>
<!-- FilterComponent&#45;&gt;UiModule -->
<g id="edge6" class="edge">
<title>FilterComponent&#45;&gt;UiModule</title>
<path fill="none" stroke="#000000" d="M1009.3054,-122.0511C1009.3054,-136.373 1009.3054,-154 1009.3054,-154 1009.3054,-154 907.6598,-154 907.6598,-154"/>
<polygon fill="#000000" stroke="#000000" points="907.6598,-150.5001 897.6598,-154 907.6597,-157.5001 907.6598,-150.5001"/>
</g>
<!-- FieldComponent -->
<g id="node7" class="node">
<title>FieldComponent</title>
<polygon fill="#ffffb3" stroke="#000000" points="916.1109,-122 805.8891,-122 805.8891,-86 916.1109,-86 916.1109,-122"/>
<text text-anchor="middle" x="861" y="-99.8" font-family="Times,serif" font-size="14.00" fill="#000000">FieldComponent</text>
</g>
<!-- FieldComponent&#45;&gt;UiModule -->
<g id="edge7" class="edge">
<title>FieldComponent&#45;&gt;UiModule</title>
<path fill="none" stroke="#000000" d="M861,-122.1061C861,-122.1061 861,-140.991 861,-140.991"/>
<polygon fill="#000000" stroke="#000000" points="857.5001,-140.9909 861,-150.991 864.5001,-140.991 857.5001,-140.9909"/>
</g>
<!-- ListItemsComponent -->
<g id="node8" class="node">
<title>ListItemsComponent</title>
<polygon fill="#ffffb3" stroke="#000000" points="788.212,-122 653.788,-122 653.788,-86 788.212,-86 788.212,-122"/>
<text text-anchor="middle" x="721" y="-99.8" font-family="Times,serif" font-size="14.00" fill="#000000">ListItemsComponent</text>
</g>
<!-- ListItemsComponent&#45;&gt;UiModule -->
<g id="edge8" class="edge">
<title>ListItemsComponent&#45;&gt;UiModule</title>
<path fill="none" stroke="#000000" d="M710.0649,-122.0511C710.0649,-136.373 710.0649,-154 710.0649,-154 710.0649,-154 814.0771,-154 814.0771,-154"/>
<polygon fill="#000000" stroke="#000000" points="814.0771,-157.5001 824.0771,-154 814.0771,-150.5001 814.0771,-157.5001"/>
</g>
<!-- ListHeaderComponent -->
<g id="node9" class="node">
<title>ListHeaderComponent</title>
<polygon fill="#ffffb3" stroke="#000000" points="635.5226,-122 492.4774,-122 492.4774,-86 635.5226,-86 635.5226,-122"/>
<text text-anchor="middle" x="564" y="-99.8" font-family="Times,serif" font-size="14.00" fill="#000000">ListHeaderComponent</text>
</g>
<!-- ListHeaderComponent&#45;&gt;UiModule -->
<g id="edge9" class="edge">
<title>ListHeaderComponent&#45;&gt;UiModule</title>
<path fill="none" stroke="#000000" d="M575.9525,-122.2396C575.9525,-137.5706 575.9525,-157 575.9525,-157 575.9525,-157 814.3186,-157 814.3186,-157"/>
<polygon fill="#000000" stroke="#000000" points="814.3186,-160.5001 824.3186,-157 814.3185,-153.5001 814.3186,-160.5001"/>
</g>
<!-- GroupPipe -->
<g id="node10" class="node">
<title>GroupPipe</title>
<polygon fill="#ffffb3" stroke="#000000" points="474.1558,-122 397.8442,-122 397.8442,-86 474.1558,-86 474.1558,-122"/>
<text text-anchor="middle" x="436" y="-99.8" font-family="Times,serif" font-size="14.00" fill="#000000">GroupPipe</text>
</g>
<!-- GroupPipe&#45;&gt;UiModule -->
<g id="edge10" class="edge">
<title>GroupPipe&#45;&gt;UiModule</title>
<path fill="none" stroke="#000000" d="M436,-122.027C436,-138.3976 436,-160 436,-160 436,-160 814.3969,-160 814.3969,-160"/>
<polygon fill="#000000" stroke="#000000" points="814.3969,-163.5001 824.3969,-160 814.3969,-156.5001 814.3969,-163.5001"/>
</g>
<!-- FormComponent -->
<g id="node11" class="node">
<title>FormComponent</title>
<polygon fill="#ffffb3" stroke="#000000" points="379.6667,-122 268.3333,-122 268.3333,-86 379.6667,-86 379.6667,-122"/>
<text text-anchor="middle" x="324" y="-99.8" font-family="Times,serif" font-size="14.00" fill="#000000">FormComponent</text>
</g>
<!-- FormComponent&#45;&gt;UiModule -->
<g id="edge11" class="edge">
<title>FormComponent&#45;&gt;UiModule</title>
<path fill="none" stroke="#000000" d="M365.6611,-122.0225C365.6611,-139.3734 365.6611,-163 365.6611,-163 365.6611,-163 814.1738,-163 814.1738,-163"/>
<polygon fill="#000000" stroke="#000000" points="814.1738,-166.5001 824.1738,-163 814.1737,-159.5001 814.1738,-166.5001"/>
</g>
<!-- ListComponent  -->
<g id="node15" class="node">
<title>ListComponent </title>
<polygon fill="#fb8072" stroke="#000000" points="1609.1115,-252 1502.8885,-252 1502.8885,-216 1609.1115,-216 1609.1115,-252"/>
<text text-anchor="middle" x="1556" y="-229.8" font-family="Times,serif" font-size="14.00" fill="#000000">ListComponent </text>
</g>
<!-- UiModule&#45;&gt;ListComponent  -->
<g id="edge14" class="edge">
<title>UiModule&#45;&gt;ListComponent </title>
<path fill="none" stroke="#000000" stroke-dasharray="5,2" d="M897.6183,-172C1040.298,-172 1551.1513,-172 1551.1513,-172 1551.1513,-172 1551.1513,-205.7333 1551.1513,-205.7333"/>
<polygon fill="#000000" stroke="#000000" points="1547.6514,-205.7333 1551.1513,-215.7333 1554.6514,-205.7333 1547.6514,-205.7333"/>
</g>
<!-- PaginationComponent  -->
<g id="node16" class="node">
<title>PaginationComponent </title>
<polygon fill="#fb8072" stroke="#000000" points="1484.2163,-252 1339.7837,-252 1339.7837,-216 1484.2163,-216 1484.2163,-252"/>
<text text-anchor="middle" x="1412" y="-229.8" font-family="Times,serif" font-size="14.00" fill="#000000">PaginationComponent </text>
</g>
<!-- UiModule&#45;&gt;PaginationComponent  -->
<g id="edge15" class="edge">
<title>UiModule&#45;&gt;PaginationComponent </title>
<path fill="none" stroke="#000000" stroke-dasharray="5,2" d="M897.7753,-175C1017.7309,-175 1389.9571,-175 1389.9571,-175 1389.9571,-175 1389.9571,-205.9775 1389.9571,-205.9775"/>
<polygon fill="#000000" stroke="#000000" points="1386.4571,-205.9774 1389.9571,-215.9775 1393.4571,-205.9775 1386.4571,-205.9774"/>
</g>
<!-- TabsComponent  -->
<g id="node17" class="node">
<title>TabsComponent </title>
<polygon fill="#fb8072" stroke="#000000" points="1322.0442,-252 1209.9558,-252 1209.9558,-216 1322.0442,-216 1322.0442,-252"/>
<text text-anchor="middle" x="1266" y="-229.8" font-family="Times,serif" font-size="14.00" fill="#000000">TabsComponent </text>
</g>
<!-- UiModule&#45;&gt;TabsComponent  -->
<g id="edge16" class="edge">
<title>UiModule&#45;&gt;TabsComponent </title>
<path fill="none" stroke="#000000" stroke-dasharray="5,2" d="M897.802,-178C993.8682,-178 1244.8167,-178 1244.8167,-178 1244.8167,-178 1244.8167,-205.973 1244.8167,-205.973"/>
<polygon fill="#000000" stroke="#000000" points="1241.3168,-205.973 1244.8167,-215.973 1248.3168,-205.973 1241.3168,-205.973"/>
</g>
<!-- TabComponent  -->
<g id="node18" class="node">
<title>TabComponent </title>
<polygon fill="#fb8072" stroke="#000000" points="1192.1003,-252 1085.8997,-252 1085.8997,-216 1192.1003,-216 1192.1003,-252"/>
<text text-anchor="middle" x="1139" y="-229.8" font-family="Times,serif" font-size="14.00" fill="#000000">TabComponent </text>
</g>
<!-- UiModule&#45;&gt;TabComponent  -->
<g id="edge17" class="edge">
<title>UiModule&#45;&gt;TabComponent </title>
<path fill="none" stroke="#000000" stroke-dasharray="5,2" d="M897.6095,-181C973.0572,-181 1138.848,-181 1138.848,-181 1138.848,-181 1138.848,-205.7604 1138.848,-205.7604"/>
<polygon fill="#000000" stroke="#000000" points="1135.3481,-205.7604 1138.848,-215.7604 1142.3481,-205.7604 1135.3481,-205.7604"/>
</g>
<!-- MockupComponent  -->
<g id="node19" class="node">
<title>MockupComponent </title>
<polygon fill="#fb8072" stroke="#000000" points="1067.9925,-252 936.0075,-252 936.0075,-216 1067.9925,-216 1067.9925,-252"/>
<text text-anchor="middle" x="1002" y="-229.8" font-family="Times,serif" font-size="14.00" fill="#000000">MockupComponent </text>
</g>
<!-- UiModule&#45;&gt;MockupComponent  -->
<g id="edge18" class="edge">
<title>UiModule&#45;&gt;MockupComponent </title>
<path fill="none" stroke="#000000" stroke-dasharray="5,2" d="M897.6009,-184C930.2006,-184 972.7798,-184 972.7798,-184 972.7798,-184 972.7798,-205.9489 972.7798,-205.9489"/>
<polygon fill="#000000" stroke="#000000" points="969.2799,-205.9488 972.7798,-215.9489 976.2799,-205.9489 969.2799,-205.9488"/>
</g>
<!-- FilterComponent  -->
<g id="node20" class="node">
<title>FilterComponent </title>
<polygon fill="#fb8072" stroke="#000000" points="918.6621,-252 803.3379,-252 803.3379,-216 918.6621,-216 918.6621,-252"/>
<text text-anchor="middle" x="861" y="-229.8" font-family="Times,serif" font-size="14.00" fill="#000000">FilterComponent </text>
</g>
<!-- UiModule&#45;&gt;FilterComponent  -->
<g id="edge19" class="edge">
<title>UiModule&#45;&gt;FilterComponent </title>
<path fill="none" stroke="#000000" stroke-dasharray="5,2" d="M861,-187.1061C861,-187.1061 861,-205.991 861,-205.991"/>
<polygon fill="#000000" stroke="#000000" points="857.5001,-205.9909 861,-215.991 864.5001,-205.991 857.5001,-205.9909"/>
</g>
<!-- FieldComponent  -->
<g id="node21" class="node">
<title>FieldComponent </title>
<polygon fill="#fb8072" stroke="#000000" points="785.6115,-252 672.3885,-252 672.3885,-216 785.6115,-216 785.6115,-252"/>
<text text-anchor="middle" x="729" y="-229.8" font-family="Times,serif" font-size="14.00" fill="#000000">FieldComponent </text>
</g>
<!-- UiModule&#45;&gt;FieldComponent  -->
<g id="edge20" class="edge">
<title>UiModule&#45;&gt;FieldComponent </title>
<path fill="none" stroke="#000000" stroke-dasharray="5,2" d="M824.2911,-184C791.2769,-184 747.9351,-184 747.9351,-184 747.9351,-184 747.9351,-205.9489 747.9351,-205.9489"/>
<polygon fill="#000000" stroke="#000000" points="744.4352,-205.9488 747.9351,-215.9489 751.4352,-205.9489 744.4352,-205.9488"/>
</g>
<!-- ListItemsComponent  -->
<g id="node22" class="node">
<title>ListItemsComponent </title>
<polygon fill="#fb8072" stroke="#000000" points="653.7121,-252 516.2879,-252 516.2879,-216 653.7121,-216 653.7121,-252"/>
<text text-anchor="middle" x="585" y="-229.8" font-family="Times,serif" font-size="14.00" fill="#000000">ListItemsComponent </text>
</g>
<!-- UiModule&#45;&gt;ListItemsComponent  -->
<g id="edge21" class="edge">
<title>UiModule&#45;&gt;ListItemsComponent </title>
<path fill="none" stroke="#000000" stroke-dasharray="5,2" d="M824.326,-181C762.6456,-181 644.8084,-181 644.8084,-181 644.8084,-181 644.8084,-205.7604 644.8084,-205.7604"/>
<polygon fill="#000000" stroke="#000000" points="641.3085,-205.7604 644.8084,-215.7604 648.3085,-205.7604 641.3085,-205.7604"/>
</g>
<!-- ListHeaderComponent  -->
<g id="node23" class="node">
<title>ListHeaderComponent </title>
<polygon fill="#fb8072" stroke="#000000" points="498.5218,-252 351.4782,-252 351.4782,-216 498.5218,-216 498.5218,-252"/>
<text text-anchor="middle" x="425" y="-229.8" font-family="Times,serif" font-size="14.00" fill="#000000">ListHeaderComponent </text>
</g>
<!-- UiModule&#45;&gt;ListHeaderComponent  -->
<g id="edge22" class="edge">
<title>UiModule&#45;&gt;ListHeaderComponent </title>
<path fill="none" stroke="#000000" stroke-dasharray="5,2" d="M824.4397,-178C729.6473,-178 483.2833,-178 483.2833,-178 483.2833,-178 483.2833,-205.973 483.2833,-205.973"/>
<polygon fill="#000000" stroke="#000000" points="479.7834,-205.973 483.2833,-215.973 486.7834,-205.973 479.7834,-205.973"/>
</g>
<!-- GroupPipe  -->
<g id="node24" class="node">
<title>GroupPipe </title>
<polygon fill="#fb8072" stroke="#000000" points="333.1552,-252 252.8448,-252 252.8448,-216 333.1552,-216 333.1552,-252"/>
<text text-anchor="middle" x="293" y="-229.8" font-family="Times,serif" font-size="14.00" fill="#000000">GroupPipe </text>
</g>
<!-- UiModule&#45;&gt;GroupPipe  -->
<g id="edge23" class="edge">
<title>UiModule&#45;&gt;GroupPipe </title>
<path fill="none" stroke="#000000" stroke-dasharray="5,2" d="M824.232,-175C699.563,-175 300.6222,-175 300.6222,-175 300.6222,-175 300.6222,-205.9775 300.6222,-205.9775"/>
<polygon fill="#000000" stroke="#000000" points="297.1223,-205.9774 300.6222,-215.9775 304.1223,-205.9775 297.1223,-205.9774"/>
</g>
<!-- FormComponent  -->
<g id="node25" class="node">
<title>FormComponent </title>
<polygon fill="#fb8072" stroke="#000000" points="234.6663,-252 119.3337,-252 119.3337,-216 234.6663,-216 234.6663,-252"/>
<text text-anchor="middle" x="177" y="-229.8" font-family="Times,serif" font-size="14.00" fill="#000000">FormComponent </text>
</g>
<!-- UiModule&#45;&gt;FormComponent  -->
<g id="edge24" class="edge">
<title>UiModule&#45;&gt;FormComponent </title>
<path fill="none" stroke="#000000" stroke-dasharray="5,2" d="M824.2323,-172C683.385,-172 186.0482,-172 186.0482,-172 186.0482,-172 186.0482,-205.7333 186.0482,-205.7333"/>
<polygon fill="#000000" stroke="#000000" points="182.5481,-205.7333 186.0482,-215.7333 189.5481,-205.7333 182.5481,-205.7333"/>
</g>
<!-- BrowserModule -->
<g id="node13" class="node">
<title>BrowserModule</title>
<polygon fill="#8dd3c7" stroke="#000000" points="244.4734,-122 241.4734,-126 220.4734,-126 217.4734,-122 137.5266,-122 137.5266,-86 244.4734,-86 244.4734,-122"/>
<text text-anchor="middle" x="191" y="-99.8" font-family="Times,serif" font-size="14.00" fill="#000000">BrowserModule</text>
</g>
<!-- BrowserModule&#45;&gt;UiModule -->
<g id="edge12" class="edge">
<title>BrowserModule&#45;&gt;UiModule</title>
<path fill="none" stroke="#000000" d="M239.5349,-122.2667C239.5349,-140.5552 239.5349,-166 239.5349,-166 239.5349,-166 814.4447,-166 814.4447,-166"/>
<polygon fill="#000000" stroke="#000000" points="814.4447,-169.5001 824.4447,-166 814.4446,-162.5001 814.4447,-169.5001"/>
</g>
<!-- FormsModule -->
<g id="node14" class="node">
<title>FormsModule</title>
<polygon fill="#8dd3c7" stroke="#000000" points="119.8288,-122 116.8288,-126 95.8288,-126 92.8288,-122 24.1712,-122 24.1712,-86 119.8288,-86 119.8288,-122"/>
<text text-anchor="middle" x="72" y="-99.8" font-family="Times,serif" font-size="14.00" fill="#000000">FormsModule</text>
</g>
<!-- FormsModule&#45;&gt;UiModule -->
<g id="edge13" class="edge">
<title>FormsModule&#45;&gt;UiModule</title>
<path fill="none" stroke="#000000" d="M71.8764,-122.1061C71.8764,-141.3391 71.8764,-169 71.8764,-169 71.8764,-169 814.2599,-169 814.2599,-169"/>
<polygon fill="#000000" stroke="#000000" points="814.2599,-172.5001 824.2599,-169 814.2598,-165.5001 814.2599,-172.5001"/>
</g>
</g>
</svg>
