<?xml version="1.0" encoding="UTF-8" standalone="no"?>
<!DOCTYPE svg PUBLIC "-//W3C//DTD SVG 1.1//EN"
 "http://www.w3.org/Graphics/SVG/1.1/DTD/svg11.dtd">
<!-- Generated by graphviz version 2.40.1 (20161225.0304)
 -->
<!-- Title: dependencies Pages: 1 -->
<svg width="1109pt" height="284pt"
 viewBox="0.00 0.00 1109.00 284.00" xmlns="http://www.w3.org/2000/svg" xmlns:xlink="http://www.w3.org/1999/xlink">
<g id="graph0" class="graph" transform="scale(1 1) rotate(0) translate(4 280)">
<title>dependencies</title>
<polygon fill="#ffffff" stroke="transparent" points="-4,4 -4,-280 1105,-280 1105,4 -4,4"/>
<text text-anchor="start" x="529.5091" y="-42.4" font-family="sans-serif" font-weight="bold" font-size="14.00" fill="#000000">Legend</text>
<polygon fill="#ffffb3" stroke="transparent" points="316.5,-10 316.5,-30 336.5,-30 336.5,-10 316.5,-10"/>
<text text-anchor="start" x="340.129" y="-15.4" font-family="sans-serif" font-size="14.00" fill="#000000"> &#160;Declarations</text>
<polygon fill="#8dd3c7" stroke="transparent" points="429.5,-10 429.5,-30 449.5,-30 449.5,-10 429.5,-10"/>
<text text-anchor="start" x="453.2251" y="-15.4" font-family="sans-serif" font-size="14.00" fill="#000000"> &#160;Module</text>
<polygon fill="#80b1d3" stroke="transparent" points="515.5,-10 515.5,-30 535.5,-30 535.5,-10 515.5,-10"/>
<text text-anchor="start" x="539.2812" y="-15.4" font-family="sans-serif" font-size="14.00" fill="#000000"> &#160;Bootstrap</text>
<polygon fill="#fdb462" stroke="transparent" points="612.5,-10 612.5,-30 632.5,-30 632.5,-10 612.5,-10"/>
<text text-anchor="start" x="636.1732" y="-15.4" font-family="sans-serif" font-size="14.00" fill="#000000"> &#160;Providers</text>
<polygon fill="#fb8072" stroke="transparent" points="708.5,-10 708.5,-30 728.5,-30 728.5,-10 708.5,-10"/>
<text text-anchor="start" x="732.2258" y="-15.4" font-family="sans-serif" font-size="14.00" fill="#000000"> &#160;Exports</text>
<g id="clust1" class="cluster">
<title>cluster_UiModule</title>
<polygon fill="none" stroke="#000000" stroke-dasharray="1,5" points="8,-70 8,-268 1093,-268 1093,-70 8,-70"/>
</g>
<g id="clust3" class="cluster">
<title>cluster_UiModule_imports</title>
<polygon fill="none" stroke="#000000" points="35,-78 35,-130 1074,-130 1074,-78 35,-78"/>
</g>
<g id="clust4" class="cluster">
<title>cluster_UiModule_exports</title>
<polygon fill="none" stroke="#000000" points="16,-208 16,-260 1085,-260 1085,-208 16,-208"/>
</g>
<!-- UtilityModule -->
<g id="node1" class="node">
<title>UtilityModule</title>
<polygon fill="#8dd3c7" stroke="#000000" points="1066.1095,-122 1063.1095,-126 1042.1095,-126 1039.1095,-122 969.8905,-122 969.8905,-86 1066.1095,-86 1066.1095,-122"/>
<text text-anchor="middle" x="1018" y="-99.8" font-family="Times,serif" font-size="14.00" fill="#000000">UtilityModule</text>
</g>
<!-- UiModule -->
<g id="node10" class="node">
<title>UiModule</title>
<polygon fill="#8dd3c7" stroke="#000000" points="576.5484,-187 573.5484,-191 552.5484,-191 549.5484,-187 503.4516,-187 503.4516,-151 576.5484,-151 576.5484,-187"/>
<text text-anchor="middle" x="540" y="-164.8" font-family="Times,serif" font-size="14.00" fill="#000000">UiModule</text>
</g>
<!-- UtilityModule&#45;&gt;UiModule -->
<g id="edge1" class="edge">
<title>UtilityModule&#45;&gt;UiModule</title>
<path fill="none" stroke="#000000" d="M973.5703,-122.2222C973.5703,-140.8285 973.5703,-167 973.5703,-167 973.5703,-167 586.5923,-167 586.5923,-167"/>
<polygon fill="#000000" stroke="#000000" points="586.5923,-163.5001 576.5923,-167 586.5923,-170.5001 586.5923,-163.5001"/>
</g>
<!-- NotificationsModule -->
<g id="node2" class="node">
<title>NotificationsModule</title>
<polygon fill="#8dd3c7" stroke="#000000" points="952.1443,-122 949.1443,-126 928.1443,-126 925.1443,-122 819.8557,-122 819.8557,-86 952.1443,-86 952.1443,-122"/>
<text text-anchor="middle" x="886" y="-99.8" font-family="Times,serif" font-size="14.00" fill="#000000">NotificationsModule</text>
</g>
<!-- NotificationsModule&#45;&gt;UiModule -->
<g id="edge2" class="edge">
<title>NotificationsModule&#45;&gt;UiModule</title>
<path fill="none" stroke="#000000" d="M838.375,-122.0225C838.375,-139.3734 838.375,-163 838.375,-163 838.375,-163 586.5866,-163 586.5866,-163"/>
<polygon fill="#000000" stroke="#000000" points="586.5867,-159.5001 576.5866,-163 586.5866,-166.5001 586.5867,-159.5001"/>
</g>
<!-- PopModule -->
<g id="node3" class="node">
<title>PopModule</title>
<polygon fill="#8dd3c7" stroke="#000000" points="801.8331,-122 798.8331,-126 777.8331,-126 774.8331,-122 720.1669,-122 720.1669,-86 801.8331,-86 801.8331,-122"/>
<text text-anchor="middle" x="761" y="-99.8" font-family="Times,serif" font-size="14.00" fill="#000000">PopModule</text>
</g>
<!-- PopModule&#45;&gt;UiModule -->
<g id="edge3" class="edge">
<title>PopModule&#45;&gt;UiModule</title>
<path fill="none" stroke="#000000" d="M774.7535,-122.0091C774.7535,-138.0494 774.7535,-159 774.7535,-159 774.7535,-159 586.6802,-159 586.6802,-159"/>
<polygon fill="#000000" stroke="#000000" points="586.6803,-155.5001 576.6802,-159 586.6802,-162.5001 586.6803,-155.5001"/>
</g>
<!-- LoaderModule -->
<g id="node4" class="node">
<title>LoaderModule</title>
<polygon fill="#8dd3c7" stroke="#000000" points="702.6924,-122 699.6924,-126 678.6924,-126 675.6924,-122 603.3076,-122 603.3076,-86 702.6924,-86 702.6924,-122"/>
<text text-anchor="middle" x="653" y="-99.8" font-family="Times,serif" font-size="14.00" fill="#000000">LoaderModule</text>
</g>
<!-- LoaderModule&#45;&gt;UiModule -->
<g id="edge4" class="edge">
<title>LoaderModule&#45;&gt;UiModule</title>
<path fill="none" stroke="#000000" d="M636.468,-122.1243C636.468,-136.7832 636.468,-155 636.468,-155 636.468,-155 586.7456,-155 586.7456,-155"/>
<polygon fill="#000000" stroke="#000000" points="586.7456,-151.5001 576.7456,-155 586.7456,-158.5001 586.7456,-151.5001"/>
</g>
<!-- FormModule -->
<g id="node5" class="node">
<title>FormModule</title>
<polygon fill="#8dd3c7" stroke="#000000" points="584.8837,-122 581.8837,-126 560.8837,-126 557.8837,-122 495.1163,-122 495.1163,-86 584.8837,-86 584.8837,-122"/>
<text text-anchor="middle" x="540" y="-99.8" font-family="Times,serif" font-size="14.00" fill="#000000">FormModule</text>
</g>
<!-- FormModule&#45;&gt;UiModule -->
<g id="edge5" class="edge">
<title>FormModule&#45;&gt;UiModule</title>
<path fill="none" stroke="#000000" d="M540,-122.1061C540,-122.1061 540,-140.991 540,-140.991"/>
<polygon fill="#000000" stroke="#000000" points="536.5001,-140.9909 540,-150.991 543.5001,-140.991 536.5001,-140.9909"/>
</g>
<!-- ListModule -->
<g id="node6" class="node">
<title>ListModule</title>
<polygon fill="#8dd3c7" stroke="#000000" points="476.8289,-122 473.8289,-126 452.8289,-126 449.8289,-122 395.1711,-122 395.1711,-86 476.8289,-86 476.8289,-122"/>
<text text-anchor="middle" x="436" y="-99.8" font-family="Times,serif" font-size="14.00" fill="#000000">ListModule</text>
</g>
<!-- ListModule&#45;&gt;UiModule -->
<g id="edge6" class="edge">
<title>ListModule&#45;&gt;UiModule</title>
<path fill="none" stroke="#000000" d="M449.5547,-122.1243C449.5547,-136.7832 449.5547,-155 449.5547,-155 449.5547,-155 493.2124,-155 493.2124,-155"/>
<polygon fill="#000000" stroke="#000000" points="493.2125,-158.5001 503.2124,-155 493.2124,-151.5001 493.2125,-158.5001"/>
</g>
<!-- SelectModule -->
<g id="node7" class="node">
<title>SelectModule</title>
<polygon fill="#8dd3c7" stroke="#000000" points="376.7577,-122 373.7577,-126 352.7577,-126 349.7577,-122 283.2423,-122 283.2423,-86 376.7577,-86 376.7577,-122"/>
<text text-anchor="middle" x="330" y="-99.8" font-family="Times,serif" font-size="14.00" fill="#000000">SelectModule</text>
</g>
<!-- SelectModule&#45;&gt;UiModule -->
<g id="edge7" class="edge">
<title>SelectModule&#45;&gt;UiModule</title>
<path fill="none" stroke="#000000" d="M372.7537,-122.0091C372.7537,-138.0494 372.7537,-159 372.7537,-159 372.7537,-159 493.2971,-159 493.2971,-159"/>
<polygon fill="#000000" stroke="#000000" points="493.2971,-162.5001 503.2971,-159 493.2971,-155.5001 493.2971,-162.5001"/>
</g>
<!-- InteractionModule -->
<g id="node8" class="node">
<title>InteractionModule</title>
<polygon fill="#8dd3c7" stroke="#000000" points="265.1867,-122 262.1867,-126 241.1867,-126 238.1867,-122 144.8133,-122 144.8133,-86 265.1867,-86 265.1867,-122"/>
<text text-anchor="middle" x="205" y="-99.8" font-family="Times,serif" font-size="14.00" fill="#000000">InteractionModule</text>
</g>
<!-- InteractionModule&#45;&gt;UiModule -->
<g id="edge8" class="edge">
<title>InteractionModule&#45;&gt;UiModule</title>
<path fill="none" stroke="#000000" d="M259.4683,-122.0225C259.4683,-139.3734 259.4683,-163 259.4683,-163 259.4683,-163 493.3254,-163 493.3254,-163"/>
<polygon fill="#000000" stroke="#000000" points="493.3254,-166.5001 503.3254,-163 493.3253,-159.5001 493.3254,-166.5001"/>
</g>
<!-- IconModule -->
<g id="node9" class="node">
<title>IconModule</title>
<polygon fill="#8dd3c7" stroke="#000000" points="127.4261,-122 124.4261,-126 103.4261,-126 100.4261,-122 42.5739,-122 42.5739,-86 127.4261,-86 127.4261,-122"/>
<text text-anchor="middle" x="85" y="-99.8" font-family="Times,serif" font-size="14.00" fill="#000000">IconModule</text>
</g>
<!-- IconModule&#45;&gt;UiModule -->
<g id="edge9" class="edge">
<title>IconModule&#45;&gt;UiModule</title>
<path fill="none" stroke="#000000" d="M119.5875,-122.2222C119.5875,-140.8285 119.5875,-167 119.5875,-167 119.5875,-167 493.4266,-167 493.4266,-167"/>
<polygon fill="#000000" stroke="#000000" points="493.4266,-170.5001 503.4266,-167 493.4266,-163.5001 493.4266,-170.5001"/>
</g>
<!-- UtilityModule  -->
<g id="node11" class="node">
<title>UtilityModule </title>
<polygon fill="#fb8072" stroke="#000000" points="1076.6102,-252 977.3898,-252 977.3898,-216 1076.6102,-216 1076.6102,-252"/>
<text text-anchor="middle" x="1027" y="-229.8" font-family="Times,serif" font-size="14.00" fill="#000000">UtilityModule </text>
</g>
<!-- UiModule&#45;&gt;UtilityModule  -->
<g id="edge10" class="edge">
<title>UiModule&#45;&gt;UtilityModule </title>
<path fill="none" stroke="#000000" stroke-dasharray="5,2" d="M576.5955,-171C688.9898,-171 1021.625,-171 1021.625,-171 1021.625,-171 1021.625,-205.7778 1021.625,-205.7778"/>
<polygon fill="#000000" stroke="#000000" points="1018.1251,-205.7778 1021.625,-215.7778 1025.1251,-205.7778 1018.1251,-205.7778"/>
</g>
<!-- PopModule  -->
<g id="node12" class="node">
<title>PopModule </title>
<polygon fill="#fb8072" stroke="#000000" points="959.3326,-252 874.6674,-252 874.6674,-216 959.3326,-216 959.3326,-252"/>
<text text-anchor="middle" x="917" y="-229.8" font-family="Times,serif" font-size="14.00" fill="#000000">PopModule </text>
</g>
<!-- UiModule&#45;&gt;PopModule  -->
<g id="edge11" class="edge">
<title>UiModule&#45;&gt;PopModule </title>
<path fill="none" stroke="#000000" stroke-dasharray="5,2" d="M576.8301,-175C671.0466,-175 913.4529,-175 913.4529,-175 913.4529,-175 913.4529,-205.9775 913.4529,-205.9775"/>
<polygon fill="#000000" stroke="#000000" points="909.9529,-205.9774 913.4529,-215.9775 916.9529,-205.9775 909.9529,-205.9774"/>
</g>
<!-- NotificationsModule  -->
<g id="node13" class="node">
<title>NotificationsModule </title>
<polygon fill="#fb8072" stroke="#000000" points="857.1439,-252 720.8561,-252 720.8561,-216 857.1439,-216 857.1439,-252"/>
<text text-anchor="middle" x="789" y="-229.8" font-family="Times,serif" font-size="14.00" fill="#000000">NotificationsModule </text>
</g>
<!-- UiModule&#45;&gt;NotificationsModule  -->
<g id="edge12" class="edge">
<title>UiModule&#45;&gt;NotificationsModule </title>
<path fill="none" stroke="#000000" stroke-dasharray="5,2" d="M576.6793,-179C636.3463,-179 747.8408,-179 747.8408,-179 747.8408,-179 747.8408,-205.9909 747.8408,-205.9909"/>
<polygon fill="#000000" stroke="#000000" points="744.3409,-205.9909 747.8408,-215.9909 751.3409,-205.991 744.3409,-205.9909"/>
</g>
<!-- LoaderModule  -->
<g id="node14" class="node">
<title>LoaderModule </title>
<polygon fill="#fb8072" stroke="#000000" points="703.1927,-252 600.8073,-252 600.8073,-216 703.1927,-216 703.1927,-252"/>
<text text-anchor="middle" x="652" y="-229.8" font-family="Times,serif" font-size="14.00" fill="#000000">LoaderModule </text>
</g>
<!-- UiModule&#45;&gt;LoaderModule  -->
<g id="edge13" class="edge">
<title>UiModule&#45;&gt;LoaderModule </title>
<path fill="none" stroke="#000000" stroke-dasharray="5,2" d="M576.7722,-183C615.0675,-183 669.532,-183 669.532,-183 669.532,-183 669.532,-205.8757 669.532,-205.8757"/>
<polygon fill="#000000" stroke="#000000" points="666.0321,-205.8757 669.532,-215.8757 673.0321,-205.8757 666.0321,-205.8757"/>
</g>
<!-- ListModule  -->
<g id="node15" class="node">
<title>ListModule </title>
<polygon fill="#fb8072" stroke="#000000" points="582.3284,-252 497.6716,-252 497.6716,-216 582.3284,-216 582.3284,-252"/>
<text text-anchor="middle" x="540" y="-229.8" font-family="Times,serif" font-size="14.00" fill="#000000">ListModule </text>
</g>
<!-- UiModule&#45;&gt;ListModule  -->
<g id="edge14" class="edge">
<title>UiModule&#45;&gt;ListModule </title>
<path fill="none" stroke="#000000" stroke-dasharray="5,2" d="M540,-187.1061C540,-187.1061 540,-205.991 540,-205.991"/>
<polygon fill="#000000" stroke="#000000" points="536.5001,-205.9909 540,-215.991 543.5001,-205.991 536.5001,-205.9909"/>
</g>
<!-- FormModule  -->
<g id="node16" class="node">
<title>FormModule </title>
<polygon fill="#fb8072" stroke="#000000" points="479.8844,-252 386.1156,-252 386.1156,-216 479.8844,-216 479.8844,-252"/>
<text text-anchor="middle" x="433" y="-229.8" font-family="Times,serif" font-size="14.00" fill="#000000">FormModule </text>
</g>
<!-- UiModule&#45;&gt;FormModule  -->
<g id="edge15" class="edge">
<title>UiModule&#45;&gt;FormModule </title>
<path fill="none" stroke="#000000" stroke-dasharray="5,2" d="M503.4493,-183C468.9409,-183 422.4453,-183 422.4453,-183 422.4453,-183 422.4453,-205.8757 422.4453,-205.8757"/>
<polygon fill="#000000" stroke="#000000" points="418.9454,-205.8757 422.4453,-215.8757 425.9454,-205.8757 418.9454,-205.8757"/>
</g>
<!-- SelectModule  -->
<g id="node17" class="node">
<title>SelectModule </title>
<polygon fill="#fb8072" stroke="#000000" points="368.7577,-252 271.2423,-252 271.2423,-216 368.7577,-216 368.7577,-252"/>
<text text-anchor="middle" x="320" y="-229.8" font-family="Times,serif" font-size="14.00" fill="#000000">SelectModule </text>
</g>
<!-- UiModule&#45;&gt;SelectModule  -->
<g id="edge16" class="edge">
<title>UiModule&#45;&gt;SelectModule </title>
<path fill="none" stroke="#000000" stroke-dasharray="5,2" d="M503.1906,-179C441.9691,-179 325.875,-179 325.875,-179 325.875,-179 325.875,-205.9909 325.875,-205.9909"/>
<polygon fill="#000000" stroke="#000000" points="322.3751,-205.9909 325.875,-215.9909 329.3751,-205.991 322.3751,-205.9909"/>
</g>
<!-- InteractionModule  -->
<g id="node18" class="node">
<title>InteractionModule </title>
<polygon fill="#fb8072" stroke="#000000" points="253.687,-252 130.313,-252 130.313,-216 253.687,-216 253.687,-252"/>
<text text-anchor="middle" x="192" y="-229.8" font-family="Times,serif" font-size="14.00" fill="#000000">InteractionModule </text>
</g>
<!-- UiModule&#45;&gt;InteractionModule  -->
<g id="edge17" class="edge">
<title>UiModule&#45;&gt;InteractionModule </title>
<path fill="none" stroke="#000000" stroke-dasharray="5,2" d="M503.2235,-175C415.1454,-175 199.375,-175 199.375,-175 199.375,-175 199.375,-205.9775 199.375,-205.9775"/>
<polygon fill="#000000" stroke="#000000" points="195.8751,-205.9774 199.375,-215.9775 202.8751,-205.9775 195.8751,-205.9774"/>
</g>
<!-- IconModule  -->
<g id="node19" class="node">
<title>IconModule </title>
<polygon fill="#fb8072" stroke="#000000" points="111.925,-252 24.075,-252 24.075,-216 111.925,-216 111.925,-252"/>
<text text-anchor="middle" x="68" y="-229.8" font-family="Times,serif" font-size="14.00" fill="#000000">IconModule </text>
</g>
<!-- UiModule&#45;&gt;IconModule  -->
<g id="edge18" class="edge">
<title>UiModule&#45;&gt;IconModule </title>
<path fill="none" stroke="#000000" stroke-dasharray="5,2" d="M503.3119,-171C393.8912,-171 77.375,-171 77.375,-171 77.375,-171 77.375,-205.7778 77.375,-205.7778"/>
<polygon fill="#000000" stroke="#000000" points="73.8751,-205.7778 77.375,-215.7778 80.8751,-205.7778 73.8751,-205.7778"/>
</g>
</g>
</svg>
