<?xml version="1.0" encoding="UTF-8" standalone="no"?>
<!DOCTYPE svg PUBLIC "-//W3C//DTD SVG 1.1//EN"
 "http://www.w3.org/Graphics/SVG/1.1/DTD/svg11.dtd">
<!-- Generated by graphviz version 2.40.1 (20161225.0304)
 -->
<!-- Title: dependencies Pages: 1 -->
<svg width="4078pt" height="349pt"
 viewBox="0.00 0.00 4078.00 349.00" xmlns="http://www.w3.org/2000/svg" xmlns:xlink="http://www.w3.org/1999/xlink">
<g id="graph0" class="graph" transform="scale(1 1) rotate(0) translate(4 345)">
<title>dependencies</title>
<polygon fill="#ffffff" stroke="transparent" points="-4,4 -4,-345 4074,-345 4074,4 -4,4"/>
<text text-anchor="start" x="2014.0091" y="-42.4" font-family="sans-serif" font-weight="bold" font-size="14.00" fill="#000000">Legend</text>
<polygon fill="#ffffb3" stroke="transparent" points="1801,-10 1801,-30 1821,-30 1821,-10 1801,-10"/>
<text text-anchor="start" x="1824.629" y="-15.4" font-family="sans-serif" font-size="14.00" fill="#000000"> &#160;Declarations</text>
<polygon fill="#8dd3c7" stroke="transparent" points="1914,-10 1914,-30 1934,-30 1934,-10 1914,-10"/>
<text text-anchor="start" x="1937.7251" y="-15.4" font-family="sans-serif" font-size="14.00" fill="#000000"> &#160;Module</text>
<polygon fill="#80b1d3" stroke="transparent" points="2000,-10 2000,-30 2020,-30 2020,-10 2000,-10"/>
<text text-anchor="start" x="2023.7812" y="-15.4" font-family="sans-serif" font-size="14.00" fill="#000000"> &#160;Bootstrap</text>
<polygon fill="#fdb462" stroke="transparent" points="2097,-10 2097,-30 2117,-30 2117,-10 2097,-10"/>
<text text-anchor="start" x="2120.6732" y="-15.4" font-family="sans-serif" font-size="14.00" fill="#000000"> &#160;Providers</text>
<polygon fill="#fb8072" stroke="transparent" points="2193,-10 2193,-30 2213,-30 2213,-10 2193,-10"/>
<text text-anchor="start" x="2216.7258" y="-15.4" font-family="sans-serif" font-size="14.00" fill="#000000"> &#160;Exports</text>
<g id="clust1" class="cluster">
<title>cluster_UiModule</title>
<polygon fill="none" stroke="#000000" stroke-dasharray="1,5" points="8,-70 8,-333 4062,-333 4062,-70 8,-70"/>
</g>
<g id="clust2" class="cluster">
<title>cluster_UiModule_declarations</title>
<polygon fill="none" stroke="#000000" points="779,-143 779,-195 4054,-195 4054,-143 779,-143"/>
</g>
<g id="clust18" class="cluster">
<title>cluster_UiModule_SelectComponent_providers</title>
<polygon fill="none" stroke="#000000" points="1702,-78 1702,-130 2220,-130 2220,-78 1702,-78"/>
</g>
<g id="clust26" class="cluster">
<title>cluster_UiModule_imports</title>
<polygon fill="none" stroke="#000000" points="373,-143 373,-195 771,-195 771,-143 373,-143"/>
</g>
<g id="clust27" class="cluster">
<title>cluster_UiModule_exports</title>
<polygon fill="none" stroke="#000000" points="744,-273 744,-325 3578,-325 3578,-273 744,-273"/>
</g>
<g id="clust29" class="cluster">
<title>cluster_UiModule_providers</title>
<polygon fill="none" stroke="#000000" points="16,-143 16,-195 365,-195 365,-143 16,-143"/>
</g>
<!-- ListComponent -->
<g id="node1" class="node">
<title>ListComponent</title>
<polygon fill="#ffffb3" stroke="#000000" points="4045.6109,-187 3942.3891,-187 3942.3891,-151 4045.6109,-151 4045.6109,-187"/>
<text text-anchor="middle" x="3994" y="-164.8" font-family="Times,serif" font-size="14.00" fill="#000000">ListComponent</text>
</g>
<!-- UiModule -->
<g id="node24" class="node">
<title>UiModule</title>
<polygon fill="#8dd3c7" stroke="#000000" points="2193.5484,-252 2190.5484,-256 2169.5484,-256 2166.5484,-252 2120.4516,-252 2120.4516,-216 2193.5484,-216 2193.5484,-252"/>
<text text-anchor="middle" x="2157" y="-229.8" font-family="Times,serif" font-size="14.00" fill="#000000">UiModule</text>
</g>
<!-- ListComponent&#45;&gt;UiModule -->
<g id="edge1" class="edge">
<title>ListComponent&#45;&gt;UiModule</title>
<path fill="none" stroke="#000000" d="M3994,-187.2228C3994,-207.3652 3994,-237 3994,-237 3994,-237 2203.6948,-237 2203.6948,-237"/>
<polygon fill="#000000" stroke="#000000" points="2203.6948,-233.5001 2193.6948,-237 2203.6947,-240.5001 2203.6948,-233.5001"/>
</g>
<!-- PaginationComponent -->
<g id="node2" class="node">
<title>PaginationComponent</title>
<polygon fill="#ffffb3" stroke="#000000" points="3924.7162,-187 3783.2838,-187 3783.2838,-151 3924.7162,-151 3924.7162,-187"/>
<text text-anchor="middle" x="3854" y="-164.8" font-family="Times,serif" font-size="14.00" fill="#000000">PaginationComponent</text>
</g>
<!-- PaginationComponent&#45;&gt;UiModule -->
<g id="edge2" class="edge">
<title>PaginationComponent&#45;&gt;UiModule</title>
<path fill="none" stroke="#000000" d="M3854,-187.0348C3854,-206.5762 3854,-235 3854,-235 3854,-235 2203.6249,-235 2203.6249,-235"/>
<polygon fill="#000000" stroke="#000000" points="2203.6249,-231.5001 2193.6249,-235 2203.6249,-238.5001 2203.6249,-231.5001"/>
</g>
<!-- TabsComponent -->
<g id="node3" class="node">
<title>TabsComponent</title>
<polygon fill="#ffffb3" stroke="#000000" points="3765.0452,-187 3656.9548,-187 3656.9548,-151 3765.0452,-151 3765.0452,-187"/>
<text text-anchor="middle" x="3711" y="-164.8" font-family="Times,serif" font-size="14.00" fill="#000000">TabsComponent</text>
</g>
<!-- TabsComponent&#45;&gt;UiModule -->
<g id="edge3" class="edge">
<title>TabsComponent&#45;&gt;UiModule</title>
<path fill="none" stroke="#000000" d="M3711,-187.1061C3711,-206.3391 3711,-234 3711,-234 3711,-234 2203.881,-234 2203.881,-234"/>
<polygon fill="#000000" stroke="#000000" points="2203.881,-230.5001 2193.881,-234 2203.8809,-237.5001 2203.881,-230.5001"/>
</g>
<!-- TabComponent -->
<g id="node4" class="node">
<title>TabComponent</title>
<polygon fill="#ffffb3" stroke="#000000" points="3638.5996,-187 3535.4004,-187 3535.4004,-151 3638.5996,-151 3638.5996,-187"/>
<text text-anchor="middle" x="3587" y="-164.8" font-family="Times,serif" font-size="14.00" fill="#000000">TabComponent</text>
</g>
<!-- TabComponent&#45;&gt;UiModule -->
<g id="edge4" class="edge">
<title>TabComponent&#45;&gt;UiModule</title>
<path fill="none" stroke="#000000" d="M3552.6762,-187.2222C3552.6762,-205.8285 3552.6762,-232 3552.6762,-232 3552.6762,-232 2203.6136,-232 2203.6136,-232"/>
<polygon fill="#000000" stroke="#000000" points="2203.6136,-228.5001 2193.6136,-232 2203.6135,-235.5001 2203.6136,-228.5001"/>
</g>
<!-- MockupComponent -->
<g id="node5" class="node">
<title>MockupComponent</title>
<polygon fill="#ffffb3" stroke="#000000" points="3516.9916,-187 3389.0084,-187 3389.0084,-151 3516.9916,-151 3516.9916,-187"/>
<text text-anchor="middle" x="3453" y="-164.8" font-family="Times,serif" font-size="14.00" fill="#000000">MockupComponent</text>
</g>
<!-- MockupComponent&#45;&gt;UiModule -->
<g id="edge5" class="edge">
<title>MockupComponent&#45;&gt;UiModule</title>
<path fill="none" stroke="#000000" d="M3396.6548,-187.2667C3396.6548,-205.5552 3396.6548,-231 3396.6548,-231 3396.6548,-231 2203.7641,-231 2203.7641,-231"/>
<polygon fill="#000000" stroke="#000000" points="2203.7641,-227.5001 2193.7641,-231 2203.764,-234.5001 2203.7641,-227.5001"/>
</g>
<!-- FilterComponent -->
<g id="node6" class="node">
<title>FilterComponent</title>
<polygon fill="#ffffb3" stroke="#000000" points="3370.6625,-187 3259.3375,-187 3259.3375,-151 3370.6625,-151 3370.6625,-187"/>
<text text-anchor="middle" x="3315" y="-164.8" font-family="Times,serif" font-size="14.00" fill="#000000">FilterComponent</text>
</g>
<!-- FilterComponent&#45;&gt;UiModule -->
<g id="edge6" class="edge">
<title>FilterComponent&#45;&gt;UiModule</title>
<path fill="none" stroke="#000000" d="M3269.2635,-187.002C3269.2635,-204.6754 3269.2635,-229 3269.2635,-229 3269.2635,-229 2203.6902,-229 2203.6902,-229"/>
<polygon fill="#000000" stroke="#000000" points="2203.6902,-225.5001 2193.6902,-229 2203.6902,-232.5001 2203.6902,-225.5001"/>
</g>
<!-- InputComponent -->
<g id="node7" class="node">
<title>InputComponent</title>
<polygon fill="#ffffb3" stroke="#000000" points="3241.3837,-187 3130.6163,-187 3130.6163,-151 3241.3837,-151 3241.3837,-187"/>
<text text-anchor="middle" x="3186" y="-164.8" font-family="Times,serif" font-size="14.00" fill="#000000">InputComponent</text>
</g>
<!-- InputComponent&#45;&gt;UiModule -->
<g id="edge7" class="edge">
<title>InputComponent&#45;&gt;UiModule</title>
<path fill="none" stroke="#000000" d="M3205.8419,-187.0336C3205.8419,-204.0597 3205.8419,-227 3205.8419,-227 3205.8419,-227 2203.7138,-227 2203.7138,-227"/>
<polygon fill="#000000" stroke="#000000" points="2203.7139,-223.5001 2193.7138,-227 2203.7138,-230.5001 2203.7139,-223.5001"/>
</g>
<!-- OutputComponent -->
<g id="node8" class="node">
<title>OutputComponent</title>
<polygon fill="#ffffb3" stroke="#000000" points="3112.2204,-187 2991.7796,-187 2991.7796,-151 3112.2204,-151 3112.2204,-187"/>
<text text-anchor="middle" x="3052" y="-164.8" font-family="Times,serif" font-size="14.00" fill="#000000">OutputComponent</text>
</g>
<!-- OutputComponent&#45;&gt;UiModule -->
<g id="edge8" class="edge">
<title>OutputComponent&#45;&gt;UiModule</title>
<path fill="none" stroke="#000000" d="M2998.4339,-187.0352C2998.4339,-203.7344 2998.4339,-226 2998.4339,-226 2998.4339,-226 2203.6964,-226 2203.6964,-226"/>
<polygon fill="#000000" stroke="#000000" points="2203.6965,-222.5001 2193.6964,-226 2203.6964,-229.5001 2203.6965,-222.5001"/>
</g>
<!-- ListItemsComponent -->
<g id="node9" class="node">
<title>ListItemsComponent</title>
<polygon fill="#ffffb3" stroke="#000000" points="2974.212,-187 2839.788,-187 2839.788,-151 2974.212,-151 2974.212,-187"/>
<text text-anchor="middle" x="2907" y="-164.8" font-family="Times,serif" font-size="14.00" fill="#000000">ListItemsComponent</text>
</g>
<!-- ListItemsComponent&#45;&gt;UiModule -->
<g id="edge9" class="edge">
<title>ListItemsComponent&#45;&gt;UiModule</title>
<path fill="none" stroke="#000000" d="M2851.32,-187.0091C2851.32,-203.0494 2851.32,-224 2851.32,-224 2851.32,-224 2203.8394,-224 2203.8394,-224"/>
<polygon fill="#000000" stroke="#000000" points="2203.8395,-220.5001 2193.8394,-224 2203.8394,-227.5001 2203.8395,-220.5001"/>
</g>
<!-- ListHeaderComponent -->
<g id="node10" class="node">
<title>ListHeaderComponent</title>
<polygon fill="#ffffb3" stroke="#000000" points="2821.5226,-187 2678.4774,-187 2678.4774,-151 2821.5226,-151 2821.5226,-187"/>
<text text-anchor="middle" x="2750" y="-164.8" font-family="Times,serif" font-size="14.00" fill="#000000">ListHeaderComponent</text>
</g>
<!-- ListHeaderComponent&#45;&gt;UiModule -->
<g id="edge10" class="edge">
<title>ListHeaderComponent&#45;&gt;UiModule</title>
<path fill="none" stroke="#000000" d="M2695.9101,-187.2819C2695.9101,-202.9478 2695.9101,-223 2695.9101,-223 2695.9101,-223 2203.6178,-223 2203.6178,-223"/>
<polygon fill="#000000" stroke="#000000" points="2203.6178,-219.5001 2193.6178,-223 2203.6178,-226.5001 2203.6178,-219.5001"/>
</g>
<!-- GroupPipe -->
<g id="node11" class="node">
<title>GroupPipe</title>
<polygon fill="#ffffb3" stroke="#000000" points="2660.1558,-187 2583.8442,-187 2583.8442,-151 2660.1558,-151 2660.1558,-187"/>
<text text-anchor="middle" x="2622" y="-164.8" font-family="Times,serif" font-size="14.00" fill="#000000">GroupPipe</text>
</g>
<!-- GroupPipe&#45;&gt;UiModule -->
<g id="edge11" class="edge">
<title>GroupPipe&#45;&gt;UiModule</title>
<path fill="none" stroke="#000000" d="M2591.0458,-187.1871C2591.0458,-202.1824 2591.0458,-221 2591.0458,-221 2591.0458,-221 2203.6324,-221 2203.6324,-221"/>
<polygon fill="#000000" stroke="#000000" points="2203.6325,-217.5001 2193.6324,-221 2203.6324,-224.5001 2203.6325,-217.5001"/>
</g>
<!-- InputErrorsComponent -->
<g id="node12" class="node">
<title>InputErrorsComponent</title>
<polygon fill="#ffffb3" stroke="#000000" points="2565.8627,-187 2420.1373,-187 2420.1373,-151 2565.8627,-151 2565.8627,-187"/>
<text text-anchor="middle" x="2493" y="-164.8" font-family="Times,serif" font-size="14.00" fill="#000000">InputErrorsComponent</text>
</g>
<!-- InputErrorsComponent&#45;&gt;UiModule -->
<g id="edge12" class="edge">
<title>InputErrorsComponent&#45;&gt;UiModule</title>
<path fill="none" stroke="#000000" d="M2433.9644,-187.1243C2433.9644,-201.7832 2433.9644,-220 2433.9644,-220 2433.9644,-220 2203.7787,-220 2203.7787,-220"/>
<polygon fill="#000000" stroke="#000000" points="2203.7788,-216.5001 2193.7787,-220 2203.7787,-223.5001 2203.7788,-216.5001"/>
</g>
<!-- FormComponent -->
<g id="node13" class="node">
<title>FormComponent</title>
<polygon fill="#ffffb3" stroke="#000000" points="2401.6667,-187 2290.3333,-187 2290.3333,-151 2401.6667,-151 2401.6667,-187"/>
<text text-anchor="middle" x="2346" y="-164.8" font-family="Times,serif" font-size="14.00" fill="#000000">FormComponent</text>
</g>
<!-- FormComponent&#45;&gt;UiModule -->
<g id="edge13" class="edge">
<title>FormComponent&#45;&gt;UiModule</title>
<path fill="none" stroke="#000000" d="M2298.0114,-187.2458C2298.0114,-201.1772 2298.0114,-218 2298.0114,-218 2298.0114,-218 2203.681,-218 2203.681,-218"/>
<polygon fill="#000000" stroke="#000000" points="2203.681,-214.5001 2193.681,-218 2203.6809,-221.5001 2203.681,-214.5001"/>
</g>
<!-- PopComponent -->
<g id="node14" class="node">
<title>PopComponent</title>
<polygon fill="#ffffb3" stroke="#000000" points="2272.6151,-187 2169.3849,-187 2169.3849,-151 2272.6151,-151 2272.6151,-187"/>
<text text-anchor="middle" x="2221" y="-164.8" font-family="Times,serif" font-size="14.00" fill="#000000">PopComponent</text>
</g>
<!-- PopComponent&#45;&gt;UiModule -->
<g id="edge14" class="edge">
<title>PopComponent&#45;&gt;UiModule</title>
<path fill="none" stroke="#000000" d="M2181.608,-187.1061C2181.608,-187.1061 2181.608,-205.991 2181.608,-205.991"/>
<polygon fill="#000000" stroke="#000000" points="2178.1081,-205.9909 2181.608,-215.991 2185.1081,-205.991 2178.1081,-205.9909"/>
</g>
<!-- MenuComponent -->
<g id="node15" class="node">
<title>MenuComponent</title>
<polygon fill="#ffffb3" stroke="#000000" points="2150.9916,-187 2037.0084,-187 2037.0084,-151 2150.9916,-151 2150.9916,-187"/>
<text text-anchor="middle" x="2094" y="-164.8" font-family="Times,serif" font-size="14.00" fill="#000000">MenuComponent</text>
</g>
<!-- MenuComponent&#45;&gt;UiModule -->
<g id="edge15" class="edge">
<title>MenuComponent&#45;&gt;UiModule</title>
<path fill="none" stroke="#000000" d="M2135.6112,-187.1061C2135.6112,-187.1061 2135.6112,-205.991 2135.6112,-205.991"/>
<polygon fill="#000000" stroke="#000000" points="2132.1112,-205.9909 2135.6112,-215.991 2139.1112,-205.991 2132.1112,-205.9909"/>
</g>
<!-- SelectComponent -->
<g id="node16" class="node">
<title>SelectComponent</title>
<polygon fill="#ffffb3" stroke="#000000" points="2018.5409,-187 1903.4591,-187 1903.4591,-151 2018.5409,-151 2018.5409,-187"/>
<text text-anchor="middle" x="1961" y="-164.8" font-family="Times,serif" font-size="14.00" fill="#000000">SelectComponent</text>
</g>
<!-- SelectComponent&#45;&gt;UiModule -->
<g id="edge16" class="edge">
<title>SelectComponent&#45;&gt;UiModule</title>
<path fill="none" stroke="#000000" d="M2011.1296,-187.2458C2011.1296,-201.1772 2011.1296,-218 2011.1296,-218 2011.1296,-218 2110.1907,-218 2110.1907,-218"/>
<polygon fill="#000000" stroke="#000000" points="2110.1908,-221.5001 2120.1907,-218 2110.1907,-214.5001 2110.1908,-221.5001"/>
</g>
<!-- LoginComponent -->
<g id="node17" class="node">
<title>LoginComponent</title>
<polygon fill="#ffffb3" stroke="#000000" points="1885.2758,-187 1770.7242,-187 1770.7242,-151 1885.2758,-151 1885.2758,-187"/>
<text text-anchor="middle" x="1828" y="-164.8" font-family="Times,serif" font-size="14.00" fill="#000000">LoginComponent</text>
</g>
<!-- LoginComponent&#45;&gt;UiModule -->
<g id="edge18" class="edge">
<title>LoginComponent&#45;&gt;UiModule</title>
<path fill="none" stroke="#000000" d="M1809.4072,-187.1243C1809.4072,-201.7832 1809.4072,-220 1809.4072,-220 1809.4072,-220 2110.1306,-220 2110.1306,-220"/>
<polygon fill="#000000" stroke="#000000" points="2110.1306,-223.5001 2120.1306,-220 2110.1305,-216.5001 2110.1306,-223.5001"/>
</g>
<!-- FieldHostDirective -->
<g id="node18" class="node">
<title>FieldHostDirective</title>
<polygon fill="#ffffb3" stroke="#000000" points="1752.8034,-187 1629.1966,-187 1629.1966,-151 1752.8034,-151 1752.8034,-187"/>
<text text-anchor="middle" x="1691" y="-164.8" font-family="Times,serif" font-size="14.00" fill="#000000">FieldHostDirective</text>
</g>
<!-- FieldHostDirective&#45;&gt;UiModule -->
<g id="edge19" class="edge">
<title>FieldHostDirective&#45;&gt;UiModule</title>
<path fill="none" stroke="#000000" d="M1682.0122,-187.1871C1682.0122,-202.1824 1682.0122,-221 1682.0122,-221 1682.0122,-221 2110.1237,-221 2110.1237,-221"/>
<polygon fill="#000000" stroke="#000000" points="2110.1238,-224.5001 2120.1237,-221 2110.1237,-217.5001 2110.1238,-224.5001"/>
</g>
<!-- DynamicFieldComponent -->
<g id="node19" class="node">
<title>DynamicFieldComponent</title>
<polygon fill="#ffffb3" stroke="#000000" points="1611.9284,-187 1450.0716,-187 1450.0716,-151 1611.9284,-151 1611.9284,-187"/>
<text text-anchor="middle" x="1531" y="-164.8" font-family="Times,serif" font-size="14.00" fill="#000000">DynamicFieldComponent</text>
</g>
<!-- DynamicFieldComponent&#45;&gt;UiModule -->
<g id="edge20" class="edge">
<title>DynamicFieldComponent&#45;&gt;UiModule</title>
<path fill="none" stroke="#000000" d="M1561.4841,-187.2819C1561.4841,-202.9478 1561.4841,-223 1561.4841,-223 1561.4841,-223 2110.1972,-223 2110.1972,-223"/>
<polygon fill="#000000" stroke="#000000" points="2110.1973,-226.5001 2120.1972,-223 2110.1972,-219.5001 2110.1973,-226.5001"/>
</g>
<!-- DefaultInputComponent -->
<g id="node20" class="node">
<title>DefaultInputComponent</title>
<polygon fill="#ffffb3" stroke="#000000" points="1432.3613,-187 1279.6387,-187 1279.6387,-151 1432.3613,-151 1432.3613,-187"/>
<text text-anchor="middle" x="1356" y="-164.8" font-family="Times,serif" font-size="14.00" fill="#000000">DefaultInputComponent</text>
</g>
<!-- DefaultInputComponent&#45;&gt;UiModule -->
<g id="edge21" class="edge">
<title>DefaultInputComponent&#45;&gt;UiModule</title>
<path fill="none" stroke="#000000" d="M1403.4553,-187.0091C1403.4553,-203.0494 1403.4553,-224 1403.4553,-224 1403.4553,-224 2110.4003,-224 2110.4003,-224"/>
<polygon fill="#000000" stroke="#000000" points="2110.4003,-227.5001 2120.4003,-224 2110.4003,-220.5001 2110.4003,-227.5001"/>
</g>
<!-- DefaultOutputComponent -->
<g id="node21" class="node">
<title>DefaultOutputComponent</title>
<polygon fill="#ffffb3" stroke="#000000" points="1261.1979,-187 1098.8021,-187 1098.8021,-151 1261.1979,-151 1261.1979,-187"/>
<text text-anchor="middle" x="1180" y="-164.8" font-family="Times,serif" font-size="14.00" fill="#000000">DefaultOutputComponent</text>
</g>
<!-- DefaultOutputComponent&#45;&gt;UiModule -->
<g id="edge22" class="edge">
<title>DefaultOutputComponent&#45;&gt;UiModule</title>
<path fill="none" stroke="#000000" d="M1249.4806,-187.0352C1249.4806,-203.7344 1249.4806,-226 1249.4806,-226 1249.4806,-226 2110.3002,-226 2110.3002,-226"/>
<polygon fill="#000000" stroke="#000000" points="2110.3002,-229.5001 2120.3002,-226 2110.3001,-222.5001 2110.3002,-229.5001"/>
</g>
<!-- LoaderComponent -->
<g id="node22" class="node">
<title>LoaderComponent</title>
<polygon fill="#ffffb3" stroke="#000000" points="1080.4748,-187 959.5252,-187 959.5252,-151 1080.4748,-151 1080.4748,-187"/>
<text text-anchor="middle" x="1020" y="-164.8" font-family="Times,serif" font-size="14.00" fill="#000000">LoaderComponent</text>
</g>
<!-- LoaderComponent&#45;&gt;UiModule -->
<g id="edge23" class="edge">
<title>LoaderComponent&#45;&gt;UiModule</title>
<path fill="none" stroke="#000000" d="M1075.403,-187.0336C1075.403,-204.0597 1075.403,-227 1075.403,-227 1075.403,-227 2110.3936,-227 2110.3936,-227"/>
<polygon fill="#000000" stroke="#000000" points="2110.3936,-230.5001 2120.3936,-227 2110.3935,-223.5001 2110.3936,-230.5001"/>
</g>
<!-- NotificationsComponent -->
<g id="node23" class="node">
<title>NotificationsComponent</title>
<polygon fill="#ffffb3" stroke="#000000" points="941.427,-187 786.573,-187 786.573,-151 941.427,-151 941.427,-187"/>
<text text-anchor="middle" x="864" y="-164.8" font-family="Times,serif" font-size="14.00" fill="#000000">NotificationsComponent</text>
</g>
<!-- NotificationsComponent&#45;&gt;UiModule -->
<g id="edge24" class="edge">
<title>NotificationsComponent&#45;&gt;UiModule</title>
<path fill="none" stroke="#000000" d="M934.4879,-187.002C934.4879,-204.6754 934.4879,-229 934.4879,-229 934.4879,-229 2110.4126,-229 2110.4126,-229"/>
<polygon fill="#000000" stroke="#000000" points="2110.4127,-232.5001 2120.4126,-229 2110.4126,-225.5001 2110.4127,-232.5001"/>
</g>
<!-- ReactiveFormsModule  -->
<g id="node29" class="node">
<title>ReactiveFormsModule </title>
<polygon fill="#fb8072" stroke="#000000" points="3569.8045,-317 3422.1955,-317 3422.1955,-281 3569.8045,-281 3569.8045,-317"/>
<text text-anchor="middle" x="3496" y="-294.8" font-family="Times,serif" font-size="14.00" fill="#000000">ReactiveFormsModule </text>
</g>
<!-- UiModule&#45;&gt;ReactiveFormsModule  -->
<g id="edge28" class="edge">
<title>UiModule&#45;&gt;ReactiveFormsModule </title>
<path fill="none" stroke="#000000" stroke-dasharray="5,2" d="M2193.8206,-238C2406.6146,-238 3469.5468,-238 3469.5468,-238 3469.5468,-238 3469.5468,-270.698 3469.5468,-270.698"/>
<polygon fill="#000000" stroke="#000000" points="3466.0469,-270.698 3469.5468,-280.698 3473.0469,-270.698 3466.0469,-270.698"/>
</g>
<!-- ListComponent  -->
<g id="node30" class="node">
<title>ListComponent </title>
<polygon fill="#fb8072" stroke="#000000" points="3404.1115,-317 3297.8885,-317 3297.8885,-281 3404.1115,-281 3404.1115,-317"/>
<text text-anchor="middle" x="3351" y="-294.8" font-family="Times,serif" font-size="14.00" fill="#000000">ListComponent </text>
</g>
<!-- UiModule&#45;&gt;ListComponent  -->
<g id="edge29" class="edge">
<title>UiModule&#45;&gt;ListComponent </title>
<path fill="none" stroke="#000000" stroke-dasharray="5,2" d="M2193.8501,-240C2393.2615,-240 3334.2628,-240 3334.2628,-240 3334.2628,-240 3334.2628,-270.9775 3334.2628,-270.9775"/>
<polygon fill="#000000" stroke="#000000" points="3330.7629,-270.9774 3334.2628,-280.9775 3337.7629,-270.9775 3330.7629,-270.9774"/>
</g>
<!-- PaginationComponent  -->
<g id="node31" class="node">
<title>PaginationComponent </title>
<polygon fill="#fb8072" stroke="#000000" points="3279.2163,-317 3134.7837,-317 3134.7837,-281 3279.2163,-281 3279.2163,-317"/>
<text text-anchor="middle" x="3207" y="-294.8" font-family="Times,serif" font-size="14.00" fill="#000000">PaginationComponent </text>
</g>
<!-- UiModule&#45;&gt;PaginationComponent  -->
<g id="edge30" class="edge">
<title>UiModule&#45;&gt;PaginationComponent </title>
<path fill="none" stroke="#000000" stroke-dasharray="5,2" d="M2193.6604,-242C2375.3139,-242 3170.2419,-242 3170.2419,-242 3170.2419,-242 3170.2419,-270.9648 3170.2419,-270.9648"/>
<polygon fill="#000000" stroke="#000000" points="3166.742,-270.9648 3170.2419,-280.9648 3173.742,-270.9649 3166.742,-270.9648"/>
</g>
<!-- TabsComponent  -->
<g id="node32" class="node">
<title>TabsComponent </title>
<polygon fill="#fb8072" stroke="#000000" points="3117.0442,-317 3004.9558,-317 3004.9558,-281 3117.0442,-281 3117.0442,-317"/>
<text text-anchor="middle" x="3061" y="-294.8" font-family="Times,serif" font-size="14.00" fill="#000000">TabsComponent </text>
</g>
<!-- UiModule&#45;&gt;TabsComponent  -->
<g id="edge31" class="edge">
<title>UiModule&#45;&gt;TabsComponent </title>
<path fill="none" stroke="#000000" stroke-dasharray="5,2" d="M2193.7398,-243C2362.8963,-243 3058.544,-243 3058.544,-243 3058.544,-243 3058.544,-270.973 3058.544,-270.973"/>
<polygon fill="#000000" stroke="#000000" points="3055.0441,-270.973 3058.544,-280.973 3062.0441,-270.973 3055.0441,-270.973"/>
</g>
<!-- TabComponent  -->
<g id="node33" class="node">
<title>TabComponent </title>
<polygon fill="#fb8072" stroke="#000000" points="2987.1003,-317 2880.8997,-317 2880.8997,-281 2987.1003,-281 2987.1003,-317"/>
<text text-anchor="middle" x="2934" y="-294.8" font-family="Times,serif" font-size="14.00" fill="#000000">TabComponent </text>
</g>
<!-- UiModule&#45;&gt;TabComponent  -->
<g id="edge32" class="edge">
<title>UiModule&#45;&gt;TabComponent </title>
<path fill="none" stroke="#000000" stroke-dasharray="5,2" d="M2193.6399,-245C2346.7435,-245 2927.4031,-245 2927.4031,-245 2927.4031,-245 2927.4031,-270.7181 2927.4031,-270.7181"/>
<polygon fill="#000000" stroke="#000000" points="2923.9031,-270.718 2927.4031,-280.7181 2930.9031,-270.7181 2923.9031,-270.718"/>
</g>
<!-- MockupComponent  -->
<g id="node34" class="node">
<title>MockupComponent </title>
<polygon fill="#fb8072" stroke="#000000" points="2862.9925,-317 2731.0075,-317 2731.0075,-281 2862.9925,-281 2862.9925,-317"/>
<text text-anchor="middle" x="2797" y="-294.8" font-family="Times,serif" font-size="14.00" fill="#000000">MockupComponent </text>
</g>
<!-- UiModule&#45;&gt;MockupComponent  -->
<g id="edge33" class="edge">
<title>UiModule&#45;&gt;MockupComponent </title>
<path fill="none" stroke="#000000" stroke-dasharray="5,2" d="M2193.8978,-246C2327.2663,-246 2776.5076,-246 2776.5076,-246 2776.5076,-246 2776.5076,-270.7604 2776.5076,-270.7604"/>
<polygon fill="#000000" stroke="#000000" points="2773.0076,-270.7604 2776.5076,-280.7604 2780.0076,-270.7604 2773.0076,-270.7604"/>
</g>
<!-- FilterComponent  -->
<g id="node35" class="node">
<title>FilterComponent </title>
<polygon fill="#fb8072" stroke="#000000" points="2713.6621,-317 2598.3379,-317 2598.3379,-281 2713.6621,-281 2713.6621,-317"/>
<text text-anchor="middle" x="2656" y="-294.8" font-family="Times,serif" font-size="14.00" fill="#000000">FilterComponent </text>
</g>
<!-- UiModule&#45;&gt;FilterComponent  -->
<g id="edge34" class="edge">
<title>UiModule&#45;&gt;FilterComponent </title>
<path fill="none" stroke="#000000" stroke-dasharray="5,2" d="M2193.6733,-248C2304.6594,-248 2629.3732,-248 2629.3732,-248 2629.3732,-248 2629.3732,-270.8757 2629.3732,-270.8757"/>
<polygon fill="#000000" stroke="#000000" points="2625.8733,-270.8757 2629.3732,-280.8757 2632.8733,-270.8757 2625.8733,-270.8757"/>
</g>
<!-- InputComponent  -->
<g id="node36" class="node">
<title>InputComponent </title>
<polygon fill="#fb8072" stroke="#000000" points="2580.3842,-317 2465.6158,-317 2465.6158,-281 2580.3842,-281 2580.3842,-317"/>
<text text-anchor="middle" x="2523" y="-294.8" font-family="Times,serif" font-size="14.00" fill="#000000">InputComponent </text>
</g>
<!-- UiModule&#45;&gt;InputComponent  -->
<g id="edge35" class="edge">
<title>UiModule&#45;&gt;InputComponent </title>
<path fill="none" stroke="#000000" stroke-dasharray="5,2" d="M2193.7189,-249C2285.1827,-249 2515.8698,-249 2515.8698,-249 2515.8698,-249 2515.8698,-270.9489 2515.8698,-270.9489"/>
<polygon fill="#000000" stroke="#000000" points="2512.3698,-270.9488 2515.8698,-280.9489 2519.3698,-270.9489 2512.3698,-270.9488"/>
</g>
<!-- OutputComponent  -->
<g id="node37" class="node">
<title>OutputComponent </title>
<polygon fill="#fb8072" stroke="#000000" points="2447.7205,-317 2324.2795,-317 2324.2795,-281 2447.7205,-281 2447.7205,-317"/>
<text text-anchor="middle" x="2386" y="-294.8" font-family="Times,serif" font-size="14.00" fill="#000000">OutputComponent </text>
</g>
<!-- UiModule&#45;&gt;OutputComponent  -->
<g id="edge36" class="edge">
<title>UiModule&#45;&gt;OutputComponent </title>
<path fill="none" stroke="#000000" stroke-dasharray="5,2" d="M2193.8263,-251C2253.0753,-251 2362.9865,-251 2362.9865,-251 2362.9865,-251 2362.9865,-270.8533 2362.9865,-270.8533"/>
<polygon fill="#000000" stroke="#000000" points="2359.4866,-270.8532 2362.9865,-280.8533 2366.4866,-270.8533 2359.4866,-270.8532"/>
</g>
<!-- ListItemsComponent  -->
<g id="node38" class="node">
<title>ListItemsComponent </title>
<polygon fill="#fb8072" stroke="#000000" points="2305.7121,-317 2168.2879,-317 2168.2879,-281 2305.7121,-281 2305.7121,-317"/>
<text text-anchor="middle" x="2237" y="-294.8" font-family="Times,serif" font-size="14.00" fill="#000000">ListItemsComponent </text>
</g>
<!-- UiModule&#45;&gt;ListItemsComponent  -->
<g id="edge37" class="edge">
<title>UiModule&#45;&gt;ListItemsComponent </title>
<path fill="none" stroke="#000000" stroke-dasharray="5,2" d="M2180.9588,-252.1061C2180.9588,-252.1061 2180.9588,-270.991 2180.9588,-270.991"/>
<polygon fill="#000000" stroke="#000000" points="2177.4589,-270.9909 2180.9588,-280.991 2184.4589,-270.991 2177.4589,-270.9909"/>
</g>
<!-- ListHeaderComponent  -->
<g id="node39" class="node">
<title>ListHeaderComponent </title>
<polygon fill="#fb8072" stroke="#000000" points="2150.5218,-317 2003.4782,-317 2003.4782,-281 2150.5218,-281 2150.5218,-317"/>
<text text-anchor="middle" x="2077" y="-294.8" font-family="Times,serif" font-size="14.00" fill="#000000">ListHeaderComponent </text>
</g>
<!-- UiModule&#45;&gt;ListHeaderComponent  -->
<g id="edge38" class="edge">
<title>UiModule&#45;&gt;ListHeaderComponent </title>
<path fill="none" stroke="#000000" stroke-dasharray="5,2" d="M2135.3687,-252.1061C2135.3687,-252.1061 2135.3687,-270.991 2135.3687,-270.991"/>
<polygon fill="#000000" stroke="#000000" points="2131.8688,-270.9909 2135.3687,-280.991 2138.8688,-270.991 2131.8688,-270.9909"/>
</g>
<!-- GroupPipe  -->
<g id="node40" class="node">
<title>GroupPipe </title>
<polygon fill="#fb8072" stroke="#000000" points="1985.1552,-317 1904.8448,-317 1904.8448,-281 1985.1552,-281 1985.1552,-317"/>
<text text-anchor="middle" x="1945" y="-294.8" font-family="Times,serif" font-size="14.00" fill="#000000">GroupPipe </text>
</g>
<!-- UiModule&#45;&gt;GroupPipe  -->
<g id="edge39" class="edge">
<title>UiModule&#45;&gt;GroupPipe </title>
<path fill="none" stroke="#000000" stroke-dasharray="5,2" d="M2120.0724,-251C2059.333,-251 1945,-251 1945,-251 1945,-251 1945,-270.8533 1945,-270.8533"/>
<polygon fill="#000000" stroke="#000000" points="1941.5001,-270.8532 1945,-280.8533 1948.5001,-270.8533 1941.5001,-270.8532"/>
</g>
<!-- FormComponent  -->
<g id="node41" class="node">
<title>FormComponent </title>
<polygon fill="#fb8072" stroke="#000000" points="1886.6663,-317 1771.3337,-317 1771.3337,-281 1886.6663,-281 1886.6663,-317"/>
<text text-anchor="middle" x="1829" y="-294.8" font-family="Times,serif" font-size="14.00" fill="#000000">FormComponent </text>
</g>
<!-- UiModule&#45;&gt;FormComponent  -->
<g id="edge40" class="edge">
<title>UiModule&#45;&gt;FormComponent </title>
<path fill="none" stroke="#000000" stroke-dasharray="5,2" d="M2120.2687,-249C2038.2583,-249 1847.3975,-249 1847.3975,-249 1847.3975,-249 1847.3975,-270.9489 1847.3975,-270.9489"/>
<polygon fill="#000000" stroke="#000000" points="1843.8976,-270.9488 1847.3975,-280.9489 1850.8976,-270.9489 1843.8976,-270.9488"/>
</g>
<!-- PopComponent  -->
<g id="node42" class="node">
<title>PopComponent </title>
<polygon fill="#fb8072" stroke="#000000" points="1753.1157,-317 1646.8843,-317 1646.8843,-281 1753.1157,-281 1753.1157,-317"/>
<text text-anchor="middle" x="1700" y="-294.8" font-family="Times,serif" font-size="14.00" fill="#000000">PopComponent </text>
</g>
<!-- UiModule&#45;&gt;PopComponent  -->
<g id="edge41" class="edge">
<title>UiModule&#45;&gt;PopComponent </title>
<path fill="none" stroke="#000000" stroke-dasharray="5,2" d="M2120.2704,-248C2014.6006,-248 1717.3318,-248 1717.3318,-248 1717.3318,-248 1717.3318,-270.8757 1717.3318,-270.8757"/>
<polygon fill="#000000" stroke="#000000" points="1713.8319,-270.8757 1717.3318,-280.8757 1720.8319,-270.8757 1713.8319,-270.8757"/>
</g>
<!-- MenuComponent  -->
<g id="node43" class="node">
<title>MenuComponent </title>
<polygon fill="#fb8072" stroke="#000000" points="1628.9926,-317 1511.0074,-317 1511.0074,-281 1628.9926,-281 1628.9926,-317"/>
<text text-anchor="middle" x="1570" y="-294.8" font-family="Times,serif" font-size="14.00" fill="#000000">MenuComponent </text>
</g>
<!-- UiModule&#45;&gt;MenuComponent  -->
<g id="edge42" class="edge">
<title>UiModule&#45;&gt;MenuComponent </title>
<path fill="none" stroke="#000000" stroke-dasharray="5,2" d="M2120.1056,-246C1998.834,-246 1620.2299,-246 1620.2299,-246 1620.2299,-246 1620.2299,-270.7604 1620.2299,-270.7604"/>
<polygon fill="#000000" stroke="#000000" points="1616.7299,-270.7604 1620.2299,-280.7604 1623.7299,-270.7604 1616.7299,-270.7604"/>
</g>
<!-- SelectComponent  -->
<g id="node44" class="node">
<title>SelectComponent </title>
<polygon fill="#fb8072" stroke="#000000" points="1493.54,-317 1374.46,-317 1374.46,-281 1493.54,-281 1493.54,-317"/>
<text text-anchor="middle" x="1434" y="-294.8" font-family="Times,serif" font-size="14.00" fill="#000000">SelectComponent </text>
</g>
<!-- UiModule&#45;&gt;SelectComponent  -->
<g id="edge43" class="edge">
<title>UiModule&#45;&gt;SelectComponent </title>
<path fill="none" stroke="#000000" stroke-dasharray="5,2" d="M2120.1662,-245C1977.8645,-245 1471.903,-245 1471.903,-245 1471.903,-245 1471.903,-270.7181 1471.903,-270.7181"/>
<polygon fill="#000000" stroke="#000000" points="1468.4031,-270.718 1471.903,-280.7181 1475.4031,-270.7181 1468.4031,-270.718"/>
</g>
<!-- LoginComponent  -->
<g id="node45" class="node">
<title>LoginComponent </title>
<polygon fill="#fb8072" stroke="#000000" points="1356.2759,-317 1237.7241,-317 1237.7241,-281 1356.2759,-281 1356.2759,-317"/>
<text text-anchor="middle" x="1297" y="-294.8" font-family="Times,serif" font-size="14.00" fill="#000000">LoginComponent </text>
</g>
<!-- UiModule&#45;&gt;LoginComponent  -->
<g id="edge44" class="edge">
<title>UiModule&#45;&gt;LoginComponent </title>
<path fill="none" stroke="#000000" stroke-dasharray="5,2" d="M2120.4033,-243C1958.8918,-243 1317.8536,-243 1317.8536,-243 1317.8536,-243 1317.8536,-270.973 1317.8536,-270.973"/>
<polygon fill="#000000" stroke="#000000" points="1314.3537,-270.973 1317.8536,-280.973 1321.3537,-270.973 1314.3537,-270.973"/>
</g>
<!-- InputErrorsComponent  -->
<g id="node46" class="node">
<title>InputErrorsComponent </title>
<polygon fill="#fb8072" stroke="#000000" points="1219.863,-317 1070.137,-317 1070.137,-281 1219.863,-281 1219.863,-317"/>
<text text-anchor="middle" x="1145" y="-294.8" font-family="Times,serif" font-size="14.00" fill="#000000">InputErrorsComponent </text>
</g>
<!-- UiModule&#45;&gt;InputErrorsComponent  -->
<g id="edge45" class="edge">
<title>UiModule&#45;&gt;InputErrorsComponent </title>
<path fill="none" stroke="#000000" stroke-dasharray="5,2" d="M2120.3078,-242C1940.3078,-242 1159.2912,-242 1159.2912,-242 1159.2912,-242 1159.2912,-270.9648 1159.2912,-270.9648"/>
<polygon fill="#000000" stroke="#000000" points="1155.7913,-270.9648 1159.2912,-280.9648 1162.7913,-270.9649 1155.7913,-270.9648"/>
</g>
<!-- LoaderComponent  -->
<g id="node47" class="node">
<title>LoaderComponent </title>
<polygon fill="#fb8072" stroke="#000000" points="1052.4757,-317 927.5243,-317 927.5243,-281 1052.4757,-281 1052.4757,-317"/>
<text text-anchor="middle" x="990" y="-294.8" font-family="Times,serif" font-size="14.00" fill="#000000">LoaderComponent </text>
</g>
<!-- UiModule&#45;&gt;LoaderComponent  -->
<g id="edge46" class="edge">
<title>UiModule&#45;&gt;LoaderComponent </title>
<path fill="none" stroke="#000000" stroke-dasharray="5,2" d="M2120.3265,-240C1923.975,-240 1005.875,-240 1005.875,-240 1005.875,-240 1005.875,-270.9775 1005.875,-270.9775"/>
<polygon fill="#000000" stroke="#000000" points="1002.3751,-270.9774 1005.875,-280.9775 1009.3751,-270.9775 1002.3751,-270.9774"/>
</g>
<!-- NotificationsComponent  -->
<g id="node48" class="node">
<title>NotificationsComponent </title>
<polygon fill="#fb8072" stroke="#000000" points="909.9264,-317 752.0736,-317 752.0736,-281 909.9264,-281 909.9264,-317"/>
<text text-anchor="middle" x="831" y="-294.8" font-family="Times,serif" font-size="14.00" fill="#000000">NotificationsComponent </text>
</g>
<!-- UiModule&#45;&gt;NotificationsComponent  -->
<g id="edge47" class="edge">
<title>UiModule&#45;&gt;NotificationsComponent </title>
<path fill="none" stroke="#000000" stroke-dasharray="5,2" d="M2120.2895,-238C1908.1312,-238 848.375,-238 848.375,-238 848.375,-238 848.375,-270.698 848.375,-270.698"/>
<polygon fill="#000000" stroke="#000000" points="844.8751,-270.698 848.375,-280.698 851.8751,-270.698 844.8751,-270.698"/>
</g>
<!-- { provide: NG_VALUE_ACCESSOR, useExisting: , multi: &#160;} -->
<g id="node25" class="node">
<title>{ provide: NG_VALUE_ACCESSOR, useExisting: , multi: &#160;}</title>
<ellipse fill="#fdb462" stroke="#000000" cx="1961" cy="-104" rx="251.4985" ry="18"/>
<text text-anchor="middle" x="1961" y="-99.8" font-family="Times,serif" font-size="14.00" fill="#000000">{ provide: NG_VALUE_ACCESSOR, useExisting: , multi: &#160;}</text>
</g>
<!-- { provide: NG_VALUE_ACCESSOR, useExisting: , multi: &#160;}&#45;&gt;SelectComponent -->
<g id="edge17" class="edge">
<title>{ provide: NG_VALUE_ACCESSOR, useExisting: , multi: &#160;}&#45;&gt;SelectComponent</title>
<path fill="none" stroke="#000000" d="M1961,-122.1061C1961,-122.1061 1961,-140.991 1961,-140.991"/>
<polygon fill="#000000" stroke="#000000" points="1957.5001,-140.9909 1961,-150.991 1964.5001,-140.991 1957.5001,-140.9909"/>
</g>
<!-- BrowserModule -->
<g id="node26" class="node">
<title>BrowserModule</title>
<polygon fill="#8dd3c7" stroke="#000000" points="763.4734,-187 760.4734,-191 739.4734,-191 736.4734,-187 656.5266,-187 656.5266,-151 763.4734,-151 763.4734,-187"/>
<text text-anchor="middle" x="710" y="-164.8" font-family="Times,serif" font-size="14.00" fill="#000000">BrowserModule</text>
</g>
<!-- BrowserModule&#45;&gt;UiModule -->
<g id="edge25" class="edge">
<title>BrowserModule&#45;&gt;UiModule</title>
<path fill="none" stroke="#000000" d="M757.7618,-187.2667C757.7618,-205.5552 757.7618,-231 757.7618,-231 757.7618,-231 2110.293,-231 2110.293,-231"/>
<polygon fill="#000000" stroke="#000000" points="2110.293,-234.5001 2120.293,-231 2110.293,-227.5001 2110.293,-234.5001"/>
</g>
<!-- FormsModule -->
<g id="node27" class="node">
<title>FormsModule</title>
<polygon fill="#8dd3c7" stroke="#000000" points="638.8288,-187 635.8288,-191 614.8288,-191 611.8288,-187 543.1712,-187 543.1712,-151 638.8288,-151 638.8288,-187"/>
<text text-anchor="middle" x="591" y="-164.8" font-family="Times,serif" font-size="14.00" fill="#000000">FormsModule</text>
</g>
<!-- FormsModule&#45;&gt;UiModule -->
<g id="edge26" class="edge">
<title>FormsModule&#45;&gt;UiModule</title>
<path fill="none" stroke="#000000" d="M591,-187.2222C591,-205.8285 591,-232 591,-232 591,-232 2110.2158,-232 2110.2158,-232"/>
<polygon fill="#000000" stroke="#000000" points="2110.2159,-235.5001 2120.2158,-232 2110.2158,-228.5001 2110.2159,-235.5001"/>
</g>
<!-- ReactiveFormsModule -->
<g id="node28" class="node">
<title>ReactiveFormsModule</title>
<polygon fill="#8dd3c7" stroke="#000000" points="525.3047,-187 522.3047,-191 501.3047,-191 498.3047,-187 380.6953,-187 380.6953,-151 525.3047,-151 525.3047,-187"/>
<text text-anchor="middle" x="453" y="-164.8" font-family="Times,serif" font-size="14.00" fill="#000000">ReactiveFormsModule</text>
</g>
<!-- ReactiveFormsModule&#45;&gt;UiModule -->
<g id="edge27" class="edge">
<title>ReactiveFormsModule&#45;&gt;UiModule</title>
<path fill="none" stroke="#000000" d="M453,-187.1061C453,-206.3391 453,-234 453,-234 453,-234 2110.224,-234 2110.224,-234"/>
<polygon fill="#000000" stroke="#000000" points="2110.2241,-237.5001 2120.224,-234 2110.224,-230.5001 2110.2241,-237.5001"/>
</g>
<!-- LoaderService -->
<g id="node49" class="node">
<title>LoaderService</title>
<ellipse fill="#fdb462" stroke="#000000" cx="290" cy="-169" rx="67.1734" ry="18"/>
<text text-anchor="middle" x="290" y="-164.8" font-family="Times,serif" font-size="14.00" fill="#000000">LoaderService</text>
</g>
<!-- LoaderService&#45;&gt;UiModule -->
<g id="edge48" class="edge">
<title>LoaderService&#45;&gt;UiModule</title>
<path fill="none" stroke="#000000" d="M290,-187.0348C290,-206.5762 290,-235 290,-235 290,-235 2110.1256,-235 2110.1256,-235"/>
<polygon fill="#000000" stroke="#000000" points="2110.1257,-238.5001 2120.1256,-235 2110.1256,-231.5001 2110.1257,-238.5001"/>
</g>
<!-- NotificationsService -->
<g id="node50" class="node">
<title>NotificationsService</title>
<ellipse fill="#fdb462" stroke="#000000" cx="114" cy="-169" rx="90.3217" ry="18"/>
<text text-anchor="middle" x="114" y="-164.8" font-family="Times,serif" font-size="14.00" fill="#000000">NotificationsService</text>
</g>
<!-- NotificationsService&#45;&gt;UiModule -->
<g id="edge49" class="edge">
<title>NotificationsService&#45;&gt;UiModule</title>
<path fill="none" stroke="#000000" d="M114,-187.2228C114,-207.3652 114,-237 114,-237 114,-237 2110.2356,-237 2110.2356,-237"/>
<polygon fill="#000000" stroke="#000000" points="2110.2356,-240.5001 2120.2356,-237 2110.2356,-233.5001 2110.2356,-240.5001"/>
</g>
</g>
</svg>
