<?xml version="1.0" encoding="UTF-8" standalone="no"?>
<!DOCTYPE svg PUBLIC "-//W3C//DTD SVG 1.1//EN"
 "http://www.w3.org/Graphics/SVG/1.1/DTD/svg11.dtd">
<!-- Generated by graphviz version 2.40.1 (20161225.0304)
 -->
<!-- Title: dependencies Pages: 1 -->
<svg width="1623pt" height="284pt"
 viewBox="0.00 0.00 1623.00 284.00" xmlns="http://www.w3.org/2000/svg" xmlns:xlink="http://www.w3.org/1999/xlink">
<g id="graph0" class="graph" transform="scale(1 1) rotate(0) translate(4 280)">
<title>dependencies</title>
<polygon fill="#ffffff" stroke="transparent" points="-4,4 -4,-280 1619,-280 1619,4 -4,4"/>
<text text-anchor="start" x="786.5091" y="-42.4" font-family="sans-serif" font-weight="bold" font-size="14.00" fill="#000000">Legend</text>
<polygon fill="#ffffb3" stroke="transparent" points="573.5,-10 573.5,-30 593.5,-30 593.5,-10 573.5,-10"/>
<text text-anchor="start" x="597.129" y="-15.4" font-family="sans-serif" font-size="14.00" fill="#000000"> &#160;Declarations</text>
<polygon fill="#8dd3c7" stroke="transparent" points="686.5,-10 686.5,-30 706.5,-30 706.5,-10 686.5,-10"/>
<text text-anchor="start" x="710.2251" y="-15.4" font-family="sans-serif" font-size="14.00" fill="#000000"> &#160;Module</text>
<polygon fill="#80b1d3" stroke="transparent" points="772.5,-10 772.5,-30 792.5,-30 792.5,-10 772.5,-10"/>
<text text-anchor="start" x="796.2812" y="-15.4" font-family="sans-serif" font-size="14.00" fill="#000000"> &#160;Bootstrap</text>
<polygon fill="#fdb462" stroke="transparent" points="869.5,-10 869.5,-30 889.5,-30 889.5,-10 869.5,-10"/>
<text text-anchor="start" x="893.1732" y="-15.4" font-family="sans-serif" font-size="14.00" fill="#000000"> &#160;Providers</text>
<polygon fill="#fb8072" stroke="transparent" points="965.5,-10 965.5,-30 985.5,-30 985.5,-10 965.5,-10"/>
<text text-anchor="start" x="989.2258" y="-15.4" font-family="sans-serif" font-size="14.00" fill="#000000"> &#160;Exports</text>
<g id="clust1" class="cluster">
<title>cluster_UiModule</title>
<polygon fill="none" stroke="#000000" stroke-dasharray="1,5" points="8,-70 8,-268 1607,-268 1607,-70 8,-70"/>
</g>
<g id="clust2" class="cluster">
<title>cluster_UiModule_declarations</title>
<polygon fill="none" stroke="#000000" points="260,-78 260,-130 1599,-130 1599,-78 260,-78"/>
</g>
<g id="clust13" class="cluster">
<title>cluster_UiModule_imports</title>
<polygon fill="none" stroke="#000000" points="16,-78 16,-130 252,-130 252,-78 16,-78"/>
</g>
<g id="clust14" class="cluster">
<title>cluster_UiModule_exports</title>
<polygon fill="none" stroke="#000000" points="101,-208 101,-260 1473,-260 1473,-208 101,-208"/>
</g>
<!-- ListComponent -->
<g id="node1" class="node">
<title>ListComponent</title>
<polygon fill="#ffffb3" stroke="#000000" points="1590.6109,-122 1487.3891,-122 1487.3891,-86 1590.6109,-86 1590.6109,-122"/>
<text text-anchor="middle" x="1539" y="-99.8" font-family="Times,serif" font-size="14.00" fill="#000000">ListComponent</text>
</g>
<!-- UiModule -->
<g id="node11" class="node">
<title>UiModule</title>
<polygon fill="#8dd3c7" stroke="#000000" points="823.5484,-187 820.5484,-191 799.5484,-191 796.5484,-187 750.4516,-187 750.4516,-151 823.5484,-151 823.5484,-187"/>
<text text-anchor="middle" x="787" y="-164.8" font-family="Times,serif" font-size="14.00" fill="#000000">UiModule</text>
</g>
<!-- ListComponent&#45;&gt;UiModule -->
<g id="edge1" class="edge">
<title>ListComponent&#45;&gt;UiModule</title>
<path fill="none" stroke="#000000" d="M1539,-122.1061C1539,-141.3391 1539,-169 1539,-169 1539,-169 833.7796,-169 833.7796,-169"/>
<polygon fill="#000000" stroke="#000000" points="833.7796,-165.5001 823.7796,-169 833.7795,-172.5001 833.7796,-165.5001"/>
</g>
<!-- PaginationComponent -->
<g id="node2" class="node">
<title>PaginationComponent</title>
<polygon fill="#ffffb3" stroke="#000000" points="1469.7162,-122 1328.2838,-122 1328.2838,-86 1469.7162,-86 1469.7162,-122"/>
<text text-anchor="middle" x="1399" y="-99.8" font-family="Times,serif" font-size="14.00" fill="#000000">PaginationComponent</text>
</g>
<!-- PaginationComponent&#45;&gt;UiModule -->
<g id="edge2" class="edge">
<title>PaginationComponent&#45;&gt;UiModule</title>
<path fill="none" stroke="#000000" d="M1334.375,-122.2667C1334.375,-140.5552 1334.375,-166 1334.375,-166 1334.375,-166 833.7648,-166 833.7648,-166"/>
<polygon fill="#000000" stroke="#000000" points="833.7648,-162.5001 823.7648,-166 833.7647,-169.5001 833.7648,-162.5001"/>
</g>
<!-- TabsComponent -->
<g id="node3" class="node">
<title>TabsComponent</title>
<polygon fill="#ffffb3" stroke="#000000" points="1310.0452,-122 1201.9548,-122 1201.9548,-86 1310.0452,-86 1310.0452,-122"/>
<text text-anchor="middle" x="1256" y="-99.8" font-family="Times,serif" font-size="14.00" fill="#000000">TabsComponent</text>
</g>
<!-- TabsComponent&#45;&gt;UiModule -->
<g id="edge3" class="edge">
<title>TabsComponent&#45;&gt;UiModule</title>
<path fill="none" stroke="#000000" d="M1274.0907,-122.0336C1274.0907,-139.0597 1274.0907,-162 1274.0907,-162 1274.0907,-162 833.611,-162 833.611,-162"/>
<polygon fill="#000000" stroke="#000000" points="833.611,-158.5001 823.611,-162 833.6109,-165.5001 833.611,-158.5001"/>
</g>
<!-- TabComponent -->
<g id="node4" class="node">
<title>TabComponent</title>
<polygon fill="#ffffb3" stroke="#000000" points="1183.5996,-122 1080.4004,-122 1080.4004,-86 1183.5996,-86 1183.5996,-122"/>
<text text-anchor="middle" x="1132" y="-99.8" font-family="Times,serif" font-size="14.00" fill="#000000">TabComponent</text>
</g>
<!-- TabComponent&#45;&gt;UiModule -->
<g id="edge4" class="edge">
<title>TabComponent&#45;&gt;UiModule</title>
<path fill="none" stroke="#000000" d="M1129.2362,-122.0091C1129.2362,-138.0494 1129.2362,-159 1129.2362,-159 1129.2362,-159 833.6253,-159 833.6253,-159"/>
<polygon fill="#000000" stroke="#000000" points="833.6253,-155.5001 823.6253,-159 833.6252,-162.5001 833.6253,-155.5001"/>
</g>
<!-- MockupComponent -->
<g id="node5" class="node">
<title>MockupComponent</title>
<polygon fill="#ffffb3" stroke="#000000" points="1061.9916,-122 934.0084,-122 934.0084,-86 1061.9916,-86 1061.9916,-122"/>
<text text-anchor="middle" x="998" y="-99.8" font-family="Times,serif" font-size="14.00" fill="#000000">MockupComponent</text>
</g>
<!-- MockupComponent&#45;&gt;UiModule -->
<g id="edge5" class="edge">
<title>MockupComponent&#45;&gt;UiModule</title>
<path fill="none" stroke="#000000" d="M937.8522,-122.1243C937.8522,-136.7832 937.8522,-155 937.8522,-155 937.8522,-155 833.9026,-155 833.9026,-155"/>
<polygon fill="#000000" stroke="#000000" points="833.9026,-151.5001 823.9026,-155 833.9026,-158.5001 833.9026,-151.5001"/>
</g>
<!-- FilterComponent -->
<g id="node6" class="node">
<title>FilterComponent</title>
<polygon fill="#ffffb3" stroke="#000000" points="915.6625,-122 804.3375,-122 804.3375,-86 915.6625,-86 915.6625,-122"/>
<text text-anchor="middle" x="860" y="-99.8" font-family="Times,serif" font-size="14.00" fill="#000000">FilterComponent</text>
</g>
<!-- FilterComponent&#45;&gt;UiModule -->
<g id="edge6" class="edge">
<title>FilterComponent&#45;&gt;UiModule</title>
<path fill="none" stroke="#000000" d="M813.9713,-122.1061C813.9713,-122.1061 813.9713,-140.991 813.9713,-140.991"/>
<polygon fill="#000000" stroke="#000000" points="810.4713,-140.9909 813.9713,-150.991 817.4713,-140.991 810.4713,-140.9909"/>
</g>
<!-- FieldComponent -->
<g id="node7" class="node">
<title>FieldComponent</title>
<polygon fill="#ffffb3" stroke="#000000" points="786.1109,-122 675.8891,-122 675.8891,-86 786.1109,-86 786.1109,-122"/>
<text text-anchor="middle" x="731" y="-99.8" font-family="Times,serif" font-size="14.00" fill="#000000">FieldComponent</text>
</g>
<!-- FieldComponent&#45;&gt;UiModule -->
<g id="edge7" class="edge">
<title>FieldComponent&#45;&gt;UiModule</title>
<path fill="none" stroke="#000000" d="M768.141,-122.1061C768.141,-122.1061 768.141,-140.991 768.141,-140.991"/>
<polygon fill="#000000" stroke="#000000" points="764.641,-140.9909 768.141,-150.991 771.641,-140.991 764.641,-140.9909"/>
</g>
<!-- ListItemsComponent -->
<g id="node8" class="node">
<title>ListItemsComponent</title>
<polygon fill="#ffffb3" stroke="#000000" points="658.212,-122 523.788,-122 523.788,-86 658.212,-86 658.212,-122"/>
<text text-anchor="middle" x="591" y="-99.8" font-family="Times,serif" font-size="14.00" fill="#000000">ListItemsComponent</text>
</g>
<!-- ListItemsComponent&#45;&gt;UiModule -->
<g id="edge8" class="edge">
<title>ListItemsComponent&#45;&gt;UiModule</title>
<path fill="none" stroke="#000000" d="M649.9557,-122.1243C649.9557,-136.7832 649.9557,-155 649.9557,-155 649.9557,-155 740.2746,-155 740.2746,-155"/>
<polygon fill="#000000" stroke="#000000" points="740.2747,-158.5001 750.2746,-155 740.2746,-151.5001 740.2747,-158.5001"/>
</g>
<!-- ListHeaderComponent -->
<g id="node9" class="node">
<title>ListHeaderComponent</title>
<polygon fill="#ffffb3" stroke="#000000" points="505.5226,-122 362.4774,-122 362.4774,-86 505.5226,-86 505.5226,-122"/>
<text text-anchor="middle" x="434" y="-99.8" font-family="Times,serif" font-size="14.00" fill="#000000">ListHeaderComponent</text>
</g>
<!-- ListHeaderComponent&#45;&gt;UiModule -->
<g id="edge9" class="edge">
<title>ListHeaderComponent&#45;&gt;UiModule</title>
<path fill="none" stroke="#000000" d="M416.683,-122.0091C416.683,-138.0494 416.683,-159 416.683,-159 416.683,-159 740.1387,-159 740.1387,-159"/>
<polygon fill="#000000" stroke="#000000" points="740.1388,-162.5001 750.1387,-159 740.1387,-155.5001 740.1388,-162.5001"/>
</g>
<!-- GroupPipe -->
<g id="node10" class="node">
<title>GroupPipe</title>
<polygon fill="#ffffb3" stroke="#000000" points="344.1558,-122 267.8442,-122 267.8442,-86 344.1558,-86 344.1558,-122"/>
<text text-anchor="middle" x="306" y="-99.8" font-family="Times,serif" font-size="14.00" fill="#000000">GroupPipe</text>
</g>
<!-- GroupPipe&#45;&gt;UiModule -->
<g id="edge10" class="edge">
<title>GroupPipe&#45;&gt;UiModule</title>
<path fill="none" stroke="#000000" d="M306,-122.0336C306,-139.0597 306,-162 306,-162 306,-162 740.0554,-162 740.0554,-162"/>
<polygon fill="#000000" stroke="#000000" points="740.0554,-165.5001 750.0554,-162 740.0554,-158.5001 740.0554,-165.5001"/>
</g>
<!-- ListComponent  -->
<g id="node14" class="node">
<title>ListComponent </title>
<polygon fill="#fb8072" stroke="#000000" points="1465.1115,-252 1358.8885,-252 1358.8885,-216 1465.1115,-216 1465.1115,-252"/>
<text text-anchor="middle" x="1412" y="-229.8" font-family="Times,serif" font-size="14.00" fill="#000000">ListComponent </text>
</g>
<!-- UiModule&#45;&gt;ListComponent  -->
<g id="edge13" class="edge">
<title>UiModule&#45;&gt;ListComponent </title>
<path fill="none" stroke="#000000" stroke-dasharray="5,2" d="M823.7632,-173C957.7357,-173 1412,-173 1412,-173 1412,-173 1412,-205.698 1412,-205.698"/>
<polygon fill="#000000" stroke="#000000" points="1408.5001,-205.698 1412,-215.698 1415.5001,-205.698 1408.5001,-205.698"/>
</g>
<!-- PaginationComponent  -->
<g id="node15" class="node">
<title>PaginationComponent </title>
<polygon fill="#fb8072" stroke="#000000" points="1340.2163,-252 1195.7837,-252 1195.7837,-216 1340.2163,-216 1340.2163,-252"/>
<text text-anchor="middle" x="1268" y="-229.8" font-family="Times,serif" font-size="14.00" fill="#000000">PaginationComponent </text>
</g>
<!-- UiModule&#45;&gt;PaginationComponent  -->
<g id="edge14" class="edge">
<title>UiModule&#45;&gt;PaginationComponent </title>
<path fill="none" stroke="#000000" stroke-dasharray="5,2" d="M823.8998,-177C931.5901,-177 1237.9093,-177 1237.9093,-177 1237.9093,-177 1237.9093,-205.9648 1237.9093,-205.9648"/>
<polygon fill="#000000" stroke="#000000" points="1234.4094,-205.9648 1237.9093,-215.9648 1241.4094,-205.9649 1234.4094,-205.9648"/>
</g>
<!-- TabsComponent  -->
<g id="node16" class="node">
<title>TabsComponent </title>
<polygon fill="#fb8072" stroke="#000000" points="1178.0442,-252 1065.9558,-252 1065.9558,-216 1178.0442,-216 1178.0442,-252"/>
<text text-anchor="middle" x="1122" y="-229.8" font-family="Times,serif" font-size="14.00" fill="#000000">TabsComponent </text>
</g>
<!-- UiModule&#45;&gt;TabsComponent  -->
<g id="edge15" class="edge">
<title>UiModule&#45;&gt;TabsComponent </title>
<path fill="none" stroke="#000000" stroke-dasharray="5,2" d="M823.8315,-180C901.1334,-180 1073.2141,-180 1073.2141,-180 1073.2141,-180 1073.2141,-205.7181 1073.2141,-205.7181"/>
<polygon fill="#000000" stroke="#000000" points="1069.7141,-205.718 1073.2141,-215.7181 1076.7141,-205.7181 1069.7141,-205.718"/>
</g>
<!-- TabComponent  -->
<g id="node17" class="node">
<title>TabComponent </title>
<polygon fill="#fb8072" stroke="#000000" points="1048.1003,-252 941.8997,-252 941.8997,-216 1048.1003,-216 1048.1003,-252"/>
<text text-anchor="middle" x="995" y="-229.8" font-family="Times,serif" font-size="14.00" fill="#000000">TabComponent </text>
</g>
<!-- UiModule&#45;&gt;TabComponent  -->
<g id="edge16" class="edge">
<title>UiModule&#45;&gt;TabComponent </title>
<path fill="none" stroke="#000000" stroke-dasharray="5,2" d="M823.7074,-184C883.4201,-184 995,-184 995,-184 995,-184 995,-205.9489 995,-205.9489"/>
<polygon fill="#000000" stroke="#000000" points="991.5001,-205.9488 995,-215.9489 998.5001,-205.9489 991.5001,-205.9488"/>
</g>
<!-- MockupComponent  -->
<g id="node18" class="node">
<title>MockupComponent </title>
<polygon fill="#fb8072" stroke="#000000" points="923.9925,-252 792.0075,-252 792.0075,-216 923.9925,-216 923.9925,-252"/>
<text text-anchor="middle" x="858" y="-229.8" font-family="Times,serif" font-size="14.00" fill="#000000">MockupComponent </text>
</g>
<!-- UiModule&#45;&gt;MockupComponent  -->
<g id="edge17" class="edge">
<title>UiModule&#45;&gt;MockupComponent </title>
<path fill="none" stroke="#000000" stroke-dasharray="5,2" d="M808.0139,-187.1061C808.0139,-187.1061 808.0139,-205.991 808.0139,-205.991"/>
<polygon fill="#000000" stroke="#000000" points="804.5139,-205.9909 808.0139,-215.991 811.5139,-205.991 804.5139,-205.9909"/>
</g>
<!-- FilterComponent  -->
<g id="node19" class="node">
<title>FilterComponent </title>
<polygon fill="#fb8072" stroke="#000000" points="774.6621,-252 659.3379,-252 659.3379,-216 774.6621,-216 774.6621,-252"/>
<text text-anchor="middle" x="717" y="-229.8" font-family="Times,serif" font-size="14.00" fill="#000000">FilterComponent </text>
</g>
<!-- UiModule&#45;&gt;FilterComponent  -->
<g id="edge18" class="edge">
<title>UiModule&#45;&gt;FilterComponent </title>
<path fill="none" stroke="#000000" stroke-dasharray="5,2" d="M762.4037,-187.1061C762.4037,-187.1061 762.4037,-205.991 762.4037,-205.991"/>
<polygon fill="#000000" stroke="#000000" points="758.9038,-205.9909 762.4037,-215.991 765.9038,-205.991 758.9038,-205.9909"/>
</g>
<!-- FieldComponent  -->
<g id="node20" class="node">
<title>FieldComponent </title>
<polygon fill="#fb8072" stroke="#000000" points="641.6115,-252 528.3885,-252 528.3885,-216 641.6115,-216 641.6115,-252"/>
<text text-anchor="middle" x="585" y="-229.8" font-family="Times,serif" font-size="14.00" fill="#000000">FieldComponent </text>
</g>
<!-- UiModule&#45;&gt;FieldComponent  -->
<g id="edge19" class="edge">
<title>UiModule&#45;&gt;FieldComponent </title>
<path fill="none" stroke="#000000" stroke-dasharray="5,2" d="M750.4193,-184C692.2085,-184 585,-184 585,-184 585,-184 585,-205.9489 585,-205.9489"/>
<polygon fill="#000000" stroke="#000000" points="581.5001,-205.9488 585,-215.9489 588.5001,-205.9489 581.5001,-205.9488"/>
</g>
<!-- ListItemsComponent  -->
<g id="node21" class="node">
<title>ListItemsComponent </title>
<polygon fill="#fb8072" stroke="#000000" points="509.7121,-252 372.2879,-252 372.2879,-216 509.7121,-216 509.7121,-252"/>
<text text-anchor="middle" x="441" y="-229.8" font-family="Times,serif" font-size="14.00" fill="#000000">ListItemsComponent </text>
</g>
<!-- UiModule&#45;&gt;ListItemsComponent  -->
<g id="edge20" class="edge">
<title>UiModule&#45;&gt;ListItemsComponent </title>
<path fill="none" stroke="#000000" stroke-dasharray="5,2" d="M750.2624,-180C665.0631,-180 461.222,-180 461.222,-180 461.222,-180 461.222,-205.7181 461.222,-205.7181"/>
<polygon fill="#000000" stroke="#000000" points="457.7221,-205.718 461.222,-215.7181 464.7221,-205.7181 457.7221,-205.718"/>
</g>
<!-- ListHeaderComponent  -->
<g id="node22" class="node">
<title>ListHeaderComponent </title>
<polygon fill="#fb8072" stroke="#000000" points="354.5218,-252 207.4782,-252 207.4782,-216 354.5218,-216 354.5218,-252"/>
<text text-anchor="middle" x="281" y="-229.8" font-family="Times,serif" font-size="14.00" fill="#000000">ListHeaderComponent </text>
</g>
<!-- UiModule&#45;&gt;ListHeaderComponent  -->
<g id="edge21" class="edge">
<title>UiModule&#45;&gt;ListHeaderComponent </title>
<path fill="none" stroke="#000000" stroke-dasharray="5,2" d="M750.4447,-177C645.2767,-177 349.4192,-177 349.4192,-177 349.4192,-177 349.4192,-205.9648 349.4192,-205.9648"/>
<polygon fill="#000000" stroke="#000000" points="345.9193,-205.9648 349.4192,-215.9648 352.9193,-205.9649 345.9193,-205.9648"/>
</g>
<!-- GroupPipe  -->
<g id="node23" class="node">
<title>GroupPipe </title>
<polygon fill="#fb8072" stroke="#000000" points="189.1552,-252 108.8448,-252 108.8448,-216 189.1552,-216 189.1552,-252"/>
<text text-anchor="middle" x="149" y="-229.8" font-family="Times,serif" font-size="14.00" fill="#000000">GroupPipe </text>
</g>
<!-- UiModule&#45;&gt;GroupPipe  -->
<g id="edge22" class="edge">
<title>UiModule&#45;&gt;GroupPipe </title>
<path fill="none" stroke="#000000" stroke-dasharray="5,2" d="M750.313,-173C616.6182,-173 163.2954,-173 163.2954,-173 163.2954,-173 163.2954,-205.698 163.2954,-205.698"/>
<polygon fill="#000000" stroke="#000000" points="159.7953,-205.698 163.2954,-215.698 166.7953,-205.698 159.7953,-205.698"/>
</g>
<!-- BrowserModule -->
<g id="node12" class="node">
<title>BrowserModule</title>
<polygon fill="#8dd3c7" stroke="#000000" points="244.4734,-122 241.4734,-126 220.4734,-126 217.4734,-122 137.5266,-122 137.5266,-86 244.4734,-86 244.4734,-122"/>
<text text-anchor="middle" x="191" y="-99.8" font-family="Times,serif" font-size="14.00" fill="#000000">BrowserModule</text>
</g>
<!-- BrowserModule&#45;&gt;UiModule -->
<g id="edge11" class="edge">
<title>BrowserModule&#45;&gt;UiModule</title>
<path fill="none" stroke="#000000" d="M225.9879,-122.2667C225.9879,-140.5552 225.9879,-166 225.9879,-166 225.9879,-166 740.1904,-166 740.1904,-166"/>
<polygon fill="#000000" stroke="#000000" points="740.1905,-169.5001 750.1904,-166 740.1904,-162.5001 740.1905,-169.5001"/>
</g>
<!-- FormsModule -->
<g id="node13" class="node">
<title>FormsModule</title>
<polygon fill="#8dd3c7" stroke="#000000" points="119.8288,-122 116.8288,-126 95.8288,-126 92.8288,-122 24.1712,-122 24.1712,-86 119.8288,-86 119.8288,-122"/>
<text text-anchor="middle" x="72" y="-99.8" font-family="Times,serif" font-size="14.00" fill="#000000">FormsModule</text>
</g>
<!-- FormsModule&#45;&gt;UiModule -->
<g id="edge12" class="edge">
<title>FormsModule&#45;&gt;UiModule</title>
<path fill="none" stroke="#000000" d="M114.2933,-122.1061C114.2933,-141.3391 114.2933,-169 114.2933,-169 114.2933,-169 740.3546,-169 740.3546,-169"/>
<polygon fill="#000000" stroke="#000000" points="740.3547,-172.5001 750.3546,-169 740.3546,-165.5001 740.3547,-172.5001"/>
</g>
</g>
</svg>
