<?xml version="1.0" encoding="UTF-8" standalone="no"?>
<!DOCTYPE svg PUBLIC "-//W3C//DTD SVG 1.1//EN"
 "http://www.w3.org/Graphics/SVG/1.1/DTD/svg11.dtd">
<!-- Generated by graphviz version 2.40.1 (20161225.0304)
 -->
<!-- Title: dependencies Pages: 1 -->
<svg width="1233pt" height="284pt"
 viewBox="0.00 0.00 1233.00 284.00" xmlns="http://www.w3.org/2000/svg" xmlns:xlink="http://www.w3.org/1999/xlink">
<g id="graph0" class="graph" transform="scale(1 1) rotate(0) translate(4 280)">
<title>dependencies</title>
<polygon fill="#ffffff" stroke="transparent" points="-4,4 -4,-280 1229,-280 1229,4 -4,4"/>
<text text-anchor="start" x="591.5091" y="-42.4" font-family="sans-serif" font-weight="bold" font-size="14.00" fill="#000000">Legend</text>
<polygon fill="#ffffb3" stroke="transparent" points="378.5,-10 378.5,-30 398.5,-30 398.5,-10 378.5,-10"/>
<text text-anchor="start" x="402.129" y="-15.4" font-family="sans-serif" font-size="14.00" fill="#000000"> &#160;Declarations</text>
<polygon fill="#8dd3c7" stroke="transparent" points="491.5,-10 491.5,-30 511.5,-30 511.5,-10 491.5,-10"/>
<text text-anchor="start" x="515.2251" y="-15.4" font-family="sans-serif" font-size="14.00" fill="#000000"> &#160;Module</text>
<polygon fill="#80b1d3" stroke="transparent" points="577.5,-10 577.5,-30 597.5,-30 597.5,-10 577.5,-10"/>
<text text-anchor="start" x="601.2812" y="-15.4" font-family="sans-serif" font-size="14.00" fill="#000000"> &#160;Bootstrap</text>
<polygon fill="#fdb462" stroke="transparent" points="674.5,-10 674.5,-30 694.5,-30 694.5,-10 674.5,-10"/>
<text text-anchor="start" x="698.1732" y="-15.4" font-family="sans-serif" font-size="14.00" fill="#000000"> &#160;Providers</text>
<polygon fill="#fb8072" stroke="transparent" points="770.5,-10 770.5,-30 790.5,-30 790.5,-10 770.5,-10"/>
<text text-anchor="start" x="794.2258" y="-15.4" font-family="sans-serif" font-size="14.00" fill="#000000"> &#160;Exports</text>
<g id="clust1" class="cluster">
<title>cluster_UiModule</title>
<polygon fill="none" stroke="#000000" stroke-dasharray="1,5" points="8,-70 8,-268 1217,-268 1217,-70 8,-70"/>
</g>
<g id="clust3" class="cluster">
<title>cluster_UiModule_imports</title>
<polygon fill="none" stroke="#000000" points="36,-78 36,-130 1197,-130 1197,-78 36,-78"/>
</g>
<g id="clust4" class="cluster">
<title>cluster_UiModule_exports</title>
<polygon fill="none" stroke="#000000" points="16,-208 16,-260 1209,-260 1209,-208 16,-208"/>
</g>
<!-- UtilityModule -->
<g id="node1" class="node">
<title>UtilityModule</title>
<polygon fill="#8dd3c7" stroke="#000000" points="1189.1095,-122 1186.1095,-126 1165.1095,-126 1162.1095,-122 1092.8905,-122 1092.8905,-86 1189.1095,-86 1189.1095,-122"/>
<text text-anchor="middle" x="1141" y="-99.8" font-family="Times,serif" font-size="14.00" fill="#000000">UtilityModule</text>
</g>
<!-- UiModule -->
<g id="node11" class="node">
<title>UiModule</title>
<polygon fill="#8dd3c7" stroke="#000000" points="604.5484,-187 601.5484,-191 580.5484,-191 577.5484,-187 531.4516,-187 531.4516,-151 604.5484,-151 604.5484,-187"/>
<text text-anchor="middle" x="568" y="-164.8" font-family="Times,serif" font-size="14.00" fill="#000000">UiModule</text>
</g>
<!-- UtilityModule&#45;&gt;UiModule -->
<g id="edge1" class="edge">
<title>UtilityModule&#45;&gt;UiModule</title>
<path fill="none" stroke="#000000" d="M1097.0703,-122.1686C1097.0703,-141.0898 1097.0703,-168 1097.0703,-168 1097.0703,-168 614.7831,-168 614.7831,-168"/>
<polygon fill="#000000" stroke="#000000" points="614.7832,-164.5001 604.7831,-168 614.7831,-171.5001 614.7832,-164.5001"/>
</g>
<!-- NotificationsModule -->
<g id="node2" class="node">
<title>NotificationsModule</title>
<polygon fill="#8dd3c7" stroke="#000000" points="1075.1443,-122 1072.1443,-126 1051.1443,-126 1048.1443,-122 942.8557,-122 942.8557,-86 1075.1443,-86 1075.1443,-122"/>
<text text-anchor="middle" x="1009" y="-99.8" font-family="Times,serif" font-size="14.00" fill="#000000">NotificationsModule</text>
</g>
<!-- NotificationsModule&#45;&gt;UiModule -->
<g id="edge2" class="edge">
<title>NotificationsModule&#45;&gt;UiModule</title>
<path fill="none" stroke="#000000" d="M961.875,-122.302C961.875,-140.2699 961.875,-165 961.875,-165 961.875,-165 614.7011,-165 614.7011,-165"/>
<polygon fill="#000000" stroke="#000000" points="614.7011,-161.5001 604.7011,-165 614.7011,-168.5001 614.7011,-161.5001"/>
</g>
<!-- PopModule -->
<g id="node3" class="node">
<title>PopModule</title>
<polygon fill="#8dd3c7" stroke="#000000" points="924.8331,-122 921.8331,-126 900.8331,-126 897.8331,-122 843.1669,-122 843.1669,-86 924.8331,-86 924.8331,-122"/>
<text text-anchor="middle" x="884" y="-99.8" font-family="Times,serif" font-size="14.00" fill="#000000">PopModule</text>
</g>
<!-- PopModule&#45;&gt;UiModule -->
<g id="edge3" class="edge">
<title>PopModule&#45;&gt;UiModule</title>
<path fill="none" stroke="#000000" d="M898.0868,-122.0352C898.0868,-138.7344 898.0868,-161 898.0868,-161 898.0868,-161 614.5863,-161 614.5863,-161"/>
<polygon fill="#000000" stroke="#000000" points="614.5863,-157.5001 604.5863,-161 614.5862,-164.5001 614.5863,-157.5001"/>
</g>
<!-- LoaderModule -->
<g id="node4" class="node">
<title>LoaderModule</title>
<polygon fill="#8dd3c7" stroke="#000000" points="825.6924,-122 822.6924,-126 801.6924,-126 798.6924,-122 726.3076,-122 726.3076,-86 825.6924,-86 825.6924,-122"/>
<text text-anchor="middle" x="776" y="-99.8" font-family="Times,serif" font-size="14.00" fill="#000000">LoaderModule</text>
</g>
<!-- LoaderModule&#45;&gt;UiModule -->
<g id="edge4" class="edge">
<title>LoaderModule&#45;&gt;UiModule</title>
<path fill="none" stroke="#000000" d="M792.532,-122.2819C792.532,-137.9478 792.532,-158 792.532,-158 792.532,-158 614.5747,-158 614.5747,-158"/>
<polygon fill="#000000" stroke="#000000" points="614.5747,-154.5001 604.5747,-158 614.5746,-161.5001 614.5747,-154.5001"/>
</g>
<!-- FormModule -->
<g id="node5" class="node">
<title>FormModule</title>
<polygon fill="#8dd3c7" stroke="#000000" points="707.8837,-122 704.8837,-126 683.8837,-126 680.8837,-122 618.1163,-122 618.1163,-86 707.8837,-86 707.8837,-122"/>
<text text-anchor="middle" x="663" y="-99.8" font-family="Times,serif" font-size="14.00" fill="#000000">FormModule</text>
</g>
<!-- FormModule&#45;&gt;UiModule -->
<g id="edge5" class="edge">
<title>FormModule&#45;&gt;UiModule</title>
<path fill="none" stroke="#000000" d="M678.138,-122.1243C678.138,-136.7832 678.138,-155 678.138,-155 678.138,-155 614.6744,-155 614.6744,-155"/>
<polygon fill="#000000" stroke="#000000" points="614.6744,-151.5001 604.6744,-155 614.6743,-158.5001 614.6744,-151.5001"/>
</g>
<!-- ListModule -->
<g id="node6" class="node">
<title>ListModule</title>
<polygon fill="#8dd3c7" stroke="#000000" points="599.8289,-122 596.8289,-126 575.8289,-126 572.8289,-122 518.1711,-122 518.1711,-86 599.8289,-86 599.8289,-122"/>
<text text-anchor="middle" x="559" y="-99.8" font-family="Times,serif" font-size="14.00" fill="#000000">ListModule</text>
</g>
<!-- ListModule&#45;&gt;UiModule -->
<g id="edge6" class="edge">
<title>ListModule&#45;&gt;UiModule</title>
<path fill="none" stroke="#000000" d="M565.4453,-122.1061C565.4453,-122.1061 565.4453,-140.991 565.4453,-140.991"/>
<polygon fill="#000000" stroke="#000000" points="561.9454,-140.9909 565.4453,-150.991 568.9454,-140.991 561.9454,-140.9909"/>
</g>
<!-- SelectModule -->
<g id="node7" class="node">
<title>SelectModule</title>
<polygon fill="#8dd3c7" stroke="#000000" points="499.7577,-122 496.7577,-126 475.7577,-126 472.7577,-122 406.2423,-122 406.2423,-86 499.7577,-86 499.7577,-122"/>
<text text-anchor="middle" x="453" y="-99.8" font-family="Times,serif" font-size="14.00" fill="#000000">SelectModule</text>
</g>
<!-- SelectModule&#45;&gt;UiModule -->
<g id="edge7" class="edge">
<title>SelectModule&#45;&gt;UiModule</title>
<path fill="none" stroke="#000000" d="M496.2537,-122.1243C496.2537,-136.7832 496.2537,-155 496.2537,-155 496.2537,-155 521.2861,-155 521.2861,-155"/>
<polygon fill="#000000" stroke="#000000" points="521.2862,-158.5001 531.2861,-155 521.2861,-151.5001 521.2862,-158.5001"/>
</g>
<!-- InteractionModule -->
<g id="node8" class="node">
<title>InteractionModule</title>
<polygon fill="#8dd3c7" stroke="#000000" points="388.1867,-122 385.1867,-126 364.1867,-126 361.1867,-122 267.8133,-122 267.8133,-86 388.1867,-86 388.1867,-122"/>
<text text-anchor="middle" x="328" y="-99.8" font-family="Times,serif" font-size="14.00" fill="#000000">InteractionModule</text>
</g>
<!-- InteractionModule&#45;&gt;UiModule -->
<g id="edge8" class="edge">
<title>InteractionModule&#45;&gt;UiModule</title>
<path fill="none" stroke="#000000" d="M382.9683,-122.0091C382.9683,-138.0494 382.9683,-159 382.9683,-159 382.9683,-159 521.4437,-159 521.4437,-159"/>
<polygon fill="#000000" stroke="#000000" points="521.4437,-162.5001 531.4437,-159 521.4437,-155.5001 521.4437,-162.5001"/>
</g>
<!-- IconModule -->
<g id="node9" class="node">
<title>IconModule</title>
<polygon fill="#8dd3c7" stroke="#000000" points="250.4261,-122 247.4261,-126 226.4261,-126 223.4261,-122 165.5739,-122 165.5739,-86 250.4261,-86 250.4261,-122"/>
<text text-anchor="middle" x="208" y="-99.8" font-family="Times,serif" font-size="14.00" fill="#000000">IconModule</text>
</g>
<!-- IconModule&#45;&gt;UiModule -->
<g id="edge9" class="edge">
<title>IconModule&#45;&gt;UiModule</title>
<path fill="none" stroke="#000000" d="M243.0875,-122.0225C243.0875,-139.3734 243.0875,-163 243.0875,-163 243.0875,-163 521.36,-163 521.36,-163"/>
<polygon fill="#000000" stroke="#000000" points="521.36,-166.5001 531.36,-163 521.36,-159.5001 521.36,-166.5001"/>
</g>
<!-- SymbolModule -->
<g id="node10" class="node">
<title>SymbolModule</title>
<polygon fill="#8dd3c7" stroke="#000000" points="147.6137,-122 144.6137,-126 123.6137,-126 120.6137,-122 44.3863,-122 44.3863,-86 147.6137,-86 147.6137,-122"/>
<text text-anchor="middle" x="96" y="-99.8" font-family="Times,serif" font-size="14.00" fill="#000000">SymbolModule</text>
</g>
<!-- SymbolModule&#45;&gt;UiModule -->
<g id="edge10" class="edge">
<title>SymbolModule&#45;&gt;UiModule</title>
<path fill="none" stroke="#000000" d="M138.9318,-122.2222C138.9318,-140.8285 138.9318,-167 138.9318,-167 138.9318,-167 521.4179,-167 521.4179,-167"/>
<polygon fill="#000000" stroke="#000000" points="521.4179,-170.5001 531.4179,-167 521.4179,-163.5001 521.4179,-170.5001"/>
</g>
<!-- UtilityModule  -->
<g id="node12" class="node">
<title>UtilityModule </title>
<polygon fill="#fb8072" stroke="#000000" points="1200.6102,-252 1101.3898,-252 1101.3898,-216 1200.6102,-216 1200.6102,-252"/>
<text text-anchor="middle" x="1151" y="-229.8" font-family="Times,serif" font-size="14.00" fill="#000000">UtilityModule </text>
</g>
<!-- UiModule&#45;&gt;UtilityModule  -->
<g id="edge11" class="edge">
<title>UiModule&#45;&gt;UtilityModule </title>
<path fill="none" stroke="#000000" stroke-dasharray="5,2" d="M604.9797,-171C732.3572,-171 1145.125,-171 1145.125,-171 1145.125,-171 1145.125,-205.7778 1145.125,-205.7778"/>
<polygon fill="#000000" stroke="#000000" points="1141.6251,-205.7778 1145.125,-215.7778 1148.6251,-205.7778 1141.6251,-205.7778"/>
</g>
<!-- PopModule  -->
<g id="node13" class="node">
<title>PopModule </title>
<polygon fill="#fb8072" stroke="#000000" points="1083.3326,-252 998.6674,-252 998.6674,-216 1083.3326,-216 1083.3326,-252"/>
<text text-anchor="middle" x="1041" y="-229.8" font-family="Times,serif" font-size="14.00" fill="#000000">PopModule </text>
</g>
<!-- UiModule&#45;&gt;PopModule  -->
<g id="edge12" class="edge">
<title>UiModule&#45;&gt;PopModule </title>
<path fill="none" stroke="#000000" stroke-dasharray="5,2" d="M604.7979,-174C715.3492,-174 1036.9529,-174 1036.9529,-174 1036.9529,-174 1036.9529,-205.998 1036.9529,-205.998"/>
<polygon fill="#000000" stroke="#000000" points="1033.4529,-205.998 1036.9529,-215.998 1040.4529,-205.9981 1033.4529,-205.998"/>
</g>
<!-- NotificationsModule  -->
<g id="node14" class="node">
<title>NotificationsModule </title>
<polygon fill="#fb8072" stroke="#000000" points="981.1439,-252 844.8561,-252 844.8561,-216 981.1439,-216 981.1439,-252"/>
<text text-anchor="middle" x="913" y="-229.8" font-family="Times,serif" font-size="14.00" fill="#000000">NotificationsModule </text>
</g>
<!-- UiModule&#45;&gt;NotificationsModule  -->
<g id="edge13" class="edge">
<title>UiModule&#45;&gt;NotificationsModule </title>
<path fill="none" stroke="#000000" stroke-dasharray="5,2" d="M604.6101,-178C685.3338,-178 871.5075,-178 871.5075,-178 871.5075,-178 871.5075,-205.973 871.5075,-205.973"/>
<polygon fill="#000000" stroke="#000000" points="868.0076,-205.973 871.5075,-215.973 875.0076,-205.973 868.0076,-205.973"/>
</g>
<!-- LoaderModule  -->
<g id="node15" class="node">
<title>LoaderModule </title>
<polygon fill="#fb8072" stroke="#000000" points="827.1927,-252 724.8073,-252 724.8073,-216 827.1927,-216 827.1927,-252"/>
<text text-anchor="middle" x="776" y="-229.8" font-family="Times,serif" font-size="14.00" fill="#000000">LoaderModule </text>
</g>
<!-- UiModule&#45;&gt;LoaderModule  -->
<g id="edge14" class="edge">
<title>UiModule&#45;&gt;LoaderModule </title>
<path fill="none" stroke="#000000" stroke-dasharray="5,2" d="M604.9169,-181C660.5553,-181 759.468,-181 759.468,-181 759.468,-181 759.468,-205.7604 759.468,-205.7604"/>
<polygon fill="#000000" stroke="#000000" points="755.9681,-205.7604 759.468,-215.7604 762.9681,-205.7604 755.9681,-205.7604"/>
</g>
<!-- ListModule  -->
<g id="node16" class="node">
<title>ListModule </title>
<polygon fill="#fb8072" stroke="#000000" points="706.3284,-252 621.6716,-252 621.6716,-216 706.3284,-216 706.3284,-252"/>
<text text-anchor="middle" x="664" y="-229.8" font-family="Times,serif" font-size="14.00" fill="#000000">ListModule </text>
</g>
<!-- UiModule&#45;&gt;ListModule  -->
<g id="edge15" class="edge">
<title>UiModule&#45;&gt;ListModule </title>
<path fill="none" stroke="#000000" stroke-dasharray="5,2" d="M604.6212,-184C626.4173,-184 649.862,-184 649.862,-184 649.862,-184 649.862,-205.9489 649.862,-205.9489"/>
<polygon fill="#000000" stroke="#000000" points="646.3621,-205.9488 649.862,-215.9489 653.3621,-205.9489 646.3621,-205.9488"/>
</g>
<!-- FormModule  -->
<g id="node17" class="node">
<title>FormModule </title>
<polygon fill="#fb8072" stroke="#000000" points="603.8844,-252 510.1156,-252 510.1156,-216 603.8844,-216 603.8844,-252"/>
<text text-anchor="middle" x="557" y="-229.8" font-family="Times,serif" font-size="14.00" fill="#000000">FormModule </text>
</g>
<!-- UiModule&#45;&gt;FormModule  -->
<g id="edge16" class="edge">
<title>UiModule&#45;&gt;FormModule </title>
<path fill="none" stroke="#000000" stroke-dasharray="5,2" d="M567.4592,-187.1061C567.4592,-187.1061 567.4592,-205.991 567.4592,-205.991"/>
<polygon fill="#000000" stroke="#000000" points="563.9592,-205.9909 567.4592,-215.991 570.9592,-205.991 563.9592,-205.9909"/>
</g>
<!-- SelectModule  -->
<g id="node18" class="node">
<title>SelectModule </title>
<polygon fill="#fb8072" stroke="#000000" points="492.7577,-252 395.2423,-252 395.2423,-216 492.7577,-216 492.7577,-252"/>
<text text-anchor="middle" x="444" y="-229.8" font-family="Times,serif" font-size="14.00" fill="#000000">SelectModule </text>
</g>
<!-- UiModule&#45;&gt;SelectModule  -->
<g id="edge17" class="edge">
<title>UiModule&#45;&gt;SelectModule </title>
<path fill="none" stroke="#000000" stroke-dasharray="5,2" d="M531.4406,-183C496.5858,-183 449.375,-183 449.375,-183 449.375,-183 449.375,-205.8757 449.375,-205.8757"/>
<polygon fill="#000000" stroke="#000000" points="445.8751,-205.8757 449.375,-215.8757 452.8751,-205.8757 445.8751,-205.8757"/>
</g>
<!-- InteractionModule  -->
<g id="node19" class="node">
<title>InteractionModule </title>
<polygon fill="#fb8072" stroke="#000000" points="377.687,-252 254.313,-252 254.313,-216 377.687,-216 377.687,-252"/>
<text text-anchor="middle" x="316" y="-229.8" font-family="Times,serif" font-size="14.00" fill="#000000">InteractionModule </text>
</g>
<!-- UiModule&#45;&gt;InteractionModule  -->
<g id="edge18" class="edge">
<title>UiModule&#45;&gt;InteractionModule </title>
<path fill="none" stroke="#000000" stroke-dasharray="5,2" d="M531.3023,-179C462.9206,-179 322.875,-179 322.875,-179 322.875,-179 322.875,-205.9909 322.875,-205.9909"/>
<polygon fill="#000000" stroke="#000000" points="319.3751,-205.9909 322.875,-215.9909 326.3751,-205.991 319.3751,-205.9909"/>
</g>
<!-- IconModule  -->
<g id="node20" class="node">
<title>IconModule </title>
<polygon fill="#fb8072" stroke="#000000" points="235.925,-252 148.075,-252 148.075,-216 235.925,-216 235.925,-252"/>
<text text-anchor="middle" x="192" y="-229.8" font-family="Times,serif" font-size="14.00" fill="#000000">IconModule </text>
</g>
<!-- UiModule&#45;&gt;IconModule  -->
<g id="edge19" class="edge">
<title>UiModule&#45;&gt;IconModule </title>
<path fill="none" stroke="#000000" stroke-dasharray="5,2" d="M531.1177,-175C438.0199,-175 200.875,-175 200.875,-175 200.875,-175 200.875,-205.9775 200.875,-205.9775"/>
<polygon fill="#000000" stroke="#000000" points="197.3751,-205.9774 200.875,-215.9775 204.3751,-205.9775 197.3751,-205.9774"/>
</g>
<!-- SymbolModule  -->
<g id="node21" class="node">
<title>SymbolModule </title>
<polygon fill="#fb8072" stroke="#000000" points="130.1143,-252 23.8857,-252 23.8857,-216 130.1143,-216 130.1143,-252"/>
<text text-anchor="middle" x="77" y="-229.8" font-family="Times,serif" font-size="14.00" fill="#000000">SymbolModule </text>
</g>
<!-- UiModule&#45;&gt;SymbolModule  -->
<g id="edge20" class="edge">
<title>UiModule&#45;&gt;SymbolModule </title>
<path fill="none" stroke="#000000" stroke-dasharray="5,2" d="M531.0842,-171C418.5399,-171 87.375,-171 87.375,-171 87.375,-171 87.375,-205.7778 87.375,-205.7778"/>
<polygon fill="#000000" stroke="#000000" points="83.8751,-205.7778 87.375,-215.7778 90.8751,-205.7778 83.8751,-205.7778"/>
</g>
</g>
</svg>
