<?xml version="1.0" encoding="UTF-8" standalone="no"?>
<!DOCTYPE svg PUBLIC "-//W3C//DTD SVG 1.1//EN"
 "http://www.w3.org/Graphics/SVG/1.1/DTD/svg11.dtd">
<!-- Generated by graphviz version 2.47.0 (20210316.0004)
 -->
<!-- Title: dependencies Pages: 1 -->
<svg width="1093pt" height="284pt"
 viewBox="0.00 0.00 1093.00 284.00" xmlns="http://www.w3.org/2000/svg" xmlns:xlink="http://www.w3.org/1999/xlink">
<g id="graph0" class="graph" transform="scale(1 1) rotate(0) translate(4 280)">
<title>dependencies</title>
<polygon fill="white" stroke="transparent" points="-4,4 -4,-280 1089,-280 1089,4 -4,4"/>
<text text-anchor="start" x="521.51" y="-42.4" font-family="sans-serif" font-weight="bold" font-size="14.00">Legend</text>
<polygon fill="#ffffb3" stroke="transparent" points="308.5,-10 308.5,-30 328.5,-30 328.5,-10 308.5,-10"/>
<text text-anchor="start" x="332.13" y="-15.4" font-family="sans-serif" font-size="14.00"> &#160;Declarations</text>
<polygon fill="#8dd3c7" stroke="transparent" points="421.5,-10 421.5,-30 441.5,-30 441.5,-10 421.5,-10"/>
<text text-anchor="start" x="445.23" y="-15.4" font-family="sans-serif" font-size="14.00"> &#160;Module</text>
<polygon fill="#80b1d3" stroke="transparent" points="507.5,-10 507.5,-30 527.5,-30 527.5,-10 507.5,-10"/>
<text text-anchor="start" x="531.28" y="-15.4" font-family="sans-serif" font-size="14.00"> &#160;Bootstrap</text>
<polygon fill="#fdb462" stroke="transparent" points="604.5,-10 604.5,-30 624.5,-30 624.5,-10 604.5,-10"/>
<text text-anchor="start" x="628.17" y="-15.4" font-family="sans-serif" font-size="14.00"> &#160;Providers</text>
<polygon fill="#fb8072" stroke="transparent" points="700.5,-10 700.5,-30 720.5,-30 720.5,-10 700.5,-10"/>
<text text-anchor="start" x="724.23" y="-15.4" font-family="sans-serif" font-size="14.00"> &#160;Exports</text>
<g id="clust1" class="cluster">
<title>cluster_UiModule</title>
<polygon fill="none" stroke="black" stroke-dasharray="1,5" points="8,-70 8,-268 1077,-268 1077,-70 8,-70"/>
</g>
<g id="clust3" class="cluster">
<title>cluster_UiModule_imports</title>
<polygon fill="none" stroke="black" points="31,-78 31,-130 1053,-130 1053,-78 31,-78"/>
</g>
<g id="clust4" class="cluster">
<title>cluster_UiModule_exports</title>
<polygon fill="none" stroke="black" points="16,-208 16,-260 1069,-260 1069,-208 16,-208"/>
</g>
<!-- FormModule -->
<g id="node1" class="node">
<title>FormModule</title>
<polygon fill="#8dd3c7" stroke="black" points="1044.88,-122 1041.88,-126 1020.88,-126 1017.88,-122 955.12,-122 955.12,-86 1044.88,-86 1044.88,-122"/>
<text text-anchor="middle" x="1000" y="-99.8" font-family="Times,serif" font-size="14.00">FormModule</text>
</g>
<!-- UiModule -->
<g id="node10" class="node">
<title>UiModule</title>
<polygon fill="#8dd3c7" stroke="black" points="588.55,-187 585.55,-191 564.55,-191 561.55,-187 515.45,-187 515.45,-151 588.55,-151 588.55,-187"/>
<text text-anchor="middle" x="552" y="-164.8" font-family="Times,serif" font-size="14.00">UiModule</text>
</g>
<!-- FormModule&#45;&gt;UiModule -->
<g id="edge1" class="edge">
<title>FormModule&#45;&gt;UiModule</title>
<path fill="none" stroke="black" d="M961.18,-122.22C961.18,-140.83 961.18,-167 961.18,-167 961.18,-167 598.67,-167 598.67,-167"/>
<polygon fill="black" stroke="black" points="598.67,-163.5 588.67,-167 598.67,-170.5 598.67,-163.5"/>
</g>
<!-- IconModule -->
<g id="node2" class="node">
<title>IconModule</title>
<polygon fill="#8dd3c7" stroke="black" points="937.43,-122 934.43,-126 913.43,-126 910.43,-122 852.57,-122 852.57,-86 937.43,-86 937.43,-122"/>
<text text-anchor="middle" x="895" y="-99.8" font-family="Times,serif" font-size="14.00">IconModule</text>
</g>
<!-- IconModule&#45;&gt;UiModule -->
<g id="edge2" class="edge">
<title>IconModule&#45;&gt;UiModule</title>
<path fill="none" stroke="black" d="M856.91,-122.02C856.91,-139.37 856.91,-163 856.91,-163 856.91,-163 598.78,-163 598.78,-163"/>
<polygon fill="black" stroke="black" points="598.78,-159.5 588.78,-163 598.78,-166.5 598.78,-159.5"/>
</g>
<!-- ListModule -->
<g id="node3" class="node">
<title>ListModule</title>
<polygon fill="#8dd3c7" stroke="black" points="834.83,-122 831.83,-126 810.83,-126 807.83,-122 753.17,-122 753.17,-86 834.83,-86 834.83,-122"/>
<text text-anchor="middle" x="794" y="-99.8" font-family="Times,serif" font-size="14.00">ListModule</text>
</g>
<!-- ListModule&#45;&gt;UiModule -->
<g id="edge3" class="edge">
<title>ListModule&#45;&gt;UiModule</title>
<path fill="none" stroke="black" d="M809.3,-122.01C809.3,-138.05 809.3,-159 809.3,-159 809.3,-159 598.59,-159 598.59,-159"/>
<polygon fill="black" stroke="black" points="598.59,-155.5 588.59,-159 598.59,-162.5 598.59,-155.5"/>
</g>
<!-- LoaderModule -->
<g id="node4" class="node">
<title>LoaderModule</title>
<polygon fill="#8dd3c7" stroke="black" points="735.69,-122 732.69,-126 711.69,-126 708.69,-122 636.31,-122 636.31,-86 735.69,-86 735.69,-122"/>
<text text-anchor="middle" x="686" y="-99.8" font-family="Times,serif" font-size="14.00">LoaderModule</text>
</g>
<!-- LoaderModule&#45;&gt;UiModule -->
<g id="edge4" class="edge">
<title>LoaderModule&#45;&gt;UiModule</title>
<path fill="none" stroke="black" d="M702.95,-122.12C702.95,-136.78 702.95,-155 702.95,-155 702.95,-155 598.93,-155 598.93,-155"/>
<polygon fill="black" stroke="black" points="598.93,-151.5 588.93,-155 598.93,-158.5 598.93,-151.5"/>
</g>
<!-- NotificationsModule -->
<g id="node5" class="node">
<title>NotificationsModule</title>
<polygon fill="#8dd3c7" stroke="black" points="618.14,-122 615.14,-126 594.14,-126 591.14,-122 485.86,-122 485.86,-86 618.14,-86 618.14,-122"/>
<text text-anchor="middle" x="552" y="-99.8" font-family="Times,serif" font-size="14.00">NotificationsModule</text>
</g>
<!-- NotificationsModule&#45;&gt;UiModule -->
<g id="edge5" class="edge">
<title>NotificationsModule&#45;&gt;UiModule</title>
<path fill="none" stroke="black" d="M552,-122.11C552,-122.11 552,-140.99 552,-140.99"/>
<polygon fill="black" stroke="black" points="548.5,-140.99 552,-150.99 555.5,-140.99 548.5,-140.99"/>
</g>
<!-- PopModule -->
<g id="node6" class="node">
<title>PopModule</title>
<polygon fill="#8dd3c7" stroke="black" points="467.83,-122 464.83,-126 443.83,-126 440.83,-122 386.17,-122 386.17,-86 467.83,-86 467.83,-122"/>
<text text-anchor="middle" x="427" y="-99.8" font-family="Times,serif" font-size="14.00">PopModule</text>
</g>
<!-- PopModule&#45;&gt;UiModule -->
<g id="edge6" class="edge">
<title>PopModule&#45;&gt;UiModule</title>
<path fill="none" stroke="black" d="M439.72,-122.12C439.72,-136.78 439.72,-155 439.72,-155 439.72,-155 505.24,-155 505.24,-155"/>
<polygon fill="black" stroke="black" points="505.24,-158.5 515.24,-155 505.24,-151.5 505.24,-158.5"/>
</g>
<!-- SelectModule -->
<g id="node7" class="node">
<title>SelectModule</title>
<polygon fill="#8dd3c7" stroke="black" points="367.76,-122 364.76,-126 343.76,-126 340.76,-122 274.24,-122 274.24,-86 367.76,-86 367.76,-122"/>
<text text-anchor="middle" x="321" y="-99.8" font-family="Times,serif" font-size="14.00">SelectModule</text>
</g>
<!-- SelectModule&#45;&gt;UiModule -->
<g id="edge7" class="edge">
<title>SelectModule&#45;&gt;UiModule</title>
<path fill="none" stroke="black" d="M333.79,-122.01C333.79,-138.05 333.79,-159 333.79,-159 333.79,-159 504.98,-159 504.98,-159"/>
<polygon fill="black" stroke="black" points="504.98,-162.5 514.98,-159 504.98,-155.5 504.98,-162.5"/>
</g>
<!-- SymbolModule -->
<g id="node8" class="node">
<title>SymbolModule</title>
<polygon fill="#8dd3c7" stroke="black" points="256.61,-122 253.61,-126 232.61,-126 229.61,-122 153.39,-122 153.39,-86 256.61,-86 256.61,-122"/>
<text text-anchor="middle" x="205" y="-99.8" font-family="Times,serif" font-size="14.00">SymbolModule</text>
</g>
<!-- SymbolModule&#45;&gt;UiModule -->
<g id="edge8" class="edge">
<title>SymbolModule&#45;&gt;UiModule</title>
<path fill="none" stroke="black" d="M252.43,-122.02C252.43,-139.37 252.43,-163 252.43,-163 252.43,-163 505.27,-163 505.27,-163"/>
<polygon fill="black" stroke="black" points="505.27,-166.5 515.27,-163 505.27,-159.5 505.27,-166.5"/>
</g>
<!-- UtilityModule -->
<g id="node9" class="node">
<title>UtilityModule</title>
<polygon fill="#8dd3c7" stroke="black" points="135.11,-122 132.11,-126 111.11,-126 108.11,-122 38.89,-122 38.89,-86 135.11,-86 135.11,-122"/>
<text text-anchor="middle" x="87" y="-99.8" font-family="Times,serif" font-size="14.00">UtilityModule</text>
</g>
<!-- UtilityModule&#45;&gt;UiModule -->
<g id="edge9" class="edge">
<title>UtilityModule&#45;&gt;UiModule</title>
<path fill="none" stroke="black" d="M129.43,-122.22C129.43,-140.83 129.43,-167 129.43,-167 129.43,-167 505.24,-167 505.24,-167"/>
<polygon fill="black" stroke="black" points="505.24,-170.5 515.24,-167 505.24,-163.5 505.24,-170.5"/>
</g>
<!-- FormModule  -->
<g id="node11" class="node">
<title>FormModule </title>
<polygon fill="#fb8072" stroke="black" points="1060.88,-252 967.12,-252 967.12,-216 1060.88,-216 1060.88,-252"/>
<text text-anchor="middle" x="1014" y="-229.8" font-family="Times,serif" font-size="14.00">FormModule </text>
</g>
<!-- UiModule&#45;&gt;FormModule  -->
<g id="edge10" class="edge">
<title>UiModule&#45;&gt;FormModule </title>
<path fill="none" stroke="black" stroke-dasharray="5,2" d="M588.78,-171C696.89,-171 1006.12,-171 1006.12,-171 1006.12,-171 1006.12,-205.78 1006.12,-205.78"/>
<polygon fill="black" stroke="black" points="1002.63,-205.78 1006.12,-215.78 1009.63,-205.78 1002.63,-205.78"/>
</g>
<!-- IconModule  -->
<g id="node12" class="node">
<title>IconModule </title>
<polygon fill="#fb8072" stroke="black" points="948.93,-252 861.07,-252 861.07,-216 948.93,-216 948.93,-252"/>
<text text-anchor="middle" x="905" y="-229.8" font-family="Times,serif" font-size="14.00">IconModule </text>
</g>
<!-- UiModule&#45;&gt;IconModule  -->
<g id="edge11" class="edge">
<title>UiModule&#45;&gt;IconModule </title>
<path fill="none" stroke="black" stroke-dasharray="5,2" d="M588.82,-175C678.16,-175 899.12,-175 899.12,-175 899.12,-175 899.12,-205.98 899.12,-205.98"/>
<polygon fill="black" stroke="black" points="895.63,-205.98 899.12,-215.98 902.63,-205.98 895.63,-205.98"/>
</g>
<!-- ListModule  -->
<g id="node13" class="node">
<title>ListModule </title>
<polygon fill="#fb8072" stroke="black" points="843.33,-252 758.67,-252 758.67,-216 843.33,-216 843.33,-252"/>
<text text-anchor="middle" x="801" y="-229.8" font-family="Times,serif" font-size="14.00">ListModule </text>
</g>
<!-- UiModule&#45;&gt;ListModule  -->
<g id="edge12" class="edge">
<title>UiModule&#45;&gt;ListModule </title>
<path fill="none" stroke="black" stroke-dasharray="5,2" d="M588.75,-179C654.15,-179 783.95,-179 783.95,-179 783.95,-179 783.95,-205.99 783.95,-205.99"/>
<polygon fill="black" stroke="black" points="780.45,-205.99 783.95,-215.99 787.45,-205.99 780.45,-205.99"/>
</g>
<!-- LoaderModule  -->
<g id="node14" class="node">
<title>LoaderModule </title>
<polygon fill="#fb8072" stroke="black" points="740.19,-252 637.81,-252 637.81,-216 740.19,-216 740.19,-252"/>
<text text-anchor="middle" x="689" y="-229.8" font-family="Times,serif" font-size="14.00">LoaderModule </text>
</g>
<!-- UiModule&#45;&gt;LoaderModule  -->
<g id="edge13" class="edge">
<title>UiModule&#45;&gt;LoaderModule </title>
<path fill="none" stroke="black" stroke-dasharray="5,2" d="M588.78,-183C623.51,-183 670.3,-183 670.3,-183 670.3,-183 670.3,-205.88 670.3,-205.88"/>
<polygon fill="black" stroke="black" points="666.8,-205.88 670.3,-215.88 673.8,-205.88 666.8,-205.88"/>
</g>
<!-- NotificationsModule  -->
<g id="node15" class="node">
<title>NotificationsModule </title>
<polygon fill="#fb8072" stroke="black" points="620.14,-252 483.86,-252 483.86,-216 620.14,-216 620.14,-252"/>
<text text-anchor="middle" x="552" y="-229.8" font-family="Times,serif" font-size="14.00">NotificationsModule </text>
</g>
<!-- UiModule&#45;&gt;NotificationsModule  -->
<g id="edge14" class="edge">
<title>UiModule&#45;&gt;NotificationsModule </title>
<path fill="none" stroke="black" stroke-dasharray="5,2" d="M552,-187.11C552,-187.11 552,-205.99 552,-205.99"/>
<polygon fill="black" stroke="black" points="548.5,-205.99 552,-215.99 555.5,-205.99 548.5,-205.99"/>
</g>
<!-- PopModule  -->
<g id="node16" class="node">
<title>PopModule </title>
<polygon fill="#fb8072" stroke="black" points="466.33,-252 381.67,-252 381.67,-216 466.33,-216 466.33,-252"/>
<text text-anchor="middle" x="424" y="-229.8" font-family="Times,serif" font-size="14.00">PopModule </text>
</g>
<!-- UiModule&#45;&gt;PopModule  -->
<g id="edge15" class="edge">
<title>UiModule&#45;&gt;PopModule </title>
<path fill="none" stroke="black" stroke-dasharray="5,2" d="M515.12,-183C473.95,-183 413.03,-183 413.03,-183 413.03,-183 413.03,-205.88 413.03,-205.88"/>
<polygon fill="black" stroke="black" points="409.53,-205.88 413.03,-215.88 416.53,-205.88 409.53,-205.88"/>
</g>
<!-- SelectModule  -->
<g id="node17" class="node">
<title>SelectModule </title>
<polygon fill="#fb8072" stroke="black" points="363.76,-252 266.24,-252 266.24,-216 363.76,-216 363.76,-252"/>
<text text-anchor="middle" x="315" y="-229.8" font-family="Times,serif" font-size="14.00">SelectModule </text>
</g>
<!-- UiModule&#45;&gt;SelectModule  -->
<g id="edge16" class="edge">
<title>UiModule&#45;&gt;SelectModule </title>
<path fill="none" stroke="black" stroke-dasharray="5,2" d="M515.4,-179C446.4,-179 303.96,-179 303.96,-179 303.96,-179 303.96,-205.99 303.96,-205.99"/>
<polygon fill="black" stroke="black" points="300.46,-205.99 303.96,-215.99 307.46,-205.99 300.46,-205.99"/>
</g>
<!-- SymbolModule  -->
<g id="node18" class="node">
<title>SymbolModule </title>
<polygon fill="#fb8072" stroke="black" points="248.11,-252 141.89,-252 141.89,-216 248.11,-216 248.11,-252"/>
<text text-anchor="middle" x="195" y="-229.8" font-family="Times,serif" font-size="14.00">SymbolModule </text>
</g>
<!-- UiModule&#45;&gt;SymbolModule  -->
<g id="edge17" class="edge">
<title>UiModule&#45;&gt;SymbolModule </title>
<path fill="none" stroke="black" stroke-dasharray="5,2" d="M515.42,-175C425.49,-175 200.88,-175 200.88,-175 200.88,-175 200.88,-205.98 200.88,-205.98"/>
<polygon fill="black" stroke="black" points="197.38,-205.98 200.88,-215.98 204.38,-205.98 197.38,-205.98"/>
</g>
<!-- UtilityModule  -->
<g id="node19" class="node">
<title>UtilityModule </title>
<polygon fill="#fb8072" stroke="black" points="123.61,-252 24.39,-252 24.39,-216 123.61,-216 123.61,-252"/>
<text text-anchor="middle" x="74" y="-229.8" font-family="Times,serif" font-size="14.00">UtilityModule </text>
</g>
<!-- UiModule&#45;&gt;UtilityModule  -->
<g id="edge18" class="edge">
<title>UiModule&#45;&gt;UtilityModule </title>
<path fill="none" stroke="black" stroke-dasharray="5,2" d="M515.07,-171C404.13,-171 81.38,-171 81.38,-171 81.38,-171 81.38,-205.78 81.38,-205.78"/>
<polygon fill="black" stroke="black" points="77.88,-205.78 81.38,-215.78 84.88,-205.78 77.88,-205.78"/>
</g>
</g>
</svg>
