<?xml version="1.0" encoding="UTF-8" standalone="no"?>
<!DOCTYPE svg PUBLIC "-//W3C//DTD SVG 1.1//EN"
 "http://www.w3.org/Graphics/SVG/1.1/DTD/svg11.dtd">
<!-- Generated by graphviz version 2.40.1 (20161225.0304)
 -->
<!-- Title: dependencies Pages: 1 -->
<svg width="1093pt" height="284pt"
 viewBox="0.00 0.00 1093.00 284.00" xmlns="http://www.w3.org/2000/svg" xmlns:xlink="http://www.w3.org/1999/xlink">
<g id="graph0" class="graph" transform="scale(1 1) rotate(0) translate(4 280)">
<title>dependencies</title>
<polygon fill="#ffffff" stroke="transparent" points="-4,4 -4,-280 1089,-280 1089,4 -4,4"/>
<text text-anchor="start" x="521.5091" y="-42.4" font-family="sans-serif" font-weight="bold" font-size="14.00" fill="#000000">Legend</text>
<polygon fill="#ffffb3" stroke="transparent" points="308.5,-10 308.5,-30 328.5,-30 328.5,-10 308.5,-10"/>
<text text-anchor="start" x="332.129" y="-15.4" font-family="sans-serif" font-size="14.00" fill="#000000"> &#160;Declarations</text>
<polygon fill="#8dd3c7" stroke="transparent" points="421.5,-10 421.5,-30 441.5,-30 441.5,-10 421.5,-10"/>
<text text-anchor="start" x="445.2251" y="-15.4" font-family="sans-serif" font-size="14.00" fill="#000000"> &#160;Module</text>
<polygon fill="#80b1d3" stroke="transparent" points="507.5,-10 507.5,-30 527.5,-30 527.5,-10 507.5,-10"/>
<text text-anchor="start" x="531.2812" y="-15.4" font-family="sans-serif" font-size="14.00" fill="#000000"> &#160;Bootstrap</text>
<polygon fill="#fdb462" stroke="transparent" points="604.5,-10 604.5,-30 624.5,-30 624.5,-10 604.5,-10"/>
<text text-anchor="start" x="628.1732" y="-15.4" font-family="sans-serif" font-size="14.00" fill="#000000"> &#160;Providers</text>
<polygon fill="#fb8072" stroke="transparent" points="700.5,-10 700.5,-30 720.5,-30 720.5,-10 700.5,-10"/>
<text text-anchor="start" x="724.2258" y="-15.4" font-family="sans-serif" font-size="14.00" fill="#000000"> &#160;Exports</text>
<g id="clust1" class="cluster">
<title>cluster_UiModule</title>
<polygon fill="none" stroke="#000000" stroke-dasharray="1,5" points="8,-70 8,-268 1077,-268 1077,-70 8,-70"/>
</g>
<g id="clust3" class="cluster">
<title>cluster_UiModule_imports</title>
<polygon fill="none" stroke="#000000" points="31,-78 31,-130 1053,-130 1053,-78 31,-78"/>
</g>
<g id="clust4" class="cluster">
<title>cluster_UiModule_exports</title>
<polygon fill="none" stroke="#000000" points="16,-208 16,-260 1069,-260 1069,-208 16,-208"/>
</g>
<!-- FormModule -->
<g id="node1" class="node">
<title>FormModule</title>
<polygon fill="#8dd3c7" stroke="#000000" points="1044.8837,-122 1041.8837,-126 1020.8837,-126 1017.8837,-122 955.1163,-122 955.1163,-86 1044.8837,-86 1044.8837,-122"/>
<text text-anchor="middle" x="1000" y="-99.8" font-family="Times,serif" font-size="14.00" fill="#000000">FormModule</text>
</g>
<!-- UiModule -->
<g id="node10" class="node">
<title>UiModule</title>
<polygon fill="#8dd3c7" stroke="#000000" points="588.5484,-187 585.5484,-191 564.5484,-191 561.5484,-187 515.4516,-187 515.4516,-151 588.5484,-151 588.5484,-187"/>
<text text-anchor="middle" x="552" y="-164.8" font-family="Times,serif" font-size="14.00" fill="#000000">UiModule</text>
</g>
<!-- FormModule&#45;&gt;UiModule -->
<g id="edge1" class="edge">
<title>FormModule&#45;&gt;UiModule</title>
<path fill="none" stroke="#000000" d="M961.1832,-122.2222C961.1832,-140.8285 961.1832,-167 961.1832,-167 961.1832,-167 598.6724,-167 598.6724,-167"/>
<polygon fill="#000000" stroke="#000000" points="598.6724,-163.5001 588.6724,-167 598.6723,-170.5001 598.6724,-163.5001"/>
</g>
<!-- IconModule -->
<g id="node2" class="node">
<title>IconModule</title>
<polygon fill="#8dd3c7" stroke="#000000" points="937.4261,-122 934.4261,-126 913.4261,-126 910.4261,-122 852.5739,-122 852.5739,-86 937.4261,-86 937.4261,-122"/>
<text text-anchor="middle" x="895" y="-99.8" font-family="Times,serif" font-size="14.00" fill="#000000">IconModule</text>
</g>
<!-- IconModule&#45;&gt;UiModule -->
<g id="edge2" class="edge">
<title>IconModule&#45;&gt;UiModule</title>
<path fill="none" stroke="#000000" d="M856.9125,-122.0225C856.9125,-139.3734 856.9125,-163 856.9125,-163 856.9125,-163 598.7796,-163 598.7796,-163"/>
<polygon fill="#000000" stroke="#000000" points="598.7796,-159.5001 588.7796,-163 598.7795,-166.5001 598.7796,-159.5001"/>
</g>
<!-- ListModule -->
<g id="node3" class="node">
<title>ListModule</title>
<polygon fill="#8dd3c7" stroke="#000000" points="834.8289,-122 831.8289,-126 810.8289,-126 807.8289,-122 753.1711,-122 753.1711,-86 834.8289,-86 834.8289,-122"/>
<text text-anchor="middle" x="794" y="-99.8" font-family="Times,serif" font-size="14.00" fill="#000000">ListModule</text>
</g>
<!-- ListModule&#45;&gt;UiModule -->
<g id="edge3" class="edge">
<title>ListModule&#45;&gt;UiModule</title>
<path fill="none" stroke="#000000" d="M809.3047,-122.0091C809.3047,-138.0494 809.3047,-159 809.3047,-159 809.3047,-159 598.5922,-159 598.5922,-159"/>
<polygon fill="#000000" stroke="#000000" points="598.5923,-155.5001 588.5922,-159 598.5922,-162.5001 598.5923,-155.5001"/>
</g>
<!-- LoaderModule -->
<g id="node4" class="node">
<title>LoaderModule</title>
<polygon fill="#8dd3c7" stroke="#000000" points="735.6924,-122 732.6924,-126 711.6924,-126 708.6924,-122 636.3076,-122 636.3076,-86 735.6924,-86 735.6924,-122"/>
<text text-anchor="middle" x="686" y="-99.8" font-family="Times,serif" font-size="14.00" fill="#000000">LoaderModule</text>
</g>
<!-- LoaderModule&#45;&gt;UiModule -->
<g id="edge4" class="edge">
<title>LoaderModule&#45;&gt;UiModule</title>
<path fill="none" stroke="#000000" d="M702.9487,-122.1243C702.9487,-136.7832 702.9487,-155 702.9487,-155 702.9487,-155 598.9262,-155 598.9262,-155"/>
<polygon fill="#000000" stroke="#000000" points="598.9262,-151.5001 588.9262,-155 598.9262,-158.5001 598.9262,-151.5001"/>
</g>
<!-- NotificationsModule -->
<g id="node5" class="node">
<title>NotificationsModule</title>
<polygon fill="#8dd3c7" stroke="#000000" points="618.1443,-122 615.1443,-126 594.1443,-126 591.1443,-122 485.8557,-122 485.8557,-86 618.1443,-86 618.1443,-122"/>
<text text-anchor="middle" x="552" y="-99.8" font-family="Times,serif" font-size="14.00" fill="#000000">NotificationsModule</text>
</g>
<!-- NotificationsModule&#45;&gt;UiModule -->
<g id="edge5" class="edge">
<title>NotificationsModule&#45;&gt;UiModule</title>
<path fill="none" stroke="#000000" d="M552,-122.1061C552,-122.1061 552,-140.991 552,-140.991"/>
<polygon fill="#000000" stroke="#000000" points="548.5001,-140.9909 552,-150.991 555.5001,-140.991 548.5001,-140.9909"/>
</g>
<!-- PopModule -->
<g id="node6" class="node">
<title>PopModule</title>
<polygon fill="#8dd3c7" stroke="#000000" points="467.8331,-122 464.8331,-126 443.8331,-126 440.8331,-122 386.1669,-122 386.1669,-86 467.8331,-86 467.8331,-122"/>
<text text-anchor="middle" x="427" y="-99.8" font-family="Times,serif" font-size="14.00" fill="#000000">PopModule</text>
</g>
<!-- PopModule&#45;&gt;UiModule -->
<g id="edge6" class="edge">
<title>PopModule&#45;&gt;UiModule</title>
<path fill="none" stroke="#000000" d="M439.7221,-122.1243C439.7221,-136.7832 439.7221,-155 439.7221,-155 439.7221,-155 505.236,-155 505.236,-155"/>
<polygon fill="#000000" stroke="#000000" points="505.236,-158.5001 515.236,-155 505.236,-151.5001 505.236,-158.5001"/>
</g>
<!-- SelectModule -->
<g id="node7" class="node">
<title>SelectModule</title>
<polygon fill="#8dd3c7" stroke="#000000" points="367.7577,-122 364.7577,-126 343.7577,-126 340.7577,-122 274.2423,-122 274.2423,-86 367.7577,-86 367.7577,-122"/>
<text text-anchor="middle" x="321" y="-99.8" font-family="Times,serif" font-size="14.00" fill="#000000">SelectModule</text>
</g>
<!-- SelectModule&#45;&gt;UiModule -->
<g id="edge7" class="edge">
<title>SelectModule&#45;&gt;UiModule</title>
<path fill="none" stroke="#000000" d="M333.7929,-122.0091C333.7929,-138.0494 333.7929,-159 333.7929,-159 333.7929,-159 504.9841,-159 504.9841,-159"/>
<polygon fill="#000000" stroke="#000000" points="504.9842,-162.5001 514.9841,-159 504.9841,-155.5001 504.9842,-162.5001"/>
</g>
<!-- SymbolModule -->
<g id="node8" class="node">
<title>SymbolModule</title>
<polygon fill="#8dd3c7" stroke="#000000" points="256.6137,-122 253.6137,-126 232.6137,-126 229.6137,-122 153.3863,-122 153.3863,-86 256.6137,-86 256.6137,-122"/>
<text text-anchor="middle" x="205" y="-99.8" font-family="Times,serif" font-size="14.00" fill="#000000">SymbolModule</text>
</g>
<!-- SymbolModule&#45;&gt;UiModule -->
<g id="edge8" class="edge">
<title>SymbolModule&#45;&gt;UiModule</title>
<path fill="none" stroke="#000000" d="M252.4318,-122.0225C252.4318,-139.3734 252.4318,-163 252.4318,-163 252.4318,-163 505.2671,-163 505.2671,-163"/>
<polygon fill="#000000" stroke="#000000" points="505.2671,-166.5001 515.2671,-163 505.267,-159.5001 505.2671,-166.5001"/>
</g>
<!-- UtilityModule -->
<g id="node9" class="node">
<title>UtilityModule</title>
<polygon fill="#8dd3c7" stroke="#000000" points="135.1095,-122 132.1095,-126 111.1095,-126 108.1095,-122 38.8905,-122 38.8905,-86 135.1095,-86 135.1095,-122"/>
<text text-anchor="middle" x="87" y="-99.8" font-family="Times,serif" font-size="14.00" fill="#000000">UtilityModule</text>
</g>
<!-- UtilityModule&#45;&gt;UiModule -->
<g id="edge9" class="edge">
<title>UtilityModule&#45;&gt;UiModule</title>
<path fill="none" stroke="#000000" d="M129.4297,-122.2222C129.4297,-140.8285 129.4297,-167 129.4297,-167 129.4297,-167 505.2389,-167 505.2389,-167"/>
<polygon fill="#000000" stroke="#000000" points="505.2389,-170.5001 515.2389,-167 505.2388,-163.5001 505.2389,-170.5001"/>
</g>
<!-- FormModule  -->
<g id="node11" class="node">
<title>FormModule </title>
<polygon fill="#fb8072" stroke="#000000" points="1060.8844,-252 967.1156,-252 967.1156,-216 1060.8844,-216 1060.8844,-252"/>
<text text-anchor="middle" x="1014" y="-229.8" font-family="Times,serif" font-size="14.00" fill="#000000">FormModule </text>
</g>
<!-- UiModule&#45;&gt;FormModule  -->
<g id="edge10" class="edge">
<title>UiModule&#45;&gt;FormModule </title>
<path fill="none" stroke="#000000" stroke-dasharray="5,2" d="M588.7783,-171C696.8898,-171 1006.125,-171 1006.125,-171 1006.125,-171 1006.125,-205.7778 1006.125,-205.7778"/>
<polygon fill="#000000" stroke="#000000" points="1002.6251,-205.7778 1006.125,-215.7778 1009.6251,-205.7778 1002.6251,-205.7778"/>
</g>
<!-- IconModule  -->
<g id="node12" class="node">
<title>IconModule </title>
<polygon fill="#fb8072" stroke="#000000" points="948.925,-252 861.075,-252 861.075,-216 948.925,-216 948.925,-252"/>
<text text-anchor="middle" x="905" y="-229.8" font-family="Times,serif" font-size="14.00" fill="#000000">IconModule </text>
</g>
<!-- UiModule&#45;&gt;IconModule  -->
<g id="edge11" class="edge">
<title>UiModule&#45;&gt;IconModule </title>
<path fill="none" stroke="#000000" stroke-dasharray="5,2" d="M588.8198,-175C678.1566,-175 899.125,-175 899.125,-175 899.125,-175 899.125,-205.9775 899.125,-205.9775"/>
<polygon fill="#000000" stroke="#000000" points="895.6251,-205.9774 899.125,-215.9775 902.6251,-205.9775 895.6251,-205.9774"/>
</g>
<!-- ListModule  -->
<g id="node13" class="node">
<title>ListModule </title>
<polygon fill="#fb8072" stroke="#000000" points="843.3284,-252 758.6716,-252 758.6716,-216 843.3284,-216 843.3284,-252"/>
<text text-anchor="middle" x="801" y="-229.8" font-family="Times,serif" font-size="14.00" fill="#000000">ListModule </text>
</g>
<!-- UiModule&#45;&gt;ListModule  -->
<g id="edge12" class="edge">
<title>UiModule&#45;&gt;ListModule </title>
<path fill="none" stroke="#000000" stroke-dasharray="5,2" d="M588.7524,-179C654.1547,-179 783.9453,-179 783.9453,-179 783.9453,-179 783.9453,-205.9909 783.9453,-205.9909"/>
<polygon fill="#000000" stroke="#000000" points="780.4454,-205.9909 783.9453,-215.9909 787.4454,-205.991 780.4454,-205.9909"/>
</g>
<!-- LoaderModule  -->
<g id="node14" class="node">
<title>LoaderModule </title>
<polygon fill="#fb8072" stroke="#000000" points="740.1927,-252 637.8073,-252 637.8073,-216 740.1927,-216 740.1927,-252"/>
<text text-anchor="middle" x="689" y="-229.8" font-family="Times,serif" font-size="14.00" fill="#000000">LoaderModule </text>
</g>
<!-- UiModule&#45;&gt;LoaderModule  -->
<g id="edge13" class="edge">
<title>UiModule&#45;&gt;LoaderModule </title>
<path fill="none" stroke="#000000" stroke-dasharray="5,2" d="M588.7828,-183C623.5104,-183 670.3013,-183 670.3013,-183 670.3013,-183 670.3013,-205.8757 670.3013,-205.8757"/>
<polygon fill="#000000" stroke="#000000" points="666.8014,-205.8757 670.3013,-215.8757 673.8014,-205.8757 666.8014,-205.8757"/>
</g>
<!-- NotificationsModule  -->
<g id="node15" class="node">
<title>NotificationsModule </title>
<polygon fill="#fb8072" stroke="#000000" points="620.1439,-252 483.8561,-252 483.8561,-216 620.1439,-216 620.1439,-252"/>
<text text-anchor="middle" x="552" y="-229.8" font-family="Times,serif" font-size="14.00" fill="#000000">NotificationsModule </text>
</g>
<!-- UiModule&#45;&gt;NotificationsModule  -->
<g id="edge14" class="edge">
<title>UiModule&#45;&gt;NotificationsModule </title>
<path fill="none" stroke="#000000" stroke-dasharray="5,2" d="M552,-187.1061C552,-187.1061 552,-205.991 552,-205.991"/>
<polygon fill="#000000" stroke="#000000" points="548.5001,-205.9909 552,-215.991 555.5001,-205.991 548.5001,-205.9909"/>
</g>
<!-- PopModule  -->
<g id="node16" class="node">
<title>PopModule </title>
<polygon fill="#fb8072" stroke="#000000" points="466.3326,-252 381.6674,-252 381.6674,-216 466.3326,-216 466.3326,-252"/>
<text text-anchor="middle" x="424" y="-229.8" font-family="Times,serif" font-size="14.00" fill="#000000">PopModule </text>
</g>
<!-- UiModule&#45;&gt;PopModule  -->
<g id="edge15" class="edge">
<title>UiModule&#45;&gt;PopModule </title>
<path fill="none" stroke="#000000" stroke-dasharray="5,2" d="M515.1229,-183C473.9517,-183 413.0279,-183 413.0279,-183 413.0279,-183 413.0279,-205.8757 413.0279,-205.8757"/>
<polygon fill="#000000" stroke="#000000" points="409.528,-205.8757 413.0279,-215.8757 416.528,-205.8757 409.528,-205.8757"/>
</g>
<!-- SelectModule  -->
<g id="node17" class="node">
<title>SelectModule </title>
<polygon fill="#fb8072" stroke="#000000" points="363.7577,-252 266.2423,-252 266.2423,-216 363.7577,-216 363.7577,-252"/>
<text text-anchor="middle" x="315" y="-229.8" font-family="Times,serif" font-size="14.00" fill="#000000">SelectModule </text>
</g>
<!-- UiModule&#45;&gt;SelectModule  -->
<g id="edge16" class="edge">
<title>UiModule&#45;&gt;SelectModule </title>
<path fill="none" stroke="#000000" stroke-dasharray="5,2" d="M515.4004,-179C446.4031,-179 303.9571,-179 303.9571,-179 303.9571,-179 303.9571,-205.9909 303.9571,-205.9909"/>
<polygon fill="#000000" stroke="#000000" points="300.4572,-205.9909 303.9571,-215.9909 307.4572,-205.991 300.4572,-205.9909"/>
</g>
<!-- SymbolModule  -->
<g id="node18" class="node">
<title>SymbolModule </title>
<polygon fill="#fb8072" stroke="#000000" points="248.1143,-252 141.8857,-252 141.8857,-216 248.1143,-216 248.1143,-252"/>
<text text-anchor="middle" x="195" y="-229.8" font-family="Times,serif" font-size="14.00" fill="#000000">SymbolModule </text>
</g>
<!-- UiModule&#45;&gt;SymbolModule  -->
<g id="edge17" class="edge">
<title>UiModule&#45;&gt;SymbolModule </title>
<path fill="none" stroke="#000000" stroke-dasharray="5,2" d="M515.4171,-175C425.4853,-175 200.875,-175 200.875,-175 200.875,-175 200.875,-205.9775 200.875,-205.9775"/>
<polygon fill="#000000" stroke="#000000" points="197.3751,-205.9774 200.875,-215.9775 204.3751,-205.9775 197.3751,-205.9774"/>
</g>
<!-- UtilityModule  -->
<g id="node19" class="node">
<title>UtilityModule </title>
<polygon fill="#fb8072" stroke="#000000" points="123.6102,-252 24.3898,-252 24.3898,-216 123.6102,-216 123.6102,-252"/>
<text text-anchor="middle" x="74" y="-229.8" font-family="Times,serif" font-size="14.00" fill="#000000">UtilityModule </text>
</g>
<!-- UiModule&#45;&gt;UtilityModule  -->
<g id="edge18" class="edge">
<title>UiModule&#45;&gt;UtilityModule </title>
<path fill="none" stroke="#000000" stroke-dasharray="5,2" d="M515.0708,-171C404.1254,-171 81.375,-171 81.375,-171 81.375,-171 81.375,-205.7778 81.375,-205.7778"/>
<polygon fill="#000000" stroke="#000000" points="77.8751,-205.7778 81.375,-215.7778 84.8751,-205.7778 77.8751,-205.7778"/>
</g>
</g>
</svg>
