<?xml version="1.0" encoding="UTF-8" standalone="no"?>
<!DOCTYPE svg PUBLIC "-//W3C//DTD SVG 1.1//EN"
 "http://www.w3.org/Graphics/SVG/1.1/DTD/svg11.dtd">
<!-- Generated by graphviz version 2.40.1 (20161225.0304)
 -->
<!-- Title: dependencies Pages: 1 -->
<svg width="1820pt" height="425pt"
 viewBox="0.00 0.00 1820.00 425.00" xmlns="http://www.w3.org/2000/svg" xmlns:xlink="http://www.w3.org/1999/xlink">
<g id="graph0" class="graph" transform="scale(1 1) rotate(0) translate(4 421)">
<title>dependencies</title>
<polygon fill="#ffffff" stroke="transparent" points="-4,4 -4,-421 1816,-421 1816,4 -4,4"/>
<text text-anchor="start" x="885.0091" y="-42.4" font-family="sans-serif" font-weight="bold" font-size="14.00" fill="#000000">Legend</text>
<polygon fill="#ffffb3" stroke="transparent" points="672,-10 672,-30 692,-30 692,-10 672,-10"/>
<text text-anchor="start" x="695.629" y="-15.4" font-family="sans-serif" font-size="14.00" fill="#000000"> &#160;Declarations</text>
<polygon fill="#8dd3c7" stroke="transparent" points="785,-10 785,-30 805,-30 805,-10 785,-10"/>
<text text-anchor="start" x="808.7251" y="-15.4" font-family="sans-serif" font-size="14.00" fill="#000000"> &#160;Module</text>
<polygon fill="#80b1d3" stroke="transparent" points="871,-10 871,-30 891,-30 891,-10 871,-10"/>
<text text-anchor="start" x="894.7812" y="-15.4" font-family="sans-serif" font-size="14.00" fill="#000000"> &#160;Bootstrap</text>
<polygon fill="#fdb462" stroke="transparent" points="968,-10 968,-30 988,-30 988,-10 968,-10"/>
<text text-anchor="start" x="991.6732" y="-15.4" font-family="sans-serif" font-size="14.00" fill="#000000"> &#160;Providers</text>
<polygon fill="#fb8072" stroke="transparent" points="1064,-10 1064,-30 1084,-30 1084,-10 1064,-10"/>
<text text-anchor="start" x="1087.7258" y="-15.4" font-family="sans-serif" font-size="14.00" fill="#000000"> &#160;Exports</text>
<g id="clust1" class="cluster">
<title>cluster_AppModule</title>
<polygon fill="none" stroke="#000000" stroke-dasharray="1,5" points="255,-146 255,-409 407,-409 407,-146 255,-146"/>
</g>
<g id="clust3" class="cluster">
<title>cluster_AppModule_imports</title>
<polygon fill="none" stroke="#000000" points="285,-154 285,-271 387,-271 387,-154 285,-154"/>
</g>
<g id="clust5" class="cluster">
<title>cluster_AppModule_bootstrap</title>
<polygon fill="none" stroke="#000000" points="263,-349 263,-401 399,-401 399,-349 263,-349"/>
</g>
<g id="clust7" class="cluster">
<title>cluster_DataModule</title>
<polygon fill="none" stroke="#000000" stroke-dasharray="1,5" points="8,-70 8,-138 422,-138 422,-70 8,-70"/>
</g>
<g id="clust9" class="cluster">
<title>cluster_DataModule_imports</title>
<polygon fill="none" stroke="#000000" points="178,-78 178,-130 414,-130 414,-78 178,-78"/>
</g>
<g id="clust10" class="cluster">
<title>cluster_DataModule_exports</title>
<polygon fill="none" stroke="#000000" points="16,-78 16,-130 170,-130 170,-78 16,-78"/>
</g>
<g id="clust13" class="cluster">
<title>cluster_UiModule</title>
<polygon fill="none" stroke="#000000" stroke-dasharray="1,5" points="415,-211 415,-279 1804,-279 1804,-211 415,-211"/>
</g>
<g id="clust16" class="cluster">
<title>cluster_UiModule_exports</title>
<polygon fill="none" stroke="#000000" points="423,-219 423,-271 1796,-271 1796,-219 423,-219"/>
</g>
<!-- UiModule -->
<g id="node1" class="node">
<title>UiModule</title>
<polygon fill="#8dd3c7" stroke="#000000" points="378.5484,-198 375.5484,-202 354.5484,-202 351.5484,-198 305.4516,-198 305.4516,-162 378.5484,-162 378.5484,-198"/>
<text text-anchor="middle" x="342" y="-175.8" font-family="Times,serif" font-size="14.00" fill="#000000">UiModule</text>
</g>
<!-- DataModule -->
<g id="node2" class="node">
<title>DataModule</title>
<polygon fill="#8dd3c7" stroke="#000000" points="378.9762,-263 375.9762,-267 354.9762,-267 351.9762,-263 293.0238,-263 293.0238,-227 378.9762,-227 378.9762,-263"/>
<text text-anchor="middle" x="336" y="-240.8" font-family="Times,serif" font-size="14.00" fill="#000000">DataModule</text>
</g>
<!-- UiModule&#45;&gt;DataModule -->
<g id="edge6" class="edge">
<title>UiModule&#45;&gt;DataModule</title>
<path fill="none" stroke="#000000" d="M342,-198.1061C342,-198.1061 342,-216.991 342,-216.991"/>
<polygon fill="#000000" stroke="#000000" points="338.5001,-216.9909 342,-226.991 345.5001,-216.991 338.5001,-216.9909"/>
</g>
<!-- AppModule -->
<g id="node3" class="node">
<title>AppModule</title>
<polygon fill="#8dd3c7" stroke="#000000" points="377.6571,-328 374.6571,-332 353.6571,-332 350.6571,-328 294.3429,-328 294.3429,-292 377.6571,-292 377.6571,-328"/>
<text text-anchor="middle" x="336" y="-305.8" font-family="Times,serif" font-size="14.00" fill="#000000">AppModule</text>
</g>
<!-- UiModule&#45;&gt;AppModule -->
<g id="edge1" class="edge">
<title>UiModule&#45;&gt;AppModule</title>
<path fill="none" stroke="#000000" d="M378.8952,-195C383.5251,-195 386.6774,-195 386.6774,-195 386.6774,-195 386.6774,-310 386.6774,-310 386.6774,-310 385.7947,-310 385.7947,-310"/>
<polygon fill="#000000" stroke="#000000" points="387.8501,-306.5001 377.8501,-310 387.8501,-313.5001 387.8501,-306.5001"/>
</g>
<!-- ListComponent  -->
<g id="node8" class="node">
<title>ListComponent </title>
<polygon fill="#fb8072" stroke="#000000" points="1237.1115,-263 1130.8885,-263 1130.8885,-227 1237.1115,-227 1237.1115,-263"/>
<text text-anchor="middle" x="1184" y="-240.8" font-family="Times,serif" font-size="14.00" fill="#000000">ListComponent </text>
</g>
<!-- UiModule&#45;&gt;ListComponent  -->
<g id="edge10" class="edge">
<title>UiModule&#45;&gt;ListComponent </title>
<path fill="none" stroke="#000000" stroke-dasharray="5,2" d="M378.7211,-177C540.7819,-177 1184,-177 1184,-177 1184,-177 1184,-216.7772 1184,-216.7772"/>
<polygon fill="#000000" stroke="#000000" points="1180.5001,-216.7772 1184,-226.7772 1187.5001,-216.7773 1180.5001,-216.7772"/>
</g>
<!-- PaginationComponent  -->
<g id="node9" class="node">
<title>PaginationComponent </title>
<polygon fill="#fb8072" stroke="#000000" points="1112.2163,-263 967.7837,-263 967.7837,-227 1112.2163,-227 1112.2163,-263"/>
<text text-anchor="middle" x="1040" y="-240.8" font-family="Times,serif" font-size="14.00" fill="#000000">PaginationComponent </text>
</g>
<!-- UiModule&#45;&gt;PaginationComponent  -->
<g id="edge11" class="edge">
<title>UiModule&#45;&gt;PaginationComponent </title>
<path fill="none" stroke="#000000" stroke-dasharray="5,2" d="M379.0347,-180C523.337,-180 1040,-180 1040,-180 1040,-180 1040,-216.8939 1040,-216.8939"/>
<polygon fill="#000000" stroke="#000000" points="1036.5001,-216.8938 1040,-226.8939 1043.5001,-216.8939 1036.5001,-216.8938"/>
</g>
<!-- TabsComponent  -->
<g id="node10" class="node">
<title>TabsComponent </title>
<polygon fill="#fb8072" stroke="#000000" points="950.0442,-263 837.9558,-263 837.9558,-227 950.0442,-227 950.0442,-263"/>
<text text-anchor="middle" x="894" y="-240.8" font-family="Times,serif" font-size="14.00" fill="#000000">TabsComponent </text>
</g>
<!-- UiModule&#45;&gt;TabsComponent  -->
<g id="edge12" class="edge">
<title>UiModule&#45;&gt;TabsComponent </title>
<path fill="none" stroke="#000000" stroke-dasharray="5,2" d="M378.6458,-183C501.9326,-183 894,-183 894,-183 894,-183 894,-216.7333 894,-216.7333"/>
<polygon fill="#000000" stroke="#000000" points="890.5001,-216.7333 894,-226.7333 897.5001,-216.7333 890.5001,-216.7333"/>
</g>
<!-- TabComponent  -->
<g id="node11" class="node">
<title>TabComponent </title>
<polygon fill="#fb8072" stroke="#000000" points="820.1003,-263 713.8997,-263 713.8997,-227 820.1003,-227 820.1003,-263"/>
<text text-anchor="middle" x="767" y="-240.8" font-family="Times,serif" font-size="14.00" fill="#000000">TabComponent </text>
</g>
<!-- UiModule&#45;&gt;TabComponent  -->
<g id="edge13" class="edge">
<title>UiModule&#45;&gt;TabComponent </title>
<path fill="none" stroke="#000000" stroke-dasharray="5,2" d="M378.6031,-186C481.6927,-186 767,-186 767,-186 767,-186 767,-216.9775 767,-216.9775"/>
<polygon fill="#000000" stroke="#000000" points="763.5001,-216.9774 767,-226.9775 770.5001,-216.9775 763.5001,-216.9774"/>
</g>
<!-- MockupComponent  -->
<g id="node12" class="node">
<title>MockupComponent </title>
<polygon fill="#fb8072" stroke="#000000" points="695.9925,-263 564.0075,-263 564.0075,-227 695.9925,-227 695.9925,-263"/>
<text text-anchor="middle" x="630" y="-240.8" font-family="Times,serif" font-size="14.00" fill="#000000">MockupComponent </text>
</g>
<!-- UiModule&#45;&gt;MockupComponent  -->
<g id="edge14" class="edge">
<title>UiModule&#45;&gt;MockupComponent </title>
<path fill="none" stroke="#000000" stroke-dasharray="5,2" d="M378.7679,-189C456.4091,-189 630,-189 630,-189 630,-189 630,-216.973 630,-216.973"/>
<polygon fill="#000000" stroke="#000000" points="626.5001,-216.973 630,-226.973 633.5001,-216.973 626.5001,-216.973"/>
</g>
<!-- FilterComponent  -->
<g id="node13" class="node">
<title>FilterComponent </title>
<polygon fill="#fb8072" stroke="#000000" points="546.6621,-263 431.3379,-263 431.3379,-227 546.6621,-227 546.6621,-263"/>
<text text-anchor="middle" x="489" y="-240.8" font-family="Times,serif" font-size="14.00" fill="#000000">FilterComponent </text>
</g>
<!-- UiModule&#45;&gt;FilterComponent  -->
<g id="edge15" class="edge">
<title>UiModule&#45;&gt;FilterComponent </title>
<path fill="none" stroke="#000000" stroke-dasharray="5,2" d="M378.7151,-192C422.2555,-192 489,-192 489,-192 489,-192 489,-216.7604 489,-216.7604"/>
<polygon fill="#000000" stroke="#000000" points="485.5001,-216.7604 489,-226.7604 492.5001,-216.7604 485.5001,-216.7604"/>
</g>
<!-- FieldComponent  -->
<g id="node14" class="node">
<title>FieldComponent </title>
<polygon fill="#fb8072" stroke="#000000" points="1787.6115,-263 1674.3885,-263 1674.3885,-227 1787.6115,-227 1787.6115,-263"/>
<text text-anchor="middle" x="1731" y="-240.8" font-family="Times,serif" font-size="14.00" fill="#000000">FieldComponent </text>
</g>
<!-- UiModule&#45;&gt;FieldComponent  -->
<g id="edge16" class="edge">
<title>UiModule&#45;&gt;FieldComponent </title>
<path fill="none" stroke="#000000" stroke-dasharray="5,2" d="M378.7946,-165C598.8182,-165 1731,-165 1731,-165 1731,-165 1731,-216.8468 1731,-216.8468"/>
<polygon fill="#000000" stroke="#000000" points="1727.5001,-216.8467 1731,-226.8468 1734.5001,-216.8468 1727.5001,-216.8467"/>
</g>
<!-- ListItemsComponent  -->
<g id="node15" class="node">
<title>ListItemsComponent </title>
<polygon fill="#fb8072" stroke="#000000" points="1655.7121,-263 1518.2879,-263 1518.2879,-227 1655.7121,-227 1655.7121,-263"/>
<text text-anchor="middle" x="1587" y="-240.8" font-family="Times,serif" font-size="14.00" fill="#000000">ListItemsComponent </text>
</g>
<!-- UiModule&#45;&gt;ListItemsComponent  -->
<g id="edge17" class="edge">
<title>UiModule&#45;&gt;ListItemsComponent </title>
<path fill="none" stroke="#000000" stroke-dasharray="5,2" d="M378.5862,-168C584.232,-168 1587,-168 1587,-168 1587,-168 1587,-216.7521 1587,-216.7521"/>
<polygon fill="#000000" stroke="#000000" points="1583.5001,-216.752 1587,-226.7521 1590.5001,-216.7521 1583.5001,-216.752"/>
</g>
<!-- ListHeaderComponent  -->
<g id="node16" class="node">
<title>ListHeaderComponent </title>
<polygon fill="#fb8072" stroke="#000000" points="1500.5218,-263 1353.4782,-263 1353.4782,-227 1500.5218,-227 1500.5218,-263"/>
<text text-anchor="middle" x="1427" y="-240.8" font-family="Times,serif" font-size="14.00" fill="#000000">ListHeaderComponent </text>
</g>
<!-- UiModule&#45;&gt;ListHeaderComponent  -->
<g id="edge18" class="edge">
<title>UiModule&#45;&gt;ListHeaderComponent </title>
<path fill="none" stroke="#000000" stroke-dasharray="5,2" d="M378.7216,-171C568.2503,-171 1427,-171 1427,-171 1427,-171 1427,-216.7079 1427,-216.7079"/>
<polygon fill="#000000" stroke="#000000" points="1423.5001,-216.7078 1427,-226.7079 1430.5001,-216.7079 1423.5001,-216.7078"/>
</g>
<!-- GroupPipe  -->
<g id="node17" class="node">
<title>GroupPipe </title>
<polygon fill="#fb8072" stroke="#000000" points="1335.1552,-263 1254.8448,-263 1254.8448,-227 1335.1552,-227 1335.1552,-263"/>
<text text-anchor="middle" x="1295" y="-240.8" font-family="Times,serif" font-size="14.00" fill="#000000">GroupPipe </text>
</g>
<!-- UiModule&#45;&gt;GroupPipe  -->
<g id="edge19" class="edge">
<title>UiModule&#45;&gt;GroupPipe </title>
<path fill="none" stroke="#000000" stroke-dasharray="5,2" d="M378.7748,-174C553.9142,-174 1295,-174 1295,-174 1295,-174 1295,-216.7157 1295,-216.7157"/>
<polygon fill="#000000" stroke="#000000" points="1291.5001,-216.7157 1295,-226.7157 1298.5001,-216.7158 1291.5001,-216.7157"/>
</g>
<!-- DataModule&#45;&gt;AppModule -->
<g id="edge2" class="edge">
<title>DataModule&#45;&gt;AppModule</title>
<path fill="none" stroke="#000000" d="M336,-263.1061C336,-263.1061 336,-281.991 336,-281.991"/>
<polygon fill="#000000" stroke="#000000" points="332.5001,-281.9909 336,-291.991 339.5001,-281.991 332.5001,-281.9909"/>
</g>
<!-- EntryListComponent  -->
<g id="node7" class="node">
<title>EntryListComponent </title>
<polygon fill="#fb8072" stroke="#000000" points="161.7149,-122 24.2851,-122 24.2851,-86 161.7149,-86 161.7149,-122"/>
<text text-anchor="middle" x="93" y="-99.8" font-family="Times,serif" font-size="14.00" fill="#000000">EntryListComponent </text>
</g>
<!-- DataModule&#45;&gt;EntryListComponent  -->
<g id="edge7" class="edge">
<title>DataModule&#45;&gt;EntryListComponent </title>
<path fill="none" stroke="#000000" stroke-dasharray="5,2" d="M292.8365,-245C223.008,-245 93,-245 93,-245 93,-245 93,-132.1446 93,-132.1446"/>
<polygon fill="#000000" stroke="#000000" points="96.5001,-132.1446 93,-122.1446 89.5001,-132.1447 96.5001,-132.1446"/>
</g>
<!-- DemoComponent  -->
<g id="node4" class="node">
<title>DemoComponent </title>
<polygon fill="#80b1d3" stroke="#000000" points="390.5442,-393 271.4558,-393 271.4558,-357 390.5442,-357 390.5442,-393"/>
<text text-anchor="middle" x="331" y="-370.8" font-family="Times,serif" font-size="14.00" fill="#000000">DemoComponent </text>
</g>
<!-- AppModule&#45;&gt;DemoComponent  -->
<g id="edge3" class="edge">
<title>AppModule&#45;&gt;DemoComponent </title>
<path fill="none" stroke="#000000" stroke-dasharray="1,5" d="M336,-328.1061C336,-328.1061 336,-346.991 336,-346.991"/>
<polygon fill="#000000" stroke="#000000" points="332.5001,-346.9909 336,-356.991 339.5001,-346.991 332.5001,-346.9909"/>
</g>
<!-- BrowserModule -->
<g id="node5" class="node">
<title>BrowserModule</title>
<polygon fill="#8dd3c7" stroke="#000000" points="292.4734,-122 289.4734,-126 268.4734,-126 265.4734,-122 185.5266,-122 185.5266,-86 292.4734,-86 292.4734,-122"/>
<text text-anchor="middle" x="239" y="-99.8" font-family="Times,serif" font-size="14.00" fill="#000000">BrowserModule</text>
</g>
<!-- BrowserModule&#45;&gt;UiModule -->
<g id="edge8" class="edge">
<title>BrowserModule&#45;&gt;UiModule</title>
<path fill="none" stroke="#000000" d="M281.9823,-122.0109C281.9823,-144.4852 281.9823,-180 281.9823,-180 281.9823,-180 295.3586,-180 295.3586,-180"/>
<polygon fill="#000000" stroke="#000000" points="295.3586,-183.5001 305.3586,-180 295.3585,-176.5001 295.3586,-183.5001"/>
</g>
<!-- BrowserModule&#45;&gt;DataModule -->
<g id="edge4" class="edge">
<title>BrowserModule&#45;&gt;DataModule</title>
<path fill="none" stroke="#000000" d="M292.6854,-104C296.6387,-104 299.1192,-104 299.1192,-104 299.1192,-104 299.1192,-216.8554 299.1192,-216.8554"/>
<polygon fill="#000000" stroke="#000000" points="295.6193,-216.8553 299.1192,-226.8554 302.6193,-216.8554 295.6193,-216.8553"/>
</g>
<!-- FormsModule -->
<g id="node6" class="node">
<title>FormsModule</title>
<polygon fill="#8dd3c7" stroke="#000000" points="405.8288,-122 402.8288,-126 381.8288,-126 378.8288,-122 310.1712,-122 310.1712,-86 405.8288,-86 405.8288,-122"/>
<text text-anchor="middle" x="358" y="-99.8" font-family="Times,serif" font-size="14.00" fill="#000000">FormsModule</text>
</g>
<!-- FormsModule&#45;&gt;UiModule -->
<g id="edge9" class="edge">
<title>FormsModule&#45;&gt;UiModule</title>
<path fill="none" stroke="#000000" d="M344.5547,-122.0109C344.5547,-122.0109 344.5547,-151.855 344.5547,-151.855"/>
<polygon fill="#000000" stroke="#000000" points="341.0548,-151.8549 344.5547,-161.855 348.0548,-151.855 341.0548,-151.8549"/>
</g>
<!-- FormsModule&#45;&gt;DataModule -->
<g id="edge5" class="edge">
<title>FormsModule&#45;&gt;DataModule</title>
<path fill="none" stroke="#000000" d="M382.8328,-122.1446C382.8328,-160.2265 382.8328,-245 382.8328,-245 382.8328,-245 382.4653,-245 382.4653,-245"/>
<polygon fill="#000000" stroke="#000000" points="389.158,-241.5003 379.1579,-245 389.1578,-248.5003 389.158,-241.5003"/>
</g>
</g>
</svg>
